<svg width="300" height="400" viewBox="0 0 300 400" fill="none" xmlns="http://www.w3.org/2000/svg">
<path d="M111.242 264.457C109.493 272.661 107.482 287.283 106.232 301.271C104.714 318.265 104.406 332.511 105.744 341.602C106.629 347.612 112.219 351.767 118.229 350.883C124.239 349.998 128.395 344.409 127.51 338.398C126.493 331.491 126.772 318.6 128.145 303.229C129.322 290.056 131.218 276.271 132.758 269.043C134.025 263.102 130.235 257.258 124.293 255.992C118.352 254.725 112.508 258.515 111.242 264.457Z" fill="#F5D0C3"/>
<path d="M155.728 279.729C157.249 287.079 158.752 298.009 159.598 308.509C160.581 320.695 160.626 331.338 159.611 338.444C158.752 344.458 162.931 350.03 168.945 350.889C174.959 351.749 180.531 347.57 181.39 341.556C182.681 332.517 182.63 320.413 181.527 306.741C180.61 295.374 178.985 283.553 177.272 275.271C176.041 269.322 170.221 265.497 164.272 266.728C158.322 267.959 154.498 273.78 155.728 279.729Z" fill="#F5D0C3"/>
<path d="M145.25 265L103.875 243C103.875 243 98.7896 252.965 95.1484 265C92.2163 274.691 90.4983 286.603 91.0002 289C92.1252 294.375 130.375 302.25 135.875 299.5C141.375 296.75 145.25 265 145.25 265Z" fill="#232526"/>
<path d="M145 282.75C169.025 282.75 188.5 271.557 188.5 257.75C188.5 243.943 169.025 232.75 145 232.75C120.976 232.75 101.5 243.943 101.5 257.75C101.5 271.557 120.976 282.75 145 282.75Z" fill="#232526"/>
<path d="M142.523 263.875L185.023 240.75C185.023 240.75 189.808 254.094 193.023 267.25C195.875 278.917 197.271 290.438 196.273 292.375C194.15 296.5 154.772 303 151.023 299.5C147.275 296 142.523 263.875 142.523 263.875Z" fill="#232526"/>
<path d="M180.241 347.625C181.441 346.725 182.116 334.875 182.116 331.875C171.616 336.625 163.741 332.75 159.991 331.25C159.366 335 159.116 340.25 159.116 344.25C160.366 347.875 178.741 348.75 180.241 347.625Z" fill="#EDF0F4"/>
<path d="M205.366 361.358C205.366 349.683 195.902 340.22 184.228 340.22H181.058H178.343C178.343 340.22 178.624 344.933 169.476 344.933C160.328 344.933 159.061 340.22 159.061 340.22H157.906C157.268 340.22 156.75 340.738 156.75 341.375V360.033C156.75 361.63 158.044 362.923 159.64 362.923H203.8C204.665 362.923 205.366 362.223 205.366 361.358Z" fill="#3B3F45"/>
<mask id="mask0_0_41" style="mask-type:luminance" maskUnits="userSpaceOnUse" x="156" y="340" width="50" height="23">
<path fill-rule="evenodd" clip-rule="evenodd" d="M205.366 361.358C205.366 349.683 195.902 340.22 184.228 340.22H181.058H174.981H168.904H162.827H156.75V360.033C156.75 361.63 158.044 362.923 159.64 362.923H203.8C204.665 362.923 205.366 362.223 205.366 361.358Z" fill="white"/>
</mask>
<g mask="url(#mask0_0_41)">
<path d="M199.727 348.598C203.372 346.538 201.943 350.62 205.218 352.353L212.153 365.648H156.958C155.609 363.72 150.737 353.73 154.616 352.353C161.741 349.825 174.297 358.568 179.498 358.278C184.7 357.99 199.59 360.155 198.716 355.533C197.704 350.188 196.404 350.475 199.727 348.598Z" fill="#555D65"/>
<path d="M177.729 351.195C179.454 351.665 180.844 351.602 181.632 351.003C183.662 349.44 182.362 347.058 181.811 346.125C182.803 347.268 183.789 348.415 184.559 349.665C185.772 351.617 186.286 353.763 185.468 355.135C184.001 357.615 180.474 356.47 178.226 355.472L157.366 346.218L177.729 351.195Z" fill="#7F8389"/>
</g>
<path d="M185.987 346.26C185.559 346.947 186.224 347.793 186.993 347.541L193.327 345.466L191.071 348.676C190.795 349.068 190.89 349.609 191.281 349.884C191.673 350.16 192.214 350.065 192.489 349.674L196.246 344.329C196.726 343.646 196.059 342.747 195.267 343.006L188.717 345.152L190.782 341.83C191.201 341.158 190.572 340.322 189.81 340.538L182.965 342.479C183.224 342.213 183.553 341.932 183.952 341.633C184.225 341.428 185.188 340.753 185.365 340.621C185.748 340.334 185.825 339.79 185.538 339.407C185.25 339.024 184.707 338.947 184.324 339.234C184.178 339.344 183.215 340.018 182.912 340.246C181.359 341.41 180.51 342.472 180.51 343.83C180.51 344.405 181.06 344.821 181.613 344.664L188.127 342.818L185.987 346.26Z" fill="#7F8389"/>
<path fill-rule="evenodd" clip-rule="evenodd" d="M187.995 339.654C186.929 340.365 185.56 340.792 184.411 340.792C183.865 340.792 183.462 340.694 183.174 340.494C182.905 340.311 182.733 340.036 182.634 339.655C182.547 339.323 182.514 338.919 182.512 338.335C182.511 338.126 182.513 337.979 182.522 337.521L182.522 337.517L182.523 337.447C182.53 337.074 182.533 336.853 182.533 336.605C182.533 334.037 184.213 332.126 186.434 332.126C187.515 332.126 188.396 332.577 189.005 333.406C189.59 334.201 189.902 335.32 189.902 336.605C189.902 337.789 189.196 338.856 187.995 339.654ZM184.255 337.558C184.247 337.997 184.245 338.138 184.246 338.33C184.247 338.653 184.259 338.889 184.281 339.055C184.32 339.057 184.363 339.058 184.411 339.058C185.212 339.058 186.248 338.735 187.035 338.21C187.792 337.707 188.168 337.139 188.168 336.605C188.168 335.667 187.956 334.906 187.609 334.434C187.324 334.046 186.96 333.859 186.434 333.859C185.224 333.859 184.267 334.948 184.267 336.605C184.267 336.866 184.264 337.096 184.257 337.479L184.255 337.554L184.255 337.558Z" fill="#7F8389"/>
<path fill-rule="evenodd" clip-rule="evenodd" d="M182.958 340.607L183.108 340.412L183.127 340.218C183.129 340.207 183.13 340.197 183.132 340.182C183.148 340.083 183.146 339.95 183.122 339.807C183.082 339.561 182.984 339.278 182.812 338.888C182.75 338.747 182.708 338.658 182.563 338.348L182.551 338.322C182.442 338.09 182.362 337.918 182.281 337.735C181.513 336.01 179.802 335.24 178.296 335.911C177.562 336.238 177.099 336.808 176.933 337.548C176.774 338.257 176.896 339.099 177.279 339.96C177.631 340.754 178.427 341.257 179.484 341.431C180.42 341.582 181.476 341.454 182.255 341.107C182.607 340.953 182.817 340.791 182.958 340.607ZM178.625 337.927C178.672 337.72 178.771 337.597 179.002 337.494C179.59 337.232 180.302 337.553 180.697 338.44C180.784 338.637 180.868 338.818 180.991 339.079L181.003 339.103C181.132 339.38 181.171 339.464 181.226 339.588L181.245 339.632C180.802 339.758 180.248 339.798 179.763 339.719C179.237 339.633 178.95 339.452 178.864 339.256C178.622 338.714 178.554 338.243 178.625 337.927Z" fill="#7F8389"/>
<path d="M106.759 347.625C105.559 346.725 104.884 334.875 104.884 331.875C115.384 336.625 123.259 332.75 127.009 331.25C127.634 335 127.884 340.25 127.884 344.25C126.634 347.875 108.259 348.75 106.759 347.625Z" fill="#EDF0F4"/>
<path d="M81.6343 361.358C81.6343 349.683 91.098 340.22 102.772 340.22H105.942H108.657C108.657 340.22 108.376 344.933 117.524 344.933C126.672 344.933 127.939 340.22 127.939 340.22H129.094C129.732 340.22 130.25 340.738 130.25 341.375V360.033C130.25 361.63 128.956 362.923 127.36 362.923H83.2C82.3353 362.923 81.6343 362.223 81.6343 361.358Z" fill="#3B3F45"/>
<mask id="mask1_0_41" style="mask-type:luminance" maskUnits="userSpaceOnUse" x="81" y="340" width="50" height="23">
<path fill-rule="evenodd" clip-rule="evenodd" d="M81.6343 361.358C81.6343 349.683 91.098 340.22 102.772 340.22H105.942H112.019H118.096H124.173H130.25V360.033C130.25 361.63 128.956 362.923 127.36 362.923H83.2C82.3353 362.923 81.6343 362.223 81.6343 361.358Z" fill="white"/>
</mask>
<g mask="url(#mask1_0_41)">
<path d="M87.2728 348.598C83.6278 346.538 85.0573 350.62 81.782 352.353L74.8465 365.648H130.042C131.391 363.72 136.263 353.73 132.384 352.353C125.259 349.825 112.703 358.568 107.502 358.278C102.3 357.99 87.4095 360.155 88.284 355.533C89.2955 350.188 90.596 350.475 87.2728 348.598Z" fill="#555D65"/>
<path d="M109.271 351.195C107.546 351.665 106.156 351.602 105.368 351.003C103.338 349.44 104.638 347.058 105.189 346.125C104.197 347.268 103.211 348.415 102.441 349.665C101.228 351.617 100.714 353.763 101.532 355.135C102.999 357.615 106.526 356.47 108.774 355.472L129.634 346.218L109.271 351.195Z" fill="#7F8389"/>
</g>
<path d="M101.013 346.26C101.441 346.947 100.776 347.793 100.007 347.541L93.673 345.466L95.9293 348.676C96.2046 349.068 96.1103 349.609 95.7186 349.884C95.3268 350.16 94.7861 350.065 94.5108 349.674L90.754 344.329C90.2744 343.646 90.9406 342.747 91.7332 343.006L98.2827 345.152L96.2175 341.83C95.7993 341.158 96.428 340.322 97.1902 340.538L104.035 342.479C103.776 342.213 103.447 341.932 103.048 341.633C102.775 341.428 101.812 340.753 101.635 340.621C101.252 340.334 101.175 339.79 101.462 339.407C101.75 339.024 102.293 338.947 102.676 339.234C102.822 339.344 103.785 340.018 104.088 340.246C105.641 341.41 106.49 342.472 106.49 343.83C106.49 344.405 105.94 344.821 105.387 344.664L98.8732 342.818L101.013 346.26Z" fill="#7F8389"/>
<path fill-rule="evenodd" clip-rule="evenodd" d="M99.0048 339.654C100.071 340.365 101.44 340.792 102.589 340.792C103.135 340.792 103.538 340.694 103.826 340.494C104.095 340.311 104.267 340.036 104.366 339.655C104.453 339.323 104.486 338.919 104.488 338.335C104.489 338.126 104.487 337.979 104.478 337.521L104.478 337.517L104.477 337.447C104.47 337.074 104.467 336.853 104.467 336.605C104.467 334.037 102.787 332.126 100.566 332.126C99.4854 332.126 98.6042 332.577 97.9945 333.406C97.4103 334.201 97.098 335.32 97.098 336.605C97.098 337.789 97.804 338.856 99.0048 339.654ZM102.745 337.558C102.753 337.997 102.755 338.138 102.754 338.33C102.753 338.653 102.741 338.889 102.719 339.055C102.68 339.057 102.637 339.058 102.589 339.058C101.788 339.058 100.752 338.735 99.9653 338.21C99.2076 337.707 98.8319 337.139 98.8319 336.605C98.8319 335.667 99.0443 334.906 99.3915 334.434C99.6764 334.046 100.04 333.859 100.566 333.859C101.776 333.859 102.733 334.948 102.733 336.605C102.733 336.866 102.736 337.096 102.743 337.479L102.745 337.554L102.745 337.558Z" fill="#7F8389"/>
<path fill-rule="evenodd" clip-rule="evenodd" d="M104.042 340.607L103.892 340.412L103.873 340.218C103.871 340.207 103.87 340.197 103.868 340.182C103.852 340.083 103.854 339.95 103.878 339.807C103.918 339.561 104.016 339.278 104.188 338.888C104.25 338.747 104.292 338.658 104.437 338.348L104.449 338.322C104.558 338.09 104.638 337.918 104.719 337.735C105.487 336.01 107.198 335.24 108.704 335.911C109.438 336.238 109.901 336.808 110.067 337.548C110.226 338.257 110.104 339.099 109.721 339.96C109.369 340.754 108.573 341.257 107.516 341.431C106.58 341.582 105.524 341.454 104.745 341.107C104.393 340.953 104.183 340.791 104.042 340.607ZM108.375 337.927C108.328 337.72 108.229 337.597 107.998 337.494C107.41 337.232 106.698 337.553 106.303 338.44C106.216 338.637 106.132 338.818 106.009 339.079L105.997 339.103C105.868 339.38 105.829 339.464 105.774 339.588L105.755 339.632C106.198 339.758 106.752 339.798 107.237 339.719C107.763 339.633 108.05 339.452 108.136 339.256C108.378 338.714 108.446 338.243 108.375 337.927Z" fill="#7F8389"/>
<path d="M99.0381 162.909C95.3041 168.62 89.6125 181.351 85.895 193.455C83.4574 201.391 81.781 209.138 81.0634 216.489C80.1866 225.47 80.7481 233.706 83.0921 241.05C85.191 247.627 92.2241 251.257 98.8008 249.158C105.378 247.059 109.008 240.026 106.909 233.45C104.515 225.95 105.656 214.266 109.793 200.795C111.477 195.312 113.569 189.824 115.799 184.836C117.507 181.015 119.177 177.792 119.962 176.591C123.74 170.813 122.119 163.066 116.341 159.288C110.563 155.51 102.816 157.131 99.0381 162.909Z" fill="#F5D0C3"/>
<path d="M175.538 175.841C176.068 176.651 178.352 179.949 178.765 180.559C180.184 182.656 181.381 184.543 182.508 186.508C188.609 197.145 190.795 206.947 187.842 216.199C185.743 222.776 189.373 229.809 195.949 231.908C202.526 234.007 209.559 230.377 211.658 223.8C214.655 214.41 214.848 204.846 212.725 195.332C211.077 187.941 208.143 180.956 204.195 174.071C202.725 171.507 201.208 169.116 199.466 166.543C198.888 165.69 196.774 162.637 196.462 162.159C192.684 156.381 184.937 154.76 179.159 158.538C173.381 162.316 171.76 170.063 175.538 175.841Z" fill="#F5D0C3"/>
<path d="M121.625 151.25V159.25L118.25 172.5L117.25 187.5L107.375 198.375L100.25 162.625L102.125 152.375L107.375 148.25L111.625 151.25L115.125 149.25L121.625 151.25Z" fill="#4E5051"/>
<path d="M173.25 152V160L176.625 173.25L177.625 188.25L187.5 199.125L194.625 163.375L192.75 153.125L187.5 149L183.25 152L179.75 150L173.25 152Z" fill="#4E5051"/>
<path d="M111.207 161.221C112.484 153.734 118.943 148.282 126.538 148.214L150.119 148.004L172.259 149.883C179.316 150.483 185.098 155.707 186.243 162.696C188.754 178.03 192.689 205.074 192.689 223.954C192.689 251.68 198.161 254.332 189.689 257.965C181.218 261.598 113.443 261.087 104.189 255.454C94.9359 249.822 100.689 243.954 100.689 232.454C100.689 224.012 107.555 182.631 111.207 161.221Z" fill="#595B5E"/>
<rect x="126.672" y="186.504" width="43.75" height="35.25" fill="#232426"/>
<path fill-rule="evenodd" clip-rule="evenodd" d="M168.172 183.004H128.672C125.634 183.004 123.172 185.466 123.172 188.504V219.754C123.172 222.792 125.634 225.254 128.672 225.254H168.172C171.209 225.254 173.672 222.792 173.672 219.754V188.504C173.672 185.466 171.209 183.004 168.172 183.004ZM126.672 188.504C126.672 187.399 127.567 186.504 128.672 186.504H168.172C169.276 186.504 170.172 187.399 170.172 188.504V219.754C170.172 220.859 169.276 221.754 168.172 221.754H128.672C127.567 221.754 126.672 220.859 126.672 219.754V188.504Z" fill="#454748"/>
<path d="M130.706 197.977C130.003 198.416 129.789 199.341 130.227 200.044C130.666 200.747 131.591 200.961 132.294 200.523L138.761 196.488C139.707 195.898 139.702 194.519 138.751 193.936L132.284 189.971C131.578 189.538 130.654 189.76 130.221 190.466C129.788 191.172 130.01 192.096 130.716 192.529L135.116 195.226L130.706 197.977Z" fill="white"/>
<path d="M139.75 202.75H147.483C148.311 202.75 148.983 202.078 148.983 201.25C148.983 200.422 148.311 199.75 147.483 199.75H139.75C138.922 199.75 138.25 200.422 138.25 201.25C138.25 202.078 138.922 202.75 139.75 202.75Z" fill="white"/>
<path d="M147.125 174C155.34 174 162 166.893 162 158.125C162 149.357 155.34 142.25 147.125 142.25C138.91 142.25 132.25 149.357 132.25 158.125C132.25 166.893 138.91 174 147.125 174Z" fill="#454748"/>
<rect x="137.76" y="140.254" width="19.2142" height="28.8213" rx="9.60707" fill="#EBBAAA"/>
<rect x="137.75" y="208.445" width="78.1072" height="55.25" rx="8.5" transform="rotate(-7.5 137.75 208.445)" fill="#BCC4CF"/>
<rect x="140.5" y="210.195" width="78.1072" height="55.25" rx="7.25" transform="rotate(-7.5 140.5 210.195)" fill="#D3D8DF"/>
<path d="M187.708 229.755C187.19 226.016 189.28 225.642 189.367 225.57C187.956 223.996 186.081 223.967 185.422 224.027C183.836 224.074 182.486 225.333 181.691 225.438C180.898 225.543 179.552 224.798 178.256 224.992C176.554 225.242 175.106 226.413 174.426 228.058C173.058 231.369 174.977 235.754 177.035 238.021C178.04 239.132 179.228 240.372 180.545 240.149C181.811 239.931 182.191 239.092 183.731 238.89C185.272 238.687 185.811 239.456 187.157 239.25C188.523 239.045 189.232 237.71 189.907 236.374C190.691 234.828 190.919 233.473 190.932 233.4C190.901 233.39 188.062 232.247 187.706 229.755L187.708 229.755Z" fill="white"/>
<path d="M181.455 224.681C181.089 221.905 183.043 219.356 185.822 218.99C186.187 221.769 184.231 224.316 181.455 224.681Z" fill="white"/>
<path d="M180.464 237.841C179.686 243.936 183.996 249.507 190.091 250.285C197.082 251.178 203.246 248.203 207.487 242.74C210.47 238.897 212.454 233.955 213.667 228.2C215.72 218.459 215.465 206.393 213.052 196.591C211.584 190.625 205.557 186.979 199.591 188.447C193.625 189.916 189.979 195.943 191.447 201.909C193.068 208.495 193.251 217.176 191.895 223.612C191.479 225.588 190.955 227.151 190.46 228.171C185.386 228.643 181.136 232.576 180.464 237.841Z" fill="#F5D0C3"/>
<path d="M110.291 119.972C118.308 119.972 124.808 113.807 124.808 106.202C124.808 98.5972 118.308 92.4321 110.291 92.4321C102.273 92.4321 95.7734 98.5972 95.7734 106.202C95.7734 113.807 102.273 119.972 110.291 119.972Z" fill="#EBBAAA"/>
<path d="M185.791 121.04C193.808 121.04 200.308 114.875 200.308 107.27C200.308 99.6647 193.808 93.4996 185.791 93.4996C177.773 93.4996 171.273 99.6647 171.273 107.27C171.273 114.875 177.773 121.04 185.791 121.04Z" fill="#EBBAAA"/>
<path d="M105.125 78.125C105.785 66.6055 114.234 57.0298 125.582 54.9403L141.542 52.0014C147.375 50.9274 153.361 50.9991 159.166 52.2124L189.25 58.5L193 96.125L193.791 107.926C195.54 134.029 174.839 156.164 148.677 156.164C122.773 156.164 102.165 134.444 103.525 108.576L105.125 78.125Z" fill="#F4D4CA"/>
<path d="M133.44 131.53C139.59 135.884 153.748 135.797 162.24 131.688C163.172 131.237 163.562 130.115 163.111 129.183C162.66 128.251 161.539 127.861 160.607 128.312C153.25 131.872 140.523 131.951 135.607 128.47C134.762 127.871 133.592 128.071 132.993 128.917C132.395 129.762 132.595 130.932 133.44 131.53Z" fill="#C99584"/>
<path d="M122.053 90.9935L136.454 91.9435C138.107 92.0526 139.536 90.8007 139.645 89.1475C139.754 87.4942 138.502 86.0656 136.849 85.9565L122.447 85.0065C120.794 84.8975 119.366 86.1493 119.256 87.8025C119.147 89.4558 120.399 90.8844 122.053 90.9935Z" fill="#272727"/>
<path d="M159.045 92.0438L173.222 90.9918C174.874 90.8692 176.114 89.4303 175.992 87.778C175.869 86.1257 174.43 84.8856 172.778 85.0082L158.601 86.0602C156.948 86.1828 155.708 87.6217 155.831 89.274C155.954 90.9263 157.392 92.1664 159.045 92.0438Z" fill="#272727"/>
<path d="M165.774 61.25C182.774 66.5 185.438 67.375 186.774 74C188.943 84.76 194.551 81.746 195.149 69.875C190.051 35.246 161.524 32.2499 155.274 35.75C147.774 39.95 145.494 54.9874 165.774 61.25Z" fill="#393838"/>
<path d="M194.514 75.5C194.514 72.726 191.117 71.386 189.223 73.413L188.499 74.1887C187.73 75.0112 187.408 76.1552 187.633 77.258L191.714 97.2127C191.808 97.671 192.211 98 192.679 98C193.207 98 193.642 97.5825 193.662 97.0542L194.514 75.5Z" fill="#393838"/>
<path d="M148.25 62.5C127.026 62.5 111.899 67.875 107.648 72.875C105.479 83.6348 102.25 79.75 101.75 68.629C107 38 135.017 34 148.25 34C160.023 35.25 169.474 62.5 148.25 62.5Z" fill="#272727"/>
<path d="M132.578 48.3905C135.261 52.3127 139.213 54.5826 136.795 67.1903L150.996 58.1918C146.039 53.7174 129.894 44.4684 132.578 48.3905Z" fill="#272727"/>
<path d="M121.507 51.75C120.824 60.537 120.773 70.5597 120.773 70.5597L134.53 61.2235C134.53 61.2235 127.378 59.4387 121.507 51.75Z" fill="#272727"/>
<path d="M113.757 54.5694C113.074 63.3565 113.023 73.3793 113.023 73.3793L122.523 65.3193C122.523 65.3193 119.628 62.258 113.757 54.5694Z" fill="#272727"/>
<path d="M133.007 49.5C132.324 58.2871 132.273 68.3097 132.273 68.3097L146.03 58.9735C146.03 58.9735 138.878 57.1887 133.007 49.5Z" fill="#272727"/>
<path d="M101.865 70.5525C101.802 69.0238 103.025 67.75 104.555 67.75C106.142 67.75 107.385 69.116 107.235 70.6962L104.7 97.4627C104.657 97.909 104.283 98.25 103.834 98.25C103.368 98.25 102.985 97.8822 102.966 97.4165L101.865 70.5525Z" fill="#272727"/>
<path d="M141.488 102.125L152.988 102.375L153.059 99.1254L141.559 98.8754L141.488 102.125Z" fill="#101013"/>
<path fill-rule="evenodd" clip-rule="evenodd" d="M112.195 94.9112C109.993 95.1499 108.385 97.0912 108.531 99.3283L109.331 111.563C109.427 113.022 110.253 114.254 111.516 114.769C115.536 116.407 120.661 117.5 126.773 117.5C132.629 117.5 137.183 116.807 140.527 115.742C141.767 115.347 142.637 114.233 142.839 112.834L144.537 101.062C144.825 99.0627 143.672 97.1834 141.792 96.6109C136.608 95.0336 131.36 94 126.773 94C122.392 94 117.319 94.3554 112.195 94.9112ZM139.525 112.65C139.526 112.65 139.528 112.649 139.531 112.648L139.535 112.647C139.532 112.648 139.528 112.649 139.525 112.65ZM139.527 112.643C139.523 112.649 139.522 112.651 139.525 112.65C136.504 113.61 132.288 114.25 126.774 114.25C121.101 114.25 116.389 113.245 112.743 111.759C112.724 111.751 112.699 111.731 112.672 111.69C112.622 111.615 112.584 111.502 112.575 111.351L111.775 99.1163C111.741 98.6063 112.084 98.1923 112.546 98.1423C117.563 97.598 122.531 97.25 126.774 97.25C130.976 97.25 135.942 98.2281 140.845 99.7201C141.17 99.8188 141.382 100.166 141.32 100.598L139.622 112.37C139.603 112.505 139.566 112.593 139.527 112.643Z" fill="#101013"/>
<path fill-rule="evenodd" clip-rule="evenodd" d="M167.523 94C171.905 94 176.978 94.3555 182.101 94.9112C184.304 95.1499 185.912 97.0912 185.765 99.3283L184.965 111.563C184.87 113.022 184.044 114.254 182.781 114.769C178.761 116.407 173.636 117.5 167.523 117.5C161.668 117.5 157.114 116.807 153.769 115.742C152.529 115.347 151.66 114.233 151.458 112.834L149.76 101.062C149.472 99.0626 150.624 97.1833 152.505 96.6109C157.689 95.0336 162.937 94 167.523 94ZM154.773 112.65C154.771 112.65 154.769 112.65 154.767 112.649L154.764 112.648C154.767 112.649 154.77 112.65 154.773 112.65ZM154.77 112.643C154.774 112.649 154.775 112.651 154.773 112.65C157.794 113.61 162.009 114.25 167.524 114.25C173.195 114.25 177.909 113.245 181.554 111.759C181.573 111.751 181.598 111.731 181.625 111.69C181.675 111.615 181.713 111.502 181.722 111.351L182.522 99.1163C182.556 98.6065 182.213 98.1923 181.751 98.1423C176.734 97.5981 171.766 97.25 167.524 97.25C163.321 97.25 158.355 98.2281 153.452 99.7201C153.127 99.8188 152.915 100.165 152.977 100.598L154.675 112.37C154.694 112.505 154.731 112.593 154.77 112.643Z" fill="#101013"/>
<path d="M144.708 105.583C144.647 105.71 144.314 106.395 144.211 106.608C143.971 107.107 143.766 107.552 143.567 108.007C142.97 109.38 142.525 110.656 142.256 111.9C141.078 117.345 143.704 121.125 150.523 121.125V116.875C148.265 116.875 147.074 116.407 146.589 115.709C146.196 115.143 146.115 114.163 146.41 112.799C146.611 111.867 146.969 110.841 147.464 109.704C147.639 109.303 147.823 108.904 148.042 108.449C148.137 108.251 148.473 107.562 148.542 107.417L144.708 105.583Z" fill="#EBBAAA"/>
<path d="M124.774 108C127.743 108 129.223 108.117 130.912 108.623C132.499 109.1 134.171 108.199 134.647 106.612C135.123 105.025 134.223 103.353 132.636 102.877C130.217 102.151 128.305 102 124.774 102C123.117 102 121.774 103.343 121.774 105C121.774 106.657 123.117 108 124.774 108Z" fill="black"/>
<path d="M170 101.5C166.469 101.5 164.556 101.651 162.138 102.377C160.551 102.853 159.65 104.525 160.127 106.112C160.603 107.699 162.275 108.6 163.862 108.123C165.551 107.617 167.031 107.5 170 107.5C171.657 107.5 173 106.157 173 104.5C173 102.843 171.657 101.5 170 101.5Z" fill="black"/>
</svg>
