<svg width="300" height="400" viewBox="0 0 300 400" fill="none" xmlns="http://www.w3.org/2000/svg">
<rect x="135.759" y="118.168" width="56.1015" height="52.1965" fill="#503216"/>
<path d="M164.191 252.913C167.237 267.645 166.729 322.253 164.191 340.032" stroke="#F6DDD6" stroke-width="15.0567" stroke-linecap="round" stroke-linejoin="bevel"/>
<path d="M132.781 251.389C129.735 266.121 130.242 320.73 132.781 338.509" stroke="#F6DDD6" stroke-width="15.0567" stroke-linecap="round" stroke-linejoin="bevel"/>
<path d="M99.2043 198.304C99.2043 215.322 90.5735 227.514 86.5117 238.689" stroke="#FBE8E3" stroke-width="18.5699" stroke-linecap="round" stroke-linejoin="bevel"/>
<path d="M93.7585 251.305L102.643 223.874H158.745L201.646 237.082V254.861L161.029 260.449H116.859L93.7585 251.305Z" fill="#CEAF9A"/>
<path d="M170.283 266.629L125.605 261.549L115.959 237.165L176.376 239.705L170.283 266.629Z" fill="#6A8AB9"/>
<path d="M145.659 243.007H187.037L175.089 326.572H153.271V286.636L145.659 243.007Z" fill="#6A8AB9"/>
<path d="M108.851 243.769H145.913L141.852 292.137V325.302L122.051 322.077L108.851 243.769Z" fill="#6A8AB9"/>
<path d="M87.616 199.037C88.3268 197.232 90.3667 196.344 92.1721 197.055L107.13 202.945C108.936 203.656 109.823 205.696 109.112 207.501L106.755 213.488C106.044 215.293 104.004 216.18 102.199 215.47L87.2405 209.58C85.4351 208.869 84.5478 206.829 85.2586 205.024L87.616 199.037Z" fill="#E1C6B3"/>
<path d="M107.835 221.164H188.561L187.291 244.29H108.343L107.835 221.164Z" fill="#5C7CAC"/>
<path d="M122.333 225.395L124.11 243.937C124.203 244.903 125.061 245.61 126.026 245.518C126.992 245.425 127.7 244.567 127.608 243.602L125.831 225.06C125.738 224.094 124.88 223.387 123.914 223.479C122.949 223.572 122.241 224.43 122.333 225.395Z" fill="#51709D"/>
<path d="M170.029 225.228L168.252 243.769" stroke="#51709D" stroke-width="3.51323" stroke-linecap="round"/>
<path d="M100.688 156.744C104.27 145.134 117.577 139.711 128.252 145.51C137.988 150.799 141.263 163.197 135.408 172.603L118.382 199.955C114.456 206.263 106.978 209.407 99.724 207.798C86.8003 204.931 81.5981 189.313 90.2219 179.269L92.9911 176.044C94.7844 173.955 96.129 171.519 96.9408 168.888L100.688 156.744Z" fill="#E1C6B3"/>
<rect x="115.959" y="144.203" width="58.64" height="82.5483" rx="28.1058" fill="#EFD6C5"/>
<path d="M132.205 226.443C121.036 226.443 108.736 247.495 93.7585 251.559C90.7123 235.079 99.6422 221.299 102.251 208.718C104.426 198.226 107.328 188.81 107.328 178.184V156.341C113.758 153.123 126.925 143.594 126.113 151.315C125.097 160.967 124.59 178.184 146.929 178.184C169.268 178.184 156.567 156.341 171.806 156.341C193.13 156.341 204.438 243.939 202.407 253.083C200.783 260.398 194.653 245.856 191.099 241.737L181.453 235.079L166.983 226.443C157.506 226.782 143.375 226.443 132.205 226.443Z" fill="#EFD4C5"/>
<path fill-rule="evenodd" clip-rule="evenodd" d="M126.587 219.196C122.568 211.006 120.137 201.448 120.137 192.095H123.651C123.651 200.884 125.948 209.919 129.741 217.648C131.535 221.303 133.57 224.394 135.378 226.475H130.904C129.409 224.417 127.936 221.945 126.587 219.196ZM169.046 226.475C169.856 225.374 170.575 224.147 171.191 222.816C173.13 218.628 173.838 213.793 173.025 210.111L169.595 210.869C170.231 213.75 169.636 217.813 168.002 221.341C167.029 223.442 165.776 225.193 164.327 226.475H169.046ZM150.467 226.475C151.052 225.135 151.301 223.794 151.349 222.225C151.36 221.876 151.362 221.605 151.362 220.999C151.362 218.009 151.633 216.586 153.031 214.161L149.988 212.407C149.01 214.103 148.419 215.675 148.118 217.254C147.894 218.432 147.849 219.279 147.849 220.999C147.849 221.569 147.847 221.816 147.838 222.115C147.785 223.812 147.456 224.999 146.457 226.475H150.467Z" fill="#DDC1AD"/>
<path d="M188.192 259.687C200.81 259.687 211.038 249.453 211.038 236.828C211.038 224.203 200.81 213.968 188.192 213.968C175.574 213.968 165.345 224.203 165.345 236.828C165.345 249.453 175.574 259.687 188.192 259.687Z" fill="#6C4D4B"/>
<path fill-rule="evenodd" clip-rule="evenodd" d="M193.163 259.098C204.666 259.098 213.991 249.772 213.991 238.269C213.991 226.766 204.666 217.441 193.163 217.441C181.66 217.441 172.334 226.766 172.334 238.269C172.334 249.772 181.66 259.098 193.163 259.098Z" fill="#8F5B47"/>
<path fill-rule="evenodd" clip-rule="evenodd" d="M193.015 261.465C205.633 261.465 215.862 251.231 215.862 238.606C215.862 225.981 205.633 215.746 193.015 215.746C180.397 215.746 170.168 225.981 170.168 238.606C170.168 251.231 180.397 261.465 193.015 261.465ZM193.015 218.255C204.246 218.255 213.352 227.366 213.352 238.606C213.352 249.845 204.246 258.956 193.015 258.956C181.783 258.956 172.678 249.845 172.678 238.606C172.678 227.366 181.783 218.255 193.015 218.255Z" fill="#E3A490"/>
<path d="M146.265 181.648C136.894 178.962 131.474 169.188 134.16 159.816C136.846 150.445 146.62 145.025 155.992 147.711L178.427 154.141C187.799 156.827 193.219 166.602 190.533 175.973C187.847 185.345 178.072 190.764 168.701 188.079L146.265 181.648Z" fill="#EFD6C5"/>
<path d="M170.773 231.911L168.235 165.364C168.185 164.049 167.077 163.023 165.762 163.073C164.446 163.123 163.42 164.23 163.47 165.546L166.009 232.093C166.059 233.408 167.166 234.434 168.482 234.384C169.798 234.334 170.824 233.227 170.773 231.911Z" fill="#E3A490"/>
<path d="M165.328 234.498L170.405 235.514L170.947 232.807L165.87 231.791L165.328 234.498Z" fill="#E3A490"/>
<path d="M182.976 172.397C194.145 192.208 202.269 230.816 198.207 241.991" stroke="#FBE8E3" stroke-width="18.5699" stroke-linecap="round" stroke-linejoin="bevel"/>
<path d="M164.514 173.702C161.427 165.743 164.733 156.727 172.235 152.651C181.544 147.594 193.155 152.215 196.445 162.287L203.186 182.923C205.062 188.665 203.372 194.973 198.878 199.008C196.284 201.337 192.971 202.706 189.49 202.888L188.712 202.929C181.19 203.321 174.267 198.841 171.542 191.817L164.514 173.702Z" fill="#E1C6B3"/>
<path d="M119.766 318.697H143.121L142.359 329.621H121.67L119.766 318.697Z" fill="#5C7CAC"/>
<path d="M152.513 318.697H177.137L174.853 329.621H153.021L152.513 318.697Z" fill="#5C7CAC"/>
<mask id="mask0_0_126" style="mask-type:luminance" maskUnits="userSpaceOnUse" x="140" y="225" width="15" height="21">
<rect x="140.075" y="225.99" width="14.7235" height="19.0496" rx="1.50567" fill="white"/>
</mask>
<g mask="url(#mask0_0_126)">
<path fill-rule="evenodd" clip-rule="evenodd" d="M153.292 222.476H141.58C138.808 222.476 136.561 224.723 136.561 227.495V243.534C136.561 246.305 138.808 248.552 141.58 248.552H153.292C156.064 248.552 158.311 246.305 158.311 243.534V227.495C158.311 224.723 156.064 222.476 153.292 222.476ZM143.588 241.526V229.503H151.285V241.526H143.588Z" fill="#51709D"/>
</g>
<path d="M181.396 201.992C180.765 200.157 181.74 198.158 183.575 197.526L198.775 192.295C200.61 191.663 202.609 192.639 203.24 194.473L205.335 200.558C205.966 202.392 204.991 204.391 203.156 205.023L187.955 210.254C186.121 210.886 184.122 209.911 183.49 208.076L181.396 201.992Z" fill="#E1C6B3"/>
<path d="M156.837 335.693L172.32 335.962L170.426 349.902L154.816 349.628L156.837 335.693Z" fill="white"/>
<path d="M156.892 336.117C156.932 335.872 157.147 335.693 157.395 335.698L172.019 335.952C172.316 335.959 172.544 336.218 172.509 336.514L172.33 338.047C172.3 338.303 172.081 338.494 171.823 338.489L157.121 338.233C156.815 338.228 156.584 337.952 156.635 337.648L156.892 336.117Z" fill="#FFA970"/>
<path d="M156.562 340.424C156.603 340.18 156.817 340.002 157.066 340.007L171.69 340.261C171.987 340.266 172.214 340.527 172.18 340.823L172.001 342.356C171.971 342.612 171.752 342.803 171.494 342.798L156.792 342.542C156.485 342.537 156.255 342.261 156.306 341.957L156.562 340.424Z" fill="#FFA970"/>
<path fill-rule="evenodd" clip-rule="evenodd" d="M163.945 345.46C169.077 345.551 171.689 342.996 171.742 339.944C171.742 339.944 171.742 339.944 171.742 339.942L174.391 340.057L184.404 349.139L191.838 352.278C193.449 354.07 194.437 356.334 194.655 358.735L194.748 359.762L152.134 357.957L152.819 347.807L155.117 339.217L157.179 338.772C157.081 339.069 157.026 339.375 157.021 339.688C156.968 342.74 160.29 345.397 163.945 345.46Z" fill="#4CB4D4"/>
<path d="M164.63 347.377C157.012 348.04 157.134 342.885 154.446 341.739C153.142 343.749 152.281 349.448 152.238 351.862C159.154 355.666 170.143 351.538 189.979 356.966C191.174 356.394 190.985 354.64 189.697 354.334L181.427 352.371C179.408 351.658 172.249 346.715 164.63 347.377Z" fill="#FFC9C6"/>
<path d="M151.11 359.267C151.738 357.285 153.593 355.95 155.673 355.985L168.79 356.216C171.384 356.261 173.451 358.401 173.406 360.996C173.361 363.591 171.22 365.656 168.626 365.611L155.509 365.383C152.367 365.327 150.163 362.263 151.11 359.267Z" fill="#D7E3EE"/>
<path d="M166.809 360.753C166.836 359.211 168.108 357.982 169.651 358.009L185.384 358.283C186.927 358.31 188.156 359.583 188.129 361.125C188.102 362.668 186.83 363.897 185.287 363.87L169.554 363.596C168.011 363.569 166.782 362.296 166.809 360.753Z" fill="#D7E3EE"/>
<path d="M176.946 361.812C176.982 359.782 178.655 358.166 180.685 358.201L192.587 358.409C194.64 358.444 196.147 360.349 195.71 362.354C195.399 363.787 194.167 364.836 192.703 364.913L180.816 365.546C178.688 365.659 176.909 363.942 176.946 361.812Z" fill="#D7E3EE"/>
<path d="M156.91 360.581C156.927 359.599 157.737 358.817 158.719 358.834L167.854 358.993C168.836 359.011 169.618 359.82 169.601 360.802C169.584 361.784 168.774 362.566 167.792 362.549L158.657 362.389C157.675 362.372 156.893 361.563 156.91 360.581Z" fill="#B6C2D3"/>
<path d="M180.081 362.517C180.059 361.886 180.553 361.357 181.184 361.335L184.227 361.229C184.858 361.207 185.387 361.7 185.409 362.331C185.431 362.962 184.937 363.491 184.307 363.513L181.263 363.62C180.633 363.642 180.103 363.148 180.081 362.517Z" fill="#B6C2D3"/>
<path d="M186.646 362.266C186.624 361.636 187.117 361.106 187.748 361.084L188.825 361.047C189.456 361.025 189.986 361.518 190.008 362.149C190.03 362.78 189.536 363.309 188.905 363.331L187.828 363.369C187.197 363.391 186.668 362.897 186.646 362.266Z" fill="#B6C2D3"/>
<path d="M150.565 360.47C150.582 359.488 151.392 358.706 152.374 358.724L153.387 358.741C154.369 358.758 155.151 359.568 155.134 360.55C155.117 361.532 154.307 362.314 153.325 362.297L152.312 362.279C151.33 362.262 150.548 361.452 150.565 360.47Z" fill="#B6C2D3"/>
<path d="M140.055 335.42L124.579 335.959L126.715 349.864L142.318 349.32L140.055 335.42Z" fill="white"/>
<path d="M140.261 335.841C140.216 335.596 139.999 335.422 139.75 335.43L125.133 335.942C124.836 335.952 124.613 336.215 124.653 336.509L124.859 338.04C124.893 338.296 125.116 338.484 125.374 338.474L140.068 337.962C140.375 337.949 140.6 337.668 140.544 337.367L140.261 335.841Z" fill="#FFA970"/>
<path d="M140.411 340.138C140.366 339.894 140.149 339.719 139.9 339.729L125.283 340.238C124.986 340.248 124.763 340.514 124.803 340.808L125.009 342.336C125.043 342.592 125.266 342.78 125.524 342.773L140.218 342.258C140.525 342.248 140.75 341.967 140.694 341.666L140.411 340.138Z" fill="#FFA970"/>
<path fill-rule="evenodd" clip-rule="evenodd" d="M133.117 345.302C127.987 345.48 125.332 342.973 125.226 339.924C125.226 339.922 125.226 339.922 125.225 339.919L122.579 340.082L112.725 349.337L105.348 352.607C103.768 354.426 102.82 356.708 102.644 359.109L102.568 360.138L145.145 357.588L144.283 347.453L141.835 338.903L139.765 338.496C139.869 338.793 139.929 339.096 139.94 339.41C140.046 342.459 136.771 345.174 133.117 345.302Z" fill="#4CB4D4"/>
<path d="M132.466 347.232C140.095 347.761 139.882 342.609 142.55 341.415C143.889 343.4 144.85 349.086 144.934 351.498C138.086 355.423 127.026 351.488 107.288 357.26C106.084 356.71 106.241 354.951 107.524 354.622L115.759 352.517C117.765 351.769 124.837 346.702 132.466 347.232Z" fill="#FFC9C6"/>
<path d="M146.191 358.883C145.529 356.911 143.651 355.608 141.572 355.681L128.461 356.138C125.867 356.231 123.839 358.406 123.929 360.999C124.019 363.593 126.195 365.621 128.789 365.531L141.9 365.074C145.04 364.964 147.19 361.862 146.191 358.883Z" fill="#D7E3EE"/>
<path d="M130.521 360.642C130.467 359.1 129.173 357.893 127.631 357.947L111.905 358.496C110.363 358.55 109.156 359.844 109.21 361.386C109.264 362.928 110.558 364.134 112.1 364.081L127.826 363.532C129.368 363.478 130.574 362.184 130.521 360.642Z" fill="#D7E3EE"/>
<path d="M120.404 361.877C120.333 359.849 118.631 358.261 116.602 358.334L104.706 358.748C102.654 358.82 101.18 360.75 101.652 362.748C101.988 364.176 103.238 365.202 104.703 365.252L116.599 365.679C118.73 365.754 120.478 364.008 120.404 361.877Z" fill="#D7E3EE"/>
<path d="M140.415 360.296C140.381 359.315 139.557 358.547 138.576 358.582L129.445 358.9C128.463 358.935 127.696 359.758 127.73 360.739C127.764 361.721 128.587 362.488 129.569 362.454L138.7 362.135C139.681 362.101 140.449 361.278 140.415 360.296Z" fill="#B6C2D3"/>
<path d="M117.281 362.638C117.292 362.007 116.789 361.487 116.158 361.476L113.114 361.422C112.482 361.411 111.962 361.914 111.951 362.545C111.94 363.176 112.443 363.697 113.074 363.708L116.118 363.761C116.749 363.772 117.27 363.269 117.281 362.638Z" fill="#B6C2D3"/>
<path d="M110.713 362.5C110.724 361.869 110.221 361.349 109.59 361.338L108.513 361.319C107.881 361.308 107.361 361.81 107.35 362.442C107.339 363.073 107.842 363.593 108.473 363.604L109.55 363.623C110.182 363.634 110.702 363.131 110.713 362.5Z" fill="#B6C2D3"/>
<path d="M146.757 360.075C146.723 359.094 145.9 358.326 144.918 358.361L143.906 358.396C142.924 358.43 142.157 359.254 142.191 360.235C142.225 361.216 143.048 361.984 144.03 361.95L145.042 361.914C146.024 361.88 146.792 361.057 146.757 360.075Z" fill="#B6C2D3"/>
<path d="M145.532 173.667C155.136 173.667 162.921 165.536 162.921 155.506C162.921 145.476 155.136 137.345 145.532 137.345C135.929 137.345 128.143 145.476 128.143 155.506C128.143 165.536 135.929 173.667 145.532 173.667Z" fill="#DFC5B2"/>
<rect x="135.252" y="138.361" width="19.6245" height="29.4531" rx="9.81216" fill="#EED1C9"/>
<path d="M92.2443 135.719C90.8364 125.696 97.8203 116.43 107.843 115.022L147.123 109.505C157.146 108.097 166.413 115.081 167.821 125.103C169.228 135.126 162.245 144.393 152.222 145.801L112.942 151.318C102.919 152.726 93.6522 145.742 92.2443 135.719Z" fill="#503216"/>
<path d="M105.395 119.385C113.584 119.385 120.223 113.085 120.223 105.313C120.223 97.5412 113.584 91.2409 105.395 91.2409C97.2065 91.2409 90.5681 97.5412 90.5681 105.313C90.5681 113.085 97.2065 119.385 105.395 119.385Z" fill="#EBBAAA"/>
<path d="M180.09 87.3308C175.464 68.0296 155.514 58.1122 147.78 55.7418C144.25 49.1388 144.754 35.4566 150.302 34.409C158.372 32.8852 180.052 42.5358 189.635 61.3291C201.683 84.9566 200.027 143.902 197.119 164.729C193.365 156.726 189.635 149.382 177.593 150.587C183.676 123.667 180.09 104.092 180.09 104.092C180.09 104.092 182.646 97.9972 180.09 87.3308Z" fill="#62360D"/>
<path d="M179.461 119.532C187.65 119.532 194.288 113.231 194.288 105.46C194.288 97.6878 187.65 91.3875 179.461 91.3875C171.272 91.3875 164.633 97.6878 164.633 105.46C164.633 113.231 171.272 119.532 179.461 119.532Z" fill="#EBBAAA"/>
<path d="M104.417 78.6002C104.417 58.1765 121.92 41.6199 143.511 41.6199C165.101 41.6199 182.604 58.1765 182.604 78.6002V115.381C179.451 139.239 160.535 152.362 143.511 152.362C126.486 152.362 106.729 136.456 104.417 115.381V78.6002Z" fill="#F6DDD6"/>
<path fill-rule="evenodd" clip-rule="evenodd" d="M133.103 123.785V127.812C133.103 133.997 138.117 139.011 144.302 139.011C150.487 139.011 155.501 133.997 155.501 127.812V123.785H133.103Z" fill="#393939"/>
<mask id="mask1_0_126" style="mask-type:luminance" maskUnits="userSpaceOnUse" x="133" y="123" width="23" height="17">
<path fill-rule="evenodd" clip-rule="evenodd" d="M133.103 123.785V127.812C133.103 133.997 138.117 139.011 144.302 139.011C150.487 139.011 155.501 133.997 155.501 127.812V123.785H133.103Z" fill="white"/>
</mask>
<g mask="url(#mask1_0_126)">
<path d="M144.228 142.408C148.525 142.408 152.008 140.498 152.008 138.142C152.008 135.786 148.525 133.876 144.228 133.876C139.932 133.876 136.449 135.786 136.449 138.142C136.449 140.498 139.932 142.408 144.228 142.408Z" fill="#FF6C6C"/>
<rect x="132.685" y="123.336" width="24.3419" height="5.0189" fill="white"/>
</g>
<path d="M145.375 34.9083C154.496 30.7118 178.074 41.2675 188.744 62.207C188.744 62.207 194.527 74.84 195.944 83.5711C197.343 92.1853 192.758 96.5422 192.758 96.5422L182.604 91.0573C182.604 91.0573 174.988 79.1914 165.342 71.1125C155.696 63.0336 147.472 60.7053 144.951 58.9249C142.431 57.1446 142.135 41.7753 145.375 34.9083Z" fill="#62360D"/>
<path d="M118.899 90.4441L133.276 89.816C134.107 89.7797 134.751 89.0768 134.715 88.246C134.679 87.4153 133.976 86.7712 133.145 86.8075L118.767 87.4356C117.937 87.4719 117.293 88.1748 117.329 89.0056C117.365 89.8363 118.068 90.4804 118.899 90.4441Z" fill="#62360D"/>
<path d="M118.367 125.16C122.784 125.16 126.364 121.578 126.364 117.159C126.364 112.74 122.784 109.158 118.367 109.158C113.951 109.158 110.371 112.74 110.371 117.159C110.371 121.578 113.951 125.16 118.367 125.16Z" fill="#F2CACA"/>
<path d="M117.24 87.6696C120.361 73.9416 135.906 60.8069 143.267 58.4342C146.303 57.4557 148.334 34 143.267 34C130.442 34 110.098 46.9015 102.838 58.4342C90.9163 77.3731 86.7004 98.6057 93.0464 146.394C94.5992 158.089 90.8112 163.173 88.1707 165.969C95.4514 173.444 122.735 176.138 122.735 176.138C122.735 176.138 127.328 170.427 124.201 159.106C118.553 138.658 114.12 101.398 117.24 87.6696Z" fill="#7D430D"/>
<path d="M106.717 59.6447C103.894 63.3166 100.573 69.9794 98.022 77.333C95.0093 86.0172 93.2564 94.9683 93.2564 103.08C93.2564 103.773 93.8182 104.335 94.5111 104.335C95.2041 104.335 95.7659 103.773 95.7659 103.08C95.7659 95.2737 97.4659 86.5924 100.393 78.1555C102.862 71.0371 106.067 64.6071 108.706 61.1742C109.129 60.6248 109.026 59.837 108.476 59.4147C107.927 58.9923 107.139 59.0953 106.717 59.6447Z" fill="#AD6817"/>
<path d="M107.298 71.6528C103.874 80.7897 103.088 83.1192 101.674 88.5403C101.5 89.2108 101.901 89.8961 102.572 90.0709C103.243 90.2457 103.928 89.8439 104.103 89.1733C105.489 83.8553 106.252 81.5956 109.648 72.5335C109.891 71.8846 109.562 71.1615 108.913 70.9183C108.265 70.6751 107.541 71.0039 107.298 71.6528Z" fill="#AD6817"/>
<path d="M123.472 101.84L130.231 100.771C130.916 100.663 131.383 100.02 131.275 99.3358C131.166 98.6513 130.524 98.1842 129.839 98.2924L123.08 99.3612C122.395 99.4694 121.928 100.112 122.036 100.796C122.145 101.481 122.787 101.948 123.472 101.84Z" fill="black"/>
<path d="M155.569 100.116L162.329 101.185C163.013 101.293 163.656 100.826 163.764 100.142C163.872 99.4573 163.405 98.8147 162.721 98.7065L155.961 97.6377C155.277 97.5295 154.634 97.9966 154.526 98.6811C154.417 99.3655 154.885 100.008 155.569 100.116Z" fill="black"/>
<path d="M128.755 99.5317V106.753" stroke="black" stroke-width="6.02268" stroke-linecap="round"/>
<path d="M157.319 98.877V106.099" stroke="black" stroke-width="6.02268" stroke-linecap="round"/>
<path d="M152.594 89.3476L166.959 90.2266C167.789 90.2774 168.503 89.6458 168.554 88.8158C168.605 87.9858 167.973 87.2717 167.143 87.2209L152.778 86.3419C151.948 86.2911 151.234 86.9228 151.184 87.7528C151.133 88.5828 151.764 89.2968 152.594 89.3476Z" fill="#62360D"/>
<path d="M142.296 106.839C141.787 110.548 138.589 117.311 144.04 117.311" stroke="#EBBAAA" stroke-width="4.26606"/>
<path d="M185.597 122.548C187.283 122.548 188.65 121.181 188.65 119.494C188.65 117.807 187.283 116.439 185.597 116.439C183.911 116.439 182.544 117.807 182.544 119.494C182.544 121.181 183.911 122.548 185.597 122.548Z" fill="#F6E7D6"/>
<path d="M184.702 127.869C185.894 127.869 186.86 126.903 186.86 125.71C186.86 124.518 185.894 123.551 184.702 123.551C183.51 123.551 182.544 124.518 182.544 125.71C182.544 126.903 183.51 127.869 184.702 127.869Z" fill="#F6E7D6"/>
<path d="M168.63 125.16C173.046 125.16 176.626 121.578 176.626 117.159C176.626 112.74 173.046 109.158 168.63 109.158C164.214 109.158 160.634 112.74 160.634 117.159C160.634 121.578 164.214 125.16 168.63 125.16Z" fill="#F2CACA"/>
</svg>
