<svg width="300" height="400" viewBox="0 0 300 400" fill="none" xmlns="http://www.w3.org/2000/svg">
<path d="M159.004 281.1C160.377 287.738 161.373 301.721 161.497 316.845C161.632 333.305 160.747 348.752 158.954 358.841C158.037 363.995 161.472 368.915 166.626 369.831C171.779 370.747 176.7 367.312 177.616 362.159C179.65 350.72 180.595 334.214 180.451 316.689C180.318 300.427 179.247 285.385 177.566 277.26C176.505 272.134 171.49 268.839 166.365 269.899C161.239 270.959 157.943 275.974 159.004 281.1Z" fill="#EBBAAA"/>
<path d="M119.873 277.241C117.548 290.118 117.736 306.219 119.817 324.74C121.293 337.874 123.54 350.825 126.226 363.491C127.312 368.612 132.343 371.882 137.464 370.796C142.584 369.71 145.855 364.679 144.769 359.559C142.199 347.444 140.051 335.063 138.653 322.623C136.76 305.771 136.591 291.326 138.526 280.609C139.456 275.458 136.034 270.528 130.883 269.598C125.732 268.668 120.803 272.09 119.873 277.241Z" fill="#EBBAAA"/>
<path d="M110.342 262.436H149.586L146.256 312.6L105.528 309.783L110.342 262.436Z" fill="#27292D"/>
<path d="M148.84 281.247C164.908 281.247 177.933 275.077 177.933 267.467C177.933 259.856 164.908 253.686 148.84 253.686C132.773 253.686 119.748 259.856 119.748 267.467C119.748 275.077 132.773 281.247 148.84 281.247Z" fill="#27292D"/>
<path d="M147.536 262.436H185.626L191.338 307.612L154.837 311.198L147.536 262.436Z" fill="#27292D"/>
<path d="M170.846 275.458L170.078 269.055L181.092 267.774L181.86 273.922L170.846 275.458Z" fill="#44484D"/>
<path d="M97.0999 360.603C100.639 357.52 113.931 352.948 120.194 350.545L136.936 342.423C136.936 342.423 140.342 353.185 140.372 356.705L140.426 362.805C140.449 365.528 138.263 367.75 135.542 367.775L97.1654 368.11C95.4441 365.465 94.1209 363.195 97.0999 360.603Z" fill="#C4C4C4"/>
<path d="M97.0999 360.603C100.639 357.52 113.931 352.948 120.194 350.545L136.936 342.423C136.936 342.423 140.342 353.185 140.372 356.705L140.426 362.805C140.449 365.528 138.263 367.75 135.542 367.775L97.1654 368.11C95.4441 365.465 94.1209 363.195 97.0999 360.603Z" fill="#EBBAAA"/>
<path d="M103.29 366.374L107.868 365.629C109.787 365.317 111.089 363.508 110.777 361.59C110.465 359.671 108.657 358.369 106.738 358.681L102.159 359.426C100.241 359.738 98.9385 361.547 99.2507 363.465C99.5628 365.384 101.371 366.686 103.29 366.374Z" fill="#FFD4C6"/>
<path d="M93.8424 368.415C93.8313 367.14 94.8544 366.1 96.1275 366.088L146.235 365.65L146.639 371.54L93.8737 372L93.8424 368.415Z" fill="#D2D7DC"/>
<path fill-rule="evenodd" clip-rule="evenodd" d="M104.066 355.468C107.933 353.673 111.098 355.2 112.409 359.358C112.773 360.513 113.574 362.52 113.723 363.543C113.876 364.583 113.961 365.538 114.009 366.225C114.033 366.573 114.048 366.863 114.057 367.068C114.062 367.173 114.065 367.255 114.067 367.315C114.068 367.348 114.069 367.373 114.069 367.39L114.07 367.415L114.07 367.423V367.428C114.07 367.43 112.5 367.33 109.169 367.433C105.838 367.538 105.838 367.538 105.838 367.538V367.54C105.838 367.538 105.838 367.528 105.837 367.51C105.836 367.48 105.834 367.43 105.831 367.36C105.825 367.223 105.814 367.013 105.796 366.753C105.76 366.225 105.696 365.52 105.588 364.783C105.477 364.028 105.335 363.345 105.17 362.82C105.07 362.505 104.995 362.353 104.971 362.305C104.343 361.063 103.611 359.53 102.419 358.595C100.848 357.36 100.978 356.898 104.066 355.468Z" fill="#2E2622"/>
<path d="M113.936 352.1C114.956 351.478 119.806 349.573 122.104 348.7C128.721 355.508 129.496 364.048 129.567 367.333L120.218 367.415C120.581 364.978 117.433 356.553 113.936 352.1Z" fill="#2E2622"/>
<mask id="mask0_0_221" style="mask-type:luminance" maskUnits="userSpaceOnUse" x="118" y="356" width="12" height="10">
<rect x="117.844" y="359.588" width="10.2459" height="6.14757" rx="1.5369" transform="rotate(-18.5 117.844 359.588)" fill="white"/>
</mask>
<g mask="url(#mask0_0_221)">
<rect x="117.844" y="359.588" width="10.2459" height="6.14757" rx="1.5369" transform="rotate(-18.5 117.844 359.588)" stroke="#5C6167" stroke-width="3.58608"/>
</g>
<mask id="mask1_0_221" style="mask-type:luminance" maskUnits="userSpaceOnUse" x="104" y="358" width="10" height="8">
<rect x="104.282" y="361.26" width="8.6403" height="4.9177" rx="1.5369" transform="rotate(-18.5 104.282 361.26)" fill="white"/>
</mask>
<g mask="url(#mask1_0_221)">
<path fill-rule="evenodd" clip-rule="evenodd" d="M110.45 357.306L105.171 359.072C103.427 359.656 102.486 361.542 103.07 363.286L103.655 365.035C104.238 366.779 106.125 367.72 107.869 367.136L113.148 365.37C114.892 364.786 115.833 362.9 115.249 361.156L114.664 359.407C114.081 357.663 112.194 356.722 110.45 357.306ZM106.974 363.654L106.552 362.391L111.345 360.788L111.767 362.051L106.974 363.654Z" fill="#5C6167"/>
</g>
<path d="M207.577 360.575C204.038 357.495 190.746 352.92 184.483 350.52L167.741 342.395C167.741 342.395 164.335 353.16 164.305 356.678L164.251 362.78C164.228 365.5 166.414 367.725 169.135 367.748L207.512 368.083C209.233 365.44 210.556 363.168 207.577 360.575Z" fill="#C4C4C4"/>
<path d="M207.577 360.575C204.038 357.495 190.746 352.92 184.483 350.52L167.741 342.395C167.741 342.395 164.335 353.16 164.305 356.678L164.251 362.78C164.228 365.5 166.414 367.725 169.135 367.748L207.512 368.083C209.233 365.44 210.556 363.168 207.577 360.575Z" fill="#EBBAAA"/>
<path d="M202.516 359.399L197.937 358.656C196.019 358.345 194.211 359.648 193.9 361.567C193.589 363.485 194.892 365.293 196.811 365.604L201.39 366.346C203.308 366.658 205.116 365.354 205.427 363.436C205.738 361.517 204.435 359.71 202.516 359.399Z" fill="#FFD4C6"/>
<path d="M210.835 368.388C210.846 367.115 209.823 366.072 208.549 366.062L158.442 365.625L158.039 371.512L210.803 371.972L210.835 368.388Z" fill="#D2D7DC"/>
<path fill-rule="evenodd" clip-rule="evenodd" d="M200.611 355.44C196.744 353.648 193.579 355.175 192.268 359.333C191.904 360.488 191.103 362.495 190.953 363.515C190.801 364.555 190.716 365.51 190.668 366.2C190.644 366.548 190.629 366.835 190.62 367.043C190.615 367.145 190.612 367.23 190.61 367.29C190.609 367.32 190.608 367.345 190.608 367.365L190.607 367.388L190.607 367.398L190.607 367.403C190.607 367.403 192.177 367.303 195.508 367.408C198.839 367.51 198.839 367.513 198.839 367.513V367.515C198.839 367.51 198.839 367.5 198.84 367.485C198.841 367.455 198.843 367.403 198.846 367.335C198.852 367.195 198.863 366.988 198.881 366.725C198.917 366.198 198.981 365.493 199.089 364.758C199.2 364.003 199.342 363.32 199.507 362.795C199.606 362.48 199.682 362.328 199.706 362.278C200.334 361.035 201.066 359.503 202.258 358.568C203.829 357.335 203.699 356.873 200.611 355.44Z" fill="#2E2622"/>
<path d="M190.74 352.075C189.721 351.45 184.871 349.548 182.573 348.673C175.956 355.48 175.181 364.02 175.11 367.308L184.459 367.39C184.096 364.953 187.243 356.528 190.74 352.075Z" fill="#2E2622"/>
<mask id="mask2_0_221" style="mask-type:luminance" maskUnits="userSpaceOnUse" x="175" y="356" width="12" height="9">
<rect width="10.246" height="6.14758" rx="1.5369" transform="matrix(-0.948324 -0.317305 -0.317305 0.948324 186.833 359.56)" fill="white"/>
</mask>
<g mask="url(#mask2_0_221)">
<path fill-rule="evenodd" clip-rule="evenodd" d="M179.143 355.096L185.944 357.372C187.688 357.956 188.629 359.842 188.046 361.586L187.07 364.501C186.487 366.245 184.6 367.186 182.856 366.603L176.054 364.327C174.31 363.743 173.37 361.856 173.953 360.112L174.928 357.197C175.512 355.453 177.399 354.513 179.143 355.096ZM183.751 363.121L184.564 360.691L178.248 358.578L177.435 361.007L183.751 363.121Z" fill="#5C6167"/>
</g>
<mask id="mask3_0_221" style="mask-type:luminance" maskUnits="userSpaceOnUse" x="191" y="358" width="9" height="8">
<rect width="8.6403" height="4.9177" rx="1.5369" transform="matrix(-0.948324 -0.317305 -0.317305 0.948324 200.395 361.233)" fill="white"/>
</mask>
<g mask="url(#mask3_0_221)">
<path fill-rule="evenodd" clip-rule="evenodd" d="M194.227 357.278L199.506 359.044C201.25 359.628 202.191 361.515 201.607 363.259L201.022 365.008C200.439 366.752 198.552 367.692 196.808 367.109L191.529 365.343C189.785 364.759 188.844 362.872 189.428 361.128L190.013 359.379C190.596 357.635 192.483 356.695 194.227 357.278ZM197.703 363.627L198.125 362.364L193.332 360.76L192.91 362.023L197.703 363.627Z" fill="#5C6167"/>
</g>
<path d="M186.885 190.887C191.113 198.087 192.906 201.29 194.682 205.019C196.813 209.496 198.027 213.159 198.389 216.228C198.728 219.097 198.323 221.38 197.114 223.498C195.581 226.18 192.61 228.9 187.787 231.609C183.153 234.212 181.506 240.079 184.109 244.713C186.712 249.347 192.579 250.994 197.213 248.391C212.463 239.825 219.169 228.088 217.504 213.974C216.86 208.514 215.02 202.963 212.06 196.746C209.962 192.339 207.998 188.829 203.481 181.139C200.789 176.556 194.892 175.023 190.309 177.715C185.726 180.406 184.193 186.304 186.885 190.887Z" fill="#EBBAAA"/>
<path d="M109.732 160.365C108.526 162.56 107.181 164.805 105.369 167.684C104.705 168.739 101.581 173.635 100.709 175.023C94.2232 185.352 90.1702 193.323 86.8632 203.502C82.7024 216.31 80.5536 230.984 80.5536 248.819C80.5536 254.407 85.0836 258.937 90.6715 258.937C96.2595 258.937 100.789 254.407 100.789 248.819C100.789 233.034 102.63 220.462 106.109 209.754C108.817 201.417 112.17 194.824 117.847 185.784C118.668 184.476 121.785 179.591 122.496 178.462C124.502 175.273 126.038 172.711 127.466 170.11C130.158 165.213 128.369 159.062 123.472 156.37C118.575 153.679 112.423 155.467 109.732 160.365Z" fill="#EBBAAA"/>
<path d="M110.67 153.821C120.696 144.291 136.87 146.004 144.677 157.422C151.957 168.07 148.79 182.649 137.749 189.316L108.403 207.038L79.8897 183.083L110.67 153.821Z" fill="#A97EAC"/>
<path d="M192.087 153.574C182.931 143.206 166.668 143.503 157.896 154.198C149.716 164.171 151.6 178.969 162.019 186.574L189.708 206.786L220.201 185.407L192.087 153.574Z" fill="#A97EAC"/>
<path d="M111.084 174.178C111.909 159.517 123.906 147.976 138.588 147.72L158.091 147.379C173.447 147.111 186.161 159.248 186.606 174.6L187.732 213.431L186.964 262.501H109.717L108.799 214.795L111.084 174.178Z" fill="#B684B9"/>
<path d="M147.921 175.912C157.688 175.741 165.467 167.686 165.297 157.919C165.126 148.152 157.07 140.373 147.304 140.544C137.537 140.714 129.758 148.77 129.928 158.536C130.099 168.303 138.155 176.082 147.921 175.912Z" fill="#9D769F"/>
<rect x="135.685" y="137.311" width="23.498" height="30.7078" rx="11.749" transform="rotate(-1 135.685 137.311)" fill="#EBBAAA"/>
<path d="M186.67 253.413L169.659 251.925L170.904 211.281L192.502 213.17L186.67 253.413Z" fill="#ED3535"/>
<path d="M180.872 212.769L186.004 213.101C186.004 213.101 183.44 217.621 185.505 227.758C185.505 227.758 190.1 244.909 182.456 253L173.497 252.375C173.497 252.375 184.708 243.658 182.456 228.952C182.033 226.191 178.747 220.875 180.872 212.769Z" fill="white"/>
<path d="M192.942 216.305L170.029 214.301L170.686 210.029L193.037 211.985L192.942 216.305Z" fill="#E8E8E8"/>
<path d="M192.147 212.196L171.526 210.392L172.006 208.125L192.068 209.88L192.147 212.196Z" fill="#EFEFEF"/>
<path d="M189.635 250.457C195.577 250.353 200.31 245.452 200.207 239.509C200.103 233.567 195.202 228.834 189.259 228.938C183.317 229.041 178.584 233.943 178.688 239.885C178.791 245.827 183.693 250.56 189.635 250.457Z" fill="#EBBAAA"/>
<path d="M173.453 144.604C171.207 162.575 159.397 188.473 143.359 212.222C136.005 223.112 128.321 232.659 121.488 239.408C118.123 242.732 115.048 245.293 112.42 246.975C110.162 248.421 108.45 249.075 107.578 249.075V260.858C113.963 260.858 121.285 256.17 129.768 247.791C137.202 240.449 145.363 230.309 153.124 218.817C170.106 193.669 182.627 166.212 185.145 146.065L173.453 144.604Z" fill="#484F56"/>
<path d="M158.551 174.536L167.26 169.413L176.482 174.536V184.781L167.26 201.688L148.818 191.441L158.551 174.536Z" fill="#CED9EA"/>
<rect x="136.326" y="185.995" width="43.033" height="66.855" rx="21.5165" transform="rotate(32.5 136.326 185.995)" fill="#B6C3D6"/>
<rect x="141.831" y="177.353" width="43.033" height="66.855" rx="21.5165" transform="rotate(32.5 141.831 177.353)" fill="#DCE3ED"/>
<rect x="133.078" y="200.629" width="33.8117" height="43.2892" rx="5.63527" transform="rotate(32.5 133.078 200.629)" fill="#6B7A89"/>
<path d="M122.378 212.656C123.228 209.796 130.529 203.676 134.367 201.465C138.267 202.733 158.506 214.109 162.236 219.219C159.415 221.977 156.27 226.199 150.541 230.901C145.443 230.084 121.528 215.516 122.378 212.656Z" fill="#B2C2DA"/>
<rect x="135.229" y="218.704" width="6.91603" height="18.955" rx="3.458" transform="rotate(32.5 135.229 218.704)" fill="#B2C2DA"/>
<path d="M127.686 236.981C129.297 238.007 131.434 237.533 132.46 235.922C133.487 234.312 133.013 232.174 131.402 231.148C129.791 230.122 127.654 230.596 126.628 232.206C125.601 233.817 126.075 235.955 127.686 236.981Z" fill="#E7EEF8"/>
<path d="M106.315 119.179C114.529 119.179 121.189 112.862 121.189 105.07C121.189 97.2781 114.529 90.9614 106.315 90.9614C98.0996 90.9614 91.4401 97.2781 91.4401 105.07C91.4401 112.862 98.0996 119.179 106.315 119.179Z" fill="#EBBAAA"/>
<path d="M190.093 120.273C198.307 120.273 204.967 113.956 204.967 106.164C204.967 98.3719 198.307 92.0552 190.093 92.0552C181.878 92.0552 175.218 98.3719 175.218 106.164C175.218 113.956 181.878 120.273 190.093 120.273Z" fill="#EBBAAA"/>
<path d="M104.557 78.878C103.581 54.1955 123.328 33.6537 148.03 33.6537C172.791 33.6537 192.56 54.2905 191.497 79.029L190.061 112.444C189.092 134.986 170.535 152.763 147.972 152.763C125.352 152.763 106.769 134.9 105.877 112.298L104.557 78.878Z" fill="#EED4CC"/>
<path d="M136.554 127.159C144.528 130.678 150.2 130.885 158.875 127.168C159.876 126.739 160.34 125.579 159.911 124.578C159.482 123.577 158.323 123.113 157.321 123.542C149.696 126.81 145.157 126.644 138.146 123.551C137.15 123.111 135.985 123.562 135.546 124.559C135.106 125.555 135.557 126.72 136.554 127.159Z" fill="#C99584"/>
<path d="M137.7 79.2928L121.561 77.9925C121.371 77.9773 121.188 78.0688 121.086 78.23L117.846 83.374C117.636 83.7085 117.867 84.1458 118.263 84.159L138.527 84.8373C139.216 84.8602 139.73 84.2112 139.551 83.5462L138.607 80.0473C138.494 79.6295 138.131 79.3275 137.7 79.2928Z" fill="#393939"/>
<path d="M156.996 79.2935L173.333 77.992C173.522 77.977 173.704 78.0675 173.806 78.2275L177.083 83.3715C177.296 83.7062 177.064 84.1457 176.668 84.1587L156.156 84.8375C155.467 84.8605 154.952 84.2092 155.134 83.5437L156.089 80.0452C156.202 79.6285 156.565 79.3277 156.996 79.2935Z" fill="#393939"/>
<path d="M129.248 96.0845V103.325C129.248 105.023 130.625 106.399 132.322 106.399C134.02 106.399 135.396 105.023 135.396 103.325V96.0845C135.396 94.3869 134.02 93.0107 132.322 93.0107C130.625 93.0107 129.248 94.3869 129.248 96.0845Z" fill="black"/>
<path d="M159.435 96.0844L159.435 103.325C159.435 105.022 160.811 106.399 162.508 106.399C164.206 106.399 165.582 105.023 165.582 103.325L165.583 96.0846C165.583 94.387 164.206 93.0108 162.509 93.0107C160.811 93.0107 159.435 94.3868 159.435 96.0844Z" fill="black"/>
<path d="M144.276 102.774C144.194 103.371 144.083 103.7 143.104 106.376C142.868 107.02 142.692 107.521 142.529 108.015C141.684 110.586 141.393 112.493 141.883 114.226C142.595 116.742 144.811 118.055 148.109 118.055V113.7C147.223 113.7 146.643 113.573 146.33 113.387C146.185 113.301 146.124 113.219 146.073 113.04C145.89 112.391 146.077 111.168 146.666 109.375C146.811 108.935 146.973 108.476 147.193 107.873C148.365 104.672 148.443 104.44 148.59 103.366L144.276 102.774Z" fill="#EBBAAA"/>
<path d="M177.105 62.403C176.27 55.3955 175.517 50.3636 174.96 45.6919C174.566 42.3828 174.525 41.5388 183.932 48.4726C193.339 55.4062 194.749 70.6187 192.19 83.5485L189.821 98.3905L186.916 97.6725L186.533 78.7C181.794 73.9288 177.94 69.4105 177.105 62.403Z" fill="#6E6C6C"/>
<path d="M111.331 69.8773C111.72 62.8315 110.926 63.1943 111.185 58.497C111.368 55.17 112.515 55.898 106.575 61.9988C103.297 65.366 104.531 79.833 105.229 89.2943L106.058 98.0148L107.383 98.0877L107.982 87.2407C110.323 79.7245 110.943 76.923 111.331 69.8773Z" fill="#6E6C6C"/>
<path fill-rule="evenodd" clip-rule="evenodd" d="M149 29.4276L148.999 29.4274C148.98 29.4274 148.96 29.4274 148.94 29.4274C148.92 29.4274 148.9 29.4274 148.88 29.4274L148.88 29.4276C136.176 29.4715 105.758 36.5152 104.615 69.4788C107.993 65.4185 113.21 63.6472 117.843 60.9975C127.597 55.4195 135.562 53.3775 146.13 53.3775C155.211 53.3775 166.35 55.4332 173.872 59.0357C180.602 62.2585 186.568 64.6757 193.145 69.4788C192.002 36.5153 161.703 29.4715 149 29.4276Z" fill="#272727"/>
<path d="M135.891 58.7662V54.7257L129.157 58.7662V50.4158L166.869 52.5707L162.289 58.2275L158.518 57.15L153.67 58.7662L151.784 55.8032L146.935 58.7662V54.7257L140.201 58.7662V54.7257L135.891 58.7662Z" fill="#272727"/>
<path d="M115.923 39.4037L113.316 48.6652L147.683 43.3429L186.959 50.5228L186.876 46.712L184.074 45.5474L184.009 42.5533L180.477 42.63L180.377 38.0027L175.836 38.1014L174.75 34.5848L170.714 34.6725L168.24 31.186L164.102 32.3653L162.793 30.2152L158.504 30.3084L158.451 27.8586L152.702 30.4345L151.135 28.0176L148.666 30.5222L146.09 28.1273L141.35 30.6812L138.27 28.2973L135.044 30.8183L132.773 30.8677L130.298 33.1001L129.241 30.9444L125.053 35.665L122.255 34.6365L118.712 40.0239L115.923 39.4037Z" fill="#272727"/>
</svg>
