<svg width="300" height="400" viewBox="0 0 300 400" fill="none" xmlns="http://www.w3.org/2000/svg">
<path d="M113.796 261.63L144.081 264.196V349.147H122.144L113.796 261.63Z" fill="#404B62"/>
<path d="M148.445 282.95C164.544 282.95 177.595 276.768 177.595 269.142C177.595 261.516 164.544 255.334 148.445 255.334C132.346 255.334 119.295 261.516 119.295 269.142C119.295 276.768 132.346 282.95 148.445 282.95Z" fill="#404B62"/>
<path d="M150.754 264.196H181.809V349.147H159.314L150.754 264.196Z" fill="#404B62"/>
<path d="M119.163 331.182H144.059V351.457H121.692L119.163 331.182Z" fill="#8C8379"/>
<path d="M183.092 329.9L156.657 328.872L157.94 349.147H182.36L183.092 329.9Z" fill="#8C8379"/>
<path d="M101.345 364.845C101.345 354.478 109.75 346.073 120.118 346.073H144.233C144.393 346.073 144.522 346.2 144.522 346.36V363.67C144.522 365.088 143.373 366.235 141.955 366.235H102.736C101.968 366.235 101.345 365.613 101.345 364.845Z" fill="#CEB56F"/>
<mask id="mask0_0_296" style="mask-type:luminance" maskUnits="userSpaceOnUse" x="101" y="346" width="44" height="21">
<path d="M101.345 364.845C101.345 354.478 109.75 346.073 120.118 346.073H144.233C144.393 346.073 144.522 346.2 144.522 346.36V363.67C144.522 365.088 143.373 366.235 141.955 366.235H102.736C101.968 366.235 101.345 365.613 101.345 364.845Z" fill="white"/>
</mask>
<g mask="url(#mask0_0_296)">
<path d="M106.353 353.513C103.115 351.683 104.385 355.308 101.476 356.848L95.3165 368.655H144.338C145.535 366.943 149.451 360.895 146.006 359.673C138.05 356.848 128.938 362.368 124.319 362.11C119.699 361.853 106.474 363.778 107.251 359.673C108.149 354.923 109.304 355.18 106.353 353.513Z" fill="#B69F62"/>
<path d="M140.935 362.664C145.207 360.672 147.716 357.012 146.539 354.488C145.363 351.965 140.946 351.534 136.674 353.526C132.402 355.518 129.892 359.178 131.069 361.702C132.246 364.225 136.663 364.656 140.935 362.664Z" fill="#B69F62"/>
<path d="M115.161 346.354C114.484 346.162 113.925 346.904 114.297 347.502L116.131 350.452L110.314 348.546C109.61 348.315 109.018 349.114 109.444 349.72L112.781 354.468C113.025 354.816 113.506 354.899 113.853 354.655C114.201 354.41 114.285 353.93 114.041 353.582L112.037 350.731L117.663 352.574C118.346 352.798 118.936 352.047 118.556 351.436L116.655 348.378L122.44 350.018C122.932 350.158 123.42 349.788 123.42 349.277C123.42 348.072 122.666 347.129 121.287 346.095C121.017 345.892 120.162 345.293 120.033 345.197C119.692 344.941 119.21 345.01 118.955 345.35C118.699 345.691 118.768 346.173 119.108 346.428C119.265 346.546 120.12 347.144 120.363 347.327C120.717 347.592 121.009 347.841 121.238 348.077L115.161 346.354Z" fill="#EED99F"/>
<path fill-rule="evenodd" clip-rule="evenodd" d="M121.633 343.666C121.626 343.298 121.624 343.098 121.624 342.86C121.624 340.579 120.132 338.883 118.159 338.883C117.197 338.883 116.415 339.284 115.874 340.023C115.356 340.728 115.079 341.72 115.079 342.86C115.079 343.913 115.705 344.86 116.773 345.571C117.72 346.201 118.935 346.58 119.956 346.58C120.444 346.58 120.803 346.492 121.059 346.313C121.293 346.149 121.445 345.908 121.534 345.57C121.611 345.275 121.641 344.917 121.642 344.397C121.643 344.209 121.641 344.053 121.634 343.681L121.633 343.666ZM120.094 343.714C120.101 344.07 120.103 344.219 120.102 344.392C120.101 344.681 120.09 344.891 120.07 345.037C120.036 345.039 119.998 345.04 119.955 345.04C119.244 345.04 118.324 344.753 117.626 344.289C116.952 343.84 116.619 343.336 116.619 342.86C116.619 342.028 116.807 341.354 117.116 340.933C117.369 340.587 117.691 340.422 118.159 340.422C119.234 340.422 120.084 341.389 120.084 342.86C120.084 343.111 120.086 343.317 120.094 343.699L120.094 343.714Z" fill="#EED99F"/>
<path fill-rule="evenodd" clip-rule="evenodd" d="M121.129 346.197C121.146 346.245 121.15 346.258 121.182 346.311L121.197 346.344L121.212 346.368L121.227 346.389L121.227 346.389L121.251 346.422L121.255 346.426C121.378 346.586 121.572 346.728 121.87 346.861C122.562 347.168 123.499 347.282 124.33 347.148C125.271 346.99 125.976 346.545 126.289 345.844C126.63 345.076 126.738 344.327 126.597 343.698C126.45 343.042 126.038 342.535 125.387 342.245C124.049 341.65 122.529 342.334 121.847 343.864C121.779 344.017 121.744 344.093 121.599 344.404L121.592 344.419L121.482 344.655C121.439 344.749 121.406 344.82 121.376 344.89C121.223 345.237 121.136 345.487 121.1 345.707C121.08 345.831 121.077 345.942 121.092 346.044L121.099 346.089L121.099 346.089C121.102 346.104 121.103 346.11 121.109 346.129C121.114 346.153 121.118 346.17 121.128 346.193L121.129 346.197ZM121.255 346.426L121.33 346.508L121.539 346.648L121.857 345.948L121.227 346.389L121.227 346.389C121.236 346.401 121.245 346.414 121.255 346.426ZM125.094 344.036C125.053 343.851 124.964 343.742 124.76 343.651C124.238 343.419 123.605 343.704 123.254 344.491C123.18 344.656 123.143 344.736 122.998 345.046L122.993 345.058L122.88 345.302C122.84 345.387 122.811 345.451 122.785 345.511L122.767 345.551C123.159 345.662 123.651 345.697 124.08 345.628C124.551 345.549 124.806 345.388 124.882 345.218C125.097 344.735 125.157 344.316 125.094 344.036Z" fill="#EED99F"/>
</g>
<path d="M200.347 364.845C200.347 354.478 191.942 346.073 181.574 346.073H157.459C157.299 346.073 157.17 346.2 157.17 346.36V363.67C157.17 365.088 158.319 366.235 159.737 366.235H198.957C199.725 366.235 200.347 365.613 200.347 364.845Z" fill="#CEB56F"/>
<mask id="mask1_0_296" style="mask-type:luminance" maskUnits="userSpaceOnUse" x="157" y="346" width="44" height="21">
<path d="M200.347 364.845C200.347 354.478 191.942 346.073 181.574 346.073H157.459C157.299 346.073 157.17 346.2 157.17 346.36V363.67C157.17 365.088 158.319 366.235 159.737 366.235H198.957C199.725 366.235 200.347 365.613 200.347 364.845Z" fill="white"/>
</mask>
<g mask="url(#mask1_0_296)">
<path d="M195.34 353.513C198.577 351.683 197.307 355.308 200.216 356.848L206.376 368.655H157.355C156.157 366.943 152.241 360.895 155.687 359.673C163.643 356.848 172.754 362.368 177.374 362.11C181.994 361.853 195.218 363.778 194.441 359.673C193.543 354.923 192.388 355.18 195.34 353.513Z" fill="#B69F62"/>
<path d="M160.758 362.664C156.486 360.672 153.976 357.012 155.153 354.488C156.33 351.965 160.747 351.534 165.019 353.526C169.291 355.518 171.8 359.178 170.623 361.702C169.447 364.225 165.03 364.656 160.758 362.664Z" fill="#B69F62"/>
<path d="M183.136 351.436C182.757 352.047 183.347 352.798 184.03 352.574L189.656 350.731L187.652 353.582C187.407 353.93 187.491 354.41 187.839 354.655C188.187 354.899 188.667 354.816 188.912 354.468L192.248 349.72C192.674 349.114 192.082 348.315 191.378 348.546L185.561 350.452L187.396 347.502C187.767 346.904 187.209 346.162 186.532 346.354L180.454 348.077C180.683 347.841 180.975 347.592 181.329 347.327C181.572 347.144 182.428 346.545 182.584 346.428C182.924 346.173 182.993 345.691 182.738 345.351C182.483 345.01 182 344.941 181.66 345.197C181.531 345.293 180.675 345.892 180.405 346.095C179.026 347.129 178.272 348.072 178.272 349.277C178.272 349.788 178.76 350.158 179.252 350.018L185.037 348.378L183.136 351.436Z" fill="#EED99F"/>
<path fill-rule="evenodd" clip-rule="evenodd" d="M180.06 343.604C180.066 343.275 180.069 343.08 180.069 342.86C180.069 340.579 181.56 338.883 183.534 338.883C184.495 338.883 185.278 339.284 185.818 340.022C186.336 340.728 186.613 341.72 186.613 342.86C186.613 343.913 185.988 344.86 184.92 345.571C183.973 346.201 182.757 346.58 181.737 346.58C181.248 346.58 180.888 346.492 180.635 346.314C180.4 346.15 180.247 345.909 180.158 345.569C180.082 345.274 180.052 344.915 180.05 344.397C180.05 344.209 180.052 344.053 180.059 343.695L180.059 343.671L180.06 343.604ZM181.598 343.709C181.592 344.07 181.59 344.22 181.59 344.393C181.591 344.681 181.602 344.89 181.622 345.037C181.656 345.039 181.694 345.04 181.737 345.04C182.449 345.04 183.369 344.753 184.066 344.289C184.74 343.84 185.073 343.336 185.073 342.86C185.073 342.028 184.885 341.354 184.575 340.932C184.324 340.588 184.001 340.422 183.533 340.422C182.458 340.422 181.609 341.389 181.609 342.86C181.609 343.092 181.606 343.295 181.6 343.632L181.599 343.685L181.598 343.709Z" fill="#EED99F"/>
<path fill-rule="evenodd" clip-rule="evenodd" d="M180.475 346.374L180.493 346.347C180.542 346.253 180.55 346.237 180.561 346.204C180.581 346.167 180.585 346.144 180.589 346.107C180.59 346.102 180.591 346.096 180.593 346.089L180.593 346.089L180.598 346.059C180.616 345.951 180.613 345.835 180.593 345.708C180.557 345.487 180.469 345.236 180.316 344.889C180.286 344.82 180.253 344.748 180.21 344.655L180.098 344.413L180.093 344.403C179.964 344.126 179.914 344.02 179.845 343.864C179.163 342.334 177.643 341.65 176.306 342.244C175.654 342.535 175.243 343.041 175.095 343.699C174.954 344.328 175.062 345.076 175.402 345.842C175.716 346.545 176.421 346.99 177.359 347.147C178.193 347.282 179.131 347.168 179.822 346.861C180.147 346.716 180.354 346.556 180.475 346.374ZM176.598 344.036C176.64 343.851 176.728 343.742 176.933 343.651C177.454 343.419 178.087 343.704 178.438 344.491C178.512 344.657 178.564 344.769 178.696 345.05L178.7 345.059L178.813 345.302C178.852 345.387 178.881 345.451 178.907 345.51L178.925 345.551C178.534 345.662 178.041 345.697 177.608 345.627C177.142 345.549 176.886 345.388 176.809 345.216C176.595 344.735 176.535 344.316 176.598 344.036Z" fill="#EED99F"/>
</g>
<path d="M176.163 115.08L190.535 112C197.722 134.073 193.615 169.491 190.535 181.297L157.17 164.871V137.152L176.163 115.08Z" fill="#1F1F20"/>
<rect x="102.146" y="151.435" width="47.0373" height="87.231" rx="23.5186" transform="rotate(12 102.146 151.435)" fill="#36383A"/>
<path d="M112.132 179.875C113.274 165.888 124.958 155.118 138.992 155.118H159.935C173.885 155.118 185.529 165.764 186.776 179.657L189.506 210.074C189.679 211.994 189.657 213.927 189.443 215.843L184.574 259.32H114.153L109.7 215.584C109.522 213.839 109.504 212.082 109.647 210.334L112.132 179.875Z" fill="#7E8083"/>
<rect x="136.613" y="138.949" width="22.5856" height="29.5152" rx="11.2928" fill="#EBBAAA"/>
<rect width="38.319" height="94.1835" rx="19.1595" transform="matrix(-0.945519 0.325568 0.325568 0.945519 188.012 141.259)" fill="#36383A"/>
<path d="M138.434 183.863C138.434 176.061 139.204 163.331 134.585 152.038H118.415C115.507 156.487 109.484 171.749 108.662 197.209C107.841 222.67 105.925 251.962 105.069 263.426C108.662 264.581 129.836 268.431 141.643 264.325C141.643 247.898 140.488 238.274 140.231 214.149C140.058 197.852 138.434 191.666 138.434 183.863Z" fill="#36383A"/>
<rect x="80.5" y="232.447" width="31.3577" height="53.0998" rx="15.6789" transform="rotate(-67 80.5 232.447)" fill="#424648"/>
<path d="M123.292 167.181C129.965 162.304 128.425 144.98 132.788 144.98C146.519 157.043 144.402 177.704 139.718 206.962C132.531 171.287 128.489 174.624 123.292 167.181Z" fill="#5A5E65"/>
<path d="M158.68 182.708C158.68 174.906 159.223 156.658 163.843 145.365H174.964C179.555 145.365 183.627 147.838 184.551 152.335C186.414 161.405 187.853 177.485 188.452 196.055C189.273 221.514 190.706 253.887 191.562 265.351C184.889 266.378 166.636 269.457 154.83 265.351C154.83 248.925 156.626 237.119 156.883 212.993C157.056 196.697 158.68 190.511 158.68 182.708Z" fill="#36383A"/>
<rect x="175.661" y="256.371" width="31.0023" height="53.0998" rx="15.5011" transform="rotate(-124 175.661 256.371)" fill="#424648"/>
<path d="M173.822 166.026C167.149 161.15 168.689 143.825 164.326 143.825C150.595 155.888 152.712 176.549 157.396 205.807C164.583 170.132 168.625 173.469 173.822 166.026Z" fill="#5A5E65"/>
<rect x="122.522" y="206.369" width="52.8708" height="33.1237" rx="0.955495" fill="#2B2927"/>
<rect x="126.115" y="204.139" width="8.91798" height="5.09597" rx="0.636998" fill="#2B2927"/>
<rect x="136.944" y="204.139" width="5.41447" height="5.09597" rx="0.636998" fill="#2B2927"/>
<rect x="144.851" y="204.139" width="30.5417" height="3.59315" rx="0.636998" fill="#2B2927"/>
<rect x="122.522" y="210.828" width="52.8708" height="23.5689" fill="#313131"/>
<path d="M169.978 214.968C171.737 214.968 173.163 213.542 173.163 211.783C173.163 210.024 171.737 208.598 169.978 208.598C168.219 208.598 166.793 210.024 166.793 211.783C166.793 213.542 168.219 214.968 169.978 214.968Z" fill="#FF2929"/>
<path d="M155.168 238.218C162.116 238.218 167.749 232.586 167.749 225.638C167.749 218.69 162.116 213.057 155.168 213.057C148.22 213.057 142.587 218.69 142.587 225.638C142.587 232.586 148.22 238.218 155.168 238.218Z" fill="#5D5F61" stroke="#444549" stroke-width="4.45897"/>
<mask id="mask2_0_296" style="mask-type:luminance" maskUnits="userSpaceOnUse" x="144" y="215" width="22" height="22">
<path fill-rule="evenodd" clip-rule="evenodd" d="M155.327 236.307C161.132 236.307 165.838 231.602 165.838 225.797C165.838 219.992 161.132 215.287 155.327 215.287C149.522 215.287 144.817 219.992 144.817 225.797C144.817 231.602 149.522 236.307 155.327 236.307Z" fill="white"/>
</mask>
<g mask="url(#mask2_0_296)">
<rect x="164.694" y="206.368" width="7.96247" height="34.8875" transform="rotate(40 164.694 206.368)" fill="white"/>
<rect x="160.235" y="195.221" width="7.96247" height="34.8875" transform="rotate(40 160.235 195.221)" fill="white"/>
</g>
<path d="M137.251 236.98C137.461 243 132.56 245.875 126.398 246.09C120.235 246.306 114.12 243.816 113.909 237.795C113.699 231.774 116.611 219.724 122.773 219.509C128.935 219.294 137.04 230.959 137.251 236.98Z" fill="#EBBAAA"/>
<path d="M161.277 239.044C171.029 235.066 171.384 223.37 168.206 218.383C169.233 216.843 170.985 216.841 172.184 216.843C175.664 216.852 178.367 219.314 181.039 223.132C184.632 228.265 182.707 238.787 175.264 243.407C167.821 248.027 157.513 247.253 153.418 243.903C152.007 242.748 150.369 241.354 154.347 240.473C155.794 240.535 158.086 240.346 161.277 239.044Z" fill="#EBBAAA"/>
<path d="M118.66 115.08L104.287 112C100.592 132.532 101.208 160.251 104.287 172.057L137.653 164.871L118.66 115.08Z" fill="#1F1F20"/>
<path d="M125.604 104.314C125.604 112.122 122.507 119.95 114.276 119.95C106.045 119.95 95.7966 112.122 95.7966 104.314C95.7966 96.507 102.469 90.1777 110.701 90.1777C118.932 90.1777 125.604 96.507 125.604 104.314Z" fill="#EBBAAA"/>
<path d="M167.727 104.064C167.727 111.872 170.824 119.7 179.055 119.7C187.286 119.7 197.534 111.872 197.534 104.064C197.534 96.257 190.861 89.9277 182.63 89.9277C174.399 89.9277 167.727 96.257 167.727 104.064Z" fill="#EBBAAA"/>
<path d="M111.027 79.6775C110.157 58.8111 126.839 41.4202 147.723 41.4202C169.144 41.4202 186.019 59.6758 184.338 81.0303L181.106 122.103C179.764 139.148 165.541 152.295 148.444 152.295C129.223 152.295 113.421 137.137 112.621 117.933L111.027 79.6775Z" fill="#EED4CC"/>
<path d="M137.374 147.755C135.868 146.902 138.809 142.948 139.935 141.246C140.668 140.833 143.667 142.553 148.334 142.848C154.168 143.217 154.468 140.004 156.142 142.212C157.815 144.42 161.348 146.983 156.969 148.268C150.122 150.278 139.422 148.916 137.374 147.755Z" fill="#CAC4C1"/>
<path d="M139.454 127.107C142.677 128.529 144.136 129.015 145.814 129.1C146.949 129.157 148.027 129.007 149.691 128.613C150.043 128.53 153.754 127.583 155.3 127.22C156.335 126.977 156.977 125.941 156.734 124.906C156.491 123.871 155.455 123.229 154.42 123.472C152.827 123.846 149.112 124.794 148.804 124.867C147.464 125.184 146.703 125.29 146.007 125.255C144.952 125.202 143.81 124.821 141.008 123.585C140.035 123.156 138.899 123.597 138.47 124.569C138.041 125.542 138.481 126.678 139.454 127.107Z" fill="#C99584"/>
<path d="M135.412 118.974C134.58 119.806 133.714 120.994 133.198 121.877L134.971 122.912C135.405 122.169 136.172 121.118 136.864 120.426L135.412 118.974Z" fill="#CAC3C1"/>
<path d="M139.551 121.114C139.871 120.593 140.173 120.183 140.444 119.913L138.992 118.46C138.588 118.865 138.199 119.393 137.802 120.039C137.462 120.591 136.714 121.986 136.778 121.877L138.551 122.912C138.579 122.856 139.263 121.582 139.551 121.114Z" fill="#CAC3C1"/>
<path d="M159.084 121.877C159.148 121.987 158.399 120.591 158.06 120.039C157.662 119.393 157.274 118.865 156.87 118.461L155.418 119.912C155.688 120.183 155.99 120.593 156.311 121.114C156.598 121.582 157.283 122.855 157.311 122.912L159.084 121.877Z" fill="#CAC3C1"/>
<path d="M152.338 120.426C152.703 120.791 153.005 121.168 153.277 121.577C153.383 121.736 153.481 121.896 153.588 122.079C153.64 122.168 153.811 122.467 153.845 122.527L155.619 121.492C155.591 121.445 155.421 121.146 155.362 121.045C155.236 120.829 155.117 120.637 154.987 120.441C154.644 119.923 154.257 119.441 153.79 118.974L152.338 120.426Z" fill="#CAC3C1"/>
<path d="M127.187 87.4231L136.523 88.1931C137.936 88.3096 139.175 87.2589 139.292 85.8462C139.408 84.4336 138.358 83.1939 136.945 83.0774L127.609 82.3074C126.197 82.1909 124.957 83.2416 124.84 84.6543C124.724 86.0669 125.775 87.3066 127.187 87.4231Z" fill="#787574"/>
<path d="M166.566 82.4936L157.23 83.2634C155.817 83.3799 154.766 84.6195 154.883 86.0322C154.999 87.4448 156.239 88.4956 157.652 88.3791L166.987 87.6094C168.4 87.4929 169.451 86.2533 169.334 84.8406C169.218 83.4279 167.978 82.3772 166.566 82.4936Z" fill="#787574"/>
<path d="M129.522 101.081L134.057 101.49C135.751 101.643 137.248 100.393 137.401 98.6993C137.553 97.0052 136.304 95.5081 134.61 95.3553L130.075 94.9466C128.381 94.7939 126.884 96.0434 126.732 97.7375C126.579 99.4316 127.828 100.929 129.522 101.081Z" fill="black"/>
<path d="M164.573 94.8287L160.031 95.2485C158.337 95.405 157.091 96.9049 157.247 98.5986C157.404 100.292 158.904 101.539 160.597 101.382L165.14 100.962C166.834 100.806 168.08 99.3059 167.924 97.6121C167.767 95.9184 166.267 94.6722 164.573 94.8287Z" fill="black"/>
<rect x="105.91" y="87.088" width="5.91768" height="27.6157" rx="2.95884" transform="rotate(-4 105.91 87.088)" fill="#1F1F20"/>
<rect x="181.988" y="82.4847" width="5.91768" height="31.9993" rx="2.95884" transform="rotate(4 181.988 82.4847)" fill="#1F1F20"/>
<path d="M145.053 110.774C144.987 109.672 145.289 107.984 145.931 105.691C146.093 105.111 146.274 104.5 146.497 103.775C146.495 103.78 147.265 101.31 147.452 100.677C147.789 99.5357 147.992 98.7227 148.085 98.045L143.762 97.4516C143.707 97.852 143.547 98.497 143.268 99.4397C143.091 100.037 142.333 102.471 142.326 102.494C142.093 103.251 141.902 103.895 141.729 104.515C140.964 107.246 140.595 109.314 140.697 111.033C140.862 113.804 142.425 115.722 145.236 115.722H148.958V111.358H145.236C145.197 111.358 145.166 111.357 145.14 111.356C145.108 111.254 145.07 111.062 145.053 110.774Z" fill="#EBBAAA"/>
<path d="M147.417 48.8632C129.76 48.4525 112.256 72.2188 112.256 88.1313C109.347 100.964 107.396 89.0185 101.75 93.125C99.6967 86.9653 99.4231 62.7225 127.398 40.6502C138.534 31.8647 147.974 33.9305 149.342 36.1549C151.793 40.1369 152.849 39.6236 147.417 48.8632Z" fill="#1F1F20"/>
<path d="M150.309 48.8631C167.967 48.4525 181.938 71.962 181.938 87.8745C184.846 100.707 188.625 90.625 194.875 95.75C194.875 89.077 200.288 63.0193 171.286 40.1369C160.151 31.3514 150.266 33.9305 148.898 36.1548C146.447 40.1369 144.878 39.6236 150.309 48.8631Z" fill="#1F1F20"/>
<path d="M105.419 157.428C107.883 150.036 106.445 134.158 105.419 127.143C112.947 137.238 126.259 158.557 119.278 163.074C112.297 167.592 113.632 183.093 115.172 190.28C113.461 189.766 109.115 186.995 105.419 180.014C100.799 171.287 102.339 166.668 105.419 157.428Z" fill="#1F1F20"/>
<path d="M130.222 147.418C122.265 143.825 119.442 141.515 115.079 135.099C114.224 139.034 114.566 151.628 116.619 158.198C118.672 164.768 119.186 178.73 128.938 178.73C128.938 178.73 127.655 168.208 130.222 163.074C132.788 157.941 135.599 149.847 130.222 147.418Z" fill="#1F1F20"/>
<path d="M113.438 162.526C115.227 157.147 114.184 145.593 113.438 140.489C118.904 147.834 132.21 161.841 127.142 165.128C122.074 168.414 119.401 181.201 120.519 186.43C119.276 186.056 116.121 184.04 113.438 178.96C110.085 172.61 111.203 169.249 113.438 162.526Z" fill="#1F1F20"/>
</svg>
