<svg width="300" height="400" viewBox="0 0 300 400" fill="none" xmlns="http://www.w3.org/2000/svg">
<path d="M136.573 252.913L167.289 255.756V349.885H145.039L136.573 252.913Z" fill="#2B2B2B"/>
<path d="M171.731 276.521C188.065 276.521 201.306 269.702 201.306 261.29C201.306 252.878 188.065 246.058 171.731 246.058C155.398 246.058 142.157 252.878 142.157 261.29C142.157 269.702 155.398 276.521 171.731 276.521Z" fill="#2B2B2B"/>
<path d="M174.143 255.959H205.622V349.885H182.82L174.143 255.959Z" fill="#2B2B2B"/>
<path d="M228.752 367.055C229.232 365.975 228.886 363.565 228.618 363.163C228.349 362.758 195.719 360.208 195.719 360.208C190.304 359.805 179.246 357.293 178.504 360.208C175.975 370.143 182.696 370.143 186.993 370.143C192.901 370.143 193.602 368.58 197.465 369.07C199.479 369.325 202.433 370.68 215.995 370.68C226.872 370.68 227.678 369.473 228.752 367.055Z" fill="#29282D"/>
<path d="M194.749 349.685C189.268 349.582 186.829 348.012 184.681 344.492H181.996C179.586 344.492 182.6 346.96 181.996 349.685C181.189 353.32 180.509 352.8 179.703 356.175C179.145 358.512 179.031 362.017 180.375 363.965C182.461 366.987 185.076 366.69 189.51 366.69C192.062 366.69 196.361 366.04 200.257 367.08C205.696 368.53 220.676 369.285 224.438 368.117C230.848 366.127 228.871 360.33 226.184 358.122C221.469 354.25 212.362 354.517 210.064 351.502C208.183 349.037 207.113 343.085 205.765 341.637C203.347 339.042 201.704 341.33 202.138 343.845C202.675 346.96 201.6 349.815 194.749 349.685Z" fill="#504D5A"/>
<mask id="mask0_0_377" style="mask-type:luminance" maskUnits="userSpaceOnUse" x="179" y="340" width="50" height="29">
<path d="M194.749 349.685C189.268 349.582 186.829 348.012 184.681 344.492H181.996C179.586 344.492 182.6 346.96 181.996 349.685C181.189 353.32 180.509 352.8 179.703 356.175C179.145 358.512 179.031 362.017 180.375 363.965C182.461 366.987 185.076 366.69 189.51 366.69C192.062 366.69 196.361 366.04 200.257 367.08C205.696 368.53 220.676 369.285 224.438 368.117C230.848 366.127 228.871 360.33 226.184 358.122C221.469 354.25 212.362 354.517 210.064 351.502C208.183 349.037 207.113 343.085 205.765 341.637C203.347 339.042 201.704 341.33 202.138 343.845C202.675 346.96 201.6 349.815 194.749 349.685Z" fill="white"/>
</mask>
<g mask="url(#mask0_0_377)">
<path d="M203.778 344.498C203.455 342.563 202.838 341.365 202.569 341.005L203.106 339.663H206.195C207.627 340.918 210.035 343.988 208.209 346.243C205.926 349.063 204.18 346.915 203.778 344.498Z" fill="#D9D8DD"/>
<path fill-rule="evenodd" clip-rule="evenodd" d="M180.836 349.46C180.836 356.018 188.445 360.808 201.599 367.778C201.403 367.778 201.215 367.822 200.969 367.88C200.137 368.076 198.636 368.429 193.862 367.778C192.457 367.585 180.234 358.958 178.773 356.018C179.129 354.91 179.509 353.126 179.845 351.549C180.401 348.936 180.836 346.895 180.836 349.46ZM224.489 369.443C224.621 369.458 224.746 369.468 224.858 369.472L230.498 366.25L231.035 358.192L226.604 357.925C226.29 357.88 225.637 358.192 225.529 359.805C225.487 360.44 225.525 360.982 225.559 361.464C225.565 361.549 225.571 361.632 225.576 361.714C225.167 362.327 224.349 362.893 222.844 362.893C219.756 362.893 218.95 363.028 216.802 364.638C214.653 366.25 209.148 366.788 207.403 365.713C205.657 364.638 203.374 368.668 205.388 369.473C207.403 370.278 222.441 371.218 224.455 369.473C224.467 369.463 224.478 369.453 224.489 369.443Z" fill="#29282D"/>
<path d="M206.165 358.765C212.263 361.17 218.249 364.245 222.278 366.285C221.418 366.285 224.44 367.925 218.249 367.08C216.845 366.887 195.826 356.74 180.116 355.935C176.087 353.382 203.077 357.545 206.165 358.765Z" fill="#29282D"/>
<path fill-rule="evenodd" clip-rule="evenodd" d="M182.85 354.087C182.583 353.963 182.317 353.838 182.049 353.715C181.948 353.669 181.87 353.622 181.811 353.577C181.857 353.298 181.75 353.217 181.685 353.247C181.62 353.277 181.597 353.417 181.811 353.577C181.81 353.586 181.808 353.594 181.806 353.602C181.83 353.638 181.849 353.668 181.865 353.693C181.891 353.735 181.911 353.766 181.933 353.797C182.071 353.992 182.208 354.187 182.345 354.382C182.837 355.079 183.328 355.776 183.823 356.467C183.884 356.552 183.989 356.627 184.087 356.66C185.239 357.054 186.489 357.452 187.746 357.853C189.203 358.317 190.669 358.784 192 359.25C192.771 359.52 193.538 359.837 194.255 360.225C196 361.165 196.767 362.697 196.774 364.64C196.774 365.24 196.677 365.827 196.485 366.397C196.476 366.423 196.471 366.448 196.465 366.48C196.461 366.498 196.458 366.519 196.452 366.542H196.658C197.35 366.542 197.987 366.873 198.625 367.203C199.262 367.533 199.9 367.862 200.591 367.862C200.602 367.862 200.613 367.863 200.624 367.863C200.698 367.866 200.765 367.868 200.794 367.75C201.17 366.305 202.222 363.84 203.315 362.855C204.665 361.637 206.268 360.905 208.009 360.435C209.072 360.149 210.144 360.226 211.225 360.305C211.985 360.36 212.749 360.415 213.518 360.345C213.88 360.314 214.244 360.289 214.607 360.264C214.792 360.251 214.977 360.238 215.161 360.225C215.201 360.222 215.241 360.215 215.284 360.19C212.517 359.499 209.783 358.378 207.07 357.266C205.485 356.616 203.907 355.969 202.334 355.412C202.354 355.43 202.373 355.448 202.392 355.466C202.411 355.484 202.43 355.502 202.45 355.52C203.043 356.07 203.626 356.63 204.064 357.315C204.201 357.532 204.317 357.772 204.397 358.012C204.538 358.455 204.401 358.78 203.966 358.927C203.561 359.065 203.13 359.16 202.703 359.202C201.624 359.31 200.546 359.212 199.474 359.08C197.143 358.79 194.889 358.17 192.637 357.532C190.046 356.795 187.026 355.93 184.546 354.86C183.974 354.614 183.412 354.351 182.85 354.087ZM199.369 363.597C199.225 363 199.055 362.457 198.711 362C198.46 361.663 198.187 361.342 197.911 361.019C197.817 360.908 197.723 360.797 197.629 360.685C198.989 361.067 200.376 361.245 201.798 361.175C200.908 361.895 200.046 362.625 199.369 363.597Z" fill="#D9D8DD"/>
<path d="M209.15 356.252C209.107 356.837 209.683 357.272 210.233 357.068L215.544 355.106L216.418 359.04C216.537 359.575 217.145 359.838 217.616 359.557L222.585 356.602C222.967 356.375 223.093 355.881 222.865 355.498C222.638 355.116 222.143 354.99 221.761 355.218L217.75 357.603L216.917 353.855C216.811 353.379 216.309 353.105 215.851 353.274L210.851 355.122L211.16 351.003C211.204 350.421 210.633 349.987 210.084 350.184L204.415 352.222C203.997 352.372 203.779 352.834 203.93 353.253C204.08 353.671 204.542 353.889 204.96 353.738L209.46 352.121L209.15 356.252Z" fill="#2A2A2A"/>
</g>
<path d="M154.774 349.685C160.255 349.582 162.694 348.012 164.842 344.492H167.527C169.937 344.492 166.923 346.96 167.527 349.685C168.334 353.32 169.014 352.8 169.82 356.175C170.378 358.512 170.492 362.017 169.148 363.965C167.062 366.987 164.447 366.69 160.013 366.69C157.461 366.69 153.162 366.04 149.266 367.08C143.827 368.53 128.847 369.285 125.085 368.117C118.675 366.127 120.652 360.33 123.339 358.122C128.054 354.25 137.161 354.517 139.459 351.502C141.34 349.037 142.41 343.085 143.758 341.637C146.176 339.042 147.819 341.33 147.385 343.845C146.848 346.96 147.923 349.815 154.774 349.685Z" fill="#504D5A"/>
<mask id="mask1_0_377" style="mask-type:luminance" maskUnits="userSpaceOnUse" x="120" y="340" width="51" height="29">
<path d="M154.774 349.685C160.255 349.582 162.694 348.012 164.842 344.492H167.527C169.937 344.492 166.923 346.96 167.527 349.685C168.334 353.32 169.014 352.8 169.82 356.175C170.378 358.512 170.492 362.017 169.148 363.965C167.062 366.987 164.447 366.69 160.013 366.69C157.461 366.69 153.162 366.04 149.266 367.08C143.827 368.53 128.847 369.285 125.085 368.117C118.675 366.127 120.652 360.33 123.339 358.122C128.054 354.25 137.161 354.517 139.459 351.502C141.34 349.037 142.41 343.085 143.758 341.637C146.176 339.042 147.819 341.33 147.385 343.845C146.848 346.96 147.923 349.815 154.774 349.685Z" fill="white"/>
</mask>
<g mask="url(#mask1_0_377)">
<path d="M145.745 344.498C146.067 342.563 146.685 341.365 146.954 341.005L146.417 339.663H143.328C141.896 340.918 139.488 343.988 141.314 346.243C143.597 349.063 145.342 346.915 145.745 344.498Z" fill="#D9D8DD"/>
<path fill-rule="evenodd" clip-rule="evenodd" d="M168.687 349.46C168.687 356.018 161.078 360.808 147.924 367.778C148.12 367.778 148.308 367.822 148.554 367.88C149.386 368.076 150.887 368.429 155.661 367.778C157.066 367.585 169.288 358.958 170.75 356.018C170.394 354.91 170.014 353.126 169.678 351.549C169.121 348.936 168.687 346.895 168.687 349.46ZM125.034 369.443C124.902 369.458 124.777 369.468 124.665 369.472L119.025 366.25L118.488 358.192L122.919 357.925C123.232 357.88 123.886 358.192 123.993 359.805C124.036 360.44 123.998 360.982 123.964 361.464C123.958 361.549 123.952 361.632 123.947 361.714C124.356 362.327 125.174 362.893 126.679 362.893C129.767 362.893 130.573 363.028 132.721 364.638C134.869 366.25 140.375 366.788 142.12 365.713C143.866 364.638 146.148 368.668 144.134 369.473C142.12 370.278 127.082 371.218 125.067 369.473C125.056 369.463 125.045 369.453 125.034 369.443Z" fill="#29282D"/>
<path d="M143.358 358.765C137.26 361.17 131.274 364.245 127.245 366.285C128.105 366.285 125.083 367.925 131.274 367.08C132.678 366.887 153.697 356.74 169.407 355.935C173.436 353.382 146.446 357.545 143.358 358.765Z" fill="#29282D"/>
<path fill-rule="evenodd" clip-rule="evenodd" d="M166.673 354.087C166.94 353.963 167.206 353.838 167.474 353.715C167.574 353.669 167.652 353.622 167.712 353.577C167.666 353.298 167.773 353.217 167.838 353.247C167.903 353.277 167.925 353.417 167.712 353.577C167.713 353.586 167.715 353.594 167.716 353.602C167.693 353.638 167.674 353.668 167.658 353.693C167.632 353.735 167.612 353.766 167.59 353.797C167.452 353.992 167.315 354.187 167.178 354.382C166.686 355.079 166.195 355.776 165.7 356.467C165.639 356.552 165.534 356.627 165.436 356.66C164.284 357.054 163.034 357.452 161.777 357.853C160.32 358.317 158.854 358.784 157.523 359.25C156.752 359.52 155.984 359.837 155.268 360.225C153.523 361.165 152.756 362.697 152.748 364.64C152.748 365.24 152.846 365.827 153.038 366.397C153.047 366.423 153.052 366.448 153.058 366.48C153.061 366.498 153.065 366.519 153.071 366.542H152.864C152.173 366.542 151.535 366.873 150.898 367.203C150.26 367.533 149.623 367.862 148.932 367.862C148.921 367.862 148.91 367.863 148.899 367.863C148.825 367.866 148.757 367.868 148.729 367.75C148.353 366.305 147.301 363.84 146.208 362.855C144.858 361.637 143.255 360.905 141.514 360.435C140.45 360.149 139.379 360.226 138.297 360.305C137.538 360.36 136.774 360.415 136.005 360.345C135.643 360.314 135.279 360.289 134.915 360.264C134.731 360.251 134.546 360.238 134.362 360.225C134.322 360.222 134.282 360.215 134.239 360.19C137.006 359.499 139.74 358.378 142.453 357.266C144.038 356.616 145.616 355.969 147.189 355.412C147.169 355.43 147.15 355.448 147.131 355.466C147.112 355.484 147.093 355.502 147.073 355.52C146.479 356.07 145.897 356.63 145.459 357.315C145.321 357.532 145.205 357.772 145.126 358.012C144.985 358.455 145.122 358.78 145.557 358.927C145.962 359.065 146.393 359.16 146.82 359.202C147.898 359.31 148.977 359.212 150.048 359.08C152.379 358.79 154.634 358.17 156.886 357.532C159.477 356.795 162.497 355.93 164.976 354.86C165.549 354.614 166.111 354.351 166.673 354.087ZM150.153 363.597C150.298 363 150.468 362.457 150.812 362C151.063 361.663 151.336 361.342 151.612 361.019C151.706 360.908 151.8 360.797 151.894 360.685C150.533 361.067 149.147 361.245 147.725 361.175C148.615 361.895 149.476 362.625 150.153 363.597Z" fill="#D9D8DD"/>
<path d="M140.372 356.252C140.416 356.837 139.84 357.272 139.29 357.068L133.979 355.106L133.105 359.04C132.986 359.575 132.378 359.838 131.906 359.557L126.938 356.602C126.556 356.375 126.43 355.881 126.658 355.498C126.885 355.116 127.379 354.99 127.762 355.218L131.773 357.603L132.606 353.855C132.712 353.379 133.214 353.105 133.672 353.274L138.672 355.122L138.363 351.003C138.319 350.421 138.89 349.987 139.439 350.184L145.108 352.222C145.526 352.372 145.744 352.834 145.593 353.253C145.443 353.671 144.981 353.889 144.563 353.738L140.063 352.121L140.372 356.252Z" fill="#2A2A2A"/>
</g>
<path d="M208.864 189.494C210.729 192.8 211.061 193.391 211.867 194.844C217.661 205.289 220.898 212.488 222.491 219.365C224.73 229.033 223.127 236.424 216.664 243.057C213.043 246.773 213.121 252.719 216.836 256.34C220.551 259.96 226.498 259.882 230.118 256.167C241.365 244.624 244.392 230.668 240.792 215.126C238.702 206.106 234.877 197.599 228.294 185.732C227.457 184.222 227.117 183.618 225.225 180.264C222.677 175.746 216.948 174.149 212.43 176.698C207.912 179.247 206.315 184.976 208.864 189.494Z" fill="#EBBAAA"/>
<path d="M133.642 160.69C130.956 169.971 123.137 183.266 114.679 191.776C110.139 196.343 105.679 199.328 101.748 200.484C98.1181 201.55 94.9987 201.082 91.7059 198.77C87.4605 195.789 81.6024 196.814 78.6215 201.059C75.6407 205.305 76.6659 211.163 80.9113 214.144C88.9669 219.8 98.018 221.159 107.044 218.507C114.394 216.347 121.411 211.65 128.003 205.018C138.684 194.272 148.125 178.218 151.687 165.913C153.129 160.93 150.259 155.721 145.276 154.279C140.293 152.837 135.085 155.707 133.642 160.69Z" fill="#EBBAAA"/>
<path d="M135.122 152.026C145.067 142.896 160.822 144.843 168.246 156.119C175.169 166.634 171.83 180.806 160.941 187.125L132.003 203.918L104.586 180.056L135.122 152.026Z" fill="#C65829"/>
<path d="M214.577 153.171C205.818 142.898 189.943 142.911 181.201 153.197C173.048 162.79 174.635 177.264 184.672 184.862L211.348 205.057L241.469 184.714L214.577 153.171Z" fill="#E06F3F"/>
<path d="M135.147 171.871C136.215 157.589 148.114 146.547 162.435 146.547H181.049C196.162 146.547 208.413 158.798 208.413 173.911V210.523V263.575L132.257 261.074L132.257 210.523L135.147 171.871Z" fill="#D8612E"/>
<mask id="mask2_0_377" style="mask-type:luminance" maskUnits="userSpaceOnUse" x="132" y="146" width="77" height="118">
<path d="M135.147 171.871C136.215 157.589 148.114 146.547 162.435 146.547H181.049C196.162 146.547 208.413 158.798 208.413 173.911V210.523V263.575L132.257 261.074L132.257 210.523L135.147 171.871Z" fill="white"/>
</mask>
<g mask="url(#mask2_0_377)">
<path d="M130.558 245.803L209.761 242.757L209.605 238.698L130.402 241.744L130.558 245.803Z" fill="#F19F3E"/>
<path d="M131.287 181.325L209.983 179.548L209.891 175.487L131.195 177.264L131.287 181.325Z" fill="#F19F3E"/>
<path d="M131.793 189.067L210.996 186.021L210.908 183.737L131.705 186.784L131.793 189.067Z" fill="#F19F3E"/>
<path d="M130.505 165.205L209.708 163.428L209.657 161.144L130.454 162.921L130.505 165.205Z" fill="#F19F3E"/>
<path d="M129.264 249.992L208.467 246.946L208.36 244.156L129.157 247.202L129.264 249.992Z" fill="#F19F3E"/>
<path d="M129.464 234.127H208.921V231.588H129.464V234.127Z" fill="#FFAB48"/>
<path d="M130.697 256.72L209.646 259.004L209.719 256.467L130.77 254.182L130.697 256.72Z" fill="#FFAB48"/>
<path d="M130.48 223.465H208.921V219.403H130.48V223.465Z" fill="#E2852F"/>
<path d="M130.734 194.018H209.175V189.956H130.734V194.018Z" fill="#E2852F"/>
<path d="M130.987 209.503H209.429V207.472H130.987V209.503Z" fill="#E2852F"/>
<path d="M132.003 153.909H210.444V151.878H132.003V153.909Z" fill="#E2852F"/>
<path d="M130.199 158.351L209.402 159.874L209.456 157.082L130.253 155.559L130.199 158.351Z" fill="#FFAB48"/>
</g>
<path d="M171.097 174.217C180.63 174.217 188.359 166.489 188.359 156.955C188.359 147.421 180.63 139.693 171.097 139.693C161.563 139.693 153.834 147.421 153.834 156.955C153.834 166.489 161.563 174.217 171.097 174.217Z" fill="#C65829"/>
<rect x="159.813" y="136.341" width="22.9339" height="29.9705" rx="11.467" fill="#EBBAAA"/>
<path d="M221.487 235.523C227.579 235.523 231.049 237.385 232.656 238.824C234.687 238.147 237.784 236.031 235.956 233.493C234.129 230.954 226.31 229.769 223.391 229.431C221.487 231.589 221.106 233.366 221.487 235.523Z" fill="#1D1C1C"/>
<path d="M238.606 229.392L243.833 232.171L245.009 235.564L240.377 244.276L237.039 244.949L231.811 242.17L230.752 239.158L235.384 230.446L238.606 229.392Z" fill="#3C3C3C"/>
<rect x="237.986" y="232.881" width="5.43687" height="7.89393" rx="0.761567" transform="rotate(28 237.986 232.881)" fill="#AFB0B1"/>
<path d="M84.4312 125.008C84.6306 125.278 84.8432 125.574 85.0644 125.888C87.7312 129.673 90.4547 134.403 92.4021 139.06C93.6905 142.141 93.5469 144.183 92.3013 145.788C91.2654 147.124 89.7563 148.062 86.3569 149.69C86.2552 149.739 85.9015 149.908 85.8407 149.937C82.9435 151.324 81.5757 152.092 80.2592 153.244C78.3856 154.882 77.4238 156.874 77.5529 159.326C77.752 163.109 78.9153 166.046 81.1983 169.711C81.4006 170.036 82.5746 171.871 82.8727 172.361C83.4143 173.252 83.7746 173.943 84.0164 174.577C84.4782 175.79 84.4969 176.785 84.0286 177.887C83.7951 178.437 83.5576 179.017 83.2855 179.7C83.4125 179.381 82.1338 182.627 81.8035 183.424C81.1188 185.075 80.5676 186.191 80.0434 186.947C79.7904 187.312 79.5612 187.563 79.3707 187.704C79.2657 187.781 79.2197 187.798 79.2007 187.798V191.099C80.6249 191.099 81.7614 190.26 82.7547 188.828C83.4464 187.831 84.0836 186.54 84.8519 184.688C85.0724 184.156 85.294 183.603 85.6002 182.826C85.6801 182.623 85.9538 181.926 85.9741 181.875C86.1231 181.496 86.2383 181.205 86.351 180.922C86.6146 180.261 86.8432 179.702 87.0658 179.178C87.8867 177.246 87.8515 175.374 87.1004 173.403C86.7748 172.548 86.3294 171.694 85.6925 170.646C85.3704 170.117 84.1831 168.262 83.9996 167.967C81.985 164.732 81.0129 162.278 80.8484 159.153C80.7168 156.652 82.2389 155.321 87.2659 152.914C87.326 152.885 87.68 152.716 87.7826 152.666C91.6555 150.811 93.4438 149.7 94.9088 147.811C96.9356 145.198 97.1676 141.902 95.4467 137.787C93.3984 132.889 90.5581 127.956 87.7624 123.987C86.7418 122.538 85.8999 121.469 85.4874 121.126C85.4132 121.065 85.3361 121.008 85.2434 120.952C85.0089 120.812 84.7641 120.717 84.4073 120.71C83.6167 120.693 82.9375 121.231 82.7573 121.984C82.6792 122.31 82.7023 122.557 82.7672 122.808C82.8333 123.063 82.9277 123.248 83.0968 123.531C83.3141 123.894 83.6879 124.447 84.2064 125.169L84.4312 125.008Z" fill="#DDE1E4"/>
<path d="M79.3951 187.149C80.7901 187.752 81.0524 189.618 79.8776 190.582L64.4269 203.268C63.2017 204.274 61.3477 203.551 61.1271 201.981L58.229 181.36C58.0083 179.79 59.5911 178.584 61.0462 179.213L79.3951 187.149Z" fill="#CAB28D"/>
<path d="M76.9726 179.199C77.0873 177.263 79.7788 176.884 80.4228 178.714L95.7711 222.329C96.1436 223.388 95.4536 224.523 94.3421 224.679L76.2621 227.22C75.1506 227.376 74.1746 226.476 74.2409 225.355L76.9726 179.199Z" fill="#E0C398"/>
<rect x="71.5646" y="221.951" width="26.095" height="6.74118" rx="3.37059" transform="rotate(-8 71.5646 221.951)" fill="#CAB28D"/>
<rect x="72.8845" y="209.468" width="20.0061" height="6.74118" rx="3.37059" transform="rotate(-8 72.8845 209.468)" fill="#CAB28D"/>
<path d="M81.3559 186.762C80.1786 187.727 80.4414 189.596 81.8389 190.198L101.404 198.633C102.858 199.261 104.439 198.055 104.219 196.486L101.136 174.549C100.915 172.981 99.0634 172.257 97.8379 173.261L81.3559 186.762Z" fill="#CAB28D"/>
<rect x="99.8766" y="199.965" width="27.617" height="6.74118" rx="3.37059" transform="rotate(-98 99.8766 199.965)" fill="#E0C398"/>
<rect x="58.7465" y="205.746" width="27.617" height="6.74118" rx="3.37059" transform="rotate(-98 58.7465 205.746)" fill="#E0C398"/>
<path d="M90.5922 215.804C90.8057 221.917 85.8289 224.836 79.5717 225.055C73.3143 225.273 67.1043 222.745 66.8908 216.631C66.6773 210.518 69.6337 198.281 75.8909 198.063C82.1482 197.844 90.3787 209.69 90.5922 215.804Z" fill="#EED4CC"/>
<path d="M76.5353 132.839C86.2793 132.839 94.1783 124.94 94.1783 115.196C94.1783 105.452 86.2793 97.5528 76.5353 97.5528C66.7914 97.5528 58.8923 105.452 58.8923 115.196C58.8923 124.94 66.7914 132.839 76.5353 132.839Z" fill="#2A89E0"/>
<path d="M156.178 102.515C156.178 110.442 153.033 118.391 144.675 118.391C136.316 118.391 125.91 110.442 125.91 102.515C125.91 94.5867 132.686 88.16 141.044 88.16C149.402 88.16 156.178 94.5867 156.178 102.515Z" fill="#EBBAAA"/>
<path d="M188.613 102.515C188.613 110.442 191.758 118.391 200.116 118.391C208.474 118.391 218.88 110.442 218.88 102.515C218.88 94.5867 212.105 88.16 203.746 88.16C195.388 88.16 188.613 94.5867 188.613 102.515Z" fill="#EBBAAA"/>
<path d="M133.779 76.6532C132.812 55.2612 149.894 37.3888 171.308 37.3888C193.038 37.3888 210.235 55.7703 208.791 77.4522L207.398 100.599L204.32 124.715C203.834 128.516 203.195 132.357 201.418 135.752C196.928 144.329 188.487 149.847 175.529 149.847H168.457C151.737 149.847 139.365 139.693 137.334 130.427L133.854 104.407V78.2945L133.779 76.6532Z" fill="#EED4CC"/>
<path d="M162.141 129.921C166.082 128.372 169.28 128.555 175.799 130.619C176.828 130.945 177.927 130.375 178.253 129.345C178.579 128.316 178.008 127.218 176.979 126.892C169.684 124.582 165.627 124.35 160.711 126.283C159.706 126.678 159.212 127.812 159.607 128.817C160.002 129.822 161.137 130.316 162.141 129.921Z" fill="#C99584"/>
<path d="M195.105 85.7798C196.174 86.1198 197.316 85.5291 197.656 84.4602C197.996 83.3914 197.405 82.2493 196.336 81.9092L190.27 79.979L179.999 81.8464C178.896 82.0471 178.164 83.1043 178.364 84.2078C178.565 85.3113 179.622 86.0432 180.726 85.8426L190.002 84.156L195.105 85.7798Z" fill="#6F6C6C"/>
<path d="M160.198 85.7336C161.302 85.9342 162.359 85.2023 162.56 84.0988C162.76 82.9953 162.028 81.9381 160.925 81.7374L150.654 79.87L144.588 81.8002C143.519 82.1403 142.928 83.2824 143.268 84.3512C143.608 85.4201 144.75 86.0108 145.819 85.6708L150.922 84.047L160.198 85.7336Z" fill="#6F6C6C"/>
<path d="M152.864 94.7487L157.468 95.1637" stroke="black" stroke-width="6.2547" stroke-linecap="round"/>
<path d="M188.467 94.654L183.854 95.0802" stroke="black" stroke-width="6.2547" stroke-linecap="round"/>
<path d="M168.358 112.047C168.291 110.928 168.597 109.214 169.249 106.885C169.414 106.296 169.598 105.676 169.824 104.94C169.823 104.944 170.604 102.437 170.794 101.794C171.137 100.635 171.342 99.8097 171.436 99.1216L167.047 98.5189C166.991 98.9255 166.828 99.5804 166.545 100.538C166.366 101.144 165.596 103.615 165.589 103.639C165.353 104.408 165.159 105.062 164.983 105.691C164.206 108.465 163.831 110.564 163.935 112.31C164.103 115.124 165.689 117.071 168.544 117.071H172.323V112.64H168.544C168.505 112.64 168.472 112.639 168.446 112.637C168.414 112.534 168.375 112.339 168.358 112.047Z" fill="#EBBAAA"/>
<path d="M198.513 71.2355V52.168C198.513 49.2866 198.578 48.5578 207.896 55.473C217.214 62.3883 215.985 81.5368 212.102 89.6723L208.543 100.091L204.499 98.4388L205.308 86.1082C200.778 81.5273 198.513 77.3372 198.513 71.2355Z" fill="#6E6C6C"/>
<path d="M140.634 69.7105V50.6446C140.634 47.7635 140.589 47.0348 134.133 53.9495C127.677 60.864 128.124 78.629 130.814 86.7637L132.426 94.2525H135.357V84.8597C139.608 78.2595 140.634 75.8117 140.634 69.7105Z" fill="#6E6C6C"/>
<path d="M178.807 52.2686C164.791 49.1037 154.893 54.776 150.372 56.508C145.85 58.2402 143.307 60.4642 139.81 62.724C136.419 62.498 134.688 56.6493 135.112 53.3997C135.112 48.0306 140.99 41.7008 149.806 36.7274C160.827 30.5106 181.285 28.8126 198.128 38.9881C211.692 47.1829 210.561 61.5945 206.04 65.8333C201.519 70.072 196.327 56.2248 178.807 52.2686Z" fill="#1F1F20"/>
<path d="M152.632 54.6763C163.135 56.719 160.374 49.205 160.374 45.6508V37.5752C160.374 34.2924 181.442 38.992 183.265 49.205C184.724 57.3755 176.336 62.5793 172.689 62.7008C165.031 62.9563 156.279 61.2418 152.632 54.6763Z" fill="#1F1F20"/>
<path d="M180.325 59.334C186.104 60.9107 182.614 50.5391 180.325 47.8894C180.325 46.9508 182.614 44.473 182.614 42.4458C182.614 39.9117 194.206 42.6553 195.209 50.5391C196.012 56.8462 192.97 59.5653 191.346 60.7467C188.237 63.0075 182.332 64.402 180.325 59.334Z" fill="#1F1F20"/>
<path d="M146.133 61.0295C151.912 62.6062 152.632 53.6822 152.632 52.2346C154.328 45.2048 160.262 44.3571 163.37 44.3571H163.376C165.909 44.3571 168.585 44.3571 169.587 52.2346C170.39 58.5417 163.37 61.0295 158.143 63.0075C154.548 64.3678 148.139 66.0975 146.133 61.0295Z" fill="#1F1F20"/>
<path d="M150.667 29.436C150.667 36.736 158.834 37.0354 163.552 36.736L169.293 39.4743C172.012 40.7713 162.464 53.2117 153.432 50.3745C146.207 48.1048 145.021 43.0803 144.679 40.5354C144.024 35.6657 144.679 33.1096 150.667 29.436Z" fill="#1F1F20"/>
<path d="M159.144 29.436C159.144 36.736 167.312 37.0354 172.029 36.736L177.77 39.4743C180.489 40.7713 170.941 53.2117 161.91 50.3745C154.684 48.1048 153.499 43.0803 153.156 40.5354C152.501 35.6657 153.156 33.1096 159.144 29.436Z" fill="#1F1F20"/>
<path d="M206.62 43.3689C206.62 47.5626 200.874 47.7095 198.164 47.5375L194.866 49.1106C193.304 49.8557 198.789 57.0025 203.978 55.3725C208.129 54.0688 208.81 51.1822 209.006 49.7202C209.383 46.9226 209.006 45.0644 206.62 43.3689Z" fill="#1F1F20"/>
<path fill-rule="evenodd" clip-rule="evenodd" d="M166.618 97.6921C166.429 97.7435 166.28 97.7936 166.174 97.8367L166.148 97.8475C164.494 98.6784 162.47 98.0446 161.59 96.4038C160.696 94.7358 161.323 92.6585 162.991 91.7642C163.401 91.5441 164.014 91.2964 164.826 91.0765C166.175 90.7112 167.752 90.5169 169.546 90.5639C171.224 90.6077 172.734 90.8694 174.061 91.2861C175.011 91.5845 175.721 91.9111 176.182 92.1876C177.806 93.1607 178.333 95.2656 177.36 96.889C176.398 98.4929 174.332 99.0267 172.718 98.1011C172.7 98.092 172.673 98.0787 172.636 98.0618C172.474 97.9875 172.264 97.906 172.008 97.8253C171.275 97.5952 170.394 97.4425 169.366 97.4156C168.246 97.3863 167.332 97.4988 166.618 97.6921Z" fill="#2E2622"/>
<path fill-rule="evenodd" clip-rule="evenodd" d="M137.616 89.1415C137.616 89.1415 135.521 90.3478 135.521 93.1999C135.521 96.052 137.057 104.073 138.223 105.501C139.39 106.929 142.532 109.573 150 109.246C157.468 108.919 162.648 106.959 162.99 104.446C163.332 101.932 165.354 98.5423 164.343 95.1637C163.332 91.7852 159.326 88.16 152.882 88.16C146.438 88.16 137.616 89.1415 137.616 89.1415Z" fill="#2C2F32"/>
<path fill-rule="evenodd" clip-rule="evenodd" d="M202.008 90.2315C202.008 90.2315 204.102 91.4378 204.102 94.29C204.102 97.1421 202.567 105.163 201.4 106.591C200.233 108.019 197.092 110.663 189.624 110.336C182.156 110.009 176.975 108.049 176.634 105.536C176.292 103.022 174.269 99.6323 175.28 96.2537C176.292 92.8752 180.297 89.25 186.741 89.25C193.185 89.25 202.008 90.2315 202.008 90.2315Z" fill="#2C2F32"/>
<path fill-rule="evenodd" clip-rule="evenodd" d="M162.069 107.429C164.509 105.251 165.755 102.044 165.863 97.9227C165.949 94.6364 165.243 92.1993 163.341 90.3391C161.027 88.0758 156.99 86.8067 150.81 86.6449C147.651 86.5623 145.294 86.5975 143.287 86.7866C140.984 87.0035 139.183 87.4275 137.792 88.1136C136.295 88.852 135.266 89.8994 134.685 91.3194C134.078 92.8028 133.956 94.7036 134.331 97.0971C134.824 100.25 135.121 101.806 135.56 103.284C136.097 105.093 136.791 106.414 137.787 107.44C139.893 109.609 143.504 110.578 150.178 110.753C155.517 110.893 159.464 109.754 162.069 107.429ZM161.566 92.1539C162.882 93.4411 163.395 95.2103 163.325 97.8563C163.234 101.326 162.247 103.868 160.378 105.535C158.311 107.381 154.987 108.34 150.245 108.215C144.176 108.056 141.13 107.238 139.608 105.672C138.93 104.973 138.422 104.007 137.993 102.562C137.597 101.228 137.315 99.7454 136.838 96.7044C136.53 94.7334 136.623 93.2865 137.034 92.281C137.372 91.4573 137.954 90.8641 138.914 90.3903C139.987 89.8613 141.503 89.5043 143.525 89.3139C145.411 89.1363 147.678 89.1024 150.743 89.1826C156.341 89.3291 159.784 90.4113 161.566 92.1539Z" fill="#2E2622"/>
<path d="M132.058 92.1155C132.001 91.5095 132.487 90.99 133.095 91.006L136.773 91.1022L136.607 97.4465L133.447 97.3637C132.933 97.3502 132.51 96.955 132.463 96.4432L132.058 92.1155Z" fill="#2E2622"/>
<path fill-rule="evenodd" clip-rule="evenodd" d="M188.657 111.761C183.318 111.621 179.435 110.277 176.956 107.819C174.634 105.516 173.557 102.249 173.665 98.127C173.751 94.8409 174.584 92.444 176.58 90.686C179.009 88.5467 183.108 87.4906 189.288 87.6524C192.447 87.7353 194.799 87.8938 196.792 88.1875C199.083 88.5251 200.858 89.0426 202.211 89.8005C203.667 90.6159 204.64 91.716 205.146 93.1646C205.674 94.6775 205.697 96.5824 205.197 98.9527C204.539 102.076 204.162 103.614 203.646 105.067C203.015 106.845 202.253 108.128 201.204 109.101C198.988 111.156 195.331 111.935 188.657 111.761ZM189.221 90.1901C183.623 90.0435 180.128 90.9441 178.258 92.5911C176.876 93.8077 176.271 95.5477 176.202 98.1935C176.111 101.663 176.965 104.253 178.743 106.016C180.711 107.967 183.98 109.099 188.723 109.223C194.791 109.382 197.876 108.724 199.478 107.239C200.192 106.577 200.749 105.639 201.253 104.218C201.719 102.908 202.078 101.442 202.713 98.4293C203.124 96.4774 203.107 95.0274 202.749 94.0017C202.455 93.1614 201.905 92.5386 200.97 92.0153C199.927 91.431 198.432 90.9952 196.422 90.699C194.549 90.423 192.287 90.2706 189.221 90.1901Z" fill="#2E2622"/>
<path d="M207.728 94.097C207.816 93.4948 207.358 92.9508 206.75 92.9348L203.072 92.8385L202.906 99.1828L206.066 99.2653C206.58 99.2788 207.022 98.9063 207.097 98.3975L207.728 94.097Z" fill="#2E2622"/>
</svg>
