<svg width="300" height="400" viewBox="0 0 300 400" fill="none" xmlns="http://www.w3.org/2000/svg">
<path d="M128.125 366.501C141.863 366.501 153 355.364 153 341.626C153 327.888 141.863 316.751 128.125 316.751C114.387 316.751 103.25 327.888 103.25 341.626C103.25 355.364 114.387 366.501 128.125 366.501Z" fill="white"/>
<path fill-rule="evenodd" clip-rule="evenodd" d="M104.456 333.982C108.671 320.932 122.717 313.74 135.769 317.955C148.819 322.17 156.01 336.215 151.794 349.267C147.579 362.32 133.534 369.507 120.482 365.295C107.432 361.08 100.241 347.032 104.456 333.982ZM139.996 328.272L132.766 330.635L131.044 335.96L134.864 341.2L140.185 341.512L145.007 335.627L149.286 337.3C148.138 331.742 144.831 326.767 139.99 323.58L139.996 328.272ZM126.489 323.907L129.27 320.062C123.458 319.757 117.824 321.825 113.606 325.645L118.18 326.852L118.611 334.445L123.045 337.297L129.294 335.252L130.971 330.055L126.489 323.907ZM108.143 349.807L110.764 346.025V346.022L118.049 348.212L121.964 345.235L121.951 338.832L117.59 336.027L110.011 338.18L107.517 335.132C105.938 340.132 106.287 345.29 108.143 349.807ZM121.484 362.197C119.097 361.427 116.953 360.26 115.064 358.82L119.346 356.73L119.188 349.71L123.048 346.777L129.322 348.802L130.743 353.465L126.161 359.537L128.73 363.21C126.337 363.28 123.889 362.975 121.484 362.197ZM139.659 359.89V355.875L132.547 352.912L131.071 348.077L134.691 343.075L140.075 343.392L144.181 349.797L148.548 348.655C147.095 352.875 144.462 356.37 141.129 358.877C140.653 359.235 140.163 359.572 139.659 359.89Z" fill="#383535"/>
<path d="M112.477 279.674C112.854 279.359 113.308 279.002 113.943 278.519C114.209 278.317 115.546 277.311 115.943 277.009C117.927 275.5 119.441 274.256 120.993 272.798C122.693 271.2 124.246 269.504 125.682 267.633C128.793 263.582 128.031 257.775 123.979 254.663C119.927 251.552 114.12 252.315 111.009 256.367C110.204 257.415 109.321 258.379 108.322 259.318C107.319 260.261 106.259 261.132 104.743 262.285C104.398 262.547 103.065 263.55 102.75 263.79C101.904 264.432 101.243 264.952 100.606 265.485C98.268 267.441 96.5371 269.35 95.2323 271.771C93.5686 274.858 92.9495 278.294 93.3857 281.965C94.0842 287.843 97.4462 294.39 104.078 303.64C107.055 307.792 112.834 308.744 116.985 305.767C121.137 302.791 122.09 297.012 119.113 292.86C116.406 289.085 114.48 286.04 113.244 283.633C112.464 282.114 112.024 280.983 111.842 280.236C112.009 280.076 112.219 279.89 112.477 279.674Z" fill="#EBBAAA"/>
<path d="M163.942 278.374C165.478 285.798 166.99 296.799 167.842 307.369C168.835 319.672 168.88 330.432 167.843 337.692C167.121 342.749 170.635 347.435 175.692 348.157C180.749 348.88 185.435 345.365 186.157 340.308C187.426 331.423 187.376 319.436 186.283 305.881C185.371 294.584 183.756 282.833 182.058 274.626C181.023 269.623 176.129 266.407 171.126 267.442C166.123 268.477 162.907 273.371 163.942 278.374Z" fill="#EBBAAA"/>
<path d="M149.75 262.75L117.5 245L96.5001 267.25L130 285.5L149.75 262.75Z" fill="#122B42"/>
<path d="M134.5 280.5L100.75 262.5L96.0001 267.5L130 285.75L134.5 280.5Z" fill="#395875"/>
<path d="M151.125 264.5C169.696 264.5 184.75 257.896 184.75 249.75C184.75 241.604 169.696 235 151.125 235C132.555 235 117.5 241.604 117.5 249.75C117.5 257.896 132.555 264.5 151.125 264.5Z" fill="#122B42"/>
<path d="M152.25 262.75L187.25 241.25L194.75 291.25L157.371 296.75L152.25 262.75Z" fill="#122B42"/>
<path d="M156.371 290.5L194 285L195 291.25L157.371 296.75L156.371 290.5Z" fill="#395875"/>
<path d="M203.599 358.915L208.844 359.145L208.697 362.515C208.634 363.965 207.408 365.088 205.96 365.023C204.511 364.96 203.389 363.735 203.452 362.288L203.599 358.915Z" fill="#E86B43"/>
<path d="M196.605 358.61L201.85 358.837L201.703 362.21C201.64 363.657 200.415 364.782 198.966 364.717C197.518 364.655 196.395 363.43 196.458 361.982L196.605 358.61Z" fill="#E86B43"/>
<path d="M176.125 357.715L181.37 357.945L181.223 361.315C181.16 362.765 179.934 363.887 178.486 363.825C177.038 363.76 175.915 362.535 175.978 361.087L176.125 357.715Z" fill="#E86B43"/>
<path d="M183.119 358.02L188.364 358.25L188.216 361.622C188.153 363.07 186.928 364.192 185.479 364.13C184.031 364.065 182.908 362.84 182.971 361.392L183.119 358.02Z" fill="#E86B43"/>
<path d="M169.132 357.41L174.377 357.64L174.229 361.01C174.166 362.46 172.941 363.583 171.492 363.52C170.044 363.455 168.921 362.23 168.984 360.783L169.132 357.41Z" fill="#E86B43"/>
<path d="M168 317.25H187.25V331.125L186.375 342.25H167.5L168.125 331.125L168 317.25Z" fill="#E86B43"/>
<path d="M210.484 358.84C210.084 354.605 204.435 349.72 198.854 346.02C192.036 341.502 183.915 340.11 175.743 339.752L168.301 339.427C167.55 339.355 166.892 339.927 166.859 340.682L166.08 358.527C166.038 359.492 166.787 360.31 167.752 360.352L208.641 362.137C209.64 362.182 210.463 359.84 210.484 358.84Z" fill="#091928"/>
<mask id="mask0_0_480" style="mask-type:luminance" maskUnits="userSpaceOnUse" x="166" y="339" width="45" height="24">
<path d="M210.484 358.84C210.084 354.605 204.435 349.72 198.854 346.02C192.036 341.502 183.915 340.11 175.743 339.752L168.301 339.427C167.55 339.355 166.892 339.927 166.859 340.682L166.08 358.527C166.038 359.492 166.787 360.31 167.752 360.352L208.641 362.137C209.64 362.182 210.463 359.84 210.484 358.84Z" fill="white"/>
</mask>
<g mask="url(#mask0_0_480)">
<path d="M179.712 343.733C183.142 344.094 185.894 344.896 188.327 346.153C190.268 347.154 191.818 348.292 194.219 350.344C194.376 350.478 194.536 350.616 194.749 350.799C194.739 350.791 195.163 351.155 195.283 351.259C195.723 351.636 196.049 351.915 196.377 352.19C198.508 353.98 200.252 355.242 202.317 356.39C202.525 356.506 202.745 356.63 203 356.775C203.128 356.848 203.258 356.923 203.438 357.026C206.081 358.544 207.058 359.038 208.294 359.325C210.191 359.766 211.622 359.085 212.274 357.161L210.617 356.599C210.27 357.622 209.754 357.868 208.69 357.62C207.695 357.389 206.772 356.923 204.309 355.509C204.129 355.405 203.997 355.329 203.867 355.255C203.607 355.107 203.382 354.98 203.166 354.86C201.214 353.775 199.555 352.574 197.502 350.85C197.181 350.58 196.859 350.305 196.424 349.931C196.304 349.828 195.881 349.464 195.89 349.472C195.676 349.288 195.514 349.149 195.356 349.014C192.861 346.881 191.218 345.675 189.13 344.598C186.493 343.236 183.523 342.372 179.868 341.99L179.815 341.986L166.577 341.408L166.501 343.157L179.712 343.733Z" fill="#E86B43"/>
<path d="M193.685 355.441L188.981 363.994L192.485 365.921L197.19 357.369L193.685 355.441Z" fill="#FFF7F5"/>
<path d="M188.711 350.671L181.276 363.359L184.727 365.381L192.162 352.694L188.711 350.671Z" fill="#FFF7F5"/>
<path d="M183.125 346.452L174.718 361.339L178.201 363.306L186.608 348.418L183.125 346.452Z" fill="#FFF7F5"/>
</g>
<path d="M97.2715 331.807L92.636 334.272L94.2204 337.252C94.9011 338.532 96.4905 339.017 97.7705 338.337C99.0506 337.657 99.5365 336.067 98.8559 334.787L97.2715 331.807Z" fill="#E86B43"/>
<path d="M103.452 328.52L98.8167 330.985L100.401 333.965C101.082 335.245 102.671 335.732 103.951 335.05C105.231 334.37 105.717 332.78 105.037 331.5L103.452 328.52Z" fill="#E86B43"/>
<path d="M121.552 318.897L116.917 321.36L118.501 324.34C119.182 325.62 120.771 326.107 122.052 325.427C123.332 324.745 123.818 323.157 123.137 321.877L121.552 318.897Z" fill="#E86B43"/>
<path d="M115.372 322.182L110.736 324.647L112.321 327.627C113.001 328.907 114.591 329.392 115.871 328.712C117.151 328.032 117.637 326.442 116.956 325.162L115.372 322.182Z" fill="#E86B43"/>
<path d="M127.733 315.61L123.098 318.075L124.682 321.055C125.363 322.335 126.952 322.82 128.232 322.14C129.512 321.46 129.998 319.87 129.318 318.59L127.733 315.61Z" fill="#E86B43"/>
<path d="M95.0002 288.75L112.25 280.25L120 294.75L124.895 305.425L109 312.5L101.25 300L95.0002 288.75Z" fill="#E86B43"/>
<path d="M91.0251 334.702C89.5633 330.71 92.5581 323.867 96.0033 318.125C100.212 311.112 106.942 306.36 114.164 302.52L120.742 299.022C121.389 298.635 122.228 298.867 122.583 299.532L130.969 315.305C131.422 316.16 131.098 317.217 130.245 317.672L94.1077 336.887C93.2254 337.355 91.4737 335.597 91.0251 334.702Z" fill="#091928"/>
<mask id="mask1_0_480" style="mask-type:luminance" maskUnits="userSpaceOnUse" x="90" y="298" width="42" height="39">
<path d="M91.0251 334.702C89.5633 330.71 92.5581 323.867 96.0033 318.125C100.212 311.112 106.942 306.36 114.164 302.52L120.742 299.022C121.389 298.635 122.228 298.867 122.583 299.532L130.969 315.305C131.422 316.16 131.098 317.217 130.245 317.672L94.1077 336.887C93.2254 337.355 91.4737 335.597 91.0251 334.702Z" fill="white"/>
</mask>
<g mask="url(#mask1_0_480)">
<path d="M123.971 301.613L123.15 300.067L111.451 306.287L111.405 306.314C108.173 308.292 105.821 310.417 104.002 312.875C102.59 314.784 101.694 316.501 100.248 319.775C98.3149 324.151 97.5594 325.651 95.9157 327.96C95.7112 328.248 95.5127 328.533 95.2151 328.964C94.2964 330.294 94.0673 330.62 93.65 331.165C91.9426 333.398 90.9972 333.823 89.9408 332.737L88.6864 333.958C89.7771 335.079 91.0104 335.359 92.2446 334.803C93.1681 334.387 94.0265 333.554 95.04 332.229C95.482 331.651 95.7172 331.317 96.6553 329.958C96.9486 329.533 97.1431 329.254 97.3416 328.975C99.0767 326.537 99.868 324.966 101.849 320.482C103.246 317.319 104.094 315.693 105.409 313.916C107.087 311.647 109.265 309.679 112.296 307.82L123.971 301.613Z" fill="#E86B43"/>
<path d="M102.036 327.695L109.965 333.387L112.298 330.138L104.369 324.445L102.036 327.695Z" fill="#FFF7F5"/>
<path d="M104.561 321.308L116.735 329.56L118.979 326.25L106.806 317.997L104.561 321.308Z" fill="#FFF7F5"/>
<path d="M107.734 315.06L121.733 324.88L124.03 321.605L110.031 311.785L107.734 315.06Z" fill="#FFF7F5"/>
</g>
<path d="M104.818 185.63C103.979 192.508 102.231 198.613 99.3204 203.939C95.8787 210.237 90.872 215.318 83.8513 219.113C79.3572 221.542 77.6833 227.154 80.1125 231.649C82.5418 236.143 88.1543 237.817 92.6484 235.387C102.867 229.864 110.429 222.189 115.554 212.811C119.698 205.228 122.079 196.914 123.182 187.87C123.8 182.799 120.191 178.186 115.12 177.568C110.049 176.95 105.436 180.559 104.818 185.63Z" fill="#EBBAAA"/>
<path d="M180.443 178.045C185.162 186.409 189.714 199.605 192.583 212.89C193.945 219.194 194.837 225.131 195.161 230.011C195.317 232.37 195.337 234.421 195.226 236.08C195.175 236.831 195.1 237.478 195.005 238.006C194.934 238.406 194.861 238.69 194.807 238.839C193.061 243.64 195.538 248.947 200.339 250.693C205.14 252.439 210.447 249.962 212.193 245.161C214.904 237.704 214.033 224.573 210.666 208.985C207.435 194.023 202.299 179.136 196.556 168.955C194.046 164.506 188.405 162.933 183.955 165.443C179.506 167.953 177.933 173.595 180.443 178.045Z" fill="#EBBAAA"/>
<path d="M107.243 163.254C109.846 155.244 118.449 150.86 126.459 153.463L138.34 157.323C146.35 159.926 150.734 168.529 148.131 176.539L139.138 204.218L98.2499 190.933L107.243 163.254Z" fill="#DB5B32"/>
<path d="M202.851 167.754C200.248 159.744 191.645 155.36 183.634 157.963L171.754 161.823C163.743 164.426 159.36 173.029 161.962 181.039L170.956 208.718L211.844 195.433L202.851 167.754Z" fill="#DB5B32"/>
<rect x="207.346" y="192.099" width="26.6493" height="4.0474" transform="rotate(162 207.346 192.099)" fill="#FFF7F5"/>
<rect x="104.001" y="183.25" width="26.6493" height="4.0474" transform="rotate(18 104.001 183.25)" fill="#FFF7F5"/>
<path d="M119.222 165.145C119.424 156.797 126.106 150.058 134.452 149.785L153.935 149.148C155.522 149.096 157.111 149.18 158.685 149.397L177.703 152.027C186.092 153.187 192.063 160.774 191.217 169.201L187.619 205.07L189.424 248.96C189.442 249.401 189.078 249.762 188.637 249.74L115.338 246.075C114.914 246.053 114.592 245.686 114.628 245.263L118.362 200.604L119.222 165.145Z" fill="#E96B43"/>
<mask id="mask2_0_480" style="mask-type:luminance" maskUnits="userSpaceOnUse" x="114" y="149" width="79" height="101">
<path fill-rule="evenodd" clip-rule="evenodd" d="M118.97 164.809C119.398 156.639 126.01 150.157 134.187 149.891L154.085 149.244C155.669 149.193 157.255 149.276 158.825 149.493L178.546 152.216C186.65 153.335 192.548 160.472 192.12 168.642L187.909 248.998C187.887 249.411 187.534 249.729 187.12 249.708L115.469 245.952C115.055 245.931 114.737 245.578 114.759 245.164L118.97 164.809Z" fill="white"/>
</mask>
<g mask="url(#mask2_0_480)">
<rect x="128.985" y="148.75" width="7.5" height="110.19" transform="rotate(3 128.985 148.75)" fill="#D15229"/>
<rect x="143.997" y="159.369" width="7.5" height="95.25" transform="rotate(3 143.997 159.369)" fill="#D15229"/>
<rect x="160.624" y="148.75" width="7.5" height="107.47" transform="rotate(3 160.624 148.75)" fill="#D15229"/>
<rect x="175.758" y="151.5" width="7.5" height="105.236" transform="rotate(3 175.758 151.5)" fill="#D15229"/>
<path d="M154.125 173.5C162.34 173.5 169 166.393 169 157.625C169 148.857 162.34 141.75 154.125 141.75C145.91 141.75 139.25 148.857 139.25 157.625C139.25 166.393 145.91 173.5 154.125 173.5Z" fill="#FFF7F5"/>
<path fill-rule="evenodd" clip-rule="evenodd" d="M140.12 198.692C138.775 198.622 137.58 198.239 136.535 197.543C135.491 196.834 134.692 195.904 134.138 194.754C133.584 193.603 133.343 192.355 133.413 191.011C133.481 189.719 133.849 188.55 134.518 187.504C135.2 186.458 136.111 185.651 137.249 185.083C138.386 184.515 139.661 184.268 141.073 184.342C141.845 184.383 142.586 184.508 143.296 184.719C144.019 184.931 144.665 185.212 145.234 185.562L143.754 188.589C142.868 188.168 142.032 187.938 141.247 187.896C140.222 187.843 139.412 188.134 138.818 188.77C138.224 189.394 137.9 190.238 137.844 191.303C137.808 191.995 137.901 192.628 138.125 193.2C138.349 193.759 138.679 194.211 139.115 194.554C139.565 194.898 140.082 195.085 140.668 195.116C140.988 195.133 141.255 195.12 141.471 195.078L141.64 191.862L145.116 191.644L144.788 197.895C143.247 198.509 141.691 198.775 140.12 198.692ZM149.329 185.075L158.976 185.581L158.816 188.617L154.023 188.366L153.892 190.862L158.266 191.091L158.134 193.608L153.76 193.379L153.621 196.035L158.415 196.286L158.255 199.322L148.609 198.817L149.329 185.075ZM172.551 186.293L162.905 185.787L162.185 199.528L171.831 200.034L171.99 196.998L167.197 196.747L167.336 194.09L171.71 194.319L171.842 191.803L167.468 191.574L167.599 189.077L172.392 189.328L172.551 186.293Z" fill="#FFF7F5"/>
<rect x="144.452" y="139.754" width="19.2142" height="28.8213" rx="9.60707" fill="#EBBAAA"/>
</g>
<path d="M113.709 119.472C121.727 119.472 128.227 113.307 128.227 105.702C128.227 98.0972 121.727 91.9321 113.709 91.9321C105.692 91.9321 99.1919 98.0972 99.1919 105.702C99.1919 113.307 105.692 119.472 113.709 119.472Z" fill="#EBBAAA"/>
<path d="M195.976 120.54C203.994 120.54 210.494 114.375 210.494 106.77C210.494 99.1647 203.994 92.9996 195.976 92.9996C187.959 92.9996 181.459 99.1647 181.459 106.77C181.459 114.375 187.959 120.54 195.976 120.54Z" fill="#EBBAAA"/>
<path d="M110.75 81.0493C110.75 56.5835 130.584 36.75 155.049 36.75C179.515 36.75 199.349 56.5835 199.349 81.0493V111.365C199.349 135.831 179.515 155.664 155.049 155.664C130.584 155.664 110.75 135.831 110.75 111.365V81.0493Z" fill="#F6DDD6"/>
<mask id="mask3_0_480" style="mask-type:luminance" maskUnits="userSpaceOnUse" x="110" y="36" width="90" height="120">
<path fill-rule="evenodd" clip-rule="evenodd" d="M110.75 81.0493C110.75 56.5835 130.584 36.75 155.049 36.75C179.515 36.75 199.349 56.5835 199.349 81.0493V111.365C199.349 135.831 179.515 155.664 155.049 155.664C130.584 155.664 110.75 135.831 110.75 111.365V81.0493Z" fill="white"/>
</mask>
<g mask="url(#mask3_0_480)">
<path d="M128 124C118.426 124.14 114.761 111.391 111.25 107.25C110.333 115.25 108.45 131.55 108.25 132.75C108.05 133.95 114.667 148.75 118 156H176.75L197.75 131.25C198.5 120.833 202.5 102.5 199.5 109.5C196.5 116.5 187.333 124 180.5 124C180.5 124 165.25 120.75 153.25 120.75C141.25 120.75 128 124 128 124Z" fill="#D5CCC9"/>
</g>
<path d="M141.761 130.215C148.602 133.234 157.061 133.853 165.696 131.825C166.704 131.589 167.33 130.58 167.093 129.571C166.856 128.563 165.847 127.938 164.839 128.175C156.974 130.021 149.346 129.463 143.274 126.785C142.327 126.367 141.22 126.796 140.802 127.743C140.384 128.69 140.813 129.797 141.761 130.215Z" fill="#C99584"/>
<path d="M129.336 91.8177L143.422 91.449C145.078 91.4056 146.386 90.0278 146.342 88.3715C146.299 86.7152 144.921 85.4077 143.265 85.451L129.179 85.8198C127.523 85.8631 126.216 87.241 126.259 88.8973C126.302 90.5536 127.68 91.8611 129.336 91.8177Z" fill="#393939"/>
<path d="M137.063 99.6819L137.063 106.749C137.063 108.405 138.406 109.749 140.063 109.749C141.719 109.749 143.063 108.406 143.063 106.749L143.063 99.6821C143.063 98.0253 141.72 96.6821 140.063 96.682C138.406 96.6819 137.063 98.025 137.063 99.6819Z" fill="black"/>
<path d="M166.525 99.682V106.749C166.525 108.406 167.868 109.749 169.525 109.749C171.181 109.749 172.525 108.406 172.525 106.749V99.682C172.525 98.0251 171.181 96.682 169.525 96.682C167.868 96.682 166.525 98.0251 166.525 99.682Z" fill="black"/>
<path d="M165.436 91.551L179.522 91.9197C181.178 91.9631 182.556 90.6555 182.6 88.9993C182.643 87.343 181.335 85.9651 179.679 85.9218L165.593 85.553C163.937 85.5097 162.559 86.8172 162.516 88.4735C162.472 90.1298 163.78 91.5076 165.436 91.551Z" fill="#393939"/>
<path d="M154.083 58.9062C132.859 58.9062 114.163 58.9062 114.163 72.5962C111.994 83.356 109.783 77.928 108.5 68.129C109.701 39.5384 141.767 33.5 155 33.5C165.846 41.1856 175.307 58.9062 154.083 58.9062Z" fill="#393939"/>
<rect x="108.5" y="65.25" width="5.76425" height="32.5" rx="2.88212" fill="#393939"/>
<path d="M155.667 58.9062C176.891 58.9062 195.587 58.9062 195.587 72.5962C197.756 83.356 199.967 77.9283 201.25 68.129C200.049 39.5385 168.108 33.5 154.875 33.5C144.029 41.1856 134.442 58.9062 155.667 58.9062Z" fill="#393939"/>
<rect width="5.76425" height="32.25" rx="2.88212" transform="matrix(-1 0 0 1 201.158 65.25)" fill="#393939"/>
<path d="M153.299 64.8042C149.515 62.0357 144.38 59.805 135.5 59.25L154.671 54.125L174.875 59.25C166.706 59.6975 160.441 62.1485 156.112 64.8993C155.247 65.4493 154.127 65.4097 153.299 64.8042Z" fill="#393939"/>
<path d="M150.25 104H159.43V100.5H150.25V104Z" fill="black"/>
<rect x="122.5" y="97.25" width="26.75" height="16" rx="2.5" stroke="#393939" stroke-width="3.5"/>
<rect x="159.75" y="97.25" width="26.75" height="16" rx="2.5" stroke="#393939" stroke-width="3.5"/>
<path d="M151.208 104.583C150 107.109 149.221 109.336 149.097 111.454C148.883 115.118 150.971 117.625 155.125 117.625V113.375C153.544 113.375 153.262 113.037 153.34 111.702C153.422 110.292 154.059 108.473 155.042 106.417L151.208 104.583Z" fill="#EBBAAA"/>
</svg>
