<svg width="300" height="400" viewBox="0 0 300 400" fill="none" xmlns="http://www.w3.org/2000/svg">
<path d="M130.139 366.89C134.391 369.594 140.031 368.34 142.736 364.087C143.653 362.646 144.007 361.439 144.262 359.941C144.384 359.226 144.467 358.455 144.526 357.582C144.621 356.192 144.661 354.453 144.657 352.337C144.65 348.651 144.505 343.764 144.243 337.88C143.815 328.284 143.077 316.225 142.335 305.997C141.97 300.971 137.6 297.192 132.574 297.556C127.547 297.921 123.768 302.291 124.133 307.318C124.863 317.388 125.591 329.285 126.011 338.693C126.263 344.341 126.4 348.994 126.407 352.373C126.411 354.1 126.379 355.448 126.318 356.341C126.314 356.411 126.309 356.475 126.304 356.533C125.138 360.357 126.601 364.639 130.139 366.89Z" fill="#4A4E52"/>
<path fill-rule="evenodd" clip-rule="evenodd" d="M169.543 366.875C164.503 366.875 160.418 362.79 160.418 357.75C160.418 355.899 160.969 354.176 161.917 352.738C161.861 353.178 161.804 353.529 161.748 353.781C161.74 353.817 161.741 353.814 161.758 353.764L161.764 353.746C161.844 353.504 161.964 353.215 162.163 352.853C162.577 352.095 163.153 351.341 164.024 350.614C165.484 349.395 167.397 348.628 169.529 348.625C166.346 348.63 163.546 350.264 161.917 352.737C162.009 352.001 162.097 351.015 162.167 349.828C162.4 345.876 162.425 340.152 162.261 333.091C161.997 321.721 161.235 307.185 160.442 296.245C160.077 291.219 163.856 286.849 168.883 286.484C173.909 286.119 178.279 289.898 178.644 294.925C179.458 306.142 180.234 320.966 180.506 332.667C180.681 340.185 180.654 346.35 180.385 350.904C180.221 353.686 179.967 355.923 179.565 357.736C179.251 359.151 178.84 360.394 178.172 361.615C177.571 362.713 176.798 363.724 175.72 364.623C174.048 366.019 171.91 366.875 169.543 366.875ZM161.917 352.737C161.917 352.737 161.917 352.738 161.917 352.738C161.917 352.738 161.917 352.738 161.917 352.738C161.917 352.738 161.917 352.738 161.917 352.738C161.917 352.738 161.917 352.737 161.917 352.737Z" fill="#4A4E52"/>
<path d="M113.917 251.4L146.586 254.329V343.997H123.668L113.917 251.4Z" fill="#2B353C"/>
<path d="M151.078 275.378C167.903 275.378 181.541 268.354 181.541 259.689C181.541 251.024 167.903 244 151.078 244C134.254 244 120.616 251.024 120.616 259.689C120.616 268.354 134.254 275.378 151.078 275.378Z" fill="#2B353C"/>
<path d="M151.517 254.538H186.796L183.683 344.59H160.197L151.517 254.538Z" fill="#2B353C"/>
<path d="M167.627 309.395L167.831 311.371L173.255 312.275L169.191 313.765L169.9 315.7L177.625 312.867L177.44 310.884L171.869 309.956L177.644 307.71L177.27 305.72H168V307.78H171.78L167.627 309.395Z" fill="#5484A0"/>
<path d="M128.581 310.884L128.396 312.867L136.121 315.7L136.83 313.765L132.765 312.275L138.19 311.371L138.394 309.395L134.241 307.78H138.02V305.72H128.75L128.377 307.71L134.151 309.956L128.581 310.884Z" fill="#5484A0"/>
<path d="M160.53 344.512L159.757 339.362H184.221L183.706 344.512H160.53Z" fill="#303F4A"/>
<path d="M123.706 344.255L122.933 339.105H146.624V344.255H123.706Z" fill="#303F4A"/>
<path d="M207.577 371.873C208.071 370.76 207.716 368.275 207.439 367.86C207.162 367.445 173.552 364.818 173.552 364.818C167.974 364.403 156.584 361.815 155.82 364.818C153.215 375.053 160.138 375.053 164.564 375.053C170.649 375.053 171.371 373.44 175.35 373.948C177.425 374.21 180.468 375.605 194.437 375.605C205.641 375.605 206.471 374.36 207.577 371.873Z" fill="#29282D"/>
<path d="M172.552 353.98C166.907 353.872 164.395 352.257 162.182 348.632H160.957C159.416 350.305 160.039 351.172 159.416 353.98C158.586 357.725 157.885 357.19 157.055 360.665C156.48 363.072 156.363 366.682 157.747 368.687C159.896 371.802 162.59 371.495 167.156 371.495C169.785 371.495 174.213 370.827 178.226 371.897C183.828 373.39 199.259 374.17 203.133 372.965C209.736 370.915 207.7 364.945 204.932 362.67C200.076 358.682 190.695 358.957 188.327 355.852C186.39 353.312 185.292 351.465 184.133 349.147C184.133 347.087 180.528 347.087 180.27 348.632C180.823 351.842 179.609 354.115 172.552 353.98Z" fill="#3E3C47"/>
<mask id="mask0_0_566" style="mask-type:luminance" maskUnits="userSpaceOnUse" x="156" y="347" width="52" height="27">
<path d="M172.552 353.98C166.907 353.872 164.395 352.257 162.182 348.632H160.957C159.416 350.305 160.039 351.172 159.416 353.98C158.586 357.725 157.885 357.19 157.055 360.665C156.48 363.072 156.363 366.682 157.747 368.687C159.896 371.802 162.59 371.495 167.156 371.495C169.785 371.495 174.213 370.827 178.226 371.897C183.828 373.39 199.259 374.17 203.133 372.965C209.736 370.915 207.7 364.945 204.932 362.67C200.076 358.682 190.695 358.957 188.327 355.852C186.39 353.312 185.292 351.465 184.133 349.147C184.133 347.087 180.528 347.087 180.27 348.632C180.823 351.842 179.609 354.115 172.552 353.98Z" fill="white"/>
</mask>
<g mask="url(#mask0_0_566)">
<path d="M203.367 364.475C203.462 362.815 203.777 363.305 204.321 362.538C208.479 362.538 207.78 371.115 207.78 371.115L200.152 374.898C199.198 374.853 185.163 374.693 185.163 372.965C198.264 373.61 203.777 371.39 203.777 369.175C203.777 367.415 203.248 366.55 203.367 364.475Z" fill="#29282D"/>
<path d="M176.534 363.9C178.075 364.455 179.349 364.498 180.111 364.008C182.075 362.725 181.059 360.455 180.623 359.562C181.447 360.678 182.265 361.795 182.877 362.995C183.845 364.867 184.161 366.863 183.316 368.06C181.799 370.22 178.662 368.92 176.682 367.845L163.922 359.562L176.534 363.9Z" fill="#EAF4FB"/>
<path d="M198.296 364.21C201.68 363.288 203.317 361.98 202.673 360.348L186.708 353.01L180.141 356.358C185.935 363.31 195.463 364.983 198.296 364.21Z" fill="#5E5B6A"/>
<path d="M181.429 353.268C177.566 355.713 165.721 358.16 159.798 349.663" stroke="#29282D" stroke-width="4.37768"/>
</g>
<path d="M185.944 359.844C185.913 360.504 186.628 360.933 187.196 360.596L189.946 358.967V361.25C189.946 361.879 190.618 362.279 191.171 361.98L194.353 360.256L195.451 363.45C195.668 364.081 196.505 364.211 196.902 363.674L199.349 360.377C199.622 360.009 199.545 359.489 199.177 359.216C198.809 358.943 198.289 359.02 198.016 359.388L196.508 361.42L195.604 358.79C195.438 358.305 194.875 358.086 194.425 358.33L191.605 359.857V357.51C191.605 356.867 190.905 356.468 190.352 356.796L187.674 358.384L187.863 354.336C187.895 353.641 187.109 353.217 186.546 353.626L183.001 356.201C182.631 356.47 182.548 356.989 182.818 357.36C183.087 357.731 183.606 357.813 183.977 357.544L186.124 355.984L185.944 359.844Z" fill="#2A2A2A"/>
<path d="M99.1732 371.873C98.6789 370.76 99.0347 368.275 99.3114 367.86C99.5882 367.445 133.198 364.818 133.198 364.818C138.776 364.403 150.166 361.815 150.93 364.818C153.535 375.053 146.612 375.053 142.186 375.053C136.101 375.053 135.379 373.44 131.4 373.948C129.325 374.21 126.282 375.605 112.313 375.605C101.11 375.605 100.28 374.36 99.1732 371.873Z" fill="#29282D"/>
<path d="M134.198 353.98C139.844 353.872 142.355 352.257 144.568 348.632H145.793C147.334 350.305 146.711 351.172 147.334 353.98C148.164 357.725 148.865 357.19 149.696 360.665C150.27 363.072 150.387 366.682 149.004 368.687C146.855 371.802 144.161 371.495 139.594 371.495C136.965 371.495 132.537 370.827 128.524 371.897C122.922 373.39 107.492 374.17 103.617 372.965C97.0141 370.915 99.0506 364.945 101.818 362.67C106.674 358.682 116.055 358.957 118.423 355.852C120.36 353.312 121.459 351.465 122.617 349.147C122.617 347.087 126.222 347.087 126.48 348.632C125.927 351.842 127.141 354.115 134.198 353.98Z" fill="#3E3C47"/>
<mask id="mask1_0_566" style="mask-type:luminance" maskUnits="userSpaceOnUse" x="99" y="347" width="52" height="27">
<path d="M134.198 353.98C139.844 353.872 142.355 352.257 144.568 348.632H145.793C147.334 350.305 146.711 351.172 147.334 353.98C148.164 357.725 148.865 357.19 149.696 360.665C150.27 363.072 150.387 366.682 149.004 368.687C146.855 371.802 144.161 371.495 139.594 371.495C136.965 371.495 132.537 370.827 128.524 371.897C122.922 373.39 107.492 374.17 103.617 372.965C97.014 370.915 99.0505 364.945 101.818 362.67C106.674 358.682 116.055 358.957 118.423 355.852C120.36 353.312 121.459 351.465 122.617 349.147C122.617 347.087 126.222 347.087 126.48 348.632C125.927 351.842 127.141 354.115 134.198 353.98Z" fill="white"/>
</mask>
<g mask="url(#mask1_0_566)">
<path d="M103.383 364.475C103.288 362.815 102.973 363.305 102.429 362.538C98.2715 362.538 98.9705 371.115 98.9705 371.115L106.599 374.898C107.553 374.853 121.587 374.693 121.587 372.965C108.486 373.61 102.973 371.39 102.973 369.175C102.973 367.415 103.503 366.55 103.383 364.475Z" fill="#29282D"/>
<path d="M130.216 363.9C128.675 364.455 127.402 364.498 126.64 364.008C124.675 362.725 125.691 360.455 126.127 359.562C125.303 360.678 124.486 361.795 123.873 362.995C122.905 364.867 122.589 366.863 123.434 368.06C124.951 370.22 128.088 368.92 130.069 367.845L142.828 359.562L130.216 363.9Z" fill="#EAF4FB"/>
<path d="M108.455 364.21C105.07 363.288 103.433 361.98 104.077 360.348L120.043 353.01L126.609 356.358C120.815 363.31 111.287 364.983 108.455 364.21Z" fill="#5E5B6A"/>
<path d="M125.322 353.268C129.184 355.713 141.03 358.16 146.952 349.663" stroke="#29282D" stroke-width="4.37768"/>
</g>
<path d="M120.806 359.844C120.837 360.504 120.122 360.933 119.554 360.596L116.805 358.967V361.25C116.805 361.879 116.133 362.279 115.58 361.98L112.397 360.256L111.299 363.45C111.082 364.081 110.246 364.211 109.848 363.674L107.402 360.377C107.129 360.009 107.206 359.489 107.574 359.216C107.942 358.943 108.462 359.02 108.735 359.388L110.242 361.42L111.146 358.79C111.313 358.305 111.875 358.086 112.326 358.33L115.145 359.857V357.51C115.145 356.867 115.845 356.468 116.398 356.796L119.077 358.384L118.887 354.336C118.855 353.641 119.641 353.217 120.204 353.626L123.749 356.201C124.12 356.47 124.202 356.989 123.933 357.36C123.663 357.731 123.144 357.813 122.773 357.544L120.626 355.984L120.806 359.844Z" fill="#2A2A2A"/>
<path d="M119.708 258.465C119.708 261.039 121.664 263.193 124.227 263.441L147.402 265.684C149.602 265.897 151.816 265.906 154.017 265.712L180.053 263.418C182.69 263.186 184.689 260.938 184.612 258.291L181.85 163.858C181.771 161.155 179.557 159.004 176.852 159.004H124.708C121.947 159.004 119.708 161.243 119.708 164.004V258.465Z" fill="#A82639"/>
<path d="M131.75 204.375H175.25V191.625H131.75V204.375Z" fill="#36386D"/>
<path d="M129 227.375H172.5V214.625H129V227.375Z" fill="#36386D"/>
<path d="M129 250.375H172.5V237.625H129V250.375Z" fill="#36386D"/>
<path d="M149.215 179.694C158.883 179.694 166.721 171.76 166.721 161.974C166.721 152.188 158.883 144.254 149.215 144.254C139.546 144.254 131.708 152.188 131.708 161.974C131.708 171.76 139.546 179.694 149.215 179.694Z" fill="#682F37"/>
<rect x="139.911" y="140.258" width="19.2142" height="28.8213" rx="9.60707" fill="#EBBAAA"/>
<path d="M122.376 191.512C122.53 191.404 122.617 191.344 122.687 191.295C122.808 191.21 122.909 191.139 123.007 191.07C125.364 189.416 126.844 188.292 128.484 186.811C130.734 184.778 132.681 182.534 134.38 179.908C137.643 174.865 136.2 168.132 131.158 164.87C126.115 161.607 119.382 163.05 116.119 168.092C114.949 169.901 113.695 171.034 110.513 173.267C110.423 173.33 110.329 173.396 110.214 173.477C110.146 173.524 110.061 173.584 109.905 173.693C107.034 175.702 105.573 176.807 103.766 178.484C101.21 180.856 99.0733 183.527 97.3001 186.719L96.0661 190.294C92.0977 215.285 90.6239 239.488 92.9511 259.036C93.661 265 99.0714 269.259 105.035 268.549C110.999 267.839 115.259 262.428 114.549 256.464C112.567 239.817 113.783 218.293 117.206 195.891C118.192 194.589 119.547 193.492 122.376 191.512Z" fill="#EBBAAA"/>
<path d="M186.258 256.214C185.548 262.178 189.807 267.589 195.771 268.299C201.735 269.009 207.145 264.75 207.855 258.786C210.182 239.237 208.708 215.034 204.74 190.044L203.506 186.469C200.806 181.608 197.832 177.774 191.685 170.621C186.314 164.371 184.638 162.309 182.88 159.592C179.617 154.55 172.885 153.107 167.842 156.37C162.799 159.632 161.357 166.365 164.62 171.408C167.131 175.289 169.086 177.695 175.189 184.796C179.522 189.839 181.895 192.809 183.575 195.481C187.017 217.939 188.244 239.527 186.258 256.214Z" fill="#EBBAAA"/>
<path d="M139.541 185.892L117.837 230.933C117.837 230.933 98.7489 220.474 91.4274 213.675C91.4274 213.675 94.4403 196.417 98.7489 180.662C101.247 171.527 107.267 164.391 111.884 160.009C115.583 156.497 120.42 154.616 125.432 153.671L134.834 151.899L139.541 185.892Z" fill="#2D4973"/>
<path d="M91.455 213.41C91.9737 209.206 96.1689 206.495 100.215 207.749L110.739 211.01C114.171 212.074 116.441 215.333 116.25 218.921L116.196 219.932C116.175 220.325 116.125 220.716 116.045 221.102L110.428 248.302C109.941 250.656 107.913 252.376 105.51 252.47L92.6919 252.971C89.4697 253.097 86.9025 250.305 87.2974 247.105L91.455 213.41Z" fill="#2D4973"/>
<path d="M87.7666 253.094L86.4592 241.85C94.8267 240.385 106.332 242.46 111.039 243.68L109.731 253.094C109.731 253.094 102.933 253.878 98.749 253.878C94.5652 253.878 87.7666 253.094 87.7666 253.094Z" fill="#45689F"/>
<path d="M112.74 172.846C113.549 161.342 123.186 152.422 134.719 152.422C137.021 152.422 139.133 153.736 140.14 155.807L147.647 171.249C147.647 171.249 142.155 201.581 142.155 216.486C142.155 229.026 139.564 259.337 138.742 268.637C138.609 270.137 137.238 271.206 135.749 270.979L109.948 267.043C108.633 266.842 107.678 265.686 107.73 264.357L109.47 219.362L112.74 172.846Z" fill="#2B4E84"/>
<path d="M144.391 171.306C139.609 210.698 136.011 255.048 136.011 268.783H139.41C139.41 255.215 142.999 210.983 147.765 171.715L144.391 171.306Z" fill="#45689F"/>
<path d="M115.547 204.464L116.16 190.428L135.866 188.684C134.517 194.875 134.131 203.713 133.939 208.131C119.207 214.519 120.589 212.496 115.547 204.464Z" fill="#243F68"/>
<path d="M135.262 188.717L115.205 186.009L113.669 191.7L121.547 198.064L132.677 193.839L135.262 188.717Z" fill="#45689F"/>
<path d="M138.096 272.291L108.548 269.168C107.883 269.097 107.378 268.536 107.378 267.867V263.291L139.541 266.646V270.99C139.541 271.767 138.868 272.372 138.096 272.291Z" fill="#45689F"/>
<path d="M147.765 171.806L138.756 149.731L127.774 153V178.57L147.765 171.806Z" fill="#45689F"/>
<path d="M160.867 186.327L182.571 231.367C182.571 231.367 201.659 220.908 208.981 214.11C208.981 214.11 205.968 196.852 201.659 181.097C198.82 170.716 191.435 162.918 186.727 158.806C184.096 156.508 180.802 155.204 177.369 154.557L165.574 152.334L160.867 186.327Z" fill="#2D4973"/>
<path d="M208.953 213.91C208.434 209.706 204.239 206.995 200.193 208.249L189.669 211.51C186.237 212.574 183.967 215.833 184.158 219.421L184.212 220.433C184.233 220.826 184.283 221.216 184.363 221.602L189.98 248.802C190.467 251.157 192.495 252.876 194.898 252.97L207.716 253.471C210.938 253.597 213.505 250.805 213.111 247.605L208.953 213.91Z" fill="#2D4973"/>
<path d="M212.641 253.594L213.949 242.35C205.581 240.886 194.076 242.96 189.369 244.18L190.677 253.594C190.677 253.594 197.475 254.378 201.659 254.378C205.843 254.378 212.641 253.594 212.641 253.594Z" fill="#45689F"/>
<path d="M185.552 171.272C184.452 160.841 175.654 152.922 165.165 152.922C163.016 152.922 161.056 154.149 160.116 156.081L152.5 171.749C152.5 171.749 157.991 202.081 157.991 216.986C157.991 229.526 160.583 259.837 161.405 269.137C161.537 270.638 162.908 271.706 164.397 271.479L190.198 267.543C191.513 267.342 192.468 266.186 192.417 264.857L190.677 219.862L185.552 171.272Z" fill="#2B4E84"/>
<path d="M152.381 172.215C157.148 211.483 160.736 255.715 160.736 269.283H164.136C164.136 255.548 160.537 211.198 155.756 171.806L152.381 172.215Z" fill="#45689F"/>
<path d="M184.599 204.964L183.986 190.928L164.28 189.184C165.629 195.375 166.015 204.213 166.208 208.631C180.94 215.019 179.557 212.996 184.599 204.964Z" fill="#243F68"/>
<path d="M164.885 189.217L184.941 186.509L186.477 192.2L178.599 198.564L167.469 194.339L164.885 189.217Z" fill="#45689F"/>
<path d="M162.051 272.791L191.598 269.668C192.264 269.597 192.769 269.036 192.769 268.368V263.791L160.606 267.146V271.49C160.606 272.267 161.279 272.872 162.051 272.791Z" fill="#45689F"/>
<path d="M152.381 172.215L159.5 150L172.372 151.75L172.373 179.071L152.381 172.215Z" fill="#45689F"/>
<path d="M108.668 117.977C116.685 117.977 123.185 111.812 123.185 104.206C123.185 96.6015 116.685 90.4363 108.668 90.4363C100.65 90.4363 94.1504 96.6015 94.1504 104.206C94.1504 111.812 100.65 117.977 108.668 117.977Z" fill="#EBBAAA"/>
<path d="M190.435 119.044C198.452 119.044 204.952 112.879 204.952 105.274C204.952 97.669 198.452 91.5039 190.435 91.5039C182.417 91.5039 175.917 97.669 175.917 105.274C175.917 112.879 182.417 119.044 190.435 119.044Z" fill="#EBBAAA"/>
<path d="M106.952 81.143C106 57.053 125.273 37.0043 149.382 37.0043C173.549 37.0043 192.843 57.1455 191.805 81.2903L190.404 113.903C189.458 135.904 171.346 153.254 149.325 153.254C127.248 153.254 109.112 135.82 108.24 113.761L106.952 81.143Z" fill="#EED4CC"/>
<path d="M158.468 124.994C158.659 126.524 159.454 128.382 160.794 129.6C161.595 130.329 162.836 130.27 163.564 129.469C164.293 128.667 164.234 127.427 163.432 126.698C162.875 126.191 162.444 125.185 162.359 124.506C162.225 123.432 161.245 122.67 160.17 122.804C159.095 122.939 158.333 123.919 158.468 124.994Z" fill="#C99584"/>
<path d="M136.438 127.967C137.992 128.969 139.33 129.669 141.097 130.281C143.47 131.101 146.169 131.549 149.301 131.549C152.472 131.549 155.304 131.038 157.781 130.14C159.587 129.486 161.058 128.679 162.113 127.888C162.98 127.238 163.155 126.008 162.505 125.142C161.856 124.276 160.626 124.1 159.76 124.75C159.008 125.314 157.879 125.933 156.444 126.453C154.391 127.197 152.01 127.626 149.301 127.626C146.602 127.626 144.337 127.251 142.379 126.574C140.953 126.08 139.875 125.517 138.562 124.67C137.652 124.084 136.438 124.346 135.852 125.256C135.265 126.167 135.527 127.38 136.438 127.967Z" fill="#C99584"/>
<path d="M139.188 82.7755L123.783 81.2823C123.606 81.265 123.433 81.3433 123.329 81.4878L120.255 85.7595C120.021 86.0835 120.243 86.537 120.643 86.5513L139.31 87.2135C139.917 87.2353 140.403 86.715 140.34 86.111L140.086 83.6675C140.037 83.1945 139.661 82.8215 139.188 82.7755Z" fill="#774F42"/>
<path d="M157.729 82.7755L173.134 81.2823C173.311 81.265 173.484 81.3433 173.588 81.4878L176.662 85.7595C176.896 86.0835 176.674 86.537 176.274 86.5513L157.607 87.2135C157 87.2353 156.514 86.715 156.577 86.111L156.831 83.6675C156.88 83.1945 157.256 82.8215 157.729 82.7755Z" fill="#774F42"/>
<path d="M129.976 97.5247L130.081 100.883C130.133 102.539 131.518 103.84 133.174 103.788C134.83 103.736 136.13 102.351 136.078 100.695L135.973 97.3363C135.921 95.6803 134.536 94.38 132.88 94.432C131.224 94.484 129.923 95.8686 129.976 97.5247Z" fill="#49341E"/>
<path d="M163.038 97.3599L162.962 100.719C162.924 102.376 164.237 103.749 165.893 103.787C167.55 103.824 168.923 102.512 168.961 100.856L169.037 97.4961C169.074 95.8396 167.762 94.4664 166.106 94.4288C164.449 94.3912 163.076 95.7035 163.038 97.3599Z" fill="#49341E"/>
<rect x="104.458" y="69.7543" width="5.75" height="34.5" rx="2.875" fill="#7B4C1A"/>
<rect x="187.958" y="74.5042" width="5.75" height="30.5" rx="2.875" fill="#7B4C1A"/>
<path d="M145.718 104.465C145.663 104.863 145.316 105.483 143.89 107.732C143.568 108.239 143.329 108.625 143.102 109.009C142.437 110.135 141.978 111.083 141.696 112.011C141.296 113.328 141.275 114.567 141.787 115.71C142.869 118.132 145.763 119.129 150.583 119.129V114.879C148.693 114.879 147.315 114.705 146.432 114.401C146.112 114.291 145.891 114.175 145.756 114.067C145.694 114.018 145.674 113.992 145.667 113.976C145.542 113.698 145.833 112.743 146.762 111.17C146.961 110.832 147.179 110.481 147.478 110.008C147.533 109.922 147.589 109.834 147.663 109.718L147.848 109.427C148.001 109.187 148.112 109.013 148.219 108.841C148.504 108.386 148.728 108.013 148.927 107.659C149.481 106.669 149.817 105.859 149.928 105.044L145.718 104.465Z" fill="#EBBAAA"/>
<path d="M145.195 100.681C145.188 100.688 145.183 100.693 145.18 100.696L145.182 100.694C145.192 100.685 145.208 100.673 145.23 100.657C145.329 100.585 145.47 100.506 145.659 100.426C146.273 100.167 147.15 100.004 148.334 100.004C149.526 100.004 150.46 100.17 151.165 100.439C151.393 100.526 151.574 100.615 151.712 100.7C151.753 100.725 151.784 100.746 151.806 100.763C151.811 100.766 151.806 100.763 151.794 100.752C152.207 101.119 152.839 101.081 153.206 100.669C153.573 100.256 153.536 99.6238 153.123 99.2568C153.045 99.1873 152.925 99.0976 152.76 98.9963C152.516 98.8465 152.223 98.7015 151.877 98.5698C150.941 98.2132 149.766 98.0042 148.334 98.0042C146.893 98.0042 145.753 98.2162 144.883 98.5826C144.297 98.8295 143.914 99.1074 143.706 99.3457C143.342 99.7614 143.384 100.393 143.8 100.757C144.21 101.115 144.829 101.08 145.195 100.681L145.195 100.681Z" fill="#F2F6FA"/>
<path fill-rule="evenodd" clip-rule="evenodd" d="M151.905 102.046C151.943 101.332 151.959 100.899 151.959 100.429C151.959 97.3549 152.678 95.0938 154.502 93.401C156.721 91.3418 160.527 90.2542 166.308 90.2542C172.677 90.2542 176.436 90.9482 178.627 92.551C180.688 94.058 181.459 96.3767 181.459 100.429C181.459 101.004 181.475 101.467 181.519 102.394C181.54 102.823 181.549 103.028 181.556 103.255C181.588 104.266 181.55 104.987 181.396 105.718C181.022 107.494 179.921 109.241 177.583 111.579C175.836 113.326 174.373 114.218 172.63 114.638C171.301 114.958 170.254 115.008 166.947 115.005C166.644 115.004 166.491 115.004 166.308 115.004C165.912 115.004 165.573 115.007 165.02 115.012L164.897 115.013C163.933 115.023 163.534 115.023 163.058 115.01C162.07 114.982 161.346 114.887 160.657 114.676C159.18 114.224 157.776 113.197 155.458 110.879C153.338 108.759 152.323 107.06 151.989 105.308C151.854 104.604 151.824 103.913 151.86 102.963C151.868 102.759 151.877 102.582 151.897 102.199L151.905 102.046ZM155.863 94.867C154.513 96.1204 153.959 97.8595 153.959 100.429C153.959 100.943 153.942 101.404 153.903 102.151L153.895 102.305C153.875 102.677 153.866 102.848 153.859 103.038C153.828 103.851 153.852 104.403 153.954 104.933C154.205 106.251 155.016 107.608 156.873 109.465C158.978 111.57 160.154 112.43 161.243 112.764C161.736 112.915 162.291 112.988 163.114 113.011C163.556 113.023 163.939 113.023 164.877 113.013L165.001 113.012C165.559 113.007 165.904 113.004 166.308 113.004C166.493 113.004 166.646 113.004 166.949 113.005C170.078 113.008 171.049 112.961 172.162 112.693C173.52 112.366 174.667 111.667 176.169 110.164C178.256 108.078 179.156 106.649 179.439 105.306C179.554 104.759 179.585 104.184 179.557 103.319C179.551 103.106 179.542 102.908 179.522 102.49C179.476 101.532 179.459 101.046 179.459 100.429C179.459 96.9501 178.882 95.215 177.447 94.1654C175.695 92.8845 172.281 92.2542 166.308 92.2542C160.985 92.2542 157.652 93.2069 155.863 94.867Z" fill="#F2F6FA"/>
<path fill-rule="evenodd" clip-rule="evenodd" d="M144.37 102.046C144.333 101.332 144.317 100.899 144.317 100.429C144.317 97.3552 143.597 95.0939 141.773 93.4011C139.554 91.3418 135.749 90.2542 129.967 90.2542C123.599 90.2542 119.84 90.9482 117.648 92.5511C115.587 94.0579 114.817 96.3767 114.817 100.429C114.817 100.957 114.801 101.44 114.765 102.205L114.756 102.395C114.736 102.822 114.727 103.027 114.719 103.255C114.687 104.267 114.726 104.988 114.879 105.717C115.253 107.494 116.354 109.241 118.692 111.579C120.44 113.326 121.902 114.218 123.646 114.638C124.975 114.958 126.021 115.008 129.328 115.005C129.631 115.004 129.784 115.004 129.967 115.004C130.364 115.004 130.703 115.007 131.255 115.012L131.379 115.013C132.342 115.023 132.741 115.023 133.218 115.01C134.205 114.982 134.929 114.887 135.618 114.676C137.096 114.224 138.499 113.197 140.817 110.879C142.937 108.759 143.952 107.06 144.287 105.308C144.421 104.604 144.451 103.913 144.415 102.962C144.407 102.759 144.399 102.582 144.378 102.198L144.37 102.046ZM140.413 94.867C141.763 96.1205 142.317 97.8599 142.317 100.429C142.317 100.943 142.334 101.404 142.373 102.151L142.381 102.304C142.401 102.677 142.409 102.848 142.416 103.038C142.448 103.851 142.423 104.403 142.322 104.933C142.071 106.251 141.26 107.608 139.403 109.465C137.298 111.57 136.122 112.43 135.033 112.764C134.54 112.915 133.985 112.988 133.162 113.011C132.72 113.023 132.337 113.023 131.399 113.013L131.275 113.012C130.716 113.007 130.372 113.004 129.968 113.004C129.783 113.004 129.63 113.004 129.326 113.005C126.198 113.008 125.227 112.961 124.114 112.693C122.756 112.366 121.609 111.667 120.106 110.164C118.02 108.078 117.12 106.649 116.837 105.305C116.722 104.759 116.691 104.185 116.718 103.319C116.725 103.106 116.734 102.908 116.754 102.49L116.763 102.299C116.801 101.505 116.817 100.996 116.817 100.429C116.817 96.9501 117.394 95.215 118.829 94.1655C120.58 92.8845 123.994 92.2542 129.968 92.2542C135.291 92.2542 138.624 93.2069 140.413 94.867Z" fill="#F2F6FA"/>
<path d="M117.459 55.2543C109.959 60.4718 112.125 68.5043 109.959 75.2543C109.959 83.5013 107.116 93.697 103.959 94.0043C101.134 94.2793 97.9585 85.5905 97.9585 77.5043C97.9585 51.2543 112.75 35.0042 135.75 35.0042C143.289 35.0042 170.959 28.0043 170.959 50.0043C159.709 56.2543 126.209 49.1673 117.459 55.2543Z" fill="#7B4C1A"/>
<path d="M135.958 52.7543C157.182 52.7543 178.178 57.8792 182.428 62.8792C184.597 73.6393 183.213 92.2542 195.458 92.2542C200.958 92.2542 199.996 67.483 199.458 62.8792C195.697 30.6602 159.364 23.442 137.708 30.0043C124.458 34.0194 114.734 52.7543 135.958 52.7543Z" fill="#AA651B"/>
<path d="M131.489 36.5508C132.111 34.8094 134.146 32.6325 137.282 30.9174C141.522 28.5985 147.324 27.2914 154.689 27.3791C155.587 27.3898 156.323 26.671 156.333 25.7736C156.344 24.8762 155.625 24.14 154.728 24.1293C146.828 24.0353 140.477 25.4661 135.723 28.066C131.927 30.1417 129.338 32.9116 128.428 35.4577C128.126 36.3029 128.567 37.2327 129.412 37.5346C130.257 37.8364 131.187 37.396 131.489 36.5508Z" fill="#AA651B"/>
<path d="M112.865 38.8137C119.139 36.0529 124.331 35.6015 127.486 37.6433C128.53 38.3184 129.923 38.0199 130.598 36.9766C131.273 35.9333 130.974 34.5403 129.931 33.8653C125.208 30.8095 118.571 31.3867 111.052 34.6948C109.915 35.1953 109.399 36.523 109.899 37.6604C110.4 38.7978 111.727 39.3142 112.865 38.8137Z" fill="#AA651B"/>
<path d="M190.62 58.9785C195.868 52.7632 188.642 44.5163 194.154 45.4441C176.991 42.0142 180.839 36.3826 167.667 48.9942C157.129 59.0835 155.412 67.9293 149.167 72.6462C155.195 76.36 161.708 76.1697 165.21 75.5208C177.746 73.1972 184.574 66.1392 190.62 58.9785Z" fill="#AA651B"/>
<path d="M130.505 39.3275C134.947 33.3446 139.25 35.5 147.5 39.3275C161 45.5908 155.147 52.87 151.25 55C139.97 61.1655 134.206 67.03 131.661 73.132C125.66 70.3817 123.476 65.8135 122.861 63.15C120.659 53.6143 125.387 46.2205 130.505 39.3275Z" fill="#AA651B"/>
<path d="M150 46.214C143.697 57.519 130.008 68.4482 124.75 64.2448C141.026 78.5 152.976 72.895 168.25 50.964C178.835 58.25 186.41 57.6052 191 59.25C195.59 60.8948 198.665 47.0428 182.5 35C172.735 23.2121 157.262 33.1893 150 46.214Z" fill="#AA651B"/>
<path d="M123.041 73.8438C113.841 73.0438 107.263 68.3438 109.041 60.3438C112.041 46.8438 126.041 43.8438 133.541 47.3438C141.041 50.8438 138.791 60.5938 128.791 64.0938C123.791 65.8438 120.291 67.8438 123.041 73.8438Z" fill="#AA651B"/>
<path d="M175.677 76.2343C184.877 75.4343 191.093 67.6508 191.427 63.4843C188.427 49.9843 172.677 46.2341 165.177 49.734C157.677 53.234 162.427 62.4843 172.427 65.9843C177.427 67.7343 178.427 70.2343 175.677 76.2343Z" fill="#AA651B"/>
</svg>
