<svg width="300" height="400" viewBox="0 0 300 400" fill="none" xmlns="http://www.w3.org/2000/svg">
<path d="M158.65 279.878C159.94 286.112 160.54 298.341 160.611 315.872C160.633 321.482 160.61 326.612 160.539 335.289C160.47 343.702 160.458 345.411 160.458 348.505C160.458 353.614 164.6 357.755 169.708 357.755C174.817 357.755 178.958 353.614 178.958 348.505C178.958 345.485 178.97 343.785 179.038 335.441C179.109 326.692 179.134 321.503 179.111 315.798C179.035 296.96 178.4 284.024 176.767 276.13C175.732 271.128 170.837 267.911 165.834 268.946C160.832 269.981 157.615 274.876 158.65 279.878Z" fill="#EA872C"/>
<path d="M120.343 276.998C119.329 289.353 119.794 303.255 121.432 318.317C122.661 329.62 124.438 340.69 126.63 351.905C127.611 356.918 132.469 360.188 137.483 359.208C142.497 358.228 145.767 353.369 144.787 348.355C142.687 337.615 140.99 327.04 139.823 316.317C138.302 302.33 137.875 289.55 138.781 278.511C139.199 273.419 135.41 268.953 130.318 268.535C125.227 268.117 120.761 271.906 120.343 276.998Z" fill="#EA872C"/>
<path d="M114.708 261.504H155.208L151.708 309.1L143.708 341.255H125.708L114.958 322.178L113.208 300.225L114.708 261.504Z" fill="#484D5D"/>
<path fill-rule="evenodd" clip-rule="evenodd" d="M118.448 267.207L118.585 265.211L119.832 265.297L119.695 267.292L118.448 267.207ZM118.174 271.197L118.311 269.202L119.558 269.288L119.421 271.283L118.174 271.197ZM118.036 273.193L117.899 275.188L119.146 275.274L119.284 273.278L118.036 273.193ZM117.625 279.178L117.762 277.183L119.009 277.269L118.872 279.264L117.625 279.178ZM117.488 281.174L117.351 283.169L118.598 283.255L118.735 281.259L117.488 281.174ZM117.077 287.16L117.214 285.164L118.461 285.25L118.324 287.245L117.077 287.16ZM116.94 289.155L116.803 291.15L118.05 291.236L118.187 289.241L116.94 289.155ZM116.529 295.141L116.666 293.146L117.913 293.231L117.776 295.227L116.529 295.141ZM116.392 297.136L116.335 297.962L116.333 297.995L116.334 298.028C116.348 298.406 116.359 298.793 116.368 299.189L117.617 299.162C117.609 298.771 117.598 298.389 117.584 298.015L117.639 297.222L116.392 297.136ZM116.379 303.169C116.388 302.463 116.391 301.806 116.39 301.177L117.64 301.175C117.641 301.81 117.638 302.472 117.629 303.184L116.379 303.169ZM116.347 305.164C116.339 305.61 116.331 306.001 116.315 306.742L116.306 307.163L117.556 307.189L117.565 306.769C117.58 306.027 117.589 305.635 117.597 305.189L116.347 305.164ZM116.242 311.172C116.246 310.555 116.254 309.902 116.266 309.165L117.516 309.187C117.504 309.919 117.495 310.568 117.492 311.179L116.242 311.172ZM116.247 313.184C116.256 313.899 116.274 314.568 116.302 315.203L117.551 315.148C117.524 314.527 117.506 313.87 117.497 313.168L116.247 313.184ZM116.684 319.257C116.581 318.626 116.499 317.951 116.434 317.228L117.679 317.116C117.741 317.811 117.82 318.456 117.918 319.057L116.684 319.257ZM117.122 321.282C117.27 321.81 117.44 322.299 117.633 322.75C117.702 322.91 117.776 323.076 117.854 323.247L118.99 322.725C118.916 322.563 118.847 322.408 118.782 322.258C118.612 321.859 118.459 321.421 118.325 320.944L117.122 321.282ZM119.743 326.836C119.382 326.207 119.056 325.618 118.765 325.069L119.868 324.482C120.154 325.019 120.474 325.597 120.828 326.215L119.743 326.836ZM120.76 328.572C121.087 329.119 121.435 329.691 121.803 330.288L122.867 329.632C122.502 329.039 122.157 328.472 121.832 327.93L120.76 328.572ZM123.94 333.682C123.565 333.095 123.207 332.533 122.865 331.99L123.923 331.324C124.263 331.864 124.619 332.424 124.993 333.008L123.94 333.682ZM125.025 335.367C125.367 335.894 125.722 336.442 126.116 337.045L127.163 336.363C126.77 335.76 126.415 335.214 126.075 334.687L125.025 335.367ZM128.303 340.394C128.018 339.957 127.868 339.727 127.209 338.72L128.256 338.036C128.914 339.044 129.065 339.274 129.35 339.711L128.303 340.394Z" fill="#383B46"/>
<path d="M151.708 264.004H190.71L192.208 298.415L188.962 326.17L177.723 341.328L160.26 343.255L154.747 312.41L151.708 264.004Z" fill="#484D5D"/>
<path d="M148.208 287.005C146.608 285.805 146.542 276.338 146.708 271.754V267.754L154.083 266.879L153.208 290.505C152.208 289.838 149.808 288.205 148.208 287.005Z" fill="#3A4051"/>
<path d="M159.958 261.254H183.458L184.411 278.019C184.585 281.075 182.604 283.838 179.654 284.653L172.958 286.505L167.8 287.053C164.224 287.433 161.066 284.725 160.896 281.133L159.958 261.254Z" fill="#3A4051"/>
<mask id="mask0_0_654" style="mask-type:luminance" maskUnits="userSpaceOnUse" x="113" y="262" width="43" height="80">
<path fill-rule="evenodd" clip-rule="evenodd" d="M114.958 262.004H155.458L151.958 309.6L143.958 341.755H125.958L115.208 322.678L113.458 300.725L114.958 262.004Z" fill="white"/>
</mask>
<g mask="url(#mask0_0_654)">
<path d="M104.458 284.38H115.458L126.458 285.505L127.618 303.48C127.816 306.553 125.832 309.343 122.865 310.163L116.208 312.005L111.37 312.52C107.677 312.913 104.458 310.018 104.458 306.305V284.38Z" fill="#3A4051"/>
</g>
<path d="M144.458 338.755H124.208L124.958 344.505C132.867 344.505 136.55 344.505 144.458 344.505V338.755Z" fill="#3A4051"/>
<path d="M179.708 338.755H159.958V344.505C169.784 344.505 169.383 344.505 179.208 344.505L179.708 338.755Z" fill="#3A4051"/>
<path d="M100.399 369.76C100.349 364.023 101.131 360.533 106.118 358.188C111.106 355.843 115.804 351.335 124.432 347.47C124.432 347.47 125.568 347.258 127.416 348.258C128.994 349.11 131.021 351.203 134.074 351.175C137.39 351.148 140.344 350.445 142.18 349.483C142.973 347.31 144.733 347.293 144.733 347.293C144.733 347.293 147.21 352.01 147.251 356.745C147.293 361.483 147.288 369.35 147.288 369.35L100.399 369.76Z" fill="#DCE1E6"/>
<path d="M122.907 348.435C123.449 349.655 123.449 351.142 123.449 352.09L118.847 350.06L119.93 353.985L115.734 352.632V356.557L112.486 354.797V358.18" stroke="white" stroke-width="1.35342" stroke-linecap="round" stroke-linejoin="round"/>
<path d="M145.78 349.79C144.817 351.098 141.344 351.88 140.037 352.073C138.73 352.263 137.33 352.095 137.891 354.255C138.287 355.783 142.094 355.168 143.583 355.153C144.793 355.143 146.491 358.8 147.123 357.56C147.123 353.308 146.321 351.008 145.78 349.79Z" fill="#518C2D"/>
<path d="M102.286 358.628C103.816 358.073 105.437 357.653 108.544 356.948L107.223 360.75L107.261 365.08L98.4182 365.158C98.0573 365.16 97.4125 364.68 97.7203 362.728C98.105 360.288 100.112 359.415 102.286 358.628Z" fill="#EAF4FB"/>
<path d="M114.998 358.855L119.118 366.708" stroke="#518C2D" stroke-width="4.33095"/>
<path d="M120.673 355.88L125.61 365.315" stroke="#518C2D" stroke-width="4.33095"/>
<path d="M126.232 352.598L133.058 365.895" stroke="#518C2D" stroke-width="4.33095"/>
<path d="M147.436 368.61L147.18 364.055L107.528 364.673L97.6417 363.945L97.3397 367.44C97.2355 368.645 98.1401 369.703 99.3478 369.788L107.578 370.355L146.372 369.755C146.987 369.745 147.471 369.225 147.436 368.61Z" fill="#C7CBCF"/>
<path d="M204.312 370.26C204.362 364.523 203.58 361.033 198.593 358.688C193.605 356.343 188.908 351.835 180.279 347.97C180.279 347.97 179.143 347.758 177.295 348.758C175.717 349.61 173.69 351.703 170.637 351.675C167.321 351.648 164.367 350.945 162.531 349.983C161.738 347.81 159.979 347.793 159.979 347.793C159.979 347.793 157.501 352.51 157.46 357.245C157.418 361.983 157.423 369.85 157.423 369.85L204.312 370.26Z" fill="#DCE1E6"/>
<path d="M181.804 348.935C181.263 350.155 181.263 351.642 181.263 352.59L185.864 350.56L184.781 354.485L188.977 353.132V357.057L192.225 355.297V358.68" stroke="white" stroke-width="1.35342" stroke-linecap="round" stroke-linejoin="round"/>
<path d="M158.931 350.29C159.894 351.598 163.367 352.38 164.674 352.573C165.981 352.763 167.381 352.595 166.821 354.755C166.424 356.283 162.617 355.668 161.128 355.653C159.918 355.643 158.22 359.3 157.588 358.06C157.588 353.808 158.39 351.508 158.931 350.29Z" fill="#518C2D"/>
<path d="M202.425 359.128C200.895 358.573 199.274 358.153 196.167 357.448L197.488 361.25L197.45 365.58L206.293 365.658C206.654 365.66 207.299 365.18 206.991 363.228C206.606 360.788 204.599 359.915 202.425 359.128Z" fill="#EAF4FB"/>
<path d="M187.796 358.349L183.676 366.201L187.511 368.213L191.631 360.361L187.796 358.349Z" fill="#518C2D"/>
<path d="M182.119 355.376L177.183 364.811L181.02 366.819L185.957 357.384L182.119 355.376Z" fill="#518C2D"/>
<path d="M176.553 352.109L169.727 365.406L173.58 367.384L180.406 354.086L176.553 352.109Z" fill="#518C2D"/>
<path d="M157.275 369.11L157.531 364.555L197.183 365.173L207.069 364.445L207.371 367.94C207.476 369.145 206.571 370.203 205.363 370.288L197.133 370.855L158.339 370.255C157.724 370.245 157.24 369.725 157.275 369.11Z" fill="#C7CBCF"/>
<path d="M115.458 161.504C117.958 151.254 130.208 148.254 135.708 148.254L149.387 155.004C150.137 157.087 150.587 161.604 146.387 163.004C141.137 164.754 138.878 179.254 131.628 176.254C124.378 173.254 114.272 166.368 115.458 161.504Z" fill="#757C82"/>
<path d="M182.959 160.254C180.825 151.504 171.459 150.671 168.209 148.254L150.45 157.504C149.7 159.587 149.25 164.104 153.45 165.504C158.7 167.254 160.959 181.754 168.209 178.754C175.459 175.754 184.145 165.118 182.959 160.254Z" fill="#757C82"/>
<path d="M124.958 171.254C119.458 179.754 111.458 190.754 106.458 199.754C88.7085 224.004 97.7085 248.504 131.208 241.504" stroke="#EBBAAA" stroke-width="21.75" stroke-linecap="round" stroke-linejoin="bevel"/>
<path d="M118.708 262.965C118.708 265.54 120.664 267.693 123.227 267.941L149.708 270.504L175.789 270.083C178.519 270.039 180.708 267.814 180.708 265.084V168.504C180.708 165.743 178.47 163.504 175.708 163.504H123.708C120.947 163.504 118.708 165.743 118.708 168.504V262.965Z" fill="#2A2C31"/>
<path d="M148.215 184.194C157.883 184.194 165.721 176.26 165.721 166.474C165.721 156.688 157.883 148.754 148.215 148.754C138.546 148.754 130.708 156.688 130.708 166.474C130.708 176.26 138.546 184.194 148.215 184.194Z" fill="#1C1C1C"/>
<rect x="139.16" y="144.758" width="19.2142" height="28.8213" rx="9.60707" fill="#EBBAAA"/>
<path d="M106.225 177.154C107.061 166.209 116.187 157.754 127.164 157.754H134.046C136.28 157.754 138.312 159.049 139.257 161.073L145.209 173.833L142.459 222.813L137.975 275.611C137.839 277.217 136.241 278.276 134.709 277.776L104.934 268.067C103.905 267.731 103.209 266.772 103.209 265.69V216.629L106.225 177.154Z" fill="#ABB0B4"/>
<path d="M139.625 207.25C140.937 207.25 142 206.187 142 204.875C142 203.563 140.937 202.5 139.625 202.5C138.313 202.5 137.25 203.563 137.25 204.875C137.25 206.187 138.313 207.25 139.625 207.25Z" fill="#4D4F56"/>
<path d="M138.125 224.25C139.437 224.25 140.5 223.187 140.5 221.875C140.5 220.563 139.437 219.5 138.125 219.5C136.813 219.5 135.75 220.563 135.75 221.875C135.75 223.187 136.813 224.25 138.125 224.25Z" fill="#4D4F56"/>
<path d="M135.625 255.5C136.937 255.5 138 254.437 138 253.125C138 251.813 136.937 250.75 135.625 250.75C134.313 250.75 133.25 251.813 133.25 253.125C133.25 254.437 134.313 255.5 135.625 255.5Z" fill="#4D4F56"/>
<path d="M133.375 272.75C134.687 272.75 135.75 271.687 135.75 270.375C135.75 269.063 134.687 268 133.375 268C132.063 268 131 269.063 131 270.375C131 271.687 132.063 272.75 133.375 272.75Z" fill="#4D4F56"/>
<path d="M99.2841 246.302C103.924 248.397 110.336 250.433 117.285 251.654C127.167 253.392 137.154 253.349 146.816 250.933C152.576 249.493 156.077 243.657 154.637 237.897C153.198 232.137 147.361 228.635 141.601 230.075C135.113 231.697 128.108 231.727 121.007 230.479C115.89 229.579 111.188 228.087 108.133 226.707C102.722 224.263 96.3546 226.669 93.9111 232.08C91.4676 237.491 93.8732 243.858 99.2841 246.302Z" fill="#EBBAAA"/>
<path d="M83.2086 207.504C87.2086 195.904 102.875 176.671 110.208 168.504L103.209 216.004C105.542 217.671 111.508 221.204 116.708 222.004C123.209 223.004 127.708 224.504 133.208 230.004C127.708 231.004 127.208 242.504 130.208 252.504C130.208 255.254 126.458 257.754 122.708 257.754L100.459 261.504L83.2086 242.504C81.5419 235.671 79.2086 219.104 83.2086 207.504Z" fill="#939AA0"/>
<path d="M91.2087 214.254L103.709 216.254L91.2087 219.504V214.254Z" fill="#7B838A"/>
<path d="M94.2087 223.504L103.209 216.254L98.9587 226.254L94.2087 223.504Z" fill="#7B838A"/>
<path d="M139.958 229.754H132.708C126.958 229.754 125.208 237.004 125.208 240.504C125.209 249.004 125.542 249.421 126.958 254.004C130.625 254.087 134.458 254.504 136.958 252.504C135.208 239.754 137.208 234.004 139.958 229.754Z" fill="#7B838A"/>
<path d="M119 166.25C125.75 166.25 131.5 166.461 135 168.75C141.5 173 141.264 189.75 143.75 200C146 176.875 148.875 163.75 138.375 158.75L132.375 156.504L126.5 154.75C122 155.75 121 160.75 119 166.25Z" fill="#8A9096"/>
<path d="M130.5 175.75L137 165.5L142.5 173.5C143.25 185.167 144.175 206.7 143.375 198.5C142.575 190.3 134.583 179.833 130.5 175.75Z" fill="#8A9096"/>
<path d="M191.877 171.85C191.295 162.103 182.311 155.065 172.708 156.834C171.77 157.007 170.896 157.431 170.181 158.062L163.116 164.287L154.958 184.825L158.824 274.469C158.892 276.042 160.378 277.161 161.908 276.792L194.295 268.98C195.417 268.709 196.208 267.705 196.208 266.55V249.004L194.958 223.504L191.877 171.85Z" fill="#ABB0B4"/>
<path d="M211.905 231.669C207.026 228.799 200.744 230.428 197.874 235.307C196.853 237.043 196.181 238.888 195.491 241.379C195.217 242.368 194.953 243.417 194.598 244.894C194.628 244.768 193.929 247.698 193.722 248.545C192.993 251.527 192.364 253.797 191.64 255.942C190.469 259.417 189.155 262.176 187.66 264.238C184.337 268.821 185.359 275.23 189.942 278.553C194.525 281.876 200.934 280.854 204.257 276.271C207.118 272.325 209.285 267.773 211.066 262.493C212.008 259.698 212.78 256.914 213.635 253.414C213.859 252.5 214.572 249.508 214.53 249.686C214.834 248.419 215.05 247.563 215.247 246.851C215.407 246.276 215.542 245.84 215.65 245.545C215.662 245.511 215.673 245.482 215.682 245.458C218.359 240.615 216.704 234.492 211.905 231.669Z" fill="#EBBAAA"/>
<path d="M215.208 206.004C211.208 194.004 196.458 164.254 186.958 161.754L193.708 222.004V245.004L187.208 263.504L207.208 274.504C208.375 271.337 211.608 264.004 215.208 260.004C219.708 255.004 220.208 221.004 215.208 206.004Z" fill="#939AA0"/>
<path d="M190.25 255.75L186.709 262.504C184.625 267.863 192.716 271.129 195.978 272.397C203.9 275.478 204.409 275.319 209.194 275.66C210.601 272.272 212.378 268.851 211.421 265.796C198.903 262.806 195.978 260.5 190.25 255.75Z" fill="#7B838A"/>
<path d="M200.958 205.254L192.708 214.754L205.208 210.754L200.958 205.254Z" fill="#7B838A"/>
<path d="M201.458 215.004L192.208 216.254L199.958 220.004L201.458 215.004Z" fill="#7B838A"/>
<path d="M180.392 166.25C173.642 166.25 167.892 166.461 164.392 168.75C157.892 173 158.128 189.75 155.642 200C153.392 176.875 150.517 163.75 161.017 158.75L167.017 156.504L172.892 154.75C177.392 155.75 178.392 160.75 180.392 166.25Z" fill="#8A9096"/>
<path d="M168.891 175.75L162.391 165.5L156.891 173.5C156.141 185.167 155.216 206.7 156.016 198.5C156.816 190.3 164.808 179.833 168.891 175.75Z" fill="#8A9096"/>
<path d="M108.418 122.477C116.436 122.477 122.936 116.312 122.936 108.706C122.936 101.101 116.436 94.9363 108.418 94.9363C100.401 94.9363 93.9009 101.101 93.9009 108.706C93.9009 116.312 100.401 122.477 108.418 122.477Z" fill="#EBBAAA"/>
<path d="M190.185 123.544C198.203 123.544 204.703 117.379 204.703 109.774C204.703 102.169 198.203 96.0039 190.185 96.0039C182.168 96.0039 175.668 102.169 175.668 109.774C175.668 117.379 182.168 123.544 190.185 123.544Z" fill="#EBBAAA"/>
<path d="M106.702 85.643C105.751 61.553 125.023 41.5043 149.132 41.5043C173.299 41.5043 192.593 61.6455 191.555 85.7903L190.154 118.403C189.208 140.404 171.097 157.754 149.075 157.754C126.998 157.754 108.862 140.32 107.991 118.261L106.702 85.643Z" fill="#EED4CC"/>
<mask id="mask1_0_654" style="mask-type:luminance" maskUnits="userSpaceOnUse" x="136" y="117" width="23" height="17">
<path fill-rule="evenodd" clip-rule="evenodd" d="M136.5 125.125C136.5 120.638 140.138 117 144.625 117H150.625C155.112 117 158.75 120.638 158.75 125.125C158.75 129.612 155.112 133.25 150.625 133.25H144.625C140.138 133.25 136.5 129.612 136.5 125.125Z" fill="white"/>
</mask>
<g mask="url(#mask1_0_654)">
<rect x="127" y="127.75" width="50.75" height="10.5" fill="white"/>
</g>
<path d="M138.688 87.0255L123.283 85.532C123.106 85.5148 122.933 85.5933 122.829 85.7375L119.755 90.0093C119.522 90.3335 119.744 90.787 120.143 90.801L138.81 91.4635C139.417 91.485 139.903 90.965 139.84 90.3608L139.586 87.9175C139.537 87.4443 139.162 87.0713 138.688 87.0255Z" fill="#393939"/>
<path d="M157.479 87.0255L172.885 85.532C173.062 85.5148 173.235 85.5933 173.339 85.7375L176.413 90.0093C176.646 90.3335 176.424 90.787 176.025 90.801L157.358 91.4635C156.751 91.485 156.265 90.965 156.327 90.3608L156.581 87.9175C156.63 87.4443 157.006 87.0713 157.479 87.0255Z" fill="#393939"/>
<path d="M128.086 107.781L135.143 108.151C136.798 108.237 138.21 106.966 138.296 105.312C138.383 103.657 137.112 102.246 135.458 102.159L128.4 101.789C126.746 101.702 125.334 102.973 125.247 104.628C125.161 106.282 126.432 107.694 128.086 107.781Z" fill="black"/>
<path d="M169.643 101.539L162.586 101.909C160.932 101.996 159.661 103.407 159.747 105.062C159.834 106.716 161.246 107.987 162.9 107.901L169.958 107.531C171.612 107.444 172.883 106.032 172.796 104.378C172.71 102.723 171.298 101.452 169.643 101.539Z" fill="black"/>
<rect x="104.209" y="74.2542" width="5.75" height="34.5" rx="2.875" fill="#393939"/>
<rect x="187.709" y="79.0042" width="5.75" height="30.5" rx="2.875" fill="#2C2929"/>
<path d="M145.468 108.966C145.414 109.363 145.067 109.983 143.64 112.232C143.318 112.739 143.079 113.125 142.853 113.509C142.187 114.635 141.728 115.583 141.446 116.511C141.046 117.828 141.026 119.067 141.537 120.21C142.62 122.632 145.513 123.629 150.334 123.629V119.379C148.443 119.379 147.065 119.205 146.182 118.901C145.862 118.791 145.641 118.675 145.507 118.567C145.444 118.518 145.424 118.492 145.417 118.476C145.293 118.198 145.583 117.243 146.512 115.67C146.712 115.332 146.929 114.981 147.229 114.508C147.283 114.422 147.34 114.334 147.413 114.219L147.599 113.927C147.752 113.687 147.862 113.513 147.97 113.341C148.254 112.887 148.479 112.513 148.677 112.159C149.231 111.169 149.567 110.359 149.679 109.543L145.468 108.966Z" fill="#EBBAAA"/>
<path d="M145.014 105.289L145.017 105.286C145.024 105.28 145.037 105.271 145.054 105.258C145.145 105.192 145.278 105.117 145.458 105.041C146.056 104.789 146.916 104.629 148.084 104.629C149.262 104.629 150.181 104.793 150.871 105.056C151.092 105.14 151.266 105.226 151.396 105.306C151.434 105.329 151.463 105.349 151.481 105.363C151.483 105.364 151.478 105.36 151.467 105.35C151.931 105.758 152.638 105.714 153.05 105.252C153.462 104.787 153.421 104.076 152.956 103.663C152.873 103.589 152.747 103.495 152.576 103.39C152.326 103.236 152.025 103.088 151.672 102.953C150.721 102.591 149.531 102.379 148.084 102.379C146.627 102.379 145.471 102.594 144.585 102.967C143.981 103.222 143.583 103.511 143.362 103.763C142.953 104.231 143 104.942 143.468 105.351C143.932 105.757 144.637 105.713 145.047 105.254C145.032 105.271 145.021 105.282 145.014 105.289Z" fill="#D5A600"/>
<path fill-rule="evenodd" clip-rule="evenodd" d="M151.523 106.692C151.568 105.84 151.584 105.432 151.584 104.929C151.584 101.824 152.314 99.5297 154.167 97.8094C156.413 95.7252 160.248 94.6292 166.058 94.6292C172.452 94.6292 176.232 95.3272 178.451 96.9502C180.551 98.4857 181.334 100.841 181.334 104.929C181.334 105.458 181.35 105.943 181.386 106.71L181.394 106.889C181.418 107.392 181.424 107.529 181.431 107.751C181.464 108.771 181.425 109.502 181.269 110.243C180.889 112.046 179.776 113.813 177.422 116.167C175.659 117.93 174.177 118.834 172.409 119.259C171.067 119.583 170.015 119.633 166.697 119.63C166.394 119.629 166.242 119.629 166.058 119.629C165.662 119.629 165.324 119.632 164.772 119.637L164.648 119.638C163.683 119.648 163.283 119.649 162.804 119.635C161.807 119.607 161.072 119.51 160.371 119.296C158.869 118.836 157.452 117.799 155.12 115.468C152.984 113.331 151.956 111.611 151.616 109.831C151.48 109.117 151.449 108.417 151.486 107.457C151.494 107.253 151.502 107.075 151.523 106.692ZM155.698 99.4585C154.377 100.685 153.833 102.391 153.833 104.929C153.833 105.484 153.816 105.92 153.769 106.811C153.749 107.183 153.741 107.354 153.734 107.543C153.703 108.347 153.727 108.891 153.826 109.41C154.072 110.7 154.87 112.036 156.711 113.877C158.803 115.969 159.964 116.818 161.029 117.144C161.51 117.291 162.055 117.363 162.867 117.386C163.307 117.398 163.689 117.398 164.625 117.388L164.749 117.387C165.308 117.382 165.653 117.379 166.058 117.379C166.242 117.379 166.396 117.379 166.699 117.38C169.816 117.383 170.783 117.336 171.882 117.072C173.216 116.751 174.344 116.063 175.831 114.576C177.902 112.505 178.789 111.096 179.066 109.78C179.179 109.245 179.209 108.679 179.182 107.823C179.175 107.617 179.17 107.485 179.146 106.996L179.138 106.817C179.1 106.017 179.083 105.502 179.083 104.929C179.083 101.486 178.519 99.7873 177.123 98.7663C175.399 97.5055 172.006 96.8792 166.058 96.8792C160.763 96.8792 157.459 97.8234 155.698 99.4585Z" fill="#D5A600"/>
<path fill-rule="evenodd" clip-rule="evenodd" d="M144.253 106.692C144.208 105.84 144.192 105.432 144.192 104.929C144.192 101.824 143.462 99.5297 141.609 97.8095C139.363 95.7253 135.528 94.6292 129.718 94.6292C123.325 94.6292 119.544 95.3271 117.325 96.9502C115.225 98.4857 114.442 100.841 114.442 104.929C114.442 105.458 114.426 105.943 114.39 106.71L114.382 106.888C114.36 107.349 114.352 107.526 114.345 107.751C114.312 108.771 114.351 109.502 114.508 110.243C114.887 112.046 116 113.813 118.354 116.167C120.117 117.93 121.599 118.834 123.367 119.259C124.709 119.583 125.761 119.633 129.079 119.63C129.381 119.629 129.534 119.629 129.718 119.629C130.114 119.629 130.452 119.632 131.005 119.637L131.128 119.638C132.093 119.648 132.493 119.649 132.971 119.635C133.969 119.607 134.704 119.51 135.405 119.296C136.907 118.836 138.325 117.799 140.656 115.468C142.792 113.331 143.82 111.611 144.16 109.831C144.296 109.117 144.327 108.417 144.29 107.458C144.282 107.253 144.274 107.075 144.253 106.692ZM140.077 99.4586C141.398 100.685 141.942 102.391 141.942 104.929C141.942 105.484 141.959 105.92 142.006 106.811C142.026 107.183 142.034 107.354 142.041 107.544C142.072 108.347 142.048 108.891 141.949 109.41C141.703 110.7 140.905 112.036 139.064 113.877C136.972 115.969 135.811 116.818 134.746 117.144C134.265 117.291 133.72 117.363 132.908 117.386C132.468 117.398 132.086 117.398 131.15 117.388L131.026 117.387C130.466 117.382 130.122 117.379 129.717 117.379C129.533 117.379 129.379 117.379 129.076 117.38C125.959 117.383 124.992 117.336 123.893 117.072C122.559 116.751 121.431 116.063 119.944 114.576C117.873 112.505 116.986 111.096 116.709 109.78C116.596 109.245 116.565 108.679 116.593 107.823C116.6 107.614 116.607 107.444 116.629 106.995L116.637 106.817C116.675 106.017 116.692 105.502 116.692 104.929C116.692 101.486 117.256 99.7873 118.652 98.7663C120.376 97.5055 123.769 96.8792 129.717 96.8792C135.012 96.8792 138.316 97.8234 140.077 99.4586Z" fill="#D5A600"/>
<path d="M117.209 59.7543C109.709 64.9718 111.876 73.0043 109.709 79.7543C109.709 88.0013 106.866 98.197 103.709 98.5043C100.885 98.7793 97.709 90.0905 97.709 82.0043C97.709 55.7543 112.5 39.5042 135.5 39.5042C143.04 39.5042 170.709 32.5043 170.709 54.5043C159.459 60.7543 125.959 53.6673 117.209 59.7543Z" fill="#393939"/>
<path d="M135.709 57.2543C156.933 57.2543 177.929 62.3792 182.179 67.3792C184.348 78.1393 182.963 96.7542 195.209 96.7542C200.709 96.7542 199.746 71.983 199.209 67.3792C195.448 35.1602 159.115 27.942 137.459 34.5043C124.209 38.5194 114.485 57.2543 135.709 57.2543Z" fill="#2C2929"/>
<path d="M131.121 41.0087C131.754 39.2364 133.811 37.0367 136.972 35.3078C141.232 32.978 147.055 31.6662 154.441 31.7541C155.269 31.764 155.949 31.1005 155.959 30.2721C155.968 29.4437 155.305 28.7642 154.477 28.7543C146.597 28.6605 140.267 30.0865 135.533 32.6757C131.763 34.7375 129.194 37.4846 128.296 39.9997C128.017 40.7799 128.424 41.6382 129.204 41.9168C129.984 42.1955 130.843 41.7889 131.121 41.0087Z" fill="#2C2929"/>
<path d="M112.313 42.6272C118.795 39.7752 124.227 39.3028 127.644 41.5137C128.339 41.9637 129.268 41.7647 129.718 41.0692C130.168 40.3737 129.969 39.445 129.274 38.9949C124.812 36.1082 118.416 36.6644 111.105 39.8813C110.346 40.2149 110.002 41.1001 110.336 41.8584C110.669 42.6167 111.554 42.9609 112.313 42.6272Z" fill="#393939"/>
<path d="M145.709 65.0043C139.416 59.8495 128.709 55.0168 123.459 56.9335C139.709 50.4334 138.709 50.6223 153.959 60.6223C166.159 68.6223 183.875 69.2543 188.459 68.5043C183.209 73.2543 182.459 73.098 178.959 73.7543C166.678 76.057 152.959 70.9433 145.709 65.0043Z" fill="#2C2929"/>
<path d="M154.959 59.7222C148.666 54.5675 136.959 53.3432 131.709 55.26C147.959 48.7599 150.959 45.2599 166.209 55.2597C178.409 63.2598 181.125 66.26 185.709 65.51C190.292 64.76 193.959 64.3792 185.709 69.7542C175.959 75.1292 162.209 65.6613 154.959 59.7222Z" fill="#393939"/>
</svg>
