<svg width="300" height="400" viewBox="0 0 300 400" fill="none" xmlns="http://www.w3.org/2000/svg">
<rect x="127.999" y="129.769" width="76.0302" height="36.5145" rx="18.2572" transform="rotate(-7.99571 127.999 129.769)" fill="#3F2B18"/>
<path d="M129 166.437C129 170.426 127.992 175.379 125.902 181.854C124.99 184.679 123.892 187.751 122.418 191.651C121.611 193.786 118.671 201.408 118.263 202.478C114.266 212.948 111.758 220.349 109.782 228.171C108.53 233.124 111.531 238.154 116.484 239.405C121.437 240.657 126.467 237.656 127.718 232.703C129.479 225.737 131.786 218.925 135.546 209.076C135.934 208.06 138.89 200.397 139.723 198.192C141.295 194.032 142.488 190.696 143.507 187.536C146.138 179.385 147.5 172.697 147.5 166.437C147.5 161.329 143.359 157.187 138.25 157.187C133.141 157.187 129 161.329 129 166.437Z" fill="#F6DDD6"/>
<path d="M189.192 171.23C194.347 180.374 199.712 193.497 203.274 205.676C205.063 211.794 206.309 217.379 206.892 221.913C207.176 224.118 207.294 226.015 207.253 227.536C207.236 228.205 207.187 228.775 207.116 229.233C207.066 229.555 207.014 229.768 206.98 229.86C205.235 234.662 207.713 239.968 212.514 241.713C217.316 243.458 222.622 240.981 224.367 236.179C227.179 228.443 225.589 216.074 221.03 200.484C217.089 187.007 211.192 172.583 205.308 162.145C202.799 157.694 197.157 156.121 192.707 158.63C188.257 161.138 186.683 166.78 189.192 171.23Z" fill="#F6DDD6"/>
<path fill-rule="evenodd" clip-rule="evenodd" d="M151.733 153.359C148.979 162.966 154.536 172.987 164.143 175.741L185.511 181.865C185.656 181.906 185.801 181.946 185.945 181.984L198.75 193.187L221.75 174.187L208.582 163.691C208.257 156.123 203.165 149.274 195.483 147.073L174.115 140.948C164.507 138.195 154.487 143.751 151.733 153.359Z" fill="#E1E8EE"/>
<mask id="mask0_0_783" style="mask-type:luminance" maskUnits="userSpaceOnUse" x="151" y="140" width="71" height="54">
<path fill-rule="evenodd" clip-rule="evenodd" d="M151.733 153.359C148.979 162.966 154.536 172.987 164.143 175.741L185.511 181.865C185.656 181.906 185.801 181.946 185.945 181.984L198.75 193.187L221.75 174.187L208.582 163.691C208.257 156.123 203.165 149.274 195.483 147.073L174.115 140.948C164.507 138.195 154.487 143.751 151.733 153.359Z" fill="white"/>
</mask>
<g mask="url(#mask0_0_783)">
<path d="M194.121 183.501L213.371 167.751L211.629 165.623L192.379 181.373L194.121 183.501Z" fill="#9DB7C9"/>
<path d="M189.871 176.251L209.121 160.501L207.379 158.373L188.129 174.123L189.871 176.251Z" fill="#9DB7C9"/>
<path d="M187.121 168.751L206.371 153.001L204.629 150.873L185.379 166.623L187.121 168.751Z" fill="#9DB7C9"/>
<path d="M170.326 159.536L189.951 144.786L188.299 142.588L168.674 157.338L170.326 159.536Z" fill="#9DB7C9"/>
<path d="M175.122 168.001L200.124 147.501L198.381 145.374L173.378 165.874L175.122 168.001Z" fill="#9DB7C9"/>
</g>
<path d="M198.5 194.937L223.25 175.187L218.25 171.187L194.75 189.687L198.5 194.937Z" fill="#2D3941"/>
<path d="M107.75 173.937C107.75 173.937 125.943 157.627 135.638 149.827C145.333 142.027 146.75 142.561 146.75 142.561L156.75 148.75L130.75 192.937L107.75 173.937Z" fill="#E1E8EE"/>
<mask id="mask1_0_783" style="mask-type:luminance" maskUnits="userSpaceOnUse" x="107" y="142" width="50" height="51">
<path d="M107.75 173.937C107.75 173.937 125.943 157.627 135.638 149.827C145.333 142.027 146.75 142.561 146.75 142.561L156.75 148.75L130.75 192.937L107.75 173.937Z" fill="white"/>
</mask>
<g mask="url(#mask1_0_783)">
<path d="M137.5 182.339L115.741 164L113.75 166.411L135.509 184.75L137.5 182.339Z" fill="#9DB7C9"/>
<path d="M142.255 176.13L121.38 158.755L119.62 160.869L140.495 178.244L142.255 176.13Z" fill="#9DB7C9"/>
<path d="M145.5 168.127L127.625 153.377L125.875 155.498L143.75 170.248L145.5 168.127Z" fill="#9DB7C9"/>
<path d="M150.5 161.877L132.625 147.127L130.875 149.248L148.75 163.998L150.5 161.877Z" fill="#9DB7C9"/>
<path d="M139.268 146.101L147.018 150.976L148.482 148.648L140.732 143.773L139.268 146.101Z" fill="#9DB7C9"/>
</g>
<path d="M131 194.687L106.25 174.937L111.25 170.937L134.75 189.437L131 194.687Z" fill="#2D3941"/>
<path d="M128.5 201.875L141.75 162.937L147.75 144.687L159 147.187L180 144.687L204.25 206C204.25 206 204.25 208.625 202.625 210C201 211.375 199.375 212.125 199.375 212.125L166.25 219.437L135.75 213.125C135.75 213.125 130.875 210.125 129.375 208C127.875 205.875 128.5 201.875 128.5 201.875Z" fill="#EAF0F5"/>
<mask id="mask2_0_783" style="mask-type:luminance" maskUnits="userSpaceOnUse" x="128" y="144" width="77" height="76">
<path d="M128.5 201.875L141.75 162.937L147.75 144.687L159 147.187L180 144.687L204.25 206C204.25 206 204.25 208.625 202.625 210C201 211.375 199.375 212.125 199.375 212.125L166.25 219.437L135.75 213.125C135.75 213.125 130.875 210.125 129.375 208C127.875 205.875 128.5 201.875 128.5 201.875Z" fill="white"/>
</mask>
<g mask="url(#mask2_0_783)">
<path d="M125.198 205.311L204.948 208.311L205.051 205.563L125.301 202.563L125.198 205.311Z" fill="#9DB7C9"/>
<path d="M124.969 198.312L204.219 200.062L204.28 197.313L125.03 195.563L124.969 198.312Z" fill="#9DB7C9"/>
<path d="M124.504 191.562L202.504 191.312L202.495 188.562L124.495 188.812L124.504 191.562Z" fill="#9DB7C9"/>
<path d="M201.219 179.813L123.469 181.563L123.531 184.312L201.281 182.562L201.219 179.813Z" fill="#9DB7C9"/>
<path d="M203.469 171.563L124.219 173.313L124.28 176.062L203.53 174.312L203.469 171.563Z" fill="#9DB7C9"/>
<path d="M204.004 164.812L126.004 164.562L125.995 167.312L203.995 167.562L204.004 164.812Z" fill="#9DB7C9"/>
<path d="M204.004 156.812L126.004 156.562L125.995 159.312L203.995 159.562L204.004 156.812Z" fill="#9DB7C9"/>
<path d="M204.254 147.812L126.254 147.562L126.245 150.312L204.245 150.562L204.254 147.812Z" fill="#9DB7C9"/>
</g>
<path d="M162.875 169.187C171.78 169.187 179 161.688 179 152.437C179 143.186 171.78 135.687 162.875 135.687C153.969 135.687 146.75 143.186 146.75 152.437C146.75 161.688 153.969 169.187 162.875 169.187Z" fill="#2D3A41"/>
<rect x="153.094" y="135.156" width="19.5504" height="29.3423" rx="9.77521" fill="#E6CBC3"/>
<rect x="153.75" y="171.937" width="20.5" height="20.5" rx="1" fill="#EBAAAA"/>
<path d="M174.579 250.795C177.265 263.783 177.074 316.971 174.499 335.007C173.914 339.108 176.763 342.907 180.864 343.492C184.964 344.078 188.763 341.228 189.349 337.128C190.629 328.157 191.443 310.261 191.51 291.56C191.581 271.789 190.828 255.299 189.268 247.757C188.43 243.701 184.461 241.093 180.405 241.931C176.349 242.77 173.74 246.738 174.579 250.795Z" fill="#F6DDD6"/>
<path d="M143.288 246.239C141.729 253.781 140.975 270.271 141.046 290.042C141.113 308.744 141.927 326.639 143.208 335.61C143.793 339.711 147.592 342.56 151.693 341.975C155.793 341.389 158.643 337.59 158.057 333.49C155.482 315.453 155.292 262.265 157.977 249.277C158.816 245.22 156.208 241.252 152.151 240.413C148.095 239.575 144.127 242.183 143.288 246.239Z" fill="#F6DDD6"/>
<path d="M121.5 312.438L134 215.437H148C152 246.437 148.7 316.238 143.5 317.438C138.3 318.638 123.167 315.105 121.5 312.438Z" fill="#495433"/>
<path d="M213.026 312.438L200.526 215.437H186.526C182.526 246.437 185.826 316.238 191.026 317.438C196.226 318.638 211.36 315.105 213.026 312.438Z" fill="#495433"/>
<path d="M137.834 322.938C141.084 325.438 166.606 328.105 168.273 325.438V273.437L164.084 221.687H143.299C139.299 252.687 134.584 320.438 137.834 322.938Z" fill="#4F5B36"/>
<path d="M165.5 322.688C171.75 324.688 179.75 324.438 197.25 322.688C197.25 322.688 193.977 297.438 192.5 268.937C191.023 240.437 189.25 215.687 189.25 215.687L163.25 219.187C165.5 253.687 167 272.937 165.5 322.688Z" fill="#54613A"/>
<path d="M133.908 211.39C133.959 210.857 134.421 210.46 134.956 210.488L167.25 212.187L199.544 210.488C200.079 210.46 200.541 210.857 200.592 211.39L201.887 224.767C201.946 225.381 201.442 225.901 200.827 225.861L167.25 223.687L133.673 225.861C133.058 225.901 132.554 225.381 132.613 224.767L133.908 211.39Z" fill="#414931"/>
<path d="M142.883 212.904L141.508 225.904C141.421 226.728 142.018 227.467 142.842 227.554C143.666 227.641 144.404 227.044 144.492 226.22L145.867 213.22C145.954 212.396 145.356 211.658 144.533 211.571C143.709 211.483 142.97 212.081 142.883 212.904Z" fill="#4F5B36"/>
<path d="M163.68 214V224.25C163.68 225.078 164.352 225.75 165.18 225.75C166.009 225.75 166.68 225.078 166.68 224.25V214C166.68 213.172 166.009 212.5 165.18 212.5C164.352 212.5 163.68 213.172 163.68 214Z" fill="#4F5B36"/>
<path d="M186.941 213.766L189.377 227.266C189.524 228.082 190.304 228.623 191.12 228.476C191.935 228.329 192.477 227.549 192.329 226.734L189.893 213.234C189.746 212.418 188.966 211.877 188.151 212.024C187.336 212.171 186.794 212.951 186.941 213.766Z" fill="#4F5B36"/>
<path d="M188.924 335.09C187.97 332.23 189.851 329.925 190.91 329.13C191.44 329.873 192.102 333.633 193.293 336.545L196.405 340.32L201.106 345.948L206.932 348.728L203.887 352.303C201.812 350.715 189.877 337.95 188.924 335.09Z" fill="#3B3937"/>
<path d="M170.822 354.945C170.822 354.945 170.652 348.727 171.975 345.285C173.297 341.842 174.66 332.965 174.66 332.965C174.66 332.965 177.007 335.48 181.376 335.48C185.746 335.48 190.38 334.427 190.38 334.427C190.38 334.427 198.496 345.145 200.615 346.47C202.734 347.795 213.062 350.575 213.062 350.575C215.329 350.575 217.167 352.412 217.167 354.68V356.767H192.273L170.822 354.945Z" fill="#1C1B19"/>
<path d="M194.648 340.728L195.973 340.198C196.38 340.035 196.578 339.572 196.415 339.165C196.252 338.757 195.79 338.559 195.382 338.722L194.058 339.252C193.651 339.415 193.453 339.878 193.616 340.285C193.779 340.693 194.241 340.891 194.648 340.728Z" fill="#ECECEC"/>
<path d="M196.502 343.11L197.826 342.58C198.234 342.417 198.432 341.955 198.269 341.547C198.106 341.14 197.643 340.942 197.236 341.105L195.912 341.635C195.504 341.798 195.306 342.26 195.469 342.668C195.632 343.075 196.095 343.273 196.502 343.11Z" fill="#ECECEC"/>
<path d="M198.886 345.493L200.21 344.963C200.617 344.8 200.815 344.337 200.652 343.93C200.489 343.522 200.027 343.324 199.619 343.487L198.295 344.017C197.888 344.18 197.69 344.643 197.853 345.05C198.016 345.458 198.478 345.656 198.886 345.493Z" fill="#ECECEC"/>
<path d="M201.004 347.613L202.329 347.083C202.736 346.92 202.934 346.457 202.771 346.05C202.608 345.642 202.146 345.444 201.738 345.607L200.414 346.137C200.006 346.3 199.808 346.763 199.971 347.17C200.134 347.578 200.597 347.776 201.004 347.613Z" fill="#ECECEC"/>
<path d="M170.518 354.688L193.955 355.745L217.26 354.688L217.628 357.735C217.739 358.66 217.035 359.48 216.104 359.512L194.441 360.247L182.347 360.38L170.253 359.983L170.518 354.688Z" fill="#D0CEC1"/>
<path d="M170.367 358.262C171.123 358.289 175.547 358.459 176.811 358.506C177.618 358.535 178.373 358.563 179.097 358.588C182.897 358.72 185.706 358.792 187.467 358.792C190.704 358.792 198.449 358.507 201.284 358.26L201.192 357.205C198.39 357.449 190.675 357.733 187.467 357.733C185.722 357.733 182.922 357.661 179.134 357.529C178.411 357.504 177.656 357.477 176.851 357.447C175.588 357.4 171.162 357.23 170.405 357.203L170.367 358.262Z" fill="#1C1B19"/>
<path d="M200.576 359.983V357.6V356.673L217.393 355.878L217.632 358.028C217.717 358.798 217.129 359.475 216.356 359.498L200.576 359.983Z" fill="#ECEADF"/>
<path d="M180.052 348.992C182.685 348.992 184.819 346.858 184.819 344.225C184.819 341.592 182.685 339.458 180.052 339.458C177.42 339.458 175.285 341.592 175.285 344.225C175.285 346.858 177.42 348.992 180.052 348.992Z" fill="#DCE0E4"/>
<path d="M180.041 340.72C180.15 340.53 180.43 340.545 180.515 340.747L181.307 342.635C181.341 342.715 181.412 342.772 181.497 342.792L183.499 343.207C183.714 343.252 183.785 343.525 183.618 343.667L182.069 345.005C182.003 345.06 181.969 345.147 181.979 345.232L182.201 347.267C182.225 347.485 181.988 347.635 181.8 347.522L180.051 346.462C179.977 346.415 179.885 346.41 179.805 346.447L177.94 347.285C177.74 347.375 177.523 347.197 177.574 346.985L178.042 344.992C178.062 344.907 178.039 344.817 177.98 344.755L176.605 343.24C176.458 343.077 176.561 342.815 176.779 342.797L178.818 342.627C178.905 342.62 178.982 342.57 179.026 342.495L180.041 340.72Z" fill="#5B568E"/>
<path d="M144.187 335.09C145.14 332.23 143.26 329.925 142.201 329.13C141.671 329.873 141.009 333.633 139.817 336.545L136.705 340.32L132.005 345.948L126.179 348.728L129.224 352.303C131.299 350.715 143.233 337.95 144.187 335.09Z" fill="#3B3937"/>
<path d="M162.289 354.945C162.289 354.945 162.459 348.727 161.136 345.285C159.813 341.842 158.451 332.965 158.451 332.965C158.451 332.965 156.104 335.48 151.735 335.48C147.365 335.48 142.73 334.427 142.73 334.427C142.73 334.427 134.615 345.145 132.496 346.47C130.377 347.795 120.049 350.575 120.049 350.575C117.782 350.575 115.944 352.412 115.944 354.68V356.767H140.838L162.289 354.945Z" fill="#1C1B19"/>
<path d="M139.053 339.252L137.728 338.722C137.321 338.559 136.859 338.757 136.696 339.165C136.532 339.572 136.731 340.035 137.138 340.198L138.462 340.728C138.87 340.891 139.332 340.693 139.495 340.285C139.658 339.878 139.46 339.415 139.053 339.252Z" fill="#ECECEC"/>
<path d="M137.199 341.635L135.875 341.105C135.467 340.942 135.005 341.14 134.842 341.547C134.679 341.955 134.877 342.417 135.284 342.58L136.608 343.11C137.016 343.273 137.478 343.075 137.641 342.668C137.804 342.26 137.606 341.798 137.199 341.635Z" fill="#ECECEC"/>
<path d="M134.815 344.017L133.491 343.487C133.084 343.324 132.621 343.522 132.458 343.93C132.295 344.337 132.493 344.8 132.901 344.963L134.225 345.493C134.632 345.656 135.095 345.458 135.258 345.05C135.421 344.643 135.223 344.18 134.815 344.017Z" fill="#ECECEC"/>
<path d="M132.697 346.137L131.373 345.607C130.965 345.444 130.503 345.642 130.34 346.05C130.177 346.457 130.375 346.92 130.782 347.083L132.106 347.613C132.514 347.776 132.976 347.578 133.139 347.17C133.302 346.763 133.104 346.3 132.697 346.137Z" fill="#ECECEC"/>
<path d="M162.592 354.688L139.155 355.745L115.85 354.688L115.483 357.735C115.371 358.66 116.075 359.48 117.006 359.512L138.669 360.247L150.763 360.38L162.857 359.983L162.592 354.688Z" fill="#D0CEC1"/>
<path d="M162.706 357.203C161.948 357.23 157.524 357.4 156.26 357.447C155.455 357.477 154.699 357.504 153.976 357.529C150.189 357.661 147.389 357.733 145.643 357.733C142.435 357.733 134.72 357.449 131.918 357.205L131.826 358.26C134.661 358.507 142.407 358.792 145.643 358.792C147.405 358.792 150.214 358.72 154.013 358.588C154.737 358.563 155.493 358.535 156.299 358.506C157.564 358.459 161.988 358.289 162.743 358.262L162.706 357.203Z" fill="#1C1B19"/>
<path d="M132.534 359.983V357.6V356.673L115.718 355.878L115.479 358.028C115.394 358.798 115.982 359.475 116.754 359.498L132.534 359.983Z" fill="#ECEADF"/>
<path d="M153.058 348.992C150.426 348.992 148.291 346.858 148.291 344.225C148.291 341.592 150.426 339.458 153.058 339.458C155.691 339.458 157.825 341.592 157.825 344.225C157.825 346.858 155.691 348.992 153.058 348.992Z" fill="#DCE0E4"/>
<path d="M153.07 340.72C152.961 340.53 152.681 340.545 152.596 340.747L151.804 342.635C151.77 342.715 151.699 342.772 151.614 342.792L149.611 343.207C149.396 343.252 149.326 343.525 149.492 343.667L151.042 345.005C151.108 345.06 151.141 345.147 151.132 345.232L150.91 347.267C150.886 347.485 151.123 347.635 151.31 347.522L153.06 346.462C153.134 346.415 153.226 346.41 153.306 346.447L155.171 347.285C155.371 347.375 155.588 347.197 155.537 346.985L155.069 344.992C155.049 344.907 155.072 344.817 155.131 344.755L156.506 343.24C156.653 343.077 156.55 342.815 156.332 342.797L154.293 342.627C154.206 342.62 154.129 342.57 154.085 342.495L153.07 340.72Z" fill="#5B568E"/>
<path d="M197.763 83.4212C193.155 64.1927 173.28 54.3127 165.576 51.9513C162.058 45.3731 171.973 34.335 177.5 33.2913C185.539 31.7733 197.726 38.795 207.273 57.5175C219.275 81.0562 213.398 144.69 210.5 165.437C200.25 165.437 192.75 163.687 186.75 157.687C197.013 140.187 197.763 100.12 197.763 100.12C197.763 100.12 200.31 94.0475 197.763 83.4212Z" fill="#3F2B18"/>
<path d="M197.137 115.501C205.295 115.501 211.908 109.225 211.908 101.482C211.908 93.7395 205.295 87.4629 197.137 87.4629C188.979 87.4629 182.365 93.7395 182.365 101.482C182.365 109.225 188.979 115.501 197.137 115.501Z" fill="#EBBAAA"/>
<path d="M122.376 74.7235C122.376 54.3768 139.813 37.8825 161.322 37.8825C182.831 37.8825 200.268 54.3767 200.268 74.7235V111.366C197.127 135.135 178.283 148.207 161.322 148.207C144.362 148.207 124.68 132.362 122.376 111.366V74.7235Z" fill="#F6DDD6"/>
<path fill-rule="evenodd" clip-rule="evenodd" d="M151 121.318V124.742C151 130.001 155.264 134.265 160.523 134.265C165.783 134.265 170.047 130.001 170.047 124.742V121.318H151Z" fill="#393939"/>
<mask id="mask3_0_783" style="mask-type:luminance" maskUnits="userSpaceOnUse" x="151" y="119" width="20" height="16">
<path fill-rule="evenodd" clip-rule="evenodd" d="M151.126 119.687C151.043 120.192 151 120.711 151 121.239V124.742C151 130.001 155.264 134.265 160.523 134.265C165.783 134.265 170.047 130.001 170.047 124.742V121.239C170.047 120.711 170.004 120.192 169.921 119.687H151.126Z" fill="white"/>
</mask>
<g mask="url(#mask3_0_783)">
<path d="M160.524 136.505C163.695 136.505 166.267 135.105 166.267 133.378C166.267 131.65 163.695 130.25 160.524 130.25C157.352 130.25 154.781 131.65 154.781 133.378C154.781 135.105 157.352 136.505 160.524 136.505Z" fill="#FF6C6C"/>
<rect x="149.25" y="121.318" width="22.75" height="4.75" fill="white"/>
</g>
<path d="M177.5 33.5413C184.887 38.6364 187.621 35.2617 198.25 56.1225C198.25 56.1225 205.088 67.843 206.5 76.5412C207.893 85.123 213 91.2912 213 91.2912L200.75 87.7912C200.75 87.7912 196 81.2912 189 72.5412C182 63.7912 180.75 60.7913 179 57.5413C177.25 54.2913 174.272 40.3825 177.5 33.5413Z" fill="#3F2B18"/>
<path d="M141.586 88.4721C141.638 88.4505 141.759 88.404 141.939 88.3407C142.253 88.2311 142.61 88.1204 143.002 88.0169C144.116 87.7222 145.268 87.546 146.384 87.546C147.495 87.546 148.609 87.7208 149.665 88.0125C150.034 88.1146 150.368 88.2235 150.658 88.3312C150.824 88.3927 150.933 88.4373 150.977 88.4569C151.733 88.795 152.62 88.4559 152.958 87.6996C153.296 86.9433 152.957 86.0561 152.201 85.7181C152.099 85.6726 151.93 85.6033 151.701 85.5183C151.333 85.3819 150.919 85.2467 150.464 85.121C149.165 84.7618 147.788 84.546 146.384 84.546C144.983 84.546 143.582 84.7603 142.235 85.1166C141.765 85.2409 141.334 85.3744 140.949 85.5088C140.711 85.592 140.536 85.6594 140.432 85.7029C139.667 86.0215 139.306 86.8997 139.624 87.6644C139.943 88.4291 140.821 88.7907 141.586 88.4721Z" fill="#46413D"/>
<path d="M171.086 88.4721C171.138 88.4505 171.259 88.404 171.439 88.3407C171.753 88.2311 172.11 88.1204 172.502 88.0169C173.616 87.7222 174.768 87.546 175.884 87.546C176.995 87.546 178.109 87.7208 179.165 88.0125C179.534 88.1146 179.868 88.2235 180.158 88.3312C180.324 88.3927 180.433 88.4373 180.477 88.4569C181.233 88.795 182.12 88.4559 182.458 87.6996C182.796 86.9433 182.457 86.0561 181.701 85.7181C181.599 85.6726 181.43 85.6033 181.201 85.5183C180.833 85.3819 180.419 85.2467 179.964 85.121C178.665 84.7618 177.288 84.546 175.884 84.546C174.483 84.546 173.082 84.7603 171.735 85.1166C171.265 85.2409 170.834 85.3744 170.449 85.5088C170.211 85.592 170.036 85.6594 169.932 85.7029C169.167 86.0215 168.806 86.8997 169.124 87.6644C169.443 88.4291 170.321 88.7907 171.086 88.4721Z" fill="#46413D"/>
<path d="M136.274 121.108C140.674 121.108 144.24 117.539 144.24 113.137C144.24 108.735 140.674 105.167 136.274 105.167C131.874 105.167 128.308 108.735 128.308 113.137C128.308 117.539 131.874 121.108 136.274 121.108Z" fill="#F2CACA"/>
<path d="M134.25 85.9373C137.359 72.261 170.167 56.9973 177.5 54.6336C180.524 53.6588 178.01 31.9023 173 31.2913C149.75 28.4559 130.092 46.9372 122 59.7913C108.681 80.949 110.178 101.683 116.5 149.291C117.98 160.437 120.25 164.937 122 166.937C122 166.937 132 169.187 141.75 159.937C136.123 139.566 131.142 99.6135 134.25 85.9373Z" fill="#352312"/>
<path d="M151.13 39.1019C145.371 42.3931 142.552 44.1621 139.419 46.6082C135.589 49.5983 132.03 53.1801 128.027 58.1535C127.594 58.6913 127.679 59.4782 128.217 59.911C128.754 60.3439 129.541 60.2588 129.974 59.721C133.862 54.891 137.286 51.4447 140.957 48.5788C143.97 46.2268 146.709 44.5076 152.37 41.2726C152.97 40.93 153.178 40.1665 152.836 39.5671C152.493 38.9677 151.73 38.7594 151.13 39.1019Z" fill="#795839"/>
<path d="M147.319 47.3892C144.038 49.5219 142.342 50.8411 140.095 53.2002C139.619 53.7001 139.638 54.4913 140.138 54.9674C140.638 55.4435 141.429 55.4242 141.905 54.9243C143.995 52.7299 145.55 51.5211 148.681 49.4853C149.26 49.1091 149.425 48.3348 149.048 47.756C148.672 47.1772 147.898 47.013 147.319 47.3892Z" fill="#795839"/>
<path d="M141.359 97.8757L148.093 96.8109C148.775 96.7031 149.24 96.0629 149.132 95.381C149.025 94.6991 148.384 94.2338 147.703 94.3416L140.969 95.4063C140.287 95.5142 139.821 96.1543 139.929 96.8362C140.037 97.5181 140.677 97.9835 141.359 97.8757Z" fill="black"/>
<path d="M173.335 96.1589L180.069 97.2234C180.751 97.3312 181.391 96.8658 181.499 96.1839C181.607 95.502 181.142 94.8619 180.46 94.7541L173.726 93.6896C173.044 93.5818 172.404 94.0472 172.296 94.7291C172.188 95.411 172.653 96.0511 173.335 96.1589Z" fill="black"/>
<path d="M143.623 95.5761L143.622 102.771C143.622 104.427 144.965 105.771 146.622 105.771C148.279 105.771 149.622 104.428 149.622 102.771L149.623 95.5764C149.623 93.9195 148.28 92.5763 146.623 92.5762C144.966 92.5762 143.623 93.9193 143.623 95.5761Z" fill="black"/>
<path d="M172.079 94.924V102.119C172.079 103.776 173.422 105.119 175.079 105.119C176.736 105.119 178.079 103.776 178.079 102.119V94.924C178.079 93.2671 176.736 91.924 175.079 91.924C173.422 91.924 172.079 93.2671 172.079 94.924Z" fill="black"/>
<path d="M157.507 102.567C157.424 103.17 157.331 103.576 156.888 105.355C156.781 105.786 156.705 106.098 156.632 106.412C156.092 108.731 155.925 110.317 156.277 111.786C156.829 114.088 158.656 115.414 161.35 115.414V111.164C161.068 111.164 160.848 111.137 160.685 111.094C160.587 111.067 160.531 111.041 160.501 111.019C160.494 111.014 160.492 111.012 160.484 110.998C160.46 110.96 160.434 110.894 160.41 110.795C160.26 110.17 160.375 109.076 160.771 107.375C160.838 107.087 160.91 106.793 161.012 106.382C161.504 104.407 161.604 103.969 161.717 103.145L157.507 102.567Z" fill="#EBBAAA"/>
<path d="M186.347 121.108C190.747 121.108 194.313 117.539 194.313 113.137C194.313 108.735 190.747 105.167 186.347 105.167C181.947 105.167 178.381 108.735 178.381 113.137C178.381 117.539 181.947 121.108 186.347 121.108Z" fill="#F2CACA"/>
<path fill-rule="evenodd" clip-rule="evenodd" d="M167.552 91.3225C164.572 91.6506 162.53 94.4216 162.996 97.4543L164.153 104.995C164.438 106.85 165.786 108.32 167.57 108.684C170.756 109.335 173.948 109.742 176.831 109.742C179.27 109.742 181.974 109.411 184.764 108.851C187.422 108.316 189.431 106.11 189.886 103.313L190.967 96.6674C191.384 94.1059 189.648 91.7354 187.114 91.4333C182.92 90.9332 178.874 90.6691 175.387 90.7713C172.72 90.8495 170.086 91.0435 167.552 91.3225ZM166.239 104.675L165.081 97.1341C164.795 95.2702 166.015 93.6147 167.783 93.42C170.264 93.1469 172.841 92.957 175.449 92.8807C178.814 92.782 182.765 93.0398 186.864 93.5287C188.193 93.6871 189.11 94.9396 188.884 96.3284L187.803 102.974C187.485 104.926 186.12 106.426 184.348 106.782C181.684 107.317 179.111 107.632 176.831 107.632C174.112 107.632 171.052 107.242 167.993 106.617C167.09 106.432 166.392 105.672 166.239 104.675Z" fill="#282727"/>
<path d="M193.237 93.0948C193.144 92.532 189.681 91.8443 187.962 91.5705C189.087 92.5085 189.525 95.8693 189.603 97.4323L192.651 96.4945C192.886 95.5958 193.331 93.6575 193.237 93.0948Z" fill="#282727"/>
<path fill-rule="evenodd" clip-rule="evenodd" d="M144.863 90.7713C147.531 90.8495 150.164 91.0435 152.698 91.3225C155.679 91.6506 157.721 94.4216 157.255 97.4543L156.097 104.995C155.813 106.85 154.464 108.32 152.68 108.684C149.494 109.335 146.302 109.742 143.419 109.742C140.981 109.742 138.276 109.411 135.487 108.851C132.828 108.316 130.82 106.11 130.365 103.313L129.284 96.6675C128.867 94.1059 130.602 91.7354 133.137 91.4333C137.33 90.9332 141.376 90.6691 144.863 90.7713ZM152.257 106.617C153.16 106.432 153.858 105.672 154.011 104.675L155.169 97.1341C155.455 95.2702 154.235 93.6147 152.467 93.42C149.986 93.1469 147.409 92.957 144.801 92.8807C141.436 92.782 137.485 93.0398 133.386 93.5287C132.057 93.6871 131.14 94.9396 131.366 96.3286L132.447 102.974C132.765 104.926 134.13 106.426 135.902 106.782C138.566 107.317 141.139 107.632 143.419 107.632C146.138 107.632 149.198 107.242 152.257 106.617Z" fill="#282727"/>
<path d="M127.013 93.0948C127.107 92.532 130.569 91.8443 132.289 91.5705C131.163 92.5085 130.726 95.8693 130.647 97.4323L127.599 96.4945C127.365 95.5958 126.919 93.6575 127.013 93.0948Z" fill="#282727"/>
<path d="M156.281 97.7253C156.461 97.6413 157.144 97.3174 157.303 97.244C157.616 97.0988 157.846 97.0004 158.055 96.9222C158.643 96.7029 159.179 96.6118 160.06 96.6118C161.441 96.6118 162.668 97.0254 163.197 97.4665L165.599 94.5845C164.371 93.5618 162.291 92.8603 160.06 92.8603C158.743 92.8603 157.763 93.0268 156.743 93.4076C156.43 93.5246 156.119 93.6579 155.727 93.8398C155.549 93.922 154.859 94.249 154.695 94.3257L156.281 97.7253Z" fill="#282727"/>
<path d="M95.152 326.898C97.172 324.161 96.5915 320.306 93.8554 318.286C91.1193 316.266 87.2637 316.846 85.2437 319.582C82.2694 323.611 80.0402 327.785 79.0722 331.46C78.4178 333.944 78.2944 336.291 78.9225 338.507C79.7735 341.511 81.9317 343.809 84.9532 344.851C88.1682 345.961 91.6738 344.254 92.7831 341.039C93.622 338.607 92.8504 336.01 91.0341 334.409C91.5954 332.458 93.094 329.685 95.152 326.898Z" fill="#F6DDD6"/>
<path d="M135.139 343.876C136.247 347.091 139.752 348.8 142.967 347.692C145.99 346.651 148.149 344.353 149.001 341.349C149.629 339.133 149.506 336.786 148.851 334.302C147.883 330.628 145.654 326.453 142.68 322.423C140.661 319.687 136.805 319.106 134.069 321.125C131.332 323.145 130.751 327 132.771 329.737C134.828 332.525 136.327 335.298 136.889 337.249C135.074 338.85 134.302 341.445 135.139 343.876Z" fill="#F6DDD6"/>
<path d="M80.5659 321.66L91.9346 311.397L101.408 308.08H120.514L131.725 311.397L146.994 323.002L135.988 335.87L133.778 334.292C135.041 340.607 134.409 336.975 135.199 347.24C123.514 349.135 105.619 349.345 94.461 347.24V335.87L80.5659 321.66Z" fill="#FFAEC9"/>
<path d="M93.7966 346.838C99.8699 347.404 108.499 347.905 115.914 348.054C125.619 348.249 132.696 347.876 136.153 346.745L134.877 342.843C129.52 344.595 109.688 344.197 94.1779 342.75L93.7966 346.838Z" fill="#FFC8DA"/>
<path d="M111.427 320.183C107.132 320.31 105.677 314.553 104.045 312.13C99.7507 314.01 99.142 320.303 102.932 324.345C107.669 329.398 113.038 323.673 111.427 320.183Z" fill="#FFC8DA"/>
<path d="M111.293 320.318C114.981 320.425 118.166 314.395 119.567 312.345C120.652 313.95 124.413 319.438 121.159 322.863C117.091 327.145 111.574 322.728 111.293 320.318Z" fill="#FFC8DA"/>
<path d="M83.4807 355.54C80.7016 350.74 83.6912 347.013 94.2178 345.75L111.587 348.277L135.903 345.75L143.482 355.54C142.324 359.12 140.489 357.534 138.745 358.382C135.764 359.833 135.587 361.855 131.482 361.855C123.284 361.855 101.376 364.698 89.165 361.855C82.6385 361.75 86.2597 360.34 83.4807 355.54Z" fill="#E199B1"/>
<path d="M83.2502 303.66C88.221 303.66 92.2505 299.631 92.2505 294.66C92.2505 289.689 88.221 285.66 83.2502 285.66C78.2795 285.66 74.25 289.689 74.25 294.66C74.25 299.631 78.2795 303.66 83.2502 303.66Z" fill="#EDCFC5"/>
<rect x="105.83" y="301.765" width="12.6319" height="18.6321" rx="6.31595" fill="#E5CBC3"/>
<path d="M136.936 297.029C142.081 297.029 146.252 292.858 146.252 287.712C146.252 282.567 142.081 278.396 136.936 278.396C131.791 278.396 127.62 282.567 127.62 287.712C127.62 292.858 131.791 297.029 136.936 297.029Z" fill="#EBBAAA"/>
<path d="M111.988 317.238C128.993 317.238 142.778 303.452 142.778 286.447C142.778 269.443 128.993 255.657 111.988 255.657C94.9828 255.657 81.1975 269.443 81.1975 286.447C81.1975 303.452 94.9828 317.238 111.988 317.238Z" fill="#F6DDD6"/>
<path fill-rule="evenodd" clip-rule="evenodd" d="M109.013 301.34L109.298 303.248C109.736 306.18 112.469 308.203 115.401 307.765C118.334 307.328 120.356 304.595 119.917 301.663L119.632 299.753L109.013 301.34Z" fill="#393939"/>
<mask id="mask4_0_783" style="mask-type:luminance" maskUnits="userSpaceOnUse" x="108" y="298" width="12" height="10">
<path fill-rule="evenodd" clip-rule="evenodd" d="M108.948 300.42C108.943 300.708 108.963 301.003 109.007 301.295L109.298 303.248C109.737 306.18 112.469 308.203 115.402 307.765C118.334 307.328 120.356 304.595 119.918 301.663L119.626 299.71C119.582 299.415 119.515 299.128 119.426 298.855L108.948 300.42Z" fill="white"/>
</mask>
<g mask="url(#mask4_0_783)">
<path d="M115.656 309.469C117.424 309.205 118.741 308.21 118.597 307.246C118.453 306.283 116.903 305.717 115.135 305.981C113.366 306.245 112.05 307.24 112.193 308.204C112.337 309.167 113.888 309.733 115.656 309.469Z" fill="#FF6C6C"/>
<rect x="109.013" y="301.34" width="10.7371" height="2.21426" transform="rotate(-8.5 109.013 301.34)" fill="white"/>
</g>
<path d="M98.5664 278.711L99.9875 269.395L94.461 275.869C88.145 280.606 88.7766 282.66 89.5661 275.869C90.3556 269.079 82.7765 286.342 81.8291 292.765C81.408 289.817 79.6381 282.227 80.7238 275.869C81.8291 269.395 82.9344 267.816 87.9872 262.132C93.0399 256.448 103.476 252.047 121.304 254.711C135.041 256.763 141.567 271.816 142.304 280.132L130.146 270.816L116.883 275.869C118.04 275.132 120.546 273.09 121.304 270.816C122.062 268.543 113.198 273.237 108.672 275.869C110.356 274.395 108.672 270.816 108.672 270.816C108.672 270.816 100.251 275.869 98.5664 278.711Z" fill="#373838"/>
<path d="M104.03 298.18C105.774 298.18 107.188 296.767 107.188 295.022C107.188 293.278 105.774 291.865 104.03 291.865C102.286 291.865 100.872 293.278 100.872 295.022C100.872 296.767 102.286 298.18 104.03 298.18Z" fill="#373838"/>
<path d="M104.065 292.346L104.046 292.348C103.958 292.359 103.576 292.41 103.478 292.423C103.275 292.449 103.117 292.468 102.967 292.483C102.219 292.555 101.6 292.529 100.743 292.356C100.23 292.253 99.7303 292.585 99.6272 293.098C99.524 293.611 99.8563 294.111 100.369 294.214C101.414 294.424 102.221 294.459 103.151 294.368C103.324 294.352 103.5 294.331 103.721 294.302C103.824 294.289 104.208 294.238 104.291 294.227L104.31 294.224C104.829 294.157 105.194 293.682 105.127 293.163C105.059 292.644 104.584 292.278 104.065 292.346Z" fill="#373838"/>
<path d="M122.494 295.167C120.806 295.604 119.083 294.589 118.646 292.901C118.209 291.212 119.224 289.489 120.913 289.053C122.601 288.616 124.324 289.631 124.761 291.319C125.198 293.008 124.183 294.731 122.494 295.167Z" fill="#373838"/>
<path d="M121.232 291.408C121.333 291.395 121.68 291.353 121.671 291.354C122.045 291.309 122.285 291.276 122.538 291.233C123.389 291.087 124.137 290.85 125.045 290.41C125.516 290.182 125.712 289.615 125.484 289.144C125.256 288.673 124.689 288.477 124.219 288.705C123.473 289.066 122.896 289.249 122.218 289.365C122.003 289.402 121.788 289.431 121.442 289.474C121.454 289.472 121.103 289.514 120.999 289.527C120.48 289.592 120.111 290.065 120.175 290.584C120.24 291.103 120.713 291.472 121.232 291.408Z" fill="#373838"/>
<path d="M115.753 353.466C112.354 353.585 109.696 356.437 109.815 359.836C109.935 363.235 112.787 365.894 116.186 365.774L121.524 365.587L138.483 363.387C141.856 362.949 144.236 359.861 143.798 356.488C143.361 353.115 140.272 350.736 136.899 351.173L120.514 353.298L115.753 353.466Z" fill="#F6DDD6"/>
<path fill-rule="evenodd" clip-rule="evenodd" d="M99.0406 356.41C99.3069 356.488 99.5287 356.534 99.6948 356.555L99.7156 356.558C99.6576 356.556 99.5995 356.555 99.5412 356.554C99.6228 356.555 99.6843 356.557 99.7278 356.559C99.7335 356.56 99.7294 356.559 99.716 356.558C103.023 356.664 105.672 359.379 105.672 362.712C105.672 366.113 102.915 368.871 99.5138 368.871C98.5198 368.871 97.1705 368.698 95.5659 368.226C93.1051 367.502 90.6354 366.225 88.3085 364.286C87.9094 363.953 87.5635 363.695 87.2733 363.503C85.3771 363.525 83.4965 362.673 82.2715 361.04C80.2307 358.319 80.7819 354.46 83.5026 352.419C84.0304 352.023 84.647 351.691 85.3419 351.453C88.6375 350.323 92.2549 351.543 96.1924 354.824C97.1814 355.648 98.146 356.147 99.0406 356.41ZM99.716 356.558C99.716 356.558 99.716 356.558 99.716 356.558C99.7158 356.558 99.7157 356.558 99.7156 356.558L99.7156 356.558C99.7157 356.558 99.7159 356.558 99.716 356.558Z" fill="#F6DDD6"/>
<path fill-rule="evenodd" clip-rule="evenodd" d="M140.962 273.914C105.409 263.544 83.2318 280.251 80.3291 285.597L79.3027 281.255L79.5396 276.914C84.6371 267.523 100.756 255.009 137.962 265.861L139.778 269.887L140.962 273.914Z" fill="#FFAEC9"/>
<path d="M92.0118 270.877C92.0118 270.877 86.1075 272.627 85.1967 281.098C85.0954 282.085 86.1611 282.673 86.7479 281.98C87.44 281.095 88.4141 280.475 89.5082 280.222C90.1882 282.073 91.1488 283.808 92.3561 285.365C92.4622 285.523 92.6187 285.64 92.7996 285.695C92.9806 285.753 93.1754 285.745 93.3519 285.675C93.5284 285.608 93.6762 285.48 93.7708 285.315C93.8655 285.153 93.9015 284.96 93.8728 284.773C93.7789 278.628 97.3174 272.764 97.3174 272.764L92.0118 270.877Z" fill="#DF5B87"/>
<path d="M101.397 268.882C101.397 268.882 107.502 268.079 111.78 275.447C112.274 276.307 111.539 277.277 110.722 276.884C109.73 276.358 108.587 276.187 107.485 276.4C107.616 278.368 107.444 280.343 106.975 282.257C106.942 282.445 106.847 282.615 106.704 282.74C106.562 282.865 106.381 282.937 106.192 282.947C106.003 282.955 105.816 282.9 105.663 282.787C105.509 282.677 105.399 282.515 105.349 282.332C102.935 276.681 97.3174 272.764 97.3174 272.764L101.397 268.882Z" fill="#DF5B87"/>
<path d="M78.6083 269.348C78.6118 269.566 78.6609 269.78 78.7523 269.978C78.8438 270.175 78.9756 270.352 79.1392 270.495C83.2509 274.119 94.1789 270.417 94.1789 270.417L94.9301 266.86L78.5249 262.428L78.6083 269.348Z" fill="#DF5B87"/>
<path d="M79.739 260.487C79.3972 260.686 79.1102 260.968 78.9036 261.305C78.697 261.643 78.5773 262.026 78.5552 262.421L78.6385 269.342C78.6473 269.514 78.6835 269.684 78.7456 269.845C83.3673 264.875 94.2245 270.407 94.2245 270.407L94.9757 266.85C94.9757 266.85 85.8253 257.08 79.739 260.487Z" fill="#FF88B0"/>
<path d="M113.02 262.034C113.105 262.234 113.147 262.45 113.144 262.668C113.141 262.885 113.092 263.1 113.001 263.298C110.719 268.28 99.2299 269.343 99.2299 269.343L97.0969 266.399L110.281 255.678L113.02 262.034Z" fill="#DF5B87"/>
<path d="M108.382 254.398C108.776 254.442 109.152 254.582 109.478 254.806C109.804 255.03 110.07 255.332 110.251 255.684L112.989 262.04C113.051 262.201 113.087 262.371 113.096 262.543C106.853 259.883 99.184 269.352 99.184 269.352L97.051 266.409C97.051 266.409 101.436 253.761 108.382 254.398Z" fill="#FF88B0"/>
<path d="M90.0915 268.933C90.2425 269.643 90.5507 270.313 90.9985 270.904C91.4463 271.494 92.0249 271.995 92.7014 272.376C93.3778 272.757 94.1388 273.012 94.9408 273.126C95.7429 273.239 96.5704 273.21 97.376 273.038C98.1816 272.867 98.9495 272.558 99.6361 272.128C100.323 271.698 100.914 271.155 101.377 270.532C101.84 269.908 102.165 269.216 102.334 268.494C102.503 267.772 102.512 267.035 102.361 266.325C102.056 264.89 101.117 263.651 99.7508 262.881C98.3847 262.111 96.7032 261.873 95.0762 262.219C93.4492 262.565 92.01 263.466 91.0752 264.725C90.1404 265.985 89.7865 267.498 90.0915 268.933Z" fill="#FF88B0"/>
</svg>
