<svg width="300" height="400" viewBox="0 0 300 400" fill="none" xmlns="http://www.w3.org/2000/svg">
<path d="M149.346 277.771C167.759 277.771 182.685 271.391 182.685 263.52C182.685 255.649 167.759 249.269 149.346 249.269C130.933 249.269 116.007 255.649 116.007 263.52C116.007 271.391 130.933 277.771 149.346 277.771Z" fill="#384138"/>
<path d="M126.001 298.844C125.719 303.576 125.397 308.09 125.009 312.903C124.727 316.409 123.804 327.073 123.775 327.413C123.332 332.701 123.061 336.557 122.889 340.368C122.643 345.82 122.623 350.917 122.856 356.316C123.056 360.933 126.96 364.514 131.577 364.315C136.194 364.115 139.775 360.211 139.576 355.594C139.365 350.705 139.382 346.098 139.607 341.124C139.768 337.565 140.025 333.904 140.452 328.811C140.477 328.516 141.403 317.812 141.69 314.246C142.087 309.323 142.416 304.695 142.706 299.841C142.982 295.228 139.465 291.265 134.852 290.99C130.239 290.714 126.276 294.231 126.001 298.844Z" fill="#2C2F34"/>
<path d="M112.782 233.057H153.138L146.296 306.01L141.284 348.778C141.284 348.778 135.749 349.94 131.173 349.81C126.597 349.68 121.411 348.778 121.411 348.778L114.089 310.195V265.032L111.039 261.5L112.782 233.057Z" fill="#384138"/>
<mask id="mask0_0_932" style="mask-type:luminance" maskUnits="userSpaceOnUse" x="111" y="233" width="43" height="117">
<path d="M112.782 233.057H153.138L146.296 306.01L141.284 348.778C141.284 348.778 135.749 349.94 131.173 349.81C126.597 349.68 121.411 348.778 121.411 348.778L114.089 310.195V265.032L111.039 261.5L112.782 233.057Z" fill="white"/>
</mask>
<g mask="url(#mask0_0_932)">
<path d="M132.637 300.68C131.944 301.375 129.536 302.663 129.966 302.82C129.202 302.975 126.539 304.953 123.425 299.965C120.9 297.523 120.502 299.083 118.211 299.548C116.378 299.92 114.417 298.103 113.666 297.145C115.575 296.758 119.768 297 122.18 293.848C125.196 289.905 123.273 295.175 128.856 293.3C134.439 291.425 131.765 293.463 132.681 293.275C135.72 294.138 135.411 297.898 132.637 300.68Z" fill="#7C6832"/>
<path d="M139.921 321.128C139.018 321.513 138.363 322.113 136.643 322.113C135.876 321.97 132.667 322.805 131.648 317.015C130.222 313.803 129.268 315.1 126.969 314.673C125.13 314.333 123.994 311.91 123.656 310.743C125.571 311.098 129.368 312.895 132.786 310.875C137.058 308.35 133.312 313.368 139.18 312.868C142.939 312.548 142.281 314.73 143.201 314.903C145.695 316.838 143.536 319.588 139.921 321.128Z" fill="#7C6832"/>
<path d="M126.161 339.495C127.359 340.008 130.959 340.393 130.509 340.8C131.525 340.613 139.495 344.283 140.847 336.605C142.738 332.345 140.289 331.503 143.337 330.938C145.776 330.485 147.283 327.273 147.732 325.725C145.191 326.195 140.157 328.578 135.624 325.9C129.958 322.55 134.94 328.075 127.144 328.543C119.347 329.01 123.648 330.188 122.428 330.415C119.12 332.983 121.368 337.453 126.161 339.495Z" fill="#7C6832"/>
<path d="M120.32 309.41C121.235 309.018 121.759 308.103 123.327 308.103C126.596 308.103 127.956 307.268 130.257 311.24C132.479 313.333 133.264 312.288 135.879 312.288C137.971 312.288 139.714 313.855 140.324 314.64C138.145 314.64 132.95 315.11 129.603 316.993C125.419 319.348 128.296 311.765 121.759 312.288C115.222 312.81 119.667 314.64 118.621 314.64C115.483 313.595 116.66 310.98 120.32 309.41Z" fill="#B69B55"/>
<path d="M137.056 328.573C136.177 328.195 132.122 332.495 132.189 332.68C131.301 332.595 129.264 328.753 126.989 332.683C124.766 334.775 124.113 331.448 121.498 331.448C119.406 331.448 117.663 333.018 117.052 333.803C119.232 333.803 124.426 334.273 127.773 336.155C131.957 338.508 129.604 333.28 136.141 333.803C142.678 334.325 140.063 331.448 141.109 331.448C144.247 330.403 140.717 330.14 137.056 328.573Z" fill="#B69B55"/>
<path d="M144.77 294.74C144.051 294.1 140.606 299.158 140.821 298.775C140.268 298.878 137.489 291.545 137.435 299.4C136.766 303.655 135.898 301.75 134.24 302.058C132.913 302.305 132.363 305.503 132.253 307.073C133.635 306.815 136.241 304.803 139.029 308.003C142.515 312.003 138.759 303.298 143.089 303.528C147.419 303.758 147.034 304.645 147.697 304.52C149.317 302.155 147.646 297.305 144.77 294.74Z" fill="#B69B55"/>
<path d="M122.382 304.845C121.73 305.125 121.236 305.555 120.017 305.555C119.464 305.452 117.149 306.055 116.414 301.88C115.385 299.562 114.697 300.497 113.039 300.19C111.712 299.945 110.893 298.197 110.649 297.355C112.031 297.612 114.769 298.907 117.235 297.45C120.316 295.63 117.823 297.525 121.847 298.887C122.805 299.212 123.72 299.37 124.412 299.905C126.211 301.302 124.989 303.735 122.382 304.845Z" fill="#B69B55"/>
<path d="M118.983 291.35C118.331 291.627 116.373 291.837 116.618 292.06C116.065 291.957 113.75 292.56 113.015 288.382C111.986 286.065 111.298 287.002 109.64 286.695C108.313 286.447 107.494 284.702 107.25 283.86C108.632 284.115 111.37 285.41 113.836 283.955C116.917 282.132 114.207 285.137 118.448 285.392C122.689 285.645 120.35 286.287 121.013 286.41C122.812 287.807 121.59 290.237 118.983 291.35Z" fill="#B69B55"/>
<path d="M126.423 284.643C125.492 284.245 123.286 284.643 121.324 286.08C119.494 288.305 119.233 290.658 116.879 287.52C115.409 290.83 114.101 288.753 111.731 289.193C109.836 289.543 109.253 291.905 108.904 293.108C110.879 292.743 113.763 292.8 117.795 292.095C124.528 290.918 119.137 288.14 125.116 289.193C126.335 289.408 127.037 289.775 127.984 289.598C130.556 287.603 130.149 286.233 126.423 284.643Z" fill="#67774C"/>
<path d="M135.632 288.41C136.665 287.467 138.873 287.852 140.643 290.322C142.138 294.352 143.219 294.712 145.031 293.59C146.731 297.095 147.629 294.272 149.999 294.712C151.895 295.065 152.077 299.587 152.223 301.885C150.248 301.52 147.258 302.145 143.219 301.482C136.473 300.375 142.368 296.727 136.173 297.095C134.18 297.212 133.918 298.167 131.696 297.905C129.395 294.45 131.5 292.187 135.632 288.41Z" fill="#67774C"/>
<path d="M123.167 315.805C122.118 314.992 119.806 315.402 117.89 317.652C116.215 321.287 116.237 325.352 113.312 319.585C112.164 325.162 110.495 321.377 108.013 321.837C106.028 322.205 105.707 326.24 105.488 328.292C107.557 327.907 110.654 328.38 114.882 327.67C121.944 326.487 115.314 323.645 121.759 323.792C123.167 323.825 122.282 326.8 125.476 324.635C128.035 321.837 127.363 319.05 123.167 315.805Z" fill="#67774C"/>
<path d="M114.466 276.04C115.369 276.425 116.024 277.025 117.744 277.025C118.511 276.882 121.72 277.717 122.739 271.927C124.165 268.715 125.119 270.012 127.418 269.587C129.257 269.245 130.393 266.825 130.731 265.655C128.816 266.01 125.019 267.807 121.601 265.787C117.329 263.263 121.075 268.28 115.207 267.78C111.448 267.46 112.106 269.645 111.186 269.815C108.692 271.75 110.851 274.5 114.466 276.04Z" fill="#7C6832"/>
<path d="M139.409 275.23C138.494 274.838 137.971 273.923 136.402 273.923C133.133 273.923 131.774 273.085 129.473 277.06C127.25 279.153 126.466 278.105 123.851 278.105C121.759 278.105 120.016 279.675 119.406 280.46C121.585 280.46 126.78 280.93 130.127 282.813C134.31 285.165 131.434 277.583 137.971 278.105C144.508 278.628 140.063 280.46 141.109 280.46C144.247 279.413 143.07 276.798 139.409 275.23Z" fill="#B69B55"/>
<path d="M140.484 273.182C141.533 272.372 143.845 272.78 145.761 275.03C147.436 278.665 147.414 282.73 150.338 276.962C151.487 282.54 153.155 278.755 155.638 279.215C157.623 279.582 157.944 283.617 158.163 285.67C156.094 285.285 152.997 285.757 148.769 285.05C141.707 283.865 148.337 281.022 141.892 281.17C140.484 281.202 141.369 284.177 138.175 282.012C135.616 279.215 136.288 276.427 140.484 273.182Z" fill="#67774C"/>
<path d="M123.75 341.693C124.799 340.88 127.112 341.288 129.028 343.54C130.703 347.175 130.68 351.24 133.605 345.473C134.754 351.05 136.422 347.263 138.904 347.723C140.89 348.093 141.21 352.128 141.429 354.178C139.361 353.795 136.264 354.268 132.036 353.558C124.974 352.375 131.011 349.298 124.566 349.445C122.093 349.5 121.204 349.7 120.991 349.913C121.102 350.075 121.221 350.24 121.35 350.405C121.567 350.518 121.733 350.575 121.441 350.52C121.41 350.483 121.38 350.443 121.35 350.405C121.112 350.28 120.812 350.093 120.991 349.913C119.039 347.053 119.829 344.725 123.75 341.693Z" fill="#67774C"/>
</g>
<path d="M157.031 299.841C157.321 304.697 157.651 309.327 158.048 314.252C158.335 317.816 159.261 328.517 159.286 328.809C159.712 333.899 159.969 337.559 160.13 341.116C160.355 346.094 160.373 350.702 160.162 355.594C159.963 360.211 163.544 364.115 168.161 364.315C172.778 364.514 176.682 360.933 176.881 356.316C177.114 350.914 177.095 345.815 176.848 340.36C176.676 336.55 176.405 332.696 175.962 327.411C175.934 327.074 175.011 316.413 174.729 312.909C174.341 308.093 174.019 303.578 173.736 298.844C173.461 294.231 169.498 290.715 164.885 290.99C160.272 291.265 156.756 295.228 157.031 299.841Z" fill="#2C2F34"/>
<path d="M186.956 233.057H146.6L153.442 306.01L158.455 348.778C158.455 348.778 163.989 349.94 168.565 349.81C173.141 349.68 178.327 348.778 178.327 348.778L185.649 310.195V265.032L188.699 261.499L186.956 233.057Z" fill="#384138"/>
<mask id="mask1_0_932" style="mask-type:luminance" maskUnits="userSpaceOnUse" x="146" y="233" width="43" height="117">
<path d="M186.956 233.057H146.6L153.442 306.01L158.455 348.778C158.455 348.778 163.989 349.94 168.565 349.81C173.141 349.68 178.327 348.778 178.327 348.778L185.649 310.195V265.032L188.699 261.499L186.956 233.057Z" fill="white"/>
</mask>
<g mask="url(#mask1_0_932)">
<path d="M170.416 304.865C171.109 305.56 173.517 306.845 173.087 307.005C173.851 307.16 176.514 309.138 179.628 304.15C182.153 301.705 182.552 303.265 184.843 303.733C186.675 304.105 188.636 302.285 189.388 301.328C187.478 300.94 183.285 301.183 180.873 298.03C177.857 294.09 179.78 299.358 174.197 297.483C168.614 295.608 171.288 297.645 170.372 297.46C167.334 298.32 167.642 302.08 170.416 304.865Z" fill="#7C6832"/>
<path d="M169.992 321.278C169.088 321.663 168.434 322.26 166.713 322.26C165.947 322.118 162.738 322.955 161.718 317.165C160.293 313.953 159.339 315.248 157.04 314.823C155.201 314.483 154.065 312.06 153.726 310.893C155.642 311.248 159.438 313.043 162.856 311.025C167.129 308.5 163.382 313.515 169.251 313.018C173.01 312.698 172.352 314.88 173.271 315.05C175.766 316.988 173.607 319.735 169.992 321.278Z" fill="#7C6832"/>
<path d="M183.165 318.315C184.363 318.827 187.963 319.212 187.513 319.62C188.529 319.432 196.499 323.102 197.851 315.425C199.742 311.165 197.292 310.322 200.341 309.757C202.78 309.305 204.287 306.092 204.736 304.545C202.195 305.015 197.16 307.397 192.628 304.72C186.962 301.37 191.944 306.895 184.147 307.362C176.351 307.83 180.651 309.007 179.432 309.232C176.124 311.802 178.371 316.272 183.165 318.315Z" fill="#7C6832"/>
<path d="M169.907 328.783C170.786 328.408 174.841 332.705 174.774 332.893C175.662 332.805 177.699 328.963 179.974 332.893C182.197 334.985 182.851 331.66 185.466 331.66C187.558 331.66 189.301 333.228 189.911 334.013C187.732 334.013 182.537 334.485 179.19 336.368C175.006 338.72 177.359 333.49 170.822 334.013C164.286 334.535 166.9 331.66 165.854 331.66C162.716 330.615 166.247 330.353 169.907 328.783Z" fill="#B69B55"/>
<path d="M151.245 294.835C151.964 294.195 155.408 299.253 155.193 298.87C155.746 298.973 158.526 291.64 158.579 299.498C159.249 303.75 160.116 301.848 161.774 302.155C163.101 302.4 163.652 305.6 163.761 307.168C162.379 306.913 159.774 304.898 156.985 308.098C153.5 312.098 157.256 303.393 152.925 303.623C148.595 303.853 148.98 304.74 148.317 304.618C146.697 302.253 148.368 297.4 151.245 294.835Z" fill="#B69B55"/>
<path d="M171.611 320.572C172.263 320.85 172.757 321.282 173.976 321.282C174.529 321.18 176.844 321.782 177.579 317.607C178.607 315.29 179.295 316.225 180.954 315.917C182.28 315.672 183.1 313.925 183.344 313.082C181.962 313.337 179.224 314.635 176.758 313.177C173.676 311.357 176.169 313.252 172.146 314.615C171.188 314.94 170.273 315.097 169.581 315.632C167.781 317.03 169.004 319.462 171.611 320.572Z" fill="#B69B55"/>
<path d="M180.755 291.35C181.406 291.627 183.364 291.837 183.12 292.06C183.672 291.957 185.987 292.56 186.722 288.382C187.751 286.065 188.439 287.002 190.097 286.695C191.424 286.447 192.243 284.702 192.487 283.86C191.106 284.115 188.367 285.41 185.902 283.955C182.82 282.132 185.53 285.137 181.289 285.392C177.048 285.645 179.387 286.287 178.724 286.41C176.925 287.807 178.147 290.237 180.755 291.35Z" fill="#B69B55"/>
<path d="M173.314 284.643C174.245 284.245 176.452 284.643 178.413 286.08C180.243 288.305 180.505 290.658 182.858 287.52C184.328 290.83 185.636 288.753 188.006 289.193C189.902 289.543 190.484 291.903 190.833 293.108C188.858 292.743 185.974 292.8 181.943 292.095C175.209 290.918 180.601 288.14 174.621 289.193C173.402 289.408 172.701 289.775 171.753 289.598C169.182 287.603 169.588 286.233 173.314 284.643Z" fill="#67774C"/>
<path d="M168.05 291.15C167.017 290.205 165.35 285.41 163.579 287.88C162.084 291.913 161.003 292.273 159.191 291.15C157.492 294.653 156.593 291.833 154.224 292.273C152.328 292.623 152.146 297.145 152 299.443C153.975 299.078 156.964 299.705 161.003 299.04C167.749 297.933 161.854 294.288 168.05 294.653C170.043 294.77 170.304 295.725 172.527 295.463C174.828 292.01 172.181 294.925 168.05 291.15Z" fill="#67774C"/>
<path d="M156.696 326.265C157.745 325.452 160.057 325.86 161.973 328.112C163.648 331.747 163.626 335.81 166.551 330.045C167.699 335.62 169.368 331.835 171.85 332.295C173.835 332.662 174.156 336.697 174.375 338.75C172.306 338.367 169.209 338.837 164.981 338.13C157.92 336.947 164.549 334.105 158.104 334.25C156.696 334.282 157.581 337.257 154.387 335.092C151.828 332.295 152.5 329.51 156.696 326.265Z" fill="#67774C"/>
<path d="M161.101 271.858C160.198 272.243 159.544 272.84 157.823 272.84C157.057 272.698 150.103 273.363 149.084 267.573C147.658 264.361 145.892 266.055 143.593 265.63C141.754 265.29 145.174 262.64 144.836 261.472C146.751 261.827 150.548 263.623 153.966 261.604C158.238 259.079 154.492 264.096 160.36 263.597C164.12 263.277 163.461 265.46 164.381 265.63C166.875 267.568 164.716 270.315 161.101 271.858Z" fill="#7C6832"/>
<path d="M160.328 281.885C161.243 282.277 161.766 283.192 163.335 283.192C166.604 283.192 167.963 284.03 170.265 280.055C172.487 277.962 173.272 279.01 175.886 279.01C177.978 279.01 179.722 277.44 180.332 276.655C178.153 276.655 172.958 276.185 169.611 274.302C165.427 271.95 168.303 279.532 161.766 279.01C155.229 278.487 159.674 276.655 158.629 276.655C155.491 277.702 156.667 280.317 160.328 281.885Z" fill="#B69B55"/>
<path d="M151.93 279.98C150.881 279.17 148.569 279.577 146.653 281.83C144.978 285.465 145 289.527 142.075 283.762C140.927 289.337 139.258 285.552 136.776 286.012C134.791 286.38 134.47 290.415 134.251 292.467C136.32 292.085 139.417 292.555 143.645 291.847C150.706 290.665 144.077 287.822 150.522 287.967C151.93 288 151.045 290.975 154.239 288.81C156.798 286.012 156.126 283.225 151.93 279.98Z" fill="#67774C"/>
<path d="M193.244 261.677C192.195 260.866 189.883 261.274 187.967 263.526C186.292 267.16 186.315 271.225 183.39 265.457C182.241 271.035 180.573 267.25 178.091 267.71C176.105 268.077 175.784 272.112 175.566 274.162C177.634 273.78 180.731 274.252 184.959 273.542C192.021 272.36 185.391 269.517 191.837 269.665C193.244 269.697 192.36 272.672 195.554 270.507C198.112 267.71 197.44 264.922 193.244 261.677Z" fill="#67774C"/>
<path d="M175.987 341.693C174.938 340.88 172.625 341.288 170.709 343.54C169.035 347.175 169.057 351.24 166.132 345.473C164.983 351.05 163.315 347.263 160.833 347.723C158.847 348.093 158.527 352.125 158.308 354.178C160.376 353.795 163.473 354.265 167.702 353.558C174.763 352.375 168.726 349.298 175.171 349.445C177.644 349.5 178.534 349.7 178.746 349.913C178.635 350.075 178.516 350.238 178.387 350.405C178.17 350.518 178.005 350.575 178.296 350.52C178.327 350.483 178.357 350.443 178.387 350.405C178.625 350.28 178.925 350.093 178.746 349.913C180.699 347.053 179.908 344.725 175.987 341.693Z" fill="#67774C"/>
</g>
<path d="M122.16 350.047C121.004 349.572 120.539 346.292 120.452 344.71C130.857 345.777 138.873 344.967 141.763 344.525C141.763 347.007 141.763 347.75 141.375 349.5C136.048 351.092 123.605 350.64 122.16 350.047Z" fill="#675D40"/>
<path d="M158.499 349C158.094 347.875 157.932 346.218 157.844 344.635C168.249 345.703 176.265 344.895 179.155 344.45C179.155 346.933 179.521 347.98 177.945 349.785C172.618 351.378 159.945 349.593 158.499 349Z" fill="#675D40"/>
<path d="M203.491 374.315C203.974 373.228 203.626 370.8 203.356 370.395C203.086 369.99 170.255 367.423 170.255 367.423C164.805 367.018 153.68 364.49 152.933 367.423C150.388 377.42 157.151 377.42 161.474 377.42C167.419 377.42 168.124 375.848 172.011 376.34C174.037 376.598 177.01 377.96 190.655 377.96C201.599 377.96 202.41 376.745 203.491 374.315Z" fill="#29282D"/>
<path d="M169.278 356.837C163.763 356.732 161.31 355.152 159.148 351.612H156.446C154.022 351.612 157.054 354.095 156.446 356.837C155.635 360.495 154.95 359.972 154.139 363.367C153.578 365.717 153.463 369.245 154.815 371.202C156.914 374.247 159.546 373.947 164.006 373.947C166.575 373.947 170.9 373.292 174.82 374.337C180.293 375.797 195.365 376.557 199.15 375.382C205.6 373.38 203.611 367.547 200.908 365.327C196.164 361.43 187 361.697 184.687 358.665C182.795 356.185 181.718 350.195 180.362 348.74C177.929 346.127 176.276 348.427 176.712 350.96C177.253 354.095 176.171 356.967 169.278 356.837Z" fill="#504D5A"/>
<mask id="mask2_0_932" style="mask-type:luminance" maskUnits="userSpaceOnUse" x="153" y="347" width="51" height="29">
<path d="M169.278 356.837C163.763 356.732 161.31 355.152 159.148 351.612H156.446C154.022 351.612 157.054 354.095 156.446 356.837C155.635 360.495 154.95 359.972 154.139 363.367C153.578 365.717 153.463 369.245 154.815 371.202C156.914 374.247 159.546 373.947 164.006 373.947C166.575 373.947 170.9 373.292 174.82 374.337C180.293 375.797 195.365 376.557 199.15 375.382C205.6 373.38 203.611 367.547 200.908 365.327C196.164 361.43 187 361.697 184.687 358.665C182.795 356.185 181.718 350.195 180.362 348.74C177.929 346.127 176.276 348.427 176.712 350.96C177.253 354.095 176.171 356.967 169.278 356.837Z" fill="white"/>
</mask>
<g mask="url(#mask2_0_932)">
<path d="M197.547 370.125C200.033 370.125 200.654 368.595 200.654 367.83C200.835 370.215 200.79 375.34 199.168 376.745C197.142 378.502 182.01 377.557 179.984 376.745C177.957 375.935 183.075 373.997 184.644 373.997C186.706 373.997 189.306 373.502 191.467 371.882C193.629 370.26 194.44 370.125 197.547 370.125Z" fill="#29282D"/>
<path d="M175.036 366.86C176.781 367.43 178.207 367.427 179.041 366.835C181.19 365.295 179.968 362.747 179.447 361.748C180.41 362.985 181.367 364.227 182.098 365.568C183.251 367.663 183.68 369.925 182.779 371.325C181.164 373.85 177.606 372.497 175.35 371.355L154.417 360.75L175.036 366.86Z" fill="#29282D"/>
<path d="M200.249 367.017C200.357 365.397 201.015 365.082 201.33 365.127L205.788 365.397L205.248 373.502L199.573 376.745C198.493 376.7 196.331 376.205 196.331 374.585C196.331 372.557 198.358 372.557 199.573 371.342C200.789 370.125 200.114 369.045 200.249 367.017Z" fill="#29282D"/>
<path d="M178.362 351.618C178.038 349.67 177.416 348.465 177.146 348.103L177.686 346.753H180.794C182.235 348.013 184.658 351.103 182.821 353.373C180.524 356.21 178.767 354.048 178.362 351.618Z" fill="#7F8389"/>
</g>
<path d="M182.328 363.115C182.273 363.846 182.993 364.388 183.68 364.134L188.814 362.236L189.645 365.973C189.794 366.642 190.552 366.97 191.141 366.62L196.14 363.65C196.618 363.366 196.775 362.749 196.491 362.271C196.207 361.793 195.59 361.636 195.112 361.92L191.308 364.18L190.529 360.674C190.396 360.079 189.769 359.737 189.197 359.949L184.452 361.703L184.74 357.86C184.795 357.133 184.082 356.592 183.396 356.838L177.693 358.888C177.17 359.076 176.898 359.652 177.086 360.175C177.274 360.698 177.85 360.97 178.373 360.782L182.617 359.257L182.328 363.115Z" fill="#2A2A2A"/>
<path d="M96.5089 374.315C96.0261 373.228 96.3736 370.8 96.6439 370.395C96.9144 369.99 129.745 367.423 129.745 367.423C135.195 367.018 146.32 364.49 147.067 367.423C149.612 377.42 142.849 377.42 138.526 377.42C132.581 377.42 131.876 375.848 127.989 376.34C125.963 376.598 122.99 377.96 109.345 377.96C98.4006 377.96 97.5899 376.745 96.5089 374.315Z" fill="#29282D"/>
<path d="M130.722 356.837C136.237 356.732 138.69 355.152 140.852 351.612H143.554C145.978 351.612 142.946 354.095 143.554 356.837C144.365 360.495 145.05 359.972 145.861 363.367C146.422 365.717 146.537 369.245 145.185 371.202C143.086 374.247 140.454 373.947 135.994 373.947C133.425 373.947 129.1 373.292 125.18 374.337C119.707 375.797 104.635 376.557 100.85 375.382C94.4 373.38 96.3892 367.547 99.0922 365.327C103.836 361.43 113 361.697 115.313 358.665C117.205 356.185 118.282 350.195 119.638 348.74C122.071 346.127 123.724 348.427 123.288 350.96C122.747 354.095 123.829 356.967 130.722 356.837Z" fill="#504D5A"/>
<mask id="mask3_0_932" style="mask-type:luminance" maskUnits="userSpaceOnUse" x="96" y="347" width="51" height="29">
<path d="M130.722 356.837C136.237 356.732 138.69 355.152 140.852 351.612H143.554C145.978 351.612 142.946 354.095 143.554 356.837C144.365 360.495 145.05 359.972 145.861 363.367C146.422 365.717 146.537 369.245 145.185 371.202C143.086 374.247 140.454 373.947 135.994 373.947C133.425 373.947 129.1 373.292 125.18 374.337C119.707 375.797 104.635 376.557 100.85 375.382C94.4 373.38 96.3892 367.547 99.0922 365.327C103.836 361.43 113 361.697 115.313 358.665C117.205 356.185 118.282 350.195 119.638 348.74C122.071 346.127 123.724 348.427 123.288 350.96C122.747 354.095 123.829 356.967 130.722 356.837Z" fill="white"/>
</mask>
<g mask="url(#mask3_0_932)">
<path d="M102.453 370.125C99.9672 370.125 99.3457 368.595 99.3457 367.83C99.1654 370.215 99.2104 375.34 100.832 376.745C102.858 378.502 117.99 377.557 120.016 376.745C122.043 375.935 116.925 373.997 115.356 373.997C113.294 373.997 110.694 373.502 108.533 371.882C106.371 370.26 105.56 370.125 102.453 370.125Z" fill="#29282D"/>
<path d="M124.964 366.86C123.219 367.43 121.793 367.427 120.959 366.835C118.81 365.295 120.032 362.747 120.553 361.748C119.59 362.985 118.633 364.227 117.902 365.568C116.749 367.663 116.32 369.925 117.221 371.325C118.836 373.85 122.394 372.497 124.65 371.355L145.583 360.75L124.964 366.86Z" fill="#29282D"/>
<path d="M99.7512 367.017C99.6429 365.397 98.9854 365.082 98.6702 365.127L94.2119 365.397L94.7522 373.502L100.427 376.745C101.507 376.7 103.669 376.205 103.669 374.585C103.669 372.557 101.642 372.557 100.427 371.342C99.2107 370.125 99.8862 369.045 99.7512 367.017Z" fill="#29282D"/>
<path d="M121.638 351.618C121.962 349.67 122.584 348.465 122.854 348.103L122.314 346.753H119.206C117.765 348.013 115.342 351.103 117.179 353.373C119.476 356.21 121.233 354.048 121.638 351.618Z" fill="#7F8389"/>
</g>
<path d="M117.672 363.115C117.727 363.846 117.007 364.388 116.32 364.134L111.186 362.236L110.355 365.973C110.206 366.642 109.448 366.97 108.859 366.62L103.86 363.65C103.382 363.366 103.225 362.749 103.509 362.271C103.793 361.793 104.41 361.636 104.888 361.92L108.692 364.18L109.471 360.674C109.604 360.079 110.231 359.737 110.803 359.949L115.548 361.703L115.26 357.86C115.205 357.133 115.918 356.592 116.604 356.838L122.307 358.888C122.83 359.076 123.102 359.652 122.914 360.175C122.726 360.698 122.15 360.97 121.627 360.782L117.383 359.257L117.672 363.115Z" fill="#2A2A2A"/>
<path d="M174.338 175.32C182.246 192.371 188.238 224.369 188.238 251.623C188.238 257.182 192.744 261.689 198.304 261.689C203.863 261.689 208.369 257.182 208.369 251.623C208.369 221.626 201.844 186.78 192.601 166.851C190.262 161.807 184.278 159.615 179.235 161.954C174.192 164.293 171.999 170.277 174.338 175.32Z" fill="#EBBAAA"/>
<path d="M114.157 158.587C113.245 160.247 112.374 161.793 110.897 164.389C110.763 164.626 110.3 165.438 110.274 165.484C106.438 172.226 104.543 175.701 102.392 180.141C99.5299 186.05 97.1948 191.883 95.2509 198.211C90.725 212.943 88.4275 230.167 88.4275 252.146C88.4275 257.99 93.1655 262.728 99.0102 262.728C104.855 262.728 109.593 257.99 109.593 252.146C109.593 232.171 111.614 217.021 115.483 204.426C117.096 199.176 119.032 194.341 121.44 189.368C123.327 185.473 125.054 182.305 128.669 175.953C128.695 175.908 129.158 175.095 129.293 174.856C130.819 172.176 131.731 170.556 132.706 168.781C135.521 163.659 133.651 157.224 128.529 154.41C123.406 151.595 116.972 153.465 114.157 158.587Z" fill="#EBBAAA"/>
<path d="M113.467 173.194C114.222 157.772 126.807 145.576 142.246 145.307L154.773 145.088C170.847 144.808 184.151 157.522 184.598 173.593L185.729 214.175L186.271 265.498C186.271 265.498 162.059 267.02 148.405 266.993C134.75 266.967 110.938 265.353 110.938 265.353L111.399 215.458L113.467 173.194Z" fill="#2E3032"/>
<path d="M138.566 196.978C139.245 198.788 139.882 200.444 140.973 203.253C141.058 203.473 141.38 204.301 141.454 204.491C144.176 211.498 145.521 215.131 146.96 219.572C148.822 225.318 150.273 230.901 151.397 236.897C151.929 239.736 154.662 241.606 157.501 241.074C160.34 240.541 162.209 237.809 161.677 234.97C160.467 228.517 158.905 222.504 156.91 216.348C155.392 211.663 153.994 207.886 151.203 200.704C151.129 200.512 150.807 199.685 150.722 199.465C149.645 196.692 149.02 195.067 148.359 193.306C147.345 190.601 144.331 189.231 141.627 190.245C138.922 191.259 137.552 194.274 138.566 196.978Z" fill="#F4FCFF"/>
<path d="M131.962 222.916C135.67 222.262 153.865 223.425 170.541 225.085C173.838 225.413 176.777 223.006 177.106 219.709C177.434 216.411 175.027 213.472 171.729 213.144C153.219 211.301 135.243 210.153 129.88 211.098C126.617 211.673 124.437 214.784 125.012 218.048C125.587 221.311 128.699 223.491 131.962 222.916Z" fill="#FFF06A"/>
<path d="M150.191 174.826C159.677 174.66 167.223 166.245 167.045 156.029C166.867 145.814 159.032 137.667 149.545 137.833C140.059 137.998 132.513 146.414 132.691 156.629C132.87 166.844 140.704 174.991 150.191 174.826Z" fill="#424649"/>
<rect x="136.072" y="134.474" width="24.5774" height="32.1183" rx="12.2887" transform="rotate(-1 136.072 134.474)" fill="#EBBAAA"/>
<path d="M139.541 182.329L117.838 227.37C117.838 227.37 98.7493 216.911 91.4277 210.112C91.4277 210.112 94.4407 192.854 98.7493 177.099C101.248 167.964 107.267 160.828 111.884 156.446C115.583 152.934 120.42 151.053 125.432 150.108L134.834 148.336L139.541 182.329Z" fill="#5788A8"/>
<path d="M91.4551 209.847C91.9738 205.643 96.169 202.932 100.215 204.186L110.739 207.447C114.171 208.511 116.442 211.77 116.25 215.358L116.197 216.369C116.176 216.762 116.125 217.153 116.046 217.539L110.428 244.739C109.942 247.093 107.913 248.813 105.511 248.907L92.692 249.408C89.4699 249.534 86.9026 246.742 87.2975 243.542L91.4551 209.847Z" fill="#5788A8"/>
<path d="M87.7669 249.531L86.4595 238.287C94.827 236.822 106.332 238.897 111.039 240.117L109.732 249.531C109.732 249.531 102.933 250.315 98.7492 250.315C94.5655 250.315 87.7669 249.531 87.7669 249.531Z" fill="#6EA5C9"/>
<path d="M114.961 207.432L100.057 198.803L96.6572 205.863L114.961 207.432Z" fill="#4F7F9D"/>
<path d="M110.106 208.292L95.9011 209.962L98.1582 214.374L110.106 211.55V208.292Z" fill="#4F7F9D"/>
<path d="M112.741 169.283C113.55 157.779 123.186 148.859 134.719 148.859C137.021 148.859 139.134 150.174 140.14 152.244L147.647 167.686C147.647 167.686 142.156 198.018 142.156 212.923C142.156 225.463 139.564 255.774 138.742 265.075C138.609 266.575 137.238 267.643 135.75 267.415L109.949 263.48C108.633 263.279 107.679 262.123 107.73 260.794L109.47 215.799L112.741 169.283Z" fill="#5991B6"/>
<path d="M144.391 167.743C139.61 207.135 136.011 251.485 136.011 265.219H139.411C139.411 251.652 142.999 207.42 147.766 168.152L144.391 167.743Z" fill="#5383A2"/>
<path d="M115.548 200.901L116.16 186.865L135.866 185.121C134.518 191.312 134.132 200.149 133.939 204.568C119.207 210.956 120.59 208.933 115.548 200.901Z" fill="#5383A2"/>
<path d="M135.262 185.154L115.206 182.446L113.669 188.137L121.547 194.501L132.677 190.276L135.262 185.154Z" fill="#6EA5C9"/>
<path d="M138.096 268.727L108.548 265.605C107.883 265.535 107.378 264.974 107.378 264.305V259.729L139.541 263.083V267.428C139.541 268.205 138.868 268.81 138.096 268.727Z" fill="#5383A2"/>
<path d="M147.647 168.993L137.58 144.937L126.597 148.205L127.774 175.007L147.647 168.993Z" fill="#5383A3"/>
<path d="M160.459 182.264L182.163 227.305C182.163 227.305 201.251 216.845 208.573 210.047C208.573 210.047 205.56 192.789 201.251 177.034C198.412 166.653 191.027 158.855 186.319 154.743C183.688 152.445 180.394 151.141 176.961 150.494L165.166 148.271L160.459 182.264Z" fill="#5788A8"/>
<path d="M208.545 209.847C208.026 205.643 203.831 202.932 199.785 204.186L189.261 207.447C185.829 208.511 183.559 211.77 183.75 215.358L183.804 216.369C183.825 216.762 183.875 217.153 183.955 217.539L189.572 244.739C190.059 247.093 192.087 248.813 194.49 248.907L207.308 249.408C210.53 249.534 213.098 246.742 212.703 243.542L208.545 209.847Z" fill="#5788A8"/>
<path d="M212.233 249.531L213.541 238.287C205.173 236.823 193.668 238.897 188.961 240.117L190.269 249.531C190.269 249.531 197.067 250.315 201.251 250.315C205.435 250.315 212.233 249.531 212.233 249.531Z" fill="#6EA5C9"/>
<path d="M184.516 203.771L199.421 195.142L202.82 202.202L184.516 203.771Z" fill="#4F7F9D"/>
<path d="M189.371 204.631L203.576 206.301L201.319 210.714L189.371 207.89V204.631Z" fill="#4F7F9D"/>
<path d="M185.144 167.209C184.044 156.778 175.246 148.859 164.757 148.859C162.608 148.859 160.648 150.086 159.708 152.018L152.092 167.686C152.092 167.686 157.583 198.018 157.583 212.923C157.583 225.463 160.175 255.774 160.997 265.075C161.13 266.575 162.501 267.643 163.989 267.415L189.79 263.48C191.105 263.279 192.06 262.123 192.009 260.794L190.269 215.799L185.144 167.209Z" fill="#5991B6"/>
<path d="M151.973 168.152C156.74 207.42 160.328 251.652 160.328 265.219H163.728C163.728 251.485 160.129 207.135 155.348 167.743L151.973 168.152Z" fill="#5383A2"/>
<path d="M184.191 200.901L183.578 186.865L163.872 185.121C165.221 191.312 165.607 200.149 165.8 204.568C180.532 210.956 179.149 208.933 184.191 200.901Z" fill="#5383A2"/>
<path d="M164.477 185.154L184.533 182.446L186.069 188.137L178.192 194.501L167.061 190.276L164.477 185.154Z" fill="#6EA5C9"/>
<path d="M161.643 268.727L191.19 265.605C191.856 265.535 192.36 264.974 192.36 264.305V259.729L160.198 263.083V267.428C160.198 268.205 160.871 268.81 161.643 268.727Z" fill="#5383A2"/>
<path d="M152.353 168.993L161.375 144.937L173.141 148.205L171.965 175.007L152.353 168.993Z" fill="#5383A3"/>
<path d="M111.948 116.792C119.789 116.792 126.145 110.763 126.145 103.326C126.145 95.8887 119.789 89.8595 111.948 89.8595C104.107 89.8595 97.7505 95.8887 97.7505 103.326C97.7505 110.763 104.107 116.792 111.948 116.792Z" fill="#EBBAAA"/>
<path d="M185.615 117.836C193.456 117.836 199.812 111.807 199.812 104.37C199.812 96.9324 193.456 90.9033 185.615 90.9033C177.774 90.9033 171.418 96.9324 171.418 104.37C171.418 111.807 177.774 117.836 185.615 117.836Z" fill="#EBBAAA"/>
<path d="M108.326 91.2068C105.861 68.0288 123.696 47.6783 146.997 47.0825C170.456 46.4825 189.368 66.1515 187.848 89.5688L187.343 97.3473L186.104 113.922C184.637 133.551 168.283 148.729 148.598 148.729C129.626 148.729 113.624 134.598 111.277 115.772L108.98 97.3473L108.326 91.2068Z" fill="#EED4CC"/>
<path d="M154.622 83.3948L168.554 81.4353C168.707 81.4138 168.862 81.461 168.977 81.5648L173.681 85.803C174.038 86.1253 173.807 86.7188 173.326 86.7145L166.623 86.6565L154.746 87.7273C154.112 87.7845 153.575 87.2675 153.607 86.632L153.723 84.377C153.748 83.8765 154.125 83.4645 154.622 83.3948Z" fill="#393939"/>
<path d="M138.372 83.7143L124.634 81.2818C124.481 81.2545 124.323 81.297 124.205 81.3973L119.392 85.4678C119.025 85.778 119.235 86.3775 119.716 86.3898L126.362 86.5613L138.094 88.0368C138.725 88.116 139.28 87.6185 139.27 86.9828L139.235 84.728C139.228 84.2268 138.866 83.8015 138.372 83.7143Z" fill="#393939"/>
<path d="M143.603 98.875C143.592 98.9539 143.548 99.1201 143.468 99.3534C143.376 99.6179 143.248 99.9429 143.074 100.349C142.87 100.826 141.978 102.797 141.823 103.149C141.287 104.365 140.882 105.372 140.548 106.36C139.516 109.419 139.304 111.925 140.324 114.059C141.61 116.751 144.54 118.064 148.946 118.064V113.619C146.079 113.619 144.757 113.026 144.334 112.142C143.94 111.317 144.065 109.841 144.76 107.782C145.044 106.94 145.404 106.047 145.891 104.941C146.029 104.628 146.935 102.625 147.161 102.097C147.64 100.978 147.908 100.201 148.007 99.4795L143.603 98.875Z" fill="#EBBAAA"/>
<path d="M122.358 59.3257C116.979 61.044 115.799 68.501 115.473 72.5217C114.967 78.7562 109.396 67.7458 109.396 97.444C108.221 97.5585 107.858 91.414 105.657 91.6585C104.313 92.1475 103.173 93.0965 102.127 94.0118C101.268 91.0705 100.167 84.434 99.6164 74.7925C97.786 42.7607 121.961 23.0185 144.435 26.0606C151.981 27.082 162.234 34.5423 162.234 56.0572C151.232 62.1692 132.287 56.1537 122.358 59.3257Z" fill="#6C4242"/>
<path d="M173.261 61.5235C176.441 63.275 177.195 70.0915 178.752 73.8132C182.297 82.2862 184.42 72.074 187.347 97.6627C188.523 97.7773 188.601 91.873 190.802 92.1175C191.717 92.5097 192.371 93.1635 193.809 94.34C194.669 91.3987 196.271 81.9192 196.271 73.5517C196.271 35.7673 170.384 24.224 146.786 25.9074C130.615 27.0609 125.932 36.3463 125.932 57.8627C142.19 60.3082 164.126 56.4925 173.261 61.5235Z" fill="#845959"/>
<path d="M136.964 25.0193L131.919 31.961L162.316 38.1369L191.647 59.6087L194.062 53.0763L192.079 51.2358L192.95 48.7107L189.972 47.6827L191.319 43.7805L187.489 42.4587L187.669 39.1809L184.265 38.006L183.274 34.3244L179.447 34.031L179.017 31.8275L175.4 30.5792L176.113 28.5133L170.507 28.8903L169.944 26.3838L167.103 27.7155L165.689 24.9153L160.934 25.586L159.094 22.639L155.616 23.7503L153.701 23.0894L150.94 24.1915L150.723 22.0614L145.759 24.7154L143.736 22.9895L139.106 26.4009L136.964 25.0193Z" fill="#845959"/>
<path d="M160.619 99.6308C161.335 98.9177 162.769 98.1731 164.538 97.8369C165.385 97.676 166.339 97.7184 167.309 97.9275C167.701 98.0119 168.076 98.1198 168.414 98.2396C168.662 98.328 168.865 98.4144 168.96 98.4639C170.176 99.0993 171.677 98.6286 172.312 97.4127C172.947 96.1968 172.477 94.696 171.261 94.0606C169.386 93.0808 166.372 92.4314 163.611 92.9561C160.876 93.4756 158.543 94.688 157.114 96.1092C156.142 97.077 156.138 98.6498 157.106 99.6223C158.074 100.595 159.646 100.599 160.619 99.6308Z" fill="black"/>
<path d="M137.614 96.3762C136.086 94.846 133.576 93.5339 130.63 92.9708C127.665 92.4039 124.418 93.1081 122.41 94.1646C121.196 94.8033 120.729 96.3054 121.368 97.5196C122.007 98.7337 123.509 99.2002 124.723 98.5614C124.836 98.5019 125.067 98.4028 125.348 98.3022C125.726 98.1674 126.145 98.0461 126.583 97.9512C127.669 97.7155 128.74 97.6677 129.697 97.8506C131.674 98.2285 133.282 99.0689 134.098 99.8868C135.068 100.858 136.641 100.859 137.611 99.8892C138.582 98.9198 138.583 97.347 137.614 96.3762Z" fill="black"/>
<path d="M157.218 123.262C157.409 124.792 158.204 126.65 159.544 127.869C160.346 128.597 161.586 128.538 162.315 127.737C163.043 126.935 162.984 125.695 162.183 124.966C161.625 124.459 161.195 123.453 161.11 122.775C160.975 121.7 159.995 120.938 158.92 121.072C157.846 121.207 157.083 122.187 157.218 123.262Z" fill="#C99584"/>
<path d="M135.188 126.236C136.743 127.238 138.081 127.938 139.847 128.549C142.22 129.369 144.919 129.817 148.051 129.817C151.222 129.817 154.054 129.306 156.531 128.408C158.337 127.754 159.807 126.948 160.863 126.156C161.73 125.506 161.905 124.277 161.256 123.411C160.606 122.544 159.377 122.368 158.51 123.018C157.758 123.582 156.629 124.201 155.194 124.721C153.141 125.465 150.76 125.895 148.051 125.895C145.352 125.895 143.087 125.519 141.129 124.842C139.703 124.349 138.626 123.785 137.312 122.939C136.402 122.352 135.188 122.615 134.602 123.525C134.015 124.435 134.277 125.649 135.188 126.236Z" fill="#C99584"/>
<path d="M149.877 97.0843C148.966 93.8088 151.311 90.5423 154.703 90.3613L173.414 89.3623C176.806 89.1813 179.512 92.1783 178.983 95.5305L177.946 102.106C177.556 104.579 175.493 106.438 172.991 106.572L157.104 107.42C154.601 107.554 152.337 105.925 151.665 103.509L149.877 97.0843Z" fill="#D39800" fill-opacity="0.3"/>
<path fill-rule="evenodd" clip-rule="evenodd" d="M174.421 88.7543V88.7542L174.341 88.7487L174.262 88.753L174.338 90.0818L174.262 88.753L153.389 89.8672L153.389 89.8673L153.331 89.8705L153.274 89.8785L153.274 89.8785C152.454 89.9945 150.922 90.624 149.622 92.1495L151.653 93.8808C152.092 93.365 152.553 93.0248 152.936 92.8103C153.129 92.7028 153.298 92.6288 153.431 92.5808C153.498 92.5568 153.552 92.54 153.594 92.5293C153.606 92.5262 153.616 92.5237 153.625 92.5216L174.326 91.4165C174.573 91.4412 174.996 91.5195 175.442 91.687C175.94 91.874 176.354 92.1295 176.611 92.4325L178.639 90.716C177.981 89.9392 177.108 89.4725 176.37 89.1952C175.626 88.9158 174.904 88.7863 174.421 88.7543ZM174.421 88.7543L174.338 90.0825L174.415 91.4117L174.326 91.4165C174.301 91.4139 174.277 91.4119 174.256 91.4105L174.338 90.0818L174.421 88.7542L174.421 88.7543ZM153.466 91.1958L153.274 89.8785L153.274 89.8785L153.466 91.1947L153.466 91.1958ZM153.466 91.1957L153.659 92.5147C153.658 92.5147 153.652 92.5156 153.642 92.5178L153.625 92.5216L153.543 92.526L153.466 91.1958L153.466 91.1967L153.466 91.1957ZM153.466 91.1957L153.466 91.1947L153.389 89.8673L153.389 89.8672L153.466 91.1957ZM150.805 95.8912L151.046 95.8342L151.034 95.7855L151.019 95.7378C151.019 95.7379 151.019 95.7379 151.019 95.7378L151.019 95.7378L151.019 95.7376L151.018 95.737C151.016 95.7292 151.002 95.6706 150.997 95.5627C150.991 95.448 150.997 95.2977 151.03 95.1232C151.094 94.7807 151.261 94.3405 151.653 93.8807L149.622 92.1495C148.239 93.7721 148.188 95.5479 148.466 96.4869L149.158 99.3595L149.158 99.3595C149.33 100.075 150.049 100.518 150.764 100.349C151.479 100.18 151.919 99.4623 151.747 98.7468L151.747 98.7468L151.046 95.8343L150.805 95.8912ZM149.752 96.1403L150.805 95.8912L149.751 96.1407L149.752 96.1403ZM149.751 96.1407L151.001 95.743L149.752 96.1403L149.751 96.1407ZM151.747 98.7468L151.747 98.7467L149.158 99.3595L149.158 99.3595L151.747 98.7468ZM149.751 96.1407L148.483 96.5437C148.477 96.5252 148.472 96.5062 148.466 96.4869L148.456 96.447L149.751 96.1407ZM151.019 95.7376L151.018 95.7375L151.018 95.7375L151.019 95.7376ZM180.022 94.0792L178.702 93.9546L179.947 94.0491L180.024 94.055L180.024 94.067L180.022 94.0792L180.022 94.0792ZM179.697 97.6877L180.022 94.0792L178.695 93.9541L178.702 93.9546L178.696 93.954L179.947 94.0491L180.024 94.055C180.079 93.287 179.726 91.9975 178.64 90.716L176.611 92.4325C176.97 92.8557 177.165 93.231 177.266 93.5027C177.342 93.7053 177.359 93.8291 177.364 93.8641C177.365 93.869 177.365 93.8721 177.365 93.8735L177.044 97.4377L177.044 97.4378C176.978 98.1698 177.519 98.819 178.251 98.888C178.984 98.957 179.631 98.4198 179.697 97.6878L179.697 97.6877ZM177.365 93.8735L177.369 93.829L178.695 93.9541L177.368 93.8532C177.367 93.8572 177.367 93.8607 177.367 93.8635C177.366 93.8708 177.366 93.8744 177.366 93.8744C177.366 93.8744 177.366 93.8741 177.365 93.8735Z" fill="#877253"/>
<path d="M113.961 95.286C113.494 91.9255 116.254 88.9752 119.642 89.2137L138.332 90.5287C141.72 90.7672 144.005 94.0725 143.034 97.3317L141.129 103.726C140.413 106.13 138.119 107.72 135.619 107.544L119.751 106.428C117.252 106.252 115.222 104.358 114.878 101.879L113.961 95.286Z" fill="#D39800" fill-opacity="0.3"/>
<path fill-rule="evenodd" clip-rule="evenodd" d="M118.406 88.5625L118.366 89.0843L118.406 88.5625L118.348 88.5585L118.29 88.5595L118.305 89.8903L118.366 89.0843L118.305 89.8916L118.29 88.5595C117.462 88.5735 115.857 89.009 114.365 90.3615L114.366 90.3616C112.777 91.8022 112.49 93.5589 112.642 94.5235L112.945 97.4547L112.945 97.4548C113.02 98.1855 113.675 98.7133 114.407 98.6338C115.138 98.554 115.67 97.8973 115.595 97.1665L115.595 97.1665L115.287 94.1915L115.227 94.198L115.287 94.1915L115.282 94.1415L115.273 94.0923L115.273 94.0923L115.273 94.0916C115.272 94.0831 115.265 94.0232 115.275 93.916C115.284 93.8015 115.311 93.6533 115.366 93.4843C115.476 93.1525 115.7 92.7363 116.15 92.3285L116.15 92.3284C116.654 91.8712 117.155 91.5905 117.565 91.425C117.769 91.342 117.947 91.2895 118.086 91.2583C118.155 91.2428 118.211 91.233 118.254 91.2275C118.266 91.2259 118.277 91.2247 118.286 91.2237L138.964 92.6787C139.205 92.7334 139.615 92.8634 140.035 93.0845C140.503 93.3313 140.88 93.6357 141.094 93.9677L141.094 93.9677C141.393 94.4317 141.537 94.828 141.601 95.11C141.65 95.3212 141.65 95.4463 141.65 95.481C141.65 95.4868 141.65 95.4901 141.651 95.4908L140.857 98.9855L143.455 99.5603L140.857 98.9855C140.694 99.7033 141.144 100.414 141.861 100.573C142.579 100.731 143.292 100.278 143.455 99.5603L143.455 99.5603L144.259 96.0215L144.258 96.0215L144.261 96.0095L144.263 95.9978L143.922 95.9287L144.263 95.9977C144.42 95.243 144.242 93.9208 143.335 92.516L143.335 92.516C142.785 91.6643 141.982 91.094 141.287 90.728C140.586 90.359 139.888 90.1418 139.413 90.0503L139.334 90.0353L139.255 90.0295L118.406 88.5625ZM139.154 91.3557L139.413 90.0503L139.413 90.0503L139.154 91.3569L139.154 91.3557ZM139.154 91.356L139.255 90.0295L139.255 90.0295L139.154 91.3557L139.154 91.356ZM139.154 91.356L139.154 91.3573L139.154 91.3569L139.053 92.685L138.964 92.6787C138.939 92.6731 138.916 92.6683 138.895 92.6643L139.154 91.356ZM141.655 95.4703L141.661 95.4465L144.258 96.0215L144.258 96.0215L142.96 95.7342L142.959 95.734L141.655 95.4703ZM141.655 95.4703L141.655 95.472C141.655 95.4714 141.655 95.4708 141.655 95.4702L141.655 95.4703ZM141.655 95.472C141.654 95.4754 141.654 95.4783 141.653 95.4808C141.652 95.4877 141.651 95.4911 141.651 95.491C141.651 95.491 141.651 95.491 141.651 95.4908L141.655 95.472ZM143.335 92.516L143.335 92.516L141.094 93.9677L141.094 93.9678L143.335 92.516ZM118.286 91.2237L118.204 91.218L118.305 89.8916L118.32 91.221L118.32 91.221C118.32 91.221 118.315 91.2211 118.303 91.222L118.286 91.2237ZM115.273 94.0923C115.273 94.0927 115.273 94.0927 115.273 94.0923L115.273 94.0923ZM113.964 94.3354L115.273 94.0923L115.273 94.0923L113.962 94.3357L112.637 94.4798L112.642 94.5235C112.645 94.5423 112.648 94.5608 112.651 94.579L113.962 94.3357L113.964 94.3354ZM113.964 94.3354L115.227 94.198L113.962 94.3358L113.964 94.3354ZM116.15 92.3284L114.366 90.3615L114.366 90.3616L116.149 92.3285L116.15 92.3284ZM115.595 97.1665L112.945 97.4548L112.945 97.4547L115.595 97.1665L115.595 97.1665Z" fill="#877253"/>
<path d="M143.461 97.5619C144.931 96.8012 147.246 96.6028 149.008 97.5518L150.271 95.2072C147.639 93.7898 144.423 94.0654 142.237 95.1971L143.461 97.5619Z" fill="#877253"/>
</svg>
