<svg width="300" height="400" viewBox="0 0 300 400" fill="none" xmlns="http://www.w3.org/2000/svg">
<path d="M146.829 251.107C148.04 256.962 148.187 274.536 147.328 296.766C146.562 316.61 145.104 337.122 143.873 345.74C143.288 349.84 146.137 353.639 150.238 354.225C154.338 354.81 158.137 351.961 158.723 347.86C160.043 338.61 161.532 317.666 162.317 297.345C163.23 273.69 163.08 255.619 161.519 248.07C160.68 244.014 156.712 241.405 152.655 242.244C148.599 243.083 145.991 247.051 146.829 251.107Z" fill="#F6DDD6"/>
<path d="M115.538 246.552C113.935 254.307 112.737 274.044 112.441 295.45C112.121 318.578 112.901 338.057 114.854 347.111C115.727 351.16 119.717 353.735 123.767 352.861C127.816 351.988 130.39 347.998 129.517 343.949C127.887 336.393 127.136 317.626 127.439 295.657C127.722 275.208 128.882 256.095 130.227 249.59C131.066 245.533 128.458 241.565 124.402 240.726C120.345 239.887 116.377 242.496 115.538 246.552Z" fill="#F6DDD6"/>
<path d="M93.75 312.75L106.25 215.75H120.25C124.25 246.75 120.95 316.55 115.75 317.75C110.55 318.95 95.4167 315.418 93.75 312.75Z" fill="#BF7E68"/>
<path d="M185.276 312.75L172.776 215.75H158.776C154.776 246.75 158.076 316.55 163.276 317.75C168.476 318.95 183.61 315.418 185.276 312.75Z" fill="#BF7E68"/>
<path d="M110.084 323.25C113.334 325.75 138.856 328.418 140.523 325.75V273.75L136.334 222H115.549C111.549 253 106.834 320.75 110.084 323.25Z" fill="#C99584"/>
<path d="M137.049 322.907C143.438 324.905 151.614 324.655 169.5 322.907C169.5 322.907 166.155 297.692 164.645 269.235C163.135 240.777 161.323 216.063 161.323 216.063L134.75 219.558C137.049 254.007 138.583 273.229 137.049 322.907Z" fill="#D79D8A"/>
<mask id="mask0_0_1074" style="mask-type:luminance" maskUnits="userSpaceOnUse" x="94" y="215" width="92" height="112">
<path fill-rule="evenodd" clip-rule="evenodd" d="M106.5 215.75L94 312.75C95.1724 314.625 103.008 316.93 109.363 317.715C109.515 320.887 109.828 322.86 110.334 323.25C113.584 325.75 139.106 328.418 140.773 325.75V323.738C146.768 324.775 154.922 324.355 169.75 322.908C169.75 322.908 169.507 321.07 169.121 317.83C175.628 317.188 184.289 314.73 185.526 312.75L173.026 215.75H159.026C158.998 215.968 158.97 216.187 158.943 216.409L135 219.558C135.055 220.38 135.11 221.194 135.164 222H121.167C120.972 219.782 120.75 217.69 120.5 215.75H106.5Z" fill="white"/>
</mask>
<g mask="url(#mask0_0_1074)">
<path fill-rule="evenodd" clip-rule="evenodd" d="M116.228 203.908L110.764 329.038L114.156 329.188L119.619 204.056L116.228 203.908ZM122.333 204.098L116.869 329.23L122.038 329.455L127.501 204.324L122.333 204.098Z" fill="#C57B5C"/>
<rect x="97.9397" y="329.043" width="125.25" height="3.46318" transform="rotate(-84 97.9397 329.043)" fill="#AC6C57"/>
<path fill-rule="evenodd" clip-rule="evenodd" d="M129.93 205.51L131.023 330.755L132.801 330.74L131.708 205.495L129.93 205.51ZM136.144 330.733L135.051 205.488L138.446 205.458L139.539 330.703L136.144 330.733ZM142.882 330.695L141.789 205.449L146.962 205.404L148.055 330.65L142.882 330.695Z" fill="#C57B5C"/>
<path fill-rule="evenodd" clip-rule="evenodd" d="M150.443 204.922L159.18 329.868L160.954 329.743L152.217 204.798L150.443 204.922ZM155.771 204.695L164.508 329.64L167.895 329.403L159.158 204.458L155.771 204.695Z" fill="#C57B5C"/>
<rect x="176.17" y="329.3" width="125.25" height="3.395" transform="rotate(-96 176.17 329.3)" fill="#AC6C57"/>
</g>
<path d="M186.791 360.25C186.791 352.575 181.86 351.638 173.822 349.008C169.886 347.72 165.868 346.598 161.791 345.923C159.23 345.498 158.541 347.75 154.041 347.75C150.028 347.75 145.022 345.763 143.985 345.333C143.855 345.278 143.701 345.23 143.598 345.325C143.573 345.348 143.551 345.378 143.536 345.408C143.057 346.393 140.541 351.763 140.541 356.06C140.541 359.348 140.26 362.58 141.166 364.25C141.575 365.003 144.129 365.415 144.987 365.415H185.401C186.169 365.415 186.791 361.018 186.791 360.25Z" fill="#D0D4DB"/>
<mask id="mask1_0_1074" style="mask-type:luminance" maskUnits="userSpaceOnUse" x="140" y="345" width="47" height="21">
<path d="M186.791 360.25C186.791 352.575 181.86 351.638 173.822 349.008C169.886 347.72 165.868 346.598 161.791 345.923C159.23 345.498 158.541 347.75 154.041 347.75C150.028 347.75 145.022 345.763 143.985 345.333C143.855 345.278 143.701 345.23 143.598 345.325C143.573 345.348 143.551 345.378 143.536 345.408C143.057 346.393 140.541 351.763 140.541 356.06C140.541 359.348 140.26 362.58 141.166 364.25C141.575 365.003 144.129 365.415 144.987 365.415H185.401C186.169 365.415 186.791 361.018 186.791 360.25Z" fill="white"/>
</mask>
<g mask="url(#mask1_0_1074)">
<path d="M161.884 350.76C161.837 350.145 161.113 349.847 160.647 350.247L157.999 352.52C157.813 352.68 157.561 352.74 157.323 352.677L153.907 351.8C153.3 351.642 152.78 352.257 153.035 352.83L154.437 355.985C154.539 356.215 154.519 356.482 154.384 356.692L152.542 359.587C152.209 360.11 152.618 360.787 153.236 360.737L156.775 360.45C157.015 360.43 157.251 360.527 157.407 360.712L159.706 363.417C160.107 363.89 160.876 363.7 161.01 363.095L161.754 359.745C161.808 359.5 161.982 359.3 162.217 359.207L165.44 357.967C166.025 357.742 166.092 356.942 165.552 356.622L162.514 354.827C162.303 354.705 162.166 354.485 162.148 354.24L161.884 350.76Z" fill="#E4E9F1"/>
<path d="M149.916 346.75C146.916 346.55 144.416 344.918 143.416 344C142.416 345 139.941 347.75 140.541 348.75C141.291 350 147.041 351 149.541 351C152.041 351 153.666 347 149.916 346.75Z" fill="#AEB5C0"/>
<path d="M181.755 351.755C184.992 349.925 183.723 353.55 186.632 355.09L192.791 366.897H143.77C142.573 365.185 136.886 360.625 140.541 360.625C148.541 360.625 159.791 361.875 164.666 362.125C169.287 362.362 183.318 362.73 182.541 358.625C181.643 353.877 178.804 353.422 181.755 351.755Z" fill="#AEB5C0"/>
</g>
<path d="M163.356 350.102C162.905 350.69 163.465 351.513 164.178 351.311L169.628 349.761L168.425 350.953C168.124 351.253 168.122 351.74 168.421 352.042C168.721 352.344 169.208 352.346 169.51 352.047L172.834 348.749C173.398 348.189 172.846 347.244 172.081 347.462L165.991 349.194L167.485 347.243C167.924 346.67 167.404 345.863 166.701 346.025L161.24 347.281C161.319 347.23 161.402 347.178 161.489 347.125C161.729 346.979 162.571 346.501 162.724 346.408C163.088 346.187 163.203 345.713 162.982 345.35C162.761 344.987 162.287 344.871 161.924 345.092C161.797 345.169 160.955 345.648 160.688 345.81C159.285 346.664 158.521 347.439 158.521 348.52C158.521 349.015 158.982 349.381 159.464 349.27L164.962 348.005L163.356 350.102Z" fill="#AEB5C0"/>
<path fill-rule="evenodd" clip-rule="evenodd" d="M160.233 343.471C160.24 343.142 160.242 342.947 160.242 342.728C160.242 340.447 161.734 338.75 163.707 338.75C164.668 338.75 165.451 339.151 165.991 339.889C166.51 340.596 166.787 341.588 166.787 342.728C166.787 343.78 166.161 344.727 165.093 345.438C164.146 346.069 162.93 346.448 161.91 346.448C161.421 346.448 161.062 346.36 160.808 346.182C160.573 346.017 160.421 345.776 160.332 345.438C160.255 345.143 160.225 344.784 160.224 344.265C160.223 344.079 160.225 343.948 160.232 343.563L160.232 343.538L160.233 343.471ZM161.772 343.577C161.765 343.964 161.763 344.09 161.763 344.261C161.764 344.549 161.775 344.758 161.795 344.905C161.829 344.907 161.868 344.908 161.91 344.908C162.622 344.908 163.542 344.621 164.239 344.157C164.914 343.708 165.247 343.204 165.247 342.728C165.247 341.896 165.058 341.222 164.749 340.8C164.497 340.455 164.175 340.29 163.707 340.29C162.631 340.29 161.782 341.256 161.782 342.728C161.782 342.959 161.779 343.162 161.773 343.5L161.772 343.553L161.772 343.577Z" fill="#AEB5C0"/>
<path fill-rule="evenodd" clip-rule="evenodd" d="M160.649 346.242L160.647 346.241C160.711 346.135 160.715 346.128 160.734 346.072C160.753 346.035 160.758 346.013 160.762 345.978C160.764 345.971 160.765 345.965 160.766 345.956L160.774 345.912C160.788 345.81 160.786 345.699 160.766 345.576C160.729 345.353 160.642 345.103 160.489 344.757C160.459 344.688 160.427 344.616 160.383 344.523L160.27 344.279L160.271 344.282C160.106 343.928 160.086 343.884 160.018 343.732L160.018 343.732C159.336 342.201 157.816 341.517 156.479 342.112C155.827 342.403 155.416 342.909 155.269 343.567C155.127 344.195 155.235 344.943 155.576 345.71C155.89 346.414 156.596 346.859 157.534 347.012C158.364 347.149 159.302 347.036 159.995 346.729C160.32 346.584 160.527 346.424 160.649 346.242ZM156.771 343.904C156.813 343.718 156.901 343.61 157.106 343.518C157.627 343.286 158.261 343.571 158.611 344.358C158.684 344.521 158.706 344.569 158.871 344.921C158.887 344.957 158.922 345.031 158.949 345.09C158.966 345.127 158.98 345.157 158.986 345.17C159.025 345.255 159.054 345.319 159.08 345.378L159.098 345.418C158.707 345.529 158.215 345.564 157.784 345.493C157.314 345.416 157.059 345.255 156.982 345.084C156.769 344.602 156.708 344.184 156.771 343.904Z" fill="#AEB5C0"/>
<path d="M87.2088 360.25C87.2088 352.575 92.1403 351.638 100.178 349.008C104.115 347.72 108.132 346.598 112.209 345.923C114.771 345.498 115.459 347.75 119.959 347.75C123.972 347.75 128.978 345.763 130.015 345.333C130.145 345.278 130.299 345.23 130.403 345.325C130.428 345.348 130.449 345.378 130.464 345.408C130.944 346.393 133.459 351.763 133.459 356.06C133.459 359.348 133.74 362.58 132.834 364.25C132.425 365.003 129.871 365.415 129.013 365.415H88.5993C87.8313 365.415 87.2088 361.018 87.2088 360.25Z" fill="#D0D4DB"/>
<mask id="mask2_0_1074" style="mask-type:luminance" maskUnits="userSpaceOnUse" x="87" y="345" width="47" height="21">
<path d="M87.2088 360.25C87.2088 352.575 92.1403 351.638 100.178 349.008C104.115 347.72 108.132 346.598 112.209 345.923C114.771 345.498 115.459 347.75 119.959 347.75C123.972 347.75 128.978 345.763 130.015 345.333C130.145 345.278 130.299 345.23 130.403 345.325C130.428 345.348 130.449 345.378 130.464 345.408C130.944 346.393 133.459 351.763 133.459 356.06C133.459 359.348 133.74 362.58 132.834 364.25C132.425 365.003 129.871 365.415 129.013 365.415H88.5993C87.8313 365.415 87.2088 361.018 87.2088 360.25Z" fill="white"/>
</mask>
<g mask="url(#mask2_0_1074)">
<path d="M112.117 350.76C112.163 350.145 112.887 349.847 113.353 350.247L116.001 352.52C116.187 352.68 116.439 352.74 116.677 352.677L120.093 351.8C120.701 351.642 121.22 352.257 120.966 352.83L119.564 355.985C119.462 356.215 119.481 356.482 119.616 356.692L121.458 359.587C121.791 360.11 121.382 360.787 120.765 360.737L117.226 360.45C116.985 360.43 116.75 360.527 116.593 360.712L114.294 363.417C113.893 363.89 113.125 363.7 112.99 363.095L112.246 359.745C112.192 359.5 112.018 359.3 111.784 359.207L108.56 357.967C107.975 357.742 107.908 356.942 108.448 356.622L111.486 354.827C111.697 354.705 111.834 354.485 111.852 354.24L112.117 350.76Z" fill="#E4E9F1"/>
<path d="M124.084 346.75C127.084 346.55 129.584 344.918 130.584 344C131.584 345 134.059 347.75 133.459 348.75C132.709 350 126.959 351 124.459 351C121.959 351 120.334 347 124.084 346.75Z" fill="#AEB5C0"/>
<path d="M92.2448 351.755C89.0078 349.925 90.2773 353.55 87.3685 355.09L81.2088 366.897H130.23C131.428 365.185 137.115 360.625 133.459 360.625C125.459 360.625 114.209 361.875 109.334 362.125C104.713 362.362 90.682 362.73 91.4588 358.625C92.357 353.877 95.1965 353.422 92.2448 351.755Z" fill="#AEB5C0"/>
</g>
<path d="M110.644 350.102C111.095 350.69 110.535 351.513 109.822 351.311L104.372 349.761L105.575 350.953C105.876 351.253 105.878 351.74 105.579 352.042C105.279 352.344 104.792 352.346 104.49 352.047L101.166 348.749C100.602 348.189 101.154 347.244 101.919 347.462L108.009 349.194L106.515 347.243C106.077 346.67 106.596 345.863 107.299 346.025L112.76 347.281C112.681 347.23 112.598 347.178 112.511 347.125C112.271 346.979 111.429 346.501 111.276 346.408C110.912 346.187 110.797 345.713 111.018 345.35C111.239 344.987 111.713 344.871 112.076 345.092C112.203 345.169 113.045 345.648 113.312 345.81C114.715 346.664 115.479 347.439 115.479 348.52C115.479 349.015 115.018 349.381 114.536 349.27L109.038 348.005L110.644 350.102Z" fill="#AEB5C0"/>
<path fill-rule="evenodd" clip-rule="evenodd" d="M113.767 343.471C113.761 343.142 113.758 342.947 113.758 342.728C113.758 340.447 112.266 338.75 110.293 338.75C109.332 338.75 108.549 339.151 108.009 339.889C107.491 340.596 107.213 341.588 107.213 342.728C107.213 343.78 107.839 344.727 108.907 345.438C109.854 346.069 111.07 346.448 112.09 346.448C112.579 346.448 112.938 346.36 113.192 346.182C113.427 346.017 113.579 345.776 113.668 345.438C113.745 345.143 113.775 344.784 113.776 344.265C113.777 344.079 113.775 343.948 113.768 343.563L113.768 343.538L113.767 343.471ZM112.228 343.577C112.235 343.964 112.237 344.09 112.237 344.261C112.236 344.549 112.225 344.758 112.205 344.905C112.171 344.907 112.132 344.908 112.09 344.908C111.378 344.908 110.458 344.621 109.761 344.157C109.086 343.708 108.753 343.204 108.753 342.728C108.753 341.896 108.942 341.222 109.251 340.8C109.503 340.455 109.825 340.29 110.293 340.29C111.369 340.29 112.218 341.256 112.218 342.728C112.218 342.959 112.221 343.162 112.227 343.5L112.228 343.553L112.228 343.577Z" fill="#AEB5C0"/>
<path fill-rule="evenodd" clip-rule="evenodd" d="M113.351 346.242L113.353 346.241C113.289 346.135 113.285 346.128 113.266 346.072C113.247 346.035 113.242 346.013 113.238 345.978C113.237 345.971 113.235 345.965 113.234 345.956L113.226 345.912C113.212 345.81 113.215 345.699 113.234 345.576C113.271 345.353 113.358 345.103 113.511 344.757C113.541 344.688 113.574 344.616 113.617 344.523L113.73 344.279L113.729 344.282C113.894 343.928 113.915 343.884 113.982 343.732L113.982 343.732C114.664 342.201 116.184 341.517 117.521 342.112C118.173 342.403 118.584 342.909 118.731 343.567C118.873 344.195 118.765 344.943 118.424 345.71C118.11 346.414 117.404 346.859 116.466 347.012C115.636 347.149 114.698 347.036 114.005 346.729C113.68 346.584 113.473 346.424 113.351 346.242ZM117.229 343.904C117.187 343.718 117.099 343.61 116.894 343.518C116.373 343.286 115.739 343.571 115.389 344.358C115.316 344.521 115.294 344.569 115.13 344.921C115.113 344.957 115.078 345.031 115.051 345.09C115.034 345.127 115.02 345.157 115.014 345.17C114.975 345.255 114.946 345.319 114.92 345.378L114.902 345.418C115.293 345.529 115.785 345.564 116.216 345.493C116.686 345.416 116.941 345.255 117.018 345.084C117.231 344.602 117.292 344.184 117.229 343.904Z" fill="#AEB5C0"/>
<rect x="105.249" y="128.769" width="76.0302" height="36.5145" rx="18.2572" transform="rotate(-7.99571 105.249 128.769)" fill="#61401B"/>
<path d="M151.5 165.937L170.75 150.187" stroke="#9DB7C9" stroke-width="2.75"/>
<path d="M88.5001 166C88.5001 169.292 88.5675 167.917 87.7099 183.733C86.9237 198.232 86.6693 208.235 87.0735 218.763C87.6543 233.89 89.6507 246.682 93.5825 257.231C95.3667 262.018 100.694 264.452 105.481 262.668C110.268 260.883 112.702 255.556 110.918 250.769C107.786 242.367 106.072 231.385 105.56 218.053C105.183 208.233 105.425 198.706 106.183 184.735C106.227 183.922 106.272 183.104 106.332 182.019C106.349 181.71 106.414 180.542 106.406 180.696C106.435 180.168 106.456 179.778 106.477 179.398C106.592 177.329 106.67 175.859 106.738 174.472C106.913 170.9 107 168.245 107 166C107 160.891 102.859 156.75 97.7501 156.75C92.6415 156.75 88.5001 160.891 88.5001 166Z" fill="#F6DDD6"/>
<path d="M158.125 164.5C158.125 172.076 162.288 178.764 168.834 183.523C174.465 187.616 181.672 190.112 188.838 190.411C197.055 190.754 204.828 188.233 210.661 182.692C217.059 176.613 220.375 167.641 220.375 156.5C220.375 151.046 215.954 146.625 210.5 146.625C205.046 146.625 200.625 151.046 200.625 156.5C200.625 162.545 199.235 166.304 197.058 168.373C195.36 169.986 192.819 170.81 189.662 170.679C186.372 170.541 182.921 169.346 180.447 167.547C179.405 166.79 178.646 166.003 178.21 165.302C178.058 165.059 177.963 164.853 177.912 164.688C177.884 164.598 177.875 164.541 177.875 164.5C177.875 159.046 173.454 154.625 168 154.625C162.546 154.625 158.125 159.046 158.125 164.5Z" fill="#F6DDD6"/>
<path d="M105.75 200.875L119 161.937L125 143.687L136.25 146.187L157.25 143.687L181.5 205C181.5 205 181.5 207.625 179.875 209C178.25 210.375 172.5 220.25 172.5 220.25C172.5 220.25 145.5 224.25 139.25 224.25C133 224.25 126.75 223 126.75 223L114.25 218.437C114.25 218.437 108.125 209.125 106.625 207C105.125 204.875 105.75 200.875 105.75 200.875Z" fill="#0A0A08"/>
<rect x="129.25" y="134.25" width="20.75" height="29.25" rx="10.375" fill="#DBC0B8"/>
<path d="M124 177.937L103.25 221C103.25 221 84 217.5 77 211C77 211 82.3881 191.5 85 172.937C87.6119 154.375 103.25 148.5 103.25 148.5L119.5 145.437L124 177.937Z" fill="#657792"/>
<path d="M77.162 213.148C75.8828 208.251 80.4446 203.836 85.2976 205.273L98.1868 209.093C100.144 209.672 101.78 211.025 102.718 212.838L108.171 223.381C108.554 224.122 108.811 224.922 108.931 225.748L111.916 246.284C112.288 248.842 110.648 251.261 108.135 251.865L93.272 255.433C90.6246 256.069 87.9552 254.469 87.2671 251.835L77.162 213.148Z" fill="#657692"/>
<path d="M99.2084 239.563L87.3333 243.673C85.1977 244.412 84.0359 246.715 84.71 248.872C85.4153 251.129 87.8504 252.352 90.0824 251.571L101.943 247.42C104.162 246.643 105.302 244.196 104.453 242.003C103.645 239.915 101.324 238.83 99.2084 239.563Z" fill="#8A9BB6"/>
<path d="M100.875 245.5C102.187 245.5 103.25 244.437 103.25 243.125C103.25 241.813 102.187 240.75 100.875 240.75C99.5633 240.75 98.5 241.813 98.5 243.125C98.5 244.437 99.5633 245.5 100.875 245.5Z" fill="#2E3A4D"/>
<path d="M104.75 206L90.5 197.75L87.25 204.5L104.75 206Z" fill="#576985"/>
<path d="M101.25 206.25L84.9026 208.171L87.5001 213.25L101.25 210V206.25Z" fill="#576985"/>
<path d="M98.9979 167.954C98.4543 155.994 108.004 146 119.976 146H124.422C126.613 146 128.613 147.245 129.581 149.21L136 162.25C136 162.25 133.75 181.25 133.75 195.5C133.75 206.869 131.761 229.22 130.957 237.791C130.797 239.496 129.007 240.514 127.447 239.805L99.28 227.002C98.2934 226.554 97.7081 225.521 97.8307 224.443L100.5 201L98.9979 167.954Z" fill="#7B899F"/>
<path d="M105.75 190.5V177L128.5 174.5C127.25 180.5 127.25 189 127.25 193.25C110.5 200 112 198 105.75 190.5Z" fill="#576985"/>
<path d="M128.25 174.5L104.75 172.75L103.25 178.25L112.75 184L125.5 179.5L128.25 174.5Z" fill="#8A9BB6"/>
<path d="M129.034 240.437L97.9824 226.996C97.474 226.776 97.1711 226.248 97.2381 225.698L98.375 216.375L131.75 228.25L130.776 239.398C130.702 240.248 129.817 240.775 129.034 240.437Z" fill="#576985"/>
<path d="M137.25 164L127.125 141.25L116.625 144.375L117.75 170L137.25 164Z" fill="#576985"/>
<path d="M155.289 178.187C155.289 178.187 153 221 179 221C205 221 202 209.5 205 202C205 202 204.71 185.813 193.999 170.5C183.289 155.187 176.039 148.75 176.039 148.75L159.789 145.687L155.289 178.187Z" fill="#546277"/>
<path d="M179.578 168.836C180.501 156.648 170.861 146.25 158.638 146.25H154.867C152.676 146.25 150.676 147.495 149.708 149.46L143.289 162.5C143.289 162.5 143.789 180.25 143.289 195.75C142.886 208.247 146.52 229.518 147.943 237.293C148.226 238.835 149.847 239.709 151.301 239.125L177.354 228.661C178.34 228.265 178.968 227.289 178.92 226.228L177.539 195.75L179.578 168.836Z" fill="#7B899F"/>
<path d="M173.788 190.5V177L151.038 174.5C152.288 180.5 152.288 189 152.288 193.25C169.038 200 167.538 198 173.788 190.5Z" fill="#576985"/>
<path d="M151.288 174.5L174.788 172.75L176.288 178.25L166.788 184L154.038 179.5L151.288 174.5Z" fill="#8A9BB6"/>
<path d="M149.685 240.443L178.659 229.201C179.161 229.007 179.482 228.512 179.455 227.974L179 218.75L146.25 228.875L147.999 239.481C148.129 240.264 148.945 240.73 149.685 240.443Z" fill="#576985"/>
<path d="M142.038 164.25L152.163 141.5L162.663 144.625L161.538 170.25L142.038 164.25Z" fill="#576985"/>
<path d="M191.496 219.589C187.847 220.141 185.22 216.498 183.189 213.415C179.62 207.997 178.086 203.715 178.25 198.358C178.474 191.081 182.296 184.497 186.443 178.514L186.895 177.862L200.668 160.69C202.285 158.673 205.172 158.222 207.328 159.649L220.773 168.548C222.747 169.854 223.534 172.366 222.659 174.566L218.945 183.898C218.748 184.395 218.498 184.869 218.199 185.312L208.191 203.5C205.833 207.005 198.325 218.558 191.496 219.589Z" fill="#657692"/>
<path d="M195.588 170.684L206.079 177.603C207.965 178.847 210.499 178.368 211.8 176.52C213.161 174.586 212.65 171.909 210.671 170.614L200.157 163.731C198.19 162.444 195.555 163.03 194.332 165.038C193.168 166.95 193.719 169.452 195.588 170.684Z" fill="#8A9BB6"/>
<path d="M147.875 185C149.187 185 150.25 183.937 150.25 182.625C150.25 181.313 149.187 180.25 147.875 180.25C146.563 180.25 145.5 181.313 145.5 182.625C145.5 183.937 146.563 185 147.875 185Z" fill="#2E3A4D"/>
<path d="M147.875 202.5C149.187 202.5 150.25 201.437 150.25 200.125C150.25 198.813 149.187 197.75 147.875 197.75C146.563 197.75 145.5 198.813 145.5 200.125C145.5 201.437 146.563 202.5 147.875 202.5Z" fill="#2E3A4D"/>
<path d="M149.875 218.5C151.187 218.5 152.25 217.437 152.25 216.125C152.25 214.813 151.187 213.75 149.875 213.75C148.563 213.75 147.5 214.813 147.5 216.125C147.5 217.437 148.563 218.5 149.875 218.5Z" fill="#2E3A4D"/>
<path d="M152.625 235.25C153.937 235.25 155 234.187 155 232.875C155 231.563 153.937 230.5 152.625 230.5C151.313 230.5 150.25 231.563 150.25 232.875C150.25 234.187 151.313 235.25 152.625 235.25Z" fill="#2E3A4D"/>
<path d="M99.6263 73.7235C99.6263 53.3768 117.063 36.8825 138.572 36.8825C160.081 36.8825 177.518 53.3768 177.518 73.7235L175.018 110.366C171.877 134.135 155.532 147.207 138.572 147.207C121.612 147.207 104.43 131.362 102.126 110.366L99.6263 73.7235Z" fill="#F6DDD6"/>
<path fill-rule="evenodd" clip-rule="evenodd" d="M128.75 120.568V123.992C128.75 129.251 133.014 133.515 138.273 133.515C143.533 133.515 147.797 129.251 147.797 123.992V120.568H128.75Z" fill="#393939"/>
<mask id="mask3_0_1074" style="mask-type:luminance" maskUnits="userSpaceOnUse" x="128" y="118" width="20" height="16">
<path fill-rule="evenodd" clip-rule="evenodd" d="M128.876 118.937C128.793 119.443 128.75 119.961 128.75 120.49V123.992C128.75 129.251 133.014 133.515 138.273 133.515C143.533 133.515 147.797 129.251 147.797 123.992V120.49C147.797 119.961 147.753 119.443 147.671 118.937H128.876Z" fill="white"/>
</mask>
<g mask="url(#mask3_0_1074)">
<path d="M138.273 135.755C141.445 135.755 144.016 134.355 144.016 132.628C144.016 130.9 141.445 129.5 138.273 129.5C135.101 129.5 132.53 130.9 132.53 132.628C132.53 134.355 135.101 135.755 138.273 135.755Z" fill="#FF6C6C"/>
<rect x="128.75" y="120" width="19.0466" height="4.5" fill="white"/>
</g>
<path d="M118.836 87.4721C118.888 87.4505 119.008 87.404 119.189 87.3407C119.503 87.2311 119.86 87.1205 120.252 87.0169C121.365 86.7222 122.518 86.546 123.634 86.546C124.744 86.546 125.859 86.7208 126.914 87.0125C127.284 87.1147 127.618 87.2235 127.908 87.3312C128.074 87.3927 128.182 87.4373 128.226 87.4569C128.983 87.795 129.87 87.456 130.208 86.6996C130.546 85.9433 130.207 85.0562 129.451 84.7181C129.349 84.6726 129.18 84.6033 128.951 84.5183C128.583 84.3819 128.169 84.2467 127.714 84.121C126.415 83.7618 125.038 83.546 123.634 83.546C122.233 83.546 120.831 83.7604 119.484 84.1166C119.015 84.2409 118.584 84.3744 118.199 84.5088C117.961 84.5921 117.786 84.6595 117.682 84.7029C116.917 85.0215 116.556 85.8997 116.874 86.6644C117.193 87.4291 118.071 87.7908 118.836 87.4721Z" fill="#46413D"/>
<path d="M148.336 87.4721C148.388 87.4505 148.508 87.404 148.689 87.3407C149.003 87.2311 149.36 87.1205 149.752 87.0169C150.865 86.7222 152.018 86.546 153.134 86.546C154.244 86.546 155.359 86.7208 156.414 87.0125C156.784 87.1147 157.118 87.2235 157.408 87.3312C157.574 87.3927 157.682 87.4373 157.726 87.4569C158.483 87.795 159.37 87.456 159.708 86.6996C160.046 85.9433 159.707 85.0562 158.951 84.7181C158.849 84.6726 158.68 84.6033 158.451 84.5183C158.083 84.3819 157.669 84.2467 157.214 84.121C155.915 83.7618 154.538 83.546 153.134 83.546C151.733 83.546 150.331 83.7604 148.984 84.1166C148.515 84.2409 148.084 84.3744 147.699 84.5088C147.461 84.5921 147.286 84.6595 147.182 84.7029C146.417 85.0215 146.056 85.8997 146.374 86.6644C146.693 87.4291 147.571 87.7908 148.336 87.4721Z" fill="#46413D"/>
<path d="M118.608 96.8756L125.342 95.8111C126.024 95.7034 126.49 95.0632 126.382 94.3813C126.274 93.6994 125.634 93.234 124.952 93.3418L118.218 94.4063C117.536 94.5141 117.071 95.1543 117.179 95.8362C117.286 96.518 117.927 96.9834 118.608 96.8756Z" fill="black"/>
<path d="M150.585 95.1589L157.319 96.2234C158.001 96.3312 158.641 95.8658 158.749 95.1839C158.856 94.502 158.391 93.8619 157.709 93.7541L150.975 92.6896C150.293 92.5818 149.653 93.0472 149.545 93.7291C149.438 94.411 149.903 95.0511 150.585 95.1589Z" fill="black"/>
<path d="M120.872 94.5762V101.771C120.872 103.428 122.215 104.771 123.872 104.771C125.529 104.771 126.872 103.428 126.872 101.771V94.5762C126.872 92.9194 125.529 91.5762 123.872 91.5762C122.215 91.5762 120.872 92.9194 120.872 94.5762Z" fill="black"/>
<path d="M149.328 93.924V101.119C149.328 102.776 150.672 104.119 152.328 104.119C153.985 104.119 155.328 102.776 155.328 101.119V93.924C155.328 92.2672 153.985 90.924 152.328 90.924C150.672 90.924 149.328 92.2672 149.328 93.924Z" fill="black"/>
<path d="M135.756 101.567C135.674 102.17 135.58 102.576 135.138 104.355C135.03 104.786 134.954 105.098 134.881 105.412C134.341 107.731 134.174 109.317 134.527 110.786C135.079 113.088 136.906 114.414 139.6 114.414V110.164C139.318 110.164 139.097 110.137 138.935 110.094C138.837 110.067 138.781 110.041 138.751 110.019C138.744 110.014 138.741 110.011 138.733 109.998C138.71 109.96 138.683 109.894 138.66 109.795C138.51 109.17 138.625 108.076 139.021 106.375C139.088 106.087 139.159 105.793 139.262 105.382C139.753 103.407 139.854 102.969 139.967 102.145L135.756 101.567Z" fill="#EBBAAA"/>
<path d="M164.946 110.93C164.838 111.807 162.747 113.102 160.435 112.518C158.124 111.934 156.468 109.691 156.576 108.814C156.683 107.937 158.862 105.936 161.173 106.52C163.485 107.104 165.054 110.053 164.946 110.93Z" fill="#F2CACA"/>
<path d="M110.913 111.93C111.02 112.807 113.112 114.102 115.424 113.518C117.735 112.934 119.391 110.691 119.283 109.814C119.175 108.937 116.997 106.936 114.686 107.52C112.374 108.104 110.805 111.053 110.913 111.93Z" fill="#F2CACA"/>
<path fill-rule="evenodd" clip-rule="evenodd" d="M111.5 84.9372C113.444 82.8571 114.929 78.9324 116.601 74.512C120.304 64.7218 124.927 52.5 137.5 52.5C140.677 52.5 146.875 35.375 137.5 33C117 33 103.75 47.5 99.25 58.7913C89.9944 82.0158 87.75 121.25 93.75 148.291C94.8466 153.233 95.7159 156.897 96.5 159.614C96.4999 161.847 97.1025 164.104 98.6167 166.971C101.3 172.051 104.455 174.068 105.697 174.441C105.132 171.799 105.535 167.227 106.726 162.926C109.385 167.855 112.472 169.823 113.697 170.191C113.14 167.587 112.686 163.148 112.371 158.601C112.835 161.025 113.802 162.925 115.625 165.375C115.249 163.618 115.832 161.673 116.481 159.503L116.509 159.412C116.539 159.312 116.569 159.211 116.599 159.11C117.024 159.831 117.529 160.574 118.125 161.375C117.749 159.618 118.332 157.673 118.981 155.503C120.265 151.217 121.81 146.058 116.742 139.75C115.527 138.238 114.706 136.025 113.737 133.412C113.532 132.861 113.321 132.291 113.098 131.707C109.325 112.045 106.979 89.7745 111.5 84.9372Z" fill="#82521A"/>
<path d="M134.174 35.7662C132.156 36.0949 131.515 36.2027 130.718 36.3549C129.56 36.5762 128.684 36.7922 127.818 37.0772C126.562 37.4908 125.333 38.0429 123.183 39.1358C122.568 39.4486 122.323 40.2012 122.636 40.8165C122.949 41.4319 123.701 41.6771 124.317 41.3643C126.362 40.3244 127.493 39.8164 128.6 39.4517C129.352 39.204 130.128 39.013 131.187 38.8105C131.952 38.6643 132.584 38.5581 134.576 38.2338C135.257 38.1228 135.72 37.4805 135.609 36.7992C135.498 36.1178 134.856 35.6553 134.174 35.7662Z" fill="#AD6C21"/>
<path d="M134.789 40.378C131.285 40.6196 129.652 41.2154 126.467 43.1872C125.88 43.5505 125.699 44.3209 126.062 44.9079C126.426 45.4949 127.196 45.6762 127.783 45.3128C130.645 43.5409 131.9 43.0831 134.961 42.872C135.65 42.8245 136.17 42.2277 136.122 41.539C136.075 40.8503 135.478 40.3305 134.789 40.378Z" fill="#AD6C21"/>
<path fill-rule="evenodd" clip-rule="evenodd" d="M160.237 71.0725C161.874 75.9088 163.435 80.5233 166.25 83.25C171.453 92.5638 168.686 119.902 164.366 140.551C163.663 141.64 163.004 142.592 162.375 143.375C157.435 149.523 159.932 154.737 162.006 159.069C163.137 161.431 164.143 163.53 163.748 165.375C165.571 162.925 166.538 161.025 167.002 158.601C166.687 163.148 166.233 167.588 165.676 170.191C166.909 169.82 170.027 167.83 172.698 162.832C173.909 167.16 174.322 171.779 173.753 174.441C174.995 174.068 178.15 172.051 180.833 166.971C182.406 163.993 182.995 161.673 182.947 159.355C183.712 156.665 184.561 153.078 185.623 148.291C191.623 121.25 189.379 82.0158 180.123 58.7913C175.623 47.5 162.623 33 142.123 33C131.625 35.25 138.946 52.5 142.123 52.5C153.952 52.5 157.222 62.1627 160.237 71.0725Z" fill="#82521A"/>
</svg>
