<svg width="300" height="400" viewBox="0 0 300 400" fill="none" xmlns="http://www.w3.org/2000/svg">
<path d="M145.669 359L145.25 348H161.75V359H145.669Z" fill="#C6C6C7"/>
<path d="M188.603 372.255C188.653 366.517 187.872 363.027 182.884 360.682C177.897 358.337 173.199 353.83 164.571 349.965C164.571 349.965 163.435 349.752 161.586 350.752C160.008 351.605 157.982 353.697 154.929 353.672C151.613 353.642 148.658 352.94 146.822 351.977C146.029 349.805 144.27 349.79 144.27 349.79C144.27 349.79 141.793 354.505 141.751 359.242C141.71 363.977 141.714 371.845 141.714 371.845L188.603 372.255Z" fill="#504D5A"/>
<path d="M168.42 356.3C168.277 356.819 168.768 357.289 169.28 357.124L172.592 356.057V359.052C172.592 359.565 173.14 359.892 173.591 359.647L175.84 358.429V360.677C175.84 361.051 176.143 361.354 176.517 361.354C176.89 361.354 177.193 361.051 177.193 360.677V357.292C177.193 356.78 176.645 356.453 176.194 356.698L173.945 357.916V355.127C173.945 354.668 173.498 354.343 173.061 354.483L170.059 355.451L170.808 352.735C170.96 352.185 170.404 351.706 169.882 351.936L166.248 353.539C166.268 353.09 166.307 352.728 166.38 352.332C166.457 351.913 166.567 351.537 166.714 351.207C166.865 350.866 166.712 350.466 166.37 350.314C166.029 350.162 165.629 350.316 165.477 350.657C165.284 351.092 165.144 351.569 165.049 352.087C164.908 352.852 164.877 353.478 164.877 354.585C164.877 355.074 165.38 355.401 165.827 355.204L169.124 353.75L168.42 356.3Z" fill="white"/>
<path d="M143.223 352.285C144.186 353.593 147.659 354.375 148.965 354.568C150.272 354.76 151.672 354.59 151.112 356.753C150.716 358.28 146.908 357.663 145.419 357.65C144.209 357.638 142.511 361.298 141.879 360.055C141.879 355.805 142.681 353.503 143.223 352.285Z" fill="#29282D"/>
<path d="M186.716 361.123C185.186 360.568 183.566 360.148 180.459 359.443L181.779 363.245L181.741 367.575L190.584 367.653C190.945 367.655 191.59 367.175 191.282 365.223C190.898 362.783 188.891 361.91 186.716 361.123Z" fill="#29282D"/>
<path d="M172.087 360.344L167.967 368.196L171.802 370.209L175.922 362.356L172.087 360.344Z" fill="white"/>
<path d="M166.41 357.371L161.474 366.806L165.311 368.814L170.248 359.379L166.41 357.371Z" fill="white"/>
<path d="M160.844 354.104L154.018 367.401L157.871 369.379L164.697 356.081L160.844 354.104Z" fill="white"/>
<path d="M141.18 371.103L141.438 366.548L181.394 367.168L191.357 366.443L191.661 369.933C191.766 371.14 190.861 372.198 189.652 372.28L181.345 372.85L142.244 372.248C141.629 372.238 141.145 371.718 141.18 371.103Z" fill="#DDDDDD"/>
<path d="M124.009 359L124.428 348H107.928V359H124.009Z" fill="#C6C6C7"/>
<path d="M81.0748 372.255C81.0248 366.517 81.8063 363.027 86.7938 360.682C91.781 358.337 96.479 353.83 105.107 349.965C105.107 349.965 106.243 349.752 108.092 350.752C109.67 351.605 111.696 353.697 114.749 353.672C118.065 353.642 121.02 352.94 122.856 351.977C123.649 349.805 125.408 349.79 125.408 349.79C125.408 349.79 127.885 354.505 127.927 359.242C127.968 363.977 127.964 371.845 127.964 371.845L81.0748 372.255Z" fill="#504D5A"/>
<path d="M101.257 356.3C101.401 356.819 100.91 357.289 100.397 357.124L97.0862 356.057V359.052C97.0862 359.565 96.538 359.892 96.0871 359.647L93.838 358.429V360.677C93.838 361.051 93.535 361.354 93.1613 361.354C92.7875 361.354 92.4846 361.051 92.4846 360.677V357.292C92.4846 356.78 93.0327 356.453 93.4836 356.698L95.7328 357.916V355.127C95.7328 354.668 96.1802 354.343 96.6171 354.483L99.6192 355.451L98.8699 352.735C98.7182 352.185 99.2734 351.706 99.7954 351.936L103.43 353.539C103.41 353.09 103.371 352.728 103.298 352.332C103.221 351.913 103.111 351.537 102.964 351.207C102.812 350.866 102.966 350.466 103.308 350.314C103.649 350.162 104.049 350.316 104.201 350.657C104.394 351.092 104.534 351.569 104.629 352.087C104.77 352.852 104.801 353.478 104.801 354.585C104.801 355.074 104.298 355.401 103.851 355.204L100.554 353.75L101.257 356.3Z" fill="white"/>
<path d="M126.455 352.285C125.492 353.593 122.019 354.375 120.713 354.568C119.406 354.76 118.006 354.59 118.566 356.753C118.962 358.28 122.77 357.663 124.259 357.65C125.469 357.638 127.167 361.298 127.799 360.055C127.799 355.805 126.997 353.503 126.455 352.285Z" fill="#29282D"/>
<path d="M82.9615 361.123C84.4918 360.568 86.1123 360.148 89.2193 359.443L87.8988 363.245L87.9368 367.575L79.0935 367.653C78.7328 367.655 78.0878 367.175 78.3955 365.223C78.7803 362.783 80.7873 361.91 82.9615 361.123Z" fill="#29282D"/>
<path d="M97.5909 360.344L101.711 368.196L97.8754 370.209L93.7557 362.356L97.5909 360.344Z" fill="white"/>
<path d="M103.267 357.371L108.204 366.806L104.367 368.814L99.4301 359.379L103.267 357.371Z" fill="white"/>
<path d="M108.834 354.104L115.66 367.401L111.807 369.379L104.981 356.081L108.834 354.104Z" fill="white"/>
<path d="M128.498 371.103L128.24 366.548L88.2838 367.168L78.3213 366.443L78.0168 369.933C77.9115 371.14 78.8173 372.198 80.026 372.28L88.3333 372.85L127.434 372.248C128.049 372.238 128.533 371.718 128.498 371.103Z" fill="#DDDDDD"/>
<path d="M167.901 175.874C167.901 167.772 169.809 149.083 159.295 137.356C159.295 137.356 121.479 135.039 113.554 142.23C105.63 149.42 102.009 163.295 100.14 189.734C98.2703 216.173 90.6968 291.493 88.7495 303.398C96.9275 304.598 150.25 310.375 177 303.398C177 286.34 171.459 232.428 170.875 207.375C170.48 190.452 167.901 183.977 167.901 175.874Z" fill="#27292B"/>
<path d="M95.5853 257.182L127.044 259.848V348.09H104.257L95.5853 257.182Z" fill="#404B62"/>
<path d="M130.21 265.32C146.933 265.32 160.489 258.899 160.489 250.978C160.489 243.057 146.933 236.635 130.21 236.635C113.487 236.635 99.931 243.057 99.931 250.978C99.931 258.899 113.487 265.32 130.21 265.32Z" fill="#404B62"/>
<path d="M133.974 259.848H166.232V348.09H142.866L133.974 259.848Z" fill="#404B62"/>
<rect x="86.9425" y="134.75" width="48.859" height="90.6093" rx="24.4295" transform="rotate(17.962 86.9425 134.75)" fill="#36383A"/>
<path d="M93.9358 171.303C95.077 157.315 106.762 146.546 120.795 146.546H141.935C156.904 146.546 169.005 158.745 168.883 173.713L168.625 205.5L169.104 254.783H95.956L91.3203 209.251C91.1425 207.507 91.125 205.75 91.2675 204.002L93.9358 171.303Z" fill="#2D2928"/>
<path d="M172.856 144.224C165.02 136.646 152.419 137.234 145.323 145.51C138.325 153.673 139.522 166.018 147.957 172.684L194.418 209.405C201.31 214.852 211.306 213.711 216.793 206.852C221.941 200.417 221.348 191.122 215.425 185.394L172.856 144.224Z" fill="#36383A"/>
<path d="M102.25 342H127.25V349H103.375L102.25 342Z" fill="#343D51"/>
<path d="M167.5 342.355L140 342L141.335 349H166.739L167.5 342.355Z" fill="#343D51"/>
<path d="M121.157 175.885C121.157 167.78 122.028 149.086 117.229 137.356C117.229 137.356 99.9708 135.038 96.354 142.231C92.7375 149.423 91.085 163.301 90.232 189.748C89.3788 216.194 85.9223 291.535 85.0338 303.442C88.766 304.642 110.76 308.64 123.023 304.375C123.023 287.312 123.29 232.403 123.023 207.343C122.843 190.415 121.157 183.989 121.157 175.885Z" fill="#36383A"/>
<path d="M105.449 159.075C112.38 154.01 110.781 136.015 115.313 136.015C129.576 148.545 127.376 170.006 122.511 200.397C115.046 163.341 110.847 166.807 105.449 159.075Z" fill="#5A5E65"/>
<path d="M139.48 175.29C139.48 167.185 140.045 148.23 144.843 136.5H156.68C161.271 136.5 165.353 138.967 166.295 143.46C168.258 152.828 169.776 169.672 170.405 189.152C171.258 215.598 176.236 290.928 177.125 302.835C170.193 303.903 144.513 307.1 132.25 302.835C132.25 285.773 137.347 231.807 137.613 206.747C137.794 189.82 139.48 183.394 139.48 175.29Z" fill="#36383A"/>
<path d="M155.145 157.876C148.214 152.81 149.813 134.815 145.281 134.815C131.018 147.345 133.218 168.806 138.083 199.198C145.548 162.141 149.747 165.607 155.145 157.876Z" fill="#5A5E65"/>
<path d="M122.807 178.35C133.123 175.076 142.417 181.51 149.138 186.851C155.423 193.222 164.123 202.197 163.99 216.108C163.856 230.018 146.647 235.225 140.573 240.239C134.498 245.252 131.362 261.228 122.754 267.777C114.145 274.326 97.4973 280.5 80.4848 264.78C63.4724 249.059 61.3681 235.414 68.3167 220.327C75.2652 205.239 95.9515 201.568 103.086 197.491C110.221 193.414 112.491 181.624 122.807 178.35Z" fill="#D0B98E"/>
<path d="M104.226 214.997C104.133 203.92 114.189 198.02 122.628 198.036C131.067 198.052 138.837 206.153 139.623 215.757C140.41 225.362 132.666 231.477 121.89 232.402C111.114 233.328 104.319 226.074 104.226 214.997Z" fill="#AB9265"/>
<path d="M108.594 215.111C108.524 206.733 116.122 202.27 122.498 202.282C128.874 202.293 134.744 208.421 135.338 215.685C135.932 222.95 130.081 227.575 121.939 228.276C113.798 228.976 108.664 223.489 108.594 215.111Z" fill="#342B29"/>
<path d="M92.011 221.357C94.5428 219.911 99.2828 226.264 104.533 232.129C110.413 237.756 116.786 243.769 114.885 244.979C112.983 246.188 108.676 242.97 106.829 241.68C104.981 240.39 100.626 239.421 97.329 235.725C94.0328 232.028 93.863 228.274 93.273 226.635C92.683 224.997 89.4795 222.803 92.011 221.357Z" fill="#967551"/>
<path d="M132 195.959L208.251 126L216.75 134.909L142.599 208.25L132 195.959Z" fill="#967551"/>
<path d="M210.383 121.15C209.936 123.341 208.271 126.356 207.494 127.589L215.44 136.012C215.912 135.397 217.657 134.059 220.867 133.628C224.88 133.089 227.713 129.274 230.428 125.081C233.144 120.889 246.112 116.666 238.283 108.621C230.454 100.576 227.879 109.898 221.308 113.133C214.737 116.367 210.942 118.411 210.383 121.15Z" fill="#D0B98E"/>
<path d="M222.569 106.783C222.463 105.906 223.24 104.672 224.622 104.327C226.622 104.37 240.78 120.428 241.004 121.683C241.227 122.938 239.697 124.28 238.331 123.876C236.964 123.471 222.675 107.661 222.569 106.783Z" fill="#967551"/>
<path d="M217.745 110.806C217.639 109.928 218.416 108.695 219.799 108.349C221.798 108.392 235.957 124.45 236.18 125.705C236.403 126.96 234.874 128.303 233.507 127.898C232.14 127.494 217.852 111.683 217.745 110.806Z" fill="#967551"/>
<path d="M211.649 115.265C211.538 114.356 212.344 113.079 213.779 112.721C215.854 112.766 230.548 129.395 230.779 130.695C231.011 131.995 229.424 133.385 228.006 132.966C226.587 132.547 211.759 116.174 211.649 115.265Z" fill="#967551"/>
<path d="M214.696 120.314C214.343 122.049 213.03 124.436 212.417 125.413L218.684 132.081C219.056 131.594 220.434 130.534 222.966 130.193C226.131 129.766 227.459 126.133 229.602 122.813C230.224 121.849 231.639 119.642 232.325 118.246C234.004 114.832 235.697 112.429 235.087 111.928C234.442 111.399 233.497 110.405 232.117 110.489C229.686 113.063 226.555 112.364 223.314 113.965C218.131 116.527 215.137 118.145 214.696 120.314Z" fill="#E8D6B3"/>
<path d="M217.175 118.653L99.5144 229.652L100.029 230.198L217.69 119.199L217.175 118.653Z" fill="black"/>
<path d="M224.757 114.939L100.73 231.303L101.243 231.85L225.27 115.486L224.757 114.939Z" fill="black"/>
<path d="M230.94 112.321L101.83 233.62L102.344 234.167L231.453 112.868L230.94 112.321Z" fill="black"/>
<path d="M232.152 114.098L103.493 234.987L104.007 235.534L232.665 114.645L232.152 114.098Z" fill="black"/>
<path d="M224.645 126.69L106.479 237.928L106.994 238.474L225.16 127.236L224.645 126.69Z" fill="black"/>
<path d="M229.034 119.533L104.865 236.643L105.38 237.189L229.548 120.078L229.034 119.533Z" fill="black"/>
<path d="M109.75 239.59L97.4132 227.5L96.5 228.425L108.095 240.5L109.75 239.59Z" fill="#292D34"/>
<path d="M229.415 114.057C230.795 114.087 231.938 112.992 231.968 111.611C231.997 110.231 230.902 109.088 229.522 109.058C228.142 109.028 226.999 110.123 226.969 111.504C226.939 112.884 228.034 114.027 229.415 114.057Z" fill="#231B12"/>
<path d="M233.567 118.647C234.947 118.677 236.091 117.582 236.12 116.201C236.15 114.821 235.055 113.678 233.674 113.648C232.294 113.619 231.151 114.714 231.121 116.094C231.092 117.474 232.187 118.618 233.567 118.647Z" fill="#231B12"/>
<path d="M223.596 117.183C224.976 117.212 226.12 116.117 226.149 114.737C226.179 113.357 225.084 112.214 223.703 112.184C222.323 112.154 221.18 113.249 221.15 114.63C221.121 116.01 222.216 117.153 223.596 117.183Z" fill="#231B12"/>
<path d="M230.194 124.326C231.574 124.356 232.718 123.261 232.747 121.88C232.777 120.5 231.682 119.357 230.301 119.327C228.921 119.297 227.778 120.392 227.748 121.773C227.719 123.153 228.814 124.296 230.194 124.326Z" fill="#231B12"/>
<path d="M217.012 121.042C218.392 121.072 219.535 119.977 219.565 118.596C219.594 117.216 218.499 116.073 217.119 116.043C215.739 116.014 214.596 117.109 214.566 118.489C214.536 119.87 215.631 121.013 217.012 121.042Z" fill="#231B12"/>
<path d="M225.816 130.233C227.197 130.263 228.34 129.168 228.369 127.788C228.399 126.407 227.304 125.264 225.924 125.235C224.543 125.205 223.4 126.3 223.371 127.68C223.341 129.061 224.436 130.204 225.816 130.233Z" fill="#231B12"/>
<path d="M216.457 192.528L198.729 154.349C196.578 149.715 191.077 147.703 186.444 149.855C181.81 152.006 179.798 157.507 181.95 162.14L199.678 200.32C201.829 204.953 207.329 206.965 211.963 204.814C216.596 202.662 218.608 197.162 216.457 192.528Z" fill="#F4D4C9"/>
<path d="M122.812 215.37L82.4882 202.375C77.6258 200.808 72.4138 203.479 70.8468 208.341C69.2798 213.204 71.9513 218.416 76.8137 219.983L117.137 232.978C122 234.545 127.212 231.873 128.779 227.011C130.346 222.149 127.674 216.937 122.812 215.37Z" fill="#F4D4C9"/>
<rect x="62.2534" y="220.807" width="27.4622" height="55.156" rx="13.7311" transform="rotate(-71.6924 62.2534 220.807)" fill="#424648"/>
<rect x="177.892" y="164.025" width="26.9425" height="55.156" rx="13.4712" transform="rotate(-24.5251 177.892 164.025)" fill="#424648"/>
<path d="M166.567 114.78C174.75 114.78 181.384 108.147 181.384 99.9638C181.384 91.7808 174.75 85.1471 166.567 85.1471C158.384 85.1471 151.75 91.7808 151.75 99.9638C151.75 108.147 158.384 114.78 166.567 114.78Z" fill="#EBBAAA"/>
<path d="M96.8168 115.53C88.6338 115.53 82.0001 108.897 82.0001 100.714C82.0001 92.5308 88.6338 85.8971 96.8168 85.8971C105 85.8971 111.633 92.5308 111.633 100.714C111.633 108.897 105 115.53 96.8168 115.53Z" fill="#EBBAAA"/>
<path d="M92.2505 72.5221C92.2505 51.3282 109.431 34.1471 130.625 34.1471C151.819 34.1471 169 51.3282 169 72.5221V90.6471L166.462 113.488C164.891 127.634 155.047 139.527 141.46 143.766C134.427 145.961 126.862 145.927 119.853 143.655C106.871 139.446 97.4387 128.185 95.5702 114.666L92.2505 90.6471V72.5221Z" fill="#F4D4C9"/>
<path d="M118.875 60.2721C132.125 52.3971 145.625 57.7721 149.625 58.3971C159.75 72.1471 161 64.3971 161.5 68.3971C162 72.3971 165.625 74.5221 166.875 76.6471C168.125 78.7721 166.375 93.3971 168.125 93.3971C169.875 93.3971 169.375 85.7721 170 85.6471C170.5 85.5471 171.959 86.1053 172.625 86.3971C173.75 81.2303 176.125 69.5971 176.625 64.3971C177.25 57.8971 173.625 53.5221 172.625 51.8971C171.625 50.2721 169.25 45.5221 165.25 40.6471C162.05 36.7471 155.5 34.7721 152.625 36.3971C150.75 33.8971 149.3 27.6721 135 27.2721C117.125 26.7721 95.8752 34.7721 90.2502 49.5221C88.1342 55.0708 89.2505 56.1471 86.3752 61.7721C83.4999 67.3971 87.1252 88.6471 88.6252 88.3971C90.1252 88.1471 91.5005 86.6471 91.5005 87.1471C91.5005 88.2721 91.3755 92.5221 92.5005 92.5221C93.6255 92.5221 93.0005 90.1471 93.2505 88.3971C93.5005 86.6471 93.6255 79.3971 98.0005 76.6471C102.375 73.8971 107.25 61.7721 109.625 61.7721C112 61.7721 108.375 66.8971 111.75 66.8971C115.125 66.8971 112.985 63.7731 118.875 60.2721Z" fill="#613F2B"/>
<path d="M122.816 125.33C127.713 128.05 133.493 127.98 139.729 125.429C140.713 125.026 141.185 123.902 140.782 122.918C140.38 121.934 139.256 121.463 138.272 121.866C133.04 124.006 128.461 124.062 124.685 121.964C123.756 121.448 122.584 121.783 122.068 122.712C121.552 123.642 121.886 124.813 122.816 125.33Z" fill="#C99584"/>
<path d="M146.375 98.6471H152.375C154.308 98.6471 155.875 97.0801 155.875 95.1471C155.875 93.2141 154.308 91.6471 152.375 91.6471H146.375C144.442 91.6471 142.875 93.2141 142.875 95.1471C142.875 97.0801 144.442 98.6471 146.375 98.6471Z" fill="black"/>
<path d="M112 98.6471H118.5C120.433 98.6471 122 97.0801 122 95.1471C122 93.2141 120.433 91.6471 118.5 91.6471H112C110.067 91.6471 108.5 93.2141 108.5 95.1471C108.5 97.0801 110.067 98.6471 112 98.6471Z" fill="black"/>
<path d="M128.43 101.849C126.912 104.528 126.027 107.455 126.141 109.843C126.298 113.124 128.357 115.329 131.825 115.329V111.079C130.741 111.079 130.44 110.756 130.386 109.64C130.316 108.157 130.974 105.981 132.127 103.945L128.43 101.849Z" fill="#EBBAAA"/>
<path d="M135.129 92.6316C134.349 89.7199 136.444 86.8281 139.454 86.6611L160.259 85.5064C163.268 85.3394 165.67 87.9814 165.218 90.9614L163.915 99.5511C163.578 101.775 161.728 103.457 159.482 103.582L142.226 104.539C139.981 104.664 137.955 103.197 137.374 101.024L135.129 92.6316Z" fill="white" fill-opacity="0.48"/>
<path fill-rule="evenodd" clip-rule="evenodd" d="M160.665 86.4418L160.68 87.1926L160.629 87.1936C160.614 87.1918 160.6 87.1903 160.587 87.1888L160.664 86.4428L160.649 85.6931L138.973 86.1383L138.989 86.8896L138.988 86.888L138.973 86.1383L138.939 86.1391L138.905 86.1428L138.905 86.1428C138.202 86.2213 136.728 86.7688 135.425 88.2501L135.425 88.2501C134.078 89.7812 134.018 91.457 134.22 92.247L134.833 95.3893C134.912 95.7958 135.306 96.0611 135.713 95.9818C136.119 95.9026 136.385 95.5086 136.305 95.1021L135.688 91.9378L135.688 91.9378L135.683 91.9111L135.675 91.8848L134.952 92.0814L134.952 92.0815L135.675 91.8848C135.588 91.5623 135.541 90.3898 136.551 89.2408L136.551 89.2408C137.594 88.0554 138.7 87.6884 139.044 87.6372L160.629 87.1936C160.932 87.2303 161.444 87.3444 161.979 87.5748C162.541 87.8176 163.069 88.1633 163.418 88.6231V88.6231C164.228 89.6912 164.303 90.5366 164.29 90.6906L163.818 94.5593L165.307 94.7408L165.78 90.8638L165.035 90.7729L165.043 90.7737L165.78 90.8638L165.78 90.857L165.781 90.8506C165.844 90.2531 165.61 89.0303 164.612 87.7161V87.7161C164.053 86.9791 163.274 86.5001 162.573 86.1976C161.87 85.8943 161.185 85.7431 160.742 85.6968L160.665 86.4416L160.742 85.6968L160.696 85.6921L160.649 85.6931L160.665 86.4416L160.665 86.4418ZM165.781 90.8505L165.043 90.7737L165.035 90.7728L165.781 90.8505ZM165.035 90.7729L164.291 90.6821L164.29 90.6906C164.29 90.6923 164.289 90.6938 164.289 90.6953L165.035 90.7729ZM139.044 87.6372L139.004 87.6381L138.989 86.8896L139.072 87.6336C139.063 87.6345 139.054 87.6358 139.044 87.6372ZM134.952 92.0814L135.688 91.9378L135.688 91.9378L134.952 92.0816L134.952 92.0814ZM134.952 92.0815L134.228 92.2783L134.22 92.247L134.216 92.2253L134.952 92.0815ZM138.988 86.888L138.988 86.8881L138.905 86.1428L138.905 86.1428L138.988 86.888ZM163.818 94.5593C163.768 94.9703 164.06 95.3443 164.472 95.3946C164.883 95.4446 165.257 95.1521 165.307 94.7408L163.818 94.5593Z" fill="black"/>
<path d="M98.086 91.4581C97.688 88.5209 100.048 85.9406 103.009 86.0754L123.662 87.0156C126.726 87.1551 128.857 90.1199 128.012 93.0689L125.668 101.252C125.048 103.414 122.998 104.845 120.755 104.681L103.511 103.419C101.271 103.255 99.4523 101.545 99.1508 99.3196L98.086 91.4581Z" fill="white" fill-opacity="0.48"/>
<path fill-rule="evenodd" clip-rule="evenodd" d="M102.118 85.7686L102.11 86.5183L102.109 86.5168L102.118 85.7686L102.118 85.7686ZM123.788 86.7773L123.797 86.0273L102.118 85.7686L102.118 85.7686V85.7686L102.084 85.7681L102.051 85.7708C101.346 85.8263 99.8535 86.3258 98.5035 87.7638L98.5035 87.7638C97.1072 89.2509 96.9932 90.9247 97.1692 91.7207L97.68 94.8801C97.746 95.2891 98.131 95.5671 98.54 95.5008C98.949 95.4348 99.2267 95.0498 99.1607 94.6408L98.6463 91.4583L97.906 91.5781L97.9082 91.5776L98.6462 91.4583L98.642 91.4313L98.6358 91.4048L97.9082 91.5776L97.9077 91.5776L98.6357 91.4048C98.5585 91.0795 98.5495 89.9063 99.597 88.7905L99.597 88.7906C100.678 87.6396 101.796 87.3086 102.141 87.2688L123.73 87.5267C124.032 87.5736 124.539 87.7042 125.065 87.9516C125.619 88.2121 126.135 88.5751 126.469 89.0458C127.241 90.1334 127.291 90.9774 127.274 91.1377L126.677 94.9918C126.613 95.4013 126.894 95.7846 127.303 95.8481C127.712 95.9113 128.095 95.6311 128.159 95.2218L128.757 91.3621L128.758 91.3556L128.759 91.3491L128.016 91.2471L128.759 91.349C128.841 90.7538 128.647 89.524 127.693 88.1781C127.157 87.4233 126.395 86.9191 125.704 86.5941C125.011 86.2681 124.331 86.0948 123.89 86.0343L123.844 86.0278L123.797 86.0273L123.789 86.7762L123.788 86.7773ZM123.789 86.7762L123.789 86.7773L123.89 86.0343L123.89 86.0343L123.789 86.7762ZM128.016 91.2471L128.757 91.3621L128.014 91.2468L128.016 91.2471ZM128.014 91.2468L127.273 91.145C127.274 91.1428 127.274 91.1403 127.274 91.1377L127.275 91.1321L128.014 91.2468ZM123.788 86.7773L123.779 87.5273L123.73 87.5267C123.715 87.5244 123.701 87.5222 123.686 87.5203L123.788 86.7773ZM102.109 86.5183L102.052 85.7908L102.109 86.5168L102.109 86.5183ZM102.109 86.5183L102.1 87.2683L102.141 87.2688C102.15 87.2676 102.16 87.2667 102.168 87.2661L102.109 86.5183ZM99.597 88.7905L98.5035 87.7638L98.5035 87.7638L99.597 88.7905L99.597 88.7905ZM97.9077 91.5776L97.1655 91.6976L97.1692 91.7207L97.1762 91.7513L97.9077 91.5776ZM102.052 85.7908L102.051 85.7708L102.051 85.7708L102.052 85.7908Z" fill="black"/>
<path d="M127.847 91.9872C129.018 91.6252 132.164 91.101 135.31 91.9872" stroke="black" stroke-width="2.5"/>
<path d="M153.676 77.4211L138.468 79.5033C138.205 79.5391 138.016 79.7738 138.037 80.0381L138.234 82.5223C138.256 82.7951 138.492 82.9998 138.765 82.9818L153.778 81.9976C153.826 81.9943 153.875 81.9983 153.922 82.0091L159.389 83.2576C159.702 83.3291 160 83.0911 160 82.7701V81.3818C160 81.2063 159.908 81.0438 159.758 80.9533L154.002 77.4881C153.904 77.4291 153.789 77.4056 153.676 77.4211Z" fill="#613F2B"/>
<path d="M108.074 77.4211L123.282 79.5033C123.545 79.5391 123.733 79.7738 123.713 80.0381L123.516 82.5223C123.494 82.7951 123.258 82.9998 122.985 82.9818L107.972 81.9976C107.924 81.9943 107.875 81.9983 107.828 82.0091L102.361 83.2576C102.048 83.3291 101.75 83.0911 101.75 82.7701V81.3818C101.75 81.2063 101.842 81.0438 101.992 80.9533L107.748 77.4881C107.846 77.4291 107.961 77.4056 108.074 77.4211Z" fill="#613F2B"/>
</svg>
