<svg width="300" height="400" viewBox="0 0 300 400" fill="none" xmlns="http://www.w3.org/2000/svg">
<path d="M160.105 269.91C161.452 276.573 162.442 290.794 162.565 306.175C162.699 322.932 161.82 338.651 160.046 348.861C158.948 355.187 163.185 361.205 169.511 362.304C175.837 363.402 181.855 359.165 182.954 352.839C185.008 341.009 185.959 324.02 185.814 305.988C185.68 289.242 184.602 273.753 182.895 265.304C181.623 259.011 175.49 254.941 169.197 256.213C162.904 257.485 158.833 263.617 160.105 269.91Z" fill="#EBBAAA"/>
<path d="M112.323 265.326C109.965 278.698 110.154 295.325 112.251 314.43C113.734 327.936 115.99 341.245 118.686 354.256C119.989 360.543 126.141 364.583 132.428 363.281C138.715 361.978 142.755 355.825 141.452 349.539C138.893 337.189 136.753 324.565 135.363 311.893C133.485 294.789 133.318 280.146 135.22 269.364C136.335 263.041 132.113 257.012 125.79 255.897C119.467 254.782 113.438 259.004 112.323 265.326Z" fill="#EBBAAA"/>
<path d="M103.25 245.093L152.023 253.533L145.887 301.818C145.887 301.818 136.75 308.56 120.25 308.048C103.75 307.535 95.75 297.3 95.75 297.3L103.25 245.093Z" fill="#27292D"/>
<path d="M146.25 258.401L193.75 245.605L201.75 298.835C201.75 298.835 197.75 303.952 178.25 306.512C158.75 309.07 151.75 302.93 151.75 302.93L146.25 258.401Z" fill="#27292D"/>
<path d="M145.24 365.79L144.036 351.295L140.617 339.068C140.617 339.068 137.758 339.068 136.883 343.713C133.258 347.423 119.883 349.085 118.508 340.753C114.883 339.858 113.715 340.753 113.715 340.753L99.9504 353.988L89.6434 358.663L86.2453 362.67L85.7609 369.433L145.24 365.79Z" fill="#35393F"/>
<mask id="mask0_0_1292" style="mask-type:luminance" maskUnits="userSpaceOnUse" x="85" y="339" width="61" height="31">
<path d="M145.24 365.79L144.036 351.295L140.617 339.068C140.617 339.068 137.758 339.068 136.883 343.713C133.258 347.423 119.883 349.085 118.508 340.753C114.883 339.858 113.715 340.753 113.715 340.753L99.9504 353.988L89.6434 358.663L86.2453 362.67L85.7609 369.433L145.24 365.79Z" fill="white"/>
</mask>
<g mask="url(#mask0_0_1292)">
<path d="M141.031 366.109H146.031V352.546L140.411 335.998L135.676 337.606L141.031 353.372V366.109Z" fill="#F37694"/>
</g>
<path d="M106.242 348.38C105.447 348.273 104.939 349.203 105.459 349.814L107.017 351.647L103.976 350.835C103.133 350.61 102.516 351.622 103.102 352.268L104.721 354.052L100.874 353.501C100.047 353.383 99.54 354.381 100.124 354.979L103.124 358.049C103.462 358.395 104.016 358.401 104.362 358.063C104.707 357.726 104.714 357.172 104.376 356.826L103.177 355.599L106.876 356.129C107.687 356.245 108.199 355.282 107.648 354.675L106.393 353.291L109.274 354.06C110.103 354.282 110.722 353.302 110.167 352.648L108.272 350.421L112.633 351.012C113.498 351.129 113.982 350.046 113.318 349.479L109.568 346.279C109.2 345.966 108.648 346.009 108.334 346.377C108.021 346.745 108.064 347.297 108.432 347.611L109.918 348.878L106.242 348.38Z" fill="#66696D"/>
<path d="M116.382 336.815C115.082 336.507 111.507 341.805 109.882 344.492C109.882 347.052 114.382 347.435 117.757 346.667C118.507 344.492 120.007 341.907 120.007 339.745C120.007 338.645 118.007 337.2 116.382 336.815Z" fill="#495059"/>
<mask id="mask1_0_1292" style="mask-type:luminance" maskUnits="userSpaceOnUse" x="109" y="336" width="12" height="12">
<path d="M116.382 336.815C115.082 336.507 111.507 341.805 109.882 344.492C109.882 347.052 114.382 347.435 117.757 346.667C118.507 344.492 120.007 341.907 120.007 339.745C120.007 338.645 118.007 337.2 116.382 336.815Z" fill="white"/>
</mask>
<g mask="url(#mask1_0_1292)">
<path d="M118.55 336.633C118.067 342.274 116.739 345.958 114.701 347.704L116.491 349.792C119.195 347.474 120.751 343.159 121.29 336.868L118.55 336.633Z" fill="#F37694"/>
</g>
<path d="M146.426 365.348C145.646 363.818 144.053 362.86 142.356 362.9L119.691 363.42C117.306 363.475 115.476 365.45 115.602 367.833C115.729 370.213 117.764 372.1 120.149 372.045L142.814 371.525C145.949 371.453 147.868 368.173 146.426 365.348Z" fill="#D7E3EE"/>
<rect width="29.7786" height="5.13594" rx="2.56797" transform="matrix(-0.998597 0.0529545 0.0529545 0.998597 124.657 364.493)" fill="#D7E3EE"/>
<path d="M110.679 368.68C110.579 366.795 108.967 365.3 107.079 365.342L87.1929 365.8C85.2091 365.845 83.8897 367.79 84.5655 369.675C84.992 370.862 86.1149 371.677 87.3687 371.707L107.282 372.175C109.236 372.22 110.783 370.63 110.679 368.68Z" fill="#D7E3EE"/>
<rect width="12.9383" height="4.60622" rx="2.30311" transform="matrix(-0.999419 0.0340773 0.0340773 0.999419 144.431 364.871)" fill="#35393F"/>
<path d="M156.021 365.79L157.225 351.295L160.644 339.068C160.644 339.068 163.503 339.068 164.378 343.713C168.003 347.423 181.378 349.085 182.753 340.753C186.378 339.858 187.546 340.753 187.546 340.753L201.31 353.988L211.617 358.663L215.016 362.67L215.5 369.433L156.021 365.79Z" fill="#35393F"/>
<mask id="mask2_0_1292" style="mask-type:luminance" maskUnits="userSpaceOnUse" x="156" y="339" width="60" height="31">
<path d="M156.021 365.79L157.225 351.295L160.644 339.068C160.644 339.068 163.503 339.068 164.378 343.713C168.003 347.423 181.378 349.085 182.753 340.753C186.378 339.858 187.546 340.753 187.546 340.753L201.31 353.988L211.617 358.663L215.016 362.67L215.5 369.433L156.021 365.79Z" fill="white"/>
</mask>
<g mask="url(#mask2_0_1292)">
<path d="M160.229 366.109H155.229V352.546L160.85 335.998L165.584 337.606L160.229 353.372V366.109Z" fill="#F37694"/>
</g>
<path d="M195.018 348.38C195.814 348.273 196.322 349.203 195.802 349.814L194.244 351.647L197.285 350.835C198.128 350.61 198.745 351.622 198.159 352.268L196.54 354.052L200.387 353.501C201.214 353.383 201.721 354.381 201.137 354.979L198.137 358.049C197.799 358.395 197.245 358.401 196.899 358.063C196.554 357.726 196.547 357.172 196.885 356.826L198.084 355.599L194.385 356.129C193.574 356.245 193.062 355.282 193.613 354.675L194.868 353.291L191.987 354.06C191.158 354.282 190.539 353.302 191.094 352.648L192.989 350.421L188.628 351.012C187.763 351.129 187.279 350.046 187.943 349.479L191.693 346.279C192.061 345.966 192.613 346.009 192.927 346.377C193.24 346.745 193.197 347.297 192.829 347.611L191.343 348.878L195.018 348.38Z" fill="#66696D"/>
<path d="M184.879 336.815C186.178 336.508 189.753 341.805 191.379 344.493C191.379 347.053 186.879 347.435 183.504 346.668C182.754 344.493 181.254 341.908 181.254 339.745C181.254 338.645 183.254 337.2 184.879 336.815Z" fill="#495059"/>
<mask id="mask3_0_1292" style="mask-type:luminance" maskUnits="userSpaceOnUse" x="181" y="336" width="11" height="12">
<path d="M184.879 336.815C186.178 336.508 189.753 341.805 191.379 344.493C191.379 347.053 186.879 347.435 183.504 346.668C182.754 344.493 181.254 341.908 181.254 339.745C181.254 338.645 183.254 337.2 184.879 336.815Z" fill="white"/>
</mask>
<g mask="url(#mask3_0_1292)">
<path d="M182.711 336.633C183.194 342.274 184.522 345.958 186.56 347.704L184.77 349.792C182.066 347.474 180.51 343.159 179.971 336.868L182.711 336.633Z" fill="#F37694"/>
</g>
<path d="M154.835 365.348C155.615 363.818 157.208 362.86 158.905 362.9L181.57 363.42C183.955 363.475 185.785 365.45 185.659 367.833C185.532 370.213 183.497 372.1 181.112 372.045L158.447 371.525C155.312 371.453 153.393 368.173 154.835 365.348Z" fill="#D7E3EE"/>
<rect x="176.604" y="364.493" width="29.7786" height="5.13594" rx="2.56797" transform="rotate(3.03549 176.604 364.493)" fill="#D7E3EE"/>
<path d="M190.582 368.68C190.682 366.795 192.294 365.3 194.182 365.342L214.068 365.8C216.052 365.845 217.371 367.79 216.696 369.675C216.269 370.862 215.146 371.677 213.892 371.707L193.979 372.175C192.025 372.22 190.478 370.63 190.582 368.68Z" fill="#D7E3EE"/>
<rect x="156.83" y="364.871" width="12.9383" height="4.60622" rx="2.30311" transform="rotate(1.95286 156.83 364.871)" fill="#35393F"/>
<path d="M100.466 157.881C96.7521 163.695 91.0768 176.69 87.3711 189.04C84.9432 197.132 83.2742 205.026 82.5604 212.51C81.6905 221.632 82.2469 229.986 84.5666 237.426C86.6214 244.017 93.63 247.694 100.221 245.639C106.811 243.584 110.488 236.576 108.434 229.985C105.999 222.177 107.15 210.11 111.316 196.225C113.007 190.592 115.105 184.955 117.342 179.834C119.058 175.904 120.737 172.588 121.534 171.339C125.251 165.521 123.547 157.792 117.729 154.076C111.911 150.36 104.182 152.063 100.466 157.881Z" fill="#EBBAAA"/>
<path d="M176.966 170.571C177.042 170.69 177.179 170.928 177.353 171.256C177.581 171.685 177.84 172.206 178.12 172.802C178.765 174.182 179.469 175.855 180.181 177.724C181.88 182.189 183.465 187.345 184.737 192.768C187.948 206.461 188.831 220.178 186.687 232.45C185.499 239.25 190.048 245.726 196.849 246.915C203.649 248.103 210.126 243.553 211.314 236.753C214.098 220.816 213.004 203.803 209.076 187.059C206.16 174.628 201.65 162.774 198.035 157.114C194.318 151.296 186.589 149.592 180.771 153.308C174.953 157.024 173.25 164.753 176.966 170.571Z" fill="#EBBAAA"/>
<path d="M112.612 155.489C113.898 148.001 120.347 142.533 127.945 142.464L151.518 142.248L173.229 143.69C180.556 144.176 186.584 149.657 187.704 156.918C190.273 173.564 194.621 203.063 196 220.526C198 245.861 199.56 251.09 191.089 254.809C182.617 258.527 116.75 261.983 105.589 252.239C94.4278 242.494 100.161 228.735 101.5 220.526C102.474 214.557 109.08 176.053 112.612 155.489Z" fill="#3E4043"/>
<path d="M109.25 201.077L81 188.793L93.9776 164.609C98.1897 156.76 105.042 150.653 113.322 147.368L120.5 144.521L109.25 201.077Z" fill="#3E4043"/>
<path d="M188.5 202.612L219 191.608L204.04 164.365C199.813 156.666 193.033 150.683 184.87 147.444L177.5 144.521L188.5 202.612Z" fill="#3E4043"/>
<path d="M150.375 169.344C160.661 169.344 169 160.98 169 150.663C169 140.346 160.661 131.982 150.375 131.982C140.089 131.982 131.75 140.346 131.75 150.663C131.75 160.98 140.089 169.344 150.375 169.344Z" fill="#242527"/>
<rect x="137.25" y="134.541" width="25.25" height="29.4295" rx="12.625" fill="#EBBAAA"/>
<path d="M137.689 184.781C135.351 189.808 131.78 199.89 131.679 205.871H168.406C167.542 200.153 165.401 190.15 162.396 184.781C156.046 180.58 139.32 181.272 137.689 184.781Z" fill="#FD90AA"/>
<path fill-rule="evenodd" clip-rule="evenodd" d="M150.043 187.703L153.427 184.857L156.006 187.923L153.156 190.32L156.007 192.718L153.428 195.784L150.043 192.937L146.657 195.784L144.079 192.718L146.93 190.32L144.08 187.923L146.658 184.857L150.043 187.703Z" fill="white"/>
<path d="M126.349 190.022C126.675 192.801 127.398 195.89 128.393 198.203C129.048 199.724 129.816 200.922 130.754 201.741C132.01 202.838 133.547 203.205 135.128 202.647C136.648 202.111 137.668 200.88 138.229 199.194C138.661 197.898 138.83 196.322 138.786 194.505C138.716 191.658 138.107 188.23 137.283 185.369C137.002 184.395 135.984 183.832 135.01 184.113C134.035 184.394 133.473 185.411 133.754 186.386C135.473 192.354 135.624 198.577 133.905 199.184C133.358 199.377 132.621 198.734 131.767 196.75C130.93 194.807 130.284 192.048 129.997 189.594C129.878 188.587 128.966 187.866 127.959 187.984C126.952 188.102 126.231 189.014 126.349 190.022Z" fill="#FEC899"/>
<path d="M170.524 189.936C170.237 192.39 169.591 195.149 168.754 197.092C167.9 199.075 167.163 199.719 166.616 199.526C164.897 198.919 165.048 192.696 166.767 186.727C167.048 185.753 166.486 184.735 165.511 184.454C164.537 184.174 163.519 184.736 163.238 185.711C162.414 188.572 161.805 191.999 161.735 194.847C161.691 196.664 161.86 198.24 162.292 199.536C162.853 201.222 163.873 202.452 165.393 202.989C166.974 203.547 168.511 203.179 169.767 202.083C170.705 201.264 171.473 200.066 172.128 198.544C173.123 196.232 173.846 193.143 174.172 190.363C174.29 189.356 173.569 188.444 172.562 188.326C171.555 188.207 170.642 188.928 170.524 189.936Z" fill="#FEC899"/>
<path d="M126.319 203.933L124.5 216.466H174.75L173.222 205.089C170.014 201.193 161.729 198.01 149.375 198.01C136.687 198.01 129.273 201.959 126.319 203.933Z" fill="#F37694"/>
<path d="M149.708 225.695C163.539 225.695 174.75 221.41 174.75 216.125C174.75 210.839 163.539 206.555 149.708 206.555C135.878 206.555 124.667 210.839 124.667 216.125C124.667 221.41 135.878 225.695 149.708 225.695Z" fill="#D23C61"/>
<path d="M169.074 217.863C169.074 228.795 160.478 237.657 149.875 237.657C139.272 237.657 130.677 228.795 130.677 217.863C135.619 205.757 165.652 207.127 169.074 217.863Z" fill="#FEC899"/>
<path d="M141.361 222.214C143.482 222.214 145.201 220.454 145.201 218.283C145.201 216.113 143.482 214.353 141.361 214.353C139.241 214.353 137.522 216.113 137.522 218.283C137.522 220.454 139.241 222.214 141.361 222.214Z" fill="#2C3139"/>
<path d="M158.056 222.214C160.176 222.214 161.895 220.454 161.895 218.283C161.895 216.113 160.176 214.353 158.056 214.353C155.935 214.353 154.216 216.113 154.216 218.283C154.216 220.454 155.935 222.214 158.056 222.214Z" fill="#2C3139"/>
<path fill-rule="evenodd" clip-rule="evenodd" d="M145.535 223.581C145.535 223.027 145.086 222.579 144.533 222.579C143.98 222.579 143.531 223.027 143.531 223.581H145.535ZM150.71 223.581C150.71 223.027 150.262 222.579 149.708 222.579C149.155 222.579 148.707 223.027 148.707 223.581H150.71ZM147.088 227.273C145.349 227.216 143.531 225.92 143.531 223.581H145.535C145.535 224.659 146.305 225.243 147.154 225.271C147.576 225.285 147.958 225.151 148.224 224.908C148.476 224.678 148.707 224.276 148.707 223.581H150.71C150.71 224.765 150.294 225.73 149.575 226.387C148.871 227.03 147.959 227.302 147.088 227.273Z" fill="#CB7646"/>
<path fill-rule="evenodd" clip-rule="evenodd" d="M150.877 223.581C150.877 223.027 150.429 222.579 149.876 222.579C149.322 222.579 148.874 223.027 148.874 223.581H150.877ZM156.053 223.581C156.053 223.027 155.604 222.579 155.051 222.579C154.498 222.579 154.049 223.027 154.049 223.581H156.053ZM152.43 227.273C150.691 227.216 148.874 225.92 148.874 223.581H150.877C150.877 224.659 151.648 225.243 152.496 225.271C152.919 225.285 153.3 225.151 153.567 224.908C153.818 224.678 154.049 224.276 154.049 223.581H156.053C156.053 224.765 155.637 225.73 154.918 226.387C154.214 227.03 153.302 227.302 152.43 227.273Z" fill="#CB7646"/>
<path d="M111.791 116.906C119.808 116.906 126.308 110.595 126.308 102.811C126.308 95.0257 119.808 88.7149 111.791 88.7149C103.773 88.7149 97.2733 95.0257 97.2733 102.811C97.2733 110.595 103.773 116.906 111.791 116.906Z" fill="#EBBAAA"/>
<path d="M187.291 117.999C195.308 117.999 201.808 111.688 201.808 103.903C201.808 96.1182 195.308 89.8074 187.291 89.8074C179.273 89.8074 172.773 96.1182 172.773 103.903C172.773 111.688 179.273 117.999 187.291 117.999Z" fill="#EBBAAA"/>
<path d="M106.625 74.0695C107.286 62.2702 115.909 52.4428 127.522 50.2538L142.855 47.3638C148.809 46.2416 154.926 46.3164 160.851 47.5839L190.75 53.9807L194.5 92.495L195.366 105.718C197.075 131.832 176.355 153.953 150.185 153.953C124.267 153.953 103.638 132.238 104.967 106.354L106.625 74.0695Z" fill="#F4D4CA"/>
<path d="M118.75 131.265C117.241 125.086 112.75 125.976 109.25 126.147C111.75 135.36 126.25 153.785 149.75 153.785C176.75 153.785 188.583 135.36 191.75 126.147C188.25 124.1 185.25 126.147 182.75 131.265C178.412 140.146 162.25 145.852 155.5 139.454C152.376 136.494 146.638 137.069 143.25 139.454C131.25 147.899 120.25 137.407 118.75 131.265Z" fill="#D0C8C6"/>
<path d="M137.4 126.897C143.795 131.532 153.019 131.608 161.975 127.05C162.898 126.581 163.266 125.452 162.796 124.529C162.326 123.606 161.197 123.239 160.275 123.708C152.495 127.668 144.765 127.604 139.6 123.861C138.762 123.253 137.589 123.44 136.982 124.279C136.374 125.117 136.561 126.29 137.4 126.897Z" fill="#C99584"/>
<path d="M158.25 120.517C158.25 125.293 161.499 128.665 166.875 128.665C167.841 128.665 168.625 127.881 168.625 126.915C168.625 125.948 167.841 125.165 166.875 125.165C163.462 125.165 161.75 123.388 161.75 120.517C161.75 119.55 160.966 118.767 160 118.767C159.033 118.767 158.25 119.55 158.25 120.517Z" fill="#C99584"/>
<path d="M137.48 90.6206C139.131 90.7696 140.589 89.5527 140.738 87.9026C140.887 86.2524 139.67 84.7939 138.02 84.6449L124.635 83.436L119.906 85.0495C118.338 85.5846 117.501 87.2895 118.036 88.8576C118.571 90.4257 120.276 91.2631 121.844 90.728L125.365 89.5264L137.48 90.6206Z" fill="#272727"/>
<path d="M176.258 91.0708C177.733 91.8257 179.541 91.242 180.295 89.7671C181.05 88.2922 180.467 86.4846 178.992 85.7297L174.485 83.4231L160.085 84.5675C158.433 84.6987 157.201 86.144 157.332 87.7957C157.463 89.4473 158.909 90.6799 160.56 90.5486L173.265 89.539L176.258 91.0708Z" fill="#272727"/>
<path d="M146.2 102.216C146.139 102.346 145.805 103.047 145.702 103.265C145.463 103.775 145.258 104.23 145.06 104.695C144.464 106.095 144.021 107.396 143.753 108.663C142.585 114.193 145.192 118.036 152.023 118.036V113.786C149.773 113.786 148.591 113.31 148.102 112.59C147.695 111.99 147.612 110.961 147.912 109.542C148.114 108.582 148.474 107.527 148.971 106.359C149.146 105.947 149.331 105.537 149.55 105.071C149.645 104.869 149.981 104.163 150.05 104.015L146.2 102.216Z" fill="#EBBAAA"/>
<path d="M127.023 104.324C129.986 104.324 131.461 104.443 133.143 104.959C134.727 105.446 136.405 104.556 136.891 102.972C137.378 101.388 136.488 99.7101 134.904 99.2237C132.478 98.4787 130.561 98.3237 127.023 98.3237C125.367 98.3237 124.023 99.6669 124.023 101.324C124.023 102.981 125.367 104.324 127.023 104.324Z" fill="black"/>
<path d="M171.5 98.068C167.963 98.068 166.045 98.223 163.619 98.9679C162.035 99.4543 161.146 101.133 161.632 102.716C162.119 104.3 163.797 105.19 165.381 104.704C167.062 104.187 168.537 104.068 171.5 104.068C173.157 104.068 174.5 102.725 174.5 101.068C174.5 99.4111 173.157 98.068 171.5 98.068Z" fill="black"/>
<path d="M146.084 52.829C127.033 52.829 110.838 57.9205 109.828 72.1325C108.324 93.3045 104.727 95.0075 102 85.189C101.584 83.6928 101.309 70.119 101.25 68.5673C102.329 38.4009 134.206 31.1161 146.084 31.1161C155.819 39.2249 165.137 52.829 146.084 52.829Z" fill="#272727"/>
<path d="M103.822 72.0887C103.756 70.0245 105.043 68.3077 106.654 68.3077C108.325 68.3077 108.908 78.0797 108.75 80.2112L108.125 108.333C107.214 109.395 106.367 109.456 105.896 109.456C105.404 109.456 105.001 108.96 104.98 108.333L103.822 72.0887Z" fill="#272727"/>
<path d="M196.625 73.174C195.697 69.0792 194.476 70.0992 192.866 70.0992C191.194 70.0992 189.886 71.8582 190.044 73.8942L192.713 108.386C192.758 108.963 193.152 109.401 193.624 109.401C194.116 109.401 195.677 108.985 195.698 108.386L196.625 86.4812L196.625 73.174Z" fill="#272727"/>
<path d="M157.433 53.5967C177.064 53.5967 186.624 61.641 187.433 76.1167C189.44 87.4695 195.25 103.243 197.933 70.4867C195.433 36.195 166.632 32.8682 154.392 32.8682C144.36 40.977 137.8 53.5967 157.433 53.5967Z" fill="#272727"/>
<path d="M118.74 40.5903L115.25 48.4921L148.945 46.1874L186.25 55.9V51.2906L183.602 49.809V46.1874H180.233V40.5903H175.901L173.75 37.0907L171.087 36.3102L168.801 32.0301L164.83 33.3471L163.626 30.7132H159.535L157.375 28.9016L153.999 30.7132L152.555 27.75L150.148 30.7132L147.741 27.75L143.169 30.7132L140 28.9016L137.625 32.0301L134.985 30.7132L132.579 33.3471L131.616 30.7132L128.625 35.0434L126 34.2757L121.387 41.4134L118.74 40.5903Z" fill="#272727"/>
<path d="M131.25 64.7168C131.25 64.7168 127.5 61.9045 127.5 54.6205C127.5 47.3365 122.5 44.64 122.5 44.64L174 47.7109C174 47.7109 173.875 47.723 172 55.772C170.125 63.821 153.375 65.8805 153.375 65.8805L151.75 63.4493L148.017 64.7168L144.154 61.9045L139.261 64.7168L137.715 61.9045L131.25 64.7168Z" fill="#272727"/>
</svg>
