<svg width="300" height="400" viewBox="0 0 300 400" fill="none" xmlns="http://www.w3.org/2000/svg">
<path d="M179.25 301.75C164.05 299.55 136.917 300.832 125.25 301.75L110.5 277.75L117.75 231L180.25 242.75C186.583 261.917 194.45 303.95 179.25 301.75Z" fill="#3A4136"/>
<path d="M161.079 248.169C162.308 254.111 163.209 270.398 163.727 293.342C164.099 309.835 164.25 328.095 164.25 344.812C164.25 348.955 167.608 352.312 171.75 352.312C175.892 352.312 179.25 348.955 179.25 344.812C179.25 327.991 179.099 309.627 178.723 293.003C178.179 268.929 177.263 252.359 175.769 245.132C174.93 241.075 170.962 238.467 166.905 239.306C162.849 240.145 160.241 244.113 161.079 248.169Z" fill="#F6DDD6"/>
<path d="M131.655 241.231C130.022 249.132 128.56 268.109 127.975 288.35C127.321 311.005 127.849 331.019 129.727 342.748C130.382 346.838 134.228 349.623 138.318 348.968C142.409 348.313 145.193 344.467 144.538 340.377C142.848 329.821 142.34 310.559 142.969 288.783C143.529 269.381 144.941 251.057 146.345 244.269C147.183 240.212 144.575 236.244 140.519 235.405C136.462 234.567 132.494 237.175 131.655 241.231Z" fill="#F6DDD6"/>
<path d="M150 255.811C167.121 255.811 181 248.2 181 238.811C181 229.422 167.121 221.811 150 221.811C132.879 221.811 119 229.422 119 238.811C119 248.2 132.879 255.811 150 255.811Z" fill="#2A2A2A"/>
<path d="M116.75 230.104L148.75 232.5L145 339C145 339 140.875 340.625 136.5 340.75C132.125 340.875 128.5 339 128.5 339L116.75 230.104Z" fill="#2B2B2B"/>
<path d="M128.5 339.25L128.125 335.375C133.425 337.675 141.75 336.332 145.125 335.375V339.25C143.667 339.75 139.675 340.75 136.375 340.75C133.075 340.75 129.75 339.75 128.5 339.25Z" fill="#3F3F40"/>
<path d="M147.659 253.713C163.992 253.713 177.233 246.893 177.233 238.481C177.233 230.069 163.992 223.25 147.659 223.25C131.326 223.25 118.085 230.069 118.085 238.481C118.085 246.893 131.326 253.713 147.659 253.713Z" fill="#2B2B2B"/>
<path d="M154.321 233.15H185.799L179.5 339.75C179.5 339.75 176.5 341.25 171.75 341.25C167 341.25 164 339.75 164 339.75L154.321 233.15Z" fill="#2B2B2B"/>
<path d="M164.125 339.875L163.75 336C169.05 338.3 176.375 336.957 179.75 336V339.875C178.292 340.375 175.3 341.375 172 341.375C168.7 341.375 165.375 340.375 164.125 339.875Z" fill="#3F3F40"/>
<path d="M124.602 157.664C124.602 174.618 111.352 196.931 105.102 221.664" stroke="#F6DDD6" stroke-width="18.5" stroke-linecap="round" stroke-linejoin="bevel"/>
<rect x="116.102" y="132.164" width="67.5" height="64.5" rx="28" fill="#E1E8EE"/>
<path d="M187.954 136.836C192.754 139.436 196.75 150.75 194.75 155.75L114.852 147.173C108.435 140.589 122.294 130.514 143.778 125.04C150.656 123.287 165.268 127.114 174.75 129C178.309 129.708 181.954 133.586 187.954 136.836Z" fill="#414A3B"/>
<path d="M111.102 195.632L89.5 177.5L115.602 143.132L123.852 138.632L136.602 134.632L133.352 168.382L111.102 195.632Z" fill="#A97219"/>
<path d="M181.602 190.132L210.602 176.132L185.102 142.132L169.102 134.632L160.352 137.571L169.102 170.414L181.602 190.132Z" fill="#A97219"/>
<path d="M118.913 170.095L123.827 153.114L132.065 135.882L144.395 138.38L167.412 135.882C182.705 159.107 179.516 166.849 185.036 190.074C190.556 213.299 185.527 232.402 185.036 234.15C184.545 235.898 181.847 235.274 181.847 235.274L167.412 226.534C167.412 226.534 159.89 228.158 148.728 227.783C137.566 227.408 130.819 225.411 130.819 225.411C130.819 225.411 122.233 229.405 118.913 233.276C115.593 237.147 114.873 232.527 114.873 232.527C112.735 223.583 112.282 215.073 112.794 206.056C113.536 192.992 116.305 180.438 118.913 170.095Z" fill="#B97D1B"/>
<path d="M153 162.5C165.012 162.5 174.75 155.001 174.75 145.75C174.75 136.499 165.012 129 153 129C140.988 129 131.25 136.499 131.25 145.75C131.25 155.001 140.988 162.5 153 162.5Z" fill="#A66C0F"/>
<path d="M174.5 183C176.177 176.6 180.25 155.25 184.5 141C184.5 141 192.75 145 196.25 149.25C199.75 153.5 210.5 173.811 210.5 173.811C207.355 180.311 206.555 180.669 200.018 194.311C191.633 211.811 200.018 261.25 200.018 298.75C200.018 298.75 192.25 301.75 184.5 304.25C176.75 306.75 167 304.25 167 304.25V231.311C168.75 208.75 172.823 189.4 174.5 183Z" fill="#4F5D46"/>
<path d="M206 241.25C201.167 238.417 195.05 234.05 194.25 233.25L190.5 258.25L198 273.5C198.25 269.5 200.25 258.95 203.25 254.75C206.25 250.55 206 245.75 206 241.25Z" fill="#4F5D46"/>
<path d="M215.375 195.5C215.375 195.5 213.75 178.995 212 175.373C210.25 171.75 208 169.5 208 169.5L204 165.25L196 197.25V225.75L193.25 240.75L206.25 244.872L213.75 234.75L217 218.373L213.75 211.375L216.25 203.873L214.125 197.25L215.375 195.5Z" fill="#424B3C"/>
<path d="M206.25 194.25L195.75 199.002H206.25V194.25Z" fill="#393F35"/>
<path d="M204.027 202.684L195.797 200.5L203.079 207.341L204.027 202.684Z" fill="#393F35"/>
<path d="M192.999 234.622L208.129 240.174L206.267 245.673L191.094 240.389L192.999 234.622Z" fill="#5D6856"/>
<path d="M203.749 364.045C204.196 363.04 203.874 360.795 203.624 360.42C203.374 360.045 172.998 357.67 172.998 357.67C167.957 357.295 158.564 357.33 157.873 360.045C156.123 366.92 160.874 366.92 164.874 366.92C170.374 366.92 171.027 365.462 174.623 365.92C176.498 366.157 179.248 367.42 191.873 367.42C201.999 367.42 202.749 366.295 203.749 364.045Z" fill="#C9D1DC"/>
<path d="M172.374 347.102C167.274 347.002 165.582 343.727 165.374 342.102H162.749C162.499 342.477 161.687 343.352 161.124 345.977C160.374 349.477 159.124 350.102 158.374 353.352C157.855 355.602 157.749 358.977 158.999 360.852C160.941 363.765 163.374 363.477 167.499 363.477C169.874 363.477 173.874 362.852 177.499 363.852C182.56 365.25 196.499 365.977 200 364.852C205.964 362.935 204.124 357.352 201.625 355.227C197.238 351.497 188.763 351.755 186.624 348.852C184.875 346.477 183.879 340.747 182.624 339.352C180.374 336.852 178.846 339.055 179.249 341.477C179.749 344.477 178.749 347.227 172.374 347.102Z" fill="#3B434E"/>
<mask id="mask0_0_1449" style="mask-type:luminance" maskUnits="userSpaceOnUse" x="158" y="338" width="46" height="28">
<path d="M172.374 347.102C167.274 347.002 165.582 343.727 165.374 342.102H162.749C162.499 342.477 161.687 343.352 161.124 345.977C160.374 349.477 159.124 350.102 158.374 353.352C157.855 355.602 157.749 358.977 158.999 360.852C160.941 363.765 163.374 363.477 167.499 363.477C169.874 363.477 173.874 362.852 177.499 363.852C182.56 365.25 196.499 365.977 200 364.852C205.964 362.935 204.124 357.352 201.625 355.227C197.238 351.497 188.763 351.755 186.624 348.852C184.875 346.477 183.879 340.747 182.624 339.352C180.374 336.852 178.846 339.055 179.249 341.477C179.749 344.477 178.749 347.227 172.374 347.102Z" fill="white"/>
</mask>
<g mask="url(#mask0_0_1449)">
<path d="M193.222 355.5C191.522 355.1 183.68 351 179.972 349C173.597 350.875 168.847 357.5 165.222 364.125C165.347 365.625 179.757 367.09 181.347 365.125C183.472 362.5 187.347 357.125 193.222 355.5Z" fill="#32373F"/>
<path d="M198.973 359.145C200.927 359.145 201.415 357.715 201.415 357C201.557 359.227 201.522 364.013 200.247 365.323C198.655 366.963 185.572 366.08 183.979 365.323C182.387 364.565 188.651 359.293 190.031 360.3C191.412 361.31 192.497 362.298 194.196 360.783C195.894 359.27 196.531 359.145 198.973 359.145Z" fill="#32373F"/>
<path d="M200.097 358.375C200.197 356.875 202.305 355.962 202.597 356.002L206.722 356.252L206.222 363.752L200.972 366.752C199.972 366.712 193.597 365.625 197.597 365.625C199.472 365.625 199.847 364.877 200.972 363.752C202.097 362.627 199.972 360.25 200.097 358.375Z" fill="#C8D1DC"/>
<path d="M180.75 341.977C180.45 340.177 179.875 339.06 179.625 338.727L180.124 337.477H183C184.333 338.645 186.575 341.502 184.875 343.602C182.75 346.227 181.125 344.227 180.75 341.977Z" fill="#C8D1DC"/>
</g>
<path d="M184.349 352.944C184.308 353.489 184.845 353.893 185.357 353.703L190.301 351.876L191.115 355.538C191.226 356.036 191.792 356.281 192.23 356.02L196.855 353.27C197.212 353.058 197.329 352.598 197.117 352.242C196.905 351.886 196.445 351.769 196.089 351.98L192.355 354.201L191.579 350.712C191.481 350.269 191.013 350.014 190.587 350.172L185.932 351.892L186.22 348.056C186.253 347.621 185.908 347.25 185.472 347.25H180.222C179.808 347.25 179.472 347.586 179.472 348C179.472 348.414 179.808 348.75 180.222 348.75H184.664L184.349 352.944Z" fill="#272F39"/>
<path d="M105.251 364.045C104.804 363.04 105.126 360.795 105.376 360.42C105.626 360.045 136.002 357.67 136.002 357.67C141.043 357.295 150.436 357.33 151.127 360.045C152.877 366.92 148.126 366.92 144.126 366.92C138.626 366.92 137.973 365.462 134.377 365.92C132.502 366.157 129.752 367.42 117.127 367.42C107.001 367.42 106.251 366.295 105.251 364.045Z" fill="#C9D1DC"/>
<path d="M136.626 347.102C141.726 347.002 143.418 343.727 143.626 342.102H146.251C146.501 342.477 147.313 343.352 147.876 345.977C148.626 349.477 149.876 350.102 150.626 353.352C151.145 355.602 151.251 358.977 150.001 360.852C148.059 363.765 145.626 363.477 141.501 363.477C139.126 363.477 135.126 362.852 131.501 363.852C126.44 365.25 112.501 365.977 109 364.852C103.036 362.935 104.876 357.352 107.375 355.227C111.762 351.497 120.237 351.755 122.376 348.852C124.125 346.477 125.121 340.747 126.376 339.352C128.626 336.852 130.154 339.055 129.751 341.477C129.251 344.477 130.251 347.227 136.626 347.102Z" fill="#3B434E"/>
<mask id="mask1_0_1449" style="mask-type:luminance" maskUnits="userSpaceOnUse" x="105" y="338" width="46" height="28">
<path d="M136.626 347.102C141.726 347.002 143.418 343.727 143.626 342.102H146.251C146.501 342.477 147.313 343.352 147.876 345.977C148.626 349.477 149.876 350.102 150.626 353.352C151.145 355.602 151.251 358.977 150.001 360.852C148.059 363.765 145.626 363.477 141.501 363.477C139.126 363.477 135.126 362.852 131.501 363.852C126.44 365.25 112.501 365.977 109 364.852C103.036 362.935 104.876 357.352 107.375 355.227C111.762 351.497 120.237 351.755 122.376 348.852C124.125 346.477 125.121 340.747 126.376 339.352C128.626 336.852 130.154 339.055 129.751 341.477C129.251 344.477 130.251 347.227 136.626 347.102Z" fill="white"/>
</mask>
<g mask="url(#mask1_0_1449)">
<path d="M115.778 355.5C117.478 355.1 125.32 351 129.028 349C135.403 350.875 140.153 357.5 143.778 364.125C143.653 365.625 129.243 367.09 127.653 365.125C125.528 362.5 121.653 357.125 115.778 355.5Z" fill="#32373F"/>
<path d="M110.027 359.145C108.073 359.145 107.585 357.715 107.585 357C107.443 359.227 107.478 364.013 108.753 365.323C110.345 366.963 123.428 366.08 125.021 365.323C126.613 364.565 120.349 359.293 118.969 360.3C117.588 361.31 116.503 362.298 114.804 360.783C113.106 359.27 112.469 359.145 110.027 359.145Z" fill="#32373F"/>
<path d="M108.903 358.375C108.803 356.875 106.695 355.962 106.403 356.002L102.278 356.252L102.778 363.752L108.028 366.752C109.028 366.712 115.403 365.625 111.403 365.625C109.528 365.625 109.153 364.877 108.028 363.752C106.903 362.627 109.028 360.25 108.903 358.375Z" fill="#C8D1DC"/>
<path d="M128.25 341.977C128.55 340.177 129.125 339.06 129.375 338.727L128.876 337.477H126C124.667 338.645 122.425 341.502 124.125 343.602C126.25 346.227 127.875 344.227 128.25 341.977Z" fill="#C8D1DC"/>
</g>
<path d="M124.651 352.944C124.692 353.489 124.155 353.893 123.643 353.703L118.699 351.876L117.885 355.538C117.774 356.036 117.208 356.281 116.77 356.02L112.145 353.27C111.788 353.058 111.671 352.598 111.883 352.242C112.095 351.886 112.555 351.769 112.911 351.98L116.645 354.201L117.421 350.712C117.519 350.269 117.987 350.014 118.413 350.172L123.068 351.892L122.78 348.056C122.747 347.621 123.092 347.25 123.528 347.25H128.778C129.192 347.25 129.528 347.586 129.528 348C129.528 348.414 129.192 348.75 128.778 348.75H124.336L124.651 352.944Z" fill="#272F39"/>
<path d="M131.151 255.569C129.338 238.173 130.285 177.751 134.265 152.437L141.564 152.732C142.476 187.075 140.945 241.019 140.494 255.946C138.358 258.917 132.232 257.651 131.151 255.569Z" fill="#D8DEE4"/>
<path d="M165.191 249.277C162.253 232.113 160.216 172.063 163.4 146.691L176.072 142.552C178.864 176.596 180.489 228.162 181.534 248.407C179.279 251.485 166.516 251.28 165.191 249.277Z" fill="#D8DEE4"/>
<path d="M139.428 258.57C136.16 241.236 134.935 180.74 139.428 155.25H149.64C152.364 189.576 154.875 243.615 154.875 258.57C152.015 261.628 141.027 260.609 139.428 258.57Z" fill="#EAF0F5"/>
<path d="M145.625 143.375C155.297 144.902 169.75 139.125 174.75 132.125C176.75 133.375 178.875 138.75 178.875 143.375C178.875 148 165.625 160.75 147.752 158C142.069 157.125 139.707 154 139.375 150.375C139.042 146.75 138.5 142.25 145.625 143.375Z" fill="#D8DEE4"/>
<path d="M155.721 144.14C145.97 145.035 133.343 137.208 131.356 134.278C129.202 135.238 128.795 138.134 127.793 145.264C126.54 154.177 145.319 160.639 158.285 160.027C179.125 159.042 179.396 146.331 178.027 142.605C176.657 138.878 170.938 142.744 155.721 144.14Z" fill="#EAF0F5"/>
<path d="M131.5 178.5C126.716 150.754 124.107 145.435 121.153 139.881C120.94 139.481 120.422 139.36 120.053 139.624L111.5 145.75L99 161.561C102 168.061 109 167.061 109 182.061C109 189.576 100.583 282.832 103.25 296C103.25 296 107.5 301.302 118 302.75C128.5 304.197 136.75 304 136.75 304L134.5 217C131.5 198 132.621 185.001 131.5 178.5Z" fill="#4F5E46"/>
<path d="M100.838 214.225C98.6147 219.147 100.803 224.94 105.725 227.162C108.976 228.63 112.07 228.609 115.433 227.792C116.341 227.571 117.209 227.308 118.335 226.932C118.537 226.864 120.23 226.288 120.716 226.129C123.265 225.294 125.073 224.919 127.03 224.901C129.569 224.878 132.289 225.501 135.484 227.049C140.343 229.406 146.193 227.376 148.549 222.516C150.906 217.657 147.721 212.683 145.238 209.651C143.948 208.075 140.685 205.673 135.211 205.75C135.08 205.752 126.523 206.249 126.392 206.25C122.097 206.289 118.919 206.136 114.627 207.543C114.011 207.744 112.245 208.346 112.142 208.38C111.861 208.474 111.624 208.551 111.424 208.613C107.132 207.864 102.713 210.071 100.838 214.225Z" fill="#EBBAAA"/>
<path d="M85.2591 186.478C88.8979 175.925 96.75 161.25 108.571 151L109.821 190.75C111.943 192.266 111.003 198.941 115.734 199.668C121.646 200.578 125.74 201.943 130.743 206.946C125.74 207.855 125.285 218.317 128.014 227.414C128.014 229.915 124.603 232.189 121.192 232.189L100.951 235.601L85.2591 218.317C83.743 212.1 81.6204 197.03 85.2591 186.478Z" fill="#424B3C"/>
<path d="M97.25 192.75L108.621 194.569L97.25 197.526V192.75Z" fill="#393F35"/>
<path d="M101.5 201.595L109.687 195L105.821 204.097L101.5 201.595Z" fill="#393F35"/>
<path d="M136.418 205.75H129.823C124.592 205.75 123 212.345 123 215.529C123 223.262 123.303 223.64 124.592 227.81C127.927 227.886 131.415 228.265 133.689 226.445C132.097 214.847 133.916 209.616 136.418 205.75Z" fill="#515E4A"/>
<rect x="109.594" y="92.1247" width="86.5" height="36.5145" rx="18.2572" transform="rotate(-0.495513 109.594 92.1247)" fill="#2D2622"/>
<path d="M116.352 111.619C124.417 111.619 130.955 105.381 130.955 97.6848C130.955 89.9889 124.417 83.7501 116.352 83.7501C108.288 83.7501 101.75 89.9889 101.75 97.6848C101.75 105.381 108.288 111.619 116.352 111.619Z" fill="#EFC8BD"/>
<path d="M187.794 111.764C195.858 111.764 202.396 105.526 202.396 97.8297C202.396 90.1338 195.858 83.8951 187.794 83.8951C179.729 83.8951 173.191 90.1338 173.191 97.8297C173.191 105.526 179.729 111.764 187.794 111.764Z" fill="#EFC8BD"/>
<path d="M113.376 70.4735C113.376 50.1268 130.813 33.6326 152.322 33.6326C173.831 33.6326 191.268 50.1268 191.268 70.4735L188.768 107.117C185.627 130.885 169.282 143.957 152.322 143.957C135.362 143.957 118.18 128.112 115.876 107.117L113.376 70.4735Z" fill="#F6DDD6"/>
<path d="M130.75 119.75C135.859 119.75 140 115.609 140 110.5C140 105.391 135.859 101.25 130.75 101.25C125.641 101.25 121.5 105.391 121.5 110.5C121.5 115.609 125.641 119.75 130.75 119.75Z" fill="#F2CACA" fill-opacity="0.36"/>
<path d="M175.625 119.25C180.665 119.25 184.75 115.109 184.75 110C184.75 104.891 180.665 100.75 175.625 100.75C170.586 100.75 166.5 104.891 166.5 110C166.5 115.109 170.586 119.25 175.625 119.25Z" fill="#F2CACA" fill-opacity="0.36"/>
<path d="M158.162 118.253C158.174 118.233 158.175 118.233 158.163 118.248C158.123 118.301 158.069 118.366 157.999 118.441C157.774 118.683 157.478 118.935 157.105 119.177C155.963 119.918 154.419 120.375 152.375 120.375C150.331 120.375 148.787 119.918 147.645 119.177C147.272 118.935 146.977 118.683 146.752 118.441C146.681 118.366 146.627 118.301 146.587 118.248C146.575 118.232 146.576 118.233 146.59 118.256C146.041 117.378 144.885 117.111 144.006 117.66C143.128 118.209 142.861 119.366 143.41 120.244C143.53 120.435 143.726 120.694 144.006 120.996C144.436 121.457 144.966 121.909 145.605 122.323C147.354 123.458 149.607 124.125 152.375 124.125C155.144 124.125 157.397 123.458 159.145 122.323C159.784 121.909 160.315 121.457 160.744 120.996C161.025 120.694 161.22 120.435 161.34 120.244C161.889 119.366 161.622 118.209 160.744 117.66C159.866 117.111 158.71 117.378 158.161 118.255L158.162 118.253Z" fill="#EC908B"/>
<path d="M132.585 84.2222C132.637 84.2005 132.758 84.154 132.939 84.0908C133.253 83.9811 133.61 83.8705 134.002 83.7669C135.115 83.4723 136.268 83.296 137.384 83.296C138.495 83.296 139.609 83.4708 140.665 83.7625C141.034 83.8647 141.368 83.9735 141.658 84.0812C141.824 84.1427 141.933 84.1873 141.976 84.2069C142.733 84.545 143.62 84.206 143.958 83.4496C144.296 82.6933 143.957 81.8062 143.201 81.4681C143.099 81.4226 142.93 81.3533 142.701 81.2683C142.333 81.1319 141.919 80.9967 141.464 80.871C140.165 80.5118 138.788 80.296 137.384 80.296C135.983 80.296 134.581 80.5104 133.234 80.8666C132.765 80.9909 132.334 81.1244 131.949 81.2588C131.711 81.342 131.536 81.4094 131.432 81.4529C130.667 81.7715 130.305 82.6496 130.624 83.4144C130.943 84.1791 131.821 84.5408 132.585 84.2222Z" fill="#513F32"/>
<path d="M162.085 84.2222C162.137 84.2005 162.258 84.154 162.439 84.0908C162.753 83.9811 163.11 83.8705 163.502 83.7669C164.615 83.4723 165.768 83.296 166.884 83.296C167.995 83.296 169.109 83.4708 170.165 83.7625C170.534 83.8647 170.868 83.9735 171.158 84.0812C171.324 84.1427 171.433 84.1873 171.476 84.2069C172.233 84.545 173.12 84.206 173.458 83.4496C173.796 82.6933 173.457 81.8062 172.701 81.4681C172.599 81.4226 172.43 81.3533 172.201 81.2683C171.833 81.1319 171.419 80.9967 170.964 80.871C169.665 80.5118 168.288 80.296 166.884 80.296C165.483 80.296 164.081 80.5104 162.734 80.8666C162.265 80.9909 161.834 81.1244 161.449 81.2588C161.211 81.342 161.036 81.4094 160.932 81.4529C160.167 81.7715 159.805 82.6496 160.124 83.4144C160.443 84.1791 161.321 84.5408 162.085 84.2222Z" fill="#513F32"/>
<path d="M132.359 93.6256L139.093 92.5611C139.775 92.4534 140.24 91.8132 140.132 91.1313C140.024 90.4494 139.384 89.984 138.702 90.0918L131.968 91.1563C131.287 91.2641 130.821 91.9043 130.929 92.5862C131.037 93.268 131.677 93.7334 132.359 93.6256Z" fill="black"/>
<path d="M164.335 91.9089L171.069 92.9737C171.751 93.0815 172.391 92.6161 172.499 91.9342C172.607 91.2523 172.141 90.6122 171.46 90.5043L164.726 89.4396C164.044 89.3318 163.403 89.7972 163.296 90.479C163.188 91.1609 163.653 91.8011 164.335 91.9089Z" fill="black"/>
<path d="M134.622 91.3261L134.622 98.5206C134.622 100.177 135.965 101.521 137.622 101.521C139.279 101.521 140.622 100.178 140.622 98.5208L140.622 91.3263C140.622 89.6695 139.279 88.3263 137.622 88.3262C135.966 88.3262 134.622 89.6693 134.622 91.3261Z" fill="black"/>
<path d="M163.079 90.674V97.8688C163.079 99.5256 164.422 100.869 166.079 100.869C167.736 100.869 169.079 99.5256 169.079 97.8688V90.674C169.079 89.0172 167.736 87.674 166.079 87.674C164.422 87.674 163.079 89.0172 163.079 90.674Z" fill="black"/>
<path d="M149.507 100.567C149.424 101.17 149.331 101.576 148.888 103.355C148.78 103.785 148.704 104.098 148.631 104.412C148.091 106.731 147.924 108.317 148.277 109.786C148.829 112.088 150.656 113.414 153.35 113.414V109.164C153.068 109.164 152.848 109.137 152.685 109.094C152.587 109.067 152.531 109.041 152.501 109.019C152.494 109.014 152.491 109.011 152.483 108.998C152.46 108.96 152.433 108.894 152.41 108.795C152.26 108.17 152.375 107.076 152.771 105.375C152.838 105.087 152.909 104.793 153.012 104.381C153.503 102.407 153.604 101.969 153.717 101.145L149.507 100.567Z" fill="#EBBAAA"/>
<path d="M116.25 94C118 84.5 122.497 52.25 140.747 52.25C143.924 52.25 150.122 40.125 140.747 37.75C120.247 37.75 111.25 47.25 111.25 67.25C111.25 83.25 114.5 103.5 116.25 94Z" fill="#2D2622"/>
<path d="M188.213 92.5C186.463 83 181.966 50.75 163.716 50.75C160.539 50.75 148.375 38.625 157.75 36.25C178.25 36.25 188.213 43.25 193.213 65.75C196.684 81.369 189.963 102 188.213 92.5Z" fill="#2D2622"/>
<path d="M118.378 69.1748C117.676 63.4265 119.112 54.2501 124.596 49.5001C127.219 58.272 123.135 65.6795 124.596 69.9748C128.519 81.5125 119.237 85.4728 118.499 90.7688C117.115 86.1413 117.273 83.5385 119.112 78.4875C121.568 71.7398 119.236 76.2078 118.378 69.1748Z" fill="#2D2622"/>
<path d="M136.398 54.0612C131.196 56.4474 129.815 47.5946 129.648 43.8661C131.898 28.3113 168.398 28.3114 175.648 40.5613C175.648 47.2391 180.835 58.476 172.148 54.0612C156.898 46.3112 142.9 51.0785 136.398 54.0612Z" fill="#2D2622"/>
<path d="M118.545 64.8135C117.286 56.6631 120.031 50.0621 122.478 47.3029C122.478 47.3029 125.452 43.8113 130.783 43.8113C136.113 43.8113 139.648 45.0131 139.648 45.0131C139.299 48.4091 130.344 56.4995 136.113 68.9163C141.488 80.4858 122.041 95.5898 115.398 98.5613C116.447 96.651 124.313 86.3948 124.313 78.822C124.313 73.0913 120.118 75.0015 118.545 64.8135Z" fill="#60432F"/>
<path d="M184.398 64.8112C185.605 57.182 182.398 52.0613 176.398 48.3113C170.398 44.5613 161.523 46.8113 161.523 46.8113C161.858 49.9902 171.331 55.3185 173.148 68.0612C174.36 76.5612 177.494 79.6862 185.648 94.1862C185.648 90.1862 185.648 86.5612 187.273 82.0612C189.095 77.0157 182.89 74.348 184.398 64.8112Z" fill="#60432F"/>
<path d="M138.343 45.5931C134.398 50.9474 134.535 61.4154 138.978 67.8778C139.291 68.3329 139.913 68.4482 140.368 68.1353C140.824 67.8224 140.939 67.1998 140.626 66.7447C136.653 60.966 136.528 51.4278 139.953 46.7795C140.281 46.3349 140.186 45.7088 139.741 45.3812C139.297 45.0536 138.671 45.1485 138.343 45.5931Z" fill="#47372B"/>
<path d="M160.501 48.4792C163.112 49.6078 165.348 52.5744 166.978 56.7384C168.337 60.2101 169.148 64.2841 169.148 67.0613C169.148 67.6136 169.596 68.0613 170.148 68.0613C170.7 68.0613 171.148 67.6136 171.148 67.0613C171.148 64.0275 170.288 59.7073 168.84 56.0092C167.034 51.3965 164.495 48.0267 161.295 46.6434C160.788 46.4242 160.199 46.6576 159.98 47.1645C159.761 47.6715 159.994 48.2601 160.501 48.4792Z" fill="#47372B"/>
</svg>
