<svg width="300" height="400" viewBox="0 0 300 400" fill="none" xmlns="http://www.w3.org/2000/svg">
<path d="M146.692 280.124C148.166 287.25 149.645 298.933 150.461 310.406C151.387 323.437 151.387 334.884 150.343 342.192C149.621 347.249 153.135 351.935 158.192 352.657C163.249 353.379 167.935 349.865 168.657 344.808C169.926 335.928 169.926 323.326 168.914 309.094C168.045 296.859 166.465 284.385 164.808 276.376C163.773 271.373 158.879 268.157 153.876 269.192C148.873 270.227 145.657 275.121 146.692 280.124Z" fill="#EBBAAA"/>
<path d="M108.5 276.357C106.21 289.046 105.896 302.192 107.221 315.598C108.278 326.281 110.32 336.654 113.081 346.701C114.434 351.627 119.525 354.523 124.451 353.169C129.377 351.816 132.273 346.725 130.919 341.799C128.42 332.705 126.578 323.343 125.632 313.777C124.466 301.989 124.739 290.538 126.706 279.643C127.613 274.616 124.274 269.805 119.246 268.897C114.219 267.99 109.408 271.329 108.5 276.357Z" fill="#EBBAAA"/>
<path d="M99.1982 266.907H137.5L134 309.5L94.25 304.5L99.1982 266.907Z" fill="#2B2D2F"/>
<path d="M136.773 285.268C152.454 285.268 165.167 279.246 165.167 271.818C165.167 264.39 152.454 258.368 136.773 258.368C121.091 258.368 108.378 264.39 108.378 271.818C108.378 279.246 121.091 285.268 136.773 285.268Z" fill="#2B2D2F"/>
<path d="M135.5 266.907H172.675L177.25 305L142.626 308.5L135.5 266.907Z" fill="#2B2D2F"/>
<path d="M132.396 259.742L130.146 273.742C130.003 274.628 130.606 275.462 131.492 275.604C132.378 275.747 133.212 275.144 133.354 274.258L135.604 260.258C135.747 259.372 135.144 258.538 134.258 258.396C133.372 258.253 132.538 258.856 132.396 259.742Z" fill="#E5ECF3"/>
<path d="M137.381 262.887L138.631 277.637C138.707 278.531 139.493 279.195 140.387 279.119C141.281 279.043 141.945 278.257 141.869 277.363L140.619 262.613C140.543 261.718 139.757 261.055 138.863 261.131C137.968 261.207 137.305 261.993 137.381 262.887Z" fill="#E5ECF3"/>
<path d="M90.5 355.75C94 352.5 107.083 347.75 113.25 345.25L129.75 336.75L133 352V358.5C133 361.4 130.65 363.75 127.75 363.75H90.5C88.8334 360.917 87.5542 358.485 90.5 355.75Z" fill="#EBBAAA"/>
<path d="M84.75 366.5C84.75 363.737 86.9886 361.5 89.75 361.5H134L135 366.5H84.75Z" fill="#2E2622"/>
<path d="M94.266 360.953C94.2647 360.949 94.246 360.881 94.2226 360.764C94.1223 360.262 94.1223 359.728 94.266 359.297C94.3731 358.976 94.5836 358.494 94.8694 357.916C94.9503 357.753 95.0364 357.583 95.127 357.408C95.3624 356.954 95.6166 356.487 95.8709 356.037C95.96 355.879 96.0425 355.735 96.1162 355.607C96.1596 355.532 96.1898 355.481 96.2045 355.456C96.8015 354.446 96.4664 353.143 95.4561 352.546C94.4457 351.949 93.1426 352.284 92.5455 353.294C92.5248 353.329 92.4884 353.391 92.4387 353.477C92.3573 353.618 92.267 353.775 92.1698 353.947C91.8922 354.439 91.6145 354.949 91.3534 355.453C91.2509 355.651 91.1527 355.844 91.0595 356.033C90.6948 356.771 90.415 357.41 90.2341 357.953C89.8222 359.189 89.8222 360.432 90.0552 361.597C90.1151 361.897 90.1797 362.134 90.2341 362.297C90.6052 363.41 91.8086 364.012 92.922 363.641C94.0354 363.27 94.6371 362.066 94.266 360.953Z" fill="#2E2622"/>
<path d="M94.4494 363.237C94.4715 363.132 94.556 362.848 94.7217 362.447C95.0124 361.745 95.4204 361.039 95.9592 360.384C97.5072 358.502 99.8155 357.375 103.25 357.375C106.78 357.375 109.598 358.588 111.837 360.63C112.626 361.349 113.282 362.12 113.809 362.885C113.989 363.147 114.139 363.387 114.258 363.595C114.321 363.706 114.356 363.772 114.362 363.784L118.638 361.716C118.586 361.607 118.501 361.446 118.382 361.239C118.199 360.918 117.979 360.567 117.722 360.193C116.999 359.142 116.109 358.097 115.038 357.12C111.965 354.318 108.032 352.625 103.25 352.625C98.372 352.625 94.7272 354.404 92.2908 357.366C91.4351 358.407 90.7942 359.516 90.3329 360.631C90.169 361.027 90.0383 361.399 89.9368 361.74C89.8705 361.964 89.8262 362.14 89.8005 362.263L94.4494 363.237Z" fill="#2E2622"/>
<path d="M96.6165 361.949L101.116 361.199C103.159 360.858 104.539 358.926 104.199 356.883C103.858 354.841 101.926 353.461 99.8835 353.801L95.3835 354.551C93.3406 354.891 91.9605 356.824 92.301 358.866C92.6415 360.909 94.5736 362.289 96.6165 361.949Z" fill="#DCB1A3"/>
<path d="M190.5 355C187 351.75 173.917 347 167.75 344.5L151.25 336L148 351.25V357.75C148 360.65 150.351 363 153.25 363H190.5C192.167 360.167 193.446 357.735 190.5 355Z" fill="#EBBAAA"/>
<path d="M196.25 365.75C196.25 362.987 194.012 360.75 191.25 360.75H147L146 365.75H196.25Z" fill="#2E2622"/>
<path d="M190.766 361.547C190.82 361.384 190.885 361.147 190.945 360.847C191.178 359.682 191.178 358.439 190.766 357.203C190.585 356.66 190.305 356.021 189.941 355.283C189.847 355.094 189.749 354.901 189.647 354.703C189.386 354.199 189.108 353.689 188.83 353.197C188.733 353.025 188.643 352.868 188.561 352.727C188.512 352.641 188.475 352.579 188.454 352.544C187.857 351.534 186.554 351.199 185.544 351.796C184.534 352.393 184.198 353.696 184.795 354.706C184.81 354.731 184.84 354.782 184.884 354.857C184.957 354.985 185.04 355.129 185.129 355.287C185.383 355.737 185.638 356.204 185.873 356.658C185.964 356.833 186.05 357.003 186.131 357.166C186.416 357.744 186.627 358.226 186.734 358.547C186.878 358.978 186.878 359.512 186.777 360.014C186.754 360.131 186.735 360.199 186.734 360.203C186.363 361.316 186.965 362.52 188.078 362.891C189.191 363.262 190.395 362.66 190.766 361.547Z" fill="#2E2622"/>
<path d="M191.199 361.513C191.174 361.39 191.129 361.214 191.063 360.99C190.962 360.649 190.831 360.277 190.667 359.881C190.206 358.766 189.565 357.657 188.709 356.616C186.273 353.654 182.628 351.875 177.75 351.875C172.968 351.875 169.035 353.568 165.962 356.37C164.891 357.347 164.001 358.392 163.278 359.443C163.021 359.817 162.801 360.168 162.618 360.489C162.499 360.696 162.414 360.857 162.362 360.966L166.638 363.034C166.644 363.022 166.678 362.956 166.742 362.845C166.861 362.637 167.011 362.397 167.191 362.135C167.718 361.37 168.374 360.599 169.163 359.88C171.402 357.838 174.22 356.625 177.75 356.625C181.184 356.625 183.493 357.752 185.041 359.634C185.58 360.289 185.987 360.995 186.278 361.697C186.444 362.098 186.528 362.382 186.55 362.487L191.199 361.513Z" fill="#2E2622"/>
<path d="M185.616 353.801L181.116 353.051C179.074 352.711 177.141 354.091 176.801 356.133C176.461 358.176 177.841 360.108 179.883 360.449L184.383 361.199C186.426 361.539 188.358 360.159 188.699 358.116C189.039 356.074 187.659 354.141 185.616 353.801Z" fill="#DCB1A3"/>
<path d="M110.163 192.334C110.774 191.416 111.419 190.453 112.137 189.389C113.016 188.085 116.062 183.593 116.592 182.808C118.318 180.252 119.605 178.32 120.766 176.525C123.541 172.236 122.314 166.509 118.025 163.734C113.736 160.959 108.009 162.186 105.234 166.475C104.152 168.148 102.926 169.989 101.262 172.452C100.746 173.216 97.6939 177.717 96.7974 179.047C96.06 180.141 95.3944 181.133 94.7607 182.086C91.2009 187.435 88.5521 191.659 86.4141 195.508L85.9422 196.489C81.6241 207.015 79.487 215.065 78.8398 223.478C78.2837 230.707 78.7117 237.126 80.3149 250.593C80.9188 255.666 85.5207 259.289 90.5935 258.685C95.6663 258.081 99.2891 253.479 98.6852 248.407C97.2202 236.101 96.8503 230.552 97.2853 224.897C97.7605 218.719 99.3593 212.612 102.85 204.021C104.664 200.799 107.008 197.075 110.163 192.334Z" fill="#EBBAAA"/>
<path d="M95.4725 184.784C96.624 171.194 107.99 160.75 121.629 160.75H148.323C161.877 160.75 173.202 171.069 174.46 184.564L177.75 219.869L175.5 270.5L95 272L92.5 219.869L95.4725 184.784Z" fill="#D04040"/>
<path d="M136.256 181.94C145.925 181.94 153.762 174.006 153.762 164.22C153.762 154.433 145.925 146.5 136.256 146.5C126.588 146.5 118.75 154.433 118.75 164.22C118.75 174.006 126.588 181.94 136.256 181.94Z" fill="#993030"/>
<rect x="126.952" y="145.004" width="19.2142" height="28.8213" rx="9.60707" fill="#EBBAAA"/>
<path d="M160.709 177.705C161.354 180.689 162.362 183.6 163.892 187.213C164.542 188.749 167.169 194.611 167.771 196.014C170.281 201.87 171.877 206.705 172.908 212.205C174.872 222.679 182.075 231.439 191.78 236.603C201.222 241.628 212.047 242.693 220.387 238.523C224.956 236.239 226.808 230.683 224.523 226.113C222.239 221.544 216.683 219.692 212.113 221.977C209.734 223.166 205.042 222.704 200.47 220.272C195.443 217.597 191.944 213.34 191.092 208.795C189.779 201.793 187.777 195.729 184.774 188.725C184.087 187.122 181.483 181.311 180.928 180.001C179.811 177.362 179.149 175.45 178.791 173.795C177.711 168.802 172.788 165.629 167.795 166.709C162.802 167.789 159.629 172.712 160.709 177.705Z" fill="#EBBAAA"/>
<path d="M71.971 195.201C71.0162 194.221 71.0274 192.654 71.9962 191.688L103.748 160L118.575 193.432L91.2483 215L71.971 195.201Z" fill="#2B2D2F"/>
<path d="M94.2972 176.187C95.1155 165.226 104.247 156.75 115.239 156.75H122.12C124.337 156.75 126.356 158.024 127.31 160.025L133.498 173L130.498 222.5V264.395C130.498 265.717 129.467 266.811 128.147 266.89L91.2957 269.084C89.8052 269.172 88.5696 267.943 88.651 266.452L91.6232 212L94.2972 176.187Z" fill="#2B2D2F"/>
<path d="M133.998 173.25L127.498 153.75L118.248 156.5L123.998 180.25L133.998 173.25Z" fill="#494C50"/>
<path d="M201.027 195.201C201.982 194.221 201.971 192.654 201.002 191.688L169.25 160L154.423 193.432L181.75 215L201.027 195.201Z" fill="#2B2D2F"/>
<path d="M178.701 176.187C177.883 165.226 168.751 156.75 157.76 156.75H150.878C148.661 156.75 146.642 158.024 145.688 160.025L139.5 173L142.5 222.5V264.395C142.5 265.717 143.531 266.811 144.852 266.89L181.702 269.084C183.193 269.172 184.429 267.943 184.347 266.452L181.375 212L178.701 176.187Z" fill="#2B2D2F"/>
<path d="M139 173.25L145.5 153.75L154.75 156.5L149 180.25L139 173.25Z" fill="#494C50"/>
<path d="M145.75 204.5C146.716 204.5 147.5 203.716 147.5 202.75C147.5 201.784 146.716 201 145.75 201C144.784 201 144 201.784 144 202.75C144 203.716 144.784 204.5 145.75 204.5Z" fill="#5F6368"/>
<path d="M146.75 219.75C147.716 219.75 148.5 218.966 148.5 218C148.5 217.034 147.716 216.25 146.75 216.25C145.784 216.25 145 217.034 145 218C145 218.966 145.784 219.75 146.75 219.75Z" fill="#5F6368"/>
<path d="M147 234.25C147.966 234.25 148.75 233.466 148.75 232.5C148.75 231.534 147.966 230.75 147 230.75C146.034 230.75 145.25 231.534 145.25 232.5C145.25 233.466 146.034 234.25 147 234.25Z" fill="#5F6368"/>
<path d="M147 248.75C147.966 248.75 148.75 247.966 148.75 247C148.75 246.034 147.966 245.25 147 245.25C146.034 245.25 145.25 246.034 145.25 247C145.25 247.966 146.034 248.75 147 248.75Z" fill="#5F6368"/>
<path d="M144.5 189.25C145.466 189.25 146.25 188.466 146.25 187.5C146.25 186.534 145.466 185.75 144.5 185.75C143.534 185.75 142.75 186.534 142.75 187.5C142.75 188.466 143.534 189.25 144.5 189.25Z" fill="#5F6368"/>
<path d="M200.542 205.54L226.559 208.275L220.166 247.34L198.673 245.081L200.542 205.54Z" fill="#056D46"/>
<path fill-rule="evenodd" clip-rule="evenodd" d="M200.648 203.5L226.843 206.513L225.497 215.25L200.25 212.574L200.648 203.5Z" fill="#184936"/>
<path fill-rule="evenodd" clip-rule="evenodd" d="M199.148 236.25L221.678 238.477L220.332 247.213L198.75 245.324L199.148 236.25Z" fill="#184936"/>
<path fill-rule="evenodd" clip-rule="evenodd" d="M211.875 233.75C216.224 233.75 219.75 230.224 219.75 225.875C219.75 221.526 216.224 218 211.875 218C207.526 218 204 221.526 204 225.875C204 230.224 207.526 233.75 211.875 233.75Z" fill="#DDE3E6"/>
<rect x="201.211" y="199.924" width="26.1607" height="5.84445" transform="rotate(6 201.211 199.924)" fill="white"/>
<rect x="199.201" y="203.071" width="29.5005" height="5.84445" transform="rotate(6 199.201 203.071)" fill="#DDE3E6"/>
<path d="M217.625 250.5C223.631 250.5 228.5 245.743 228.5 239.875C228.5 234.007 223.631 229.25 217.625 229.25C211.619 229.25 206.75 234.007 206.75 239.875C206.75 245.743 211.619 250.5 217.625 250.5Z" fill="#EBBAAA"/>
<path d="M95.7095 124.722C103.727 124.722 110.227 118.557 110.227 110.952C110.227 103.347 103.727 97.1821 95.7095 97.1821C87.6918 97.1821 81.1921 103.347 81.1921 110.952C81.1921 118.557 87.6918 124.722 95.7095 124.722Z" fill="#EBBAAA"/>
<path d="M177.476 125.79C185.494 125.79 191.994 119.625 191.994 112.02C191.994 104.415 185.494 98.2496 177.476 98.2496C169.459 98.2496 162.959 104.415 162.959 112.02C162.959 119.625 169.459 125.79 177.476 125.79Z" fill="#EBBAAA"/>
<path d="M92.898 85.5405C92.4888 61.1995 112.108 41.2475 136.453 41.2475C160.797 41.2475 180.416 61.1995 180.007 85.5405L179.463 117.868C179.068 141.34 159.928 160.162 136.453 160.162C112.977 160.162 93.8365 141.34 93.4418 117.868L92.898 85.5405Z" fill="#EED4CC"/>
<path fill-rule="evenodd" clip-rule="evenodd" d="M127.411 129.794L128.101 134.148C129.162 140.849 135.455 145.421 142.157 144.36C148.858 143.299 153.431 137.006 152.369 130.304L151.68 125.951L127.411 129.794Z" fill="#393939"/>
<mask id="mask0_0_1372" style="mask-type:luminance" maskUnits="userSpaceOnUse" x="127" y="125" width="26" height="20">
<path fill-rule="evenodd" clip-rule="evenodd" d="M127.305 128.988C127.329 129.225 127.359 129.463 127.397 129.702L128.101 134.148C129.163 140.849 135.456 145.421 142.157 144.36C148.859 143.299 153.431 137.006 152.37 130.304L151.665 125.858C151.628 125.62 151.583 125.384 151.533 125.151L127.305 128.988Z" fill="white"/>
</mask>
<g mask="url(#mask0_0_1372)">
<path d="M142.773 147.5C146.815 146.86 149.808 144.558 149.46 142.359C149.112 140.159 145.553 138.894 141.512 139.535C137.47 140.175 134.477 142.477 134.825 144.676C135.173 146.876 138.732 148.141 142.773 147.5Z" fill="#FF6C6C"/>
<rect x="127.411" y="129.794" width="24.5708" height="5.0642" transform="rotate(-9 127.411 129.794)" fill="white"/>
</g>
<path d="M112.108 94.1043L126.121 92.6313C127.769 92.4581 128.964 90.9819 128.791 89.3341C128.618 87.6864 127.142 86.491 125.494 86.6642L111.481 88.1372C109.833 88.3104 108.638 89.7866 108.811 91.4344C108.984 93.0822 110.46 94.2775 112.108 94.1043Z" fill="#393939"/>
<path d="M119.313 102.182V109.249C119.313 110.906 120.656 112.249 122.313 112.249C123.97 112.249 125.313 110.906 125.313 109.249V102.182C125.313 100.525 123.97 99.182 122.313 99.182C120.656 99.182 119.313 100.525 119.313 102.182Z" fill="black"/>
<path d="M148.775 102.182V109.249C148.775 110.906 150.118 112.249 151.775 112.249C153.431 112.249 154.775 110.906 154.775 109.249V102.182C154.775 100.525 153.431 99.182 151.775 99.182C150.118 99.182 148.775 100.525 148.775 102.182Z" fill="black"/>
<path d="M146.186 89.7336L160.2 91.2066C161.847 91.3798 163.324 90.1844 163.497 88.5366C163.67 86.8888 162.475 85.4126 160.827 85.2394L146.814 83.7664C145.166 83.5932 143.69 84.7886 143.516 86.4364C143.343 88.0842 144.539 89.5604 146.186 89.7336Z" fill="#393939"/>
<path d="M89.8079 60.26C89.8079 51.8133 95.9274 44.4981 104.263 43.1331L143.679 36.679C153.492 35.0723 162.706 41.8527 164.089 51.6993C165.453 61.3985 158.688 70.3637 148.987 71.715L109.25 77.25C98.9934 78.7292 89.8079 70.623 89.8079 60.26Z" fill="#393939"/>
<rect x="91" y="69.25" width="5.75" height="30.75" rx="2.875" fill="#393939"/>
<path d="M107.5 70C103.7 72.4 99.5 72.75 96.5 85.25L94.5 72.75C100.417 70.8335 111.3 67.6 107.5 70Z" fill="#393939"/>
<rect x="175" y="73" width="5.75" height="30.5" rx="2.875" fill="#393939"/>
<rect x="148.5" y="46.7157" width="25.5818" height="38.0425" rx="12.7909" transform="rotate(-20.5 148.5 46.7157)" fill="#393939"/>
<path d="M154.734 33.5C154.05 42.2871 154 52.3098 154 52.3098L167.757 42.9735C167.757 42.9735 160.605 41.1887 154.734 33.5Z" fill="#393939"/>
<path d="M100.75 83.563C101.918 76.372 103.465 72.772 101.918 67H179.25V88.5L174.881 86.0725C174.881 78.189 166.058 81.1955 161.304 76.372C153.73 68.687 145.147 76.9233 140.162 81.8848C140.162 75.8205 137.265 75.9585 134.715 74.7182C135.086 80.4515 125.856 84.2553 119.595 84.2553C119.595 78.0535 119.642 78.4392 116.86 76.372C110.932 78.38 107.538 76.372 100.75 83.563Z" fill="#393939"/>
<path fill-rule="evenodd" clip-rule="evenodd" d="M118.625 119.75C125.736 119.75 131.5 113.986 131.5 106.875C131.5 99.7643 125.736 94 118.625 94C111.514 94 105.75 99.7643 105.75 106.875C105.75 113.986 111.514 119.75 118.625 119.75Z" fill="black" fill-opacity="0.2"/>
<path fill-rule="evenodd" clip-rule="evenodd" d="M152.875 120C159.986 120 165.75 114.236 165.75 107.125C165.75 100.014 159.986 94.25 152.875 94.25C145.764 94.25 140 100.014 140 107.125C140 114.236 145.764 120 152.875 120Z" fill="black" fill-opacity="0.2"/>
<path fill-rule="evenodd" clip-rule="evenodd" d="M132.503 106.914C132.503 114.46 126.386 120.577 118.84 120.577C111.293 120.577 105.176 114.46 105.176 106.914C105.176 99.3674 111.293 93.2501 118.84 93.2501C126.386 93.2501 132.503 99.3674 132.503 106.914ZM107.676 106.914C107.676 113.079 112.674 118.077 118.839 118.077C125.005 118.077 130.003 113.079 130.003 106.914C130.003 100.748 125.005 95.7501 118.839 95.7501C112.674 95.7501 107.676 100.748 107.676 106.914Z" fill="#2E2622"/>
<path fill-rule="evenodd" clip-rule="evenodd" d="M166.448 107.554C166.448 115.1 160.331 121.217 152.784 121.217C145.238 121.217 139.121 115.1 139.121 107.554C139.121 100.008 145.238 93.8906 152.784 93.8906C160.331 93.8906 166.448 100.008 166.448 107.554ZM141.621 107.554C141.621 113.719 146.619 118.717 152.784 118.717C158.95 118.717 163.948 113.719 163.948 107.554C163.948 101.389 158.95 96.3906 152.784 96.3906C146.619 96.3906 141.621 101.389 141.621 107.554Z" fill="#2E2622"/>
<path d="M131.211 108.123L140.391 108.203C141.081 108.209 141.646 107.655 141.652 106.964C141.658 106.274 141.103 105.71 140.413 105.704L131.233 105.624C130.543 105.618 129.978 106.172 129.972 106.863C129.966 107.553 130.521 108.117 131.211 108.123Z" fill="#2E2622"/>
<path d="M132.76 108.711C132.679 109.301 132.587 109.7 132.152 111.445C132.047 111.869 131.972 112.176 131.9 112.484C131.368 114.768 131.204 116.33 131.552 117.78C132.098 120.059 133.909 121.373 136.573 121.373V117.123C136.299 117.123 136.085 117.097 135.929 117.055C135.836 117.03 135.785 117.006 135.76 116.988C135.742 116.975 135.72 116.94 135.684 116.789C135.539 116.183 135.652 115.112 136.039 113.448C136.105 113.165 136.175 112.877 136.276 112.473C136.76 110.532 136.859 110.101 136.97 109.289L132.76 108.711Z" fill="#EBBAAA"/>
</svg>
