<svg width="300" height="400" viewBox="0 0 300 400" fill="none" xmlns="http://www.w3.org/2000/svg">
<path d="M131.615 359.809C135.525 362.299 140.714 361.147 143.204 357.236C144.053 355.904 144.382 354.783 144.62 353.389C144.735 352.716 144.812 351.989 144.869 351.162C144.959 349.84 144.997 348.18 144.993 346.158C144.986 342.63 144.848 337.949 144.596 332.312C144.186 323.114 143.479 311.553 142.768 301.752C142.432 297.128 138.412 293.651 133.788 293.986C129.163 294.322 125.687 298.342 126.022 302.967C126.723 312.623 127.421 324.035 127.824 333.06C128.065 338.48 128.198 342.946 128.204 346.192C128.207 347.855 128.177 349.155 128.118 350.02C128.112 350.105 128.107 350.181 128.101 350.248C127.009 353.773 128.351 357.731 131.615 359.809Z" fill="#D4D8DE"/>
<path d="M160.84 292.35C162.574 316.261 163.664 341.953 162.801 348.1C162.156 352.691 165.355 356.936 169.947 357.58C174.538 358.225 178.782 355.026 179.427 350.435C180.54 342.512 179.452 316.873 177.585 291.135C177.25 286.511 173.23 283.035 168.606 283.37C163.981 283.705 160.505 287.726 160.84 292.35Z" fill="#D4D8DE"/>
<path d="M115.871 249.379L147.199 252.187V338.161H125.222L115.871 249.379Z" fill="#495E6D"/>
<path d="M151.507 269.732C167.64 269.732 180.718 262.997 180.718 254.69C180.718 246.382 167.64 239.647 151.507 239.647C135.373 239.647 122.295 246.382 122.295 254.69C122.295 262.997 135.373 269.732 151.507 269.732Z" fill="#495E6D"/>
<path d="M151.927 252.388H185.757L182.773 338.731H160.251L151.927 252.388Z" fill="#495E6D"/>
<path d="M183.041 335.939L186.004 251.004L180.325 254.708L178.102 335.939H183.041Z" fill="#374D5E"/>
<path d="M127.11 335.323L118.221 251.375L116.122 250.387L125.011 335.939L127.11 335.323Z" fill="#374D5E"/>
<path d="M164.41 273.54L164.606 275.434L169.807 276.301L165.91 277.73L166.589 279.585L173.997 276.869L173.82 274.967L168.478 274.077L174.015 271.924L173.657 270.016H164.768V271.991H168.392L164.41 273.54Z" fill="#82B9E0"/>
<path d="M127.565 278.918L127.388 280.819L134.796 283.535L135.476 281.68L131.578 280.251L136.78 279.385L136.975 277.49L132.993 275.942H136.617V273.966H127.728L127.37 275.874L132.907 278.028L127.565 278.918Z" fill="#82B9E0"/>
<path d="M160.57 338.655L159.829 333.717H183.288L182.794 338.655H160.57Z" fill="#303F4A"/>
<path d="M125.258 338.408L124.517 333.47H147.236V338.408H125.258Z" fill="#303F4A"/>
<path d="M201.772 357.795C201.864 356.203 202.165 356.675 202.687 355.937C206.674 355.937 206.004 364.161 206.004 364.161L198.689 367.79C197.774 367.745 184.316 367.594 184.316 365.937C196.879 366.553 202.165 364.425 202.165 362.304C202.165 360.614 201.658 359.784 201.772 357.795Z" fill="#29282D"/>
<path d="M205.809 364.888C206.283 363.821 205.942 361.441 205.677 361.043C205.412 360.645 173.182 358.126 173.182 358.126C167.833 357.728 156.911 355.247 156.178 358.126C153.68 367.939 160.318 367.939 164.563 367.939C170.398 367.939 171.091 366.393 174.906 366.877C176.896 367.129 179.814 368.469 193.209 368.469C203.952 368.469 204.748 367.275 205.809 364.888Z" fill="#29282D"/>
<path d="M172.223 347.734C166.809 347.631 164.401 346.081 162.279 342.605H161.104C159.626 344.211 160.224 345.04 159.626 347.734C158.83 351.323 158.158 350.81 157.362 354.144C156.811 356.45 156.698 359.911 158.025 361.836C160.086 364.823 162.67 364.528 167.048 364.528C169.57 364.528 173.816 363.886 177.664 364.912C183.036 366.343 197.833 367.09 201.548 365.937C207.88 363.972 205.927 358.245 203.274 356.067C198.616 352.241 189.621 352.505 187.35 349.527C185.493 347.092 184.439 345.321 183.328 343.099C183.328 341.124 179.871 341.124 179.624 342.605C180.154 345.683 178.99 347.862 172.223 347.734Z" fill="#3E3C47"/>
<mask id="mask0_0_1528" style="mask-type:luminance" maskUnits="userSpaceOnUse" x="156" y="341" width="50" height="26">
<path d="M172.223 347.734C166.809 347.631 164.401 346.081 162.279 342.605H161.104C159.626 344.211 160.224 345.04 159.626 347.734C158.83 351.323 158.158 350.81 157.362 354.144C156.811 356.45 156.698 359.911 158.025 361.836C160.086 364.823 162.67 364.528 167.048 364.528C169.57 364.528 173.816 363.886 177.664 364.912C183.036 366.343 197.833 367.09 201.548 365.937C207.88 363.972 205.927 358.245 203.274 356.067C198.616 352.241 189.621 352.505 187.35 349.527C185.493 347.092 184.439 345.321 183.328 343.099C183.328 341.124 179.871 341.124 179.624 342.605C180.154 345.683 178.99 347.862 172.223 347.734Z" fill="white"/>
</mask>
<g mask="url(#mask0_0_1528)">
<path d="M196.909 357.543C200.155 356.656 201.725 355.403 201.107 353.84L185.797 346.802L179.5 350.012C185.057 356.678 194.193 358.284 196.909 357.543Z" fill="#5E5B6A"/>
<path d="M182.958 356.925C183.657 357.131 185.452 357.716 186.538 357.912C182.958 360.259 179.83 362.646 179.5 363.468C178.76 363.344 177.352 362.999 175.673 362.603C178.636 360.134 179.789 358.612 182.958 356.925Z" fill="#E8EEF3"/>
<path d="M177.278 355.443C177.978 355.649 179.772 356.234 180.859 356.431C177.278 358.778 174.15 361.165 173.821 361.987C173.08 361.863 171.673 361.517 169.993 361.122C172.957 358.653 174.109 357.131 177.278 355.443Z" fill="#E8EEF3"/>
<path d="M171.599 353.962C172.298 354.168 174.093 354.753 175.179 354.949C171.599 357.296 168.471 359.684 168.141 360.506C167.401 360.381 165.993 360.036 164.314 359.64C167.277 357.172 168.43 355.649 171.599 353.962Z" fill="#E8EEF3"/>
<path d="M180.735 347.049C177.031 349.396 165.672 351.74 159.993 343.592" stroke="#29282D" stroke-width="4.19734"/>
</g>
<path d="M185.065 353.357C185.035 353.989 185.721 354.401 186.266 354.078L188.902 352.514V354.703C188.902 355.305 189.546 355.689 190.076 355.403L193.129 353.752L194.182 356.814C194.39 357.42 195.191 357.544 195.573 357.03L197.919 353.868C198.181 353.515 198.107 353.017 197.754 352.755C197.401 352.493 196.903 352.567 196.641 352.92L195.195 354.868L194.328 352.347C194.169 351.882 193.63 351.672 193.197 351.905L190.493 353.368V351.117C190.493 350.5 189.822 350.118 189.292 350.432L186.723 351.956L186.905 348.074C186.936 347.407 186.182 347.001 185.642 347.393L182.243 349.862C181.888 350.12 181.809 350.618 182.067 350.973C182.325 351.329 182.823 351.408 183.178 351.149L185.238 349.653L185.065 353.357Z" fill="#2A2A2A"/>
<path d="M105.935 357.795C105.844 356.203 105.542 356.675 105.021 355.937C101.034 355.937 101.704 364.161 101.704 364.161L109.019 367.79C109.933 367.745 123.392 367.594 123.392 365.937C110.829 366.553 105.542 364.425 105.542 362.304C105.542 360.614 106.05 359.784 105.935 357.795Z" fill="#29282D"/>
<path d="M101.898 364.888C101.424 363.821 101.765 361.441 102.031 361.043C102.296 360.645 134.525 358.126 134.525 358.126C139.875 357.728 150.797 355.247 151.53 358.126C154.028 367.939 147.389 367.939 143.145 367.939C137.309 367.939 136.617 366.393 132.801 366.877C130.812 367.129 127.894 368.469 114.499 368.469C103.755 368.469 102.959 367.275 101.898 364.888Z" fill="#29282D"/>
<path d="M135.484 347.734C140.898 347.631 143.307 346.081 145.429 342.605H146.603C148.081 344.211 147.484 345.04 148.081 347.734C148.877 351.323 149.55 350.81 150.346 354.144C150.897 356.45 151.009 359.911 149.682 361.836C147.621 364.823 145.038 364.528 140.659 364.528C138.138 364.528 133.892 363.886 130.044 364.912C124.671 366.343 109.875 367.09 106.159 365.937C99.8277 363.972 101.781 358.245 104.434 356.067C109.091 352.241 118.087 352.505 120.357 349.527C122.215 347.092 123.268 345.321 124.379 343.099C124.379 341.124 127.836 341.124 128.083 342.605C127.553 345.683 128.717 347.862 135.484 347.734Z" fill="#3E3C47"/>
<mask id="mask1_0_1528" style="mask-type:luminance" maskUnits="userSpaceOnUse" x="101" y="341" width="50" height="26">
<path d="M135.484 347.734C140.898 347.631 143.307 346.081 145.429 342.605H146.603C148.081 344.211 147.484 345.04 148.081 347.734C148.877 351.323 149.55 350.81 150.346 354.144C150.897 356.45 151.009 359.911 149.682 361.836C147.621 364.823 145.038 364.528 140.659 364.528C138.138 364.528 133.892 363.886 130.044 364.912C124.671 366.343 109.875 367.09 106.159 365.937C99.8277 363.972 101.781 358.245 104.434 356.067C109.091 352.241 118.087 352.505 120.357 349.527C122.215 347.092 123.268 345.321 124.379 343.099C124.379 341.124 127.836 341.124 128.083 342.605C127.553 345.683 128.717 347.862 135.484 347.734Z" fill="white"/>
</mask>
<g mask="url(#mask1_0_1528)">
<path d="M110.798 357.543C107.553 356.656 105.983 355.403 106.6 353.84L121.91 346.802L128.207 350.012C122.651 356.678 113.515 358.284 110.798 357.543Z" fill="#5E5B6A"/>
<path d="M124.75 356.925C124.05 357.131 122.256 357.716 121.169 357.912C124.75 360.259 127.878 362.646 128.207 363.468C128.948 363.344 130.355 362.999 132.035 362.603C129.071 360.134 127.919 358.612 124.75 356.925Z" fill="#E8EEF3"/>
<path d="M130.429 355.443C129.73 355.649 127.935 356.234 126.849 356.431C130.429 358.778 133.557 361.165 133.887 361.987C134.627 361.863 136.035 361.517 137.714 361.122C134.751 358.653 133.598 357.131 130.429 355.443Z" fill="#E8EEF3"/>
<path d="M136.109 353.962C135.409 354.168 133.615 354.753 132.528 354.949C136.109 357.296 139.237 359.684 139.566 360.506C140.307 360.381 141.714 360.036 143.393 359.64C140.43 357.172 139.278 355.649 136.109 353.962Z" fill="#E8EEF3"/>
<path d="M126.972 347.049C130.676 349.396 142.035 351.74 147.715 343.592" stroke="#29282D" stroke-width="4.19734"/>
</g>
<path d="M122.643 353.357C122.672 353.989 121.986 354.401 121.442 354.078L118.805 352.514V354.703C118.805 355.305 118.161 355.689 117.631 355.403L114.579 353.752L113.526 356.814C113.318 357.42 112.516 357.544 112.134 357.03L109.788 353.868C109.527 353.515 109.6 353.017 109.953 352.755C110.306 352.493 110.804 352.567 111.066 352.92L112.512 354.868L113.379 352.347C113.539 351.882 114.078 351.672 114.51 351.905L117.214 353.368V351.117C117.214 350.5 117.885 350.118 118.416 350.432L120.984 351.956L120.803 348.074C120.772 347.407 121.525 347.001 122.065 347.393L125.464 349.862C125.82 350.12 125.899 350.618 125.64 350.973C125.382 351.329 124.885 351.408 124.529 351.149L122.47 349.653L122.643 353.357Z" fill="#2A2A2A"/>
<path d="M109.975 185.328C106.837 203.618 102.788 246.684 109.208 250.881" stroke="#EBBAAA" stroke-width="18.2708" stroke-linecap="round" stroke-linejoin="bevel"/>
<path d="M108.714 165.947C108.714 160.144 121.431 154.222 130.321 151.406L141.926 147.556C143.543 147.505 154.648 147.967 156.249 148.188L174.275 154.222C182.817 155.403 189.828 159.96 188.968 168.539L185.893 205.401L186.745 253.967C186.763 254.415 166.944 248.805 166.496 248.782L131.926 254.777L113.529 253.95C113.099 253.927 112.876 252.669 112.912 252.239L115.383 200.854L108.714 165.947Z" fill="#EBBAAA"/>
<path d="M105.806 152.98C107.933 150.71 116.343 146.441 119.579 145.577C117.537 174.689 114.145 238.415 113.406 241.375C112.481 245.076 96.4877 236.312 94.6385 234.832C89.2059 230.484 93.0172 209.519 93.4795 201.871C93.9418 194.223 103.148 155.817 105.806 152.98Z" fill="#D53126"/>
<path d="M96.9844 245.696L94.515 234.215C98.3425 235.82 107.314 235.285 112.541 234.215C113.735 236.478 115.63 242.542 111.183 244.955C106.862 247.301 100.688 247.013 96.9844 245.696Z" fill="#B33229"/>
<path d="M190.251 187.057C193.389 205.346 197.562 247.795 191.142 251.992" stroke="#EBBAAA" stroke-width="18.2708" stroke-linecap="round" stroke-linejoin="bevel"/>
<path d="M194.42 154.708C192.294 152.438 181.833 147.428 178.596 146.565C180.638 175.677 186.081 240.143 186.821 243.103C187.745 246.804 203.739 238.041 205.588 236.561C211.02 232.212 207.209 211.247 206.747 203.599C206.284 195.951 197.079 157.545 194.42 154.708Z" fill="#D53126"/>
<path d="M200.574 173.724C199.882 179.847 191.931 183.6 186.869 185.946C185.634 202.365 183.313 232.684 183.412 234.956C183.535 237.795 199.956 239.153 205.512 236.437C211.068 233.721 207.186 208.167 207.118 205.08C206.994 199.525 203.413 185.205 200.574 173.724Z" fill="#FFC736"/>
<path d="M203.242 247.424L205.711 235.943C201.884 237.548 192.912 237.013 187.685 235.943C186.492 238.207 184.596 244.27 189.043 246.684C193.365 249.029 199.538 248.741 203.242 247.424Z" fill="#F4B12F"/>
<path d="M187.733 144.096C187.733 140.637 176.991 130.886 176.497 130.516L168.966 139.652L172.299 154.589C173.699 152.737 177.383 146.604 180.572 147.799C183.535 148.91 185.757 149.98 185.881 151.256C186.128 150.844 187.733 146.441 187.733 144.096Z" fill="#BE3228"/>
<path d="M114.393 144.096C114.393 140.637 125.135 130.886 125.629 130.516L133.16 139.652L129.827 154.589C128.427 152.737 124.743 146.604 121.554 147.799C118.591 148.91 116.369 149.98 116.245 151.256C115.998 150.844 114.393 146.441 114.393 144.096Z" fill="#BE3228"/>
<path d="M124.271 217.714C130.598 217.051 135.203 209.132 136.366 205.081C146.368 206.738 151.95 206.71 166.604 205.081C166.604 211.006 172.109 216.609 176.374 217.714V235.67C162.232 238.985 136.211 237.604 124.271 235.67C124.271 228.764 124.271 225.449 124.271 217.714Z" fill="#D2382D" stroke="#C03228" stroke-width="3.45664"/>
<path d="M114.541 154.12C114.897 147.904 120.002 143.039 126.227 142.982L151.412 142.75L174.919 144.805C180.759 145.316 185.361 150.009 185.736 155.861C186.894 173.957 189.174 210.604 189.174 218.526C189.174 229.142 188.436 237.661 187.201 240.377C178.833 244.072 116.084 256.919 113.491 240.377C110.898 223.834 111.268 211.242 111.268 211.242L114.541 154.12Z" fill="#E23D32"/>
<path fill-rule="evenodd" clip-rule="evenodd" d="M145.714 182.557C150.847 181.277 156.012 182.234 160.175 184.81C154.566 186.291 150.146 189.539 146.232 192.415L146.232 192.415C144.752 193.503 143.344 194.537 141.972 195.403C141.123 186.776 143.715 183.539 144.225 182.993C144.711 182.829 145.207 182.683 145.714 182.557ZM140.832 184.526C139.9 186.09 138.416 189.809 139.24 196.885C136.811 197.947 134.417 198.2 131.838 196.959C132.919 191.784 136.17 187.22 140.832 184.526ZM142.29 197.876C142.45 198.886 142.652 199.959 142.904 201.096L168.094 194.816C167.091 191.792 165.371 189.175 163.173 187.108C157.208 187.365 152.343 190.885 147.8 194.173C145.927 195.529 144.109 196.845 142.29 197.876ZM131.53 198.986C134.365 200.306 136.995 200.142 139.571 199.174C139.714 200.008 139.886 200.882 140.092 201.798L131.708 203.888C131.428 202.236 131.376 200.59 131.53 198.986ZM151.073 209.025L151.073 209.025C156.48 209.923 162.271 210.885 167.449 208.281L167.455 208.291C168.898 205.029 169.424 201.337 168.792 197.613L143.594 203.896C144.027 205.496 144.487 206.931 144.961 208.218C146.9 208.332 148.957 208.674 151.073 209.025ZM154.786 218.943C154.28 219.069 153.769 219.175 153.254 219.259C152.553 219.049 149.11 217.69 145.959 210.67C147.413 210.83 148.957 211.099 150.573 211.38C155.051 212.159 160.085 213.034 165.297 211.975C162.791 215.317 159.16 217.852 154.786 218.943ZM136.529 213.594C139.89 217.16 144.581 219.331 149.589 219.497C148.146 218.606 145.36 216.258 142.866 210.532C140.317 210.637 138.161 211.423 136.529 213.594ZM140.793 204.594C141.163 205.927 141.555 207.146 141.962 208.262C139.321 208.542 137.006 209.567 135.207 212.027C134.014 210.444 133.058 208.651 132.406 206.685L140.793 204.594Z" fill="#C03228"/>
<path d="M139.9 168.214C131.998 166.586 122.542 147.362 115.875 147.362C121.554 139.733 138.665 142.276 139.9 147.362C140.888 151.43 143.604 161.432 145.333 164.145C147.308 166.095 147.802 169.841 139.9 168.214Z" fill="#CA2F25"/>
<path d="M158.667 168.159C166.569 166.532 176.991 150.883 185.51 149.281C176.868 135.207 159.902 142.222 158.667 147.307C157.679 151.376 154.963 161.378 153.235 164.091C151.259 166.04 150.765 169.787 158.667 168.159Z" fill="#CA2F25"/>
<path d="M136.196 163.074V197.534C136.196 198.489 136.97 199.263 137.924 199.263C138.879 199.263 139.653 198.489 139.653 197.534V163.074C139.653 162.119 138.879 161.346 137.924 161.346C136.97 161.346 136.196 162.119 136.196 163.074Z" fill="#F94B3F"/>
<path d="M136.69 197.124V200.201C136.69 200.883 137.242 201.435 137.924 201.435C138.606 201.435 139.159 200.883 139.159 200.201V197.124C139.159 196.442 138.606 195.89 137.924 195.89C137.242 195.89 136.69 196.442 136.69 197.124Z" fill="#FFC736"/>
<path d="M160.396 163.074V202.744C160.396 203.699 161.17 204.472 162.124 204.472C163.079 204.472 163.852 203.699 163.852 202.744V163.074C163.852 162.119 163.079 161.346 162.124 161.346C161.17 161.346 160.396 162.119 160.396 163.074Z" fill="#F94B3F"/>
<path d="M160.89 202.235V205.796C160.89 206.477 161.442 207.03 162.124 207.03C162.806 207.03 163.359 206.477 163.359 205.796V202.235C163.359 201.553 162.806 201.001 162.124 201.001C161.442 201.001 160.89 201.553 160.89 202.235Z" fill="#FFC736"/>
<rect x="139.444" y="133.726" width="19.3436" height="29.2661" rx="9.36033" fill="#EBBAAA"/>
<path d="M114.107 252.913L113.652 240.388C134.686 245.844 173.949 244.191 186.986 240.388C186.986 244.48 187.555 247.332 186.986 252.913C179.346 256.485 123.317 258.617 114.107 252.913Z" fill="#C03228"/>
<path d="M184.342 118.549C192.424 118.549 198.977 111.998 198.977 103.916C198.977 95.8347 192.424 89.2832 184.342 89.2832C176.259 89.2832 169.707 95.8347 169.707 103.916C169.707 111.998 176.259 118.549 184.342 118.549Z" fill="#EBBAAA"/>
<path d="M115.447 119.29C107.364 119.29 100.812 112.739 100.812 104.657C100.812 96.5755 107.364 90.0242 115.447 90.0242C123.53 90.0242 130.082 96.5755 130.082 104.657C130.082 112.739 123.53 119.29 115.447 119.29Z" fill="#EBBAAA"/>
<path d="M110.936 75.5802C110.936 54.6489 127.906 37.6807 148.84 37.6807C169.774 37.6807 186.745 54.6489 186.745 75.5802V93.4806L186.136 113.127C185.512 133.273 168.998 149.281 148.84 149.281C129.365 149.281 113.272 134.089 112.154 114.648L110.936 93.4806V75.5802Z" fill="#F4D4C9"/>
<mask id="mask2_0_1528" style="mask-type:luminance" maskUnits="userSpaceOnUse" x="138" y="112" width="23" height="18">
<path fill-rule="evenodd" clip-rule="evenodd" d="M138.099 121.01C138.099 116.578 141.692 112.986 146.124 112.986H152.05C156.483 112.986 160.076 116.578 160.076 121.01C160.076 125.442 156.483 129.035 152.05 129.035H146.124C141.692 129.035 138.099 125.442 138.099 121.01Z" fill="white"/>
</mask>
<g mask="url(#mask2_0_1528)">
<rect x="138.84" y="123.603" width="50.1277" height="10.3699" fill="white"/>
</g>
<path d="M161.188 99.1594V103.604C161.188 105.24 162.514 106.567 164.151 106.567C165.787 106.567 167.113 105.24 167.113 103.604V99.1594C167.113 97.523 165.787 96.1965 164.151 96.1965C162.514 96.1965 161.188 97.523 161.188 99.1594Z" fill="black"/>
<path d="M129.333 99.1594V103.604C129.333 105.24 130.66 106.567 132.296 106.567C133.932 106.567 135.259 105.24 135.259 103.604V99.1594C135.259 97.523 133.932 96.1965 132.296 96.1965C130.66 96.1965 129.333 97.523 129.333 99.1594Z" fill="black"/>
<path d="M151.45 101.243C150.64 98.2161 152.818 95.21 155.947 95.0365L173.398 94.0679C176.527 93.8943 179.025 96.6411 178.555 99.739L177.533 106.472C177.183 108.784 175.259 110.533 172.924 110.662L158.255 111.476C155.921 111.606 153.815 110.081 153.211 107.822L151.45 101.243Z" fill="white" fill-opacity="0.3"/>
<path d="M118.181 99.5036C117.765 96.3978 120.311 93.6954 123.436 93.9241L140.867 95.199C143.993 95.4277 146.118 98.4717 145.255 101.484L143.379 108.031C142.735 110.278 140.603 111.766 138.271 111.596L123.619 110.524C121.287 110.353 119.394 108.571 119.084 106.254L118.181 99.5036Z" fill="white" fill-opacity="0.3"/>
<path fill-rule="evenodd" clip-rule="evenodd" d="M174.348 95.0959L174.373 96.3307L174.286 96.3325C174.262 96.3291 174.24 96.3264 174.22 96.3243L174.348 95.0965L174.322 93.8623L154.942 94.2604L154.968 95.497L154.83 94.2676C154.053 94.3544 152.609 94.9172 151.358 96.3396L151.358 96.3396L153.212 97.9703C153.639 97.4851 154.077 97.1723 154.438 96.9791C154.619 96.8823 154.777 96.8171 154.9 96.7759C154.962 96.7553 155.012 96.7414 155.049 96.7325C155.058 96.7304 155.066 96.7286 155.073 96.7272L174.286 96.3325C174.511 96.364 174.896 96.4522 175.3 96.6265C175.75 96.8207 176.127 97.0798 176.36 97.3866L176.36 97.3866C176.682 97.8102 176.854 98.1848 176.942 98.459C177.012 98.6765 177.022 98.8079 177.025 98.8422L177.025 98.8423L177.026 98.8479L177.026 98.8511L176.607 102.284L176.607 102.284C176.525 102.961 177.006 103.576 177.683 103.659C178.36 103.742 178.976 103.26 179.059 102.583L179.059 102.583L179.382 99.9354L182.204 98.7908C182.205 97.925 182.204 97.3078 182.095 96.4436C180.627 95.4474 177.74 94.6306 176.163 94.3114C175.521 94.0487 174.902 93.9131 174.476 93.8685L174.476 93.8685L174.399 93.8606L174.323 93.8622L174.348 95.0959ZM177.026 98.8511L177.03 98.8181L177.861 98.9194V98.9262L177.028 98.8394L177.027 98.8446C177.027 98.849 177.026 98.8512 177.026 98.8512L177.026 98.8511ZM154.993 96.7288L155.073 96.7272C155.093 96.723 155.103 96.7216 155.104 96.7215L154.968 95.497L154.993 96.7288ZM150.593 97.4608C150.783 97.0862 151.034 96.7078 151.358 96.3396L153.212 97.9703L153.212 97.9703C152.829 98.4051 152.654 98.8335 152.58 99.1762C152.542 99.35 152.531 99.502 152.532 99.6199C152.533 99.6789 152.536 99.7266 152.541 99.7618C152.545 99.7937 152.549 99.8105 152.55 99.8131C152.55 99.8135 152.55 99.8136 152.55 99.8134L152.55 99.8134L152.561 99.8567L152.57 99.9008L151.36 100.137L152.39 99.8568L151.359 100.137L150.146 100.374L150.154 100.411C150.116 100.261 150.088 100.087 150.074 99.8953C148.849 99.4392 147.45 99.4987 146.333 99.8754L145.844 103.031C145.739 103.705 145.108 104.166 144.434 104.062C143.761 103.957 143.299 103.327 143.403 102.653L143.933 99.2353L143.933 99.2353C143.934 99.2354 143.934 99.2321 143.935 99.2256L143.935 99.2236L145.157 99.3912L143.938 99.2023L143.933 99.2353C143.933 99.2348 143.933 99.2317 143.933 99.226C143.931 99.1912 143.924 99.0596 143.862 98.8408C143.783 98.5637 143.623 98.1835 143.315 97.7499C143.092 97.4357 142.724 97.1646 142.28 96.9555C141.882 96.7687 141.501 96.6679 141.278 96.629L141.364 96.63L141.378 95.3968L141.378 95.3956L141.393 94.1611L141.47 94.1621L141.546 94.1726L141.546 94.1726C141.996 94.2342 142.658 94.4051 143.331 94.7215C144 95.0363 144.775 95.5401 145.33 96.3215C145.592 96.6913 145.798 97.0568 145.956 97.4066C147.389 97.0048 149.042 96.9652 150.593 97.4608ZM122.01 93.9613L122.01 93.9298L141.393 94.1611L141.378 95.3968L141.211 96.6185C141.231 96.6213 141.253 96.6248 141.278 96.629L122.061 96.3995C122.081 96.3959 122.092 96.3949 122.093 96.3949L122.093 96.3949C122.093 96.3949 122.093 96.3949 122.093 96.3949L121.996 95.1632L122.01 93.9613ZM121.995 95.1619L122.01 93.9613L122.01 93.9298L121.954 93.9291L121.898 93.9334L121.898 93.9334C121.744 93.9456 121.563 93.9756 121.362 94.0265L121.399 93.9744C120.017 94.1978 116.616 95.0857 114.978 96.1965C114.869 97.0608 114.869 97.6778 114.869 98.5439L116.961 99.3921C116.969 99.5876 116.991 99.7648 117.024 99.9183L117.478 102.729L119.916 102.335L119.916 102.335L117.478 102.729L117.478 102.729C117.587 103.402 118.221 103.86 118.894 103.751C119.567 103.642 120.025 103.009 119.916 102.335L119.916 102.335L119.456 99.4902L119.213 99.5295V99.5295L119.456 99.4901L119.449 99.4458L119.439 99.4022L119.439 99.4022L119.439 99.4022C119.438 99.4004 119.435 99.3833 119.431 99.3502C119.428 99.315 119.426 99.267 119.427 99.2083C119.43 99.0901 119.446 98.9389 119.489 98.7663C119.575 98.4261 119.764 98.0036 120.16 97.5814L119.37 96.8392L119.37 96.8392L120.161 97.5814C120.603 97.1104 121.051 96.812 121.418 96.6308C121.602 96.5399 121.762 96.4798 121.887 96.4424C121.949 96.4239 121.999 96.4117 122.037 96.404C122.046 96.4022 122.054 96.4007 122.061 96.3995L121.981 96.3985L121.995 95.1628L121.996 95.164L121.996 95.1632L121.995 95.1619ZM121.995 95.1619L121.995 95.1628L121.898 93.9334L121.899 93.9334L121.995 95.1619ZM119.439 99.4022L119.213 99.4558V99.4557L119.439 99.4022L119.439 99.4022ZM119.439 99.4022C119.439 99.4024 119.439 99.4024 119.439 99.4022L119.439 99.4022ZM117.024 99.9183L117.018 99.8842L117.845 99.7506L117.891 99.7694L117.036 99.9725C117.032 99.9548 117.028 99.9367 117.024 99.9183ZM150.154 100.411C150.158 100.428 150.162 100.445 150.167 100.461L151.359 100.137L151.36 100.137L151.358 100.137L152.57 99.9008L152.57 99.9008L153.122 102.73L150.698 103.202L150.154 100.411ZM154.942 94.2604L154.968 95.4947L154.83 94.2676L154.886 94.2614L154.942 94.2604ZM152.147 104.178C152.816 104.047 153.253 103.399 153.122 102.73L150.698 103.202C150.829 103.872 151.478 104.308 152.147 104.178Z" fill="black"/>
<path d="M157.483 88.5042L170.038 86.3742C170.213 86.3445 170.391 86.409 170.507 86.5439L173.209 89.6957C173.472 90.0016 173.289 90.4764 172.889 90.527L157.384 92.4904C156.699 92.5772 156.13 91.9667 156.265 91.289L156.66 89.3041C156.742 88.8925 157.069 88.5742 157.483 88.5042Z" fill="#272727"/>
<path d="M138.801 88.4678L126.211 86.5573C126.035 86.5307 125.859 86.5983 125.745 86.7352L123.098 89.9338C122.841 90.2442 123.033 90.7157 123.433 90.7593L138.969 92.4518C139.656 92.5266 140.215 91.9063 140.068 91.231L139.638 89.2535C139.549 88.8434 139.216 88.5308 138.801 88.4678Z" fill="#272727"/>
<path d="M146.151 103.803C144.261 107.138 143.136 109.96 143.08 112.511C142.989 116.575 145.779 119.035 150.94 119.035V114.838C149.284 114.838 148.263 114.543 147.759 114.098C147.424 113.802 147.26 113.349 147.276 112.604C147.313 110.955 148.237 108.635 149.802 105.873L146.151 103.803Z" fill="#EBBAAA"/>
<path d="M174.645 72.494C173.88 66.071 170.957 47.3946 170.447 43.1126C170.085 40.0795 175.905 42.1891 184.528 48.5445C193.152 54.8999 191.806 76.6914 189.461 88.5428L186.133 99.4578L183.47 98.7996V85.086C179.126 80.7129 175.411 78.917 174.645 72.494Z" fill="#272727"/>
<path d="M115.585 69.5922C115.941 63.1342 115.213 63.4667 115.45 59.1614C115.619 56.1117 115.584 48.2976 108.22 59.1611C105.803 62.7267 109.351 78.7174 109.991 87.3896L110.751 95.3825L111.966 95.4496L112.514 85.5072C114.66 78.618 115.228 76.0503 115.585 69.5922Z" fill="#272727"/>
<path fill-rule="evenodd" clip-rule="evenodd" d="M150.185 32.496L150.184 32.4958C150.166 32.4958 150.148 32.4958 150.13 32.4958C150.111 32.4958 150.093 32.4958 150.075 32.4958L150.075 32.496C138.417 32.5385 103.034 44.3471 109.454 71.2593C112.554 67.3297 117.341 68.3314 121.593 65.7668C130.544 60.3682 137.853 58.3917 147.551 58.3917C155.885 58.3917 166.106 60.3814 173.01 63.8681C179.185 66.9871 184.66 66.6108 190.696 71.2596C189.647 39.3558 161.842 32.5385 150.185 32.496Z" fill="#272727"/>
<path d="M137.767 69.539C149.602 59.2196 155.862 60.5898 159.699 57.2572C156.449 56.5093 161.084 45.7502 140.663 54.4899C134.572 57.0966 134.717 64.9581 137.767 69.539Z" fill="#272727"/>
<path d="M148.223 68.7904L153.162 56.6921C178.596 56.6921 179.584 61.1364 178.596 65.087C177.609 69.0373 172.917 71.2595 166.99 72.8643C166.99 70.2717 166.661 65.9921 166.99 63.6054L159.089 66.5683L160.323 61.3833L148.223 68.7904Z" fill="#272727"/>
<path d="M127.594 72.785C135.503 65.557 139.405 63.6318 143.242 60.2992C139.992 59.5513 131.503 57.3468 128.135 61.3126C126.861 63.871 124.544 68.2041 127.594 72.785Z" fill="#272727"/>
<path d="M115.901 77.4503C127.736 67.131 135.401 63.9887 139.237 60.6561C135.987 59.9083 139.218 53.6617 118.796 62.4014C112.706 65.0079 112.851 72.8694 115.901 77.4503Z" fill="#272727"/>
<path d="M119.793 41.6605L117.403 50.1495L148.908 45.2711L184.913 51.8521L184.837 48.3592L182.268 47.2918L182.209 44.5474L178.971 44.6177L178.879 40.3764L174.717 40.4668L173.721 37.2436L170.021 37.324L167.753 34.1283L163.959 35.2092L162.76 33.2384L158.828 33.3239L158.78 31.0784L153.51 33.4395L152.073 31.2242L149.809 33.5199L147.448 31.3247L143.103 33.6656L140.279 31.4805L137.322 33.7913L135.24 33.8365L132.971 35.8827L132.003 33.9069L128.163 38.2337L125.598 37.291L122.351 42.229L119.793 41.6605Z" fill="#272727"/>
</svg>
