<svg width="300" height="400" viewBox="0 0 300 400" fill="none" xmlns="http://www.w3.org/2000/svg">
<path d="M159.192 279.124C162.132 293.335 163.334 330.757 161.093 346.442C160.371 351.499 163.885 356.185 168.942 356.907C173.999 357.63 178.685 354.115 179.407 349.058C181.951 331.25 180.68 291.674 177.308 275.376C176.273 270.373 171.379 267.157 166.376 268.192C161.373 269.227 158.157 274.121 159.192 279.124Z" fill="#EBBAAA"/>
<path d="M120.884 276.243C118.891 300.525 121.977 332.344 127.331 351.826C128.685 356.752 133.775 359.648 138.701 358.294C143.627 356.941 146.523 351.85 145.17 346.924C143.04 339.175 141.107 327.877 139.946 315.904C138.647 302.512 138.382 289.208 139.322 277.757C139.74 272.665 135.951 268.199 130.86 267.781C125.768 267.363 121.302 271.152 120.884 276.243Z" fill="#EBBAAA"/>
<path d="M115.25 260.796L145.535 263.362V348.315H123.598L115.25 260.796Z" fill="#32405F"/>
<path d="M152.208 263.362H183.264V348.315H160.768L152.208 263.362Z" fill="#32405F"/>
<path d="M146 343.25H122.75V349C131.83 349 136.92 349 146 349V343.25Z" fill="#2A3144"/>
<path d="M183.25 342.5H160V348.25C169.08 348.25 174.17 348.25 183.25 348.25V342.5Z" fill="#2A3144"/>
<path d="M204.042 363C204.042 355.325 199.11 354.387 191.072 351.757C187.136 350.47 183.118 349.347 179.042 348.672C176.48 348.247 175.792 350.5 171.292 350.5C167.279 350.5 162.272 348.512 161.235 348.082C161.105 348.027 160.951 347.98 160.848 348.075C160.823 348.097 160.802 348.127 160.786 348.157C160.307 349.142 157.792 354.512 157.792 358.81C157.792 362.097 157.51 365.33 158.417 367C158.826 367.752 161.379 368.165 162.237 368.165H202.651C203.419 368.165 204.042 363.767 204.042 363Z" fill="#D0D4DB"/>
<mask id="mask0_0_1650" style="mask-type:luminance" maskUnits="userSpaceOnUse" x="157" y="348" width="48" height="21">
<path d="M204.042 363C204.042 355.325 199.11 354.387 191.072 351.757C187.136 350.47 183.118 349.347 179.042 348.672C176.48 348.247 175.792 350.5 171.292 350.5C167.279 350.5 162.272 348.512 161.235 348.082C161.105 348.027 160.951 347.98 160.848 348.075C160.823 348.097 160.802 348.127 160.786 348.157C160.307 349.142 157.792 354.512 157.792 358.81C157.792 362.097 157.51 365.33 158.417 367C158.826 367.752 161.379 368.165 162.237 368.165H202.651C203.419 368.165 204.042 363.767 204.042 363Z" fill="white"/>
</mask>
<g mask="url(#mask0_0_1650)">
<path d="M176.661 352.614C175.504 355.579 169.157 362.749 166.458 364.211L168.125 367.289C171.551 365.433 178.463 357.624 179.922 353.886L176.661 352.614Z" fill="#DE6161"/>
<path d="M193.591 363.751C191.876 360.777 184.115 356.702 179.101 356.501C174.994 356.337 171.275 355.996 167.876 355.369C163.5 354.561 160.181 353.347 158.258 351.728L156.325 354.022C158.736 356.053 162.488 357.425 167.332 358.319C170.894 358.977 174.744 359.329 178.981 359.499C181.042 359.581 183.76 360.467 186.375 361.84C188.675 363.048 190.547 364.478 190.992 365.249L193.591 363.751Z" fill="#458AD6"/>
<path d="M184.466 366.251C182.764 363.3 176.947 358.777 172.371 357.321C162.927 354.316 155.279 351.173 151.633 348.103L149.7 350.397C152.003 352.336 155.68 354.275 160.44 356.231C163.891 357.649 167.556 358.937 171.462 360.179C175.34 361.414 180.549 365.463 181.867 367.749L184.466 366.251Z" fill="#458AD6"/>
<path d="M199.005 354.505C202.243 352.675 200.973 356.3 203.882 357.84L210.041 369.647H161.021C159.823 367.935 155.107 364.102 158.763 364.102C166.763 364.102 176.42 364.357 181.04 364.102C185.659 363.845 198.884 364.77 198.107 360.662C197.209 355.915 196.054 356.172 199.005 354.505Z" fill="#AEB5C0"/>
<path d="M184.81 353.626C184.43 354.237 185.021 354.988 185.704 354.764L191.328 352.919L189.325 355.77C189.08 356.118 189.164 356.598 189.512 356.842C189.86 357.087 190.34 357.003 190.585 356.655L193.921 351.908C194.347 351.302 193.755 350.502 193.051 350.733L187.235 352.641L189.069 349.689C189.448 349.079 188.86 348.328 188.177 348.55L181.037 350.87C181.266 350.612 181.56 350.341 181.918 350.055C182.083 349.923 182.255 349.793 182.476 349.63C182.466 349.637 182.894 349.323 183.003 349.241C183.344 348.986 183.413 348.503 183.157 348.163C182.902 347.823 182.42 347.754 182.079 348.009C181.977 348.086 181.558 348.393 181.562 348.391C181.326 348.564 181.14 348.706 180.957 348.852C179.635 349.908 178.896 350.9 178.896 352.125C178.896 352.648 179.407 353.019 179.904 352.857L186.649 350.666L184.81 353.626Z" fill="white"/>
</g>
<path d="M101.959 363C101.959 355.325 106.89 354.387 114.928 351.757C118.865 350.47 122.882 349.347 126.959 348.672C129.52 348.247 130.209 350.5 134.709 350.5C138.722 350.5 143.728 348.512 144.765 348.082C144.895 348.027 145.049 347.98 145.153 348.075C145.178 348.097 145.199 348.127 145.214 348.157C145.694 349.142 148.209 354.512 148.209 358.81C148.209 362.097 148.49 365.33 147.584 367C147.175 367.752 144.621 368.165 143.763 368.165H103.349C102.581 368.165 101.959 363.767 101.959 363Z" fill="#D0D4DB"/>
<mask id="mask1_0_1650" style="mask-type:luminance" maskUnits="userSpaceOnUse" x="101" y="348" width="48" height="21">
<path d="M101.959 363C101.959 355.325 106.89 354.387 114.928 351.757C118.865 350.47 122.882 349.347 126.959 348.672C129.52 348.247 130.209 350.5 134.709 350.5C138.722 350.5 143.728 348.512 144.765 348.082C144.895 348.027 145.049 347.98 145.153 348.075C145.178 348.097 145.199 348.127 145.214 348.157C145.694 349.142 148.209 354.512 148.209 358.81C148.209 362.097 148.49 365.33 147.584 367C147.175 367.752 144.621 368.165 143.763 368.165H103.349C102.581 368.165 101.959 363.767 101.959 363Z" fill="white"/>
</mask>
<g mask="url(#mask1_0_1650)">
<path d="M129.339 352.614C130.496 355.579 136.843 362.749 139.542 364.211L137.875 367.289C134.449 365.433 127.537 357.624 126.079 353.886L129.339 352.614Z" fill="#DE6161"/>
<path d="M112.409 363.751C114.124 360.777 121.885 356.702 126.899 356.501C131.006 356.337 134.725 355.996 138.124 355.369C142.5 354.561 145.819 353.347 147.743 351.728L149.675 354.022C147.264 356.053 143.512 357.425 138.669 358.319C135.106 358.977 131.257 359.329 127.019 359.499C124.958 359.581 122.24 360.467 119.625 361.84C117.325 363.048 115.453 364.478 115.008 365.249L112.409 363.751Z" fill="#458AD6"/>
<path d="M121.534 366.251C123.236 363.3 129.054 358.777 133.629 357.321C143.073 354.316 150.721 351.174 154.368 348.103L156.3 350.397C153.997 352.336 150.321 354.275 145.56 356.231C142.109 357.649 138.445 358.937 134.539 360.179C130.66 361.414 125.451 365.463 124.133 367.749L121.534 366.251Z" fill="#458AD6"/>
<path d="M106.995 354.505C103.758 352.675 105.027 356.3 102.119 357.84L95.9588 369.647H144.98C146.177 367.935 150.893 364.102 147.237 364.102C139.237 364.102 129.58 364.357 124.961 364.102C120.341 363.845 107.117 364.77 107.893 360.662C108.791 355.915 109.946 356.172 106.995 354.505Z" fill="#AEB5C0"/>
<path d="M121.191 353.626C121.57 354.237 120.98 354.988 120.297 354.764L114.672 352.919L116.675 355.77C116.92 356.118 116.836 356.598 116.488 356.842C116.14 357.087 115.66 357.003 115.415 356.655L112.079 351.908C111.653 351.302 112.245 350.502 112.949 350.733L118.766 352.641L116.931 349.689C116.552 349.079 117.14 348.328 117.823 348.55L124.963 350.87C124.734 350.612 124.441 350.341 124.082 350.055C123.917 349.923 123.745 349.793 123.524 349.63C123.534 349.637 123.107 349.323 122.997 349.241C122.657 348.986 122.588 348.503 122.843 348.163C123.098 347.823 123.581 347.754 123.921 348.009C124.023 348.086 124.443 348.393 124.439 348.391C124.674 348.564 124.86 348.706 125.043 348.852C126.365 349.908 127.104 350.9 127.104 352.125C127.104 352.648 126.593 353.019 126.096 352.857L119.351 350.666L121.191 353.626Z" fill="white"/>
</g>
<path d="M191.5 155.25C189.5 147.75 183.741 143.917 180.491 141.5L167.241 150.25C166.491 152.333 166.041 156.85 170.241 158.25C175.491 160 177.75 174.5 185 171.5C192.25 168.5 192.79 160.087 191.5 155.25Z" fill="#2E3137"/>
<path d="M107 152C109.5 141.75 116.902 140.667 120.152 138.25L133.402 147C134.152 149.083 134.602 153.6 130.402 155C125.152 156.75 122.893 171.25 115.643 168.25C108.393 165.25 105.814 156.864 107 152Z" fill="#2E3137"/>
<path d="M124.016 192.234C124.625 191.319 125.268 190.359 125.984 189.297C126.862 187.995 129.907 183.505 130.439 182.717C132.171 180.154 133.462 178.213 134.631 176.408C137.893 171.365 136.451 164.633 131.408 161.37C126.366 158.107 119.633 159.55 116.37 164.592C115.295 166.254 114.074 168.088 112.416 170.543C111.901 171.305 108.848 175.806 107.95 177.138C107.211 178.235 106.544 179.23 105.908 180.185C102.326 185.568 99.6572 189.825 97.4939 193.719L96.9391 194.872C88.6808 215.002 86.0356 242.042 88.9516 266.536C89.6616 272.5 95.0719 276.759 101.036 276.049C107 275.339 111.259 269.928 110.549 263.964C108.073 243.163 110.276 220.094 116.823 203.718C118.606 200.56 120.915 196.895 124.016 192.234Z" fill="#EBBAAA"/>
<rect x="139.452" y="144.004" width="19.2142" height="28.8213" rx="9.60707" fill="#EBBAAA"/>
<path fill-rule="evenodd" clip-rule="evenodd" d="M180.694 211.207C180.643 211.17 180.644 211.173 180.684 211.217C180.877 211.428 181.128 211.747 181.417 212.164C182.144 213.212 182.963 214.664 183.81 216.44C185.651 220.297 187.462 225.328 188.977 230.849C192.249 242.774 193.67 255.121 192.591 263.354C191.82 269.241 195.968 274.638 201.854 275.409C207.741 276.18 213.138 272.033 213.909 266.146C215.411 254.682 213.678 239.617 209.711 225.16C207.877 218.477 205.64 212.264 203.214 207.18C200.287 201.047 197.137 196.502 193.208 193.724C193.07 193.626 192.822 193.37 192.498 192.919C192.032 192.271 191.541 191.388 191.051 190.286C190.024 187.978 189.103 184.951 188.25 181.178C187.616 178.371 186.122 170.086 185.65 167.468C185.565 166.996 185.513 166.708 185.505 166.67C185.422 166.253 185.339 165.857 185.257 165.478C184.003 159.675 178.281 155.988 172.478 157.243C166.675 158.497 162.988 164.219 164.243 170.022C164.301 170.288 164.36 170.576 164.423 170.888C164.385 170.698 166.398 182.02 167.279 185.916C168.416 190.948 169.721 195.234 171.407 199.025C173.705 204.191 176.659 208.32 180.694 211.207ZM180.793 211.276L180.742 211.241L180.724 211.228L180.793 211.276Z" fill="#EBBAAA"/>
<rect x="101.387" y="153.5" width="47.0373" height="106.371" rx="23.5186" transform="rotate(12 101.387 153.5)" fill="#33363F"/>
<path d="M108.249 176.75C108.249 165.152 117.651 155.75 129.249 155.75H134.621C136.837 155.75 138.856 157.024 139.811 159.025L145.999 172L142.999 221.5L145.894 293.15C145.951 294.567 144.816 295.75 143.396 295.75H110.749C109.368 295.75 108.249 294.63 108.249 293.25V215.25V176.75Z" fill="#3E414A"/>
<rect width="47.0373" height="109.322" rx="23.5186" transform="matrix(-0.978148 0.207912 0.207912 0.978148 197.51 155.75)" fill="#33363F"/>
<rect x="83.0554" y="242.5" width="33.75" height="19" rx="2" transform="rotate(17 83.0554 242.5)" fill="#2E3137"/>
<rect width="33.75" height="19" rx="2" transform="matrix(-0.956305 0.292372 0.292372 0.956305 216.776 243.25)" fill="#2E3137"/>
<path d="M110.875 159.125C117 155.625 122.712 165 125.212 168C128.462 164.417 132.775 158.425 132.375 155.625C130.625 154.75 127.125 154.25 119.875 149.25L117 151.5C112.5 152.5 108.389 160.546 110.875 159.125Z" fill="#2E3137"/>
<path d="M128 166V208C128 208.966 128.784 209.75 129.75 209.75C130.717 209.75 131.5 208.966 131.5 208V166C131.5 165.034 130.717 164.25 129.75 164.25C128.784 164.25 128 165.034 128 166Z" fill="#85899C"/>
<path d="M128.5 207.5V211.25C128.5 211.94 129.06 212.5 129.75 212.5C130.441 212.5 131 211.94 131 211.25V207.5C131 206.81 130.441 206.25 129.75 206.25C129.06 206.25 128.5 206.81 128.5 207.5Z" fill="#C6C8D2"/>
<path d="M191.143 174.397C190.386 164.259 181.285 156.827 171.201 158.111L163.467 159.095C162.665 159.197 161.893 159.467 161.203 159.887L150.75 166.25L139.25 186.25V293.25C139.25 294.63 140.37 295.75 141.75 295.75H194.406C195.823 295.75 196.957 294.572 196.905 293.158L193.875 211L191.143 174.397Z" fill="#3E414A"/>
<path fill-rule="evenodd" clip-rule="evenodd" d="M174.751 184.5C178.249 184.5 181.277 185.517 183.721 187.461C186.241 189.466 187.501 191.859 187.501 194.656V198.5H182.386V194.536C182.386 192.981 181.691 191.635 180.28 190.528C179.941 190.244 179.584 190.019 179.171 189.795C178.042 189.182 176.707 188.912 175.316 188.912H174.752L174.751 184.5ZM181.896 198.5H177.91V195.434C177.91 194.925 177.703 194.536 177.27 194.207C176.857 193.864 176.293 193.699 175.728 193.699H174.751V189.301H175.315C176.781 189.301 178.041 189.631 179.17 190.304C179.452 190.408 179.734 190.633 179.94 190.797C181.276 191.859 181.896 193.086 181.896 194.537V198.5ZM174.75 198.5H177.421V195.434C177.421 195.045 177.214 194.701 176.932 194.477C176.575 194.207 176.161 194.088 175.728 194.088H174.75V198.5Z" fill="white"/>
<path d="M162.75 240.677C162.75 240.154 163.153 239.72 163.675 239.68L194.713 237.329C195.279 237.286 195.767 237.722 195.788 238.29L196.965 271.009C196.984 271.557 196.558 272.02 196.009 272.044L163.794 273.454C163.225 273.479 162.75 273.025 162.75 272.455V240.677Z" fill="#2F3137"/>
<path d="M166.5 170.5V212.5C166.5 213.466 167.284 214.25 168.25 214.25C169.217 214.25 170 213.466 170 212.5V170.5C170 169.534 169.217 168.75 168.25 168.75C167.284 168.75 166.5 169.534 166.5 170.5Z" fill="#85899C"/>
<path d="M167 212V215.75C167 216.44 167.56 217 168.25 217C168.941 217 169.5 216.44 169.5 215.75V212C169.5 211.31 168.941 210.75 168.25 210.75C167.56 210.75 167 211.31 167 212Z" fill="#C6C8D2"/>
<path d="M162.75 238.969C162.75 238.426 163.185 237.982 163.728 237.97L194.844 237.27C195.358 237.259 195.798 237.639 195.86 238.15L196.866 246.449C196.938 247.04 196.481 247.562 195.886 247.57L163.763 247.987C163.206 247.994 162.75 247.544 162.75 246.987V238.969Z" fill="#474952"/>
<path d="M133.5 240.658C133.5 240.143 133.109 239.712 132.596 239.663L108.551 237.352C107.975 237.297 107.472 237.741 107.455 238.319L106.528 271.027C106.513 271.569 106.931 272.024 107.472 272.054L132.445 273.441C133.018 273.473 133.5 273.017 133.5 272.443V240.658Z" fill="#2D2E32"/>
<path d="M136 238.966C136 238.424 135.568 237.981 135.026 237.967L107.776 237.274C107.255 237.26 106.812 237.649 106.756 238.167L105.867 246.465C105.804 247.05 106.258 247.563 106.847 247.571L134.986 247.985C135.544 247.993 136 247.543 136 246.985V238.966Z" fill="#474952"/>
<path d="M139 181.75H154V296C154 296.827 153.329 297.5 152.5 297.5H140.5C139.672 297.5 139 296.827 139 296V181.75Z" fill="#2E3137"/>
<path d="M187 161C184.2 160.4 178.5 166.25 176 169.25C172.75 165.667 166.35 157.8 166.75 155C168.875 155 172.875 156.125 178.625 147.5L180.25 151.5C183.667 154.917 189.8 161.6 187 161Z" fill="#2E3137"/>
<path d="M108.209 124.222C116.227 124.222 122.727 118.057 122.727 110.452C122.727 102.847 116.227 96.6821 108.209 96.6821C100.192 96.6821 93.692 102.847 93.692 110.452C93.692 118.057 100.192 124.222 108.209 124.222Z" fill="#EBBAAA"/>
<path d="M189.976 125.29C197.994 125.29 204.494 119.125 204.494 111.52C204.494 103.915 197.994 97.7496 189.976 97.7496C181.959 97.7496 175.459 103.915 175.459 111.52C175.459 119.125 181.959 125.29 189.976 125.29Z" fill="#EBBAAA"/>
<path d="M106.494 84.8887C105.542 60.7985 124.814 40.75 148.923 40.75C173.09 40.75 192.385 60.8912 191.347 85.036L189.945 117.649C189 139.65 170.888 157 148.867 157C126.79 157 108.653 139.566 107.782 117.506L106.494 84.8887Z" fill="#EED4CC"/>
<path d="M137.723 132.011C145.506 135.445 151.042 135.648 159.508 132.019C160.486 131.6 160.938 130.469 160.519 129.492C160.101 128.515 158.969 128.062 157.992 128.481C150.55 131.67 146.12 131.508 139.277 128.489C138.305 128.06 137.168 128.5 136.739 129.473C136.31 130.446 136.75 131.582 137.723 132.011Z" fill="#C99584"/>
<path d="M138.841 85.2935L123.09 84.0243C122.904 84.0093 122.726 84.0988 122.627 84.2563L119.464 89.2765C119.259 89.6033 119.485 90.0298 119.871 90.0428L139.649 90.7048C140.321 90.7273 140.823 90.0938 140.648 89.4448L139.727 86.0298C139.617 85.622 139.262 85.3273 138.841 85.2935Z" fill="#4B362D"/>
<path d="M157.674 85.2942L173.619 84.024C173.804 84.0092 173.981 84.0975 174.081 84.2537L177.279 89.2742C177.487 89.6007 177.261 90.0297 176.874 90.0427L156.855 90.7052C156.182 90.7275 155.68 90.092 155.857 89.4425L156.789 86.0277C156.9 85.621 157.254 85.3277 157.674 85.2942Z" fill="#4B362D"/>
<path d="M131.813 101.682V108.749C131.813 110.406 133.156 111.749 134.813 111.749C136.47 111.749 137.813 110.406 137.813 108.749V101.682C137.813 100.025 136.47 98.682 134.813 98.682C133.156 98.682 131.813 100.025 131.813 101.682Z" fill="#583B2F"/>
<path d="M161.275 101.682V108.749C161.275 110.406 162.618 111.749 164.275 111.749C165.932 111.749 167.275 110.406 167.275 108.749V101.682C167.275 100.025 165.932 98.682 164.275 98.682C162.618 98.682 161.275 100.025 161.275 101.682Z" fill="#583B2F"/>
<rect x="103.25" y="68.75" width="5.75" height="30.75" rx="2.875" fill="#754936"/>
<path fill-rule="evenodd" clip-rule="evenodd" d="M114.22 45.7314L116.625 41.75L118.426 42.1593C119.136 41.6475 119.869 41.159 120.625 40.6937L123 37.5L125.181 38.293C125.626 38.0934 126.078 37.9004 126.536 37.7139L130 34.25L130.961 36.1718C131.033 36.1506 131.105 36.1297 131.177 36.1088L133.5 34.25H135.75L139 32L141.82 34.1149C142.013 34.0957 142.207 34.0774 142.402 34.0598L146.75 32L148.699 33.7537C148.965 33.7512 149.232 33.75 149.5 33.75C149.602 33.75 149.704 33.7502 149.805 33.7507L151.75 32L152.979 33.844C153.357 33.8648 153.731 33.889 154.102 33.9165L159 32V34.25H163.25L164.119 35.6402C164.556 35.7641 164.988 35.8937 165.413 36.0287L168.625 35.25L170.732 38.1335C170.981 38.2535 171.228 38.3757 171.473 38.5H175L175.794 41.0803C176.11 41.2996 176.421 41.5229 176.726 41.75H180.5V44.9805C180.84 45.315 181.173 45.6549 181.497 46H184V48.75L186.75 49.875V53.0862C191.412 61.1218 193.25 70.5315 193.25 79L187.75 87.375C187.75 87.375 186.5 83.625 185.125 81.25C183.75 78.875 180.375 75.75 180.375 75.75C180.196 74.1409 180.181 72.3478 180.166 70.5314C180.128 65.9981 180.088 61.3203 177.5 59C173.944 57.5254 166.625 56.3412 158.218 55.6778L150.416 60.6208C150.808 58.5776 151.033 56.8059 151.123 55.2547C150.046 55.2106 148.964 55.1751 147.881 55.1489L141.75 59.3097C141.75 59.3097 141.758 57.7231 141.811 55.2588L134 60.5597C134 60.5597 134.011 58.4703 134.087 55.363C129.991 55.6173 126.251 56.0585 123.209 56.7162L117.5 61.5597C117.5 61.5597 117.506 60.4557 117.538 58.6592C117.347 58.7699 117.168 58.8835 117 59C114.736 60.5747 114.111 63.9295 113.366 67.9293C112.959 70.1138 112.516 72.4907 111.75 74.875C107.375 81 102.65 87.35 103.25 73.75C103.782 61.6998 107.598 52.3504 114.22 45.7314Z" fill="#754936"/>
<rect x="187.5" y="72.5" width="5.75" height="30.5" rx="2.875" fill="#754936"/>
<path d="M145.26 108.211C145.18 108.794 145.072 109.115 144.116 111.727C143.886 112.355 143.714 112.844 143.555 113.326C142.73 115.835 142.446 117.696 142.924 119.388C143.619 121.843 145.782 123.125 149 123.125V118.875C148.136 118.875 147.57 118.751 147.265 118.569C147.123 118.485 147.063 118.406 147.014 118.231C146.835 117.597 147.017 116.404 147.593 114.653C147.734 114.224 147.892 113.776 148.107 113.187C149.25 110.063 149.326 109.837 149.47 108.789L145.26 108.211Z" fill="#EBBAAA"/>
<path d="M144.03 105.023C144.04 105.015 144.098 104.974 144.202 104.911C144.397 104.792 144.636 104.669 144.917 104.553C145.746 104.209 146.732 104 147.875 104C149.005 104 149.967 104.218 150.764 104.578C151.033 104.699 151.26 104.826 151.445 104.95C151.541 105.014 151.594 105.055 151.601 105.062C152.118 105.52 152.908 105.471 153.366 104.954C153.824 104.437 153.775 103.647 153.258 103.19C153.169 103.111 153.028 103.001 152.836 102.872C152.538 102.673 152.19 102.478 151.791 102.298C150.679 101.798 149.37 101.5 147.875 101.5C146.393 101.5 145.083 101.777 143.959 102.243C143.556 102.41 143.203 102.592 142.9 102.776C142.705 102.895 142.561 102.996 142.471 103.069C141.931 103.499 141.842 104.286 142.273 104.825C142.703 105.365 143.49 105.454 144.03 105.023Z" fill="#2E2622"/>
<path fill-rule="evenodd" clip-rule="evenodd" d="M141.186 114.253C143.378 111.668 144.5 108.112 144.5 104.175C144.5 101.1 143.78 98.8392 141.956 97.1468C139.738 95.0876 135.932 94 130.151 94C124.764 94 121.056 94.7216 118.639 96.2968C116.172 97.9048 115 100.441 115 104.175C115 108.456 115.854 111.795 117.862 114.253C120.26 117.189 124.252 118.75 130.151 118.75C135.017 118.75 138.724 117.157 141.186 114.253ZM140.256 98.9792C141.488 100.123 142 101.731 142 104.175C142 107.554 141.059 110.537 139.279 112.637C137.31 114.959 134.306 116.25 130.151 116.25C124.949 116.25 121.675 114.969 119.798 112.672C118.217 110.736 117.5 107.932 117.5 104.175C117.5 101.234 118.301 99.5015 120.004 98.3912C121.927 97.1379 125.205 96.5 130.151 96.5C135.359 96.5 138.575 97.4189 140.256 98.9792Z" fill="#2E2622"/>
<path fill-rule="evenodd" clip-rule="evenodd" d="M154.814 114.253C152.622 111.668 151.5 108.112 151.5 104.175C151.5 101.1 152.22 98.8392 154.044 97.1468C156.262 95.0876 160.068 94 165.85 94C171.236 94 174.944 94.7216 177.361 96.2968C179.828 97.9048 181 100.441 181 104.175C181 108.456 180.146 111.795 178.138 114.253C175.741 117.189 171.748 118.75 165.85 118.75C160.984 118.75 157.276 117.157 154.814 114.253ZM155.744 98.9792C154.513 100.123 154 101.731 154 104.175C154 107.554 154.941 110.537 156.721 112.637C158.691 114.959 161.694 116.25 165.85 116.25C171.051 116.25 174.325 114.969 176.202 112.672C177.783 110.736 178.5 107.932 178.5 104.175C178.5 101.234 177.699 99.5015 175.996 98.3912C174.073 97.1379 170.795 96.5 165.85 96.5C160.641 96.5 157.425 97.4189 155.744 98.9792Z" fill="#2E2622"/>
<path d="M122.5 170.565C138 167.532 144.214 177.922 148.75 185.125C148.75 182.977 150 176.375 148.75 172.375C147.414 168.098 141.5 155.875 133.5 151C126.5 152.875 122.5 165.257 122.5 170.565Z" fill="#484C58"/>
<path d="M181 175C160.5 171 145.25 190.25 139.25 199.75C139.25 196.917 137.666 196.338 139.25 185.25C141.5 169.5 155.583 153.917 165.25 151.25C173.5 157 179 168 181 175Z" fill="#474952"/>
</svg>
