<svg width="300" height="400" viewBox="0 0 300 400" fill="none" xmlns="http://www.w3.org/2000/svg">
<path d="M132.375 276.218V353.968" stroke="#F6DDD6" stroke-width="17"/>
<path d="M165.625 286.718V349.718" stroke="#F6DDD6" stroke-width="17"/>
<path d="M153.337 328.83C154.486 326.967 157.071 327.415 158.22 327.872L157.933 328.965C157.454 329.057 156.238 329.24 155.779 329.787C155.204 330.47 155.635 331.84 155.204 332.112C154.773 332.387 153.625 332.112 153.05 332.112C152.476 332.112 151.901 331.155 153.337 328.83Z" fill="black"/>
<path d="M204.235 362.577C204.541 361.825 204.488 360.195 202.602 359.442C200.716 358.69 178.462 362.577 178.462 362.577C172.734 362.11 157.347 354.622 151.682 358.062C149.89 359.15 150.497 362.6 151.159 365.825C152.218 366.9 162.927 367.842 166.4 367.035C166.4 365.152 166.67 363.942 166.67 363.942C166.67 363.942 168.773 365.297 171.044 365.825C175.676 366.9 176.689 368.092 191.035 368.092C202.541 367.017 203.368 364.707 204.235 362.577Z" fill="#383129"/>
<path fill-rule="evenodd" clip-rule="evenodd" d="M152.638 360.276C152.998 360.493 153.423 360.672 153.963 360.832L153.82 361.311C153.242 361.14 152.778 360.945 152.38 360.704L152.638 360.276ZM201.969 361.88C202.427 361.534 202.794 361.201 203.04 360.911L203.421 361.234C203.149 361.555 202.755 361.913 202.27 362.279L201.969 361.88ZM199.443 363.401C199.901 363.177 200.337 362.941 200.744 362.698L201 363.127C200.581 363.377 200.133 363.62 199.663 363.85L199.443 363.401ZM198.089 364.001C197.635 364.183 197.169 364.35 196.694 364.502L196.846 364.978C197.332 364.823 197.81 364.652 198.275 364.466L198.089 364.001ZM193.81 365.198C194.298 365.117 194.783 365.019 195.262 364.903L195.38 365.389C194.888 365.507 194.392 365.609 193.892 365.691L193.81 365.198ZM192.336 365.385C191.844 365.429 191.351 365.454 190.857 365.459L190.862 365.959C191.369 365.954 191.875 365.928 192.38 365.883L192.336 365.385ZM187.875 365.418C188.37 365.433 188.868 365.444 189.371 365.451L189.364 365.951C188.859 365.944 188.357 365.933 187.86 365.918L187.875 365.418ZM186.38 365.36C185.878 365.336 185.38 365.309 184.887 365.276L184.855 365.775C185.351 365.808 185.851 365.836 186.357 365.86L186.38 365.36ZM181.907 365.028C182.397 365.078 182.894 365.124 183.396 365.166L183.355 365.664C182.849 365.622 182.35 365.576 181.856 365.525L181.907 365.028ZM180.421 364.86C179.919 364.798 179.425 364.732 178.94 364.662L178.868 365.157C179.357 365.227 179.855 365.294 180.36 365.356L180.421 364.86ZM175.994 364.165C176.472 364.258 176.962 364.347 177.464 364.431L177.381 364.924C176.875 364.839 176.381 364.749 175.899 364.656L175.994 364.165ZM174.531 363.86C174.029 363.748 173.545 363.632 173.081 363.512L172.956 363.996C173.426 364.117 173.915 364.235 174.422 364.348L174.531 363.86ZM170.202 362.693C170.669 362.83 171.149 362.97 171.641 363.113L171.502 363.593C171.009 363.45 170.529 363.31 170.061 363.173L170.202 362.693ZM168.764 362.268C168.249 362.115 167.768 361.971 167.328 361.839L167.183 362.317C167.624 362.45 168.106 362.594 168.621 362.748L168.764 362.268ZM164.302 361.566C164.838 361.536 165.348 361.502 165.793 361.467L165.832 361.966C165.383 362.001 164.869 362.035 164.329 362.065L164.302 361.566ZM162.809 361.633C162.301 361.65 161.801 361.662 161.315 361.667L161.32 362.167C161.81 362.162 162.314 362.15 162.826 362.132L162.809 361.633ZM158.336 361.597C158.79 361.629 159.287 361.65 159.822 361.661L159.812 362.161C159.269 362.15 158.764 362.129 158.301 362.096L158.336 361.597ZM156.868 361.432C156.293 361.339 155.816 361.255 155.399 361.173L155.303 361.664C155.726 361.747 156.208 361.832 156.788 361.925L156.868 361.432Z" fill="#67513B"/>
<path d="M170.793 327.345C169.566 327.345 162.402 331.095 158.694 328.177C158.289 327.857 157.466 328.12 157.465 328.635C157.458 333.622 157.385 342.307 156.635 345.752C155.841 349.397 155.171 348.875 154.377 352.262C153.827 354.605 152.047 360.072 154.377 360.072H165.002C167.516 360.072 170.911 362.985 179.283 363.802C193.179 365.16 196.574 363.302 199.349 362.425C205.662 360.427 202.458 355.86 199.349 354.4C194.794 352.262 188.266 350.655 184.945 348.882C182.36 347.505 181.472 347.075 180.144 345.622C177.955 343.23 176.032 330.637 175.736 327.355C175.715 327.127 175.395 327.01 175.201 327.13C173.906 327.927 172.009 327.345 170.793 327.345Z" fill="#2D2B30"/>
<path d="M197.488 357.78C195.764 358.302 194.616 358.572 193.132 358.732C191.117 358.948 188.981 358.849 186.61 358.353C186.137 358.255 185.673 358.558 185.575 359.031C185.476 359.504 185.779 359.968 186.252 360.066C188.804 360.599 191.124 360.708 193.319 360.472C194.934 360.298 196.175 360.006 197.995 359.455C198.457 359.315 198.719 358.826 198.579 358.364C198.439 357.901 197.95 357.64 197.488 357.78Z" fill="#59555F"/>
<path d="M181.605 353.55C179.143 351.292 170.164 346.25 170.793 327.345C169.726 327.345 167.147 328.725 163.249 328.975C159.156 328.852 159.223 328.482 158.139 327.872C158.11 327.855 158.076 327.83 158.048 327.812C156.348 326.667 157.113 344.9 155.892 348.13C154.908 350.74 153.061 354.65 153.061 359.415C153.923 360.92 162.417 360.167 165.125 360.167C166.392 353.425 176.325 358.565 178.462 357.937C180.338 357.387 181.605 356.307 181.605 353.55Z" fill="#1D1D20"/>
<path d="M178.588 345.425C175.771 343.217 174.69 332.485 174.564 327.345C175.067 327.22 175.193 326.87 175.57 326.995C175.947 327.12 175.947 328.625 176.073 329.877C176.211 331.25 177.205 335.52 177.708 338.405C178.211 341.287 178.713 343.042 180.599 345.425C182.108 347.33 188.017 349.287 189.903 350.917C189.694 350.875 189.149 350.59 188.646 350.69C188.017 350.817 188.143 350.942 187.389 350.942C186.634 350.942 182.108 348.182 178.588 345.425Z" fill="#1D1D20"/>
<path d="M170.508 333.309C169.977 333.581 170.093 334.371 170.679 334.479L173.944 335.085L170.564 336.419C170.017 336.634 170.043 337.417 170.603 337.596L175.003 338.995L171.153 340.823C170.587 341.092 170.725 341.934 171.347 342.008L176.083 342.575L172.807 345.024C172.326 345.384 172.581 346.15 173.182 346.15H178.177L174.758 349.464C174.307 349.902 174.712 350.657 175.327 350.523L181.78 349.116L179.212 352.682C178.833 353.21 179.41 353.894 179.994 353.609L186.406 350.474C186.716 350.322 186.845 349.948 186.693 349.638C186.541 349.328 186.167 349.199 185.857 349.351L181.681 351.393L183.747 348.523C184.082 348.058 183.667 347.425 183.107 347.547L177.204 348.834L180.155 345.974C180.558 345.583 180.281 344.9 179.72 344.9H175.061L178.082 342.64C178.534 342.303 178.342 341.586 177.782 341.519L173.644 341.024L176.97 339.445C177.483 339.201 177.432 338.456 176.892 338.284L172.656 336.937L176.428 335.449C177.012 335.219 176.93 334.367 176.313 334.253L172.709 333.585L175.479 332.164C175.983 331.905 175.91 331.162 175.365 331.006L172.032 330.057L175.39 328.941C175.718 328.832 175.895 328.478 175.786 328.15C175.678 327.823 175.324 327.645 174.996 327.754L169.715 329.509C169.132 329.703 169.15 330.535 169.741 330.704L173.499 331.774L170.508 333.309Z" fill="black"/>
<path d="M144.913 328.83C143.764 326.967 141.179 327.415 140.03 327.872L140.317 328.965C140.796 329.057 142.012 329.24 142.471 329.787C143.046 330.47 142.615 331.84 143.046 332.112C143.477 332.387 144.625 332.112 145.2 332.112C145.774 332.112 146.349 331.155 144.913 328.83Z" fill="black"/>
<path d="M94.0152 362.577C93.7094 361.825 93.7619 360.195 95.6479 359.442C97.5337 358.69 119.788 362.577 119.788 362.577C125.516 362.11 140.903 354.622 146.568 358.062C148.36 359.15 147.753 362.6 147.091 365.825C146.032 366.9 135.323 367.842 131.85 367.035C131.85 365.152 131.58 363.942 131.58 363.942C131.58 363.942 129.477 365.297 127.206 365.825C122.574 366.9 121.561 368.092 107.215 368.092C95.7092 367.017 94.8817 364.707 94.0152 362.577Z" fill="#383129"/>
<path fill-rule="evenodd" clip-rule="evenodd" d="M145.612 360.276C145.252 360.493 144.827 360.672 144.287 360.832L144.43 361.311C145.008 361.14 145.472 360.945 145.87 360.704L145.612 360.276ZM96.2815 361.88C95.8232 361.534 95.4565 361.201 95.2103 360.911L94.829 361.234C95.1014 361.555 95.4946 361.913 95.9803 362.279L96.2815 361.88ZM98.8071 363.401C98.349 363.177 97.9132 362.941 97.5058 362.698L97.2496 363.127C97.6689 363.377 98.1169 363.62 98.5874 363.85L98.8071 363.401ZM100.161 364.001C100.615 364.183 101.081 364.35 101.556 364.502L101.404 364.978C100.918 364.823 100.44 364.652 99.9753 364.466L100.161 364.001ZM104.44 365.198C103.952 365.117 103.467 365.019 102.988 364.903L102.87 365.389C103.362 365.507 103.858 365.609 104.358 365.691L104.44 365.198ZM105.914 365.385C106.406 365.429 106.899 365.454 107.393 365.459L107.388 365.959C106.881 365.954 106.375 365.928 105.87 365.883L105.914 365.385ZM110.375 365.418C109.88 365.433 109.382 365.444 108.879 365.451L108.886 365.951C109.391 365.944 109.893 365.933 110.39 365.918L110.375 365.418ZM111.87 365.36C112.372 365.336 112.87 365.309 113.363 365.276L113.395 365.775C112.899 365.808 112.399 365.836 111.893 365.86L111.87 365.36ZM116.343 365.028C115.853 365.078 115.356 365.124 114.854 365.166L114.895 365.664C115.401 365.622 115.9 365.576 116.394 365.525L116.343 365.028ZM117.829 364.86C118.331 364.798 118.825 364.732 119.31 364.662L119.382 365.157C118.893 365.227 118.395 365.294 117.89 365.356L117.829 364.86ZM122.256 364.165C121.778 364.258 121.288 364.347 120.786 364.431L120.869 364.924C121.375 364.839 121.869 364.749 122.351 364.656L122.256 364.165ZM123.719 363.86C124.221 363.748 124.705 363.632 125.169 363.512L125.294 363.996C124.824 364.117 124.335 364.235 123.828 364.348L123.719 363.86ZM128.048 362.693C127.581 362.83 127.101 362.97 126.609 363.113L126.748 363.593C127.241 363.45 127.721 363.31 128.189 363.173L128.048 362.693ZM129.486 362.268C130.001 362.115 130.482 361.971 130.922 361.839L131.067 362.317C130.626 362.45 130.144 362.594 129.629 362.748L129.486 362.268ZM133.948 361.566C133.412 361.536 132.902 361.502 132.457 361.467L132.418 361.966C132.867 362.001 133.381 362.035 133.921 362.065L133.948 361.566ZM135.441 361.633C135.949 361.65 136.449 361.662 136.935 361.667L136.93 362.167C136.44 362.162 135.936 362.15 135.424 362.132L135.441 361.633ZM139.914 361.597C139.46 361.629 138.963 361.65 138.428 361.661L138.438 362.161C138.981 362.15 139.486 362.129 139.949 362.096L139.914 361.597ZM141.382 361.432C141.957 361.339 142.434 361.255 142.851 361.173L142.947 361.664C142.524 361.747 142.042 361.832 141.462 361.925L141.382 361.432Z" fill="#67513B"/>
<path d="M127.457 327.345C128.684 327.345 135.848 331.095 139.556 328.177C139.961 327.857 140.784 328.12 140.785 328.635C140.792 333.622 140.865 342.307 141.615 345.752C142.409 349.397 143.079 348.875 143.873 352.262C144.423 354.605 146.203 360.072 143.873 360.072H133.248C130.734 360.072 127.339 362.985 118.967 363.802C105.071 365.16 101.676 363.302 98.901 362.425C92.588 360.427 95.7917 355.86 98.901 354.4C103.456 352.262 109.984 350.655 113.305 348.882C115.89 347.505 116.778 347.075 118.106 345.622C120.295 343.23 122.218 330.637 122.514 327.355C122.535 327.127 122.855 327.01 123.049 327.13C124.344 327.927 126.241 327.345 127.457 327.345Z" fill="#2D2B30"/>
<path d="M100.762 357.78C102.486 358.302 103.634 358.572 105.118 358.732C107.133 358.948 109.269 358.849 111.64 358.353C112.113 358.255 112.577 358.558 112.675 359.031C112.774 359.504 112.471 359.968 111.998 360.066C109.446 360.599 107.126 360.708 104.931 360.472C103.316 360.298 102.075 360.006 100.255 359.455C99.7927 359.315 99.5312 358.826 99.6712 358.364C99.8112 357.901 100.3 357.64 100.762 357.78Z" fill="#59555F"/>
<path d="M116.645 353.55C119.107 351.292 128.086 346.25 127.457 327.345C128.524 327.345 131.103 328.725 135.001 328.975C139.094 328.852 139.027 328.482 140.111 327.872C140.14 327.855 140.174 327.83 140.202 327.812C141.902 326.667 141.137 344.9 142.358 348.13C143.342 350.74 145.189 354.65 145.189 359.415C144.327 360.92 135.833 360.167 133.125 360.167C131.858 353.425 121.925 358.565 119.788 357.937C117.912 357.387 116.645 356.307 116.645 353.55Z" fill="#1D1D20"/>
<path d="M119.662 345.425C122.479 343.217 123.56 332.485 123.686 327.345C123.183 327.22 123.057 326.87 122.68 326.995C122.303 327.12 122.303 328.625 122.177 329.877C122.039 331.25 121.045 335.52 120.542 338.405C120.039 341.287 119.537 343.042 117.651 345.425C116.142 347.33 110.233 349.287 108.347 350.917C108.556 350.875 109.101 350.59 109.604 350.69C110.233 350.817 110.107 350.942 110.861 350.942C111.616 350.942 116.142 348.182 119.662 345.425Z" fill="#1D1D20"/>
<path d="M127.742 333.309C128.273 333.581 128.157 334.371 127.571 334.479L124.306 335.085L127.686 336.419C128.233 336.634 128.207 337.417 127.647 337.596L123.247 338.995L127.097 340.823C127.663 341.092 127.525 341.934 126.903 342.008L122.167 342.575L125.443 345.024C125.924 345.384 125.669 346.15 125.068 346.15H120.073L123.492 349.464C123.943 349.902 123.538 350.657 122.923 350.523L116.47 349.116L119.038 352.682C119.417 353.21 118.84 353.894 118.256 353.609L111.844 350.474C111.534 350.322 111.405 349.948 111.557 349.638C111.709 349.328 112.083 349.199 112.393 349.351L116.569 351.393L114.503 348.523C114.168 348.058 114.583 347.425 115.143 347.547L121.046 348.834L118.095 345.974C117.692 345.583 117.969 344.9 118.53 344.9H123.189L120.168 342.64C119.716 342.303 119.908 341.586 120.468 341.519L124.606 341.024L121.28 339.445C120.767 339.201 120.818 338.456 121.358 338.284L125.594 336.937L121.822 335.449C121.238 335.219 121.32 334.367 121.937 334.253L125.541 333.585L122.771 332.164C122.267 331.905 122.34 331.162 122.885 331.006L126.218 330.057L122.86 328.941C122.532 328.832 122.355 328.478 122.464 328.15C122.572 327.823 122.926 327.645 123.254 327.754L128.535 329.509C129.118 329.703 129.1 330.535 128.509 330.704L124.751 331.774L127.742 333.309Z" fill="black"/>
<path d="M108.346 317.475L119.382 231.986L136.956 229.442L137.125 225.132H146.621L146.5 222.968L171.125 228.619L171.154 230.054L177.875 231.986L193.75 317.475L172.956 319.284L173.744 321.461L156.25 322.405V323.968H132.417L132.375 320.598L108.346 317.475Z" fill="#2A1B16"/>
<path d="M101.375 141.093C102.646 125.003 107.5 100.218 107.5 100.218H193.375C193.375 100.218 215.917 163.51 203.75 180.968C191.583 198.427 126.5 187.718 101.375 187.718C81.9595 187.718 99.9407 159.245 101.375 141.093Z" fill="#17100F"/>
<path d="M109.683 173.192C103.975 183.365 98.6547 200.187 95.1286 217.844C91.5236 235.896 90.4425 250.908 93.1388 258.364C94.8762 263.168 100.179 265.654 104.983 263.917C109.787 262.179 112.273 256.876 110.536 252.072C110.508 251.994 110.444 251.728 110.378 251.309C110.284 250.716 110.212 249.967 110.17 249.084C110.076 247.146 110.129 244.705 110.333 241.875C110.75 236.08 111.775 228.954 113.27 221.467C116.45 205.548 121.24 190.403 125.817 182.244C128.317 177.788 126.731 172.15 122.276 169.651C117.82 167.151 112.182 168.737 109.683 173.192Z" fill="#EBBAAA"/>
<path d="M174.183 182.244C178.76 190.403 183.55 205.548 186.73 221.467C188.225 228.954 189.25 236.08 189.667 241.875C189.871 244.705 189.924 247.146 189.831 249.084C189.788 249.967 189.716 250.716 189.623 251.309C189.556 251.728 189.492 251.994 189.464 252.072C187.727 256.876 190.213 262.179 195.017 263.917C199.821 265.654 205.124 263.168 206.861 258.364C209.558 250.908 208.476 235.896 204.871 217.844C201.345 200.187 196.025 183.365 190.317 173.192C187.818 168.737 182.179 167.151 177.724 169.651C173.269 172.15 171.683 177.789 174.183 182.244Z" fill="#EBBAAA"/>
<path d="M150 172.468C172.091 172.468 190 165.193 190 156.218C190 147.244 172.091 139.968 150 139.968C127.909 139.968 110 147.244 110 156.218C110 165.193 127.909 172.468 150 172.468Z" fill="#E1CAB3"/>
<path d="M191.25 156.218C191.25 165.193 173.341 172.468 151.25 172.468V139.968C173.341 139.968 191.25 147.244 191.25 156.218Z" fill="#D1B69B"/>
<rect x="141.25" y="126.968" width="17.5" height="46.5" rx="8.75" fill="#EBBAAA"/>
<path d="M198.5 163.718C191.046 148.889 158.25 147.218 158.25 147.218V251.218H187.053C201.319 251.218 212.66 239.311 211.243 225.115C209.194 204.597 205.322 177.289 198.5 163.718Z" fill="#52383D"/>
<path d="M101.5 163.718C108.954 148.889 141.75 147.218 141.75 147.218V251.218H112.947C98.6812 251.218 87.3405 239.311 88.7575 225.115C90.8058 204.597 94.6782 177.289 101.5 163.718Z" fill="#52383D"/>
<path d="M181.75 232.718L213.75 230.218C213.75 230.218 213.814 247.243 206.5 253.218C197.944 260.208 181.75 253.218 181.75 253.218V232.718Z" fill="#E1CAB3"/>
<path d="M118.25 230.218H86.25C86.25 230.218 86.1856 247.243 93.5002 253.218C102.056 260.208 118.25 253.218 118.25 253.218V230.218Z" fill="#E1CAB3"/>
<path d="M194.999 262.468L184.875 150.218L160.5 144.468L128 201.718L153.75 274.968L194.999 262.468Z" fill="#413034"/>
<path d="M128.25 203.948L112.625 181.795C112.625 181.795 133.987 178.374 146.625 165.492C157.125 154.789 158.5 142.343 158.5 142.343C158.5 142.343 190.75 142.343 198.75 162.629C198.75 162.629 196.148 184.483 171.75 197.476C151.25 208.393 128.25 203.948 128.25 203.948Z" fill="#D1B69B"/>
<path d="M105 262.468L115.125 151.108L139.5 144.468L171.999 201.718L146.25 274.968L105 262.468Z" fill="#52383D"/>
<path d="M171.5 203.948L187.125 181.795C187.125 181.795 165.763 178.374 153.125 165.492C142.625 154.789 141.25 142.343 141.25 142.343C141.25 142.343 109 142.343 101 162.629C101 162.629 103.602 184.483 128 197.476C148.5 208.393 171.5 203.948 171.5 203.948Z" fill="#E1CAB3"/>
<path d="M134.302 229.971C135.62 230.324 136.974 229.543 137.327 228.225C137.68 226.908 136.898 225.554 135.58 225.201C134.263 224.848 132.909 225.629 132.556 226.947C132.203 228.264 132.985 229.618 134.302 229.971Z" fill="#C4C4C4"/>
<path d="M139.674 214.07C140.992 214.423 142.346 213.641 142.699 212.324C143.052 211.007 142.27 209.652 140.953 209.299C139.635 208.946 138.281 209.728 137.928 211.046C137.575 212.363 138.357 213.717 139.674 214.07Z" fill="#C4C4C4"/>
<path d="M128.267 245.028C129.584 245.381 130.938 244.599 131.291 243.282C131.644 241.964 130.862 240.61 129.545 240.257C128.228 239.904 126.874 240.686 126.521 242.003C126.168 243.321 126.949 244.675 128.267 245.028Z" fill="#C4C4C4"/>
<path d="M152.559 235.123C153.877 235.476 155.231 234.695 155.584 233.377C155.937 232.06 155.155 230.706 153.838 230.353C152.52 230 151.166 230.781 150.813 232.099C150.46 233.416 151.242 234.77 152.559 235.123Z" fill="#C4C4C4"/>
<path d="M157.932 219.222C159.249 219.575 160.603 218.794 160.956 217.476C161.309 216.159 160.527 214.805 159.21 214.452C157.892 214.099 156.538 214.88 156.185 216.198C155.832 217.515 156.614 218.869 157.932 219.222Z" fill="#C4C4C4"/>
<path d="M146.524 250.18C147.842 250.533 149.196 249.751 149.549 248.434C149.902 247.116 149.12 245.762 147.803 245.409C146.485 245.056 145.131 245.838 144.778 247.155C144.425 248.473 145.207 249.827 146.524 250.18Z" fill="#C4C4C4"/>
<path d="M183.75 110.468C189.273 110.468 193.75 105.991 193.75 100.468C193.75 94.9453 189.273 90.468 183.75 90.468C178.227 90.468 173.75 94.9453 173.75 100.468C173.75 105.991 178.227 110.468 183.75 110.468Z" fill="#E4C1C1"/>
<path d="M116.251 110.468C110.728 110.468 106.25 105.991 106.25 100.468C106.25 94.9453 110.728 90.468 116.251 90.468C121.773 90.468 126.251 94.9453 126.251 100.468C126.251 105.991 121.773 110.468 116.251 110.468Z" fill="#E4C1C1"/>
<path d="M115 78.718C115 59.388 130.67 43.718 150 43.718C169.33 43.718 185 59.388 185 78.718V94.1228C185 98.1668 184.439 102.191 183.332 106.081L178.746 122.203C175.124 134.935 163.494 143.718 150.256 143.718C137.251 143.718 125.767 135.234 121.945 122.803L116.93 106.495C115.651 102.334 115 98.0048 115 93.651V78.718Z" fill="#F4D5CC"/>
<path fill-rule="evenodd" clip-rule="evenodd" d="M159.972 114.218C159.991 114.466 160 114.716 160 114.968V119.968C160 125.491 155.523 129.968 150 129.968C144.477 129.968 140 125.491 140 119.968V114.968C140 114.716 140.01 114.466 140.028 114.218H159.972Z" fill="#393939"/>
<mask id="mask0_0_1731" style="mask-type:luminance" maskUnits="userSpaceOnUse" x="140" y="114" width="21" height="16">
<path fill-rule="evenodd" clip-rule="evenodd" d="M159.972 114.218C159.991 114.466 160 114.716 160 114.968V119.968C160 125.491 155.523 129.968 150 129.968C144.477 129.968 140 125.491 140 119.968V114.968C140 114.716 140.01 114.466 140.028 114.218H159.972Z" fill="white"/>
</mask>
<g mask="url(#mask0_0_1731)">
<path d="M150.5 137.25C145.806 137.25 142 134.452 142 131C142 127.548 145.806 124.75 150.5 124.75C155.195 124.75 159 127.548 159 131C159 134.452 155.195 137.25 150.5 137.25Z" fill="#FF6C6C"/>
<rect width="22.75" height="5.75" transform="matrix(-1 0 0 1 161.75 114.218)" fill="white"/>
</g>
<path d="M129.5 114.218C133.643 114.218 137 110.86 137 106.718C137 102.576 133.643 99.218 129.5 99.218C125.358 99.218 122 102.576 122 106.718C122 110.86 125.358 114.218 129.5 114.218Z" fill="#F2CACA"/>
<path d="M163.626 89.0868L171.126 89.837C171.813 89.9057 172.426 89.4046 172.494 88.7177C172.563 88.0307 172.062 87.4182 171.375 87.3494L163.875 86.5992C163.188 86.5305 162.576 87.0316 162.507 87.7186C162.438 88.4055 162.939 89.0181 163.626 89.0868Z" fill="black"/>
<path d="M136.126 86.5992L128.626 87.3494C127.939 87.4182 127.438 88.0307 127.507 88.7177C127.576 89.4046 128.188 89.9057 128.875 89.837L136.375 89.0868C137.062 89.0181 137.563 88.4055 137.494 87.7186C137.426 87.0316 136.813 86.5305 136.126 86.5992Z" fill="black"/>
<path d="M162 88.7183V96.2183C162 97.8751 163.344 99.2183 165 99.2183C166.657 99.2183 168 97.8751 168 96.2183V88.7183C168 87.0614 166.657 85.7183 165 85.7183C163.344 85.7183 162 87.0614 162 88.7183Z" fill="black"/>
<path d="M132.001 88.7183V96.2183C132.001 97.8751 133.344 99.2183 135.001 99.2183C136.658 99.2183 138.001 97.8751 138.001 96.2183V88.7183C138.001 87.0614 136.658 85.7183 135.001 85.7183C133.344 85.7183 132.001 87.0614 132.001 88.7183Z" fill="black"/>
<path d="M147.533 96.6777C147.451 97.276 147.358 97.6797 146.915 99.4475C146.808 99.876 146.732 100.187 146.659 100.499C146.118 102.809 145.951 104.388 146.304 105.854C146.858 108.149 148.685 109.468 151.376 109.468V105.218C151.093 105.218 150.872 105.192 150.709 105.148C150.61 105.121 150.553 105.095 150.524 105.074C150.499 105.056 150.474 105.015 150.436 104.858C150.287 104.24 150.402 103.155 150.797 101.467C150.864 101.181 150.936 100.888 151.038 100.479C151.53 98.5148 151.63 98.0791 151.744 97.2583L147.533 96.6777Z" fill="#EBBAAA"/>
<path d="M170.5 114.218C174.643 114.218 178 110.86 178 106.718C178 102.576 174.643 99.218 170.5 99.218C166.358 99.218 163 102.576 163 106.718C163 110.86 166.358 114.218 170.5 114.218Z" fill="#F2CACA"/>
<path d="M158.127 79.1107C161.066 77.7589 165.754 77.3943 168.974 77.977C169.855 78.1364 170.662 78.4397 171.387 78.8451C171.773 79.0611 172.11 79.2912 172.391 79.5177C172.486 79.5936 172.565 79.6621 172.63 79.721C172.661 79.75 172.676 79.7649 172.675 79.7634C173.252 80.3575 174.202 80.371 174.796 79.7936C175.39 79.2163 175.404 78.2666 174.826 77.6725C174.713 77.5562 174.528 77.3856 174.271 77.1794C173.863 76.8518 173.39 76.5277 172.851 76.2265C171.849 75.6661 170.732 75.2463 169.508 75.025C165.724 74.3402 160.424 74.7524 156.874 76.3852C156.121 76.7314 155.792 77.6222 156.138 78.3748C156.484 79.1274 157.375 79.4569 158.127 79.1107Z" fill="#62360D"/>
<path d="M143.128 76.3852C139.577 74.7524 134.277 74.3402 130.493 75.0249C129.269 75.2463 128.153 75.6661 127.15 76.2265C126.612 76.5277 126.138 76.8518 125.73 77.1794C125.474 77.3857 125.288 77.5563 125.175 77.6726C124.598 78.2667 124.611 79.2164 125.205 79.7937C125.799 80.3711 126.749 80.3575 127.326 79.7633C127.325 79.7648 127.34 79.7499 127.372 79.721C127.436 79.6621 127.515 79.5935 127.61 79.5177C127.892 79.2911 128.228 79.0611 128.614 78.845C129.339 78.4397 130.146 78.1364 131.027 77.977C134.247 77.3943 138.935 77.7589 141.874 79.1107C142.627 79.4569 143.517 79.1274 143.864 78.3748C144.21 77.6221 143.88 76.7314 143.128 76.3852Z" fill="#62360D"/>
<path d="M128.68 66.1277C135.356 58.2705 147.997 55.1584 151.219 52.9177C152.458 52.3148 152.458 43.1965 149.484 40.8426C145.394 37.606 130.895 43.9548 124.451 50.0546C118.007 56.1544 111.502 64.0405 108.597 82.343C108.286 84.2998 107.108 88.7182 106.358 96.2182C105.211 107.687 106.358 125.215 106.358 132.713C106.358 142.423 107.473 154.996 106.358 166.075C105.597 173.634 104.5 187.359 104.5 205.907C104.501 210.143 116.338 211.424 117.015 208.023C118.007 203.044 117.141 174.913 118.132 166.075C119.225 156.334 120.981 149.518 119.618 140.431C118.255 131.343 119.987 126.968 119.118 119.218C118.249 111.468 116.768 98.4792 117.015 90.3877C117.263 82.2962 121.91 74.0952 128.68 66.1277Z" fill="#311E1C"/>
<path d="M119.625 170.593C118.025 162.993 114 109.718 114 109.718C114 109.718 116.823 110.669 118.125 110.343C119.928 118.295 123.142 128.835 129 134.843C130.417 140.385 133.45 152.868 134.25 160.468C135.25 169.968 134.25 199.718 132 199.718C126.777 199.718 123.102 200.468 122.125 197.343C120.25 191.343 121.625 180.093 119.625 170.593Z" fill="#311E1C"/>
<path d="M170.376 63.2183C162.989 56.1266 151.125 54.5933 150 52.8433C148.834 48.8433 148.604 42.1212 153.75 40.3433C160.626 37.9684 178.75 47.5932 184.75 63.2183C189.223 74.8653 193.186 87.8978 194.125 104.343C195.534 129.009 186.413 152.768 187.125 177.718C187.5 190.843 192.44 196.631 184.75 202.718C177.778 208.238 167.5 208.707 162 201.718C150 186.468 173.151 152.437 179.625 120.718C180.462 116.619 181.5 112.26 181.75 110.218C195.125 112.593 198.375 92.5933 185 90.5933C185 82.2038 175.498 68.1355 170.376 63.2183Z" fill="#311E1C"/>
<path d="M185.792 113.836C187.471 113.836 188.833 112.473 188.833 110.793C188.833 109.112 187.471 107.75 185.792 107.75C184.112 107.75 182.75 109.112 182.75 110.793C182.75 112.473 184.112 113.836 185.792 113.836Z" fill="#D29A48"/>
<path fill-rule="evenodd" clip-rule="evenodd" d="M151.786 31.7622C169.817 32.265 189.42 53.0348 196 65.4683C199.473 72.029 201.789 82.593 190.75 82.593C180.539 66.843 157.75 48.3347 132.5 54.7807C119 58.2273 114.352 63.9683 114.352 63.9683C114.352 63.9683 113.073 53.5968 118.25 47.5931C125.757 38.8888 139.043 31.4068 151.786 31.7622Z" fill="#E1CAB3"/>
</svg>
