<svg width="300" height="400" viewBox="0 0 300 400" fill="none" xmlns="http://www.w3.org/2000/svg">
<path d="M99.3318 272.612C97.5151 281.134 95.8081 293.187 94.8449 304.779C93.6766 318.839 93.6223 331.325 95.0267 340.866C96.3335 349.745 104.591 355.884 113.47 354.577C122.349 353.27 128.487 345.013 127.18 336.134C126.208 329.53 126.253 319.268 127.233 307.471C128.087 297.195 129.602 286.497 131.118 279.388C132.989 270.611 127.39 261.978 118.613 260.107C109.835 258.236 101.203 263.835 99.3318 272.612Z" fill="#F5D0C3"/>
<path d="M145.063 279.292C146.538 286.42 148.011 297.137 148.841 307.431C149.796 319.262 149.839 329.557 148.89 336.202C147.621 345.086 153.794 353.317 162.678 354.587C171.563 355.856 179.794 349.683 181.063 340.798C182.42 331.298 182.368 318.846 181.236 304.819C180.303 293.245 178.649 281.211 176.889 272.708C175.071 263.919 166.473 258.269 157.684 260.087C148.896 261.905 143.245 270.504 145.063 279.292Z" fill="#F5D0C3"/>
<path d="M139.726 263.5L98.3515 241.5C98.3515 241.5 93.266 251.465 89.625 263.5C86.6927 273.191 84.9747 285.103 85.4765 287.5C86.6015 292.875 124.851 300.75 130.351 298C135.851 295.25 139.726 263.5 139.726 263.5Z" fill="#2D3656"/>
<path d="M139.477 281.25C163.501 281.25 182.977 270.057 182.977 256.25C182.977 242.443 163.501 231.25 139.477 231.25C115.452 231.25 95.9766 242.443 95.9766 256.25C95.9766 270.057 115.452 281.25 139.477 281.25Z" fill="#2D3656"/>
<path d="M137 262.375L179.5 239.25C179.5 239.25 184.285 252.594 187.5 265.75C190.351 277.417 191.748 288.938 190.75 290.875C188.626 295 149.248 301.5 145.5 298C141.751 294.5 137 262.375 137 262.375Z" fill="#2D3656"/>
<path d="M193.002 359.85L199.376 360.127L199.178 364.667C199.112 366.182 197.828 367.36 196.311 367.295L195.431 367.255C193.914 367.19 192.737 365.905 192.804 364.387L193.002 359.85Z" fill="#4786B7"/>
<path d="M184.502 359.48L190.877 359.757L190.679 364.295C190.613 365.812 189.329 366.99 187.812 366.922L186.932 366.885C185.414 366.817 184.238 365.535 184.304 364.017L184.502 359.48Z" fill="#4786B7"/>
<path d="M159.612 358.393L165.986 358.67L165.788 363.208C165.722 364.725 164.438 365.903 162.921 365.835L162.041 365.798C160.523 365.733 159.347 364.448 159.413 362.93L159.612 358.393Z" fill="#4786B7"/>
<path d="M168.111 358.763L174.485 359.043L174.287 363.58C174.221 365.098 172.937 366.273 171.42 366.208L170.54 366.168C169.023 366.103 167.847 364.818 167.913 363.303L168.111 358.763Z" fill="#4786B7"/>
<path d="M151.112 358.023L157.487 358.3L157.288 362.838C157.222 364.355 155.938 365.53 154.421 365.465L153.541 365.428C152.024 365.36 150.848 364.078 150.914 362.56L151.112 358.023Z" fill="#4786B7"/>
<path d="M201.37 359.76C200.829 354.045 192.429 347.357 185.006 342.75C178.057 338.435 169.963 337.032 161.791 336.677L150.102 336.167C149.189 336.08 148.39 336.775 148.35 337.69L147.403 359.38C147.352 360.552 148.262 361.547 149.435 361.597L199.13 363.767C200.344 363.82 201.345 360.972 201.37 359.76Z" fill="#283F51"/>
<mask id="mask0_0_1835" style="mask-type:luminance" maskUnits="userSpaceOnUse" x="147" y="336" width="55" height="28">
<path d="M201.37 359.76C200.829 354.045 192.429 347.357 185.006 342.75C178.057 338.435 169.963 337.032 161.791 336.677L150.102 336.167C149.189 336.08 148.39 336.775 148.35 337.69L147.403 359.38C147.352 360.552 148.262 361.547 149.435 361.597L199.13 363.767C200.344 363.82 201.345 360.972 201.37 359.76Z" fill="white"/>
</mask>
<g mask="url(#mask0_0_1835)">
<path d="M181.331 355.834L175.613 366.229L179.118 368.156L184.836 357.761L181.331 355.834Z" fill="#FFF7F5"/>
<path d="M175.28 350.049L166.243 365.469L169.694 367.491L178.731 352.071L175.28 350.049Z" fill="#FFF7F5"/>
<path d="M168.494 344.914L158.276 363.009L161.759 364.976L171.977 346.881L168.494 344.914Z" fill="#FFF7F5"/>
</g>
<path d="M83.7483 359.85L77.3736 360.127L77.5718 364.667C77.6381 366.182 78.9218 367.36 80.4391 367.295L81.3188 367.255C82.8363 367.19 84.0126 365.905 83.9463 364.387L83.7483 359.85Z" fill="#4786B7"/>
<path d="M92.2476 359.48L85.8731 359.757L86.0711 364.295C86.1373 365.812 87.4211 366.99 88.9383 366.922L89.8183 366.885C91.3356 366.817 92.5118 365.535 92.4456 364.017L92.2476 359.48Z" fill="#4786B7"/>
<path d="M117.138 358.393L110.764 358.67L110.962 363.208C111.028 364.725 112.312 365.903 113.829 365.835L114.709 365.798C116.227 365.733 117.403 364.448 117.337 362.93L117.138 358.393Z" fill="#4786B7"/>
<path d="M108.639 358.763L102.265 359.043L102.463 363.58C102.529 365.098 103.813 366.273 105.33 366.208L106.21 366.168C107.727 366.103 108.903 364.818 108.837 363.303L108.639 358.763Z" fill="#4786B7"/>
<path d="M125.638 358.023L119.263 358.3L119.462 362.838C119.528 364.355 120.812 365.53 122.329 365.465L123.209 365.428C124.726 365.36 125.902 364.078 125.836 362.56L125.638 358.023Z" fill="#4786B7"/>
<path d="M75.3803 359.76C75.9206 354.045 84.3206 347.357 91.7436 342.75C98.6931 338.435 106.787 337.032 114.959 336.677L126.648 336.167C127.561 336.08 128.36 336.775 128.4 337.69L129.347 359.38C129.398 360.552 128.488 361.547 127.315 361.597L77.6196 363.767C76.4063 363.82 75.4053 360.972 75.3803 359.76Z" fill="#283F51"/>
<mask id="mask1_0_1835" style="mask-type:luminance" maskUnits="userSpaceOnUse" x="75" y="336" width="55" height="28">
<path d="M75.3803 359.76C75.9206 354.045 84.3206 347.357 91.7436 342.75C98.6931 338.435 106.787 337.032 114.959 336.677L126.648 336.167C127.561 336.08 128.36 336.775 128.4 337.69L129.347 359.38C129.398 360.552 128.488 361.547 127.315 361.597L77.6196 363.767C76.4063 363.82 75.4053 360.972 75.3803 359.76Z" fill="white"/>
</mask>
<g mask="url(#mask1_0_1835)">
<path d="M95.4187 355.834L101.137 366.229L97.6322 368.156L91.914 357.761L95.4187 355.834Z" fill="#FFF7F5"/>
<path d="M101.47 350.049L110.507 365.469L107.056 367.491L98.019 352.071L101.47 350.049Z" fill="#FFF7F5"/>
<path d="M108.256 344.914L118.474 363.009L114.991 364.976L104.773 346.881L108.256 344.914Z" fill="#FFF7F5"/>
</g>
<path d="M185.763 191.157C180.84 191.512 172.936 190.946 170.927 189.543C167.11 196.17 167.463 207.065 168.386 214.774C169.309 222.482 176.949 232.907 180.069 236.266C181.735 234.162 188.814 230.674 193.224 230.32C197.634 229.965 206.261 230.509 209.423 231.764C209.808 226.669 210.347 216.229 209.423 207.723C208.5 199.217 201.011 188.449 198.618 185.126C196.609 187.046 190.686 190.803 185.763 191.157Z" fill="#FFEB35"/>
<path d="M189.24 207.386C195.175 206.472 199.754 204.223 199.468 202.363C199.181 200.502 194.138 199.735 188.203 200.649C182.267 201.563 177.688 203.812 177.974 205.672C178.261 207.532 183.304 208.299 189.24 207.386Z" fill="#FFBA35"/>
<path d="M179.461 212.48C184.075 213.103 195.267 212.548 201.55 209.082" stroke="#CEBB13" stroke-width="1.25"/>
<rect x="93.75" y="138" width="91.75" height="49.75" rx="12.5" fill="#415D77"/>
<path d="M54.1393 249.093C51.5143 239.093 76.1249 169.375 95.6249 151.125L182 147.25C207.125 183.5 225.015 245.093 220.264 251.218C215.514 257.343 198.207 249.093 137.059 249.093C75.911 249.093 56.7644 259.093 54.1393 249.093Z" fill="#415D77"/>
<path d="M78.7512 176.732C76.8958 179.569 75.1229 182.874 72.9691 187.306C72.3774 188.524 71.7814 189.775 71.0001 191.433C67.3417 199.194 66.6345 200.645 65.4497 202.671C60.9186 210.417 63.5254 220.371 71.2722 224.902C79.0189 229.433 88.9722 226.826 93.5033 219.079C95.4159 215.81 96.1301 214.344 100.398 205.289C101.129 203.738 101.675 202.592 102.2 201.512C103.8 198.22 105.025 195.937 105.952 194.518C110.864 187.007 108.756 176.936 101.245 172.025C93.7336 167.113 83.6628 169.221 78.7512 176.732Z" fill="#F5D0C3"/>
<path d="M198.805 186.847C208.093 173.901 213.128 167.399 223.548 154.511L223.632 154.408C231.837 144.259 236.23 138.644 242.949 129.494C248.261 122.26 246.704 112.09 239.47 106.777C232.237 101.465 222.066 103.023 216.754 110.256C210.389 118.924 206.274 124.184 198.359 133.975L198.275 134.078C187.496 147.409 182.11 154.365 172.398 167.903C167.166 175.195 168.837 185.347 176.129 190.579C183.422 195.81 193.574 194.139 198.805 186.847Z" fill="#F4D4C9"/>
<path d="M232.715 112.492L235.796 120.59C236.042 121.235 235.718 121.957 235.072 122.203C234.427 122.448 233.705 122.124 233.46 121.479L230.379 113.381C230.133 112.736 230.457 112.014 231.102 111.768C231.748 111.523 232.47 111.847 232.715 112.492Z" fill="#BBBEC3"/>
<path d="M238.912 111.582C236.673 116.856 230.582 119.317 225.308 117.078C220.033 114.839 217.573 108.749 219.811 103.474C222.05 98.1996 228.141 95.7388 233.415 97.9777C238.69 100.217 241.151 106.307 238.912 111.582Z" fill="#DE7761"/>
<path d="M233.579 97.9114C231.34 103.186 225.25 105.647 219.975 103.408C214.701 101.169 212.24 95.0782 214.479 89.8038C216.718 84.5293 222.809 82.0685 228.083 84.3074C233.357 86.5462 235.818 92.637 233.579 97.9114Z" fill="#C96852"/>
<path d="M227.326 83.8504C225.141 88.9978 219.197 91.3993 214.05 89.2144C208.903 87.0294 206.501 81.0854 208.686 75.9381C210.871 70.7907 216.815 68.3892 221.962 70.5741C227.11 72.7591 229.511 78.703 227.326 83.8504Z" fill="#F2856D"/>
<path d="M214.271 66.3689L217.352 74.4664C217.597 75.1116 217.273 75.8337 216.628 76.0792C215.983 76.3247 215.261 76.0006 215.015 75.3554L211.934 67.2579C211.689 66.6126 212.013 65.8906 212.658 65.6451C213.303 65.3996 214.025 65.7236 214.271 66.3689Z" fill="#BBBEC3"/>
<path d="M79.046 157.303C81.8135 149.677 90.141 145.71 97.8565 148.217L110.477 152.318C118.487 154.921 122.871 163.524 120.268 171.534L111.275 199.213C111.275 199.213 71.2613 190.12 70.3865 185.928C69.8603 183.406 74.9252 168.658 79.046 157.303Z" fill="#E5A850"/>
<path d="M168.665 160.192C163.179 166.171 163.5 175.391 169.283 181.082L179.409 191.046C185.144 196.69 194.273 196.913 200.156 191.424C209.228 182.957 220.844 171.666 220.718 169.469C220.511 165.87 192.886 139.62 190.074 139.315C188.357 139.128 177.141 150.953 168.665 160.192Z" fill="#E5A850"/>
<path d="M97.4038 158.091C99.7656 152.216 105.481 148.464 111.813 148.481L146.682 148.577L177.938 151.037C184.484 151.552 190.016 156.053 191.699 162.399C196.514 180.556 205.469 217.132 203.25 230.361C200.25 248.25 188.795 256.344 178.375 259.875C167.955 263.406 111 263.875 99.5001 258.125C88.0001 252.375 79.6908 246.888 76.625 230.361C74.2917 217.783 89.8408 176.905 97.4038 158.091Z" fill="#E5A850"/>
<path d="M142 177C152.217 177 160.5 168.158 160.5 157.25C160.5 146.342 152.217 137.5 142 137.5C131.783 137.5 123.5 146.342 123.5 157.25C123.5 168.158 131.783 177 142 177Z" fill="#C18733"/>
<path d="M115.742 202.131C117.256 202.131 118.483 200.904 118.483 199.39C118.483 197.876 117.256 196.648 115.742 196.648C114.228 196.648 113 197.876 113 199.39C113 200.904 114.228 202.131 115.742 202.131Z" fill="white"/>
<path d="M115.742 201.035C116.65 201.035 117.386 200.298 117.386 199.39C117.386 198.481 116.65 197.745 115.742 197.745C114.833 197.745 114.097 198.481 114.097 199.39C114.097 200.298 114.833 201.035 115.742 201.035Z" fill="black"/>
<path d="M124.5 186.28L137 175.5H144.204C144.204 175.5 148.793 180.495 154.159 197.246C152.25 200.433 149.468 200.433 143.607 203.605C143.946 194.918 141.844 184.224 141.844 184.224C141.844 184.224 142.732 202.131 139.993 209.04C132.237 210.696 128.176 204.285 128.176 204.285C128.176 204.285 134.853 195.759 135.253 186.28C134.463 189.772 132.52 194.183 131.478 193.626C129.849 192.755 124.5 186.28 124.5 186.28Z" fill="#426789"/>
<rect x="132.237" y="138.754" width="19.2142" height="28.8213" rx="9.60707" fill="#EBBAAA"/>
<path d="M142.625 173.25C126.5 173.25 119.541 155.042 117.124 148.25C112.083 145 99.4002 140.55 103 149.25C107.5 160.125 117.386 176.35 142.625 176.35C147.874 176.35 154.574 175.875 161.199 172.5C169.833 168.102 175.875 154.875 177.25 150.875L171.25 149.125L165.25 149.25C160.75 158.167 158.75 173.25 142.625 173.25Z" fill="#415D77"/>
<path d="M104.573 170.71C94.7077 180.076 83.2011 189.939 71.3109 199.148C64.2155 204.643 62.9185 214.85 68.414 221.946C73.9094 229.041 84.1163 230.338 91.2116 224.843C103.957 214.971 116.29 204.4 126.95 194.28C133.458 188.101 133.725 177.816 127.546 171.307C121.367 164.798 111.082 164.531 104.573 170.71Z" fill="#F5D0C3"/>
<path d="M101.494 118.472C109.512 118.472 116.011 112.307 116.011 104.702C116.011 97.0972 109.512 90.9321 101.494 90.9321C93.4762 90.9321 86.9766 97.0972 86.9766 104.702C86.9766 112.307 93.4762 118.472 101.494 118.472Z" fill="#EBBAAA"/>
<path d="M183.761 119.54C191.779 119.54 198.278 113.375 198.278 105.77C198.278 98.1647 191.779 91.9996 183.761 91.9996C175.743 91.9996 169.244 98.1647 169.244 105.77C169.244 113.375 175.743 119.54 183.761 119.54Z" fill="#EBBAAA"/>
<path d="M99.6014 76.625C100.262 65.1055 108.711 55.5297 120.059 53.4402L136.019 50.5014C141.851 49.4274 147.837 49.499 153.643 50.7123L183.726 57L187.476 94.625L188.506 102.6C192.07 130.208 170.567 154.664 142.73 154.664C115.378 154.664 94.0261 131.012 96.8154 103.802L99.6014 76.625Z" fill="#F4D4CA"/>
<path d="M130.721 130.656C136.846 133.906 145.559 133.639 152.454 130.727C153.408 130.325 153.855 129.225 153.452 128.271C153.05 127.317 151.95 126.87 150.996 127.273C145.062 129.778 137.503 130.01 132.479 127.344C131.564 126.858 130.429 127.206 129.944 128.121C129.458 129.036 129.806 130.171 130.721 130.656Z" fill="#C99584"/>
<path d="M116.529 89.4935L130.93 90.4435C132.584 90.5525 134.012 89.3007 134.121 87.6475C134.23 85.9942 132.979 84.5656 131.325 84.4565L116.924 83.5065C115.271 83.3974 113.842 84.6493 113.733 86.3025C113.624 87.9558 114.876 89.3844 116.529 89.4935Z" fill="#272727"/>
<path d="M153.521 90.5438L167.698 89.4918C169.351 89.3692 170.591 87.9303 170.468 86.278C170.346 84.6257 168.907 83.3856 167.254 83.5082L153.077 84.5602C151.425 84.6828 150.185 86.1217 150.308 87.774C150.43 89.4263 151.869 90.6664 153.521 90.5438Z" fill="#272727"/>
<path d="M141.81 57.9062C120.586 57.9062 102.601 57.9062 101.476 71.375C99.3073 82.1348 96.7263 78.25 96.2263 67.129C97.4278 38.5384 129.493 32.5 142.726 32.5C153.572 40.1856 163.034 57.9062 141.81 57.9062Z" fill="#272727"/>
<path d="M96.3414 69.0525C96.2787 67.5238 97.5012 66.25 99.0314 66.25C100.619 66.25 101.861 67.616 101.712 69.1962L99.1762 95.9627C99.1339 96.409 98.7592 96.75 98.3109 96.75C97.8447 96.75 97.4614 96.3822 97.4424 95.9165L96.3414 69.0525Z" fill="#272727"/>
<path d="M143.366 57.9062C164.59 57.9062 182.977 57.9062 183.852 71.625C186.021 82.3848 188.352 79 188.949 67.129C187.748 38.5385 155.808 32.5 142.574 32.5C131.729 40.1856 122.142 57.9062 143.366 57.9062Z" fill="#272727"/>
<path d="M141.026 63.8042C137.241 61.0357 132.107 58.805 123.226 58.25L142.398 53.125L162.601 58.25C154.433 58.6975 148.167 61.1485 143.839 63.8993C142.973 64.4493 141.853 64.4097 141.026 63.8042Z" fill="#272727"/>
<path d="M139.184 104.083C137.976 106.609 137.197 108.836 137.074 110.954C136.86 114.618 138.948 117.125 143.101 117.125V112.875C141.52 112.875 141.239 112.537 141.317 111.202C141.399 109.792 142.035 107.973 143.018 105.917L139.184 104.083Z" fill="#EBBAAA"/>
<path d="M160.2 106.126C161.22 105.563 163.385 105.676 164.417 106.188C165.902 106.924 167.702 106.317 168.438 104.832C169.174 103.348 168.567 101.548 167.082 100.812C164.411 99.488 160.206 99.2691 157.3 100.874C155.849 101.674 155.323 103.499 156.123 104.95C156.924 106.4 158.749 106.927 160.2 106.126Z" fill="black"/>
<path d="M120.7 106.126C121.72 105.563 123.885 105.676 124.917 106.188C126.402 106.924 128.202 106.317 128.938 104.832C129.674 103.348 129.067 101.548 127.582 100.812C124.911 99.488 120.706 99.2691 117.8 100.874C116.349 101.674 115.823 103.499 116.623 104.95C117.424 106.4 119.249 106.927 120.7 106.126Z" fill="black"/>
<path d="M148.129 120.897C147.953 124.087 148.788 127.498 150.553 130.334C152.59 133.608 155.729 135.95 159.779 136.946C160.784 137.193 161.8 136.578 162.047 135.573C162.295 134.567 161.68 133.552 160.674 133.304C157.593 132.546 155.266 130.811 153.737 128.353C152.387 126.184 151.739 123.538 151.873 121.103C151.93 120.069 151.138 119.185 150.104 119.128C149.07 119.071 148.186 119.863 148.129 120.897Z" fill="#C99584"/>
<path d="M188.909 69.0247C188.954 67.5057 187.735 66.25 186.215 66.25C184.617 66.25 183.369 67.6328 183.534 69.2225L186.265 95.6618C186.314 96.138 186.715 96.5 187.194 96.5C187.7 96.5 188.113 96.0982 188.128 95.5933L188.909 69.0247Z" fill="#272727"/>
</svg>
