<svg width="300" height="400" viewBox="0 0 300 400" fill="none" xmlns="http://www.w3.org/2000/svg">
<path d="M113.269 362.75C116.769 359.5 129.852 354.75 136.019 352.25L152.519 343.75L155.769 359V365.5C155.769 368.4 153.418 370.75 150.519 370.75H113.269C111.602 367.917 110.323 365.485 113.269 362.75Z" fill="#C4C4C4"/>
<path d="M113.269 362.75C116.769 359.5 129.852 354.75 136.019 352.25L152.519 343.75L155.769 359V365.5C155.769 368.4 153.418 370.75 150.519 370.75H113.269C111.602 367.917 110.323 365.485 113.269 362.75Z" fill="#EBBAAA"/>
<path d="M107.519 373.5C107.519 370.737 109.757 368.5 112.519 368.5H156.769L157.769 373.5H107.519Z" fill="#2E2622"/>
<path d="M118.973 362.455L118.971 362.46L118.959 362.48C118.948 362.5 118.932 362.527 118.91 362.565C118.868 362.637 118.805 362.745 118.729 362.88C118.575 363.15 118.366 363.522 118.142 363.94C117.67 364.822 117.221 365.74 117.035 366.297C116.915 366.657 116.901 367.072 116.943 367.452C116.963 367.632 116.993 367.78 117.016 367.875C117.027 367.922 117.036 367.952 117.04 367.967C117.041 367.97 117.041 367.972 117.042 367.972C117.399 369.08 116.798 370.272 115.691 370.64C114.578 371.012 113.374 370.41 113.003 369.297L115.003 368.63C113.003 369.297 113.003 369.297 113.003 369.295H113.002L113.001 369.292L113 369.287L112.995 369.272C112.992 369.265 112.989 369.252 112.985 369.24C112.977 369.215 112.968 369.185 112.957 369.147C112.936 369.075 112.909 368.977 112.881 368.86C112.826 368.625 112.762 368.305 112.719 367.922C112.637 367.177 112.623 366.092 113.003 364.952C113.317 364.01 113.93 362.802 114.396 361.935C114.641 361.477 114.869 361.07 115.036 360.777C115.119 360.63 115.188 360.51 115.236 360.427C115.26 360.387 115.279 360.355 115.292 360.332L115.308 360.305L115.314 360.295C115.314 360.295 115.315 360.295 117.084 361.34L115.315 360.295C115.912 359.282 117.215 358.947 118.225 359.545C119.235 360.142 119.57 361.445 118.973 362.455Z" fill="#2E2622"/>
<path d="M117.218 370.24C117.218 370.237 117.218 370.237 114.894 369.75C112.569 369.262 112.57 369.262 112.57 369.26L112.571 369.257L112.572 369.25L112.575 369.235C112.578 369.225 112.581 369.212 112.584 369.197C112.591 369.167 112.6 369.13 112.611 369.085C112.633 368.997 112.664 368.88 112.706 368.74C112.789 368.46 112.916 368.077 113.102 367.63C113.471 366.74 114.081 365.555 115.06 364.365C117.075 361.915 120.514 359.625 126.019 359.625C131.48 359.625 135.341 361.872 137.806 364.12C139.029 365.235 139.91 366.35 140.491 367.192C140.782 367.615 141.001 367.975 141.151 368.237C141.227 368.37 141.285 368.477 141.327 368.56C141.349 368.6 141.366 368.632 141.379 368.66C141.386 368.672 141.391 368.685 141.396 368.692L141.402 368.705L141.405 368.71L141.406 368.712C141.406 368.715 141.407 368.715 139.269 369.75C137.131 370.785 137.131 370.785 137.132 370.787H137.133L137.134 370.792L137.136 370.795H137.137C137.135 370.792 137.13 370.782 137.121 370.767C137.104 370.732 137.073 370.675 137.027 370.595C136.935 370.435 136.787 370.19 136.578 369.885C136.159 369.275 135.509 368.452 134.606 367.63C132.822 366.002 130.057 364.375 126.019 364.375C122.024 364.375 119.9 365.96 118.728 367.385C118.112 368.132 117.723 368.885 117.491 369.447C117.375 369.727 117.301 369.95 117.259 370.092C117.238 370.165 117.225 370.215 117.218 370.24C117.215 370.252 117.214 370.26 117.214 370.26L117.215 370.252L117.216 370.247L117.217 370.242L117.218 370.24Z" fill="#2E2622"/>
<path d="M115.07 365.867C114.73 363.822 116.11 361.892 118.152 361.55L122.652 360.8C124.695 360.46 126.627 361.84 126.968 363.882C127.308 365.927 125.928 367.857 123.885 368.2L119.385 368.95C117.343 369.29 115.41 367.91 115.07 365.867Z" fill="#DCB1A3"/>
<path d="M211.269 362.75C207.769 359.5 194.686 354.75 188.519 352.25L172.019 343.75L168.769 359V365.5C168.769 368.4 171.119 370.75 174.019 370.75H211.269C212.936 367.917 214.215 365.485 211.269 362.75Z" fill="#C4C4C4"/>
<path d="M211.269 362.75C207.769 359.5 194.686 354.75 188.519 352.25L172.019 343.75L168.769 359V365.5C168.769 368.4 171.119 370.75 174.019 370.75H211.269C212.936 367.917 214.215 365.485 211.269 362.75Z" fill="#EBBAAA"/>
<path d="M217.019 373.5C217.019 370.737 214.78 368.5 212.019 368.5H167.769L166.769 373.5H217.019Z" fill="#2E2622"/>
<path d="M205.564 362.455L205.567 362.46L205.579 362.48C205.59 362.5 205.606 362.527 205.627 362.565C205.67 362.637 205.732 362.745 205.809 362.88C205.963 363.15 206.172 363.522 206.396 363.94C206.867 364.822 207.317 365.74 207.503 366.297C207.623 366.657 207.636 367.072 207.594 367.452C207.574 367.632 207.545 367.78 207.522 367.875C207.511 367.922 207.502 367.952 207.498 367.967C207.497 367.97 207.497 367.972 207.496 367.972C207.139 369.08 207.74 370.272 208.847 370.64C209.96 371.012 211.164 370.41 211.535 369.297L209.535 368.63C211.535 369.297 211.535 369.297 211.535 369.295H211.536L211.536 369.292L211.538 369.287L211.543 369.272C211.546 369.265 211.549 369.252 211.553 369.24C211.561 369.215 211.57 369.185 211.581 369.147C211.602 369.075 211.628 368.977 211.656 368.86C211.712 368.625 211.776 368.305 211.818 367.922C211.901 367.177 211.915 366.092 211.535 364.952C211.221 364.01 210.608 362.802 210.142 361.935C209.897 361.477 209.669 361.07 209.502 360.777C209.419 360.63 209.35 360.51 209.302 360.427C209.278 360.387 209.259 360.355 209.245 360.332L209.23 360.305L209.223 360.295C209.223 360.295 209.223 360.295 207.454 361.34L209.223 360.295C208.626 359.282 207.323 358.947 206.313 359.545C205.302 360.142 204.967 361.445 205.564 362.455Z" fill="#2E2622"/>
<path d="M207.32 370.24C207.32 370.237 207.32 370.237 209.644 369.75C211.968 369.262 211.968 369.262 211.968 369.26L211.967 369.257L211.966 369.25L211.963 369.235C211.96 369.225 211.957 369.212 211.954 369.197C211.947 369.167 211.938 369.13 211.927 369.085C211.905 368.997 211.874 368.88 211.832 368.74C211.749 368.46 211.621 368.077 211.436 367.63C211.067 366.74 210.456 365.555 209.478 364.365C207.462 361.915 204.024 359.625 198.519 359.625C193.058 359.625 189.197 361.872 186.731 364.12C185.509 365.235 184.627 366.35 184.047 367.192C183.756 367.615 183.537 367.975 183.387 368.237C183.311 368.37 183.253 368.477 183.21 368.56C183.189 368.6 183.172 368.632 183.159 368.66C183.152 368.672 183.147 368.685 183.142 368.692L183.136 368.705L183.133 368.71L183.132 368.712C183.132 368.715 183.131 368.715 185.269 369.75C187.407 370.785 187.406 370.785 187.406 370.787H187.405L187.404 370.792L187.401 370.795H187.401C187.403 370.792 187.408 370.782 187.416 370.767C187.434 370.732 187.465 370.675 187.511 370.595C187.602 370.435 187.751 370.19 187.96 369.885C188.379 369.275 189.029 368.452 189.932 367.63C191.716 366.002 194.48 364.375 198.519 364.375C202.514 364.375 204.638 365.96 205.81 367.385C206.425 368.132 206.815 368.885 207.047 369.447C207.163 369.727 207.237 369.95 207.279 370.092C207.3 370.165 207.313 370.215 207.32 370.24C207.323 370.252 207.324 370.26 207.324 370.26L207.323 370.252L207.322 370.247L207.321 370.242L207.32 370.24Z" fill="#2E2622"/>
<path d="M209.468 365.867C209.808 363.822 208.428 361.892 206.385 361.55L201.885 360.8C199.842 360.46 197.91 361.84 197.57 363.882C197.229 365.927 198.609 367.857 200.652 368.2L205.152 368.95C207.195 369.29 209.127 367.91 209.468 365.867Z" fill="#DCB1A3"/>
<path d="M177.134 266.704C182.259 265.644 187.274 268.939 188.335 274.065C190.071 282.457 191.092 297.807 191.221 313.492C191.35 329.28 190.587 346.58 188.385 358.965C187.469 364.117 182.548 367.552 177.395 366.637C172.241 365.72 168.806 360.8 169.723 355.647C171.619 344.977 172.393 329.045 172.266 313.65C172.139 298.152 171.11 284.37 169.773 277.905C168.712 272.78 172.008 267.765 177.134 266.704Z" fill="#EBBAAA"/>
<path d="M141.652 266.402C136.501 265.472 131.572 268.894 130.642 274.045C128.034 288.492 128.842 306.02 130.586 321.545C132.35 337.247 135.172 351.7 136.996 360.297C138.082 365.417 143.113 368.687 148.233 367.6C153.354 366.515 156.624 361.482 155.538 356.362C153.775 348.052 151.09 334.27 149.423 319.43C147.735 304.412 147.187 289.092 149.295 277.412C150.225 272.262 146.803 267.332 141.652 266.402Z" fill="#EBBAAA"/>
<path d="M121.111 261.185H159.719L157.025 343.185L116.047 338.171L121.111 261.185Z" fill="#928057"/>
<path d="M115 342.5L115.5 337L157.75 340.25L157.25 345.75L115 342.5Z" fill="#89764B"/>
<path d="M159.61 279.997C175.677 279.997 188.702 273.827 188.702 266.216C188.702 258.606 175.677 252.436 159.61 252.436C143.542 252.436 130.517 258.606 130.517 266.216C130.517 273.827 143.542 279.997 159.61 279.997Z" fill="#928057"/>
<path d="M158.306 261.185H198.146L202.607 336.694L165.107 342.685L158.306 261.185Z" fill="#928057"/>
<path d="M203.519 341.663L203.269 336.291L164.5 339.5L165 345L203.519 341.663Z" fill="#89764B"/>
<path d="M201.077 176.465C205.66 173.773 211.558 175.306 214.249 179.889C214.69 180.639 215.138 181.397 215.589 182.162C218.041 186.314 220.601 190.65 222.687 194.822C225.161 199.773 227.394 205.294 228.078 211.101C228.796 217.198 227.78 223.451 224.068 229.385C220.5 235.087 214.875 239.8 207.591 243.891C202.957 246.494 197.091 244.847 194.488 240.213C191.885 235.579 193.532 229.712 198.166 227.109C203.792 223.95 206.48 221.207 207.751 219.175C208.878 217.374 209.229 215.615 208.963 213.351C208.662 210.796 207.559 207.607 205.47 203.428C203.712 199.911 201.558 196.259 199.098 192.09C198.627 191.292 198.145 190.475 197.653 189.637C194.961 185.054 196.494 179.157 201.077 176.465Z" fill="#EBBAAA"/>
<path d="M134.241 155.12C139.138 157.812 140.926 163.963 138.235 168.861C135.932 173.052 133.344 177.106 130.913 180.915C130.231 181.983 129.562 183.032 128.914 184.06C125.861 188.903 122.999 193.71 120.479 199.243C115.536 210.096 112.931 211.964 112.931 235.007C112.931 240.595 108.401 245.125 102.813 245.125C97.2251 245.125 92.6951 240.595 92.6951 235.007C92.6951 209.382 95.7978 204.612 102.063 190.855C105.147 184.083 108.578 178.374 111.795 173.27C112.583 172.02 113.343 170.828 114.079 169.675C116.439 165.974 118.548 162.668 120.501 159.115C123.192 154.218 129.344 152.429 134.241 155.12Z" fill="#EBBAAA"/>
<path d="M121.439 152.571C131.464 143.041 147.639 144.754 155.445 156.172C162.725 166.82 159.559 181.399 148.517 188.066L119.171 205.788L90.6582 181.833L121.439 152.571Z" fill="#3C4356"/>
<path d="M201.785 154.09C192.629 143.723 174.952 143.173 166.18 153.868C157.999 163.841 161.298 179.486 171.716 187.091L199.406 207.302L229.898 185.923L201.785 154.09Z" fill="#3C4356"/>
<path d="M121.853 172.927C122.678 158.266 134.675 146.726 149.357 146.469L168.86 146.129C184.216 145.861 196.929 157.997 197.375 173.349L198.501 212.181L198.982 261.25C198.982 261.25 173.269 262.75 158.769 262.75C144.269 262.75 118.985 261.25 118.985 261.25L119.567 213.545L121.853 172.927Z" fill="#3C4356"/>
<path d="M167.571 192.967C167.293 192.434 166.873 192.174 166.286 192.174H161.096C160.991 192.174 160.89 192.127 160.823 192.045C160.756 191.964 160.728 191.856 160.748 191.752L162.376 183.297C162.403 183.181 162.42 183.062 162.425 182.943C162.423 182.174 161.776 181.5 161.037 181.5H160.839C160.485 181.554 160.164 181.738 159.937 182.015L159.86 182.116L149.786 195.431C149.448 195.864 149.405 196.458 149.678 196.935C149.928 197.415 150.422 197.72 150.963 197.727L156.152 197.756C156.256 197.756 156.355 197.803 156.422 197.882C156.488 197.962 156.517 198.067 156.499 198.17L154.848 207.805C154.745 208.467 155.098 209.115 155.709 209.388L155.723 209.395C155.903 209.474 156.099 209.509 156.295 209.498C156.713 209.498 157.09 209.296 157.385 208.908L167.454 194.487C167.8 194.052 167.846 193.45 167.571 192.967L167.571 192.967Z" fill="#46547A"/>
<path d="M158.69 172.677C168.456 172.506 176.236 164.451 176.065 154.684C175.895 144.917 167.839 137.138 158.072 137.309C148.306 137.479 140.526 145.535 140.697 155.301C140.867 165.068 148.923 172.847 158.69 172.677Z" fill="#212737"/>
<rect x="146.453" y="136.061" width="23.498" height="30.7078" rx="11.749" transform="rotate(-1 146.453 136.061)" fill="#EBBAAA"/>
<path d="M207.079 247.69C207.858 250.701 201.813 254.869 193.577 256.999C185.341 259.129 178.033 258.414 177.254 255.403C176.27 254.351 175.22 247.135 176.675 245.817C179.004 243.707 185.112 245.178 190.181 243.867C195.25 242.556 200.076 238.613 203.136 239.329C205.295 240.79 206.763 246.465 207.079 247.69Z" fill="#C5585C"/>
<path d="M191.451 249.238C199.011 247.283 204.508 243.256 203.729 240.245C202.95 237.233 196.191 236.377 188.631 238.332C181.071 240.287 175.574 244.313 176.353 247.325C177.132 250.336 183.891 251.193 191.451 249.238Z" fill="#FF6766"/>
<path d="M182.923 233.548C182.704 231.471 184.038 229.546 186.06 229.023C188.021 228.516 190.065 229.476 190.928 231.308L194.019 237.873C195.472 240.958 193.761 244.604 190.46 245.457C187.242 246.289 184.038 244.068 183.688 240.763L182.923 233.548Z" fill="#C5585C"/>
<path d="M188.396 236.967C193.19 235.728 196.072 230.836 194.832 226.042C193.592 221.248 188.701 218.367 183.906 219.607C179.112 220.846 176.231 225.738 177.471 230.532C178.711 235.326 183.602 238.207 188.396 236.967Z" fill="#FF6766"/>
<path d="M199.389 245.207C205.331 245.103 210.064 240.202 209.961 234.259C209.857 228.317 204.956 223.584 199.013 223.688C193.071 223.791 188.338 228.693 188.442 234.635C188.545 240.577 193.447 245.31 199.389 245.207Z" fill="#EBBAAA"/>
<rect width="67.8052" height="46.206" transform="matrix(-0.970296 -0.241922 -0.241922 0.970296 150.893 228.286)" fill="#C5CED2"/>
<rect width="67.8052" height="46.206" transform="matrix(-0.970296 -0.241922 -0.241922 0.970296 147.201 230.057)" fill="#D4DDE1"/>
<path d="M151.396 233.701C151.579 232.968 151.133 232.226 150.4 232.043L127.848 226.42C127.471 226.327 127.073 226.397 126.751 226.614L118.628 232.108C118.307 232.325 117.908 232.396 117.531 232.302L83.1556 223.731C82.423 223.548 81.6811 223.994 81.4984 224.726L72.7675 259.744C72.5848 260.477 73.0306 261.219 73.7632 261.401L139.024 277.672C139.756 277.855 140.498 277.41 140.681 276.677L151.396 233.701Z" fill="#7193B1"/>
<path d="M108.115 201.117C113.435 202.827 116.361 208.526 114.651 213.846C111.584 223.389 111.637 230.583 111.903 235.484C112.147 239.986 113.149 241.95 113.318 242.281C113.345 242.334 113.351 242.345 113.329 242.318C116.881 246.632 116.264 253.008 111.951 256.56C107.637 260.113 101.261 259.495 97.7081 255.182C94.0468 250.736 92.1011 244.042 91.6967 236.579C91.2747 228.792 91.7034 219.111 95.3858 207.654C97.0958 202.334 102.795 199.407 108.115 201.117Z" fill="#EBBAAA"/>
<path d="M117.084 117.929C125.299 117.929 131.958 111.612 131.958 103.82C131.958 96.0282 125.299 89.7114 117.084 89.7114C108.869 89.7114 102.209 96.0282 102.209 103.82C102.209 111.612 108.869 117.929 117.084 117.929Z" fill="#EBBAAA"/>
<path d="M199.862 119.023C208.077 119.023 214.736 112.706 214.736 104.914C214.736 97.1222 208.077 90.8054 199.862 90.8054C191.647 90.8054 184.987 97.1222 184.987 104.914C184.987 112.706 191.647 119.023 199.862 119.023Z" fill="#EBBAAA"/>
<path d="M115.9 77.5443C114.617 53.0045 134.168 32.4038 158.741 32.4038C183.416 32.4038 203.005 53.1683 201.568 77.8013L199.525 112.829C198.259 134.549 180.276 151.513 158.519 151.513C136.798 151.513 118.88 134.507 117.745 112.816L115.9 77.5443Z" fill="#EED4CC"/>
<path d="M153.568 129.912C161.037 130.278 169.156 127.825 176.491 122.837C177.347 122.255 177.569 121.089 176.987 120.232C176.405 119.376 175.238 119.154 174.382 119.736C167.701 124.279 160.38 126.492 153.752 126.166C152.717 126.116 151.838 126.913 151.787 127.947C151.736 128.982 152.534 129.861 153.568 129.912Z" fill="#C99584"/>
<path d="M148.915 80.1953L132.575 78.3905C132.419 78.3733 132.263 78.429 132.153 78.5418L128.949 81.8215C128.645 82.1325 128.843 82.657 129.277 82.6903L149.358 84.226C150.082 84.2815 150.632 83.5863 150.412 82.894L149.779 80.9033C149.656 80.5173 149.318 80.2398 148.915 80.1953Z" fill="#393939"/>
<path d="M167.143 80.0338L183.512 78.5146C183.669 78.4998 183.824 78.5583 183.932 78.6731L187.078 82.0081C187.376 82.3246 187.169 82.8456 186.735 82.8711L166.63 84.0563C165.905 84.0988 165.367 83.3943 165.599 82.7058L166.267 80.7266C166.396 80.3428 166.74 80.0713 167.143 80.0338Z" fill="#393939"/>
<path d="M143.092 89.5107C144.789 89.5107 146.165 90.8867 146.165 92.5845V99.8252C146.165 101.523 144.789 102.899 143.092 102.899C141.394 102.899 140.018 101.523 140.018 99.825V92.5845C140.018 90.8867 141.394 89.5105 143.092 89.5107Z" fill="black"/>
<path d="M174.278 89.5107C175.976 89.5107 177.352 90.8867 177.352 92.5845V99.8252C177.352 101.523 175.975 102.899 174.278 102.899C172.58 102.899 171.204 101.523 171.204 99.825V92.5845C171.204 90.8867 172.58 89.5105 174.278 89.5107Z" fill="black"/>
<path d="M154.053 102.137C154.6 100.654 154.958 99.66 155.045 99.0243L159.359 99.6163C159.201 100.771 158.671 102.204 158.219 103.426C158.192 103.5 158.165 103.572 158.139 103.644C157.619 105.052 157.142 106.372 156.91 107.541C156.664 108.786 156.815 109.311 156.921 109.478C156.921 109.478 156.921 109.478 156.922 109.479C156.935 109.502 157.201 109.951 158.878 109.951V114.305C156.483 114.305 154.407 113.632 153.251 111.821C152.195 110.168 152.343 108.188 152.639 106.696C152.949 105.131 153.556 103.485 154.05 102.145L154.053 102.137Z" fill="#EBBAAA"/>
<path d="M187.874 61.153C187.039 54.1455 186.286 49.1137 185.729 44.442C185.335 41.1329 185.294 40.2889 194.701 47.2227C204.108 54.1565 205.518 69.3688 202.959 82.2988L200.59 97.1405L197.686 96.4225L197.302 77.45C192.563 72.679 188.709 68.1605 187.874 61.153Z" fill="#6E6C6C"/>
<path d="M122.101 68.6273C122.489 61.5816 121.695 61.9443 121.954 57.2471C122.138 53.9201 123.284 54.6481 117.345 60.7488C114.067 64.1161 115.301 78.5831 115.999 88.0446L116.828 96.7648L118.153 96.8378L118.751 85.9908C121.093 78.4746 121.712 75.6731 122.101 68.6273Z" fill="#6E6C6C"/>
<path d="M159.769 28.1775H159.769C159.749 28.1775 159.729 28.1775 159.709 28.1775C159.69 28.1775 159.67 28.1775 159.65 28.1775H159.65C146.946 28.2216 116.528 35.2653 115.385 68.229C118.763 64.1685 123.979 62.3973 128.613 59.7475C138.367 54.1695 145.029 53.75 157.9 53.75C170.77 53.75 179.747 56.145 187.27 59.7475C193.999 62.9703 197.338 63.4258 203.915 68.229C202.772 35.2654 172.473 28.2216 159.769 28.1775Z" fill="#282C35"/>
<path d="M126.692 38.1538L124.085 47.4153L158.452 42.093L197.728 49.2729L197.645 45.4621L194.844 44.2975L194.779 41.3034L191.247 41.3802L191.146 36.7528L186.606 36.8515L185.52 33.3349L181.483 33.4226L179.01 29.9362L174.871 31.1154L173.562 28.9653L169.274 29.0585L169.221 26.6087L163.472 29.1846L161.905 26.7677L159.435 29.2723L156.859 26.8774L152.12 29.4314L149.039 27.0474L145.813 29.5684L143.543 29.6178L141.067 31.8502L140.011 29.6946L135.823 34.4151L133.024 33.3866L129.482 38.774L126.692 38.1538Z" fill="#282C35"/>
<path d="M154.081 98.1635C154.081 105.709 147.964 111.827 140.418 111.827C132.872 111.827 126.754 105.709 126.754 98.1635C126.754 90.6172 132.872 84.5 140.418 84.5C147.964 84.5 154.081 90.6172 154.081 98.1635Z" fill="white" fill-opacity="0.35"/>
<path fill-rule="evenodd" clip-rule="evenodd" d="M154.081 98.1635C154.081 105.709 147.964 111.827 140.418 111.827C132.872 111.827 126.754 105.709 126.754 98.1635C126.754 90.6172 132.872 84.5 140.418 84.5C147.964 84.5 154.081 90.6172 154.081 98.1635ZM151.581 98.1635C151.581 104.329 146.583 109.327 140.417 109.327C134.252 109.327 129.254 104.329 129.254 98.1635C129.254 91.998 134.252 87 140.417 87C146.583 87 151.581 91.998 151.581 98.1635Z" fill="#2E2622"/>
<path d="M188.026 98.804C188.026 106.35 181.909 112.467 174.363 112.467C166.817 112.467 160.699 106.35 160.699 98.804C160.699 91.2578 166.817 85.1405 174.363 85.1405C181.909 85.1405 188.026 91.2578 188.026 98.804Z" fill="white" fill-opacity="0.35"/>
<path fill-rule="evenodd" clip-rule="evenodd" d="M188.026 98.804C188.026 106.35 181.909 112.467 174.363 112.467C166.817 112.467 160.699 106.35 160.699 98.804C160.699 91.2578 166.817 85.1405 174.363 85.1405C181.909 85.1405 188.026 91.2578 188.026 98.804ZM185.526 98.804C185.526 104.969 180.528 109.967 174.363 109.967C168.198 109.967 163.2 104.969 163.2 98.804C163.2 92.6385 168.198 87.6405 174.363 87.6405C180.528 87.6405 185.526 92.6385 185.526 98.804Z" fill="#2E2622"/>
<path d="M160.271 98.4822C159.732 98.201 158.808 97.875 157.39 97.875C155.972 97.875 155.016 98.2013 154.443 98.4903C154.154 98.6363 153.955 98.7765 153.838 98.869C153.78 98.9153 153.742 98.9495 153.724 98.9665C153.719 98.9713 153.716 98.9748 153.714 98.9765C153.25 99.474 152.471 99.5093 151.963 99.0517C151.45 98.5895 151.41 97.7993 151.872 97.2865L152.791 98.1155C151.872 97.2865 151.872 97.286 151.873 97.2852L151.874 97.2843L151.876 97.2817L151.881 97.2767C151.884 97.273 151.888 97.269 151.892 97.2648C151.9 97.256 151.909 97.246 151.921 97.2345C151.943 97.2118 151.971 97.184 152.005 97.1515C152.074 97.0865 152.167 97.0037 152.285 96.9097C152.523 96.7212 152.864 96.4868 153.317 96.2582C154.23 95.798 155.57 95.375 157.39 95.375C159.211 95.375 160.532 95.7983 161.428 96.2663C161.873 96.4983 162.204 96.7372 162.436 96.9308C162.551 97.0275 162.641 97.1128 162.708 97.1803C162.741 97.214 162.769 97.2432 162.791 97.2672C162.801 97.2792 162.811 97.2897 162.819 97.299C162.823 97.3038 162.827 97.308 162.83 97.312L162.835 97.3175L162.837 97.3203L162.838 97.3215C162.839 97.322 162.839 97.3227 161.892 98.113L162.839 97.3227C163.281 97.8527 163.21 98.641 162.68 99.0833C162.157 99.5198 161.382 99.456 160.936 98.9443C160.935 98.9428 160.933 98.9405 160.93 98.9378C160.916 98.9233 160.883 98.8915 160.831 98.8477C160.727 98.7602 160.543 98.6247 160.271 98.4822Z" fill="#2E2622"/>
</svg>
