<svg width="300" height="400" viewBox="0 0 300 400" fill="none" xmlns="http://www.w3.org/2000/svg">
<path d="M167.877 295.5C172.251 295.478 175.823 298.971 175.916 303.328L175.917 303.46L176.219 363.71C176.241 368.128 172.677 371.728 168.259 371.75C163.885 371.772 160.313 368.279 160.221 363.922L160.219 363.79L159.918 303.54C159.895 299.122 163.459 295.522 167.877 295.5Z" fill="#393939"/>
<path d="M131.417 295.5C135.792 295.5 139.346 299.01 139.416 303.368L139.417 303.5V367C139.417 371.418 135.836 375 131.417 375C127.043 375 123.489 371.49 123.419 367.132L123.417 367V303.5C123.417 299.082 126.999 295.5 131.417 295.5Z" fill="#393939"/>
<path d="M206.386 375.01C206.43 369.965 205.643 369.588 200.653 367.52C195.663 365.453 183.916 362.1 179.829 356.463C179.829 356.463 178.693 356.275 176.846 357.153C175.269 357.9 173.245 359.738 170.191 359.713C166.876 359.683 163.92 359.063 162.084 358.213C161.288 356.303 159.529 356.285 159.529 356.285C159.529 356.285 157.056 360.43 157.02 364.595C156.984 368.76 156.996 375.68 156.996 375.68L206.386 375.01Z" fill="#545454"/>
<path d="M166.193 365.58C165.318 365.067 160.308 363.165 158.069 361.865C156.962 362.675 157.1 367.567 157.076 370.387L168.071 370.995C167.464 368.852 166.485 365.877 166.193 365.58Z" fill="#666666"/>
<path d="M194.797 368.605C197.919 369.015 201.918 369.18 202.677 368.16L197.565 366.577L190.839 363.827L189.081 364.707L189.325 365.48L185.553 367.882L187.158 370.205L187.183 370.192C188.415 369.64 191.645 368.187 194.797 368.605Z" fill="#666666"/>
<path d="M180.011 357.033C180.159 356.69 180.558 356.533 180.901 356.681C181.243 356.83 181.401 357.229 181.252 357.571C181.105 357.911 180.995 358.298 180.917 358.729C180.852 359.092 180.813 359.427 180.791 359.821L180.783 359.993L184.412 358.351C184.921 358.121 185.467 358.57 185.354 359.105L185.345 359.143L184.588 361.955L187.591 360.96C188.015 360.819 188.452 361.121 188.479 361.56L188.48 361.603L188.479 364.477L190.723 363.231C191.161 362.987 191.698 363.289 191.727 363.78L191.728 363.823L191.727 367.293C191.727 367.666 191.424 367.969 191.051 367.969C190.691 367.969 190.396 367.688 190.375 367.333L190.374 367.292L190.374 364.973L188.131 366.219C187.693 366.463 187.157 366.161 187.127 365.67L187.126 365.627L187.127 362.539L183.821 363.635C183.322 363.8 182.839 363.36 182.945 362.855L182.954 362.816L183.666 360.174L180.368 361.666C179.933 361.863 179.442 361.56 179.414 361.093L179.413 361.05L179.413 360.786C179.418 359.81 179.455 359.209 179.585 358.489C179.68 357.961 179.819 357.476 180.011 357.033Z" fill="#393939"/>
<path d="M157.105 374.887L157.106 370.247L196.707 373.007L206.658 371.98L206.864 373.702C207.011 374.932 206.102 376.032 204.868 376.12L196.706 376.702L176.657 375.967L158.188 375.97C157.59 375.97 157.105 375.485 157.105 374.887Z" fill="#393939"/>
<path d="M93.334 374.822C93.29 369.777 94.0769 369.397 99.0667 367.332C104.056 365.265 115.804 361.912 119.89 356.275C119.89 356.275 121.026 356.085 122.874 356.962C124.451 357.712 126.475 359.55 129.528 359.522C132.844 359.495 135.799 358.872 137.636 358.025C138.432 356.112 140.191 356.097 140.191 356.097C140.191 356.097 142.663 360.242 142.7 364.407C142.736 368.572 142.724 375.49 142.724 375.49L93.334 374.822Z" fill="#545454"/>
<path d="M133.526 365.392C134.401 364.88 139.412 362.977 141.651 361.675C142.758 362.487 142.62 367.377 142.644 370.197L131.649 370.807C132.255 368.665 133.235 365.69 133.526 365.392Z" fill="#666666"/>
<path d="M104.922 368.415C101.801 368.827 97.802 368.99 97.0431 367.972L102.154 366.39L108.881 363.637L110.638 364.52L110.395 365.292L114.166 367.695L112.561 370.015L112.537 370.005C111.304 369.45 108.074 368 104.922 368.415Z" fill="#666666"/>
<path d="M118.819 356.494C119.162 356.345 119.56 356.503 119.709 356.845C120.197 357.97 120.307 359.034 120.307 360.862C120.308 361.34 119.829 361.662 119.391 361.495L119.351 361.479L116.054 359.985L116.766 362.629C116.902 363.136 116.435 363.593 115.938 363.459L115.899 363.447L112.593 362.352L112.594 365.44C112.594 365.941 112.07 366.264 111.626 366.051L111.589 366.031L109.345 364.785L109.346 367.105C109.346 367.465 109.065 367.759 108.711 367.78L108.669 367.782C108.309 367.782 108.015 367.501 107.994 367.146L107.993 367.105L107.992 363.635C107.992 363.133 108.516 362.811 108.959 363.024L108.997 363.043L111.24 364.289L111.24 361.415C111.239 360.968 111.663 360.648 112.088 360.76L112.129 360.772L115.132 361.767L114.375 358.953C114.23 358.414 114.761 357.947 115.271 358.146L115.308 358.161L118.935 359.804L118.931 359.723C118.886 358.777 118.767 358.104 118.5 357.461L118.468 357.384C118.319 357.041 118.476 356.643 118.819 356.494Z" fill="#393939"/>
<path d="M142.615 374.7L142.614 370.06L103.013 372.82L93.0619 371.792L92.8556 373.515C92.7085 374.742 93.6183 375.845 94.852 375.932L103.014 376.512L123.063 375.777L141.532 375.782C142.13 375.782 142.615 375.297 142.615 374.7Z" fill="#393939"/>
<path d="M149.75 234.25H109.75L122.25 348.25L140.793 350.75L147.771 288.75L149.75 234.25Z" fill="#666666"/>
<path d="M150.25 234.25H190.25L177.75 348.25L159.207 350.75L152.228 288.75L150.25 234.25Z" fill="#666666"/>
<path d="M181.554 167.99C186.003 165.481 191.645 167.053 194.155 171.502C200.079 182.005 204.452 196.843 206.709 212.352C208.859 227.12 208.815 240.475 206.111 247.911C204.365 252.712 199.057 255.189 194.256 253.443C189.503 251.715 187.028 246.496 188.673 241.733L188.724 241.589C190.108 237.785 190.143 226.979 188.402 215.016C186.446 201.58 182.689 188.831 178.042 180.592C175.532 176.142 177.104 170.5 181.554 167.99Z" fill="#EBBAAA"/>
<path d="M105.677 171.503C108.187 167.053 113.828 165.481 118.278 167.991C122.727 170.501 124.3 176.143 121.79 180.592C117.142 188.831 113.385 201.581 111.429 215.017L111.327 215.733C109.707 227.29 109.75 237.649 111.066 241.473L111.107 241.59C112.853 246.391 110.376 251.698 105.575 253.444C100.774 255.19 95.4664 252.713 93.7206 247.912C91.0167 240.476 90.9726 227.12 93.1221 212.352C95.3794 196.844 99.7523 182.005 105.677 171.503Z" fill="#EBBAAA"/>
<rect x="108.167" y="138" width="42.5" height="98.2055" rx="21.25" transform="rotate(15 108.167 138)" fill="#8D5D42"/>
<rect width="42.5" height="98.2055" rx="21.25" transform="matrix(-0.965926 0.258819 0.258819 0.965926 191.719 138)" fill="#8D5D42"/>
<path d="M203.125 197.25L185 202.75L204.75 200.875L203.125 197.25Z" fill="#A87C63"/>
<path d="M199.75 205.25L185.75 204.5L197.875 208.375L199.75 205.25Z" fill="#A87C63"/>
<path d="M95.625 199L113.75 204.5L94 202.625L95.625 199Z" fill="#A87C63"/>
<path d="M99 207L113 206.25L100.875 210.125L99 207Z" fill="#A87C63"/>
<path d="M211.917 241.5C213.517 236.9 213.917 220.75 211.917 213.25L183.417 212C186.468 221.5 186.967 234 189.217 246.25L189.256 246.252C194.542 246.504 209.922 247.236 211.917 241.5Z" fill="#8D5D42"/>
<path d="M88.0218 241.5C86.4218 236.9 86.0219 220.75 88.0218 213.25L116.522 212C113.471 221.5 112.971 234 110.721 246.25L110.683 246.252C105.397 246.504 90.017 247.236 88.0218 241.5Z" fill="#8D5D42"/>
<path d="M107.972 155.133C107.656 148.784 112.156 143.209 118.428 142.178L149.917 137L181.407 142.178C187.679 143.209 192.179 148.784 191.863 155.133L189.917 194.25C189.917 194.25 190.698 229.615 191.167 241C191.591 251.278 192.288 314.302 192.402 324.775C192.412 325.707 191.907 326.518 191.054 326.893C186.908 328.708 173.288 333.75 149.917 333.75C126.599 333.75 112.988 328.73 108.809 326.902C107.942 326.525 107.433 325.69 107.459 324.745C107.751 314.18 109.494 251.268 109.917 241C110.387 229.615 109.917 194.25 109.917 194.25L107.972 155.133Z" fill="#AC785B"/>
<path d="M147.375 232.5C147.375 225.7 146.333 183.5 144.5 163.5L141.875 153L147.25 153.25C147.678 156.717 148.75 165.25 150.25 172.5L152.625 153.25L156.875 153C156.875 157.667 155 168.1 155 172.5C155 176.9 154.75 309.5 154.75 333.5H147.375V232.5Z" fill="#8D5D42"/>
<path d="M151.499 174.699C152.423 201.92 153.666 321.914 153.016 333.421L152.996 333.736L150.004 333.514C150.682 324.368 149.455 204.611 148.529 175.65L148.501 174.801L151.499 174.699Z" fill="#45474A"/>
<path d="M149.469 171.832C150.371 171.545 151.334 172.028 151.648 172.912L151.668 172.969L153.418 178.469C153.711 179.39 153.202 180.375 152.281 180.668C151.379 180.955 150.416 180.472 150.102 179.588L150.082 179.531L148.332 174.031C148.039 173.11 148.548 172.125 149.469 171.832Z" fill="#A2A3A4"/>
<path d="M149.917 164C159.582 164 167.417 156.165 167.417 146.5C167.417 136.835 159.582 129 149.917 129C140.252 129 132.417 136.835 132.417 146.5C132.417 156.165 140.252 164 149.917 164Z" fill="#8D5D42"/>
<rect x="137.917" y="105.5" width="24" height="48.5" rx="12" fill="#EBBAAA"/>
<path d="M150.5 157.875L162.125 133.25L170.75 140.375L165.5 160.875L150.5 157.875Z" fill="#45474A"/>
<path d="M163.216 134.656L165.534 135.593L156.034 159.093L153.716 158.156L163.216 134.656Z" fill="#A2A3A4"/>
<path d="M166.806 137.755L169.194 138.496L162.444 160.246L160.056 159.505L166.806 137.755Z" fill="#A2A3A4"/>
<path d="M149.5 157.875L137.875 133.25L129.25 140.375L134.5 160.875L149.5 157.875Z" fill="#45474A"/>
<path d="M136.784 134.656L146.284 158.156L143.966 159.093L134.466 135.593L136.784 134.656Z" fill="#A2A3A4"/>
<path d="M133.194 137.755L139.944 159.505L137.556 160.246L130.806 138.496L133.194 137.755Z" fill="#A2A3A4"/>
<path fill-rule="evenodd" clip-rule="evenodd" d="M186.75 99.75C186.75 99.75 178.75 123 203.25 139.25C203.25 139.25 195.75 147.25 181.25 144.125C165.25 140.677 161.917 133.706 161.917 133.706C161.917 133.706 161.917 129.75 161.917 128.238C161.917 118.363 152.75 99.75 152.75 99.75H186.75Z" fill="#393939"/>
<path d="M187.417 102C192.94 102 197.417 97.523 197.417 92.0002C197.417 86.4772 192.94 82.0002 187.417 82.0002C181.895 82.0002 177.417 86.4772 177.417 92.0002C177.417 97.523 181.895 102 187.417 102Z" fill="#E4C1C1"/>
<path d="M112.417 102C106.894 102 102.417 97.523 102.417 92.0002C102.417 86.4772 106.894 82.0002 112.417 82.0002C117.94 82.0002 122.417 86.4772 122.417 92.0002C122.417 97.523 117.94 102 112.417 102Z" fill="#E4C1C1"/>
<rect x="112.417" y="30" width="75" height="100" rx="37.5" fill="#F6DDD6"/>
<path d="M125 100C129.142 100 132.5 96.6421 132.5 92.5C132.5 88.3579 129.142 85 125 85C120.858 85 117.5 88.3579 117.5 92.5C117.5 96.6421 120.858 100 125 100Z" fill="#F2CACA"/>
<path d="M175 100C179.142 100 182.5 96.6421 182.5 92.5C182.5 88.3579 179.142 85 175 85C170.858 85 167.5 88.3579 167.5 92.5C167.5 96.6421 170.858 100 175 100Z" fill="#F2CACA"/>
<path fill-rule="evenodd" clip-rule="evenodd" d="M136.25 102.255V107.205C136.25 114.825 142.407 121 150 121C157.594 121 163.749 114.825 163.749 107.205V102.255H136.25Z" fill="#393939"/>
<mask id="mask0_0_2229" style="mask-type:luminance" maskUnits="userSpaceOnUse" x="136" y="102" width="28" height="19">
<path fill-rule="evenodd" clip-rule="evenodd" d="M136.272 102.25C136.257 102.505 136.25 102.763 136.25 103.02V107.842C136.25 115.11 142.407 121 150 121C157.594 121 163.749 115.11 163.749 107.842V103.02C163.749 102.763 163.742 102.505 163.727 102.25H136.272Z" fill="white"/>
</mask>
<g mask="url(#mask0_0_2229)">
<path d="M149.999 125.423C154.579 125.423 158.291 123.396 158.291 120.895C158.291 118.394 154.579 116.367 149.999 116.367C145.42 116.367 141.707 118.394 141.707 120.895C141.707 123.396 145.42 125.423 149.999 125.423Z" fill="#FF6C6C"/>
</g>
<rect x="136.25" y="102.255" width="27.5" height="5.68665" fill="white"/>
<path d="M136.25 75.25C136.94 75.25 137.5 75.8096 137.5 76.5C137.5 77.1722 136.969 77.7205 136.304 77.7488L136.25 77.75H128.75C128.06 77.75 127.5 77.1904 127.5 76.5C127.5 75.8278 128.031 75.2795 128.696 75.2512L128.75 75.25H136.25Z" fill="black"/>
<path d="M171.25 75.25C171.94 75.25 172.5 75.8096 172.5 76.5C172.5 77.1722 171.969 77.7205 171.304 77.7488L171.25 77.75H163.75C163.06 77.75 162.5 77.1904 162.5 76.5C162.5 75.8278 163.031 75.2795 163.696 75.2512L163.75 75.25H171.25Z" fill="black"/>
<path d="M164.75 73.25C166.381 73.25 167.709 74.5521 167.749 76.1738L167.75 76.25V81C167.75 82.6569 166.407 84 164.75 84C163.119 84 161.791 82.6979 161.751 81.0762L161.75 81V76.25C161.75 74.5931 163.093 73.25 164.75 73.25Z" fill="black"/>
<path d="M135.251 73.25C136.882 73.25 138.21 74.5521 138.25 76.1738L138.251 76.25V81C138.251 82.6569 136.908 84 135.251 84C133.62 84 132.292 82.6979 132.252 81.0762L132.251 81V76.25C132.251 74.5931 133.594 73.25 135.251 73.25Z" fill="black"/>
<path d="M159.579 64.0021L173.829 64.7521C174.656 64.7957 175.291 65.5016 175.248 66.3289C175.205 67.1374 174.53 67.7625 173.727 67.7499L173.671 67.748L159.421 66.998C158.594 66.9544 157.959 66.2485 158.002 65.4212C158.045 64.6127 158.72 63.9875 159.523 64.0002L159.579 64.0021Z" fill="#271E1E"/>
<path d="M140.421 64.0021C141.248 63.9586 141.954 64.5939 141.998 65.4212C142.04 66.2297 141.435 66.9223 140.635 66.994L140.579 66.998L126.329 67.748C125.502 67.7915 124.796 67.1562 124.752 66.3289C124.709 65.5204 125.315 64.8278 126.115 64.7561L126.171 64.7521L140.421 64.0021Z" fill="#271E1E"/>
<path fill-rule="evenodd" clip-rule="evenodd" d="M155.75 71.75H179.25C180.522 71.75 181.5 72.8132 181.5 74.0652V77.5978C181.5 82.9021 177.5 87.25 172.5 87.25H162.5C157.5 87.25 153.5 82.9021 153.5 77.5978V74.0652C153.5 72.8132 154.478 71.75 155.75 71.75ZM178.5 74.7499H156.5L156.5 77.5978C156.5 81.2615 159.161 84.1909 162.402 84.2491L162.5 84.25H172.5C175.785 84.25 178.5 81.2985 178.5 77.5978L178.5 74.7499Z" fill="#393939"/>
<rect x="144" y="76.25" width="12.5" height="2.5" fill="#393939"/>
<path fill-rule="evenodd" clip-rule="evenodd" d="M120.75 71.75H144.25C145.523 71.75 146.5 72.8143 146.5 74.0667V77.3333C146.5 82.645 142.501 87 137.5 87H127.5C122.499 87 118.5 82.645 118.5 77.3333V74.0667C118.5 72.8143 119.477 71.75 120.75 71.75ZM143.5 74.7499H121.5L121.5 77.3333C121.5 81.0054 124.162 83.9408 127.402 83.9991L127.5 84H137.5C140.784 84 143.5 81.0425 143.5 77.3333L143.5 74.7499Z" fill="#393939"/>
<path d="M188.665 58.6215C188.723 57.054 187.588 55.7502 186.167 55.7502C184.693 55.7502 183.539 57.1487 183.679 58.7675L186.033 86.1932C186.072 86.6517 186.42 87.0002 186.836 87.0002C187.27 87.0002 187.625 86.6237 187.644 86.1472L188.665 58.6215Z" fill="#393939"/>
<path d="M111.169 58.6215C111.111 57.054 112.247 55.7502 113.667 55.7502C115.141 55.7502 116.295 57.1487 116.156 58.7675L113.802 86.1932C113.763 86.6517 113.414 87.0002 112.999 87.0002C112.565 87.0002 112.209 86.6237 112.191 86.1472L111.169 58.6215Z" fill="#393939"/>
<path d="M149.39 49.0302C167.475 49.0302 183.998 56.9188 184.743 70.8423C187.794 75.3706 188.667 64.4269 188.667 56.1556C188.667 29.7201 165.721 22.3062 148.092 23.25C131.668 25.4915 131.302 49.0302 149.39 49.0302Z" fill="#393939"/>
<path d="M151.389 44.0303C132.828 44.0303 115.962 56.1934 115.196 70.1169C112.065 74.6451 111.167 64.4698 111.167 56.1968C111.167 29.0113 135.056 23.25 152.721 23.25C164.834 24.4544 169.953 44.0303 151.389 44.0303Z" fill="#393939"/>
<path d="M148.149 83.3213L151.686 85.6788C150.484 87.4815 149.542 90.1876 149.542 92.1563C149.542 94.0545 150.228 94.8525 152.327 94.8746L152.417 94.875V99.125C147.782 99.125 145.292 96.3247 145.292 92.1563C145.292 89.3325 146.467 85.9047 148.062 83.454L148.149 83.3213Z" fill="#EBBAAA"/>
</svg>
