<svg width="300" height="400" viewBox="0 0 300 400" fill="none" xmlns="http://www.w3.org/2000/svg">
<path d="M102.811 175.618C107.054 175.695 110.431 179.197 110.354 183.439C110.288 187.093 109.822 190.062 108.857 194.206L108.372 196.283C107.722 199.102 107.627 199.762 107.633 200.793C107.643 202.375 108.26 203.791 110.432 206.119L110.629 206.327C113.893 209.746 119.742 213.986 128.885 219.365C132.542 221.516 133.763 226.225 131.612 229.883C129.46 233.54 124.751 234.761 121.094 232.61C100.235 220.34 92.3329 211.872 92.267 200.886C92.2569 199.206 92.4328 197.557 92.772 195.723L92.8216 195.46C92.9496 194.792 93.0954 194.113 93.2796 193.312L93.4848 192.436C93.6311 191.817 93.8118 191.057 93.8345 190.961L93.9296 190.553C94.6413 187.472 94.9483 185.478 94.9902 183.162C95.0661 178.961 98.4987 175.609 102.684 175.617L102.811 175.618Z" fill="#F6DDD6"/>
<path d="M206.796 145.088C210.203 142.559 215.016 143.271 217.545 146.678C223.541 154.758 226.255 162.839 225.456 170.298C224.672 177.615 220.535 183.661 214.281 187.196C208.518 190.453 201.408 191.316 194.577 189.615C187.391 187.826 180.949 183.343 176.305 176.627C173.892 173.136 174.765 168.351 178.255 165.937C181.746 163.524 186.531 164.397 188.945 167.887C191.472 171.542 194.748 173.822 198.29 174.704C201.38 175.473 204.451 175.1 206.719 173.818C208.746 172.673 209.933 170.939 210.177 168.662C210.522 165.434 209.087 161.115 205.323 155.995L205.205 155.837C202.676 152.429 203.388 147.617 206.796 145.088Z" fill="#F6DDD6"/>
<path d="M84.0385 182.421L130.75 151.507L136.375 185.806L115.5 206.257L84.0385 182.421Z" fill="#4E542B"/>
<path d="M114.529 209.517L82.25 183.613L88.2116 178.844L119 203.257L114.529 209.517Z" fill="#303415"/>
<path d="M204.5 169.146L168.224 164.507L165.75 189.456L192.648 204.507L204.5 169.146Z" fill="#4E542B"/>
<path d="M197.628 207.385L210.462 169.19L203.725 168.324L191.291 204.683L197.628 207.385Z" fill="#303415"/>
<path d="M106.832 223.659L121.952 179.767L129.106 158.007L142.519 160.988L167.558 158.007L193.375 218.757C193.375 218.757 197.5 227.007 194.25 229.757C191 232.507 184.75 232.507 184.75 232.507L151.163 247.132L116.875 235.507C116.875 235.507 109.663 233.496 107.875 230.962C106.086 228.428 106.832 223.659 106.832 223.659Z" fill="#676B3B"/>
<path d="M121.5 193.007H140.25V206.757C140.25 209.519 138.011 211.757 135.25 211.757H126.5C123.739 211.757 121.5 209.519 121.5 206.757V193.007Z" fill="#4E542B"/>
<path d="M147.265 185.826C157.883 185.826 166.49 176.885 166.49 165.855C166.49 154.825 157.883 145.884 147.265 145.884C136.646 145.884 128.039 154.825 128.039 165.855C128.039 176.885 136.646 185.826 147.265 185.826Z" fill="#303415"/>
<path d="M161.841 248.363C164.517 246.237 168.397 246.657 170.558 249.288L172.47 251.692C177.058 257.47 179.678 261.042 182.193 265.226C185.532 270.781 187.846 276.285 189.118 282.184C192.1 296.018 189.128 311.36 179.218 329.616C177.572 332.65 173.778 333.775 170.744 332.128C167.71 330.481 166.586 326.687 168.233 323.653C176.804 307.862 179.2 295.494 176.899 284.818C175.957 280.449 174.222 276.279 171.639 271.933L171.48 271.667C169.474 268.329 167.293 265.313 163.578 260.598L160.836 257.145C158.688 254.442 159.139 250.511 161.841 248.363Z" fill="#F6DDD6"/>
<path d="M127.799 252.007C128.254 248.586 131.397 246.181 134.819 246.637C138.206 247.088 140.597 250.173 140.202 253.554L140.19 253.657C138.096 269.381 140.937 331.422 144.472 353.558L144.579 354.216C145.146 357.621 142.845 360.841 139.44 361.408C136.035 361.974 132.816 359.674 132.249 356.269C130.529 345.937 128.805 324.987 127.792 303.073L127.729 301.693C126.722 279.225 126.671 260.482 127.799 252.007Z" fill="#F6DDD6"/>
<path d="M174.14 267.539L129.453 264.402L118.805 240.547L179.047 240.48L174.14 267.539Z" fill="#002774"/>
<path d="M146.413 244.611L183.834 244.873L198.726 285.517L192.4 321.575L160.246 317.402L165.632 286.947L146.413 244.611Z" fill="#002774"/>
<path d="M117.776 247.849L151.12 246.41L148.266 293.34L148.077 338.253L118.155 337.79L116.296 294.72L117.776 247.849Z" fill="#002774"/>
<path d="M129.375 260.898C132.99 258.84 134.957 250.694 135.499 246.834L117.766 247.599L117.25 262.898C119.974 263.197 125.76 262.955 129.375 260.898Z" fill="#001744"/>
<path d="M174.125 257.648C170.158 255.94 166.532 249.401 165.625 245.648L183.275 243.521L188.75 258.119C185.923 258.653 179.125 259.801 174.125 257.648Z" fill="#001744"/>
<path d="M116.738 235.382L184.674 232.45L184.188 245.983L117.747 248.851L116.738 235.382Z" fill="#221512"/>
<path d="M131.38 344.19C132.209 341.293 130.231 339.073 129.139 338.323C128.642 339.088 128.142 342.873 127.077 345.835L124.131 349.74L119.678 355.565L113.977 358.593L117.173 362.035C119.178 360.358 130.551 347.09 131.38 344.19Z" fill="#3B3937"/>
<path d="M150.372 363.05C150.372 363.05 150.274 356.833 148.804 353.45C147.334 350.068 145.59 341.255 145.59 341.255C145.59 341.255 143.354 343.87 138.989 344.06C134.623 344.248 129.947 343.395 129.947 343.395C129.947 343.395 122.301 354.455 120.242 355.868C118.182 357.283 107.983 360.508 107.983 360.508C105.718 360.605 103.962 362.52 104.059 364.785L104.149 366.87L129.02 365.798L150.372 363.05Z" fill="#1C1B19"/>
<mask id="mask0_0_2307" style="mask-type:luminance" maskUnits="userSpaceOnUse" x="103" y="341" width="48" height="26">
<path fill-rule="evenodd" clip-rule="evenodd" d="M150.373 363.05C150.373 363.05 150.274 356.833 148.804 353.45C147.334 350.068 145.59 341.255 145.59 341.255C145.59 341.255 143.354 343.87 138.989 344.06C134.623 344.248 129.948 343.395 129.948 343.395C129.948 343.395 122.302 354.455 120.242 355.868C118.182 357.283 109.125 360.25 108 360.375C105.669 360.633 103.744 362.403 103.882 364.745L104 366.75L129.02 365.798L150.373 363.05Z" fill="white"/>
</mask>
<g mask="url(#mask0_0_2307)">
<path d="M108 374.75C112.28 374.75 115.75 371.28 115.75 367C115.75 362.72 112.28 359.25 108 359.25C103.72 359.25 100.25 362.72 100.25 367C100.25 371.28 103.72 374.75 108 374.75Z" fill="#D0CEC1"/>
</g>
<path d="M125.689 346.129C125.829 345.73 126.255 345.513 126.657 345.629L126.701 345.643L128.047 346.115C128.461 346.261 128.679 346.714 128.534 347.128C128.394 347.527 127.967 347.744 127.566 347.629L127.521 347.615L126.175 347.142C125.761 346.997 125.543 346.543 125.689 346.129Z" fill="#ECECEC"/>
<path d="M124.072 348.584C124.212 348.185 124.638 347.968 125.04 348.084L125.084 348.098L126.43 348.57C126.844 348.716 127.062 349.169 126.917 349.583C126.776 349.982 126.35 350.199 125.948 350.084L125.904 350.07L124.558 349.597C124.144 349.452 123.926 348.998 124.072 348.584Z" fill="#ECECEC"/>
<path d="M122.322 351.048C122.461 350.649 122.887 350.431 123.289 350.546L123.334 350.56L124.679 351.03C125.094 351.175 125.312 351.628 125.168 352.042C125.028 352.441 124.602 352.659 124.2 352.544L124.156 352.53L122.81 352.06C122.396 351.915 122.177 351.462 122.322 351.048Z" fill="#ECECEC"/>
<path d="M120.044 353.529C120.184 353.13 120.61 352.913 121.012 353.029L121.056 353.043L122.402 353.515C122.816 353.661 123.034 354.114 122.889 354.528C122.749 354.927 122.322 355.144 121.921 355.029L121.876 355.015L120.53 354.542C120.116 354.397 119.898 353.943 120.044 353.529Z" fill="#ECECEC"/>
<path d="M118.018 355.737C118.158 355.338 118.585 355.121 118.987 355.236L119.031 355.25L120.377 355.723C120.791 355.868 121.009 356.322 120.864 356.736C120.723 357.135 120.297 357.352 119.895 357.236L119.851 357.222L118.505 356.75C118.091 356.604 117.873 356.151 118.018 355.737Z" fill="#ECECEC"/>
<path d="M150.613 362.978L127.243 365.045L103.915 364.993L103.679 368.053C103.607 368.98 104.346 369.773 105.278 369.763L126.952 369.565L139.041 369.175L151.106 368.258L150.613 362.978Z" fill="#D0CEC1"/>
<path d="M150.835 365.484L150.919 366.541L143.553 367.138L141.021 367.336C137.828 367.58 135.427 367.741 133.857 367.809L133.468 367.825C130.12 367.949 123.139 367.99 120.255 367.881L120.03 367.872L120.077 366.813L120.417 366.827C123.379 366.931 130.337 366.886 133.559 366.761L134.002 366.742C135.398 366.678 137.411 366.545 140.011 366.35L142.385 366.167L150.835 365.484Z" fill="#1C1B19"/>
<path d="M120.812 369.565L120.709 367.183L120.669 366.258L103.834 366.188L103.688 368.345C103.635 369.118 104.252 369.77 105.025 369.76L120.812 369.565Z" fill="#ECEADF"/>
<path d="M140.843 357.7C138.213 357.813 135.988 355.773 135.875 353.143C135.761 350.513 137.801 348.289 140.432 348.175C143.062 348.062 145.286 350.102 145.4 352.732C145.513 355.362 143.473 357.586 140.843 357.7Z" fill="#DCE0E4"/>
<path d="M140.497 349.432C140.38 349.247 140.101 349.275 140.025 349.482L139.315 351.4C139.285 351.482 139.216 351.545 139.132 351.565L137.149 352.067C136.936 352.122 136.878 352.397 137.05 352.532L138.656 353.8C138.724 353.855 138.761 353.94 138.756 354.025L138.622 356.067C138.607 356.285 138.85 356.427 139.033 356.305L140.734 355.17C140.807 355.122 140.899 355.112 140.98 355.145L142.879 355.902C143.083 355.982 143.292 355.795 143.232 355.585L142.679 353.615C142.655 353.532 142.674 353.442 142.73 353.375L144.038 351.802C144.179 351.632 144.065 351.377 143.845 351.367L141.802 351.285C141.714 351.282 141.635 351.237 141.588 351.162L140.497 349.432Z" fill="#5B568E"/>
<path d="M176.768 332.132C177.769 329.292 180.645 328.6 181.958 328.61C181.919 329.515 180.141 332.892 179.294 335.917L179.422 340.782L179.66 348.07L182.517 353.782L177.954 354.78C177.302 352.272 175.767 334.972 176.768 332.132Z" fill="#3B3937"/>
<path d="M150.569 336.763C150.569 336.763 154.232 331.735 157.367 329.805C160.503 327.878 166.988 321.665 166.988 321.665C166.988 321.665 167.286 325.073 170.702 327.705C174.117 330.338 178.382 332.295 178.382 332.295C178.382 332.295 178.182 345.675 179.029 348C179.877 350.325 186.252 358.75 186.252 358.75C188.023 360.115 188.353 362.66 186.987 364.43L185.68 366.128L166.222 351.13L150.569 336.763Z" fill="#1C1B19"/>
<mask id="mask1_0_2307" style="mask-type:luminance" maskUnits="userSpaceOnUse" x="150" y="321" width="38" height="46">
<path fill-rule="evenodd" clip-rule="evenodd" d="M150.569 336.763C150.569 336.763 154.232 331.735 157.368 329.805C160.503 327.875 166.989 321.665 166.989 321.665C166.989 321.665 167.287 325.07 170.702 327.705C174.118 330.338 178.382 332.295 178.382 332.295C178.382 332.295 178.182 345.675 179.03 348C179.877 350.325 185.479 357.89 186.315 358.633C188.047 360.168 188.597 362.688 187.156 364.498L185.87 366.113L166.223 351.13L150.569 336.763Z" fill="white"/>
</mask>
<g mask="url(#mask1_0_2307)">
<path d="M178.034 370.383C174.581 367.95 173.78 363.142 176.245 359.643C178.71 356.144 183.507 355.279 186.961 357.712C190.414 360.145 191.215 364.953 188.75 368.452C186.285 371.951 181.487 372.816 178.034 370.383Z" fill="#D0CEC1"/>
</g>
<path d="M177.365 336.143C177.479 335.736 177.891 335.491 178.3 335.582L178.344 335.592L179.702 335.972C180.125 336.091 180.371 336.529 180.253 336.952C180.139 337.36 179.726 337.604 179.318 337.514L179.274 337.503L177.916 337.123C177.493 337.004 177.246 336.566 177.365 336.143Z" fill="#ECECEC"/>
<path d="M177.255 339.068C177.369 338.66 177.782 338.416 178.191 338.506L178.235 338.517L179.593 338.897C180.015 339.016 180.262 339.454 180.144 339.877C180.03 340.285 179.617 340.529 179.208 340.439L179.165 340.428L177.806 340.048C177.384 339.929 177.137 339.491 177.255 339.068Z" fill="#ECECEC"/>
<path d="M177.249 342.075C177.362 341.667 177.774 341.422 178.183 341.511L178.227 341.522L179.585 341.9C180.008 342.017 180.255 342.455 180.138 342.878C180.025 343.286 179.612 343.531 179.204 343.441L179.16 343.43L177.801 343.053C177.379 342.935 177.131 342.497 177.249 342.075Z" fill="#ECECEC"/>
<path d="M177.657 345.4C177.77 344.992 178.182 344.747 178.591 344.836L178.635 344.847L179.993 345.225C180.416 345.342 180.663 345.78 180.546 346.203C180.432 346.611 180.02 346.856 179.611 346.766L179.568 346.756L178.209 346.378C177.787 346.261 177.539 345.823 177.657 345.4Z" fill="#ECECEC"/>
<path d="M178.019 348.351C178.134 347.943 178.546 347.699 178.955 347.789L178.999 347.8L180.357 348.18C180.779 348.298 181.026 348.736 180.908 349.159C180.794 349.567 180.381 349.811 179.972 349.721L179.929 349.71L178.57 349.33C178.148 349.212 177.901 348.773 178.019 348.351Z" fill="#ECECEC"/>
<path d="M150.418 336.565L168.09 351.522L186.952 364.725L185.377 367.362C184.9 368.162 183.843 368.382 183.087 367.84L165.721 355.382L156.188 348.2L146.977 340.6L150.418 336.565Z" fill="#D0CEC1"/>
<path d="M148.117 339.305L148.793 338.49L155.505 344.078L157.121 345.412C159.065 347.013 160.583 348.24 161.656 349.072L162.006 349.342C164.561 351.293 170.266 355.361 172.668 356.918L172.855 357.039L172.284 357.931L171.995 357.744C169.513 356.125 163.903 352.124 161.361 350.182L160.93 349.849C159.8 348.97 158.208 347.681 156.169 346.001L148.117 339.305Z" fill="#1C1B19"/>
<path d="M170.678 358.868L172.133 356.98L172.699 356.248L186.328 365.75L185.201 367.598C184.799 368.258 183.921 368.433 183.295 367.983L170.678 358.868Z" fill="#ECEADF"/>
<path d="M161.346 337.798C163.404 339.384 166.375 338.98 167.982 336.894C169.589 334.809 169.224 331.833 167.166 330.247C165.108 328.661 162.137 329.065 160.53 331.151C158.923 333.236 159.288 336.212 161.346 337.798Z" fill="#DCE0E4"/>
<path d="M166.38 331.242C166.583 331.157 166.796 331.342 166.739 331.555L166.208 333.517C166.185 333.602 166.206 333.692 166.263 333.76L167.571 335.292C167.712 335.46 167.604 335.717 167.386 335.73L165.357 335.855C165.271 335.86 165.193 335.907 165.148 335.98L164.08 337.725C163.965 337.912 163.686 337.885 163.607 337.68L162.892 335.795C162.86 335.712 162.79 335.652 162.704 335.632L160.744 335.175C160.53 335.125 160.467 334.852 160.637 334.712L162.218 333.417C162.284 333.362 162.32 333.28 162.314 333.192L162.164 331.162C162.148 330.945 162.387 330.802 162.571 330.92L164.265 332.012C164.338 332.06 164.431 332.067 164.511 332.032L166.38 331.242Z" fill="#5B568E"/>
<path d="M116.271 335.245L149.528 333.81L149.24 344.713L118.635 346.033L116.271 335.245Z" fill="#6E86B7"/>
<path d="M159.141 312.625L195.585 319.705L191.276 329.952L157.563 323.403L159.141 312.625Z" fill="#6E86B7"/>
<mask id="mask2_0_2307" style="mask-type:luminance" maskUnits="userSpaceOnUse" x="142" y="232" width="16" height="18">
<rect x="142.149" y="232.784" width="14.75" height="16.75" rx="1.5" transform="rotate(-2.47128 142.149 232.784)" fill="white"/>
</mask>
<g mask="url(#mask2_0_2307)">
<path fill-rule="evenodd" clip-rule="evenodd" d="M143.497 229.222L155.236 228.716C157.995 228.597 160.328 230.737 160.447 233.495L161.04 247.233C161.159 249.991 159.019 252.324 156.26 252.444L144.521 252.95C141.762 253.069 139.429 250.929 139.31 248.17L138.717 234.433C138.598 231.674 140.738 229.341 143.497 229.222ZM153.96 245.536L153.54 235.795L145.797 236.129L146.217 245.87L153.96 245.536Z" fill="black"/>
</g>
<path d="M127.679 232.778C129.025 232.603 130.259 233.534 130.469 234.866L130.479 234.936L132.229 248.436C132.407 249.805 131.441 251.059 130.071 251.236C128.725 251.411 127.491 250.48 127.281 249.148L127.271 249.078L125.521 235.578C125.343 234.209 126.309 232.955 127.679 232.778Z" fill="#001744"/>
<path d="M170.048 233.081C170.283 231.721 171.577 230.808 172.937 231.044C174.275 231.275 175.179 232.529 174.986 233.864L174.975 233.933L172.654 247.367C172.419 248.728 171.125 249.64 169.765 249.405C168.427 249.174 167.523 247.92 167.716 246.585L167.727 246.516L170.048 233.081Z" fill="#001744"/>
<rect x="135.602" y="145.25" width="23.3101" height="34.985" rx="11.6551" fill="#E6CBC3"/>
<path d="M110.75 97.5344C110.75 79.3396 127.875 73.0001 149 73.0001C170.125 73.0001 187.25 79.3396 187.25 97.5344V130.302C184.165 151.556 168.349 163.51 149 163.246C129.651 162.981 113.012 149.076 110.75 130.302V97.5344Z" fill="#F6DDD6"/>
<path d="M148.797 117.602C135.381 117.554 118.02 118.154 111.017 120.417C109.504 111.926 114.534 95.6916 122.61 85.7203C130.687 75.7491 143.398 77.4458 149.016 79.9998C152.781 77.8478 163.144 76.0606 174.486 86.1271C185.828 96.1936 187.556 113.547 187.003 120.417C179.858 118.558 162.213 117.649 148.797 117.602Z" fill="black"/>
<path fill-rule="evenodd" clip-rule="evenodd" d="M193.863 119.25C197.528 123.36 201.429 128.338 205.625 134.364C209.167 139.45 212.083 144.494 214.419 149.454C211.167 157.541 203.25 163.25 194 163.25C181.85 163.25 172 153.4 172 141.25C172 129.145 181.776 119.324 193.863 119.25Z" fill="#FF0000" fill-opacity="0.03"/>
<path fill-rule="evenodd" clip-rule="evenodd" d="M89.2853 160.898C89.6008 155.4 90.362 149.122 91.6554 141.894C92.7471 135.793 94.2521 130.165 96.1073 125.005C104.125 121.587 113.76 123.148 120.301 129.689C128.893 138.28 128.893 152.21 120.301 160.801C111.742 169.361 97.8843 169.393 89.2853 160.898Z" fill="#FF0000" fill-opacity="0.03"/>
<path d="M165.375 136.25C169.586 136.25 173 132.836 173 128.625C173 124.414 169.586 121 165.375 121C161.164 121 157.75 124.414 157.75 128.625C157.75 132.836 161.164 136.25 165.375 136.25Z" fill="white"/>
<path d="M165.375 127C166.963 127 168.25 125.713 168.25 124.125C168.25 122.537 166.963 121.25 165.375 121.25C163.787 121.25 162.5 122.537 162.5 124.125C162.5 125.713 163.787 127 165.375 127Z" fill="black"/>
<path d="M132.625 136.25C136.836 136.25 140.25 132.836 140.25 128.625C140.25 124.414 136.836 121 132.625 121C128.414 121 125 124.414 125 128.625C125 132.836 128.414 136.25 132.625 136.25Z" fill="white"/>
<path d="M132.625 127C134.213 127 135.5 125.713 135.5 124.125C135.5 122.537 134.213 121.25 132.625 121.25C131.037 121.25 129.75 122.537 129.75 124.125C129.75 125.713 131.037 127 132.625 127Z" fill="black"/>
<path d="M148.505 127.235L152.835 127.686L152.817 127.877C152.768 128.439 152.757 129.073 152.761 130.372L152.764 131.538C152.764 131.65 152.763 131.756 152.763 131.869L152.759 132.2C152.726 134.757 152.501 136.429 151.804 137.872C150.676 140.209 148.446 141.2 145.589 140.54L145.484 140.515L146.516 136.285L146.655 136.318C147.499 136.512 147.671 136.42 147.883 135.979C148.222 135.278 148.381 134.065 148.406 132.11L148.41 131.579L148.407 129.809C148.408 128.691 148.426 128.069 148.487 127.419L148.505 127.235Z" fill="#E1BFB4"/>
<path d="M141.352 145.66C141.6 146.123 142.346 146.779 143.444 147.314C144.981 148.062 147.004 148.5 149.5 148.5C151.979 148.5 153.862 148.069 155.169 147.345C155.663 147.07 156.048 146.767 156.321 146.459C156.504 146.252 156.618 146.065 156.663 145.937L156.673 145.907L159.077 146.593C158.774 147.654 157.812 148.737 156.381 149.531C154.68 150.474 152.382 151 149.5 151C144.259 151 140.454 149.172 139.186 146.909L139.148 146.84L141.352 145.66Z" fill="#FE9287"/>
<path fill-rule="evenodd" clip-rule="evenodd" d="M143.459 46.894C128.778 46.4407 113.977 45.9836 91.2501 78.6141C76.5003 99.7909 71.3732 135.123 83.25 153.066C92.7122 167.362 109.126 176.125 148.617 176.125C185.375 176.125 201.375 174 214.25 155.5C227.125 137 227.96 108.53 207.125 78.6141C184.092 45.5414 169.963 46.1601 155.003 46.8151C152.9 46.9072 150.78 47 148.617 47C146.891 47 145.176 46.9471 143.459 46.894ZM149 161C167.778 161 183 145.778 183 127C183 108.222 167.778 93.0002 149 93.0002C130.222 93.0002 115 108.222 115 127C115 145.778 130.222 161 149 161Z" fill="#FFEDD3"/>
<rect x="120.5" y="38.1483" width="15.7961" height="24.5718" rx="7.89806" transform="rotate(-30 120.5 38.1483)" fill="#FFEDD3"/>
<rect x="140.82" y="32.6117" width="15.75" height="24.5" rx="7.875" fill="#FFEDD3"/>
<rect x="163.793" y="30.2501" width="15.7961" height="24.5718" rx="7.89806" transform="rotate(30 163.793 30.2501)" fill="#FFEDD3"/>
<path d="M132 79.5001C137.937 79.5001 142.75 74.6872 142.75 68.7501C142.75 62.8131 137.937 58.0001 132 58.0001C126.063 58.0001 121.25 62.8131 121.25 68.7501C121.25 74.6872 126.063 79.5001 132 79.5001Z" fill="white"/>
<path fill-rule="evenodd" clip-rule="evenodd" d="M136.125 78.6801C140.015 77.0624 142.75 73.2256 142.75 68.7501C142.75 64.2744 140.015 60.4376 136.125 58.8199C132.235 60.4376 129.5 64.2744 129.5 68.7501C129.5 73.2256 132.235 77.0624 136.125 78.6801Z" fill="black"/>
<path d="M162.5 79.5001C168.437 79.5001 173.25 74.6872 173.25 68.7501C173.25 62.8131 168.437 58.0001 162.5 58.0001C156.563 58.0001 151.75 62.8131 151.75 68.7501C151.75 74.6872 156.563 79.5001 162.5 79.5001Z" fill="white"/>
<path fill-rule="evenodd" clip-rule="evenodd" d="M166.625 78.6801C170.515 77.0624 173.25 73.2256 173.25 68.7501C173.25 64.2744 170.515 60.4376 166.625 58.8199C162.735 60.4376 160 64.2744 160 68.7501C160 73.2256 162.735 77.0624 166.625 78.6801Z" fill="black"/>
<path d="M144.719 76.296C145.108 76.2683 145.475 76.3019 145.947 76.3869L146.236 76.4419C146.574 76.5085 146.795 76.837 146.728 77.1757C146.662 77.5144 146.333 77.735 145.994 77.6684L145.834 77.6371C145.4 77.5545 145.097 77.5223 144.807 77.5429C144.082 77.5944 143.638 77.9889 143.425 79.0738C143.261 79.9075 143.699 80.4993 144.39 80.7831L144.427 80.7977L144.468 80.8007C144.761 80.825 145.059 80.8849 145.353 80.9785L145.421 81.0007C146.111 81.2322 145.916 82.2553 145.19 82.2173C144.904 82.2023 144.598 82.1479 144.296 82.0561L144.248 82.0407L144.195 82.04C143.422 82.0394 142.784 82.4647 142.571 83.4183L142.556 83.489C142.296 84.8103 143.142 85.4797 144.343 85.5063C144.688 85.5139 144.962 85.7998 144.954 86.1449C144.947 86.49 144.661 86.7636 144.316 86.756C142.438 86.7145 140.889 85.4884 141.33 83.2477C141.531 82.2213 142.043 81.5375 142.708 81.1569L142.762 81.1269L142.722 81.0807C142.24 80.5171 142.034 79.7828 142.182 78.9192L142.198 78.8324C142.52 77.1954 143.429 76.3877 144.719 76.296Z" fill="black"/>
<path fill-rule="evenodd" clip-rule="evenodd" d="M102.89 63.7227C99.2402 67.7849 95.3757 72.6907 91.25 78.6142C87.314 84.2652 84.0632 90.9242 81.6379 97.9919C85.6073 103.736 92.2391 107.5 99.7499 107.5C111.9 107.5 121.75 97.6504 121.75 85.5002C121.75 74.4162 113.553 65.2464 102.89 63.7227Z" fill="#FF0000" fill-opacity="0.5"/>
<path fill-rule="evenodd" clip-rule="evenodd" d="M195.363 63.5006C199.028 67.6109 202.929 72.5884 207.125 78.6141C210.667 83.6999 213.583 88.7441 215.919 93.7044C212.667 101.791 204.75 107.5 195.5 107.5C183.35 107.5 173.5 97.6504 173.5 85.5001C173.5 73.3956 183.276 63.5741 195.363 63.5006Z" fill="#FF0000" fill-opacity="0.5"/>
</svg>
