<svg width="300" height="400" viewBox="0 0 300 400" fill="none" xmlns="http://www.w3.org/2000/svg">
<path fill-rule="evenodd" clip-rule="evenodd" d="M196.966 361.01H163.156C163.607 358.345 164.785 351.175 164.785 349.015C164.599 346.595 164.251 344.187 163.743 341.81L163.739 341.79C163.451 340.206 163.156 338.583 163.044 337.63C163.879 337.657 165.486 337.887 166.833 338.08L166.833 338.08L166.836 338.08C168.811 338.4 170.802 338.617 172.801 338.735C174.445 338.67 176.067 338.35 177.604 337.787C178.861 337.402 180.763 336.822 180.919 337.287C181.284 338.2 181.729 339.082 182.248 339.925L180.841 341.272C180.613 341.487 180.524 341.805 180.606 342.102C180.688 342.397 180.93 342.63 181.24 342.71C181.549 342.787 181.879 342.702 182.105 342.485L183.177 341.455C183.34 341.715 183.511 341.982 183.685 342.25L182.327 343.552C181.977 343.887 181.977 344.43 182.327 344.765C182.676 345.1 183.242 345.1 183.591 344.765L184.669 343.73C184.875 344.032 185.085 344.337 185.298 344.642L183.934 345.95C183.709 346.167 183.621 346.482 183.703 346.777C183.786 347.075 184.027 347.305 184.335 347.385C184.644 347.462 184.973 347.377 185.199 347.162L186.327 346.08C186.518 346.342 186.712 346.602 186.907 346.862L185.571 348.14C185.345 348.357 185.257 348.672 185.34 348.967C185.423 349.265 185.664 349.495 185.972 349.575C186.28 349.652 186.61 349.57 186.835 349.352L187.981 348.255C188.207 348.54 188.433 348.822 188.66 349.097L187.28 350.42C186.931 350.755 186.931 351.297 187.28 351.632C187.629 351.967 188.195 351.967 188.544 351.632L189.794 350.435C190.068 350.747 190.34 351.045 190.608 351.327L189.183 352.695C188.954 352.91 188.863 353.227 188.945 353.525C189.027 353.822 189.27 354.055 189.58 354.132C189.891 354.212 190.222 354.125 190.447 353.905L191.846 352.565C192.176 352.87 192.521 353.16 192.882 353.432L192.844 353.469L194.47 354.332C195.846 354.95 197.309 355.372 198.813 355.582C198.968 356.757 199.304 357.902 199.81 358.98C200.156 359.662 200.603 360.295 201.136 360.857C199.53 360.955 197.723 361.01 196.966 361.01ZM191.865 354.407L192.125 354.158C192.144 354.27 192.163 354.384 192.183 354.498C192.304 355.201 192.422 355.887 192.262 355.847C191.952 355.767 191.709 355.535 191.627 355.237C191.545 354.94 191.635 354.622 191.865 354.407ZM175.772 359.048C175.857 359.125 175.957 359.185 176.067 359.228C176.283 359.32 176.53 359.32 176.746 359.228C176.854 359.185 176.954 359.123 177.041 359.048C177.204 358.883 177.297 358.668 177.3 358.44C177.299 358.385 177.293 358.33 177.282 358.278C177.274 358.22 177.256 358.165 177.229 358.115C177.209 358.06 177.182 358.008 177.148 357.96L177.041 357.833C176.682 357.515 176.13 357.515 175.772 357.833C175.733 357.873 175.697 357.915 175.665 357.96C175.631 358.008 175.604 358.06 175.584 358.115C175.557 358.165 175.539 358.22 175.53 358.278C175.52 358.33 175.514 358.385 175.512 358.44C175.516 358.668 175.608 358.883 175.772 359.048ZM166.573 347.303C166.573 343.518 169.775 340.45 173.724 340.45C177.672 340.453 180.871 343.52 180.876 347.303C180.876 351.088 177.674 354.158 173.724 354.158C169.775 354.158 166.573 351.088 166.573 347.303Z" fill="black"/>
<path d="M203.463 360.647C202.626 359.987 201.936 359.175 201.431 358.255C201.059 357.465 200.797 356.63 200.651 355.772C202.147 355.87 203.831 355.87 205.906 355.87C209.752 355.87 211.703 357.605 212.559 358.715L203.923 360.56C203.772 360.597 203.618 360.627 203.463 360.647Z" fill="#C4C6D0"/>
<path d="M203.17 362.415C201.056 362.647 197.409 362.722 196.967 362.722H162.998V364.437V367.862H200.542C202.885 367.735 205.215 367.455 207.518 367.025L212.579 366.052C212.873 365.905 213.058 365.612 213.057 365.292V360.365L204.375 362.217C204.041 362.3 203.701 362.36 203.358 362.392C203.314 362.407 203.269 362.417 203.223 362.422C203.205 362.422 203.188 362.417 203.17 362.415Z" fill="#C4C6D0"/>
<path d="M173.375 343.065L174.365 345.982H177.566L174.976 347.787L175.965 350.705L173.375 348.902L170.785 350.705L171.775 347.787L169.185 345.982H172.386L173.375 343.065Z" fill="#3A4061"/>
<path fill-rule="evenodd" clip-rule="evenodd" d="M145.405 361.01H111.595C110.838 361.01 109.031 360.955 107.425 360.857C107.958 360.295 108.404 359.662 108.751 358.98C109.258 357.902 109.593 356.757 109.748 355.582C111.252 355.372 112.715 354.95 114.091 354.332L115.997 355.237C116.099 355.337 116.107 355.487 116.114 355.614C116.122 355.769 116.129 355.89 116.299 355.847C116.61 355.767 116.852 355.535 116.934 355.237C117.016 354.94 116.926 354.622 116.696 354.407L115.679 353.432C116.04 353.16 116.385 352.87 116.715 352.565L118.114 353.905C118.339 354.125 118.67 354.212 118.981 354.132C119.291 354.055 119.534 353.822 119.616 353.525C119.698 353.227 119.607 352.91 119.378 352.695L117.954 351.327C118.221 351.045 118.493 350.747 118.767 350.435L120.017 351.632C120.366 351.967 120.932 351.967 121.281 351.632C121.63 351.297 121.63 350.755 121.281 350.42L119.901 349.097C120.128 348.822 120.354 348.54 120.58 348.255L121.726 349.352C121.951 349.57 122.281 349.652 122.589 349.575C122.897 349.495 123.138 349.265 123.221 348.967C123.304 348.672 123.216 348.357 122.99 348.14L121.655 346.862C121.85 346.602 122.043 346.342 122.234 346.08L123.363 347.162C123.588 347.377 123.917 347.462 124.226 347.385C124.534 347.305 124.775 347.075 124.858 346.777C124.941 346.482 124.852 346.167 124.627 345.95L123.263 344.642C123.477 344.337 123.686 344.032 123.892 343.73L124.97 344.765C125.32 345.1 125.885 345.1 126.234 344.765C126.584 344.43 126.584 343.887 126.234 343.552L124.876 342.25C125.05 341.982 125.221 341.715 125.384 341.455L126.456 342.485C126.682 342.702 127.012 342.787 127.321 342.71C127.631 342.63 127.873 342.397 127.955 342.102C128.038 341.805 127.948 341.487 127.72 341.272L126.313 339.925C126.832 339.082 127.277 338.2 127.642 337.287C127.798 336.822 129.7 337.402 130.957 337.787C132.494 338.35 134.116 338.67 135.76 338.735C137.759 338.617 139.75 338.4 141.725 338.08L141.726 338.08L141.726 338.08L141.726 338.08C143.073 337.887 144.682 337.657 145.517 337.63C145.406 338.58 145.112 340.194 144.825 341.771L144.818 341.81C144.31 344.187 143.962 346.595 143.776 349.015C143.776 351.175 144.954 358.345 145.405 361.01ZM132.494 359.228C132.604 359.185 132.704 359.125 132.789 359.048C132.952 358.883 133.045 358.668 133.049 358.44C133.047 358.385 133.041 358.33 133.031 358.278C133.022 358.22 133.004 358.165 132.977 358.115C132.957 358.06 132.93 358.008 132.896 357.96C132.863 357.915 132.828 357.873 132.789 357.833C132.431 357.515 131.878 357.515 131.52 357.833L131.413 357.96C131.379 358.008 131.352 358.06 131.332 358.115C131.305 358.165 131.287 358.22 131.279 358.278C131.268 358.33 131.262 358.385 131.261 358.44C131.264 358.668 131.357 358.883 131.52 359.048C131.607 359.123 131.707 359.185 131.815 359.228C132.031 359.32 132.278 359.32 132.494 359.228ZM138.153 359.048C137.802 359.385 137.234 359.385 136.884 359.048C136.533 358.713 136.533 358.168 136.884 357.833C137.234 357.495 137.802 357.495 138.153 357.833C138.317 357.995 138.41 358.213 138.412 358.44C138.408 358.668 138.316 358.883 138.153 359.048ZM141.988 347.303C141.988 343.518 138.786 340.45 134.836 340.45C130.889 340.453 127.69 343.52 127.685 347.303C127.685 351.088 130.887 354.158 134.836 354.158C138.786 354.158 141.988 351.088 141.988 347.303Z" fill="black"/>
<path d="M105.097 360.647C105.934 359.987 106.625 359.175 107.129 358.255C107.502 357.465 107.764 356.63 107.909 355.772C106.413 355.87 104.729 355.87 102.655 355.87C98.8089 355.87 96.8577 357.605 96.0011 358.715L104.637 360.56C104.788 360.597 104.942 360.627 105.097 360.647Z" fill="#C4C6D0"/>
<path d="M111.594 362.722C111.151 362.722 107.505 362.647 105.39 362.415C105.373 362.417 105.356 362.422 105.338 362.422C105.292 362.417 105.247 362.407 105.202 362.392C104.859 362.36 104.519 362.3 104.186 362.217L95.5035 360.365V365.292C95.503 365.612 95.6872 365.905 95.9815 366.052L101.042 367.025C103.345 367.455 105.676 367.735 108.018 367.862H145.562C145.562 364.437 145.562 367.025 145.562 364.437V362.722H111.594Z" fill="#C4C6D0"/>
<path d="M132.741 343.065L131.751 345.982H128.55L131.14 347.787L130.151 350.705L132.741 348.902L135.331 350.705L134.342 347.787L136.932 345.982H133.73L132.741 343.065Z" fill="#3A4061"/>
<path d="M110.831 237.405L149.102 240.131L151.705 285.328L149.102 301.078V317.578L147.455 357.328L137.08 363.453L112.705 354.578L118.705 341.578L112.705 323.828L110.831 282.828V237.405Z" fill="#303539"/>
<path d="M150.302 239.684L189.507 241.016L192.955 274.828V280.828V311.077L191.455 332.327L192.955 345.327V357.577L181.955 361.077L161.455 357.577L158.682 319.077L154.492 285.102L150.302 239.684Z" fill="#303539"/>
<rect x="137.332" y="243.242" width="27.4995" height="30.5265" fill="#303539"/>
<path d="M156.385 120.376V120.616H134.431V120.376H156.385Z" fill="black"/>
<path d="M103.194 238.669C104.93 237.59 106.584 238.339 107.57 240.199C108.244 241.471 108.743 243.403 109.129 246.013L109.173 246.317C109.768 250.507 110.075 256.253 110.201 263.879L110.227 265.619C110.246 267.054 110.258 268.466 110.267 270.288L110.302 279.221L110.306 279.849L107.306 279.872L107.288 276.259L107.262 269.368C107.252 267.771 107.239 266.475 107.219 265.107L107.197 263.658C107.067 256.105 106.754 250.455 106.162 246.452C105.821 244.154 105.394 242.501 104.919 241.604C104.854 241.481 104.792 241.38 104.734 241.3L104.706 241.262L104.687 241.274C103.287 242.181 102.377 243.633 101.829 245.737L101.795 245.872L101.746 246.074C101.339 247.799 101.179 249.737 101.123 252.784L101.105 254.072L101.084 255.876C101.071 256.756 101.056 257.373 101.031 257.983L101.008 258.499L98.0113 258.348L98.0309 257.926C98.0577 257.297 98.073 256.663 98.0862 255.711L98.1144 253.292L98.1204 252.9C98.1777 249.482 98.356 247.316 98.8555 245.262L98.8842 245.146C99.6131 242.225 100.975 240.048 103.194 238.669Z" fill="#797979"/>
<path d="M191.799 168.212C195.553 165.752 200.589 166.802 203.048 170.555C208.129 178.309 211.179 190.442 212.399 204.754C213.452 217.099 212.976 230.033 211.159 238.738C210.242 243.131 205.938 245.949 201.545 245.032C197.153 244.115 194.335 239.811 195.252 235.419C196.716 228.402 197.135 217.011 196.208 206.134C195.207 194.394 192.777 184.651 189.554 179.612L189.456 179.461C186.997 175.707 188.046 170.671 191.799 168.212Z" fill="#EBBAAA"/>
<path d="M119.428 150.13C122.437 146.801 127.575 146.542 130.904 149.551C134.232 152.56 134.491 157.698 131.482 161.027C104.716 190.637 98.098 212.302 110.102 238.717C111.958 242.802 110.151 247.619 106.066 249.475C101.981 251.332 97.1641 249.525 95.3076 245.44C87.3775 227.99 86.0777 211.495 91.0804 195.117C95.5128 180.606 104.727 166.393 119.428 150.13Z" fill="#EBBAAA"/>
<path fill-rule="evenodd" clip-rule="evenodd" d="M135.879 140.783C116.622 140.783 102.267 158.538 106.299 177.368L110.332 196.196C110.778 198.279 111.003 200.402 111.003 202.532L111.002 253.443C111.002 255.012 112.42 256.213 113.973 255.987C121.42 254.906 141.947 252.658 165.002 256.468C185.302 259.822 189.432 258.48 190.083 257.373C190.282 257.035 190.205 256.628 190.127 256.217C190.081 255.974 190.035 255.731 190.045 255.5L192.793 192.856L204.455 178.828L193.154 165.16C190.429 151.322 178.226 140.783 163.471 140.783H135.879Z" fill="#191919"/>
<path opacity="0.1" fill-rule="evenodd" clip-rule="evenodd" d="M145.875 208.5C135.33 208.5 126.75 199.92 126.75 189.375C126.75 178.83 135.33 170.25 145.875 170.25C156.422 170.25 165 178.83 165 189.375C165 199.92 156.422 208.5 145.875 208.5ZM145.304 186.727L145.368 186.699L145.381 186.717C145.432 186.795 145.494 186.897 145.565 187.02L145.633 187.142C145.829 187.496 146.081 187.989 146.386 188.619L146.479 188.813L146.466 188.817C143.275 189.924 140.443 191.756 137.97 194.094L137.794 194.263C136.335 195.666 135.15 197.099 134.238 198.422L134.106 198.616L134.003 198.484C132.058 195.951 130.952 192.868 130.879 189.617L130.877 189.524L131.877 189.41C138.516 188.639 142.983 187.749 145.304 186.727ZM148.574 192.5C150.551 197.769 151.453 202.209 151.75 203.881C149.969 204.603 148.027 205 145.992 205C142.53 205 139.331 203.849 136.75 201.908C137.486 200.558 140.759 195.332 148.574 192.5ZM155.109 202C154.8 200.368 153.956 196.419 152.25 191.681C156.418 191.126 160.082 191.993 161.25 192.318C160.517 196.271 158.263 199.706 155.109 202ZM130.75 185.75C132.497 185.737 138.131 185.562 144.5 183.952C142.19 179.943 139.784 176.555 139.02 175.5C134.929 177.518 131.849 181.255 130.75 185.75ZM148.27 182.75C146.061 178.738 143.696 175.362 142.75 174.056C143.751 173.856 144.786 173.75 145.845 173.75C149.711 173.75 153.257 175.152 156 177.475C155.287 178.368 152.946 180.923 148.27 182.75ZM151.108 188.295C155.607 187.784 160.008 188.474 161.5 188.75C161.367 185.467 160.203 182.446 158.323 180C157.428 181.065 154.823 183.766 150 185.815C150.306 186.453 150.601 187.1 150.879 187.75C150.957 187.932 151.034 188.114 151.108 188.295Z" fill="white"/>
<mask id="mask0_0_2393" style="mask-type:luminance" maskUnits="userSpaceOnUse" x="103" y="139" width="80" height="39">
<path fill-rule="evenodd" clip-rule="evenodd" d="M104.044 171.524C101.119 155.412 113.329 140.518 129.702 140.226L158.752 139.707C159.563 139.693 160.372 139.775 161.163 139.952C164.05 140.599 166.513 142.467 167.915 145.072L182.114 171.468C182.842 172.822 182.184 174.485 180.699 174.888C174.224 176.642 157.729 180.063 144.002 174.049C130.015 167.921 113.152 171.589 106.947 173.308C105.647 173.668 104.284 172.85 104.044 171.524Z" fill="white"/>
</mask>
<g mask="url(#mask0_0_2393)">
<path d="M164.054 142.259C164.054 148.876 155.526 154.241 145.006 154.241C134.485 154.241 125.957 148.876 125.957 142.259C125.957 141.406 128.912 141.543 129.181 140.741C131.001 135.316 135.841 130.277 145.006 130.277C155.526 130.277 164.054 135.642 164.054 142.259Z" fill="#EBBAAA"/>
</g>
<rect x="133.897" y="123.626" width="22.9339" height="26.836" fill="#EBBAAA"/>
<path d="M89.7646 179.097L93.162 172.375L98.889 167.367L120.283 183.416C120.283 183.416 112.252 188.902 109.968 192.236C106.285 197.614 108.765 195.464 107.538 199.561C106.312 203.659 105.617 210.452 105.617 210.452C104.049 212.297 101.242 212.56 98.889 213.107C96.5363 213.653 92.2754 213.593 85.7068 213.593C85.3265 207.379 84.0454 202.404 85.3265 194.587C86.7978 185.61 89.7646 179.097 89.7646 179.097Z" fill="black"/>
<path d="M208.99 179.456H207.125L208.99 176.836L202.936 172.353L178.734 186.272C178.734 186.272 188.089 188.206 190.503 191.191C192.235 193.332 193.621 200.57 194.087 203.338C194.079 203.32 194.104 203.5 194.173 203.944C194.31 204.824 194.27 204.427 194.087 203.338C194.134 203.443 195.381 210.727 195.381 210.727C197.69 212.593 201.594 213.879 207.948 214.297C214.301 214.714 214.548 211.65 214.548 211.65C214.548 211.65 215.737 202.308 214.547 197.375C213.357 192.441 212.627 187.935 211.127 184.053C209.627 180.171 208.99 179.456 208.99 179.456Z" fill="black"/>
<path d="M155.455 150.578L161.705 145.078V140.328C161.705 140.328 170.643 140.578 176.955 141.828C183.267 143.078 192.462 153.328 192.462 153.328C192.462 153.328 192.858 184.75 192.858 200.535C192.858 219.041 192.462 256.202 192.462 256.202C192.462 256.202 188.521 259.431 182.017 259.431C175.513 259.431 161.705 258.597 161.705 258.597L155.455 150.578Z" fill="#5C625B"/>
<path d="M157.703 150.521L163.953 258.54L161.956 258.655L155.706 150.636L157.703 150.521Z" fill="#6C726B"/>
<path d="M215.955 180.578L192.462 153.328L184.705 169.078L189.205 198.328L215.955 180.578Z" fill="#5C625B"/>
<path d="M159.83 142.956C160.373 141.935 159.304 139.5 159.304 139.5C159.304 139.5 161.539 139.557 162.606 139.706C163.518 139.833 165.24 140.328 165.24 140.328C166.4 140.783 166.837 141.966 166.837 144.966C166.837 147.966 162.606 149.079 160.368 160.314L154.205 149.078C154.205 149.078 159.286 143.977 159.83 142.956Z" fill="#6C7A6A"/>
<path d="M144.488 149.782L130.955 147.829L128.705 140.328C128.705 140.328 129.358 141.034 123.046 142.284C116.733 143.534 107.539 153.784 107.539 153.784V256.658C107.539 256.658 111.479 259.886 117.983 259.886C124.488 259.886 136.955 267.078 136.955 267.078C136.955 267.078 135.955 205.973 136.955 188.223C137.955 170.473 144.488 149.782 144.488 149.782Z" fill="#5C625B"/>
<path d="M110.795 198.784L84.0454 181.034C84.0454 181.034 87.6934 173.651 96.8826 161.739C106.072 149.827 119.749 143.531 119.749 143.531L115.295 169.534L110.795 198.784Z" fill="#5C625B"/>
<path d="M132.964 143.951C132.54 142.577 133.897 140.05 133.897 140.05C133.897 140.05 130.471 139.741 128.895 140.05C127.843 140.256 126.013 141.596 126.013 141.596C125.056 143.025 124.498 144.358 125.455 148.469C126.412 152.58 132.964 153.131 137.638 161.739L144.508 149.724C144.508 149.724 140.033 148.599 137.638 147.595C135.243 146.59 133.389 145.326 132.964 143.951Z" fill="#6C7A6A"/>
<path d="M164.995 171.149L184.388 170.267L184.406 188.101L167.251 187.906L164.995 171.149Z" fill="#6C7A6A"/>
<path d="M89.9977 254.604C89.9977 254.604 98.1888 257.684 101.552 257.684C104.915 257.684 121.417 257.684 121.417 257.684L116.132 338.995H112.333L96.6174 325.985L89.9977 254.604Z" fill="#4F4F4F"/>
<path d="M89.7051 254.578C89.7051 254.578 98.6819 259.141 105.024 259.594C111.366 260.047 117.549 257.684 117.549 257.684C117.549 257.684 112.264 294.077 112.264 303.577C112.264 313.077 112.264 338.995 112.264 338.995L92.7491 325.985C92.7491 325.985 90.1925 319.712 87.2045 303.577C84.7044 290.077 89.7051 254.578 89.7051 254.578Z" fill="#797979"/>
<path d="M100.366 238.54C102.829 237.607 104.966 238.53 106.44 240.875C107.586 242.698 108.405 245.431 108.99 249.059C109.598 252.827 109.944 257.465 110.115 263.225L110.158 264.827C110.221 267.449 110.244 269.739 110.267 274.217L110.296 278.976L110.306 279.842L107.306 279.88L107.293 278.596C107.286 277.836 107.281 276.966 107.274 275.74L107.251 271.489C107.23 268.409 107.201 266.513 107.142 264.222L107.125 263.62C106.964 257.936 106.633 253.377 106.059 249.728L106.028 249.537C105.502 246.273 104.785 243.878 103.901 242.472C103.152 241.282 102.475 240.972 101.49 241.323L101.429 241.345L100.366 238.54Z" fill="#797979"/>
<path d="M180.869 72.9935C180.153 58.997 166.209 43.3586 143.319 43.3588C128.834 43.3588 114.347 56.9977 112.558 70.0852C110.77 83.1727 110.771 105.712 113.81 117.346C116.783 128.726 134.154 140.816 138.625 141.544C143.097 142.271 151.05 142.95 155.679 141.544C160.308 140.137 176.623 130.508 179.163 117.346C181.703 104.184 181.584 86.99 180.869 72.9935Z" fill="#F4D6CD"/>
<path d="M125.095 72.1226C126.927 71.7956 131.362 72.6361 139.117 74.6542C140.16 74.9257 140.786 75.9915 140.514 77.0347C140.243 78.078 139.177 78.7036 138.134 78.4321L137.105 78.1666C130.713 76.5321 126.733 75.7956 125.78 75.9657C124.689 76.1604 123.216 76.8764 121.419 78.1398C120.538 78.7599 119.32 78.5476 118.7 77.6658C118.08 76.784 118.292 75.5665 119.174 74.9464C121.396 73.3839 123.351 72.4339 125.095 72.1226Z" fill="#6F6C6C"/>
<path d="M152.306 75.3145L153.315 75.1046C161.245 73.4651 165.879 72.7724 167.718 73.0182C169.61 73.2713 171.713 74.1266 174.062 75.5581C174.983 76.1191 175.275 77.3201 174.714 78.2406C174.153 79.1612 172.952 79.4527 172.031 78.8917C170.106 77.7188 168.484 77.0593 167.2 76.8876C165.938 76.7188 161.053 77.4712 153.107 79.1353C152.052 79.3563 151.017 78.6801 150.796 77.625C150.575 76.5699 151.251 75.5354 152.306 75.3145Z" fill="#6F6C6C"/>
<path d="M143.435 84L147.673 84.4195L147.656 84.5783C147.566 85.3878 147.376 86.4384 147.063 87.929L146.847 88.9358C146.554 90.2791 146.018 92.7048 145.899 93.2535L145.748 93.9546C145.554 94.8663 145.384 95.6899 145.229 96.4809L145.15 96.8911C144.473 100.414 144.136 103.105 144.182 105.04C144.204 105.967 144.317 106.645 144.476 107.022L144.493 107.06L150.964 107.06V111.319H144.328C142.712 111.319 141.434 110.452 140.712 109.021C140.196 107.997 139.962 106.714 139.925 105.14C139.868 102.743 140.265 99.6694 141.05 95.6619L141.173 95.0438C141.299 94.4184 141.434 93.7682 141.583 93.069L141.872 91.7349C142.121 90.6028 142.591 88.472 142.785 87.5738L142.921 86.9351C143.19 85.6445 143.352 84.741 143.422 84.1237L143.435 84Z" fill="#EBBAAA"/>
<path d="M141.217 37.3175C141.084 35.4239 143.692 31.799 155.188 32.4483C169.558 33.2599 186.723 50.3015 189.517 61.2568C186.189 62.079 190.219 64.8365 191.034 67.6828C192.504 72.8133 192.462 78.9677 192.462 84.1872C192.462 102.04 184.672 107.53 183.789 109.454C182.063 113.215 180.086 110.41 180.439 107.232C180.793 104.054 181.546 100.442 181.546 100.442C181.63 99.8007 181.778 93.8135 181.142 85.8395C180.59 78.9028 181.106 75.8485 180.388 75.1668C180.388 75.1668 170.896 71.5802 161.676 64.1191C152.456 56.658 147.111 48.7227 144.488 45.5332C141.864 42.3438 141.35 39.211 141.217 37.3175Z" fill="black"/>
<path d="M163.436 59.9442C158.286 57.1181 147.848 46.9769 144.921 44.272C148.913 44.272 164.768 41.7805 172.353 55.5761C179.937 69.3717 190.316 77.8925 183.929 76.6752C178.819 75.7015 168.585 62.7705 163.436 59.9442Z" fill="black"/>
<path fill-rule="evenodd" clip-rule="evenodd" d="M180.439 107.232C180.783 100.308 181.142 93.7002 181.142 85.394C185.317 87.315 188.114 91.493 188.114 96.3295C188.114 100.477 184.537 104.688 180.439 107.232Z" fill="#EBBAAA"/>
<path fill-rule="evenodd" clip-rule="evenodd" d="M112.13 107.174C111.619 101.052 111.599 93.5113 111.834 85.4008C107.659 87.3218 104.766 91.493 104.766 96.3295C104.766 100.477 108.032 104.631 112.13 107.174Z" fill="#EBBAAA"/>
<path d="M134.195 33.1182C144.165 32.469 146.427 36.0938 146.312 37.9874C157.194 46.9108 149.041 48.8479 144.921 50.7691C140.801 52.6902 135.283 53.1152 127.926 58.1185C120.568 63.1217 112.574 73.7628 112.13 80.8472C111.687 87.9317 113.238 113.834 112.13 108.965C110.746 102.879 109.55 96.1902 108.231 93.5752C105.249 87.6642 105.249 99.5174 103.607 90.0359C102.737 85.0111 100.509 73.4832 101.783 68.3525C102.49 65.5065 105.985 62.749 103.099 61.9267C105.522 50.9714 121.733 33.9298 134.195 33.1182Z" fill="black"/>
<path d="M128.124 84.4765C130.725 84.2497 133.381 84.6869 135.907 85.923C136.875 86.3969 137.276 87.566 136.802 88.5342C136.328 89.5025 135.159 89.9033 134.191 89.4294C132.33 88.5186 130.383 88.1981 128.463 88.3655C127.045 88.4891 125.73 88.8834 124.922 89.3258L124.845 89.3687C123.911 89.9057 122.717 89.5833 122.181 88.6485C121.644 87.7138 121.966 86.5207 122.901 85.9837C124.2 85.2373 126.103 84.6527 128.124 84.4765Z" fill="black"/>
<path d="M162.438 84.4765C165.039 84.2497 167.695 84.6869 170.221 85.923C171.189 86.3969 171.59 87.566 171.116 88.5342C170.642 89.5025 169.473 89.9033 168.505 89.4294C166.644 88.5186 164.697 88.1981 162.777 88.3655C161.359 88.4891 160.044 88.8834 159.236 89.3257L159.16 89.3687C158.225 89.9057 157.032 89.5833 156.495 88.6486C155.958 87.7139 156.28 86.5208 157.215 85.9838C158.514 85.2373 160.417 84.6527 162.438 84.4765Z" fill="black"/>
<path fill-rule="evenodd" clip-rule="evenodd" d="M131.701 116.582V119.611C131.701 124.273 138.399 128.052 146.658 128.052C154.92 128.052 161.616 124.273 161.616 119.611V116.582H131.701Z" fill="#393939"/>
<mask id="mask1_0_2393" style="mask-type:luminance" maskUnits="userSpaceOnUse" x="131" y="116" width="31" height="13">
<path fill-rule="evenodd" clip-rule="evenodd" d="M131.725 116.579C131.709 116.735 131.701 116.893 131.701 117.051V120.001C131.701 124.448 138.399 128.052 146.658 128.052C154.92 128.052 161.616 124.448 161.616 120.001V117.051C161.616 116.893 161.608 116.735 161.591 116.579H131.725Z" fill="white"/>
</mask>
<g mask="url(#mask1_0_2393)">
<path d="M146.658 130.758C151.64 130.758 155.679 129.518 155.679 127.987C155.679 126.457 151.64 125.217 146.658 125.217C141.677 125.217 137.638 126.457 137.638 127.987C137.638 129.518 141.677 130.758 146.658 130.758Z" fill="#FF6C6C"/>
</g>
<rect x="131.701" y="116.582" width="29.916" height="3.4794" fill="white"/>
</svg>
