<svg width="300" height="400" viewBox="0 0 300 400" fill="none" xmlns="http://www.w3.org/2000/svg">
<path d="M165.304 282.827C170.784 281.693 176.146 285.217 177.28 290.697C180.663 307.048 180.695 333.497 177.34 352.727C176.378 358.24 171.129 361.93 165.615 360.968C160.102 360.006 156.412 354.757 157.374 349.244C160.306 332.438 160.277 308.55 157.433 294.803C156.3 289.323 159.823 283.961 165.304 282.827Z" fill="#1B2334"/>
<path d="M118.532 277.811C118.99 272.233 123.882 268.083 129.46 268.54C135.038 268.998 139.189 273.891 138.731 279.469C136.866 302.191 138.697 331.708 142.412 350.708C143.486 356.201 139.904 361.524 134.411 362.598C128.918 363.672 123.595 360.09 122.521 354.597C118.458 333.812 116.511 302.432 118.532 277.811Z" fill="#1B2334"/>
<path d="M108.972 254.524H149.243L145.826 306.003L103.775 302.855L108.972 254.524Z" fill="#1A2336"/>
<path d="M103.49 303.078L104.003 297.433L146.589 300.513L146.076 306.155L103.49 303.078Z" fill="#2E3748"/>
<path d="M148.478 281.524C164.967 281.524 178.333 275.193 178.333 267.383C178.333 259.573 164.967 253.241 148.478 253.241C131.99 253.241 118.624 259.573 118.624 267.383C118.624 275.193 131.99 281.524 148.478 281.524Z" fill="#1A2336"/>
<path d="M147.141 254.524H188.024L192.602 300.885L154.12 304.565L147.141 254.524Z" fill="#1A2336"/>
<path d="M193.024 302.82L192.511 297.178L153.26 300.255L153.773 305.9L193.024 302.82Z" fill="#2E3748"/>
<path d="M95.9093 366.173C95.8378 360.065 96.7648 361.673 102.066 359.163C107.368 356.65 112.355 351.838 121.527 347.695C121.527 347.695 122.736 347.465 124.707 348.523C126.389 349.425 128.553 351.648 131.803 351.61C135.333 351.568 138.476 350.81 140.427 349.78C141.264 347.465 143.137 347.443 143.137 347.443C143.137 347.443 145.789 352.455 145.848 357.495C145.907 362.538 145.874 366.023 145.874 366.023L95.9093 366.173Z" fill="#DCE1E6"/>
<path d="M131.888 351.918C135.271 353.344 137.795 355.344 139.567 357.77C140.85 359.526 141.67 361.407 142.119 363.296C142.28 363.972 142.382 364.606 142.437 365.184C142.453 365.353 142.464 365.509 142.471 365.652L142.476 365.757C142.479 365.834 142.48 365.9 142.481 365.954L142.481 366.042L141.951 366.029L141.951 365.935C141.949 365.768 141.938 365.531 141.909 365.234C141.857 364.679 141.758 364.07 141.604 363.419C141.17 361.595 140.378 359.779 139.139 358.083C137.455 355.777 135.067 353.867 131.864 352.484L131.682 352.407L131.888 351.918Z" fill="#D0D4D8"/>
<path d="M127.749 351.445L127.854 351.965C122.502 353.042 118.907 355.46 116.749 358.814C115.762 360.348 115.136 361.992 114.8 363.649C114.677 364.254 114.601 364.826 114.562 365.354C114.539 365.675 114.532 365.94 114.535 366.138L114.537 366.237L114.008 366.263L114.006 366.209L114.004 366.081C114.003 365.876 114.012 365.619 114.034 365.315C114.074 364.766 114.153 364.171 114.281 363.544C114.629 361.825 115.279 360.121 116.304 358.527C118.515 355.09 122.175 352.607 127.565 351.483L127.749 351.445Z" fill="#D0D4D8"/>
<path d="M128.606 351.367C128.617 355.106 127.176 357.885 124.498 359.781C122.249 361.373 119.195 362.299 115.538 362.668C112.243 363.001 108.721 362.865 105.315 362.436C104.659 362.353 104.056 362.265 103.516 362.177L103.356 362.15C103.187 362.122 103.034 362.095 102.899 362.071L102.63 362.02L102.735 361.5L102.917 361.535L103.162 361.579C103.22 361.59 103.282 361.6 103.346 361.611L103.444 361.628C104.017 361.724 104.667 361.82 105.381 361.91C108.751 362.334 112.235 362.469 115.485 362.141C123.323 361.349 128.001 358.084 128.075 351.567L128.076 351.368L128.606 351.367Z" fill="#D0D4D8"/>
<path d="M134.187 354.087L134.198 357.812L128.899 357.828L128.888 354.103L134.187 354.087Z" fill="#D0D4D8"/>
<path d="M119.724 347.813C120.085 347.651 120.509 347.813 120.671 348.174C121.197 349.346 121.316 350.454 121.322 352.353C121.324 352.857 120.821 353.2 120.357 353.028L120.318 353.012L116.797 351.472L117.556 354.192C117.705 354.729 117.215 355.218 116.686 355.08L116.647 355.068L113.115 353.94L113.124 357.133C113.126 357.662 112.576 358.006 112.105 357.786L112.067 357.767L109.664 356.474L109.672 358.87C109.673 359.252 109.375 359.565 108.999 359.588L108.957 359.59C108.575 359.591 108.262 359.293 108.239 358.917L108.237 358.875L108.227 355.275C108.225 354.746 108.775 354.402 109.245 354.622L109.283 354.641L111.686 355.933L111.677 352.96C111.676 352.488 112.121 352.148 112.57 352.262L112.613 352.274L115.817 353.297L115.009 350.403C114.85 349.834 115.407 349.334 115.949 349.538L115.987 349.553L119.864 351.248L119.862 351.208C119.813 350.213 119.684 349.51 119.396 348.838L119.363 348.761C119.201 348.399 119.362 347.975 119.724 347.813Z" fill="black"/>
<path d="M98.0984 359.383C99.7255 358.785 101.449 358.333 104.754 357.575L103.361 361.625L103.415 366.235L94.0016 366.345C93.6174 366.35 92.9294 365.84 93.2509 363.76C93.6527 361.163 95.7864 360.228 98.0984 359.383Z" fill="#EAF4FB"/>
<path d="M145.941 366.023L138.49 366.045L138.501 369.778C138.503 370.508 139.098 371.1 139.829 371.098L144.632 371.083C145.363 371.08 145.954 370.485 145.952 369.755L145.941 366.023Z" fill="#C6CBCF"/>
<path d="M138.224 366.045L130.772 366.068L130.783 369.8C130.785 370.53 131.38 371.123 132.112 371.12L136.914 371.105C137.646 371.103 138.237 370.51 138.235 369.778L138.224 366.045Z" fill="#C6CBCF"/>
<path d="M130.506 366.07L123.054 366.093L123.065 369.823C123.068 370.555 123.662 371.145 124.394 371.143L129.196 371.13C129.928 371.128 130.519 370.533 130.517 369.8L130.506 366.07Z" fill="#C6CBCF"/>
<path d="M122.788 366.093L115.337 366.115L115.348 369.845C115.35 370.578 115.945 371.17 116.677 371.168L121.479 371.153C122.21 371.15 122.802 370.555 122.799 369.825L122.788 366.093Z" fill="#C6CBCF"/>
<path d="M115.07 366.115L107.619 366.138L107.63 369.87C107.632 370.6 108.227 371.193 108.959 371.19L113.761 371.175C114.492 371.173 115.084 370.578 115.082 369.848L115.07 366.115Z" fill="#C6CBCF"/>
<path d="M107.352 366.138L99.9009 366.16L99.912 369.893C99.9142 370.625 100.509 371.215 101.241 371.213L106.043 371.2C106.774 371.198 107.366 370.603 107.364 369.87L107.352 366.138Z" fill="#C6CBCF"/>
<path d="M99.635 366.163L93.514 366.18L93.5252 369.913C93.5274 370.643 94.1222 371.235 94.8538 371.233L98.3254 371.223C99.057 371.22 99.6483 370.625 99.6461 369.893L99.635 366.163Z" fill="#C6CBCF"/>
<path d="M126.721 360.438C125.474 360.848 124.452 360.855 123.851 360.448C122.303 359.385 123.164 357.593 123.533 356.89C122.849 357.763 122.17 358.638 121.654 359.583C120.839 361.058 120.543 362.643 121.196 363.615C122.367 365.37 124.91 364.398 126.52 363.583L141.465 356.018L126.721 360.438Z" fill="black"/>
<path d="M203.376 366.205C203.429 360.125 202.511 361.728 197.226 359.245C191.94 356.76 186.962 351.983 177.818 347.888C177.818 347.888 176.614 347.66 174.655 348.72C172.983 349.625 170.835 351.843 167.6 351.815C164.086 351.783 160.954 351.038 159.009 350.018C158.169 347.715 156.304 347.7 156.304 347.7C156.304 347.7 153.679 352.698 153.635 357.718C153.591 362.735 153.635 366.205 153.635 366.205H203.376Z" fill="#DCE1E6"/>
<path d="M166.131 352.449L166.338 352.936C163.147 354.293 160.887 356.136 159.423 358.343C157.727 360.902 157.271 363.58 157.495 365.823L157.51 365.959C157.512 365.98 157.515 366 157.517 366.02L157.536 366.148L157.538 366.158L157.016 366.253L157.002 366.164C156.991 366.092 156.979 365.996 156.967 365.876C156.732 363.521 157.209 360.725 158.982 358.05C160.476 355.797 162.761 353.915 165.952 352.525L166.131 352.449Z" fill="#D0D4D8"/>
<path d="M171.635 351.638C177.118 352.724 180.832 355.212 183.067 358.678C184.089 360.264 184.737 361.96 185.086 363.67C185.213 364.292 185.292 364.882 185.333 365.426C185.355 365.725 185.364 365.978 185.363 366.177L185.36 366.35L184.831 366.326L184.832 366.289C184.837 366.092 184.83 365.813 184.804 365.465C184.765 364.943 184.689 364.376 184.567 363.775C184.231 362.127 183.605 360.492 182.621 358.966C180.49 355.659 176.957 353.271 171.713 352.194L171.532 352.157L171.635 351.638Z" fill="#D0D4D8"/>
<path d="M170.606 352.03C170.606 358.639 175.409 361.848 183.501 362.48C186.721 362.731 190.175 362.545 193.546 362.081L193.981 362.02C194.551 361.937 195.083 361.851 195.57 361.764L195.751 361.732C195.866 361.711 195.973 361.691 196.074 361.672L196.5 361.587L196.564 361.574L196.677 362.091L196.459 362.136L196.174 362.192C196.071 362.212 195.962 362.232 195.846 362.253L195.476 362.319C194.909 362.417 194.287 362.514 193.618 362.606C190.212 363.075 186.722 363.263 183.46 363.008C179.723 362.716 176.602 361.859 174.3 360.321C171.594 358.514 170.115 355.824 170.077 352.176L170.076 352.03H170.606Z" fill="#D0D4D8"/>
<path d="M170.524 354.283V357.993H165.225V354.283H170.524Z" fill="#D0D4D8"/>
<path d="M178.669 348.359C178.829 347.997 179.253 347.834 179.615 347.995C179.977 348.155 180.14 348.579 179.979 348.941C179.825 349.289 179.709 349.686 179.627 350.128C179.552 350.533 179.511 350.904 179.489 351.355L179.486 351.414L183.337 349.716C183.878 349.478 184.452 349.958 184.328 350.524L184.318 350.563L183.524 353.442L186.705 352.415C187.155 352.27 187.614 352.59 187.642 353.054L187.643 353.098L187.643 356.053L190.026 354.762C190.492 354.51 191.055 354.831 191.084 355.35L191.085 355.393V358.978C191.085 359.374 190.764 359.695 190.368 359.695C189.986 359.695 189.674 359.396 189.652 359.02L189.651 358.978L189.651 356.597L187.267 357.888C186.802 358.14 186.239 357.819 186.21 357.3L186.209 357.258L186.209 354.082L182.699 355.215C182.169 355.386 181.661 354.915 181.778 354.381L181.788 354.342L182.534 351.638L179.04 353.179C178.579 353.382 178.063 353.059 178.034 352.565L178.033 352.523L178.034 352.26C178.039 351.243 178.078 350.618 178.217 349.867C178.318 349.321 178.465 348.818 178.669 348.359Z" fill="black"/>
<path d="M201.177 359.45C199.555 358.863 197.838 358.418 194.546 357.673L195.945 361.7L195.905 366.29L205.276 366.37C205.659 366.375 206.342 365.865 206.016 363.795C205.608 361.21 203.481 360.285 201.177 359.45Z" fill="#EAF4FB"/>
<path d="M153.568 366.205H160.986V369.915C160.986 370.645 160.393 371.24 159.661 371.24H154.892C154.161 371.24 153.568 370.645 153.568 369.915V366.205Z" fill="#C6CBCF"/>
<path d="M161.251 366.205H168.669V369.915C168.669 370.645 168.076 371.238 167.344 371.238H162.576C161.844 371.238 161.251 370.645 161.251 369.915V366.205Z" fill="#C6CBCF"/>
<path d="M168.934 366.205H176.353V369.915C176.353 370.645 175.76 371.238 175.028 371.238H170.259C169.527 371.238 168.934 370.645 168.934 369.915V366.205Z" fill="#C6CBCF"/>
<path d="M176.618 366.205H184.036V369.915C184.036 370.645 183.443 371.24 182.711 371.24H177.942C177.211 371.24 176.618 370.645 176.618 369.915V366.205Z" fill="#C6CBCF"/>
<path d="M184.3 366.205H191.719V369.915C191.719 370.645 191.126 371.24 190.394 371.24H185.625C184.894 371.24 184.3 370.645 184.3 369.915V366.205Z" fill="#C6CBCF"/>
<path d="M191.984 366.205H199.402V369.915C199.402 370.645 198.809 371.24 198.077 371.24H193.309C192.577 371.24 191.984 370.645 191.984 369.915V366.205Z" fill="#C6CBCF"/>
<path d="M199.667 366.205H205.761V369.915C205.761 370.645 205.168 371.24 204.436 371.24H200.992C200.26 371.24 199.667 370.645 199.667 369.915V366.205Z" fill="#C6CBCF"/>
<path d="M172.949 360.89C174.196 361.3 175.218 361.308 175.819 360.9C177.367 359.835 176.505 358.045 176.137 357.343C176.821 358.215 177.5 359.09 178.016 360.035C178.831 361.508 179.127 363.093 178.474 364.065C177.303 365.823 174.76 364.85 173.149 364.035L158.205 356.47L172.949 360.89Z" fill="black"/>
<path d="M178.53 175.201C183.234 172.438 189.286 174.011 192.049 178.715C204.972 200.718 211.88 226.954 211.88 253.498C211.88 258.953 207.458 263.375 202.003 263.375C196.548 263.375 192.126 258.953 192.126 253.498C192.126 230.418 186.128 207.641 175.015 188.719C172.253 184.016 173.826 177.963 178.53 175.201Z" fill="#EBBAAA"/>
<path d="M105.513 172.558C108.275 167.854 114.328 166.281 119.031 169.043C123.735 171.806 125.309 177.859 122.546 182.562C111.433 201.483 105.435 224.261 105.435 247.341C105.435 252.796 101.013 257.218 95.5581 257.218C90.1031 257.218 85.681 252.796 85.681 247.341C85.681 220.797 92.5895 194.561 105.513 172.558Z" fill="#EBBAAA"/>
<path d="M107.447 154.747C117.676 143.65 135.458 144.526 144.547 156.575C152.124 166.621 150.735 180.797 141.352 189.181L112.726 214.76C112.726 214.76 102.72 212.964 96.0496 210.142C89.3789 207.32 82.196 202.702 82.196 202.702L97.3646 168.628C99.0421 164.859 101.324 161.39 104.119 158.357L107.447 154.747Z" fill="#6A88C8"/>
<path d="M188.294 155.017C178.065 143.919 160.283 144.795 151.195 156.845C143.618 166.89 145.007 181.067 154.389 189.451L183.016 215.029C183.016 215.029 193.021 213.233 199.692 210.411C206.363 207.589 213.546 202.971 213.546 202.971L198.377 168.897C196.699 165.129 194.418 161.66 191.622 158.627L188.294 155.017Z" fill="#6A88C8"/>
<path d="M110.6 174.804C110.97 159.383 123.437 146.997 138.861 146.728L158.014 146.394C173.766 146.119 186.81 158.564 187.275 174.311L186.45 211.572L189.398 259.242C189.398 259.242 162.429 260.668 147.549 260.68C132.67 260.691 107.341 258.926 107.341 258.926L108.663 236.16L109.647 216.839L110.6 174.804Z" fill="#6A88C8"/>
<path d="M116.06 209.115C116.06 203.856 110.159 200.906 110.159 200.906L109.526 219.355C109.526 219.355 116.06 224.893 116.06 228.613V209.115Z" fill="#1A2336"/>
<path d="M112.982 187.309C111.443 178.843 107.851 179.1 107.851 179.1C107.851 179.1 100.744 190.75 100.744 211.787C103.694 213.069 110.802 214.503 114.521 214.888C114.521 205.652 114.521 195.775 112.982 187.309Z" fill="#1A2336"/>
<path d="M113.751 238.875C113.751 233.615 108.877 230.922 108.877 230.922L107.851 249.778C107.851 249.778 113.751 254.652 113.751 258.372V238.875Z" fill="#1A2336"/>
<path d="M132.348 158.759L133.124 161.472C126.558 163.348 112.427 175.589 109.741 181.499L109.663 181.676L107.065 180.574C109.852 174.008 124.605 161.146 132.123 158.826L132.348 158.759Z" fill="#1A2336"/>
<path d="M108.928 177.806C112.983 179.574 114.991 186.37 115.859 198.186L115.885 198.546C116.504 207.283 116.498 217.287 116.058 234.377L115.72 246.883C115.511 254.896 115.431 259.265 115.421 263.93L115.419 265.043H112.597L112.6 263.554C112.616 258.016 112.733 252.762 113.05 241.225L113.194 235.908L113.263 233.267C113.674 216.898 113.668 207.187 113.07 198.745C112.306 187.97 110.504 181.682 107.88 180.429L107.801 180.393L108.928 177.806Z" fill="#1A2336"/>
<path d="M180.076 209.042C180.072 203.783 186.265 200.838 186.265 200.838L186.819 219.31C186.819 219.31 180.09 224.82 180.093 228.54L180.076 209.042Z" fill="#1A2336"/>
<path d="M183.289 187.238C184.898 178.773 188.669 179.033 188.669 179.033C188.669 179.033 196.086 190.456 196.104 211.493C193.008 212.773 185.602 214.435 181.697 214.816C181.689 205.581 181.68 195.703 183.289 187.238Z" fill="#1A2336"/>
<path d="M182.526 238.804C182.522 233.545 187.637 230.856 187.637 230.856L188.731 249.713C188.731 249.713 182.54 254.582 182.543 258.302L182.526 238.804Z" fill="#1A2336"/>
<path d="M162.897 158.666C170.994 160.875 184.923 172.014 189.251 179.96L189.379 180.2L186.88 181.511C183.108 174.318 169.846 163.63 162.378 161.452L162.154 161.388L162.897 158.666Z" fill="#1A2336"/>
<path d="M187.59 177.73L188.67 180.337C185.875 181.495 183.975 187.664 183.161 198.352L183.136 198.678C182.496 207.383 182.518 217.441 183.007 234.765L183.384 247.676C183.597 255.329 183.678 259.574 183.689 264.223L183.69 264.971L180.868 264.974L180.866 264.045C180.851 258.449 180.732 253.356 180.396 241.982L180.217 235.916L180.171 234.31C179.694 217.216 179.679 207.211 180.322 198.471C181.198 186.559 183.273 179.641 187.462 177.784L187.59 177.73Z" fill="#1A2336"/>
<path d="M147.399 173.893C157.421 173.719 165.404 165.452 165.229 155.43C165.054 145.407 156.787 137.424 146.765 137.599C136.743 137.774 128.76 146.041 128.935 156.063C129.11 166.085 137.376 174.068 147.399 173.893Z" fill="#5374BA"/>
<rect x="134.965" y="136.062" width="24.1133" height="31.5117" rx="12.0567" transform="rotate(-1 134.965 136.062)" fill="#EBBAAA"/>
<path d="M147.004 191.111C150.059 191.111 152.885 190.681 154.997 189.943C156.047 189.576 156.997 189.107 157.712 188.516C158.418 187.933 159.061 187.083 159.061 185.98C159.061 184.878 158.418 184.028 157.712 183.445C156.997 182.854 156.047 182.385 154.997 182.018C152.885 181.28 150.059 180.85 147.004 180.85C143.949 180.85 141.122 181.28 139.01 182.018C137.96 182.385 137.01 182.854 136.295 183.445C135.589 184.028 134.946 184.878 134.946 185.98C134.946 187.083 135.589 187.933 136.295 188.516C137.01 189.107 137.96 189.576 139.01 189.943C141.122 190.681 143.949 191.111 147.004 191.111Z" fill="#1A2336"/>
<path fill-rule="evenodd" clip-rule="evenodd" d="M138.544 180.686C140.849 179.881 143.842 179.439 147.004 179.439C150.165 179.439 153.158 179.881 155.463 180.686C156.725 181.127 157.787 181.677 158.611 182.357C159.753 183.3 160.472 184.523 160.472 185.98C160.472 187.438 159.753 188.661 158.611 189.604C157.787 190.284 156.725 190.834 155.463 191.275C153.158 192.08 150.165 192.522 147.004 192.522C143.842 192.522 140.849 192.08 138.544 191.275C137.283 190.834 136.22 190.284 135.397 189.604C134.255 188.661 133.535 187.438 133.535 185.98C133.535 184.523 134.255 183.3 135.396 182.357C136.22 181.677 137.283 181.127 138.544 180.686ZM154.532 183.35C152.548 182.657 149.865 182.261 147.003 182.261C144.141 182.261 141.459 182.657 139.475 183.35C138.504 183.689 137.728 184.091 137.193 184.533C136.645 184.985 136.357 185.475 136.357 185.98C136.357 186.486 136.645 186.976 137.193 187.429C137.728 187.87 138.504 188.272 139.475 188.611C141.459 189.304 144.141 189.7 147.003 189.7C149.865 189.7 152.548 189.304 154.532 188.611C155.502 188.272 156.279 187.87 156.813 187.429C157.362 186.976 157.65 186.486 157.65 185.98C157.65 185.476 157.362 184.986 156.814 184.533C156.279 184.091 155.502 183.689 154.532 183.35Z" fill="#5374BA"/>
<rect x="187.828" y="195.072" width="21.7034" height="27.4365" rx="3.276" transform="rotate(-16.5 187.828 195.072)" fill="#E3581C"/>
<rect x="189.398" y="194.606" width="21.7034" height="27.4365" rx="3.276" transform="rotate(-16.5 189.398 194.606)" fill="#FF7033"/>
<rect x="190.722" y="191.865" width="18.2227" height="27.4365" rx="3.276" transform="rotate(-16.5 190.722 191.865)" fill="#3D424E"/>
<rect x="193.478" y="194.679" width="14.5372" height="18.837" transform="rotate(-16.5 193.478 194.679)" fill="#24262A"/>
<path d="M206.942 214.181C207.701 213.956 208.134 213.158 207.909 212.399C207.684 211.64 206.887 211.207 206.128 211.432C205.369 211.657 204.936 212.455 205.161 213.214C205.385 213.973 206.183 214.406 206.942 214.181Z" fill="#24262A"/>
<path d="M192.131 203.833L212.941 197.669L217.07 211.608C217.583 213.343 216.594 215.165 214.859 215.679L200.331 219.983C198.597 220.496 196.774 219.507 196.26 217.772L192.131 203.833Z" fill="white" fill-opacity="0.6"/>
<path d="M190.973 203.981C190.562 204.288 186.74 206.29 185.072 205.52C185.457 208.598 185.97 210.779 185.97 215.269C188.279 216.038 192.383 216.038 194.051 213.601C193.538 211.463 191.383 203.673 190.973 203.981Z" fill="#FF7033"/>
<path d="M110.887 121.087C119.317 121.087 126.151 114.604 126.151 106.608C126.151 98.6122 119.317 92.13 110.887 92.13C102.457 92.13 95.6233 98.6122 95.6233 106.608C95.6233 114.604 102.457 121.087 110.887 121.087Z" fill="#EBBAAA"/>
<path d="M185.286 121.087C193.716 121.087 200.55 114.604 200.55 106.608C200.55 98.6122 193.716 92.13 185.286 92.13C176.856 92.13 170.022 98.6122 170.022 106.608C170.022 114.604 176.856 121.087 185.286 121.087Z" fill="#EBBAAA"/>
<path d="M187.278 117.932C190.291 118.382 193.2 115.623 193.776 111.77C194.352 107.916 192.376 104.427 189.363 103.977C186.351 103.527 183.441 106.286 182.866 110.139C182.29 113.993 184.265 117.482 187.278 117.932Z" fill="#F2F7FB"/>
<rect x="187.745" y="111.4" width="4.10475" height="13.8535" rx="2.05237" transform="rotate(8.5 187.745 111.4)" fill="#DDE4EA"/>
<path d="M108.295 117.675C105.282 118.126 102.373 115.367 101.797 111.513C101.221 107.66 103.197 104.171 106.209 103.72C109.222 103.27 112.131 106.029 112.707 109.883C113.283 113.736 111.308 117.225 108.295 117.675Z" fill="#F2F7FB"/>
<rect width="4.10475" height="13.8535" rx="2.05237" transform="matrix(-0.989016 0.147809 0.147809 0.989016 108.341 111.4)" fill="#DDE4EA"/>
<path d="M106.357 80.3962C105.124 56.5057 124.162 36.4595 148.084 36.4595C172.104 36.4595 191.179 56.663 189.799 80.6432L187.747 116.306C186.531 137.441 169.037 153.958 147.866 153.958C126.73 153.958 109.298 137.402 108.209 116.294L106.357 80.3962Z" fill="#EED4CC"/>
<path d="M155.962 128.477C156.924 128.027 158.07 128.441 158.52 129.404C158.971 130.366 158.556 131.512 157.594 131.962C155.202 133.082 151.751 133.716 147.926 133.908L147.615 133.922C144.512 134.057 141.584 133.87 140.301 133.424C139.297 133.075 138.766 131.978 139.115 130.975C139.457 129.99 140.518 129.461 141.505 129.769L141.564 129.789C142.279 130.037 144.898 130.197 147.604 130.071L147.733 130.064C151.103 129.895 154.114 129.342 155.962 128.477Z" fill="#C99584"/>
<path d="M137.228 86.7656L120.734 83.2488C120.55 83.2098 120.363 83.2713 120.241 83.4101L116.433 87.7566C116.163 88.0653 116.346 88.5621 116.757 88.6313L137.468 92.1246C138.174 92.2436 138.772 91.6363 138.647 90.9266L138.068 87.6396C137.992 87.2053 137.657 86.8571 137.228 86.7656Z" fill="#635F5F"/>
<path d="M155.926 86.7653L172.42 83.2486C172.604 83.2096 172.791 83.2711 172.913 83.4098L176.721 87.7563C176.991 88.0651 176.808 88.5618 176.397 88.6311L155.686 92.1243C154.98 92.2433 154.382 91.6361 154.507 90.9263L155.086 87.6393C155.162 87.2051 155.497 86.8568 155.926 86.7653Z" fill="#635F5F"/>
<path d="M130.745 96.3667C132.462 96.3668 133.858 97.7378 133.898 99.4444L133.899 99.5211L133.899 106.951C133.899 108.693 132.487 110.106 130.745 110.105C129.028 110.105 127.632 108.734 127.591 107.028L127.59 106.951L127.591 99.5209C127.591 97.7788 129.003 96.3666 130.745 96.3667Z" fill="black"/>
<path d="M163.261 96.1102C164.978 96.1103 166.374 97.4813 166.415 99.188L166.415 99.2646L166.415 106.695C166.415 108.437 165.003 109.849 163.261 109.849C161.544 109.849 160.148 108.478 160.108 106.771L160.107 106.695L160.107 99.2644C160.107 97.5223 161.519 96.1102 163.261 96.1102Z" fill="black"/>
<path d="M144.009 102.356L148.345 103.44L148.297 103.623C148.149 104.179 147.944 104.802 147.657 105.589L147.482 106.063C147.234 106.724 146.67 108.198 146.547 108.528L146.414 108.886C146.025 109.937 145.732 110.799 145.488 111.623C144.743 114.146 144.602 115.98 145.066 117.086C145.529 118.192 146.819 118.858 149.639 118.878L149.769 118.878V123.347C145.22 123.347 142.204 121.819 140.944 118.813C139.981 116.514 140.191 113.785 141.203 110.357C141.492 109.377 141.834 108.379 142.286 107.166L142.455 106.714C142.664 106.163 143.089 105.05 143.292 104.511L143.368 104.307C143.674 103.479 143.873 102.882 143.993 102.421L144.009 102.356Z" fill="#EBBAAA"/>
<path d="M178.887 62.7555C178.03 55.5645 174.814 51.9689 174.243 47.1749C173.838 43.7792 173.796 42.913 183.449 50.0284C193.103 57.1438 194.55 72.7545 191.924 86.0228L189.493 101.254L186.512 100.517L186.119 81.0473C182.093 73.4023 179.743 69.9465 178.887 62.7555Z" fill="#272727"/>
<path d="M110.517 72.2478C110.915 65.0175 111.097 65.392 111.363 60.5718C111.551 57.1575 112.728 57.9048 106.633 64.1653C103.269 67.6208 104.535 82.4665 105.251 92.1755L105.95 98.9818L107.31 99.0568L108.076 90.0683C110.479 82.355 110.118 79.478 110.517 72.2478Z" fill="#272727"/>
<path fill-rule="evenodd" clip-rule="evenodd" d="M147.823 30.5592L147.823 30.559C147.803 30.559 147.783 30.559 147.763 30.559C147.743 30.559 147.723 30.559 147.703 30.559L147.703 30.5592C134.891 30.6042 101.268 39.2815 105.373 73.4022C108.779 69.2407 111.731 65.6297 116.404 62.9142C126.24 57.1975 132.959 56.7673 145.938 56.7673C158.917 56.7673 167.97 59.222 175.556 62.9142C182.343 66.217 185.928 70.0672 192.085 73.4022C190.932 39.6189 160.634 30.6042 147.823 30.5592Z" fill="#272727"/>
<path d="M163.651 62.1923C151.262 51.5775 144.771 53.0579 140.755 49.6302C144.125 48.8235 139.212 37.6867 160.507 46.5823C166.858 49.2353 166.778 57.405 163.651 62.1923Z" fill="#272727"/>
<path d="M137.761 60.645C147.259 54.8405 151.621 53.6505 156.194 51.0119C153.028 49.6047 144.808 45.6735 140.587 49.0508C138.78 51.4076 135.558 55.368 137.761 60.645Z" fill="#272727"/>
<path d="M147.218 60.3185L145.55 54.033L158.506 52.4938L155.556 60.3185L150.809 56.5985L147.218 60.3185Z" fill="#272727"/>
<path d="M128.142 62.3033C142.258 54.124 150.698 52.4384 155.271 49.7999C152.105 48.3927 156.638 42.6618 134.079 47.5278C127.351 48.9791 125.94 57.0263 128.142 62.3033Z" fill="#272727"/>
<path d="M114.686 40.7221L112.01 50.2261L147.277 44.7644L187.582 52.1323L187.497 48.2218L184.622 47.0267L184.555 43.9541L180.931 44.0329L180.828 39.2844L176.168 39.3857L175.054 35.777L170.912 35.867L168.373 32.2892L164.126 33.4994L162.783 31.2929L158.383 31.3886L158.328 28.8746L152.428 31.518L150.821 29.0378L148.287 31.608L145.643 29.1504L140.779 31.7712L137.618 29.3248L134.307 31.9119L131.977 31.9625L129.437 34.2534L128.353 32.0413L124.056 36.8855L121.184 35.8301L117.548 41.3585L114.686 40.7221Z" fill="#272727"/>
<path d="M184.239 45.5169L180.094 44.5398L185.96 65.081L187.124 89.4263L188.707 89.1258L188.897 87.3465L190.14 87.1105L189.734 84.9685L191.656 84.6038L191.134 81.8503L192.487 80.9593L192.023 78.5115L193.217 76.7793L192.286 74.341L193.045 73.4045L192.551 70.8038L193.569 70.6105L191.884 67.285L192.727 66.174L191.419 64.8373L192.146 63.1145L190.577 60.4008L191.246 58.372L189.851 56.5763L189.59 55.1995V53.1182L190.577 51.8356L186.768 50.8218L186.901 49.0532L184.275 47.2533L184.239 45.5169Z" fill="#272727"/>
<path d="M111.948 50.1347L116.093 49.1577L109.286 66.2188L106.453 89.5865L104.531 89.2218L105.053 86.468L103.699 85.5773L104.164 83.1295L102.97 81.3973L103.901 78.9588L103.142 78.0223L103.635 75.4215L102.618 75.2285L104.303 71.903L103.46 70.792L104.768 69.4553L104.04 67.7323L105.61 65.0188L104.94 62.9898L106.335 61.1943L106.596 59.8173V57.736L105.609 56.4535L109.419 55.4398L109.286 53.671L111.911 51.8712L111.948 50.1347Z" fill="#272727"/>
</svg>
