<svg width="300" height="400" viewBox="0 0 300 400" fill="none" xmlns="http://www.w3.org/2000/svg">
<path d="M168.75 299.75C171.757 299.75 174.201 302.163 174.249 305.159L174.25 305.25V362.25C174.25 365.288 171.787 367.75 168.75 367.75C165.743 367.75 163.299 365.337 163.251 362.341L163.25 362.25V305.25C163.25 302.212 165.712 299.75 168.75 299.75Z" fill="#EBBAAA"/>
<path d="M131.75 299.75C134.757 299.75 137.201 302.163 137.249 305.159L137.25 305.25V366.625C137.25 369.663 134.787 372.125 131.75 372.125C128.743 372.125 126.299 369.712 126.251 366.716L126.25 366.625V305.25C126.25 302.212 128.712 299.75 131.75 299.75Z" fill="#EBBAAA"/>
<path d="M162 364.205C162 364.205 162.125 355.937 162.748 356.562C163.371 357.19 166.237 358.817 170.104 358.817C173.97 358.817 176.339 357.44 177.211 356.562C178.084 355.687 178.896 364.205 178.896 364.205H162Z" fill="#DCE1E9"/>
<path d="M139.146 364.955C139.146 364.955 139.021 356.687 138.398 357.312C137.774 357.94 134.908 359.567 131.041 359.567C127.176 359.567 124.807 358.19 123.934 357.312C123.061 356.437 122.25 364.955 122.25 364.955H139.146Z" fill="#DCE1E9"/>
<path d="M150.25 273.75C166.128 273.75 179 267.874 179 260.625C179 253.376 166.128 247.5 150.25 247.5C134.371 247.5 121.5 253.376 121.5 260.625C121.5 267.874 134.371 273.75 150.25 273.75Z" fill="#E2D3BD"/>
<path d="M150 243H187.5L182.5 353.75H158.957L150 243Z" fill="#E2D3BD"/>
<path d="M150.5 243H113L118 353.75H141.542L150.5 243Z" fill="#E2D3BD"/>
<path d="M205.104 376.823C205.154 371.123 204.372 370.138 199.385 367.808C194.397 365.478 189.699 362.238 181.07 358.398C181.07 358.398 179.935 358.185 178.086 359.178C176.508 360.025 174.482 362.105 171.429 362.08C168.113 362.05 165.158 361.353 163.322 360.395C162.529 358.235 160.77 358.22 160.77 358.22C160.77 358.22 158.293 362.905 158.252 367.615C158.211 372.323 158.215 376.415 158.215 376.415L205.104 376.823Z" fill="#161616"/>
<path d="M170.5 364.76C171.932 364.76 173.089 365.141 174.468 365.945L174.602 366.024C174.977 366.247 176.248 367.064 176.411 367.165C178.38 368.386 180.041 369.019 182.455 369.236C185.092 369.476 186.7 369.044 188.274 368.004L188.363 367.944C188.434 367.896 188.506 367.846 188.582 367.793L188.886 367.576L189.112 367.411L190.139 368.829L189.762 369.101L189.587 369.226C189.503 369.285 189.423 369.34 189.343 369.394C187.417 370.696 185.398 371.261 182.297 370.979C179.644 370.74 177.758 370.039 175.634 368.741L175.378 368.582C175.026 368.359 174.077 367.751 173.74 367.547L173.706 367.527C172.516 366.817 171.619 366.51 170.5 366.51C169.178 366.51 168.07 366.957 166.753 367.875L166.582 367.997C166.312 368.194 165.365 368.904 165.092 369.087C164.482 369.497 163.986 369.718 163.456 369.739L163.376 369.74V367.99C163.494 367.99 163.715 367.898 164.055 367.675L164.117 367.634C164.362 367.469 165.401 366.689 165.614 366.537C167.255 365.369 168.708 364.76 170.5 364.76Z" fill="white"/>
<path d="M181.978 357.839C182.13 357.498 182.53 357.345 182.872 357.497C183.213 357.65 183.366 358.05 183.213 358.391C183.066 358.72 182.956 359.094 182.879 359.512C182.812 359.878 182.773 360.215 182.752 360.62L182.748 360.704L186.384 359.11C186.894 358.887 187.434 359.34 187.317 359.873L187.308 359.911L186.56 362.603L189.562 361.641C189.985 361.505 190.417 361.807 190.444 362.243L190.445 362.285L190.445 365.053L192.696 363.842C193.134 363.606 193.663 363.908 193.692 364.395L193.693 364.438V367.8C193.693 368.174 193.39 368.477 193.017 368.477C192.657 368.477 192.362 368.196 192.341 367.841L192.34 367.8L192.34 365.57L190.089 366.781C189.651 367.017 189.122 366.715 189.093 366.227L189.092 366.185L189.092 363.213L185.779 364.275C185.28 364.435 184.802 363.992 184.911 363.489L184.921 363.449L185.622 360.922L182.326 362.367C181.892 362.558 181.407 362.255 181.379 361.79L181.377 361.748L181.378 361.493C181.383 360.547 181.419 359.965 181.548 359.266C181.644 358.749 181.784 358.272 181.978 357.839Z" fill="white"/>
<path d="M203.217 368.243C201.686 367.693 200.066 367.275 196.959 366.575L198.28 370.353L198.242 374.658L207.085 374.735C207.446 374.738 208.091 374.26 207.783 372.32C207.398 369.895 205.391 369.028 203.217 368.243Z" fill="#393A40"/>
<path d="M164.251 368.618C163.133 367.44 159.625 366.133 158.375 366.505L158.126 370.978L158.126 374.733C165.317 374.733 165.876 374.733 165.876 374.733C165.491 372.308 166.376 370.853 164.251 368.618Z" fill="#393A40"/>
<path d="M158.021 376.958L158.074 373.635L177.524 374.44L197.975 374.25L207.862 373.53L208.103 375.698C208.24 376.92 207.329 378.013 206.099 378.098L197.926 378.658L159.087 378.058C158.489 378.048 158.011 377.555 158.021 376.958Z" fill="#D3D5E0"/>
<path d="M158.509 374.455L177.376 375.078L197.985 375.078L207.36 374.458L207.393 374.957L198.001 375.578L177.368 375.577L158.493 374.955L158.509 374.455Z" fill="black"/>
<path d="M96.1712 376.823C96.1214 371.123 96.9031 370.138 101.891 367.808C106.878 365.478 111.576 362.238 120.205 358.398C120.205 358.398 121.341 358.185 123.189 359.178C124.767 360.025 126.793 362.105 129.847 362.08C133.162 362.05 136.117 361.353 137.953 360.395C138.746 358.235 140.505 358.22 140.505 358.22C140.505 358.22 142.982 362.905 143.024 367.615C143.065 372.323 143.06 376.415 143.06 376.415L96.1712 376.823Z" fill="#161616"/>
<path d="M130.775 364.76C132.521 364.76 133.946 365.338 135.536 366.449L135.719 366.579C136.019 366.797 136.931 367.481 137.159 367.634C137.514 367.872 137.747 367.978 137.878 367.989L137.9 367.99V369.74C137.365 369.74 136.873 369.538 136.274 369.147L136.183 369.087C135.891 368.891 134.825 368.09 134.647 367.963C133.275 366.986 132.139 366.51 130.775 366.51C129.695 366.51 128.822 366.796 127.691 367.455L127.569 367.527C127.225 367.732 125.972 368.537 125.786 368.652C123.602 370.006 121.692 370.734 118.979 370.979C115.877 371.261 113.859 370.696 111.932 369.394L111.771 369.283C111.716 369.246 111.661 369.206 111.602 369.165L111.137 368.829L112.163 367.411L112.533 367.679L112.693 367.793C112.744 367.829 112.793 367.862 112.841 367.895L112.912 367.944C114.515 369.027 116.134 369.48 118.821 369.236C121.177 369.024 122.815 368.416 124.724 367.251L124.964 367.102C125.314 366.88 126.343 366.221 126.673 366.024C128.112 365.166 129.298 364.76 130.775 364.76Z" fill="white"/>
<path d="M118.403 357.497C118.745 357.345 119.145 357.498 119.297 357.839C119.492 358.272 119.632 358.748 119.727 359.266C119.867 360.026 119.898 360.648 119.898 361.748C119.898 362.221 119.426 362.544 118.989 362.383L118.95 362.367L115.653 360.922L116.354 363.449C116.495 363.955 116.033 364.415 115.535 364.286L115.496 364.275L112.183 363.213L112.184 366.185C112.184 366.683 111.667 367.005 111.224 366.8L111.186 366.781L108.935 365.57L108.935 367.8C108.935 368.16 108.654 368.454 108.3 368.476L108.259 368.477C107.899 368.477 107.604 368.196 107.583 367.841L107.582 367.8V364.438C107.582 363.94 108.098 363.617 108.541 363.823L108.579 363.842L110.83 365.053L110.83 362.285C110.83 361.841 111.249 361.521 111.672 361.629L111.713 361.641L114.715 362.603L113.968 359.911C113.818 359.374 114.344 358.904 114.855 359.096L114.891 359.11L118.527 360.704L118.523 360.62C118.504 360.244 118.469 359.927 118.41 359.59L118.396 359.512C118.319 359.094 118.209 358.72 118.062 358.392C117.909 358.05 118.062 357.65 118.403 357.497Z" fill="white"/>
<path d="M98.0585 368.243C99.5887 367.693 101.209 367.275 104.316 366.575L102.996 370.353L103.033 374.658L94.1901 374.735C93.8292 374.738 93.1844 374.26 93.4923 372.32C93.8772 369.895 95.8843 369.028 98.0585 368.243Z" fill="#393A40"/>
<path d="M137.025 368.618C138.142 367.44 141.65 366.133 142.9 366.505L143.149 370.978V374.733C135.958 374.733 135.399 374.733 135.399 374.733C135.784 372.308 134.9 370.853 137.025 368.618Z" fill="#393A40"/>
<path d="M143.254 376.958L143.202 373.635L123.751 374.44L103.3 374.25L93.4137 373.53L93.1721 375.698C93.0356 376.92 93.9467 378.013 95.1759 378.098L103.35 378.658L142.189 378.058C142.787 378.048 143.264 377.555 143.254 376.958Z" fill="#D3D5E0"/>
<path d="M142.766 374.455L142.783 374.955L123.899 375.578L103.258 375.577L93.8828 374.957L93.9158 374.458L103.274 375.078L123.891 375.078L142.766 374.455Z" fill="black"/>
<path d="M177.299 163.193C181.748 160.684 187.39 162.256 189.9 166.705C195.643 176.886 200.779 191.773 204.01 206.735C207.376 222.323 208.248 235.455 205.537 242.911C203.791 247.712 198.483 250.189 193.682 248.443C188.929 246.715 186.454 241.496 188.099 236.733L188.15 236.589C188.201 236.45 188.268 236.194 188.335 235.835L188.349 235.756C188.443 235.228 188.519 234.581 188.569 233.83C188.68 232.171 188.661 230.12 188.504 227.761C188.186 222.972 187.321 217.164 186.002 210.99L185.927 210.64C183.058 197.355 178.505 184.159 173.787 175.795C171.277 171.345 172.849 165.703 177.299 163.193Z" fill="#EBBAAA"/>
<path d="M111.989 166.705C114.499 162.256 120.141 160.684 124.591 163.194C129.04 165.704 130.612 171.345 128.102 175.795C123.384 184.159 118.832 197.355 115.962 210.64L115.813 211.339C114.536 217.382 113.697 223.062 113.385 227.761C113.228 230.12 113.209 232.171 113.32 233.83C113.367 234.528 113.435 235.135 113.52 235.641L113.54 235.756C113.607 236.13 113.675 236.402 113.728 236.557L113.739 236.589C115.485 241.39 113.008 246.697 108.207 248.443C103.406 250.189 98.0986 247.712 96.3528 242.911C93.6413 235.455 94.5129 222.323 97.8793 206.735C101.111 191.773 106.247 176.886 111.989 166.705Z" fill="#EBBAAA"/>
<path d="M199.64 158.791C197.037 150.781 188.432 146.398 180.422 149.001L168.542 152.861C160.532 155.463 156.147 164.068 158.75 172.078L171.862 211.035L212.75 197.75L199.64 158.791Z" fill="#BFD5DF"/>
<path d="M100.359 158.791C102.962 150.781 111.567 146.398 119.577 149.001L131.457 152.861C139.467 155.463 143.852 164.068 141.249 172.078L128.137 211.035L87.2496 197.75L100.359 158.791Z" fill="#BFD5DF"/>
<rect x="184" y="201.571" width="29.25" height="5" transform="rotate(-15 184 201.571)" fill="#3E5C78"/>
<rect width="29.25" height="5" transform="matrix(-0.965926 -0.258819 -0.258819 0.965926 115.797 201.571)" fill="#3E5C78"/>
<path d="M192.975 154.42C193.135 149.666 189.924 145.458 185.297 144.356L166.271 139.826C163.633 139.198 160.916 140.498 159.749 142.945L154 155L150.75 172.5V248.75L157.25 254H190.555C192.009 254 193.157 252.763 193.048 251.312L190.75 220.75L192.975 154.42Z" fill="#E4EFF4"/>
<path d="M108.524 154.42C108.364 149.666 111.575 145.458 116.202 144.356L135.228 139.826C137.866 139.198 140.583 140.498 141.75 142.945L147.5 155L150.75 172.5V248.75L144.25 254H110.945C109.49 254 108.343 252.763 108.452 251.312L110.75 220.75L108.524 154.42Z" fill="#D2E1E8"/>
<path d="M160 176.5H185L182.5 199.774L172.5 205.25L162.5 199.774L160 176.5Z" fill="#BFD5DF"/>
<rect x="158.75" y="174" width="27.5" height="5" fill="#3E5C78"/>
<rect x="141.25" y="120" width="19" height="28.75" rx="9.47775" fill="#EBBAAA"/>
<path d="M153.25 156.5L160.25 134.25L169.25 139.5L163.5 163.25L153.25 156.5Z" fill="#3E5C78"/>
<path d="M148.25 156.5L141.25 134.25L132.25 139.5L138 163.25L148.25 156.5Z" fill="#3E5C78"/>
<path opacity="0.5" d="M188.25 103.75C193.773 103.75 198.25 99.273 198.25 93.75C198.25 88.2273 193.773 83.75 188.25 83.75C182.727 83.75 178.25 88.2273 178.25 93.75C178.25 99.273 182.727 103.75 188.25 103.75Z" fill="#C99584"/>
<path opacity="0.5" d="M113.25 103.75C107.727 103.75 103.25 99.273 103.25 93.75C103.25 88.2273 107.727 83.75 113.25 83.75C118.773 83.75 123.25 88.2273 123.25 93.75C123.25 99.273 118.773 103.75 113.25 103.75Z" fill="#C99584"/>
<path d="M113.25 64.25C113.25 43.5392 130.039 26.7499 150.75 26.7499C171.461 26.7499 188.25 43.5393 188.25 64.25V114.002C188.25 119.961 184.044 125.091 178.201 126.26L159.321 130.036C153.663 131.167 147.837 131.167 142.179 130.036L123.298 126.26C117.456 125.091 113.25 119.961 113.25 114.002V64.25Z" fill="#F4D5CC"/>
<path d="M159.785 111.585C160.704 111.052 161.882 111.365 162.415 112.285C162.948 113.205 162.635 114.382 161.715 114.916L161.628 114.964C161.593 114.983 161.554 115.004 161.509 115.028L161.462 115.052C161.291 115.14 161.093 115.236 160.868 115.337C160.245 115.618 159.52 115.895 158.696 116.151C156.381 116.871 153.721 117.3 150.75 117.3C147.779 117.3 145.118 116.871 142.803 116.151C141.98 115.895 141.255 115.618 140.632 115.337C140.444 115.253 140.275 115.172 140.125 115.097L140.037 115.052C139.925 114.994 139.84 114.948 139.785 114.916C138.865 114.382 138.551 113.205 139.084 112.285C139.607 111.384 140.747 111.065 141.658 111.553L141.768 111.614C141.843 111.653 141.972 111.718 142.155 111.801L142.212 111.827C142.695 112.044 143.275 112.266 143.946 112.474C145.902 113.083 148.179 113.45 150.75 113.45C153.32 113.45 155.597 113.083 157.553 112.474C158.173 112.282 158.715 112.078 159.175 111.877L159.288 111.827C159.52 111.722 159.676 111.644 159.753 111.602L159.785 111.585Z" fill="#C99584"/>
<path fill-rule="evenodd" clip-rule="evenodd" d="M156.25 77.75H179.75C180.992 77.75 182 78.7573 182 80V87C182 89.8994 179.649 92.25 176.75 92.25H159.25C156.35 92.25 154 89.8994 154 87V80C154 78.7573 155.007 77.75 156.25 77.75ZM179 80.75H157L157 87C157 88.2204 157.971 89.2139 159.183 89.249L159.25 89.25H176.75C177.992 89.25 179 88.2426 179 87L179 80.75Z" fill="#393939"/>
<rect x="144.5" y="81.25" width="12.5" height="2.5" fill="#393939"/>
<path fill-rule="evenodd" clip-rule="evenodd" d="M121.25 77.75H144.75C145.992 77.75 147 78.7573 147 80V86.75C147 89.6494 144.649 92 141.75 92H124.25C121.35 92 119 89.6494 119 86.75V80C119 78.7573 120.007 77.75 121.25 77.75ZM144 80.75H122L122 86.75C122 87.9704 122.971 88.9639 124.183 88.999L124.25 89H141.75C142.992 89 144 87.9926 144 86.75L144 80.75Z" fill="#393939"/>
<path d="M189.497 60.3715C189.556 58.804 188.42 57.5 187 57.5C185.525 57.5 184.372 58.8987 184.511 60.5175L186.865 87.9433C186.904 88.4018 187.253 88.75 187.668 88.75C188.102 88.75 188.457 88.3735 188.476 87.8972L189.497 60.3715Z" fill="#6E6C6C"/>
<path d="M112.002 60.3715C111.944 58.804 113.079 57.5 114.5 57.5C115.974 57.5 117.128 58.8987 116.988 60.5175L114.635 87.9433C114.595 88.4018 114.247 88.75 113.831 88.75C113.397 88.75 113.042 88.3735 113.023 87.8972L112.002 60.3715Z" fill="#6E6C6C"/>
<path d="M149.581 48.2948C168.618 48.2948 183.84 48.2428 184.625 62.1563C187.836 66.681 189.847 66.1775 190.597 57.943C192.999 31.5712 166.539 16.6294 148.215 22.5315C148.215 22.5315 130.542 48.2948 149.581 48.2948Z" fill="#393939"/>
<path d="M151.919 48.2948C132.882 48.2948 117.66 48.2428 116.875 62.1563C113.663 66.681 111.652 66.1775 110.902 57.943C108.501 31.5712 134.961 16.6294 153.285 22.5315C153.285 22.5315 170.958 48.2948 151.919 48.2948Z" fill="#393939"/>
<path d="M139.984 51.8505V47.81L133.25 51.8505V43.5L170.962 45.655L166.383 51.3117L162.611 50.2343L157.763 51.8505L155.877 48.8875L151.028 51.8505V47.81L144.294 51.8505V47.81L139.984 51.8505Z" fill="#393939"/>
<path d="M169.25 81.5C170.492 81.5 171.5 82.5074 171.5 83.75C171.5 84.9705 170.528 85.9639 169.316 85.999L169.25 86H164.25C163.007 86 162 84.9926 162 83.75C162 82.5295 162.971 81.5361 164.183 81.501L164.25 81.5H169.25Z" fill="black"/>
<path d="M136.75 81.5C137.992 81.5 139 82.5074 139 83.75C139 84.9705 138.028 85.9639 136.816 85.999L136.75 86H131.75C130.507 86 129.5 84.9926 129.5 83.75C129.5 82.5295 130.471 81.5361 131.683 81.501L131.75 81.5H136.75Z" fill="black"/>
<path d="M159.504 68.619C159.575 67.4007 160.603 66.4654 161.814 66.501L161.881 66.5039L176.881 67.3789C178.121 67.4513 179.068 68.5156 178.996 69.7561C178.925 70.9745 177.897 71.9097 176.685 71.8742L176.619 71.8712L161.619 70.9962C160.378 70.9239 159.431 69.8596 159.504 68.619Z" fill="#393939"/>
<path d="M139.119 66.5039C140.359 66.4315 141.424 67.3785 141.496 68.619C141.567 69.8374 140.655 70.8858 139.447 70.9914L139.381 70.9962L124.381 71.8712C123.14 71.9436 122.076 70.9966 122.004 69.7561C121.932 68.5377 122.845 67.4893 124.053 67.3837L124.119 67.3789L139.119 66.5039Z" fill="#393939"/>
<path d="M148.982 90.0713L152.518 92.4288C151.316 94.2315 150.375 96.9376 150.375 98.9063C150.375 100.805 151.06 101.602 153.159 101.625L153.25 101.625V105.875C148.614 105.875 146.125 103.075 146.125 98.9063C146.125 96.0825 147.299 92.6547 148.894 90.204L148.982 90.0713Z" fill="#EBBAAA"/>
</svg>
