<svg width="300" height="400" viewBox="0 0 300 400" fill="none" xmlns="http://www.w3.org/2000/svg">
<path d="M168.636 295.943C171.643 295.943 174.087 298.356 174.135 301.352L174.136 301.443V358.443C174.136 361.48 171.674 363.943 168.636 363.943C165.629 363.943 163.186 361.529 163.137 358.533L163.136 358.443V301.443C163.136 298.405 165.599 295.943 168.636 295.943Z" fill="#EBBAAA"/>
<path d="M131.636 295.943C134.643 295.943 137.087 298.356 137.135 301.352L137.136 301.443V362.818C137.136 365.855 134.674 368.318 131.636 368.318C128.629 368.318 126.186 365.904 126.137 362.908L126.136 362.818V301.443C126.136 298.405 128.599 295.943 131.636 295.943Z" fill="#EBBAAA"/>
<path d="M151.719 267.25C167.597 267.25 180.469 260.702 180.469 252.625C180.469 244.548 167.597 238 151.719 238C135.84 238 122.969 244.548 122.969 252.625C122.969 260.702 135.84 267.25 151.719 267.25Z" fill="#4D5457"/>
<path d="M150.719 245.192H116.969L118.69 324.248L120.69 331.3H140.065L142.719 322.625L150.719 245.192Z" fill="#4D5457"/>
<path d="M150.397 246.697H184.262L181.844 322.125L178.594 331.058L159.594 332.73L157.778 324.125L150.397 246.697Z" fill="#4D5457"/>
<path d="M119.969 330.25H140.469V336.25H121.155L119.969 330.25Z" fill="#434A4C"/>
<path d="M158.469 330.75H178.969L177.969 336.25H159.405L158.469 330.75Z" fill="#434A4C"/>
<path d="M123.949 256.293C122.073 255.893 117.816 253.668 117.095 254.043C115.11 255.793 116.373 300.293 117.455 301.668C118.538 303.043 127.737 303.543 127.737 301.668C127.737 299.793 127.917 293.293 127.737 288.168C127.556 283.043 130.623 257.418 129.18 257.043C127.737 256.668 126.294 256.793 123.949 256.293Z" fill="#2F3034"/>
<path d="M126.293 258.167C124.85 258.042 118.898 256.292 117.094 255.167C115.832 256.292 113.667 264.042 116.012 265.042C118.357 266.042 124.49 265.917 125.211 265.042C125.933 264.167 127.736 258.292 126.293 258.167Z" fill="#3B4345"/>
<path fill-rule="evenodd" clip-rule="evenodd" d="M125.874 259.572L125.631 259.512L125.546 259.853C125.457 260.205 125.358 260.587 125.258 260.963L125.5 261.028L125.599 260.65C125.698 260.273 125.792 259.902 125.874 259.572ZM125.098 262.476L124.858 262.406L124.792 262.63C124.641 263.138 124.509 263.544 124.402 263.824L124.635 263.913L124.684 263.783C124.8 263.461 124.94 263.018 125.098 262.476ZM121.818 264.561C122.362 264.532 122.877 264.484 123.301 264.424L123.336 264.672C122.904 264.733 122.383 264.781 121.831 264.81L121.818 264.561ZM120.325 264.587C119.802 264.578 119.302 264.548 118.839 264.498L118.812 264.746C119.282 264.798 119.791 264.828 120.321 264.837L120.325 264.587ZM116.444 263.815C116.679 263.977 116.995 264.115 117.385 264.228L117.316 264.468C116.902 264.349 116.561 264.2 116.302 264.02L116.444 263.815Z" fill="black"/>
<path fill-rule="evenodd" clip-rule="evenodd" d="M117.505 254.678L117.405 254.907L117.986 255.158C118.242 255.267 118.512 255.381 118.787 255.496L118.884 255.265L118.239 254.994C117.979 254.883 117.731 254.776 117.505 254.678ZM120.27 255.832L120.177 256.064L120.547 256.211C120.911 256.354 121.256 256.486 121.579 256.606L121.666 256.372C121.238 256.213 120.769 256.031 120.27 255.832ZM123.747 257.291C123.56 257.258 123.311 257.194 123.004 257.099L123.077 256.86C123.315 256.934 123.516 256.988 123.677 257.022L123.789 257.044C123.917 257.066 124.061 257.09 124.221 257.115L124.526 257.163L124.489 257.41C124.345 257.388 124.211 257.367 124.087 257.347L123.747 257.291ZM126.009 257.373L125.976 257.621L126.565 257.7C126.864 257.74 127.167 257.779 127.464 257.817L127.496 257.569L126.897 257.492C126.597 257.452 126.298 257.413 126.009 257.373ZM127.965 259.97L128.093 258.476L128.342 258.497L128.214 259.991L127.965 259.97ZM127.837 261.465L127.709 262.96L127.958 262.981L128.086 261.486L127.837 261.465ZM127.455 265.948L127.582 264.454L127.831 264.475L127.704 265.969L127.455 265.948ZM127.328 267.442L127.201 268.937L127.45 268.958L127.577 267.463L127.328 267.442ZM126.95 271.927L127.075 270.432L127.324 270.453L127.199 271.948L126.95 271.927ZM126.825 273.421L126.701 274.916L126.95 274.937L127.074 273.442L126.825 273.421ZM126.457 277.907L126.578 276.412L126.827 276.432L126.706 277.927L126.457 277.907ZM126.341 279.404C126.311 279.822 126.286 280.324 126.265 280.906L126.515 280.915L126.531 280.496C126.548 280.091 126.568 279.733 126.59 279.421L126.341 279.404ZM126.224 282.407L126.474 282.412C126.469 282.679 126.464 282.957 126.46 283.245L126.452 283.912L126.202 283.909C126.205 283.605 126.209 283.311 126.214 283.027L126.224 282.407ZM126.441 285.411L126.191 285.41L126.189 286.297C126.189 286.499 126.189 286.703 126.189 286.911L126.439 286.911L126.439 285.998C126.44 285.799 126.44 285.604 126.441 285.411ZM126.193 288.411L126.443 288.41L126.445 288.779L126.452 289.91L126.202 289.912L126.199 289.53L126.193 288.411ZM126.215 291.412L126.226 292.408L126.232 292.913L126.482 292.909L126.465 291.41L126.215 291.412ZM126.275 295.912C126.267 295.41 126.259 294.911 126.252 294.412L126.502 294.409L126.525 295.908L126.275 295.912ZM126.3 297.412L126.327 298.912L126.577 298.907L126.55 297.407L126.3 297.412ZM125.259 301.27C125.794 301.024 126.16 300.675 126.301 300.352L126.53 300.452C126.364 300.834 125.952 301.226 125.364 301.497L125.259 301.27ZM123.846 301.622C123.4 301.662 122.908 301.653 122.372 301.591L122.343 301.839C122.896 301.903 123.404 301.912 123.868 301.871L123.846 301.622ZM119.485 300.878C119.982 301.055 120.456 301.2 120.908 301.315L120.846 301.557C120.386 301.441 119.905 301.293 119.401 301.114L119.485 300.878Z" fill="black"/>
<path d="M179.183 256.293C180.757 255.893 184.33 253.668 184.935 254.043C186.6 255.793 185.54 300.293 184.632 301.668C183.724 303.043 176.005 303.543 176.005 301.668C176.005 299.793 175.853 293.293 176.005 288.168C176.156 283.043 173.583 257.418 174.794 257.043C176.005 256.668 177.216 256.793 179.183 256.293Z" fill="#2F3034"/>
<path d="M177.215 258.167C178.426 258.042 183.421 256.292 184.935 255.167C185.994 256.292 187.81 264.042 185.843 265.042C183.875 266.042 178.729 265.917 178.123 265.042C177.518 264.167 176.004 258.292 177.215 258.167Z" fill="#3B4345"/>
<path fill-rule="evenodd" clip-rule="evenodd" d="M177.547 259.568L177.792 259.517C177.883 259.959 177.995 260.476 178.108 260.982L177.864 261.036C177.793 260.719 177.723 260.398 177.658 260.094L177.547 259.568ZM178.205 262.499L178.448 262.44C178.602 263.072 178.736 263.564 178.839 263.878L178.602 263.956C178.514 263.692 178.408 263.308 178.285 262.824L178.205 262.499ZM179.909 264.705C180.357 264.77 180.882 264.814 181.418 264.832L181.426 264.582C180.899 264.565 180.383 264.521 179.945 264.458L179.909 264.705ZM184.439 264.564C184.003 264.682 183.495 264.761 182.935 264.803L182.916 264.554C183.461 264.513 183.954 264.436 184.374 264.323L184.439 264.564Z" fill="black"/>
<path fill-rule="evenodd" clip-rule="evenodd" d="M184.574 254.682L184.69 254.903C184.384 255.062 184.032 255.242 183.666 255.425L183.349 255.582L183.238 255.358C183.609 255.175 183.975 254.99 184.303 254.822L184.574 254.682ZM181.889 256.008L181.995 256.234C181.484 256.473 181.021 256.68 180.621 256.847L180.524 256.617C180.841 256.484 181.199 256.326 181.59 256.146L181.889 256.008ZM179.175 257.327L179.127 257.082L178.958 257.114C178.605 257.181 178.163 257.257 177.653 257.341L177.694 257.587L178.182 257.506C178.569 257.44 178.904 257.38 179.175 257.327ZM175.417 257.686L176.173 257.573L176.21 257.821L175.684 257.899L175.737 258.633L175.487 258.651L175.417 257.686ZM175.595 260.148L175.703 261.644L175.952 261.626L175.844 260.13L175.595 260.148ZM175.917 264.636L175.81 263.14L176.059 263.122L176.166 264.618L175.917 264.636ZM176.024 266.132L176.13 267.628L176.38 267.61L176.273 266.114L176.024 266.132ZM176.342 270.62L176.236 269.124L176.486 269.106L176.592 270.603L176.342 270.62ZM176.448 272.116L176.552 273.612L176.802 273.595L176.697 272.099L176.448 272.116ZM176.76 276.605L176.656 275.109L176.906 275.092L177.009 276.588L176.76 276.605ZM176.861 278.102L176.939 279.3C176.945 279.395 176.951 279.494 176.957 279.598L177.206 279.584L177.189 279.284L177.11 278.085L176.861 278.102ZM177.015 281.093L177.265 281.086C177.271 281.313 177.277 281.553 177.282 281.803L177.296 282.587L177.047 282.591C177.04 282.183 177.033 281.8 177.024 281.442L177.015 281.093ZM177.314 284.088L177.064 284.09L177.07 285.074C177.071 285.243 177.072 285.415 177.072 285.589L177.322 285.588L177.317 284.572C177.316 284.408 177.315 284.247 177.314 284.088ZM177.073 287.089L177.323 287.089C177.323 287.283 177.323 287.48 177.322 287.679L177.32 288.589L177.07 288.588L177.071 288.281L177.073 287.089ZM177.061 290.089L177.05 291.588L177.3 291.59L177.311 290.09L177.061 290.089ZM177.018 294.588L177.035 293.088L177.285 293.091L177.268 294.591L177.018 294.588ZM176.999 296.087L176.978 297.587L177.228 297.591L177.249 296.091L176.999 296.087ZM176.955 299.086L177.205 299.09C177.194 299.773 177.19 300.017 177.189 300.122L177.191 300.201C177.199 300.283 177.236 300.393 177.299 300.51L177.079 300.629C176.988 300.461 176.939 300.297 176.939 300.167L176.955 299.086ZM178.289 301.639C178.723 301.814 179.233 301.904 179.817 301.895L179.813 301.645C179.262 301.654 178.785 301.57 178.382 301.407L178.289 301.639ZM182.764 301.214C182.255 301.418 181.775 301.575 181.321 301.687L181.262 301.444C181.703 301.335 182.173 301.182 182.67 300.982L182.764 301.214Z" fill="black"/>
<path d="M93.2549 368.125C93.3791 367.325 93.0179 366.773 94.8928 366.023C96.7677 365.273 118.893 369.148 118.893 369.148C124.588 368.685 139.886 361.218 145.518 364.648C147.299 365.733 146.696 369.17 146.038 372.388C144.985 373.46 134.338 374.398 130.886 373.595C130.886 371.718 130.617 370.51 130.617 370.51C130.617 370.51 128.526 371.863 126.268 372.388C121.663 373.46 121.017 373.5 106.755 373.5C95.3158 372.428 93.1307 368.925 93.2549 368.125Z" fill="#463E35"/>
<path d="M126.607 334.125C127.826 334.125 134.936 337.858 138.626 334.963C139.031 334.645 139.857 334.905 139.857 335.42C139.864 340.395 139.938 349.045 140.683 352.475C141.472 356.11 142.138 355.59 142.927 358.965C143.474 361.303 145.244 366.755 142.927 366.755H132.364C129.865 366.755 126.489 369.658 118.166 370.473C104.351 371.828 100.975 369.973 98.216 369.098C91.9394 367.108 95.1246 362.553 98.216 361.098C102.745 358.965 109.235 357.365 112.536 355.598C115.107 354.223 115.989 353.795 117.309 352.348C119.485 349.963 121.397 337.415 121.692 334.138C121.713 333.91 122.033 333.793 122.228 333.913C123.515 334.705 125.399 334.125 126.607 334.125Z" fill="#766464"/>
<path d="M98.9766 365.052C99.1164 364.589 99.6048 364.328 100.067 364.467L100.428 364.575C101.953 365.026 103.029 365.267 104.397 365.414C106.4 365.63 108.524 365.53 110.879 365.036C111.352 364.937 111.816 365.24 111.915 365.713C112.015 366.186 111.712 366.65 111.239 366.749C108.702 367.281 106.394 367.389 104.21 367.154C102.606 366.982 101.378 366.692 99.561 366.143C99.0985 366.003 98.8368 365.514 98.9766 365.052Z" fill="#BDAFAF"/>
<path d="M115.857 360.25C118.305 358 127.232 352.972 126.607 334.125C127.668 334.125 130.232 335.5 134.107 335.75C138.176 335.628 138.109 335.26 139.187 334.65C139.216 334.632 139.25 334.608 139.278 334.59C140.968 333.452 140.208 351.628 141.421 354.847C142.4 357.448 144.236 361.347 144.236 366.097C143.379 367.597 134.934 366.847 132.241 366.847C130.982 360.125 121.107 365.25 118.982 364.625C117.117 364.077 115.857 363 115.857 360.25Z" fill="#473E3E"/>
<path d="M118.857 352.15C121.657 349.95 122.732 339.25 122.857 334.125C122.357 334 122.232 333.65 121.857 333.775C121.482 333.9 121.482 335.4 121.357 336.65C121.22 338.02 120.232 342.275 119.732 345.15C119.232 348.025 118.732 349.775 116.857 352.15C115.357 354.05 109.482 356 107.607 357.625C107.815 357.582 108.357 357.3 108.857 357.4C109.482 357.525 109.357 357.65 110.107 357.65C110.857 357.65 115.357 354.9 118.857 352.15Z" fill="#473E3E"/>
<path d="M122.232 334.5L122.274 334.501L127.762 334.876C128.106 334.9 128.366 335.198 128.343 335.543C128.32 335.873 128.044 336.126 127.718 336.125L127.676 336.124L127.082 336.083L127.679 336.282C128.248 336.472 128.245 337.267 127.696 337.462L127.654 337.476L123.923 338.542L126.893 340.069C127.41 340.335 127.312 341.093 126.762 341.231L126.721 341.239L123.481 341.842L126.837 343.169C127.369 343.379 127.357 344.127 126.839 344.331L126.797 344.345L122.427 345.74L126.251 347.561C126.803 347.824 126.684 348.633 126.098 348.739L126.056 348.746L121.353 349.31L124.607 351.75C125.076 352.102 124.844 352.84 124.272 352.874L124.232 352.875H119.271L122.667 356.177C123.109 356.606 122.729 357.339 122.136 357.243L122.098 357.236L115.689 355.834L118.239 359.386C118.611 359.903 118.063 360.57 117.492 360.327L117.457 360.311L111.082 357.186C110.772 357.034 110.644 356.66 110.796 356.35C110.941 356.053 111.291 355.923 111.593 356.046L111.632 356.064L115.773 358.094L113.724 355.24C113.398 354.785 113.787 354.171 114.327 354.257L114.365 354.264L120.226 355.546L117.296 352.698C116.903 352.316 117.158 351.657 117.692 351.626L117.732 351.625H122.357L119.357 349.375C118.917 349.045 119.089 348.357 119.616 348.261L119.657 348.254L123.765 347.762L120.463 346.189C119.965 345.952 120 345.242 120.499 345.045L120.542 345.03L124.748 343.687L121.002 342.206C120.432 341.981 120.497 341.165 121.075 341.02L121.117 341.011L124.695 340.345L121.946 338.931C121.455 338.679 121.512 337.968 122.018 337.788L122.06 337.774L125.368 336.829L122.034 335.718C121.365 335.495 121.528 334.531 122.191 334.5L122.232 334.5Z" fill="#272222"/>
<path d="M123.546 335.54C123.8 335.306 124.196 335.323 124.429 335.577C124.663 335.831 124.646 336.227 124.392 336.46C120.876 339.69 116.002 345.504 114.917 347.999C114.779 348.316 114.411 348.461 114.095 348.323C113.778 348.186 113.633 347.817 113.771 347.501C114.942 344.806 119.912 338.878 123.546 335.54Z" fill="#272222"/>
<path d="M114.032 347.542C114.147 347.37 114.379 347.323 114.552 347.438C114.724 347.553 114.771 347.786 114.656 347.958L114.58 348.074C114.523 348.162 114.469 348.251 114.389 348.383L114.192 348.708C114.138 348.795 114.09 348.869 114.031 348.958C113.916 349.13 113.683 349.177 113.511 349.062C113.338 348.947 113.292 348.714 113.407 348.542L113.483 348.426C113.54 348.338 113.594 348.249 113.674 348.117L113.87 347.793C113.925 347.705 113.973 347.631 114.032 347.542Z" fill="#766464"/>
<path d="M124.579 335.637C124.848 335.421 125.241 335.465 125.457 335.735C126.814 337.432 128.49 340.1 129.423 342.389C129.553 342.709 129.399 343.074 129.08 343.204C128.76 343.334 128.395 343.181 128.265 342.861C127.383 340.697 125.768 338.126 124.481 336.515C124.265 336.246 124.309 335.852 124.579 335.637Z" fill="#272222"/>
<path d="M128.801 342.415C128.986 342.322 129.211 342.397 129.304 342.582L129.338 342.648C129.355 342.679 129.374 342.713 129.397 342.753L129.705 343.274C129.746 343.344 129.775 343.399 129.804 343.457C129.897 343.642 129.822 343.868 129.636 343.96C129.451 344.053 129.226 343.978 129.133 343.793L129.099 343.727C129.082 343.696 129.063 343.662 129.04 343.621L128.732 343.101C128.692 343.031 128.662 342.976 128.633 342.918C128.541 342.732 128.616 342.507 128.801 342.415Z" fill="#766464"/>
<path d="M95.4446 371.693C94.5594 371.485 94.8579 369.998 95.2145 369.02C95.9471 369.233 97.4271 370.085 97.4139 370.708C97.3807 372.285 96.551 371.95 95.4446 371.693Z" fill="#463E35"/>
<path d="M93.6631 370.01C93.3366 369.835 93.4762 368.005 93.9677 367.045C95.1318 367.31 95.7216 368.688 95.7216 368.688C95.7216 368.688 96.0825 369.7 95.2941 370.305C94.9744 370.423 94.1587 370.273 93.6631 370.01Z" fill="#463E35"/>
<path d="M97.5275 372.832C96.5395 372.635 97.0194 370.622 97.3828 369.642C98.202 369.85 99.808 370.575 99.6788 371.832C99.5172 373.405 98.7626 373.082 97.5275 372.832Z" fill="#463E35"/>
<path d="M100.246 373.66C99.1514 373.562 99.4478 371.513 99.7328 370.5C100.645 370.623 102.469 371.18 102.469 372.445C102.469 374.025 101.614 373.78 100.246 373.66Z" fill="#463E35"/>
<path d="M103.125 374.16C101.849 374.062 102.194 372.013 102.527 371C103.591 371.123 105.719 371.68 105.719 372.945C105.719 374.525 104.721 374.28 103.125 374.16Z" fill="#463E35"/>
<path d="M106.246 374.66C105.151 374.562 105.448 372.513 105.733 371.5C106.645 371.623 108.469 372.18 108.469 373.445C108.469 375.025 107.614 374.78 106.246 374.66Z" fill="#463E35"/>
<path d="M109.125 374.91C107.849 374.812 108.194 372.763 108.527 371.75C109.591 371.873 111.719 372.43 111.719 373.695C111.719 375.275 110.721 375.03 109.125 374.91Z" fill="#463E35"/>
<path d="M112.375 375.16C111.099 375.062 111.444 373.013 111.777 372C112.841 372.123 114.969 372.68 114.969 373.945C114.969 375.525 113.971 375.28 112.375 375.16Z" fill="#463E35"/>
<path d="M115.677 375.317C114.578 375.342 114.644 373.272 114.814 372.235C115.183 372.242 116.657 371.82 117.16 371.97C117.91 372.197 117.665 373.11 117.75 373.862C117.927 375.432 117.05 375.285 115.677 375.317Z" fill="#463E35"/>
<path d="M118.604 375.067C117.505 375.092 117.57 373.022 117.74 371.985C118.11 371.992 119.583 371.57 120.086 371.72C120.837 371.947 120.592 372.86 120.677 373.612C120.853 375.182 119.977 375.035 118.604 375.067Z" fill="#463E35"/>
<path d="M121.354 374.73C120.255 374.755 120.32 372.685 120.49 371.648C120.859 371.655 122.333 371.23 122.836 371.383C123.587 371.61 123.342 372.52 123.427 373.273C123.603 374.843 122.727 374.698 121.354 374.73Z" fill="#463E35"/>
<path d="M124.104 374.23C123.005 374.255 123.07 372.185 123.24 371.148C123.609 371.155 125.083 370.73 125.586 370.883C126.337 371.11 126.092 372.02 126.177 372.773C126.353 374.343 125.477 374.198 124.104 374.23Z" fill="#463E35"/>
<path d="M126.604 373.48C125.505 373.505 125.57 371.435 125.74 370.398C126.109 370.405 127.583 369.98 128.086 370.133C128.837 370.36 128.592 371.27 128.677 372.023C128.853 373.593 127.977 373.448 126.604 373.48Z" fill="#463E35"/>
<path d="M129.104 372.98C128.005 373.005 128.07 370.935 128.24 369.898C128.609 369.905 130.083 369.48 130.586 369.633C131.337 369.86 131.092 370.77 131.177 371.523C131.353 373.093 130.477 372.948 129.104 372.98Z" fill="#463E35"/>
<path d="M145.638 366.292L145.825 366.458C144.847 367.558 143.712 367.965 140.376 368.498C138.337 368.825 134.583 368.767 131.516 368.514L131.37 368.502L130.667 368.718C129.592 369.046 128.036 369.51 126.278 370.023L125.516 370.245C120.777 371.621 114.266 372.5 106.856 372.5C104.038 372.5 101.263 371.87 98.7752 370.787C96.7942 369.923 95.1209 368.808 94.3146 367.893L94.261 367.831L94.4518 367.669C95.2081 368.563 96.8814 369.689 98.8751 370.557C101.332 371.628 104.074 372.25 106.856 372.25C114.143 372.25 120.555 371.398 125.254 370.06L127.342 369.451C128.869 369.001 130.171 368.61 131.028 368.346L131.319 368.256L131.367 368.25L131.706 368.278C134.723 368.518 138.36 368.568 140.337 368.252L140.741 368.186C143.623 367.707 144.687 367.315 145.559 366.379L145.638 366.292Z" fill="#67513B"/>
<path d="M122.61 334.625C122.956 334.619 123.24 334.894 123.246 335.239C123.252 335.571 122.998 335.846 122.673 335.873L122.632 335.875C121.606 335.892 119.765 337.035 118.374 338.575C116.855 340.258 116.237 341.958 116.805 343.096C117.28 344.045 117.725 344.333 118.199 344.217C118.722 344.089 119.384 343.496 120.08 342.514C121.341 340.732 122.602 337.775 123.01 335.869C123.082 335.532 123.414 335.317 123.752 335.389C124.089 335.461 124.304 335.793 124.232 336.131C123.789 338.198 122.462 341.312 121.1 343.236C120.246 344.442 119.384 345.214 118.496 345.431C117.372 345.706 116.397 345.075 115.687 343.654C114.829 341.937 115.621 339.76 117.446 337.738C119.046 335.966 121.166 334.65 122.61 334.625Z" fill="#272222"/>
<path d="M123.796 335.87C123.868 335.532 124.199 335.317 124.537 335.389C124.875 335.461 125.09 335.793 125.018 336.13C124.794 337.185 124.769 341.343 125.041 344.683C125.205 346.695 125.462 348.394 125.806 349.604C125.988 350.244 126.19 350.731 126.4 351.043C126.565 351.288 126.691 351.375 126.782 351.375C129.68 351.375 131.517 349.746 131.642 347.157C131.785 344.197 129.741 340.458 125.62 336.845C125.36 336.617 125.334 336.223 125.562 335.963C125.789 335.703 126.184 335.677 126.444 335.905C130.827 339.748 133.055 343.823 132.89 347.218C132.732 350.493 130.328 352.625 126.782 352.625C125.019 352.625 124.199 349.738 123.795 344.785L123.775 344.524C123.515 341.121 123.546 337.045 123.796 335.87Z" fill="#272222"/>
<path d="M206.714 368.125C206.589 367.325 206.951 366.773 205.074 366.023C203.197 365.273 181.049 369.148 181.049 369.148C175.347 368.685 160.033 361.218 154.395 364.648C152.611 365.733 153.216 369.17 153.874 372.388C154.928 373.46 165.587 374.398 169.043 373.595C169.043 371.718 169.312 370.51 169.312 370.51C169.312 370.51 171.406 371.863 173.666 372.388C178.275 373.46 178.922 373.5 193.199 373.5C204.651 372.428 206.838 368.925 206.714 368.125Z" fill="#463E35"/>
<path d="M173.327 334.125C172.107 334.125 164.986 337.858 161.293 334.96C160.887 334.643 160.063 334.903 160.062 335.42C160.056 340.393 159.982 349.045 159.236 352.475C158.446 356.11 157.779 355.59 156.989 358.965C156.442 361.303 154.67 366.755 156.989 366.755H167.564C170.066 366.755 173.445 369.658 181.776 370.473C195.607 371.828 198.986 369.973 201.748 369.098C208.031 367.108 204.842 362.553 201.748 361.098C197.214 358.965 190.717 357.365 187.413 355.598C184.839 354.223 183.955 353.795 182.634 352.348C180.456 349.963 178.542 337.415 178.247 334.138C178.226 333.91 177.906 333.793 177.711 333.913C176.423 334.705 174.537 334.125 173.327 334.125Z" fill="#766464"/>
<path d="M199.895 364.467C200.357 364.328 200.846 364.59 200.985 365.052C201.125 365.515 200.863 366.003 200.4 366.143C198.581 366.692 197.352 366.982 195.747 367.154C193.561 367.389 191.251 367.281 188.711 366.749C188.238 366.65 187.935 366.186 188.034 365.713C188.133 365.24 188.597 364.937 189.07 365.036C191.429 365.53 193.554 365.63 195.56 365.414C197.035 365.256 198.171 364.988 199.895 364.467Z" fill="#BDAFAF"/>
<path d="M184.088 360.25C181.637 358 172.701 352.972 173.326 334.125C172.265 334.125 169.698 335.5 165.818 335.75C161.745 335.628 161.812 335.26 160.733 334.65C160.704 334.632 160.67 334.608 160.642 334.59C158.95 333.452 159.711 351.628 158.497 354.847C157.516 357.448 155.678 361.347 155.678 366.097C156.536 367.597 164.99 366.847 167.686 366.847C168.947 360.125 178.832 365.25 180.96 364.625C182.827 364.077 184.088 363 184.088 360.25Z" fill="#473E3E"/>
<path d="M181.085 352.15C178.282 349.95 177.206 339.25 177.081 334.125C177.581 334 177.707 333.65 178.082 333.775C178.457 333.9 178.457 335.4 178.583 336.65C178.72 338.02 179.709 342.275 180.209 345.15C180.71 348.025 181.21 349.775 183.087 352.15C184.589 354.05 190.47 356 192.347 357.625C192.139 357.582 191.596 357.3 191.096 357.4C190.47 357.525 190.595 357.65 189.845 357.65C189.094 357.65 184.589 354.9 181.085 352.15Z" fill="#473E3E"/>
<path d="M177.664 334.502C178.382 334.452 178.592 335.446 177.944 335.703L177.904 335.718L174.567 336.829L177.878 337.774C178.408 337.926 178.492 338.633 178.03 338.91L177.992 338.931L175.239 340.345L178.821 341.011C179.424 341.123 179.516 341.937 178.977 342.189L178.937 342.206L175.187 343.687L179.398 345.03C179.923 345.197 179.985 345.906 179.517 346.169L179.476 346.189L176.171 347.761L180.283 348.254C180.829 348.32 181.025 349.002 180.616 349.349L180.584 349.375L177.58 351.625H182.211C182.759 351.625 183.036 352.275 182.674 352.67L182.646 352.698L179.714 355.547L185.581 354.264C186.128 354.145 186.538 354.746 186.244 355.208L186.222 355.24L184.171 358.094L188.318 356.064C188.615 355.918 188.971 356.03 189.134 356.312L189.154 356.35C189.3 356.647 189.188 357.003 188.905 357.166L188.868 357.186L182.486 360.311C181.914 360.591 181.347 359.94 181.682 359.417L181.704 359.385L184.256 355.834L177.84 357.236C177.238 357.367 176.837 356.646 177.244 356.204L177.271 356.177L180.67 352.875H175.704C175.117 352.875 174.86 352.144 175.298 351.775L175.33 351.75L178.586 349.31L173.878 348.746C173.27 348.673 173.125 347.868 173.646 347.58L173.684 347.561L177.511 345.74L173.137 344.346C172.591 344.172 172.552 343.424 173.056 343.186L173.097 343.169L176.456 341.842L173.212 341.24C172.64 341.133 172.517 340.379 173.004 340.089L173.041 340.069L176.014 338.542L172.279 337.476C171.703 337.311 171.671 336.516 172.212 336.297L172.253 336.282L172.852 336.083L172.256 336.124C171.925 336.146 171.637 335.907 171.594 335.584L171.589 335.543C171.567 335.212 171.806 334.924 172.13 334.881L172.17 334.877L177.664 334.502Z" fill="#272222"/>
<path d="M175.507 335.577C175.74 335.323 176.136 335.306 176.39 335.54L176.612 335.745C180.227 339.116 185.026 344.86 186.176 347.501C186.313 347.817 186.168 348.185 185.852 348.323C185.536 348.461 185.167 348.316 185.029 347.999C183.943 345.504 179.064 339.69 175.545 336.46C175.29 336.227 175.273 335.832 175.507 335.577Z" fill="#272222"/>
<path d="M185.394 347.438C185.567 347.323 185.799 347.37 185.914 347.542L185.997 347.667C186.049 347.749 186.099 347.829 186.165 347.938L186.39 348.309C186.441 348.392 186.486 348.46 186.54 348.542C186.655 348.714 186.609 348.947 186.436 349.062C186.264 349.177 186.031 349.13 185.916 348.958L185.834 348.833C185.781 348.752 185.731 348.671 185.666 348.562L185.441 348.191C185.389 348.109 185.345 348.04 185.291 347.958C185.176 347.786 185.222 347.553 185.394 347.438Z" fill="#766464"/>
<path d="M174.478 335.735C174.694 335.465 175.087 335.421 175.356 335.637C175.626 335.853 175.67 336.246 175.454 336.516C174.165 338.126 172.548 340.697 171.666 342.861C171.535 343.181 171.171 343.334 170.851 343.204C170.531 343.073 170.378 342.709 170.508 342.389C171.442 340.1 173.12 337.431 174.478 335.735Z" fill="#272222"/>
<path d="M170.627 342.582C170.72 342.397 170.945 342.322 171.13 342.415C171.315 342.507 171.39 342.733 171.297 342.918L171.272 342.967C171.229 343.05 171.179 343.136 171.091 343.284L170.909 343.589C170.857 343.678 170.825 343.736 170.797 343.793C170.704 343.978 170.479 344.053 170.294 343.96C170.109 343.868 170.033 343.642 170.126 343.457L170.168 343.377C170.202 343.313 170.242 343.243 170.302 343.142L170.495 342.819C170.559 342.711 170.595 342.646 170.627 342.582Z" fill="#766464"/>
<path d="M204.522 371.693C205.408 371.485 205.109 369.998 204.752 369.02C204.019 369.233 202.537 370.085 202.55 370.708C202.584 372.285 203.414 371.95 204.522 371.693Z" fill="#463E35"/>
<path d="M206.305 370.01C206.632 369.835 206.492 368.005 206 367.045C204.835 367.31 204.245 368.688 204.245 368.688C204.245 368.688 203.883 369.7 204.673 370.305C204.993 370.423 205.809 370.273 206.305 370.01Z" fill="#463E35"/>
<path d="M202.437 372.832C203.426 372.635 202.945 370.622 202.582 369.642C201.762 369.85 200.154 370.575 200.283 371.832C200.445 373.405 201.2 373.082 202.437 372.832Z" fill="#463E35"/>
<path d="M199.715 373.66C200.811 373.562 200.514 371.513 200.229 370.5C199.316 370.623 197.49 371.18 197.49 372.445C197.49 374.025 198.346 373.78 199.715 373.66Z" fill="#463E35"/>
<path d="M196.833 374.16C198.111 374.062 197.765 372.013 197.432 371C196.367 371.123 194.237 371.68 194.237 372.945C194.237 374.525 195.235 374.28 196.833 374.16Z" fill="#463E35"/>
<path d="M193.709 374.66C194.805 374.562 194.508 372.513 194.223 371.5C193.31 371.623 191.484 372.18 191.484 373.445C191.484 375.025 192.34 374.78 193.709 374.66Z" fill="#463E35"/>
<path d="M190.826 374.91C192.105 374.812 191.758 372.763 191.425 371.75C190.36 371.873 188.23 372.43 188.23 373.695C188.23 375.275 189.229 375.03 190.826 374.91Z" fill="#463E35"/>
<path d="M187.573 375.16C188.851 375.062 188.505 373.013 188.172 372C187.107 372.123 184.977 372.68 184.977 373.945C184.977 375.525 185.975 375.28 187.573 375.16Z" fill="#463E35"/>
<path d="M184.268 375.317C185.368 375.342 185.303 373.272 185.132 372.235C184.763 372.242 183.287 371.82 182.784 371.97C182.033 372.197 182.278 373.11 182.193 373.862C182.016 375.432 182.894 375.285 184.268 375.317Z" fill="#463E35"/>
<path d="M181.338 375.067C182.438 375.092 182.373 373.022 182.203 371.985C181.833 371.992 180.358 371.57 179.854 371.72C179.103 371.947 179.348 372.86 179.263 373.612C179.086 375.182 179.964 375.035 181.338 375.067Z" fill="#463E35"/>
<path d="M178.585 374.73C179.685 374.755 179.62 372.685 179.449 371.648C179.08 371.655 177.604 371.23 177.101 371.383C176.35 371.61 176.595 372.52 176.51 373.273C176.333 374.843 177.211 374.698 178.585 374.73Z" fill="#463E35"/>
<path d="M175.832 374.23C176.932 374.255 176.867 372.185 176.697 371.148C176.327 371.155 174.852 370.73 174.348 370.883C173.597 371.11 173.842 372.02 173.757 372.773C173.58 374.343 174.458 374.198 175.832 374.23Z" fill="#463E35"/>
<path d="M173.33 373.48C174.429 373.505 174.364 371.435 174.194 370.398C173.824 370.405 172.349 369.98 171.845 370.133C171.094 370.36 171.339 371.27 171.255 372.023C171.078 373.593 171.955 373.448 173.33 373.48Z" fill="#463E35"/>
<path d="M170.827 372.98C171.926 373.005 171.861 370.935 171.691 369.898C171.321 369.905 169.846 369.48 169.342 369.633C168.591 369.86 168.836 370.77 168.751 371.523C168.575 373.093 169.452 372.948 170.827 372.98Z" fill="#463E35"/>
<path d="M154.088 366.458L154.275 366.292L154.354 366.378C155.266 367.357 156.389 367.741 159.582 368.252C161.598 368.574 165.34 368.516 168.392 368.265L168.561 368.25L168.609 368.256L169.899 368.65C171.098 369.012 172.716 369.491 174.488 370.005C179.209 371.374 185.703 372.25 193.098 372.25C195.883 372.25 198.628 371.628 201.088 370.557C203.039 369.708 204.684 368.613 205.464 367.729L205.516 367.669L205.707 367.831C204.922 368.757 203.216 369.904 201.188 370.786C198.698 371.87 195.919 372.5 193.098 372.5C185.781 372.5 179.339 371.644 174.612 370.301L172.8 369.773C171.575 369.413 170.48 369.087 169.625 368.828L168.558 368.501L168.413 368.514C165.398 368.762 161.723 368.822 159.658 368.516L159.543 368.498L159.266 368.454C156.229 367.956 155.105 367.551 154.171 366.549L154.088 366.458Z" fill="#67513B"/>
<path d="M177.327 334.625C178.773 334.65 180.895 335.966 182.496 337.737C184.323 339.759 185.116 341.937 184.257 343.655C183.546 345.075 182.571 345.706 181.446 345.431C180.557 345.214 179.695 344.443 178.84 343.236C177.477 341.312 176.148 338.198 175.704 336.131C175.632 335.794 175.847 335.461 176.184 335.389C176.522 335.317 176.854 335.531 176.927 335.869C177.335 337.774 178.597 340.732 179.86 342.514C180.556 343.496 181.219 344.089 181.743 344.217C182.218 344.333 182.664 344.045 183.139 343.095C183.708 341.958 183.089 340.258 181.569 338.576C180.202 337.064 178.401 335.935 177.364 335.877L177.306 335.875C176.961 335.869 176.686 335.585 176.692 335.239C176.698 334.894 176.982 334.619 177.327 334.625Z" fill="#272222"/>
<path d="M175.399 335.389C175.736 335.317 176.068 335.532 176.14 335.87C176.394 337.06 176.421 341.226 176.151 344.655L176.116 345.08C175.703 349.852 174.88 352.625 173.151 352.625C169.602 352.625 167.196 350.493 167.037 347.218C166.873 343.823 169.103 339.747 173.491 335.905C173.75 335.677 174.145 335.704 174.372 335.963C174.6 336.223 174.574 336.618 174.314 336.845C170.188 340.459 168.142 344.197 168.285 347.157C168.411 349.746 170.25 351.375 173.151 351.375C173.242 351.375 173.369 351.287 173.534 351.043C173.745 350.731 173.947 350.244 174.129 349.604C174.473 348.394 174.731 346.695 174.895 344.683L174.924 344.309C175.165 341.04 175.134 337.147 174.917 336.13C174.846 335.793 175.061 335.461 175.399 335.389Z" fill="#272222"/>
<path d="M114.012 237.487L186.336 232.429L187.996 242.471C188.269 244.121 187.215 245.65 185.734 245.754L116.463 250.598C114.981 250.701 113.725 249.334 113.766 247.661L114.012 237.487Z" fill="#81838E"/>
<path d="M108.64 151.854C114.685 138.278 124.565 139.302 128.763 139.816L120.927 186.872L97.344 201.5C92.7188 195.125 98.827 176.055 99.2189 174.5C100.537 169.267 103.979 162.321 108.64 151.854Z" fill="#333742"/>
<path d="M194.734 152.043C188.689 138.467 178.809 139.491 174.611 140.005L182.447 187.061L205.094 178.375C204.469 176.375 203.986 175.18 203.594 173.625C202.275 168.392 199.394 162.51 194.734 152.043Z" fill="#343844"/>
<path d="M120.792 148.141C121.832 140.582 128.172 135.038 135.806 134.953L153.05 134.762L168.94 136.436C176.205 137.202 182.099 142.844 183.055 150.108C185.14 165.939 188.377 193.629 188.377 212.987C188.377 241.543 192.917 244.274 185.887 248.015C178.857 251.757 122.616 251.23 114.937 245.43C107.258 239.629 112.033 233.585 112.033 221.741C112.033 213.015 117.771 170.123 120.792 148.141Z" fill="#383C48"/>
<path d="M150.813 158.951C157.63 158.951 163.156 151.63 163.156 142.6C163.156 133.57 157.63 126.25 150.813 126.25C143.995 126.25 138.469 133.57 138.469 142.6C138.469 151.63 143.995 158.951 150.813 158.951Z" fill="#2E2A2B"/>
<rect x="142.469" y="122.5" width="17.25" height="28.75" rx="8.625" fill="#EBBAAA"/>
<path d="M141.596 159.862C133.45 158.279 115.885 141.069 125.049 132.167C130.904 124.749 140.323 134.64 141.596 139.585C142.614 143.542 145.414 153.268 147.196 155.905C149.232 157.801 149.741 161.444 141.596 159.862Z" fill="#40424E"/>
<path d="M160.842 159.862C168.988 158.279 186.553 141.069 177.388 132.167C171.534 124.749 162.115 134.64 160.842 139.585C159.824 143.542 157.024 153.268 155.242 155.905C153.205 157.801 152.696 161.444 160.842 159.862Z" fill="#40424E"/>
<path d="M140.796 153.967C141.742 153.967 142.513 154.718 142.545 155.656L142.546 155.717V190.609C142.546 191.576 141.762 192.359 140.796 192.359C139.849 192.359 139.078 191.608 139.047 190.669L139.046 190.609V155.717C139.046 154.75 139.829 153.967 140.796 153.967Z" fill="#2E2A2B"/>
<path d="M161.126 153.967C162.073 153.967 162.843 154.718 162.875 155.656L162.876 155.717V195.884C162.876 196.851 162.093 197.634 161.126 197.634C160.18 197.634 159.409 196.883 159.377 195.944L159.376 195.884V155.717C159.376 154.75 160.16 153.967 161.126 153.967Z" fill="#2E2A2B"/>
<path d="M124.691 219.233C125.91 212.442 131.818 207.5 138.717 207.5H150.617H171.971C173.602 207.5 175.26 207.775 176.46 208.88C178.478 210.737 181.424 214.892 182.479 223.737C184.144 237.7 182.479 239.974 182.479 239.974C182.479 239.974 165.306 244.5 150.617 244.5C135.927 244.5 120.969 239.974 120.969 239.974L123.883 223.737L124.691 219.233Z" fill="#40424E"/>
<path fill-rule="evenodd" clip-rule="evenodd" d="M174.327 171.66C174.327 171.33 174.252 171.065 174.062 170.88C173.912 170.73 173.682 170.63 173.362 170.585L172.932 170.525C172.807 170.51 172.732 170.465 172.687 170.42C172.632 170.365 172.617 170.3 172.617 170.255C172.617 170.1 172.742 169.925 173.047 169.925L173.075 169.925C173.235 169.924 173.51 169.923 173.722 170.135L174.272 169.585C173.967 169.28 173.582 169.16 173.072 169.16C172.262 169.16 171.772 169.635 171.772 170.285C171.772 170.59 171.852 170.83 172.017 171C172.177 171.165 172.417 171.27 172.732 171.315L173.162 171.375C173.277 171.39 173.352 171.425 173.397 171.47C173.447 171.525 173.467 171.595 173.467 171.68C173.467 171.885 173.302 172 172.957 172C172.672 172 172.347 171.935 172.162 171.75L171.602 172.31C171.962 172.68 172.407 172.78 172.952 172.78C173.702 172.78 174.327 172.385 174.327 171.66ZM169.894 172.75L169.124 171.265C169.404 171.125 169.704 170.82 169.704 170.335C169.704 169.75 169.279 169.19 168.489 169.19H167.079V172.75H167.954V171.425H168.249L168.879 172.75H169.894ZM168.829 170.335C168.829 170.52 168.689 170.695 168.449 170.695H167.954V169.975H168.449C168.689 169.975 168.829 170.15 168.829 170.335ZM171.216 169.19V172.75H170.341V169.19H171.216ZM177.321 171.97V172.75H174.901V169.19H177.321V169.97H175.776V170.565H177.096V171.345H175.776V171.97H177.321Z" fill="white"/>
<path fill-rule="evenodd" clip-rule="evenodd" d="M170.926 174.95V175.445C170.926 176.02 170.836 176.355 170.566 176.63C170.261 176.945 169.921 177.03 169.531 177.03C169.116 177.03 168.801 176.89 168.541 176.63C168.18 176.269 168.181 175.792 168.181 175.279L168.181 175.22L168.181 175.16C168.181 174.648 168.18 174.171 168.541 173.81C168.801 173.55 169.101 173.41 169.531 173.41C170.446 173.41 170.836 174.005 170.921 174.59H170.041C169.971 174.32 169.831 174.19 169.531 174.19C169.371 174.19 169.251 174.26 169.186 174.345C169.106 174.45 169.056 174.57 169.056 175.22C169.056 175.87 169.106 175.995 169.186 176.1C169.251 176.185 169.371 176.25 169.531 176.25C169.716 176.25 169.841 176.195 169.921 176.11C170.021 176.01 170.056 175.865 170.056 175.73V175.68H169.531V174.95H170.926ZM167.984 177L166.689 173.44H166.014L164.719 177H165.634L165.809 176.47H166.904L167.069 177H167.984ZM166.674 175.74H166.054L166.374 174.79L166.674 175.74ZM174.39 177L173.095 173.44H172.42L171.125 177H172.04L172.215 176.47H173.31L173.475 177H174.39ZM172.46 175.74H173.08L172.78 174.79L172.46 175.74ZM175.626 177V173.44H174.751V177H175.626ZM179.128 173.44V177H178.363L177.223 175.21V177H176.348V173.44H177.113L178.253 175.23V173.44H179.128Z" fill="#FF0000"/>
<path d="M179.344 184.25C175.844 184.35 172.302 187.958 170.969 189.75C170.969 192.625 179.344 195.75 183.219 195.375C187.094 195 187.344 188.375 186.094 186.875C184.844 185.375 183.719 184.125 179.344 184.25Z" fill="#EBBEAA"/>
<path d="M116.594 189.125C118.719 187.75 123.969 187.5 125.094 187.5C125.719 189.292 126.169 192.95 122.969 193.25C118.969 193.625 114.469 190.5 116.594 189.125Z" fill="#EBBEAA"/>
<path d="M119.969 215.125C96.8354 210.928 95.7604 200.834 95.7188 196.001C97.0187 178.001 114.594 179.375 115.844 188C118.844 191.042 119.651 190.887 126.719 192.25C133.844 193.625 141.844 194 155.094 189.875L169.219 205.375C160.094 212.25 148.219 220.25 119.969 215.125Z" fill="#333742"/>
<path d="M206.969 185.75C206.969 182.27 201.685 168.247 198.844 161.375L185.969 169.838C187.953 173.821 187.804 187.959 183.042 189.632C177.088 191.724 139.61 185.599 137.581 187.093C135.957 188.288 134.469 198.197 134.469 201.135C147.187 206.214 184.394 217.866 195.759 209.65C201.736 205.329 206.969 197.701 206.969 185.75Z" fill="#343844"/>
<path d="M125.469 185.5C126.369 185 133.594 186.958 137.094 188C136.094 188.8 134.844 198.542 134.719 199.875C133.719 199.958 131.469 195.404 129.594 194.25C127.219 192.789 124.552 191.917 122.969 191.5C123.01 191.125 123.144 190.2 123.344 189.5C123.594 188.625 124.344 186.125 125.469 185.5Z" fill="#2F323D"/>
<path opacity="0.5" d="M188.719 108.639C194.241 108.639 198.719 103.77 198.719 97.7635C198.719 91.7573 194.241 86.8885 188.719 86.8885C183.196 86.8885 178.719 91.7573 178.719 97.7635C178.719 103.77 183.196 108.639 188.719 108.639Z" fill="#C99584"/>
<path opacity="0.5" d="M113.719 108.639C108.196 108.639 103.719 103.77 103.719 97.7635C103.719 91.7573 108.196 86.8885 113.719 86.8885C119.241 86.8885 123.719 91.7573 123.719 97.7635C123.719 103.77 119.241 108.639 113.719 108.639Z" fill="#C99584"/>
<path d="M113.719 73.5805C113.719 52.87 130.508 36.0806 151.219 36.0806C171.93 36.0806 188.719 52.87 188.719 73.5805V87.292C188.719 89.5197 188.549 91.744 188.209 93.9457L185.918 108.822C183.286 125.905 168.586 138.513 151.302 138.513C134.385 138.513 119.886 126.422 116.848 109.78L114.429 96.5307C113.957 93.9412 113.719 91.3142 113.719 88.682V73.5805Z" fill="#F4D5CC"/>
<path d="M111.344 62.2635C111.176 47.0109 124.594 42.0136 122.219 44.8885C119.844 47.7634 125.469 54.8885 122.219 57.1385C118.969 59.3885 122.594 66.6387 120.844 69.3887C119.094 72.1387 116.3 71.5137 114.719 76.8887C113.138 82.2637 114.469 92.728 114.469 92.728C114.594 93.0137 114.469 93.3887 114.219 93.3887C113.969 93.3887 113.594 93.2637 113.492 92.728C113.492 92.728 111.594 85.0135 111.344 62.2635Z" fill="#868686"/>
<path d="M190.967 62.647C191.122 48.5626 178.736 43.9479 180.929 46.6027C183.121 49.2574 177.928 55.8367 180.929 57.9145C183.929 59.9922 180.583 66.687 182.198 69.2265C183.813 71.7657 186.392 71.1887 187.852 76.152C189.311 81.1155 188.083 90.7782 188.083 90.7782C187.967 91.0422 188.083 91.3885 188.313 91.3885C188.544 91.3885 188.89 91.273 188.984 90.7782C188.984 90.7782 190.736 83.6547 190.967 62.647Z" fill="#868686"/>
<path d="M152.469 53.1385C131.719 53.1385 117.416 56.5135 114.219 63.4355C111.022 70.3575 111.754 72.5135 111.594 70.6385C111.434 68.7635 111.219 66.67 111.219 62.8885C111.219 38.3415 128.344 34.638 143.844 36.1382C159.344 37.6383 171.434 53.1385 152.469 53.1385Z" fill="#706F6F"/>
<path d="M149.8 53.0157C168.837 53.0157 187.934 45.8498 188.719 59.7632C191.719 64.5132 190.594 70.0135 190.969 62.2632C192.584 28.8884 141.719 6.42029 115.719 45.2953C115.719 45.2953 130.761 53.0157 149.8 53.0157Z" fill="#706F6F"/>
<path d="M150.201 90.2097L153.737 92.5672C152.535 94.37 151.594 97.0761 151.594 99.0447C151.594 100.943 152.279 101.741 154.378 101.763L154.469 101.763V106.013C149.833 106.013 147.344 103.213 147.344 99.0447C147.344 96.2209 148.518 92.7931 150.113 90.3424L150.201 90.2097Z" fill="#EBBAAA"/>
<path d="M166.969 82.25C168.6 82.25 169.927 83.5521 169.968 85.1738L169.969 85.25V88.75C169.969 90.4069 168.626 91.75 166.969 91.75C165.337 91.75 164.01 90.4479 163.97 88.8262L163.969 88.75V85.25C163.969 83.5931 165.312 82.25 166.969 82.25Z" fill="black"/>
<path d="M135.594 82.25C137.225 82.25 138.552 83.5521 138.593 85.1738L138.594 85.25V88.75C138.594 90.4069 137.251 91.75 135.594 91.75C133.962 91.75 132.635 90.4479 132.595 88.8262L132.594 88.75V85.25C132.594 83.5931 133.937 82.25 135.594 82.25Z" fill="black"/>
<path d="M141.219 54.7635C131.594 52.42 119.094 57.7635 111.344 59.1385C111.344 42.2634 129.344 25.0134 149.969 24.5134C170.594 24.0134 183.344 37.6384 186.594 44.3884C187.858 47.0134 184.969 51.8705 178.219 54.7635C170.344 58.1385 155.594 58.2635 141.219 54.7635Z" fill="#2B2A2A"/>
<path d="M159.664 78.615L157.6 74.1683L171.727 70.915L176.247 73.491L176.488 75.9793L169.549 75.6473L159.664 78.615Z" fill="#393939"/>
<path d="M141.783 78.4695L143.767 73.9828L129.481 71.0093L124.986 73.674L124.795 76.1668L131.773 75.6978L141.783 78.4695Z" fill="#393939"/>
<path d="M162.015 111.84C162.594 110.9 163.826 110.606 164.767 111.185C165.708 111.764 166.001 112.996 165.422 113.937C164.624 115.234 162.895 116.652 160.746 117.72C158.152 119.008 155.083 119.75 151.719 119.75C148.348 119.75 145.427 119.008 142.977 117.69C141.106 116.683 139.628 115.401 138.633 114.108C137.96 113.232 138.124 111.977 138.999 111.303C139.857 110.643 141.079 110.787 141.762 111.616L141.804 111.669C142.463 112.525 143.511 113.435 144.873 114.167C146.742 115.173 149.012 115.75 151.719 115.75C154.456 115.75 156.918 115.155 158.966 114.137C160.46 113.395 161.6 112.471 161.989 111.882L162.015 111.84Z" fill="#C99584"/>
</svg>
