<svg width="300" height="400" viewBox="0 0 300 400" fill="none" xmlns="http://www.w3.org/2000/svg">
<path d="M116.625 142.639C115.155 132.389 122.275 122.935 132.527 121.523L170.059 116.353C181.269 114.809 191.549 122.94 192.631 134.207C193.686 145.197 185.561 154.884 174.554 155.758L136.775 158.757C126.873 159.543 118.035 152.474 116.625 142.639Z" fill="#2F200F"/>
<path d="M165.369 70.6925C178.456 70.6925 178.021 85.322 183.757 90.766C185.521 101.176 177.4 121.814 182.67 134.794C189.526 143.694 187.229 147.467 186.362 148.416C186.255 148.505 186.165 148.589 186.094 148.668C186.094 148.668 186.205 148.589 186.362 148.416C188.169 146.918 194.914 143.886 196.563 136.608C198.408 128.459 203.565 133.466 203.305 123.73C202.958 110.767 196.409 83.0521 192.619 73.7356C189.392 65.8036 180.069 55.6177 165.369 55.6177C157.841 57.1983 163.09 70.6925 165.369 70.6925Z" fill="#3D2C18"/>
<rect x="138.407" y="133.519" width="22.744" height="29.1832" rx="11.372" fill="#F1D3CB"/>
<path d="M108.147 73.061C108.147 52.7607 125.906 36.304 147.813 36.304C169.72 36.304 187.478 52.7607 187.478 73.061L184.932 109.62C181.733 133.335 165.087 146.377 147.813 146.377C130.539 146.377 113.039 130.568 110.694 109.62L108.147 73.061Z" fill="#F6DDD6"/>
<path fill-rule="evenodd" clip-rule="evenodd" d="M137.899 119.868C137.898 119.91 137.898 119.951 137.898 119.993V123.081C137.898 128.441 142.24 132.786 147.597 132.786C152.954 132.786 157.297 128.441 157.297 123.081V119.993C157.297 119.951 157.296 119.91 157.296 119.868H137.899Z" fill="#393939"/>
<mask id="mask0_0_2786" style="mask-type:luminance" maskUnits="userSpaceOnUse" x="137" y="118" width="21" height="15">
<path fill-rule="evenodd" clip-rule="evenodd" d="M138.056 118.241C137.952 118.809 137.898 119.395 137.898 119.993V123.081C137.898 128.441 142.24 132.786 147.597 132.786C152.954 132.786 157.297 128.441 157.297 123.081V119.993C157.297 119.395 157.243 118.809 157.139 118.241H138.056Z" fill="white"/>
</mask>
<g mask="url(#mask0_0_2786)">
<path d="M147.597 135.834C150.827 135.834 153.446 134.437 153.446 132.713C153.446 130.99 150.827 129.593 147.597 129.593C144.367 129.593 141.748 130.99 141.748 132.713C141.748 134.437 144.367 135.834 147.597 135.834Z" fill="#FF6C6C"/>
<rect x="137.898" y="119.868" width="19.3986" height="3.91891" fill="white"/>
</g>
<path d="M130.383 82.9141C132.575 82.7247 134.729 82.812 136.711 83.0725C137.089 83.1223 137.436 83.1754 137.747 83.2293L138.01 83.2767C138.154 83.3037 138.262 83.3257 138.331 83.3409C139.155 83.5226 139.676 84.3382 139.494 85.1625C139.317 85.9682 138.534 86.4841 137.73 86.3376L137.569 86.3047C137.51 86.2931 137.432 86.2784 137.337 86.2612C137.04 86.2078 136.697 86.154 136.312 86.1035C134.536 85.8698 132.596 85.7913 130.646 85.9598C129.184 86.086 127.695 86.355 126.238 86.7243C125.506 86.9099 124.831 87.1085 124.23 87.3064L124.03 87.3731C123.966 87.3947 123.905 87.4156 123.847 87.4358L123.613 87.5194L123.509 87.5581C122.722 87.8627 121.838 87.4714 121.533 86.6841C121.229 85.8968 121.62 85.0116 122.407 84.707L122.567 84.6467C122.724 84.5894 122.934 84.5155 123.195 84.4289L123.275 84.4025C123.941 84.1832 124.684 83.9647 125.488 83.7609C127.095 83.3535 128.743 83.0557 130.383 82.9141Z" fill="#46413D"/>
<path d="M158.042 82.6973C160.157 82.5254 162.502 82.5555 164.826 82.9303C166.204 83.1527 167.557 83.4976 168.86 83.932C169.691 84.2092 170.454 84.5065 171.134 84.8051L171.369 84.9101C171.665 85.0438 171.885 85.1515 172.023 85.2236C172.771 85.6143 173.061 86.5377 172.67 87.286C172.289 88.0165 171.4 88.3101 170.663 87.9602L170.48 87.8692L170.445 87.852C170.292 87.7781 170.111 87.6947 169.905 87.6041C169.308 87.3419 168.632 87.0784 167.894 86.8322C166.74 86.4475 165.546 86.1429 164.34 85.9484C162.29 85.6178 160.179 85.5907 158.289 85.7443L158.066 85.7635C157.995 85.77 157.927 85.7766 157.861 85.7832L157.565 85.816L157.481 85.8268C156.645 85.9437 155.873 85.3607 155.756 84.5246C155.639 83.6886 156.222 82.9161 157.058 82.7992L157.242 82.7755C157.438 82.7521 157.707 82.7245 158.042 82.6973Z" fill="#46413D"/>
<path d="M134.034 92.6774C134.729 92.5698 135.379 93.0461 135.487 93.7413C135.592 94.4182 135.143 95.053 134.478 95.1853L134.424 95.1949L127.565 96.2573C126.87 96.3649 126.22 95.8886 126.112 95.1934C126.008 94.5165 126.456 93.8816 127.121 93.7493L127.176 93.7397L134.034 92.6774Z" fill="black"/>
<path d="M159.077 93.0907C159.182 92.4138 159.801 91.9444 160.475 92.0195L160.53 92.0268L167.388 93.0888C168.083 93.1964 168.559 93.8472 168.452 94.5424C168.347 95.2193 167.728 95.6888 167.054 95.6137L166.999 95.6064L160.141 94.5443C159.446 94.4367 158.97 93.7859 159.077 93.0907Z" fill="black"/>
<path d="M129.879 93.7629C129.975 92.0773 131.418 90.7882 133.103 90.8838C134.762 90.9778 136.036 92.3791 135.984 94.0313L135.981 94.1089L135.714 98.8063C135.619 100.492 134.176 101.781 132.491 101.685C130.832 101.591 129.558 100.19 129.61 98.5379L129.613 98.4603L129.879 93.7629Z" fill="black"/>
<path d="M158.862 93.1123C158.958 91.4267 160.401 90.1376 162.086 90.2331C163.744 90.3272 165.019 91.7285 164.967 93.3806L164.963 93.4582L164.697 98.1559C164.602 99.8415 163.158 101.131 161.474 101.035C159.815 100.941 158.54 99.5397 158.593 97.8876L158.596 97.8099L158.862 93.1123Z" fill="black"/>
<path d="M146.805 89.5281L151.091 90.1291L151.072 90.2586C150.972 90.8715 150.754 91.6169 150.367 92.7532L148.979 96.7045C148.934 96.8339 148.895 96.9483 148.863 97.0426C148.367 98.4985 147.975 99.7603 147.657 100.951L147.57 101.285C146.86 104.047 146.644 106.201 146.97 107.618C147.262 108.889 147.922 109.424 149.62 109.442L149.712 109.443V113.774C145.943 113.774 143.505 111.863 142.752 108.589C142.215 106.258 142.529 103.385 143.475 99.8351C143.78 98.6904 144.143 97.5044 144.585 96.1825L144.883 95.3051C145.28 94.1591 146.088 91.8842 146.148 91.7122L146.256 91.3977C146.565 90.4898 146.739 89.9029 146.795 89.5925L146.805 89.5281Z" fill="#EBBAAA"/>
<path d="M175.267 111.138C175.157 112.812 173.027 115.286 170.673 114.171C168.319 113.056 166.632 108.774 166.741 107.1C166.851 105.427 169.07 101.606 171.424 102.721C173.779 103.836 175.377 109.464 175.267 111.138Z" fill="#F2CACA"/>
<path d="M120.234 113.19C120.344 114.864 122.474 117.338 124.829 116.223C127.183 115.107 128.87 110.826 128.76 109.152C128.65 107.478 126.431 103.658 124.077 104.773C121.723 105.888 120.124 111.516 120.234 113.19Z" fill="#F2CACA"/>
<path d="M120.329 84.3188C126.695 77.6468 128.222 51.9556 146.81 51.9556C150.046 51.9556 156.358 34.8696 146.81 32.5C125.931 32.5 112.436 46.967 107.853 58.2326C98.4262 81.4039 83.3018 103.103 89.4127 130.082C91.8933 141.034 113.938 157.629 107.853 165.134C101.768 172.639 118.68 157.119 128.61 147.891C120.329 124.517 113.964 90.9907 120.329 84.3188Z" fill="#3D2C18"/>
<path d="M143.427 35.233C144.121 35.1223 144.774 35.5957 144.884 36.2904C144.995 36.9851 144.522 37.6381 143.827 37.7488L141.759 38.0824C141.178 38.1784 140.796 38.2456 140.376 38.3244C139.352 38.5159 138.589 38.6972 137.859 38.9262L137.738 38.9648C136.609 39.3289 135.456 39.8361 133.373 40.8738C132.744 41.1873 131.979 40.9309 131.666 40.3012C131.353 39.6714 131.609 38.9068 132.238 38.5932L132.664 38.3823C134.594 37.4303 135.764 36.925 136.957 36.5402C137.791 36.2711 138.635 36.0637 139.724 35.8551L140.486 35.7149C141.112 35.6041 141.864 35.4822 143.427 35.233Z" fill="#6E5232"/>
<path d="M144.05 39.8345C144.752 39.7872 145.359 40.3177 145.406 41.0196C145.454 41.7215 144.923 42.3289 144.222 42.3763L143.911 42.3986C141.011 42.6197 139.721 43.1048 136.903 44.8137C136.301 45.1784 135.518 44.9863 135.154 44.3847C134.79 43.7831 134.982 42.9998 135.583 42.6352L135.897 42.4461C138.936 40.6303 140.603 40.0675 144.05 39.8345Z" fill="#6E5232"/>
<path d="M118.609 153.193C121.953 153.353 126.634 149.483 128.557 147.528C128.038 154.131 123.348 156.562 121.3 157.728C118.574 159.281 117.264 164.764 115.475 167.072C115.008 165.905 110.27 161.037 111.19 157.417C112.34 152.892 114.43 152.992 118.609 153.193Z" fill="#3D2C18"/>
<path d="M119.438 140.379C116.764 135.229 117.269 125.891 116.51 120.798C122.076 128.127 122.773 135.478 125.668 139.007C133.442 148.485 125.938 155.365 127.077 160.582C124.14 156.716 123.385 154.222 123.385 148.859C123.385 141.695 122.709 146.68 119.438 140.379Z" fill="#3D2C18"/>
<path d="M112.596 147.384C115.939 147.545 120.621 143.675 122.544 141.72C122.025 148.322 122.512 163.4 118.435 159.873C114.357 156.347 107.217 157.328 105.428 159.636C104.961 158.469 104.257 155.229 105.177 151.609C106.327 147.084 108.416 147.184 112.596 147.384Z" fill="#3D2C18"/>
<path d="M151.518 53.9106C170.105 53.9106 163.933 63.0021 183.476 72.8827C187.073 79.1891 186.952 92.3496 184.661 112.73C183.213 125.607 180.993 138.843 185.998 145.34C190.414 151.073 192.062 154.034 192.416 155.505C191.681 155.804 190.992 155.528 190.22 156.392C190.22 156.392 192.984 157.866 192.416 155.505C193.377 155.113 194.416 153.736 195.822 147.529C198.443 135.956 205.768 143.067 205.398 129.238C204.906 110.828 195.604 71.4647 190.22 58.2326C185.637 46.967 172.397 32.5 151.518 32.5C140.826 34.7449 148.282 53.9106 151.518 53.9106Z" fill="#3D2C18"/>
<path fill-rule="evenodd" clip-rule="evenodd" d="M184.515 112.253C190.317 112.08 194.912 107.59 194.797 102.183C194.695 97.4171 190.968 93.5194 186.11 92.7136L184.932 109.62C184.812 110.513 184.673 111.39 184.515 112.253Z" fill="#EBBAAA"/>
<path d="M188.431 112.347C189.898 112.347 191.087 111.182 191.087 109.745C191.087 108.308 189.898 107.143 188.431 107.143C186.963 107.143 185.774 108.308 185.774 109.745C185.774 111.182 186.963 112.347 188.431 112.347Z" fill="white"/>
<path d="M191.62 138.236C192.42 132.636 189.245 121.487 187.558 116.613C194.386 122.834 196.05 132.835 196.887 137.287C198 143.214 201.034 155.485 203.118 160.414C201.805 160.272 198.273 158.862 194.649 154.362C190.119 148.737 190.619 145.237 191.62 138.236Z" fill="#3D2C18"/>
<path d="M192.917 136.824C189.336 132.233 188.107 122.96 186.419 118.086C193.248 124.307 197.984 130.547 201.482 133.504C210.879 141.448 202.078 150.41 204.162 155.339C200.559 152.058 199.355 149.738 198.365 144.464C197.041 137.418 197.298 142.441 192.917 136.824Z" fill="#3D2C18"/>
<path d="M184.313 143.865C185.113 138.264 186 134.158 184.313 129.284C191.141 135.505 202.989 139.804 198.519 143.944C194.048 148.084 193.727 161.114 195.811 166.043C194.498 165.9 190.966 164.491 187.342 159.991C182.812 154.366 183.312 150.866 184.313 143.865Z" fill="#3D2C18"/>
<path d="M180.724 67.8156C183.191 72.9282 192.089 80.5436 196.229 83.7119C187.036 82.1804 182.844 88.5268 168.803 75.3838C154.761 62.2409 154.838 56.2309 150.336 53.2294C151.513 52.6427 163.611 54.1455 169.161 55.9605C176.098 58.2293 177.64 61.4246 180.724 67.8156Z" fill="#3D2C18"/>
<path d="M171.248 260.333C172.968 268.042 173.755 284.918 174.017 310.675L174.051 314.47C174.111 321.879 174.126 328.705 174.117 339.023L174.1 353.105L174.1 353.72H158.823L158.842 336.073C158.846 326.919 158.826 320.555 158.766 313.5L158.749 311.692C158.51 287.084 157.754 270.289 156.38 263.859L156.337 263.663L171.248 260.333Z" fill="#F6DDD6"/>
<path d="M129.051 258.9L143.961 262.23C142.643 268.137 141.632 285.467 141.506 304.365L141.502 304.939C141.388 324.995 142.277 342.404 143.896 349.628L143.945 349.844L129.066 353.311C127.072 344.744 126.122 326.682 126.222 305.494L126.225 304.851C126.34 284.829 127.379 266.665 129.001 259.125L129.051 258.9Z" fill="#F6DDD6"/>
<path d="M195.469 331.001L182.738 228.318H168.48C164.406 261.134 167.767 335.024 173.063 336.295C178.359 337.564 193.772 333.824 195.469 331.001Z" fill="#C8CEE7"/>
<path opacity="0.44" d="M164.693 262.828C164.323 264.7 165.569 266.523 167.476 266.9C169.384 267.278 171.23 266.066 171.6 264.195C171.97 262.324 170.723 260.501 168.816 260.123C166.909 259.746 165.063 260.957 164.693 262.828Z" fill="white"/>
<path opacity="0.44" d="M166.771 278.38C166.401 280.252 167.648 282.075 169.555 282.452C171.462 282.83 173.309 281.619 173.678 279.747C174.048 277.876 172.802 276.053 170.895 275.675C168.987 275.298 167.141 276.509 166.771 278.38Z" fill="white"/>
<path d="M102.251 325.096L120.378 207.365L169.417 228.319C173.491 259.248 168.25 338.231 162.825 338.557C129.559 340.557 129.731 341.316 114.982 336.662C102.582 332.749 103.027 326.312 102.251 325.096Z" fill="#BCC5E9"/>
<path d="M152.44 242.009L106.824 227.61C106.185 227.408 105.812 226.746 105.97 226.094L106.962 222.014L154.096 236.545V240.794C154.096 241.654 153.26 242.267 152.44 242.009Z" fill="white"/>
<path d="M150.696 258.717L153.016 235.385C153.076 234.778 153.564 234.304 154.177 234.257L157.057 234.037L156.268 259.423L152.192 260.106C151.358 260.246 150.613 259.554 150.696 258.717Z" fill="white"/>
<path d="M164.811 255.965L157.408 238.155C157.173 237.59 156.57 237.273 155.971 237.399L153.763 237.864L160.608 258.096L163.784 257.72C164.623 257.621 165.136 256.746 164.811 255.965Z" fill="white"/>
<path d="M159.053 242.1L188.675 230.841C189.213 230.636 189.546 230.097 189.489 229.524L189.077 225.381L155.722 235.483L157.377 241.26C157.582 241.977 158.356 242.365 159.053 242.1Z" fill="white"/>
<path d="M156.381 348.668C157.186 346.88 158.313 345.092 159.709 343.357C159.87 343.148 160.138 343.094 160.353 343.252C168.994 350.824 171.383 353.088 181.292 357.682C181.346 357.628 181.453 357.628 181.56 357.682C184.566 358.785 190.202 360.257 192.509 361.834C192.939 362.203 193.368 364.613 192.509 365.036C189.289 366.771 175.427 368.249 171.24 366.252C168.235 364.833 165.452 362.718 162.875 360.143C161.534 358.828 159.87 357.356 159.709 360.196V365.831C159.709 366.043 159.494 366.252 159.279 366.252H157.562C157.293 366.252 157.132 366.043 157.132 365.831V361.834C155.656 360.7 153.644 354.979 156.381 348.668Z" fill="#414141"/>
<path d="M146.245 348.668C145.44 346.88 144.313 345.092 142.917 343.357C142.756 343.148 142.488 343.094 142.273 343.252C133.632 350.824 131.243 353.088 121.334 357.682C121.281 357.628 121.173 357.628 121.066 357.682C118.06 358.785 112.425 360.257 110.117 361.834C109.687 362.203 109.258 364.613 110.117 365.036C113.337 366.771 127.199 368.249 131.386 366.252C134.391 364.833 137.174 362.718 139.751 360.143C141.093 358.828 142.756 357.356 142.917 360.196V365.831C142.917 366.043 143.132 366.252 143.347 366.252H145.064C145.333 366.252 145.494 366.043 145.494 365.831V361.834C146.97 360.7 148.982 354.979 146.245 348.668Z" fill="#414141"/>
<g opacity="0.5">
<path d="M161.774 247.998C161.474 249.882 162.789 251.656 164.71 251.962C166.63 252.267 168.43 250.988 168.729 249.104C169.028 247.221 167.714 245.446 165.793 245.141C163.872 244.836 162.073 246.115 161.774 247.998Z" fill="white"/>
<path d="M173.569 245.257C173.27 247.141 174.584 248.915 176.505 249.221C178.425 249.526 180.225 248.247 180.524 246.364C180.824 244.48 179.509 242.706 177.588 242.4C175.668 242.095 173.868 243.374 173.569 245.257Z" fill="white"/>
<path d="M176.233 260.724C175.934 262.607 177.248 264.382 179.169 264.687C181.09 264.993 182.889 263.714 183.189 261.83C183.488 259.947 182.173 258.172 180.253 257.867C178.332 257.561 176.532 258.84 176.233 260.724Z" fill="white"/>
<path d="M178.898 276.19C178.599 278.074 179.913 279.848 181.834 280.154C183.755 280.459 185.554 279.18 185.853 277.296C186.153 275.413 184.838 273.638 182.917 273.333C180.997 273.028 179.197 274.307 178.898 276.19Z" fill="white"/>
<path d="M181.547 291.751C181.248 293.635 182.562 295.409 184.483 295.715C186.404 296.02 188.203 294.741 188.502 292.857C188.802 290.974 187.487 289.2 185.566 288.894C183.646 288.589 181.846 289.868 181.547 291.751Z" fill="white"/>
<path d="M184.206 307.248C183.907 309.131 185.222 310.906 187.142 311.211C189.063 311.517 190.863 310.237 191.162 308.354C191.461 306.471 190.147 304.696 188.226 304.391C186.305 304.085 184.506 305.364 184.206 307.248Z" fill="white"/>
<path d="M186.891 322.589C186.592 324.473 187.906 326.247 189.827 326.553C191.748 326.858 193.547 325.579 193.847 323.695C194.146 321.812 192.831 320.037 190.911 319.732C188.99 319.427 187.19 320.706 186.891 322.589Z" fill="white"/>
<path d="M169.583 294.979C169.213 296.85 170.46 298.673 172.367 299.051C174.275 299.428 176.121 298.217 176.49 296.345C176.86 294.474 175.614 292.651 173.706 292.274C171.799 291.896 169.953 293.108 169.583 294.979Z" fill="white"/>
<path d="M171.663 310.532C171.293 312.403 172.539 314.226 174.447 314.603C176.354 314.98 178.2 313.769 178.57 311.898C178.94 310.026 177.693 308.203 175.786 307.826C173.879 307.449 172.033 308.66 171.663 310.532Z" fill="white"/>
<path d="M173.742 326.084C173.372 327.956 174.619 329.779 176.526 330.156C178.434 330.533 180.28 329.322 180.649 327.451C181.019 325.579 179.773 323.756 177.865 323.379C175.958 323.002 174.112 324.213 173.742 326.084Z" fill="white"/>
<path d="M159.194 264.219C158.895 266.103 160.209 267.877 162.13 268.183C164.051 268.488 165.85 267.209 166.15 265.326C166.449 263.442 165.134 261.668 163.214 261.362C161.293 261.057 159.493 262.336 159.194 264.219Z" fill="white"/>
<path d="M156.601 280.518C156.301 282.402 157.616 284.176 159.537 284.482C161.457 284.787 163.257 283.508 163.556 281.624C163.855 279.741 162.541 277.966 160.62 277.661C158.699 277.356 156.9 278.635 156.601 280.518Z" fill="white"/>
<path d="M154.015 296.773C153.716 298.656 155.031 300.43 156.951 300.736C158.872 301.041 160.672 299.762 160.971 297.879C161.27 295.995 159.956 294.221 158.035 293.915C156.114 293.61 154.315 294.889 154.015 296.773Z" fill="white"/>
<path d="M151.455 312.883C151.156 314.767 152.471 316.541 154.391 316.846C156.312 317.152 158.112 315.873 158.411 313.989C158.71 312.106 157.396 310.331 155.475 310.026C153.554 309.72 151.755 311 151.455 312.883Z" fill="white"/>
<path d="M147.851 245.873C147.552 247.757 148.866 249.531 150.787 249.837C152.707 250.142 154.507 248.863 154.806 246.979C155.106 245.096 153.791 243.322 151.87 243.016C149.95 242.711 148.15 243.99 147.851 245.873Z" fill="white"/>
<path d="M145.271 262.095C144.972 263.978 146.286 265.752 148.207 266.058C150.128 266.363 151.927 265.084 152.227 263.201C152.526 261.317 151.211 259.543 149.291 259.237C147.37 258.932 145.57 260.211 145.271 262.095Z" fill="white"/>
<path d="M142.677 278.393C142.377 280.277 143.692 282.051 145.613 282.357C147.533 282.662 149.333 281.383 149.632 279.5C149.931 277.616 148.617 275.842 146.696 275.536C144.776 275.231 142.976 276.51 142.677 278.393Z" fill="white"/>
<path d="M140.092 294.648C139.793 296.531 141.107 298.306 143.028 298.611C144.949 298.917 146.748 297.637 147.048 295.754C147.347 293.871 146.032 292.096 144.112 291.791C142.191 291.485 140.391 292.764 140.092 294.648Z" fill="white"/>
<path d="M137.533 310.758C137.233 312.642 138.548 314.416 140.469 314.722C142.389 315.027 144.189 313.748 144.488 311.865C144.787 309.981 143.473 308.207 141.552 307.901C139.631 307.596 137.832 308.875 137.533 310.758Z" fill="white"/>
<path d="M133.928 243.749C133.628 245.632 134.943 247.407 136.864 247.712C138.784 248.018 140.584 246.738 140.883 244.855C141.182 242.971 139.868 241.197 137.947 240.892C136.026 240.586 134.227 241.865 133.928 243.749Z" fill="white"/>
<path d="M131.348 259.97C131.049 261.853 132.364 263.628 134.284 263.933C136.205 264.238 138.005 262.959 138.304 261.076C138.603 259.192 137.289 257.418 135.368 257.112C133.447 256.807 131.648 258.086 131.348 259.97Z" fill="white"/>
<path d="M128.753 276.268C128.454 278.152 129.768 279.926 131.689 280.232C133.61 280.537 135.409 279.258 135.709 277.375C136.008 275.491 134.693 273.717 132.773 273.411C130.852 273.106 129.052 274.385 128.753 276.268Z" fill="white"/>
<path d="M126.168 292.523C125.869 294.407 127.183 296.181 129.104 296.487C131.025 296.792 132.824 295.513 133.124 293.629C133.423 291.746 132.108 289.971 130.188 289.666C128.267 289.361 126.467 290.64 126.168 292.523Z" fill="white"/>
<path d="M123.61 308.631C123.311 310.515 124.625 312.289 126.546 312.595C128.466 312.9 130.266 311.621 130.565 309.737C130.865 307.854 129.55 306.08 127.629 305.774C125.709 305.469 123.909 306.748 123.61 308.631Z" fill="white"/>
<path d="M120.005 241.624C119.706 243.507 121.02 245.282 122.941 245.587C124.862 245.893 126.661 244.613 126.96 242.73C127.26 240.847 125.945 239.072 124.024 238.767C122.104 238.461 120.304 239.74 120.005 241.624Z" fill="white"/>
<path d="M117.425 257.845C117.126 259.728 118.44 261.503 120.361 261.808C122.282 262.114 124.082 260.835 124.381 258.951C124.68 257.068 123.365 255.293 121.445 254.988C119.524 254.682 117.724 255.962 117.425 257.845Z" fill="white"/>
<path d="M114.83 274.144C114.53 276.027 115.845 277.802 117.766 278.107C119.686 278.412 121.486 277.133 121.785 275.25C122.084 273.366 120.77 271.592 118.849 271.286C116.928 270.981 115.129 272.26 114.83 274.144Z" fill="white"/>
<path d="M112.245 290.399C111.945 292.282 113.26 294.057 115.181 294.362C117.101 294.667 118.901 293.388 119.2 291.505C119.499 289.621 118.185 287.847 116.264 287.541C114.343 287.236 112.544 288.515 112.245 290.399Z" fill="white"/>
<path d="M109.687 306.509C109.388 308.393 110.702 310.167 112.623 310.472C114.544 310.778 116.343 309.499 116.642 307.615C116.942 305.732 115.627 303.957 113.706 303.652C111.786 303.346 109.986 304.626 109.687 306.509Z" fill="white"/>
<path d="M148.518 329.103C148.218 330.987 149.533 332.761 151.453 333.067C153.374 333.372 155.174 332.093 155.473 330.209C155.772 328.326 154.458 326.551 152.537 326.246C150.616 325.941 148.817 327.22 148.518 329.103Z" fill="white"/>
<path d="M134.595 326.979C134.295 328.862 135.61 330.636 137.531 330.942C139.451 331.247 141.251 329.968 141.55 328.085C141.849 326.201 140.535 324.427 138.614 324.121C136.693 323.816 134.894 325.095 134.595 326.979Z" fill="white"/>
<path d="M120.672 324.854C120.373 326.737 121.687 328.512 123.608 328.817C125.529 329.123 127.328 327.844 127.627 325.96C127.927 324.077 126.612 322.302 124.691 321.997C122.771 321.691 120.971 322.97 120.672 324.854Z" fill="white"/>
<path d="M106.749 322.729C106.45 324.613 107.764 326.387 109.685 326.693C111.606 326.998 113.405 325.719 113.704 323.835C114.004 321.952 112.689 320.178 110.768 319.872C108.848 319.567 107.048 320.846 106.749 322.729Z" fill="white"/>
</g>
<path d="M174.634 156.42L188.568 214.101C188.568 214.101 188.568 216.72 186.912 218.092C185.257 219.464 183.73 227.611 183.73 227.611L161.013 233.782C161.013 233.782 141.386 230.58 139.55 230.26C139.089 230.18 136.56 228.319 136.56 228.319L124.536 226.699C124.536 226.699 116.892 221.709 115.364 219.588C113.837 217.468 114.473 213.477 114.473 213.477L116.228 183.113L126.639 156.42L145.537 158.914L174.634 156.42Z" fill="#BCC5E8"/>
<path d="M125.827 173.816L124.869 175.408C124.359 176.258 123.774 177.241 123.457 177.794C122.335 179.748 121.311 181.695 120.35 183.765C118.084 188.642 116.423 193.64 115.54 198.757L115.489 199.055L135.857 168.831C138.737 164.558 144.504 163.398 148.805 166.199L148.935 166.285C153.206 169.167 154.365 174.937 151.566 179.24L151.48 179.37L116.683 231.006L100.067 229.09C96.2605 219.085 95.2214 208.877 96.503 198.695C97.5125 190.675 99.8898 183.08 103.264 175.818C104.395 173.383 105.584 171.103 106.863 168.851L107.184 168.291C107.591 167.586 108.235 166.504 108.755 165.636L109.668 164.122C112.315 159.784 117.931 158.328 122.35 160.834L122.485 160.912C126.97 163.552 128.466 169.33 125.827 173.816Z" fill="#F6DDD6"/>
<path d="M118.751 152.171C129.104 150.247 138.575 149.105 143.618 149.446L123.016 186.418C111.017 189.143 100.166 188.916 94.8489 186.418C94.3396 178.235 108.398 154.095 118.751 152.171Z" fill="#BCC5E8"/>
<path d="M185.401 152.171C179.47 152.171 166.056 149.063 161.013 149.404L181.919 186.418C193.918 189.143 211.42 197.612 211.929 189.43C212.438 181.247 195.835 152.171 185.401 152.171Z" fill="#BCC5E8"/>
<path d="M142.205 158.987L159.242 157.11L153.495 184.524L142.205 165.827V158.987Z" fill="#F1D3CB"/>
<path d="M154.576 179.632C156.613 169.256 159.54 152.29 161.145 149.47C162.383 149.47 167.132 149.265 167.699 150.309C168.265 151.354 169.119 149.501 165.718 157.172C162.317 164.842 156.953 181.589 154.067 188.739L139.593 170.671L131.201 151.552C131.031 150.554 136.019 147.915 142.13 150.309C144.57 156.714 152.03 192.603 154.576 179.632Z" fill="white"/>
<path d="M136.56 142.134H148.17L146.388 174.101H139.106L136.56 142.134Z" fill="#0A0A08"/>
<path d="M142.365 148.924C145.916 148.924 148.794 146.105 148.794 142.627C148.794 139.149 145.916 136.329 142.365 136.329C138.815 136.329 135.937 139.149 135.937 142.627C135.937 146.105 138.815 148.924 142.365 148.924Z" fill="#878787"/>
<path fill-rule="evenodd" clip-rule="evenodd" d="M176.11 166.73C181.209 165.695 186.182 168.991 187.217 174.092L168.752 177.843C167.717 172.741 171.011 167.766 176.11 166.73ZM168.752 177.843L177.922 223.039L177.922 223.039L196.059 224.241L196.059 224.242C196.059 224.242 196.059 224.242 196.059 224.241C197.175 221.012 198.644 217.271 200.266 213.142C201.554 209.863 202.938 206.339 204.318 202.63C205.778 198.705 207.171 194.714 208.151 191.183C209 188.125 210.019 183.847 209.542 180.108L190.852 182.495C190.83 182.327 190.829 182.334 190.795 182.563C190.734 182.97 190.568 184.077 189.996 186.139C189.934 186.364 189.869 186.593 189.801 186.827L187.217 174.092L168.752 177.843ZM189.801 186.827C189.041 189.443 187.949 192.588 186.66 196.053C185.574 198.971 184.284 202.268 183.003 205.542C181.201 210.146 179.419 214.702 178.25 218.086L196.059 224.241L196.059 224.241L187.155 221.164L196.387 219.289L189.801 186.827Z" fill="#F6DDD6"/>
<path d="M186.589 152.421C180.657 152.421 197.936 168.434 192.893 168.775L191.567 174.552C203.566 177.278 211.42 197.03 211.929 188.848C212.438 180.666 198.741 155.985 186.589 152.421Z" fill="#BCC5E8"/>
<path d="M133.311 168.831C136.22 164.515 142.075 163.375 146.389 166.285C150.66 169.167 151.819 174.937 149.02 179.24L148.934 179.37L131.535 205.188C128.626 209.504 122.771 210.644 118.457 207.734C114.186 204.853 113.027 199.082 115.827 194.779L115.913 194.649L133.311 168.831Z" fill="#F6DDD6"/>
</svg>
