<svg width="300" height="400" viewBox="0 0 300 400" fill="none" xmlns="http://www.w3.org/2000/svg">
<path d="M163.364 277.148C167.222 276.37 170.979 278.866 171.758 282.723C173.33 290.515 173.915 303.392 173.93 322.304L173.929 325.058C173.923 328.139 173.904 331.252 173.869 335.12L173.711 351.17C173.696 352.999 173.691 354.256 173.69 355.689L173.69 356.297C173.69 360.233 170.5 363.422 166.565 363.422C162.63 363.422 159.44 360.233 159.44 356.297L159.443 354.191C159.449 352.347 159.464 350.376 159.502 346.631L159.611 335.926C159.658 330.952 159.679 327.256 159.68 323.421L159.68 322.881C159.677 304.663 159.119 292.135 157.789 285.542C157.011 281.684 159.507 277.926 163.364 277.148Z" fill="#EBBAAA"/>
<path d="M127.452 302.711C127.68 298.783 131.05 295.783 134.979 296.012C138.907 296.241 141.906 299.611 141.678 303.539C141.419 307.974 141.128 312.215 140.783 316.679L140.609 318.88L139.524 331.911C139.115 336.917 138.868 340.52 138.714 344.027C138.497 348.943 138.48 353.498 138.683 358.333C138.849 362.264 135.796 365.586 131.864 365.751C127.933 365.917 124.611 362.864 124.446 358.932C124.234 353.893 124.242 349.126 124.45 344.062L124.478 343.4C124.62 340.164 124.834 336.893 125.166 332.692L125.366 330.224C125.552 328.015 126.264 319.552 126.502 316.524C126.873 311.796 127.181 307.36 127.452 302.711Z" fill="#EBBAAA"/>
<path d="M147.69 278.446C165.294 278.446 179.565 272.19 179.565 264.473C179.565 256.756 165.294 250.5 147.69 250.5C130.086 250.5 115.815 256.756 115.815 264.473C115.815 272.19 130.086 278.446 147.69 278.446Z" fill="#1D1F1E"/>
<path d="M113.666 231.25H152.25L145.417 298.573L140.917 344.713H138.667V348.93H124.167V344.713H121.917L117.042 296.573L113.666 263.14L112 259.138L113.666 231.25Z" fill="#1D1F1E"/>
<path d="M148.75 234.839H187.75L186.002 257.165L184.29 262.892L180.04 297.12L176.165 344.535H173.916V348.93H159.291V344.535H157.041L153.041 301.117L148.75 234.839Z" fill="#1D1F1E"/>
<path d="M96.9409 372.255C96.8908 366.518 97.6724 363.028 102.66 360.683C107.647 358.34 112.345 353.833 120.973 349.968C120.973 349.968 122.109 349.753 123.958 350.753C125.536 351.605 127.562 353.698 130.615 353.673C133.931 353.643 136.886 352.94 138.721 351.978C139.515 349.805 141.274 349.79 141.274 349.79C141.274 349.79 143.751 354.505 143.793 359.243C143.834 363.978 143.83 371.845 143.83 371.845L96.9409 372.255Z" fill="#161616"/>
<path d="M119.174 350.314C119.515 350.162 119.915 350.316 120.067 350.657C120.26 351.092 120.4 351.569 120.495 352.087L120.527 352.269C120.641 352.955 120.667 353.566 120.667 354.585C120.667 355.06 120.193 355.382 119.757 355.22L119.717 355.204L116.42 353.749L117.123 356.3C117.263 356.806 116.801 357.265 116.303 357.136L116.263 357.124L112.952 356.056L112.952 359.052C112.952 359.551 112.434 359.874 111.991 359.667L111.953 359.647L109.704 358.428L109.704 360.677C109.704 361.037 109.423 361.332 109.069 361.353L109.027 361.354C108.667 361.354 108.373 361.073 108.352 360.719L108.351 360.677V357.292C108.351 356.794 108.869 356.471 109.312 356.678L109.35 356.698L111.599 357.916L111.599 355.127C111.599 354.683 112.019 354.363 112.442 354.472L112.483 354.483L115.485 355.451L114.736 352.735C114.588 352.198 115.114 351.728 115.625 351.921L115.661 351.936L119.296 353.539C119.277 353.12 119.242 352.777 119.178 352.411L119.164 352.332C119.087 351.913 118.977 351.537 118.83 351.207C118.678 350.866 118.832 350.466 119.174 350.314Z" fill="white"/>
<path d="M98.8278 361.123C100.358 360.568 101.978 360.148 105.085 359.445L103.765 363.245L103.803 367.575L94.9597 367.653C94.5988 367.655 93.954 367.175 94.2618 365.223C94.6465 362.783 96.6535 361.91 98.8278 361.123Z" fill="#161616"/>
<path d="M143.978 371.108L143.721 366.55L104.07 367.168L94.1833 366.443L93.8812 369.935C93.777 371.143 94.6816 372.2 95.8893 372.283L104.12 372.853L142.914 372.25C143.529 372.24 144.013 371.72 143.978 371.108Z" fill="#808080"/>
<path d="M200.853 372.755C200.903 367.018 200.121 363.528 195.134 361.183C190.147 358.84 185.449 354.333 176.82 350.468C176.82 350.468 175.685 350.253 173.836 351.253C172.258 352.105 170.232 354.198 167.178 354.173C163.863 354.143 160.908 353.44 159.072 352.478C158.279 350.305 156.52 350.29 156.52 350.29C156.52 350.29 154.042 355.005 154.001 359.743C153.96 364.478 153.964 372.345 153.964 372.345L200.853 372.755Z" fill="#161616"/>
<path d="M177.727 351.158C177.879 350.816 178.279 350.662 178.62 350.814C178.962 350.966 179.115 351.366 178.964 351.707C178.817 352.037 178.707 352.413 178.63 352.832C178.565 353.184 178.527 353.509 178.506 353.891L178.498 354.039L182.132 352.436C182.642 352.211 183.184 352.663 183.067 353.197L183.058 353.235L182.308 355.951L185.311 354.983C185.734 354.847 186.167 355.149 186.194 355.585L186.195 355.627L186.195 358.416L188.444 357.198C188.883 356.96 189.413 357.262 189.442 357.75L189.443 357.792V361.177C189.443 361.551 189.14 361.854 188.767 361.854C188.407 361.854 188.112 361.573 188.091 361.219L188.09 361.177L188.09 358.928L185.841 360.147C185.402 360.385 184.872 360.083 184.843 359.595L184.842 359.552L184.842 356.556L181.53 357.624C181.031 357.785 180.552 357.343 180.661 356.84L180.67 356.8L181.374 354.249L178.077 355.704C177.643 355.896 177.157 355.593 177.128 355.128L177.127 355.085L177.128 354.828C177.133 353.877 177.169 353.291 177.299 352.588C177.394 352.069 177.534 351.592 177.727 351.158Z" fill="white"/>
<path d="M198.966 361.623C197.436 361.068 195.815 360.648 192.709 359.945L194.029 363.745L193.991 368.075L202.834 368.153C203.195 368.155 203.84 367.675 203.532 365.723C203.147 363.283 201.14 362.41 198.966 361.623Z" fill="#161616"/>
<path d="M153.816 371.608L154.073 367.05L193.724 367.668L203.611 366.943L203.913 370.435C204.017 371.643 203.112 372.7 201.905 372.783L193.674 373.353L154.88 372.75C154.265 372.74 153.781 372.22 153.816 371.608Z" fill="#808080"/>
<path d="M182.136 172.99C186.586 170.481 192.227 172.053 194.737 176.502C200.662 187.005 205.035 201.843 207.292 217.352C209.441 232.12 209.397 245.475 206.693 252.911C204.947 257.712 199.64 260.189 194.839 258.443C190.086 256.715 187.611 251.496 189.256 246.733L189.307 246.589C190.69 242.785 190.726 231.979 188.985 220.016C187.029 206.58 183.272 193.831 178.624 185.592C176.114 181.142 177.687 175.5 182.136 172.99Z" fill="#EBBAAA"/>
<path d="M99.6885 183.024C102.012 178.474 107.584 176.67 112.134 178.994C116.683 181.317 118.488 186.889 116.164 191.439C112.942 197.746 109.541 210.459 107.765 222.767L107.711 223.14C106.867 229.096 106.485 234.433 106.617 238.349L106.624 238.537C106.676 239.88 106.788 240.973 106.932 241.746L106.963 241.908L106.971 241.917C109.598 244.924 110.051 249.404 107.824 252.933L107.741 253.062C104.946 257.338 99.2132 258.538 94.9374 255.742C91.8818 253.744 90.2113 250.824 89.2303 247.26C88.5966 244.957 88.2556 242.298 88.1379 239.251C87.9381 234.073 88.3931 227.606 89.3943 220.543C91.4178 206.269 95.3424 191.532 99.6885 183.024Z" fill="#EBBAAA"/>
<path d="M107.25 164.375C107.25 158.5 120.125 152.504 129.125 149.653L140.875 145.754C142.511 145.703 153.754 146.17 155.375 146.394L173.625 152.504C182.273 153.7 195.621 157.439 194.75 166.125L185.387 204.325L186.25 253.5C186.268 253.954 165.578 256.523 165.125 256.5L130.75 254.32L112.125 253.483C111.689 253.459 111.464 252.186 111.5 251.75L114.002 199.72L107.25 164.375Z" fill="#EBBAAA"/>
<path d="M192.625 158.5C190.325 156.2 182.75 153.875 179.25 153C181.458 182.5 186.075 242.25 186.875 245.25C187.875 249 209.75 250.5 211.75 249C213.75 247.5 216 233.375 215.5 225.625C215 217.875 195.5 161.375 192.625 158.5Z" fill="#1D191A"/>
<path d="M211.625 249.25C212.725 249.05 215.25 241.917 216.125 239.125L185.375 234.25C185 236.792 184.3 242.3 184.5 244C184.75 246.125 190.5 248 196.75 249C203 250 210.25 249.5 211.625 249.25Z" fill="#413F3A"/>
<path d="M106.48 158.996C108.633 156.697 115.723 154.374 119 153.5C116.933 182.977 112.611 242.681 111.862 245.678C110.926 249.426 90.4487 250.924 88.5765 249.426C86.7043 247.927 84.5981 233.813 85.0661 226.069C85.5342 218.325 103.788 161.868 106.48 158.996Z" fill="#1D191A"/>
<path d="M88.1561 249.654C87.0791 249.455 84.6068 242.368 83.75 239.594L113.859 234.75C114.226 237.276 114.911 242.748 114.715 244.438C114.471 246.549 108.84 248.412 102.721 249.406C96.6013 250.399 89.5025 249.903 88.1561 249.654Z" fill="#413F3A"/>
<rect x="138.361" y="131.75" width="19.5837" height="29.6332" rx="9.47775" fill="#EBBAAA"/>
<path d="M145.25 168.5C144 164.875 144.625 159.875 144.625 159.875L139 161.75L132.25 148.625C124.458 150 124.125 150.5 118.5 153C111.79 155.982 113.125 166 112.125 179.625L110.75 254.25L129.25 257.125L141.625 257.25L147.125 172.625C147.125 172.625 146.5 172.125 145.25 168.5Z" fill="#1D191A"/>
<path d="M150.043 168.375C146.793 165.75 147.335 163.667 147.918 161.625L149.043 160.875L157.293 159.875L165.043 149.375C165.043 149.375 176.168 150.875 179.918 152.875C183.668 154.875 185.918 176.75 185.918 176.75L187.668 254.625L178.168 257.25H141.543C141.21 231.083 142.802 174.716 146.043 173C150.293 170.75 150.793 168.981 150.043 168.375Z" fill="#1D191A"/>
<path d="M158.25 152.875C159.11 150.031 158.25 148 158 146.75L165 149.375C165 149.375 167.375 152.375 165.875 159.25C164.232 166.782 156.964 169.75 155.25 171.75C154.5 172.625 154.75 162 149 160.875C151.625 160.25 156.625 158.25 158.25 152.875Z" fill="#413F3A"/>
<path d="M148.375 179.5C149.411 179.5 150.25 178.661 150.25 177.625C150.25 176.589 149.411 175.75 148.375 175.75C147.339 175.75 146.5 176.589 146.5 177.625C146.5 178.661 147.339 179.5 148.375 179.5Z" fill="#413F3A"/>
<path d="M209.625 247C210.661 247 211.5 246.161 211.5 245.125C211.5 244.089 210.661 243.25 209.625 243.25C208.589 243.25 207.75 244.089 207.75 245.125C207.75 246.161 208.589 247 209.625 247Z" fill="#1D191A"/>
<path d="M91.125 247C92.1605 247 93 246.161 93 245.125C93 244.089 92.1605 243.25 91.125 243.25C90.0895 243.25 89.25 244.089 89.25 245.125C89.25 246.161 90.0895 247 91.125 247Z" fill="#1D191A"/>
<path d="M146.875 197.5C147.911 197.5 148.75 196.605 148.75 195.5C148.75 194.395 147.911 193.5 146.875 193.5C145.839 193.5 145 194.395 145 195.5C145 196.605 145.839 197.5 146.875 197.5Z" fill="#413F3A"/>
<path d="M145.875 215.25C146.911 215.25 147.75 214.411 147.75 213.375C147.75 212.339 146.911 211.5 145.875 211.5C144.839 211.5 144 212.339 144 213.375C144 214.411 144.839 215.25 145.875 215.25Z" fill="#413F3A"/>
<path d="M145.875 233C146.911 233 147.75 232.161 147.75 231.125C147.75 230.089 146.911 229.25 145.875 229.25C144.839 229.25 144 230.089 144 231.125C144 232.161 144.839 233 145.875 233Z" fill="#413F3A"/>
<path d="M145.875 248.75C146.911 248.75 147.75 247.911 147.75 246.875C147.75 245.839 146.911 245 145.875 245C144.839 245 144 245.839 144 246.875C144 247.911 144.839 248.75 145.875 248.75Z" fill="#413F3A"/>
<mask id="mask0_0_2884" style="mask-type:luminance" maskUnits="userSpaceOnUse" x="85" y="153" width="34" height="98">
<path fill-rule="evenodd" clip-rule="evenodd" d="M106.48 158.996C108.633 156.697 115.723 154.374 119 153.5C116.933 182.977 112.611 242.681 111.862 245.678C110.926 249.426 90.4487 250.924 88.5765 249.426C86.7043 247.927 84.5981 233.813 85.0661 226.069C85.5342 218.325 103.788 161.868 106.48 158.996Z" fill="white"/>
</mask>
<g mask="url(#mask0_0_2884)">
<path fill-rule="evenodd" clip-rule="evenodd" d="M78.713 213.296C78.8113 214.062 78.8783 214.585 78.9453 215.109C78.4521 215.117 77.9515 215.177 77.4688 215.109C77.2359 215.077 77.0039 214.832 76.827 214.632C75.9519 213.645 76.9773 209.382 78.2049 208.867C78.6502 208.681 79.1268 208.555 79.5438 208.319C80.791 207.614 81.6322 207.988 82.0342 209.406C82.1761 209.906 82.3729 210.645 82.7239 210.772C83.2681 210.969 84.1184 210.939 84.5452 210.613C84.8285 210.397 84.5988 209.498 84.5988 208.906L84.0032 208.911C84.0247 209.303 84.0465 209.694 84.0735 210.177C83.7459 210.177 83.2912 210.223 83.2791 210.17C83.1464 209.57 82.8325 208.814 83.0709 208.386C83.2921 207.988 84.2394 207.628 84.6649 207.79C85.8297 208.234 87.4536 208.026 87.9083 209.709C89.8923 209.674 90.4586 211.719 91.8919 212.534C92.3671 212.805 92.7562 214.104 92.5093 214.569C92.1849 215.182 91.2253 215.531 90.47 215.788C90.2355 215.868 89.7765 215.279 89.4203 214.996C89.552 214.856 89.6841 214.716 89.8155 214.576C90.0949 214.803 90.3747 215.029 90.7065 215.298C90.8233 215.085 90.9862 214.881 90.9511 214.836C90.6496 214.456 90.3682 213.955 89.9642 213.801C89.7274 213.712 89.0072 214.162 88.9798 214.42C88.9174 215.008 88.9912 216.041 89.2899 216.156C90.1245 216.479 91.1011 216.435 92.0229 216.52C93.0232 216.614 94.5423 215.569 94.6028 217.742C94.6054 217.855 95.1074 217.958 95.3796 218.058C96.7101 218.548 96.9358 219.655 95.9417 220.645C95.6142 220.971 95.447 221.464 95.1116 221.777C94.6162 222.238 94.0772 222.833 93.478 222.946C92.9705 223.041 92.3167 222.588 91.8024 222.258C91.6437 222.157 91.6599 221.41 91.7149 221.394C92.2006 221.26 92.7129 221.224 93.2057 221.161C92.7936 219.98 92.0802 219.71 91.1869 220.527C90.2713 221.364 89.9193 222.38 90.444 223.62C91.0074 224.952 91.9846 225.603 93.3853 225.395C94.9323 225.165 96.4469 224.661 97.9969 224.522C99.7278 224.366 101.482 224.486 103.23 224.686C100.313 224.312 97.5422 224.851 94.8081 225.882C92.4858 226.758 90.1522 226.645 88.2027 225.037C87.1208 224.144 86.3879 222.822 85.17 221.805C85.7832 223.045 86.397 224.285 86.8944 225.291C83.8715 223.641 82.9467 221.48 83.6493 217.416C83.7768 216.679 83.6675 215.901 83.6675 215.151C82.8546 215.573 82.3306 215.845 81.8062 216.117C81.5772 215.658 81.0398 215.004 81.18 214.78C81.5258 214.228 82.1517 213.557 82.7209 213.5C84.3682 213.335 86.2074 213.11 86.67 215.498C86.7103 215.704 87.0183 215.934 87.2496 216.015C88.9779 216.627 88.4756 218.614 89.4314 219.721C89.4854 219.784 88.5056 220.892 87.8778 221.32C87.705 221.438 87.0623 220.856 86.6352 220.596C86.7181 220.458 86.8017 220.32 86.885 220.182C87.1738 220.195 87.462 220.209 87.8904 220.229C87.7759 219.943 87.7398 219.635 87.624 219.601C87.221 219.483 86.6687 219.263 86.3935 219.437C85.5399 219.976 85.8021 221.765 86.8339 221.9C87.7694 222.022 88.9249 221.696 89.7365 221.176C90.5832 220.634 90.5234 219.61 89.9323 218.699C88.907 217.118 87.9562 215.487 86.9182 213.915C85.8701 212.328 82.4529 211.975 81.0164 213.258C80.0822 214.092 80.1004 215.439 80.8863 216.483C81.2396 216.952 81.4712 217.666 81.4409 218.251C81.3085 220.81 81.8791 223.366 83.9762 224.649C87.3609 226.721 91.1622 228.186 95.2336 226.584C100.211 224.625 104.974 225.786 109.75 227.314C107.718 227.035 105.683 226.509 103.655 226.536C100.879 226.572 97.9628 226.562 95.3621 227.389C86.6225 230.166 78.9999 222.975 79.9667 216.014C80.0558 215.372 80.0487 214.697 79.9631 214.054C79.834 213.089 79.4914 212.971 78.713 213.296Z" fill="white" fill-opacity="0.564112"/>
<path fill-rule="evenodd" clip-rule="evenodd" d="M95.495 204.336C95.7997 204.465 96.1047 204.593 96.4815 204.752C96.4957 204.482 96.5366 204.201 96.5074 204.193C95.9415 204.045 95.3674 203.929 94.795 203.807C94.8041 204.496 94.5231 205.505 94.868 205.825C97.5101 208.273 100.429 210.351 104.252 209.961C105.553 209.829 106.867 209.188 108.031 208.524C109.153 207.884 110.09 206.914 111.25 206.287C110.708 206.882 110.008 207.393 109.651 208.085C107.868 211.541 104.796 211.746 101.573 211.359C98.4918 210.988 95.764 209.685 93.6369 207.355C92.9661 206.62 92.5705 205.627 92.0565 204.748C91.8232 204.349 91.7044 203.729 91.3666 203.569C89.8642 202.857 90.6206 202.072 91.3562 201.563C92.5462 200.739 93.9328 199.492 94.8998 201.918C94.9748 202.106 95.604 202.037 95.7315 202.242C96.203 203.002 96.6314 203.806 96.9228 204.648C96.9724 204.79 96.2686 205.199 95.9129 205.485C95.6855 205.186 95.4583 204.886 95.2308 204.587C95.3188 204.503 95.407 204.42 95.495 204.336Z" fill="white" fill-opacity="0.564112"/>
<path fill-rule="evenodd" clip-rule="evenodd" d="M96.25 201.099C96.8558 200.797 97.4721 200.515 98.0638 200.189C98.6152 199.885 99.5539 199.186 99.6129 199.255C100.255 200.004 101.725 200.121 101.479 201.597C101.383 202.176 101.693 202.816 101.63 203.408C101.569 203.973 101.373 204.601 101.021 205.028C100.851 205.233 100.027 205.2 99.7895 204.976C99.5713 204.77 99.743 204.161 100.115 203.666C100.344 203.962 100.572 204.258 100.912 204.697C101.027 204.312 101.232 203.957 101.144 203.86C100.821 203.503 100.386 202.971 100.022 202.993C99.586 203.019 98.8878 203.495 98.8262 203.862C98.7263 204.458 98.8367 205.341 99.2328 205.725C101.543 207.964 104.665 208.86 107.753 206.468C108.694 205.739 109.81 205.231 111 204.876C108.532 205.835 107.518 209.137 104.365 208.996C101.608 208.871 98.9258 208.577 96.8273 206.184C98.4924 204.302 97.614 202.659 96.2736 201.08L96.25 201.099Z" fill="white" fill-opacity="0.564112"/>
<path fill-rule="evenodd" clip-rule="evenodd" d="M96.2995 201.207C95.9947 201.203 95.5121 201.324 95.4116 201.176C94.0616 199.194 92.5661 199.391 91.0438 200.839C90.6065 200.19 90.2212 199.619 89.751 198.921C89.5903 199.279 89.5312 199.365 89.514 199.458C89.4054 200.053 89.3062 200.651 89.2044 201.248C88.7823 201.083 87.9879 200.88 88.0001 200.761C88.0683 200.088 88.1983 199.348 88.5502 198.79C89.6058 197.118 91.5386 196.981 93.155 196.315C93.5002 196.173 94.0011 196.29 94.3896 196.417C95.1194 196.654 95.8699 196.903 96.5147 197.307C96.9501 197.58 97.4818 198.117 97.4989 198.556C97.5234 199.183 97.1385 199.837 96.8667 200.451C96.836 200.521 96.2083 200.446 96.1954 200.373C96.1029 199.867 96.0987 199.345 96.048 198.526C95.7051 198.9 95.0538 199.377 95.1275 199.572C95.357 200.185 95.8605 200.692 96.2665 201.233C96.2762 201.226 96.2995 201.207 96.2995 201.207Z" fill="white" fill-opacity="0.564112"/>
<path fill-rule="evenodd" clip-rule="evenodd" d="M106.238 218.707C105.656 219.104 105.073 219.502 104.394 219.966C104.394 219.604 104.323 219.052 104.409 218.526C104.599 217.354 104.147 216.701 102.982 216.445C101.803 216.185 100.638 215.863 99.5931 215.601V217.429C99.1394 217.266 98.3337 217.158 98.2966 216.929C98.1744 216.172 98.3236 215.37 98.3891 214.587C98.3953 214.515 98.5409 214.442 98.6341 214.393C99.3811 213.993 102.97 214.5 103.6 215.093C103.795 215.277 103.998 215.644 104.174 215.63C106.176 215.473 106.405 217.406 107.42 218.372C107.786 218.72 107.794 219.596 107.698 220.188C107.656 220.445 106.95 220.717 106.526 220.749C106.273 220.769 105.723 220.265 105.764 220.125C105.866 219.766 106.224 219.479 106.48 219.163C106.4 219.011 106.319 218.859 106.238 218.707Z" fill="white" fill-opacity="0.564112"/>
<path fill-rule="evenodd" clip-rule="evenodd" d="M89.2429 202.306C90.8851 204.746 92.4427 207.059 94 209.373C93.9918 209.415 93.9836 209.458 93.9757 209.5C92.9217 208.421 91.8243 207.38 90.8285 206.25C90.1166 205.443 89.6669 204.375 88.8748 203.676C87.6925 202.632 86.3493 203.092 86.0421 204.208C86.729 204.339 87.4264 204.473 88.1234 204.606C87.778 205.258 87.5951 206.189 87.052 206.501C86.0391 207.083 84.6753 206.703 84.546 205.587C84.3753 204.115 84.7022 202.512 85.1588 201.073C85.399 200.315 86.2638 200.318 87.029 201.03C87.679 201.636 88.6027 201.951 89.2429 202.306Z" fill="white" fill-opacity="0.564112"/>
<path fill-rule="evenodd" clip-rule="evenodd" d="M100.75 219.5C102.466 221.219 104.395 222.389 107.181 222.433C106.776 221.981 106.563 221.744 106.476 221.646H111.75C107.143 223.476 102.601 223.207 100.75 219.5Z" fill="white" fill-opacity="0.564112"/>
<path fill-rule="evenodd" clip-rule="evenodd" d="M103.611 217.683C103.747 218.929 103.858 219.945 104 221.25C103.108 220.467 102.179 219.739 101.375 218.898C101.091 218.601 101.116 218.026 101 217.577C101.51 217.458 102.028 217.222 102.529 217.253C102.981 217.28 103.415 217.599 103.611 217.683Z" fill="white" fill-opacity="0.564112"/>
<mask id="mask1_0_2884" style="mask-type:luminance" maskUnits="userSpaceOnUse" x="106" y="201" width="6" height="4">
<path fill-rule="evenodd" clip-rule="evenodd" d="M106.624 201.979H111.705V204.993H106.624V201.979Z" fill="white"/>
</mask>
<g mask="url(#mask1_0_2884)">
<path fill-rule="evenodd" clip-rule="evenodd" d="M109.054 203.312C109.192 203.041 109.331 202.769 109.47 202.497L109.079 202.175C108.767 202.504 108.456 202.833 108.145 203.162C108.554 203.499 108.934 204.065 109.381 204.122C110.124 204.215 110.909 203.982 111.705 204.089C110.774 204.339 109.851 204.626 108.91 204.828C107.909 205.043 106.821 205.319 106.624 203.715C106.877 203.887 107.072 204.021 106.977 203.955C107.62 203.226 108.129 202.517 108.791 201.997C108.946 201.875 109.621 202.394 110.057 202.618C109.879 202.947 109.701 203.276 109.524 203.604C109.367 203.507 109.21 203.41 109.054 203.312Z" fill="white" fill-opacity="0.564112"/>
</g>
</g>
<mask id="mask2_0_2884" style="mask-type:luminance" maskUnits="userSpaceOnUse" x="179" y="153" width="37" height="97">
<path fill-rule="evenodd" clip-rule="evenodd" d="M192.625 158.5C190.325 156.2 182.75 153.875 179.25 153C181.458 182.5 186.075 242.25 186.875 245.25C187.875 249 209.75 250.5 211.75 249C213.75 247.5 216 233.375 215.5 225.625C215 217.875 195.5 161.375 192.625 158.5Z" fill="white"/>
</mask>
<g mask="url(#mask2_0_2884)">
<path fill-rule="evenodd" clip-rule="evenodd" d="M207.965 209.333C208.259 209.191 208.545 209.03 208.847 208.912C212.089 207.646 212.827 206.386 212.902 201.969C214.049 206.177 212.336 209.096 208.13 210.189C204.159 211.221 200.376 210.884 196.83 208.722C195.457 207.886 194.404 206.822 193.961 205.155C193.822 204.632 193.046 204.107 192.463 203.952C192.179 203.876 191.671 204.647 191.265 205.036C191.38 205.177 191.496 205.318 191.611 205.46C192.004 205.269 192.396 205.077 192.788 204.886C192.928 204.95 193.069 205.015 193.209 205.079C193.026 205.62 192.995 206.41 192.622 206.641C192.146 206.935 191.223 207.034 190.802 206.751C190.193 206.342 189.713 205.569 189.455 204.851C189.211 204.171 189.215 203.348 189.312 202.615C189.389 202.027 189.626 201.319 190.043 200.948C190.916 200.172 191.955 199.583 193.153 198.762C193.607 200.613 193.747 202.317 195.751 201.801C196.289 201.662 196.873 200.754 196.956 200.134C197.006 199.753 196.145 199.25 195.693 198.802C195.585 198.917 195.476 199.032 195.367 199.146C195.367 199.253 195.331 199.379 195.373 199.464C195.593 199.905 195.832 200.336 196.064 200.77C195.769 200.892 195.261 201.175 195.213 201.111C194.879 200.664 194.445 200.159 194.412 199.648C194.329 198.368 195.495 197.546 197.099 197.581C197.522 197.59 198.124 197.702 198.341 197.475C199.55 196.21 200.68 196.199 202.01 197.307C202.363 197.602 203.064 197.533 203.605 197.529C204.588 197.521 205.354 197.86 205.269 198.926C205.184 200.002 204.413 200.348 203.222 200.197C203.365 199.662 203.465 199.288 203.575 198.88C203.32 198.818 203.05 198.711 203.025 198.753C202.767 199.181 202.307 199.669 202.366 200.071C202.516 201.087 204.017 201.522 204.951 200.707C206.221 199.6 207.451 199.545 208.762 200.397C210.156 201.302 210.42 202.744 210.241 204.263C210.083 205.606 209.13 206.457 207.906 206.533C207.187 206.576 206.397 205.899 205.696 205.455C205.539 205.356 205.621 204.877 205.57 204.329C206.105 204.56 206.434 204.701 206.791 204.855C206.893 204.635 207.042 204.378 207.017 204.36C206.624 204.069 206.2 203.594 205.803 203.612C205.486 203.626 205.01 204.209 204.926 204.609C204.56 206.346 206.135 207.686 208.122 207.405C210.06 207.131 211.393 205.498 211.509 203.201C211.554 202.304 211.524 201.402 211.526 200.503C211.527 199.605 211.526 198.707 211.91 197.803C211.91 200.19 212.136 202.604 211.845 204.955C211.56 207.264 208.028 208.922 205.301 208.3C204.673 208.157 204.079 207.864 203.288 207.574C204.72 206.677 205.132 205.513 204.656 204.155C204.189 202.826 203.001 202.62 201.747 202.276C200.032 201.806 198.569 202.387 197.043 202.784C195.478 203.191 194.66 205.092 195.293 206.594C195.809 207.816 196.651 207.914 198.35 206.949C201.031 210.339 205.978 211.383 209.434 209.056C208.944 209.149 208.453 209.241 207.962 209.334L207.965 209.333Z" fill="white"/>
<path fill-rule="evenodd" clip-rule="evenodd" d="M193.931 161.787C194.673 162.881 193.328 163.581 193.087 164.63C193.842 164.11 194.629 163.559 194.957 162.807C195.2 162.252 195.058 161.276 194.691 160.783C194.361 160.341 193.467 160.09 192.866 160.155C192.43 160.203 191.878 160.853 191.739 161.337C191.653 161.636 192.187 162.382 192.549 162.465C192.915 162.55 193.412 162.065 193.931 161.787ZM192.998 153.75C193.908 154.299 194.852 154.8 195.719 155.41C196.614 156.041 196.613 157.002 196.21 157.875C195.725 158.925 194.837 159.082 194.135 158.76C194.507 158.303 195.249 157.79 195.237 157.295C195.226 156.82 194.507 156.118 193.967 155.955C193.062 155.682 192.352 156.418 192.302 157.22C192.257 157.946 192.552 158.86 193.024 159.41C193.666 160.158 195.302 160.002 196.141 159.334C196.498 159.05 196.79 158.683 197.154 158.41C197.904 157.844 198.68 157.473 199.43 158.431C199.48 158.495 199.547 158.553 199.618 158.593C200.167 158.906 201.11 159.135 201.19 159.538C201.376 160.469 201.261 161.511 201.031 162.45C200.922 162.899 200.327 163.386 199.852 163.535C199.502 163.646 198.799 163.355 198.597 163.03C198.335 162.608 198.416 161.974 198.316 161.164C198.711 161.456 198.798 161.487 198.83 161.548C199.053 161.966 199.266 162.39 199.483 162.812C199.81 162.54 200.426 162.245 200.406 162C200.365 161.466 200.139 160.731 199.739 160.485C198.863 159.949 197.916 160.221 197.322 161.064C196.63 162.047 196.051 163.111 195.448 164.155C194.498 165.799 193.2 167.019 191.381 167.655C189.895 168.174 188.51 167.789 187.147 167.23C185.131 166.406 183.56 164.99 182.143 163.381C180.307 161.294 178.144 159.631 175.326 159.35C173.699 159.188 172.016 159.589 170.75 159.702C172.432 158.579 174.758 158.315 176.944 159.271C179.278 160.29 181.413 161.773 183.604 163.103C184.663 163.746 185.59 164.628 186.692 165.172C187.687 165.663 188.951 165.706 189.686 164.756C190.237 164.044 190.557 163.001 190.596 162.088C190.639 161.096 189.826 160.424 188.843 160.267C188.377 160.192 187.714 160.32 187.405 160.624C187.17 160.857 187.167 161.668 187.395 161.938C187.65 162.237 188.284 162.215 188.869 162.363C188.877 163.166 188.241 163.552 187.404 163.622C186.345 163.71 185.65 162.841 185.277 161.323C183.436 160.469 181.772 159.698 180.109 158.926C180.15 158.832 180.19 158.739 180.231 158.644C181.335 159.094 182.412 159.635 183.549 159.971C185.358 160.506 186.664 159.37 186.363 157.507C186.146 157.683 185.995 157.883 185.796 157.953C185.37 158.105 184.761 158.42 184.518 158.251C184.158 158.001 183.868 157.375 183.895 156.931C183.918 156.56 184.374 156.031 184.751 155.901C186.012 155.466 187.193 156.211 187.366 157.622C187.473 158.495 187.869 158.807 188.615 159.048C189.19 159.235 189.678 159.68 190.246 159.904C190.627 160.054 191.118 160.136 191.488 160.019C191.695 159.953 191.935 159.348 191.84 159.116C191.691 158.75 191.319 158.401 190.954 158.22C190.649 158.069 190.219 158.166 189.845 158.161C189.028 158.149 188.319 157.993 188.311 156.96C188.302 155.907 188.992 155.633 189.874 155.605C190.118 155.598 190.365 155.644 190.421 155.649C191.185 154.951 191.841 154.35 192.498 153.75H192.998Z" fill="white" fill-opacity="0.725361"/>
<path fill-rule="evenodd" clip-rule="evenodd" d="M222.724 227.675C219.739 227.431 216.542 227.266 213.378 226.854C212.379 226.724 211.204 226.152 210.585 225.389C209.808 224.432 210.212 223.493 211.928 223.7C211.583 224.152 211.237 224.603 210.714 225.286C211.361 225.424 212.099 225.809 212.387 225.591C212.884 225.212 213.522 224.123 213.365 223.923C212.748 223.137 211.537 221.888 211.107 222.083C210.127 222.527 209.06 223.612 208.79 224.636C208.348 226.313 209.974 228.059 211.905 228.409C212.706 228.554 213.547 228.47 214.366 228.529C217.613 228.764 220.858 229.016 224.052 229.643C222.333 229.79 220.614 229.938 218.895 230.086C218.875 230.286 218.854 230.485 218.834 230.685C219.146 230.963 219.458 231.241 219.771 231.52C218.728 232.946 213.446 233.93 211.508 233.231C210.764 232.963 209.667 232.94 209.007 233.31C206.598 234.66 203.853 234.086 202.341 231.732C201.618 230.608 200.872 229.494 200.069 228.427C198.505 226.346 199.127 223.722 201.408 222.471C202.347 221.956 203.259 221.266 203.962 220.459C207.668 216.211 212.72 217.155 214.777 222.37C215.264 223.604 216.489 224.733 217.654 225.449C219.286 226.452 221.181 227.021 222.724 227.675Z" fill="white" fill-opacity="0.405157"/>
</g>
<mask id="mask3_0_2884" style="mask-type:luminance" maskUnits="userSpaceOnUse" x="141" y="149" width="47" height="109">
<path fill-rule="evenodd" clip-rule="evenodd" d="M150.043 168.5C146.793 165.875 147.335 163.792 147.918 161.75L149.043 161L157.293 160L165.043 149.5C165.043 149.5 176.168 151 179.918 153C183.668 155 185.918 176.875 185.918 176.875L187.668 254.75L178.168 257.375H141.543C141.21 231.208 142.802 174.841 146.043 173.125C150.293 170.875 150.793 169.106 150.043 168.5Z" fill="white"/>
</mask>
<g mask="url(#mask3_0_2884)">
<path fill-rule="evenodd" clip-rule="evenodd" d="M184.182 173.843C181.695 174.386 179.055 175.048 176.381 175.499C175.537 175.642 174.439 175.469 173.746 175.003C172.877 174.417 172.972 173.553 174.419 173.294C174.25 173.748 174.081 174.201 173.826 174.887C174.386 174.838 175.081 174.968 175.261 174.719C175.571 174.286 175.819 173.242 175.642 173.118C174.945 172.633 173.65 171.917 173.349 172.183C172.663 172.788 172.066 173.936 172.1 174.837C172.158 176.311 173.913 177.327 175.57 177.131C176.257 177.05 176.92 176.772 177.6 176.616C180.298 176 182.998 175.398 185.75 175.113C184.39 175.661 183.029 176.209 181.669 176.756C181.702 176.924 181.735 177.092 181.768 177.259C182.091 177.408 182.414 177.557 182.737 177.706C182.243 179.125 178.195 181.239 176.445 181.153C175.774 181.12 174.877 181.374 174.432 181.839C172.81 183.537 170.435 183.752 168.622 182.214C167.754 181.479 166.871 180.758 165.954 180.089C164.165 178.786 164.018 176.496 165.562 174.911C166.197 174.259 166.767 173.47 167.138 172.639C169.095 168.261 173.436 167.773 176.403 171.503C177.106 172.386 178.382 173 179.508 173.293C181.083 173.703 182.765 173.695 184.182 173.843Z" fill="#9C9522" fill-opacity="0.817854"/>
<path fill-rule="evenodd" clip-rule="evenodd" d="M170.514 244.396C170.214 244.033 170.03 243.611 169.806 243.589C169.497 243.558 168.932 243.767 168.875 243.981C168.737 244.495 168.83 245.071 168.83 245.575C168.031 245.47 167.069 245.2 166.126 245.255C164.921 245.326 164.528 246.282 164.488 247.363C162.829 247.573 162.669 247.749 163.107 248.783C163.429 248.587 163.755 248.389 164.081 248.191C164.174 248.407 164.403 248.699 164.333 248.825C164.113 249.221 163.778 249.858 163.493 249.855C162.587 249.848 161.552 249.812 160.814 249.373C160.003 248.89 160.106 247.876 160.46 246.989C160.597 246.648 160.592 246.253 160.684 245.891C160.942 244.871 161.344 244.812 162.257 245.356C162.815 245.689 163.557 245.854 164.206 245.829C164.495 245.819 164.973 245.158 164.976 244.789C164.978 244.424 164.549 243.976 164.195 243.722C164.041 243.612 163.603 243.899 163.03 244.097C163.719 244.321 164.069 244.397 164.366 244.565C164.422 244.596 164.317 245.163 164.208 245.193C163.849 245.289 163.405 245.374 163.081 245.245C162.033 244.825 161.925 243.855 162.761 242.92C163.599 241.983 167.891 241.286 169.046 241.853C169.398 242.026 169.831 242.065 170.232 242.099C171.126 242.175 171.785 242.535 171.818 243.506C171.852 244.498 171.176 245.009 170.316 245.215C170.021 245.286 169.639 245.056 169.32 244.912C169.26 244.885 169.293 244.473 169.316 244.469C169.624 244.424 169.939 244.421 170.514 244.396Z" fill="white" fill-opacity="0.486806"/>
<path fill-rule="evenodd" clip-rule="evenodd" d="M149.819 184.247C149.519 183.884 149.335 183.462 149.111 183.44C148.802 183.409 148.238 183.618 148.18 183.832C148.042 184.346 148.136 184.922 148.136 185.426C147.336 185.321 146.375 185.051 145.431 185.106C144.227 185.177 143.833 186.133 143.793 187.214C142.134 187.424 141.974 187.6 142.412 188.634C142.734 188.438 143.06 188.24 143.387 188.042C143.479 188.258 143.708 188.55 143.638 188.676C143.418 189.072 143.084 189.709 142.798 189.706C141.892 189.699 140.857 189.663 140.119 189.224C139.308 188.741 139.411 187.727 139.765 186.84C139.902 186.499 139.898 186.104 139.989 185.742C140.247 184.722 140.649 184.663 141.562 185.207C142.12 185.54 142.862 185.705 143.511 185.68C143.8 185.67 144.278 185.009 144.281 184.64C144.284 184.275 143.854 183.827 143.5 183.573C143.347 183.463 142.909 183.75 142.335 183.948C143.024 184.172 143.374 184.248 143.671 184.416C143.727 184.447 143.622 185.014 143.513 185.044C143.154 185.14 142.71 185.225 142.387 185.096C141.338 184.676 141.23 183.706 142.066 182.771C142.904 181.834 147.196 181.137 148.351 181.704C148.703 181.877 149.136 181.916 149.537 181.95C150.431 182.026 151.09 182.386 151.123 183.357C151.157 184.349 150.482 184.86 149.621 185.066C149.326 185.137 148.944 184.907 148.626 184.763C148.565 184.736 148.598 184.324 148.621 184.32C148.93 184.275 149.244 184.272 149.819 184.247Z" fill="white" fill-opacity="0.486806"/>
<path fill-rule="evenodd" clip-rule="evenodd" d="M162.24 251.17C161.421 251.337 160.331 251.45 159.223 250.761C158.656 250.408 157.891 250.331 157.201 250.225C154.306 249.779 152.548 248.153 152.053 245.407C151.791 243.958 152.522 243.395 153.848 242.924C154.952 242.531 155.941 242.783 156.974 242.687C157.971 242.593 158.453 243.238 158.523 244.1C158.597 244.999 158.018 245.498 157.131 245.447C156.773 245.427 156.431 245.124 156.082 244.949C156.251 244.672 156.419 244.395 156.619 244.066C155.631 243.696 154.934 244.206 154.47 244.97C153.889 245.924 153.804 246.954 154.51 248.083C154.833 247.117 155.1 246.316 155.287 245.756C156.153 245.909 156.884 245.905 157.479 246.187C157.929 246.401 158.44 246.942 158.513 247.402C158.66 248.327 158.02 248.896 157.113 248.939C156.06 248.988 156.001 248.187 155.945 247.315C156.318 247.263 156.635 247.219 156.953 247.175C156.975 247.093 156.997 247.011 157.02 246.929C156.727 246.822 156.391 246.571 156.152 246.643C155.841 246.737 155.482 247.037 155.363 247.336C154.943 248.392 156.188 249.871 157.271 249.541C158.326 249.221 159.062 249.539 159.909 250.126C160.663 250.649 161.608 250.898 162.24 251.17Z" fill="white" fill-opacity="0.486806"/>
<path fill-rule="evenodd" clip-rule="evenodd" d="M173.544 252.611C172.56 251.993 171.577 251.375 170.394 250.631C171.924 250.115 172.654 249.303 172.586 247.973C172.524 246.763 171.698 246.276 170.395 246.143C171.091 245.641 171.626 245.237 172.179 244.86C173.055 244.263 173.848 244.204 174.539 245.185C174.739 245.469 175.104 245.643 175.407 245.848C175.575 245.961 175.803 245.999 175.945 246.132C176.437 246.592 176.879 249.899 176.547 250.473C176.127 251.199 175.475 251.437 174.75 251.094C174.081 250.777 174.016 250.197 174.478 249.409C174.671 249.777 174.788 250 175.006 250.416C175.095 250.22 175.211 250.083 175.18 250.01C175.024 249.645 174.91 249.084 174.633 248.979C173.557 248.569 172.407 249.792 172.757 250.985C172.909 251.507 173.325 251.951 173.621 252.431C173.595 252.491 173.57 252.551 173.544 252.611Z" fill="white" fill-opacity="0.486806"/>
<path fill-rule="evenodd" clip-rule="evenodd" d="M152.849 192.462C151.865 191.844 150.882 191.226 149.699 190.483C151.229 189.966 151.959 189.155 151.891 187.825C151.829 186.614 151.003 186.127 149.7 185.994C150.396 185.492 150.931 185.088 151.484 184.711C152.36 184.114 153.153 184.056 153.844 185.036C154.044 185.321 154.409 185.494 154.712 185.699C154.88 185.813 155.108 185.85 155.25 185.983C155.742 186.443 156.184 189.75 155.852 190.324C155.432 191.051 154.78 191.288 154.055 190.945C153.386 190.628 153.321 190.049 153.783 189.26C153.976 189.628 154.093 189.851 154.311 190.268C154.4 190.071 154.516 189.934 154.485 189.861C154.329 189.496 154.215 188.936 153.938 188.83C152.862 188.42 151.712 189.643 152.062 190.836C152.214 191.358 152.63 191.802 152.926 192.282C152.9 192.342 152.875 192.402 152.849 192.462Z" fill="white" fill-opacity="0.486806"/>
<mask id="mask4_0_2884" style="mask-type:luminance" maskUnits="userSpaceOnUse" x="165" y="245" width="13" height="9">
<path fill-rule="evenodd" clip-rule="evenodd" d="M165.225 245.855H177.765V253.506H165.225V245.855Z" fill="white"/>
</mask>
<g mask="url(#mask4_0_2884)">
<path fill-rule="evenodd" clip-rule="evenodd" d="M169.897 248.973C169.346 250.043 169.91 250.84 170.699 251.52C173.067 253.561 175.158 253.769 177.765 252.269C176.945 253.183 175.406 253.705 173.882 253.435C171.115 252.946 168.665 252.004 167.694 248.956C167.455 248.206 167.087 247.332 165.798 247.294C165.984 247.6 166.075 247.716 166.132 247.847C166.226 248.068 166.298 248.298 166.379 248.523C166.089 248.49 165.573 248.517 165.545 248.414C165.384 247.808 165.062 246.992 165.324 246.595C165.621 246.143 166.515 245.783 167.077 245.867C168.472 246.077 169.85 246.496 171.181 246.979C171.564 247.119 172.029 247.799 171.982 248.172C171.916 248.706 171.454 249.223 171.056 249.65C170.996 249.715 170.373 249.257 169.897 248.973Z" fill="white" fill-opacity="0.486806"/>
</g>
<mask id="mask5_0_2884" style="mask-type:luminance" maskUnits="userSpaceOnUse" x="144" y="185" width="14" height="9">
<path fill-rule="evenodd" clip-rule="evenodd" d="M144.53 185.706H157.07V193.358H144.53V185.706Z" fill="white"/>
</mask>
<g mask="url(#mask5_0_2884)">
<path fill-rule="evenodd" clip-rule="evenodd" d="M149.202 188.824C148.651 189.894 149.215 190.692 150.004 191.371C152.372 193.413 154.463 193.621 157.07 192.12C156.25 193.035 154.711 193.556 153.187 193.287C150.42 192.797 147.97 191.856 146.999 188.808C146.76 188.058 146.392 187.183 145.103 187.146C145.289 187.451 145.38 187.568 145.437 187.699C145.531 187.919 145.603 188.149 145.684 188.375C145.394 188.342 144.878 188.369 144.85 188.266C144.689 187.66 144.367 186.843 144.629 186.446C144.926 185.995 145.82 185.634 146.382 185.719C147.777 185.929 149.155 186.347 150.486 186.831C150.869 186.97 151.334 187.65 151.287 188.024C151.221 188.558 150.759 189.075 150.361 189.502C150.301 189.567 149.678 189.108 149.202 188.824Z" fill="white" fill-opacity="0.486806"/>
</g>
<mask id="mask6_0_2884" style="mask-type:luminance" maskUnits="userSpaceOnUse" x="152" y="185" width="11" height="7">
<path fill-rule="evenodd" clip-rule="evenodd" d="M152.358 185.206H162.123V191.721H152.358V185.206Z" fill="white"/>
</mask>
<g mask="url(#mask6_0_2884)">
<path fill-rule="evenodd" clip-rule="evenodd" d="M155.848 185.438C157.579 184.668 158.725 186.031 160.088 186.426C160.306 186.489 160.488 187.439 160.326 187.83C160.17 188.208 159.522 188.634 159.14 188.591C158.807 188.555 158.542 187.895 158.064 187.271C158.02 187.782 157.821 188.45 157.981 188.551C158.493 188.875 159.189 189.236 159.719 189.126C160.523 188.96 161.212 188.721 162.123 189.641C159.63 188.959 158.043 190.209 156.316 191.288C155.573 191.753 154.426 191.778 153.506 191.664C153.072 191.61 152.737 190.755 152.358 190.262C152.445 190.202 152.533 190.141 152.62 190.08C152.958 190.548 153.204 191.178 153.661 191.438C154.091 191.682 154.801 191.7 155.286 191.53C156.583 191.076 157.058 189.636 156.585 188.338C156.254 187.427 156.099 186.452 155.848 185.438Z" fill="white" fill-opacity="0.486806"/>
</g>
<path fill-rule="evenodd" clip-rule="evenodd" d="M167.376 240.154C165.864 240.6 164.202 241.164 162.501 241.556C161.829 241.711 160.978 241.663 160.385 241.361C160.033 241.182 160.024 240.328 160.121 239.703C160.377 240.012 160.634 240.321 161.016 240.781C160.977 238.615 161.553 237.601 162.959 237.502C163.44 237.468 164.017 237.96 164.423 238.347C164.511 238.431 164.121 239.172 163.811 239.455C163.641 239.611 163.175 239.444 162.843 239.422C163.046 239.164 163.244 238.902 163.454 238.65C163.524 238.566 163.626 238.51 163.714 238.441L163.648 238.107C163.24 238.173 162.628 238.102 162.471 238.336C162.217 238.716 162.042 239.433 162.242 239.753C162.446 240.08 163.234 240.348 163.605 240.209C164.887 239.731 166.117 239.726 167.379 240.161C167.48 240.196 167.561 240.285 167.376 240.154Z" fill="white" fill-opacity="0.486806"/>
</g>
<mask id="mask7_0_2884" style="mask-type:luminance" maskUnits="userSpaceOnUse" x="110" y="148" width="38" height="110">
<path fill-rule="evenodd" clip-rule="evenodd" d="M145.25 168.625C144 165 144.625 160 144.625 160L139 161.875L132.25 148.75C124.458 150.125 124.125 150.625 118.5 153.125C111.79 156.107 113.125 166.125 112.125 179.75L110.75 254.375L129.25 257.25L141.625 257.375L147.125 172.75C147.125 172.75 146.5 172.25 145.25 168.625Z" fill="white"/>
</mask>
<g mask="url(#mask7_0_2884)">
<mask id="mask8_0_2884" style="mask-type:luminance" maskUnits="userSpaceOnUse" x="128" y="206" width="18" height="13">
<path fill-rule="evenodd" clip-rule="evenodd" d="M145.955 206.178H128.268V218.439H145.955V206.178Z" fill="white"/>
</mask>
<g mask="url(#mask8_0_2884)">
<path fill-rule="evenodd" clip-rule="evenodd" d="M141.083 210.012C140.584 210.182 140.057 210.306 139.609 210.563C139.529 210.608 139.706 211.453 139.876 211.495C140.427 211.633 141.109 211.754 141.599 211.55C143.18 210.894 143.32 209.45 142.033 208.05C140.759 206.666 134.233 205.647 132.484 206.475C131.894 206.755 131.165 206.769 130.492 206.853C129.112 207.027 128.254 207.695 128.268 209.143C128.28 210.337 129.718 211.672 130.934 211.56C131.356 211.522 131.772 211.167 132.132 210.884C132.21 210.823 132.021 210.248 131.979 210.251C131.566 210.28 131.158 210.38 130.323 210.544C130.68 209.905 130.88 209.184 131.137 209.163C131.676 209.119 132.596 209.307 132.732 209.646C133.025 210.372 132.92 211.255 132.975 212.035C134.071 211.892 135.543 211.466 136.974 211.571C138.767 211.704 139.403 213.131 139.412 214.755C141.945 215.005 142.249 215.345 141.468 216.921C141.041 216.585 140.611 216.251 140.182 215.917C139.996 216.272 139.571 216.726 139.671 216.962C139.915 217.533 140.401 218.433 140.794 218.435C142.182 218.445 143.769 218.482 144.908 217.851C146.25 217.109 146.113 215.539 145.542 214.142C145.356 213.688 145.36 213.162 145.249 212.676C144.872 211.018 144.23 210.882 142.803 211.743C141.965 212.248 140.837 212.453 139.84 212.45C139.426 212.448 138.738 211.58 138.68 211.052C138.621 210.516 139.051 209.725 139.52 209.399C139.88 209.149 140.632 209.446 141.21 209.5C141.168 209.671 141.125 209.841 141.083 210.012Z" fill="white" fill-opacity="0.419854"/>
</g>
<path fill-rule="evenodd" clip-rule="evenodd" d="M154.461 215.868C153.925 214.362 153.501 213.175 153.224 212.399C151.87 212.633 150.863 212.684 149.954 213.006C149.338 213.225 148.431 213.811 148.416 214.258C148.387 215.086 148.711 216.136 149.283 216.701C149.696 217.108 150.854 217.119 151.478 216.848C151.903 216.664 152.058 215.699 152.142 215.059C152.157 214.938 151.267 214.701 150.473 214.392C150.985 214.108 151.515 213.609 151.759 213.721C152.318 213.979 153.009 214.456 153.167 214.985C153.672 216.676 151.756 218.564 150.025 218.05C148.553 217.612 147.544 218.115 146.366 218.897C145.158 219.7 143.703 220.139 142.75 220.562C143.788 220.774 145.382 221.004 147.075 220.051C148.076 219.487 149.331 219.287 150.5 219.108C154.745 218.456 157.395 216.007 158.164 211.904C158.573 209.723 157.494 208.967 155.461 208.162C153.72 207.471 152.162 207.984 150.543 207.77C149.16 207.588 148.476 208.65 148.337 209.855C148.189 211.129 148.978 211.883 150.237 211.912C150.795 211.924 151.47 211.659 151.871 211.286C152.027 211.14 151.577 210.354 151.379 209.789C152.759 209.324 153.767 210.073 154.461 211.166C155.373 212.606 155.518 214.152 154.461 215.868Z" fill="black"/>
<path fill-rule="evenodd" clip-rule="evenodd" d="M130.75 212.862C129.716 212.183 129.073 211.797 128.469 211.359C126.331 209.809 125.998 209.857 124.022 211.673C123.491 212.16 122.68 212.344 122.11 212.8C121.338 213.419 120.679 218.447 121.168 219.292C121.806 220.394 122.809 220.723 123.913 220.228C124.939 219.768 125.053 218.908 124.33 217.733C124.035 218.273 123.854 218.603 123.636 219.004C123.474 218.835 123.236 218.659 123.263 218.602C123.513 218.063 123.881 217.07 124.078 217.099C124.947 217.227 126.184 217.432 126.509 218.022C126.939 218.802 126.769 219.989 126.6 220.957C126.524 221.388 125.817 221.713 125.397 222.085C125.493 222.223 125.589 222.361 125.685 222.5C127.197 221.606 128.709 220.713 130.576 219.609C128.285 218.715 127.006 217.53 127.26 215.362C127.465 213.61 128.704 213.009 130.75 212.862Z" fill="white" fill-opacity="0.419854"/>
<path fill-rule="evenodd" clip-rule="evenodd" d="M115.75 219.435C116.534 220.153 117.316 220.873 118.102 221.589C122.881 225.941 131.442 224.147 134.07 218.253C134.451 217.397 134.818 216.51 135.362 215.76C135.724 215.261 136.389 214.982 136.919 214.604C137.029 214.752 137.141 214.9 137.251 215.048C136.929 215.427 136.606 215.806 136.283 216.184L136.539 216.764C137.059 216.552 137.849 216.48 138.05 216.1C138.63 215.004 138.817 213.753 137.575 212.924C137.097 212.605 136.341 212.416 135.793 212.536C133.518 213.036 131.237 213.573 129.043 214.338C128.519 214.52 127.969 215.683 128.063 216.3C128.174 217.033 128.881 217.776 129.521 218.266C129.697 218.402 130.555 217.654 131.194 217.253C132.023 218.6 131.357 219.771 130.354 220.783C126.558 224.61 121.942 224.688 117.956 221.053C117.277 220.433 116.564 219.847 115.868 219.246C115.828 219.309 115.789 219.372 115.75 219.435Z" fill="white" fill-opacity="0.419854"/>
<path fill-rule="evenodd" clip-rule="evenodd" d="M117.778 215.226C117.805 215.662 118.086 216.677 117.838 216.832C117.063 217.316 116.104 217.598 115.184 217.726C114.15 217.869 113.08 217.758 112 218.081C115.259 217.483 117.705 219.034 120.089 220.88C121.381 221.881 122.868 222.363 124.484 221.683C125.622 221.204 126.209 220.364 125.932 218.805C125.079 221.231 123.734 222.09 122.056 221.479C120.142 220.782 119.195 218.455 119.959 216.506C120.224 215.831 120.258 215.067 120.44 214.354C120.623 213.637 120.861 212.934 121.135 212.021C119.687 211.763 118.4 211.4 117.105 212.499C116.573 212.95 115.596 212.885 115.089 213.349C114.585 213.811 114.043 214.749 114.193 215.287C114.389 215.986 115.169 216.749 115.863 216.98C116.199 217.091 116.913 216.052 117.778 215.226Z" fill="white" fill-opacity="0.419854"/>
<path fill-rule="evenodd" clip-rule="evenodd" d="M136.142 220.769C136.842 220.856 138 220.739 138.143 221.075C138.419 221.721 138.409 222.972 137.99 223.335C137.403 223.844 136.281 224.047 135.481 223.89C133.728 223.545 132.195 223.781 131.25 224.43C133.167 224.755 135.48 225.28 137.818 225.482C138.934 225.578 140.228 225.287 141.192 224.725C141.669 224.448 141.582 223.158 141.75 222.326C141.597 222.286 141.444 222.247 141.291 222.208C141.033 222.78 140.774 223.352 140.516 223.925C140.354 223.905 140.191 223.886 140.029 223.867C140.029 223.233 140.067 222.596 140.021 221.965C139.914 220.493 138.869 219.713 137.671 219.751C136.793 219.779 135.867 220.529 135.127 221.159C134.951 221.309 135.287 222.417 135.664 222.802C135.919 223.062 136.672 222.893 137.17 222.777C137.335 222.738 137.541 222.056 137.495 222.024C137.097 221.753 136.647 221.563 136.212 221.349C136.189 221.156 136.166 220.962 136.142 220.769Z" fill="white" fill-opacity="0.419854"/>
<mask id="mask9_0_2884" style="mask-type:luminance" maskUnits="userSpaceOnUse" x="110" y="235" width="20" height="13">
<path fill-rule="evenodd" clip-rule="evenodd" d="M112.651 235.149L129.583 239.058L127.583 247.72L110.652 243.811L112.651 235.149Z" fill="white"/>
</mask>
<g mask="url(#mask9_0_2884)">
<path fill-rule="evenodd" clip-rule="evenodd" d="M127.807 246.175C125.984 247.428 124.715 247.44 122.993 246.223C124.06 244.029 123.511 242.617 121.249 241.752C121.142 241.711 120.985 241.723 120.924 241.651C118.62 238.9 116.582 240.76 114.507 241.962L114.533 242.015C115.145 240.885 115.148 239.99 113.6 239.593C113.698 240.283 113.879 240.893 113.797 241.464C113.778 241.599 112.801 241.793 112.396 241.633C111.487 241.276 111.07 240.182 111.884 239.786C113.299 239.097 113.789 236.679 116.073 237.564C116.304 237.653 116.744 237.204 117.09 237.011C118.211 236.388 119.239 236.373 120.263 237.309C120.633 237.647 121.297 237.652 121.724 237.952C122.188 238.279 122.753 238.724 122.864 239.206C122.966 239.647 122.582 240.249 122.279 240.69C122.182 240.83 121.401 240.753 121.373 240.655C121.236 240.182 121.25 239.668 121.17 238.662C120.753 239.398 120.261 239.87 120.31 240.285C120.364 240.753 120.848 241.46 121.246 241.537C121.832 241.651 122.938 241.464 123.073 241.117C123.815 239.206 125.026 239.872 126.238 240.405C126.588 240.558 127.134 240.851 127.144 241.093C127.19 242.243 127.6 243.17 128.368 244.027C128.489 244.163 128.187 244.957 127.905 245.089C127.439 245.308 126.805 245.347 126.295 245.23C126.111 245.187 126.082 244.475 126.349 243.904C126.714 244.183 127.08 244.462 127.494 244.779C127.575 244.562 127.717 244.311 127.673 244.274C127.21 243.879 126.72 243.241 126.231 243.232C125.817 243.223 125.067 243.948 125.059 244.363C125.05 244.897 125.513 245.624 125.993 245.938C126.465 246.247 127.213 246.144 127.839 246.221L127.807 246.175Z" fill="#BBB325" fill-opacity="0.730687"/>
</g>
<path fill-rule="evenodd" clip-rule="evenodd" d="M134.188 249.573C133.929 249.479 133.323 249.434 132.982 249.106C131.11 247.309 129.198 247.598 126.923 248.44C124.134 249.471 121.256 248.877 118.791 247.296C117.817 246.671 117.339 245.28 116.581 244.28C116.185 243.761 115.671 243.334 115.211 242.865C115.955 242.333 116.697 241.798 117.446 241.273C117.538 241.209 117.663 241.191 117.775 241.162C118.836 240.884 122.502 243.22 122.545 244.317C122.562 244.75 122.145 245.309 121.769 245.606C121.609 245.732 121.047 245.329 120.668 245.167C120.739 245.008 120.811 244.847 120.882 244.688L122.035 244.954C122.111 244.836 122.187 244.717 122.264 244.599C121.902 244.29 121.471 243.675 121.192 243.741C120.716 243.853 120.034 244.36 119.988 244.76C119.928 245.286 120.252 246.146 120.673 246.382C123.103 247.742 125.57 248.934 128.412 247.189C129.682 246.408 130.956 246.771 132.048 247.816C132.746 248.483 133.54 249.047 134.188 249.573Z" fill="#BBB325" fill-opacity="0.730687"/>
<mask id="mask10_0_2884" style="mask-type:luminance" maskUnits="userSpaceOnUse" x="107" y="240" width="13" height="9">
<path fill-rule="evenodd" clip-rule="evenodd" d="M108.791 240.811L119.608 243.308L118.38 248.628L107.562 246.131L108.791 240.811Z" fill="white"/>
</mask>
<g mask="url(#mask10_0_2884)">
<path fill-rule="evenodd" clip-rule="evenodd" d="M114.487 242.126C114.126 243.257 114.142 244.185 115.484 244.753C115.917 244.936 116.131 245.601 116.482 246.014C117.164 246.817 117.872 247.597 118.382 248.618C117.415 247.715 116.375 246.877 115.501 245.892C114.407 244.659 113.281 243.584 111.481 243.942C110.926 244.052 110.432 244.462 109.98 244.699C110.808 245.01 111.41 245.236 112.011 245.462C111.846 245.882 111.694 246.657 111.513 246.663C110.582 246.694 109.566 246.704 108.741 246.35C108.37 246.19 108.278 245.171 108.234 244.531C108.187 243.851 108.346 243.158 108.416 242.47C108.516 241.489 109.888 241.03 110.777 241.779C111.972 242.786 113.177 242.913 114.514 242.183C114.512 242.179 114.487 242.126 114.487 242.126Z" fill="#908922"/>
</g>
<path fill-rule="evenodd" clip-rule="evenodd" d="M127.7 246.33C130.026 244.871 131.758 245.259 133.011 247.599C131.549 245.788 129.679 245.74 127.67 246.282C127.669 246.28 127.7 246.33 127.7 246.33Z" fill="black"/>
<mask id="mask11_0_2884" style="mask-type:luminance" maskUnits="userSpaceOnUse" x="107" y="193" width="18" height="11">
<path fill-rule="evenodd" clip-rule="evenodd" d="M107 193.25H124.93V203.762H107V193.25Z" fill="white"/>
</mask>
<g mask="url(#mask11_0_2884)">
<path fill-rule="evenodd" clip-rule="evenodd" d="M117.573 201.358C118.594 200.679 118.759 199.752 118.405 198.792C118.068 197.877 117.192 197.74 116.309 197.494C115.04 197.14 113.952 197.572 112.815 197.859C111.761 198.126 111.111 199.373 111.396 200.423C111.704 201.555 112.431 201.718 113.729 200.945C115.891 203.478 119.279 204.204 122.177 202.647C121.88 202.579 121.7 202.538 121.723 202.543C122.453 201.917 123.53 201.342 124.06 200.444C124.585 199.554 124.559 198.339 124.692 197.682C125.507 200.127 124.196 202.508 121.243 203.304C118.209 204.121 115.322 203.89 112.6 202.248C111.569 201.626 110.817 200.811 110.481 199.593C110.378 199.218 109.872 198.779 109.492 198.714C109.205 198.666 108.825 199.167 108.486 199.423C108.556 199.538 108.627 199.653 108.697 199.768C109.005 199.674 109.314 199.579 110.027 199.361C109.762 200.013 109.703 200.615 109.401 200.786C109.047 200.986 108.38 200.972 108.035 200.755C107.648 200.513 107.375 199.969 107.225 199.501C107.057 198.974 107.074 198.385 107.026 197.822C107.006 197.577 106.974 197.313 107.038 197.083C107.204 196.496 109.172 195.258 109.862 195.271C110.624 197.067 111.188 197.597 112.008 197.097C112.392 196.862 112.64 196.192 112.679 195.698C112.696 195.482 112.037 195.212 111.684 194.966C111.544 195.147 111.405 195.329 111.265 195.51C111.431 195.546 111.654 195.527 111.751 195.628C111.919 195.803 112.116 196.064 112.093 196.266C112.076 196.415 111.706 196.657 111.536 196.625C111.294 196.579 111.004 196.367 110.889 196.146C110.356 195.127 111.314 194.057 112.7 193.986C113.218 193.959 113.728 193.706 114.234 193.533C114.425 193.467 114.623 193.218 114.769 193.253C116.085 193.579 117.4 193.917 118.683 194.349C118.835 194.399 118.955 195.158 118.797 195.37C118.566 195.68 118.07 195.791 117.687 195.988C117.631 195.653 117.575 195.319 117.459 194.628C117.121 195.066 116.672 195.546 116.72 195.603C117.058 196.001 117.455 196.442 117.924 196.6C118.198 196.692 118.687 196.345 118.996 196.093C119.867 195.383 120.732 195.6 121.536 196.113C122.637 196.816 122.847 198.006 122.52 199.096C122.333 199.72 121.587 200.335 120.944 200.626C120.046 201.033 119.305 200.324 119.242 199.213C119.558 199.196 119.874 199.179 120.19 199.162C120.065 198.933 119.9 198.494 119.823 198.509C119.424 198.586 118.879 198.671 118.695 198.954C118.221 199.685 118.814 200.791 119.76 201.146C121.516 201.806 123.341 200.516 123.509 198.465C123.567 197.761 123.532 197.05 123.535 196.343C123.538 195.679 123.536 195.015 123.792 194.343C123.792 196.119 124.047 197.942 123.726 199.658C123.349 201.665 119.734 202.81 117.573 201.358Z" fill="white" fill-opacity="0.980715"/>
</g>
<path fill-rule="evenodd" clip-rule="evenodd" d="M116.788 199.34C116.553 199.604 116.095 199.903 116.129 200.127C116.209 200.659 116.383 201.405 116.768 201.62C117.774 202.181 118.913 202.505 120.061 202.766C119.354 202.766 118.645 202.795 117.939 202.76C116.431 202.685 115.232 202.113 114.483 200.702C114.224 200.214 113.731 199.85 113.347 199.432C113.043 200.033 112.855 200.407 112.666 200.78C112.454 200.575 112.044 200.346 112.066 200.17C112.129 199.671 112.229 198.938 112.563 198.758C113.334 198.343 114.238 198.104 115.114 197.981C115.699 197.899 116.425 197.984 116.911 198.282C117.381 198.572 117.727 199.194 117.92 199.744C118 199.971 117.561 200.408 117.304 200.702C117.252 200.762 116.798 200.601 116.8 200.558C116.821 200.227 116.908 199.899 116.975 199.57C116.913 199.493 116.85 199.417 116.788 199.34Z" fill="white" fill-opacity="0.980715"/>
<mask id="mask12_0_2884" style="mask-type:luminance" maskUnits="userSpaceOnUse" x="107" y="152" width="37" height="22">
<path fill-rule="evenodd" clip-rule="evenodd" d="M107.5 152H143.75V174H107.5V152Z" fill="white"/>
</mask>
<g mask="url(#mask12_0_2884)">
<path fill-rule="evenodd" clip-rule="evenodd" d="M109.913 158.026C110.02 158.857 110.093 159.426 110.166 159.995C109.628 160.004 109.082 160.069 108.556 159.995C108.302 159.96 108.049 159.694 107.856 159.477C106.902 158.405 108.02 153.773 109.359 153.214C109.844 153.012 110.364 152.875 110.818 152.619C112.178 151.852 113.095 152.259 113.534 153.799C113.688 154.343 113.903 155.145 114.285 155.283C114.879 155.497 115.806 155.464 116.271 155.111C116.58 154.875 116.33 153.899 116.33 153.255L115.68 153.261C115.704 153.687 115.727 154.112 115.757 154.637C115.4 154.637 114.904 154.687 114.891 154.629C114.746 153.977 114.404 153.156 114.664 152.691C114.905 152.259 115.938 151.867 116.402 152.043C117.672 152.525 119.442 152.3 119.938 154.128C122.101 154.09 122.718 156.312 124.281 157.198C124.799 157.492 125.223 158.903 124.954 159.409C124.6 160.074 123.554 160.454 122.73 160.733C122.475 160.82 121.974 160.18 121.586 159.872C121.73 159.72 121.874 159.568 122.017 159.416C122.322 159.662 122.627 159.908 122.988 160.2C123.116 159.969 123.293 159.747 123.255 159.699C122.926 159.286 122.619 158.741 122.179 158.574C121.921 158.477 121.136 158.966 121.106 159.246C121.038 159.886 121.118 161.007 121.444 161.133C122.354 161.483 123.418 161.435 124.424 161.528C125.514 161.63 127.17 160.495 127.236 162.855C127.239 162.978 127.786 163.09 128.083 163.199C129.534 163.731 129.78 164.934 128.696 166.01C128.339 166.364 128.156 166.899 127.791 167.239C127.251 167.74 126.663 168.387 126.01 168.509C125.457 168.613 124.744 168.12 124.183 167.762C124.01 167.652 124.028 166.84 124.088 166.824C124.617 166.678 125.176 166.639 125.713 166.57C125.264 165.287 124.486 164.994 123.512 165.881C122.514 166.79 122.13 167.895 122.702 169.242C123.316 170.688 124.382 171.395 125.909 171.169C127.595 170.92 129.247 170.373 130.936 170.221C132.824 170.052 134.736 170.183 136.642 170.399C133.462 169.993 130.441 170.579 127.46 171.699C124.928 172.65 122.384 172.528 120.259 170.781C119.079 169.81 118.28 168.374 116.952 167.269C117.621 168.617 118.29 169.964 118.832 171.057C115.537 169.265 114.528 166.916 115.294 162.502C115.433 161.701 115.314 160.856 115.314 160.04C114.428 160.499 113.857 160.794 113.285 161.09C113.035 160.592 112.449 159.881 112.602 159.637C112.979 159.038 113.662 158.309 114.282 158.247C116.078 158.068 118.083 157.823 118.588 160.417C118.632 160.642 118.967 160.891 119.22 160.98C121.104 161.644 120.556 163.803 121.598 165.006C121.657 165.074 120.589 166.278 119.904 166.743C119.716 166.871 119.015 166.239 118.55 165.956C118.64 165.806 118.731 165.656 118.822 165.506C119.137 165.521 119.451 165.536 119.918 165.558C119.793 165.247 119.754 164.912 119.628 164.875C119.188 164.747 118.586 164.508 118.286 164.697C117.356 165.283 117.641 167.226 118.766 167.373C119.786 167.506 121.046 167.151 121.931 166.586C122.854 165.997 122.789 164.885 122.144 163.895C121.026 162.178 119.99 160.406 118.858 158.698C117.715 156.974 113.99 156.59 112.424 157.984C111.405 158.89 111.425 160.353 112.282 161.488C112.667 161.998 112.92 162.772 112.887 163.409C112.742 166.188 113.364 168.966 115.651 170.36C119.341 172.611 123.485 174.202 127.924 172.461C133.35 170.333 138.544 171.594 143.75 173.255C141.535 172.951 139.316 172.38 137.105 172.409C134.079 172.449 130.899 172.438 128.064 173.336C118.536 176.353 110.225 168.54 111.279 160.978C111.377 160.281 111.369 159.548 111.276 158.849C111.135 157.8 110.761 157.672 109.913 158.026Z" fill="#BBB325"/>
</g>
</g>
<path d="M138.263 154.375C136.5 151.875 137.415 148.368 138.263 146.5L132.125 148.625C132.125 148.625 128.596 154.702 130.504 160.575C132.875 167.875 141.324 170.513 141.25 169.625C140.5 160.575 143.497 160.913 144.75 159.75C142.625 159.25 140.606 157.697 138.263 154.375Z" fill="#413F3A"/>
<g opacity="0.737933">
<path fill-rule="evenodd" clip-rule="evenodd" d="M182.129 228.999C181.118 229.566 180.502 230.293 181.417 231.47C181.171 231.052 180.924 230.633 180.63 230.133C180.073 231.014 180.378 231.771 181.165 231.966C181.635 232.082 182.288 231.461 183.22 230.988C182.437 230.616 182.158 230.483 181.803 230.313C181.993 230.146 182.143 229.954 182.195 229.977C182.871 230.281 183.59 230.541 184.166 230.984C184.344 231.12 184.202 232.106 184.075 232.135C182.913 232.404 181.698 232.768 180.549 232.644C179.855 232.569 179.382 232.212 178.656 232.775C178.249 233.091 177.302 233.05 176.768 232.803C175.171 232.065 173.658 231.146 172 230.237C172.497 229.964 173.154 229.605 173.741 229.284C173.914 229.406 173.936 229.422 173.958 229.437C173.837 229.521 173.716 229.605 173.595 229.689C174.294 230.053 174.96 230.513 175.699 230.749C176.296 230.94 176.98 230.869 177.627 230.898C178.842 230.953 179.903 230.67 180.289 229.359C180.702 227.957 180.161 227.097 178.693 226.538C178.184 226.344 177.743 225.96 177.228 225.793C176.724 225.63 176.135 225.504 175.647 225.623C175.417 225.679 175.271 226.341 175.23 226.742C175.217 226.868 175.669 227.042 175.908 227.194C176.015 226.847 176.123 226.5 176.35 225.765C176.718 226.442 177.007 226.974 177.295 227.506C176.809 227.749 176.325 228.196 175.836 228.202C173.748 228.226 172.49 227.177 172.658 225.146C172.729 224.286 173.893 223.486 174.654 222.757C174.736 222.679 175.449 223.258 175.871 223.53C176.96 224.231 178.049 224.933 179.14 225.632C179.758 226.027 180.493 226.314 180.968 226.837C181.452 227.369 181.681 228.131 182.129 228.999Z" fill="#F4EA29"/>
<path fill-rule="evenodd" clip-rule="evenodd" d="M192.864 222.015C193.076 222.278 193.287 222.54 193.498 222.803C193.612 222.767 193.726 222.732 193.841 222.697C193.765 222.353 193.8 221.867 193.585 221.701C193.326 221.501 192.616 221.408 192.517 221.551C192.119 222.132 191.881 222.821 191.455 223.75H190.226C189.937 222.746 189.657 221.775 189.512 221.271C189.512 220.239 189.752 219.455 189.461 219.049C188.9 218.267 188.273 218.749 187.73 219.33C187.611 219.457 187.153 219.27 186.75 219.213C188.188 217.758 189.82 217.613 191.105 218.772C191.327 218.972 191.159 219.57 191.367 219.823C191.659 220.178 192.136 220.383 192.533 220.652C192.71 220.313 193.067 219.954 193.034 219.637C192.903 218.409 193.265 218.001 194.46 218.316C195.083 218.481 195.67 218.782 196.25 219.013C195.761 219.161 195.222 219.324 194.439 219.562C195.518 220.611 196.659 221.676 195.576 222.898C195.122 223.411 193.839 223.246 192.93 223.26C192.788 223.263 192.635 222.57 192.488 222.199C192.613 222.138 192.739 222.076 192.864 222.015Z" fill="#F4EA29"/>
<path fill-rule="evenodd" clip-rule="evenodd" d="M182.955 223.805C183.04 223.697 183.337 223.397 183.301 223.352C182.774 222.677 182.295 221.904 181.608 221.436C181.182 221.146 180.377 221.179 179.831 221.349C179.3 221.514 178.825 221.988 178.437 222.424C178.219 222.67 178.039 223.259 178.177 223.434C178.391 223.707 178.891 223.758 179.27 223.903C179.324 223.786 179.378 223.669 179.431 223.551C179.224 223.36 179.016 223.168 178.77 222.941C178.93 222.856 179.084 222.708 179.17 222.739C179.596 222.895 180.168 222.998 180.368 223.317C180.537 223.588 180.42 224.295 180.167 224.515C179.413 225.172 178.501 225.05 177.932 224.289C177.215 223.331 174.975 222.705 176.548 221.108C177.323 220.321 178.932 220.25 180.195 220.051C181.791 219.799 183.106 220.516 184.307 221.537C185.219 222.312 185.256 223.29 184.269 223.971C183.903 224.224 183.545 224.489 183.166 224.721C182.958 224.848 182.654 225.054 182.499 224.987C182.052 224.792 181.526 224.556 181.294 224.178C181.15 223.945 181.486 223.422 181.607 223.029C181.991 223.25 182.375 223.471 182.955 223.805Z" fill="#F4EA29"/>
<path fill-rule="evenodd" clip-rule="evenodd" d="M188.25 227.5C188.643 228.975 191.437 229.797 192.5 228.835C191.127 228.404 189.668 227.945 188.25 227.5ZM191.47 226.447C191.675 226.67 191.88 226.894 192.085 227.117C191.95 227.231 191.815 227.345 191.681 227.46C191.347 227.046 190.736 226.617 190.759 226.225C190.779 225.862 191.723 225.176 191.842 225.256C192.732 225.855 193.635 226.516 194.288 227.351C194.597 227.746 194.533 228.631 194.322 229.17C194.159 229.585 193.533 229.874 193.054 230.093C192.574 230.313 192.024 230.385 191.501 230.505C191.108 230.595 190.498 230.859 190.348 230.701C189.385 229.685 187.256 230.251 187.029 228.235C186.997 227.953 186.401 227.748 186.342 227.453C186.243 226.954 186.164 226.184 186.44 225.941C186.837 225.592 187.682 225.179 187.89 226.343C187.921 226.519 188.102 226.744 188.268 226.81C189.348 227.24 190.42 227.744 191.546 227.969C191.885 228.037 192.385 227.294 192.811 226.923C192.483 226.608 192.155 226.293 191.827 225.978C191.708 226.134 191.589 226.291 191.47 226.447Z" fill="#F4EA29"/>
<path fill-rule="evenodd" clip-rule="evenodd" d="M192.296 224.25C193.15 224.519 194.398 224.545 194.754 225.122C195.147 225.758 195.058 227.209 194.567 227.74C193.951 228.409 192.712 228.503 191.25 228.5C193.686 227.433 193.753 226.253 192.296 224.25Z" fill="black"/>
</g>
<mask id="mask13_0_2884" style="mask-type:luminance" maskUnits="userSpaceOnUse" x="153" y="205" width="21" height="11">
<path fill-rule="evenodd" clip-rule="evenodd" d="M173.733 205.391H153.251V216H173.733V205.391Z" fill="white"/>
</mask>
<g mask="url(#mask13_0_2884)">
<path fill-rule="evenodd" clip-rule="evenodd" d="M168.802 209.091C168.501 209.215 168.2 209.339 167.828 209.493C167.814 209.232 167.774 208.961 167.803 208.953C168.361 208.811 168.928 208.699 169.493 208.58C169.484 209.246 169.762 210.219 169.421 210.527C166.813 212.888 163.932 214.892 160.158 214.516C158.874 214.388 157.578 213.77 156.428 213.13C155.321 212.512 154.396 211.577 153.251 210.973C153.786 211.546 154.477 212.039 154.829 212.707C156.589 216.04 159.621 216.238 162.802 215.864C165.844 215.506 168.537 214.25 170.636 212.003C171.298 211.294 171.689 210.336 172.196 209.489C172.427 209.103 172.544 208.506 172.877 208.351C174.36 207.664 173.614 206.908 172.887 206.416C171.713 205.622 170.344 204.419 169.39 206.759C169.316 206.94 168.695 206.873 168.569 207.071C168.103 207.805 167.68 208.58 167.393 209.391C167.344 209.529 168.039 209.924 168.39 210.199C168.614 209.91 168.838 209.621 169.063 209.333C168.976 209.252 168.889 209.172 168.802 209.091Z" fill="#F4EA29" fill-opacity="0.59222"/>
</g>
<path fill-rule="evenodd" clip-rule="evenodd" d="M168 206.052C167.415 205.758 166.819 205.483 166.248 205.165C165.715 204.868 164.808 204.188 164.751 204.255C164.131 204.985 162.711 205.099 162.948 206.537C163.041 207.101 162.742 207.724 162.803 208.301C162.861 208.852 163.05 209.464 163.391 209.88C163.555 210.08 164.351 210.048 164.58 209.829C164.791 209.629 164.625 209.035 164.266 208.553C164.045 208.841 163.824 209.129 163.496 209.557C163.385 209.182 163.187 208.837 163.272 208.742C163.584 208.394 164.004 207.876 164.355 207.897C164.777 207.922 165.452 208.386 165.511 208.744C165.608 209.325 165.501 210.185 165.118 210.559C162.886 212.74 159.87 213.614 156.887 211.283C155.978 210.573 154.9 210.077 153.75 209.732C156.135 210.666 157.114 213.884 160.16 213.746C162.824 213.625 165.415 213.338 167.442 211.006C165.834 209.172 166.682 207.572 167.977 206.033L168 206.052Z" fill="#F4EA29" fill-opacity="0.59222"/>
<path fill-rule="evenodd" clip-rule="evenodd" d="M167.919 205.959C168.216 205.955 168.686 206.07 168.783 205.93C170.098 204.047 171.554 204.234 173.036 205.61C173.462 204.993 173.837 204.45 174.295 203.787C174.452 204.128 174.509 204.209 174.526 204.297C174.632 204.863 174.728 205.431 174.827 205.998C175.238 205.842 176.012 205.648 176 205.536C175.933 204.896 175.807 204.193 175.464 203.663C174.436 202.075 172.555 201.945 170.981 201.312C170.645 201.177 170.157 201.288 169.779 201.409C169.068 201.634 168.337 201.87 167.709 202.254C167.285 202.514 166.768 203.024 166.751 203.44C166.727 204.036 167.102 204.657 167.367 205.241C167.397 205.307 168.008 205.236 168.02 205.167C168.11 204.687 168.114 204.19 168.164 203.412C168.498 203.767 169.132 204.22 169.06 204.406C168.837 204.989 168.346 205.47 167.951 205.984C167.942 205.978 167.919 205.959 167.919 205.959Z" fill="#F4EA29" fill-opacity="0.59222"/>
<mask id="mask14_0_2884" style="mask-type:luminance" maskUnits="userSpaceOnUse" x="170" y="205" width="10" height="10">
<path fill-rule="evenodd" clip-rule="evenodd" d="M179.5 205.428H170.289V214.214H179.5V205.428Z" fill="white"/>
</mask>
<g mask="url(#mask14_0_2884)">
<path fill-rule="evenodd" clip-rule="evenodd" d="M174.901 207.191C173.309 209.573 171.799 211.831 170.289 214.09C170.297 214.131 170.305 214.173 170.312 214.214C171.334 213.161 172.398 212.144 173.364 211.042C174.054 210.253 174.49 209.211 175.258 208.529C176.405 207.51 177.707 207.959 178.005 209.048C177.339 209.176 176.663 209.307 175.987 209.437C176.322 210.073 176.499 210.982 177.026 211.287C178.008 211.855 179.33 211.483 179.455 210.394C179.621 208.957 179.304 207.392 178.861 205.987C178.628 205.247 177.79 205.25 177.048 205.946C176.418 206.537 175.522 206.845 174.901 207.191Z" fill="#F4EA29" fill-opacity="0.59222"/>
</g>
<path fill-rule="evenodd" clip-rule="evenodd" d="M155.609 208.077C155.473 207.807 155.336 207.537 155.199 207.266L155.585 206.945C155.891 207.273 156.197 207.6 156.504 207.927C156.1 208.263 155.727 208.826 155.287 208.882C154.556 208.976 153.783 208.744 153 208.85C153.916 209.099 154.824 209.384 155.751 209.585C156.736 209.799 157.807 210.074 158 208.477C157.752 208.649 157.559 208.782 157.653 208.717C157.02 207.991 156.519 207.286 155.868 206.768C155.715 206.647 155.051 207.163 154.622 207.387C154.797 207.714 154.972 208.041 155.147 208.368C155.301 208.271 155.455 208.174 155.609 208.077Z" fill="#F4EA29" fill-opacity="0.59222"/>
<path d="M113.219 117.092C120.716 117.092 126.793 111.327 126.793 104.217C126.793 97.1058 120.716 91.3414 113.219 91.3414C105.723 91.3414 99.6455 97.1058 99.6455 104.217C99.6455 111.327 105.723 117.092 113.219 117.092Z" fill="#EBBAAA"/>
<path d="M185.469 118.09C192.966 118.09 199.043 112.325 199.043 105.215C199.043 98.1038 192.966 92.3395 185.469 92.3395C177.973 92.3395 171.896 98.1038 171.896 105.215C171.896 112.325 177.973 118.09 185.469 118.09Z" fill="#EBBAAA"/>
<path d="M110.025 93.842C107.599 71.034 125.159 51.0123 148.088 50.4424C171.15 49.8692 189.734 69.21 188.24 92.231L187.833 98.5003L185.761 115.288C183.482 133.755 167.795 147.625 149.188 147.625C130.598 147.625 114.919 133.78 112.619 115.334L110.521 98.5003L110.025 93.842Z" fill="#EED4CC"/>
<path d="M157.13 85.436L172.854 82.942C172.985 82.9212 173.118 82.9532 173.225 83.0305L178.575 86.8927C178.962 87.1722 178.774 87.7835 178.297 87.798L170.739 88.027L157.318 89.5725C156.709 89.6427 156.181 89.1532 156.205 88.5407L156.287 86.3855C156.306 85.9085 156.658 85.5107 157.13 85.436Z" fill="#393939"/>
<path d="M140.218 85.7242L123.626 82.5907C123.502 82.5672 123.373 82.5919 123.266 82.6597L117.508 86.3067C117.099 86.5654 117.26 87.1959 117.742 87.2279L125.733 87.7604L139.912 89.8497C140.52 89.9394 141.065 89.4637 141.057 88.8487L141.032 86.6952C141.026 86.2189 140.686 85.8127 140.218 85.7242Z" fill="#393939"/>
<path d="M144.716 106.367L144.895 106.078C145.044 105.835 145.167 105.627 145.274 105.435L145.349 105.299C145.575 104.883 145.696 104.59 145.722 104.459L145.725 104.44L149.935 105.018C149.828 105.801 149.509 106.572 148.983 107.512C148.814 107.812 148.627 108.126 148.396 108.497L148.215 108.787L147.624 109.715C147.366 110.122 147.174 110.432 147 110.724L146.957 110.797C146.487 111.593 146.185 112.215 146.035 112.709C145.97 112.924 145.94 113.095 145.938 113.218L145.938 113.259L145.94 113.293L145.983 113.329C146.096 113.419 146.289 113.519 146.574 113.618C147.359 113.888 148.58 114.048 150.253 114.057L150.411 114.058V118.308L150.113 118.306C145.734 118.265 143.078 117.308 142.06 115.029C141.566 113.925 141.586 112.734 141.969 111.473C142.236 110.593 142.67 109.698 143.297 108.636L143.447 108.385C143.566 108.187 143.693 107.982 143.838 107.751L144.716 106.367Z" fill="#EBBAAA"/>
<path d="M125 61.5C119.858 63.1427 114.894 70.455 113.375 74C111.125 79.25 109.875 81.125 110.684 98.5428C109.561 98.652 109.214 92.7775 107.11 93.0112C105.825 93.4787 104.735 94.3862 103.735 95.2612C102.914 92.4492 99.9996 79.8643 100 74C100.002 43.3251 115.501 38.375 127.5 43.875C132.775 46.2928 149.125 40.9301 149.125 61.5C138.135 66.9018 134.493 58.4673 125 61.5Z" fill="#2C2929"/>
<path d="M108.445 36.4684C107.057 43.3476 113.493 41.5909 110.619 42.1163C107.745 42.6416 116.788 46.2274 113 45.75C109.212 45.2726 114.25 52.078 114.753 50.1849C115.257 48.2917 117.346 46.4849 117.346 46.4849L125.277 42.8538C125.136 42.156 121.471 42.3796 117.321 41.4383C116.47 40.5045 112.736 40.1873 108.445 36.4684Z" fill="#2C2929"/>
<path d="M116.248 33.3356C116.248 38.4789 122.459 38.6899 126.047 38.4789L130.413 40.4082C132.481 41.3221 125.22 50.0871 118.351 48.0882C112.856 46.489 111.955 42.9489 111.694 41.1558C111.196 37.7248 111.694 35.9239 116.248 33.3356Z" fill="#2C2929"/>
<path d="M171.875 62.375C175 62.375 177.801 63.375 179.625 65.625C182.131 68.7152 187.5 73.75 187.842 98.8023C188.967 98.9115 189.04 93.2665 191.145 93.5003C192.02 93.8753 193.145 94.5003 194.52 95.6253C195.343 92.8133 197.407 84 197.407 76C197.407 39.875 168.625 26.75 147 26.75C135.127 26.75 120.264 28.2543 117.375 41.875C115.625 50.125 125 48.7418 125 53.5C125 68.75 161.904 62.375 171.875 62.375Z" fill="black"/>
<path d="M163.75 92.25C165.795 92.25 167.457 93.8867 167.499 95.9215L167.5 96V98.5C167.5 100.571 165.821 102.25 163.75 102.25C161.705 102.25 160.043 100.613 160.001 98.5785L160 98.5V96C160 93.9289 161.679 92.25 163.75 92.25Z" fill="black"/>
<path d="M133.5 92.25C135.545 92.25 137.207 93.8867 137.249 95.9215L137.25 96V98.5C137.25 100.571 135.571 102.25 133.5 102.25C131.455 102.25 129.793 100.613 129.751 98.5785L129.75 98.5V96C129.75 93.9289 131.429 92.25 133.5 92.25Z" fill="black"/>
<path d="M143.959 94.8213C146.739 93.8402 149.406 93.7286 152.496 94.7633L152.659 94.8188L151.841 97.1813C149.295 96.2998 147.192 96.3575 144.922 97.1332L144.791 97.1788L143.959 94.8213Z" fill="#CFAE8F"/>
<path fill-rule="evenodd" clip-rule="evenodd" d="M155.821 91.1915C158.468 89.6283 161.923 88.4981 166.29 87.9827C171.772 87.3358 176.2 88.1288 179.636 89.8504C180.551 90.3089 181.323 90.8008 181.957 91.2939C182.18 91.4673 182.37 91.6289 182.528 91.7746C182.624 91.8635 182.689 91.9283 182.724 91.9651L182.8 92.0469L181.815 102.825C181.347 107.946 176.983 111.823 171.843 111.684L161.854 111.416C156.874 111.282 152.796 107.415 152.397 102.449L151.785 94.8304L151.822 94.7645C151.857 94.7017 151.926 94.5916 152.034 94.441L152.094 94.3578C152.26 94.1335 152.464 93.8886 152.707 93.6278C153.484 92.7952 154.511 91.9648 155.821 91.1915ZM181.651 91.6886C181.042 91.2152 180.297 90.7408 179.412 90.2974C176.063 88.6193 171.733 87.8439 166.349 88.4792C162.049 88.9866 158.661 90.0951 156.075 91.6221C154.808 92.3707 153.818 93.1709 153.073 93.9689C152.814 94.2463 152.605 94.5029 152.441 94.732L152.41 94.7754C152.39 94.8033 152.373 94.8291 152.357 94.8528L152.297 94.9447L152.896 102.409C153.271 107.073 157.066 110.715 161.726 110.911L161.868 110.916L171.857 111.185C176.733 111.316 180.873 107.637 181.317 102.78L182.281 92.2287L182.221 92.1709L182.124 92.0826C181.99 91.9619 181.832 91.8297 181.651 91.6886Z" fill="#CFAE8F"/>
<path d="M165.98 87.471C169.634 86.9984 173.057 87.2745 176.212 88.1358C178.53 88.7689 180.511 89.66 182.119 90.6464C183.009 91.1925 183.501 92.1824 183.469 93.2476L183.465 93.3319L183.167 98.7019L181.669 98.6186L181.968 93.2485C181.999 92.6833 181.76 92.1862 181.335 91.9251C179.842 91.0095 177.991 90.1764 175.817 89.5828C172.848 88.7723 169.623 88.5122 166.172 88.9586C162.742 89.4022 159.826 90.2315 157.387 91.3446C155.598 92.1608 154.212 93.0582 153.193 93.9366C152.909 94.1815 152.764 94.5713 152.793 95.0134L152.799 95.08L153.412 100.922L151.92 101.078L151.307 95.2363C151.209 94.2995 151.524 93.395 152.214 92.8005C155.049 90.3554 159.549 88.3027 165.98 87.471Z" fill="black"/>
<path fill-rule="evenodd" clip-rule="evenodd" d="M114.997 91.6749C115.658 91.179 116.458 90.6841 117.399 90.2228C120.87 88.5227 125.264 87.7209 130.618 88.3092C134.962 88.7866 138.368 89.8964 140.95 91.4498C142.192 92.1975 143.163 93.0006 143.892 93.8059C144.15 94.0898 144.359 94.3543 144.524 94.593C144.624 94.739 144.689 94.8458 144.721 94.9069L144.754 94.9691L144.305 102.154C143.992 107.162 139.929 111.114 134.914 111.289L125.369 111.623C120.294 111.8 115.933 108.052 115.345 103.008L114.112 92.4342L114.195 92.3489C114.231 92.3122 114.299 92.2473 114.4 92.1581L114.473 92.0944C114.623 91.9651 114.798 91.8244 114.997 91.6749ZM140.692 91.8782C138.174 90.363 134.837 89.2758 130.563 88.8062C125.305 88.2284 121.006 89.0129 117.619 90.6718C116.706 91.1189 115.933 91.5973 115.297 92.0748C115.075 92.241 114.887 92.3949 114.731 92.5325L114.636 92.6179L115.842 102.95C116.394 107.687 120.455 111.22 125.208 111.127L125.352 111.123L134.896 110.79C139.654 110.623 143.509 106.874 143.806 102.123L144.246 95.0824C144.221 95.0404 144.186 94.9858 144.141 94.9187L144.112 94.877C143.96 94.6563 143.764 94.409 143.522 94.1417C142.825 93.3721 141.892 92.6004 140.692 91.8782Z" fill="#CFAE8F"/>
<path d="M120.902 88.5127C123.986 87.6477 127.337 87.3527 130.918 87.7867C137.194 88.5474 141.615 90.5074 144.432 92.8736C145.13 93.461 145.454 94.3601 145.364 95.2949L145.354 95.3826L144.619 101.342L143.13 101.158L143.866 95.1987C143.926 94.7142 143.778 94.2837 143.467 94.022C140.87 91.8406 136.72 90.001 130.738 89.2758C127.359 88.8663 124.206 89.1439 121.307 89.957C119.18 90.5534 117.37 91.3825 115.909 92.2918C115.502 92.5451 115.269 93.0162 115.284 93.5543L115.287 93.6191L115.62 98.8631L114.123 98.9584L113.79 93.7144C113.72 92.6172 114.206 91.5847 115.117 91.0183C116.693 90.0374 118.631 89.1496 120.902 88.5127Z" fill="black"/>
<mask id="mask15_0_2884" style="mask-type:luminance" maskUnits="userSpaceOnUse" x="138" y="115" width="23" height="17">
<path fill-rule="evenodd" clip-rule="evenodd" d="M138 123.625C138 119.138 141.638 115.5 146.125 115.5H152.125C156.612 115.5 160.25 119.138 160.25 123.625C160.25 128.112 156.612 131.75 152.125 131.75H146.125C141.638 131.75 138 128.112 138 123.625Z" fill="white"/>
</mask>
<g mask="url(#mask15_0_2884)">
<rect x="138.75" y="126.25" width="50.75" height="10.5" fill="white"/>
</g>
</svg>
