<svg width="300" height="400" viewBox="0 0 300 400" fill="none" xmlns="http://www.w3.org/2000/svg">
<path d="M166.153 268.61C170.07 267.825 173.882 270.364 174.667 274.281C176.245 282.157 176.843 295.132 176.87 314.137L176.869 317.165C176.864 320.808 176.841 324.455 176.795 329.251L176.648 344.109C176.633 346.045 176.627 347.355 176.626 348.851L176.626 349.474C176.626 353.468 173.388 356.707 169.392 356.707C165.397 356.707 162.159 353.468 162.159 349.474L162.162 347.32C162.165 346.311 162.171 345.264 162.182 343.921L162.328 329.129C162.375 324.203 162.398 320.504 162.402 316.78L162.403 315.31C162.4 296.681 161.833 283.872 160.481 277.122C159.696 273.206 162.236 269.394 166.153 268.61Z" fill="#EBBAAA"/>
<path d="M129.682 295.197C129.913 291.209 133.333 288.163 137.321 288.394C141.31 288.624 144.356 292.044 144.126 296.032C143.864 300.565 143.568 304.9 143.217 309.463L143.029 311.858C142.676 316.246 141.961 324.77 141.94 325.036L141.786 326.957C141.46 331.109 141.253 334.306 141.116 337.428C140.896 342.454 140.879 347.111 141.086 352.054C141.252 356.046 138.152 359.416 134.16 359.583C130.169 359.75 126.797 356.65 126.631 352.659C126.406 347.289 126.425 342.221 126.663 336.796L126.701 335.95C126.858 332.63 127.092 329.196 127.449 324.733L128.418 313.029C128.541 311.527 128.649 310.199 128.717 309.32C129.094 304.486 129.407 299.951 129.682 295.197Z" fill="#EBBAAA"/>
<path d="M146.045 270.039C162.234 270.039 175.358 263.619 175.358 255.7C175.358 247.782 162.234 241.362 146.045 241.362C129.856 241.362 116.731 247.782 116.731 255.7C116.731 263.619 129.856 270.039 146.045 270.039Z" fill="#2E2E2D"/>
<path d="M114.535 239.657H148.8L146.262 332.307L145.501 341.35L126.084 340.302L124.688 332.307L114.535 239.657Z" fill="#2E2E2D"/>
<path d="M148.474 241.235H182.855L179.131 331.389L178.751 339.515L158.826 341.218L157.684 333.749L148.474 241.235Z" fill="#2E2E2D"/>
<path fill-rule="evenodd" clip-rule="evenodd" d="M176.386 350.177C176.386 350.177 177.173 353.511 183.495 353.511V358.96H168.012L176.386 350.177Z" fill="#EBBAAA"/>
<path d="M201.655 365.982C201.655 358.607 194.324 353.511 183.495 353.511V356.374C162.655 356.374 162.655 352.631 162.655 352.631C160.528 352.631 160.528 365.982 160.528 365.982H201.655Z" fill="#2E2E2D"/>
<path d="M202.785 367.135C202.785 365.033 200.883 364.955 196.51 364.955H160.651C160.231 364.955 159.89 365.297 159.89 365.716V366.373C159.89 366.795 160.231 367.135 160.651 367.135H202.785Z" fill="#BF9176"/>
<path fill-rule="evenodd" clip-rule="evenodd" d="M127.376 350.177C127.376 350.177 126.589 353.511 120.268 353.511V358.96H135.75L127.376 350.177Z" fill="#EBBAAA"/>
<path d="M102.108 365.982C102.108 358.607 109.438 353.511 120.268 353.511V356.374C141.108 356.374 141.108 352.631 141.108 352.631C143.235 352.631 143.235 365.982 143.235 365.982H102.108Z" fill="#2E2E2D"/>
<path d="M100.978 367.135C100.978 365.033 102.88 364.955 107.252 364.955H143.111C143.532 364.955 143.873 365.297 143.873 365.716V366.373C143.873 366.795 143.532 367.135 143.111 367.135H100.978Z" fill="#BF9176"/>
<path d="M98.6317 171.665C100.991 167.047 106.648 165.215 111.267 167.574C115.886 169.933 117.718 175.59 115.358 180.208C112.088 186.611 108.635 199.517 106.831 212.011L106.777 212.389C105.92 218.435 105.531 223.854 105.666 227.829L105.673 228.02C105.726 229.383 105.84 230.492 105.985 231.277L106.017 231.442L106.025 231.451C108.692 234.503 109.152 239.051 106.891 242.634L106.808 242.765C103.969 247.105 98.1491 248.323 93.808 245.485C90.7058 243.457 89.0098 240.493 88.0138 236.875C87.3704 234.537 87.0242 231.838 86.9048 228.745C86.7018 223.489 87.1638 216.923 88.1803 209.753C90.2347 195.263 94.2192 180.303 98.6317 171.665Z" fill="#EBBAAA"/>
<path d="M182.337 161.48C186.855 158.932 192.582 160.528 195.131 165.045C201.146 175.706 205.585 190.77 207.877 206.513C210.059 221.505 210.015 235.063 207.269 242.612C205.497 247.485 200.109 250 195.234 248.227C190.409 246.473 187.896 241.175 189.566 236.34L189.618 236.194C191.022 232.332 191.058 221.362 189.29 209.218C187.305 195.578 183.49 182.636 178.772 174.272C176.223 169.755 177.82 164.028 182.337 161.48Z" fill="#EBBAAA"/>
<path d="M106.308 152.735C106.308 146.771 119.379 140.684 128.517 137.789L140.446 133.831C142.107 133.779 153.522 134.254 155.168 134.481L173.696 140.684C182.476 141.897 196.028 145.693 195.144 154.511L185.638 193.29L186.514 243.21C186.532 243.67 165.527 246.279 165.066 246.255L130.167 244.042L111.257 243.192C110.815 243.169 110.586 241.875 110.623 241.433L113.163 188.615L106.308 152.735Z" fill="#EBBAAA"/>
<path d="M192.986 146.644C190.651 144.309 182.961 141.949 179.407 141.06C181.649 171.007 186.336 231.663 187.149 234.708C188.164 238.515 210.373 240.038 212.403 238.515C214.434 236.992 216.718 222.653 216.211 214.786C215.703 206.918 195.905 149.562 192.986 146.644Z" fill="#565885"/>
<path d="M105.526 147.274C107.712 144.941 114.911 142.582 118.237 141.695C116.139 171.619 111.751 232.227 110.991 235.27C110.04 239.074 89.2502 240.595 87.3494 239.074C85.4486 237.552 83.3102 223.224 83.7854 215.363C84.2606 207.502 102.793 150.19 105.526 147.274Z" fill="#565885"/>
<path d="M111.32 235.27C110.347 239.074 89.0705 240.595 87.1252 239.074C86.6931 238.736 85.825 236.376 85.825 236.376L111.612 233.146C111.612 233.146 111.389 234.999 111.32 235.27Z" fill="white"/>
<path d="M187.259 235.016C188.282 238.82 210.668 240.342 212.714 238.82C213.169 238.482 214.082 236.122 214.082 236.122L186.951 232.892C186.951 232.892 187.186 234.745 187.259 235.016Z" fill="white"/>
<path fill-rule="evenodd" clip-rule="evenodd" d="M144.254 148.166C144.254 148.166 143.619 153.242 144.888 156.922C145.804 159.576 146.389 160.58 146.644 160.934C150.04 158.917 150.409 157.359 149.711 156.795C146.411 154.13 146.961 152.015 147.553 149.943L148.695 149.181L157.071 148.166L164.94 137.507C164.94 137.507 176.234 139.03 180.042 141.06C183.849 143.091 186.133 165.297 186.133 165.297L187.91 244.352L178.265 247.017H141.208H141.081C141.081 247.016 141.081 247.016 141.081 247.015L128.644 246.89L109.861 243.971L111.257 168.216C111.469 165.334 111.577 162.611 111.678 160.079C112.062 150.456 112.337 143.584 117.73 141.187C118.521 140.835 119.21 140.522 119.829 140.241C123.68 138.491 124.876 137.948 131.69 136.746L138.543 150.07L144.254 148.166Z" fill="#494B7E"/>
<mask id="mask0_0_3037" style="mask-type:luminance" maskUnits="userSpaceOnUse" x="109" y="136" width="79" height="112">
<path fill-rule="evenodd" clip-rule="evenodd" d="M144.254 148.166C144.254 148.166 143.619 153.242 144.888 156.922C145.804 159.576 146.389 160.58 146.644 160.934C150.04 158.917 150.409 157.359 149.711 156.795C146.411 154.13 146.961 152.015 147.553 149.943L148.695 149.181L157.071 148.166L164.94 137.507C164.94 137.507 176.234 139.03 180.042 141.06C183.849 143.091 186.133 165.297 186.133 165.297L187.91 244.352L178.265 247.017H141.208H141.081C141.081 247.016 141.081 247.016 141.081 247.015L128.644 246.89L109.861 243.971L111.257 168.216C111.469 165.334 111.577 162.611 111.678 160.079C112.062 150.456 112.337 143.584 117.73 141.187C118.521 140.835 119.21 140.522 119.829 140.241C123.68 138.491 124.876 137.948 131.69 136.746L138.543 150.07L144.254 148.166Z" fill="white"/>
</mask>
<g mask="url(#mask0_0_3037)">
<path d="M165.239 143.231C165.239 153.532 160.656 166.871 148.478 166.871C136.3 166.871 130.416 148.212 130.416 137.911C130.416 127.61 136.3 125.949 148.478 125.949C160.656 125.949 165.239 132.93 165.239 143.231Z" fill="#D0D0D0"/>
</g>
<path d="M158.087 141.06C158.959 138.173 158.087 136.111 157.833 134.843L164.94 137.507C164.94 137.507 167.351 140.553 165.828 147.532C164.16 155.178 156.781 158.191 155.041 160.221C154.279 161.11 154.533 150.324 148.695 149.182C151.36 148.547 156.437 146.517 158.087 141.06Z" fill="white"/>
<path d="M137.794 142.583C136.005 140.045 136.933 136.486 137.794 134.589L131.563 136.746C131.563 136.746 127.979 142.915 129.916 148.877C132.324 156.288 140.902 158.965 140.827 158.064C140.066 148.877 143.109 149.22 144.38 148.04C142.223 147.532 140.173 145.956 137.794 142.583Z" fill="white"/>
<path d="M179.017 110.059C186.345 110.059 191.645 101.671 192.285 95.4547C192.924 89.2384 186.345 82.9595 179.017 82.9595C171.69 82.9595 165.75 88.5537 165.75 95.4547C165.75 102.356 171.69 110.059 179.017 110.059Z" fill="#EBBAAA"/>
<path d="M116.984 111.492C109.657 111.492 104.357 103.104 103.717 96.8881C103.078 90.6715 109.657 84.3926 116.984 84.3926C124.312 84.3926 130.251 89.9871 130.251 96.8881C130.251 103.789 124.312 111.492 116.984 111.492Z" fill="#EBBAAA"/>
<path d="M110.9 76.4972C110.9 55.5174 127.143 38.5099 147.181 38.5099C167.219 38.5099 183.463 55.5174 183.463 76.4972L181.007 105.865C178.1 124.15 164.134 138.004 147.181 138.004C130.228 138.004 116.824 122.327 113.355 105.865L110.9 76.4972Z" fill="#F4D4C9"/>
<path d="M173.471 67.5481L171.18 48.3275C170.834 45.4231 168.26 44.6823 176.518 50.7681C184.775 56.854 186.095 76.2729 183.978 84.8425L182.393 95.6828L181.509 94.4012L180.673 81.895C176.512 77.7073 174.204 73.6987 173.471 67.5481Z" fill="#6E6C6C"/>
<path d="M114.479 69.0683C114.28 62.8781 113.613 63.2561 113.481 59.1292C113.387 56.2059 113.345 55.467 111.007 62.5652C108.668 69.6635 109.295 78.2936 110.629 86.5129L112.021 94.0743L113.185 94.0369L112.879 84.5068C114.351 77.7555 114.678 75.2588 114.479 69.0683Z" fill="#6E6C6C"/>
<path fill-rule="evenodd" clip-rule="evenodd" d="M147.184 34.0523V34.0521C147.167 34.0521 147.15 34.0521 147.133 34.0522C147.116 34.0521 147.099 34.0521 147.083 34.0521V34.0523C136.348 34.0909 110.647 40.2732 109.681 69.2056C112.535 65.6419 110.313 67.8367 114.228 65.511C117.985 63.2792 121.803 58.7381 130.816 57.5431C139.829 56.3478 141.298 58.1405 146.157 58.1405C150.075 58.1405 152.773 56.4474 159.197 56.9454C165.621 57.4433 167.976 61.4735 171.087 63.0211C176.773 65.8495 178.927 64.99 184.484 69.2059C183.518 40.2733 157.917 34.0909 147.184 34.0523Z" fill="#272727"/>
<path d="M165.63 82.3633C166.924 82.3632 167.973 83.4123 167.973 84.7063C167.973 85.9777 166.961 87.0126 165.698 87.0486L165.63 87.0495L156.701 87.0498C155.406 87.0498 154.357 86.0008 154.357 84.7067C154.357 83.4354 155.37 82.4005 156.633 82.3645L156.701 82.3635L165.63 82.3633Z" fill="#393939"/>
<path d="M136.673 82.057C137.963 81.9531 139.093 82.9145 139.197 84.2044C139.299 85.4717 138.373 86.5845 137.117 86.7217L137.049 86.7281L127.275 87.5154C125.985 87.6193 124.855 86.6578 124.751 85.3679C124.649 84.1007 125.575 82.9879 126.831 82.8507L126.898 82.8443L136.673 82.057Z" fill="#393939"/>
<path d="M144.595 92.895L148.868 94.0498L146.119 104.221C145.46 106.661 147.272 109.062 149.786 109.11L149.863 109.111H151.557V113.537H149.863C144.45 113.537 140.499 108.448 141.805 103.225L141.846 103.067L144.595 92.895Z" fill="#EBBAAA"/>
<path d="M126.935 93.7262C128.656 92.8291 131.509 92.6208 134.256 93.6506C135.043 93.9459 135.442 94.8236 135.147 95.611C134.852 96.3984 133.974 96.7974 133.186 96.5022C131.299 95.7944 129.382 95.9183 128.4 96.3984L128.344 96.4265C127.598 96.8154 126.678 96.5262 126.289 95.7805C125.9 95.0349 126.19 94.1152 126.935 93.7262Z" fill="#393939"/>
<path d="M159.185 93.7262C160.906 92.8291 163.759 92.6208 166.506 93.6506C167.293 93.9459 167.692 94.8236 167.397 95.611C167.102 96.3985 166.224 96.7974 165.436 96.5022C163.549 95.7944 161.632 95.9183 160.65 96.3984L160.594 96.4265C159.848 96.8154 158.928 96.5262 158.539 95.7805C158.15 95.0349 158.44 94.1151 159.185 93.7262Z" fill="#393939"/>
<path d="M139.792 122.429C140.213 121.417 141.375 120.938 142.387 121.36C145.827 122.793 150.185 122.705 152.532 121.494L152.623 121.446C153.587 120.925 154.791 121.284 155.312 122.248C155.833 123.212 155.474 124.416 154.51 124.937C151.097 126.782 145.418 126.921 140.861 125.023C139.849 124.602 139.371 123.44 139.792 122.429Z" fill="#C99584"/>
<path d="M119.272 42.8084L117.061 50.9374L146.212 46.2659L179.527 52.5678L179.457 49.223L177.08 48.2009L177.025 45.5729L174.029 45.6402L173.944 41.5788L170.092 41.6654L169.171 38.5788L165.747 38.6558L163.649 35.5957L160.139 36.6308L159.029 34.7435L155.391 34.8254L155.346 32.6752L150.47 34.936L149.141 32.8147L147.046 35.0131L144.861 32.911L140.841 35.1526L138.228 33.0602L135.491 35.273L133.565 35.3163L131.466 37.2757L130.57 35.3837L127.017 39.5269L124.644 38.6242L121.639 43.3528L119.272 42.8084Z" fill="#272727"/>
</svg>
