<svg width="300" height="400" viewBox="0 0 300 400" fill="none" xmlns="http://www.w3.org/2000/svg">
<path d="M155.231 249.777C159.288 248.938 163.256 251.547 164.095 255.603C165.638 263.065 166.392 281.077 166.338 303.029L166.336 303.695C166.269 324.785 165.451 344.617 164.175 353.558C163.589 357.658 159.79 360.508 155.69 359.922C151.589 359.337 148.74 355.538 149.325 351.437C151.871 333.607 152.09 272.875 149.485 259.045L149.405 258.64C148.567 254.584 151.175 250.616 155.231 249.777Z" fill="#F6DDD6"/>
<path d="M118.186 254.401C119.025 250.345 122.993 247.737 127.049 248.576C131.065 249.406 133.662 253.304 132.9 257.317L132.875 257.439C130.187 270.443 130.384 332.427 132.955 350.437C133.541 354.538 130.691 358.337 126.591 358.922C122.49 359.508 118.692 356.658 118.106 352.558C116.842 343.707 116.028 324.136 115.947 303.228L115.944 302.594C115.873 280.283 116.628 261.938 118.186 254.401Z" fill="#F6DDD6"/>
<path d="M162.891 271.103L118.382 266.042L108.772 241.75L168.961 244.28L162.891 271.103Z" fill="#556681"/>
<path d="M138.5 247.695L174.889 245.122L168.5 339.872L146.875 338.872L144.875 301.25L138.5 247.695Z" fill="#556681"/>
<path d="M105.875 242.872L138.614 248.329L136.567 296.512L135.625 339.747L114.25 338.872L105.875 242.872Z" fill="#556681"/>
<path d="M113.065 337.623H136.331L135.573 348.503H114.962L113.065 337.623Z" fill="#6D7F9A"/>
<path d="M145.689 337.623H170.219L167.943 348.503H146.194L145.689 337.623Z" fill="#6D7F9A"/>
<path d="M91.1908 372.505C91.1408 366.768 91.9225 363.278 96.9098 360.933C101.897 358.59 106.595 354.083 115.224 350.218C115.224 350.218 116.359 350.003 118.208 351.003C119.786 351.855 121.812 353.948 124.866 353.923C128.181 353.893 131.136 353.19 132.972 352.228C133.765 350.055 135.524 350.04 135.524 350.04C135.524 350.04 138.001 354.755 138.043 359.493C138.084 364.228 138.08 372.095 138.08 372.095L91.1908 372.505Z" fill="#161616"/>
<path d="M113.424 350.564C113.765 350.412 114.165 350.566 114.317 350.908C114.51 351.342 114.65 351.819 114.745 352.338C114.886 353.102 114.917 353.728 114.917 354.835C114.917 355.31 114.443 355.632 114.006 355.47L113.967 355.454L110.67 353.999L111.374 356.55C111.513 357.056 111.051 357.515 110.553 357.386L110.514 357.374L107.202 356.306L107.202 359.302C107.202 359.801 106.684 360.124 106.241 359.917L106.203 359.897L103.954 358.678L103.954 360.927C103.954 361.287 103.673 361.582 103.318 361.603L103.277 361.604C102.917 361.604 102.623 361.323 102.602 360.969L102.601 360.927V357.542C102.601 357.044 103.119 356.721 103.562 356.928L103.6 356.948L105.849 358.166L105.849 355.377C105.849 354.933 106.269 354.613 106.692 354.722L106.733 354.733L109.735 355.701L108.986 352.985C108.838 352.448 109.364 351.978 109.875 352.171L109.912 352.186L113.545 353.789C113.527 353.37 113.492 353.027 113.428 352.661L113.414 352.582C113.337 352.163 113.227 351.787 113.08 351.457C112.929 351.116 113.082 350.716 113.424 350.564Z" fill="white"/>
<path d="M93.0777 361.372C94.608 360.817 96.2285 360.397 99.3352 359.695L98.015 363.495L98.0527 367.825L89.2097 367.902C88.8488 367.905 88.2039 367.425 88.5118 365.472C88.8965 363.032 90.9035 362.16 93.0777 361.372Z" fill="#161616"/>
<path d="M138.228 371.358L137.971 366.8L98.3197 367.418L88.4332 366.693L88.1312 370.185C88.0269 371.393 88.9316 372.45 90.1392 372.533L98.3695 373.103L137.164 372.5C137.779 372.49 138.262 371.97 138.228 371.358Z" fill="#808080"/>
<path d="M191.853 372.505C191.903 366.768 191.121 363.278 186.134 360.933C181.147 358.59 176.449 354.083 167.82 350.218C167.82 350.218 166.685 350.003 164.836 351.003C163.258 351.855 161.232 353.948 158.178 353.923C154.863 353.893 151.908 353.19 150.072 352.228C149.279 350.055 147.52 350.04 147.52 350.04C147.52 350.04 145.042 354.755 145.001 359.493C144.96 364.228 144.964 372.095 144.964 372.095L191.853 372.505Z" fill="#161616"/>
<path d="M168.727 350.908C168.879 350.566 169.279 350.412 169.62 350.564C169.962 350.716 170.115 351.116 169.964 351.457C169.817 351.787 169.707 352.163 169.63 352.582C169.565 352.934 169.527 353.259 169.506 353.641L169.498 353.789L173.132 352.186C173.642 351.961 174.184 352.413 174.067 352.947L174.058 352.985L173.309 355.701L176.311 354.733C176.734 354.597 177.167 354.899 177.194 355.335L177.195 355.377L177.195 358.166L179.444 356.948C179.882 356.71 180.413 357.012 180.442 357.5L180.443 357.542V360.927C180.443 361.301 180.14 361.604 179.767 361.604C179.407 361.604 179.112 361.323 179.091 360.969L179.09 360.927L179.09 358.678L176.841 359.897C176.403 360.135 175.872 359.833 175.843 359.345L175.842 359.302L175.842 356.306L172.53 357.374C172.031 357.535 171.552 357.093 171.661 356.59L171.67 356.55L172.374 353.999L169.077 355.454C168.643 355.646 168.157 355.343 168.129 354.878L168.127 354.835L168.128 354.578C168.133 353.627 168.169 353.041 168.299 352.338C168.394 351.819 168.534 351.342 168.727 350.908Z" fill="white"/>
<path d="M189.966 361.372C188.436 360.817 186.815 360.397 183.708 359.695L185.029 363.495L184.991 367.825L193.834 367.902C194.195 367.905 194.84 367.425 194.532 365.472C194.147 363.032 192.14 362.16 189.966 361.372Z" fill="#161616"/>
<path d="M144.816 371.358L145.073 366.8L184.724 367.418L194.611 366.693L194.913 370.185C195.017 371.393 194.112 372.45 192.905 372.533L184.674 373.103L145.88 372.5C145.265 372.49 144.781 371.97 144.816 371.358Z" fill="#808080"/>
<path d="M98.6846 158.597C103.86 152.128 113.299 151.079 119.768 156.254C126.172 161.378 127.264 170.681 122.264 177.143L122.11 177.338C121.424 178.196 116.726 183.971 115.388 185.673L115.311 185.772C111.92 190.106 109.702 193.513 107.467 198.027C106.233 200.518 105.012 203.335 103.761 206.607C100.802 214.345 92.1309 218.219 84.393 215.261C76.655 212.302 72.7806 203.631 75.7392 195.893C77.317 191.767 78.9132 188.086 80.5814 184.716C83.7448 178.327 86.9965 173.306 91.4466 167.589L91.8706 167.047C93.5097 164.97 98.164 159.248 98.6846 158.597Z" fill="#E0C1A1"/>
<path d="M181.667 165.229C178.174 157.454 169.329 153.625 161.27 156.4C153.29 159.148 148.676 167.48 150.581 175.701L164.308 234.939C167.092 246.949 179.546 254.016 191.283 250.245C202.423 246.666 208.515 234.697 204.851 223.584L196.5 198.25L181.667 165.229Z" fill="#E0C1A1"/>
<path d="M182.375 233C175.584 234.698 178.917 239.583 179 242.75C192 242.75 199.417 245.292 201.25 245.875C201.75 244.625 202.548 242.75 203.25 241.25C207.111 233 191.375 230.75 182.375 233Z" fill="#DBB793"/>
<path d="M99.0365 176.493C99.0507 162.029 110.79 150.334 125.254 150.334H153.613C167.264 150.334 178.645 160.791 179.487 174.416C180.15 185.13 180.75 197.361 180.75 206.5C180.75 218.159 179.773 234.777 178.937 246.872C178.327 255.688 170.968 262.45 162.131 262.45H117.761C108.974 262.45 101.639 255.76 100.976 246.998C100.131 235.812 99.1632 220.82 99.09 210C99.0305 201.193 99.0247 188.144 99.0365 176.493Z" fill="#E3C7AB"/>
<path d="M140.137 172.179C149.149 172.179 156.455 164.755 156.455 155.598C156.455 146.441 149.149 139.018 140.137 139.018C131.125 139.018 123.82 146.441 123.82 155.598C123.82 164.755 131.125 172.179 140.137 172.179Z" fill="#DBB793"/>
<rect x="130.086" y="133.758" width="20.2274" height="30.341" rx="10.1137" fill="#EED1C9"/>
<rect x="115.398" y="181.916" width="23.6865" height="23.6865" rx="6.5" fill="#FF6C75"/>
<path fill-rule="evenodd" clip-rule="evenodd" d="M140.663 193.76C140.663 187.219 145.965 181.916 152.506 181.916C159.047 181.916 164.349 187.219 164.349 193.76C164.349 200.3 159.047 205.603 152.506 205.603C145.965 205.603 140.663 200.3 140.663 193.76ZM161.349 193.76C161.349 188.876 157.39 184.916 152.506 184.916C147.622 184.916 143.663 188.876 143.663 193.76C143.663 198.644 147.622 202.603 152.506 202.603C157.39 202.603 161.349 198.644 161.349 193.76Z" fill="#FF6C75"/>
<path fill-rule="evenodd" clip-rule="evenodd" d="M121.898 206.919H132.584C136.174 206.919 139.084 209.829 139.084 213.419V224.105C139.084 227.695 136.174 230.605 132.584 230.605H121.898C118.308 230.605 115.398 227.695 115.398 224.105V213.419C115.398 209.829 118.308 206.919 121.898 206.919ZM132.584 209.919H121.898C119.965 209.919 118.398 211.486 118.398 213.419V224.105C118.398 226.038 119.965 227.605 121.898 227.605H132.584C134.517 227.605 136.084 226.038 136.084 224.105V213.419C136.084 211.486 134.517 209.919 132.584 209.919Z" fill="#FF6C75"/>
<path fill-rule="evenodd" clip-rule="evenodd" d="M147.163 206.919H157.849C161.439 206.919 164.349 209.829 164.349 213.419V224.105C164.349 227.695 161.439 230.605 157.849 230.605H147.163C143.573 230.605 140.663 227.695 140.663 224.105V213.419C140.663 209.829 143.573 206.919 147.163 206.919ZM157.849 209.919H147.163C145.23 209.919 143.663 211.486 143.663 213.419V224.105C143.663 226.038 145.23 227.605 147.163 227.605H157.849C159.782 227.605 161.349 226.038 161.349 224.105V213.419C161.349 211.486 159.782 209.919 157.849 209.919Z" fill="#FF6C75"/>
<path d="M116.714 160.862C120.293 166.546 126.978 170.863 135.926 170.863C135.926 164.108 131.189 157.177 125.662 149.282C123.368 146.004 121.451 142.439 116.714 142.439C115.222 146.211 113.134 155.177 116.714 160.862Z" fill="#C09F7B"/>
<path d="M162.507 160.862C158.928 166.546 152.243 170.863 143.295 170.863C143.295 164.108 148.032 157.177 153.559 149.282C155.853 146.004 157.77 142.439 162.507 142.439C163.999 146.211 166.087 155.177 162.507 160.862Z" fill="#C09F7B"/>
<path d="M130.136 165.165C131.082 165.165 131.853 165.916 131.885 166.855L131.886 166.915V203.648C131.886 204.614 131.102 205.398 130.136 205.398C129.189 205.398 128.418 204.646 128.387 203.708L128.386 203.648V166.915C128.386 165.948 129.169 165.165 130.136 165.165Z" fill="#FFF0E0"/>
<path d="M148.559 164.639C149.505 164.639 150.276 165.39 150.308 166.328L150.309 166.389V213.762C150.309 214.728 149.525 215.512 148.559 215.512C147.613 215.512 146.842 214.76 146.81 213.822L146.809 213.762V166.389C146.809 165.422 147.592 164.639 148.559 164.639Z" fill="#FFF0E0"/>
<path d="M80.4602 199.015C84.1796 194.566 90.8015 193.975 95.2506 197.694C99.6552 201.376 100.279 207.903 96.6821 212.35L96.5718 212.485C95.0677 214.284 93.5416 218.042 92.9794 222.598C92.2236 228.725 93.2168 235.572 96.3722 242.798C98.6931 248.112 96.2664 254.302 90.952 256.622C85.6377 258.943 79.4482 256.517 77.1274 251.202C72.4642 240.524 70.9211 229.885 72.1375 220.027C73.1753 211.615 76.2437 204.059 80.4602 199.015Z" fill="#F6DDD6"/>
<path d="M75.3864 196.469C78.5792 189.503 86.8145 186.444 93.7807 189.637C100.747 192.829 103.806 201.065 100.613 208.031C99.9167 209.55 99.3202 211.126 98.8146 212.769C97.7574 216.205 97.0965 219.925 96.7405 224.175L96.713 224.512C96.4411 227.935 96.3778 230.765 96.3751 236.761L96.375 237.185C96.375 244.848 90.163 251.06 82.5 251.06C74.837 251.06 68.625 244.848 68.625 237.185L68.628 234.929C68.6445 229.462 68.7335 226.351 69.0383 222.465L69.0503 222.314C69.5502 216.023 70.5601 210.236 72.292 204.608C73.1489 201.823 74.1753 199.112 75.3864 196.469Z" fill="#E0C1A1"/>
<path d="M72.0068 248.875C69.9466 246.479 68.7346 238.969 68.7346 238.969C78.3015 245.431 92.805 239.613 96.3679 234.492L97.2486 244.52C95.1536 250.275 90.9375 252.269 84.807 253.762C79.3108 255.101 74.0669 251.271 72.0068 248.875Z" fill="#DBB793"/>
<path d="M182.122 241.092C173.087 242.871 173.267 251.058 174.807 254.805C181.608 260.241 197.008 254.187 198.805 251.593C201.238 248.08 193.415 238.869 182.122 241.092Z" fill="#F2CCC1"/>
<path d="M188.364 246.615C192.497 246.553 196.701 247.91 200.75 250.299C203.757 252.072 206.544 254.362 208.397 256.402L208.517 256.535L205.347 259.366C203.784 257.616 201.281 255.546 198.591 253.959C195.162 251.937 191.689 250.815 188.427 250.864C185.254 250.912 182.024 252.306 178.942 254.744C176.558 256.63 174.41 259.054 173.093 261.117L173.002 261.26L169.397 259.009C170.957 256.512 173.474 253.651 176.305 251.411C180.062 248.439 184.142 246.678 188.364 246.615Z" fill="#CF8388"/>
<rect x="155.63" y="258.194" width="70.5" height="50.25" rx="5.75" transform="rotate(-6.5 155.63 258.194)" fill="#CF8388"/>
<rect x="152.401" y="258.562" width="70.5" height="50.25" rx="5.75" transform="rotate(-6.5 152.401 258.562)" fill="#FCA9AE"/>
<path d="M183.547 283.583L153.839 271.183L153.109 264.772C152.702 261.205 155.264 257.984 158.831 257.578L215.961 251.068C219.528 250.662 222.749 253.224 223.155 256.791L223.659 261.211L198.772 281.39C194.486 284.865 188.639 285.708 183.547 283.583Z" fill="#F1C3C6"/>
<path d="M190.52 280.637C192.235 280.442 193.467 278.894 193.271 277.179C193.076 275.464 191.528 274.232 189.813 274.428C188.098 274.623 186.866 276.171 187.062 277.886C187.257 279.601 188.805 280.833 190.52 280.637Z" fill="#E29398"/>
<path d="M187.372 238.842C178.337 240.621 178.517 248.808 180.057 252.555C186.858 257.991 202.258 251.937 204.055 249.343C206.488 245.83 198.665 236.619 187.372 238.842Z" fill="#F6DDD6"/>
<path d="M98.9637 74.6625C98.9637 53.372 117.11 36.1125 139.494 36.1125C161.878 36.1125 180.024 53.372 180.024 74.6625V113.005C176.756 137.876 157.144 151.555 139.494 151.555C121.844 151.555 101.361 134.975 98.9637 113.005V74.6625Z" fill="#F6DDD6"/>
<path fill-rule="evenodd" clip-rule="evenodd" d="M128.598 122.311C128.571 122.626 128.557 122.945 128.557 123.268V124.877C128.557 130.988 133.511 135.941 139.621 135.941C145.732 135.941 150.686 130.988 150.686 124.877V123.268C150.686 122.945 150.672 122.626 150.645 122.311H128.598Z" fill="#393939"/>
<mask id="mask0_0_3079" style="mask-type:luminance" maskUnits="userSpaceOnUse" x="128" y="120" width="23" height="16">
<path fill-rule="evenodd" clip-rule="evenodd" d="M128.882 120.595C128.67 121.45 128.557 122.345 128.557 123.267V124.876C128.557 130.987 133.511 135.94 139.621 135.94C145.732 135.94 150.686 130.987 150.686 124.876V123.267C150.686 122.345 150.573 121.45 150.361 120.595H128.882Z" fill="white"/>
</mask>
<g mask="url(#mask0_0_3079)">
<path d="M139.621 139.157C143.306 139.157 146.293 137.683 146.293 135.864C146.293 134.046 143.306 132.572 139.621 132.572C135.936 132.572 132.949 134.046 132.949 135.864C132.949 137.683 135.936 139.157 139.621 139.157Z" fill="#FF6C6C"/>
<rect x="128.557" y="122.311" width="22.1287" height="4.135" fill="white"/>
</g>
<path d="M116.844 84.7837C120.743 83.5948 125.114 83.4388 129.613 84.9822C130.527 85.2959 131.014 86.2912 130.7 87.2054C130.387 88.1196 129.391 88.6065 128.477 88.2928C124.745 87.0126 121.109 87.1423 117.865 88.1315C117.326 88.2958 116.849 88.4705 116.442 88.643L116.252 88.7251C116.128 88.7804 116.045 88.8206 116.006 88.8414C115.15 89.291 114.092 88.9619 113.642 88.1063C113.193 87.2507 113.522 86.1927 114.378 85.7431L114.449 85.7062C114.593 85.6338 114.804 85.5357 115.077 85.4199C115.594 85.2012 116.185 84.9846 116.844 84.7837Z" fill="#583311"/>
<path d="M149.835 84.9703C154.334 83.4269 158.705 83.5828 162.604 84.7717C163.263 84.9727 163.854 85.1892 164.371 85.408L164.581 85.4986C164.798 85.5946 164.962 85.6741 165.071 85.7312C165.926 86.1807 166.255 87.2387 165.806 88.0943C165.366 88.9313 164.344 89.2645 163.499 88.8577L163.41 88.8127C163.338 88.777 163.202 88.7138 163.006 88.631C162.599 88.4585 162.122 88.2838 161.584 88.1196C158.339 87.1303 154.703 87.0006 150.971 88.2809C150.057 88.5945 149.062 88.1076 148.748 87.1934C148.434 86.2792 148.921 85.2839 149.835 84.9703Z" fill="#583311"/>
<path d="M109.345 127.437C114.723 127.437 119.082 123.077 119.082 117.699C119.082 112.321 114.723 107.961 109.345 107.961C103.967 107.961 99.6069 112.321 99.6069 117.699C99.6069 123.077 103.967 127.437 109.345 127.437Z" fill="#F2CACA"/>
<path d="M158.537 92.6694C159.061 92.2202 159.85 92.281 160.299 92.8051C160.748 93.3293 160.688 94.1185 160.163 94.5677C160.041 94.6724 159.843 94.8137 159.561 94.9771C159.135 95.2244 158.613 95.4652 157.99 95.6854C157.487 95.8626 156.935 96.0203 156.331 96.1546C155.657 96.3043 154.989 95.8793 154.84 95.2054C154.69 94.5315 155.115 93.8638 155.789 93.7141C156.295 93.6015 156.751 93.4714 157.158 93.3278C157.598 93.1724 157.956 93.011 158.237 92.8541L158.306 92.815C158.455 92.7287 158.529 92.6757 158.537 92.6694Z" fill="black"/>
<path d="M154.483 92.8127C156.115 92.8128 157.442 94.115 157.482 95.7366L157.483 95.8129L157.483 101.091C157.483 102.747 156.14 104.091 154.483 104.09C152.851 104.09 151.524 102.788 151.484 101.167L151.483 101.09L151.483 95.8126C151.483 94.1557 152.827 92.8127 154.483 92.8127Z" fill="black"/>
<path d="M119.166 92.7623C119.484 92.1714 120.21 91.94 120.808 92.2284L120.887 92.2679L120.966 92.3045C120.996 92.3176 121.028 92.3317 121.063 92.3465C121.277 92.4364 121.535 92.5284 121.834 92.6156C122.711 92.8713 123.728 93.0262 124.872 93.0262C125.563 93.0262 126.122 93.5859 126.122 94.2762C126.122 94.9666 125.563 95.5262 124.872 95.5262C123.483 95.5262 122.231 95.3357 121.134 95.0156C120.742 94.9013 120.395 94.7774 120.095 94.6514L119.975 94.5996C119.843 94.5416 119.743 94.4924 119.674 94.4555C119.066 94.1282 118.839 93.3701 119.166 92.7623Z" fill="black"/>
<path d="M124.837 92.4645C126.468 92.4645 127.796 93.7666 127.836 95.3882L127.837 95.4645V101.105C127.837 102.762 126.494 104.105 124.837 104.105C123.206 104.105 121.878 102.803 121.838 101.181L121.837 101.105V95.4645C121.837 93.8076 123.18 92.4645 124.837 92.4645Z" fill="black"/>
<path d="M136.392 103.813L140.603 104.387L140.577 104.572C140.477 105.261 140.364 105.768 139.978 107.33L139.732 108.332C139.698 108.472 139.667 108.602 139.638 108.729L139.563 109.056C139.193 110.708 139.091 111.789 139.244 112.433L139.26 112.493C139.347 112.812 139.483 112.888 140.236 112.892L140.306 112.892V117.142C137.539 117.142 135.674 115.781 135.11 113.419C134.765 111.971 134.907 110.403 135.407 108.163L135.48 107.846C135.53 107.627 135.582 107.409 135.644 107.155L136.047 105.515C136.232 104.747 136.308 104.38 136.367 103.992L136.392 103.813Z" fill="#EBBAAA"/>
<path d="M168.049 126.911C173.355 126.911 177.656 122.551 177.656 117.173C177.656 111.795 173.355 107.435 168.049 107.435C162.744 107.435 158.443 111.795 158.443 117.173C158.443 122.551 162.744 126.911 168.049 126.911Z" fill="#F2CACA"/>
<path d="M172.377 134.412C174.745 124.411 175.667 102.698 175.667 94.276C175.667 87.1435 172.387 60.1402 158.296 55.325C147.9 51.772 125.004 55.1933 122.898 52.1667C115.661 66.905 118.285 72.8577 111.187 76.7745C103.554 80.9852 104.081 120.989 106.053 130.595C106.265 130.941 106.485 131.292 106.712 131.648C110.78 138.024 117.898 144.676 122.504 146.649C122.24 149.325 119.635 153.104 120.25 161C120.645 164.75 122.898 170.5 122.898 175.75C118.582 175.96 108.25 171 104.5 165.25C104.5 169.5 107.227 178.121 101.75 174.25C96.255 170.366 90.7683 157.77 91.4448 139.726C90.1451 128.262 89.5598 81.9847 89.6055 76.7745C89.726 63.0412 103.387 32.1669 131.452 27.1642C136.189 26.3197 139.742 28.959 140.795 29.9279C141.584 28.9588 144.479 27.3218 146.979 27.6426C165.53 30.023 178.191 41.5463 185.141 67.9577C188.36 80.1905 185.247 121.768 183.562 130.595C178.562 127.832 170.008 144.412 172.377 134.412Z" fill="#4D2909"/>
<path d="M117.503 74.099C117.503 65.9405 119.346 54.6235 123.293 47.7806C125.925 46.5524 132.505 44.833 130.399 47.7806C128.294 50.7283 127.68 66.5542 128.557 74.099C125.925 75.5025 121.188 75.6782 117.503 74.099Z" fill="#4D2909"/>
<path d="M164.349 74.0365C164.349 61.378 160.929 52.6508 158.56 45.3238C147.387 44.1005 124.423 38.698 126.714 47.8227C129.083 57.2553 129.083 64.6243 131.574 74.0365C142.747 75.4348 148.709 75.6095 164.349 74.0365Z" fill="#4D2909"/>
<path d="M156.172 45.682C156.846 45.0898 157.873 45.1566 158.465 45.831C160.256 47.8706 162.748 52.1521 164.883 56.9315L164.967 57.1204C167.513 62.8618 169.311 68.7161 169.912 73.8212C170.016 74.7125 169.379 75.52 168.488 75.6249C167.596 75.7297 166.789 75.0922 166.684 74.2009C166.126 69.4586 164.42 63.9043 161.996 58.4379L161.841 58.0909C159.845 53.6508 157.543 49.706 156.023 47.9752C155.431 47.3008 155.498 46.2741 156.172 45.682Z" fill="#4D2909"/>
<path d="M187.182 152.439C188.075 143.354 185.033 129.806 184.375 116.91C184.375 116.91 181.588 116.646 180.997 116.91C180.405 117.173 179.483 117.568 179.483 117.568C178.036 121.647 177.97 125.989 171.654 134.938C167.692 140.55 161.521 144.675 158.231 146.518C157.442 155.905 162.5 164.5 160.25 172.5C162.355 173.553 168.5 169.5 171.654 166.25C171.654 170.25 168.192 175.5 171.654 175.5C178.365 175.5 185.75 167 187.182 152.439Z" fill="#4D2909"/>
</svg>
