<svg width="300" height="400" viewBox="0 0 300 400" fill="none" xmlns="http://www.w3.org/2000/svg">
<path d="M145.645 353.475L146.832 320.732L129.849 322.905C131.516 332.145 129.45 356.545 127.711 361.762C125.972 366.98 111.408 363.12 131.651 369.507L141.841 360.947L145.645 353.475Z" fill="#F6DDD6"/>
<path d="M149.957 355.2C149.141 353.84 148.327 352.697 147.536 352.482C147.263 352.407 146.654 352.312 146.425 352.482C137.193 360.565 143.571 364.165 124.021 364.455C123.964 364.4 123.849 364.4 123.734 364.455C120.523 365.635 114.503 367.205 112.038 368.89C111.579 369.282 111.12 371.857 112.038 372.307C115.478 374.16 130.286 375.74 134.759 373.605C137.97 372.09 141.401 362.15 144.153 359.4C145.587 357.995 147.364 356.422 147.536 359.455L147.078 373.157C147.078 373.382 147.307 373.605 147.537 373.605H149.371C149.658 373.605 149.83 373.382 149.83 373.157L150.288 361.207C150.5 360.362 150.773 356.557 149.957 355.2Z" fill="black"/>
<mask id="mask0_0_3150" style="mask-type:luminance" maskUnits="userSpaceOnUse" x="111" y="348" width="42" height="27">
<path fill-rule="evenodd" clip-rule="evenodd" d="M150.633 354.737C149.773 352.827 148.569 350.92 147.078 349.067C146.906 348.842 146.619 348.785 146.39 348.955C137.159 357.037 134.607 359.455 124.021 364.36C123.964 364.305 123.849 364.305 123.735 364.36C120.524 365.54 114.503 367.112 112.038 368.795C111.579 369.187 111.12 371.762 112.038 372.212C115.478 374.065 130.287 375.645 134.759 373.512C137.97 371.995 140.943 369.74 143.695 366.987C145.128 365.585 146.906 364.012 147.078 367.045V373.062C147.078 373.287 147.307 373.512 147.537 373.512H149.372C149.658 373.512 149.83 373.287 149.83 373.062V368.795C151.407 367.582 153.557 361.472 150.633 354.737Z" fill="white"/>
</mask>
<g mask="url(#mask0_0_3150)">
<path d="M121.96 363.16L123.079 363.93C121.883 365.669 122.371 367.74 124.375 369.88C126.761 372.426 130.376 374.744 132.472 374.702L132.55 374.699L132.617 376.056C130.048 376.183 126.145 373.714 123.479 370.91L123.384 370.809C121.015 368.281 120.358 365.572 121.906 363.239L121.96 363.16Z" fill="white"/>
<path d="M117.336 363.16L118.455 363.93C117.259 365.669 117.746 367.741 119.751 369.88C122.137 372.426 125.752 374.744 127.848 374.702L127.926 374.699L127.993 376.056C125.423 376.183 121.52 373.714 118.854 370.91L118.76 370.809C116.391 368.281 115.733 365.572 117.282 363.239L117.336 363.16Z" fill="white"/>
</g>
<path d="M161.389 354.09L159.862 318.845L177.446 324.985C175.935 334.747 177.767 357.057 179.525 362.1C181.284 367.142 196.012 363.412 175.541 369.585L165.236 361.312L161.389 354.09Z" fill="#F6DDD6"/>
<path d="M157.404 355.887C158.229 354.575 159.053 353.47 159.852 353.26C160.128 353.187 160.745 353.097 160.977 353.26C170.312 361.075 163.862 364.555 183.632 364.835C183.69 364.78 183.806 364.78 183.922 364.835C187.169 365.975 193.258 367.492 195.751 369.122C196.215 369.502 196.679 371.99 195.751 372.425C192.272 374.215 177.297 375.742 172.774 373.68C169.527 372.215 166.057 362.605 163.273 359.947C161.824 358.59 160.026 357.07 159.852 360L160.316 373.245C160.316 373.462 160.084 373.68 159.852 373.68H157.997C157.707 373.68 157.533 373.462 157.533 373.245L157.069 361.695C156.855 360.877 156.58 357.2 157.404 355.887Z" fill="black"/>
<mask id="mask1_0_3150" style="mask-type:luminance" maskUnits="userSpaceOnUse" x="155" y="349" width="42" height="26">
<path fill-rule="evenodd" clip-rule="evenodd" d="M156.721 355.44C157.591 353.595 158.808 351.75 160.316 349.96C160.49 349.743 160.78 349.688 161.012 349.85C170.347 357.665 172.928 360.003 183.632 364.743C183.69 364.69 183.806 364.69 183.922 364.743C187.169 365.883 193.258 367.403 195.751 369.03C196.215 369.41 196.679 371.898 195.751 372.333C192.272 374.123 177.297 375.65 172.774 373.588C169.527 372.123 166.52 369.943 163.737 367.283C162.287 365.928 160.49 364.408 160.316 367.338V373.155C160.316 373.373 160.084 373.588 159.852 373.588H157.997C157.707 373.588 157.533 373.373 157.533 373.155V369.03C155.938 367.858 153.764 361.953 156.721 355.44Z" fill="white"/>
</mask>
<g mask="url(#mask1_0_3150)">
<path d="M185.702 363.558C187.351 365.849 186.692 368.525 184.26 371.003C181.596 373.719 177.654 376.136 175.036 376.074L174.941 376.071L175.005 374.714C177.124 374.814 180.843 372.546 183.291 370.052C185.282 368.023 185.783 366.068 184.647 364.419L184.599 364.352L185.702 363.558Z" fill="white"/>
<path d="M190.379 363.558C192.027 365.849 191.368 368.525 188.937 371.003C186.273 373.719 182.331 376.136 179.713 376.075L179.618 376.071L179.682 374.714C181.801 374.814 185.52 372.546 187.967 370.052C189.958 368.023 190.459 366.069 189.323 364.419L189.276 364.352L190.379 363.558Z" fill="white"/>
</g>
<path d="M119.116 150.087C124.669 150.087 129.17 154.588 129.17 160.14C129.17 165.638 124.758 170.104 119.283 170.193L119.116 170.194C118.085 170.194 117.566 170.372 117.084 170.759C116.367 171.336 115.555 172.487 114.729 174.333L114.671 174.463C112.87 178.555 111.704 183.818 109.963 194.851L109.106 200.333L108.819 202.136C108.662 203.116 108.514 204.021 108.365 204.903L108.229 205.709C108.138 206.24 108.048 206.76 107.958 207.27C106.991 212.737 101.775 216.386 96.3068 215.419C90.8391 214.452 87.1903 209.236 88.1572 203.768C88.2643 203.163 88.3718 202.54 88.4809 201.896L88.6411 200.94C88.7588 200.23 88.8787 199.494 89.0058 198.7L90.1525 191.386C90.9863 186.1 91.5626 182.811 92.2766 179.476L92.3382 179.19C93.4242 174.169 94.6641 170.005 96.2674 166.363C98.3178 161.704 100.964 157.919 104.485 155.088C108.588 151.789 113.563 150.087 119.116 150.087Z" fill="#F6DDD6"/>
<path d="M174.379 154.881C177.134 150.06 183.275 148.385 188.096 151.14C198.405 157.031 207.617 174.739 210.165 191.36C211.604 200.748 210.852 209.317 207.277 216.202C202.732 224.957 194.18 229.839 183.108 229.839C177.555 229.839 173.054 225.337 173.054 219.785C173.054 214.288 177.466 209.821 182.942 209.732L183.108 209.731C185.25 209.731 186.732 209.377 187.72 208.813C188.429 208.408 188.966 207.834 189.431 206.936C190.748 204.401 191.138 199.948 190.289 194.407C189.422 188.748 187.35 182.557 184.62 177.309C183.344 174.856 181.984 172.73 180.668 171.098C180.076 170.365 179.514 169.759 179.007 169.294C178.643 168.96 178.349 168.736 178.155 168.619L178.12 168.598C173.299 165.843 171.624 159.702 174.379 154.881Z" fill="#F6DDD6"/>
<path d="M115.312 182.966V150.087L133.654 147.913L138.273 143.022L141.941 141.391L162.457 140.712L164.631 141.799L171.424 147.913L186.097 150.087L187.999 187.177L184.195 216.116V224.132C184.195 224.132 187.999 230.246 187.999 235.137V334.997H120.203C120.203 334.997 117.35 240.979 118.709 235.137C120.067 229.295 120.203 224.132 120.203 224.132V217.339L115.312 182.966Z" fill="#EED1C9"/>
<path d="M115.312 182.966V150.087L133.654 147.913L138.273 143.022L141.941 141.391L162.457 140.712L164.631 141.799L171.424 147.913L186.097 150.087L187.999 187.177L184.195 216.116V224.132C184.195 224.132 187.999 230.246 187.999 235.137V334.997H120.203C120.203 334.997 117.35 240.979 118.709 235.137C120.067 229.295 120.203 224.132 120.203 224.132V217.339L115.312 182.966Z" fill="black" fill-opacity="0.62"/>
<rect x="141.126" y="128.213" width="21.4664" height="27.9877" rx="10.7332" fill="#EED1C9"/>
<path d="M144.115 149.679L141.126 144.244V141.799L138.409 143.022L139.903 150.902L146.832 159.189L161.641 157.152L166.94 148.456L164.63 141.799L162.593 140.712V142.342L161.641 144.652L158.652 148.456L155.392 152.532L144.115 149.679Z" fill="black"/>
<path d="M186.613 148.271L185.94 150.245L186.613 186.282L188.97 189.079L191.103 150.245L188.97 147.777L188.185 148.764L186.613 148.271Z" fill="black" fill-opacity="0.62"/>
<path d="M114.089 148.864L115.312 150.087V179.569V183.509L115.991 187.042L115.72 187.449L108.927 151.174V148.864H111.372L112.731 150.087L114.089 148.864Z" fill="black" fill-opacity="0.62"/>
<path d="M113.546 151.581L115.855 187.177L113.953 174.27L112.731 150.087L113.546 151.581Z" fill="black" fill-opacity="0.62"/>
<path d="M104.714 150.157L109.062 150.766L117.168 186.493L115.969 187.872L108.659 181.613L107.728 174.971L102.087 170.992L104.913 161.567L101.872 158.631L104.714 150.157Z" fill="black" fill-opacity="0.62"/>
<path d="M195.424 149.176L190.966 151.67L188.25 187.708L189.337 189.349L192.054 186.067V179.366L194.046 176.373L193.603 170.368L195.516 166.023L195.325 158.239L197.422 152.599L195.424 149.176Z" fill="black" fill-opacity="0.62"/>
<path d="M182.429 149.407L173.733 148.32C173.733 148.32 172.782 158.374 167.891 164.081C163 169.787 151.859 176.716 151.859 176.716C151.859 176.716 140.175 170.738 134.876 164.081C129.578 157.423 129.714 148.32 129.714 148.32L119.252 149.407C119.252 149.407 121.562 156.336 121.562 162.043C121.562 167.749 121.833 176.444 120.339 179.433C118.844 182.422 115.584 187.313 115.584 187.313C115.584 187.313 120.882 213.263 123.192 218.834C125.502 224.404 123.056 226.985 121.562 229.159C120.067 231.333 120.339 235.816 120.339 242.202C120.339 248.588 124.822 333.775 124.822 333.775L162.592 329.427V326.845H166.533L164.902 331.735L170.337 333.775L185.282 331.735C185.282 331.735 187.184 244.557 187.184 240.979C187.184 233.235 185.282 227.801 185.282 227.801C185.282 227.801 180.934 223.181 182.429 218.834C183.923 214.486 187.184 182.422 187.184 182.422C187.184 182.422 185.146 178.21 183.923 174.95C182.7 171.689 182.429 166.798 182.429 162.043V149.407Z" fill="black"/>
<path d="M123.056 218.29V227.801H122.241V218.29H123.056Z" fill="#353333"/>
<path d="M121.426 218.29V227.801H120.611V218.29H121.426Z" fill="#353333"/>
<path d="M124.687 218.29V227.801H123.872V218.29H124.687Z" fill="#353333"/>
<path d="M126.317 218.426V227.936H125.502V218.426H126.317Z" fill="#353333"/>
<path d="M127.948 218.426V227.936H127.132V218.426H127.948Z" fill="#353333"/>
<path d="M129.578 218.426V227.936H128.763V218.426H129.578Z" fill="#353333"/>
<path d="M131.208 218.426V227.936H130.393V218.426H131.208Z" fill="#353333"/>
<path d="M132.839 218.426V227.936H132.023V218.426H132.839Z" fill="#353333"/>
<path d="M134.469 218.426V227.936H133.654V218.426H134.469Z" fill="#353333"/>
<path d="M136.099 218.29V227.801H135.284V218.29H136.099Z" fill="#353333"/>
<path d="M137.73 218.29V227.801H136.914V218.29H137.73Z" fill="#353333"/>
<path d="M139.36 218.426V227.936H138.545V218.426H139.36Z" fill="#353333"/>
<path d="M140.99 218.426V227.936H140.175V218.426H140.99Z" fill="#353333"/>
<path d="M142.621 218.426V227.936H141.806V218.426H142.621Z" fill="#353333"/>
<path d="M144.251 218.426V227.936H143.436V218.426H144.251Z" fill="#353333"/>
<path d="M145.882 218.426V227.936H145.066V218.426H145.882Z" fill="#353333"/>
<path d="M147.512 218.426V227.936H146.697V218.426H147.512Z" fill="#353333"/>
<path d="M149.142 218.29V227.801H148.327V218.29H149.142Z" fill="#353333"/>
<path d="M150.773 218.29V227.801H149.957V218.29H150.773Z" fill="#353333"/>
<path d="M152.403 218.426V227.936H151.588V218.426H152.403Z" fill="#353333"/>
<path d="M154.033 218.426V227.936H153.218V218.426H154.033Z" fill="#353333"/>
<path d="M155.664 218.426V227.936H154.848V218.426H155.664Z" fill="#353333"/>
<path d="M157.294 218.426V227.936H156.479V218.426H157.294Z" fill="#353333"/>
<path d="M158.924 218.426V227.936H158.109V218.426H158.924Z" fill="#353333"/>
<path d="M160.555 218.426V227.936H159.739V218.426H160.555Z" fill="#353333"/>
<path d="M162.185 218.29V227.801H161.37V218.29H162.185Z" fill="#353333"/>
<path d="M163.815 218.29V227.801H163V218.29H163.815Z" fill="#353333"/>
<path d="M165.446 218.426V227.936H164.631V218.426H165.446Z" fill="#353333"/>
<path d="M167.076 218.426V227.936H166.261V218.426H167.076Z" fill="#353333"/>
<path d="M168.707 218.426V227.936H167.891V218.426H168.707Z" fill="#353333"/>
<path d="M170.337 218.426V227.936H169.522V218.426H170.337Z" fill="#353333"/>
<path d="M171.967 218.426V227.936H171.152V218.426H171.967Z" fill="#353333"/>
<path d="M173.598 218.426V227.936H172.782V218.426H173.598Z" fill="#353333"/>
<path d="M175.228 218.29V227.801H174.413V218.29H175.228Z" fill="#353333"/>
<path d="M176.858 218.29V227.801H176.043V218.29H176.858Z" fill="#353333"/>
<path d="M178.489 218.426V227.936H177.673V218.426H178.489Z" fill="#353333"/>
<path d="M180.119 218.426V227.936H179.304V218.426H180.119Z" fill="#353333"/>
<path d="M181.749 218.426V227.936H180.934V218.426H181.749Z" fill="#353333"/>
<path d="M183.38 218.426V227.936H182.565V218.426H183.38Z" fill="#353333"/>
<path d="M159.332 337.985L152.267 229.567L132.159 233.099L120.611 335.132L159.332 337.985Z" fill="black" fill-opacity="0.33"/>
<path d="M155.256 336.762L160.147 246.414L180.526 244.784L183.515 336.762H155.256Z" fill="black" fill-opacity="0.36"/>
<path d="M124.279 223.861C124.714 222.882 123.464 219.286 122.784 217.611L182.429 217.203C182.293 217.928 182.021 219.73 182.021 221.143C182.021 222.556 184.014 226.261 185.01 227.936C163.634 228.48 121.073 229.404 121.833 228.752C122.784 227.936 123.736 225.083 124.279 223.861Z" fill="black" fill-opacity="0.21"/>
<path d="M153.625 236.632C154.526 236.632 155.256 235.963 155.256 235.137C155.256 234.312 154.526 233.643 153.625 233.643C152.725 233.643 151.995 234.312 151.995 235.137C151.995 235.963 152.725 236.632 153.625 236.632Z" fill="white" fill-opacity="0.6"/>
<path d="M153.625 249.403C154.526 249.403 155.256 248.734 155.256 247.908C155.256 247.083 154.526 246.414 153.625 246.414C152.725 246.414 151.995 247.083 151.995 247.908C151.995 248.734 152.725 249.403 153.625 249.403Z" fill="white" fill-opacity="0.6"/>
<path d="M153.625 249.131C154.526 249.131 155.256 248.462 155.256 247.637C155.256 246.811 154.526 246.142 153.625 246.142C152.725 246.142 151.995 246.811 151.995 247.637C151.995 248.462 152.725 249.131 153.625 249.131Z" fill="white" fill-opacity="0.6"/>
<path d="M153.625 262.174C154.526 262.174 155.256 261.505 155.256 260.68C155.256 259.854 154.526 259.185 153.625 259.185C152.725 259.185 151.995 259.854 151.995 260.68C151.995 261.505 152.725 262.174 153.625 262.174Z" fill="white" fill-opacity="0.6"/>
<path d="M153.625 274.945C154.526 274.945 155.256 274.276 155.256 273.451C155.256 272.625 154.526 271.956 153.625 271.956C152.725 271.956 151.995 272.625 151.995 273.451C151.995 274.276 152.725 274.945 153.625 274.945Z" fill="white" fill-opacity="0.6"/>
<path d="M153.625 287.717C154.526 287.717 155.256 287.048 155.256 286.222C155.256 285.397 154.526 284.728 153.625 284.728C152.725 284.728 151.995 285.397 151.995 286.222C151.995 287.048 152.725 287.717 153.625 287.717Z" fill="white" fill-opacity="0.6"/>
<path d="M191.26 103.214V122.37H190.988V103.214H191.26Z" fill="#DFC5B2"/>
<path d="M190.581 104.159L190.852 104.171L189.901 126.724L189.63 126.713L190.581 104.159Z" fill="#DFC5B2"/>
<path d="M110.285 103.214V122.37H110.013V103.214H110.285Z" fill="#DFC5B2"/>
<path d="M109.606 104.159L109.878 104.171L108.927 126.724L108.655 126.713L109.606 104.159Z" fill="#DFC5B2"/>
<path d="M115.336 107.059C124.203 107.059 131.391 100.237 131.391 91.8219C131.391 83.4065 124.203 76.5845 115.336 76.5845C106.468 76.5845 99.2803 83.4065 99.2803 91.8219C99.2803 100.237 106.468 107.059 115.336 107.059Z" fill="#EBBAAA"/>
<path d="M109.878 104.844C110.778 104.844 111.508 104.114 111.508 103.214C111.508 102.313 110.778 101.583 109.878 101.583C108.977 101.583 108.247 102.313 108.247 103.214C108.247 104.114 108.977 104.844 109.878 104.844Z" fill="#FDF2EC"/>
<path d="M185.984 107.059C194.852 107.059 202.04 100.237 202.04 91.8219C202.04 83.4065 194.852 76.5845 185.984 76.5845C177.117 76.5845 169.929 83.4065 169.929 91.8219C169.929 100.237 177.117 107.059 185.984 107.059Z" fill="#EBBAAA"/>
<path d="M109.878 68.1375C109.878 47.4408 127.822 30.6627 149.957 30.6627C172.093 30.6627 190.037 47.4408 190.037 68.1375L187.32 105.411C184.088 129.588 163.544 142.342 149.957 142.342C136.371 142.342 114.965 126.768 112.595 105.411L109.878 68.1375Z" fill="#F6DDD6"/>
<path d="M123.001 97.4055C123.958 96.2494 125.671 96.0878 126.827 97.0446C127.963 97.985 128.139 99.6555 127.236 100.81L127.188 100.87L123.927 104.81C122.97 105.967 121.257 106.128 120.101 105.171C118.965 104.231 118.789 102.561 119.692 101.406L119.74 101.346L123.001 97.4055Z" fill="#F9D5C5"/>
<path d="M131.696 97.949C132.653 96.7929 134.366 96.6313 135.522 97.5881C136.658 98.5284 136.834 100.199 135.931 101.354L135.883 101.414L132.622 105.354C131.665 106.51 129.952 106.672 128.796 105.715C127.66 104.774 127.484 103.104 128.387 101.949L128.435 101.889L131.696 97.949Z" fill="#F9D5C5"/>
<path d="M168.224 96.8294C169.478 96.0514 171.118 96.417 171.925 97.6409L171.966 97.705L174.412 101.645C175.203 102.92 174.811 104.595 173.536 105.387C172.283 106.165 170.643 105.799 169.836 104.575L169.795 104.511L167.349 100.571C166.557 99.2961 166.949 97.6209 168.224 96.8294Z" fill="#F9D5C5"/>
<path d="M176.104 96.8294C177.358 96.0514 178.998 96.417 179.805 97.6409L179.846 97.705L182.292 101.645C183.083 102.92 182.691 104.595 181.416 105.387C180.163 106.165 178.523 105.799 177.716 104.575L177.675 104.511L175.229 100.571C174.437 99.2961 174.829 97.6209 176.104 96.8294Z" fill="#F9D5C5"/>
<path fill-rule="evenodd" clip-rule="evenodd" d="M138.63 111.58V115.94C138.63 122.638 144.059 128.067 150.757 128.067C157.454 128.067 162.883 122.638 162.883 115.94V111.58H138.63Z" fill="#393939"/>
<mask id="mask2_0_3150" style="mask-type:luminance" maskUnits="userSpaceOnUse" x="138" y="110" width="25" height="19">
<path fill-rule="evenodd" clip-rule="evenodd" d="M138.65 110.777C138.637 111.01 138.63 111.244 138.63 111.48V115.94C138.63 122.638 144.059 128.067 150.757 128.067C157.454 128.067 162.883 122.638 162.883 115.94V111.48C162.883 111.244 162.877 111.01 162.863 110.777H138.65Z" fill="white"/>
</mask>
<g mask="url(#mask2_0_3150)">
<path d="M150.757 131.957C154.796 131.957 158.07 130.173 158.07 127.974C158.07 125.774 154.796 123.991 150.757 123.991C146.718 123.991 143.444 125.774 143.444 127.974C143.444 130.173 146.718 131.957 150.757 131.957Z" fill="#FF6C6C"/>
<rect x="138.63" y="111.58" width="24.2533" height="5.00163" fill="white"/>
</g>
<path d="M123.467 72.5087L139.24 72.6629C140.141 72.6717 140.864 73.4088 140.855 74.3091C140.846 75.19 140.141 75.9008 139.267 75.923L139.209 75.9235L123.435 75.7692C122.535 75.7604 121.812 75.0234 121.821 74.123C121.83 73.2422 122.535 72.5314 123.409 72.5091L123.467 72.5087Z" fill="#62360D"/>
<path d="M126.887 83.6587C127.028 82.9404 127.712 82.4668 128.429 82.5788L128.482 82.5883L135.571 83.9848C136.308 84.1298 136.787 84.8442 136.642 85.5804C136.5 86.2986 135.817 86.7723 135.1 86.6603L135.046 86.6508L127.957 85.2543C127.221 85.1093 126.742 84.3949 126.887 83.6587Z" fill="black"/>
<path d="M170.223 81.9065C170.96 81.7684 171.67 82.2544 171.808 82.992C171.943 83.7115 171.484 84.4047 170.776 84.5663L170.723 84.5774L163.419 85.9444C162.681 86.0824 161.972 85.5964 161.834 84.8589C161.699 84.1393 162.158 83.4462 162.866 83.2846L162.919 83.2735L170.223 81.9065Z" fill="black"/>
<path d="M133.923 81.833C135.698 81.833 137.142 83.2515 137.183 85.0168L137.183 85.0937V90.4425C137.183 92.2433 135.724 93.7032 133.923 93.7032C132.148 93.7032 130.704 92.2847 130.663 90.5195L130.662 90.4425V85.0937C130.662 83.2929 132.122 81.833 133.923 81.833Z" fill="black"/>
<path d="M164.853 81.3483C166.628 81.3483 168.071 82.7667 168.112 84.532L168.113 84.609V89.9577C168.113 91.7586 166.653 93.2185 164.853 93.2185C163.077 93.2185 161.634 91.8 161.593 90.0347L161.592 89.9577V84.609C161.592 82.8081 163.052 81.3483 164.853 81.3483Z" fill="black"/>
<path d="M175.363 72.0951C176.263 72.0804 177.005 72.7984 177.02 73.6987C177.034 74.5794 176.347 75.3084 175.474 75.3534L175.416 75.3554L159.903 75.6079C159.002 75.6225 158.261 74.9046 158.246 74.0042C158.232 73.1235 158.918 72.3945 159.791 72.3495L159.849 72.3476L175.363 72.0951Z" fill="#62360D"/>
<path d="M147.684 91.2156L152.261 91.8435L152.22 92.1244C152.118 92.8027 151.992 93.3527 151.604 94.9189L151.393 95.7707C151.354 95.9273 151.32 96.0687 151.288 96.2037L151.232 96.4419C150.801 98.2897 150.676 99.4788 150.839 100.158C150.865 100.266 150.894 100.338 150.919 100.38C150.928 100.394 150.931 100.397 150.939 100.402C150.971 100.426 151.032 100.454 151.139 100.483C151.298 100.526 151.508 100.553 151.771 100.559L151.861 100.559V105.179C148.933 105.179 146.947 103.737 146.347 101.236C145.973 99.6735 146.138 97.9905 146.695 95.5578L146.793 95.1369C146.821 95.0208 146.85 94.9011 146.881 94.7732L147.332 92.9431C147.537 92.0961 147.611 91.7272 147.674 91.2876L147.684 91.2156Z" fill="#EBBAAA"/>
<path d="M108.607 59.927C111.189 45.7705 124.231 30.3912 136.867 27.293C149.502 24.1949 147.736 26.3687 150.045 26.3687C152.355 26.3687 149.079 23.8965 165.126 27.293C181.173 30.6895 191.737 50.2448 192.89 61.232C193.937 71.209 192.701 74.6665 191.124 77.264C189.086 76.5025 189.729 79.8655 189.765 80.9323C190.309 97.0732 183.787 71.9652 180.751 58.134C177.714 44.3027 166.892 41.0421 150.045 41.9931C144.611 42.2999 140.127 41.9931 128.986 49.7373C113.639 60.4053 113.248 85.211 110.781 82.8612C110.05 82.1647 111.188 76.6115 108.879 77.6982C107.369 75.0493 106.686 70.456 108.607 59.927Z" fill="#2D1B14"/>
<path d="M123.6 59.348C134.513 45.2761 148.229 42.8544 150.294 41.8217C151.457 41.2401 150.701 33.2944 150.294 32.9907C148.012 31.2904 142.269 32.7572 135.148 36.7532C122.776 43.6961 108.988 63.6345 110.227 92.5525C111.218 115.687 113.945 121.199 120.966 130.16C115.995 122.285 116.974 123.372 115.046 117.534C111.753 107.561 114.65 70.8883 123.6 59.348Z" fill="#2D1B14"/>
<path d="M123.6 62.8805C134.513 48.8086 148.229 46.3868 150.294 45.3542C151.457 44.7725 150.701 36.8268 150.294 36.5231C148.012 34.8229 142.269 36.2897 135.148 40.2856C122.776 47.2285 108.988 67.167 110.227 96.085C111.218 119.219 113.945 124.732 120.966 133.692C115.995 125.818 116.974 126.904 115.046 121.066C111.753 111.093 114.65 74.4207 123.6 62.8805Z" fill="#2D1B14"/>
<path d="M121.116 57.0685C132.673 43.4253 147.059 41.1921 149.231 40.2032C150.455 39.6462 149.735 31.8754 149.311 31.5748C146.937 29.8914 140.909 31.2688 133.415 35.104C120.395 41.7677 107.073 61.101 106.811 89.3817C106.675 104.046 106.009 105.633 113.726 117.52C111.23 110.461 108.996 103.919 109.038 99.406C109.08 94.9324 111.639 68.2572 121.116 57.0685Z" fill="#2D1B14"/>
<path d="M178.668 61.7377C171.799 49.3704 153.447 46.8982 151.457 45.1574C150.4 44.2332 151.06 35.9511 151.853 35.7532C157.401 34.368 173.422 40.2852 180.555 51.0217C187.688 61.7582 190.697 86.5027 189.917 99.9532C189.619 105.083 186.406 114.762 184.196 117.344C185.756 113.404 187.314 108.589 187.518 104.548C188.487 85.4157 185.537 74.105 178.668 61.7377Z" fill="#2D1B14"/>
<path d="M191.124 105.388C192.024 105.388 192.754 104.658 192.754 103.757C192.754 102.857 192.024 102.127 191.124 102.127C190.224 102.127 189.494 102.857 189.494 103.757C189.494 104.658 190.224 105.388 191.124 105.388Z" fill="#FDF2EC"/>
<path d="M127.757 145.429L143.435 146.31L138.605 189.322L128.772 188.77L127.757 145.429Z" fill="#968F8B"/>
<path d="M131.48 160.548V165.711V187.042H134.333L137.051 161.092L131.48 160.548Z" fill="#EEC981"/>
<path d="M127.947 153.619V150.766H142.757V154.163C142.757 154.163 140.719 157.32 135.013 157.152C131.317 157.043 128.717 154.57 127.947 153.619Z" fill="#EEC981"/>
<path d="M130.825 188.861L136.651 189.291L136.321 193.763L134.56 193.633L134.25 197.833L131.946 197.663L132.256 193.462L130.495 193.332L130.825 188.861Z" fill="#292929"/>
<path d="M144.177 147.005C143.913 151.7 139.813 155.287 135.018 155.018C130.224 154.749 126.55 150.725 126.814 146.03C126.984 142.997 127.748 143.585 128.155 143.819C128.563 144.054 128.699 137.027 129.243 135.532C129.786 134.037 132.231 133.222 136.579 133.63C140.927 134.037 143.644 135.532 143.644 137.298C143.644 139.064 143.101 145.418 143.372 145.314C143.644 145.211 144.35 143.927 144.177 147.005Z" fill="#292929"/>
<mask id="mask3_0_3150" style="mask-type:luminance" maskUnits="userSpaceOnUse" x="126" y="133" width="19" height="23">
<path fill-rule="evenodd" clip-rule="evenodd" d="M144.177 147.005C143.913 151.7 139.813 155.287 135.018 155.018C130.224 154.749 126.55 150.725 126.814 146.03C126.984 142.997 127.748 143.585 128.155 143.819C128.563 144.054 128.699 137.027 129.243 135.532C129.786 134.037 132.231 133.222 136.579 133.63C140.927 134.037 143.644 135.532 143.644 137.298C143.644 139.064 143.101 145.418 143.372 145.314C143.644 145.211 144.35 143.927 144.177 147.005Z" fill="white"/>
</mask>
<g mask="url(#mask3_0_3150)">
<path fill-rule="evenodd" clip-rule="evenodd" d="M131.884 133.68L131.62 133.615L126.321 154.809L126.585 154.875L131.884 133.68ZM130.525 133.68L130.261 133.615L126.593 148.424L126.856 148.489L130.525 133.68Z" fill="black"/>
<path fill-rule="evenodd" clip-rule="evenodd" d="M133.92 132.867L133.657 132.797L128.223 153.449L128.486 153.518L133.92 132.867ZM135.28 132.865L135.016 132.799L129.717 153.994L129.981 154.06L135.28 132.865Z" fill="black"/>
<path fill-rule="evenodd" clip-rule="evenodd" d="M137.181 132.867L136.918 132.797L130.805 155.894L131.068 155.964L137.181 132.867ZM138.541 132.865L138.277 132.8L132.299 156.984L132.563 157.049L138.541 132.865Z" fill="black"/>
<path fill-rule="evenodd" clip-rule="evenodd" d="M140.578 132.867L140.315 132.797L134.202 155.894L134.464 155.964L140.578 132.867ZM141.937 132.865L141.674 132.8L135.696 156.984L135.959 157.049L141.937 132.865Z" fill="black"/>
<path fill-rule="evenodd" clip-rule="evenodd" d="M143.567 132.867L143.304 132.797L137.191 155.894L137.454 155.964L143.567 132.867ZM144.927 132.864L144.663 132.799L138.685 156.983L138.949 157.048L144.927 132.864Z" fill="black"/>
<path fill-rule="evenodd" clip-rule="evenodd" d="M147.1 132.867L146.837 132.797L140.723 155.894L140.986 155.964L147.1 132.867ZM148.459 132.864L148.195 132.799L142.217 156.983L142.481 157.048L148.459 132.864Z" fill="black"/>
<path fill-rule="evenodd" clip-rule="evenodd" d="M151.485 138.135L127.301 132.157L127.236 132.421L151.42 138.399L151.485 138.135ZM150.4 139.63L127.303 133.517L127.234 133.779L150.331 139.893L150.4 139.63Z" fill="black"/>
<path fill-rule="evenodd" clip-rule="evenodd" d="M151.485 141.124L127.301 135.146L127.236 135.41L151.42 141.388L151.485 141.124ZM150.4 142.619L127.303 136.506L127.234 136.769L150.331 142.882L150.4 142.619Z" fill="black"/>
<path fill-rule="evenodd" clip-rule="evenodd" d="M151.485 144.113L127.301 138.135L127.236 138.399L151.42 144.377L151.485 144.113ZM150.4 145.608L127.303 139.495L127.234 139.757L150.331 145.871L150.4 145.608Z" fill="black"/>
<path fill-rule="evenodd" clip-rule="evenodd" d="M151.485 147.374L127.301 141.396L127.236 141.659L151.42 147.637L151.485 147.374ZM150.4 148.869L127.303 142.755L127.234 143.018L150.331 149.131L150.4 148.869Z" fill="black"/>
<path fill-rule="evenodd" clip-rule="evenodd" d="M149.311 150.091L125.127 144.113L125.062 144.377L149.246 150.355L149.311 150.091ZM148.227 151.586L125.13 145.473L125.06 145.735L148.157 151.849L148.227 151.586Z" fill="black"/>
<path fill-rule="evenodd" clip-rule="evenodd" d="M149.311 153.08L125.127 147.102L125.062 147.366L149.246 153.344L149.311 153.08ZM148.227 154.575L125.13 148.462L125.06 148.724L148.157 154.838L148.227 154.575Z" fill="black"/>
<path fill-rule="evenodd" clip-rule="evenodd" d="M149.311 156.069L125.127 150.091L125.062 150.355L149.246 156.333L149.311 156.069ZM148.227 157.564L125.13 151.451L125.06 151.713L148.157 157.827L148.227 157.564Z" fill="black"/>
</g>
<path d="M121.244 168.187C124.754 163.884 131.087 163.242 135.39 166.752C139.692 170.262 140.335 176.595 136.825 180.898L136.706 181.044C134.672 183.567 127.599 192.964 127.479 193.119L127.058 193.664C123.362 198.432 120.209 202.118 116.858 205.423C112.35 209.87 107.763 213.302 102.806 215.674C97.7979 218.072 91.7943 215.956 89.3967 210.947C87.0231 205.989 89.0737 200.055 93.9745 197.611L94.1239 197.538C99.2816 195.069 104.365 190.107 111.135 181.385L111.576 180.813C112.056 180.173 119.175 170.723 121.244 168.187Z" fill="#F6DDD6"/>
</svg>
