<svg width="300" height="400" viewBox="0 0 300 400" fill="none" xmlns="http://www.w3.org/2000/svg">
<path d="M145.145 268.595C162.749 268.595 177.02 262.495 177.02 254.97C177.02 247.445 162.749 241.345 145.145 241.345C127.541 241.345 113.27 247.445 113.27 254.97C113.27 262.495 127.541 268.595 145.145 268.595Z" fill="#1D1F1E"/>
<path d="M160.785 268C164.639 267.203 168.409 269.681 169.206 273.534C170.784 281.162 171.371 293.732 171.386 312.196L171.384 314.752C171.378 318.129 171.356 321.532 171.313 325.961L171.166 340.362C171.154 341.784 171.149 342.852 171.146 343.937L171.145 345.345C171.145 349.28 167.955 352.47 164.02 352.47C160.085 352.47 156.895 349.28 156.895 345.345L156.897 343.482C156.902 341.819 156.915 340.097 156.946 337.033L157.068 325.37C157.11 320.889 157.132 317.471 157.135 314.015L157.136 312.76C157.133 295.021 156.575 282.819 155.252 276.421C154.454 272.568 156.932 268.798 160.785 268Z" fill="#FFDACF"/>
<path d="M124.908 293.545C125.142 289.617 128.517 286.623 132.445 286.858C136.373 287.092 139.367 290.467 139.132 294.395C138.874 298.721 138.582 302.859 138.237 307.214L138.063 309.36C137.719 313.502 137 321.814 136.978 322.07L136.848 323.647C136.516 327.727 136.306 330.838 136.169 333.873C135.953 338.655 135.935 343.085 136.138 347.788C136.308 351.719 133.259 355.044 129.327 355.213C125.396 355.383 122.071 352.334 121.902 348.402C121.68 343.266 121.699 338.418 121.933 333.23L121.972 332.406C122.117 329.449 122.327 326.397 122.641 322.542L123.761 309.386C123.841 308.436 123.909 307.611 123.958 307.007C124.329 302.399 124.637 298.076 124.908 293.545Z" fill="#FFDACF"/>
<path d="M111.187 230.595H149.77L142.937 296.24L138.437 341.232H136.187V345.345H121.687V341.232H119.437L114.562 294.292L112.437 261.166L109.52 257.788L111.187 230.595Z" fill="#1D1F1E"/>
<path d="M146.27 234.095H185.27L183.522 255.865L181.81 261.45L177.56 294.825L173.685 341.06H171.436V345.345H156.811V341.06H154.561L150.561 298.722L146.27 234.095Z" fill="#1D1F1E"/>
<path d="M94.9195 366.732C94.8695 360.995 95.6511 357.505 100.638 355.16C105.626 352.815 110.324 348.31 118.952 344.442C118.952 344.442 120.088 344.23 121.937 345.23C123.514 346.082 125.541 348.175 128.594 348.15C131.91 348.12 134.865 347.417 136.7 346.455C137.493 344.282 139.253 344.267 139.253 344.267C139.253 344.267 141.73 348.982 141.771 353.72C141.813 358.455 141.809 366.322 141.809 366.322L94.9195 366.732Z" fill="#161616"/>
<path d="M117.152 344.792C117.494 344.64 117.894 344.793 118.046 345.135C118.239 345.569 118.378 346.046 118.474 346.565C118.615 347.329 118.646 347.955 118.646 349.062C118.646 349.537 118.172 349.859 117.735 349.698L117.696 349.682L114.398 348.227L115.102 350.777C115.242 351.283 114.779 351.743 114.282 351.613L114.242 351.601L110.931 350.534L110.931 353.53C110.931 354.028 110.413 354.351 109.97 354.144L109.932 354.125L107.683 352.906L107.683 355.155C107.683 355.515 107.402 355.809 107.047 355.83L107.006 355.832C106.646 355.832 106.352 355.551 106.331 355.196L106.329 355.155V351.77C106.329 351.271 106.848 350.949 107.291 351.156L107.328 351.175L109.577 352.393L109.578 349.605C109.578 349.16 109.997 348.84 110.421 348.949L110.462 348.961L113.464 349.928L112.715 347.212C112.567 346.675 113.093 346.205 113.604 346.398L113.64 346.413L117.274 348.016C117.256 347.597 117.221 347.254 117.157 346.889L117.143 346.81C117.066 346.39 116.956 346.015 116.809 345.685C116.657 345.343 116.811 344.943 117.152 344.792Z" fill="white"/>
<path d="M96.8064 355.6C98.3365 355.045 99.957 354.625 103.064 353.922L101.744 357.722L101.781 362.052L92.9383 362.13C92.5774 362.132 91.9325 361.652 92.2403 359.7C92.6251 357.26 94.6321 356.387 96.8064 355.6Z" fill="#161616"/>
<path d="M141.957 365.585L141.7 361.027L102.049 361.645L92.1619 360.92L91.8599 364.412C91.7556 365.62 92.6603 366.677 93.8679 366.76L102.098 367.33L140.893 366.727C141.508 366.717 141.991 366.197 141.957 365.585Z" fill="#808080"/>
<path d="M198.832 367.232C198.882 361.495 198.1 358.005 193.113 355.66C188.125 353.315 183.428 348.81 174.799 344.942C174.799 344.942 173.663 344.73 171.815 345.73C170.237 346.582 168.211 348.675 165.157 348.65C161.842 348.62 158.887 347.917 157.051 346.955C156.258 344.782 154.499 344.767 154.499 344.767C154.499 344.767 152.021 349.482 151.98 354.22C151.939 358.955 151.943 366.822 151.943 366.822L198.832 367.232Z" fill="#161616"/>
<path d="M175.705 345.635C175.857 345.294 176.257 345.14 176.599 345.292C176.94 345.443 177.094 345.843 176.942 346.185C176.796 346.515 176.686 346.89 176.608 347.31C176.544 347.661 176.506 347.986 176.484 348.369L176.477 348.516L180.111 346.913C180.621 346.688 181.162 347.14 181.046 347.674L181.036 347.712L180.287 350.429L183.289 349.461C183.713 349.324 184.146 349.626 184.172 350.062L184.174 350.105L184.174 352.893L186.423 351.675C186.861 351.437 187.391 351.739 187.42 352.228L187.422 352.27V355.655C187.422 356.029 187.119 356.332 186.745 356.332C186.385 356.332 186.091 356.051 186.07 355.696L186.068 355.655L186.068 353.406L183.819 354.625C183.381 354.862 182.851 354.56 182.822 354.072L182.82 354.03L182.82 351.034L179.509 352.101C179.01 352.262 178.531 351.82 178.639 351.317L178.649 351.277L179.352 348.727L176.056 350.182C175.622 350.373 175.135 350.07 175.107 349.605L175.106 349.562L175.107 349.184C175.115 348.303 175.154 347.738 175.277 347.065C175.373 346.546 175.512 346.07 175.705 345.635Z" fill="white"/>
<path d="M196.945 356.1C195.415 355.545 193.794 355.125 190.687 354.42L192.008 358.222L191.97 362.552L200.813 362.63C201.174 362.632 201.819 362.152 201.511 360.2C201.126 357.76 199.119 356.887 196.945 356.1Z" fill="#161616"/>
<path d="M151.795 366.085L152.051 361.527L191.703 362.145L201.589 361.42L201.891 364.912C201.996 366.12 201.091 367.177 199.883 367.26L191.653 367.83L152.859 367.227C152.244 367.217 151.76 366.697 151.795 366.085Z" fill="#808080"/>
<path d="M143.884 160.75C163.628 160.75 179.634 153.139 179.634 143.75C179.634 134.361 163.628 126.75 143.884 126.75C124.14 126.75 108.134 134.361 108.134 143.75C108.134 153.139 124.14 160.75 143.884 160.75Z" fill="#9C7C4B"/>
<path d="M96.3245 168.413C98.8226 163.806 104.582 162.096 109.189 164.594C113.75 167.067 115.471 172.737 113.081 177.321L113.008 177.459C109.009 184.833 107.308 197.47 107.079 217.387L107.062 219.206C107.041 221.928 107.042 224.542 107.06 228.872L107.092 236.572C107.093 237.062 107.093 237.528 107.093 238.011L107.094 238.378C107.094 243.618 102.845 247.867 97.6045 247.867C92.3638 247.867 88.1154 243.618 88.1155 238.378L88.1045 233.878L88.0722 226.088C88.0642 223.107 88.0684 220.967 88.0877 218.685L88.0958 217.804C88.1978 207.533 88.6215 199.373 89.5769 192.022L89.6139 191.74C90.8593 182.32 92.9652 174.607 96.3245 168.413Z" fill="#FFDACF"/>
<path d="M180.23 174.005C184.18 171.64 189.298 172.924 191.663 176.873C197.782 187.09 201.343 199.239 202.487 212.057C203.473 223.107 202.58 234.227 200.169 242.966C198.944 247.404 194.355 250.009 189.917 248.785C185.48 247.561 182.875 242.971 184.099 238.533C185.964 231.774 186.697 222.654 185.883 213.539C184.95 203.084 182.094 193.339 177.362 185.438C174.997 181.488 176.281 176.37 180.23 174.005Z" fill="#FFDACF"/>
<path d="M107.672 163.407C107.672 159.185 110.537 155.5 114.629 154.459L129.351 150.716C130.094 150.527 130.859 150.431 131.626 150.431H157.536C158.164 150.431 158.792 150.495 159.407 150.623L179.131 154.705C183.417 155.592 186.492 159.368 186.492 163.746V235.087C186.492 245.569 177.995 254.065 167.514 254.065H126.65C116.169 254.065 107.672 245.569 107.672 235.087V163.407Z" fill="#535659"/>
<path d="M95.0877 157.675C97.7883 144.969 107.639 138.758 122.982 139.56C138.325 140.362 134 151.586 131.3 164.291V213.547C128.599 226.252 116.111 234.362 103.405 231.661C90.7002 228.961 82.5899 216.472 85.2905 203.767L95.0877 157.675Z" fill="#B38847"/>
<path d="M191.669 152.372C188.446 143.011 177.065 138.877 167.283 140.4C165.985 140.602 164.732 140.849 163.532 141.126C154.753 143.158 151.26 152.714 154.193 161.235L172.597 214.683C176.042 224.688 186.945 230.006 196.95 226.561C206.955 223.116 212.273 212.212 208.828 202.207L191.669 152.372Z" fill="#B38847"/>
<path d="M134.826 180.493C134.826 173.318 135.595 161.612 130.976 151.227H114.806C111.898 155.318 105.875 169.353 105.053 192.766C104.232 216.179 102.316 243.117 101.46 253.659C105.053 254.721 126.228 258.261 138.034 254.485C138.034 239.38 136.879 230.529 136.622 208.343C136.449 193.357 134.826 187.668 134.826 180.493Z" fill="#B38847"/>
<rect x="134.945" y="133.521" width="20.0898" height="28.6343" rx="9.72268" fill="#EBBAAA"/>
<path fill-rule="evenodd" clip-rule="evenodd" d="M161.8 149.963C159.245 155.839 153.01 159.989 145.724 159.989C138.089 159.989 131.608 155.431 129.307 149.106C129.759 149.028 130.217 148.989 130.675 148.989H156.767C157.395 148.989 158.022 149.063 158.638 149.209L161.8 149.963Z" fill="#EBBAAA"/>
<path d="M120.183 157.193C126.856 152.316 125.814 133.837 130.177 133.837C143.908 145.9 141.292 167.716 136.608 196.974C129.422 161.299 125.38 164.636 120.183 157.193Z" fill="#CDA25F"/>
<path d="M155.062 177.47C155.062 170.105 155.606 152.88 160.226 142.22H171.58C176.042 142.22 180.024 144.574 180.963 148.936C182.812 157.522 184.238 172.632 184.834 190.068C185.656 214.101 187.089 244.658 187.945 255.479C181.272 256.448 163.019 259.356 151.213 255.479C151.213 239.974 153.009 228.83 153.266 206.057C153.439 190.674 155.062 184.835 155.062 177.47Z" fill="#B38847"/>
<path opacity="0.08" d="M159.841 165.962C161.014 165.962 161.966 165.01 161.966 163.837C161.966 162.663 161.014 161.711 159.841 161.711C158.667 161.711 157.715 162.663 157.715 163.837C157.715 165.01 158.667 165.962 159.841 165.962Z" fill="black"/>
<path opacity="0.08" d="M159.841 174.735C161.014 174.735 161.966 173.783 161.966 172.609C161.966 171.435 161.014 170.483 159.841 170.483C158.667 170.483 157.715 171.435 157.715 172.609C157.715 173.783 158.667 174.735 159.841 174.735Z" fill="black"/>
<path opacity="0.08" d="M159.841 183.507C161.014 183.507 161.966 182.555 161.966 181.381C161.966 180.207 161.014 179.256 159.841 179.256C158.667 179.256 157.715 180.207 157.715 181.381C157.715 182.555 158.667 183.507 159.841 183.507Z" fill="black"/>
<path opacity="0.08" d="M159.841 192.279C161.014 192.279 161.966 191.328 161.966 190.154C161.966 188.98 161.014 188.028 159.841 188.028C158.667 188.028 157.715 188.98 157.715 190.154C157.715 191.328 158.667 192.279 159.841 192.279Z" fill="black"/>
<path opacity="0.08" d="M159.841 201.052C161.014 201.052 161.966 200.1 161.966 198.926C161.966 197.752 161.014 196.801 159.841 196.801C158.667 196.801 157.715 197.752 157.715 198.926C157.715 200.1 158.667 201.052 159.841 201.052Z" fill="black"/>
<path opacity="0.08" d="M159.841 209.824C161.014 209.824 161.966 208.873 161.966 207.699C161.966 206.525 161.014 205.573 159.841 205.573C158.667 205.573 157.715 206.525 157.715 207.699C157.715 208.873 158.667 209.824 159.841 209.824Z" fill="black"/>
<path opacity="0.08" d="M159.841 218.597C161.014 218.597 161.966 217.645 161.966 216.471C161.966 215.297 161.014 214.346 159.841 214.346C158.667 214.346 157.715 215.297 157.715 216.471C157.715 217.645 158.667 218.597 159.841 218.597Z" fill="black"/>
<path opacity="0.08" d="M159.841 227.369C161.014 227.369 161.966 226.418 161.966 225.244C161.966 224.07 161.014 223.118 159.841 223.118C158.667 223.118 157.715 224.07 157.715 225.244C157.715 226.418 158.667 227.369 159.841 227.369Z" fill="black"/>
<path opacity="0.08" d="M159.841 236.142C161.014 236.142 161.966 235.19 161.966 234.016C161.966 232.842 161.014 231.89 159.841 231.89C158.667 231.89 157.715 232.842 157.715 234.016C157.715 235.19 158.667 236.142 159.841 236.142Z" fill="black"/>
<path opacity="0.08" d="M159.841 244.914C161.014 244.914 161.966 243.963 161.966 242.789C161.966 241.615 161.014 240.663 159.841 240.663C158.667 240.663 157.715 241.615 157.715 242.789C157.715 243.963 158.667 244.914 159.841 244.914Z" fill="black"/>
<path opacity="0.08" d="M159.841 253.687C161.014 253.687 161.966 252.735 161.966 251.561C161.966 250.387 161.014 249.435 159.841 249.435C158.667 249.435 157.715 250.387 157.715 251.561C157.715 252.735 158.667 253.687 159.841 253.687Z" fill="black"/>
<path opacity="0.08" d="M169.057 166.254C170.231 166.254 171.183 165.302 171.183 164.129C171.183 162.955 170.231 162.003 169.057 162.003C167.884 162.003 166.932 162.955 166.932 164.129C166.932 165.302 167.884 166.254 169.057 166.254Z" fill="black"/>
<path opacity="0.08" d="M169.057 175.026C170.231 175.026 171.183 174.075 171.183 172.901C171.183 171.727 170.231 170.775 169.057 170.775C167.884 170.775 166.932 171.727 166.932 172.901C166.932 174.075 167.884 175.026 169.057 175.026Z" fill="black"/>
<path opacity="0.08" d="M169.057 183.799C170.231 183.799 171.183 182.847 171.183 181.673C171.183 180.499 170.231 179.548 169.057 179.548C167.884 179.548 166.932 180.499 166.932 181.673C166.932 182.847 167.884 183.799 169.057 183.799Z" fill="black"/>
<path opacity="0.08" d="M169.057 192.571C170.231 192.571 171.183 191.62 171.183 190.446C171.183 189.272 170.231 188.32 169.057 188.32C167.884 188.32 166.932 189.272 166.932 190.446C166.932 191.62 167.884 192.571 169.057 192.571Z" fill="black"/>
<path opacity="0.08" d="M169.057 201.344C170.231 201.344 171.183 200.392 171.183 199.218C171.183 198.044 170.231 197.093 169.057 197.093C167.884 197.093 166.932 198.044 166.932 199.218C166.932 200.392 167.884 201.344 169.057 201.344Z" fill="black"/>
<path opacity="0.08" d="M169.057 210.116C170.231 210.116 171.183 209.165 171.183 207.991C171.183 206.817 170.231 205.865 169.057 205.865C167.884 205.865 166.932 206.817 166.932 207.991C166.932 209.165 167.884 210.116 169.057 210.116Z" fill="black"/>
<path opacity="0.08" d="M169.057 218.889C170.231 218.889 171.183 217.937 171.183 216.763C171.183 215.589 170.231 214.638 169.057 214.638C167.884 214.638 166.932 215.589 166.932 216.763C166.932 217.937 167.884 218.889 169.057 218.889Z" fill="black"/>
<path opacity="0.08" d="M169.057 227.661C170.231 227.661 171.183 226.71 171.183 225.536C171.183 224.362 170.231 223.41 169.057 223.41C167.884 223.41 166.932 224.362 166.932 225.536C166.932 226.71 167.884 227.661 169.057 227.661Z" fill="black"/>
<path opacity="0.08" d="M169.057 236.434C170.231 236.434 171.183 235.482 171.183 234.308C171.183 233.134 170.231 232.182 169.057 232.182C167.884 232.182 166.932 233.134 166.932 234.308C166.932 235.482 167.884 236.434 169.057 236.434Z" fill="black"/>
<path opacity="0.08" d="M169.057 245.206C170.231 245.206 171.183 244.255 171.183 243.081C171.183 241.907 170.231 240.955 169.057 240.955C167.884 240.955 166.932 241.907 166.932 243.081C166.932 244.255 167.884 245.206 169.057 245.206Z" fill="black"/>
<path opacity="0.08" d="M169.057 253.979C170.231 253.979 171.183 253.027 171.183 251.853C171.183 250.679 170.231 249.727 169.057 249.727C167.884 249.727 166.932 250.679 166.932 251.853C166.932 253.027 167.884 253.979 169.057 253.979Z" fill="black"/>
<path opacity="0.08" d="M178.274 184.09C179.448 184.09 180.4 183.139 180.4 181.965C180.4 180.791 179.448 179.839 178.274 179.839C177.101 179.839 176.149 180.791 176.149 181.965C176.149 183.139 177.101 184.09 178.274 184.09Z" fill="black"/>
<path opacity="0.08" d="M178.274 192.863C179.448 192.863 180.4 191.911 180.4 190.737C180.4 189.563 179.448 188.612 178.274 188.612C177.101 188.612 176.149 189.563 176.149 190.737C176.149 191.911 177.101 192.863 178.274 192.863Z" fill="black"/>
<path opacity="0.08" d="M178.274 201.635C179.448 201.635 180.4 200.684 180.4 199.51C180.4 198.336 179.448 197.384 178.274 197.384C177.101 197.384 176.149 198.336 176.149 199.51C176.149 200.684 177.101 201.635 178.274 201.635Z" fill="black"/>
<path opacity="0.08" d="M178.274 210.408C179.448 210.408 180.4 209.456 180.4 208.282C180.4 207.108 179.448 206.157 178.274 206.157C177.101 206.157 176.149 207.108 176.149 208.282C176.149 209.456 177.101 210.408 178.274 210.408Z" fill="black"/>
<path opacity="0.08" d="M178.274 219.18C179.448 219.18 180.4 218.229 180.4 217.055C180.4 215.881 179.448 214.929 178.274 214.929C177.101 214.929 176.149 215.881 176.149 217.055C176.149 218.229 177.101 219.18 178.274 219.18Z" fill="black"/>
<path opacity="0.08" d="M178.274 227.953C179.448 227.953 180.4 227.001 180.4 225.827C180.4 224.653 179.448 223.702 178.274 223.702C177.101 223.702 176.149 224.653 176.149 225.827C176.149 227.001 177.101 227.953 178.274 227.953Z" fill="black"/>
<path opacity="0.08" d="M178.274 236.725C179.448 236.725 180.4 235.773 180.4 234.599C180.4 233.426 179.448 232.474 178.274 232.474C177.101 232.474 176.149 233.426 176.149 234.599C176.149 235.773 177.101 236.725 178.274 236.725Z" fill="black"/>
<path opacity="0.08" d="M178.274 245.498C179.448 245.498 180.4 244.546 180.4 243.372C180.4 242.198 179.448 241.246 178.274 241.246C177.101 241.246 176.149 242.198 176.149 243.372C176.149 244.546 177.101 245.498 178.274 245.498Z" fill="black"/>
<path opacity="0.08" d="M178.274 254.27C179.448 254.27 180.4 253.318 180.4 252.145C180.4 250.971 179.448 250.019 178.274 250.019C177.101 250.019 176.149 250.971 176.149 252.145C176.149 253.318 177.101 254.27 178.274 254.27Z" fill="black"/>
<path opacity="0.08" d="M110.458 165.962C111.632 165.962 112.584 165.01 112.584 163.837C112.584 162.663 111.632 161.711 110.458 161.711C109.284 161.711 108.332 162.663 108.332 163.837C108.332 165.01 109.284 165.962 110.458 165.962Z" fill="black"/>
<path opacity="0.08" d="M110.458 174.735C111.632 174.735 112.584 173.783 112.584 172.609C112.584 171.435 111.632 170.483 110.458 170.483C109.284 170.483 108.332 171.435 108.332 172.609C108.332 173.783 109.284 174.735 110.458 174.735Z" fill="black"/>
<path opacity="0.08" d="M110.458 183.507C111.632 183.507 112.584 182.555 112.584 181.381C112.584 180.207 111.632 179.256 110.458 179.256C109.284 179.256 108.332 180.207 108.332 181.381C108.332 182.555 109.284 183.507 110.458 183.507Z" fill="black"/>
<path opacity="0.08" d="M110.458 192.279C111.632 192.279 112.584 191.328 112.584 190.154C112.584 188.98 111.632 188.028 110.458 188.028C109.284 188.028 108.332 188.98 108.332 190.154C108.332 191.328 109.284 192.279 110.458 192.279Z" fill="black"/>
<path opacity="0.08" d="M110.458 201.052C111.632 201.052 112.584 200.1 112.584 198.926C112.584 197.752 111.632 196.801 110.458 196.801C109.284 196.801 108.332 197.752 108.332 198.926C108.332 200.1 109.284 201.052 110.458 201.052Z" fill="black"/>
<path opacity="0.08" d="M110.458 209.824C111.632 209.824 112.584 208.873 112.584 207.699C112.584 206.525 111.632 205.573 110.458 205.573C109.284 205.573 108.332 206.525 108.332 207.699C108.332 208.873 109.284 209.824 110.458 209.824Z" fill="black"/>
<path opacity="0.08" d="M110.458 218.597C111.632 218.597 112.584 217.645 112.584 216.471C112.584 215.297 111.632 214.346 110.458 214.346C109.284 214.346 108.332 215.297 108.332 216.471C108.332 217.645 109.284 218.597 110.458 218.597Z" fill="black"/>
<path opacity="0.08" d="M110.458 227.369C111.632 227.369 112.584 226.418 112.584 225.244C112.584 224.07 111.632 223.118 110.458 223.118C109.284 223.118 108.332 224.07 108.332 225.244C108.332 226.418 109.284 227.369 110.458 227.369Z" fill="black"/>
<path opacity="0.08" d="M110.458 236.142C111.632 236.142 112.584 235.19 112.584 234.016C112.584 232.842 111.632 231.89 110.458 231.89C109.284 231.89 108.332 232.842 108.332 234.016C108.332 235.19 109.284 236.142 110.458 236.142Z" fill="black"/>
<path opacity="0.08" d="M110.458 244.914C111.632 244.914 112.584 243.963 112.584 242.789C112.584 241.615 111.632 240.663 110.458 240.663C109.284 240.663 108.332 241.615 108.332 242.789C108.332 243.963 109.284 244.914 110.458 244.914Z" fill="black"/>
<path opacity="0.08" d="M110.458 253.687C111.632 253.687 112.584 252.735 112.584 251.561C112.584 250.387 111.632 249.435 110.458 249.435C109.284 249.435 108.332 250.387 108.332 251.561C108.332 252.735 109.284 253.687 110.458 253.687Z" fill="black"/>
<path opacity="0.08" d="M119.675 166.254C120.849 166.254 121.801 165.302 121.801 164.129C121.801 162.955 120.849 162.003 119.675 162.003C118.501 162.003 117.549 162.955 117.549 164.129C117.549 165.302 118.501 166.254 119.675 166.254Z" fill="black"/>
<path opacity="0.08" d="M119.675 175.026C120.849 175.026 121.801 174.075 121.801 172.901C121.801 171.727 120.849 170.775 119.675 170.775C118.501 170.775 117.549 171.727 117.549 172.901C117.549 174.075 118.501 175.026 119.675 175.026Z" fill="black"/>
<path opacity="0.08" d="M119.675 183.799C120.849 183.799 121.801 182.847 121.801 181.673C121.801 180.499 120.849 179.548 119.675 179.548C118.501 179.548 117.549 180.499 117.549 181.673C117.549 182.847 118.501 183.799 119.675 183.799Z" fill="black"/>
<path opacity="0.08" d="M119.675 192.571C120.849 192.571 121.801 191.62 121.801 190.446C121.801 189.272 120.849 188.32 119.675 188.32C118.501 188.32 117.549 189.272 117.549 190.446C117.549 191.62 118.501 192.571 119.675 192.571Z" fill="black"/>
<path opacity="0.08" d="M119.675 201.344C120.849 201.344 121.801 200.392 121.801 199.218C121.801 198.044 120.849 197.093 119.675 197.093C118.501 197.093 117.549 198.044 117.549 199.218C117.549 200.392 118.501 201.344 119.675 201.344Z" fill="black"/>
<path opacity="0.08" d="M119.675 210.116C120.849 210.116 121.801 209.165 121.801 207.991C121.801 206.817 120.849 205.865 119.675 205.865C118.501 205.865 117.549 206.817 117.549 207.991C117.549 209.165 118.501 210.116 119.675 210.116Z" fill="black"/>
<path opacity="0.08" d="M119.675 218.889C120.849 218.889 121.801 217.937 121.801 216.763C121.801 215.589 120.849 214.638 119.675 214.638C118.501 214.638 117.549 215.589 117.549 216.763C117.549 217.937 118.501 218.889 119.675 218.889Z" fill="black"/>
<path opacity="0.08" d="M119.675 227.661C120.849 227.661 121.801 226.71 121.801 225.536C121.801 224.362 120.849 223.41 119.675 223.41C118.501 223.41 117.549 224.362 117.549 225.536C117.549 226.71 118.501 227.661 119.675 227.661Z" fill="black"/>
<path opacity="0.08" d="M119.675 236.434C120.849 236.434 121.801 235.482 121.801 234.308C121.801 233.134 120.849 232.182 119.675 232.182C118.501 232.182 117.549 233.134 117.549 234.308C117.549 235.482 118.501 236.434 119.675 236.434Z" fill="black"/>
<path opacity="0.08" d="M119.675 245.206C120.849 245.206 121.801 244.255 121.801 243.081C121.801 241.907 120.849 240.955 119.675 240.955C118.501 240.955 117.549 241.907 117.549 243.081C117.549 244.255 118.501 245.206 119.675 245.206Z" fill="black"/>
<path opacity="0.08" d="M119.675 253.979C120.849 253.979 121.801 253.027 121.801 251.853C121.801 250.679 120.849 249.727 119.675 249.727C118.501 249.727 117.549 250.679 117.549 251.853C117.549 253.027 118.501 253.979 119.675 253.979Z" fill="black"/>
<path opacity="0.08" d="M128.892 184.09C130.066 184.09 131.017 183.139 131.017 181.965C131.017 180.791 130.066 179.839 128.892 179.839C127.718 179.839 126.766 180.791 126.766 181.965C126.766 183.139 127.718 184.09 128.892 184.09Z" fill="black"/>
<path opacity="0.08" d="M128.892 192.863C130.066 192.863 131.017 191.911 131.017 190.737C131.017 189.563 130.066 188.612 128.892 188.612C127.718 188.612 126.766 189.563 126.766 190.737C126.766 191.911 127.718 192.863 128.892 192.863Z" fill="black"/>
<path opacity="0.08" d="M128.892 201.635C130.066 201.635 131.017 200.684 131.017 199.51C131.017 198.336 130.066 197.384 128.892 197.384C127.718 197.384 126.766 198.336 126.766 199.51C126.766 200.684 127.718 201.635 128.892 201.635Z" fill="black"/>
<path opacity="0.08" d="M128.892 210.408C130.066 210.408 131.017 209.456 131.017 208.282C131.017 207.108 130.066 206.157 128.892 206.157C127.718 206.157 126.766 207.108 126.766 208.282C126.766 209.456 127.718 210.408 128.892 210.408Z" fill="black"/>
<path opacity="0.08" d="M128.892 219.18C130.066 219.18 131.017 218.229 131.017 217.055C131.017 215.881 130.066 214.929 128.892 214.929C127.718 214.929 126.766 215.881 126.766 217.055C126.766 218.229 127.718 219.18 128.892 219.18Z" fill="black"/>
<path opacity="0.08" d="M128.892 227.953C130.066 227.953 131.017 227.001 131.017 225.827C131.017 224.653 130.066 223.702 128.892 223.702C127.718 223.702 126.766 224.653 126.766 225.827C126.766 227.001 127.718 227.953 128.892 227.953Z" fill="black"/>
<path opacity="0.08" d="M128.892 236.725C130.066 236.725 131.017 235.773 131.017 234.599C131.017 233.426 130.066 232.474 128.892 232.474C127.718 232.474 126.766 233.426 126.766 234.599C126.766 235.773 127.718 236.725 128.892 236.725Z" fill="black"/>
<path opacity="0.08" d="M128.892 245.498C130.066 245.498 131.017 244.546 131.017 243.372C131.017 242.198 130.066 241.246 128.892 241.246C127.718 241.246 126.766 242.198 126.766 243.372C126.766 244.546 127.718 245.498 128.892 245.498Z" fill="black"/>
<path opacity="0.08" d="M128.892 254.27C130.066 254.27 131.017 253.318 131.017 252.145C131.017 250.971 130.066 250.019 128.892 250.019C127.718 250.019 126.766 250.971 126.766 252.145C126.766 253.318 127.718 254.27 128.892 254.27Z" fill="black"/>
<path d="M170.213 156.038C163.54 151.161 164.932 133.837 160.569 133.837C146.838 145.9 149.103 166.561 153.787 195.819C160.974 160.144 165.016 163.481 170.213 156.038Z" fill="#CDA25F"/>
<path d="M170.506 155.853L171.951 158.482C169.327 159.925 165.947 163.738 163.081 169.176C159.292 176.362 156.644 185.734 155.626 197.193L155.514 198.462C153.715 219.022 152.463 241.111 152.081 254.396L152.069 254.804L149.07 254.72L149.094 253.895C149.5 240.233 150.792 217.691 152.637 196.927C153.69 185.083 156.447 175.326 160.427 167.777C163.514 161.921 167.232 157.701 170.402 155.911L170.506 155.853Z" fill="#8E6D39"/>
<path d="M118.793 155.853C121.951 157.59 125.67 161.767 128.77 167.586L128.871 167.777C132.851 175.326 135.608 185.083 136.661 196.927L136.829 198.839C138.603 219.276 139.837 241.106 140.216 254.311L140.228 254.72L137.229 254.804L137.193 253.563C136.775 239.92 135.494 217.685 133.673 197.193C132.654 185.734 130.006 176.362 126.217 169.176C123.383 163.799 120.047 160.01 117.435 158.531L117.347 158.482L118.793 155.853Z" fill="#8E6D39"/>
<path opacity="0.1" d="M181.979 154.431C183.153 154.431 184.105 153.479 184.105 152.305C184.105 151.131 183.153 150.18 181.979 150.18C180.805 150.18 179.853 151.131 179.853 152.305C179.853 153.479 180.805 154.431 181.979 154.431Z" fill="black"/>
<path opacity="0.1" d="M185.819 162.39C186.993 162.39 187.944 161.438 187.944 160.264C187.944 159.09 186.993 158.139 185.819 158.139C184.645 158.139 183.693 159.09 183.693 160.264C183.693 161.438 184.645 162.39 185.819 162.39Z" fill="black"/>
<path opacity="0.1" d="M187.847 169.856C189.015 169.965 190.051 169.106 190.161 167.937C190.27 166.769 189.411 165.733 188.242 165.623C187.073 165.514 186.037 166.373 185.928 167.542C185.819 168.711 186.678 169.747 187.847 169.856Z" fill="black"/>
<path opacity="0.1" d="M190.93 178.138C192.098 178.247 193.134 177.388 193.244 176.219C193.353 175.05 192.494 174.014 191.325 173.905C190.156 173.796 189.12 174.655 189.011 175.824C188.902 176.992 189.761 178.028 190.93 178.138Z" fill="black"/>
<path opacity="0.1" d="M194.013 186.42C195.181 186.529 196.217 185.67 196.327 184.501C196.436 183.332 195.577 182.296 194.408 182.187C193.239 182.078 192.203 182.937 192.094 184.106C191.985 185.274 192.844 186.31 194.013 186.42Z" fill="black"/>
<path opacity="0.1" d="M197.096 194.701C198.264 194.811 199.3 193.952 199.41 192.783C199.519 191.614 198.66 190.578 197.491 190.469C196.322 190.36 195.286 191.219 195.177 192.387C195.068 193.556 195.927 194.592 197.096 194.701Z" fill="black"/>
<path opacity="0.1" d="M200.375 203.508C201.544 203.617 202.58 202.758 202.689 201.589C202.798 200.42 201.939 199.384 200.77 199.275C199.601 199.166 198.565 200.025 198.456 201.194C198.347 202.363 199.206 203.399 200.375 203.508Z" fill="black"/>
<path opacity="0.1" d="M172.307 152.848C173.481 152.848 174.433 151.897 174.433 150.723C174.433 149.549 173.481 148.597 172.307 148.597C171.134 148.597 170.182 149.549 170.182 150.723C170.182 151.897 171.134 152.848 172.307 152.848Z" fill="black"/>
<path opacity="0.1" d="M176.148 160.808C177.321 160.808 178.273 159.856 178.273 158.682C178.273 157.508 177.321 156.556 176.148 156.556C174.974 156.556 174.022 157.508 174.022 158.682C174.022 159.856 174.974 160.808 176.148 160.808Z" fill="black"/>
<path opacity="0.1" d="M178.175 168.273C179.344 168.383 180.38 167.524 180.489 166.355C180.599 165.186 179.74 164.15 178.571 164.041C177.402 163.931 176.366 164.79 176.257 165.959C176.147 167.128 177.006 168.164 178.175 168.273Z" fill="black"/>
<path opacity="0.1" d="M181.258 176.555C182.427 176.664 183.463 175.805 183.572 174.636C183.682 173.468 182.823 172.432 181.654 172.322C180.485 172.213 179.449 173.072 179.34 174.241C179.23 175.41 180.089 176.446 181.258 176.555Z" fill="black"/>
<path opacity="0.1" d="M184.341 184.837C185.51 184.947 186.546 184.088 186.655 182.919C186.765 181.75 185.906 180.714 184.737 180.605C183.568 180.495 182.532 181.355 182.423 182.523C182.313 183.692 183.172 184.728 184.341 184.837Z" fill="black"/>
<path opacity="0.1" d="M187.424 193.119C188.593 193.228 189.629 192.369 189.738 191.201C189.848 190.032 188.989 188.996 187.82 188.886C186.651 188.777 185.615 189.636 185.506 190.805C185.396 191.974 186.255 193.01 187.424 193.119Z" fill="black"/>
<path opacity="0.1" d="M190.704 201.925C191.872 202.035 192.908 201.176 193.018 200.007C193.127 198.838 192.268 197.802 191.099 197.693C189.93 197.583 188.894 198.442 188.785 199.611C188.676 200.78 189.535 201.816 190.704 201.925Z" fill="black"/>
<path opacity="0.1" d="M185.433 210.087C186.601 210.196 187.637 209.337 187.747 208.169C187.856 207 186.997 205.964 185.828 205.854C184.659 205.745 183.623 206.604 183.514 207.773C183.405 208.942 184.264 209.978 185.433 210.087Z" fill="black"/>
<path opacity="0.1" d="M186.547 219.912C187.716 220.021 188.752 219.162 188.861 217.993C188.971 216.824 188.112 215.788 186.943 215.679C185.774 215.57 184.738 216.429 184.629 217.598C184.519 218.766 185.378 219.803 186.547 219.912Z" fill="black"/>
<path opacity="0.1" d="M201.603 212.421C202.772 212.53 203.808 211.671 203.917 210.502C204.027 209.333 203.168 208.297 201.999 208.188C200.83 208.079 199.794 208.938 199.685 210.107C199.575 211.276 200.434 212.312 201.603 212.421Z" fill="black"/>
<path opacity="0.1" d="M193.018 212.025C194.187 212.135 195.223 211.276 195.332 210.107C195.441 208.938 194.582 207.902 193.413 207.793C192.244 207.683 191.208 208.543 191.099 209.711C190.99 210.88 191.849 211.916 193.018 212.025Z" fill="black"/>
<path opacity="0.1" d="M196.7 220.307C197.869 220.416 198.905 219.557 199.014 218.389C199.124 217.22 198.265 216.184 197.096 216.074C195.927 215.965 194.891 216.824 194.782 217.993C194.672 219.162 195.531 220.198 196.7 220.307Z" fill="black"/>
<path opacity="0.1" d="M105.525 152.908C104.357 153.028 103.313 152.179 103.193 151.011C103.073 149.843 103.922 148.799 105.089 148.679C106.257 148.559 107.301 149.408 107.422 150.576C107.542 151.743 106.693 152.788 105.525 152.908Z" fill="black"/>
<path opacity="0.1" d="M102.52 161.218C101.353 161.338 100.308 160.489 100.188 159.322C100.068 158.154 100.917 157.11 102.085 156.989C103.253 156.869 104.297 157.718 104.417 158.886C104.537 160.054 103.688 161.098 102.52 161.218Z" fill="black"/>
<path opacity="0.1" d="M101.268 168.853C100.117 169.081 98.9981 168.333 98.7698 167.181C98.5415 166.03 99.2898 164.911 100.441 164.683C101.593 164.454 102.711 165.203 102.94 166.354C103.168 167.506 102.42 168.624 101.268 168.853Z" fill="black"/>
<path opacity="0.1" d="M99.0496 177.407C97.8981 177.635 96.7795 176.887 96.5512 175.735C96.3228 174.584 97.0712 173.465 98.2227 173.237C99.3742 173.008 100.493 173.757 100.721 174.908C100.95 176.06 100.201 177.178 99.0496 177.407Z" fill="black"/>
<path opacity="0.1" d="M96.8312 185.961C95.6797 186.189 94.5611 185.441 94.3328 184.289C94.1044 183.138 94.8528 182.019 96.0043 181.791C97.1559 181.563 98.2745 182.311 98.5028 183.463C98.7312 184.614 97.9828 185.733 96.8312 185.961Z" fill="black"/>
<path opacity="0.1" d="M94.6126 194.515C93.4611 194.743 92.3425 193.995 92.1142 192.843C91.8858 191.692 92.6342 190.573 93.7857 190.345C94.9372 190.116 96.0558 190.865 96.2842 192.016C96.5125 193.168 95.7641 194.286 94.6126 194.515Z" fill="black"/>
<path opacity="0.1" d="M92.2526 203.611C91.1011 203.839 89.9825 203.091 89.7542 201.94C89.5258 200.788 90.2742 199.669 91.4257 199.441C92.5773 199.213 93.6959 199.961 93.9242 201.113C94.1525 202.264 93.4042 203.383 92.2526 203.611Z" fill="black"/>
<path opacity="0.1" d="M114.983 150.343C113.815 150.463 112.771 149.614 112.651 148.446C112.531 147.278 113.38 146.234 114.548 146.114C115.716 145.994 116.76 146.843 116.88 148.011C117 149.178 116.151 150.222 114.983 150.343Z" fill="black"/>
<path opacity="0.1" d="M111.979 158.654C110.811 158.774 109.767 157.925 109.647 156.757C109.526 155.589 110.376 154.545 111.543 154.425C112.711 154.305 113.755 155.154 113.875 156.322C113.996 157.489 113.147 158.533 111.979 158.654Z" fill="black"/>
<path opacity="0.1" d="M106.289 183.397C105.138 183.625 104.019 182.877 103.791 181.725C103.563 180.574 104.311 179.455 105.463 179.227C106.614 178.998 107.733 179.747 107.961 180.898C108.189 182.05 107.441 183.168 106.289 183.397Z" fill="black"/>
<path opacity="0.1" d="M104.071 191.951C102.919 192.179 101.801 191.431 101.573 190.279C101.344 189.127 102.093 188.009 103.244 187.781C104.396 187.552 105.514 188.301 105.743 189.452C105.971 190.604 105.223 191.722 104.071 191.951Z" fill="black"/>
<path opacity="0.1" d="M101.711 201.046C100.559 201.274 99.4409 200.526 99.2125 199.374C98.9842 198.223 99.7326 197.104 100.884 196.876C102.036 196.648 103.154 197.396 103.383 198.548C103.611 199.699 102.863 200.818 101.711 201.046Z" fill="black"/>
<path opacity="0.1" d="M91.9439 212.603C90.7924 212.831 89.6738 212.083 89.4455 210.931C89.2171 209.78 89.9655 208.661 91.117 208.433C92.2685 208.205 93.3871 208.953 93.6155 210.105C93.8438 211.256 93.0954 212.375 91.9439 212.603Z" fill="black"/>
<path opacity="0.1" d="M100.444 211.33C99.292 211.558 98.1734 210.81 97.9451 209.658C97.7167 208.507 98.4651 207.388 99.6166 207.16C100.768 206.932 101.887 207.68 102.115 208.832C102.343 209.983 101.595 211.102 100.444 211.33Z" fill="black"/>
<path opacity="0.1" d="M97.6289 219.946C96.4773 220.174 95.3587 219.425 95.1304 218.274C94.9021 217.122 95.6504 216.004 96.802 215.776C97.9535 215.547 99.0721 216.296 99.3004 217.447C99.5288 218.599 98.7804 219.717 97.6289 219.946Z" fill="black"/>
<path opacity="0.1" d="M103.621 225.949C102.47 226.177 101.351 225.429 101.123 224.278C100.894 223.126 101.643 222.007 102.794 221.779C103.946 221.551 105.064 222.299 105.293 223.451C105.521 224.602 104.773 225.721 103.621 225.949Z" fill="black"/>
<path d="M115.11 111.141C122.606 111.141 128.683 105.377 128.683 98.2658C128.683 91.1551 122.606 85.3907 115.11 85.3907C107.613 85.3907 101.536 91.1551 101.536 98.2658C101.536 105.377 107.613 111.141 115.11 111.141Z" fill="#FFDACF"/>
<path d="M177.834 110.778C185.331 110.778 191.408 105.013 191.408 97.9025C191.408 90.7918 185.331 85.0275 177.834 85.0275C170.338 85.0275 164.26 90.7918 164.26 97.9025C164.26 105.013 170.338 110.778 177.834 110.778Z" fill="#FFDACF"/>
<path d="M107.388 88.4667C104.962 65.6587 122.522 45.637 145.451 45.067C168.514 44.4937 187.097 63.8345 185.603 86.8557L185.479 88.7725C185.291 91.666 184.797 94.5315 184.005 97.3207L178.189 117.801C174.081 132.268 160.869 142.25 145.831 142.25C130.09 142.25 116.454 131.333 113.009 115.974L107.884 93.125L107.388 88.4667Z" fill="#FFE2DA"/>
<path d="M154.653 81.6573L167.005 80.8023C167.49 80.7688 167.971 80.9173 168.353 81.2193C169.844 82.3988 168.945 84.7978 167.046 84.706L165.423 84.6278L154.815 84.9428C153.802 84.9728 153.003 84.0888 153.135 83.084C153.237 82.308 153.872 81.7113 154.653 81.6573Z" fill="black"/>
<path d="M138.115 81.6573L125.763 80.8023C125.277 80.7688 124.796 80.9173 124.415 81.2193C122.923 82.3988 123.823 84.7978 125.722 84.706L127.345 84.6278L137.952 84.9428C138.965 84.9728 139.764 84.0888 139.632 83.084C139.53 82.308 138.896 81.7113 138.115 81.6573Z" fill="black"/>
<path d="M144.797 99.1273L148.024 99.5207C147.914 100.418 147.556 101.39 146.951 102.607L146.842 102.824C146.637 103.226 146.404 103.659 146.119 104.172L145.076 106.022C144.799 106.516 144.58 106.916 144.377 107.3L144.327 107.396C142.995 109.935 142.546 111.598 142.929 112.563C143.38 113.7 145.375 114.484 149.631 114.501L149.774 114.501V117.751L149.444 117.75C144.102 117.701 140.972 116.441 139.908 113.762C139.064 111.637 139.675 109.301 141.374 106.029L141.449 105.886C141.646 105.511 141.851 105.132 142.099 104.687L143.093 102.914C144.378 100.603 144.699 99.888 144.794 99.157L144.797 99.1273Z" fill="#EBBAAA"/>
<path d="M123.163 68.5472C118.887 69.9507 115.795 71.387 115.536 74.6717C114.572 86.8865 112.245 81.4387 107.62 86.5315L107.596 86.4485C106.924 84.0842 106.37 82.1382 106.37 74.6717C106.37 48.4645 126.215 32.3775 144.082 34.8627C150.08 35.6971 158.231 41.7914 158.231 59.3667C149.485 64.36 131.056 65.956 123.163 68.5472Z" fill="#0B2B59"/>
<path d="M158.134 54.25C160.662 55.6808 171.896 58.1605 173.134 61.2008C175.952 68.1223 180.65 63.095 182.977 83.9985C182.977 86.5105 184.143 87.8255 185.13 89.1913C185.814 86.7883 186.745 80.7505 186.745 73.915C186.745 43.0489 164.71 33.4056 145.95 34.7808C133.095 35.7231 138.822 43.624 138.822 61.2008C151.747 63.1985 150.872 50.1403 158.134 54.25Z" fill="#0B2B59"/>
<path fill-rule="evenodd" clip-rule="evenodd" d="M160.625 96C162.213 96 163.5 94.7128 163.5 93.125C163.5 91.5372 162.213 90.25 160.625 90.25C159.037 90.25 157.75 91.5372 157.75 93.125C157.75 94.7128 159.037 96 160.625 96Z" fill="black"/>
<path fill-rule="evenodd" clip-rule="evenodd" d="M131.625 96C133.213 96 134.5 94.7128 134.5 93.125C134.5 91.5372 133.213 90.25 131.625 90.25C130.037 90.25 128.75 91.5372 128.75 93.125C128.75 94.7128 130.037 96 131.625 96Z" fill="black"/>
<path d="M153.105 123.619C153.834 123.321 154.666 123.67 154.964 124.398C155.262 125.127 154.913 125.959 154.184 126.257C148.078 128.754 142.454 128.823 137.703 126.183C137.015 125.801 136.767 124.934 137.149 124.246C137.532 123.558 138.399 123.31 139.087 123.692C143.008 125.87 147.743 125.813 153.105 123.619Z" fill="#EBBAAA"/>
<path d="M118.337 42.0885L116.083 50.096L145.798 45.4943L179.756 51.702L179.684 48.4073L177.262 47.4005L177.206 44.8115L174.152 44.878L174.065 40.8771L170.139 40.9625L169.2 37.922L165.71 37.9978L163.572 34.9834L159.994 36.003L158.862 34.1439L155.154 34.2245L155.108 32.1064L150.137 34.3336L148.783 32.2439L146.648 34.4094L144.42 32.3387L140.322 34.5469L137.659 32.4857L134.87 34.6654L132.907 34.7081L130.766 36.6383L129.853 34.7745L126.232 38.8559L123.812 37.9667L120.749 42.6247L118.337 42.0885Z" fill="#133B75"/>
<path d="M152.518 59.1973C138.502 56.0323 128.604 61.7045 124.083 63.4368C119.562 65.1688 117.018 67.3928 113.522 69.6528C110.131 69.4265 108.4 63.578 108.824 60.3283C108.824 54.9593 114.701 48.6295 123.518 43.656C134.538 37.4392 154.997 35.7412 171.839 45.9168C185.403 54.1115 184.273 68.5233 179.751 72.7618C175.23 77.0005 170.038 63.1533 152.518 59.1973Z" fill="#133B75"/>
<path d="M126.344 61.6048C136.847 63.6473 134.085 56.1336 134.085 52.5793V44.5036C134.085 41.2209 155.153 45.9203 156.976 56.1336C158.435 64.3038 150.048 69.5078 146.401 69.6293C138.743 69.8846 129.99 68.1703 126.344 61.6048Z" fill="#133B75"/>
<path d="M154.036 66.2623C159.815 67.839 156.325 57.4675 154.036 54.8178C154.036 53.8793 156.325 51.4015 156.325 49.3743C156.325 46.84 167.917 49.5838 168.92 57.4675C169.723 63.7745 166.681 66.4938 165.057 67.6753C161.949 69.9358 156.043 71.3305 154.036 66.2623Z" fill="#133B75"/>
<path d="M119.845 67.958C125.623 69.5348 126.344 60.6108 126.344 59.1633C128.039 52.1335 133.974 51.2858 137.082 51.2858H137.088C139.62 51.2858 142.296 51.2855 143.299 59.1633C144.101 65.4703 137.082 67.958 131.854 69.936C128.259 71.2963 121.851 73.026 119.845 67.958Z" fill="#133B75"/>
<path d="M119.819 38.936C119.819 46.2361 127.987 46.5353 132.704 46.2361L138.445 48.9743C141.164 50.2713 131.617 62.7116 122.585 59.8746C115.359 57.6048 114.174 52.5803 113.831 50.0353C113.176 45.1658 113.831 42.6096 119.819 38.936Z" fill="#133B75"/>
</svg>
