<svg width="300" height="400" viewBox="0 0 300 400" fill="none" xmlns="http://www.w3.org/2000/svg">
<path d="M132.502 268.243C133.625 262.719 139.014 259.152 144.538 260.275C150.063 261.398 153.631 266.786 152.507 272.31L152.417 272.758C150.958 280.127 149.201 293.568 148.087 306.496L148.053 306.895C146.725 322.474 146.456 335.54 147.451 342.629C148.235 348.211 144.345 353.371 138.762 354.155C133.179 354.938 128.018 351.048 127.235 345.466C125.968 336.443 126.261 322.179 127.712 305.162L127.784 304.319C128.985 290.539 130.867 276.283 132.502 268.243Z" fill="#F5D0C3"/>
<path d="M183.279 271.091C188.81 269.999 194.179 273.598 195.27 279.128C196.871 287.24 198.394 298.772 199.28 309.947L199.336 310.66C200.388 324.339 200.437 336.44 199.212 345.426C198.451 351.011 193.306 354.921 187.72 354.16C182.135 353.399 178.223 348.255 178.984 342.67C179.976 335.396 179.932 324.588 178.981 312.226L178.93 311.568C178.104 301.143 176.683 290.383 175.241 283.08C174.15 277.55 177.749 272.182 183.279 271.091Z" fill="#F5D0C3"/>
<path d="M167.806 269.018L128.057 237.294C128.057 237.294 120.889 253.911 120.889 275.059C120.889 299.734 125.114 331.207 126.173 334.103C127.231 336.997 138.902 336.116 147.068 332.213C156.195 295.078 167.806 269.018 167.806 269.018Z" fill="#232526"/>
<path d="M126.408 335.818L125.092 328.433C131.303 332.194 142.574 330.801 148.029 328.433C148.029 334.146 147.312 335.121 147.312 337.071C140.862 341.531 129.036 339.999 126.408 335.818Z" fill="#3F4244"/>
<path d="M164.721 284.046C187.801 284.046 206.511 272.773 206.511 258.868C206.511 244.963 187.801 233.69 164.721 233.69C141.64 233.69 122.93 244.963 122.93 258.868C122.93 272.773 141.64 284.046 164.721 284.046Z" fill="#232526"/>
<path d="M162.221 267.381L203.051 244.092C203.051 244.092 207.352 255.422 207.352 276.068C207.352 296.713 204.012 317.862 200.146 332.466C194.502 337.501 184.293 341.027 180.692 337.501C177.091 333.976 162.221 267.381 162.221 267.381Z" fill="#232526"/>
<path d="M207.232 272.315C199.546 276.032 190.499 275.331 187.057 274.514C187.857 281.442 189.939 296.369 191.86 300.673C197.384 302.628 200.747 302.383 205.791 300.673C206.991 291.139 208.192 279.893 207.232 272.315Z" fill="#3F4244"/>
<path d="M205.324 275.997L206.257 277.676C204.471 278.669 202.026 279.293 199.028 279.644L198.71 279.68C196.494 279.925 194.526 279.993 191.569 279.998L191.14 279.999V278.078L191.967 278.076C194.769 278.065 196.65 277.988 198.805 277.736L199.171 277.691C201.711 277.368 203.77 276.831 205.221 276.053L205.324 275.997Z" fill="#232526"/>
<path d="M200.867 337.34V329.764C194.656 333.525 183.385 332.132 177.93 329.761C177.93 335.477 178.647 336.452 178.647 338.402C185.097 342.861 198.239 341.521 200.867 337.34Z" fill="#3F4244"/>
<path d="M103.116 365.725C103.116 355.457 110.639 346.74 120.798 345.234L126.468 344.393H129.077C129.077 344.393 128.806 349.141 137.595 349.141C146.384 349.141 147.601 344.393 147.601 344.393H148.71C149.324 344.393 149.821 344.891 149.821 345.505V364.484C149.821 366.016 148.578 367.26 147.045 367.26H104.651C103.803 367.26 103.116 366.573 103.116 365.725Z" fill="#3B3F45"/>
<path d="M125.452 340.537C125.356 342.004 124.211 344.163 123.651 345.059C124.251 346.363 125.86 348.971 127.494 348.971C129.535 348.971 130.015 344.081 129.775 343.226C129.535 342.369 125.572 338.702 125.452 340.537Z" fill="#3B3F45"/>
<mask id="mask0_0_3455" style="mask-type:luminance" maskUnits="userSpaceOnUse" x="103" y="344" width="47" height="24">
<path fill-rule="evenodd" clip-rule="evenodd" d="M103.116 365.682C103.116 353.925 112.648 344.393 124.407 344.393H126.468H132.306H138.145H143.983H149.821V364.484C149.821 366.016 148.578 367.26 147.045 367.26H104.693C103.822 367.26 103.116 366.554 103.116 365.682Z" fill="white"/>
</mask>
<g mask="url(#mask0_0_3455)">
<path d="M120.975 356.043L124.932 363.72L121.234 365.626L117.276 357.949L120.975 356.043Z" fill="#666E79"/>
<path d="M126.428 353.137L131.171 362.361L127.47 364.263L122.727 355.039L126.428 353.137Z" fill="#666E79"/>
<path d="M131.776 349.941L138.333 362.944L134.618 364.817L128.06 351.814L131.776 349.941Z" fill="#666E79"/>
<path d="M108.533 352.832C105.031 350.757 106.404 354.868 103.258 356.614L96.5948 370.002H149.621C150.917 368.062 155.598 358.002 151.871 356.614C145.026 354.069 132.964 362.872 127.966 362.582C122.969 362.291 108.664 364.472 109.504 359.815C110.476 354.431 111.725 354.724 108.533 352.832Z" fill="#555D65"/>
</g>
<path d="M122.176 343.585C122.45 343.237 122.947 343.166 123.306 343.417L123.801 343.787C124.126 344.029 124.528 344.328 124.702 344.465L124.884 344.61C126.251 345.719 126.995 346.747 126.995 348.029C126.995 348.571 126.487 348.964 125.968 348.839L125.925 348.827L119.634 346.959L121.742 350.515C122.13 351.169 121.511 351.95 120.795 351.74L120.755 351.727L114.628 349.621L116.859 352.949C117.107 353.318 117.02 353.813 116.67 354.077L116.631 354.105C116.262 354.352 115.767 354.265 115.503 353.915L115.476 353.877L111.867 348.493C111.43 347.842 112.052 347.012 112.789 347.229L112.829 347.242L119.154 349.415L117.117 345.98C116.738 345.341 117.322 344.571 118.03 344.746L118.07 344.757L124.716 346.731L124.671 346.68C124.432 346.416 124.129 346.138 123.759 345.843L123.673 345.774C123.411 345.568 122.486 344.889 122.315 344.755C121.954 344.47 121.891 343.947 122.176 343.585Z" fill="#7F8389"/>
<path d="M223.915 365.725C223.915 355.457 216.391 346.74 206.232 345.234L200.562 344.393H197.954C197.954 344.393 198.224 349.141 189.435 349.141C180.646 349.141 179.429 344.393 179.429 344.393H178.32C177.707 344.393 177.21 344.891 177.21 345.505V364.484C177.21 366.016 178.453 367.26 179.986 367.26H222.38C223.228 367.26 223.915 366.573 223.915 365.725Z" fill="#3B3F45"/>
<path d="M201.578 340.537C201.675 342.004 202.819 344.163 203.38 345.059C202.779 346.363 201.17 348.971 199.537 348.971C197.495 348.971 197.015 344.081 197.255 343.226C197.495 342.369 201.458 338.702 201.578 340.537Z" fill="#3B3F45"/>
<mask id="mask1_0_3455" style="mask-type:luminance" maskUnits="userSpaceOnUse" x="177" y="344" width="47" height="24">
<path fill-rule="evenodd" clip-rule="evenodd" d="M223.915 365.682C223.915 353.925 214.382 344.393 202.624 344.393H200.562H194.724H188.886H183.048H177.21V364.484C177.21 366.016 178.453 367.26 179.986 367.26H222.338C223.209 367.26 223.915 366.554 223.915 365.682Z" fill="white"/>
</mask>
<g mask="url(#mask1_0_3455)">
<path d="M206.056 356.043L209.755 357.949L205.797 365.626L202.098 363.72L206.056 356.043Z" fill="#666E79"/>
<path d="M200.603 353.137L204.303 355.039L199.561 364.263L195.86 362.361L200.603 353.137Z" fill="#666E79"/>
<path d="M195.255 349.941L198.971 351.814L192.413 364.817L188.698 362.944L195.255 349.941Z" fill="#666E79"/>
<path d="M218.498 352.832C222 350.757 220.626 354.868 223.773 356.614L230.436 370.002H177.409C176.114 368.062 171.433 358.002 175.159 356.614C182.004 354.069 194.067 362.872 199.064 362.582C204.061 362.291 218.366 364.472 217.526 359.815C216.555 354.431 215.305 354.724 218.498 352.832Z" fill="#555D65"/>
</g>
<path d="M203.647 343.476L203.685 343.446C204.046 343.162 204.57 343.224 204.855 343.585C205.139 343.947 205.077 344.47 204.715 344.755L204.6 344.843C204.306 345.064 203.641 345.555 203.388 345.75L203.358 345.774C202.949 346.095 202.617 346.396 202.36 346.68L202.315 346.731L208.96 344.757C209.673 344.546 210.277 345.3 209.934 345.944L209.914 345.98L207.877 349.415L214.201 347.242C214.943 346.987 215.585 347.8 215.187 348.457L215.164 348.493L211.555 353.877C211.299 354.259 210.781 354.361 210.399 354.105C210.03 353.858 209.923 353.367 210.146 352.989L210.171 352.949L212.402 349.621L206.276 351.727C205.556 351.975 204.917 351.21 205.268 350.551L205.288 350.515L207.397 346.959L201.106 348.827C200.586 348.982 200.065 348.607 200.037 348.074L200.036 348.029C200.036 346.691 200.846 345.63 202.328 344.465L202.433 344.384C202.769 344.127 203.447 343.628 203.647 343.476Z" fill="#7F8389"/>
<path d="M116.148 242.268C121.768 239.933 126.987 243.099 128.452 248.929L128.51 249.159C128.759 250.128 129.079 251.239 129.506 252.636L130.167 254.759C130.576 256.064 131.049 257.567 131.134 257.838L131.429 258.789C132.117 261.024 132.641 262.832 133.11 264.634C134.416 269.658 135.082 273.908 134.987 277.843C134.859 283.143 133.309 287.708 129.936 291.209L129.819 291.329L120.052 281.737C121.709 280.051 121.816 275.599 119.861 268.079L119.774 267.751C119.354 266.16 118.864 264.489 118.204 262.36L117.347 259.629L117.329 259.654C114.787 263.111 111.914 267.733 109.462 272.21L109.331 272.45L97.3091 265.901C100.736 259.612 104.888 253.09 108.475 248.742C111.119 245.536 113.485 243.375 116.148 242.268Z" fill="#323337"/>
<path d="M78.5819 284.576C84.0491 257.622 97.3155 263.797 103.56 262.331C131.901 262.331 128.355 280.242 128.835 288.063C129.315 295.887 126.914 336.466 120.189 342.823C113.464 349.177 73.7784 335.669 68.7347 327.845C68.7347 311.892 71.3767 303.644 78.5819 284.576Z" fill="#3F4244"/>
<path d="M119.14 305.834C119.966 297.037 117.971 267.303 114.008 263.27C134.663 267.425 129.974 287.993 129.974 303.634C129.974 322.043 122.752 342.979 119.14 344.201C115.529 345.424 100.844 342.002 106.141 342.979C111.437 343.959 117.696 321.229 119.14 305.834Z" fill="#37383B"/>
<path d="M111.486 333.712V308.533L101.879 309.755C100.918 318.311 99.5732 335.864 101.879 337.624C104.761 339.824 111.486 334.934 111.486 333.712Z" fill="#37383C"/>
<path d="M77.4706 298.898L77.4951 298.901C85.3728 297.726 103.354 303.953 111.36 307.212C111.52 308.026 110.927 310.341 107.277 313.079C102.713 316.501 104.831 334.994 101.993 336.548C95.6343 340.03 70.6562 328.784 67.6479 326.279C67.0875 321.798 68.1342 308.554 70.5361 303.85C73.257 298.519 74.7641 298.656 77.4706 298.898Z" fill="#4F5256"/>
<path d="M72.2218 304.98C72.2729 304.452 72.7425 304.065 73.2706 304.116C80.3961 304.806 99.3024 310.555 102.659 312.834C103.098 313.132 103.212 313.729 102.914 314.168C102.616 314.607 102.018 314.721 101.579 314.423C98.522 312.347 79.9157 306.69 73.0854 306.028C72.5573 305.977 72.1706 305.508 72.2218 304.98Z" fill="#37383B"/>
<path d="M119.345 166.233C122.855 160.606 130.262 158.889 135.89 162.398C141.461 165.872 143.2 173.166 139.829 178.771L139.63 179.095C138.832 180.426 137.303 183.534 135.734 187.201L135.669 187.352C133.513 192.408 131.491 197.97 129.861 203.532C125.832 217.287 124.716 229.262 127.093 237.07C129.025 243.414 125.447 250.123 119.102 252.054C112.757 253.985 106.048 250.408 104.117 244.064C101.911 236.819 101.381 228.673 102.211 219.768C102.893 212.445 104.489 204.711 106.813 196.781C110.361 184.669 115.798 171.921 119.345 166.233Z" fill="#F5D0C3"/>
<path d="M196.674 161.643C202.302 158.134 209.709 159.851 213.218 165.478C217.891 172.97 222.255 180.918 225.835 189.58C228.442 195.886 230.259 201.808 231.097 207.339C232.234 214.844 231.589 221.609 228.394 227.448C225.21 233.265 217.913 235.4 212.095 232.216C206.335 229.065 204.184 221.882 207.231 216.094L207.325 215.919C207.334 215.903 207.359 215.839 207.394 215.716C207.459 215.488 207.514 215.186 207.549 214.808C207.645 213.809 207.587 212.501 207.35 210.936C206.84 207.569 205.564 203.411 203.639 198.752C200.67 191.569 196.869 184.646 192.839 178.185C189.329 172.559 191.046 165.152 196.674 161.643Z" fill="#F5D0C3"/>
<path d="M117.046 167.299C124.045 154.023 135.483 155.025 140.343 155.528L131.271 201.541L104.677 192.855C106.118 190.715 107.226 190.976 107.679 189.456C109.206 184.339 111.651 177.534 117.046 167.299Z" fill="#D13227"/>
<path d="M104.498 192.477L116.112 195.499L127.854 198.016L126.067 203.052L116.112 201.038L101.435 196.254L104.498 192.477Z" fill="#E23F34"/>
<path d="M103.116 200.157L118.729 202.297L133.799 204.814L134.819 211.235L126.653 210.605C126.653 210.605 120.288 212.745 114.644 209.095C109 205.444 101.075 203.304 101.075 203.304L103.116 200.157Z" fill="#D13227"/>
<path d="M101.555 196.128L117.286 201.038L130.256 202.171L128.094 208.214L115.245 205.192L102.876 200.156L101.555 196.128Z" fill="#B62C23"/>
<path d="M216.719 167.484C209.72 154.208 198.282 155.21 193.422 155.713L202.494 201.726L229.088 193.04C227.647 190.899 226.539 191.161 226.085 189.64C224.559 184.523 222.114 177.718 216.719 167.484Z" fill="#D13227"/>
<path d="M229.267 192.662L217.653 195.683L205.911 198.201L207.698 203.236L217.653 201.222L232.33 196.438L229.267 192.662Z" fill="#E23F34"/>
<path d="M230.649 200.341L215.036 202.481L199.965 204.999L198.946 211.419L206.511 213.4C206.511 213.4 212.516 209.279 219.12 209.279C225.725 209.279 231.627 215.777 231.627 215.777L231.97 207.778L230.649 200.341Z" fill="#D13227"/>
<path d="M232.21 196.313L216.478 201.222L203.509 202.355L205.671 208.398L218.52 205.377L230.889 200.341L232.21 196.313Z" fill="#B62C23"/>
<path d="M131.099 163.796C132.273 156.585 138.457 151.32 145.766 151.252L168.391 151.04L189.557 152.924C196.385 153.531 201.969 158.653 203.032 165.43C205.441 180.798 209.289 208.348 209.289 227.531C209.289 255.454 214.545 258.125 206.406 261.783C198.268 265.442 133.157 264.927 124.267 259.255C115.377 253.583 120.905 247.673 120.905 236.091C120.905 227.516 127.615 185.19 131.099 163.796Z" fill="#E23D32"/>
<path d="M165.682 176.867C173.574 176.867 179.972 169.709 179.972 160.879C179.972 152.049 173.574 144.891 165.682 144.891C157.789 144.891 151.391 152.049 151.391 160.879C151.391 169.709 157.789 176.867 165.682 176.867Z" fill="#CC2217"/>
<path d="M157.155 176.363C149.47 174.752 132.898 157.228 141.544 148.164C147.068 140.611 155.954 150.682 157.155 155.718C158.116 159.746 160.758 169.649 162.439 172.335C164.36 174.265 164.841 177.975 157.155 176.363Z" fill="#F06057"/>
<path d="M175.409 176.309C183.094 174.698 199.666 157.174 191.02 148.11C185.496 140.557 176.61 150.628 175.409 155.664C174.448 159.692 171.806 169.596 170.125 172.281C168.204 174.211 167.723 177.921 175.409 176.309Z" fill="#F06057"/>
<path fill-rule="evenodd" clip-rule="evenodd" d="M191.263 185.932L182.399 186.582L184.086 211.875L192.95 211.225L191.263 185.932ZM170.406 187.461L179.27 186.812L180.327 202.666C180.702 208.281 176.733 212.596 171.273 212.996C165.867 213.393 161.432 209.764 160.98 204.228L160.967 204.059L159.912 188.231L168.775 187.581L169.825 203.314C169.861 203.859 169.992 204.19 170.144 204.341C170.238 204.435 170.385 204.484 170.679 204.463C170.987 204.44 171.155 204.356 171.256 204.227C171.392 204.053 171.48 203.734 171.458 203.248L171.453 203.169L170.406 187.461ZM156.795 188.459L147.932 189.109L148.482 197.367L146.967 197.478L146.416 189.22L137.553 189.869L139.24 215.163L148.103 214.513L147.536 206.014L149.051 205.902L149.619 214.402L158.482 213.752L156.795 188.459ZM155.007 190.516L156.438 211.976L151.407 212.344L150.84 203.845L145.492 204.237L146.059 212.737L141.028 213.105L139.597 191.646L144.628 191.277L145.179 199.535L150.527 199.143L149.975 190.885L155.007 190.516ZM177.481 188.869L172.45 189.238L173.37 203.042C173.436 204.018 173.225 204.828 172.77 205.41C172.323 205.982 171.651 206.317 170.82 206.379C169.989 206.44 169.293 206.205 168.788 205.702C168.296 205.212 167.995 204.478 167.916 203.546L167.908 203.442L166.987 189.638L161.956 190.007L162.884 203.931C163.188 208.478 166.716 211.404 171.133 211.08C175.518 210.759 178.649 207.399 178.418 202.929L178.41 202.793L177.481 188.869ZM184.443 188.358L189.474 187.989L190.906 209.449L185.875 209.818L184.443 188.358Z" fill="#F06057"/>
<path d="M154.273 169.395C155.182 169.395 155.923 170.116 155.953 171.018L155.954 171.076V205.195C155.954 206.124 155.202 206.876 154.273 206.876C153.364 206.876 152.623 206.155 152.593 205.253L152.592 205.195V171.076C152.592 170.147 153.345 169.395 154.273 169.395Z" fill="#CC2217"/>
<path d="M154.273 203.588C154.919 203.588 155.446 204.098 155.473 204.737L155.474 204.789V207.835C155.474 208.498 154.936 209.036 154.273 209.036C153.627 209.036 153.101 208.526 153.073 207.887L153.072 207.835V204.789C153.072 204.126 153.61 203.588 154.273 203.588Z" fill="#FFAB49"/>
<path d="M177.81 169.395C178.719 169.395 179.46 170.116 179.491 171.018L179.492 171.076V210.353C179.492 211.282 178.739 212.034 177.81 212.034C176.901 212.034 176.161 211.313 176.13 210.411L176.129 210.353V171.076C176.129 170.147 176.882 169.395 177.81 169.395Z" fill="#CC2217"/>
<path d="M177.81 208.649C178.456 208.649 178.983 209.158 179.01 209.797L179.011 209.85V213.374C179.011 214.037 178.474 214.575 177.81 214.575C177.165 214.575 176.638 214.065 176.611 213.426L176.609 213.374V209.85C176.609 209.186 177.147 208.649 177.81 208.649Z" fill="#FFAB49"/>
<path d="M208.18 215.506C211.09 209.768 218.1 207.476 223.837 210.384C229.575 213.293 231.868 220.302 228.959 226.039C224.261 235.304 217.576 241.854 209.438 245.758C203.102 248.797 196.461 250.021 189.509 250.021C183.075 250.021 177.86 244.806 177.86 238.374C177.86 231.941 183.075 226.727 189.509 226.727C193.229 226.727 196.513 226.122 199.361 224.756C202.871 223.072 205.798 220.204 208.18 215.506Z" fill="#F5D0C3"/>
<path d="M135.887 232.542C137.224 226.212 142.811 221.683 149.281 221.683H165.665H191.121C192.465 221.683 193.826 221.869 194.933 222.631C197.238 224.217 201.111 228.214 202.428 237.594C204.35 251.276 202.428 253.505 202.428 253.505C202.428 253.505 182.614 257.939 165.665 257.939C148.716 257.939 131.457 253.505 131.457 253.505L134.819 237.594L135.887 232.542Z" fill="#CC2217"/>
<rect x="156.605" y="142.881" width="19.214" height="29.0264" rx="9.2283" fill="#EBBAAA"/>
<path d="M130.295 122.455C137.997 122.455 144.242 116.246 144.242 108.586C144.242 100.927 137.997 94.7184 130.295 94.7184C122.592 94.7184 116.348 100.927 116.348 108.586C116.348 116.246 122.592 122.455 130.295 122.455Z" fill="#EBBAAA"/>
<path d="M202.828 123.53C210.53 123.53 216.774 117.321 216.774 109.662C216.774 102.003 210.53 95.7938 202.828 95.7938C195.125 95.7938 188.881 102.003 188.881 109.662C188.881 117.321 195.125 123.53 202.828 123.53Z" fill="#EBBAAA"/>
<path d="M125.239 79.4559C125.874 68.2335 134.089 58.8941 145.14 56.8315L160.12 54.0354C165.792 52.9768 171.616 53.0474 177.26 54.2431L206.058 60.3443L209.661 96.9849V113.248C209.661 136.557 190.762 155.453 167.45 155.453C144.138 155.453 125.239 136.557 125.239 113.248V79.4559Z" fill="#F4D4CA"/>
<path d="M150.704 99.5453C152.311 99.5453 153.617 100.828 153.656 102.425L153.657 102.498L153.657 109.578C153.657 111.209 152.335 112.531 150.704 112.531C149.097 112.531 147.79 111.248 147.752 109.651L147.751 109.578L147.751 102.498C147.751 100.867 149.073 99.5452 150.704 99.5453Z" fill="black"/>
<path d="M180.905 99.5453C182.511 99.5453 183.818 100.828 183.857 102.425L183.858 102.498L183.857 109.578C183.857 111.209 182.535 112.531 180.904 112.531C179.298 112.531 177.991 111.248 177.952 109.651L177.951 109.578L177.952 102.498C177.952 100.867 179.274 99.5452 180.905 99.5453Z" fill="black"/>
<path d="M158.83 129.038C159.228 128.126 160.29 127.71 161.202 128.107L161.397 128.191C164.57 129.53 167.287 129.548 173.498 128.01C174.464 127.771 175.44 128.359 175.68 129.325C175.919 130.291 175.33 131.267 174.364 131.506C167.318 133.252 163.835 133.186 159.761 131.409C158.849 131.011 158.433 129.95 158.83 129.038Z" fill="#C99584"/>
<path d="M139.149 90.5451C139.257 88.9818 140.593 87.7962 142.15 87.8649L142.223 87.869L156.058 88.8258C157.646 88.9356 158.845 90.3117 158.735 91.8995C158.627 93.4628 157.291 94.6483 155.734 94.5796L155.661 94.5755L141.825 93.6188C140.237 93.5089 139.039 92.1328 139.149 90.5451Z" fill="#272727"/>
<path d="M190.316 87.3819C191.903 87.2584 193.289 88.4446 193.413 90.0314C193.534 91.5937 192.386 92.9618 190.836 93.1214L190.763 93.1279L177.143 94.1875C175.556 94.3109 174.17 93.1247 174.046 91.538C173.924 89.9756 175.073 88.6075 176.623 88.448L176.696 88.4414L190.316 87.3819Z" fill="#272727"/>
<path d="M183.597 63.3147C199.929 68.6019 202.488 69.4832 203.772 76.1554C205.855 86.9919 211.243 83.9564 211.818 72.0009C206.92 37.1257 179.514 34.1083 173.51 37.6332C166.304 41.8632 164.115 57.0076 183.597 63.3147Z" fill="#484A4B"/>
<path d="M211.818 72.5378C211.818 69.8057 207.833 73.6485 206.015 75.688L205.357 76.4263C204.661 77.2074 204.37 78.2689 204.57 79.296L208.524 99.5655C208.611 100.007 208.998 100.326 209.448 100.326C209.954 100.326 210.369 99.9262 210.388 99.4207L211.818 72.5378Z" fill="#484A4B"/>
<path d="M193.902 66.0843C172.286 58.0275 131.839 69.9869 127.756 75.0224C125.672 85.8589 122.57 81.9462 122.09 70.7462C127.133 39.8993 155.983 24.2736 188.618 36.878C206.871 43.9278 211.675 60.0416 193.902 66.0843Z" fill="#272727"/>
<path d="M122.33 53.1176C129.055 53.873 130.376 52.0686 134.219 49.7186V55.7613L131.577 61.3003C127.254 61.3003 124.251 60.1673 122.33 53.1176Z" fill="#272727"/>
<path d="M117.046 59.9157C123.771 60.671 125.092 58.8665 128.935 56.5167V62.5595L126.293 68.0984C121.97 68.0984 118.967 66.9654 117.046 59.9157Z" fill="#272727"/>
<path d="M141.07 53.7469C140.414 62.5964 140.366 72.6906 140.366 72.6906L153.581 63.2878C153.581 63.2878 146.711 61.4903 141.07 53.7469Z" fill="#272727"/>
<path d="M133.625 56.5864C132.969 65.4362 132.92 75.5301 132.92 75.5301L142.047 67.413C142.047 67.413 139.265 64.3298 133.625 56.5864Z" fill="#272727"/>
<path d="M149.454 50.9774C148.798 59.8271 148.749 69.921 148.749 69.921L161.965 60.5184C161.965 60.5184 155.094 58.7207 149.454 50.9774Z" fill="#272727"/>
<path d="M121.634 65.2894C121.884 62.3083 125.646 61.1606 127.517 63.4946C128.042 64.1495 128.299 64.9789 128.236 65.8158L125.626 100.253C125.591 100.72 125.201 101.081 124.732 101.081C124.308 101.081 123.942 100.784 123.855 100.369L120.461 84.1928C120.267 83.2675 120.208 82.319 120.287 81.3769L121.634 65.2894Z" fill="#272727"/>
<path d="M163.344 108.039L167.058 109.734L166.578 110.773C166.367 111.232 166.189 111.636 166.02 112.042C165.541 113.196 165.194 114.239 164.998 115.19C164.706 116.607 164.788 117.645 165.192 118.255C165.657 118.957 166.752 119.417 168.83 119.434L168.946 119.434V123.517C165.544 123.517 163.119 122.518 161.788 120.51C160.673 118.826 160.508 116.745 160.999 114.365C161.255 113.125 161.679 111.85 162.25 110.476C162.392 110.134 162.538 109.797 162.7 109.439L162.98 108.826L163.344 108.039Z" fill="#EBBAAA"/>
</svg>
