<svg width="300" height="400" viewBox="0 0 300 400" fill="none" xmlns="http://www.w3.org/2000/svg">
<path d="M164.335 273.248C181.569 273.248 195.54 267.014 195.54 259.325C195.54 251.635 181.569 245.401 164.335 245.401C147.1 245.401 133.129 251.635 133.129 259.325C133.129 267.014 147.1 273.248 164.335 273.248Z" fill="#363636"/>
<path d="M183.778 295.062C187.756 294.764 191.227 297.713 191.589 301.671L191.599 301.791L195.457 353.161C195.758 357.179 192.746 360.681 188.728 360.982C184.75 361.281 181.279 358.331 180.917 354.374L180.907 354.254L177.049 302.884C176.748 298.866 179.76 295.364 183.778 295.062Z" fill="#EBBAAA"/>
<path d="M151.672 294.915C155.661 294.938 158.884 298.158 158.925 302.131L158.925 302.252L158.627 353.75C158.604 357.779 155.319 361.026 151.29 361.003C147.301 360.98 144.078 357.76 144.037 353.786L144.036 353.665L144.335 302.168C144.358 298.139 147.643 294.891 151.672 294.915Z" fill="#EBBAAA"/>
<path d="M129.473 233.745H165.95L163.248 332.065L162.438 341.66L141.767 340.547L134.162 318.215L129.473 233.745Z" fill="#363636"/>
<path d="M165.603 235.42H206.088L202.237 322.832L197.834 339.712L176.623 341.52L175.408 333.595L165.603 235.42Z" fill="#363636"/>
<path opacity="0.2" fill-rule="evenodd" clip-rule="evenodd" d="M132.787 270.221L139.937 250.193L144.134 251.752L136.984 270.221H132.787Z" fill="white"/>
<path opacity="0.2" fill-rule="evenodd" clip-rule="evenodd" d="M203.542 270.221L196.392 250.193L192.195 251.752L199.344 270.221H203.542Z" fill="white"/>
<path d="M113.667 368.122C113.667 356.447 123.13 346.985 134.805 346.985H137.974H140.69C140.69 346.985 140.408 351.697 149.557 351.697C158.705 351.697 159.972 346.985 159.972 346.985H161.126C161.765 346.985 162.282 347.502 162.282 348.14V366.797C162.282 368.395 160.988 369.687 159.392 369.687H115.232C114.368 369.687 113.667 368.987 113.667 368.122Z" fill="#3B3F45"/>
<mask id="mask0_0_3541" style="mask-type:luminance" maskUnits="userSpaceOnUse" x="113" y="346" width="50" height="24">
<path fill-rule="evenodd" clip-rule="evenodd" d="M113.667 368.122C113.667 356.447 123.13 346.985 134.805 346.985H137.974H144.051H150.128H156.205H162.282V366.797C162.282 368.395 160.988 369.687 159.392 369.687H115.232C114.368 369.687 113.667 368.987 113.667 368.122Z" fill="white"/>
</mask>
<g mask="url(#mask0_0_3541)">
<path d="M119.305 355.362C115.66 353.3 117.089 357.385 113.814 359.117L106.879 372.41H162.074C163.423 370.485 168.295 360.495 164.416 359.117C157.291 356.59 144.735 365.33 139.534 365.042C134.332 364.752 119.442 366.92 120.316 362.297C121.328 356.95 122.628 357.24 119.305 355.362Z" fill="#555D65"/>
<path d="M140.138 358.085C138.448 358.555 137.086 358.492 136.314 357.892C134.326 356.33 135.599 353.947 136.139 353.015C135.167 354.157 134.201 355.302 133.447 356.555C132.258 358.507 131.754 360.65 132.556 362.025C133.993 364.505 137.449 363.36 139.651 362.362L160.088 353.107L140.138 358.085Z" fill="#7F8389"/>
</g>
<path d="M133.494 346.172C133.772 345.802 134.288 345.717 134.668 345.97L135.871 346.828C135.956 346.889 136.03 346.943 136.088 346.986L136.12 347.01C137.673 348.175 138.522 349.235 138.522 350.592C138.522 351.152 138.002 351.561 137.464 351.438L137.419 351.426L130.905 349.582L133.046 353.025C133.465 353.7 132.832 354.528 132.081 354.319L132.039 354.306L125.705 352.229L127.961 355.441C128.227 355.82 128.148 356.337 127.79 356.62L127.75 356.649C127.372 356.915 126.855 356.836 126.572 356.478L126.543 356.438L122.786 351.091C122.315 350.42 122.949 349.541 123.723 349.756L123.765 349.769L130.314 351.916L128.25 348.595C127.839 347.935 128.437 347.118 129.18 347.292L129.222 347.303L136.064 349.241L136.052 349.228C135.815 348.987 135.521 348.733 135.169 348.465L135.08 348.397C134.807 348.193 133.844 347.519 133.667 347.386C133.284 347.098 133.207 346.555 133.494 346.172Z" fill="#7F8389"/>
<path fill-rule="evenodd" clip-rule="evenodd" d="M130.026 340.173C130.635 339.341 131.516 338.89 132.598 338.89C134.82 338.89 136.5 340.8 136.5 343.367L136.501 343.678L136.517 344.632C136.519 344.786 136.52 344.902 136.52 345.015L136.518 345.311C136.509 345.784 136.474 346.13 136.398 346.42C136.297 346.806 136.121 347.084 135.856 347.26C135.57 347.456 135.168 347.554 134.621 347.554C133.474 347.554 132.105 347.128 131.038 346.42C129.836 345.621 129.131 344.553 129.131 343.367C129.131 342.083 129.443 340.966 130.026 340.173ZM134.766 343.367C134.766 341.711 133.809 340.624 132.598 340.624C132.071 340.624 131.708 340.81 131.424 341.198C131.076 341.671 130.865 342.429 130.865 343.367C130.865 343.904 131.24 344.472 131.998 344.975C132.784 345.497 133.821 345.82 134.621 345.82C134.658 345.82 134.692 345.82 134.723 345.818L134.751 345.817L134.754 345.796C134.772 345.647 134.783 345.445 134.786 345.177L134.786 345.095C134.787 345.029 134.786 344.965 134.786 344.894L134.767 343.692L134.766 343.367Z" fill="#7F8389"/>
<path fill-rule="evenodd" clip-rule="evenodd" d="M136.274 345.534L136.59 344.853L136.788 344.418C137.572 342.751 139.255 342.015 140.737 342.676C141.471 343.003 141.934 343.571 142.099 344.313C142.258 345.022 142.137 345.864 141.753 346.725C141.4 347.517 140.604 348.02 139.549 348.193C138.614 348.347 137.558 348.219 136.776 347.871C136.397 347.702 136.146 347.509 136.011 347.275L136.012 347.274L135.999 347.251C135.974 347.209 135.963 347.183 135.943 347.126L135.932 347.096C135.918 347.041 135.913 347.021 135.909 347.005L135.9 346.947C135.884 346.832 135.888 346.71 135.91 346.574C135.95 346.326 136.048 346.043 136.221 345.652C136.239 345.611 136.255 345.574 136.274 345.534ZM137.827 346.307L137.787 346.397C138.203 346.515 138.715 346.557 139.176 346.495L139.268 346.482C139.796 346.395 140.083 346.214 140.17 346.02C140.41 345.479 140.478 345.008 140.407 344.691C140.361 344.483 140.263 344.363 140.031 344.259C139.443 343.997 138.73 344.317 138.336 345.203L138.281 345.325L137.827 346.307Z" fill="#7F8389"/>
<path d="M224.032 367.997C224.032 356.322 214.569 346.86 202.894 346.86H199.725H197.009C197.009 346.86 197.291 351.572 188.142 351.572C178.994 351.572 177.727 346.86 177.727 346.86H176.573C175.934 346.86 175.417 347.377 175.417 348.015V366.672C175.417 368.27 176.711 369.562 178.307 369.562H222.467C223.331 369.562 224.032 368.862 224.032 367.997Z" fill="#3B3F45"/>
<mask id="mask1_0_3541" style="mask-type:luminance" maskUnits="userSpaceOnUse" x="175" y="346" width="50" height="24">
<path fill-rule="evenodd" clip-rule="evenodd" d="M224.032 367.997C224.032 356.322 214.569 346.86 202.894 346.86H199.725H193.648H187.571H181.494H175.417V366.672C175.417 368.27 176.711 369.562 178.307 369.562H222.467C223.331 369.562 224.032 368.862 224.032 367.997Z" fill="white"/>
</mask>
<g mask="url(#mask1_0_3541)">
<path d="M218.394 355.237C222.039 353.175 220.609 357.26 223.884 358.992L230.82 372.285H175.625C174.276 370.36 169.403 360.37 173.282 358.992C180.407 356.465 192.964 365.205 198.165 364.917C203.367 364.627 218.257 366.795 217.382 362.172C216.371 356.825 215.071 357.115 218.394 355.237Z" fill="#555D65"/>
<path d="M197.117 358.085C198.807 358.555 200.169 358.492 200.941 357.892C202.929 356.33 201.656 353.947 201.116 353.015C202.088 354.157 203.054 355.302 203.808 356.555C204.997 358.507 205.501 360.65 204.699 362.025C203.261 364.505 199.806 363.36 197.604 362.362L177.167 353.107L197.117 358.085Z" fill="#7F8389"/>
</g>
<path d="M202.991 345.874C203.374 345.587 203.917 345.664 204.205 346.047C204.492 346.43 204.415 346.973 204.032 347.261L203.912 347.348C203.607 347.567 202.914 348.054 202.65 348.249L202.619 348.272C202.266 348.537 201.969 348.786 201.726 349.024L201.634 349.116L208.476 347.178C209.225 346.966 209.844 347.767 209.471 348.433L209.449 348.47L207.384 351.791L213.933 349.644C214.712 349.388 215.368 350.251 214.937 350.929L214.913 350.966L211.156 356.313C210.881 356.705 210.34 356.799 209.948 356.524C209.57 356.258 209.469 355.745 209.71 355.357L209.737 355.316L211.994 352.104L205.66 354.181C204.904 354.429 204.25 353.617 204.631 352.937L204.653 352.9L206.794 349.457L200.28 351.301C199.741 351.454 199.206 351.065 199.178 350.514L199.177 350.467C199.177 349.139 199.99 348.094 201.482 346.958L201.647 346.834C202.006 346.571 202.854 345.977 202.991 345.874Z" fill="#7F8389"/>
<path fill-rule="evenodd" clip-rule="evenodd" d="M201.2 343.153C201.238 340.63 202.905 338.765 205.101 338.765C206.183 338.765 207.064 339.216 207.672 340.046C208.256 340.841 208.568 341.958 208.568 343.242C208.568 344.428 207.863 345.496 206.66 346.294C205.594 347.003 204.225 347.429 203.078 347.429C202.531 347.429 202.129 347.331 201.853 347.142C201.578 346.959 201.402 346.681 201.301 346.295C201.225 346.005 201.19 345.659 201.181 345.186L201.178 344.932C201.178 344.862 201.179 344.792 201.179 344.715L201.188 344.182L201.188 344.156C201.193 343.887 201.196 343.698 201.198 343.525L201.2 343.153ZM206.274 341.072C205.991 340.685 205.628 340.499 205.101 340.499C203.889 340.499 202.933 341.586 202.933 343.242C202.933 343.395 202.932 343.533 202.93 343.693L202.922 344.172L202.922 344.199C202.917 344.439 202.914 344.601 202.913 344.736L202.913 345.052C202.916 345.32 202.926 345.522 202.945 345.671L202.948 345.692L202.975 345.693L203.078 345.695C203.878 345.695 204.915 345.372 205.701 344.85C206.459 344.347 206.834 343.779 206.834 343.242C206.834 342.304 206.622 341.546 206.274 341.072Z" fill="#7F8389"/>
<path fill-rule="evenodd" clip-rule="evenodd" d="M196.962 342.55C196.228 342.878 195.765 343.446 195.599 344.188C195.441 344.897 195.562 345.739 195.946 346.6C196.299 347.392 197.095 347.895 198.151 348.068C199.084 348.222 200.141 348.094 200.922 347.747L200.996 347.713C201.165 347.632 201.307 347.546 201.422 347.452L201.459 347.42L201.465 347.417C201.477 347.407 201.487 347.397 201.498 347.385L201.514 347.371C201.585 347.301 201.643 347.227 201.688 347.149L201.684 347.147L201.704 347.122L201.769 346.953C201.79 346.895 201.792 346.883 201.795 346.85L201.801 346.808C201.814 346.699 201.811 346.582 201.789 346.447C201.752 346.218 201.664 345.958 201.514 345.61L201.411 345.377C201.371 345.289 201.321 345.182 201.23 344.988L201.217 344.962L200.985 344.456L200.947 344.372C200.179 342.649 198.467 341.88 196.962 342.55ZM199.363 345.078L199.488 345.353C199.527 345.437 199.577 345.546 199.656 345.715L199.669 345.743L199.858 346.151L199.911 346.272C199.469 346.398 198.916 346.437 198.432 346.357C197.903 346.27 197.616 346.089 197.529 345.895C197.289 345.354 197.221 344.883 197.291 344.567C197.338 344.358 197.436 344.238 197.669 344.134C198.256 343.872 198.969 344.193 199.363 345.078ZM200.418 346.15L200.936 345.85C200.508 345.963 200.442 345.98 200.384 346.04L200.351 346.078L200.418 346.15Z" fill="#7F8389"/>
<path d="M211.006 171.714C214.759 169.255 219.795 170.304 222.255 174.057C227.335 181.811 230.385 193.944 231.606 208.256C232.658 220.601 232.182 233.536 230.365 242.241C229.448 246.633 225.144 249.451 220.752 248.534C216.403 247.627 213.598 243.399 214.431 239.053L214.458 238.921C215.922 231.904 216.342 220.513 215.414 209.637C214.413 197.896 211.983 188.153 208.76 183.114L208.662 182.963C206.203 179.209 207.252 174.173 211.006 171.714Z" fill="#EBBAAA"/>
<path d="M76.4079 129.82C80.7768 129.015 84.9727 131.867 85.845 136.206L85.8704 136.338L91.4753 166.765L152.344 158.897C156.75 158.327 160.787 161.4 161.425 165.78L161.443 165.913C162.013 170.319 158.94 174.356 154.56 174.994L154.427 175.013L85.9215 183.868C81.6818 184.416 77.751 181.586 76.9137 177.409L76.8893 177.282L69.8893 139.282C69.0764 134.869 71.9948 130.633 76.4079 129.82Z" fill="#EBBAAA"/>
<path d="M146.197 143.698C159.885 141.709 165.199 154.612 164.976 168.442C164.768 181.339 153.761 191.41 140.897 190.475L106.706 187.989L97.2684 151.964L146.197 143.698Z" fill="#F2D957"/>
<path d="M210.732 149.634C201.576 139.267 185.313 139.563 176.541 150.258C168.36 160.231 170.245 175.03 180.663 182.634L208.353 202.846L238.845 181.467L210.732 149.634Z" fill="#F2D957"/>
<path d="M129.728 168.409C130.554 153.45 142.55 141.674 157.232 141.413L176.735 141.065C192.091 140.792 204.805 153.176 205.25 168.84L206.376 208.462L206.858 258.531C206.858 258.531 181.144 260.061 166.644 260.061C152.144 260.061 126.861 258.531 126.861 258.531L127.443 209.854L129.728 168.409Z" fill="#F2D957"/>
<path d="M166.566 171.972C176.332 171.802 184.112 163.746 183.941 153.979C183.771 144.213 175.715 136.433 165.948 136.604C156.182 136.774 148.402 144.83 148.573 154.597C148.743 164.363 156.799 172.143 166.566 171.972Z" fill="#F6E68B"/>
<rect x="137.48" y="198.192" width="60.7082" height="41.6095" fill="white"/>
<rect x="137.48" y="209.092" width="60.7082" height="24.6535" fill="#67A447"/>
<path fill-rule="evenodd" clip-rule="evenodd" d="M152.088 227.428H148.811L148.062 224.665H144.227L143.478 227.428H140.306L144.332 215.408H148.062L152.088 227.428ZM145.099 221.418L144.82 222.436H147.469L147.191 221.418C147.007 220.788 146.828 220.09 146.649 219.391C146.488 218.765 146.327 218.137 146.162 217.557H146.092L146.069 217.651C145.761 218.887 145.422 220.252 145.099 221.418Z" fill="#14270B"/>
<path fill-rule="evenodd" clip-rule="evenodd" d="M161.851 221.354C161.851 225.49 159.986 227.654 157.25 227.654C154.513 227.654 152.666 225.49 152.666 221.354C152.666 217.218 154.513 215.182 157.25 215.182C159.986 215.182 161.851 217.25 161.851 221.354ZM155.594 221.354C155.594 224.65 156.326 225.425 157.25 225.425C158.173 225.425 158.923 224.65 158.923 221.354C158.923 218.074 158.173 217.396 157.25 217.396C156.326 217.396 155.594 218.074 155.594 221.354Z" fill="#14270B"/>
<path d="M163.304 227.428H172.297V225.005H169.909C169.334 225.005 168.445 225.086 167.8 225.166C169.787 223.309 171.705 221.031 171.705 218.963C171.705 216.669 169.962 215.182 167.452 215.182C165.604 215.182 164.419 215.796 163.147 217.04L164.838 218.591C165.448 217.977 166.145 217.428 167.034 217.428C168.062 217.428 168.724 218.026 168.724 219.124C168.724 220.869 166.546 223.05 163.304 225.78V227.428Z" fill="#14270B"/>
<path fill-rule="evenodd" clip-rule="evenodd" d="M179.154 215.182C180.862 215.182 182.117 215.845 182.936 216.62L181.297 218.316C180.879 217.896 180.077 217.476 179.363 217.476C178.021 217.476 176.957 218.365 176.835 220.982C177.48 220.223 178.578 219.803 179.31 219.803C181.472 219.803 183.11 220.966 183.11 223.583C183.11 226.136 181.158 227.654 178.84 227.654C176.4 227.654 173.995 225.893 173.995 221.515C173.995 217.169 176.469 215.182 179.154 215.182ZM176.888 222.905C177.149 224.908 177.951 225.506 178.77 225.506C179.589 225.506 180.269 224.941 180.269 223.583C180.269 222.259 179.572 221.822 178.718 221.822C178.073 221.822 177.41 222.113 176.888 222.905Z" fill="#14270B"/>
<path d="M188.676 227.654C191.256 227.654 193.469 226.394 193.469 224.149C193.469 222.598 192.406 221.628 190.959 221.224V221.144C192.354 220.627 193.051 219.69 193.051 218.494C193.051 216.345 191.29 215.182 188.606 215.182C187.073 215.182 185.783 215.732 184.58 216.669L186.149 218.43C186.933 217.799 187.596 217.428 188.467 217.428C189.426 217.428 189.948 217.88 189.948 218.704C189.948 219.657 189.251 220.287 187.038 220.287V222.307C189.757 222.307 190.349 222.921 190.349 223.955C190.349 224.859 189.565 225.328 188.362 225.328C187.352 225.328 186.445 224.859 185.661 224.165L184.232 225.974C185.173 226.992 186.619 227.654 188.676 227.654Z" fill="#14270B"/>
<path fill-rule="evenodd" clip-rule="evenodd" d="M189.621 142.398L167.392 205.653L142.659 144.045L148.411 142.789L167.507 188.614L184.25 141.544L189.621 142.398Z" fill="white"/>
<mask id="mask2_0_3541" style="mask-type:luminance" maskUnits="userSpaceOnUse" x="142" y="141" width="48" height="65">
<path fill-rule="evenodd" clip-rule="evenodd" d="M189.621 142.398L167.392 205.653L142.659 144.045L148.411 142.789L167.507 188.614L184.25 141.544L189.621 142.398Z" fill="white"/>
</mask>
<g mask="url(#mask2_0_3541)">
<rect opacity="0.5" x="154.329" y="172.281" width="24.8785" height="18.8921" fill="#F2D957"/>
<rect x="153.386" y="177.362" width="24.8785" height="18.8921" fill="#86DB5B"/>
<rect x="153.386" y="182.076" width="24.8785" height="18.8921" fill="#2A89E0"/>
</g>
<path fill-rule="evenodd" clip-rule="evenodd" d="M167.125 213C173.821 213 179.25 207.571 179.25 200.875C179.25 194.179 173.821 188.75 167.125 188.75C160.429 188.75 155 194.179 155 200.875C155 207.571 160.429 213 167.125 213Z" fill="#F2D957"/>
<path fill-rule="evenodd" clip-rule="evenodd" d="M154.04 200.968C154.04 193.838 159.82 188.058 166.95 188.058C174.08 188.058 179.859 193.838 179.859 200.968C179.859 208.098 174.08 213.878 166.95 213.878C159.82 213.878 154.04 208.098 154.04 200.968ZM178.359 200.968C178.359 194.667 173.251 189.558 166.95 189.558C160.648 189.558 155.54 194.667 155.54 200.968C155.54 207.27 160.648 212.378 166.95 212.378C173.251 212.378 178.359 207.27 178.359 200.968Z" fill="#A4A800"/>
<mask id="mask3_0_3541" style="mask-type:luminance" maskUnits="userSpaceOnUse" x="156" y="190" width="22" height="22">
<path fill-rule="evenodd" clip-rule="evenodd" d="M166.959 211.748C172.846 211.748 177.619 206.975 177.619 201.088C177.619 195.201 172.846 190.428 166.959 190.428C161.072 190.428 156.299 195.201 156.299 201.088C156.299 206.975 161.072 211.748 166.959 211.748Z" fill="white"/>
</mask>
<g mask="url(#mask3_0_3541)">
<path d="M164.174 188.103H175.741L165.741 214.073H154.174L164.174 188.103Z" fill="#F2D957"/>
</g>
<path fill-rule="evenodd" clip-rule="evenodd" d="M170.259 195.87C170.657 195.87 171.039 195.712 171.32 195.431C171.601 195.15 171.759 194.768 171.759 194.37C171.759 193.972 171.601 193.591 171.32 193.309C171.039 193.028 170.657 192.87 170.259 192.87C169.861 192.87 169.48 193.028 169.199 193.309C168.917 193.591 168.759 193.972 168.759 194.37C168.759 194.768 168.917 195.15 169.199 195.431C169.48 195.712 169.861 195.87 170.259 195.87ZM167.585 206.617L168.346 203.253L169.944 204.782V209.37H171.465V203.635L169.868 202.106L170.324 199.811C170.845 200.412 171.489 200.893 172.211 201.223C172.932 201.553 173.716 201.723 174.509 201.723V200.194C173.17 200.217 171.922 199.513 171.237 198.358L170.476 197.135C170.202 196.676 169.715 196.37 169.183 196.37C169.069 196.37 168.974 196.389 168.879 196.408C168.783 196.427 168.688 196.447 168.574 196.447L164.618 198.129V201.723H166.14V199.123L167.509 198.588L166.292 204.782L162.563 204.017L162.259 205.547L167.585 206.617ZM160.229 198.4C160.369 198.541 160.56 198.62 160.759 198.62H163.009V197.12H160.759C160.56 197.12 160.369 197.199 160.229 197.34C160.088 197.48 160.009 197.671 160.009 197.87C160.009 198.069 160.088 198.26 160.229 198.4ZM161.509 195.62C161.31 195.62 161.119 195.541 160.979 195.401C160.838 195.26 160.759 195.069 160.759 194.87C160.759 194.671 160.838 194.48 160.979 194.34C161.119 194.199 161.31 194.12 161.509 194.12H165.259V195.62H161.509ZM159.479 201.4C159.619 201.541 159.81 201.62 160.009 201.62H163.009V200.12H160.009C159.81 200.12 159.619 200.199 159.479 200.34C159.338 200.481 159.259 200.671 159.259 200.87C159.259 201.069 159.338 201.26 159.479 201.4Z" fill="#B79A00"/>
<rect x="61.2825" y="123.978" width="22.2033" height="23.862" rx="8.25" transform="rotate(-10.4302 61.2825 123.978)" fill="#EBBAAA"/>
<rect x="74.0767" y="114.755" width="7.9622" height="19.6383" rx="3.9811" transform="rotate(-10.4469 74.0767 114.755)" fill="#EBBAAA"/>
<path d="M224.277 225.045L215.168 227.525L215.168 230.232H222.2L232.157 235.42L233.072 229.729L224.277 225.045Z" fill="black"/>
<path d="M223.25 229.419L224.314 226.25L232.822 230.721L232.407 234.219L223.25 229.419Z" fill="white" fill-opacity="0.3"/>
<rect x="154.329" y="133.372" width="23.498" height="30.7078" rx="11.749" transform="rotate(-1 154.329 133.372)" fill="#EBBAAA"/>
<path d="M197.891 112.207C205.495 112.207 210.996 103.502 211.659 97.0502C212.323 90.5984 205.495 84.0817 197.891 84.0817C190.288 84.0817 184.124 89.8879 184.124 97.0502C184.124 104.212 190.288 112.207 197.891 112.207Z" fill="#EBBAAA"/>
<path d="M136.268 113.944C128.664 113.944 123.163 105.239 122.5 98.7876C121.836 92.3358 128.664 85.8191 136.268 85.8191C143.871 85.8191 150.035 91.6253 150.035 98.7876C150.035 105.95 143.871 113.944 136.268 113.944Z" fill="#EBBAAA"/>
<path d="M129.676 77.2639C129.676 54.8611 146.545 36.7 167.354 36.7C188.163 36.7 205.032 54.8611 205.032 77.2639L202.481 108.623C200.363 122.329 195.443 133.703 186.61 139.266C182.859 141.628 183.388 142.943 178.14 142.943H156.286C149.465 142.943 149.335 140.43 145.073 136.329C138.334 129.845 134.432 119.392 132.226 108.623L129.676 77.2639Z" fill="#F4D4C9"/>
<path d="M197.031 66.8374L194.654 46.8893C194.295 43.8749 191.258 43.1061 199.827 49.4223C208.396 55.7386 207.266 75.8926 205.069 84.7864L203.424 96.0371L202.872 94.7069L202.004 81.7274C197.687 77.3814 197.791 73.2209 197.031 66.8374Z" fill="#FFF03D"/>
<path d="M135.074 68.6414C135.428 62.2231 134.705 62.5536 134.941 58.2746C135.108 55.2439 135.132 54.4761 132.073 61.6036C129.014 68.7311 128.88 77.7104 129.516 86.3291L130.271 94.2726L131.478 94.3391L132.023 84.4584C134.156 77.6116 134.721 75.0596 135.074 68.6414Z" fill="#FFF03D"/>
<path fill-rule="evenodd" clip-rule="evenodd" d="M168.79 32.0737L168.79 32.0735C168.773 32.0735 168.756 32.0735 168.738 32.0735C168.721 32.0735 168.704 32.0735 168.687 32.0735L168.687 32.0737C157.687 32.1137 131.351 38.53 130.361 68.5576C133.286 64.8589 132.687 65.1396 136.699 62.7259C139.926 60.7841 141.404 57.6289 150.029 55.5706C158.655 53.5122 163.033 56.0606 168.687 56.0606C173.097 56.0606 178.258 54.1984 184.433 56.0606C190.608 57.9229 195.1 61.2849 197.96 62.7259C203.786 65.6614 200.605 64.1824 206.3 68.5579C205.31 38.5301 179.789 32.1137 168.79 32.0737Z" fill="#FFF03D"/>
<path d="M140.589 81.9452L147.32 79.1653L162.331 83.9483C163.611 84.3561 164.318 85.724 163.91 87.0036C163.509 88.2612 162.181 88.9656 160.921 88.6025L160.855 88.5824L147.535 84.3384L142.445 86.4405C141.226 86.9442 139.832 86.3829 139.297 85.1859L139.269 85.1211C138.766 83.9016 139.327 82.5077 140.524 81.973L140.589 81.9452Z" fill="#393939"/>
<path d="M172.252 83.9483L187.263 79.1653L193.994 81.9452C195.236 82.4579 195.826 83.8798 195.314 85.1211C194.81 86.3407 193.429 86.9323 192.203 86.4665L192.138 86.4405L187.048 84.3384L173.728 88.5824C172.471 88.9831 171.128 88.3073 170.695 87.0693L170.673 87.0036C170.272 85.746 170.948 84.4032 172.186 83.9703L172.252 83.9483Z" fill="#393939"/>
<path d="M164.659 90.6855L169.115 91.7997L165.506 106.236C165.164 107.605 166.178 108.932 167.578 108.972L167.644 108.973H171.895V113.567H167.644C163.266 113.567 160.042 109.494 161.019 105.25L161.05 105.122L164.659 90.6855Z" fill="#EBBAAA"/>
<path d="M145.318 93.2405L145.348 93.2302C148.98 92.0035 152.593 91.988 157.175 93.9555C157.977 94.2999 158.348 95.2292 158.004 96.0312C157.659 96.8332 156.73 97.2042 155.928 96.8598C152.167 95.2448 149.375 95.2336 146.485 96.1829L146.325 96.2368C146.058 96.3318 144.676 96.841 144.307 96.937C143.462 97.157 142.599 96.6506 142.379 95.806C142.164 94.9801 142.644 94.1367 143.455 93.8939L143.51 93.8783C143.713 93.8255 144.985 93.3556 145.318 93.2405Z" fill="#393939"/>
<path d="M176.54 94.4555C181.066 92.512 184.647 92.5035 188.234 93.6859L188.367 93.7302C188.634 93.8206 189.909 94.2919 190.181 94.3717L190.205 94.3783C191.049 94.5983 191.556 95.4613 191.336 96.3059C191.116 97.1506 190.253 97.657 189.408 97.437L189.335 97.4167C188.858 97.2761 187.488 96.7696 187.355 96.7248C184.421 95.7336 181.602 95.7214 177.787 97.3598C176.985 97.7042 176.056 97.3332 175.711 96.5312C175.367 95.7292 175.738 94.7999 176.54 94.4555Z" fill="#393939"/>
<path d="M138.135 42.0722L136.13 50.4163L166.577 44.4897L201.893 53.1023L201.624 46.1431L199.087 45.2017L198.926 42.5354L195.781 42.7254L195.532 38.6047L191.488 38.849L190.399 35.7522L186.805 35.9693L184.48 32.9472L180.832 34.1407L179.592 32.2694L175.773 32.5001L175.641 30.3186L170.606 32.8123L169.127 30.7122L167.012 33.0294L164.634 30.9836L160.497 33.423L157.67 31.4043L154.881 33.7623L152.859 33.8844L150.73 35.9593L149.714 34.0744L146.144 38.4258L143.615 37.6055L140.643 42.5289L138.135 42.0722Z" fill="#FFF03D"/>
<path fill-rule="evenodd" clip-rule="evenodd" d="M153.386 117.611V122.561C153.386 130.181 159.563 136.356 167.181 136.356C174.801 136.356 180.976 130.181 180.976 122.561V117.611H153.386Z" fill="#393939"/>
<mask id="mask4_0_3541" style="mask-type:luminance" maskUnits="userSpaceOnUse" x="153" y="117" width="28" height="20">
<path fill-rule="evenodd" clip-rule="evenodd" d="M153.408 117.606C153.393 117.861 153.386 118.118 153.386 118.376V123.197C153.386 130.466 159.563 136.356 167.181 136.356C174.801 136.356 180.976 130.466 180.976 123.197V118.376C180.976 118.118 180.968 117.861 180.953 117.606H153.408Z" fill="white"/>
</mask>
<g mask="url(#mask4_0_3541)">
<path d="M167.181 140.779C171.775 140.779 175.5 138.752 175.5 136.251C175.5 133.75 171.775 131.723 167.181 131.723C162.586 131.723 158.861 133.75 158.861 136.251C158.861 138.752 162.586 140.779 167.181 140.779Z" fill="#FF6C6C"/>
</g>
<rect x="153.386" y="117.611" width="27.5907" height="5.68665" fill="white"/>
</svg>
