<svg width="300" height="400" viewBox="0 0 300 400" fill="none" xmlns="http://www.w3.org/2000/svg">
<path d="M137.111 261.219C149.335 261.219 159.244 256.525 159.244 250.734C159.244 244.944 149.335 240.25 137.111 240.25C124.886 240.25 114.977 244.944 114.977 250.734C114.977 256.525 124.886 261.219 137.111 261.219Z" fill="#092978"/>
<path d="M150.904 245.426C155.501 244.475 159.998 247.432 160.949 252.029C162.511 259.584 163.267 277.632 163.213 299.657L163.211 300.326C163.144 321.46 162.324 341.326 161.039 350.326C160.376 354.974 156.071 358.203 151.423 357.54C146.776 356.876 143.547 352.571 144.21 347.924C146.741 330.197 146.959 269.577 144.38 255.872L144.301 255.471C143.35 250.874 146.306 246.377 150.904 245.426Z" fill="#F8CCBE"/>
<path d="M113.082 250.827C114.032 246.23 118.529 243.274 123.127 244.224C127.678 245.165 130.621 249.583 129.757 254.132L129.729 254.269C127.093 267.018 127.26 327.786 129.744 346.373L129.82 346.924C130.484 351.571 127.254 355.876 122.607 356.54C117.96 357.203 113.654 353.974 112.991 349.326C111.706 340.327 110.887 320.415 110.819 299.225L110.816 297.887C110.778 276.108 111.535 258.306 113.082 250.827Z" fill="#F8CCBE"/>
<path d="M102.706 243L139.75 247.962L135.144 285.16C135.144 285.16 128.193 290.17 115.64 289.79C103.086 289.41 96.9998 281.8 96.9998 281.8L102.706 243Z" fill="#092978"/>
<mask id="mask0_0_3641" style="mask-type:luminance" maskUnits="userSpaceOnUse" x="96" y="243" width="44" height="47">
<path fill-rule="evenodd" clip-rule="evenodd" d="M102.706 243L140 248.837L135.144 285.16C135.144 285.16 128.193 290.17 115.64 289.79C103.086 289.41 96.9998 281.8 96.9998 281.8L102.706 243Z" fill="white"/>
</mask>
<g mask="url(#mask0_0_3641)">
<path d="M116 282.212C107.3 281.912 97.9581 278.42 96.4998 276.337L93.2498 282.212C97.2081 285.045 106.6 291.037 112.5 292.337C118.4 293.637 130.875 288.962 136.375 286.462V280.587C132.042 281.629 124.7 282.512 116 282.212Z" fill="white"/>
<path fill-rule="evenodd" clip-rule="evenodd" d="M102.224 255.258L102.624 268.52L115.362 272.237L102.757 276.757L102.13 286.455L95.2913 279.435L82.6644 283.964L90.1353 272.999L82.016 262.506L94.7526 266.222L102.224 255.258ZM99.051 266.13L96.2135 270.294L91.3757 268.883L94.4599 272.868L91.6222 277.032L96.2281 275.381L99.145 278.375L99.4125 274.238L104.04 272.578L99.2032 271.167L99.051 266.13Z" fill="white"/>
<path fill-rule="evenodd" clip-rule="evenodd" d="M95.8745 277.408L87.2583 280.498L92.4126 272.933L86.8109 265.694L95.5978 268.258L100.752 260.694L101.029 269.843L109.816 272.408L101.2 275.498L100.752 282.414L95.8745 277.408ZM98.9392 266.907L96.4327 270.586L92.1594 269.338L94.8837 272.859L92.3772 276.538L96.4098 275.092L99.0469 277.798L99.2887 274.059L103.346 272.603L100.468 271.763L99.0737 271.356L98.9392 266.907Z" fill="black"/>
<path d="M116.25 284.462C106.375 284.087 99.0414 279.962 96.4998 277.712C95.7498 277.504 94.5748 277.687 95.8748 280.087C97.4998 283.087 108.625 287.212 116.25 287.212C122.39 287.212 132.417 285.462 136.875 284.087V281.462C134.042 282.462 125.943 284.83 116.25 284.462Z" fill="black"/>
</g>
<path d="M171.353 243.367L134.995 248.237L139.515 284.745C139.515 284.745 146.338 289.662 158.659 289.29C170.98 288.917 176.953 281.449 176.953 281.449L171.353 243.367Z" fill="#074099"/>
<mask id="mask1_0_3641" style="mask-type:luminance" maskUnits="userSpaceOnUse" x="134" y="243" width="43" height="47">
<path fill-rule="evenodd" clip-rule="evenodd" d="M171.353 243.367L134.75 249.096L139.516 284.745C139.516 284.745 146.338 289.662 158.659 289.29C170.98 288.917 176.953 281.449 176.953 281.449L171.353 243.367Z" fill="white"/>
</mask>
<g mask="url(#mask1_0_3641)">
<path d="M158.305 281.853C166.844 281.559 176.013 278.132 177.444 276.087L180.634 281.853C176.749 284.635 167.453 288.035 161.662 289.31C155.871 290.588 143.706 288.478 138.308 286.025V280.258C142.561 281.281 149.766 282.148 158.305 281.853Z" fill="white"/>
<path fill-rule="evenodd" clip-rule="evenodd" d="M171.796 255.297L179.171 266.122L191.745 262.452L183.73 272.812L191.105 283.637L178.638 279.165L171.89 286.093L171.271 276.523L158.826 272.059L171.4 268.39L171.796 255.297ZM174.969 266.17L174.822 271.038L170.147 272.401L174.615 274.004L174.874 278.013L177.701 275.111L182.147 276.706L179.406 272.682L182.385 268.83L177.711 270.194L174.969 266.17Z" fill="white"/>
<path fill-rule="evenodd" clip-rule="evenodd" d="M173.27 260.733L178.329 268.158L186.953 265.641L181.455 272.747L186.514 280.171L178.058 277.138L173.27 282.052L172.831 275.263L164.374 272.23L172.999 269.713L173.27 260.733ZM175.083 266.947L174.954 271.227L170.843 272.426L174.742 273.825L174.976 277.435L177.522 274.822L181.395 276.21L178.985 272.672L181.605 269.285L177.495 270.485L175.083 266.947Z" fill="black"/>
<path d="M158.06 284.06C167.752 283.693 174.95 279.644 177.445 277.436C178.181 277.232 179.334 277.412 178.058 279.767C176.463 282.713 165.544 286.76 158.06 286.76C152.034 286.76 142.193 285.043 137.817 283.693V281.117C140.598 282.098 148.547 284.423 158.06 284.06Z" fill="black"/>
</g>
<path d="M114.976 342.287C114.06 340.875 112.701 340.805 111.6 339.995C111.06 340.765 111.1 341.892 110.611 343.4L107.432 347.325L101.906 353.245L96.6388 356.1L99.8155 359.765C101.943 358.105 114.017 345.25 114.976 342.287Z" fill="#E6DBDB"/>
<path d="M133.643 361.687C133.643 361.687 133.762 355.267 132.365 351.725C130.969 348.182 129.482 339.027 129.482 339.027C129.482 339.027 127.082 341.645 122.57 341.685L114.068 341.76C114.068 341.76 106.665 352.092 104.489 353.48C102.314 354.865 89.9907 357.555 89.9907 357.555C87.65 357.577 85.769 359.49 85.7895 361.83L85.8083 363.987L111.511 363.762L133.643 361.687Z" fill="#F2EAEA"/>
<path d="M107.669 356.775C106.631 354.7 106.034 352.69 106.249 351.742L101.345 354.195L90.6322 357.68C90.6322 357.422 89.3157 357.602 87.6636 358.325C86.0116 359.047 85.7706 360.95 85.8566 361.81L109.734 362.712L112.574 362.585C111.154 361.937 109.089 359.615 107.669 356.775Z" fill="#D11137"/>
<path d="M123.028 352C120.034 352.725 113.779 349.462 111.025 347.742L113.994 341.805C116.876 341.805 123.106 341.727 124.965 341.417C126.823 341.107 128.75 339.74 129.481 339.095L130.256 343.095L131.288 348.127C129.783 349.117 126.022 351.277 123.028 352Z" fill="black"/>
<path d="M111.277 347.352C111.914 346.357 113.211 344.212 113.309 343.592C119.255 344.572 127.256 344.375 130.213 343.057C131.008 345.375 131.415 348.515 131.415 348.515C130.908 349.552 125.216 351.595 123.026 352C121.856 351.107 120.988 350.882 120.08 350.375C118.656 349.577 113.903 347.502 111.277 347.352Z" fill="#D11137"/>
<path d="M124.087 356.517C125.012 355.987 130.256 353.677 132.68 352.682C133.851 353.52 133.704 358.565 133.729 361.472L122.1 362.102C122.742 359.892 123.778 356.825 124.087 356.517Z" fill="#D11137"/>
<path d="M118.457 356.112C117.245 356.44 116.27 356.387 115.722 355.957C114.31 354.832 115.236 353.14 115.629 352.477C114.926 353.287 114.227 354.1 113.679 354.987C112.816 356.375 112.441 357.9 113.005 358.882C114.018 360.657 116.498 359.86 118.08 359.16L132.766 352.667L118.457 356.112Z" fill="black"/>
<path d="M96.5294 358.325C93.3062 358.74 89.1773 358.905 88.3939 357.88L93.672 356.285L100.618 353.512L102.432 354.402L102.181 355.177C102.181 355.177 104.314 357.552 104.185 358.582C104.056 359.615 102.968 360.132 101.732 359.745C100.496 359.357 99.8064 357.902 96.5294 358.325Z" fill="#F2EAEA"/>
<path d="M112.832 346.45C111.489 348.31 107.884 352.13 106.249 353.807L105.733 352C106.765 350.84 108.443 349.032 109.863 347.482C111.348 345.862 112.875 343.44 113.993 341.805H115.413C115.198 342.75 114.174 344.592 112.832 346.45Z" fill="#D11137"/>
<path d="M109.732 343.586C109.886 343.192 110.32 342.99 110.717 343.119L110.761 343.135L112.133 343.67C112.542 343.829 112.744 344.29 112.584 344.699C112.431 345.093 111.997 345.295 111.6 345.166L111.556 345.15L110.184 344.615C109.775 344.456 109.573 343.995 109.732 343.586Z" fill="#BF0328"/>
<path d="M107.687 345.929C107.841 345.535 108.275 345.333 108.672 345.462L108.716 345.477L110.088 346.012C110.497 346.172 110.699 346.632 110.539 347.041C110.386 347.435 109.952 347.637 109.555 347.508L109.511 347.493L108.139 346.958C107.73 346.798 107.528 346.338 107.687 345.929Z" fill="#BF0328"/>
<path d="M105.9 348.266C106.054 347.872 106.488 347.67 106.885 347.799L106.929 347.815L108.301 348.35C108.71 348.509 108.912 348.97 108.753 349.379C108.599 349.773 108.165 349.975 107.768 349.846L107.724 349.83L106.352 349.295C105.943 349.136 105.741 348.675 105.9 348.266Z" fill="#BF0328"/>
<path d="M103.856 350.609C104.01 350.215 104.444 350.013 104.841 350.142L104.885 350.157L106.257 350.692C106.666 350.852 106.868 351.312 106.708 351.721C106.555 352.115 106.121 352.317 105.724 352.188L105.68 352.173L104.308 351.638C103.899 351.478 103.697 351.018 103.856 350.609Z" fill="#BF0328"/>
<path d="M100.778 352.959C100.932 352.565 101.366 352.363 101.763 352.492L101.807 352.507L103.179 353.042C103.588 353.202 103.79 353.662 103.631 354.071C103.477 354.465 103.043 354.667 102.646 354.538L102.602 354.523L101.23 353.988C100.821 353.828 100.619 353.368 100.778 352.959Z" fill="#BF0328"/>
<path d="M133.954 361.417L109.764 362.722L85.6926 361.84L85.3343 365.045C85.2309 365.97 85.9422 366.785 86.8734 366.81L109.303 367.375L121.791 367.402L134.275 366.885L133.954 361.417Z" fill="#E7E5DD"/>
<path d="M85.3341 365.46C87.251 366.017 109.142 366.615 116.228 366.567L116.733 366.562C118.353 366.541 120.747 366.465 123.87 366.34L125.934 366.255L134.13 365.896L134.193 367.394L127.197 367.703L123.906 367.84C120.717 367.967 118.287 368.044 116.652 368.063L116.008 368.068C108.537 368.105 87.4613 367.526 84.9859 366.919L84.9153 366.9L85.3341 365.46Z" fill="#536E83"/>
<path d="M124.836 348.127C123.183 348.025 122.34 347.31 122.125 346.967C121.953 347.87 122.254 349.702 124.836 349.807C127.417 349.91 128.148 347.957 128.191 346.967C127.761 347.397 126.488 348.232 124.836 348.127Z" fill="black"/>
<path d="M123.157 346.837C123.054 347.56 123.373 348.257 123.545 348.515C125.093 349.677 126.771 348.515 126.771 347.355C126.771 346.192 125.997 345.935 125.223 345.935C124.448 345.935 123.287 345.935 123.157 346.837Z" fill="black"/>
<path d="M159.301 342.442C160.188 341.02 161.541 340.925 162.624 340.097C163.176 340.857 163.155 341.98 163.668 343.475L166.903 347.327L172.512 353.13L177.809 355.885L174.708 359.59C172.559 357.972 160.307 345.375 159.301 342.442Z" fill="#E6DBDB"/>
<path d="M141.041 362.092C141.041 362.092 140.81 355.7 142.14 352.145C143.47 348.592 144.792 339.445 144.792 339.445C144.792 339.445 147.229 342.012 151.724 341.972L160.196 341.9C160.196 341.9 167.75 352.067 169.942 353.41C172.133 354.752 184.457 357.217 184.457 357.217C186.789 357.197 188.696 359.072 188.717 361.405L188.736 363.552L163.125 363.777L141.041 362.092Z" fill="#F2EAEA"/>
<path d="M166.832 356.75C167.83 354.662 168.39 352.65 168.159 351.71L173.088 354.067L183.821 357.352C183.816 357.095 185.131 357.252 186.789 357.945C188.448 358.635 188.721 360.525 188.65 361.385L164.878 362.7L162.047 362.62C163.45 361.952 165.467 359.602 166.832 356.75Z" fill="#D11137"/>
<path d="M151.448 352.26C154.443 352.927 160.618 349.57 163.331 347.807L160.271 341.942C157.399 341.992 151.191 342.025 149.334 341.747C147.477 341.472 145.534 340.142 144.794 339.512L144.092 343.512L143.151 348.545C144.668 349.505 148.452 351.59 151.448 352.26Z" fill="black"/>
<path d="M163.074 347.425C162.422 346.445 161.092 344.33 160.983 343.712C155.077 344.795 147.103 344.735 144.134 343.475C143.383 345.795 143.031 348.932 143.031 348.932C143.555 349.957 149.26 351.892 151.45 352.257C152.599 351.347 153.46 351.11 154.356 350.587C155.761 349.767 160.46 347.62 163.074 347.425Z" fill="#D11137"/>
<path d="M150.471 356.777C149.54 356.265 144.275 354.055 141.843 353.107C140.691 353.96 140.926 358.982 140.951 361.88L152.547 362.307C151.869 360.117 150.783 357.077 150.471 356.777Z" fill="#D11137"/>
<path d="M156.072 356.275C157.286 356.58 158.256 356.512 158.795 356.072C160.182 354.927 159.229 353.26 158.827 352.605C159.541 353.4 160.251 354.197 160.813 355.072C161.697 356.437 162.097 357.95 161.552 358.94C160.574 360.727 158.09 359.975 156.501 359.305L141.758 353.092L156.072 356.275Z" fill="black"/>
<path d="M177.957 358.097C181.175 358.455 185.292 358.55 186.054 357.512L180.768 356.015L173.8 353.375L172.008 354.293L172.272 355.062C172.272 355.062 170.188 357.462 170.335 358.49C170.481 359.515 171.574 360.01 172.798 359.602C174.023 359.197 174.685 357.735 177.957 358.097Z" fill="#F2EAEA"/>
<path d="M161.509 346.553C162.878 348.38 166.536 352.123 168.194 353.768L168.677 351.958C167.628 350.818 165.925 349.048 164.484 347.53C162.976 345.94 161.413 343.553 160.271 341.943L158.856 341.968C159.087 342.908 160.139 344.725 161.509 346.553Z" fill="#D11137"/>
<path d="M163.513 343.21C163.918 343.043 164.383 343.237 164.549 343.643C164.71 344.035 164.536 344.48 164.159 344.661L164.116 344.68L162.759 345.237C162.353 345.404 161.889 345.21 161.722 344.804C161.561 344.413 161.736 343.967 162.112 343.787L162.155 343.768L163.513 343.21Z" fill="#BF0328"/>
<path d="M165.591 345.508C165.996 345.341 166.461 345.535 166.627 345.941C166.788 346.332 166.614 346.778 166.237 346.958L166.194 346.977L164.837 347.535C164.431 347.702 163.967 347.508 163.8 347.102C163.639 346.71 163.814 346.265 164.19 346.084L164.233 346.065L165.591 345.508Z" fill="#BF0328"/>
<path d="M167.413 347.807C167.819 347.641 168.283 347.836 168.449 348.242C168.609 348.633 168.434 349.079 168.057 349.259L168.014 349.278L166.657 349.833C166.25 349.999 165.787 349.804 165.621 349.398C165.46 349.007 165.636 348.561 166.013 348.381L166.055 348.362L167.413 347.807Z" fill="#BF0328"/>
<path d="M169.489 350.102C169.895 349.936 170.359 350.13 170.526 350.536C170.687 350.927 170.512 351.373 170.135 351.553L170.093 351.572L168.735 352.13C168.329 352.297 167.865 352.103 167.699 351.697C167.538 351.305 167.712 350.86 168.089 350.679L168.132 350.66L169.489 350.102Z" fill="#BF0328"/>
<path d="M172.597 352.392C173.003 352.226 173.467 352.421 173.633 352.827C173.793 353.218 173.618 353.664 173.241 353.844L173.198 353.863L171.841 354.418C171.434 354.584 170.971 354.389 170.805 353.983C170.644 353.591 170.82 353.146 171.197 352.966L171.239 352.947L172.597 352.392Z" fill="#BF0328"/>
<path d="M140.726 361.83L164.847 362.71L188.813 361.41L189.225 364.592C189.345 365.515 188.648 366.342 187.717 366.382L165.388 367.337L152.947 367.582L140.501 367.282L140.726 361.83Z" fill="#E7E5DD"/>
<path d="M189.233 365.009L189.677 366.441C187.564 367.096 165.801 368.071 158.495 368.148L157.976 368.152C156.383 368.16 154.062 368.127 151.044 368.06L149.089 368.015L140.591 367.79L140.629 366.29L147.748 366.48L150.678 366.552C154.078 366.629 156.624 366.665 158.265 366.65L158.693 366.645C165.897 366.555 186.918 365.611 189.169 365.027L189.233 365.009Z" fill="#536E83"/>
<path d="M149.579 348.432C151.223 348.3 152.051 347.575 152.259 347.227C152.446 348.125 152.178 349.957 149.608 350.105C147.038 350.252 146.276 348.317 146.215 347.332C146.652 347.755 147.935 348.565 149.579 348.432Z" fill="black"/>
<path d="M151.228 347.118C151.344 347.835 151.039 348.535 150.872 348.795C149.349 349.98 147.657 348.852 147.637 347.695C147.617 346.538 148.384 346.268 149.155 346.253C149.927 346.24 151.084 346.22 151.228 347.118Z" fill="black"/>
<path d="M164.727 154.427C169.531 152.689 174.834 155.173 176.573 159.977L176.877 160.815C181.82 174.373 185.396 181.68 191.675 190.517L192.462 191.623C200.765 203.257 203.444 206.068 216.655 217.845C220.469 221.245 220.804 227.092 217.405 230.905C214.005 234.719 208.158 235.054 204.345 231.655L203.062 230.509C189.689 218.549 186.186 214.71 176.886 201.644L176.594 201.233C169.082 190.661 164.801 181.812 159.177 166.273C157.439 161.469 159.923 156.166 164.727 154.427Z" fill="#F8CCBE"/>
<path d="M177 211.875C177 224.923 187.577 235.5 200.625 235.5C213.673 235.5 224.25 224.923 224.25 211.875C224.25 198.827 213.673 188.25 200.625 188.25C187.577 188.25 177 198.827 177 211.875Z" fill="#E57E25"/>
<path d="M177.617 213.815C180.681 210.886 185.719 209.956 189.341 211.648C186.079 216.304 183.737 221.541 182.439 227.077C182.838 227.559 183.258 228.02 183.693 228.468C183.818 228.355 183.906 228.207 183.944 228.042C185.171 222.475 187.494 217.208 190.778 212.549C192.94 214.228 194.001 216.992 193.761 220.538L193.758 220.584L193.759 220.631C193.972 225.765 196.929 230.463 201.67 233.197C203.111 234.033 204.671 234.641 206.296 235C207.685 234.663 209.04 234.2 210.345 233.616C207.765 233.816 205.033 233.181 202.515 231.73C198.293 229.295 195.656 225.139 195.452 220.605C195.786 215.47 193.752 212.667 191.792 211.167C193.05 209.522 194.424 207.969 195.904 206.52C201.962 212.151 207.638 218.181 212.894 224.569L216.544 229.012L217.852 227.936L214.202 223.492C208.922 217.076 203.222 211.017 197.14 205.356C198.318 204.289 199.553 203.287 200.841 202.356C202.864 204.914 206.116 206.168 210.181 205.9C214.005 206.074 217.594 208.157 220.034 211.62C221.932 214.312 222.897 217.515 222.801 220.503C223.333 219.123 223.735 217.696 224 216.241C223.485 214.234 222.61 212.338 221.418 210.644C218.663 206.734 214.577 204.387 210.206 204.206L210.16 204.205L210.114 204.208C206.67 204.44 203.941 203.436 202.248 201.38C206.663 198.438 211.586 196.342 216.766 195.198C216.929 195.157 217.076 195.068 217.187 194.942C216.742 194.507 216.279 194.089 215.8 193.691C210.639 194.904 205.736 197.028 201.321 199.964C199.674 196.654 200.25 192.003 202.732 188.811L203.076 188.369C202.285 188.29 201.491 188.25 200.696 188.25V188.77C198.349 192.488 197.999 197.331 199.913 200.94C198.51 201.951 197.167 203.041 195.89 204.206C193.129 201.673 190.291 199.223 187.382 196.861L184.577 194.588C184.161 194.975 183.759 195.376 183.372 195.792L186.318 198.178C189.169 200.493 191.95 202.893 194.658 205.374C193.108 206.898 191.67 208.531 190.355 210.262C190.258 210.213 190.16 210.162 190.068 210.119C186.054 208.238 180.775 209.026 177.161 211.962H177C177 212.749 177.041 213.527 177.115 214.294L177.617 213.815L177.617 213.815Z" fill="#38454F"/>
<path d="M115.125 150.485C115.125 146.765 118.14 143.75 121.86 143.75H149.64C153.36 143.75 156.375 146.765 156.375 150.485C156.375 160.296 148.421 168.25 138.61 168.25H132.89C123.079 168.25 115.125 160.296 115.125 150.485Z" fill="#EBBAAA"/>
<path d="M123.75 122.728C123.75 117.493 127.993 113.25 133.228 113.25H138.272C143.507 113.25 147.75 117.493 147.75 122.728V148C147.75 154.627 142.378 160 135.75 160C129.123 160 123.75 154.627 123.75 148V122.728Z" fill="#EBBAAA"/>
<path d="M182.875 157.125C181.475 155.425 180.375 154.417 180 154.25L169.875 154.5L163.875 195.75L196.875 188C193.5 176.875 184.275 158.825 182.875 157.125Z" fill="#FAFAFB"/>
<path d="M94.7732 154.375C96.1732 152.875 108.357 147.667 114.273 145.25L132.023 149.375L156.398 145.25C163.482 147.125 177.148 152.125 179.648 153.875C181.343 155.061 175.773 156.125 175.273 161.5C174.651 168.191 168.25 190.25 168.25 196C168.25 215.625 171.773 244.625 170.523 248.25C170.286 248.939 156.593 247.916 138.675 248.059C126.543 248.155 110.6 247.974 101.398 248.125C99.6482 226.5 104.766 196.06 102.898 181.375C100.148 159.75 93.0232 156.25 94.7732 154.375Z" fill="#FAFAFB"/>
<path d="M112.75 151.31C112.75 147.135 116.135 143.75 120.31 143.75H150.69C154.865 143.75 158.25 147.135 158.25 151.31C158.25 162.323 149.322 171.25 138.309 171.25H132.691C121.678 171.25 112.75 162.323 112.75 151.31Z" fill="#F2F0F5"/>
<path d="M87.3946 169.042C89.7184 164.493 95.2903 162.689 99.8398 165.012C104.389 167.336 106.194 172.908 103.87 177.458C101.048 182.983 99.4328 189.885 97.4162 204.038L97.386 204.251L97.4236 204.259C97.776 204.333 98.1829 204.401 98.6427 204.457L98.7694 204.472C103.621 205.032 111.441 204.231 123.888 202.018C128.918 201.124 133.72 204.476 134.614 209.506C135.509 214.536 132.156 219.338 127.126 220.232L125.862 220.455C112.387 222.81 103.658 223.659 96.6482 222.85C91.306 222.233 86.9216 220.599 83.6063 217.379C79.6236 213.512 78.1471 208.203 78.9727 202.336L79.2039 200.709C80.1915 193.824 81.0046 189.081 82.009 184.674L82.0477 184.505C83.4253 178.501 85.1145 173.507 87.3946 169.042Z" fill="#F8CCBE"/>
<path d="M91.75 156.875C92.65 155.875 94.375 154.625 95.125 154.375L106.375 165.625V195.25L76 187.25C81.5 177.792 90.85 157.875 91.75 156.875Z" fill="#FAFAFB"/>
<path d="M111.462 145.767C112.762 145.067 114.087 144.975 114.587 145.017C115.587 148.35 117.887 156.767 119.087 163.767C120.287 170.767 131.004 178.85 136.212 182.017C140.087 179.309 148.837 172.442 152.837 166.642C156.837 160.842 157.837 149.809 157.837 145.017C158.212 145.017 159.837 144.417 161.337 145.017C162.837 145.617 168.045 148.6 170.712 149.642C167.087 155.267 166.337 163.267 166.337 168.267C166.337 174.517 169.712 192.142 168.962 195.517C168.212 198.892 170.712 220.017 170.712 227.642C170.712 235.267 173.837 247.267 170.712 249.517C167.587 251.767 150.087 250.767 144.337 249.517C138.587 248.267 121.712 249.517 118.962 250.767C116.212 252.017 105.962 248.517 102.462 249.517C98.962 250.517 101.212 244.767 101.212 242.017C101.212 239.267 100.212 231.892 101.212 225.267C102.012 219.967 102.254 203.35 102.337 195.642C103.42 191.767 105.762 181.317 105.962 171.017C106.162 160.717 104.795 152.475 104.087 149.642C106.004 148.642 110.162 146.467 111.462 145.767Z" fill="#0254D2"/>
<mask id="mask2_0_3641" style="mask-type:luminance" maskUnits="userSpaceOnUse" x="100" y="144" width="73" height="108">
<path d="M111.462 145.767C112.762 145.067 114.087 144.975 114.587 145.017C115.587 148.35 117.887 156.767 119.087 163.767C120.287 170.767 131.004 178.85 136.212 182.017C140.087 179.309 148.837 172.442 152.837 166.642C156.837 160.842 157.837 149.809 157.837 145.017C158.212 145.017 159.837 144.417 161.337 145.017C162.837 145.617 168.045 148.6 170.712 149.642C167.087 155.267 166.337 163.267 166.337 168.267C166.337 174.517 169.712 192.142 168.962 195.517C168.212 198.892 170.712 220.017 170.712 227.642C170.712 235.267 173.837 247.267 170.712 249.517C167.587 251.767 150.087 250.767 144.337 249.517C138.587 248.267 121.712 249.517 118.962 250.767C116.212 252.017 105.962 248.517 102.462 249.517C98.962 250.517 101.212 244.767 101.212 242.017C101.212 239.267 100.212 231.892 101.212 225.267C102.012 219.967 102.254 203.35 102.337 195.642C103.42 191.767 105.762 181.317 105.962 171.017C106.162 160.717 104.795 152.475 104.087 149.642C106.004 148.642 110.162 146.467 111.462 145.767Z" fill="white"/>
</mask>
<g mask="url(#mask2_0_3641)">
<path d="M120.682 143.991L120.951 152.887L129.494 155.38L121.117 158.385L121.386 167.281L115.939 160.242L107.562 163.246L112.573 155.891L107.127 148.852L115.67 151.346L120.682 143.991Z" fill="#074099"/>
<path d="M124.706 171.48L124.901 177.908L131.074 179.709L125.021 181.881L125.215 188.309L121.28 183.222L115.226 185.393L118.847 180.079L114.912 174.993L121.085 176.794L124.706 171.48Z" fill="#074099"/>
<path d="M110.456 192.73L110.651 199.158L116.824 200.959L110.771 203.131L110.965 209.559L107.03 204.472L100.976 206.643L104.597 201.329L100.662 196.243L106.835 198.044L110.456 192.73Z" fill="#074099"/>
<path d="M156.456 162.23L156.651 168.658L162.824 170.459L156.771 172.631L156.965 179.059L153.03 173.972L146.976 176.143L150.597 170.829L146.662 165.743L152.835 167.544L156.456 162.23Z" fill="#0A50BF"/>
<path d="M169.456 142.98L169.651 149.408L175.824 151.209L169.771 153.381L169.965 159.809L166.03 154.722L159.976 156.893L163.597 151.579L159.662 146.493L165.835 148.294L169.456 142.98Z" fill="#074099"/>
<path d="M135.706 189.98L135.901 196.408L142.074 198.209L136.021 200.381L136.215 206.809L132.28 201.722L126.226 203.893L129.847 198.579L125.912 193.493L132.085 195.294L135.706 189.98Z" fill="#074099"/>
<path d="M160.706 177.73L160.901 184.158L167.074 185.959L161.021 188.131L161.215 194.559L157.28 189.472L151.226 191.643L154.847 186.329L150.912 181.243L157.085 183.044L160.706 177.73Z" fill="#074099"/>
<path d="M112.706 167.23L112.901 173.658L119.074 175.459L113.021 177.631L113.215 184.059L109.28 178.972L103.226 181.143L106.847 175.829L102.912 170.743L109.085 172.544L112.706 167.23Z" fill="#074099"/>
<path d="M170.456 161.23L170.651 167.658L176.824 169.459L170.771 171.631L170.965 178.059L167.03 172.972L160.976 175.143L164.597 169.829L160.662 164.743L166.835 166.544L170.456 161.23Z" fill="#074099"/>
<path d="M144.045 214.5L144.239 220.928L150.412 222.73L144.359 224.901L144.553 231.329L140.618 226.243L134.565 228.414L138.186 223.099L134.25 218.013L140.424 219.815L144.045 214.5Z" fill="#074099"/>
<path d="M168.545 224.25L168.739 230.678L174.912 232.48L168.859 234.651L169.053 241.079L165.118 235.993L159.065 238.164L162.686 232.849L158.75 227.763L164.924 229.565L168.545 224.25Z" fill="#074099"/>
<path d="M164.545 204.5L164.739 210.928L170.912 212.73L164.859 214.901L165.053 221.329L161.118 216.243L155.065 218.414L158.686 213.099L154.75 208.013L160.924 209.815L164.545 204.5Z" fill="#074099"/>
<path d="M157.795 239.75L157.989 246.178L164.162 247.98L158.109 250.151L158.303 256.579L154.368 251.493L148.315 253.664L151.936 248.349L148 243.263L154.174 245.065L157.795 239.75Z" fill="#074099"/>
<path d="M127.545 225.5L127.739 231.928L133.912 233.73L127.859 235.901L128.053 242.329L124.118 237.243L118.064 239.414L121.685 234.099L117.75 229.013L123.923 230.815L127.545 225.5Z" fill="#074099"/>
<path d="M125.706 201.98L125.901 208.408L132.074 210.209L126.021 212.381L126.215 218.809L122.28 213.722L116.226 215.893L119.847 210.579L115.912 205.493L122.085 207.294L125.706 201.98Z" fill="#074099"/>
<path d="M107.456 212.98L107.651 219.408L113.824 221.209L107.771 223.381L107.965 229.809L104.03 224.722L97.9763 226.893L101.597 221.579L97.662 216.493L103.835 218.294L107.456 212.98Z" fill="#074099"/>
<path d="M108.956 231.23L109.151 237.658L115.324 239.459L109.271 241.631L109.465 248.059L105.53 242.972L99.4763 245.143L103.097 239.829L99.162 234.743L105.335 236.544L108.956 231.23Z" fill="#074099"/>
<path d="M105.706 144.48L105.901 150.908L112.074 152.709L106.021 154.881L106.215 161.309L102.28 156.222L96.2263 158.393L99.8474 153.079L95.912 147.993L102.085 149.794L105.706 144.48Z" fill="#0A50BF"/>
</g>
<path d="M101.625 150.25C102.025 150.05 103.292 149.667 103.875 149.5C105.375 150.625 107.5 165.025 107 173.125C106.5 181.225 103.875 192.375 102.125 196.375C101.958 195.792 101.625 194.425 101.625 193.625C101.625 192.625 103.354 179.99 102.5 171.875C101.75 164.75 101.125 154.5 99.25 151.5C99.875 151.167 101.225 150.45 101.625 150.25Z" fill="white"/>
<mask id="mask3_0_3641" style="mask-type:luminance" maskUnits="userSpaceOnUse" x="98" y="149" width="9" height="48">
<path fill-rule="evenodd" clip-rule="evenodd" d="M101.625 150.25C102.375 149.875 103.292 149.667 103.875 149.5C105 153.833 107.125 164.525 106.625 172.625C106.125 180.725 103.417 191.833 102.125 196.375C101.958 195.792 101.625 194.425 101.625 193.625C101.625 192.625 101.25 175.875 101.25 169.625C101.25 163.375 99.875 155.375 98.5 152.125C98.875 151.5 100.5 150.812 101.625 150.25Z" fill="white"/>
</mask>
<g mask="url(#mask3_0_3641)">
<path d="M104 167.75C104 158.85 102.375 152.542 101.25 149.75L97.25 150.25C97.9167 167.167 100.342 200.553 101.5 196.5C103 191.25 104 178.875 104 167.75Z" fill="#4A516D"/>
</g>
<path d="M169.268 148.51C168.863 148.307 167.58 147.919 166.99 147.75C165.471 148.889 163.319 163.471 163.825 171.674C164.332 179.876 166.99 191.167 168.762 195.217C168.931 194.627 169.268 193.243 169.268 192.433C169.268 191.42 167.517 178.625 168.382 170.408C169.142 163.193 169.775 152.813 171.673 149.775C171.04 149.438 169.673 148.712 169.268 148.51Z" fill="white"/>
<mask id="mask4_0_3641" style="mask-type:luminance" maskUnits="userSpaceOnUse" x="164" y="147" width="9" height="49">
<path fill-rule="evenodd" clip-rule="evenodd" d="M169.269 148.51C168.509 148.13 167.581 147.919 166.99 147.75C165.851 152.138 163.699 162.965 164.206 171.167C164.712 179.37 167.454 190.618 168.762 195.217C168.931 194.627 169.269 193.243 169.269 192.433C169.269 191.42 169.648 174.458 169.648 168.129C169.648 161.8 171.041 153.699 172.433 150.408C172.053 149.775 170.408 149.079 169.269 148.51Z" fill="white"/>
</mask>
<g mask="url(#mask4_0_3641)">
<path d="M166.864 166.231C166.864 157.218 168.509 150.83 169.649 148.003L173.699 148.51C173.024 165.64 170.568 199.449 169.395 195.344C167.876 190.028 166.864 177.497 166.864 166.231Z" fill="#4A516D"/>
</g>
<path d="M118.75 149.385C118.75 146.273 121.273 143.75 124.385 143.75H147.115C150.227 143.75 152.75 146.273 152.75 149.385C152.75 157.595 146.095 164.25 137.885 164.25H133.615C125.405 164.25 118.75 157.595 118.75 149.385Z" fill="#EBBAAA"/>
<path d="M121.765 164.035C119.065 157.935 118.765 147.91 119.89 143.66C117.265 143.035 114.681 144.41 114.39 144.91C113.265 148.66 113.787 159.732 115.39 164.41C118.375 173.125 131.875 183.875 136.5 185.875L141.125 182.625C137.625 179.875 124.465 170.135 121.765 164.035Z" fill="white"/>
<mask id="mask5_0_3641" style="mask-type:luminance" maskUnits="userSpaceOnUse" x="113" y="143" width="29" height="44">
<path fill-rule="evenodd" clip-rule="evenodd" d="M121.765 164.035C119.065 157.935 118.765 147.91 119.89 143.66C117.265 143.035 114.681 144.41 114.39 144.91C113.265 148.66 113.64 159.785 115.39 164.41C118.611 172.922 127.875 181.125 136.265 186.125L141.125 182.625C137.5 179.75 124.465 170.135 121.765 164.035Z" fill="white"/>
</mask>
<g mask="url(#mask5_0_3641)">
<path d="M119.75 166.25C116.75 160.35 116.125 150.625 117.375 142.375L121.125 142.875L123.875 163L145.25 182.375L141.375 186C136.875 183.125 122.75 172.15 119.75 166.25Z" fill="#4A516D"/>
</g>
<path d="M150.75 164.035C153.45 157.935 153.75 147.91 152.625 143.66C155.25 143.035 157.833 144.41 158.125 144.91C159.25 148.66 158.875 159.785 157.125 164.41C153.904 172.922 145.417 180.16 141.125 182.66L136.25 178.91C139.958 176.493 148.05 170.135 150.75 164.035Z" fill="white"/>
<mask id="mask6_0_3641" style="mask-type:luminance" maskUnits="userSpaceOnUse" x="136" y="143" width="23" height="40">
<path fill-rule="evenodd" clip-rule="evenodd" d="M150.75 164.035C153.45 157.935 153.75 147.91 152.625 143.66C155.25 143.035 157.833 144.41 158.125 144.91C159.25 148.66 158.875 159.785 157.125 164.41C153.904 172.922 145.417 180.16 141.125 182.66L136.25 178.91C139.958 176.493 148.05 170.135 150.75 164.035Z" fill="white"/>
</mask>
<g mask="url(#mask6_0_3641)">
<path d="M152.765 166.25C155.765 160.35 156.389 150.625 155.14 142.375L151.39 142.875L148.64 163L133.765 178.625L136.64 182C141.14 179.125 149.765 172.15 152.765 166.25Z" fill="#4A516D"/>
</g>
<path d="M116.125 203.75L113.75 202.75L115 208.375L118.625 209.875L119.875 200.5L120.5 205.5L123.5 206.625L125.25 199.125V203.375L127.875 204.5L129.125 199.375L127.875 198.5V192L124.5 190.25L122.5 198.25L122 193.75L118.375 192.375L116.125 203.75Z" fill="white"/>
<path d="M139.625 195.875C140.025 194.375 142.708 192.583 144 191.875L146.5 193.25L146.25 201.875C146.125 202.292 145.75 203.275 145.25 203.875C144.75 204.475 143.375 205.042 142.75 205.25L140.375 203.375C140.833 203.25 141.85 202.95 142.25 202.75C142.65 202.55 143.333 201.917 143.625 201.625L144 194.875C143.25 195.208 141.75 196.15 141.75 197.25C141.75 198.35 142.25 198.958 142.5 199.125V200.875C142.083 200.75 141.075 200.375 140.375 199.875C139.5 199.25 139.125 197.75 139.625 195.875Z" fill="white"/>
<path d="M132.875 214.125L139.5 209.75V232.375H135.25V217L132.875 218.5V214.125Z" fill="white"/>
<path d="M147.5 201.375V192.25L150.375 194.375V203.375L147.5 201.375Z" fill="white"/>
<path d="M151.875 197C152.775 195.3 154.917 194.708 155.875 194.625L157.25 197C156.833 197.042 155.85 197.225 155.25 197.625C154.5 198.125 154.125 199.5 154.625 201C155.025 202.2 156.958 202.417 157.875 202.375V205.375C157.583 205.458 156.425 205.425 154.125 204.625C151.25 203.625 150.75 199.125 151.875 197Z" fill="white"/>
<path d="M150.875 187.25L150.625 184L148.75 186.625L145.25 185.625L147.75 188.5L145.625 191.375L149.125 190.125L150.875 193V189.375L154.25 188.25L150.875 187.25Z" fill="white"/>
<path d="M132.625 194.875L133.875 190.375L135.625 194.875L141.5 194.25L136.875 198.125L139.375 203.375L134.625 199.875L130.5 203.375L131.75 198.125L126.25 194.875H132.625Z" fill="white"/>
<path d="M78.9727 202.336C79.6847 197.277 84.3628 193.753 89.4216 194.465C94.2274 195.142 97.6479 199.397 97.3676 204.159L97.3617 204.246L97.4236 204.259C97.776 204.333 98.1829 204.401 98.6427 204.457L98.7694 204.472C103.621 205.032 111.441 204.231 123.888 202.018C128.918 201.124 133.72 204.476 134.614 209.506C135.509 214.536 132.156 219.338 127.126 220.232L125.862 220.455C112.387 222.81 103.658 223.659 96.6481 222.85C91.306 222.233 86.9215 220.599 83.6063 217.379C79.6236 213.512 78.1471 208.203 78.9727 202.336Z" fill="#F8CCBE"/>
<path d="M215.077 221.582C217.332 220.421 219.244 220.741 221.395 224.919C223.546 229.097 223.818 234.123 219.735 236.225C215.653 238.327 209.89 241.42 207.739 237.242C205.587 233.064 210.995 223.684 215.077 221.582Z" fill="#EBBAAA"/>
<path d="M167.692 111.383C175.875 111.383 182.508 104.75 182.508 96.5667C182.508 88.3837 175.875 81.75 167.692 81.75C159.509 81.75 152.875 88.3837 152.875 96.5667C152.875 104.75 159.509 111.383 167.692 111.383Z" fill="#EBBAAA"/>
<path d="M103.192 112.133C95.0089 112.133 88.3752 105.5 88.3752 97.3167C88.3752 89.1337 95.0089 82.5 103.192 82.5C111.375 82.5 118.008 89.1337 118.008 97.3167C118.008 105.5 111.375 112.133 103.192 112.133Z" fill="#EBBAAA"/>
<path d="M97.3242 76.0042C96.8039 54.7561 113.886 37.25 135.141 37.25C156.669 37.25 173.856 55.1901 172.935 76.698L172.194 93.9717C172.065 96.9825 171.625 99.972 170.881 102.892L166.647 119.507C164.798 126.761 160.035 132.93 153.485 136.553C142.319 142.728 128.614 142.551 117.545 136.204C111.607 132.8 107.092 127.261 105.003 120.743L99.793 104.484C98.521 100.515 97.8233 96.3845 97.7213 92.2175L97.3242 76.0042Z" fill="#F4D4C9"/>
<path d="M160.397 81.0286C162.036 80.7841 163.562 81.9144 163.807 83.5531C164.048 85.1667 162.956 86.6715 161.358 86.9507L161.282 86.9629L147.009 89.0922C145.37 89.3366 143.843 88.2064 143.599 86.5676C143.358 84.9541 144.45 83.4493 146.048 83.17L146.123 83.1578L160.397 81.0286Z" fill="#393939"/>
<path d="M107.345 83.5859C107.665 81.9863 109.203 80.9406 110.801 81.2194L110.876 81.2334L124.98 84.0582C126.605 84.3835 127.658 85.9643 127.333 87.5889C127.012 89.1885 125.475 90.2342 123.877 89.9554L123.802 89.9414L109.698 87.1166C108.073 86.7912 107.02 85.2105 107.345 83.5859Z" fill="#393939"/>
<path d="M133.305 97.2023L137.002 99.2978C135.848 101.334 135.19 103.51 135.261 104.993C135.313 106.087 135.604 106.419 136.635 106.432L136.699 106.432V110.682C133.232 110.682 131.173 108.477 131.016 105.196C130.904 102.854 131.753 99.993 133.218 97.3571L133.305 97.2023Z" fill="#EBBAAA"/>
<path d="M169.875 46.5008C172.478 50.3554 177.256 72.4725 172.375 87.75C171.499 87.2407 170.71 77.8952 168.5 76.25C166.004 74.3915 166.245 62.8205 163.867 60C161.489 57.1795 142.965 57.7827 135.206 57.7827C127.446 57.7827 107.884 56.4416 104.88 61.025C101.876 65.6082 102.877 75.1273 101.125 77.125C99.7234 78.7233 98.1258 85.8305 97.6252 87.75C97.6252 78.936 93.3355 66.3822 97.6251 52.75C99.1782 47.8142 110.776 31.8752 135.206 31.875C151.875 31.8748 153.98 35.3363 158.736 38.8619C162.49 41.0948 162.115 42.0351 163.867 44.0329C164.743 44.0329 168.298 44.166 169.875 46.5008Z" fill="#2C2929"/>
<path d="M97.0004 66.9088L99.6498 53.0878L123.806 48.1252L123.398 61.434L110.609 63.1648L113.858 60.5445L105.037 62.6453L105.587 59.7735L97.0004 66.9088Z" fill="#2C2929"/>
<path d="M169.019 70.3307L170.753 54.0468L150.66 45.0503L145.683 53.9084L145.911 61.9324L154.201 60.7909L156.243 63.9512L164.729 61.7724L169.019 70.3307Z" fill="#2C2929"/>
<path d="M115.325 62.2397L115.593 56.779L116.743 44L159.116 47.9501L141.079 66.144L141.626 63.2865L136.001 64.1672L135.569 61.0035L130.13 63.62L129.119 62.1205L121.452 62.811L122.737 61.5255L115.325 62.2397Z" fill="#2C2929"/>
<path d="M158.375 36.25C159 36.7083 160.45 37.875 161.25 38.875C161.661 39.3889 162.108 40.0261 162.5 41.375C162.683 42.0057 162.186 40.6614 161.5 39.625C160.799 38.5649 158.875 37.25 159.625 38.125C160.875 40.625 164.875 49.8 164.375 44C163.875 38.2 160.167 36.4167 158.375 36.25Z" fill="#2C2929"/>
<path d="M165.625 41.75C164.225 41.75 162.458 43.6667 161.75 44.625L165.625 46.25L169.125 45.75L166.375 44.625L170.125 45.125L167.625 43.5L170.125 44.25C169.917 44.0833 169.425 43.7 169.125 43.5C168.825 43.3 167.167 42.75 166.375 42.5H168.125C167.875 42.25 167.025 41.75 165.625 41.75Z" fill="#2C2929"/>
<path d="M157.854 92.2547C159.094 92.1739 160.165 93.1135 160.245 94.3535C160.325 95.5714 159.42 96.626 158.213 96.7399L158.147 96.7452L146.647 97.4952C145.407 97.5761 144.336 96.6364 144.255 95.3964C144.176 94.1785 145.081 93.1239 146.288 93.01L146.354 93.0047L157.854 92.2547Z" fill="black"/>
<path d="M110.378 94.5068C110.442 93.288 111.465 92.347 112.677 92.3756L112.743 92.3782L124.618 93.0032C125.859 93.0685 126.812 94.1274 126.747 95.3683C126.683 96.5871 125.66 97.5281 124.448 97.4995L124.382 97.4969L112.507 96.8719C111.266 96.8066 110.313 95.7477 110.378 94.5068Z" fill="black"/>
<mask id="mask7_0_3641" style="mask-type:luminance" maskUnits="userSpaceOnUse" x="124" y="107" width="23" height="17">
<path fill-rule="evenodd" clip-rule="evenodd" d="M124.375 115.375C124.375 110.888 128.013 107.25 132.5 107.25H138.5C142.987 107.25 146.625 110.888 146.625 115.375C146.625 119.862 142.987 123.5 138.5 123.5H132.5C128.013 123.5 124.375 119.862 124.375 115.375Z" fill="white"/>
</mask>
<g mask="url(#mask7_0_3641)">
<rect x="125.125" y="118" width="50.75" height="10.5" fill="white"/>
</g>
</svg>
