<svg width="300" height="400" viewBox="0 0 300 400" fill="none" xmlns="http://www.w3.org/2000/svg">
<path d="M141.125 272.5V350.25H124.125V272.5H141.125Z" fill="#F6DDD6"/>
<path d="M174.375 283V346H157.375V283H174.375Z" fill="#F6DDD6"/>
<path d="M146.242 325.105C145.099 323.25 142.53 323.695 141.388 324.15L141.673 325.24C142.149 325.332 143.358 325.515 143.815 326.06C144.386 326.742 143.957 328.105 144.386 328.377C144.814 328.652 145.956 328.377 146.527 328.377C147.098 328.377 147.669 327.425 146.242 325.105Z" fill="black"/>
<path fill-rule="evenodd" clip-rule="evenodd" d="M143.324 324.46C143.347 324.394 143.419 324.36 143.483 324.382L143.504 324.391L143.739 324.521L143.792 324.473L143.854 324.412C143.892 324.374 143.948 324.365 143.995 324.387L144.014 324.398L145.264 325.273C145.321 325.312 145.335 325.39 145.295 325.447C145.26 325.497 145.194 325.513 145.141 325.489L145.121 325.477L144.685 325.172L144.674 325.213C144.618 325.424 144.546 325.629 144.469 325.755L144.459 325.77C144.495 325.8 144.547 325.836 144.615 325.877L144.702 325.929L144.812 325.99L144.943 326.058L144.943 325.75C144.943 325.656 145.042 325.598 145.122 325.637L145.141 325.648L146.016 326.273C146.108 326.34 146.07 326.481 145.965 326.498L145.943 326.5L145.457 326.5C145.539 326.509 145.597 326.602 145.554 326.682L145.543 326.7L145.352 326.954L145.489 327.009C145.546 327.032 145.577 327.092 145.565 327.15L145.559 327.171C145.536 327.228 145.476 327.259 145.418 327.248L145.397 327.241L145.197 327.161L145.168 327.2C145.1 327.29 144.962 327.251 144.945 327.147L144.943 327.125L144.943 327.06L144.772 326.991C144.674 326.952 144.667 326.822 144.751 326.77L144.772 326.759L144.943 326.69V326.337L144.856 326.294C144.789 326.26 144.725 326.227 144.665 326.194L144.578 326.146C144.457 326.077 144.362 326.015 144.299 325.962C144.183 325.864 144.127 325.764 144.23 325.662C144.277 325.614 144.35 325.432 144.407 325.239L144.422 325.187L143.772 324.826L143.739 324.853C143.634 324.933 143.542 324.987 143.469 324.998L143.443 325C143.289 325 143.251 324.879 143.265 324.723C143.273 324.643 143.296 324.545 143.324 324.46ZM145.193 326.456V326.59L145.397 326.509C145.403 326.506 145.41 326.504 145.417 326.503L145.434 326.5H145.318L145.267 326.489L145.193 326.456ZM145.193 326.18V325.993L145.553 326.25H145.345L145.282 326.222L145.193 326.18Z" fill="#EACE56" fill-opacity="0.78"/>
<path d="M95.6395 358.75C95.3354 358 95.3878 356.375 97.2627 355.625C99.1376 354.875 121.263 358.75 121.263 358.75C126.958 358.285 142.256 350.82 147.888 354.25C149.67 355.335 149.066 358.773 148.408 361.99C147.355 363.063 136.708 364 133.256 363.195C133.256 361.32 132.987 360.113 132.987 360.113C132.987 360.113 130.895 361.463 128.638 361.99C124.033 363.063 123.025 364.25 108.763 364.25C97.3236 363.178 96.5009 360.875 95.6395 358.75Z" fill="#383129"/>
<path fill-rule="evenodd" clip-rule="evenodd" d="M147.389 356.607C147.007 356.88 146.564 357.095 146.008 357.281L145.929 357.044C146.463 356.866 146.883 356.661 147.244 356.404L147.389 356.607ZM97.6729 358.358C97.1941 357.997 96.8076 357.644 96.5422 357.331L96.7331 357.169C96.9854 357.467 97.3586 357.808 97.8236 358.159L97.6729 358.358ZM100.259 359.918C99.7918 359.689 99.3469 359.448 98.9307 359.2L99.0589 358.985C99.4692 359.23 99.9079 359.468 100.369 359.694L100.259 359.918ZM101.638 360.529C102.101 360.714 102.575 360.884 103.059 361.038L103.134 360.8C102.657 360.648 102.188 360.48 101.731 360.297L101.638 360.529ZM105.997 361.743C105.499 361.662 105.006 361.562 104.517 361.445L104.575 361.202C105.058 361.317 105.546 361.416 106.037 361.496L105.997 361.743ZM107.499 361.93C108.001 361.973 108.504 361.996 109.007 362L109.009 361.75C108.512 361.746 108.016 361.723 107.521 361.681L107.499 361.93ZM112.007 361.955C111.511 361.971 111.01 361.983 110.506 361.99L110.502 361.74C111.005 361.733 111.504 361.721 112 361.705L112.007 361.955ZM113.51 361.895C114.015 361.871 114.514 361.842 115.009 361.809L114.993 361.559C114.499 361.592 114.001 361.621 113.498 361.646L113.51 361.895ZM118.003 361.553C117.51 361.605 117.012 361.652 116.507 361.695L116.486 361.446C116.989 361.403 117.486 361.356 117.977 361.305L118.003 361.553ZM119.497 361.382C120.002 361.318 120.498 361.251 120.986 361.179L120.95 360.931C120.463 361.003 119.969 361.071 119.466 361.134L119.497 361.382ZM123.947 360.67C123.467 360.765 122.974 360.856 122.469 360.942L122.427 360.696C122.929 360.61 123.42 360.519 123.899 360.424L123.947 360.67ZM125.419 360.357C125.926 360.241 126.413 360.122 126.88 359.999L126.817 359.757C126.352 359.879 125.867 359.998 125.364 360.113L125.419 360.357ZM129.769 359.169L128.329 359.591L128.259 359.351L129.698 358.929L129.769 359.169ZM131.135 358.503L131.207 358.742L132.644 358.31L132.571 358.071L131.478 358.4L131.135 358.503ZM134.05 358.034L134.069 357.784C134.41 357.81 134.782 357.835 135.17 357.857L135.563 357.879L135.55 358.129C135.151 358.108 134.764 358.084 134.402 358.059L134.05 358.034ZM137.051 358.192C137.563 358.207 138.066 358.217 138.553 358.22L138.555 357.97C138.07 357.967 137.569 357.957 137.059 357.942L137.051 358.192ZM141.563 358.126C141.106 358.164 140.603 358.19 140.058 358.206L140.051 357.956C140.592 357.941 141.091 357.915 141.542 357.877L141.563 358.126ZM143.021 357.686L143.061 357.933L143.343 357.885C143.799 357.808 144.192 357.735 144.542 357.662L144.491 357.417L144.166 357.482C143.829 357.548 143.453 357.615 143.021 357.686Z" fill="#67513B"/>
<path d="M128.888 323.625C130.107 323.625 137.217 327.358 140.907 324.463C141.312 324.145 142.138 324.405 142.138 324.92C142.145 329.895 142.219 338.545 142.964 341.975C143.753 345.61 144.419 345.09 145.208 348.465C145.755 350.803 147.525 356.255 145.208 356.255H134.645C132.146 356.255 128.77 359.158 120.447 359.973C106.632 361.328 103.256 359.473 100.497 358.598C94.2204 356.608 97.4057 352.053 100.497 350.598C105.026 348.465 111.516 346.865 114.817 345.098C117.388 343.723 118.271 343.295 119.59 341.848C121.766 339.463 123.678 326.915 123.973 323.638C123.994 323.41 124.314 323.293 124.509 323.413C125.796 324.205 127.68 323.625 128.888 323.625Z" fill="#2D2B30"/>
<path d="M101.258 354.552C101.397 354.089 101.886 353.828 102.348 353.967L102.709 354.075C104.234 354.526 105.31 354.767 106.678 354.914C108.681 355.13 110.805 355.03 113.16 354.536C113.633 354.437 114.097 354.74 114.196 355.213C114.296 355.686 113.993 356.15 113.52 356.249C110.983 356.781 108.675 356.889 106.491 356.654C104.887 356.482 103.659 356.192 101.842 355.643C101.379 355.503 101.118 355.014 101.258 354.552Z" fill="#59555F"/>
<path d="M118.138 349.75C120.585 347.5 129.513 342.472 128.888 323.625C129.948 323.625 132.513 325 136.388 325.25C140.457 325.128 140.39 324.76 141.468 324.15C141.497 324.132 141.531 324.108 141.559 324.09C143.249 322.952 142.489 341.128 143.702 344.347C144.681 346.948 146.517 350.847 146.517 355.597C145.66 357.097 137.215 356.347 134.522 356.347C133.263 349.625 123.388 354.75 121.263 354.125C119.397 353.577 118.138 352.5 118.138 349.75Z" fill="#1D1D20"/>
<path d="M121.138 341.65C123.938 339.45 125.013 328.75 125.138 323.625C124.638 323.5 124.513 323.15 124.138 323.275C123.763 323.4 123.763 324.9 123.638 326.15C123.501 327.52 122.513 331.775 122.013 334.65C121.513 337.525 121.013 339.275 119.138 341.65C117.638 343.55 111.763 345.5 109.888 347.125C110.096 347.082 110.638 346.8 111.138 346.9C111.763 347.025 111.638 347.15 112.388 347.15C113.138 347.15 117.638 344.4 121.138 341.65Z" fill="#1D1D20"/>
<path d="M123.92 324.427C124.025 324.113 124.355 323.937 124.671 324.02L124.71 324.032L129.96 325.782C130.529 325.972 130.526 326.767 129.977 326.962L129.934 326.976L126.204 328.042L129.174 329.569C129.691 329.835 129.593 330.593 129.043 330.731L129.002 330.74L125.762 331.342L129.118 332.669C129.65 332.879 129.638 333.627 129.12 333.831L129.078 333.845L124.708 335.24L128.531 337.061C129.084 337.324 128.965 338.133 128.379 338.239L128.337 338.246L123.634 338.81L126.888 341.25C127.357 341.602 127.125 342.341 126.553 342.374L126.513 342.375H121.552L124.948 345.677C125.39 346.106 125.01 346.839 124.417 346.743L124.379 346.736L117.97 345.334L120.52 348.886C120.892 349.403 120.344 350.07 119.773 349.827L119.738 349.811L113.363 346.686C113.053 346.534 112.925 346.16 113.077 345.85C113.222 345.553 113.572 345.423 113.874 345.546L113.913 345.564L118.054 347.594L116.005 344.74C115.679 344.285 116.068 343.671 116.608 343.757L116.646 343.764L122.506 345.046L119.577 342.198C119.184 341.816 119.439 341.157 119.973 341.126L120.013 341.125H124.638L121.638 338.875C121.198 338.545 121.369 337.857 121.897 337.761L121.938 337.754L126.045 337.262L122.744 335.689C122.246 335.452 122.281 334.742 122.78 334.545L122.823 334.53L127.029 333.187L123.283 331.706C122.713 331.481 122.778 330.665 123.356 330.52L123.398 330.511L126.976 329.845L124.227 328.431C123.736 328.179 123.793 327.468 124.299 327.288L124.341 327.274L127.649 326.329L124.315 325.218C124.001 325.113 123.825 324.783 123.908 324.467L123.92 324.427Z" fill="black"/>
<path d="M152.337 325.118C153.486 323.25 156.07 323.7 157.218 324.158L156.931 325.253C156.453 325.345 155.237 325.528 154.778 326.078C154.203 326.763 154.634 328.135 154.203 328.41C153.773 328.683 152.624 328.41 152.05 328.41C151.476 328.41 150.901 327.448 152.337 325.118Z" fill="black"/>
<path fill-rule="evenodd" clip-rule="evenodd" d="M155.09 324.398C155.159 324.36 155.245 324.394 155.27 324.468C155.299 324.555 155.322 324.653 155.329 324.732C155.344 324.889 155.306 325.01 155.151 325.01C155.075 325.01 154.969 324.951 154.85 324.859L154.82 324.835L154.166 325.199L154.167 325.204C154.222 325.4 154.295 325.593 154.347 325.662L154.36 325.676C154.463 325.779 154.407 325.879 154.29 325.978C154.226 326.031 154.132 326.093 154.01 326.163C153.926 326.211 153.829 326.263 153.728 326.314L153.642 326.356V326.712L153.815 326.782C153.912 326.821 153.919 326.951 153.836 327.003L153.815 327.014L153.642 327.082L153.642 327.148C153.642 327.26 153.508 327.312 153.432 327.239L153.417 327.223L153.388 327.183L153.186 327.264C153.129 327.286 153.065 327.264 153.034 327.214L153.024 327.194C153.001 327.137 153.023 327.073 153.074 327.042L153.094 327.031L153.232 326.976L153.04 326.72C152.977 326.637 153.038 326.529 153.126 326.52L152.637 326.52C152.523 326.52 152.472 326.383 152.548 326.308L152.564 326.293L153.444 325.663C153.521 325.608 153.626 325.655 153.64 325.744L153.642 325.765L153.642 326.077L153.71 326.042C153.741 326.026 153.772 326.009 153.801 325.993L153.886 325.946L153.973 325.894C154.027 325.861 154.072 325.831 154.106 325.805L154.13 325.785L154.12 325.77C154.043 325.644 153.971 325.44 153.914 325.226L153.902 325.182L153.463 325.49C153.413 325.525 153.346 325.518 153.304 325.476L153.289 325.459C153.254 325.409 153.261 325.342 153.303 325.3L153.32 325.285L154.577 324.405C154.627 324.37 154.695 324.376 154.737 324.42C154.767 324.45 154.799 324.48 154.831 324.51L154.853 324.53L155.09 324.398ZM153.392 326.475L153.316 326.509L153.266 326.52L153.147 326.52L153.166 326.523L153.187 326.529L153.392 326.612V326.475ZM153.027 326.27L153.392 326.008V326.2L153.313 326.237L153.239 326.27H153.027Z" fill="#EACE56" fill-opacity="0.78"/>
<path d="M203.222 358.95C203.528 358.195 203.475 356.563 201.59 355.808C199.704 355.053 177.456 358.95 177.456 358.95C171.728 358.483 156.345 350.975 150.682 354.425C148.89 355.515 149.497 358.973 150.159 362.208C151.217 363.285 161.924 364.23 165.396 363.42C165.396 361.533 165.666 360.32 165.666 360.32C165.666 360.32 167.769 361.678 170.039 362.208C174.67 363.285 175.683 364.48 190.025 364.48C201.528 363.403 202.356 361.088 203.222 358.95Z" fill="#383129"/>
<path fill-rule="evenodd" clip-rule="evenodd" d="M151.57 356.751C151.939 356.974 152.374 357.157 152.923 357.321L152.852 357.561C152.284 357.391 151.83 357.2 151.441 356.964L151.57 356.751ZM201.032 358.352C201.497 358 201.87 357.66 202.123 357.362L202.313 357.524C202.048 357.837 201.662 358.189 201.183 358.551L201.032 358.352ZM198.488 359.889C198.949 359.663 199.387 359.424 199.797 359.179L199.926 359.393C199.51 359.642 199.065 359.884 198.598 360.113L198.488 359.889ZM197.127 360.495C196.67 360.678 196.202 360.847 195.724 361L195.8 361.238C196.284 361.083 196.758 360.912 197.22 360.727L197.127 360.495ZM192.823 361.703C193.314 361.621 193.802 361.521 194.284 361.405L194.343 361.648C193.855 361.766 193.361 361.867 192.864 361.949L192.823 361.703ZM191.34 361.892C190.845 361.936 190.349 361.961 189.852 361.967L189.854 362.217C190.358 362.211 190.861 362.186 191.362 362.141L191.34 361.892ZM186.866 361.926C187.361 361.941 187.86 361.952 188.363 361.959L188.36 362.209C187.855 362.202 187.355 362.191 186.858 362.176L186.866 361.926ZM185.368 361.868C184.864 361.844 184.366 361.816 183.872 361.783L183.856 362.033C184.351 362.065 184.851 362.093 185.356 362.117L185.368 361.868ZM180.888 361.533C181.379 361.584 181.877 361.63 182.38 361.672L182.359 361.921C181.854 361.879 181.355 361.832 180.863 361.782L180.888 361.533ZM179.399 361.364C178.896 361.302 178.401 361.236 177.915 361.165L177.879 361.412C178.367 361.483 178.864 361.55 179.368 361.613L179.399 361.364ZM174.964 360.666C175.443 360.759 175.934 360.848 176.437 360.933L176.395 361.18C175.891 361.094 175.398 361.005 174.916 360.911L174.964 360.666ZM173.499 360.359C172.995 360.246 172.51 360.129 172.044 360.009L171.982 360.251C172.45 360.372 172.938 360.489 173.444 360.603L173.499 360.359ZM170.601 359.608L170.531 359.848L170.236 359.762L169.091 359.426L169.161 359.186L169.443 359.269L170.601 359.608ZM167.723 358.761L166.287 358.33L166.215 358.569L167.652 359.001L167.723 358.761ZM164.798 357.962L164.818 358.212C164.471 358.239 164.083 358.267 163.674 358.291L163.319 358.312L163.305 358.062C163.663 358.042 164.01 358.021 164.333 357.998L164.798 357.962ZM161.809 358.13C161.301 358.147 160.799 358.159 160.312 358.164L160.315 358.414C160.804 358.409 161.307 358.397 161.818 358.38L161.809 358.13ZM157.323 358.093C157.78 358.125 158.279 358.147 158.816 358.158L158.81 358.408C158.27 358.397 157.766 358.375 157.306 358.343L157.323 358.093ZM155.804 358.172L155.844 357.925L155.564 357.879C155.11 357.804 154.72 357.734 154.371 357.666L154.323 357.911L154.651 357.973C154.991 358.036 155.37 358.101 155.804 358.172Z" fill="#67513B"/>
<path d="M169.788 323.628C168.562 323.628 161.401 327.388 157.693 324.463C157.289 324.145 156.464 324.405 156.463 324.92C156.457 329.923 156.383 338.63 155.633 342.083C154.84 345.738 154.17 345.215 153.376 348.608C152.827 350.958 151.047 356.44 153.376 356.44H163.999C166.512 356.44 169.907 359.36 178.276 360.18C192.169 361.54 195.564 359.678 198.338 358.798C204.649 356.795 201.446 352.215 198.338 350.753C193.784 348.608 187.257 346.998 183.937 345.223C181.352 343.84 180.465 343.41 179.137 341.953C176.949 339.553 175.026 326.928 174.73 323.638C174.709 323.41 174.389 323.293 174.195 323.413C172.9 324.213 171.004 323.628 169.788 323.628Z" fill="#2D2B30"/>
<path d="M196.477 354.145C196.939 354.005 197.428 354.266 197.568 354.729C197.708 355.192 197.446 355.68 196.984 355.82L196.602 355.934C194.982 356.413 193.807 356.677 192.309 356.838C190.114 357.074 187.794 356.966 185.243 356.431C184.77 356.332 184.467 355.869 184.566 355.396C184.665 354.923 185.129 354.62 185.602 354.719C187.972 355.215 190.108 355.315 192.122 355.098C193.604 354.938 194.749 354.668 196.477 354.145Z" fill="#59555F"/>
<path d="M180.598 349.9C178.137 347.637 169.16 342.582 169.788 323.627C168.721 323.627 166.143 325.01 162.246 325.262C158.154 325.137 158.221 324.77 157.137 324.157C157.108 324.14 157.074 324.115 157.046 324.095C155.347 322.95 156.111 341.227 154.891 344.467C153.907 347.082 152.06 351.005 152.06 355.78C152.922 357.29 161.414 356.535 164.122 356.535C165.389 349.775 175.319 354.927 177.456 354.3C179.331 353.747 180.598 352.665 180.598 349.9Z" fill="#1D1D20"/>
<path d="M177.581 341.755C174.766 339.543 173.684 328.783 173.559 323.628C174.062 323.503 174.187 323.153 174.564 323.278C174.941 323.403 174.941 324.91 175.067 326.168C175.205 327.545 176.198 331.825 176.701 334.715C177.204 337.608 177.707 339.368 179.592 341.755C181.101 343.665 187.009 345.625 188.894 347.26C188.685 347.218 188.14 346.933 187.637 347.035C187.009 347.16 187.134 347.285 186.38 347.285C185.626 347.285 181.101 344.52 177.581 341.755Z" fill="#1D1D20"/>
<path d="M173.99 324.042C174.317 323.933 174.671 324.11 174.78 324.437C174.885 324.752 174.726 325.09 174.424 325.214L174.385 325.228L171.022 326.349L174.359 327.301C174.89 327.453 174.973 328.16 174.512 328.437L174.473 328.458L171.699 329.885L175.307 330.555C175.91 330.667 176.002 331.481 175.462 331.734L175.423 331.751L171.646 333.244L175.886 334.597C176.411 334.765 176.473 335.473 176.005 335.736L175.965 335.757L172.633 337.343L176.776 337.839C177.321 337.905 177.518 338.586 177.109 338.934L177.077 338.96L174.05 341.23H178.712C179.26 341.23 179.537 341.88 179.176 342.275L179.148 342.303L176.193 345.176L182.099 343.884C182.646 343.765 183.055 344.366 182.762 344.827L182.74 344.859L180.671 347.741L184.848 345.694C185.145 345.548 185.501 345.66 185.664 345.942L185.684 345.98C185.83 346.277 185.718 346.633 185.436 346.796L185.398 346.816L178.988 349.959C178.416 350.239 177.849 349.588 178.183 349.065L178.205 349.033L180.774 345.454L174.321 346.865C173.72 346.997 173.318 346.276 173.725 345.835L173.752 345.807L177.173 342.48H172.176C171.589 342.48 171.332 341.75 171.77 341.38L171.801 341.355L175.08 338.895L170.342 338.328C169.734 338.255 169.589 337.45 170.11 337.162L170.148 337.143L174.001 335.307L169.598 333.903C169.053 333.729 169.014 332.982 169.517 332.744L169.558 332.726L172.944 331.387L169.674 330.779C169.102 330.673 168.978 329.919 169.465 329.629L169.502 329.609L172.496 328.069L168.736 326.996C168.16 326.831 168.129 326.036 168.669 325.817L168.71 325.802L173.99 324.042Z" fill="black"/>
<path d="M111.125 317.5L114.125 228.625L133.581 225.981L133.75 221.5H143.246L143.125 219.25L167.75 225.125L167.779 226.617L174.5 228.625L190.375 317.5L169.584 320.5L169.625 322.625L152.653 321.312L152.875 324.25H129.875L130.019 320.423L111.125 317.5Z" fill="black"/>
<path d="M189.875 117.625C189.875 115.248 190.125 105.167 189.875 100.75L184 101.5L169.624 113.625C166.958 119.792 154.575 141.85 155.375 145.25C156.375 149.5 172.514 152.935 177.75 156.625C198.5 171.25 194.375 144.75 193.5 139.5C192.625 134.25 189.875 124.625 189.875 117.625Z" fill="#17100F"/>
<path fill-rule="evenodd" clip-rule="evenodd" d="M103.5 92.759C103.5 92.759 99.9051 133.313 97.0003 142.281C94.0955 151.25 87.4232 169.928 88.8229 181.323C90.2227 192.719 90.5006 193.873 97.0003 190.249C103.5 186.625 179.749 133.848 179.749 133.848L103.5 92.759Z" fill="#17100F"/>
<rect x="136" y="123.25" width="20.25" height="29" rx="10.125" fill="#EBBAAA"/>
<path d="M129.75 232V217.25H163.75V232H129.75Z" fill="#E5CECB"/>
<path d="M129.75 219.958V151.25H163.75V219.958C163.75 219.958 151.831 222 146.75 222C141.669 222 129.75 219.958 129.75 219.958Z" fill="#E7D6D3"/>
<path d="M145.5 146.75C138.2 146.75 133.625 143.25 132.25 141.5L128.25 149.875C130.875 152.708 138 158.375 145.5 158.375C153 158.375 160.292 154.625 163 152.75L160.25 141.5C158.375 143.25 152.8 146.75 145.5 146.75Z" fill="#E6CECB"/>
<rect x="99.6069" y="141.208" width="43.244" height="89.4248" rx="21.622" transform="rotate(8.5 99.6069 141.208)" fill="#67513B"/>
<rect x="83.25" y="214.124" width="26.5347" height="52.0257" rx="13.2674" transform="rotate(-45 83.25 214.124)" fill="#67513B"/>
<path d="M101.971 275.286L112.708 141.932L135.875 140.25L144 187.625C141.853 215.971 138.906 279.796 138.906 283.232C138.906 286.668 112.708 278.865 101.971 275.286Z" fill="#67513B"/>
<path d="M144.125 187.375L135.75 139.625C129.75 138.75 122.125 139.083 118.5 139.625L139.875 186.625L142.625 207.375L144.125 187.375Z" fill="#82684B"/>
<path d="M191.303 273.783L180.625 141.875L156.25 140.875L149.375 188.25C151.523 216.596 154.367 278.292 154.367 281.729C154.367 285.164 180.566 277.362 191.303 273.783Z" fill="#67513B"/>
<path d="M149.375 188.5L156.25 140.5C162.125 139.25 169.708 139.25 172.625 139.25L155.25 190.625L151.75 229L149.375 188.5Z" fill="#82684B"/>
<rect x="157.407" y="210.038" width="56.6915" height="39.727" rx="5" transform="rotate(-4.5 157.407 210.038)" fill="#363030"/>
<rect width="22.6357" height="63.002" rx="11.3179" transform="matrix(-0.981627 0.190809 0.190809 0.981627 193.767 140.5)" fill="#67513B"/>
<path fill-rule="evenodd" clip-rule="evenodd" d="M179.83 228.507L184.58 192.507L202.921 194.927L198.171 230.927H198.171C197.502 235.991 192.855 239.555 187.79 238.887C182.725 238.219 179.161 233.571 179.83 228.507H179.83Z" fill="#F6DDD6"/>
<rect width="22.6357" height="44.5975" rx="11.3179" transform="matrix(-0.998135 -0.0610485 -0.0610485 0.998135 204.991 185.382)" fill="#67513B"/>
<path d="M136.437 195.188C137.801 195.188 138.906 194.082 138.906 192.719C138.906 191.355 137.801 190.249 136.437 190.249C135.073 190.249 133.967 191.355 133.967 192.719C133.967 194.082 135.073 195.188 136.437 195.188Z" fill="#C3996F"/>
<path d="M134.934 228.688C136.297 228.688 137.403 227.582 137.403 226.218C137.403 224.854 136.297 223.749 134.934 223.749C133.57 223.749 132.464 224.854 132.464 226.218C132.464 227.582 133.57 228.688 134.934 228.688Z" fill="#C3996F"/>
<path d="M136.007 211.938C137.371 211.938 138.477 210.832 138.477 209.468C138.477 208.104 137.371 206.999 136.007 206.999C134.643 206.999 133.537 208.104 133.537 209.468C133.537 210.832 134.643 211.938 136.007 211.938Z" fill="#C3996F"/>
<path d="M133.001 244.793C134.365 244.793 135.47 243.687 135.47 242.324C135.47 240.96 134.365 239.854 133.001 239.854C131.637 239.854 130.531 240.96 130.531 242.324C130.531 243.687 131.637 244.793 133.001 244.793Z" fill="#C3996F"/>
<path d="M131.498 258.751C132.862 258.751 133.967 257.646 133.967 256.282C133.967 254.918 132.862 253.812 131.498 253.812C130.134 253.812 129.028 254.918 129.028 256.282C129.028 257.646 130.134 258.751 131.498 258.751Z" fill="#C3996F"/>
<path d="M179 109C184.523 109 189 104.019 189 97.875C189 91.7308 184.523 86.75 179 86.75C173.477 86.75 169 91.7308 169 97.875C169 104.019 173.477 109 179 109Z" fill="#E4C1C1"/>
<path d="M113.5 109C107.977 109 103.5 104.019 103.5 97.875C103.5 91.7308 107.977 86.75 113.5 86.75C119.023 86.75 123.5 91.7308 123.5 97.875C123.5 104.019 119.023 109 113.5 109Z" fill="#E4C1C1"/>
<path d="M111.954 72.966C111.217 53.4948 126.752 37.25 146.238 37.25C165.92 37.25 181.461 53.8069 180.717 73.475C180.483 79.6522 180.356 84.837 180.46 87.1893C180.644 91.3382 178.632 103.581 176.622 114.556C174.41 126.63 165.033 136.046 153.032 138.623C148.804 139.531 144.427 139.542 140.195 138.657C127.836 136.074 118.229 126.268 116.138 113.816C114.319 102.979 112.48 91.1318 112.42 87.1893C112.384 84.8335 112.198 79.4095 111.954 72.966Z" fill="#F6DDD6"/>
<path fill-rule="evenodd" clip-rule="evenodd" d="M132.833 107.505V112.455C132.833 120.075 138.99 126.25 146.583 126.25C154.178 126.25 160.332 120.075 160.332 112.455V107.505H132.833Z" fill="#393939"/>
<mask id="mask0_0_3785" style="mask-type:luminance" maskUnits="userSpaceOnUse" x="132" y="107" width="29" height="20">
<path fill-rule="evenodd" clip-rule="evenodd" d="M132.856 107.5C132.841 107.755 132.833 108.013 132.833 108.27V113.092C132.833 120.36 138.99 126.25 146.583 126.25C154.178 126.25 160.332 120.36 160.332 113.092V108.27C160.332 108.013 160.325 107.755 160.31 107.5H132.856Z" fill="white"/>
</mask>
<g mask="url(#mask0_0_3785)">
<path d="M146.583 130.673C151.162 130.673 154.875 128.646 154.875 126.145C154.875 123.644 151.162 121.617 146.583 121.617C142.003 121.617 138.291 123.644 138.291 126.145C138.291 128.646 142.003 130.673 146.583 130.673Z" fill="#FF6C6C"/>
</g>
<rect x="132.833" y="107.505" width="27.5" height="5.68665" fill="white"/>
<path d="M125.878 71.7707C129.71 71.132 133.942 71.4846 138.124 72.9605C138.905 73.2362 139.315 74.093 139.039 74.8742C138.764 75.6554 137.907 76.0652 137.126 75.7895C133.426 74.4837 129.707 74.1739 126.371 74.7299C125.386 74.894 124.573 75.1585 123.914 75.4903C123.541 75.6783 123.248 75.8723 123.027 76.057C122.973 76.1021 122.929 76.142 122.895 76.1757L122.865 76.2055C122.865 76.2049 122.87 76.1989 122.879 76.1872C122.361 76.8341 121.418 76.9388 120.771 76.4212C120.124 75.9035 120.019 74.9596 120.537 74.3128C120.653 74.1679 120.839 73.976 121.102 73.7558C121.497 73.4251 121.983 73.1037 122.565 72.8107C123.495 72.3426 124.597 71.9842 125.878 71.7707Z" fill="#62360D"/>
<path d="M153.398 72.8399C156.888 71.3104 162.098 70.9243 165.816 71.5656C167.017 71.7726 168.115 72.1656 169.101 72.6908C169.631 72.9735 170.099 73.2782 170.501 73.5863L170.622 73.6807C170.815 73.8332 170.958 73.9606 171.052 74.0527C171.644 74.6327 171.653 75.5824 171.073 76.1739C170.508 76.7503 169.592 76.774 168.998 76.2383L168.938 76.1825L168.909 76.1571C168.847 76.1025 168.769 76.0388 168.677 75.9681C168.401 75.7563 168.07 75.541 167.69 75.3386C166.975 74.9576 166.178 74.6722 165.307 74.522C162.128 73.9738 157.502 74.3166 154.602 75.5876C153.843 75.9202 152.959 75.5746 152.626 74.8159C152.294 74.0571 152.639 73.1725 153.398 72.8399Z" fill="#62360D"/>
<path d="M144.732 90.0713L148.269 92.4288C147.067 94.2315 146.125 96.9376 146.125 98.9063C146.125 100.805 146.811 101.602 148.91 101.625L149 101.625V105.875C144.365 105.875 141.875 103.075 141.875 98.9063C141.875 96.0825 143.05 92.6547 144.645 90.204L144.732 90.0713Z" fill="#EBBAAA"/>
<path d="M156.006 84.6659C159.35 83.0957 164.127 83.1475 168.321 84.5958C169.235 84.9112 169.72 85.9076 169.404 86.8211C169.089 87.7347 168.092 88.2196 167.179 87.9041C163.784 86.7319 159.93 86.6902 157.494 87.834C156.619 88.2448 155.577 87.8687 155.166 86.9938C154.755 86.119 155.131 85.0767 156.006 84.6659Z" fill="black"/>
<path d="M122.756 84.6659C126.1 83.0957 130.877 83.1475 135.071 84.5958C135.985 84.9112 136.47 85.9076 136.154 86.8211C135.839 87.7347 134.842 88.2196 133.929 87.9041C130.534 86.7319 126.68 86.6902 124.244 87.834C123.369 88.2448 122.327 87.8687 121.916 86.9938C121.505 86.119 121.881 85.0767 122.756 84.6659Z" fill="black"/>
<path d="M141.06 84.3752C144.388 82.7907 147.595 82.6357 150.717 84.3346L150.839 84.4018L149.983 85.9286C147.406 84.4851 144.786 84.5738 141.94 85.8952L141.812 85.9552L141.06 84.3752Z" fill="black"/>
<path d="M150.878 90.6914L150.459 85.3037C150.459 85.3037 153.072 79.4322 163.572 78.1932C174.073 76.9539 178.716 83.4112 178.716 83.4112L177.879 91.1879C177.349 96.1107 173.127 99.8012 168.178 99.6679L160.094 99.4504C155.233 99.3197 151.256 95.5394 150.878 90.6914Z" fill="white" fill-opacity="0.4"/>
<path d="M163.219 76.9647C166.581 76.5298 169.739 76.7715 172.657 77.5461C174.824 78.1217 176.69 78.942 178.227 79.8646C179.243 80.4748 179.785 81.6105 179.707 82.8085L179.7 82.8922L179.442 85.7677L177.45 85.5888L177.708 82.7132C177.752 82.2215 177.554 81.7936 177.197 81.5793C175.815 80.749 174.12 80.0039 172.143 79.4791C169.47 78.7693 166.573 78.5476 163.475 78.9482C157.954 79.6623 154.12 81.379 151.711 83.4052C151.479 83.6009 151.363 83.9275 151.403 84.3106L151.411 84.375L151.87 87.484L149.891 87.7759L149.433 84.667C149.275 83.6015 149.619 82.5521 150.424 81.8747C153.122 79.6049 157.312 77.7286 163.219 76.9647Z" fill="black"/>
<path d="M141.701 90.4919L142.059 85.3594C142.059 85.3594 139.449 79.6177 129.133 78.4839C118.818 77.3504 114.312 83.7239 114.312 83.7239L115.176 91.1879C115.745 96.1062 119.996 99.7629 124.945 99.5902L132.555 99.3244C137.415 99.1547 141.362 95.3427 141.701 90.4919Z" fill="white" fill-opacity="0.4"/>
<path d="M120.23 77.8963C123.083 77.1171 126.176 76.8572 129.473 77.257C135.214 77.9527 139.324 79.7331 142.007 81.9209C142.841 82.6012 143.197 83.6746 143.029 84.7571L143.014 84.8426L142.506 87.6513L140.538 87.2951L141.046 84.4863C141.124 84.0589 141.005 83.6847 140.743 83.471C138.349 81.5193 134.594 79.8921 129.233 79.2424C126.2 78.8748 123.367 79.1128 120.756 79.8257C118.824 80.3534 117.167 81.0953 115.815 81.9196C115.476 82.1262 115.283 82.5271 115.309 82.9918L115.314 83.0527L115.593 85.9675L113.603 86.1584L113.323 83.2436C113.205 82.0173 113.74 80.8419 114.774 80.2119C116.279 79.2944 118.106 78.4762 120.23 77.8963Z" fill="black"/>
<path d="M161.963 50.378C150.063 43.778 144.963 43.2529 130.963 53.378C116.838 49.7531 129.463 40.5029 134.963 37.7529C140.463 35.0029 152.838 34.0029 163.213 39.2529C173.588 44.5029 176.838 58.628 161.963 50.378Z" fill="#311E1C"/>
<path d="M124.139 62.5178C130.873 54.6281 143.623 51.5031 146.873 49.2531C148.124 48.6477 148.123 39.4917 145.123 37.1281C140.998 33.8781 126.373 40.2532 119.873 46.3782C113.373 52.5032 106.928 65.25 103.998 83.6283C102.623 92.2533 101.623 119.628 101.623 129.378C101.623 139.128 102.748 151.753 101.623 162.878C100.856 170.469 99.7498 184.25 99.75 202.875C99.75 207.128 111.691 208.415 112.373 205C113.373 200 112.5 171.753 113.5 162.878C114.602 153.097 116.373 146.253 114.998 137.128C113.623 128.003 109.498 118.878 111.123 113.503C112.748 108.128 112.123 95.0033 112.373 86.8783C112.623 78.7533 117.31 70.5182 124.139 62.5178Z" fill="#311E1C"/>
<path d="M114.875 166.875C113.275 159.275 110.167 124.5 109.625 108.25C109.875 108.333 112.15 108.9 112.75 109C113.35 109.1 113.833 109.042 114 109C114.708 112.125 115.019 116.787 117.375 121.5C119.25 125.25 122.625 128.958 124.25 130.625C125.667 136.167 128.7 149.15 129.5 156.75C130.5 166.25 129.5 196 127.25 196C122.027 196 118.351 196.75 117.375 193.625C115.5 187.625 116.875 176.375 114.875 166.875Z" fill="#311E1C"/>
<path d="M168.125 59.5001C160.738 52.4084 148.875 50.8751 147.75 49.1251C146.583 45.1251 146.353 38.403 151.5 36.6252C158.375 34.2503 176.5 43.875 182.5 59.5001C186.972 71.1472 190 98.5 189.875 101C189.75 103.5 185.5 143.75 184.875 150C184.25 156.25 184.5 160.875 184.875 174C185.25 187.125 185.25 198.244 182.5 199C177.5 200.375 161.875 198.375 159.75 198C157.625 197.625 159 188.95 159 184.125C159 177.5 163.5 155.125 165.875 146.5C167.7 139.872 176.75 118.75 177.375 117C177.875 115.6 178.625 110.917 178.875 108.875L178.882 108.877C179.171 108.96 179.467 109.044 181.75 108.25C184.625 107.25 187.75 103.875 188.5 100.625C189.25 97.375 188.625 94.125 186.875 91.125C185.475 88.725 181.5 87.1668 180.375 86.875C180.375 84.125 180.25 80.75 179.875 78.875C178.929 74.1435 174.375 65.5 168.125 59.5001Z" fill="#311E1C"/>
</svg>
