<svg width="300" height="400" viewBox="0 0 300 400" fill="none" xmlns="http://www.w3.org/2000/svg">
<path d="M148.665 266.96C165.023 266.96 178.284 261.044 178.284 253.745C178.284 246.446 165.023 240.529 148.665 240.529C132.307 240.529 119.046 246.446 119.046 253.745C119.046 261.044 132.307 266.96 148.665 266.96Z" fill="#445A73"/>
<path d="M166.987 297.169C170.756 296.812 174.105 299.548 174.52 303.297L174.532 303.411L178.379 344.113C178.739 347.921 175.944 351.299 172.137 351.659C168.368 352.015 165.019 349.279 164.603 345.53L164.592 345.416L160.745 304.714C160.385 300.907 163.179 297.528 166.987 297.169Z" fill="#EBBAAA"/>
<path d="M136.606 297.015C140.392 297.015 143.469 300.054 143.53 303.825L143.531 303.94V341.385C143.531 345.209 140.431 348.309 136.606 348.309C132.82 348.309 129.744 345.271 129.683 341.499L129.682 341.385V303.94C129.682 300.116 132.782 297.015 136.606 297.015Z" fill="#EBBAAA"/>
<path d="M115.577 238.957L156.633 236.007L147.634 324.352L146.865 332.687L127.246 331.72L120.027 312.325L115.577 238.957Z" fill="#445A73"/>
<path d="M149.869 240.412H188.295L184.64 316.335L180.461 330.997L160.329 332.567L159.175 325.682L149.869 240.412Z" fill="#445A73"/>
<path opacity="0.2" fill-rule="evenodd" clip-rule="evenodd" d="M118.722 266.46L125.508 247.45L129.492 248.93L122.706 266.46H118.722Z" fill="white"/>
<path opacity="0.2" fill-rule="evenodd" clip-rule="evenodd" d="M185.879 266.46L179.093 247.45L175.108 248.93L181.895 266.46H185.879Z" fill="white"/>
<path d="M102.256 364.437C102.206 358.7 102.987 355.21 107.975 352.867C112.962 350.522 117.66 346.015 126.288 342.15C126.288 342.15 127.424 341.935 129.273 342.935C130.851 343.787 132.877 345.882 135.93 345.855C139.246 345.825 142.201 345.122 144.036 344.16C144.83 341.987 146.589 341.972 146.589 341.972C146.589 341.972 149.066 346.687 149.108 351.425C149.149 356.162 149.145 364.03 149.145 364.03L102.256 364.437Z" fill="#DCE1E6"/>
<path d="M124.489 342.497C124.83 342.345 125.23 342.498 125.382 342.84C125.576 343.276 125.716 343.754 125.811 344.275C125.951 345.039 125.982 345.664 125.982 346.77C125.982 347.244 125.508 347.567 125.071 347.405L125.032 347.389L121.735 345.934L122.439 348.485C122.578 348.991 122.115 349.45 121.618 349.32L121.578 349.309L118.267 348.239L118.267 351.235C118.267 351.733 117.749 352.056 117.306 351.849L117.268 351.83L115.019 350.611L115.019 352.86C115.019 353.22 114.738 353.514 114.383 353.535L114.342 353.537C113.982 353.537 113.688 353.256 113.667 352.901L113.666 352.86V349.475C113.666 348.976 114.184 348.654 114.627 348.861L114.665 348.88L116.914 350.098L116.914 347.31C116.914 346.865 117.334 346.545 117.757 346.654L117.798 346.666L120.8 347.635L120.051 344.92C119.903 344.383 120.429 343.913 120.94 344.106L120.977 344.121L124.611 345.724C124.592 345.306 124.557 344.963 124.494 344.598L124.48 344.519C124.411 344.144 124.316 343.805 124.193 343.502L124.145 343.39C123.994 343.048 124.147 342.648 124.489 342.497Z" fill="white"/>
<path fill-rule="evenodd" clip-rule="evenodd" d="M116.963 351.525L131.053 344.017C131.053 344.017 132.177 344.817 132.873 345.165C133.569 345.512 134.63 345.827 134.63 345.827L118.608 354.615C116.491 355.742 114.895 357.647 114.157 359.93L113.801 361.03L110.471 359.952L110.827 358.852C111.845 355.707 114.045 353.08 116.963 351.525Z" fill="#363636"/>
<path d="M104.143 353.305C105.673 352.75 107.293 352.33 110.4 351.627L109.08 355.427L109.118 359.76L100.275 359.835C99.9138 359.84 99.2689 359.357 99.5767 357.405C99.9615 354.967 101.968 354.095 104.143 353.305Z" fill="#EAF4FB"/>
<path d="M149.293 363.29L149.036 358.732L109.385 359.35L99.4982 358.625L99.1962 362.117C99.0919 363.325 99.9966 364.382 101.204 364.465L109.434 365.035L148.229 364.432C148.844 364.422 149.328 363.905 149.293 363.29Z" fill="#363636"/>
<path d="M147.562 344.912C146.599 346.22 143.126 347.002 141.82 347.195C140.513 347.385 139.113 347.217 139.673 349.38C140.069 350.907 143.877 350.29 145.366 350.277C146.576 350.265 148.274 353.922 148.906 352.682C148.906 348.432 148.104 346.13 147.562 344.912Z" fill="#363636"/>
<path d="M206.255 364.437C206.305 358.7 205.523 355.21 200.536 352.867C195.548 350.522 190.85 346.015 182.222 342.15C182.222 342.15 181.086 341.935 179.238 342.935C177.66 343.787 175.633 345.882 172.58 345.855C169.264 345.825 166.31 345.122 164.474 344.16C163.681 341.987 161.922 341.972 161.922 341.972C161.922 341.972 159.444 346.687 159.403 351.425C159.361 356.162 159.366 364.03 159.366 364.03L206.255 364.437Z" fill="#DCE1E6"/>
<path d="M183.129 342.84C183.28 342.498 183.68 342.345 184.022 342.497C184.363 342.648 184.517 343.048 184.365 343.39C184.218 343.72 184.108 344.098 184.031 344.519C183.967 344.87 183.929 345.195 183.907 345.577L183.9 345.724L187.534 344.121C188.044 343.896 188.586 344.348 188.469 344.882L188.46 344.92L187.711 347.635L190.712 346.666C191.135 346.529 191.569 346.831 191.595 347.267L191.597 347.31L191.597 350.099L193.846 348.88C194.284 348.642 194.815 348.944 194.844 349.433L194.845 349.475V352.86C194.845 353.234 194.542 353.537 194.168 353.537C193.808 353.537 193.514 353.256 193.493 352.901L193.492 352.86L193.491 350.611L191.242 351.83C190.804 352.067 190.274 351.765 190.245 351.277L190.243 351.235L190.243 348.239L186.932 349.309C186.433 349.47 185.954 349.027 186.063 348.524L186.072 348.485L186.776 345.934L183.479 347.389C183.045 347.581 182.559 347.278 182.53 346.813L182.529 346.77L182.531 346.392C182.538 345.512 182.577 344.947 182.7 344.275C182.795 343.754 182.935 343.276 183.129 342.84Z" fill="white"/>
<path fill-rule="evenodd" clip-rule="evenodd" d="M191.548 351.525L177.457 344.017C177.457 344.017 176.333 344.817 175.637 345.165C174.942 345.512 173.88 345.827 173.88 345.827L189.902 354.615C192.019 355.742 193.615 357.647 194.353 359.93L194.709 361.03L198.039 359.952L197.684 358.852C196.666 355.707 194.466 353.08 191.548 351.525Z" fill="#363636"/>
<path d="M204.368 353.305C202.838 352.75 201.217 352.33 198.11 351.627L199.431 355.427L199.393 359.76L208.236 359.835C208.597 359.84 209.242 359.357 208.934 357.405C208.549 354.967 206.542 354.095 204.368 353.305Z" fill="#EAF4FB"/>
<path d="M159.218 363.29L159.474 358.732L199.126 359.35L209.012 358.625L209.314 362.117C209.419 363.325 208.514 364.382 207.306 364.465L199.076 365.035L160.282 364.432C159.667 364.422 159.183 363.905 159.218 363.29Z" fill="#363636"/>
<path d="M160.948 344.912C161.911 346.22 165.384 347.002 166.691 347.195C167.998 347.385 169.398 347.217 168.838 349.38C168.441 350.907 164.634 350.29 163.145 350.277C161.935 350.265 160.237 353.922 159.605 352.682C159.605 348.432 160.407 346.13 160.948 344.912Z" fill="#363636"/>
<path d="M148.638 325.65H124.107L126.383 336.53H148.132L148.638 325.65Z" fill="#7F9AB9"/>
<path d="M158.339 325.65H182.87L180.594 336.53H158.845L158.339 325.65Z" fill="#7F9AB9"/>
<path fill-rule="evenodd" clip-rule="evenodd" d="M120.752 267.662L120.915 269.656L121.911 269.574L121.749 267.581L120.752 267.662ZM121.077 271.649L121.239 273.643L122.236 273.561L122.073 271.568L121.077 271.649ZM121.563 277.629L121.401 275.636L122.398 275.555L122.56 277.548L121.563 277.629ZM121.726 279.623L121.888 281.616L122.885 281.535L122.722 279.542L121.726 279.623ZM122.212 285.603L122.05 283.61L123.047 283.528L123.209 285.522L122.212 285.603ZM122.375 287.596L122.537 289.59L123.533 289.509L123.371 287.515L122.375 287.596ZM122.861 293.577L122.699 291.583L123.696 291.502L123.858 293.495L122.861 293.577ZM123.023 295.57L123.186 297.563L124.182 297.482L124.02 295.489L123.023 295.57ZM123.51 301.55L123.348 299.557L124.345 299.476L124.507 301.469L123.51 301.55ZM123.673 303.544L123.835 305.537L124.832 305.456L124.669 303.463L123.673 303.544ZM124.159 309.524L123.997 307.53L124.994 307.449L125.156 309.443L124.159 309.524ZM124.427 311.591L124.946 313.522L125.912 313.263L125.393 311.331L124.427 311.591ZM125.983 317.386L125.464 315.454L126.43 315.195L126.949 317.126L125.983 317.386ZM126.501 319.317L127.02 321.249L127.985 320.99L127.467 319.058L126.501 319.317ZM128.057 325.112L127.538 323.18L128.504 322.921L129.022 324.853L128.057 325.112Z" fill="#697B8F"/>
<path fill-rule="evenodd" clip-rule="evenodd" d="M183.669 267.477L183.506 269.471L184.503 269.552L184.665 267.558L183.669 267.477ZM183.344 271.464L183.182 273.458L184.179 273.539L184.341 271.545L183.344 271.464ZM182.857 277.444L183.02 275.451L184.016 275.532L183.854 277.525L182.857 277.444ZM182.695 279.438L182.533 281.431L183.53 281.512L183.692 279.519L182.695 279.438ZM182.208 285.418L182.371 283.425L183.367 283.506L183.205 285.499L182.208 285.418ZM182.046 287.411L181.884 289.405L182.88 289.486L183.043 287.493L182.046 287.411ZM181.559 293.392L181.722 291.398L182.718 291.479L182.556 293.473L181.559 293.392ZM181.397 295.385L181.235 297.378L182.232 297.46L182.394 295.466L181.397 295.385ZM180.91 301.365L181.073 299.372L182.069 299.453L181.907 301.446L180.91 301.365ZM180.748 303.359L180.586 305.352L181.583 305.433L181.745 303.44L180.748 303.359ZM180.261 309.339L180.423 307.345L181.42 307.427L181.258 309.42L180.261 309.339ZM180.024 311.228L179.505 313.159L180.471 313.418L180.99 311.487L180.024 311.228ZM178.469 317.022L178.987 315.091L179.953 315.35L179.434 317.282L178.469 317.022ZM177.95 318.954L177.432 320.886L178.398 321.145L178.916 319.213L177.95 318.954ZM176.395 324.749L176.913 322.817L177.879 323.077L177.361 325.008L176.395 324.749Z" fill="#697B8F"/>
<path d="M84.6107 223.922L77.0259 213.579L90.5867 156.348H97.2522L84.6107 223.922Z" fill="#363636"/>
<path d="M146.021 129.312L141.979 140.988L122.94 242.108L78.8933 253.816L89.9295 155.577L112.633 129.312H128.66H146.021Z" fill="#585858"/>
<path d="M100.445 234.055V197.117L119.441 189.118L123.94 243.608L100.445 234.055Z" fill="#363636"/>
<rect x="141.496" y="131.69" width="21.5665" height="16.913" fill="#EBBAAA"/>
<path fill-rule="evenodd" clip-rule="evenodd" d="M132.274 155.347C136.841 157.806 138.55 163.503 136.09 168.07C128.751 181.7 116.17 195.589 107.275 201.982C105.114 203.535 102.347 205.26 99.4185 206.064C97.9628 206.463 95.4651 206.921 92.6689 206.097C89.3265 205.111 86.8538 202.676 85.6674 199.66C84.6719 197.13 84.7679 194.712 84.9633 193.152C85.175 191.461 85.6374 189.782 86.1838 188.209C87.278 185.058 89.0773 181.295 91.514 176.926C94.0406 172.396 99.7616 170.771 104.292 173.298C105.591 174.022 106.651 175.009 107.443 176.155C111.898 171.1 116.365 165.08 119.55 159.164C122.01 154.597 127.706 152.888 132.274 155.347Z" fill="#EBBAAA"/>
<path d="M115.935 145.328C125.88 136.199 141.635 138.146 149.059 149.422C155.982 159.937 152.643 174.109 141.754 180.428L112.816 197.221L85.3994 173.359L115.935 145.328Z" fill="#E8E8E8"/>
<path d="M193.898 170.572C198.416 168.023 204.145 169.62 206.694 174.138C212.775 184.919 215.819 195.526 216.56 207.662C217.155 217.411 216.433 226.913 214.177 244.67C213.523 249.816 208.821 253.457 203.675 252.803C198.529 252.15 194.888 247.448 195.541 242.302L195.788 240.344C197.706 224.978 198.291 216.699 197.81 208.807C197.239 199.463 194.99 191.624 190.332 183.367C187.783 178.849 189.38 173.12 193.898 170.572Z" fill="#EBBAAA"/>
<path d="M196.045 147.045C187.286 136.771 171.411 136.784 162.669 147.071C154.516 156.663 156.103 171.137 166.14 178.736L192.817 198.93L222.937 178.587L196.045 147.045Z" fill="#E8E8E8"/>
<path d="M220.616 176.051L189.778 196.591L192.817 198.93L222.937 178.587L220.616 176.051Z" fill="#6A6A6A"/>
<path d="M116.616 165.744C117.684 151.463 129.583 140.42 143.904 140.42H162.517C177.63 140.42 189.882 152.672 189.882 167.785V204.397V257.448L113.725 254.947L113.725 204.397L116.616 165.744Z" fill="#E8E8E8"/>
<path d="M87.8783 171.031L114.978 193.959L111.939 196.299L85.3271 173.331L87.8783 171.031Z" fill="#6A6A6A"/>
<mask id="mask0_0_3898" style="mask-type:luminance" maskUnits="userSpaceOnUse" x="113" y="140" width="78" height="120">
<path fill-rule="evenodd" clip-rule="evenodd" d="M116.648 165.771C117.38 155.841 122.816 144.604 131.198 140.42C137.379 140.42 139.563 140.42 143.938 140.42H162.661C166.957 140.42 171.665 140.42 175.018 141.084C184.127 145.527 190.026 156.968 190.026 167.785V205.368V259.225L113.725 256.686L113.725 205.368L116.648 165.771Z" fill="white"/>
</mask>
<g mask="url(#mask0_0_3898)">
<path d="M152.789 161.043C163.86 161.043 172.836 152.6 172.836 142.185C172.836 131.77 163.86 123.328 152.789 123.328C141.717 123.328 132.741 131.77 132.741 142.185C132.741 152.6 141.717 161.043 152.789 161.043Z" fill="#6A6A6A"/>
</g>
<mask id="mask1_0_3898" style="mask-type:luminance" maskUnits="userSpaceOnUse" x="85" y="139" width="138" height="119">
<path fill-rule="evenodd" clip-rule="evenodd" d="M190.026 196.817V205.368V257.475L113.725 254.936L113.725 205.368L114.394 196.306L112.816 197.221L85.3994 173.359L115.935 145.329C121.844 139.904 129.805 138.39 136.85 140.42C137.739 140.42 138.549 140.42 139.344 140.42H143.938H162.661C165.734 140.42 169.017 140.42 171.864 140.663C180.129 137.665 189.861 139.791 196.045 147.045L222.937 178.587L192.817 198.93L190.026 196.817Z" fill="white"/>
</mask>
<g mask="url(#mask1_0_3898)">
<path d="M189.739 146.884L215.891 180.823L215.099 181.434L188.947 147.495L189.739 146.884Z" fill="#6A6A6A"/>
<path d="M189.633 158.531L211.845 187.142L211.055 187.755L188.844 159.144L189.633 158.531Z" fill="#6A6A6A"/>
<path d="M189.669 170.108L207.8 193.463L207.01 194.076L188.879 170.721L189.669 170.108Z" fill="#6A6A6A"/>
<path d="M189.524 181.452L203.755 199.783L202.965 200.396L188.734 182.065L189.524 181.452Z" fill="#6A6A6A"/>
<path d="M116.279 146.884L117.071 147.495L90.9186 181.434L90.1265 180.823L116.279 146.884Z" fill="#6A6A6A"/>
<path d="M116.384 158.531L117.174 159.144L94.9625 187.755L94.1726 187.142L116.384 158.531Z" fill="#6A6A6A"/>
<path d="M116.348 170.108L117.138 170.721L99.0077 194.076L98.2178 193.463L116.348 170.108Z" fill="#6A6A6A"/>
<path d="M116.493 181.452L117.283 182.065L103.053 200.396L102.263 199.783L116.493 181.452Z" fill="#6A6A6A"/>
<path d="M175.259 133.08V269.795H174.259V133.08H175.259Z" fill="#6A6A6A"/>
<path d="M168.009 133.08V269.795H167.009V133.08H168.009Z" fill="#6A6A6A"/>
<path d="M160.759 133.08V269.795H159.759V133.08H160.759Z" fill="#6A6A6A"/>
<path d="M153.509 133.08V269.795H152.509V133.08H153.509Z" fill="#6A6A6A"/>
<path d="M146.259 133.08V269.795H145.259V133.08H146.259Z" fill="#6A6A6A"/>
<path d="M139.009 133.08V269.795H138.009V133.08H139.009Z" fill="#6A6A6A"/>
<path d="M131.759 133.08V269.795H130.759V133.08H131.759Z" fill="#6A6A6A"/>
<path d="M124.509 133.08V269.795H123.509V133.08H124.509Z" fill="#6A6A6A"/>
<path d="M117.259 133.08V269.795H116.259V133.08H117.259Z" fill="#6A6A6A"/>
<path d="M182.509 133.08V269.795H181.509V133.08H182.509Z" fill="#6A6A6A"/>
<path d="M189.759 133.08V269.795H188.759V133.08H189.759Z" fill="#6A6A6A"/>
<path d="M132.274 155.347C136.841 157.807 138.55 163.503 136.09 168.07C131.192 177.167 123.959 186.379 117.045 193.401C115.995 194.467 113.814 196.494 112.788 197.451L98.5771 185.031L107.443 176.155C111.898 171.1 116.365 165.08 119.55 159.164C122.01 154.597 127.706 152.888 132.274 155.347Z" fill="#EBBAAA"/>
</g>
<path fill-rule="evenodd" clip-rule="evenodd" d="M152.807 156.786C162.369 156.786 170.12 150.576 170.12 142.916C170.12 142.098 170.031 141.296 169.861 140.516L164.794 139.67H137.757C137.109 139.67 136.464 140.488 135.831 140.623L135.725 140.646C135.573 141.385 135.494 142.143 135.494 142.916C135.494 150.576 143.246 156.786 152.807 156.786Z" fill="#EBBAAA"/>
<path fill-rule="evenodd" clip-rule="evenodd" d="M183.75 172.876C183.697 173.104 183.656 173.337 183.588 173.561C183.497 173.858 183.392 174.15 183.281 174.439C183.195 174.665 183.091 174.884 182.995 175.105C182.951 175.208 182.886 175.25 182.766 175.25C180.985 175.245 179.206 175.247 177.426 175.247H177.25C177.283 175.184 177.298 175.137 177.326 175.102C177.737 174.591 178.134 174.068 178.567 173.578C178.806 173.308 179.097 173.083 179.381 172.857C179.727 172.583 180.075 172.307 180.448 172.073C180.789 171.86 181.157 171.69 181.524 171.524C181.794 171.401 182.076 171.297 182.361 171.214C182.814 171.083 183.276 170.993 183.75 171V172.876Z" fill="black"/>
<path fill-rule="evenodd" clip-rule="evenodd" d="M172.088 175.25C171.97 174.462 171.991 173.68 172.037 172.901C172.065 172.434 172.143 171.968 172.235 171.509C172.312 171.126 172.436 170.752 172.551 170.378C172.829 169.469 173.283 168.648 173.869 167.904C174.053 167.672 174.275 167.47 174.484 167.25C174.883 167.567 175.184 167.926 175.439 168.321C175.666 168.675 175.887 169.035 176.076 169.409C176.23 169.714 176.339 170.041 176.455 170.363C176.551 170.63 176.638 170.901 176.708 171.176C176.773 171.425 176.817 171.68 176.86 171.934C177.013 172.844 177.014 173.761 176.987 174.678C176.981 174.867 176.944 175.056 176.921 175.25H172.088Z" fill="black"/>
<path fill-rule="evenodd" clip-rule="evenodd" d="M171.725 175.245H171.542C169.734 175.245 167.926 175.243 166.117 175.25C165.969 175.251 165.891 175.204 165.833 175.08C165.615 174.608 165.408 174.134 165.268 173.631C165.133 173.147 165.003 172.664 165.001 172.158C164.999 171.811 165.005 171.464 165.005 171.116C165.005 171.027 165.045 170.991 165.13 171.002C165.414 171.039 165.699 171.071 165.981 171.119C166.199 171.156 166.418 171.199 166.628 171.267C166.96 171.375 167.298 171.479 167.609 171.632C168.036 171.842 168.459 172.07 168.852 172.337C169.266 172.618 169.654 172.941 170.032 173.271C170.322 173.524 170.594 173.803 170.848 174.093C171.163 174.45 171.451 174.831 171.75 175.202C171.742 175.216 171.734 175.231 171.725 175.245Z" fill="black"/>
<path fill-rule="evenodd" clip-rule="evenodd" d="M182.75 176C182.575 176.235 182.418 176.446 182.259 176.658C182.205 176.73 182.128 176.748 182.035 176.748C180.649 176.745 179.264 176.746 177.879 176.746C174.262 176.746 170.646 176.744 167.029 176.75C166.848 176.75 166.728 176.702 166.633 176.564C166.52 176.402 166.396 176.247 166.278 176.087C166.263 176.066 166.262 176.037 166.25 176H182.75Z" fill="black"/>
<path fill-rule="evenodd" clip-rule="evenodd" d="M167.274 177.5H181.5C181.247 177.747 181.025 177.973 180.789 178.183C180.734 178.232 180.627 178.243 180.543 178.243C179.46 178.247 178.377 178.246 177.293 178.246C174.319 178.246 171.343 178.243 168.368 178.25C168.104 178.251 167.889 178.206 167.714 178.005C167.569 177.839 167.406 177.689 167.25 177.532C167.258 177.522 167.266 177.511 167.274 177.5Z" fill="black"/>
<path fill-rule="evenodd" clip-rule="evenodd" d="M169.025 179.002H169.143C170.424 179.002 171.705 179.004 172.986 179C173.126 178.999 173.196 179.025 173.2 179.169C173.21 179.524 173.235 179.879 173.25 180.233C173.252 180.278 173.235 180.323 173.228 180.368C173.21 180.473 173.148 180.514 173.031 180.496C172.635 180.433 172.238 180.384 171.845 180.31C171.585 180.261 171.326 180.195 171.079 180.107C170.758 179.993 170.439 179.865 170.136 179.715C169.794 179.546 169.47 179.346 169.14 179.156C169.087 179.125 169.047 179.076 169 179.035C169.009 179.024 169.017 179.013 169.025 179.002Z" fill="black"/>
<path fill-rule="evenodd" clip-rule="evenodd" d="M175.762 179.547C175.762 179.359 175.756 179.172 175.763 178.985C175.77 178.785 175.811 178.752 176.015 178.752C177.204 178.751 178.392 178.752 179.581 178.752C179.61 178.752 179.64 178.747 179.667 178.753C179.696 178.76 179.723 178.777 179.75 178.79C179.733 178.813 179.719 178.843 179.696 178.858C179.425 179.03 179.162 179.216 178.878 179.365C178.525 179.552 178.161 179.72 177.79 179.87C177.549 179.968 177.29 180.032 177.034 180.088C176.743 180.151 176.447 180.187 176.153 180.236C176.12 180.241 176.087 180.248 176.054 180.249C175.73 180.256 175.757 180.223 175.755 179.982C175.755 179.907 175.752 179.833 175.751 179.758C175.75 179.687 175.751 179.617 175.751 179.547H175.762Z" fill="black"/>
<path fill-rule="evenodd" clip-rule="evenodd" d="M175.75 178.804C175.641 178.965 175.535 179.128 175.423 179.286C175.19 179.618 174.919 179.918 174.614 180.191C174.524 180.271 174.474 180.27 174.381 180.187C173.925 179.785 173.568 179.312 173.25 178.808C173.348 178.737 175.599 178.726 175.75 178.804Z" fill="black"/>
<path d="M133.987 145.623C130.782 147.404 128.793 158.533 128.2 163.875H121.077L112.173 157.642L91.2502 166.546L100.154 157.642L121.077 138.5L141.591 138.908C140.404 140.541 137.192 143.842 133.987 145.623Z" fill="#363636"/>
<path d="M116.879 134L141.47 138.86L105.75 146.91L116.879 134Z" fill="#363636"/>
<path d="M128.894 158.373L132.741 149.876L119 149.022L128.894 158.373Z" fill="#585858"/>
<path d="M182.828 109.746C190.045 109.746 195.266 101.484 195.896 95.3605C196.526 89.2368 190.045 83.0515 182.828 83.0515C175.611 83.0515 169.761 88.5625 169.761 95.3605C169.761 102.159 175.611 109.746 182.828 109.746Z" fill="#EBBAAA"/>
<path d="M121.729 111.158C114.512 111.158 109.291 102.896 108.661 96.7723C108.031 90.6488 114.512 84.4635 121.729 84.4635C128.946 84.4635 134.796 89.9743 134.796 96.7723C134.796 103.57 128.946 111.158 121.729 111.158Z" fill="#EBBAAA"/>
<path d="M114.535 76.6857C114.535 56.0192 131.072 39.2656 151.471 39.2656C171.87 39.2656 188.407 56.0192 188.407 76.6857L185.907 105.615C182.948 123.628 174.416 137.274 157.157 137.274H145.785C128.526 137.274 120.567 121.831 117.035 105.615L114.535 76.6857Z" fill="#F4D4C9"/>
<path d="M177.612 67.8703L175.356 48.9367C175.015 46.0757 174.979 45.3459 183.113 51.3409C191.246 57.336 192.546 76.4651 190.461 84.9066L188.9 95.5853L185.529 94.3226L184.705 82.0031C180.607 77.8781 178.334 73.9293 177.612 67.8703Z" fill="#FD8282"/>
<path d="M119.41 69.5828C119.746 63.4908 119.06 63.8045 119.284 59.7433C119.442 56.8666 118.901 56.1839 115.997 62.9488C113.093 69.7138 113.531 78.1905 114.134 86.371L114.851 93.9105L115.997 93.9738L116.514 84.5953C118.539 78.0968 119.074 75.6745 119.41 69.5828Z" fill="#FD8282"/>
<path fill-rule="evenodd" clip-rule="evenodd" d="M152.91 34.8744L152.91 34.8743C152.893 34.8743 152.876 34.8743 152.859 34.8743C152.841 34.8743 152.824 34.8743 152.807 34.8743L152.807 34.8744C141.823 34.9124 115.523 41.0025 114.535 69.5033C117.456 65.9925 120.958 67.1565 124.964 64.8655C133.398 60.0427 141.292 55.5818 150.429 55.5818C158.281 55.5818 167.54 59.0553 174.045 62.1702C179.863 64.9565 185.392 65.3503 191.079 69.5033C190.091 41.0026 163.894 34.9124 152.91 34.8744Z" fill="#FD8282"/>
<path d="M173.032 82.2635C174.306 82.2635 175.34 83.2968 175.34 84.5716C175.34 85.824 174.342 86.8435 173.099 86.8789L173.032 86.8798L160.82 86.8803C159.545 86.8804 158.512 85.8471 158.512 84.5723C158.512 83.3199 159.509 82.3004 160.753 82.265L160.82 82.264L173.032 82.2635Z" fill="#393939"/>
<path d="M142.501 82.3049C143.775 82.2548 144.848 83.2468 144.898 84.5206C144.947 85.772 143.991 86.8298 142.749 86.9141L142.683 86.9177L130.484 87.3974C129.21 87.4475 128.137 86.4555 128.087 85.1817C128.038 83.9303 128.994 82.8725 130.236 82.7882L130.303 82.7847L142.501 82.3049Z" fill="#393939"/>
<path d="M148.924 92.8387L153.133 93.9762L150.425 103.996C149.775 106.4 151.561 108.765 154.037 108.812L154.113 108.813H155.781V113.173H154.113C148.781 113.173 144.889 108.16 146.176 103.014L146.216 102.858L148.924 92.8387Z" fill="#EBBAAA"/>
<path d="M144.679 121.689C149.706 120.154 157.208 120.154 161.081 121.752C162.079 122.163 162.554 123.306 162.143 124.304C161.739 125.282 160.633 125.758 159.649 125.389L159.59 125.365C156.622 124.141 150.035 124.141 145.821 125.428C144.789 125.743 143.696 125.162 143.381 124.13C143.065 123.097 143.647 122.005 144.679 121.689Z" fill="#CD9E8E"/>
<path d="M144.752 40.3465C167.901 36.4009 175.067 44.2878 176.389 47.5066C177.712 50.7254 178.208 55.9172 176.389 58.2016C173.744 61.5242 161.287 54.3093 151.146 55.9707C141.004 57.6321 139.02 63.5507 131.855 68.3272C126.123 72.1482 120.427 73.0342 118.296 72.9997C119.729 68.8462 118.094 56.2591 119.505 52.1888C121.268 47.1009 132.414 42.4495 144.752 40.3465Z" fill="#FD8282"/>
<path d="M144.89 62.2468C148.51 55.9115 161.985 54.8305 168.27 55.0819L172.795 58.4757C167.575 57.6101 154.686 57.1525 144.89 62.2468Z" fill="#FD8282"/>
<path d="M170.136 36.5671C171.113 37.2831 173.378 39.1057 174.628 40.6678C175.27 41.4706 175.968 42.4661 176.58 44.5732C176.867 45.5584 176.089 43.4584 175.018 41.8394C173.923 40.1834 170.918 38.1293 172.089 39.4962C174.042 43.4016 180.291 57.7344 179.509 48.6739C178.728 39.6134 172.935 36.8275 170.136 36.5671Z" fill="#FD8282"/>
<path d="M181.657 45.1591C179.47 45.1591 176.711 48.1532 175.604 49.6503L181.657 52.1888L187.125 51.4077L182.829 49.6503L188.687 50.4314L184.782 47.8929L188.687 49.0645C188.362 48.8041 187.594 48.2053 187.125 47.8929C186.656 47.5804 184.066 46.7212 182.829 46.3307H185.563C185.172 45.9402 183.844 45.1591 181.657 45.1591Z" fill="#FD8282"/>
<path d="M135.547 89.5243C136.904 89.5243 138.009 90.606 138.046 91.9543L138.047 92.0243V97.8108C138.047 99.1915 136.928 100.311 135.547 100.311C134.19 100.311 133.085 99.2291 133.048 97.8808L133.047 97.8108V92.0243C133.047 90.6436 134.166 89.5243 135.547 89.5243Z" fill="black"/>
<path d="M167.766 89.5243C169.124 89.5244 170.228 90.6061 170.265 91.9544L170.266 92.0244L170.266 97.8109C170.266 99.1916 169.146 100.311 167.766 100.311C166.408 100.311 165.304 99.229 165.267 97.8807L165.266 97.8107L165.266 92.0242C165.266 90.6435 166.386 89.5242 167.766 89.5243Z" fill="black"/>
</svg>
