<svg width="300" height="400" viewBox="0 0 300 400" fill="none" xmlns="http://www.w3.org/2000/svg">
<path d="M147.479 267.604C164.064 267.604 177.509 261.602 177.509 254.198C177.509 246.795 164.064 240.793 147.479 240.793C130.893 240.793 117.448 246.795 117.448 254.198C117.448 261.602 130.893 267.604 147.479 267.604Z" fill="#445A73"/>
<path d="M166.079 298.245C169.902 297.897 173.287 300.684 173.695 304.488L173.707 304.604L177.901 350.761C178.252 354.624 175.407 358.041 171.545 358.392C167.723 358.74 164.337 355.953 163.929 352.148L163.918 352.033L159.723 305.876C159.372 302.012 162.218 298.596 166.079 298.245Z" fill="#EBBAAA"/>
<path d="M135.252 298.091C139.091 298.091 142.21 301.173 142.272 304.999L142.273 305.115V349.368C142.273 353.247 139.13 356.392 135.252 356.392C131.414 356.392 128.295 353.31 128.233 349.484L128.232 349.368V305.115C128.232 301.236 131.375 298.091 135.252 298.091Z" fill="#EBBAAA"/>
<path d="M113.93 239.198L155.557 236.206L146.433 325.821L143.661 344.296H126.299L117.047 297.381L113.93 239.198Z" fill="#445A73"/>
<path d="M148.699 240.674H187.659L185.358 297.634L178.26 343.789H160.137L158.134 327.171L148.699 240.674Z" fill="#445A73"/>
<path opacity="0.2" fill-rule="evenodd" clip-rule="evenodd" d="M117.119 267.097L124 247.813L128.039 249.314L121.158 267.097H117.119Z" fill="white"/>
<path opacity="0.2" fill-rule="evenodd" clip-rule="evenodd" d="M185.209 267.097L178.329 247.813L174.289 249.314L181.17 267.097H185.209Z" fill="white"/>
<path fill-rule="evenodd" clip-rule="evenodd" d="M119.276 270.326L119.177 268.3L120.189 268.25L120.289 270.277L119.276 270.326ZM119.474 274.379L119.375 272.353L120.388 272.303L120.487 274.329L119.474 274.379ZM119.574 276.405L119.673 278.432L120.686 278.382L120.586 276.356L119.574 276.405ZM119.871 282.484L119.772 280.458L120.785 280.408L120.884 282.435L119.871 282.484ZM119.971 284.511L120.07 286.537L121.083 286.487L120.983 284.461L119.971 284.511ZM120.268 290.59L120.169 288.563L121.182 288.514L121.281 290.54L120.268 290.59ZM120.368 292.616L120.467 294.642L121.48 294.593L121.381 292.566L120.368 292.616ZM120.566 296.669L121.579 296.619L121.607 297.196L121.856 298.558L120.858 298.74L120.598 297.312L120.566 296.669ZM121.222 300.736L121.586 302.732L122.583 302.55L122.219 300.554L121.222 300.736ZM122.313 306.723L121.949 304.727L122.947 304.545L123.311 306.541L122.313 306.723ZM122.677 308.719L123.041 310.715L124.038 310.533L123.674 308.537L122.677 308.719ZM123.768 314.707L123.405 312.711L124.402 312.529L124.766 314.525L123.768 314.707ZM124.132 316.702L124.496 318.698L125.493 318.516L125.13 316.521L124.132 316.702ZM125.223 322.69L124.86 320.694L125.857 320.512L126.221 322.508L125.223 322.69ZM125.587 324.686L125.951 326.682L126.948 326.5L126.585 324.504L125.587 324.686ZM126.678 330.673L126.315 328.678L127.312 328.496L127.676 330.491L126.678 330.673ZM127.042 332.669L127.406 334.665L128.403 334.483L128.04 332.487L127.042 332.669ZM128.134 338.657L127.77 336.661L128.767 336.479L129.131 338.475L128.134 338.657Z" fill="#697B8F"/>
<path fill-rule="evenodd" clip-rule="evenodd" d="M182.861 270.169L182.967 268.143L183.98 268.196L183.873 270.222L182.861 270.169ZM182.648 274.221L182.755 272.195L183.767 272.248L183.661 274.274L182.648 274.221ZM182.542 276.247L182.436 278.273L183.449 278.326L183.555 276.3L182.542 276.247ZM182.224 282.325L182.33 280.299L183.342 280.352L183.236 282.378L182.224 282.325ZM182.118 284.351L182.011 286.377L183.024 286.43L183.13 284.404L182.118 284.351ZM181.799 290.429L181.905 288.403L182.918 288.456L182.812 290.482L181.799 290.429ZM181.693 292.455L181.587 294.481L182.599 294.534L182.705 292.508L181.693 292.455ZM181.431 297.455L181.48 296.507L182.493 296.56L182.442 297.534L182.436 297.586L182.273 298.626L181.272 298.469L181.431 297.455ZM180.958 300.474L180.644 302.478L181.645 302.635L181.959 300.631L180.958 300.474ZM180.015 306.486L180.33 304.482L181.331 304.639L181.017 306.643L180.015 306.486ZM179.701 308.491L179.387 310.495L180.389 310.652L180.703 308.648L179.701 308.491ZM178.759 314.504L179.073 312.499L180.075 312.656L179.76 314.661L178.759 314.504ZM178.445 316.508L178.131 318.512L179.132 318.669L179.446 316.665L178.445 316.508ZM177.502 322.521L177.816 320.516L178.818 320.673L178.504 322.678L177.502 322.521ZM177.188 324.525L176.874 326.529L177.876 326.686L178.19 324.682L177.188 324.525ZM176.246 330.538L176.56 328.533L177.562 328.691L177.247 330.695L176.246 330.538ZM175.932 332.542L175.617 334.546L176.619 334.703L176.933 332.699L175.932 332.542ZM174.989 338.555L175.303 336.551L176.305 336.708L175.991 338.712L174.989 338.555Z" fill="#697B8F"/>
<path d="M206.438 361.921C206.438 354.135 201.438 353.184 193.289 350.517C189.297 349.211 185.224 348.072 181.091 347.387C178.493 346.956 177.796 349.241 173.233 349.241C169.164 349.241 164.088 347.225 163.037 346.789C162.905 346.733 162.749 346.685 162.644 346.781C162.619 346.804 162.597 346.834 162.582 346.865C162.096 347.864 159.546 353.311 159.546 357.671C159.546 361.005 159.26 364.284 160.179 365.978C160.594 366.742 163.183 367.16 164.053 367.16H205.028C205.807 367.16 206.438 362.699 206.438 361.921Z" fill="#10100F"/>
<mask id="mask0_0_4022" style="mask-type:luminance" maskUnits="userSpaceOnUse" x="159" y="345" width="48" height="23">
<path fill-rule="evenodd" clip-rule="evenodd" d="M206.438 361.921C206.438 357.922 205.119 355.726 202.73 354.174C191.367 346.794 176.633 346.446 163.094 345.944C162.984 345.944 162.63 346.766 162.582 346.865C162.096 347.864 159.546 353.311 159.546 357.671C159.546 361.005 159.26 364.284 160.179 365.978C160.594 366.742 163.183 367.16 164.053 367.16H205.028C205.807 367.16 206.438 362.699 206.438 361.921Z" fill="white"/>
</mask>
<g mask="url(#mask0_0_4022)">
<path d="M200.392 356.596C204.321 356.596 205.419 354.313 205.842 353.933C206.602 354.82 205.968 358.396 206.475 360.019C206.982 361.642 206.264 363.232 205.842 363.823L170.482 365.471C170.271 362.091 169.975 355.328 170.482 355.328C171.116 355.328 175.172 349.875 177.326 349.748C179.05 349.647 187.423 351.82 191.394 352.918C190.887 353.426 190.05 356.012 189.746 357.23C189.366 358.751 189.239 358.751 190.633 359.131C192.027 359.512 192.281 356.596 193.802 356.596H200.392Z" fill="#363533"/>
<mask id="mask1_0_4022" style="mask-type:luminance" maskUnits="userSpaceOnUse" x="170" y="349" width="37" height="17">
<path fill-rule="evenodd" clip-rule="evenodd" d="M200.392 356.598C204.321 356.598 205.419 354.316 205.842 353.935C206.602 354.823 205.968 358.399 206.475 360.022C206.982 361.645 206.264 363.235 205.842 363.826L170.482 365.474C170.271 362.093 169.975 355.33 170.482 355.33C171.116 355.33 175.172 349.878 177.326 349.751C179.05 349.65 187.423 351.823 191.394 352.921C190.887 353.428 190.05 356.015 189.746 357.232C189.366 358.754 189.239 358.754 190.633 359.134C192.027 359.514 192.281 356.598 193.802 356.598H200.392Z" fill="white"/>
</mask>
<g mask="url(#mask1_0_4022)">
<path d="M187.639 360.399C187.842 359.385 189.16 358.371 189.794 357.99L197.145 354.06H205.509C206.692 356.849 208.678 362.986 207.157 365.218C205.256 368.007 191.568 364.457 189.413 363.443C187.259 362.428 187.386 361.667 187.639 360.399Z" fill="#272626"/>
</g>
<path d="M173.614 355.454C173.005 354.44 163.221 353.002 159.292 352.538L157.518 363.443L177.289 364.584C176.317 361.964 174.222 356.469 173.614 355.454Z" fill="#363533"/>
<path d="M169.852 358.464L169.248 358.797C169.153 358.85 169.164 358.989 169.265 359.027L172.741 360.316C173.447 360.579 174.233 360.514 174.886 360.136L175.38 359.852C175.473 359.798 175.462 359.661 175.363 359.623L171.985 358.32C171.288 358.051 170.507 358.104 169.852 358.464Z" fill="#C4C4C4"/>
<path d="M163.179 355.581C163.179 355.074 159.63 353.806 159.63 353.806L158.363 358.117C158.363 358.117 163.179 356.088 163.179 355.581Z" fill="#C4C4C4"/>
<path d="M169.051 348.227C166.009 348.024 163.475 346.368 162.461 345.437C161.447 346.452 158.937 349.241 159.546 350.256C160.306 351.524 166.136 352.538 168.671 352.538C171.205 352.538 172.853 348.48 169.051 348.227Z" fill="black"/>
<path d="M184.006 363.316C190.469 363.062 196.046 364.584 203.143 363.062C215.817 361.667 209.305 362.497 212.521 368.664H162.82C157.898 367.5 156.265 360.326 159.926 360.907C167.91 362.175 179.061 363.511 184.006 363.316Z" fill="#CDC7BB"/>
<path d="M188.583 364.911C188.373 364.744 188.312 364.155 188.4 363.316L194.229 363.696C194.229 364.465 194.177 364.995 193.967 365.329C193.704 365.75 188.846 365.121 188.583 364.911Z" fill="#80DAF4"/>
<path d="M158.025 363.062C159.749 363.772 183.119 363.823 183.879 363.316C182.105 362.935 169.046 361.454 166.136 361.287C161.7 361.033 160.01 360.696 158.025 360.78C157.307 361.287 156.301 362.352 158.025 363.062Z" fill="#AEAAAA"/>
</g>
<path d="M181.225 346.545C181.594 346.321 182.074 346.438 182.298 346.806C182.522 347.175 182.405 347.655 182.037 347.88L180.942 348.513C180.878 348.551 180.823 348.584 180.784 348.607C180.725 348.643 180.669 348.679 180.613 348.713L180.532 348.766L186.069 347.491C186.767 347.33 187.287 348.114 186.888 348.692L186.863 348.727L185.349 350.706L191.523 348.949C192.285 348.732 192.839 349.652 192.316 350.224L192.286 350.255L188.917 353.599C188.611 353.903 188.116 353.901 187.813 353.595C187.521 353.301 187.511 352.832 187.783 352.526L187.817 352.491L189.036 351.28L183.51 352.853C182.801 353.055 182.241 352.255 182.652 351.661L182.677 351.627L184.305 349.5L178.731 350.783C178.257 350.892 177.804 350.546 177.777 350.067L177.775 350.022C177.775 348.95 178.515 348.175 179.879 347.331L180.042 347.231C180.365 347.039 181.107 346.617 181.225 346.545Z" fill="black"/>
<path fill-rule="evenodd" clip-rule="evenodd" d="M179.521 344.058C179.559 341.789 181.058 340.112 183.033 340.112C184.008 340.112 184.801 340.519 185.348 341.267C185.874 341.984 186.155 342.99 186.155 344.146C186.155 345.214 185.521 346.175 184.438 346.896C183.478 347.536 182.245 347.92 181.211 347.92C180.716 347.92 180.352 347.831 180.092 347.649C179.855 347.483 179.701 347.239 179.611 346.895C179.533 346.597 179.503 346.234 179.501 345.705C179.501 345.629 179.501 345.558 179.502 345.475L179.519 344.42L179.521 344.058ZM184.089 342.19C183.834 341.841 183.507 341.674 183.033 341.674C181.943 341.674 181.081 342.654 181.081 344.146C181.081 344.263 181.081 344.371 181.079 344.492L181.063 345.498L181.063 345.782C181.066 346.02 181.075 346.201 181.092 346.334L181.095 346.354L181.119 346.356L181.211 346.358C181.933 346.358 182.866 346.067 183.573 345.596C184.257 345.14 184.594 344.629 184.594 344.146C184.594 343.302 184.403 342.618 184.089 342.19Z" fill="black"/>
<path fill-rule="evenodd" clip-rule="evenodd" d="M175.705 343.521C175.044 343.817 174.627 344.331 174.477 344.998C174.334 345.635 174.443 346.394 174.789 347.172C175.107 347.886 175.824 348.337 176.774 348.493C177.615 348.632 178.567 348.517 179.269 348.205L179.338 348.173C179.628 348.034 179.818 347.883 179.93 347.71L179.978 347.63C179.991 347.607 179.998 347.592 180.005 347.576L180.019 347.539L180.025 347.527C180.039 347.496 180.043 347.475 180.047 347.443L180.051 347.421L180.059 347.376C180.073 347.273 180.071 347.16 180.051 347.036C180.017 346.827 179.939 346.595 179.805 346.284L179.732 346.118L179.353 345.298L179.293 345.165C178.601 343.613 177.06 342.918 175.705 343.521ZM178.661 346.83L179.277 346.5L178.584 347.128L178.521 347.115L178.526 347.091C178.529 347.079 178.535 347.06 178.548 347.016L178.548 347.016L178.552 347.002L178.561 346.986C178.574 346.964 178.591 346.937 178.614 346.902L178.661 346.83ZM177.891 345.855L177.835 345.734C177.474 344.986 176.854 344.72 176.341 344.948C176.132 345.041 176.043 345.152 176.001 345.34C175.937 345.624 175.998 346.048 176.215 346.537C176.293 346.711 176.551 346.874 177.028 346.952C177.452 347.022 177.935 346.99 178.325 346.886L178.36 346.875L178.308 346.759L177.891 345.855Z" fill="black"/>
<path fill-rule="evenodd" clip-rule="evenodd" d="M179.656 352.064L183.208 353.657L182.673 354.404L183.662 353.829L186.909 355.369L183.308 362.158L179.916 360.556L180.779 359.181L179.121 360.156L175.912 358.878L179.656 352.064ZM184.819 356.062L184.598 355.957L182.115 359.913L182.644 360.162L184.819 356.062ZM183.733 355.547L183.859 355.607L178.991 358.467L178.824 358.4L183.733 355.547ZM180.886 354.284L180.312 354.026L178.073 358.101L178.131 358.124L180.886 354.284Z" fill="#80DAF4"/>
<path fill-rule="evenodd" clip-rule="evenodd" d="M179.875 352.718L182.435 353.866L180.881 356.032L183.686 354.402L186.213 355.6L183.087 361.493L180.65 360.342L182.313 357.692L179.078 359.593L176.633 358.619L179.875 352.718ZM181.661 354.075L180.094 353.372L177.353 358.36L179.035 359.03L183.846 356.204L181.383 360.127L182.866 360.828L185.516 355.831L183.71 354.975L179.089 357.661L181.661 354.075Z" fill="#FF8D43"/>
<path d="M99.9375 361.987C99.9375 354.209 104.933 353.258 113.075 350.593C117.063 349.289 121.133 348.151 125.262 347.466C127.857 347.035 128.554 349.317 133.113 349.317C137.178 349.317 142.249 347.304 143.299 346.867C143.431 346.812 143.588 346.763 143.692 346.862C143.718 346.885 143.739 346.913 143.755 346.946C144.24 347.943 146.788 353.385 146.788 357.742C146.788 361.071 147.073 364.348 146.155 366.042C145.741 366.805 143.154 367.221 142.285 367.221H101.346C100.568 367.221 99.9375 362.765 99.9375 361.987Z" fill="#10100F"/>
<mask id="mask2_0_4022" style="mask-type:luminance" maskUnits="userSpaceOnUse" x="99" y="346" width="48" height="22">
<path fill-rule="evenodd" clip-rule="evenodd" d="M99.9375 361.987C99.9375 357.99 101.256 355.797 103.642 354.247C114.995 346.873 129.716 346.525 143.243 346.026C143.353 346.026 143.707 346.847 143.755 346.946C144.24 347.943 146.788 353.385 146.788 357.742C146.788 361.071 147.073 364.348 146.155 366.042C145.741 366.805 143.154 367.221 142.285 367.221H101.346C100.568 367.221 99.9375 362.765 99.9375 361.987Z" fill="white"/>
</mask>
<g mask="url(#mask2_0_4022)">
<path d="M105.978 356.666C102.053 356.666 100.955 354.387 100.533 354.006C99.7737 354.891 100.407 358.464 99.9003 360.087C99.3938 361.708 100.111 363.295 100.533 363.886L135.861 365.535C136.072 362.157 136.368 355.399 135.861 355.399C135.228 355.399 131.176 349.951 129.024 349.824C127.302 349.723 118.936 351.894 114.968 352.992C115.475 353.499 116.311 356.083 116.614 357.3C116.994 358.82 117.121 358.82 115.728 359.2C114.335 359.58 114.082 356.666 112.563 356.666H105.978Z" fill="#363533"/>
<mask id="mask3_0_4022" style="mask-type:luminance" maskUnits="userSpaceOnUse" x="99" y="349" width="38" height="17">
<path fill-rule="evenodd" clip-rule="evenodd" d="M105.978 356.669C102.053 356.669 100.955 354.389 100.533 354.009C99.7737 354.896 100.407 358.47 99.9003 360.09C99.3938 361.711 100.111 363.301 100.533 363.891L135.861 365.537C136.072 362.159 136.368 355.404 135.861 355.404C135.228 355.404 131.176 349.956 129.024 349.83C127.302 349.728 118.936 351.899 114.968 352.994C115.475 353.502 116.311 356.086 116.614 357.303C116.994 358.822 117.121 358.822 115.728 359.203C114.335 359.583 114.082 356.669 112.563 356.669H105.978Z" fill="white"/>
</mask>
<g mask="url(#mask3_0_4022)">
<path d="M118.72 360.468C118.517 359.453 117.2 358.439 116.567 358.059L109.223 354.133H100.866C99.6839 356.92 97.7001 363.052 99.2196 365.281C101.119 368.068 114.794 364.52 116.947 363.508C119.1 362.494 118.973 361.733 118.72 360.468Z" fill="#272626"/>
</g>
<path d="M132.733 355.525C133.34 354.513 143.116 353.076 147.041 352.611L148.814 363.506L129.061 364.647C130.031 362.03 132.125 356.54 132.733 355.525Z" fill="#363533"/>
<path d="M136.492 358.535L137.094 358.865C137.189 358.918 137.179 359.058 137.077 359.096L133.606 360.384C132.9 360.645 132.113 360.579 131.46 360.204L130.968 359.92C130.876 359.867 130.886 359.73 130.986 359.692L134.359 358.391C135.056 358.122 135.837 358.173 136.492 358.535Z" fill="#C4C4C4"/>
<path d="M143.158 355.652C143.158 355.145 146.703 353.88 146.703 353.88L147.969 358.186C147.969 358.186 143.158 356.159 143.158 355.652Z" fill="#C4C4C4"/>
<path d="M137.291 348.305C140.33 348.103 142.863 346.447 143.875 345.518C144.888 346.53 147.396 349.317 146.788 350.332C146.028 351.6 140.203 352.612 137.671 352.612C135.138 352.612 133.492 348.559 137.291 348.305Z" fill="black"/>
<path d="M122.35 363.382C115.892 363.128 110.32 364.647 103.229 363.128C90.5671 361.733 97.0726 362.563 93.8594 368.722H143.517C148.434 367.561 150.065 360.392 146.408 360.972C138.431 362.24 127.291 363.574 122.35 363.382Z" fill="#CDC7BB"/>
<path d="M117.777 364.974C117.986 364.807 118.047 364.219 117.96 363.379L112.135 363.76C112.135 364.528 112.188 365.058 112.398 365.393C112.66 365.811 117.514 365.185 117.777 364.974Z" fill="#80DAF4"/>
<path d="M148.307 363.128C146.585 363.836 123.236 363.886 122.476 363.382C124.249 363.001 137.296 361.52 140.203 361.353C144.635 361.099 146.324 360.762 148.307 360.846C149.025 361.353 150.029 362.418 148.307 363.128Z" fill="#AEAAAA"/>
</g>
<path d="M124.056 346.885C124.272 346.53 124.725 346.408 125.087 346.6L126.179 347.232C126.26 347.28 126.33 347.321 126.38 347.352C127.803 348.218 128.575 349.003 128.575 350.098C128.575 350.585 128.137 350.949 127.664 350.868L127.62 350.859L122.053 349.578L123.678 351.7C124.126 352.286 123.589 353.101 122.886 352.937L122.845 352.926L117.327 351.358L118.542 352.564C118.837 352.856 118.85 353.324 118.581 353.632L118.547 353.668C118.255 353.963 117.787 353.976 117.479 353.707L117.443 353.673L114.076 350.333C113.514 349.775 114.044 348.841 114.798 349.017L114.839 349.027L121.006 350.78L119.494 348.806C119.058 348.236 119.556 347.437 120.247 347.561L120.289 347.569L125.815 348.841L125.655 348.739L125.499 348.644C125.194 348.463 124.46 348.045 124.317 347.958C123.948 347.734 123.832 347.253 124.056 346.885Z" fill="black"/>
<path fill-rule="evenodd" clip-rule="evenodd" d="M121.008 341.351C121.556 340.604 122.349 340.198 123.322 340.198C125.321 340.198 126.832 341.916 126.832 344.227L126.833 344.501L126.85 345.557L126.85 345.89C126.844 346.362 126.813 346.698 126.741 346.974C126.651 347.317 126.497 347.561 126.246 347.737C125.989 347.909 125.631 347.996 125.142 347.996C124.11 347.996 122.878 347.612 121.918 346.975C120.836 346.253 120.202 345.293 120.202 344.227C120.202 343.072 120.482 342.068 121.008 341.351ZM125.27 344.228C125.27 342.738 124.41 341.76 123.321 341.76C122.848 341.76 122.522 341.927 122.266 342.276C121.953 342.703 121.763 343.384 121.763 344.228C121.763 344.709 122.1 345.22 122.782 345.674C123.489 346.144 124.421 346.434 125.141 346.434C125.174 346.434 125.205 346.433 125.233 346.432L125.257 346.431L125.261 346.4C125.276 346.269 125.286 346.092 125.288 345.862L125.289 345.783C125.289 345.701 125.288 345.624 125.287 345.529L125.272 344.553L125.27 344.228Z" fill="black"/>
<path fill-rule="evenodd" clip-rule="evenodd" d="M126.933 345.523L126.708 346.006C126.669 346.09 126.635 346.164 126.604 346.234L126.581 346.286C126.427 346.633 126.338 346.888 126.301 347.113L126.291 347.187C126.281 347.284 126.282 347.372 126.293 347.455L126.297 347.477L126.312 347.628L126.42 347.79C126.543 347.974 126.753 348.136 127.081 348.283C127.783 348.596 128.734 348.71 129.576 348.571C130.525 348.416 131.241 347.964 131.558 347.252C131.904 346.476 132.013 345.716 131.87 345.078C131.72 344.411 131.303 343.896 130.641 343.604C129.311 343.012 127.799 343.672 127.093 345.171L126.933 345.523ZM130.008 345.032C130.216 345.124 130.304 345.233 130.346 345.42C130.41 345.704 130.348 346.129 130.132 346.616C130.054 346.789 129.796 346.952 129.322 347.03L129.23 347.043C128.829 347.095 128.387 347.061 128.025 346.964L127.992 346.954L128.075 346.77L128.445 345.969L128.485 345.881C128.839 345.084 129.479 344.797 130.008 345.032ZM127.069 346.573L127.567 347.024L127.717 346.924L127.709 346.909L127.696 346.892C127.673 346.861 127.651 346.837 127.631 346.819L127.612 346.803L127.636 346.817L127.629 346.809C127.547 346.715 127.489 346.684 127.281 346.628L127.069 346.573Z" fill="black"/>
<path fill-rule="evenodd" clip-rule="evenodd" d="M126.696 352.138L130.437 358.946L127.231 360.224L125.575 359.251L126.437 360.625L123.046 362.223L119.448 355.439L122.693 353.903L123.682 354.477L123.145 353.728L126.696 352.138ZM121.757 356.03L121.538 356.133L123.71 360.229L124.237 359.981L121.757 356.03ZM122.497 355.679L122.621 355.62L127.528 358.468L127.359 358.535L122.497 355.679ZM128.276 358.17L126.039 354.099L125.467 354.355L128.22 358.192L128.276 358.17Z" fill="#80DAF4"/>
<path fill-rule="evenodd" clip-rule="evenodd" d="M126.477 352.792L129.717 358.688L127.274 359.661L124.042 357.763L125.703 360.41L123.268 361.558L120.144 355.671L122.669 354.476L125.472 356.102L123.919 353.937L126.477 352.792ZM128.995 358.429L126.257 353.445L124.692 354.146L127.262 357.728L122.644 355.048L120.84 355.902L123.488 360.894L124.969 360.196L122.509 356.275L127.316 359.099L128.995 358.429Z" fill="#FF8D43"/>
<path d="M129.517 140.069C136.764 138.617 144.124 141.375 148.97 146.958C157.337 156.599 155.591 171.354 145.205 178.773L116.942 198.964L89.4727 197.392L93.3423 172.575C93.3423 172.575 94.8613 154.298 103.343 148.325C108.287 144.842 120.332 141.909 129.517 140.069Z" fill="#030303"/>
<path d="M171.522 140.01C164.421 138.6 157.211 141.292 152.447 146.745C144.151 156.243 145.877 170.834 156.159 178.132L184.094 197.96L211.286 196.414L207.455 172.006C207.455 172.006 205.952 154.03 197.556 148.155C192.639 144.714 180.629 141.819 171.522 140.01Z" fill="#030303"/>
<path d="M204.241 199.62L189.033 198.352V193.026L202.467 194.801L211.212 193.66L213.873 198.352L204.241 199.62Z" fill="#282828"/>
<path d="M97.0614 202.156L114.132 200.741V194.801L99.0529 196.781L89.2373 195.508L86.25 200.741L97.0614 202.156Z" fill="#282828"/>
<path d="M115.035 164.935C116.118 150.448 128.182 139.247 142.702 139.247H161.574C176.897 139.247 189.318 151.675 189.318 167.005V204.144L189.319 257.958L112.105 255.421L112.104 204.144L115.035 164.935Z" fill="black"/>
<mask id="mask4_0_4022" style="mask-type:luminance" maskUnits="userSpaceOnUse" x="112" y="139" width="78" height="121">
<path fill-rule="evenodd" clip-rule="evenodd" d="M115.015 164.959C115.759 154.886 121.27 143.487 129.768 139.244C136.035 139.244 138.249 139.244 142.685 139.244H161.668C166.024 139.244 170.797 139.244 174.197 139.917C183.433 144.423 189.413 156.029 189.413 167.002V205.126V259.757L112.053 257.182L112.052 205.126L115.015 164.959Z" fill="white"/>
</mask>
<g mask="url(#mask4_0_4022)">
<path d="M171.984 141.034C171.984 151.599 160.083 156.872 148.857 156.872C147.717 155.858 144.064 154.553 140.873 152.688C134.078 148.716 129.632 143.183 131.333 141.034C131.333 130.47 140.433 121.905 151.658 121.905C162.884 121.905 171.984 130.47 171.984 141.034Z" fill="#EED4CC"/>
</g>
<path fill-rule="evenodd" clip-rule="evenodd" d="M151.677 155.845C161.372 155.845 169.231 149.546 169.231 141.776C169.231 140.368 168.973 139.008 168.492 137.725L161.277 136.838H141.785C141.011 136.838 140.24 136.934 139.49 137.124L134.649 138.349C134.307 139.446 134.125 140.594 134.125 141.776C134.125 149.546 141.983 155.845 151.677 155.845Z" fill="#EED4CC"/>
<path d="M161.785 153.085C158.135 153.491 151.646 155.79 148.858 156.889C151.308 157.438 157.374 158.207 162.038 156.889C167.868 155.241 177.12 148.393 179.908 146.111C182.696 143.829 189.732 147.512 188.146 143.068C184.977 134.192 179.401 132.966 175.599 131.529C175.599 130.008 174.56 129.627 172.938 129.627C171.315 129.627 166.727 131.276 162.038 132.036V137.108C163.179 137.024 165.815 137.413 167.234 139.644C169.009 142.434 166.347 152.578 161.785 153.085Z" fill="#FCF6EF"/>
<path d="M135.424 147.886C138.263 148.292 145.647 153.93 148.858 156.889C147.337 156.001 135.297 151.436 131.495 151.69C127.693 151.944 133.649 148.537 131.495 147.886C129.341 147.235 116.904 143.227 113.371 144.209C111.09 144.843 110.958 144.477 111.724 142.561C111.977 141.927 110.33 142.053 110.963 140.912C111.821 139.368 113.751 137.996 119.708 137.489C121.482 136.855 121.355 135.517 123.89 133.685C125.715 132.366 127.566 133.051 128.833 133.051H128.834C129.721 133.051 131.495 133.051 133.269 132.544C135.845 131.807 137.831 131.91 140.24 131.91V136.982C139.057 137.235 136.438 138.072 135.424 139.391C134.156 141.039 131.875 147.379 135.424 147.886Z" fill="#FCF6EF"/>
<path d="M188.707 206.394C190.356 202.152 195.131 200.052 199.371 201.702C203.611 203.353 205.711 208.13 204.061 212.372C201.256 219.584 194.408 226.293 185.172 231.887C176.752 236.987 166.821 240.807 157.72 242.36C153.235 243.125 148.979 240.108 148.215 235.621C147.45 231.134 150.465 226.876 154.95 226.111C161.953 224.916 169.942 221.843 176.64 217.786L177.022 217.552C183.17 213.765 187.406 209.6 188.669 206.49L188.707 206.394Z" fill="#EED4CC"/>
<path d="M197.271 202.536L186.372 201.902L188.146 204.945L185.611 206.213L184.344 210.017L197.271 213.694L205.509 221.809L209.311 218.005L205.509 215.216H209.311L211.085 210.017L197.271 202.536Z" fill="#FCF6EF"/>
<path d="M159.412 154.382C159.606 154.09 160 154.011 160.291 154.206C160.582 154.4 160.661 154.793 160.467 155.085C160.362 155.243 160.224 155.504 160.161 155.694C160.115 155.831 160.134 171.607 160.193 185.416C160.195 185.766 159.912 186.051 159.562 186.052C159.212 186.054 158.927 185.771 158.926 185.421L158.902 179.408C158.85 165.287 158.851 155.615 158.958 155.293C159.062 154.982 159.25 154.626 159.412 154.382Z" fill="#D1C9C1"/>
<path d="M142.12 152.987C142.314 152.696 142.708 152.617 142.999 152.811C143.35 153.044 143.88 153.878 143.913 154.426L143.915 154.515L143.843 165.005L143.805 172.018C143.794 174.438 143.788 176.514 143.788 178.191C143.788 178.541 143.505 178.825 143.155 178.825C142.805 178.825 142.521 178.541 142.521 178.191L142.527 174.79C142.53 173.857 142.533 172.854 142.538 171.785L142.575 164.997L142.648 154.48C142.648 154.461 142.583 154.307 142.475 154.135C142.421 154.048 142.361 153.964 142.307 153.896L142.276 153.86L142.254 153.835L142.228 153.814C142.005 153.616 141.947 153.286 142.097 153.024L142.12 152.987Z" fill="#D1C9C1"/>
<path d="M133.059 235.666C132.377 234.93 132.263 232.169 133.054 230.067C134.4 229.827 136.983 229.591 138.238 230.802C139.807 232.317 140.042 234.996 138.984 235.953C137.926 236.911 133.913 236.587 133.059 235.666Z" fill="#E6E6EB"/>
<path d="M134.659 190.907C139.418 189.613 146.046 191.703 148.766 192.909C149.448 204.142 150.503 227.414 149.259 230.633C147.705 234.658 137.817 231.532 133.631 231.123C129.446 230.713 125.378 226.875 118.682 222.049C111.987 217.222 113.8 212.68 115.624 211.955C117.449 211.229 117.445 206.922 119.652 200.467C121.858 194.012 128.711 192.524 134.659 190.907Z" fill="#171723"/>
<path d="M175.726 182.882C173.603 181.063 170.308 180.769 168.677 180.414L160.614 176.993L155.943 181.314C154.468 184.632 150.695 192.909 144.727 191.467C139.792 190.275 138.381 190.69 135.371 195.431C133.867 197.802 134.743 204.195 137.019 207.662C139.295 211.13 142.616 217.681 141.516 218.453C139.399 219.936 138.666 230.299 143.617 229.648C148.567 228.997 150.383 231.083 153.124 232.1C154.708 232.687 156.688 232.202 156.621 233.977C156.554 235.751 157.502 237.357 159.663 237.295C161.824 237.232 162.982 236.868 162.963 235.253C162.944 233.619 162.254 232.443 163.416 232.055C164.579 231.666 164.758 232.094 166.188 232.851C167.619 233.608 169.984 233.715 170.775 231.467C171.195 230.272 171.316 228.532 169.788 227.813C168.531 227.222 170.235 227.104 171.999 226.37C173.764 225.636 176.989 226.324 179.327 221.549C181.664 216.774 180.128 213.726 179.55 212.167C178.971 210.608 180.26 207.592 182.48 205.815C184.699 204.038 187.52 200.193 187.869 196.428C188.219 192.662 186.625 190.237 184.908 188.686C183.353 187.281 181.309 186.679 180.035 186.559C178.761 186.44 177.516 184.417 175.726 182.882Z" fill="#FDFDFF"/>
<path d="M147.597 188.421C148.589 187.675 150.771 187.148 151.738 186.978L153.213 190.018C152.026 190.731 149.325 192.37 148.024 193.219C146.723 194.068 144.359 199.692 143.34 202.398C143.409 201.772 143.579 200.365 143.717 199.745C143.854 199.124 144.506 196.924 144.815 195.901L142.39 199.557C142.601 198.212 143.469 194.984 145.251 192.825C147.033 190.666 149.837 188.821 151.016 188.168C150.359 188.32 148.829 188.755 147.969 189.273C147.108 189.791 145.154 190.904 144.285 191.396C144.976 190.715 146.606 189.166 147.597 188.421Z" fill="#171723"/>
<path d="M151.146 184.363C152.138 183.618 154.32 183.091 155.287 182.92L156.762 185.96C155.574 186.673 152.874 188.312 151.573 189.161C150.272 190.01 147.908 195.635 146.889 198.341C146.957 197.715 147.128 196.307 147.265 195.687C147.403 195.067 148.055 192.866 148.364 191.844L145.939 195.499C146.15 194.155 147.018 190.927 148.8 188.768C150.582 186.609 153.385 184.763 154.565 184.11C153.907 184.263 152.378 184.698 151.517 185.216C150.657 185.733 148.703 186.847 147.834 187.338C148.525 186.657 150.155 185.108 151.146 184.363Z" fill="#171723"/>
<path d="M150.455 167.984C150.099 170.149 153.016 174.644 154.52 176.621L158.493 180.261C159.115 179.919 160.854 179.132 162.831 178.723C164.807 178.315 167.674 179.698 168.86 180.44L166.911 177.703C165.937 176.334 163.922 176.663 163.965 175.931C164.007 175.199 161.032 170.593 159.498 169.268C157.964 167.942 153.721 161.864 151.991 162.357C150.261 162.85 150.9 165.278 150.455 167.984Z" fill="#171723"/>
<path d="M158.457 179.641C156.373 176.294 145.843 171.452 140.838 169.45C137.962 169.78 146.982 182.935 147.898 186.449C148.814 189.963 152.159 193.268 150.619 194.587C149.078 195.907 149.469 199.223 151.055 201.048C152.642 202.873 154.365 204.163 153.567 207.188C152.769 210.213 153.079 210.195 155.016 209.116C156.952 208.037 158.28 209.949 165.172 212.957C172.063 215.965 170.369 218.371 171.996 217.309C173.622 216.248 171.877 210.771 172.993 206.807C174.108 202.843 172.136 202.44 171.246 199.176C170.356 195.912 174.512 193.056 170.946 191.75C167.38 190.444 167.402 186.817 164.834 184.545C162.265 182.273 160.85 187.487 158.496 184.569C156.142 181.651 161.061 183.825 158.457 179.641Z" fill="#171723"/>
<path d="M149.365 192.012C148.655 193.33 149.407 195.351 149.871 196.196L152.28 194.421L150.505 190.237C150.421 190.279 150.074 190.693 149.365 192.012Z" fill="#171723"/>
<path d="M168.174 193.08C168.795 193.906 169.898 193.939 169.769 194.844C169.899 195.416 168.409 195.328 167.807 195.673C167.204 196.018 167.678 196.578 165.422 196.442C163.166 196.306 161.949 192.75 164.29 191.421C166.63 190.092 167.554 192.253 168.174 193.08Z" fill="#EBEBFF"/>
<path d="M163.605 193.647C163.732 192.752 163.882 191.694 165.181 191.547C167.16 191.413 167.776 193.077 167.699 194.228C167.621 195.378 166.658 196.155 165.394 196.058C164.129 195.962 163.478 194.542 163.605 193.647Z" fill="#6974F5"/>
<path d="M164.154 193.678C164.248 193.014 164.359 192.23 165.298 192.117C166.727 192.012 167.168 193.244 167.108 194.097C167.049 194.95 166.352 195.528 165.439 195.46C164.526 195.392 164.06 194.341 164.154 193.678Z" fill="#171723"/>
<path d="M166.198 192.706C166.171 192.899 166.139 193.128 166.387 193.235C166.77 193.379 166.989 193.069 167.041 192.825C167.093 192.582 166.949 192.364 166.693 192.309C166.438 192.255 166.226 192.512 166.198 192.706Z" fill="#ECECFF"/>
<path d="M100.394 204.632C104.323 202.723 109.022 204.22 111.151 207.965L111.178 208.013L111.197 208.036C111.281 208.136 111.397 208.264 111.54 208.413L111.595 208.471C112.198 209.092 113.055 209.859 114.089 210.687C116.532 212.643 119.599 214.659 122.818 216.363C130.358 220.356 137.488 222.035 142.497 220.832L142.649 220.795C147.058 219.675 151.541 222.343 152.66 226.755C153.779 231.167 151.112 235.652 146.702 236.772C141.416 238.114 135.728 237.961 129.808 236.586C124.921 235.45 119.95 233.495 115.11 230.932C106.548 226.398 98.7851 220.182 96.5831 215.647C94.5954 211.552 96.3016 206.621 100.394 204.632Z" fill="#EED4CC"/>
<path d="M112.231 201.014L113.1 206.34H116.16V210.651L105.767 216.23L100.318 226.374L92.46 222.824L95.7551 218.639L92.46 219.78L88.1509 216.23L89.7745 214.801L86.7568 208.242L88.7846 200.888L97.4027 202.029L112.231 201.014Z" fill="#FCF6EF"/>
<path d="M188.019 202.156L189.413 198.478L204.115 199.62L211.212 198.478L212.859 199.112L211.212 200.127L213.366 200.888L211.212 210.144L199.045 204.945L188.019 202.156Z" fill="#FCF6EF"/>
<path d="M180.93 195.935C180.042 195.256 179.447 194.248 179.696 193.791C179.747 193.437 180.609 193.429 181.323 193.161C182.037 192.893 183.2 192.935 183.553 193.477C183.907 194.02 183.634 196.811 183.075 196.855C182.515 196.899 181.817 196.615 180.93 195.935Z" fill="#DD91A9"/>
<rect x="140.209" y="130.388" width="21.866" height="17.1562" fill="#EED4CC"/>
<path d="M139.811 96.4054C139.811 103.268 137.09 110.148 129.859 110.148C122.628 110.148 113.625 103.268 113.625 96.4054C113.625 89.5429 119.487 83.98 126.718 83.98C133.949 83.98 139.811 89.5429 139.811 96.4054Z" fill="#FFD6C8"/>
<path d="M163.812 95.391C163.812 102.253 166.534 109.133 173.765 109.133C180.996 109.133 189.999 102.253 189.999 95.391C189.999 88.5285 184.137 82.9656 176.906 82.9656C169.675 82.9656 163.812 88.5285 163.812 95.391Z" fill="#FFD6C8"/>
<path d="M120.289 76.9756C119.421 58.8384 133.885 43.6582 152.034 43.6582C170.646 43.6582 185.275 59.5881 183.702 78.1424L181.734 101.351L179.129 113.207C177.877 120.234 173.258 126.2 166.77 129.169L159.588 132.456C157.087 133.6 154.37 134.192 151.62 134.192C148.837 134.192 146.088 133.585 143.563 132.414L137.191 129.459C130.352 126.287 125.371 120.119 123.708 112.763L122.189 105.073C121.7 102.595 121.394 100.085 121.273 97.5623L120.289 76.9756Z" fill="#EED4CC"/>
<mask id="mask5_0_4022" style="mask-type:luminance" maskUnits="userSpaceOnUse" x="120" y="43" width="64" height="92">
<path fill-rule="evenodd" clip-rule="evenodd" d="M120.289 76.9756C119.421 58.8384 133.885 43.6582 152.034 43.6582C170.646 43.6582 185.275 59.5881 183.702 78.1424L181.734 101.351L179.129 113.207C177.877 120.234 173.258 126.2 166.77 129.169L159.588 132.456C157.087 133.6 154.37 134.192 151.62 134.192C148.837 134.192 146.088 133.585 143.563 132.414L137.191 129.459C130.352 126.287 125.371 120.119 123.708 112.763L122.189 105.073C121.7 102.595 121.394 100.085 121.273 97.5623L120.289 76.9756Z" fill="white"/>
</mask>
<g mask="url(#mask5_0_4022)">
<path d="M146.323 130.515C145.207 130.718 142.394 130.261 141.507 131.149C140.113 133.558 145.664 135.587 151.646 135.587C157.628 135.587 162.798 132.135 161.531 131.149C160.39 130.261 157.602 130.895 156.462 130.515C155.327 130.136 154.814 127.979 151.646 127.979C148.478 127.979 147.717 130.261 146.323 130.515Z" fill="#987F67" fill-opacity="0.523164"/>
</g>
<path d="M156.429 116.928C157.14 116.77 157.844 117.218 158.002 117.929C158.16 118.64 157.712 119.345 157.001 119.503C153.154 120.358 150.455 120.386 146.774 119.497C146.067 119.326 145.631 118.614 145.802 117.906C145.973 117.198 146.685 116.763 147.393 116.934C150.664 117.724 152.959 117.7 156.429 116.928Z" fill="#CD9E8E"/>
<path d="M164.826 90.3198C166.506 90.3198 167.868 91.6823 167.868 93.363C167.868 95.0178 166.548 96.3641 164.904 96.4052L164.826 96.4061H164.319C162.64 96.4061 161.278 95.0437 161.278 93.363C161.278 91.7081 162.598 90.3618 164.242 90.3208L164.319 90.3198H164.826Z" fill="black"/>
<path d="M139.479 90.3198C141.159 90.3198 142.521 91.6823 142.521 93.363C142.521 95.0178 141.201 96.3641 139.557 96.4052L139.479 96.4061H138.972C137.292 96.4061 135.931 95.0437 135.931 93.363C135.931 91.7081 137.251 90.3618 138.895 90.3208L138.972 90.3198H139.479Z" fill="black"/>
<path d="M158.227 52.4437C173.71 52.0497 171.939 73.0735 180.035 76.1185C184.412 75.2309 180.869 86.7695 183.652 86.7695C184.125 85.7003 184.598 85.3747 185.611 86.1355C189.16 84.4871 188.653 59.8883 176.568 47.5994C173.28 44.2557 168.852 42.7551 165.563 44.416C161.841 46.296 154.559 49.1219 158.227 52.4437Z" fill="#987F67"/>
<path d="M182.119 93.9889C182.981 91.408 182.638 86.6721 182.696 84.3604L183.753 83.8461C183.854 85.9266 183.656 91.1466 183.399 93.0349C183.079 95.3956 181.293 96.4587 182.119 93.9889Z" fill="#987F67"/>
<path d="M121.206 95.0109C120.541 92.3793 121.236 87.6941 121.351 85.3899L120.338 84.7993C120.082 86.8613 119.889 92.0686 120.003 93.9663C120.145 96.3382 121.842 97.5293 121.206 95.0109Z" fill="#765C43"/>
<path d="M145.817 52.3894C125.082 46.6099 131.517 75.8033 123.891 79.0349C119.582 78.1473 122.993 87.0231 120.188 87.0231C119.748 86.0308 119.075 86.1355 117.554 87.5303C116.793 88.1643 116.05 81.3129 116.033 78.1473C115.994 71.0451 117.554 52.3894 127.566 46.5746C131.647 44.2042 135.106 42.6138 138.421 44.2897C142.174 46.1865 149.515 49.0377 145.817 52.3894Z" fill="#765C43"/>
<path d="M152.718 32.5C136.252 32.5001 125.874 48.9301 125.043 54.9841C124.213 61.0381 125.459 64.4287 126.981 68.1789C128.503 71.9291 131.824 76.7413 135.698 76.7413C137.567 76.7413 145.661 77.0517 147.736 76.7413C149.812 76.4309 153.647 72.9911 154.793 72.9911C155.939 72.9911 156.869 76.7413 160.328 76.7413C163.215 76.7413 168.907 75.7852 170.844 73.9226C172.781 72.0597 180.392 56.2261 178.454 50.3272C176.517 44.4283 169.184 32.4999 152.718 32.5Z" fill="#765C43"/>
<path d="M149.794 96.6113L153.543 98.737C152.373 100.802 151.706 103.01 151.778 104.514C151.831 105.624 152.125 105.961 153.171 105.974L153.236 105.974V110.285C149.72 110.285 147.632 108.048 147.474 104.72C147.36 102.344 148.221 99.4422 149.706 96.7683L149.794 96.6113Z" fill="#EBBAAA"/>
<path d="M162.653 82.8068L159.496 84.9294L160.053 85.6539L164.553 84.5832L168.22 84.3322L172.519 84.0377L170.11 80.3898L162.653 82.8068Z" fill="#393939"/>
<path d="M140.989 82.8986L144.119 85.11L143.538 85.8183L139.024 84.6208L135.33 84.266L130.999 83.8501L133.528 80.2716L140.989 82.8986Z" fill="#393939"/>
<path d="M154.148 90.9126C154.311 90.6847 154.628 90.6319 154.856 90.7947C155.083 90.9575 155.136 91.2743 154.973 91.5022C154.299 92.4463 153.357 92.729 151.773 92.729C150.446 92.729 149.278 92.3522 148.595 91.5321C148.416 91.3169 148.445 90.9971 148.66 90.8178C148.875 90.6385 149.195 90.6675 149.374 90.8827C149.828 91.4276 150.717 91.7146 151.773 91.7146C153.061 91.7146 153.716 91.5178 154.148 90.9126Z" fill="#856A5A"/>
<path d="M154.397 91.9887C154.149 91.2087 154.561 90.3761 155.341 90.1296C157.462 89.4594 161.653 88.2713 165.349 88.0418C169.77 87.7671 173.687 88.467 175.558 88.8872C176.244 89.0414 176.696 89.6729 176.661 90.3761L176.399 95.6699C176.354 96.5801 175.821 97.3911 174.967 97.7081C173.483 98.2589 170.794 99.0897 166.957 99.6296C162.805 100.214 159.582 99.7838 157.918 99.4404C157.125 99.2763 156.525 98.6702 156.279 97.8978L154.397 91.9887Z" fill="white" fill-opacity="0.25"/>
<path d="M164.998 87.5712L165.397 87.5381C171.875 87.0195 176.301 87.6413 177.086 89.4237C177.563 90.5072 177.402 92.7851 176.876 95.4463L176.848 95.5893L175.854 95.3891L175.905 95.1278C176.366 92.742 176.511 90.6332 176.158 89.8329C175.632 88.6387 171.365 88.0601 165.27 88.5662L165.085 88.5819C162.04 88.844 159.51 89.3435 157.617 89.9924C156.154 90.4936 155.195 91.0598 155.022 91.3801C154.954 91.5069 155.107 92.5664 155.438 93.8909L155.492 94.1039C155.767 95.1774 156.128 96.3642 156.334 96.9037L156.354 96.9555L155.411 97.3277C155.185 96.7534 154.779 95.4206 154.482 94.2461L154.398 93.9081C154.016 92.3371 153.887 91.3497 154.13 90.8989C154.863 89.5364 159.122 88.0771 164.998 87.5712Z" fill="#3F2C25"/>
<path d="M149.262 92.1728C149.52 91.3961 149.119 90.5582 148.342 90.3013C146.206 89.5953 141.96 88.3296 138.205 88.0476C133.716 87.7105 129.726 88.3732 127.831 88.7744C127.143 88.9199 126.682 89.5458 126.708 90.2493L126.906 95.6554C126.939 96.5661 127.462 97.3845 128.311 97.7129C129.805 98.2906 132.526 99.1728 136.424 99.7728C140.639 100.422 143.92 100.023 145.606 99.6957C146.402 99.5413 147.009 98.9431 147.265 98.1737L149.262 92.1728Z" fill="white" fill-opacity="0.25"/>
<path d="M126.297 89.2978C127.123 87.487 131.698 86.9217 138.364 87.5624L138.567 87.5822C144.515 88.1717 148.81 89.706 149.535 91.0938C149.774 91.5523 149.63 92.5531 149.222 94.1411L149.163 94.3665C148.863 95.5055 148.449 96.8206 148.198 97.4707L148.151 97.5879L147.213 97.2034L147.256 97.0946C147.49 96.4879 147.893 95.2101 148.183 94.1082L148.229 93.931C148.55 92.6739 148.702 91.6895 148.636 91.5635C148.464 91.2345 147.498 90.6474 146.02 90.1196C144.109 89.4369 141.551 88.8973 138.467 88.5917L138.093 88.5557C132.018 87.991 127.764 88.5232 127.219 89.7189C126.844 90.5422 126.974 92.7469 127.43 95.2281L127.454 95.359L126.458 95.5463C125.939 92.7809 125.791 90.4074 126.297 89.2978Z" fill="#3F2C25"/>
</svg>
