<svg width="300" height="400" viewBox="0 0 300 400" fill="none" xmlns="http://www.w3.org/2000/svg">
<path d="M151.697 254.806C165.302 254.806 176.331 248.022 176.331 239.653C176.331 231.284 165.302 224.5 151.697 224.5C138.092 224.5 127.062 231.284 127.062 239.653C127.062 248.022 138.092 254.806 151.697 254.806Z" fill="#3D3D3D"/>
<path d="M168.162 294.702C171.763 294.702 174.689 297.591 174.747 301.177L174.748 301.286V342.253C174.748 345.89 171.799 348.837 168.162 348.837C164.561 348.837 161.635 345.948 161.577 342.362L161.576 342.253V301.286C161.576 297.649 164.525 294.702 168.162 294.702Z" fill="#6E5243"/>
<path d="M134.26 294.741C137.84 294.35 141.062 296.904 141.51 300.462L141.522 300.57L145.603 337.898C145.998 341.512 143.387 344.763 139.772 345.158C136.192 345.549 132.97 342.995 132.522 339.436L132.509 339.328L128.429 302.001C128.034 298.386 130.644 295.136 134.26 294.741Z" fill="#6E5243"/>
<path d="M117.104 235.224H150.033L148.813 322.956L146.862 329.835L128.202 328.859L120.054 320.113L117.104 235.224Z" fill="#3D3D3D"/>
<path d="M134.874 321.122C135.33 321.122 135.702 321.479 135.726 321.929L135.728 321.976V329.835C135.728 330.63 134.741 330.986 134.231 330.396L134.203 330.362L128.025 322.503C127.734 322.132 127.798 321.596 128.169 321.304C128.527 321.023 129.04 321.074 129.337 321.411L129.368 321.448L134.02 327.367L134.02 321.976C134.02 321.52 134.377 321.148 134.827 321.123L134.874 321.122Z" fill="#272727"/>
<path d="M149.719 236.692H185.199L185.393 323.007L178.815 328.128L159.789 331.4L158.018 323.007L149.719 236.692Z" fill="#3D3D3D"/>
<path opacity="0.2" fill-rule="evenodd" clip-rule="evenodd" d="M121.623 249.769L128.599 230.233L132.694 231.754L125.718 249.769H121.623Z" fill="white"/>
<path opacity="0.2" fill-rule="evenodd" clip-rule="evenodd" d="M182.402 249.769L175.426 230.233L171.331 231.754L178.307 249.769H182.402Z" fill="white"/>
<path d="M175.664 322.451C175.955 322.08 176.492 322.015 176.863 322.307C177.221 322.588 177.293 323.098 177.035 323.466L177.007 323.505L173.649 327.778L177.754 325.345C178.145 325.113 178.647 325.23 178.898 325.603L178.924 325.644C179.156 326.036 179.039 326.537 178.666 326.788L178.625 326.814L170.593 331.573C169.793 332.048 168.93 331.086 169.46 330.347L169.487 330.312L175.664 322.451Z" fill="#272727"/>
<path d="M126.251 326.909H147.35L148.569 328.854L147.35 332.761L142.471 334.341H128.08L127.226 332.761L127.714 330.561L125.763 330.074L126.251 326.909Z" fill="black"/>
<path d="M159.058 326.909L180.766 327.269L178.937 331.171L179.303 333.244L174.059 333.975H168.448L157.96 332.756L159.058 326.909Z" fill="black"/>
<path d="M149.47 337.316C148.429 335.626 146.089 336.033 145.048 336.445L145.308 337.44C145.742 337.523 146.843 337.689 147.259 338.186C147.779 338.806 147.389 340.049 147.779 340.298C148.169 340.547 149.21 340.298 149.73 340.298C150.25 340.298 150.77 339.427 149.47 337.316Z" fill="black"/>
<path d="M103.377 367.955C103.1 367.272 103.148 365.792 104.856 365.109C106.563 364.426 126.717 367.955 126.717 367.955C131.905 367.53 145.84 360.732 150.97 363.856C152.593 364.843 152.043 367.974 151.444 370.903C150.485 371.88 140.786 372.734 137.642 372.002C137.642 370.293 137.397 369.196 137.397 369.196C137.397 369.196 135.492 370.425 133.435 370.903C129.241 371.88 128.323 372.963 115.331 372.963C104.911 371.985 104.162 369.888 103.377 367.955Z" fill="#383129"/>
<path fill-rule="evenodd" clip-rule="evenodd" d="M150.506 366.009C150.158 366.255 149.754 366.451 149.247 366.619L149.175 366.403C149.662 366.241 150.046 366.056 150.375 365.823L150.506 366.009ZM105.229 367.597C104.793 367.268 104.441 366.948 104.199 366.663L104.373 366.515C104.603 366.787 104.943 367.096 105.366 367.416L105.229 367.597ZM107.584 369.017C107.158 368.809 106.753 368.589 106.374 368.363L106.491 368.167C106.865 368.391 107.264 368.607 107.684 368.812L107.584 369.017ZM108.84 369.574C109.262 369.742 109.693 369.897 110.134 370.037L110.203 369.82C109.768 369.682 109.341 369.529 108.925 369.362L108.84 369.574ZM112.809 370.679C112.356 370.605 111.907 370.514 111.462 370.408L111.515 370.186C111.954 370.292 112.398 370.381 112.846 370.454L112.809 370.679ZM114.177 370.85C114.634 370.889 115.092 370.91 115.55 370.914L115.552 370.686C115.1 370.683 114.647 370.661 114.196 370.623L114.177 370.85ZM118.286 370.873C117.834 370.887 117.378 370.898 116.918 370.905L116.915 370.677C117.373 370.67 117.828 370.66 118.279 370.646L118.286 370.873ZM119.652 370.819C120.112 370.796 120.567 370.77 121.018 370.74L121.003 370.513C120.554 370.543 120.1 370.569 119.641 370.591L119.652 370.819ZM123.745 370.507C123.296 370.554 122.842 370.597 122.383 370.637L122.363 370.41C122.821 370.371 123.274 370.328 123.721 370.281L123.745 370.507ZM125.105 370.351C125.565 370.293 126.017 370.232 126.461 370.166L126.428 369.941C125.985 370.006 125.535 370.068 125.077 370.125L125.105 370.351ZM129.158 369.703C128.721 369.789 128.272 369.872 127.812 369.951L127.774 369.727C128.231 369.648 128.678 369.566 129.114 369.479L129.158 369.703ZM130.499 369.418C130.959 369.313 131.403 369.204 131.829 369.091L131.771 368.871C131.348 368.983 130.906 369.091 130.448 369.196L130.499 369.418ZM134.459 368.336L133.147 368.72L133.084 368.501L134.394 368.118L134.459 368.336ZM135.769 367.948L136.673 367.678C136.814 367.635 136.949 367.595 137.077 367.556L137.011 367.338L135.704 367.73L135.769 367.948ZM138.357 367.301L138.375 367.074C138.686 367.097 139.025 367.12 139.378 367.14L139.735 367.16L139.723 367.387C139.361 367.368 139.008 367.347 138.679 367.324L138.357 367.301ZM141.09 367.444C141.557 367.459 142.015 367.468 142.459 367.47L142.46 367.243C142.019 367.24 141.562 367.231 141.097 367.217L141.09 367.444ZM145.199 367.386C144.783 367.421 144.325 367.444 143.829 367.458L143.823 367.23C144.315 367.217 144.769 367.193 145.181 367.16L145.199 367.386ZM146.527 366.986L146.564 367.211L146.976 367.141C147.326 367.08 147.634 367.022 147.912 366.964L147.866 366.741L147.653 366.785C147.325 366.849 146.956 366.915 146.527 366.986Z" fill="#67513B"/>
<path d="M133.663 335.967C134.773 335.967 141.25 339.366 144.611 336.731C144.98 336.44 145.732 336.679 145.732 337.148C145.738 341.678 145.805 349.554 146.484 352.678C147.203 355.989 147.81 355.516 148.529 358.589C149.027 360.717 150.639 365.682 148.529 365.682H138.907C136.63 365.682 133.555 368.325 125.974 369.069C113.389 370.3 110.314 368.613 107.801 367.816C102.084 366.004 104.985 361.856 107.801 360.53C111.926 358.589 117.838 357.13 120.845 355.523C123.187 354.27 123.991 353.88 125.194 352.563C127.176 350.391 128.917 338.964 129.186 335.98C129.204 335.772 129.496 335.665 129.674 335.775C130.846 336.496 132.562 335.967 133.663 335.967Z" fill="#6C3F2E"/>
<path d="M108.495 364.129C108.623 363.708 109.068 363.47 109.489 363.598C112.944 364.645 115.504 364.92 119.337 364.117C119.768 364.027 120.191 364.303 120.281 364.733C120.371 365.164 120.095 365.586 119.664 365.677C117.353 366.161 115.251 366.259 113.262 366.045C111.8 365.888 110.677 365.623 109.027 365.123C108.605 364.995 108.367 364.55 108.495 364.129Z" fill="white"/>
<path d="M123.871 359.759C126.1 357.708 134.232 353.131 133.663 335.967C134.629 335.967 136.965 337.221 140.494 337.447C144.201 337.335 144.14 337.001 145.122 336.448C145.148 336.431 145.179 336.409 145.205 336.392C146.744 335.355 146.052 351.905 147.157 354.838C148.049 357.206 149.721 360.759 149.721 365.085C148.941 366.45 141.248 365.767 138.795 365.767C137.648 359.644 128.653 364.312 126.717 363.743C125.018 363.243 123.871 362.263 123.871 359.759Z" fill="#3A1719"/>
<path d="M126.604 352.383C129.154 350.378 130.133 340.634 130.247 335.967C129.792 335.855 129.678 335.536 129.336 335.65C128.995 335.765 128.995 337.13 128.881 338.269C128.756 339.515 127.856 343.39 127.401 346.009C126.945 348.625 126.49 350.22 124.782 352.383C123.415 354.114 118.064 355.889 116.356 357.367C116.546 357.33 117.039 357.072 117.495 357.165C118.064 357.277 117.95 357.391 118.633 357.391C119.316 357.391 123.415 354.887 126.604 352.383Z" fill="#1D1D20"/>
<path d="M129.137 336.699C129.233 336.414 129.533 336.254 129.82 336.328L129.857 336.339L134.64 337.932C135.157 338.104 135.155 338.825 134.658 339.005L134.616 339.019L131.217 339.991L133.923 341.382C134.394 341.623 134.306 342.312 133.807 342.438L133.767 342.447L130.816 342.995L133.872 344.204C134.356 344.395 134.347 345.074 133.877 345.261L133.836 345.276L129.855 346.545L133.338 348.204C133.841 348.443 133.733 349.179 133.201 349.277L133.161 349.283L128.878 349.796L131.841 352.018C132.268 352.338 132.057 353.009 131.538 353.041L131.499 353.042L126.981 353.042L130.074 356.049C130.476 356.44 130.131 357.106 129.592 357.02L129.556 357.013L123.718 355.736L126.041 358.971C126.379 359.442 125.881 360.049 125.361 359.829L125.328 359.814L119.521 356.968C119.239 356.83 119.122 356.489 119.26 356.207C119.393 355.937 119.711 355.818 119.985 355.93L120.022 355.946L123.795 357.795L121.928 355.194C121.631 354.781 121.985 354.222 122.476 354.3L122.512 354.307L127.85 355.475L125.182 352.881C124.825 352.534 125.055 351.935 125.54 351.905L125.579 351.904L129.791 351.904L127.059 349.856C126.659 349.556 126.814 348.931 127.293 348.841L127.333 348.835L131.074 348.387L128.067 346.954C127.614 346.739 127.645 346.093 128.097 345.913L128.138 345.898L131.97 344.676L128.557 343.327C128.039 343.122 128.098 342.38 128.623 342.247L128.663 342.238L131.921 341.632L129.417 340.346C128.971 340.116 129.022 339.471 129.481 339.305L129.521 339.292L132.534 338.43L129.498 337.419C129.212 337.324 129.052 337.024 129.126 336.737L129.137 336.699Z" fill="black"/>
<path d="M157.04 337.316C158.081 335.626 160.421 336.033 161.462 336.445L161.202 337.44C160.768 337.523 159.667 337.689 159.251 338.186C158.731 338.806 159.121 340.049 158.731 340.298C158.341 340.547 157.3 340.298 156.78 340.298C156.26 340.298 155.74 339.427 157.04 337.316Z" fill="black"/>
<path d="M203.133 367.955C203.41 367.272 203.362 365.792 201.654 365.109C199.947 364.426 179.793 367.955 179.793 367.955C174.605 367.53 160.67 360.732 155.54 363.856C153.917 364.843 154.467 367.974 155.066 370.903C156.025 371.88 165.724 372.734 168.868 372.002C168.868 370.293 169.113 369.196 169.113 369.196C169.113 369.196 171.018 370.425 173.075 370.903C177.269 371.88 178.187 372.963 191.179 372.963C201.599 371.985 202.348 369.888 203.133 367.955Z" fill="#383129"/>
<path fill-rule="evenodd" clip-rule="evenodd" d="M156.135 365.823C156.464 366.056 156.848 366.241 157.335 366.403L157.263 366.619C156.756 366.451 156.352 366.255 156.004 366.009L156.135 365.823ZM201.144 367.416C201.567 367.096 201.907 366.786 202.137 366.515L202.311 366.662C202.069 366.948 201.717 367.268 201.281 367.597L201.144 367.416ZM198.826 368.812C199.246 368.607 199.645 368.39 200.019 368.167L200.136 368.363C199.757 368.589 199.352 368.809 198.926 369.017L198.826 368.812ZM197.585 369.362C197.169 369.529 196.742 369.682 196.307 369.82L196.376 370.037C196.817 369.897 197.249 369.742 197.67 369.574L197.585 369.362ZM193.665 370.454C194.112 370.381 194.556 370.291 194.995 370.186L195.049 370.407C194.604 370.514 194.154 370.605 193.701 370.679L193.665 370.454ZM192.314 370.622C191.863 370.661 191.411 370.682 190.958 370.686L190.96 370.913C191.418 370.91 191.876 370.888 192.333 370.849L192.314 370.622ZM188.231 370.646C188.682 370.66 189.137 370.67 189.595 370.677L189.591 370.905C189.132 370.898 188.676 370.887 188.224 370.873L188.231 370.646ZM186.869 370.591C186.41 370.569 185.956 370.542 185.507 370.513L185.492 370.74C185.943 370.77 186.398 370.796 186.858 370.818L186.869 370.591ZM182.789 370.281C183.236 370.328 183.689 370.371 184.147 370.41L184.127 370.636C183.668 370.597 183.214 370.554 182.765 370.507L182.789 370.281ZM181.433 370.125C180.975 370.068 180.525 370.006 180.082 369.941L180.049 370.166C180.493 370.232 180.945 370.293 181.405 370.351L181.433 370.125ZM177.396 369.479C177.832 369.565 178.279 369.648 178.736 369.726L178.698 369.951C178.238 369.872 177.789 369.789 177.352 369.702L177.396 369.479ZM176.062 369.196C175.604 369.091 175.162 368.983 174.739 368.871L174.681 369.091C175.107 369.203 175.551 369.312 176.011 369.417L176.062 369.196ZM172.116 368.117L173.426 368.501L173.363 368.72L172.052 368.336L172.116 368.117ZM170.806 367.73L169.499 367.338L169.433 367.555L170.741 367.948L170.806 367.73ZM168.135 367.073L168.153 367.3C167.84 367.324 167.5 367.347 167.146 367.367L166.787 367.387L166.775 367.159C167.136 367.141 167.487 367.119 167.816 367.097L168.135 367.073ZM165.412 367.216C164.948 367.231 164.491 367.24 164.05 367.243L164.051 367.47C164.495 367.467 164.953 367.458 165.42 367.444L165.412 367.216ZM161.329 367.159C161.741 367.193 162.195 367.216 162.687 367.23L162.681 367.457C162.185 367.444 161.727 367.42 161.311 367.386L161.329 367.159ZM159.946 367.211L159.983 366.986L159.706 366.94C159.302 366.871 158.955 366.806 158.644 366.741L158.598 366.964L158.813 367.008C159.143 367.073 159.514 367.139 159.946 367.211Z" fill="#67513B"/>
<path d="M172.847 335.967C171.737 335.967 165.26 339.366 161.899 336.731C161.53 336.44 160.778 336.679 160.778 337.148C160.772 341.678 160.704 349.554 160.026 352.678C159.307 355.989 158.7 355.516 157.981 358.589C157.483 360.717 155.871 365.682 157.981 365.682H167.603C169.88 365.682 172.955 368.325 180.536 369.069C193.121 370.3 196.196 368.613 198.708 367.816C204.426 366.004 201.525 361.856 198.708 360.53C194.584 358.589 188.672 357.13 185.665 355.523C183.323 354.27 182.519 353.88 181.316 352.563C179.334 350.391 177.593 338.964 177.324 335.98C177.305 335.772 177.014 335.665 176.836 335.775C175.664 336.496 173.948 335.967 172.847 335.967Z" fill="#6C3F2E"/>
<path d="M197.021 363.598C197.442 363.47 197.887 363.708 198.015 364.129C198.143 364.55 197.905 364.995 197.483 365.123L197.111 365.234C195.658 365.663 194.598 365.9 193.248 366.045C191.259 366.259 189.157 366.161 186.846 365.677C186.415 365.586 186.139 365.164 186.229 364.733C186.32 364.303 186.742 364.027 187.173 364.117C191.006 364.92 193.566 364.645 197.021 363.598Z" fill="white"/>
<path d="M182.64 359.759C180.41 357.708 172.278 353.131 172.847 335.967C171.881 335.967 169.545 337.221 166.016 337.447C162.309 337.335 162.37 337.001 161.388 336.448C161.362 336.431 161.331 336.409 161.305 336.392C159.766 335.355 160.458 351.905 159.353 354.838C158.461 357.206 156.789 360.759 156.789 365.085C157.569 366.45 165.262 365.767 167.715 365.767C168.862 359.644 177.857 364.312 179.793 363.743C181.492 363.243 182.64 362.263 182.64 359.759Z" fill="#3A1719"/>
<path d="M179.906 352.383C177.356 350.378 176.377 340.634 176.263 335.967C176.718 335.855 176.832 335.536 177.174 335.65C177.515 335.765 177.515 337.13 177.629 338.269C177.754 339.515 178.654 343.39 179.109 346.009C179.565 348.625 180.02 350.22 181.728 352.383C183.095 354.114 188.446 355.889 190.154 357.367C189.964 357.33 189.471 357.072 189.015 357.165C188.446 357.277 188.56 357.391 187.877 357.391C187.194 357.391 183.095 354.887 179.906 352.383Z" fill="#1D1D20"/>
<path d="M176.653 336.339C176.951 336.24 177.273 336.401 177.373 336.699C177.468 336.985 177.324 337.293 177.049 337.406L177.012 337.419L173.976 338.43L176.989 339.292C177.471 339.43 177.548 340.073 177.13 340.325L177.093 340.346L174.589 341.632L177.847 342.238C178.395 342.34 178.48 343.079 177.991 343.31L177.953 343.327L174.54 344.676L178.372 345.898C178.85 346.05 178.907 346.694 178.482 346.934L178.444 346.954L175.436 348.387L179.178 348.835C179.674 348.895 179.853 349.514 179.482 349.831L179.451 349.856L176.719 351.904L180.932 351.904C181.43 351.904 181.682 352.493 181.355 352.853L181.328 352.881L178.66 355.475L183.998 354.307C184.496 354.198 184.868 354.744 184.603 355.164L184.582 355.194L182.715 357.795L186.488 355.946C186.758 355.814 187.082 355.915 187.231 356.171L187.25 356.207C187.382 356.477 187.281 356.8 187.025 356.949L186.989 356.968L181.182 359.814C180.662 360.069 180.146 359.477 180.449 359.001L180.469 358.971L182.792 355.736L176.954 357.013C176.407 357.133 176.041 356.478 176.41 356.076L176.436 356.049L179.529 353.042L175.011 353.042C174.477 353.042 174.243 352.378 174.639 352.042L174.669 352.018L177.632 349.796L173.349 349.283C172.796 349.217 172.663 348.485 173.136 348.222L173.172 348.204L176.655 346.545L172.674 345.276C172.179 345.118 172.142 344.44 172.598 344.222L172.638 344.204L175.694 342.995L172.743 342.447C172.223 342.351 172.11 341.666 172.551 341.402L172.587 341.382L175.292 339.991L171.894 339.019C171.37 338.869 171.341 338.148 171.83 337.947L171.87 337.932L176.653 336.339Z" fill="black"/>
<path fill-rule="evenodd" clip-rule="evenodd" d="M161.666 137.763C161.67 137.764 161.655 137.792 161.611 137.843C161.64 137.788 161.662 137.763 161.666 137.763ZM160.416 138.696C160.36 138.664 160.301 138.633 160.239 138.6C158.372 137.614 155.302 136.79 151.523 136.79C147.744 136.79 144.674 137.614 142.806 138.6C142.745 138.633 142.686 138.664 142.629 138.696C142.686 138.727 142.745 138.759 142.806 138.791C144.674 139.777 147.744 140.601 151.523 140.601C155.302 140.601 158.372 139.777 160.239 138.791C160.301 138.759 160.36 138.727 160.416 138.696ZM141.38 137.763C141.384 137.763 141.405 137.788 141.435 137.843C141.39 137.792 141.376 137.764 141.38 137.763ZM141.38 139.628C141.376 139.627 141.39 139.599 141.435 139.548C141.405 139.603 141.384 139.629 141.38 139.628ZM161.611 139.548C161.655 139.599 161.67 139.627 161.666 139.628C161.662 139.629 161.64 139.603 161.611 139.548ZM151.522 147.675C170.687 147.921 168.53 143.655 168.53 138.696C168.53 133.736 160.915 129.716 151.522 129.716C142.129 129.716 134.514 133.736 134.514 138.696C134.514 143.655 132.358 147.43 151.522 147.675Z" fill="black"/>
<path opacity="0.5" d="M181.572 109.45C186.968 109.45 191.341 105.082 191.341 99.6929C191.341 94.3043 186.968 89.9358 181.572 89.9358C176.177 89.9358 171.803 94.3043 171.803 99.6929C171.803 105.082 176.177 109.45 181.572 109.45Z" fill="#C99584"/>
<path d="M118.769 112.173C113.374 112.173 109 103.054 109 94.814C109 86.5744 113.374 82.334 118.769 82.334C124.164 82.334 128.538 89.0137 128.538 97.2533C128.538 105.493 124.164 112.173 118.769 112.173Z" fill="#7B5B4A"/>
<path d="M183.628 112.173C189.023 112.173 193.397 103.054 193.397 94.814C193.397 86.5744 189.023 82.334 183.628 82.334C178.233 82.334 173.859 89.0137 173.859 97.2533C173.859 105.493 178.233 112.173 183.628 112.173Z" fill="#7B5B4A"/>
<path d="M115.724 75.3806C114.773 55.4171 130.721 38.7111 150.731 38.7111C170.741 38.7111 186.69 55.4171 185.738 75.3806L184.118 109.364C183.269 127.164 168.573 141.16 150.731 141.16C132.889 141.16 118.193 127.164 117.345 109.364L115.724 75.3806Z" fill="#8D6956"/>
<path d="M114.308 71.9502C115.306 62.9459 114.824 64.0877 119.159 54.4665C123.494 44.8451 127.323 51.7596 123.494 55.904C119.665 60.0483 119.159 67.1256 119.159 67.1256L116.916 94.0276C116.878 94.4749 116.538 94.8147 116.132 94.8147C115.708 94.8147 115.361 94.4474 115.342 93.9825C115.342 93.9825 113.311 80.9545 114.308 71.9502Z" fill="#281515"/>
<path d="M186.89 70.5586C185.892 61.5543 186.374 62.6961 182.039 53.0749C177.704 43.4535 173.875 50.3681 177.704 54.5124C181.533 58.6567 182.039 65.734 182.039 65.734L184.282 92.6357C184.32 93.0831 184.66 93.4231 185.066 93.4231C185.49 93.4231 185.837 93.0558 185.856 92.5909C185.856 92.5909 187.887 79.563 186.89 70.5586Z" fill="#281515"/>
<path d="M127.822 79.74C126.865 80.4333 125.522 80.2451 124.794 79.3037C124.052 78.3442 124.229 76.9655 125.19 76.2243C125.355 76.097 125.614 75.9227 125.968 75.7191C126.51 75.4071 127.148 75.102 127.882 74.8217C130.181 73.9444 132.957 73.4759 136.198 73.6104C138.961 73.7251 141.174 74.0748 142.903 74.5991C144.344 75.0362 145.273 75.5328 145.783 75.9742C146.701 76.7677 146.801 78.1541 146.007 79.0709C145.243 79.9523 143.93 80.0786 143.014 79.3815L142.987 79.3597L142.937 79.3292C142.921 79.3194 142.901 79.3084 142.88 79.2964L142.845 79.2775C142.565 79.1279 142.164 78.9637 141.626 78.8003C140.27 78.3891 138.422 78.0972 136.015 77.9973C133.38 77.888 131.199 78.2561 129.451 78.9233C128.937 79.1196 128.507 79.3249 128.162 79.5235L128.059 79.5842C128.027 79.6035 127.997 79.6219 127.97 79.6393L127.874 79.7014L127.822 79.74Z" fill="#3D2020"/>
<path d="M158.972 79.74C158.014 80.4333 156.672 80.2451 155.943 79.3037C155.201 78.3442 155.379 76.9655 156.339 76.2243C156.504 76.097 156.763 75.9227 157.117 75.7191C157.659 75.4071 158.297 75.102 159.031 74.8217C161.331 73.9444 164.106 73.4759 167.347 73.6104C170.11 73.7251 172.324 74.0748 174.052 74.5991C175.494 75.0362 176.422 75.5328 176.933 75.9742C177.851 76.7677 177.951 78.1541 177.156 79.0709C176.392 79.9523 175.08 80.0786 174.164 79.3815L174.136 79.3597L174.087 79.3292C174.07 79.3194 174.051 79.3084 174.029 79.2964L173.994 79.2775C173.715 79.1279 173.314 78.9637 172.775 78.8003C171.419 78.3891 169.571 78.0972 167.165 77.9973C164.53 77.888 162.349 78.2561 160.6 78.9233C160.086 79.1196 159.657 79.3249 159.312 79.5235L159.208 79.5842C159.176 79.6035 159.147 79.6219 159.119 79.6393L159.023 79.7014L158.972 79.74Z" fill="#3D2020"/>
<path d="M131.449 85.2141C132.735 84.7977 134.281 84.5901 136.077 84.6828C137.485 84.7555 138.641 84.9249 139.573 85.1703C140.486 85.4104 141.112 85.7012 141.501 85.994C142.471 86.7235 142.664 88.1 141.934 89.0684C141.231 90.0003 139.929 90.2148 138.967 89.5797L138.909 89.5396C138.963 89.5785 138.993 89.5961 138.993 89.5961C138.894 89.5505 138.74 89.4944 138.521 89.4343L138.453 89.4161C137.827 89.2512 136.968 89.1254 135.85 89.0677C134.594 89.0028 133.585 89.1384 132.805 89.3908C132.63 89.4476 132.485 89.5046 132.371 89.5576L132.284 89.6L132.261 89.612L132.254 89.6172C131.266 90.2262 129.971 89.9607 129.303 89.0121L129.266 88.9567C128.597 87.9444 128.877 86.5828 129.891 85.9154C130.22 85.6982 130.74 85.444 131.449 85.2141Z" fill="#252525"/>
<path d="M160.973 85.2141C162.259 84.7977 163.804 84.5901 165.601 84.6828C167.008 84.7555 168.164 84.9249 169.097 85.1703C170.009 85.4104 170.635 85.7012 171.024 85.994C171.994 86.7235 172.188 88.1 171.458 89.0684C170.755 90.0003 169.452 90.2148 168.491 89.5797L168.432 89.5396C168.486 89.5785 168.516 89.5961 168.516 89.5961C168.418 89.5505 168.263 89.4944 168.044 89.4343L167.977 89.4161C167.35 89.2512 166.492 89.1254 165.374 89.0677C164.117 89.0028 163.108 89.1384 162.329 89.3908C162.153 89.4476 162.009 89.5046 161.894 89.5576L161.826 89.5907L161.787 89.611L161.778 89.6171C160.79 90.2262 159.495 89.9608 158.827 89.0123L158.789 88.9568C158.121 87.9446 158.401 86.583 159.414 85.9155C159.744 85.6983 160.263 85.4441 160.973 85.2141Z" fill="#252525"/>
<path d="M149.792 86.2107L153.624 87.8056C152.338 90.8891 151.342 95.4661 151.342 98.9606C151.342 100.855 151.626 102.349 152.149 103.29C152.585 104.073 153.142 104.428 154.068 104.448L154.15 104.449V108.596C151.638 108.596 149.688 107.403 148.52 105.303C147.599 103.648 147.19 101.498 147.19 98.9606C147.19 94.9634 148.265 89.9558 149.715 86.3967L149.792 86.2107Z" fill="#7B5B4A"/>
<path fill-rule="evenodd" clip-rule="evenodd" d="M151.355 29.206L151.355 29.2058C151.339 29.2058 151.324 29.2058 151.308 29.2059C151.293 29.2058 151.277 29.2058 151.261 29.2058L151.261 29.206C141.266 29.245 115.664 38.9206 114.765 68.2189C117.422 64.61 118.548 64.8837 122.194 62.5286C125.126 60.634 126.469 57.5554 134.307 55.5472C142.145 53.5387 146.124 57.2449 151.261 57.2449C155.269 57.2449 159.959 54.2082 165.57 56.0253C171.182 57.8423 175.263 61.1226 177.862 62.5286C183.156 65.3928 181.51 63.9497 186.685 68.2189C185.785 38.9206 161.35 29.245 151.355 29.206Z" fill="#342929"/>
<path d="M123.498 38.7181L121.677 46.8595L149.343 41.0768L181.435 49.4803L181.191 42.6901L178.885 41.7715L178.739 39.17L175.881 39.3554L175.655 35.3348L171.98 35.5732L170.991 32.5516L167.725 32.7635L165.612 29.8147L162.297 30.9792L161.17 29.1534L157.7 29.3785L157.58 27.25L153.005 29.6831L151.66 27.634L149.739 29.895L147.578 27.8989L143.819 30.279L141.249 28.3094L138.715 30.61L136.878 30.7292L134.943 32.7536L134.02 30.9146L130.776 35.1602L128.478 34.3599L125.777 39.1637L123.498 38.7181Z" fill="#342929"/>
<path fill-rule="evenodd" clip-rule="evenodd" d="M139.064 114.615V117.608C139.064 122.216 144.585 125.95 151.392 125.95C158.202 125.95 163.721 122.216 163.721 117.608V114.615H139.064Z" fill="#393939"/>
<mask id="mask0_0_4188" style="mask-type:luminance" maskUnits="userSpaceOnUse" x="139" y="114" width="25" height="12">
<path fill-rule="evenodd" clip-rule="evenodd" d="M139.084 114.612C139.07 114.767 139.064 114.922 139.064 115.078V117.994C139.064 122.388 144.585 125.95 151.392 125.95C158.202 125.95 163.721 122.388 163.721 117.994V115.078C163.721 114.922 163.714 114.767 163.701 114.612H139.084Z" fill="white"/>
</mask>
<g mask="url(#mask0_0_4188)">
<path d="M151.393 128.624C155.499 128.624 158.827 127.398 158.827 125.886C158.827 124.374 155.499 123.148 151.393 123.148C147.286 123.148 143.958 124.374 143.958 125.886C143.958 127.398 147.286 128.624 151.393 128.624Z" fill="#FF6C6C"/>
</g>
<rect x="139.064" y="114.615" width="24.6576" height="3.43852" fill="white"/>
<path opacity="0.2" d="M146.171 54.1475C144.534 53.1965 144.284 49.3366 144.284 47.1953C144.284 45.0539 145.161 43.8856 145.161 43.8856C145.161 43.8856 146.751 51.0987 150.398 54.4144C152.225 56.0755 148.217 55.3364 146.171 54.1475Z" fill="#8D5454"/>
<path opacity="0.2" d="M136.386 52.7179C134.242 50.464 134.692 49.2242 135.031 45.7304C135.37 42.2366 139.206 39.9825 139.206 39.9825C139.206 39.9825 140.24 50.424 144.622 54.4085C146.818 56.4048 138.529 54.972 136.386 52.7179Z" fill="#8D5454"/>
<path d="M190.108 109.771C192.005 108.362 194.464 107.612 197.175 108.088C199.692 108.529 201.571 109.854 202.876 111.543C203.544 112.41 203.977 113.256 204.301 114.132C204.628 115.015 204.809 115.837 204.936 116.74C205.202 118.623 205.244 121.304 205.125 124.835L205.118 125.043C204.875 131.971 204.029 141.373 202.829 149.98L202.698 150.913C201.267 160.908 199.482 169.1 197.321 174.527C196.571 176.41 195.749 178.042 194.782 179.456C193.302 181.619 191.484 183.32 188.998 184.33C185.533 185.738 181.781 185.256 178.738 183.22C176.731 181.878 175.225 180.045 173.931 177.748C171.481 173.402 173.016 167.891 177.358 165.439C178.704 164.679 180.162 164.302 181.606 164.274L181.718 164.272L181.761 164.12C182.87 160.105 183.948 154.533 184.867 148.059L184.948 147.483L185.044 146.785C186.109 138.97 186.86 130.512 187.075 124.409L187.09 123.946C187.104 123.49 187.115 123.057 187.122 122.647L187.126 122.34L187.073 122.244C185.904 120.089 185.611 117.471 186.47 114.98L186.52 114.839C186.862 113.898 187.243 113.07 187.81 112.211C188.393 111.329 189.102 110.517 190.108 109.771Z" fill="#6E5243"/>
<path d="M114.094 156.531C114.545 151.269 118.326 146.895 123.463 145.689L151.189 142.952L179.434 145.689C184.571 146.895 188.351 151.269 188.803 156.531L192.925 204.531L189.266 228.07L187.545 230.785C187.097 231.49 186.32 231.918 185.485 231.918H116.071L113.631 228.07L109.971 204.531L114.094 156.531Z" fill="black"/>
<path d="M116.071 231.918H186.826L187.511 235.625C187.789 237.127 186.638 238.512 185.113 238.512H117.784C116.259 238.512 115.107 237.127 115.385 235.625L116.071 231.918Z" fill="black"/>
<rect x="142.556" y="98.9672" width="7.95439" height="2.17576" rx="0.422035" fill="#636363"/>
<path d="M141.85 102.329C141.85 100.792 145.886 99.5464 147.421 99.5464H198.693C200.228 99.5464 201.473 100.792 201.473 102.329V128.423C201.473 129.96 200.228 131.206 198.693 131.206H144.63C143.094 131.206 141.85 129.96 141.85 128.423V102.329Z" fill="#121413"/>
<path d="M141.85 105.151H156.814C158.349 105.151 159.594 106.397 159.594 107.934V126.337C159.594 127.874 158.349 129.12 156.814 129.12H141.85V105.151Z" fill="#434448"/>
<g opacity="0.2">
<path fill-rule="evenodd" clip-rule="evenodd" d="M163.923 115.376C163.923 107.23 170.521 100.626 178.659 100.626C186.798 100.626 193.395 107.23 193.395 115.376C193.395 123.522 186.798 130.126 178.659 130.126C170.521 130.126 163.923 123.522 163.923 115.376ZM191.336 115.376C191.336 108.368 185.66 102.688 178.659 102.688C171.658 102.688 165.982 108.368 165.982 115.376C165.982 122.384 171.658 128.064 178.659 128.064C185.66 128.064 191.336 122.384 191.336 115.376Z" fill="#636363"/>
<path fill-rule="evenodd" clip-rule="evenodd" d="M163.923 115.376C163.923 107.23 170.521 100.626 178.659 100.626C186.798 100.626 193.395 107.23 193.395 115.376C193.395 123.522 186.798 130.126 178.659 130.126C170.521 130.126 163.923 123.522 163.923 115.376ZM191.336 115.376C191.336 108.368 185.66 102.688 178.659 102.688C171.658 102.688 165.982 108.368 165.982 115.376C165.982 122.384 171.658 128.064 178.659 128.064C185.66 128.064 191.336 122.384 191.336 115.376Z" fill="#636363"/>
</g>
<path d="M178.66 124.139C183.495 124.139 187.415 120.216 187.415 115.376C187.415 110.536 183.495 106.613 178.66 106.613C173.824 106.613 169.904 110.536 169.904 115.376C169.904 120.216 173.824 124.139 178.66 124.139Z" fill="#434448"/>
<rect x="172.433" y="110.964" width="12.4548" height="8.82516" rx="2.42671" fill="#121413"/>
<rect x="175.536" y="110.964" width="6.67751" height="0.699201" fill="#121413"/>
<rect x="175.536" y="119.002" width="6.67751" height="0.802263" fill="#121413"/>
<path d="M178.66 118.4C180.329 118.4 181.681 117.046 181.681 115.376C181.681 113.706 180.329 112.352 178.66 112.352C176.992 112.352 175.639 113.706 175.639 115.376C175.639 117.046 176.992 118.4 178.66 118.4Z" fill="#2E2E2E"/>
<mask id="mask1_0_4188" style="mask-type:luminance" maskUnits="userSpaceOnUse" x="175" y="112" width="7" height="7">
<path fill-rule="evenodd" clip-rule="evenodd" d="M178.66 118.4C180.329 118.4 181.681 117.046 181.681 115.376C181.681 113.706 180.329 112.352 178.66 112.352C176.992 112.352 175.639 113.706 175.639 115.376C175.639 117.046 176.992 118.4 178.66 118.4Z" fill="white"/>
</mask>
<g mask="url(#mask1_0_4188)">
<path d="M178.66 116.61C179.341 116.61 179.893 116.058 179.893 115.376C179.893 114.694 179.341 114.142 178.66 114.142C177.979 114.142 177.427 114.694 177.427 115.376C177.427 116.058 177.979 116.61 178.66 116.61Z" fill="#121413"/>
</g>
<path d="M187.883 92.8119L201.313 92.7088L199.62 91.597C199.419 91.4651 199.184 91.3948 198.943 91.3948H188.295C188.068 91.3948 187.883 91.5792 187.883 91.807V92.8119Z" fill="#434448"/>
<path d="M187.883 92.5155H200.855C201.196 92.5155 201.473 92.7924 201.473 93.1338V97.4135H187.883V92.5155Z" fill="#636363"/>
<rect opacity="0.65" x="190.581" y="93.1667" width="9.38513" height="3.43431" rx="0.422035" fill="white"/>
<path d="M160.376 98.5669C160.533 98.3712 160.77 98.2572 161.02 98.2572H186.458C186.708 98.2572 186.945 98.3712 187.101 98.5669L187.884 99.5464H159.594L160.376 98.5669Z" fill="#222423"/>
<rect x="187.884" y="97.4135" width="8.8602" height="2.13278" fill="#222423"/>
<rect x="190.984" y="93.682" width="8.61512" height="0.57303" fill="white"/>
<rect x="190.984" y="94.5946" width="8.61512" height="0.57303" fill="white"/>
<rect x="190.984" y="95.5072" width="8.61512" height="0.57303" fill="white"/>
<path d="M151.694 98.646C151.788 98.4113 152.015 98.2572 152.268 98.2572H156.888C157.141 98.2572 157.368 98.4113 157.462 98.646L157.821 99.5464H151.334L151.694 98.646Z" fill="#636363"/>
<path d="M140.714 106.104C143.157 105.821 145.413 105.871 147.517 106.382C149.036 106.751 150.471 107.36 151.786 108.298C153.534 109.543 154.904 111.273 155.668 113.374C157.371 118.064 154.954 123.248 150.269 124.954C147.594 125.927 144.757 125.556 142.499 124.186L142.376 124.11L142.309 124.12C140.377 124.419 137.748 125.24 135.01 126.476L134.835 126.556C127.519 129.901 121.604 135.081 119.404 140.41C118.221 143.276 117.928 145.649 118.274 147.488C118.46 148.476 118.82 149.236 119.264 149.76L119.323 149.828L119.363 149.777C122.049 146.419 126.823 145.381 130.708 147.492L130.839 147.564C135.181 150.016 136.716 155.527 134.266 159.874C131.47 164.835 126.745 167.913 121.332 168.382C116.505 168.8 111.674 167.096 107.856 163.826C99.986 157.083 97.7941 145.436 102.718 133.509C106.91 123.353 116.222 115.2 127.332 110.119C131.986 107.991 136.69 106.569 140.714 106.104Z" fill="#6E5243"/>
<path d="M186.157 136.487L205.739 145.278L201.457 170.281C200.482 175.976 196.579 180.733 191.188 182.798L187.133 184.351L178.902 152.116L186.157 136.487Z" fill="black"/>
<path d="M112.471 136.916C117.042 138.494 121.874 136.916 122.539 135.258L137.119 149.091L143.786 163.043L118.559 173.015V190.338L94.5291 157.867C94.3598 157.638 94.2586 157.368 94.2527 157.083C94.124 150.819 98.6215 138.718 101.417 130.286C101.941 128.708 102.581 129.26 104.408 128.708C105.612 133.025 107.9 135.337 112.471 136.916Z" fill="black"/>
</svg>
