<svg width="300" height="400" viewBox="0 0 300 400" fill="none" xmlns="http://www.w3.org/2000/svg">
<path d="M178.373 282.709L178.748 360.459L161.748 360.541L161.373 282.791L178.373 282.709Z" fill="#F6DDD6"/>
<path d="M128.123 272.238L145.123 272.262L144.998 359.762L127.998 359.738L128.123 272.238Z" fill="#F6DDD6"/>
<path d="M100.67 371.012C100.62 365.31 101.401 364.327 106.389 361.995C111.376 359.665 116.074 356.427 124.703 352.587C124.703 352.587 125.839 352.372 127.687 353.367C129.265 354.215 131.291 356.295 134.345 356.267C137.66 356.24 140.615 355.542 142.451 354.585C143.244 352.425 145.004 352.41 145.004 352.41C145.004 352.41 147.481 357.095 147.522 361.802C147.563 366.512 147.558 370.605 147.558 370.605L100.67 371.012Z" fill="#161616"/>
<path d="M135.273 358.95C137.02 358.95 138.444 359.528 140.034 360.638L140.218 360.769C140.517 360.987 141.429 361.671 141.657 361.824C142.012 362.062 142.245 362.168 142.376 362.179L142.398 362.18V363.93C141.864 363.93 141.371 363.728 140.772 363.337L140.681 363.277C140.39 363.081 139.323 362.28 139.145 362.153C137.773 361.176 136.637 360.7 135.273 360.7C134.194 360.7 133.32 360.986 132.19 361.645L132.068 361.717C131.723 361.922 130.47 362.727 130.285 362.842C128.101 364.196 126.19 364.924 123.477 365.169C120.373 365.449 118.355 364.884 116.428 363.582L116.267 363.472C116.213 363.434 116.157 363.395 116.099 363.354L115.635 363.019L116.661 361.601L117.03 361.868L117.189 361.981C117.265 362.035 117.337 362.084 117.408 362.132C119.011 363.215 120.631 363.669 123.319 363.426C125.675 363.214 127.314 362.606 129.222 361.441L129.43 361.312C129.733 361.121 130.761 360.462 131.136 360.235L131.171 360.214C132.61 359.356 133.796 358.95 135.273 358.95Z" fill="white"/>
<path d="M122.902 351.687C123.243 351.535 123.643 351.687 123.796 352.029C123.989 352.461 124.129 352.936 124.225 353.452L124.256 353.632C124.37 354.315 124.396 354.923 124.396 355.935C124.396 356.409 123.924 356.731 123.488 356.571L123.448 356.555L120.151 355.109L120.853 357.639C120.993 358.145 120.531 358.605 120.034 358.476L119.994 358.464L116.682 357.403L116.682 360.375C116.682 360.873 116.165 361.195 115.722 360.99L115.685 360.971L113.434 359.76L113.434 361.99C113.434 362.35 113.153 362.644 112.798 362.666L112.757 362.667C112.397 362.667 112.103 362.386 112.082 362.031L112.08 361.99V358.628C112.08 358.13 112.597 357.807 113.04 358.013L113.078 358.032L115.328 359.243L115.329 356.475C115.329 356.031 115.748 355.711 116.171 355.819L116.212 355.831L119.213 356.793L118.466 354.098C118.317 353.562 118.842 353.091 119.353 353.283L119.39 353.298L123.025 354.892L123.021 354.808C123.002 354.431 122.967 354.113 122.908 353.776L122.894 353.698C122.817 353.282 122.707 352.909 122.561 352.581C122.408 352.24 122.561 351.84 122.902 351.687Z" fill="white"/>
<path d="M102.557 362.432C104.087 361.882 105.708 361.465 108.815 360.765L107.494 364.542L107.532 368.847L98.6885 368.922C98.3276 368.927 97.6828 368.447 97.9907 366.507C98.3756 364.085 100.383 363.217 102.557 362.432Z" fill="#393A40"/>
<path d="M141.523 362.805C142.641 361.63 146.148 360.32 147.398 360.692L147.648 365.165L147.648 368.92C140.456 368.922 139.898 368.922 139.898 368.922C140.282 366.497 139.398 365.042 141.523 362.805Z" fill="#393A40"/>
<path d="M147.753 371.147L147.7 367.825L128.249 368.63L107.799 368.44L97.912 367.72L97.6704 369.885C97.5339 371.11 98.445 372.202 99.6742 372.287L107.848 372.847L146.687 372.247C147.285 372.237 147.762 371.745 147.753 371.147Z" fill="#D3D5E0"/>
<path d="M147.264 368.643L147.281 369.142L128.398 369.765L107.756 369.767L98.3811 369.144L98.4142 368.645L107.773 369.267L128.39 369.265L147.264 368.643Z" fill="black"/>
<path d="M203.851 371.012C203.901 365.31 203.119 364.327 198.132 361.995C193.144 359.665 188.446 356.427 179.817 352.587C179.817 352.587 178.682 352.372 176.833 353.367C175.255 354.215 173.229 356.295 170.176 356.267C166.86 356.24 163.905 355.542 162.07 354.585C161.276 352.425 159.517 352.41 159.517 352.41C159.517 352.41 157.04 357.095 156.999 361.802C156.958 366.512 156.962 370.605 156.962 370.605L203.851 371.012Z" fill="#161616"/>
<path d="M169.247 358.95C170.679 358.95 171.836 359.331 173.215 360.135L173.349 360.214C173.724 360.437 174.995 361.254 175.158 361.355C177.127 362.576 178.788 363.208 181.201 363.426C183.89 363.669 185.51 363.215 187.113 362.132L187.257 362.033L187.634 361.765L187.86 361.601L188.886 363.019L188.51 363.29L188.336 363.414C188.252 363.473 188.173 363.528 188.093 363.582C186.166 364.884 184.148 365.449 181.044 365.169C178.391 364.93 176.505 364.228 174.381 362.931L174.125 362.772C173.76 362.541 172.756 361.897 172.453 361.717C171.262 361.007 170.366 360.7 169.247 360.7C167.925 360.7 166.817 361.147 165.5 362.065L165.329 362.187C165.068 362.377 164.178 363.044 163.871 363.255L163.839 363.277C163.229 363.687 162.733 363.908 162.203 363.928L162.123 363.93V362.18C162.241 362.18 162.462 362.087 162.802 361.865L162.864 361.824C163.1 361.665 164.075 360.934 164.335 360.746L164.361 360.727C166.002 359.558 167.455 358.95 169.247 358.95Z" fill="white"/>
<path d="M180.725 352.029C180.877 351.688 181.277 351.535 181.619 351.687C181.96 351.84 182.113 352.24 181.96 352.581C181.814 352.909 181.704 353.282 181.627 353.698C181.559 354.065 181.52 354.402 181.499 354.808L181.495 354.892L185.131 353.298C185.641 353.074 186.181 353.527 186.064 354.06L186.055 354.098L185.307 356.793L188.309 355.831C188.732 355.695 189.164 355.997 189.191 356.432L189.192 356.475L189.192 359.243L191.443 358.032C191.881 357.796 192.41 358.098 192.439 358.585L192.44 358.628V361.99C192.44 362.364 192.137 362.667 191.764 362.667C191.404 362.667 191.11 362.386 191.088 362.031L191.087 361.99L191.087 359.76L188.836 360.971C188.398 361.207 187.869 360.905 187.84 360.417L187.839 360.375L187.839 357.403L184.526 358.464C184.027 358.625 183.549 358.182 183.658 357.679L183.668 357.639L184.37 355.109L181.073 356.555C180.639 356.745 180.154 356.442 180.126 355.978L180.124 355.935L180.126 355.559C180.133 354.684 180.172 354.121 180.296 353.452C180.391 352.936 180.531 352.461 180.725 352.029Z" fill="white"/>
<path d="M201.964 362.432C200.433 361.882 198.813 361.465 195.706 360.765L197.027 364.542L196.989 368.847L205.832 368.922C206.193 368.927 206.838 368.447 206.53 366.507C206.145 364.085 204.138 363.217 201.964 362.432Z" fill="#393A40"/>
<path d="M162.998 362.805C161.88 361.63 158.372 360.32 157.122 360.692L156.873 365.165L156.873 368.92C164.064 368.922 164.623 368.922 164.623 368.922C164.238 366.497 165.123 365.042 162.998 362.805Z" fill="#393A40"/>
<path d="M156.768 371.147L156.821 367.825L176.271 368.63L196.722 368.44L206.609 367.72L206.85 369.885C206.987 371.11 206.076 372.202 204.846 372.287L196.673 372.847L157.834 372.247C157.236 372.237 156.758 371.745 156.768 371.147Z" fill="#D3D5E0"/>
<path d="M157.256 368.643L176.123 369.265L196.731 369.268L206.106 368.645L206.14 369.144L196.748 369.767L176.115 369.765L157.24 369.142L157.256 368.643Z" fill="black"/>
<path d="M150.498 238H182.998L180.748 347H157.205L150.498 238Z" fill="#252424"/>
<path d="M150.998 238H118.498L123.498 347H147.041L150.998 238Z" fill="#252424"/>
<path fill-rule="evenodd" clip-rule="evenodd" d="M108.426 82.125C106.801 96.1667 102.555 130.658 101.175 137.125C100.14 141.978 98.5354 147.166 97.0202 152.065C95.6084 156.63 94.2743 160.943 93.5507 164.5C92.5362 169.488 90.4256 193.75 95.5506 191.125C98.8694 189.425 138.969 165.551 160.582 147.255C162.94 148.916 167.099 150.469 171.176 151.992C175.102 153.458 178.952 154.896 181.05 156.375C201.8 171 197.675 144.5 196.8 139.25C196.54 137.692 196.116 135.748 195.646 133.602C194.535 128.517 193.175 122.297 193.175 117.375C193.175 116.784 193.191 115.716 193.21 114.376C193.269 110.333 193.363 103.818 193.175 100.5L187.3 101.25L172.925 113.375C172.114 115.251 170.403 118.598 168.438 122.443C167.379 124.515 166.247 126.731 165.141 128.94L114.301 79.75L108.426 82.125Z" fill="#17100F"/>
<path d="M150.748 258.5C166.626 258.5 179.498 252.624 179.498 245.375C179.498 238.126 166.626 232.25 150.748 232.25C134.87 232.25 121.998 238.126 121.998 245.375C121.998 252.624 134.87 258.5 150.748 258.5Z" fill="#252424"/>
<path d="M133.498 231.992V143.5H167.498V231.992C167.498 231.992 155.579 234.25 150.498 234.25C145.417 234.25 133.498 231.992 133.498 231.992Z" fill="#FAF3EA"/>
<path d="M140.498 132L144.125 133.814C148.137 135.819 152.859 135.819 156.871 133.814L160.498 132V144.5C160.498 150.023 156.021 154.5 150.498 154.5C144.975 154.5 140.498 150.023 140.498 144.5V132Z" fill="#EADFD2"/>
<path d="M133.748 241.75V227H167.748V241.75H133.748Z" fill="#EADFD2"/>
<path d="M100.689 162.712C102.293 150.751 113.377 142.418 125.313 144.202C136.996 145.948 145.114 156.748 143.545 168.456L136.3 222.514C134.697 234.475 123.612 242.808 111.676 241.024C99.9934 239.278 91.8748 228.478 93.444 216.77L100.689 162.712Z" fill="#2B4166"/>
<path d="M200.375 158.578C198.805 146.587 187.705 138.216 175.745 140.004C164.087 141.746 155.974 152.505 157.504 164.192L165.108 222.256C166.678 234.247 177.778 242.618 189.739 240.83C201.396 239.088 209.509 228.329 207.979 216.642L200.375 158.578Z" fill="#2B4166"/>
<path d="M105.969 275.036L116.706 141.682L139.873 140L147.998 187.375C145.851 215.721 142.904 279.545 142.904 282.982C142.904 286.417 116.706 278.615 105.969 275.036Z" fill="#3C557C"/>
<path d="M124.073 229.309L114.106 249.008L111.045 245.11L121.114 227.944L124.073 229.309Z" fill="#62789C"/>
<path d="M148.123 187.125L140.123 137.125L122.498 139.375L143.873 186.375L145.873 221.5L148.123 187.125Z" fill="#62789C"/>
<path d="M195.301 273.533L184.623 141.625L160.248 140.625L153.373 188C155.521 216.346 158.365 278.042 158.365 281.477C158.365 284.915 184.564 277.112 195.301 273.533Z" fill="#3C557C"/>
<path d="M174.256 229.059L184.223 248.758L187.284 244.86L177.215 227.694L174.256 229.059Z" fill="#62789C"/>
<path d="M153.373 188.25L160.748 137.75C160.748 137.75 173.706 139 176.623 139L159.248 190.375L155.748 228.75L153.373 188.25Z" fill="#62789C"/>
<path d="M175.906 138.801C176.016 138.474 176.37 138.298 176.698 138.408C177.012 138.514 177.186 138.844 177.102 139.16L177.091 139.2L159.863 190.383L156.37 225.063C156.337 225.393 156.053 225.636 155.727 225.625L155.686 225.622C155.356 225.589 155.112 225.305 155.124 224.979L155.126 224.938L158.633 190.118L175.906 138.801Z" fill="white"/>
<path d="M124.016 138.67C124.323 138.547 124.67 138.685 124.811 138.978L124.828 139.018L144.116 187.112L146.122 221.464C146.142 221.808 145.879 222.104 145.535 222.124C145.204 222.143 144.918 221.902 144.878 221.578L144.874 221.537L142.88 187.388L123.668 139.483C123.545 139.176 123.683 138.829 123.976 138.687L124.016 138.67Z" fill="white"/>
<path d="M140.435 194.938C141.799 194.938 142.904 193.832 142.904 192.469C142.904 191.105 141.799 189.999 140.435 189.999C139.071 189.999 137.965 191.105 137.965 192.469C137.965 193.832 139.071 194.938 140.435 194.938Z" fill="#536F9D"/>
<path d="M138.932 228.438C140.296 228.438 141.401 227.332 141.401 225.968C141.401 224.604 140.296 223.499 138.932 223.499C137.568 223.499 136.462 224.604 136.462 225.968C136.462 227.332 137.568 228.438 138.932 228.438Z" fill="#536F9D"/>
<path d="M140.005 211.688C141.369 211.688 142.475 210.582 142.475 209.218C142.475 207.854 141.369 206.749 140.005 206.749C138.641 206.749 137.536 207.854 137.536 209.218C137.536 210.582 138.641 211.688 140.005 211.688Z" fill="#536F9D"/>
<path d="M136.999 244.543C138.363 244.543 139.468 243.437 139.468 242.074C139.468 240.71 138.363 239.604 136.999 239.604C135.635 239.604 134.529 240.71 134.529 242.074C134.529 243.437 135.635 244.543 136.999 244.543Z" fill="#536F9D"/>
<path d="M135.496 258.501C136.86 258.501 137.965 257.396 137.965 256.032C137.965 254.668 136.86 253.562 135.496 253.562C134.132 253.562 133.026 254.668 133.026 256.032C133.026 257.396 134.132 258.501 135.496 258.501Z" fill="#536F9D"/>
<rect x="140.498" y="123" width="20" height="29" rx="10" fill="#EBBAAA"/>
<path opacity="0.5" d="M189.998 99.75C195.521 99.75 199.998 95.2727 199.998 89.75C199.998 84.2273 195.521 79.75 189.998 79.75C184.475 79.75 179.998 84.2273 179.998 89.75C179.998 95.2727 184.475 99.75 189.998 99.75Z" fill="#DE8E7C"/>
<path opacity="0.5" d="M111.498 99.75C105.975 99.75 101.498 95.2727 101.498 89.75C101.498 84.2273 105.975 79.75 111.498 79.75C117.021 79.75 121.498 84.2273 121.498 89.75C121.498 95.2727 117.021 99.75 111.498 99.75Z" fill="#DE8E7C"/>
<path d="M112.748 68.5C112.748 47.7893 129.537 31 150.248 31C170.959 31 187.748 47.7893 187.748 68.5V95C187.748 115.711 170.959 132.5 150.248 132.5C129.537 132.5 112.748 115.711 112.748 95V68.5Z" fill="#F4D5CC"/>
<path fill-rule="evenodd" clip-rule="evenodd" d="M158.498 74.5H178.498C180.431 74.5 181.998 76.067 181.998 78V90.5C181.998 94.504 178.752 97.75 174.748 97.75H168.498C161.042 97.75 154.998 91.7058 154.998 84.25V78C154.998 76.067 156.565 74.5 158.498 74.5ZM178.498 76.5H158.498C157.67 76.5 156.998 77.1715 156.998 78V84.25C156.998 90.6012 162.147 95.75 168.498 95.75H174.748C177.648 95.75 179.998 93.3995 179.998 90.5V78C179.998 77.1715 179.327 76.5 178.498 76.5Z" fill="white" fill-opacity="0.75"/>
<path fill-rule="evenodd" clip-rule="evenodd" d="M122.498 74.5H142.498C144.431 74.5 145.998 76.067 145.998 78V84.25C145.998 91.7058 139.954 97.75 132.498 97.75H126.248C122.244 97.75 118.998 94.504 118.998 90.5V78C118.998 76.067 120.565 74.5 122.498 74.5ZM142.498 76.5H122.498C121.67 76.5 120.998 77.1715 120.998 78V90.5C120.998 93.3995 123.349 95.75 126.248 95.75H132.498C138.849 95.75 143.998 90.6012 143.998 84.25V78C143.998 77.1715 143.327 76.5 142.498 76.5Z" fill="white" fill-opacity="0.75"/>
<rect x="144.248" y="78" width="12.5" height="2" fill="white" fill-opacity="0.75"/>
<path d="M165.882 78.1018C167.514 78.1018 168.841 79.4039 168.881 81.0256L168.882 81.1018V88.0743C168.882 89.7312 167.539 91.0743 165.882 91.0743C164.251 91.0743 162.924 89.7722 162.883 88.1505L162.882 88.0743V81.1018C162.882 79.445 164.226 78.1018 165.882 78.1018Z" fill="black"/>
<path d="M134.613 78.1018C136.245 78.1018 137.572 79.4039 137.612 81.0256L137.613 81.1018V88.0743C137.613 89.7312 136.27 91.0743 134.613 91.0743C132.982 91.0743 131.655 89.7722 131.614 88.1505L131.613 88.0743V81.1018C131.613 79.445 132.956 78.1018 134.613 78.1018Z" fill="black"/>
<path fill-rule="evenodd" clip-rule="evenodd" d="M159.282 108.401V111.867C159.282 117.192 154.965 121.509 149.64 121.509C144.315 121.509 139.998 117.192 139.998 111.867V108.401H159.282Z" fill="#393939"/>
<mask id="mask0_0_4317" style="mask-type:luminance" maskUnits="userSpaceOnUse" x="139" y="106" width="21" height="16">
<path fill-rule="evenodd" clip-rule="evenodd" d="M159.154 106.75C159.238 107.262 159.282 107.786 159.282 108.322V111.867C159.282 117.192 154.965 121.509 149.64 121.509C144.315 121.509 139.998 117.192 139.998 111.867V108.322C139.998 107.786 140.042 107.262 140.126 106.75H159.154Z" fill="white"/>
</mask>
<g mask="url(#mask0_0_4317)">
<path d="M149.126 124.902C145.914 124.902 143.311 123.484 143.311 121.736C143.311 119.987 145.914 118.569 149.126 118.569C152.337 118.569 154.94 119.987 154.94 121.736C154.94 123.484 152.337 124.902 149.126 124.902Z" fill="#FF6C6C"/>
<rect width="19.2837" height="3.97675" transform="matrix(-1 0 0 1 159.282 107.901)" fill="white"/>
</g>
<path d="M163.655 29.3752L163.959 29.4846C172.535 32.419 183.635 40.4624 187.873 51.5001C192.346 63.1472 195.248 77.625 195.248 90.125C195.248 97.5 189.248 135.75 188.623 142L188.569 142.558C188.019 148.474 188.254 153.171 188.612 165.609L188.645 166.785C188.997 179.566 188.943 190.259 186.248 191C181.248 192.375 165.623 190.375 163.498 190C161.373 189.625 162.748 180.95 162.748 176.125C162.748 169.5 167.248 147.125 169.623 138.5C171.448 131.872 180.498 110.75 181.123 109L181.506 107.924C183.926 101.095 186.142 93.8375 184.123 78.875L184.122 78.3526C184.107 75.709 183.974 72.6328 183.623 70.875C182.677 66.1435 178.123 59.75 171.873 53.75C164.486 46.6585 152.623 45.1251 151.498 43.3751C151.394 43.0194 151.298 42.6243 151.212 42.1985L151.184 42.3663C151.049 43.131 150.857 43.6388 150.621 43.7531C147.371 46.0031 134.621 46.6281 127.887 54.5177C121.058 62.5182 116.371 70.7533 116.121 78.8783L116.105 79.4777C115.937 86.1649 116.281 95.8536 115.537 102.018L115.598 102.006C115.607 102.004 115.616 102.002 115.623 102C116.331 105.125 116.642 109.787 118.998 114.5C120.873 118.25 124.248 121.958 125.873 123.625L126.051 124.325C127.529 130.197 130.355 142.454 131.123 149.75C132.123 159.25 131.123 189 128.873 189C123.65 189 119.975 189.75 118.998 186.625C117.248 181.024 118.33 170.847 116.854 161.791L116.835 162.514C116.53 174.463 116.914 193.036 116.121 197C115.439 200.415 103.498 199.128 103.498 194.875L103.499 193.763C103.542 175.701 104.619 162.317 105.372 154.878C106.497 143.753 105.372 131.128 105.372 121.378C105.372 111.628 106.371 84.2533 107.746 75.6283C110.676 57.25 117.121 44.5031 123.621 38.3781C127.348 34.8669 133.744 31.2734 139.302 29.4583L139.211 29.5029C144.003 27.1071 154.012 26.0396 163.372 29.2758L163.655 29.3752Z" fill="#311E1C"/>
<path d="M160.789 67.6501L174.812 67.9764C176.055 68.0053 177.038 69.0358 177.009 70.2781C176.981 71.4982 175.986 72.4688 174.774 72.4757L174.708 72.4752L160.684 72.1489C159.442 72.12 158.458 71.0895 158.487 69.8472C158.515 68.6271 159.51 67.6564 160.722 67.6495L160.789 67.6501Z" fill="#393939"/>
<path d="M138.681 67.576C139.923 67.5339 140.964 68.5065 141.006 69.7484C141.048 70.9682 140.11 71.9941 138.9 72.0702L138.834 72.0734L124.815 72.5492C123.573 72.5913 122.532 71.6187 122.49 70.3768C122.448 69.157 123.386 68.1312 124.596 68.055L124.662 68.0518L138.681 67.576Z" fill="#393939"/>
<path d="M147.98 89.3213L151.516 91.6788C150.314 93.4815 149.373 96.1876 149.373 98.1563C149.373 100.055 150.059 100.852 152.157 100.875L152.248 100.875V105.125C147.612 105.125 145.123 102.325 145.123 98.1563C145.123 95.3325 146.298 91.9047 147.893 89.454L147.98 89.3213Z" fill="#EBBAAA"/>
</svg>
