<svg width="300" height="400" viewBox="0 0 300 400" fill="none" xmlns="http://www.w3.org/2000/svg">
<path d="M205.5 367.25C205.55 361.513 204.684 363.028 199.696 360.683C194.709 358.338 190.011 353.83 181.383 349.965C181.383 349.965 180.247 349.753 178.398 350.75C176.821 351.605 174.794 353.698 171.741 353.67C168.425 353.643 165.47 352.94 163.635 351.975C162.842 349.803 161.082 349.788 161.082 349.788C161.082 349.788 158.605 354.503 158.563 359.24C158.522 363.978 158.563 367.25 158.563 367.25H205.5Z" fill="#DCE1E6"/>
<path d="M171.902 353.27L172.098 353.73C168.9 355.089 166.533 357.069 164.879 359.509C163.728 361.205 162.989 363.024 162.578 364.842C162.434 365.478 162.342 366.068 162.291 366.597C162.276 366.75 162.265 366.889 162.259 367.012L162.25 367.213L162.25 367.25H161.75L161.751 367.177C161.752 367.145 161.753 367.107 161.755 367.062C161.762 366.913 161.774 366.742 161.793 366.549C161.846 366 161.942 365.389 162.09 364.732C162.514 362.856 163.277 360.98 164.465 359.228C166.141 356.756 168.526 354.742 171.724 353.347L171.902 353.27Z" fill="#D0D4D8"/>
<path d="M175.549 353.505C180.723 354.53 184.228 356.878 186.336 360.148C187.3 361.644 187.912 363.245 188.241 364.858C188.361 365.445 188.436 366.001 188.474 366.515L188.486 366.696C188.498 366.901 188.503 367.077 188.503 367.223L188.5 367.386L188 367.364L188.001 367.329C188.006 367.143 188 366.88 187.975 366.552C187.939 366.059 187.867 365.524 187.751 364.958C187.434 363.403 186.844 361.86 185.916 360.419C183.905 357.301 180.573 355.048 175.629 354.031L175.451 353.995L175.549 353.505Z" fill="#D0D4D8"/>
<path d="M175 352.25C175 358.496 179.464 361.827 186.974 362.925C190.314 363.413 193.883 363.402 197.239 363.092L197.568 363.06C197.891 363.028 198.19 362.994 198.463 362.961L198.757 362.924L199.027 362.887L199.087 362.878L199.163 363.372L199.032 363.391L198.744 363.43L198.661 363.44C198.258 363.491 197.796 363.542 197.285 363.589C193.893 363.904 190.286 363.914 186.901 363.419C179.254 362.301 174.594 358.871 174.501 352.446L174.5 352.25H175Z" fill="#D0D4D8"/>
<path d="M174.5 356V359.5H169.5V356H174.5Z" fill="#D0D4D8"/>
<path d="M182.185 350.41C182.337 350.069 182.737 349.915 183.079 350.066C183.42 350.218 183.574 350.618 183.423 350.959C183.277 351.288 183.167 351.662 183.09 352.079C183.025 352.432 182.986 352.758 182.964 353.142L182.957 353.294L186.591 351.691C187.101 351.466 187.643 351.918 187.526 352.452L187.517 352.49L186.767 355.206L189.769 354.238C190.193 354.102 190.626 354.403 190.652 354.84L190.654 354.882L190.653 357.671L192.903 356.452C193.341 356.215 193.872 356.517 193.901 357.005L193.902 357.047V360.43C193.902 360.804 193.599 361.107 193.225 361.107C192.865 361.107 192.571 360.826 192.55 360.471L192.549 360.43L192.548 358.183L190.299 359.402C189.861 359.64 189.331 359.338 189.302 358.85L189.3 358.807L189.3 355.811L185.989 356.879C185.49 357.04 185.011 356.598 185.119 356.095L185.129 356.055L185.832 353.504L182.536 354.959C182.101 355.151 181.615 354.848 181.587 354.383L181.586 354.34L181.586 354.082C181.591 353.128 181.628 352.539 181.759 351.833C181.854 351.317 181.993 350.843 182.185 350.41Z" fill="black"/>
<path d="M203.425 360.878C201.895 360.323 200.274 359.903 197.167 359.198L198.488 363L198.45 367.33L207.293 367.408C207.654 367.41 208.299 366.93 207.991 364.978C207.606 362.538 205.599 361.665 203.425 360.878Z" fill="#EAF4FB"/>
<path d="M158.5 367.25H165.5V370.75C165.5 371.44 164.941 372 164.25 372H159.75C159.06 372 158.5 371.44 158.5 370.75V367.25Z" fill="#C6CBCF"/>
<path d="M165.75 367.25H172.75V370.75C172.75 371.44 172.191 372 171.5 372H167C166.31 372 165.75 371.44 165.75 370.75V367.25Z" fill="#C6CBCF"/>
<path d="M173 367.25H180V370.75C180 371.44 179.441 372 178.75 372H174.25C173.56 372 173 371.44 173 370.75V367.25Z" fill="#C6CBCF"/>
<path d="M180.25 367.25H187.25V370.75C187.25 371.44 186.691 372 186 372H181.5C180.81 372 180.25 371.44 180.25 370.75V367.25Z" fill="#C6CBCF"/>
<path d="M187.5 367.25H194.5V370.75C194.5 371.44 193.941 372 193.25 372H188.75C188.06 372 187.5 371.44 187.5 370.75V367.25Z" fill="#C6CBCF"/>
<path d="M194.75 367.25H201.75V370.75C201.75 371.44 201.191 372 200.5 372H196C195.31 372 194.75 371.44 194.75 370.75V367.25Z" fill="#C6CBCF"/>
<path d="M202 367.25H207.75V370.75C207.75 371.44 207.191 372 206.5 372H203.25C202.56 372 202 371.44 202 370.75V367.25Z" fill="#C6CBCF"/>
<path d="M101.24 367.645C101.172 361.882 102.047 363.4 107.05 361.03C112.053 358.66 116.758 354.117 125.413 350.21C125.413 350.21 126.554 349.992 128.414 350.99C130.001 351.842 132.043 353.94 135.11 353.902C138.44 353.865 141.406 353.15 143.247 352.177C144.037 349.992 145.804 349.972 145.804 349.972C145.804 349.972 148.307 354.7 148.363 359.457C148.418 364.217 148.387 367.505 148.387 367.505L101.24 367.645Z" fill="#DCE1E6"/>
<path d="M134.946 353.502C138.263 354.9 140.727 356.954 142.45 359.489C143.641 361.241 144.409 363.118 144.838 364.995C144.988 365.652 145.085 366.263 145.14 366.813L145.157 366.998C145.167 367.118 145.174 367.227 145.179 367.326L145.185 367.495L145.185 367.514L144.685 367.516L144.682 367.424L144.679 367.35C144.673 367.21 144.661 367.047 144.642 366.862C144.59 366.333 144.496 365.743 144.35 365.106C143.934 363.287 143.19 361.467 142.036 359.77C140.398 357.359 138.066 355.397 134.93 354.039L134.752 353.963L134.946 353.502Z" fill="#D0D4D8"/>
<path d="M131.284 353.75L131.383 354.24C126.332 355.256 122.94 357.538 120.904 360.704C119.973 362.152 119.382 363.702 119.065 365.266C118.949 365.837 118.878 366.377 118.841 366.874C118.821 367.147 118.814 367.377 118.814 367.556L118.817 367.708L118.318 367.732L118.316 367.681C118.311 367.473 118.317 367.188 118.342 366.838C118.38 366.32 118.455 365.759 118.575 365.167C118.903 363.545 119.516 361.937 120.483 360.433C122.568 357.191 126.021 354.847 131.104 353.787L131.284 353.75Z" fill="#D0D4D8"/>
<path d="M132.333 352.484C132.352 359.069 127.659 362.588 119.894 363.742C116.481 364.25 112.846 364.247 109.435 363.938L109.108 363.907C108.788 363.876 108.491 363.844 108.22 363.812L107.928 363.775L107.594 363.73L107.668 363.235L107.92 363.27C107.99 363.279 108.065 363.289 108.147 363.299L108.415 363.331C108.738 363.368 109.094 363.405 109.48 363.44C112.855 363.746 116.453 363.749 119.82 363.248C127.294 362.136 131.761 358.832 131.832 352.673L131.833 352.486L132.333 352.484Z" fill="#D0D4D8"/>
<path d="M137.359 356.24L137.37 359.757L132.37 359.772L132.359 356.255L137.359 356.24Z" fill="#D0D4D8"/>
<path d="M123.712 350.32C124.053 350.167 124.453 350.32 124.606 350.661C124.801 351.098 124.943 351.578 125.04 352.101C125.183 352.867 125.216 353.494 125.219 354.605C125.221 355.08 124.749 355.404 124.311 355.244L124.272 355.228L120.949 353.774L121.666 356.341C121.807 356.846 121.345 357.307 120.847 357.179L120.808 357.167L117.474 356.102L117.484 359.116C117.485 359.614 116.968 359.938 116.524 359.733L116.486 359.714L114.219 358.494L114.226 360.756C114.227 361.115 113.947 361.411 113.593 361.433L113.551 361.434C113.191 361.435 112.896 361.155 112.874 360.801L112.873 360.76L112.862 357.362C112.861 356.864 113.378 356.54 113.822 356.745L113.86 356.764L116.127 357.983L116.119 355.177C116.117 354.732 116.536 354.411 116.96 354.519L117.001 354.53L120.024 355.496L119.262 352.765C119.113 352.228 119.637 351.756 120.149 351.948L120.186 351.963L123.845 353.564L123.845 353.558C123.826 353.138 123.789 352.794 123.724 352.428L123.71 352.349C123.631 351.926 123.519 351.547 123.37 351.214C123.218 350.873 123.37 350.473 123.712 350.32Z" fill="black"/>
<path d="M103.305 361.237C104.841 360.675 106.467 360.247 109.586 359.532L108.271 363.355L108.322 367.705L99.4395 367.807C99.077 367.812 98.4278 367.33 98.7311 365.37C99.1103 362.917 101.124 362.035 103.305 361.237Z" fill="#EAF4FB"/>
<path d="M148.45 367.505L141.419 367.525L141.43 371.047C141.432 371.737 141.993 372.295 142.683 372.292L147.215 372.28C147.905 372.277 148.463 371.715 148.461 371.025L148.45 367.505Z" fill="#C6CBCF"/>
<path d="M141.168 367.525L134.137 367.547L134.147 371.067C134.149 371.757 134.711 372.317 135.401 372.315L139.932 372.3C140.623 372.3 141.181 371.737 141.179 371.047L141.168 367.525Z" fill="#C6CBCF"/>
<path d="M133.885 367.548L126.854 367.57L126.865 371.09C126.867 371.78 127.428 372.338 128.118 372.338L132.65 372.323C133.34 372.32 133.898 371.76 133.896 371.07L133.885 367.548Z" fill="#C6CBCF"/>
<path d="M126.603 367.57L119.572 367.59L119.582 371.113C119.584 371.803 120.145 372.36 120.836 372.358L125.367 372.345C126.058 372.343 126.615 371.78 126.613 371.09L126.603 367.57Z" fill="#C6CBCF"/>
<path d="M119.321 367.593L112.289 367.613L112.3 371.133C112.302 371.825 112.863 372.383 113.553 372.38L118.085 372.368C118.775 372.365 119.333 371.803 119.331 371.113L119.321 367.593Z" fill="#C6CBCF"/>
<path d="M112.038 367.613L105.007 367.635L105.017 371.155C105.019 371.845 105.581 372.405 106.271 372.403L110.802 372.388C111.493 372.388 112.05 371.825 112.049 371.135L112.038 367.613Z" fill="#C6CBCF"/>
<path d="M104.756 367.635L98.9799 367.653L98.9904 371.175C98.9925 371.865 99.5538 372.423 100.244 372.42L103.52 372.41C104.21 372.408 104.768 371.848 104.766 371.158L104.756 367.635Z" fill="#C6CBCF"/>
<path d="M116.25 255.604L146.966 258.448V351L122.375 349.875L116.25 255.604Z" fill="#101C28"/>
<path fill-rule="evenodd" clip-rule="evenodd" d="M159.625 278.375V279.625H159.875V278.375H159.625ZM159.625 280.875V282.125H159.875V280.875H159.625ZM159.625 284.625V283.375H159.875V284.625H159.625ZM159.625 285.875V287.125H159.875V285.875H159.625ZM159.625 289.625V288.375H159.875V289.625H159.625ZM159.625 290.875V292.125H159.875V290.875H159.625ZM159.625 294.625V293.375H159.875V294.625H159.625ZM159.625 295.875V297.125H159.875V295.875H159.625ZM159.625 299.625V298.375H159.875V299.625H159.625ZM159.625 300.875V302.125H159.875V300.875H159.625ZM159.625 304.625V303.375H159.875V304.625H159.625ZM159.625 305.875V307.125H159.875V305.875H159.625ZM159.625 309.625V308.375H159.875V309.625H159.625ZM159.625 310.875V312.125H159.875V310.875H159.625ZM159.625 314.625V313.375H159.875V314.625H159.625ZM159.625 315.875V317.125H159.875V315.875H159.625ZM159.625 319.625V318.375H159.875V319.625H159.625ZM159.625 320.875V322.125H159.875V320.875H159.625ZM159.625 324.625V323.375H159.875V324.625H159.625ZM159.625 325.875V327.125H159.875V325.875H159.625ZM159.625 329.625V328.375H159.875V329.625H159.625ZM159.625 330.875V332.125H159.875V330.875H159.625ZM159.625 334.625V333.375H159.875V334.625H159.625ZM159.625 335.875V337.125H159.875V335.875H159.625ZM159.625 339.625V338.375H159.875V339.625H159.625ZM159.625 340.875V342.125H159.875V340.875H159.625ZM159.625 344.625V343.375H159.875V344.625H159.625ZM159.625 345.875V347.125H159.875V345.875H159.625ZM159.625 349.125V348.375H159.875V349.125H159.625Z" fill="#EAEAEA"/>
<path d="M119.929 354L119 349H147.5V354H119.929Z" fill="#070F16"/>
<path d="M151.753 258.65H183.231L185.875 352.125L159.5 351.375L151.753 258.65Z" fill="#101C28"/>
<path d="M159.184 354.75L158.25 349.75H188.75V354.75H159.184Z" fill="#070F16"/>
<path fill-rule="evenodd" clip-rule="evenodd" d="M144.375 262.375V261.125H144.625V262.375H144.375ZM144.375 264.875V263.625H144.625V264.875H144.375ZM144.375 266.125V267.375H144.625V266.125H144.375ZM144.375 269.875V268.625H144.625V269.875H144.375ZM144.375 271.125V272.375H144.625V271.125H144.375ZM144.375 274.875V273.625H144.625V274.875H144.375ZM144.375 276.125V277.375H144.625V276.125H144.375ZM144.375 279.875V278.625H144.625V279.875H144.375ZM144.375 281.125V282.375H144.625V281.125H144.375ZM144.375 284.875V283.625H144.625V284.875H144.375ZM144.375 286.125V287.375H144.625V286.125H144.375ZM144.375 289.875V288.625H144.625V289.875H144.375ZM144.375 291.125V292.375H144.625V291.125H144.375ZM144.375 294.875V293.625H144.625V294.875H144.375ZM144.375 296.125V297.375H144.625V296.125H144.375ZM144.375 299.875V298.625H144.625V299.875H144.375ZM144.375 301.125V302.375H144.625V301.125H144.375ZM144.375 304.875V303.625H144.625V304.875H144.375ZM144.375 306.125V307.375H144.625V306.125H144.375ZM144.375 309.875V308.625H144.625V309.875H144.375ZM144.375 311.125V312.375H144.625V311.125H144.375ZM144.375 314.875V313.625H144.625V314.875H144.375ZM144.375 316.125V317.375H144.625V316.125H144.375ZM144.375 319.875V318.625H144.625V319.875H144.375ZM144.375 321.125V322.375H144.625V321.125H144.375ZM144.375 324.875V323.625H144.625V324.875H144.375ZM144.375 326.125V327.375H144.625V326.125H144.375ZM144.375 329.875V328.625H144.625V329.875H144.375ZM144.375 331.125V332.375H144.625V331.125H144.375ZM144.375 334.875V333.625H144.625V334.875H144.375ZM144.375 336.125V337.375H144.625V336.125H144.375ZM144.375 339.875V338.625H144.625V339.875H144.375ZM144.375 341.125V342.375H144.625V341.125H144.375ZM144.375 344.875V343.625H144.625V344.875H144.375ZM144.375 346.125V347.375H144.625V346.125H144.375ZM144.375 349.125V348.625H144.625V349.125H144.375Z" fill="#817F7F"/>
<path fill-rule="evenodd" clip-rule="evenodd" d="M119 350.125H119.875V350.375H119V350.125ZM122.375 350.125H121.125V350.375H122.375V350.125ZM123.625 350.125H124.875V350.375H123.625V350.125ZM127.375 350.125H126.125V350.375H127.375V350.125ZM128.625 350.125H129.875V350.375H128.625V350.125ZM132.375 350.125H131.125V350.375H132.375V350.125ZM133.625 350.125H134.875V350.375H133.625V350.125ZM137.375 350.125H136.125V350.375H137.375V350.125ZM138.625 350.125H139.875V350.375H138.625V350.125ZM142.375 350.125H141.125V350.375H142.375V350.125ZM143.625 350.125H144.875V350.375H143.625V350.125ZM146.125 350.125H147.375V350.375H146.125V350.125Z" fill="#817F7F"/>
<path fill-rule="evenodd" clip-rule="evenodd" d="M158.5 350.875H158.625V351.125H158.5V350.875ZM161.125 350.875H159.875V351.125H161.125V350.875ZM162.375 350.875H163.625V351.125H162.375V350.875ZM166.125 350.875H164.875V351.125H166.125V350.875ZM167.375 350.875H168.625V351.125H167.375V350.875ZM171.125 350.875H169.875V351.125H171.125V350.875ZM172.375 350.875H173.625V351.125H172.375V350.875ZM176.125 350.875H174.875V351.125H176.125V350.875ZM177.375 350.875H178.625V351.125H177.375V350.875ZM181.125 350.875H179.875V351.125H181.125V350.875ZM182.375 350.875H183.625V351.125H182.375V350.875ZM186.125 350.875H184.875V351.125H186.125V350.875ZM188.625 350.875H187.375V351.125H188.625V350.875Z" fill="#817F7F"/>
<path fill-rule="evenodd" clip-rule="evenodd" d="M155.376 278.386L155.488 279.631L155.737 279.609L155.624 278.364L155.376 278.386ZM155.601 280.876L155.714 282.121L155.963 282.098L155.85 280.854L155.601 280.876ZM155.939 284.611L155.827 283.366L156.076 283.343L156.188 284.588L155.939 284.611ZM156.052 285.856L156.165 287.101L156.414 287.078L156.301 285.833L156.052 285.856ZM156.39 289.59L156.278 288.346L156.527 288.323L156.639 289.568L156.39 289.59ZM156.503 290.835L156.616 292.08L156.865 292.058L156.752 290.813L156.503 290.835ZM156.842 294.57L156.729 293.325L156.978 293.302L157.091 294.547L156.842 294.57ZM156.954 295.815L157.067 297.06L157.316 297.037L157.203 295.792L156.954 295.815ZM157.293 299.55L157.18 298.305L157.429 298.282L157.542 299.527L157.293 299.55ZM157.405 300.795L157.518 302.039L157.767 302.017L157.654 300.772L157.405 300.795ZM157.744 304.529L157.631 303.284L157.88 303.262L157.993 304.507L157.744 304.529ZM157.856 305.774L157.969 307.019L158.218 306.997L158.105 305.752L157.856 305.774ZM158.195 309.509L158.082 308.264L158.331 308.241L158.444 309.486L158.195 309.509ZM158.308 310.754L158.42 311.999L158.669 311.976L158.557 310.731L158.308 310.754ZM158.646 314.488L158.533 313.243L158.782 313.221L158.895 314.466L158.646 314.488ZM158.759 315.733L158.871 316.978L159.12 316.956L159.008 315.711L158.759 315.733ZM159.097 319.468L158.984 318.223L159.233 318.201L159.346 319.446L159.097 319.468ZM159.21 320.713L159.322 321.958L159.571 321.935L159.459 320.69L159.21 320.713ZM159.548 324.448L159.435 323.203L159.684 323.18L159.797 324.425L159.548 324.448ZM159.661 325.693L159.774 326.938L160.023 326.915L159.91 325.67L159.661 325.693ZM159.999 329.427L159.886 328.182L160.135 328.16L160.248 329.405L159.999 329.427ZM160.112 330.672L160.225 331.917L160.474 331.895L160.361 330.65L160.112 330.672ZM160.45 334.407L160.337 333.162L160.586 333.139L160.699 334.384L160.45 334.407ZM160.563 335.652L160.676 336.897L160.925 336.874L160.812 335.629L160.563 335.652ZM160.901 339.387L160.789 338.142L161.037 338.119L161.15 339.364L160.901 339.387ZM161.014 340.631L161.127 341.876L161.376 341.854L161.263 340.609L161.014 340.631ZM161.352 344.366L161.24 343.121L161.489 343.099L161.601 344.344L161.352 344.366ZM161.465 345.611L161.578 346.856L161.827 346.834L161.714 345.589L161.465 345.611ZM161.751 348.761L161.691 348.101L161.94 348.078L162 348.739L161.751 348.761Z" fill="#817F7F"/>
<path d="M130.314 362.235C129.137 362.622 128.173 362.627 127.606 362.245C126.145 361.24 126.958 359.55 127.306 358.887C126.66 359.71 126.02 360.537 125.532 361.427C124.763 362.817 124.485 364.315 125.101 365.232C126.206 366.89 128.605 365.972 130.125 365.202L144.226 358.065L130.314 362.235Z" fill="black"/>
<path d="M176.788 362.235C177.965 362.622 178.93 362.627 179.497 362.245C180.958 361.24 180.144 359.55 179.797 358.887C180.442 359.71 181.083 360.537 181.57 361.427C182.339 362.817 182.618 364.315 182.002 365.232C180.897 366.89 178.497 365.972 176.978 365.202L162.876 358.065L176.788 362.235Z" fill="black"/>
<path d="M151.327 277.963C167.661 277.963 180.902 271.143 180.902 262.731C180.902 254.319 167.661 247.5 151.327 247.5C134.994 247.5 121.753 254.319 121.753 262.731C121.753 271.143 134.994 277.963 151.327 277.963Z" fill="#101C28"/>
<path d="M188.375 283.5L181.125 256.75L191.5 247L196.875 278.625L188.375 283.5Z" fill="#424657"/>
<path d="M179.489 221.766L156.614 226.016L149.989 233.266C147.655 236.099 143.889 242.191 147.489 243.891C151.989 246.016 167.614 244.891 173.739 246.016C179.864 247.141 187.489 250.891 188.364 259.141C189.064 265.741 186.625 271.75 192.875 272.625C192.875 273.417 192.589 270.241 193.489 278.642C194.389 287.042 196.447 289.807 197.364 290.142C196.875 292.125 195.9 293.15 196.5 298.25C197.1 303.35 201.697 303.725 204.114 303.642C203.03 303.557 200.564 302.217 199.364 297.517C197.864 291.642 207.614 283.142 208.364 276.766C209.114 270.391 196.875 241.625 194.75 227.75C193.05 216.65 186.125 211.542 184.25 213.5L184.614 217.516L179.489 221.766Z" fill="#6A6E7E"/>
<mask id="mask0_0_4385" style="mask-type:luminance" maskUnits="userSpaceOnUse" x="146" y="213" width="63" height="91">
<path fill-rule="evenodd" clip-rule="evenodd" d="M179.489 221.766L156.614 226.016L149.989 233.266C147.655 236.099 143.889 242.191 147.489 243.891C151.989 246.016 167.614 244.891 173.739 246.016C179.864 247.141 187.489 250.891 188.364 259.141C189.064 265.741 186.625 271.75 192.875 272.625C192.875 273.417 192.589 270.241 193.489 278.642C194.389 287.042 196.447 289.807 197.364 290.142C196.875 292.125 195.9 293.15 196.5 298.25C197.1 303.35 201.697 303.725 204.114 303.642C203.03 303.557 200.564 302.217 199.364 297.517C197.864 291.642 207.614 283.142 208.364 276.766C209.114 270.391 196.875 241.625 194.75 227.75C193.05 216.65 186.125 211.542 184.25 213.5L184.614 217.516L179.489 221.766Z" fill="white"/>
</mask>
<g mask="url(#mask0_0_4385)">
<path d="M193.375 270.375C190.875 269.975 188.5 270.125 188 268.5L185.75 270.375C185.333 271.292 186.175 272.925 192.875 272.625C201.25 272.25 206.25 273.5 206.875 275.75C207.5 278 206.5 279.25 203.375 283.125C201.092 285.955 199.75 285.875 197.375 290.25L195.5 290.625V302L204.875 304.5L207.875 288.875C209.083 285.208 210.975 277.15 208.875 274.25C206.25 270.625 196.5 270.875 193.375 270.375Z" fill="black"/>
</g>
<path d="M198.656 176.674C204.773 175.586 210.614 179.664 211.701 185.781L211.777 186.21C213 193.301 213.985 204.09 214.262 214.867C214.619 228.782 213.837 241.864 211.659 252.819C210.447 258.913 204.525 262.871 198.431 261.659C192.337 260.447 188.379 254.525 189.591 248.431C191.4 239.335 192.087 227.83 191.769 215.445L191.753 214.849C191.478 205.125 190.577 195.502 189.549 189.719C188.461 183.602 192.539 177.761 198.656 176.674Z" fill="#EBBAAA"/>
<path d="M99.25 154.125C105.375 145.375 122.25 147.125 132.625 142.25H171.375C185.625 147.125 194.012 145 200.375 154.125C209.875 167.75 214.625 193.875 217.125 217.5C217.125 217.5 207.625 217.799 203.25 219.125C198.875 220.451 190.5 223.375 190.5 223.375L183.75 200.25V207.125L185.625 232L190.5 257.25C182.333 258.667 163.95 261.625 155.75 262.125C147.55 262.625 119.625 259.083 109 257.25C109 249.667 113.625 232 113.625 232C113.625 232 115 225.5 113.625 219.125C113.139 216.873 112.012 211.82 110.953 206.966C100.708 206.535 82.75 205.625 82.75 205.625C82.75 205.625 86.6556 185.161 90.3749 174.375C92.875 167.125 95.0206 160.167 99.25 154.125Z" fill="#CFD1D9"/>
<mask id="mask1_0_4385" style="mask-type:luminance" maskUnits="userSpaceOnUse" x="82" y="142" width="136" height="121">
<path fill-rule="evenodd" clip-rule="evenodd" d="M99.25 154.25C105.375 145.5 122.25 147.25 132.625 142.375H171.375C185.625 147.25 194.012 145.125 200.375 154.25C209.875 167.875 214.625 194 217.125 217.625C217.125 217.625 207.625 217.924 203.25 219.25C198.875 220.576 190.5 223.5 190.5 223.5L183.75 200.375V207.25L185.625 232.125L190.5 257.375C182.333 258.792 163.95 261.75 155.75 262.25C147.55 262.75 119.625 259.208 109 257.375C109 249.792 113.625 232.125 113.625 232.125C113.625 232.125 115 225.625 113.625 219.25C113.139 216.998 112.012 211.945 110.953 207.091C100.708 206.66 82.75 205.75 82.75 205.75C82.75 205.75 86.6556 185.286 90.3749 174.5C92.875 167.25 95.0206 160.292 99.25 154.25Z" fill="white"/>
</mask>
<g mask="url(#mask1_0_4385)">
<path d="M142 196.625L83.5 182.5L74.75 196.625L79.125 257.25L144.75 283.25L185.375 272.25L221.75 196.625H142Z" fill="black"/>
<path d="M103.875 167.375L94.375 157.75L83.75 172V190L89.5 195.25L110 201.875L112.375 215L118 211.625H125.625H144.25H164L185.375 215L184.625 205.625C184.625 205.625 192.125 207.25 200.375 205.625C208.625 204 214.25 198.625 214.25 198.625L219.25 186.375L212.75 167.375L182.125 177.125L166.25 173H122.875L103.875 167.375Z" fill="#EDEDF3"/>
<path d="M179.489 221.766L156.614 226.016L149.989 233.266C147.655 236.099 143.889 242.191 147.489 243.891C151.989 246.016 167.614 244.891 173.739 246.016C179.864 247.141 187.489 250.891 188.364 259.141C189.064 265.741 191.322 266.308 192.364 265.766C192.364 266.558 192.589 270.241 193.489 278.642C194.389 287.042 196.447 289.807 197.364 290.142C196.697 290.475 195.514 292.417 196.114 297.517C196.714 302.617 201.697 303.725 204.114 303.642C203.03 303.557 200.564 302.217 199.364 297.517C197.864 291.642 207.614 283.142 208.364 276.766C209.114 270.391 196.875 241.625 194.75 227.75C193.05 216.65 186.125 211.542 184.25 213.5L184.614 217.516L179.489 221.766Z" fill="#767986"/>
<path d="M161.625 239.375L156.625 237C153.125 237 143.75 239.8 146.75 243.5C150.5 248.125 175.153 245.585 181.75 249.25C186.25 251.75 187.625 256.625 188 258.25H191L193.75 250.875L186.875 238.375L171.125 237L161.625 239.375Z" fill="#6A6E7E"/>
<path d="M137.375 225C145.275 224 148.583 227.834 149.25 229.875L147 234.375L114 237.875V234.375C118.5 231.667 129.475 226 137.375 225Z" fill="#6A6E7E"/>
<path d="M142.25 238.875L119.125 253.625L117.25 246.875L130.625 235H147.375L142.25 238.875Z" fill="#767986"/>
<path d="M136.5 228.25C140.6 227.75 146.292 232.042 148.625 233.625L145.125 235H136.5L120.375 251L110.75 237.25C112.042 236.917 110.45 234.225 115.25 232.125C121.25 229.5 131.375 228.875 136.5 228.25Z" fill="#8E919D"/>
</g>
<path d="M130.875 284.25L115.5 244.125L107.125 293.75L130.875 284.25Z" fill="#424657"/>
<path d="M122.25 295.5C120.05 292.8 118.667 279.957 118.25 273.875C113.708 285.167 104.675 309.05 104.875 314.25C105.125 320.75 107.125 317.375 111 317C114.875 316.625 118.25 305.5 118.25 304.375C118.25 303.25 125 298.875 122.25 295.5Z" fill="#4F5363"/>
<path d="M103.125 264.375C101.125 258.475 102.292 245.833 103.125 240.25L107.75 228.875L114.25 227C116.458 236.25 124.275 276.25 121.375 278.25C117.75 280.75 112.625 295.125 112.625 301.75C112.625 307.05 106.292 315.625 103.125 319.25C103.125 315.957 102.45 307.85 99.7499 301.75C96.3749 294.125 105.625 271.75 103.125 264.375Z" fill="#6A6E7E"/>
<mask id="mask2_0_4385" style="mask-type:luminance" maskUnits="userSpaceOnUse" x="98" y="228" width="25" height="92">
<path fill-rule="evenodd" clip-rule="evenodd" d="M103.125 264.375C101.125 258.475 102.292 245.833 103.125 240.25L107.75 228.875L114.375 231.75C116.583 241 124.275 276.25 121.375 278.25C117.75 280.75 112.625 295.125 112.625 301.75C112.625 307.05 106.292 315.625 103.125 319.25C103.125 315.957 102.45 307.85 99.7499 301.75C96.3749 294.125 105.625 271.75 103.125 264.375Z" fill="white"/>
</mask>
<g mask="url(#mask2_0_4385)">
<path d="M108.875 303.875C108.275 306.275 103.792 314.292 101.625 318L100 327.5L115.375 314L127.25 283.375L123.625 272C117.875 275.375 113.15 285.125 111.75 289.625C110 295.25 109.625 300.875 108.875 303.875Z" fill="black"/>
</g>
<path d="M150 171.25C162.288 171.25 172.25 162.631 172.25 152C172.25 141.369 162.288 132.75 150 132.75C137.712 132.75 127.75 141.369 127.75 152C127.75 162.631 137.712 171.25 150 171.25Z" fill="#C2C5CE"/>
<rect x="133.75" y="136.5" width="32.5" height="28.75" rx="14.375" fill="#EBBAAA"/>
<path d="M92.3741 215.383C97.7547 212.276 104.635 214.119 107.742 219.499L108.722 221.19C113.663 229.692 116.022 233.246 122.388 241.767C126.106 246.745 125.085 253.795 120.108 257.513C115.13 261.231 108.08 260.21 104.362 255.233L103.504 254.081C96.8074 245.073 94.0727 240.821 88.2577 230.751C85.1506 225.37 86.9936 218.49 92.3741 215.383Z" fill="#EBBAAA"/>
<path d="M85.75 202.25L81.5 206.75V209L84.375 209.625L81.5 210.875V214.25L84.375 216L96.75 217.375L111.5 222.5L112.875 221.75L113.25 218.75L111.5 215V212.875L112 212.375L110.875 206.75L85.75 202.25Z" fill="black"/>
<path d="M80.375 218.625L84.125 214.5L101.25 215.625L112.5 220.875L84.125 227L80.375 218.625Z" fill="black"/>
<path d="M80.625 210.5L87.8224 207.875L97.6366 201.75L110.125 202.5L111.875 211.625L97.6366 219.886L87.8224 223.388L81.625 220.903L82.0981 215.723L80 213.625L80.625 210.5Z" fill="black"/>
<path d="M86.125 231.375V226L91.625 220.5H112V223V226L114.75 230.125C112.875 229.708 108.1 226.625 101 228.625C93.9 230.625 90.6667 234.958 90.75 235.125L88.125 236.25L86.125 231.375Z" fill="black"/>
<path d="M184.375 209L186.25 207.375L202 209.625L214.75 206H219.25V209L216.25 212.875L219.25 214.625V218.125L218.125 220.625L219.875 223.125L218.625 225.875L216.25 225.375L219.25 229.75L217.5 232.5H214C211.875 230.458 208.475 228.025 202.875 227.625C197.275 227.225 193.042 229.375 191.5 230.625L188.5 229.75V224L190.375 220.875H186.25L186.75 215.75L190.375 214.625L186.25 212.875L184.375 209Z" fill="black"/>
<path d="M139.875 235C140.858 231.771 144.875 226.5 149.125 225.75C153.375 225 157.25 225.75 157.25 225.75C157.875 226.125 156.704 228.286 155.214 231.156C153.351 234.744 158.94 237.336 155.214 237.575C152.233 237.766 148 242.25 148.25 244.5C146.697 244.58 139.913 245.065 138.25 241.5C137.061 238.951 138.25 235.5 139.875 235Z" fill="#A6A8B1"/>
<path d="M113.017 114.54C121.035 114.54 127.535 108.375 127.535 100.77C127.535 93.1651 121.035 87 113.017 87C105 87 98.4999 93.1651 98.4999 100.77C98.4999 108.375 105 114.54 113.017 114.54Z" fill="#EBBAAA"/>
<path d="M186.767 114.54C194.785 114.54 201.285 108.375 201.285 100.77C201.285 93.1651 194.785 87 186.767 87C178.75 87 172.25 93.1651 172.25 100.77C172.25 108.375 178.75 114.54 186.767 114.54Z" fill="#EBBAAA"/>
<path d="M106.952 77.5995C106 53.5092 125.273 33.4607 149.382 33.4607C173.548 33.4607 192.843 53.602 191.805 77.7467L190.403 110.359C189.458 132.361 171.346 149.711 149.325 149.711C127.248 149.711 109.112 132.276 108.24 110.217L106.952 77.5995Z" fill="#EED4CC"/>
<path d="M135.042 93.4104C136.679 93.1512 138.215 94.2677 138.475 95.9042C138.73 97.5155 137.651 99.0301 136.056 99.3237L135.981 99.3366L129.001 100.442C127.364 100.701 125.828 99.5847 125.568 97.9483C125.313 96.337 126.392 94.8224 127.987 94.5288L128.062 94.5159L135.042 93.4104Z" fill="black"/>
<path d="M160.069 95.6542C160.324 94.0429 161.818 92.9357 163.426 93.1494L163.501 93.1604L170.481 94.2659C172.117 94.5251 173.234 96.0618 172.975 97.6983C172.719 99.3096 171.226 100.417 169.618 100.203L169.542 100.192L162.562 99.0865C160.926 98.8274 159.809 97.2906 160.069 95.6542Z" fill="black"/>
<path d="M126.094 82.6192L137.889 82.9892C139.545 83.0412 140.845 84.4258 140.794 86.0818C140.742 87.7124 139.399 88.9981 137.777 88.9877L137.701 88.9863L125.906 88.6163C124.25 88.5643 122.95 87.1797 123.001 85.5237C123.053 83.8931 124.396 82.6074 126.018 82.6178L126.094 82.6192Z" fill="#393939"/>
<path d="M172.201 82.3692C173.857 82.3172 175.242 83.6176 175.294 85.2736C175.345 86.9042 174.085 88.2716 172.465 88.3629L172.389 88.3662L160.594 88.7362C158.938 88.7882 157.553 87.4878 157.501 85.8318C157.45 84.2012 158.71 82.8338 160.33 82.7425L160.406 82.7392L172.201 82.3692Z" fill="#393939"/>
<path d="M165.454 34.3694C168.126 34.3334 171.927 35.3063 175.308 37.2477C175.895 35.7987 175.729 33.4285 175.125 32C175.995 32.4556 177.605 34.3766 177.134 38.4261C177.428 38.6393 177.717 38.861 177.998 39.091C179.52 38.2928 181.497 37.8108 183.375 38.7501L178.889 39.8714C180.072 40.9831 181.08 42.2599 181.802 43.699C186.749 48.1136 190.194 53.5192 191.132 59.625C193.201 73.0785 192.871 88.4746 191.5 88.7902L191.5 100.125C191.5 100.884 190.884 101.5 190.125 101.5C189.366 101.5 188.75 100.884 188.75 100.125L188.75 84.9828L188.544 84.6707C186.357 81.3377 185.254 78.957 183.625 70.875C182.582 65.701 182.227 56.739 173.25 53.875C171.463 53.3049 169.064 53.1005 166.328 53.0937L166.126 53.2685C163.173 55.7958 159.413 58.0124 156.06 57.3958C152.847 56.8049 151.715 56.1325 151.148 55.2803C150.472 56.28 149.317 57.4149 147.25 58.75C141.25 62.625 135.25 59.875 131.875 58.75L131.622 58.667C129.493 57.9804 127.897 57.7735 126.636 58.4111C126.373 58.6052 126.113 58.787 125.855 58.9544C125.578 59.2071 125.318 59.5161 125.073 59.8869L125 60C123.8 61.9 120.167 64.0832 119.125 63.75C119.516 63.4894 120.747 62.0835 121.266 60.3068C119.171 60.2694 116.806 58.366 117.172 56.7785C113.066 62.4919 117.578 71.7931 113.75 75.0585C108.689 79.3752 110.931 86.1565 110.25 89.4694L110.25 100.125C110.25 100.884 109.634 101.5 108.875 101.5C108.116 101.5 107.5 100.884 107.5 100.125L107.5 89.9196C106.009 87.0385 104.75 80.2761 104.75 75.0585C104.75 63.0349 107.661 54.2509 113.027 48.2615C113.009 47.8703 113.039 47.4506 113.125 47C114.25 41.125 119 37.375 122.375 37.375C124.127 37.375 125.643 37.3077 127.063 37.2778C128.784 35.4349 131.32 33.8802 134.507 32.9144C143.965 30.0485 155.357 30.8445 165.454 34.3694Z" fill="#393939"/>
<path d="M145.718 100.922L149.929 101.5C149.817 102.315 149.481 103.125 148.927 104.115L148.816 104.311C148.683 104.542 148.537 104.785 148.369 105.057L148.071 105.533L147.478 106.465C147.179 106.937 146.961 107.288 146.762 107.626L146.654 107.812C145.81 109.275 145.548 110.166 145.667 110.433L145.675 110.447C145.687 110.463 145.71 110.487 145.756 110.524C145.891 110.631 146.112 110.747 146.432 110.857C147.29 111.153 148.614 111.326 150.423 111.335L150.583 111.336V115.586C145.763 115.586 142.869 114.589 141.787 112.167C141.276 111.023 141.296 109.784 141.696 108.467C141.965 107.582 142.396 106.678 143.013 105.618L143.102 105.465C143.312 105.111 143.531 104.755 143.817 104.303L144.362 103.44C145.36 101.849 145.65 101.309 145.712 100.959L145.718 100.922Z" fill="#EBBAAA"/>
<path d="M155.646 123.388C156.675 122.985 157.835 123.493 158.237 124.521C158.64 125.55 158.132 126.71 157.104 127.113C152.412 128.949 145.64 128.82 139.944 127.171C138.883 126.864 138.272 125.755 138.579 124.694C138.886 123.633 139.995 123.022 141.056 123.329C145.973 124.752 151.873 124.864 155.646 123.388Z" fill="#C99584"/>
<path d="M156.512 115.13C157.199 115.068 157.807 115.574 157.87 116.262C158.053 118.278 158.935 120.675 160.385 122.53C162.242 124.906 164.88 126.293 168.404 126.375C169.094 126.391 169.641 126.964 169.625 127.654C169.609 128.344 169.036 128.891 168.346 128.875C164.055 128.775 160.724 127.023 158.415 124.07C156.655 121.818 155.605 118.964 155.38 116.488C155.318 115.801 155.824 115.193 156.512 115.13Z" fill="#EBBAAA"/>
</svg>
