<svg width="300" height="400" viewBox="0 0 300 400" fill="none" xmlns="http://www.w3.org/2000/svg">
<path d="M147.536 279.48C163.482 279.48 176.409 273.357 176.409 265.803C176.409 258.25 163.482 252.127 147.536 252.127C131.59 252.127 118.664 258.25 118.664 265.803C118.664 273.357 131.59 279.48 147.536 279.48Z" fill="black"/>
<path d="M168.831 311.48C172.522 311.48 175.521 314.442 175.581 318.118L175.581 318.23V360.23C175.581 363.958 172.559 366.98 168.831 366.98C165.141 366.98 162.142 364.018 162.082 360.342L162.081 360.23V318.23C162.081 314.502 165.104 311.48 168.831 311.48Z" fill="#DCE1E9"/>
<path d="M134.084 311.52C137.753 311.119 141.056 313.738 141.515 317.386L141.528 317.497L145.71 355.767C146.115 359.473 143.439 362.805 139.733 363.21C136.064 363.611 132.762 360.992 132.303 357.344L132.29 357.233L128.108 318.963C127.703 315.258 130.379 311.925 134.084 311.52Z" fill="#DCE1E9"/>
<path d="M116.5 250.5H150.25L149 340.448L147 347.5L127.875 346.5L124.972 338.825L116.5 250.5Z" fill="black"/>
<path d="M149.929 252.005H183.793L182.5 338.5L179.75 345.75L160.625 349.125L158.435 340.5L149.929 252.005Z" fill="black"/>
<path d="M127.375 344.5H147.875L144.75 356.25L130.25 355.375L127.375 344.5Z" fill="black"/>
<path d="M159.5 344.5L180.125 344.75L177.125 356L162.25 356.375L159.5 344.5Z" fill="black"/>
<path d="M103.75 368C103.75 360.325 108.681 359.388 116.719 356.758C120.656 355.47 124.674 354.348 128.75 353.673C131.312 353.248 132 355.5 136.5 355.5C140.513 355.5 145.52 353.513 146.556 353.083C146.686 353.028 146.84 352.98 146.944 353.075C146.969 353.098 146.99 353.128 147.006 353.158C147.485 354.143 150 359.513 150 363.81C150 367.098 150.282 370.33 149.375 372C148.966 372.753 146.412 373.165 145.555 373.165H105.14C104.372 373.165 103.75 368.768 103.75 368Z" fill="#DEDEDE"/>
<mask id="mask0_0_4592" style="mask-type:luminance" maskUnits="userSpaceOnUse" x="103" y="352" width="48" height="22">
<path fill-rule="evenodd" clip-rule="evenodd" d="M103.75 368C103.75 364.057 105.052 361.892 107.407 360.363C118.615 353.088 133.146 352.745 146.5 352.25C146.609 352.25 146.958 353.06 147.006 353.158C147.485 354.143 150 359.513 150 363.81C150 367.097 150.282 370.33 149.375 372C148.966 372.753 146.412 373.165 145.555 373.165H105.14C104.372 373.165 103.75 368.767 103.75 368Z" fill="white"/>
</mask>
<g mask="url(#mask0_0_4592)">
<path d="M109.625 362.75C105.75 362.75 104.667 360.5 104.25 360.125C103.5 361 104.125 364.525 103.625 366.125C103.125 367.725 103.833 369.292 104.25 369.875L139.125 371.5C139.333 368.167 139.625 361.5 139.125 361.5C138.5 361.5 134.5 356.125 132.375 356C130.675 355.9 122.417 358.042 118.5 359.125C119 359.625 119.825 362.175 120.125 363.375C120.5 364.875 120.625 364.875 119.25 365.25C117.875 365.625 117.625 362.75 116.125 362.75H109.625Z" fill="#E9EAEB"/>
<path d="M136.125 361.625C136.725 360.625 146.375 359.208 150.25 358.75L152 369.5L132.5 370.625C133.458 368.042 135.525 362.625 136.125 361.625Z" fill="#E4E1D9"/>
<path d="M140.625 354.5C143.625 354.3 146.125 352.668 147.125 351.75C148.125 352.75 150.6 355.5 150 356.5C149.25 357.75 143.5 358.75 141 358.75C138.5 358.75 136.875 354.75 140.625 354.5Z" fill="#272625"/>
<path d="M125.875 369.375C119.5 369.125 114 370.625 107 369.125C94.5 367.75 100.922 368.567 97.75 374.647H146.771C151.625 373.5 153.236 366.427 149.625 367C141.75 368.25 130.752 369.567 125.875 369.375Z" fill="#CDC7BB"/>
</g>
<path d="M127.559 353.1C127.78 352.737 128.254 352.621 128.617 352.842L128.987 353.057C129.253 353.21 129.593 353.405 129.785 353.519L129.853 353.56C131.257 354.414 132.02 355.189 132.02 356.27C132.02 356.75 131.587 357.109 131.121 357.029L131.077 357.02L125.58 355.755L127.186 357.852C127.628 358.429 127.097 359.232 126.404 359.071L126.364 359.061L120.914 357.511L122.116 358.703C122.406 358.991 122.419 359.453 122.153 359.757L122.12 359.792C121.832 360.083 121.37 360.096 121.067 359.83L121.031 359.797L117.708 356.499C117.153 355.949 117.676 355.028 118.42 355.201L118.461 355.212L124.55 356.944L123.056 354.993C122.626 354.432 123.117 353.644 123.799 353.766L123.84 353.775L129.301 355.031L129.18 354.954L129.052 354.875C128.813 354.729 127.97 354.251 127.817 354.158C127.454 353.937 127.338 353.463 127.559 353.1Z" fill="#CDC7BB"/>
<path fill-rule="evenodd" clip-rule="evenodd" d="M124.55 347.64C125.09 346.901 125.873 346.5 126.834 346.5C128.808 346.5 130.299 348.196 130.299 350.477L130.301 350.747L130.317 351.788L130.317 352.117C130.312 352.583 130.281 352.913 130.209 353.187C130.121 353.526 129.969 353.766 129.734 353.931C129.479 354.11 129.12 354.197 128.631 354.197C127.611 354.197 126.395 353.819 125.448 353.188C124.38 352.477 123.755 351.53 123.755 350.477C123.755 349.338 124.032 348.345 124.55 347.64ZM128.76 350.478C128.76 349.006 127.91 348.04 126.834 348.04C126.367 348.04 126.045 348.205 125.792 348.551C125.483 348.971 125.295 349.645 125.295 350.478C125.295 350.954 125.628 351.458 126.302 351.907C127 352.371 127.919 352.658 128.631 352.658C128.664 352.658 128.694 352.657 128.722 352.656L128.746 352.655L128.756 352.576C128.768 352.451 128.775 352.291 128.778 352.089L128.778 352.011C128.778 351.93 128.778 351.854 128.777 351.76L128.761 350.798L128.76 350.478Z" fill="#CDC7BB"/>
<path fill-rule="evenodd" clip-rule="evenodd" d="M130.395 351.763L130.111 352.376C130.089 352.423 130.07 352.466 130.052 352.507L129.986 352.66C129.873 352.929 129.806 353.137 129.776 353.323C129.756 353.449 129.753 353.56 129.767 353.662L129.775 353.706L129.78 353.729C129.784 353.764 129.788 353.787 129.806 353.823L129.811 353.833L129.816 353.846C129.824 353.868 129.831 353.884 129.848 353.912L129.894 353.991C130.014 354.174 130.221 354.334 130.545 354.478C131.239 354.786 132.177 354.899 133.008 354.762C133.945 354.609 134.652 354.164 134.965 353.461C135.306 352.693 135.414 351.945 135.272 351.316C135.125 350.659 134.714 350.153 134.063 349.862C132.747 349.277 131.255 349.929 130.557 351.407L130.395 351.763ZM131.222 353.417L130.538 352.798L131.13 353.115L131.184 353.191C131.21 353.228 131.228 353.256 131.242 353.279L131.258 353.307L131.283 353.392C131.283 353.396 131.284 353.4 131.285 353.404L131.222 353.417ZM131.93 352.109L131.796 352.404L131.533 352.969L131.443 353.168L131.477 353.178C131.835 353.274 132.272 353.307 132.668 353.256L132.758 353.243C133.227 353.166 133.482 353.006 133.558 352.835C133.773 352.353 133.833 351.934 133.77 351.653C133.728 351.469 133.64 351.36 133.436 351.269C132.914 351.037 132.28 351.322 131.93 352.109Z" fill="#CDC7BB"/>
<path fill-rule="evenodd" clip-rule="evenodd" d="M130.179 357.839L133.927 364.689L131.239 365.764L126.752 363.117L129.055 366.803L126.445 368.039L122.829 361.193L125.631 359.859L129.685 362.224L127.435 359.074L130.179 357.839ZM133.573 364.561L130.071 358.161L127.815 359.176L130.566 363.027L125.619 360.141L123.171 361.307L126.555 367.711L128.695 366.697L125.998 362.382L131.26 365.486L133.573 364.561Z" fill="black"/>
<path d="M204.042 368C204.042 360.325 199.11 359.388 191.072 356.758C187.136 355.47 183.118 354.348 179.042 353.673C176.48 353.248 175.792 355.5 171.292 355.5C167.279 355.5 162.272 353.513 161.235 353.083C161.105 353.028 160.951 352.98 160.848 353.075C160.823 353.098 160.802 353.128 160.786 353.158C160.307 354.143 157.792 359.513 157.792 363.81C157.792 367.098 157.51 370.33 158.417 372C158.826 372.753 161.379 373.165 162.237 373.165H202.651C203.419 373.165 204.042 368.768 204.042 368Z" fill="#DEDEDE"/>
<mask id="mask1_0_4592" style="mask-type:luminance" maskUnits="userSpaceOnUse" x="157" y="352" width="48" height="22">
<path fill-rule="evenodd" clip-rule="evenodd" d="M204.042 368C204.042 364.057 202.74 361.892 200.385 360.363C189.177 353.088 174.645 352.745 161.292 352.25C161.182 352.25 160.834 353.06 160.786 353.158C160.307 354.143 157.792 359.513 157.792 363.81C157.792 367.097 157.51 370.33 158.417 372C158.826 372.753 161.379 373.165 162.237 373.165H202.651C203.419 373.165 204.042 368.767 204.042 368Z" fill="white"/>
</mask>
<g mask="url(#mask1_0_4592)">
<path d="M198.167 362.75C202.042 362.75 203.125 360.5 203.542 360.125C204.292 361 203.667 364.525 204.167 366.125C204.667 367.725 203.958 369.292 203.542 369.875L168.667 371.5C168.458 368.167 168.167 361.5 168.667 361.5C169.292 361.5 173.292 356.125 175.417 356C177.117 355.9 185.375 358.042 189.292 359.125C188.792 359.625 187.967 362.175 187.667 363.375C187.292 364.875 187.167 364.875 188.542 365.25C189.917 365.625 190.167 362.75 191.667 362.75H198.167Z" fill="#E9EAEB"/>
<path d="M171.667 361.625C171.067 360.625 161.417 359.208 157.542 358.75L155.792 369.5L175.292 370.625C174.333 368.042 172.267 362.625 171.667 361.625Z" fill="#E4E1D9"/>
<path d="M167.166 354.5C164.166 354.3 161.666 352.668 160.666 351.75C159.666 352.75 157.191 355.5 157.791 356.5C158.541 357.75 164.291 358.75 166.791 358.75C169.291 358.75 170.916 354.75 167.166 354.5Z" fill="#272625"/>
<path d="M181.916 369.375C188.291 369.125 193.791 370.625 200.791 369.125C213.291 367.75 206.869 368.567 210.041 374.647H161.02C156.166 373.5 154.556 366.427 158.166 367C166.041 368.25 177.039 369.567 181.916 369.375Z" fill="#CDC7BB"/>
</g>
<path d="M179.174 352.842C179.537 352.621 180.011 352.737 180.232 353.1C180.453 353.463 180.338 353.937 179.974 354.158L179.712 354.311C179.414 354.483 178.965 354.74 178.771 354.856L178.739 354.875C178.681 354.911 178.625 354.945 178.571 354.98L178.49 355.031L183.951 353.775C184.64 353.616 185.153 354.389 184.76 354.959L184.735 354.993L183.241 356.944L189.331 355.212C190.082 354.998 190.629 355.905 190.113 356.469L190.084 356.499L186.76 359.797C186.458 360.096 185.971 360.094 185.671 359.792C185.383 359.502 185.374 359.04 185.642 358.739L185.675 358.703L186.878 357.511L181.428 359.061C180.728 359.26 180.176 358.471 180.582 357.885L180.606 357.852L182.212 355.755L176.714 357.02C176.246 357.128 175.799 356.787 175.773 356.315L175.772 356.27C175.772 355.189 176.535 354.414 177.938 353.56L178.138 353.442C178.492 353.234 179.071 352.905 179.174 352.842Z" fill="#CDC7BB"/>
<path fill-rule="evenodd" clip-rule="evenodd" d="M177.493 350.39C177.53 348.153 179.009 346.5 180.957 346.5C181.918 346.5 182.701 346.901 183.241 347.639C183.76 348.346 184.037 349.338 184.037 350.477C184.037 351.53 183.411 352.477 182.343 353.188C181.396 353.819 180.18 354.197 179.16 354.197C178.671 354.197 178.312 354.11 178.058 353.931C177.823 353.767 177.671 353.526 177.582 353.187C177.505 352.893 177.475 352.534 177.474 352.015L177.473 351.914L177.482 351.288L177.49 350.841L177.493 350.39ZM181.999 348.55C181.747 348.205 181.425 348.04 180.957 348.04C179.881 348.04 179.032 349.006 179.032 350.478C179.032 350.625 179.031 350.761 179.029 350.927L179.015 351.71L179.013 352.01C179.014 352.277 179.024 352.476 179.041 352.62L179.045 352.655L179.069 352.656L179.16 352.658C179.872 352.658 180.792 352.371 181.489 351.907C182.164 351.458 182.497 350.954 182.497 350.478C182.497 349.646 182.308 348.971 181.999 348.55Z" fill="#CDC7BB"/>
<path fill-rule="evenodd" clip-rule="evenodd" d="M173.73 349.861C173.077 350.153 172.666 350.659 172.519 351.317C172.378 351.945 172.485 352.693 172.825 353.46C173.14 354.164 173.847 354.609 174.784 354.762C175.614 354.899 176.552 354.786 177.245 354.479L177.313 354.447C177.575 354.322 177.754 354.186 177.869 354.034L177.903 353.986L177.92 353.952L177.933 353.931C177.965 353.876 177.97 353.863 177.987 353.815L177.992 353.798C177.997 353.786 178 353.775 178.003 353.764L178.014 353.717L178.024 353.662C178.038 353.56 178.035 353.449 178.016 353.326C177.983 353.121 177.906 352.892 177.774 352.585L177.721 352.465L177.304 351.562L177.268 351.482C176.586 349.951 175.066 349.267 173.73 349.861ZM176.624 353.427L176.506 353.404L176.512 353.377L176.531 353.314L176.557 353.254L176.589 353.186L176.62 353.135L176.911 352.888L176.927 352.882C177.002 352.858 177.104 352.832 177.258 352.792L177.258 352.792L176.624 353.427ZM176.297 353.053L175.889 352.171L175.831 352.042C175.475 351.305 174.863 351.043 174.356 351.268C174.151 351.36 174.063 351.468 174.021 351.654C173.958 351.933 174.019 352.352 174.232 352.833C174.309 353.005 174.564 353.166 175.034 353.243C175.452 353.312 175.929 353.281 176.314 353.178L176.348 353.168L176.297 353.053Z" fill="#CDC7BB"/>
<path fill-rule="evenodd" clip-rule="evenodd" d="M177.612 357.839L180.357 359.074L178.106 362.224L182.161 359.859L184.963 361.193L181.346 368.039L178.736 366.803L181.04 363.117L176.552 365.764L173.864 364.689L177.612 357.839ZM179.976 359.176L177.72 358.161L174.219 364.561L176.531 365.486L181.794 362.382L179.097 366.697L181.237 367.711L184.62 361.307L182.172 360.141L177.226 363.027L179.976 359.176Z" fill="black"/>
<mask id="mask2_0_4592" style="mask-type:luminance" maskUnits="userSpaceOnUse" x="116" y="250" width="35" height="98">
<path fill-rule="evenodd" clip-rule="evenodd" d="M116.5 250.5H150.25L149 340.448L147 347.5L127.875 346.5L124.972 338.825L116.5 250.5Z" fill="white"/>
</mask>
<g mask="url(#mask2_0_4592)">
<path d="M131.25 330.25C127.45 329.95 124.25 328.125 123.125 327.25L122 331.375C123.792 332.707 128.15 335.375 131.25 335.375H151V330.25C146 330.375 135.05 330.55 131.25 330.25Z" fill="white"/>
<path d="M131.25 323C127.45 322.7 124.25 320.875 123.125 320L122 324.125C123.792 325.457 128.15 328.125 131.25 328.125H151V323C146 323.125 135.05 323.3 131.25 323Z" fill="white"/>
<path d="M131.25 337.5C127.45 337.2 124.25 335.375 123.125 334.5L122 338.625C123.792 339.957 128.15 342.625 131.25 342.625H151V337.5C146 337.625 135.05 337.8 131.25 337.5Z" fill="white"/>
</g>
<path d="M96.6891 188.274C99.0129 183.724 104.585 181.92 109.134 184.244C113.638 186.544 115.452 192.028 113.233 196.552L113.164 196.689C109.943 202.996 106.542 215.709 104.765 228.017L104.712 228.39C103.854 234.442 103.473 239.855 103.625 243.787L103.638 244.093C103.694 245.296 103.8 246.282 103.932 246.996L103.964 247.158L103.971 247.167C106.598 250.174 107.052 254.654 104.825 258.183L104.742 258.312C101.946 262.588 96.2138 263.788 91.938 260.992C88.8824 258.994 87.212 256.074 86.2309 252.51C85.5972 250.207 85.2562 247.548 85.1386 244.501C84.9419 239.408 85.379 233.067 86.3461 226.14L86.3949 225.793C88.4184 211.519 92.343 196.782 96.6891 188.274Z" fill="#EBBAAA"/>
<path d="M184.386 178.241C188.835 175.731 194.477 177.303 196.987 181.752C202.911 192.254 207.284 207.093 209.542 222.602C211.691 237.37 211.647 250.725 208.943 258.161C207.197 262.962 201.89 265.439 197.089 263.693C192.336 261.965 189.861 256.746 191.506 251.983L191.557 251.839C192.94 248.035 192.976 237.229 191.235 225.266C189.279 211.83 185.522 199.081 180.874 190.842C178.364 186.392 179.936 180.751 184.386 178.241Z" fill="#EBBAAA"/>
<rect x="96.1656" y="180.134" width="27.468" height="4.17175" transform="rotate(18 96.1656 180.134)" fill="#F1EDED"/>
<rect x="202.685" y="189.255" width="27.468" height="4.17175" transform="rotate(162 202.685 189.255)" fill="#F1EDED"/>
<path d="M117.138 168.529C117.347 159.925 124.235 152.978 132.836 152.697L152.917 152.04C154.554 151.988 156.192 152.073 157.813 152.298L177.415 155.008C186.063 156.204 192.216 164.022 191.345 172.708L187.637 209.68L189.498 262.649C189.516 263.103 167.954 262.672 167.5 262.649H132.836L113.134 259.676C112.699 259.652 112.366 259.274 112.402 258.838L116.252 205.076L117.138 168.529Z" fill="#41569F"/>
<rect x="135.25" y="137" width="29" height="29.75" rx="9.47775" fill="#EBBAAA"/>
<path d="M100.148 166.408C102.645 157.978 111.812 153.483 120.005 156.67C126.799 159.312 130.717 166.449 129.299 173.599L118.414 228.499C116.398 238.668 106.077 244.905 96.1365 241.96C86.8103 239.198 81.4894 229.398 84.252 220.072L100.148 166.408Z" fill="#403F47"/>
<path d="M83.5503 251.25C81.9503 246.65 83 224.5 85 217L112.05 221.75C109 231.25 108.5 243.75 106.25 256L106.212 256.002C100.925 256.254 85.5454 256.986 83.5503 251.25Z" fill="#403F47"/>
<path d="M90.25 216.5L108.375 222L88.625 220.125L90.25 216.5Z" fill="#333337"/>
<path d="M94.75 223.75L108.75 223L96.625 226.875L94.75 223.75Z" fill="#333337"/>
<path d="M195.938 165.721C192.924 156.968 182.627 153.198 174.673 157.935C169.332 161.116 166.593 167.333 167.849 173.422L180.107 232.816C182.36 243.73 193.688 250.183 204.225 246.555C213.876 243.232 219.006 232.714 215.682 223.063L195.938 165.721Z" fill="#413F47"/>
<path d="M174.5 161.06L186.75 156.375L195.076 162.984L197.375 172.875L182.099 178.746L174.5 161.06Z" fill="url(#paint0_linear_0_4592)"/>
<path d="M189 196.06L202.625 189.875L209.5 207L196.599 213.746L189 196.06Z" fill="url(#paint1_linear_0_4592)"/>
<path d="M92.1683 188.794L106.709 192.322L101.567 210.045L87.25 207.405L92.1683 188.794Z" fill="url(#paint2_linear_0_4592)"/>
<path d="M103.918 172.044L133.802 179.627L128.205 197.229L99 190.655L103.918 172.044Z" fill="url(#paint3_linear_0_4592)"/>
<path d="M87.7759 229.932L133.008 225.756L133.24 244.251L89.4174 249.112L87.7759 229.932Z" fill="url(#paint4_linear_0_4592)"/>
<rect x="181.5" y="221.81" width="26.75" height="19.25" transform="rotate(-23.2506 181.5 221.81)" fill="url(#paint5_linear_0_4592)"/>
<rect x="169.75" y="183.31" width="26.75" height="19.25" transform="rotate(-23.2506 169.75 183.31)" fill="url(#paint6_linear_0_4592)"/>
<path d="M152.625 217.625C152.426 200.836 150 186.038 150 178C149.192 178 146.287 174.65 143 173C139.162 171.073 134.895 170.779 134.221 170.375C134.289 163.914 134.746 157.289 132 151.25L118.648 155.368C115.317 159.951 109.458 173.645 108.517 199.874C107.577 226.104 109.497 251.859 108.517 263.67C112.632 264.86 140.356 267.98 153.875 263.75C153.875 246.828 152.919 242.479 152.625 217.625Z" fill="#46454B"/>
<rect x="112.5" y="168" width="26.75" height="19.25" fill="url(#paint7_linear_0_4592)"/>
<rect x="127" y="245.25" width="26.75" height="19.25" fill="url(#paint8_linear_0_4592)"/>
<rect x="113.75" y="187.25" width="37.5" height="19.25" fill="url(#paint9_linear_0_4592)"/>
<rect x="111.5" y="225.75" width="37.5" height="19.25" fill="url(#paint10_linear_0_4592)"/>
<rect x="108.25" y="206.5" width="54.25" height="19.25" fill="url(#paint11_linear_0_4592)"/>
<path d="M132.75 259.75C127.15 260.15 114.25 257 108.5 255V263.5C111.75 266 120.181 266.786 124.75 267.5C132.75 268.75 142 266.5 152 265L151.5 257.375C148 258.125 138.35 259.35 132.75 259.75Z" fill="#343537"/>
<path d="M215.5 251.75C217.1 247.15 217.5 231 215.5 223.5L187 222.25C190.05 231.75 190.55 244.25 192.8 256.5L192.839 256.502C198.125 256.754 213.505 257.486 215.5 251.75Z" fill="#403F47"/>
<path d="M200.776 232.73L214.505 231.25L215.67 249.666L202.417 251.91L200.776 232.73Z" fill="url(#paint12_linear_0_4592)"/>
<path d="M207.125 213.75L189 219.25L208.75 217.375L207.125 213.75Z" fill="#333337"/>
<path d="M203.75 221.75L189.75 221L201.875 224.875L203.75 221.75Z" fill="#333337"/>
<path d="M151.5 218.5C151.687 202.254 149.875 186.028 149.875 178.25C150.536 178.25 153.268 175.406 155.875 173.625C158.641 171.735 161.307 170.853 162.326 170.516L162.375 170.5C163.271 163.85 165.691 156.47 168.22 150.75L178.737 152.916C182.118 153.612 185.092 155.625 185.999 158.957C188.119 166.75 189.675 181.647 190.36 201.281C191.244 226.662 192.578 252.753 193.5 264.181C186.31 265.204 166.221 267.594 153.5 263.5C153.5 247.125 151.224 242.55 151.5 218.5Z" fill="#46454B"/>
<rect x="156.25" y="168" width="26.75" height="19.25" fill="url(#paint13_linear_0_4592)"/>
<rect x="170.75" y="245.25" width="26.75" height="19.25" fill="url(#paint14_linear_0_4592)"/>
<rect x="157.5" y="187.25" width="37.5" height="19.25" fill="url(#paint15_linear_0_4592)"/>
<rect x="155.25" y="225.75" width="37.5" height="19.25" fill="url(#paint16_linear_0_4592)"/>
<rect x="152" y="206.5" width="45.5" height="19.25" fill="url(#paint17_linear_0_4592)"/>
<path d="M163.125 165.125L149.75 178.625C150.328 178.042 152.562 176.225 156.875 173.625C161.188 171.025 176.089 164.792 182.375 164C182.375 163.042 180.5 160.875 180.5 158.875C180.5 157.625 182.625 155.583 184.375 155.25C183.125 154.5 181.7 154.225 180.5 153.125C179.3 152.025 173.625 152.125 170.625 152L163.125 165.125Z" fill="#333337"/>
<path d="M117.375 153C117.575 152.1 118.542 151.208 119 150.875C124.042 155.375 132.1 163.65 124 160.75C113.875 157.125 113.5 154 114.5 153.5C115.5 153 117.125 154.125 117.375 153Z" fill="#41569F"/>
<path d="M137.25 159.375C137.05 157.275 135.959 152.167 135.5 150.125C133 149.5 129.542 147.542 128.375 146.625C125.917 147 118.9 148.025 118.5 152.625C118 158.375 129.875 164.375 133 167C136.125 169.625 138.875 167 143.375 168.25C146.975 169.25 150.459 167.833 151.75 167C150.084 166.625 146.225 165.575 144.125 164.375C142.025 163.175 139.75 163.875 138.875 164.375C138.417 163.583 137.45 161.475 137.25 159.375Z" fill="#4E65B4"/>
<path d="M163.75 157.75C162.125 155.5 164.375 150.5 164.375 150.5C166.875 149.875 169 148.625 171.75 147C173.792 146.833 179.825 147.075 179.625 149.875C179.375 153.375 172.875 154.625 169.5 157C166.125 159.375 170.25 161.75 159.125 167.375C150.225 171.875 140.208 170.75 136.75 168.875C138.167 169.541 141.925 170.475 145.625 168.875C149.325 167.275 153.375 166.458 154.625 166.625C155.208 166.125 158 165 160.625 162.125C163.25 159.25 165.375 160 163.75 157.75Z" fill="#4E65B4"/>
<path d="M118.125 156.5C116.525 156.7 115.125 156 114.625 155.625C114.625 156.708 115.775 159.95 120.375 164.25C124.975 168.55 136.708 171.708 142 172.75L149.75 178.125C148.667 176.875 145.6 173.925 142 172.125C138.4 170.325 127.583 160.375 122.625 155.625C121.792 155.833 119.725 156.3 118.125 156.5Z" fill="#333337"/>
<path d="M171.75 259.25C177.35 259.65 188.25 259.125 193 255.25L193.5 264C188.5 265.25 181.625 266.25 179.75 266.25C171.653 266.25 163 266.625 153 265.125V257.75C156.5 258.5 166.15 258.85 171.75 259.25Z" fill="#343537"/>
<path fill-rule="evenodd" clip-rule="evenodd" d="M149.372 181.125H150.621L153.25 257.875V264.095L151.629 264.537L149.372 181.125ZM153 257.879L150.379 181.375H149.628L151.871 264.212L153 263.904L153 257.879Z" fill="#333337"/>
<path d="M150.625 177.75H149.5L148.5 179.125L149.5 181.5H150.75L151.625 179.125L150.625 177.75Z" fill="#D1D6DF"/>
<path d="M149.125 179.25H151" stroke="#333337" stroke-width="0.25"/>
<path d="M149.5 181.5H150.75L150.375 185.75H149L149.5 181.5Z" fill="#333337"/>
<rect x="160.25" y="174.5" width="13.25" height="2.5" fill="#333337"/>
<path d="M114.147 117.79C122.165 117.79 128.665 111.625 128.665 104.02C128.665 96.4151 122.165 90.25 114.147 90.25C106.13 90.25 99.6299 96.4151 99.6299 104.02C99.6299 111.625 106.13 117.79 114.147 117.79Z" fill="#EBBAAA"/>
<path d="M187.897 117.79C195.915 117.79 202.415 111.625 202.415 104.02C202.415 96.4151 195.915 90.25 187.897 90.25C179.88 90.25 173.38 96.4151 173.38 104.02C173.38 111.625 179.88 117.79 187.897 117.79Z" fill="#EBBAAA"/>
<path d="M108.082 80.8495C107.13 56.7592 126.403 36.7107 150.512 36.7107C174.678 36.7107 193.973 56.852 192.935 80.9967L191.534 113.609C190.588 135.611 172.476 152.961 150.455 152.961C128.378 152.961 110.242 135.526 109.37 113.467L108.082 80.8495Z" fill="#EED4CC"/>
<path d="M136.571 97.0475C138.227 96.9862 139.619 98.2788 139.68 99.9345C139.741 101.565 138.488 102.939 136.869 103.04L136.793 103.043L129.731 103.305C128.075 103.366 126.684 102.073 126.622 100.418C126.562 98.7874 127.814 97.4129 129.433 97.3125L129.509 97.3088L136.571 97.0475Z" fill="black"/>
<path d="M161.134 99.4645C161.25 97.8372 162.642 96.6052 164.263 96.6795L164.339 96.6839L171.388 97.1831C173.041 97.3002 174.286 98.7349 174.169 100.388C174.053 102.015 172.661 103.247 171.04 103.173L170.964 103.168L163.915 102.669C162.262 102.552 161.017 101.117 161.134 99.4645Z" fill="black"/>
<path d="M138.972 86.1904C140.35 86.1062 141.536 87.1551 141.62 88.5332C141.703 89.888 140.691 91.0566 139.347 91.1759L139.277 91.1811L124.153 92.1056C122.774 92.1898 121.589 91.1409 121.505 89.7628C121.422 88.408 122.434 87.2394 123.778 87.1201L123.847 87.1149L138.972 86.1904Z" fill="#393939"/>
<path d="M160.305 86.1014L175.454 86.4344C176.835 86.4648 177.929 87.6084 177.899 88.9887C177.869 90.3457 176.763 91.4264 175.414 91.4338L175.344 91.4332L160.195 91.1002C158.815 91.0699 157.72 89.9262 157.751 88.5459C157.78 87.1889 158.886 86.1082 160.235 86.1008L160.305 86.1014Z" fill="#393939"/>
<path d="M145.564 27.0086C149.586 27.1143 153.081 28.0618 156.115 29.6106C157.323 29.3831 158.653 29.3179 160.125 29.5C166.549 29.5 175.304 36.6747 179.593 45.3044C185.439 46.8942 190.543 51.6967 192.262 62.875C194.331 76.3277 194.001 91.7227 192.63 92.0401L192.63 103.375C192.63 104.134 192.014 104.75 191.255 104.75C190.495 104.75 189.88 104.134 189.88 103.375L189.88 88.2332L189.674 87.921C187.487 84.5879 186.384 82.2073 184.755 74.125L184.707 73.8847C183.942 69.9432 183.693 65.1721 179.632 61.8901C174.549 58.1107 164.94 58.2061 154.985 58.0123L153.219 57.9769C140.753 57.7399 128.132 57.9024 123.5 61.125C116 66.3425 120.826 74.6182 116.5 78.3085C111.386 82.6712 112.328 89.551 111.38 92.824L111.38 103.375C111.38 104.134 110.764 104.75 110.005 104.75C109.245 104.75 108.63 104.134 108.63 103.375L108.63 93.1697C107.139 90.2887 105.88 83.5263 105.88 78.3085C105.88 69.387 107.771 61.5127 111.17 55.0044C109.006 52.1598 111.653 45.8751 116.25 45.875C116.705 45.875 117.18 45.9097 117.672 45.9757L117.75 45.8947C117.763 44.2594 118.684 42.8655 120.151 42.0807C120.689 41.7926 121.393 41.7011 122.227 41.7738C123.45 38.0742 126.569 34.5503 133.375 34.1249L133.561 34.1159C134.399 30.7693 137.235 26.7898 145.564 27.0086Z" fill="#2C2929"/>
<path d="M146.848 104.172L151.059 104.75C150.947 105.565 150.611 106.375 150.057 107.365C149.895 107.655 149.715 107.958 149.499 108.307L149.277 108.663L148.608 109.715L148.353 110.12C148.177 110.402 148.03 110.642 147.892 110.876L147.783 111.062C146.94 112.525 146.677 113.416 146.797 113.683C146.804 113.699 146.824 113.724 146.886 113.774C147.021 113.881 147.242 113.997 147.562 114.107C148.419 114.403 149.744 114.576 151.552 114.585L151.713 114.586V118.836L151.408 118.834C146.77 118.793 143.976 117.787 142.917 115.417C142.405 114.273 142.426 113.034 142.826 111.717C143.108 110.789 143.567 109.842 144.232 108.715L144.392 108.447C144.555 108.177 144.732 107.892 144.947 107.553L145.438 106.776C146.498 105.089 146.789 104.546 146.845 104.19L146.848 104.172Z" fill="#EBBAAA"/>
<path d="M153.467 94.8042C152.93 92.1355 154.627 89.5323 157.315 89.0993C159.977 88.6705 163.306 88.25 166.125 88.25C169.569 88.25 175.929 88.878 180.476 89.3815C183.339 89.6985 185.3 92.3903 184.767 95.2213L182.855 105.375C182.427 107.647 180.496 109.33 178.186 109.443L160.923 110.289C158.452 110.41 156.264 108.707 155.776 106.282L153.467 94.8042Z" fill="white" fill-opacity="0.14"/>
<path d="M146.533 94.8042C147.07 92.1355 145.373 89.5323 142.685 89.0993C140.023 88.6705 136.694 88.25 133.875 88.25C130.431 88.25 124.071 88.878 119.524 89.3815C116.661 89.6985 114.7 92.3903 115.233 95.2213L117.145 105.375C117.573 107.647 119.504 109.33 121.814 109.443L139.077 110.289C141.548 110.41 143.736 108.707 144.224 106.282L146.533 94.8042Z" fill="white" fill-opacity="0.14"/>
<path fill-rule="evenodd" clip-rule="evenodd" d="M157.315 89.0994C160.615 88.5676 163.651 88.25 166.125 88.25C168.847 88.25 173.509 88.6298 179.165 89.2384L180.488 89.3828C183.339 89.699 185.308 92.3768 184.781 95.2112L182.855 105.574C182.428 107.87 180.469 109.565 178.135 109.657L160.882 110.333C158.429 110.429 156.269 108.73 155.784 106.323L153.467 94.8041C152.924 92.1097 154.652 89.5283 157.315 89.0994ZM166.329 90.0007L166.125 90C163.762 90 160.809 90.3089 157.593 90.8271C155.924 91.0959 154.833 92.7256 155.182 94.4589L157.5 105.978C157.815 107.542 159.219 108.647 160.814 108.584L178.066 107.908C179.583 107.848 180.857 106.747 181.134 105.254L183.061 94.8913C183.402 93.0534 182.132 91.3259 180.295 91.1222C174.257 90.4533 169.211 90.0207 166.329 90.0007Z" fill="url(#paint18_linear_0_4592)"/>
<path fill-rule="evenodd" clip-rule="evenodd" d="M133.662 88.2507L133.875 88.25C136.349 88.25 139.385 88.5676 142.685 89.0994C145.348 89.5283 147.076 92.1097 146.533 94.8041L144.216 106.323C143.731 108.73 141.571 110.429 139.118 110.333L121.865 109.657C119.531 109.565 117.572 107.87 117.145 105.574L115.219 95.2112C114.692 92.3768 116.661 89.699 119.512 89.3828C125.614 88.7069 130.696 88.2711 133.662 88.2507ZM142.407 90.8271C139.191 90.3089 136.238 90 133.875 90C131.232 90 126.603 90.3777 120.998 90.9809L119.705 91.1222C117.868 91.3259 116.598 93.0534 116.939 94.8913L118.866 105.254C119.143 106.747 120.417 107.848 121.934 107.908L139.186 108.584C140.781 108.647 142.185 107.542 142.5 105.978L144.818 94.4589C145.167 92.7256 144.076 91.0959 142.407 90.8271Z" fill="url(#paint19_linear_0_4592)"/>
<path d="M150 92.75C152.068 92.75 153.463 93.309 154.685 94.3278C155.056 94.6372 155.107 95.1889 154.797 95.5602C154.488 95.9314 153.936 95.9816 153.565 95.6722C152.642 94.9035 151.636 94.5 150 94.5C149.068 94.5 148.192 94.6485 147.486 94.9018C146.938 95.0983 146.567 95.3385 146.5 95.4502C146.252 95.8646 145.714 95.9989 145.3 95.7503C144.885 95.5017 144.751 94.9642 145 94.5498C145.626 93.5055 147.733 92.75 150 92.75Z" fill="#33120C"/>
<path fill-rule="evenodd" clip-rule="evenodd" d="M137 123.683V128.267C137 135.309 142.708 141.017 149.75 141.017C156.792 141.017 162.5 135.309 162.5 128.267V123.683H137Z" fill="#393939"/>
<mask id="mask3_0_4592" style="mask-type:luminance" maskUnits="userSpaceOnUse" x="137" y="121" width="26" height="21">
<path fill-rule="evenodd" clip-rule="evenodd" d="M137.169 121.5C137.058 122.176 137 122.87 137 123.578V128.267C137 135.309 142.708 141.017 149.75 141.017C156.792 141.017 162.5 135.309 162.5 128.267V123.578C162.5 122.87 162.442 122.176 162.331 121.5H137.169Z" fill="white"/>
</mask>
<g mask="url(#mask3_0_4592)">
<path d="M149.75 145.107C153.996 145.107 157.439 143.233 157.439 140.92C157.439 138.607 153.996 136.732 149.75 136.732C145.504 136.732 142.061 138.607 142.061 140.92C142.061 143.233 145.504 145.107 149.75 145.107Z" fill="#FF6C6C"/>
<rect x="137" y="123.683" width="25.5" height="5.25873" fill="white"/>
</g>
<defs>
<linearGradient id="paint0_linear_0_4592" x1="183.15" y1="180.774" x2="201.722" y2="172.431" gradientUnits="userSpaceOnUse">
<stop stop-color="#C4C4C4" stop-opacity="0.01"/>
<stop offset="0.458333" stop-color="#C4C4C4" stop-opacity="0.26"/>
<stop offset="1" stop-color="#C4C4C4" stop-opacity="0.01"/>
</linearGradient>
<linearGradient id="paint1_linear_0_4592" x1="196.094" y1="214.688" x2="210.392" y2="210.158" gradientUnits="userSpaceOnUse">
<stop stop-color="#C4C4C4" stop-opacity="0.01"/>
<stop offset="0.458333" stop-color="#C4C4C4" stop-opacity="0.26"/>
<stop offset="1" stop-color="#C4C4C4" stop-opacity="0.01"/>
</linearGradient>
<linearGradient id="paint2_linear_0_4592" x1="87.4671" y1="207.868" x2="102.17" y2="211.126" gradientUnits="userSpaceOnUse">
<stop stop-color="#C4C4C4" stop-opacity="0.01"/>
<stop offset="0.458333" stop-color="#C4C4C4" stop-opacity="0.26"/>
<stop offset="1" stop-color="#C4C4C4" stop-opacity="0.01"/>
</linearGradient>
<linearGradient id="paint3_linear_0_4592" x1="95.4972" y1="194.027" x2="122.623" y2="207.715" gradientUnits="userSpaceOnUse">
<stop stop-color="#C4C4C4" stop-opacity="0.01"/>
<stop offset="0.458333" stop-color="#C4C4C4" stop-opacity="0.26"/>
<stop offset="1" stop-color="#C4C4C4" stop-opacity="0.01"/>
</linearGradient>
<linearGradient id="paint4_linear_0_4592" x1="92.5544" y1="253.102" x2="134.957" y2="239.351" gradientUnits="userSpaceOnUse">
<stop stop-color="#C4C4C4" stop-opacity="0.01"/>
<stop offset="0.458333" stop-color="#C4C4C4" stop-opacity="0.26"/>
<stop offset="1" stop-color="#C4C4C4" stop-opacity="0.01"/>
</linearGradient>
<linearGradient id="paint5_linear_0_4592" x1="181.5" y1="241.763" x2="204.993" y2="241.763" gradientUnits="userSpaceOnUse">
<stop stop-color="#C4C4C4" stop-opacity="0.01"/>
<stop offset="0.458333" stop-color="#C4C4C4" stop-opacity="0.26"/>
<stop offset="1" stop-color="#C4C4C4" stop-opacity="0.01"/>
</linearGradient>
<linearGradient id="paint6_linear_0_4592" x1="169.75" y1="203.263" x2="193.243" y2="203.263" gradientUnits="userSpaceOnUse">
<stop stop-color="#C4C4C4" stop-opacity="0.01"/>
<stop offset="0.458333" stop-color="#C4C4C4" stop-opacity="0.26"/>
<stop offset="1" stop-color="#C4C4C4" stop-opacity="0.01"/>
</linearGradient>
<linearGradient id="paint7_linear_0_4592" x1="112.5" y1="187.953" x2="135.993" y2="187.953" gradientUnits="userSpaceOnUse">
<stop stop-color="#C4C4C4" stop-opacity="0.01"/>
<stop offset="0.458333" stop-color="#C4C4C4" stop-opacity="0.26"/>
<stop offset="1" stop-color="#C4C4C4" stop-opacity="0.01"/>
</linearGradient>
<linearGradient id="paint8_linear_0_4592" x1="127" y1="265.203" x2="150.493" y2="265.203" gradientUnits="userSpaceOnUse">
<stop stop-color="#C4C4C4" stop-opacity="0.01"/>
<stop offset="0.458333" stop-color="#C4C4C4" stop-opacity="0.26"/>
<stop offset="1" stop-color="#C4C4C4" stop-opacity="0.01"/>
</linearGradient>
<linearGradient id="paint9_linear_0_4592" x1="113.75" y1="207.203" x2="146.685" y2="207.203" gradientUnits="userSpaceOnUse">
<stop stop-color="#C4C4C4" stop-opacity="0.01"/>
<stop offset="0.458333" stop-color="#C4C4C4" stop-opacity="0.36"/>
<stop offset="0.826677" stop-color="#C4C4C4" stop-opacity="0.01"/>
<stop offset="1" stop-color="#C4C4C4" stop-opacity="0.01"/>
</linearGradient>
<linearGradient id="paint10_linear_0_4592" x1="111.5" y1="245.703" x2="144.435" y2="245.703" gradientUnits="userSpaceOnUse">
<stop stop-color="#C4C4C4" stop-opacity="0.01"/>
<stop offset="0.458333" stop-color="#C4C4C4" stop-opacity="0.36"/>
<stop offset="0.826677" stop-color="#C4C4C4" stop-opacity="0.01"/>
<stop offset="1" stop-color="#C4C4C4" stop-opacity="0.01"/>
</linearGradient>
<linearGradient id="paint11_linear_0_4592" x1="108.25" y1="226.453" x2="155.896" y2="226.453" gradientUnits="userSpaceOnUse">
<stop stop-color="#C4C4C4" stop-opacity="0.01"/>
<stop offset="0.203125" stop-color="#C4C4C4" stop-opacity="0.14"/>
<stop offset="0.40625" stop-color="#C4C4C4" stop-opacity="0.01"/>
<stop offset="0.6875" stop-color="#C4C4C4" stop-opacity="0.22"/>
<stop offset="0.963542" stop-color="#C4C4C4" stop-opacity="0.01"/>
</linearGradient>
<linearGradient id="paint12_linear_0_4592" x1="202.184" y1="253.799" x2="216.067" y2="253.181" gradientUnits="userSpaceOnUse">
<stop stop-color="#C4C4C4" stop-opacity="0.01"/>
<stop offset="0.458333" stop-color="#C4C4C4" stop-opacity="0.26"/>
<stop offset="1" stop-color="#C4C4C4" stop-opacity="0.01"/>
</linearGradient>
<linearGradient id="paint13_linear_0_4592" x1="156.25" y1="187.953" x2="179.743" y2="187.953" gradientUnits="userSpaceOnUse">
<stop stop-color="#C4C4C4" stop-opacity="0.01"/>
<stop offset="0.458333" stop-color="#C4C4C4" stop-opacity="0.26"/>
<stop offset="1" stop-color="#C4C4C4" stop-opacity="0.01"/>
</linearGradient>
<linearGradient id="paint14_linear_0_4592" x1="170.75" y1="265.203" x2="194.243" y2="265.203" gradientUnits="userSpaceOnUse">
<stop stop-color="#C4C4C4" stop-opacity="0.01"/>
<stop offset="0.458333" stop-color="#C4C4C4" stop-opacity="0.26"/>
<stop offset="1" stop-color="#C4C4C4" stop-opacity="0.01"/>
</linearGradient>
<linearGradient id="paint15_linear_0_4592" x1="157.5" y1="207.203" x2="190.435" y2="207.203" gradientUnits="userSpaceOnUse">
<stop stop-color="#C4C4C4" stop-opacity="0.01"/>
<stop offset="0.458333" stop-color="#C4C4C4" stop-opacity="0.36"/>
<stop offset="0.826677" stop-color="#C4C4C4" stop-opacity="0.01"/>
<stop offset="1" stop-color="#C4C4C4" stop-opacity="0.01"/>
</linearGradient>
<linearGradient id="paint16_linear_0_4592" x1="155.25" y1="245.703" x2="188.185" y2="245.703" gradientUnits="userSpaceOnUse">
<stop stop-color="#C4C4C4" stop-opacity="0.01"/>
<stop offset="0.458333" stop-color="#C4C4C4" stop-opacity="0.36"/>
<stop offset="0.826677" stop-color="#C4C4C4" stop-opacity="0.01"/>
<stop offset="1" stop-color="#C4C4C4" stop-opacity="0.01"/>
</linearGradient>
<linearGradient id="paint17_linear_0_4592" x1="152" y1="226.453" x2="191.961" y2="226.453" gradientUnits="userSpaceOnUse">
<stop stop-color="#C4C4C4" stop-opacity="0.01"/>
<stop offset="0.203125" stop-color="#C4C4C4" stop-opacity="0.14"/>
<stop offset="0.40625" stop-color="#C4C4C4" stop-opacity="0.01"/>
<stop offset="0.6875" stop-color="#C4C4C4" stop-opacity="0.22"/>
<stop offset="0.963542" stop-color="#C4C4C4" stop-opacity="0.01"/>
</linearGradient>
<linearGradient id="paint18_linear_0_4592" x1="150.248" y1="88.0421" x2="151.291" y2="114.557" gradientUnits="userSpaceOnUse">
<stop stop-color="#180000"/>
<stop offset="1" stop-color="#A65A3B"/>
</linearGradient>
<linearGradient id="paint19_linear_0_4592" x1="111.997" y1="86.5573" x2="110.955" y2="113.072" gradientUnits="userSpaceOnUse">
<stop stop-color="#180000"/>
<stop offset="1" stop-color="#A65A3B"/>
</linearGradient>
</defs>
</svg>
