<svg width="300" height="400" viewBox="0 0 300 400" fill="none" xmlns="http://www.w3.org/2000/svg">
<path d="M104.137 355.834L103.75 348.834H119V355.834H104.137Z" fill="#110B15"/>
<path d="M142.169 359.834L141.75 348.834H158.25V359.834H142.169Z" fill="#110B15"/>
<path d="M76.6908 373.649C76.6407 367.911 77.4223 364.421 82.4097 362.076C87.3972 359.734 92.0949 355.226 100.723 351.361C100.723 351.361 101.859 351.146 103.708 352.146C105.285 352.999 107.312 355.094 110.365 355.066C113.681 355.036 116.636 354.334 118.471 353.371C119.264 351.199 121.024 351.184 121.024 351.184C121.024 351.184 123.501 355.899 123.543 360.636C123.584 365.371 123.58 373.241 123.58 373.241L76.6908 373.649Z" fill="#161616"/>
<path d="M98.9238 351.708C99.2653 351.556 99.6652 351.71 99.817 352.051C100.011 352.487 100.15 352.966 100.246 353.486C100.386 354.25 100.417 354.876 100.417 355.981C100.417 356.456 99.943 356.778 99.5061 356.616L99.4665 356.6L96.1702 355.144L96.8735 357.694C97.013 358.199 96.5507 358.659 96.0529 358.529L96.0136 358.518L92.7019 357.45L92.7021 360.446C92.7021 360.945 92.184 361.267 91.7408 361.06L91.703 361.041L89.4537 359.822L89.4539 362.071C89.4539 362.431 89.1729 362.725 88.8184 362.747L88.7772 362.748C88.4173 362.748 88.123 362.467 88.1017 362.113L88.1005 362.071V358.686C88.1005 358.188 88.6186 357.865 89.0618 358.072L89.0996 358.091L91.3487 359.31L91.3487 356.521C91.3487 356.077 91.7686 355.757 92.1921 355.865L92.233 355.877L95.2352 356.845L94.4861 354.129C94.3378 353.591 94.8644 353.122 95.3754 353.315L95.4118 353.33L99.0457 354.935L99.0415 354.847C99.0222 354.468 98.9877 354.148 98.9287 353.809L98.9147 353.73C98.8374 353.309 98.7273 352.932 98.5803 352.601C98.4285 352.26 98.5823 351.86 98.9238 351.708Z" fill="white"/>
<path d="M78.5776 362.516C80.1078 361.961 81.7282 361.541 84.8352 360.839L83.5149 364.639L83.5527 368.969L74.7095 369.046C74.3486 369.051 73.7038 368.569 74.0116 366.616C74.3963 364.176 76.4034 363.304 78.5776 362.516Z" fill="#161616"/>
<path d="M123.728 372.501L123.471 367.944L83.8197 368.561L73.9331 367.836L73.6311 371.329C73.5269 372.536 74.4315 373.594 75.6392 373.676L83.8694 374.246L122.664 373.644C123.279 373.634 123.762 373.114 123.728 372.501Z" fill="#808080"/>
<path d="M184.603 373.649C184.653 367.911 183.871 364.421 178.884 362.076C173.897 359.734 169.199 355.226 160.57 351.361C160.57 351.361 159.435 351.146 157.586 352.146C156.008 352.999 153.982 355.094 150.928 355.066C147.613 355.036 144.658 354.334 142.822 353.371C142.029 351.199 140.27 351.184 140.27 351.184C140.27 351.184 137.792 355.899 137.751 360.636C137.71 365.371 137.714 373.241 137.714 373.241L184.603 373.649Z" fill="#161616"/>
<path d="M161.477 352.051C161.629 351.71 162.029 351.556 162.37 351.708C162.712 351.86 162.865 352.26 162.713 352.601C162.566 352.932 162.456 353.309 162.379 353.73C162.311 354.099 162.273 354.439 162.252 354.847L162.248 354.935L165.882 353.33C166.392 353.105 166.934 353.557 166.817 354.09L166.808 354.129L166.058 356.845L169.061 355.877C169.484 355.741 169.917 356.042 169.944 356.479L169.945 356.521L169.945 359.31L172.194 358.091C172.632 357.854 173.163 358.156 173.192 358.644L173.193 358.686V362.071C173.193 362.445 172.89 362.748 172.516 362.748C172.157 362.748 171.862 362.467 171.841 362.113L171.84 362.071L171.84 359.822L169.591 361.041C169.152 361.279 168.622 360.977 168.593 360.489L168.591 360.446L168.591 357.45L165.28 358.518C164.781 358.679 164.302 358.236 164.411 357.734L164.42 357.694L165.123 355.144L161.827 356.6C161.393 356.792 160.906 356.489 160.878 356.024L160.877 355.981L160.878 355.725C160.883 354.775 160.919 354.189 161.048 353.486C161.143 352.966 161.283 352.487 161.477 352.051Z" fill="white"/>
<path d="M182.716 362.516C181.186 361.961 179.565 361.541 176.458 360.839L177.779 364.639L177.741 368.969L186.584 369.046C186.945 369.051 187.59 368.569 187.282 366.616C186.897 364.176 184.89 363.304 182.716 362.516Z" fill="#161616"/>
<path d="M137.566 372.501L137.823 367.944L177.474 368.561L187.361 367.836L187.663 371.329C187.767 372.536 186.862 373.594 185.654 373.676L177.424 374.246L138.63 373.644C138.015 373.634 137.531 373.114 137.566 372.501Z" fill="#808080"/>
<path d="M92.0852 258.015L123.543 260.681V348.924H100.756L92.0852 258.015Z" fill="#1E1425"/>
<path d="M130.474 260.681H162.732V348.924H139.366L130.474 260.681Z" fill="#1E1425"/>
<path d="M98.7499 342.834H123.75V349.834H99.8749L98.7499 342.834Z" fill="#110B15"/>
<path d="M164 343.189L136.5 342.834L137.835 349.834H163.239L164 343.189Z" fill="#110B15"/>
<path d="M169.356 145.057C161.52 137.479 148.919 138.068 141.823 146.343C134.825 154.506 136.022 166.851 144.457 173.517L190.918 210.238C197.81 215.685 207.806 214.544 213.293 207.685C218.441 201.25 217.848 191.956 211.925 186.227L169.356 145.057Z" fill="black"/>
<path d="M126.71 272.154C143.433 272.154 156.989 265.732 156.989 257.811C156.989 249.89 143.433 243.468 126.71 243.468C109.987 243.468 96.431 249.89 96.431 257.811C96.431 265.732 109.987 272.154 126.71 272.154Z" fill="#1E1425"/>
<rect x="83.4425" y="135.583" width="48.859" height="90.6093" rx="24.4295" transform="rotate(17.962 83.4425 135.583)" fill="black"/>
<rect x="113.752" y="121.083" width="23.5" height="40.25" rx="11.75" fill="#2D2928"/>
<path d="M101.949 159.909C108.88 154.844 107.28 136.848 111.813 136.848C126.075 149.378 123.876 170.839 119.011 201.231C111.546 164.174 107.347 167.64 101.949 159.909Z" fill="#5A5E65"/>
<path d="M151.645 158.709C144.714 153.644 146.313 135.649 141.781 135.649C127.519 148.179 129.718 169.639 134.583 200.031C142.048 162.975 146.247 166.44 151.645 158.709Z" fill="#5A5E65"/>
<path d="M89.9635 153.865C91.0805 146.33 97.4638 140.811 105.086 140.753L127.791 140.583L148.902 142.678C156.09 143.392 161.954 148.888 163.006 156.054C165.485 172.938 169.545 203.816 169.586 225.24C169.646 256.104 175.003 259.071 166.726 263.093C158.45 267.115 92.1698 266.371 83.1083 260.077C74.047 253.784 79.6607 247.267 79.6358 234.465C79.6171 224.889 86.4958 177.26 89.9635 153.865Z" fill="#070317"/>
<path d="M116.408 168.62C106.226 166.728 84.2705 146.16 95.7255 135.521C103.044 126.656 114.818 138.477 116.408 144.387C117.681 149.115 121.181 160.739 123.409 163.891C125.954 166.157 126.591 170.511 116.408 168.62Z" fill="#22202A"/>
<path d="M135.842 168.62C146.024 166.728 167.98 146.16 156.525 135.521C149.206 126.656 137.433 138.477 135.842 144.387C134.569 149.115 131.069 160.739 128.841 163.891C126.296 166.157 125.659 170.511 135.842 168.62Z" fill="#22202A"/>
<path d="M109.671 160.083V187.583" stroke="#19181E" stroke-width="3.5" stroke-linecap="round"/>
<path d="M140.739 160.083V182.083" stroke="#19181E" stroke-width="3.5" stroke-linecap="round"/>
<path d="M225.938 107.365C225.832 106.487 226.608 105.254 227.991 104.908C229.991 104.951 244.149 121.009 244.372 122.264C244.595 123.519 243.066 124.862 241.7 124.457C240.333 124.053 226.044 108.242 225.938 107.365Z" fill="#4D3D2C"/>
<path d="M221.114 111.387C221.008 110.51 221.784 109.276 223.167 108.931C225.167 108.974 239.325 125.031 239.548 126.287C239.771 127.542 238.242 128.884 236.876 128.48C235.509 128.075 221.22 112.265 221.114 111.387Z" fill="#4D3D2C"/>
<path d="M215.017 115.846C214.907 114.938 215.713 113.66 217.147 113.303C219.222 113.347 233.916 129.977 234.147 131.277C234.379 132.576 232.792 133.967 231.374 133.548C229.956 133.129 215.127 116.755 215.017 115.846Z" fill="#4D3D2C"/>
<path d="M108.501 190.935C115.178 186.144 114.388 179.446 118.5 169.435C123.068 158.315 135 147.309 144.001 152.934C149 156.059 138.248 160.797 136 166.435C133.822 171.895 137.183 176.399 138.75 178.06C145 184.684 152.276 178.491 154.251 180.06C158.125 183.988 156.876 198.701 156.876 204.185C156.876 212.435 159.003 213.303 163.251 213.81C168.653 214.455 175.293 208.504 179.751 213.81C184.208 219.117 163.758 223.839 154.251 231.685C144.743 239.532 150.877 254.975 131.376 269.81C122.767 276.359 100.869 281.081 83.856 265.36C66.8436 249.639 59.885 234.685 69.4999 213.81C76.4489 198.723 97.0005 199.185 108.501 190.935Z" fill="#4062DA"/>
<path d="M95.3825 221.937C97.914 220.491 102.654 226.844 107.904 232.708C113.784 238.336 120.157 244.349 118.256 245.559C116.354 246.768 112.047 243.55 110.2 242.26C108.352 240.97 103.997 240.001 100.7 236.305C97.404 232.608 97.2342 228.853 96.6445 227.215C96.0545 225.577 92.8507 223.383 95.3825 221.937Z" fill="#6E8EFF"/>
<path d="M141.319 210.943L132.337 200.899C130.931 199.326 128.469 199.325 127.061 200.897C125.86 202.238 125.857 204.268 127.054 205.612L136.014 215.677C137.484 217.327 140.087 217.251 141.457 215.519C142.53 214.163 142.472 212.232 141.319 210.943Z" fill="#63503C" fill-opacity="0.21"/>
<path d="M132.292 203.65L131.667 202.9L129.042 205.275L129.792 206.025L132.292 203.65Z" fill="#AD947A" fill-opacity="0.21"/>
<path d="M133.792 205.15L133.167 204.4L130.542 206.775L131.292 207.525L133.792 205.15Z" fill="#AD947A" fill-opacity="0.21"/>
<path d="M135.042 206.9L134.417 206.15L131.792 208.525L132.542 209.275L135.042 206.9Z" fill="#AD947A" fill-opacity="0.21"/>
<path d="M136.339 208.458L135.714 207.708L133.09 210.083L133.839 210.833L136.339 208.458Z" fill="#AD947A" fill-opacity="0.21"/>
<path d="M137.839 209.708L137.214 208.958L134.59 211.333L135.339 212.083L137.839 209.708Z" fill="#AD947A" fill-opacity="0.21"/>
<path d="M139.339 211.208L138.714 210.458L136.09 212.833L136.839 213.583L139.339 211.208Z" fill="#AD947A" fill-opacity="0.21"/>
<path d="M129.519 220.567L121.156 211.215C119.586 209.459 116.85 209.426 115.237 211.142C113.814 212.657 113.783 215.008 115.165 216.56L123.507 225.931C125.139 227.764 128.017 227.724 129.598 225.847C130.89 224.313 130.856 222.062 129.519 220.567Z" fill="#63503C" fill-opacity="0.21"/>
<path d="M120.839 214.458L120.214 213.708L117.59 216.083L118.339 216.833L120.839 214.458Z" fill="#AD947A" fill-opacity="0.21"/>
<path d="M122.339 215.958L121.714 215.208L119.09 217.583L119.839 218.333L122.339 215.958Z" fill="#AD947A" fill-opacity="0.21"/>
<path d="M123.589 217.708L122.964 216.958L120.34 219.333L121.089 220.083L123.589 217.708Z" fill="#AD947A" fill-opacity="0.21"/>
<path d="M124.839 219.208L124.214 218.458L121.59 220.833L122.339 221.583L124.839 219.208Z" fill="#AD947A" fill-opacity="0.21"/>
<path d="M126.339 220.708L125.714 219.958L123.09 222.333L123.839 223.083L126.339 220.708Z" fill="#AD947A" fill-opacity="0.21"/>
<path d="M127.839 221.958L127.214 221.208L124.59 223.583L125.339 224.333L127.839 221.958Z" fill="#AD947A" fill-opacity="0.21"/>
<path d="M213.754 121.73C213.307 123.921 211.642 126.935 210.865 128.169L218.811 136.592C219.283 135.977 221.028 134.639 224.238 134.208C228.251 133.669 231.084 129.854 233.799 125.661C236.515 121.468 249.484 117.246 241.654 109.201C233.825 101.156 231.25 110.478 224.679 113.712C218.108 116.947 214.313 118.991 213.754 121.73Z" fill="#4062DA"/>
<path d="M112.083 239.199L101.697 227.973L100.928 228.832L110.69 240.044L112.083 239.199Z" fill="#292D34"/>
<path d="M233.067 115.108C234.207 115.133 235.152 114.228 235.176 113.087C235.201 111.947 234.296 111.002 233.156 110.978C232.015 110.953 231.071 111.858 231.046 112.999C231.022 114.139 231.926 115.084 233.067 115.108Z" fill="#F1F1F1"/>
<path d="M236.498 118.651C237.638 118.675 238.583 117.77 238.607 116.63C238.632 115.489 237.727 114.545 236.587 114.52C235.446 114.496 234.502 115.401 234.477 116.541C234.453 117.682 235.357 118.626 236.498 118.651Z" fill="#F1F1F1"/>
<path d="M227.271 118.191C228.411 118.215 229.356 117.31 229.38 116.17C229.405 115.029 228.5 114.085 227.36 114.06C226.219 114.036 225.275 114.941 225.25 116.081C225.226 117.222 226.13 118.166 227.271 118.191Z" fill="#F1F1F1"/>
<path d="M232.317 123.608C233.457 123.633 234.402 122.728 234.426 121.587C234.451 120.447 233.546 119.502 232.406 119.478C231.265 119.453 230.321 120.358 230.296 121.499C230.272 122.639 231.176 123.584 232.317 123.608Z" fill="#F1F1F1"/>
<path d="M221.831 121.38C222.971 121.404 223.916 120.499 223.94 119.359C223.965 118.218 223.06 117.274 221.919 117.249C220.779 117.225 219.834 118.13 219.81 119.27C219.785 120.411 220.69 121.355 221.831 121.38Z" fill="#F1F1F1"/>
<path d="M229.317 128.858C230.457 128.883 231.402 127.978 231.426 126.837C231.451 125.697 230.546 124.752 229.405 124.728C228.265 124.703 227.32 125.608 227.296 126.749C227.271 127.889 228.176 128.834 229.317 128.858Z" fill="#F1F1F1"/>
<path d="M182.944 150.688C187.531 148.558 192.968 150.509 195.164 155.044L195.229 155.183L212.957 193.362C215.109 197.996 213.097 203.496 208.463 205.647C203.876 207.777 198.439 205.827 196.243 201.291L196.178 201.153L178.45 162.974C176.298 158.34 178.31 152.84 182.944 150.688Z" fill="#F9D2C6"/>
<path d="M76.6719 198.582L119.038 198.7C124.146 198.714 128.276 202.867 128.262 207.975C128.248 213.033 124.178 217.131 119.139 217.199L118.986 217.199L76.6206 217.082C71.512 217.068 67.3821 212.915 67.3963 207.806C67.4103 202.749 71.4806 198.651 76.5189 198.583L76.6719 198.582Z" fill="#F9D2C6"/>
<rect x="63" y="222.294" width="27.4622" height="55.156" rx="13.7311" transform="rotate(-89.3957 63 222.294)" fill="#070317"/>
<rect x="174.393" y="164.859" width="26.9425" height="55.156" rx="13.4712" transform="rotate(-24.5251 174.393 164.859)" fill="#070317"/>
<path d="M136.143 195.956L210.748 127.792L219.064 136.473L146.513 207.931L136.143 195.956Z" fill="#63503C"/>
<path d="M220.718 119.415L220.889 119.597L103.228 230.596L103.057 230.414L220.718 119.415Z" fill="black"/>
<path d="M228.299 115.702L228.471 115.884L104.443 232.247L104.272 232.065L228.299 115.702Z" fill="black"/>
<path d="M234.532 112.539L234.703 112.721L106.585 233.247L106.414 233.065L234.532 112.539Z" fill="black"/>
<path d="M235.524 114.278L235.695 114.46L108.086 234.623L107.914 234.441L235.524 114.278Z" fill="black"/>
<path d="M228.188 126.702L228.359 126.884L110.193 238.122L110.022 237.94L228.188 126.702Z" fill="black"/>
<path d="M232.583 119.706L232.754 119.887L108.586 236.998L108.414 236.816L232.583 119.706Z" fill="black"/>
<path d="M204.567 197.258L186.839 159.078" stroke="#F9D2C6" stroke-width="18.5" stroke-linecap="round"/>
<rect x="174.393" y="164.859" width="26.9425" height="55.156" rx="13.4712" transform="rotate(-24.5251 174.393 164.859)" fill="#070317"/>
<rect x="116.948" y="128.333" width="18.0142" height="28.75" rx="9.00708" fill="#F9D2C6"/>
<path d="M163.067 113.217C171.25 113.217 177.884 106.583 177.884 98.4C177.884 90.217 171.25 83.5835 163.067 83.5835C154.884 83.5835 148.251 90.217 148.251 98.4C148.251 106.583 154.884 113.217 163.067 113.217Z" fill="#F9D2C6"/>
<path d="M93.3168 113.967C85.1338 113.967 78.5001 107.333 78.5001 99.15C78.5001 90.967 85.1338 84.3335 93.3168 84.3335C101.5 84.3335 108.133 90.967 108.133 99.15C108.133 107.333 101.5 113.967 93.3168 113.967Z" fill="#F9D2C6"/>
<path d="M88.7505 70.9585C88.7505 49.7645 105.932 32.5835 127.126 32.5835C148.32 32.5835 165.501 49.7645 165.501 70.9585V89.0835L165.696 92.6375C165.98 97.8103 165.342 102.992 163.812 107.942L160.758 117.818C157.74 127.582 150.481 135.574 141.088 139.6C132.253 143.386 122.137 143.339 113.372 139.394C104.611 135.452 97.902 128.02 94.8748 118.902L90.9773 107.165C89.5023 102.723 88.7505 98.0728 88.7505 93.3925V89.0835V70.9585Z" fill="#FEE6DD"/>
<path d="M116.5 30.3336C122.69 28.6101 123.172 25.4756 131.501 25.7086C143.055 26.0318 148.342 31.3823 151.001 35.7328C153.668 34.974 157.675 36.5827 161.751 39.0836C167.126 42.3816 169.125 48.2086 170.125 49.8335C172.256 53.2963 172.74 58.9615 172.145 65.3764L172.125 65.5835C171.625 70.7835 170.251 79.667 169.126 84.8335L169 84.7795C168.291 84.4786 166.971 83.9894 166.501 84.0835C165.876 84.2085 166.376 91.8335 164.626 91.8335C162.876 91.8335 164.626 77.2085 163.376 75.0835C162.126 72.9585 163.001 67.4588 156.251 64.0835L155.298 63.6086C151.628 61.7604 147.813 59.3851 146.919 49.2408C144.191 50.0676 140.252 48.2687 138.25 49.4585C134.5 51.6873 135.375 57.9585 125.5 60.2085C117.5 62.0313 108.5 60.7085 103.125 63.8335C99.2934 66.0615 98.8841 72.1952 94.6447 74.9906L94.5003 75.0835C90.2129 77.7785 90.007 84.7953 89.7652 86.722L89.7503 86.8335C89.5003 88.5835 90.1253 90.9585 89.0003 90.9585C87.9015 90.9585 87.9952 86.9039 88.0002 85.667L88.0003 85.5835C88.0003 85.0835 86.6253 86.5835 85.1253 86.8335C83.6253 87.0835 82.6251 79.7085 84.2503 71.4585C85.2408 66.4303 75.5002 52.3335 92.5001 36.5836C100.404 29.2612 109.405 32.3093 116.5 30.3336Z" fill="#45332B"/>
<mask id="mask0_0_4718" style="mask-type:luminance" maskUnits="userSpaceOnUse" x="88" y="32" width="78" height="111">
<path fill-rule="evenodd" clip-rule="evenodd" d="M88.7501 70.9585C88.7501 49.7645 105.931 32.5835 127.125 32.5835C148.319 32.5835 165.5 49.7645 165.5 70.9585V89.0835L165.695 92.6375C165.979 97.8103 165.341 102.992 163.811 107.942L160.758 117.818C157.739 127.582 150.481 135.574 141.087 139.6C132.253 143.386 122.136 143.339 113.371 139.394C104.61 135.452 97.9016 128.02 94.8743 118.902L90.9768 107.165C89.5018 102.723 88.7501 98.0728 88.7501 93.3925V89.0835V70.9585Z" fill="white"/>
</mask>
<g mask="url(#mask0_0_4718)">
<path d="M112.5 141.583C110.988 140.741 98.6251 134.208 100.5 127.333C102.375 120.458 112.125 132.708 117 136.583C121.875 140.458 122.751 138.208 127.125 138.208C131.5 138.208 133.376 139.979 135.875 137.333C138.375 134.688 150.73 121.328 152.625 126.583C156.5 137.333 142.5 141.109 136.625 142.833C128.875 145.108 117.662 144.458 112.5 141.583Z" fill="#CAC4C1" fill-opacity="0.64"/>
<path d="M158 130.583C166.837 130.583 174 123.42 174 114.583C174 105.747 166.837 98.5835 158 98.5835C149.164 98.5835 142 105.747 142 114.583C142 123.42 149.164 130.583 158 130.583Z" fill="#FEDFD5"/>
<path d="M98.2501 131.083C107.087 131.083 114.25 123.92 114.25 115.083C114.25 106.247 107.087 99.0835 98.2501 99.0835C89.4136 99.0835 82.2501 106.247 82.2501 115.083C82.2501 123.92 89.4136 131.083 98.2501 131.083Z" fill="#FEDFD5"/>
<path d="M107.308 91.5115L107.299 91.5032L107.375 91.5616C107.409 91.5877 107.449 91.6165 107.493 91.6476C107.722 91.8091 107.995 91.9754 108.303 92.1319C109.22 92.5979 110.214 92.8611 111.236 92.8312C112.244 92.8018 113.093 92.5558 113.8 92.1699C114.049 92.0339 114.256 91.8929 114.42 91.7604L114.493 91.699L114.521 91.674L114.49 91.7073C115.526 90.5969 117.266 90.5368 118.376 91.573C119.487 92.6092 119.547 94.3493 118.511 95.4597C118.368 95.6121 118.16 95.8083 117.885 96.0319C117.47 96.3682 116.987 96.6962 116.434 96.9977C114.994 97.784 113.306 98.2731 111.396 98.3289C109.372 98.388 107.496 97.891 105.811 97.0351C105.258 96.7542 104.762 96.4517 104.326 96.1444L104.18 96.0396C103.97 95.887 103.807 95.7561 103.692 95.6556C102.548 94.657 102.429 92.9198 103.428 91.7754C104.427 90.6311 106.164 90.5129 107.308 91.5115Z" fill="#4E372B"/>
<path d="M139.808 91.5115L139.799 91.5032L139.875 91.5616C139.909 91.5877 139.949 91.6165 139.993 91.6476C140.222 91.8091 140.495 91.9754 140.803 92.1319C141.72 92.5979 142.714 92.8611 143.736 92.8312C144.744 92.8018 145.593 92.5558 146.3 92.1699C146.549 92.0339 146.756 91.8929 146.92 91.7604L146.993 91.699L147.021 91.674L146.99 91.7073C148.026 90.5969 149.766 90.5368 150.876 91.573C151.987 92.6092 152.047 94.3493 151.011 95.4597C150.868 95.6121 150.66 95.8083 150.385 96.0319C149.97 96.3682 149.487 96.6962 148.934 96.9977C147.494 97.784 145.806 98.2731 143.896 98.3289C141.872 98.388 139.996 97.891 138.311 97.0351C137.758 96.7542 137.262 96.4517 136.826 96.1444L136.68 96.0396C136.47 95.887 136.307 95.7561 136.192 95.6556C135.048 94.657 134.929 92.9198 135.928 91.7754C136.927 90.6311 138.664 90.5129 139.808 91.5115Z" fill="#4E372B"/>
<path d="M125.026 92.7734L128.724 94.869L128.523 95.2274C126.797 98.331 125.562 101.352 125.294 103.748L125.277 103.914C125.025 106.539 125.944 107.651 129.17 107.695L129.375 107.696V111.946C123.281 111.946 120.487 108.506 121.07 103.276C121.423 100.122 122.878 96.5991 124.913 92.9749L125.026 92.7734Z" fill="#EBBAAA"/>
<path d="M104.067 77.4026L120.818 80.0196C121.427 80.1146 121.875 80.6386 121.875 81.2546V84.0843C121.875 84.8648 121.168 85.4543 120.4 85.3141L105.827 82.6511C105.613 82.6121 105.392 82.6296 105.187 82.7018L99.6651 84.6461C98.8521 84.9323 97.9998 84.3291 97.9998 83.4671V81.3666C97.9998 80.9241 98.2336 80.5148 98.6146 80.2898L103.239 77.5611C103.489 77.4141 103.781 77.3581 104.067 77.4026Z" fill="#1B1A1A" fill-opacity="0.92"/>
<path d="M152.522 77.4016L135.935 79.9526C135.325 80.0463 134.875 80.5711 134.875 81.1881V84.0876C134.875 84.8668 135.58 85.4563 136.347 85.3178L150.751 82.7178C150.966 82.6791 151.186 82.6971 151.391 82.7696L156.958 84.7426C157.771 85.0308 158.625 84.4276 158.625 83.5643V81.4066C158.625 80.9656 158.393 80.5571 158.014 80.3318L153.35 77.5623C153.101 77.4143 152.808 77.3576 152.522 77.4016Z" fill="#1B1A1A" fill-opacity="0.92"/>
<path d="M120.984 24.5781C124.637 24.2326 129.962 25.4767 136.456 27.9039C141.265 29.7008 146.508 32.0922 150.561 34.2299L150.829 34.372L149.421 37.0209C145.444 34.9066 140.192 32.5027 135.406 30.714L135.002 30.5639C129.092 28.3858 124.269 27.2807 121.266 27.5648C117.339 27.9363 114.011 29.6185 109.631 32.9606L109.325 33.1962C108.659 33.7158 106.107 35.727 105.345 36.2921C103.841 37.408 102.623 38.1636 101.436 38.6614L101.313 38.7119L100.187 35.9311C101.069 35.5742 102.048 34.9841 103.288 34.0809L103.558 33.8825C104.342 33.3008 107.253 31.0037 107.625 30.718L107.998 30.4333C112.698 26.8723 116.433 25.0086 120.984 24.5781Z" fill="#382922"/>
<path d="M91.6074 65.514C93.2362 61.4418 102.105 58.5095 108.16 59.3114L108.342 59.3368L107.908 62.3052C103.062 61.596 95.4052 64.0971 94.3928 66.6281C93.8953 67.8719 93.0658 69.1969 91.9353 70.6314C91.0569 71.7459 90.0141 72.9058 88.7797 74.1668L88.4516 74.4993C87.2019 75.7505 83.9027 78.8896 83.464 79.3527C82.8404 80.0109 82.7488 80.6786 83.1087 81.5011C83.4874 82.3667 84.3471 83.2829 85.4337 83.979L85.5396 84.0456L83.9605 86.5964C82.341 85.5939 81.0175 84.206 80.3602 82.7035C79.5335 80.814 79.8022 78.8558 81.2861 77.2894L81.3968 77.1757C82.1889 76.3761 85.4499 73.2717 86.457 72.2504C87.7015 70.9882 88.7345 69.8461 89.5791 68.7745C90.5467 67.5467 91.2325 66.4512 91.6074 65.514Z" fill="#382922"/>
<path d="M133.558 35.4789C138.996 34.9392 145.411 35.0762 150.705 35.6675L151.049 35.7067L150.701 38.6865C145.545 38.0857 139.179 37.9358 133.855 38.4643L133.459 38.505C127.036 39.1892 122.6 40.82 121.007 43.2654C118.512 47.0947 114.152 49.9198 108.323 52.0712C106.068 52.9036 103.716 53.5931 101.077 54.2391L100.541 54.3684C99.2164 54.6817 95.9986 55.3958 95.4986 55.5243L93.7274 55.9835C92.7203 56.2493 92.2633 56.3861 91.5043 56.6341C87.2946 58.0096 85.1177 59.7687 84.9985 62.3897L84.9017 64.5889C84.7721 67.3734 84.645 68.7808 84.3497 70.1655L84.3168 70.3165C83.8336 72.4906 82.9451 74.0087 81.412 74.8515L81.3211 74.9003L79.9291 72.2428L80.0071 72.1999C81.213 71.5019 81.6537 69.626 81.9085 64.3563L82.0016 62.2535C82.1066 59.9446 83.1744 58.0508 85.0143 56.564C86.4022 55.4426 88.1653 54.5857 90.3709 53.8491L90.9217 53.6694C91.698 53.4208 92.2553 53.2648 93.6229 52.91L94.8198 52.6017C95.5456 52.4227 98.7082 51.7204 99.9069 51.4356L100.028 51.4067C102.703 50.7617 105.056 50.0796 107.284 49.2569C112.497 47.3328 116.323 44.8724 118.414 41.7483L118.493 41.6278C120.775 38.126 126.076 36.2215 133.558 35.4789Z" fill="#382922"/>
<path d="M124.629 31.3251C131.291 25.4024 139.081 22.4531 144.478 24.8227C146.646 25.7746 148.544 27.6229 150.164 30.0756C151.338 31.8518 152.31 33.8864 152.871 35.5635L152.928 35.7357L150.073 36.6567C148.872 32.9361 146.167 28.8405 143.272 27.5697C139.267 25.8115 132.637 28.2893 126.798 33.4113L126.622 33.5673L124.629 31.3251Z" fill="#382922"/>
<path d="M145.732 48.0142L148.518 49.1284C148.087 50.2041 147.669 51.9053 147.483 53.426C147.383 54.2357 147.353 54.9594 147.395 55.5324C147.43 56.0009 147.511 56.3134 147.575 56.4192L147.583 56.4315L147.591 56.4349L147.626 56.4542C147.703 56.4964 147.818 56.5401 147.972 56.5819L148.031 56.5974C148.377 56.6845 148.784 56.7416 149.545 56.8144L150.735 56.9256C151.865 57.0365 152.435 57.1206 153.217 57.2974L153.286 57.3132C155.306 57.7772 156.964 58.6396 158.285 60.103L158.379 60.2085L156.121 62.184C155.242 61.1788 154.111 60.5807 152.615 60.2371L152.442 60.1984C151.744 60.0463 151.177 59.9771 149.796 59.8502L149.225 59.7975C148.332 59.7118 147.826 59.6395 147.298 59.5065C146.375 59.2738 145.661 58.8837 145.165 58.2083C143.817 56.3698 144.372 51.5663 145.645 48.2364L145.732 48.0142Z" fill="#382922"/>
<path d="M116.827 114.72L118.279 116.172C117.618 116.833 116.89 117.821 116.448 118.555L116.387 118.658L114.613 117.623C115.107 116.778 115.921 115.655 116.719 114.831L116.827 114.72Z" fill="#CAC3C1" fill-opacity="0.48"/>
<path d="M120.32 115.095L121.772 116.547C121.579 116.74 121.393 116.955 121.213 117.192C121.024 117.44 120.848 117.702 120.671 117.993L120.548 118.199L120.137 118.922L118.363 117.887L118.738 117.228C118.767 117.177 118.794 117.131 118.815 117.094C119.06 116.681 119.306 116.308 119.578 115.949C119.774 115.693 119.977 115.452 120.19 115.228L120.32 115.095Z" fill="#CAC3C1" fill-opacity="0.48"/>
<path d="M123.026 115.372L124.974 116.021C124.671 116.929 124.54 117.764 124.528 118.784L124.527 118.946H122.473C122.473 117.7 122.62 116.647 122.974 115.531L123.026 115.372Z" fill="#CAC3C1" fill-opacity="0.48"/>
<path d="M125.723 115.696H127.777L127.777 118.821H125.724L125.723 115.696Z" fill="#CAC3C1" fill-opacity="0.48"/>
<path d="M130.444 115.292C131.056 116.721 131.38 117.761 131.401 118.835L131.402 118.946H129.348C129.348 118.223 129.102 117.392 128.61 116.227L128.556 116.101L130.444 115.292Z" fill="#CAC3C1" fill-opacity="0.48"/>
<path d="M138.887 117.887L137.113 118.921L136.764 118.274C136.554 117.889 136.297 117.427 136.138 117.164L136.114 117.124C135.815 116.637 135.532 116.248 135.275 115.978L135.221 115.922L136.673 114.47C137.05 114.848 137.414 115.332 137.783 115.921L137.906 116.12C138.247 116.687 138.891 117.886 138.891 117.893L138.887 117.887Z" fill="#CAC3C1" fill-opacity="0.48"/>
<path d="M133.058 114.984C133.525 115.451 133.912 115.933 134.255 116.451C134.359 116.607 134.456 116.762 134.555 116.928L134.68 117.142L134.887 117.502L133.113 118.537L132.856 118.089C132.749 117.905 132.651 117.746 132.545 117.586C132.303 117.223 132.038 116.885 131.725 116.558L131.606 116.435L133.058 114.984Z" fill="#CAC3C1" fill-opacity="0.48"/>
<path fill-rule="evenodd" clip-rule="evenodd" d="M118.022 118.196C119.692 119.312 122.443 120.414 126.955 120.414C131.189 120.414 133.968 119.502 135.748 118.276C135.913 118.962 136 119.678 136 120.414C136 125.454 132 129.539 126.875 129.539C121.75 129.539 117.75 125.454 117.75 120.414C117.75 119.649 117.844 118.906 118.022 118.196Z" fill="white"/>
</g>
</svg>
