<svg width="300" height="400" viewBox="0 0 300 400" fill="none" xmlns="http://www.w3.org/2000/svg">
<path d="M163.659 241.566C167.986 240.672 172.219 243.454 173.113 247.781C174.616 255.05 175.533 271.63 176.078 295.742L176.129 298.073C176.467 314.076 176.605 331.52 176.605 347.563C176.605 351.981 173.023 355.563 168.605 355.563C164.187 355.563 160.605 351.981 160.605 347.563L160.604 345.274C160.591 329.192 160.438 311.842 160.082 296.103L160.034 294.06C159.516 272.455 158.646 257.062 157.481 251.201L157.445 251.021C156.55 246.694 159.332 242.461 163.659 241.566Z" fill="#F6DDD6"/>
<path d="M128.021 243.88C128.915 239.553 133.148 236.771 137.475 237.666C141.802 238.56 144.584 242.793 143.689 247.12C142.293 253.871 140.883 272.174 140.324 291.547L140.288 292.849C139.717 314.06 140.237 332.742 141.887 343.048C142.585 347.41 139.615 351.513 135.252 352.212C130.889 352.91 126.787 349.94 126.088 345.577C124.204 333.809 123.675 313.77 124.331 291.085L124.367 289.871C124.974 270.061 126.412 251.659 128.021 243.88Z" fill="#F6DDD6"/>
<path d="M116.5 218.795L122 210.67C123.333 210.879 126.625 211.17 129.125 210.67C132.25 210.045 137.625 211.295 143.25 211.92C148.875 212.545 152.375 211.295 153.75 211.295C155.125 211.295 156 210.67 159 211.295C161.4 211.795 169.917 211.087 173.875 210.67L177.25 220.67L116.5 218.795Z" fill="#CF3303"/>
<path d="M108.016 228.638L116.024 214.795C116.024 214.795 133.167 217.97 145.931 218.224C158.694 218.478 177.464 216.954 177.464 216.954L184.847 228.638C184.847 228.638 189.852 252.004 191.604 270.419C193.356 288.832 188.726 318.295 188.726 318.295L173.585 314.485H167.454L163.95 318.295H145.931H141.25H136.046L102.76 314.485C102.76 314.485 99.3818 287.562 101.384 270.419C103.386 253.274 108.016 228.638 108.016 228.638Z" fill="url(#paint0_linear_0_4817)"/>
<path d="M133.5 242.24L136.5 217.625L141 218L145.5 236.115L141.808 316.25L133.5 242.24Z" fill="url(#paint1_linear_0_4817)"/>
<path d="M110.5 239.155L123.357 215.75L126.75 232.698V239.155L118.357 310.5L110.5 264.497V239.155Z" fill="url(#paint2_linear_0_4817)"/>
<path d="M164.5 238.909L175.684 217.75L178.635 233.072L185.47 261.819C185.47 261.819 186.557 289.252 175.684 289.982C164.811 290.713 167.607 268.532 167.607 268.532L164.5 238.909Z" fill="url(#paint3_linear_0_4817)"/>
<path d="M99.7498 358.25C99.7498 350.575 104.681 349.638 112.719 347.008C116.656 345.72 120.673 344.598 124.75 343.923C127.312 343.498 128 345.75 132.5 345.75C136.513 345.75 141.519 343.763 142.556 343.333C142.686 343.278 142.84 343.23 142.944 343.325C142.969 343.348 142.99 343.378 143.005 343.408C143.485 344.393 146 349.763 146 354.06C146 357.348 146.281 360.58 145.375 362.25C144.966 363.003 142.412 363.415 141.554 363.415H101.14C100.372 363.415 99.7498 359.018 99.7498 358.25Z" fill="#DEDEDE"/>
<mask id="mask0_0_4817" style="mask-type:luminance" maskUnits="userSpaceOnUse" x="99" y="342" width="48" height="22">
<path fill-rule="evenodd" clip-rule="evenodd" d="M99.7498 358.25C99.7498 354.307 101.051 352.142 103.407 350.613C114.614 343.338 129.146 342.995 142.5 342.5C142.609 342.5 142.958 343.31 143.005 343.408C143.485 344.393 146 349.763 146 354.06C146 357.347 146.281 360.58 145.375 362.25C144.966 363.003 142.412 363.415 141.554 363.415H101.14C100.372 363.415 99.7498 359.017 99.7498 358.25Z" fill="white"/>
</mask>
<g mask="url(#mask0_0_4817)">
<path d="M105.625 353C101.75 353 100.666 350.75 100.25 350.375C99.4996 351.25 100.125 354.775 99.6246 356.375C99.1246 357.975 99.8329 359.543 100.25 360.125H148.25C148.458 356.793 146.762 345.385 145.125 345.75C140.625 346.75 130.5 346.375 128.375 346.25C126.675 346.15 118.416 348.293 114.5 349.375C115 349.875 115.825 352.425 116.125 353.625C116.5 355.125 116.625 355.125 115.25 355.5C113.875 355.875 113.625 353 112.125 353H105.625Z" fill="#E9EAEB"/>
<path d="M136.625 344.75C139.625 344.55 142.125 342.918 143.125 342C144.125 343 146.6 345.75 146 346.75C145.25 348 139.5 349 137 349C134.5 349 132.875 345 136.625 344.75Z" fill="#CDC7BB"/>
<path d="M121.875 359.625C115.5 359.375 110 360.875 103 359.375C90.4996 358 96.9217 358.817 93.7496 364.897H142.771C147.625 363.75 149.235 356.677 145.625 357.25C137.75 358.5 126.752 359.817 121.875 359.625Z" fill="#CDC7BB"/>
<path d="M147.5 359.375C145.8 360.075 122.75 360.125 122 359.625C123.75 359.25 136.629 357.79 139.5 357.625C143.875 357.375 145.541 357.042 147.5 357.125C148.208 357.625 149.2 358.675 147.5 359.375Z" fill="#DEDEDE"/>
</g>
<path d="M123.559 343.35C123.78 342.987 124.254 342.871 124.617 343.092L124.716 343.151C124.958 343.291 125.516 343.609 125.784 343.769L125.853 343.81C127.256 344.664 128.02 345.439 128.02 346.52C128.02 347 127.587 347.359 127.121 347.279L127.077 347.27L121.579 346.005L123.185 348.102C123.627 348.679 123.097 349.482 122.404 349.321L122.363 349.311L116.913 347.761L118.116 348.953C118.406 349.241 118.419 349.703 118.153 350.007L118.12 350.042C117.832 350.333 117.37 350.346 117.067 350.08L117.031 350.047L113.707 346.749C113.153 346.199 113.676 345.278 114.42 345.451L114.46 345.462L120.55 347.194L119.056 345.243C118.626 344.682 119.117 343.894 119.799 344.016L119.84 344.025L125.3 345.281L125.179 345.204L125.052 345.125C124.812 344.979 123.97 344.501 123.817 344.408C123.453 344.187 123.338 343.713 123.559 343.35Z" fill="#CDC7BB"/>
<path fill-rule="evenodd" clip-rule="evenodd" d="M120.549 337.89C121.09 337.151 121.873 336.75 122.834 336.75C124.808 336.75 126.299 338.446 126.299 340.727L126.301 341.053L126.317 342.05L126.317 342.367C126.312 342.833 126.281 343.163 126.209 343.437C126.121 343.776 125.969 344.016 125.734 344.181C125.478 344.36 125.12 344.447 124.631 344.447C123.611 344.447 122.395 344.069 121.448 343.438C120.38 342.727 119.755 341.78 119.755 340.727C119.755 339.588 120.032 338.595 120.549 337.89ZM124.758 340.649C124.729 339.222 123.89 338.29 122.834 338.29C122.366 338.29 122.044 338.455 121.791 338.801C121.483 339.221 121.294 339.895 121.294 340.728C121.294 341.204 121.627 341.708 122.302 342.157C122.999 342.621 123.919 342.908 124.631 342.908C124.664 342.908 124.694 342.907 124.722 342.906L124.746 342.905L124.755 342.826C124.768 342.701 124.775 342.541 124.777 342.339L124.778 342.261C124.778 342.192 124.778 342.126 124.777 342.049L124.765 341.328C124.763 341.207 124.761 341.106 124.76 341.01L124.758 340.649Z" fill="#CDC7BB"/>
<path fill-rule="evenodd" clip-rule="evenodd" d="M126.38 342.046L126.11 342.626C126.089 342.673 126.07 342.716 126.051 342.757L125.986 342.91C125.873 343.179 125.806 343.387 125.776 343.573C125.755 343.699 125.753 343.81 125.767 343.912L125.779 343.979C125.784 344.014 125.788 344.037 125.805 344.073L125.811 344.085L125.815 344.096C125.824 344.118 125.831 344.134 125.847 344.162L125.894 344.241C126.014 344.424 126.221 344.584 126.545 344.728C127.239 345.036 128.177 345.149 129.008 345.012C129.945 344.859 130.651 344.414 130.965 343.711C131.306 342.943 131.414 342.195 131.272 341.566C131.125 340.909 130.714 340.403 130.063 340.112C128.747 339.527 127.255 340.179 126.557 341.657L126.38 342.046ZM127.222 343.667L126.538 343.048L127.13 343.365L127.184 343.441C127.203 343.468 127.219 343.491 127.231 343.511L127.258 343.557L127.283 343.642C127.283 343.646 127.284 343.65 127.285 343.654L127.222 343.667ZM127.93 342.359L127.78 342.687L127.512 343.263L127.443 343.418L127.477 343.428C127.835 343.524 128.272 343.557 128.668 343.506L128.758 343.493C129.227 343.416 129.482 343.256 129.558 343.085C129.772 342.603 129.833 342.184 129.77 341.903C129.728 341.719 129.64 341.61 129.436 341.519C128.914 341.287 128.28 341.572 127.93 342.359Z" fill="#CDC7BB"/>
<path d="M203.541 358.25C203.541 350.575 198.609 349.638 190.572 347.008C186.635 345.72 182.617 344.598 178.541 343.923C175.979 343.498 175.291 345.75 170.791 345.75C166.778 345.75 161.771 343.763 160.735 343.333C160.605 343.278 160.451 343.23 160.347 343.325C160.322 343.348 160.301 343.378 160.285 343.408C159.806 344.393 157.291 349.763 157.291 354.06C157.291 357.348 157.009 360.58 157.916 362.25C158.325 363.003 160.879 363.415 161.736 363.415H202.15C202.918 363.415 203.541 359.018 203.541 358.25Z" fill="#DEDEDE"/>
<mask id="mask1_0_4817" style="mask-type:luminance" maskUnits="userSpaceOnUse" x="157" y="342" width="47" height="22">
<path fill-rule="evenodd" clip-rule="evenodd" d="M203.541 358.25C203.541 354.307 202.239 352.142 199.884 350.613C188.676 343.338 174.144 342.995 160.791 342.5C160.682 342.5 160.333 343.31 160.285 343.408C159.806 344.393 157.291 349.763 157.291 354.06C157.291 357.347 157.009 360.58 157.916 362.25C158.325 363.003 160.879 363.415 161.736 363.415H202.15C202.918 363.415 203.541 359.017 203.541 358.25Z" fill="white"/>
</mask>
<g mask="url(#mask1_0_4817)">
<path d="M197.666 353C201.541 353 202.624 350.75 203.041 350.375C203.791 351.25 203.166 354.775 203.666 356.375C204.166 357.975 203.458 359.543 203.041 360.125H155.5C155.291 356.793 157.775 345.218 158.25 345.375C163.5 347.125 172.375 346.25 174.5 346.125C176.2 346.025 184.874 348.293 188.791 349.375C188.291 349.875 187.466 352.425 187.166 353.625C186.791 355.125 186.666 355.125 188.041 355.5C189.416 355.875 189.666 353 191.166 353H197.666Z" fill="#E9EAEB"/>
<path d="M166.666 344.75C163.666 344.55 161.166 342.918 160.166 342C159.166 343 156.691 345.75 157.291 346.75C158.041 348 163.791 349 166.291 349C168.791 349 170.416 345 166.666 344.75Z" fill="#CDC7BB"/>
<path d="M181.416 359.625C187.791 359.375 193.291 360.875 200.291 359.375C212.791 358 206.369 358.817 209.541 364.897H160.52C155.666 363.75 154.056 356.677 157.666 357.25C165.541 358.5 176.539 359.817 181.416 359.625Z" fill="#CDC7BB"/>
<path d="M155.791 359.375C157.491 360.075 180.541 360.125 181.291 359.625C179.541 359.25 166.661 357.79 163.791 357.625C159.416 357.375 157.749 357.042 155.791 357.125C155.083 357.625 154.091 358.675 155.791 359.375Z" fill="#DEDEDE"/>
<path d="M178.674 343.092C179.037 342.871 179.511 342.987 179.732 343.35C179.953 343.713 179.837 344.187 179.474 344.408L179.158 344.592C178.844 344.773 178.402 345.026 178.239 345.125C178.181 345.161 178.125 345.195 178.07 345.23L177.99 345.281L183.451 344.025C184.14 343.866 184.653 344.639 184.259 345.209L184.234 345.243L182.74 347.194L188.83 345.462C189.582 345.248 190.128 346.155 189.612 346.719L189.583 346.749L186.26 350.047C185.958 350.346 185.47 350.344 185.171 350.042C184.883 349.752 184.874 349.29 185.142 348.989L185.175 348.953L186.377 347.761L180.927 349.311C180.228 349.51 179.676 348.721 180.081 348.135L180.105 348.102L181.711 346.005L176.214 347.27C175.746 347.378 175.299 347.037 175.272 346.565L175.271 346.52C175.271 345.463 176.001 344.699 177.345 343.867L177.506 343.769C177.825 343.579 178.557 343.164 178.674 343.092Z" fill="#CDC7BB"/>
<path fill-rule="evenodd" clip-rule="evenodd" d="M176.992 340.64C177.03 338.403 178.508 336.75 180.456 336.75C181.418 336.75 182.201 337.151 182.74 337.889C183.259 338.595 183.536 339.588 183.536 340.727C183.536 341.78 182.911 342.727 181.842 343.438C180.896 344.069 179.68 344.447 178.66 344.447C178.171 344.447 177.812 344.36 177.556 344.18C177.322 344.016 177.17 343.776 177.082 343.437C177.015 343.182 176.983 342.879 176.975 342.464L176.973 342.265C176.973 342.177 176.973 342.096 176.974 341.997L176.983 341.455C176.987 341.268 176.989 341.126 176.99 340.997L176.992 340.64ZM181.498 338.8C181.246 338.455 180.924 338.29 180.457 338.29C179.381 338.29 178.532 339.256 178.532 340.728L178.53 341.068L178.519 341.711C178.515 341.916 178.514 342.042 178.513 342.157L178.515 342.412C178.517 342.556 178.523 342.677 178.531 342.777L178.54 342.87L178.545 342.905L178.569 342.906L178.66 342.908C179.372 342.908 180.292 342.621 180.989 342.157C181.664 341.708 181.996 341.204 181.996 340.728C181.996 339.895 181.808 339.221 181.498 338.8Z" fill="#CDC7BB"/>
<path fill-rule="evenodd" clip-rule="evenodd" d="M173.229 340.111C172.577 340.403 172.165 340.909 172.018 341.567C171.877 342.195 171.985 342.943 172.325 343.71C172.639 344.414 173.346 344.859 174.284 345.012C175.113 345.149 176.052 345.036 176.744 344.729L176.812 344.697C177.099 344.561 177.286 344.411 177.396 344.241L177.432 344.181C177.453 344.147 177.462 344.129 177.47 344.108L177.484 344.072L177.49 344.06C177.504 344.03 177.508 344.009 177.512 343.978L177.516 343.956L177.523 343.912C177.538 343.81 177.535 343.699 177.515 343.576C177.479 343.353 177.392 343.103 177.239 342.757L176.779 341.756L176.768 341.732C176.086 340.201 174.566 339.517 173.229 340.111ZM176.145 343.373L176.752 343.048L176.068 343.666L176.006 343.654L176.013 343.623C176.017 343.61 176.022 343.591 176.033 343.556L176.037 343.543L176.068 343.49C176.081 343.47 176.097 343.446 176.116 343.417L176.145 343.373ZM175.797 343.304L175.385 342.412L175.33 342.292C174.974 341.556 174.362 341.293 173.856 341.518C173.651 341.61 173.562 341.718 173.521 341.904C173.458 342.184 173.518 342.602 173.732 343.084C173.808 343.255 174.063 343.416 174.533 343.493C174.952 343.562 175.428 343.531 175.813 343.428L175.847 343.418L175.797 343.304Z" fill="#CDC7BB"/>
</g>
<path d="M119.73 164.5L111.605 121.375L184.48 112.625L178.48 164.5H119.73Z" fill="#1A1416"/>
<path d="M115.651 172.846V156.5L113.985 148.5L145.466 141.5L176.235 148.5C191.528 171.725 176.254 169.599 181.774 192.824C187.294 216.049 180.851 221.752 180.36 223.5C179.869 225.248 172.36 223.5 172.36 223.5L164.15 218.125C164.15 218.125 156.628 219.748 145.466 219.374C134.303 218.999 127.557 217.001 127.557 217.001C127.557 217.001 122.024 219.424 120.565 221.125C119.106 222.826 114.276 222.124 111.61 219.374C108.944 216.624 109.02 217.823 109.532 208.807C110.274 195.742 113.043 183.188 115.651 172.846Z" fill="#F9F7F3"/>
<path d="M114.5 262.65C114.5 234.288 134.854 229.75 144.842 229.75C172.782 229.75 175.318 245.709 180.241 259.75C185.677 275.255 184.792 294.873 151.542 296.433C121.959 297.818 114.5 277.776 114.5 262.65Z" fill="#F0D180"/>
<path fill-rule="evenodd" clip-rule="evenodd" d="M126.459 235.989C131.796 232.02 138.501 230.25 144.98 230.25C156.268 230.25 163.926 232.922 169.129 238.106C171.335 240.304 173.094 242.935 174.619 246.149L174.676 246.269C175.767 248.585 176.602 250.824 177.876 254.658L178.824 257.531C178.979 258 179.112 258.396 179.238 258.767L179.647 259.953C182.648 268.714 182.931 276.714 179.678 282.947C175.649 290.669 166.454 295.226 151.459 295.934C138.153 296.562 128.577 292.752 122.519 285.374C117.598 279.38 115.25 271.269 115.25 262.664C115.25 250.043 119.308 241.306 126.459 235.989ZM168.423 238.814C163.423 233.833 156.02 231.25 144.98 231.25C138.699 231.25 132.2 232.966 127.056 236.791C120.169 241.912 116.25 250.349 116.25 262.664C116.25 271.055 118.534 278.944 123.292 284.739C129.14 291.861 138.408 295.549 151.412 294.936C166.083 294.243 174.949 289.848 178.792 282.485C181.927 276.476 181.616 268.646 178.611 260.016C178.355 259.281 178.129 258.614 177.802 257.626L177.06 255.376C175.767 251.464 174.935 249.199 173.881 246.93L173.716 246.578C172.237 243.461 170.541 240.924 168.423 238.814Z" fill="#3F3E4C"/>
<path fill-rule="evenodd" clip-rule="evenodd" d="M132.552 244.659C136.496 241.756 141.305 240.5 145.949 240.5C153.658 240.5 159.229 242.424 163.138 246.279C164.808 247.925 166.11 249.851 167.205 252.136C167.946 253.682 168.487 255.102 169.281 257.462L169.972 259.53C170.032 259.708 170.087 259.869 170.139 260.022L170.381 260.716C172.494 266.824 172.699 272.61 170.157 277.43C167.008 283.402 160.225 286.729 150.001 287.206C140.873 287.633 133.95 284.907 129.501 279.544C125.911 275.218 124.25 269.54 124.25 263.603C124.25 254.93 127.234 248.572 132.552 244.659ZM157.171 252.331C154.99 250.181 151.57 249 145.95 249C142.976 249 139.903 249.803 137.59 251.505C134.528 253.758 132.75 257.545 132.75 263.603C132.75 267.705 133.854 271.479 136.042 274.116C138.7 277.32 143.026 279.023 149.604 278.716C157.09 278.366 161.088 276.405 162.639 273.466C163.904 271.066 163.761 267.51 162.298 263.352L162.2 263.073C162.128 262.866 162.057 262.657 161.978 262.425L161.336 260.504C159.865 256.11 158.902 254.091 157.293 252.453L157.171 252.331Z" fill="#F9E8BE"/>
<path fill-rule="evenodd" clip-rule="evenodd" d="M135.764 249.855C138.805 247.621 142.622 246.625 146.31 246.625C152.727 246.625 157.088 248.129 160.054 251.049C162.269 253.229 163.419 255.568 165.029 260.341L165.553 261.911C165.644 262.182 165.721 262.409 165.794 262.62L166.043 263.338C167.745 268.258 167.904 272.755 166.048 276.268C163.748 280.624 158.509 283.19 149.985 283.588C142.419 283.94 136.967 281.797 133.515 277.642C130.712 274.268 129.375 269.706 129.375 264.867C129.375 257.771 131.688 252.85 135.764 249.855ZM159.528 251.584C156.714 248.813 152.543 247.375 146.31 247.375C142.769 247.375 139.105 248.331 136.208 250.46C132.331 253.308 130.125 258.002 130.125 264.867C130.125 269.544 131.412 273.938 134.092 277.163C137.386 281.127 142.609 283.181 149.95 282.838C158.233 282.452 163.226 280.006 165.385 275.918C167.146 272.582 166.971 268.225 165.277 263.417L165.223 263.264C165.108 262.935 164.998 262.614 164.853 262.183L164.377 260.756C162.811 256.088 161.714 253.795 159.682 251.738L159.528 251.584Z" fill="black"/>
<path d="M148.375 283.125V283.625H136.375V283.125H148.375Z" fill="black"/>
<path fill-rule="evenodd" clip-rule="evenodd" d="M149.051 283.614L149.168 283.129L159.703 284.95L158.466 286.54L149.051 283.614ZM158.797 285.3L152.86 284.274L158.284 285.96L158.797 285.3Z" fill="black"/>
<path d="M148.28 283.132L148.72 283.368L143.22 293.618L142.78 293.382L148.28 283.132Z" fill="black"/>
<path d="M149.123 283.341L150.248 291.466L149.752 291.534L148.627 283.409L149.123 283.341Z" fill="black"/>
<path d="M99.1004 172.433L99.2074 171.387L99.9583 164.339C100.303 161.071 100.549 158.479 100.757 155.818C101.134 151 105.345 147.4 110.162 147.777C114.98 148.153 118.58 152.364 118.204 157.182L118.16 157.73C117.97 160.101 117.75 162.435 117.465 165.187L116.604 173.284L116.54 173.909L116.468 174.638C116.258 176.781 116.113 178.544 116.017 180.172L116.007 180.352C115.769 184.565 115.877 187.916 116.388 191.036C117.89 200.22 123.431 209.407 136.626 222.877C140.007 226.329 139.95 231.869 136.498 235.251C133.046 238.632 127.506 238.575 124.124 235.123C108.628 219.304 101.288 207.134 99.1174 193.861C98.3784 189.344 98.2301 184.759 98.5349 179.365L98.5602 178.933C98.6779 176.981 98.8524 174.917 99.1004 172.433Z" fill="#F6DDD6"/>
<path d="M183.235 156.577C187.887 155.268 192.719 157.978 194.028 162.63C202.526 192.833 192.241 219.925 163.358 237.926C159.257 240.482 153.861 239.229 151.305 235.128C148.748 231.027 150.001 225.63 154.102 223.074C176.116 209.354 183.439 190.509 177.37 168.052L177.182 167.37C175.874 162.718 178.584 157.886 183.235 156.577Z" fill="#F6DDD6"/>
<path d="M122.25 202.875L98.375 204.875C98.375 204.875 96.2873 196.13 96.2872 186.255C96.2871 176.38 95.6622 161.13 99.5372 155.255C103.412 149.38 118.912 149.755 118.912 149.755V183.875C118.912 187.75 122.25 202.875 122.25 202.875Z" fill="#F9F7F3" fill-opacity="0.84"/>
<path d="M98.625 206L98.25 204L122.25 202.875L123 204.5L98.625 206Z" fill="white"/>
<path d="M195.48 206.444C195.48 206.444 199.105 195.069 198.73 184.069C198.355 173.069 197.355 160.069 193.105 154.444C188.855 148.819 178.605 149.819 178.605 149.819L174.355 150.819C174.355 150.819 175.375 173.375 175.375 176.375C175.375 179.375 173.875 201.25 173.875 201.25L195.48 206.444Z" fill="#F9F7F3" fill-opacity="0.84"/>
<path d="M173.25 202.375L174 200.75L195.625 206L195 207.75L173.25 202.375Z" fill="white"/>
<path d="M146.105 164.368C153.699 164.368 159.855 157.932 159.855 149.993C159.855 142.054 153.699 135.618 146.105 135.618C138.511 135.618 132.355 142.054 132.355 149.993C132.355 157.932 138.511 164.368 146.105 164.368Z" fill="white"/>
<rect x="136.301" y="131.75" width="19.5504" height="29.3423" rx="9.77521" fill="#E6CBC3"/>
<path d="M114.721 114.702C123.621 114.702 130.836 108.5 130.836 100.851C130.836 93.2012 123.621 87 114.721 87C105.82 87 98.6052 93.2012 98.6052 100.851C98.6052 108.5 105.82 114.702 114.721 114.702Z" fill="#EBBAAA"/>
<path d="M177.221 115.846C186.121 115.846 193.336 109.645 193.336 101.995C193.336 94.3455 186.121 88.1443 177.221 88.1443C168.32 88.1443 161.105 94.3455 161.105 101.995C161.105 109.645 168.32 115.846 177.221 115.846Z" fill="#EBBAAA"/>
<path d="M102.5 78.6455C102.5 59.5113 121.752 44 145.5 44C169.248 44 188.5 59.5113 188.5 78.6455L182.408 113.104C178.94 135.456 158.669 147.75 145.5 147.75C132.33 147.75 110.562 132.849 108.019 113.104L102.5 78.6455Z" fill="#F6DDD6"/>
<path opacity="0.7" d="M143.138 100.327L146.116 102.024L145.954 102.314C144.564 104.827 144.173 105.249 143.958 107.189L143.944 107.324C143.741 109.449 144.481 110.349 147.08 110.385L147.245 110.386V113.827C142.336 113.827 140.085 111.042 140.556 106.807C140.839 104.253 141.407 103.425 143.046 100.49L143.138 100.327Z" fill="#EBBAAA"/>
<path d="M118.875 122.25C125.986 122.25 131.75 118.668 131.75 114.25C131.75 109.832 125.986 106.25 118.875 106.25C111.764 106.25 106 109.832 106 114.25C106 118.668 111.764 122.25 118.875 122.25Z" fill="#FFCACA"/>
<path d="M172 122.25C179.456 122.25 185.5 118.668 185.5 114.25C185.5 109.832 179.456 106.25 172 106.25C164.544 106.25 158.5 109.832 158.5 114.25C158.5 118.668 164.544 122.25 172 122.25Z" fill="#FFCACA"/>
<path d="M106.855 84.875C107.587 80.12 115.81 44.5642 156.117 58.708L156.12 58.7103C176.504 55.7935 185.238 71.7865 187.105 82.875C189.105 94.75 185.105 113.75 186.855 113C188.255 112.4 189.688 110.5 190.355 110C190.772 127.083 195.387 160.899 190.355 163.375C186.975 165.038 180.413 165.916 175.23 165.203L174.876 165.216C169.07 165.408 162.086 164.628 161.25 163.625C160 162.125 162.291 149 163.5 141.75L163.623 141.669C164.243 141.268 165.858 140.27 167.625 138.875C169.462 137.424 172.461 134.064 173.523 132.865L173.723 131.754C176.973 113.555 180.082 92.7316 179.48 91C178.48 88.125 176.355 87 170.105 82.875C166.414 80.439 160.316 72.4039 155.734 65.7991L155.543 66.0965C154.045 68.4249 152.444 70.7076 151.302 71.9238L151.215 72.0155L150.674 72.5782C148.368 74.9593 144.95 78.188 140.105 78.75L139.641 78.8025C131.883 79.659 115.339 80.516 112.105 83.75C110.408 85.447 111.566 98.021 113.336 112.913C113.997 118.473 114.743 124.355 115.458 130.116L115.876 130.563C118.246 133.075 123.427 138.228 124.75 139.375C126.625 141 128.75 164.625 127.25 165.875C126.402 166.582 121.919 167.448 117.707 167.052C114.565 172.743 100.711 165.93 100.355 162.375C99.9801 158.625 102.605 110 102.605 110L102.8 110.157C104.508 111.536 104.895 112.013 105.98 112.375C107.593 112.913 106.105 89.75 106.855 84.875Z" fill="#282023"/>
<path d="M128.922 84.296C130.443 84.296 131.937 84.5083 133.348 84.8617C133.788 84.9718 134.193 85.0892 134.558 85.2082L134.693 85.2529C134.94 85.3361 135.122 85.4036 135.229 85.4472C135.997 85.7582 136.368 86.6328 136.057 87.4006C135.753 88.1506 134.912 88.5214 134.157 88.2484L134.017 88.1949C133.951 88.1704 133.857 88.1369 133.737 88.0967C133.41 87.9868 133.035 87.8758 132.62 87.7718C131.432 87.4743 130.177 87.296 128.922 87.296C127.663 87.296 126.367 87.4756 125.116 87.7755C124.677 87.8807 124.276 87.9931 123.924 88.1048L123.723 88.17L123.52 88.2409C122.745 88.5334 121.879 88.1423 121.587 87.3673C121.294 86.5922 121.685 85.7268 122.46 85.4342L122.568 85.3948C122.665 85.3602 122.793 85.3168 122.949 85.2667L123.018 85.2448C123.436 85.1123 123.905 84.9807 124.417 84.8581C125.881 84.507 127.405 84.296 128.922 84.296Z" fill="#46413D"/>
<path d="M161.479 84.296C163 84.296 164.494 84.5083 165.905 84.8617C166.345 84.9718 166.749 85.0892 167.114 85.2082L167.249 85.2529C167.497 85.3361 167.678 85.4036 167.786 85.4472C168.554 85.7583 168.924 86.6328 168.613 87.4007C168.309 88.1506 167.468 88.5214 166.714 88.2484L166.574 88.1949C166.508 88.1704 166.414 88.1369 166.294 88.0967C165.967 87.9868 165.591 87.8758 165.176 87.7718C163.989 87.4743 162.733 87.296 161.479 87.296C160.22 87.296 158.924 87.4756 157.673 87.7755C157.233 87.8807 156.833 87.9931 156.481 88.1047L156.28 88.17L156.077 88.2408C155.302 88.5334 154.436 88.1423 154.144 87.3673C153.851 86.5923 154.242 85.7268 155.017 85.4342L155.168 85.3794C155.274 85.3424 155.41 85.2968 155.575 85.2448C155.993 85.1123 156.462 84.9807 156.973 84.8581C158.438 84.507 159.961 84.296 161.479 84.296Z" fill="#46413D"/>
<path d="M130.416 94.089C131.099 93.9911 131.732 94.4657 131.83 95.1491C131.926 95.8145 131.478 96.4324 130.824 96.5549L130.77 96.5637L123.338 97.6282C122.655 97.7261 122.022 97.2514 121.924 96.5681C121.828 95.9027 122.276 95.2847 122.93 95.1623L122.984 95.1535L130.416 94.089Z" fill="black"/>
<path d="M157.644 94.497C157.739 93.8316 158.342 93.3641 159.005 93.4303L159.059 93.4369L166.491 94.5016C167.174 94.5995 167.649 95.2329 167.551 95.9163C167.455 96.5816 166.852 97.0491 166.19 96.9829L166.136 96.9763L158.704 95.9116C158.021 95.8137 157.546 95.1803 157.644 94.497Z" fill="black"/>
<path d="M129.186 92.3262C130.817 92.3262 132.144 93.6284 132.184 95.25L132.185 95.3263L132.185 102.521C132.185 104.178 130.842 105.521 129.185 105.521C127.554 105.521 126.227 104.218 126.186 102.597L126.185 102.521L126.185 95.3261C126.185 93.6692 127.529 92.3261 129.186 92.3262Z" fill="black"/>
<path d="M160.591 91.6738C162.222 91.6739 163.549 92.9761 163.59 94.5977L163.591 94.6739L163.59 101.869C163.59 103.526 162.247 104.869 160.59 104.869C158.959 104.869 157.632 103.566 157.591 101.945L157.59 101.868L157.591 94.6737C157.591 93.0169 158.934 91.6738 160.591 91.6738Z" fill="black"/>
<path fill-rule="evenodd" clip-rule="evenodd" d="M134.289 118.88C134.263 119.179 134.25 119.482 134.25 119.789V121.317C134.25 127.122 138.955 131.827 144.76 131.827C150.565 131.827 155.27 127.122 155.27 121.317V119.789C155.27 119.482 155.257 119.179 155.231 118.88H134.289Z" fill="#393939"/>
<mask id="mask2_0_4817" style="mask-type:luminance" maskUnits="userSpaceOnUse" x="134" y="118" width="22" height="14">
<path fill-rule="evenodd" clip-rule="evenodd" d="M134.289 118.88C134.263 119.179 134.25 119.482 134.25 119.789V121.317C134.25 127.122 138.955 131.827 144.76 131.827C150.565 131.827 155.27 127.122 155.27 121.317V119.789C155.27 119.482 155.257 119.179 155.231 118.88H134.289Z" fill="white"/>
</mask>
<g mask="url(#mask2_0_4817)">
<path d="M144.76 134.883C148.26 134.883 151.098 133.482 151.098 131.755C151.098 130.028 148.26 128.627 144.76 128.627C141.259 128.627 138.422 130.028 138.422 131.755C138.422 133.482 141.259 134.883 144.76 134.883Z" fill="#FF6C6C"/>
<rect x="134.25" y="118.88" width="21.0202" height="4.75" fill="white"/>
</g>
<path d="M103.605 63C107.855 42.625 130.98 38.125 146.355 36.75C165.23 36.75 183.855 46.25 189.105 63C193.305 76.4 187.772 99.1667 183.48 108.875V90.375L151.855 63L111.605 78.125L107.355 108.875C104.688 100.375 100.205 79.3 103.605 63Z" fill="#2D2427"/>
<defs>
<linearGradient id="paint0_linear_0_4817" x1="100.75" y1="214.795" x2="100.75" y2="318.295" gradientUnits="userSpaceOnUse">
<stop stop-color="#F23F05"/>
<stop offset="1" stop-color="#EF591E"/>
</linearGradient>
<linearGradient id="paint1_linear_0_4817" x1="131.209" y1="219.478" x2="150.624" y2="316.534" gradientUnits="userSpaceOnUse">
<stop stop-color="#E34208"/>
<stop offset="1" stop-color="#E34208" stop-opacity="0.01"/>
</linearGradient>
<linearGradient id="paint2_linear_0_4817" x1="110.048" y1="208.518" x2="68.6751" y2="247.879" gradientUnits="userSpaceOnUse">
<stop stop-color="#E34208"/>
<stop offset="1" stop-color="#E34208" stop-opacity="0.01"/>
</linearGradient>
<linearGradient id="paint3_linear_0_4817" x1="159.127" y1="220.58" x2="177.486" y2="291.714" gradientUnits="userSpaceOnUse">
<stop stop-color="#E34208"/>
<stop offset="1" stop-color="#E34208" stop-opacity="0.01"/>
</linearGradient>
</defs>
</svg>
