<svg width="300" height="400" viewBox="0 0 300 400" fill="none" xmlns="http://www.w3.org/2000/svg">
<path d="M121.372 230.672C121.94 225.717 126.418 222.16 131.374 222.728C136.33 223.297 139.886 227.775 139.318 232.73C138.16 242.831 137.541 260.923 137.352 285.247L137.33 288.271C137.254 300.356 137.28 312.346 137.378 328.35L137.454 340.609C137.468 343.18 137.475 345.077 137.475 346.616C137.475 351.604 133.432 355.648 128.444 355.648C123.456 355.648 119.412 351.605 119.412 346.617L119.406 343.767L119.276 321.602C119.209 308.358 119.202 297.779 119.275 287.002L119.295 284.335C119.496 259.759 120.13 241.506 121.372 230.672Z" fill="#EBBAAA"/>
<path d="M161.769 222.669C166.757 222.669 170.8 226.713 170.8 231.701L170.798 233.42C170.776 243.503 170.562 257.561 170.146 278.44L169.847 293.002L169.429 313.113C168.973 335.301 168.898 340.481 168.898 346.616C168.898 351.604 164.855 355.648 159.867 355.648C154.879 355.648 150.835 351.604 150.835 346.616L150.837 344.978C150.851 339.368 150.946 333.396 151.35 313.696L151.949 284.852C152.48 259.007 152.737 242.73 152.737 231.701C152.737 226.713 156.781 222.669 161.769 222.669Z" fill="#EBBAAA"/>
<path d="M119.115 331.999L119.233 345.433L119.941 347.035L129.506 348.637L137.653 345.813L137.417 331.999C137.417 331.999 134.583 332.917 128.325 332.993C122.067 333.069 119.115 331.999 119.115 331.999Z" fill="#F5F2F0"/>
<path d="M118.52 337.485V337.404C118.52 336.834 118.953 336.356 119.521 336.299L137.53 334.53C137.753 334.509 137.971 334.609 138.102 334.792C138.311 335.084 138.232 335.491 137.931 335.686L137.355 336.054C137.022 336.268 136.821 336.636 136.821 337.031C136.821 337.447 137.045 337.832 137.406 338.039L137.761 338.241C138.167 338.473 138.321 338.982 138.112 339.4C137.975 339.676 137.99 340.002 138.153 340.263L138.188 340.318C138.373 340.615 138.39 340.983 138.234 341.295L138.184 341.397C138.002 341.761 137.645 342.008 137.239 342.048L129.572 342.813H120.725C120.603 342.813 120.481 342.797 120.365 342.759L118.974 342.317C118.424 342.141 118.16 341.516 118.418 341C118.485 340.865 118.584 340.748 118.706 340.66L119.423 340.137C119.677 339.954 119.828 339.657 119.828 339.343C119.828 338.93 119.566 338.559 119.178 338.419C118.785 338.276 118.52 337.903 118.52 337.485Z" fill="#F5F2F0"/>
<path d="M138.475 337.221V337.131C138.475 336.544 138.029 336.052 137.444 335.992L119.143 334.176C118.911 334.153 118.686 334.257 118.551 334.447C118.34 334.747 118.42 335.16 118.727 335.36L119.316 335.743C119.653 335.964 119.856 336.337 119.856 336.741V336.753C119.856 337.178 119.63 337.57 119.263 337.782L118.906 337.989C118.489 338.231 118.33 338.754 118.544 339.187C118.683 339.469 118.667 339.802 118.502 340.071L118.466 340.13C118.278 340.432 118.26 340.812 118.419 341.133L118.477 341.252C118.658 341.618 119.015 341.865 119.423 341.906L127.231 342.697H136.233C136.357 342.697 136.479 342.676 136.597 342.638L138.006 342.186C138.571 342.003 138.843 341.361 138.58 340.829C138.511 340.691 138.41 340.57 138.284 340.477L137.559 339.945C137.299 339.752 137.145 339.45 137.145 339.127C137.145 338.702 137.41 338.319 137.81 338.174C138.209 338.027 138.475 337.647 138.475 337.221Z" fill="#F5F2F0"/>
<path d="M150.857 331.854L150.765 345.288L151.448 346.902L160.986 348.653L169.177 345.956L169.157 332.142C169.157 332.142 166.309 333.012 160.05 332.99C153.791 332.969 150.857 331.854 150.857 331.854Z" fill="#F5F2F0"/>
<path d="M150.176 337.328L150.178 337.247C150.187 336.677 150.627 336.206 151.196 336.159L169.23 334.673C169.453 334.654 169.67 334.756 169.798 334.942C170.002 335.236 169.917 335.643 169.612 335.833L169.031 336.194C168.695 336.401 168.488 336.767 168.482 337.162C168.476 337.578 168.693 337.965 169.051 338.179L169.403 338.386C169.805 338.626 169.952 339.137 169.736 339.553C169.594 339.824 169.605 340.152 169.763 340.413L169.797 340.47C169.977 340.77 169.989 341.138 169.828 341.447L169.776 341.549C169.588 341.91 169.228 342.15 168.822 342.184L161.144 342.83L152.298 342.692C152.175 342.69 152.054 342.671 151.938 342.631L150.554 342.167C150.007 341.984 149.753 341.354 150.019 340.841C150.089 340.708 150.189 340.594 150.312 340.506L151.038 339.997C151.295 339.816 151.449 339.522 151.454 339.208C151.461 338.794 151.205 338.421 150.819 338.274C150.429 338.124 150.17 337.746 150.176 337.328Z" fill="#F5F2F0"/>
<path d="M170.133 337.376L170.135 337.288C170.144 336.698 169.706 336.201 169.122 336.133L150.851 334.031C150.62 334.005 150.393 334.105 150.256 334.293C150.039 334.588 150.113 335.004 150.417 335.208L151 335.6C151.333 335.826 151.531 336.204 151.525 336.605L151.525 336.62C151.518 337.043 151.285 337.433 150.915 337.639L150.555 337.839C150.134 338.074 149.967 338.595 150.174 339.03C150.309 339.315 150.288 339.65 150.118 339.914L150.082 339.971C149.889 340.273 149.865 340.653 150.018 340.976L150.075 341.095C150.25 341.464 150.604 341.718 151.01 341.765L158.806 342.676L167.806 342.816C167.93 342.818 168.053 342.802 168.171 342.766L169.587 342.333C170.155 342.16 170.436 341.523 170.182 340.988C170.115 340.848 170.016 340.724 169.892 340.632L169.175 340.085C168.918 339.89 168.769 339.584 168.774 339.26C168.781 338.835 169.052 338.459 169.454 338.319C169.855 338.179 170.127 337.801 170.133 337.376Z" fill="#F5F2F0"/>
<path d="M117.512 343.113L119.087 343.743C119.324 343.838 119.444 344.104 119.357 344.344L118.54 346.619C118.454 346.859 118.196 346.987 117.953 346.914L116.161 346.364C115.889 346.281 115.751 345.979 115.865 345.718L116.9 343.363C117.003 343.127 117.274 343.018 117.512 343.113Z" fill="black"/>
<path d="M93.14 363.739C92.6645 362.562 93.0067 360.951 93.273 360.513C93.5392 360.074 125.868 358.056 125.868 358.056C131.234 357.618 141.87 355.776 142.605 358.949C143.515 362.873 143.473 363.76 142.853 366.798C141.862 367.81 131.831 368.697 128.578 367.936C128.578 366.165 128.325 365.024 128.325 365.024C128.325 365.024 126.512 366.175 124.385 366.672C120.047 367.684 119.216 368.697 105.78 368.697C95.0027 367.684 94.2043 366.37 93.14 363.739Z" fill="#272727"/>
<path fill-rule="evenodd" clip-rule="evenodd" d="M137.167 342.69C134.929 345.813 130.804 346.702 128.103 346.666C125.603 346.635 121.315 345.587 119.858 343.22C119.631 342.852 119.041 342.766 118.824 343.142C118.412 343.85 117.898 344.713 116.921 345.915C116.922 345.915 116.923 345.915 116.923 345.915C117.636 346.985 120.107 348.613 121.707 349.105C124.507 349.968 129.766 350.728 131.43 349.968C135.738 347.997 123.994 357.131 118.825 358.037C113.902 358.897 103.614 360.306 103.614 353.661C103.614 353.542 103.617 353.426 103.624 353.312C101.167 354.151 98.6195 355.035 96.4971 356.035C93.3666 357.509 90.1409 362.12 96.4971 364.135C96.7794 364.226 97.068 364.326 97.3733 364.43C100.09 365.369 104.123 366.762 116.7 365.528C121.866 365.022 125.15 363.722 127.5 362.79C128.985 362.203 130.098 361.761 131.078 361.761H141.776C143.804 361.761 142.738 357.635 142.055 354.987C141.948 354.574 141.851 354.196 141.776 353.875C141.39 352.225 141.033 351.493 140.677 350.766C140.296 349.984 139.916 349.207 139.503 347.303C139.185 345.837 139.193 345.138 139.198 344.698C139.206 344.014 139.207 343.954 137.967 342.621C137.745 342.383 137.357 342.426 137.167 342.69Z" fill="#131211"/>
<mask id="mask0_0_4905" style="mask-type:luminance" maskUnits="userSpaceOnUse" x="92" y="342" width="51" height="25">
<path fill-rule="evenodd" clip-rule="evenodd" d="M128.103 346.666C130.804 346.702 134.929 345.813 137.167 342.69C137.357 342.426 137.745 342.383 137.967 342.621C140.006 344.812 138.691 343.565 139.503 347.303C140.302 350.982 140.977 350.457 141.776 353.875C142.329 356.242 144.121 361.761 141.776 361.761H131.078C128.547 361.761 125.129 364.703 116.7 365.528C102.71 366.9 99.2907 365.022 96.4971 364.135C90.1409 362.12 93.3666 357.509 96.4971 356.035C101.083 353.875 107.656 352.254 110.999 350.464C113.602 349.072 114.496 348.639 115.833 347.173C117.56 345.278 118.28 344.078 118.824 343.142C119.041 342.766 119.631 342.852 119.858 343.22C121.315 345.587 125.603 346.635 128.103 346.666Z" fill="white"/>
</mask>
<g mask="url(#mask0_0_4905)">
<path d="M121.707 349.105C120.107 348.613 117.658 346.894 117.042 346.034C116.211 347.579 113.554 349.958 110.744 351.382C108.315 352.61 103.614 353.587 103.614 353.661C103.614 360.306 114.139 359.135 119.063 358.274C124.232 357.369 135.739 347.997 131.431 349.967C129.766 350.728 124.507 349.967 121.707 349.105Z" fill="#F5F2F0"/>
</g>
<path d="M98.4154 360.95C98.6442 360.552 99.1527 360.414 99.5511 360.643C101.197 361.588 103.058 362.077 104.802 362.077C105.261 362.077 105.634 362.45 105.634 362.909C105.634 363.369 105.261 363.741 104.802 363.741C102.769 363.741 100.622 363.177 98.7225 362.086C98.3241 361.857 98.1866 361.348 98.4154 360.95Z" fill="white" fill-opacity="0.33"/>
<path d="M170.647 343.113L169.076 343.743C168.839 343.838 168.719 344.104 168.805 344.344L169.621 346.619C169.707 346.859 169.965 346.987 170.208 346.914L171.996 346.364C172.268 346.281 172.406 345.979 172.292 345.718L171.259 343.363C171.156 343.127 170.885 343.018 170.647 343.113Z" fill="black"/>
<path d="M194.983 363.739C195.458 362.562 195.116 360.951 194.85 360.513C194.585 360.074 162.304 358.056 162.304 358.056C156.946 357.618 146.326 355.776 145.592 358.949C144.684 362.873 144.726 363.76 145.345 366.798C146.335 367.81 156.351 368.697 159.598 367.936C159.598 366.165 159.851 365.024 159.851 365.024C159.851 365.024 161.661 366.175 163.785 366.672C168.117 367.684 168.946 368.697 182.363 368.697C193.123 367.684 193.92 366.37 194.983 363.739Z" fill="#272727"/>
<path fill-rule="evenodd" clip-rule="evenodd" d="M151.023 342.692C153.258 345.813 157.376 346.702 160.072 346.666C162.568 346.635 166.848 345.587 168.304 343.22C168.531 342.852 169.122 342.768 169.339 343.144C169.75 343.852 170.263 344.715 171.237 345.915C171.237 345.915 171.236 345.915 171.235 345.915C170.523 346.985 168.057 348.613 166.459 349.105C163.663 349.968 158.412 350.728 156.75 349.968C152.449 347.997 164.175 357.131 169.337 358.037C174.253 358.897 184.525 360.307 184.525 353.661C184.525 353.542 184.522 353.426 184.515 353.312C186.968 354.151 189.512 355.035 191.631 356.036C194.757 357.509 197.978 362.12 191.631 364.136C191.349 364.226 191.061 364.326 190.756 364.43C188.044 365.369 184.016 366.762 171.458 365.528C166.3 365.022 163.022 363.722 160.674 362.79C159.191 362.203 158.08 361.761 157.102 361.761H146.42C144.395 361.761 145.459 357.635 146.141 354.987C146.248 354.574 146.346 354.196 146.42 353.875C146.805 352.226 147.162 351.494 147.517 350.766C147.898 349.984 148.277 349.207 148.69 347.303C149.008 345.837 148.999 345.138 148.994 344.698C148.986 344.014 148.985 343.954 150.222 342.624C150.444 342.383 150.833 342.426 151.023 342.692Z" fill="#131211"/>
<mask id="mask1_0_4905" style="mask-type:luminance" maskUnits="userSpaceOnUse" x="145" y="342" width="51" height="25">
<path fill-rule="evenodd" clip-rule="evenodd" d="M160.072 346.666C157.376 346.702 153.258 345.813 151.023 342.692C150.834 342.426 150.444 342.386 150.222 342.623C148.188 344.812 149.501 343.564 148.69 347.303C147.892 350.982 147.218 350.457 146.42 353.875C145.868 356.242 144.079 361.761 146.42 361.761H157.102C159.629 361.761 163.042 364.703 171.458 365.528C185.428 366.899 188.842 365.022 191.631 364.135C197.978 362.12 194.757 357.509 191.631 356.035C187.052 353.875 180.489 352.254 177.151 350.464C174.552 349.071 173.659 348.639 172.324 347.172C170.601 345.28 169.882 344.078 169.339 343.144C169.122 342.768 168.531 342.851 168.304 343.222C166.848 345.587 162.569 346.635 160.072 346.666Z" fill="white"/>
</mask>
<g mask="url(#mask1_0_4905)">
<path d="M166.459 349.105C168.057 348.613 170.502 346.894 171.117 346.034C171.947 347.579 174.6 349.958 177.406 351.382C179.831 352.61 184.525 353.587 184.525 353.661C184.525 360.306 174.015 359.135 169.1 358.274C163.938 357.369 152.449 347.997 156.75 349.967C158.412 350.728 163.663 349.967 166.459 349.105Z" fill="#F5F2F0"/>
</g>
<path d="M188.58 360.643C188.979 360.414 189.487 360.551 189.716 360.949C189.945 361.348 189.808 361.856 189.41 362.085C187.513 363.177 185.369 363.741 183.338 363.741C182.879 363.741 182.507 363.369 182.507 362.909C182.507 362.45 182.879 362.077 183.338 362.077C185.08 362.077 186.937 361.588 188.58 360.643Z" fill="white" fill-opacity="0.33"/>
<path d="M133.484 117.595C133.484 112.619 137.519 108.585 142.495 108.585H147.291C152.267 108.585 156.301 112.619 156.301 117.595V141.622C156.301 147.923 151.194 153.03 144.893 153.03C138.592 153.03 133.484 147.923 133.484 141.622V117.595Z" fill="#EBBAAA"/>
<path d="M179.356 106.208C184.607 106.208 188.863 101.952 188.863 96.7014C188.863 91.4509 184.607 87.1943 179.356 87.1943C174.106 87.1943 169.849 91.4509 169.849 96.7014C169.849 101.952 174.106 106.208 179.356 106.208Z" fill="#E4C1C1"/>
<path d="M111.856 106.208C106.606 106.208 102.349 101.952 102.349 96.7014C102.349 91.4509 106.606 87.1943 111.856 87.1943C117.107 87.1943 121.363 91.4509 121.363 96.7014C121.363 101.952 117.107 106.208 111.856 106.208Z" fill="#E4C1C1"/>
<path d="M179.236 54.1945L174.153 52.1695C173.685 51.9832 173.177 52.3281 173.177 52.8319V56.3184C173.177 56.4917 173.24 56.6592 173.354 56.7895L179.863 64.1864C180.336 64.7231 181.216 64.3079 181.102 63.602L179.676 54.7436C179.636 54.4959 179.469 54.2872 179.236 54.1945Z" fill="#1D1D21"/>
<path d="M179.188 71.9987L175.209 59.2395C174.988 58.5319 175.859 57.9991 176.389 58.5179L187.084 69.0032C187.464 69.3754 187.317 70.0174 186.813 70.1878L180.098 72.4616C179.718 72.5902 179.308 72.3811 179.188 71.9987Z" fill="#1D1D21"/>
<path fill-rule="evenodd" clip-rule="evenodd" d="M182.162 79.7817L184.595 79.2762L184.791 83.2243C184.809 83.5894 185.1 83.8815 185.465 83.901L187.428 84.0058V89.9748C187.428 90.2973 187.645 90.5799 187.956 90.6633L190.409 91.3213L190.084 96.4372C190.064 96.7381 190.237 97.0185 190.514 97.1376L191.9 97.7328L190.875 103.882C190.813 104.254 191.052 104.61 191.419 104.695L192.34 104.906C192.285 106.73 192.096 108.684 191.616 109.463C190.665 111.008 188.645 114.573 188.883 117.901C189.073 120.563 190.784 124.318 191.616 125.863C191.448 124.824 191.326 122.482 191.925 120.347C191.918 120.768 191.926 121.169 191.953 121.538C192.143 124.105 193.062 127.203 193.498 128.431C194.33 127.797 196.208 125.531 197.063 121.538C197.947 117.414 198.831 112.723 198.039 109.675C198.123 108.924 198.092 108.133 197.908 107.298L198.577 106.691C198.803 106.485 198.873 106.159 198.751 105.878L197.003 101.868L199.247 98.7003C199.423 98.4508 199.422 98.1166 199.242 97.8692L195.699 92.9865L197.494 89.868C197.647 89.6032 197.614 89.2707 197.412 89.0411L193.238 84.2982L194.57 81.5085C194.709 81.2171 194.635 80.8687 194.389 80.6591L191.086 77.8381L193.122 74.5016C193.329 74.162 193.218 73.7187 192.876 73.5164L188.664 71.0275L189.902 67.0357C189.991 66.7459 189.888 66.431 189.644 66.2509L180.535 59.531C179.949 59.0987 179.168 59.72 179.458 60.3883L182.408 67.1975L181.484 65.9639C181.054 65.3897 180.141 65.7384 180.203 66.4531L181.307 79.1454C181.344 79.5709 181.744 79.8687 182.162 79.7817Z" fill="#1D1D21"/>
<path d="M191.612 105.075C191.739 104.787 192.066 104.65 192.358 104.755L192.395 104.77L198.096 107.275C198.396 107.407 198.533 107.758 198.401 108.058C198.274 108.346 197.947 108.484 197.655 108.378L197.617 108.363L191.917 105.858C191.617 105.726 191.48 105.375 191.612 105.075Z" fill="black"/>
<path d="M191.277 106.15C191.318 105.838 191.593 105.615 191.903 105.634L191.943 105.638L198.669 106.52C198.994 106.563 199.223 106.861 199.181 107.187C199.14 107.499 198.864 107.722 198.555 107.703L198.514 107.699L191.789 106.817C191.463 106.774 191.234 106.476 191.277 106.15Z" fill="black"/>
<path d="M191.106 107.075C191.152 106.764 191.432 106.545 191.741 106.57L191.781 106.575L198.485 107.574C198.81 107.622 199.033 107.924 198.985 108.249C198.939 108.56 198.659 108.779 198.35 108.754L198.31 108.749L191.606 107.75C191.281 107.702 191.057 107.4 191.106 107.075Z" fill="black"/>
<path d="M190.929 106.154C191.058 105.867 191.386 105.731 191.677 105.838L191.714 105.854L198.189 108.744C198.489 108.877 198.623 109.229 198.489 109.528C198.361 109.816 198.033 109.951 197.742 109.844L197.705 109.829L191.23 106.939C190.93 106.805 190.796 106.454 190.929 106.154Z" fill="black"/>
<path d="M191.541 107.621L197.981 108.088C198.308 108.111 198.555 108.396 198.531 108.723C198.508 109.037 198.246 109.276 197.936 109.275L197.895 109.273L191.455 108.806C191.128 108.783 190.882 108.498 190.906 108.171C190.928 107.857 191.191 107.618 191.501 107.62L191.541 107.621Z" fill="black"/>
<path fill-rule="evenodd" clip-rule="evenodd" d="M113.045 54.1996L118.497 52.1439C118.963 51.9681 119.462 52.3127 119.462 52.8111V56.3071C119.462 56.487 119.394 56.6605 119.271 56.7924L117.372 58.8345C117.387 58.9369 117.378 59.0472 117.34 59.1616L113.101 72.0241C112.979 72.3959 112.579 72.5996 112.207 72.48L111.505 72.2551L110.87 79.167C110.831 79.5844 110.441 79.8748 110.028 79.7935L107.397 79.2761L107.19 83.2382C107.171 83.5968 106.885 83.8802 106.524 83.8985L104.404 84.0057V89.9821C104.404 90.3009 104.189 90.5759 103.879 90.6548L101.255 91.3209L101.599 96.4446C101.619 96.7414 101.448 97.0138 101.171 97.1262L99.6794 97.7326L100.766 103.905C100.83 104.266 100.594 104.606 100.225 104.686L99.2143 104.905C99.2723 106.73 99.4728 108.684 99.9796 109.463C100.984 111.008 103.119 114.573 102.867 117.901C102.666 120.563 100.858 124.318 99.9796 125.863C100.157 124.824 100.286 122.483 99.6532 120.348C99.6611 120.769 99.6526 121.17 99.6238 121.538C99.4227 124.105 98.4517 127.203 97.9913 128.431C97.1124 127.797 95.1285 125.531 94.2245 121.538C93.2909 117.415 92.3573 112.724 93.1937 109.676C93.1048 108.924 93.1375 108.133 93.3312 107.298L92.6266 106.692C92.3876 106.487 92.3115 106.159 92.4386 105.883L94.2882 101.867L91.9257 98.7111C91.7354 98.4568 91.7341 98.1145 91.9226 97.8687L95.6662 92.9868L93.7775 89.8827C93.6123 89.6112 93.6448 89.268 93.8573 89.0396L98.2658 84.298L96.8669 81.524C96.7165 81.2257 96.7916 80.8675 97.0479 80.6603L100.539 77.8381L98.401 74.5206C98.1782 74.1748 98.2903 73.7166 98.6463 73.5174L103.098 71.0272L101.797 67.055C101.699 66.756 101.809 66.4283 102.066 66.2484L111.791 59.4582L111.793 59.4572L112.594 54.7472C112.637 54.4974 112.808 54.289 113.045 54.1996Z" fill="#1D1D21"/>
<path d="M99.1799 104.765C99.4829 104.639 99.8307 104.783 99.9568 105.086C100.078 105.376 99.9508 105.708 99.6734 105.846L99.6364 105.863L93.6138 108.368C93.3108 108.494 92.963 108.35 92.837 108.047C92.7162 107.757 92.8429 107.425 93.1204 107.287L93.1574 107.271L99.1799 104.765Z" fill="black"/>
<path d="M99.6421 105.638C99.9678 105.597 100.265 105.829 100.305 106.154C100.344 106.466 100.133 106.752 99.8287 106.811L99.7885 106.817L92.6826 107.699C92.3569 107.74 92.0601 107.508 92.0197 107.183C91.981 106.871 92.1917 106.585 92.496 106.526L92.5362 106.52L99.6421 105.638Z" fill="black"/>
<path d="M99.8146 106.574C100.14 106.528 100.44 106.755 100.486 107.08C100.53 107.391 100.324 107.68 100.021 107.744L99.9805 107.751L92.8973 108.75C92.5724 108.796 92.2718 108.569 92.226 108.244C92.1821 107.933 92.3881 107.644 92.6913 107.58L92.7314 107.573L99.8146 106.574Z" fill="black"/>
<path d="M99.9002 105.849C100.203 105.721 100.551 105.863 100.679 106.165C100.801 106.455 100.676 106.787 100.4 106.926L100.363 106.943L93.5215 109.834C93.2192 109.961 92.8706 109.82 92.7429 109.517C92.6205 109.228 92.7454 108.896 93.0221 108.756L93.059 108.739L99.9002 105.849Z" fill="black"/>
<path d="M100.063 107.621C100.39 107.599 100.674 107.846 100.696 108.173C100.718 108.487 100.492 108.76 100.185 108.802L100.144 108.807L93.3398 109.273C93.0124 109.296 92.7288 109.048 92.7064 108.721C92.6849 108.407 92.911 108.134 93.218 108.092L93.2585 108.088L100.063 107.621Z" fill="black"/>
<path d="M110.114 77.0929C110.114 57.4031 126.075 41.4415 145.765 41.4415C165.455 41.4415 181.416 57.4031 181.416 77.0929V80.6017C181.416 83.7179 181.045 86.8229 180.308 89.8509L175.608 109.191C172.456 122.156 161.325 131.623 148.023 132.653C146.52 132.77 145.001 132.775 143.497 132.67C128.786 131.649 116.549 120.768 113.917 106.258L110.76 88.8543C110.33 86.4847 110.114 84.0813 110.114 81.673V77.0929Z" fill="#F6DDD6"/>
<path fill-rule="evenodd" clip-rule="evenodd" d="M145.131 74.5974C128.564 74.5974 121.358 76.1014 116.51 77.3562L116.485 77.8972C116.132 85.3111 115.741 93.5147 116.512 98.856C117.303 104.334 118.418 107.872 118.877 108.957C117.484 108.452 115.25 105.723 113.772 98.9903C113.831 101.297 113.945 103.246 114.135 104.56C114.926 110.038 116.042 113.577 116.501 114.661C115.794 114.405 114.872 113.579 113.942 111.949C114.074 113.242 114.232 114.359 114.422 115.24C115.036 118.092 117.67 124.826 119.413 126.648L119.234 126.5C115.779 123.622 113.795 121.97 111.926 115.24C111.017 111.968 110.683 106.419 110.668 100.571C110.159 96.8982 109.857 92.3697 109.903 86.8292C110.021 72.5071 111.443 70.2728 112.751 71.7883C112.781 71.5752 112.812 71.3627 112.845 71.1511H112.569C112.688 70.9423 112.814 70.7268 112.949 70.5053C113.372 67.9758 113.976 65.5787 114.81 63.4694C117.45 56.7974 129.107 46.7893 146.154 46.7893C163.2 46.7893 172.768 56.6783 176.287 63.4694C176.53 63.9367 176.751 64.4866 176.952 65.1064C178.178 67.3294 178.977 69.4473 179.594 71.1511H178.161C178.297 72.25 178.411 73.4035 178.504 74.5881C179.454 72.4469 180.692 74.8401 181.473 77.4113C181.119 84.971 180.611 101.46 181.406 106.937C182.2 112.414 183.319 115.952 183.779 117.036C182.59 116.607 180.79 114.561 179.366 109.796C177.899 116.821 173.361 123.036 170.919 125.579C171.949 124.034 174.508 118.805 176.504 110.249C178.053 103.61 174.575 88.3637 171.977 77.1079C167.351 75.9115 160.002 74.5974 145.131 74.5974Z" fill="#1D1D22"/>
<path d="M146.922 40.6096C181.222 40.6096 182.401 73.003 181.223 82.0325C174.976 62.9576 136.432 57.3142 123.349 63.0705C112.882 67.6757 110.069 83.1237 110.029 90.0462C109.558 83.9137 109.135 69.7076 112.623 60.5875C114.134 56.6371 121.06 40.6096 146.922 40.6096Z" fill="#1D1D22"/>
<path d="M124.469 85.6727C124.574 85.0433 125.156 84.6126 125.783 84.6885L125.837 84.6962L132.87 85.8701C133.517 85.9781 133.955 86.5905 133.846 87.2379C133.741 87.8673 133.16 88.298 132.532 88.2222L132.479 88.2144L125.446 87.0405C124.798 86.9325 124.361 86.3201 124.469 85.6727Z" fill="black"/>
<path d="M165.415 84.1694C166.035 83.9554 166.712 84.2849 166.926 84.9053C167.134 85.5085 166.828 86.1647 166.241 86.3974L166.19 86.4162L159.449 88.7414C158.829 88.9555 158.152 88.626 157.938 88.0055C157.73 87.4023 158.036 86.7462 158.623 86.5135L158.674 86.4946L165.415 84.1694Z" fill="black"/>
<path d="M159.818 83.6034C161.499 83.6034 162.866 84.9458 162.906 86.617L162.907 86.6932V90.2583C162.907 91.9648 161.524 93.3481 159.818 93.3481C158.137 93.3481 156.769 92.0058 156.729 90.3345L156.728 90.2583V86.6932C156.728 84.9867 158.111 83.6034 159.818 83.6034Z" fill="black"/>
<path d="M131.773 83.6034C133.454 83.6034 134.821 84.9458 134.862 86.617L134.863 86.6932V90.2583C134.863 91.9648 133.479 93.3481 131.773 93.3481C130.092 93.3481 128.724 92.0058 128.684 90.3345L128.683 90.2583V86.6932C128.683 84.9867 130.066 83.6034 131.773 83.6034Z" fill="black"/>
<path d="M144.035 91.9897L147.397 94.231C146.254 95.9449 145.359 98.5176 145.359 100.389C145.359 102.193 146.011 102.952 148.004 102.973L148.093 102.974V107.014C143.685 107.014 141.319 104.352 141.319 100.389C141.319 97.7055 142.435 94.448 143.95 92.1182L144.035 91.9897Z" fill="#EBBAAA"/>
<path d="M183.349 67.1704L175.643 65.7895C175.285 65.7253 174.997 65.4636 174.89 65.1152C173.345 60.1005 168.517 50.7109 148.346 50.7109C133.056 50.7109 118.587 61.2855 115.063 67.3736C114.693 68.0122 113.745 68.2105 113.24 67.6724L106.598 60.5977C106.185 60.1573 106.282 59.4476 106.798 59.1341L112.417 55.7263C112.786 55.5022 112.958 55.0563 112.835 54.6418L111.389 49.7941C111.207 49.1845 111.664 48.5718 112.3 48.5718H117.359C117.819 48.5718 118.214 48.2419 118.295 47.7889L119.062 43.509C119.15 43.0148 119.608 42.6747 120.107 42.7322L129.124 43.7723C129.378 43.8017 129.634 43.727 129.833 43.5653L133.203 40.8229C133.372 40.6849 133.584 40.6096 133.803 40.6096H140.403C140.682 40.6096 140.946 40.4877 141.127 40.276L147.696 32.5777C148.05 32.1634 148.678 32.1302 149.073 32.505L156.516 39.5628C156.738 39.7725 157.046 39.8635 157.345 39.8075L160.881 39.1467C161.159 39.0948 161.446 39.1692 161.663 39.3499L164.49 41.6975C164.661 41.8392 164.876 41.9168 165.098 41.9168H181.734C182.35 41.9168 182.803 42.4934 182.658 43.0918L180.318 52.7283C180.216 53.1497 180.412 53.587 180.794 53.7911L192.882 60.2445C193.675 60.6683 193.491 61.855 192.607 62.0183L186.86 63.0779C186.265 63.1874 185.972 63.8653 186.299 64.3741C186.662 64.9403 186.256 65.6844 185.583 65.6844H184.401C184.016 65.6844 183.761 66.0823 183.921 66.4315C184.099 66.8184 183.768 67.2455 183.349 67.1704Z" fill="#060606" fill-opacity="0.38"/>
<path d="M146.707 50.1483C166.505 47.3773 174.664 61.6229 179.048 68.3619C179.295 68.7417 179.776 68.8881 180.195 68.7161L191.877 63.9167C192.134 63.8109 192.332 63.5982 192.419 63.3339L193.889 58.8594C194.163 58.0244 193.255 57.2964 192.499 57.7456L188.111 60.3563C187.441 60.7546 186.603 60.2229 186.678 59.4476L187.315 52.8828C187.333 52.6872 187.291 52.4906 187.194 52.32L183.116 45.1721C182.873 44.7463 182.346 44.575 181.899 44.7765L177.538 46.7436C176.947 47.0101 176.269 46.6203 176.201 45.9758L175.514 39.3977C175.439 38.687 174.637 38.3092 174.042 38.7048L168.278 42.5367C167.734 42.8984 166.996 42.6161 166.832 41.9836L166.027 38.8818C165.883 38.3267 165.284 38.0244 164.752 38.2383L159.224 40.4611C158.712 40.6668 158.134 40.3956 157.964 39.8709L156.17 34.3085C155.963 33.667 155.173 33.4386 154.656 33.8708L154.033 34.3913C153.644 34.7162 153.069 34.6791 152.725 34.3069L150.444 31.8377C149.904 31.253 148.927 31.5514 148.806 32.3382L148.66 33.2845C148.547 34.0207 147.669 34.3465 147.103 33.8626L144.607 31.7298C143.99 31.2026 143.039 31.641 143.039 32.4525V39.5761C143.039 40.2093 142.432 40.6656 141.824 40.4892L140.552 40.1205C140.254 40.0341 139.932 40.0987 139.69 40.2936L134.902 44.1558C134.693 44.3247 134.421 44.397 134.156 44.3546L127.943 43.3657C127.595 43.3103 127.245 43.452 127.033 43.7338L125.669 45.5499C125.363 45.9588 124.787 46.0516 124.367 45.76L123.664 45.272C123.093 44.8754 122.303 45.2061 122.185 45.8913L121.587 49.359C121.508 49.8151 121.113 50.1483 120.65 50.1483H118.016C117.775 50.1483 117.543 50.2396 117.367 50.4041L114.338 53.2317C114.192 53.3679 114.007 53.4549 113.809 53.4801L109.496 54.0272C108.944 54.0971 108.569 54.6242 108.685 55.1683L109.419 58.6089C109.521 59.0885 109.241 59.567 108.774 59.7141L103.899 61.2452C103.75 61.2918 103.615 61.374 103.506 61.4848L102.868 62.1322C102.276 62.733 102.702 63.7501 103.546 63.7501H106.951C107.281 63.7501 107.588 63.9212 107.761 64.2024L109.075 66.3364C109.36 66.799 109.2 67.4058 108.724 67.6679L102.998 70.8195C102.302 71.2026 102.356 72.2204 103.09 72.5267C103.443 72.6743 103.673 73.0197 103.673 73.4026V75.3874C103.673 75.6372 103.771 75.8768 103.946 76.0548L105.229 77.3565C105.553 77.6852 106.066 77.7337 106.446 77.4718L110.552 74.6401C110.705 74.5346 110.821 74.392 110.894 74.2214C114.413 65.9978 128.662 52.6739 146.707 50.1483Z" fill="#C8C8C8" fill-opacity="0.38"/>
<path d="M107.076 78.7049L110.301 70.8685C111.598 69.5655 113.79 67.7932 112.185 71.1247C110.58 74.4564 109.852 80.0423 109.689 82.4186L107.494 80.9208L109.34 77.9336L107.076 78.7049Z" fill="#5E5E60"/>
<path d="M184.405 77.8749L181.32 69.9158C179.965 68.5641 177.648 66.7091 179.218 70.1017C180.789 73.494 181.25 79.1082 181.284 81.4913L183.806 80.0753L181.947 77.0185L184.405 77.8749Z" fill="#5E5E60"/>
<path d="M182.327 67.5859L177.098 65.0903C177.296 65.4865 177.954 66.8967 179 69.3685C180.046 71.8403 180.545 73.9635 180.664 74.7162L184.704 73.1713L182.327 70.3192L184.11 68.7743L182.327 67.5859Z" fill="#888D97"/>
<path d="M145.131 52.3949C126.542 52.9085 115.712 65.391 111.75 72.4479C111.518 72.8609 111.027 73.0558 110.582 72.9002L100.63 69.418C100.4 69.3374 100.21 69.1713 100.099 68.9535L97.9909 64.8006C97.5912 64.0134 98.389 63.1497 99.2041 63.487L103.372 65.2123C104.1 65.5137 104.86 64.8444 104.655 64.0819L102.961 57.7714C102.913 57.5931 102.918 57.4044 102.975 57.2283L105.475 49.5787C105.634 49.0924 106.148 48.8169 106.638 48.9552L110.758 50.1161C111.394 50.295 112.016 49.7845 111.967 49.1245L111.481 42.6678C111.426 41.9382 112.18 41.419 112.839 41.7326L118.522 44.4372C119.128 44.7259 119.837 44.3078 119.88 43.6352L120.062 40.8356C120.106 40.1703 120.8 39.7517 121.406 40.0264L125.009 41.6626C125.638 41.9483 126.354 41.4848 126.354 40.7917V35.872C126.354 35.0646 127.295 34.6201 127.914 35.1355L130.234 37.0693C130.483 37.2761 130.819 37.3417 131.128 37.2435L133.029 36.6387C133.172 36.5931 133.324 36.5821 133.473 36.6068L137.555 37.2871C137.962 37.355 138.368 37.1511 138.558 36.7828L139.686 34.5974C140.034 33.9239 140.988 33.9039 141.358 34.5623L143.115 37.6899C143.374 38.151 143.961 38.3095 144.419 38.0424L148.577 35.6185L152.705 32.7389C153.207 32.3883 153.903 32.5959 154.128 33.1638L156.187 38.3466C156.235 38.4662 156.306 38.5747 156.397 38.6657L158.153 40.4248C158.531 40.8033 159.147 40.7931 159.516 40.4022L160.239 39.634C160.633 39.2161 161.302 39.2378 161.664 39.6801L163.273 41.6447C163.57 42.0066 164.086 42.097 164.49 41.8578L167.593 40.0195C168.093 39.7232 168.737 39.9399 168.955 40.4775L170.417 44.0935C170.624 44.605 171.221 44.831 171.717 44.5851L177.512 41.7074C178.143 41.394 178.881 41.8509 178.881 42.5554V46.6909C178.881 47.1037 179.147 47.4683 179.539 47.5934L182.919 48.6717C182.993 48.6955 183.065 48.7285 183.131 48.7699L185.601 50.3086C186.262 50.7207 186.169 51.7135 185.442 52.0015L182.4 53.2068C181.727 53.4737 181.583 54.3652 182.139 54.8258L184.147 56.4879C184.364 56.6676 184.49 56.9352 184.49 57.2183V60.406C184.49 60.5488 184.458 60.69 184.396 60.8191L183.163 63.3872C183.077 63.5664 183.049 63.7679 183.083 63.9635L183.482 66.2557C183.523 66.4903 183.474 66.7322 183.345 66.9335L182.254 68.6391C182.079 68.9136 181.776 69.0798 181.451 69.0798H179.388C179.071 69.0798 178.78 68.925 178.597 68.6671C174.596 63.0345 161.862 51.9326 145.131 52.3949Z" fill="#D5E4FB" fill-opacity="0.38"/>
<path d="M115.203 63.8577L114.587 66.9349C114.564 67.0481 114.5 67.1488 114.408 67.218C114.048 67.488 114.239 68.0613 114.689 68.0613H114.832C115.098 68.0613 115.313 68.2764 115.313 68.5419C115.313 68.9882 115.869 69.1933 116.159 68.8539L116.699 68.221C116.789 68.1164 116.904 68.037 117.034 67.9907L118.524 67.459C119.05 67.2717 119.302 66.6747 119.069 66.1677L118.93 65.863C118.81 65.6001 118.816 65.2964 118.946 65.0383L119.535 63.8746C119.728 63.4927 120.19 63.3332 120.578 63.5148C121.014 63.7192 121.531 63.4896 121.671 63.0285L121.894 62.2991C122.045 61.8033 122.565 61.5202 123.064 61.6621L123.991 61.9264C124.539 62.0825 125.085 61.6706 125.085 61.1C125.085 60.8426 125.201 60.5987 125.4 60.4354L126.332 59.6715C126.718 59.3557 127.299 59.5104 127.477 59.976C127.626 60.366 128.071 60.5521 128.453 60.3836L129.496 59.924C129.757 59.8092 129.952 59.5836 130.029 59.3091L130.448 57.8063C130.575 57.3492 131.019 57.0562 131.489 57.1189L132.518 57.2565C132.95 57.3145 133.335 56.9782 133.335 56.5421C133.335 56.1437 133.658 55.821 134.056 55.821H134.832C135.163 55.821 135.471 55.6484 135.643 55.3656L136.492 53.9756C136.723 53.5956 137.188 53.4273 137.609 53.5709L140.445 54.5363C140.824 54.6654 141.243 54.5432 141.494 54.2307L142.515 52.9558C142.571 52.8857 142.637 52.8239 142.71 52.7721L143.76 52.0353C144.126 51.7781 144.63 52.04 144.63 52.4876C144.63 52.8842 145.036 53.1519 145.4 52.9957L147.747 51.991C148.375 51.7225 149.072 52.1826 149.072 52.865V53.1145C149.072 53.5792 149.408 53.9756 149.866 54.0524L152.102 54.4263C152.428 54.4807 152.758 54.3626 152.975 54.114L154.096 52.8312C154.507 52.3609 155.252 52.4079 155.601 52.9263L156.098 53.6664C156.48 54.2345 157.352 54.0947 157.538 53.4356C157.635 53.0893 157.951 52.85 158.311 52.85H158.978C159.359 52.85 159.703 53.0772 159.853 53.4273L160.524 54.9996C160.721 55.4614 161.244 55.69 161.717 55.522L163.665 54.8303C164.099 54.6758 164.556 54.9981 164.556 55.4595C164.556 55.888 164.954 56.2055 165.372 56.1102L166.113 55.9412C166.44 55.8666 166.782 55.97 167.013 56.2131L167.742 56.9799C167.97 57.2197 168.057 57.5607 167.972 57.8802L167.794 58.5466C167.633 59.1503 168.088 59.7426 168.713 59.7426H170.712C171.237 59.7426 171.663 60.1683 171.663 60.6933V61.8002C171.663 62.0783 171.785 62.3423 171.996 62.523L174.249 64.4491C174.46 64.6297 174.582 64.8938 174.582 65.1719V65.9032C174.582 66.4244 175.159 66.7391 175.597 66.457L175.686 66.3997C176.086 66.1423 176.613 66.4294 176.613 66.905C176.613 67.3915 177.161 67.6762 177.559 67.3967L178.239 66.9192C178.492 66.7412 178.643 66.4508 178.643 66.1411V64.6851C178.643 64.2302 178.321 63.8392 177.875 63.752L176.666 63.5162C176.135 63.4126 175.855 62.8246 176.11 62.3471C176.362 61.8755 176.093 61.2939 175.57 61.181L174.596 60.9704C173.999 60.8414 173.738 60.1355 174.109 59.6499C174.375 59.3008 174.325 58.8052 173.995 58.5162L172.837 57.5042C172.732 57.4132 172.609 57.3459 172.476 57.3071L170.474 56.7253C169.916 56.5632 169.823 55.8131 170.324 55.5198C170.687 55.3076 170.762 54.8154 170.479 54.5045L168.57 52.4053C168.295 52.103 167.857 52.0103 167.483 52.1752L166.637 52.5482C166.235 52.7252 165.764 52.604 165.498 52.2546L164.469 50.907C164.218 50.5778 163.783 50.449 163.394 50.5883L161.784 51.1635C161.359 51.3151 160.887 51.148 160.652 50.7632L159.766 49.3091C159.662 49.1389 159.507 49.0056 159.323 48.9281L157.473 48.1483C157.216 48.0399 156.924 48.0499 156.676 48.1754L154.131 49.4586C153.899 49.5753 153.63 49.5924 153.385 49.5057L149.473 48.1195C149.218 48.0292 148.937 48.0518 148.699 48.1813L147.088 49.0612C146.547 49.3566 145.873 49.0672 145.714 48.4718C145.552 47.865 144.856 47.5789 144.314 47.8968L141.095 49.7859C140.865 49.9209 140.589 49.9532 140.334 49.8745L138.177 49.2098C137.851 49.1092 137.496 49.191 137.247 49.4241L134.978 51.5487C134.745 51.7674 134.416 51.8539 134.105 51.7788L131.209 51.0788C130.876 50.9983 130.525 51.1036 130.291 51.3538L127.933 53.8775C127.517 54.3217 126.795 54.2585 126.464 53.7487C126.154 53.2733 125.497 53.1797 125.067 53.5502L120.838 57.1978C120.71 57.3079 120.614 57.4498 120.56 57.6092L119.764 59.9271C119.63 60.319 119.165 60.4837 118.814 60.2643C118.42 60.0183 117.903 60.2577 117.835 60.7173L117.647 62.0062C117.594 62.3663 117.34 62.6646 116.993 62.7746L115.848 63.1381C115.518 63.2429 115.271 63.5183 115.203 63.8577Z" fill="#585C62"/>
<path d="M146.675 49.7625C156.498 49.6724 164.029 51.7845 169.684 55.8923C174.483 59.3774 177.863 64.2145 180.331 70.5283L180.418 70.7517L180.196 70.8372C177.736 64.4537 174.359 59.5811 169.545 56.0846C163.933 52.0087 156.452 49.9105 146.677 50.0002C137.118 50.0879 128.29 53.583 121.199 59.4904C115.134 64.5421 110.859 71.0322 109.748 76.4755L109.715 76.6401L109.482 76.595C110.551 71.0603 114.881 64.4435 121.047 59.3078C128.179 53.3665 137.059 49.8508 146.675 49.7625Z" fill="black"/>
<path d="M127.543 108.585C132.137 108.585 135.862 105.659 135.862 102.049C135.862 98.439 132.137 95.5127 127.543 95.5127C122.949 95.5127 119.224 98.439 119.224 102.049C119.224 105.659 122.949 108.585 127.543 108.585Z" fill="#F9D5C5"/>
<path d="M164.858 108.585C169.452 108.585 173.177 105.659 173.177 102.049C173.177 98.439 169.452 95.5127 164.858 95.5127C160.264 95.5127 156.539 98.439 156.539 102.049C156.539 105.659 160.264 108.585 164.858 108.585Z" fill="#F9D5C5"/>
<path d="M155.351 120.231C158.488 118.71 156.658 114.408 155.351 111.913C154.328 112.867 150.541 114.764 146.557 115.24C147.864 117.934 152.214 121.752 155.351 120.231Z" fill="#FF6D6D"/>
<path fill-rule="evenodd" clip-rule="evenodd" d="M136.647 111.4C136.126 111.057 135.415 111.751 135.886 112.299C137.505 114.188 141.159 115.834 145.487 115.834L145.599 115.835C145.718 115.837 145.802 115.841 145.875 115.848L145.958 115.857L146.051 115.865C146.102 115.869 146.155 115.869 146.214 115.867C146.998 117.272 148.405 118.783 149.937 119.81C151.928 121.144 153.941 121.575 155.61 120.766C157.305 119.944 157.899 118.378 157.606 116.352C157.399 114.924 156.792 113.382 155.877 111.637C155.695 111.289 155.232 111.21 154.946 111.478C153.725 112.617 149.904 114.212 146.614 114.634L136.681 111.425L136.675 111.42L136.647 111.4ZM155.088 112.87L155.149 112.828L155.217 112.967C156.856 116.354 157.056 118.744 155.092 119.697C153.872 120.288 152.274 119.946 150.598 118.823C149.37 117.999 148.224 116.821 147.501 115.702L147.742 115.659C150.546 115.14 153.496 113.955 155.088 112.87Z" fill="black"/>
<path d="M151.104 113.673C151.367 113.501 151.715 113.564 151.902 113.811L151.927 113.845L153.947 116.935C154.126 117.21 154.049 117.578 153.775 117.758C153.512 117.929 153.164 117.866 152.977 117.62L152.952 117.585L150.932 114.496C150.752 114.221 150.83 113.853 151.104 113.673Z" fill="black"/>
<path d="M114.198 215.673C114.12 214.34 115.694 212.295 116.372 209.954C116.372 209.954 105.202 210.543 101.755 209.597C98.3067 208.651 95.7138 206.27 94.8619 206.27C93.7969 206.27 92.7315 206.863 92.2474 207.102C91.7634 207.34 83.4094 213.516 83.2158 215.301C83.0221 217.087 86.7333 222.907 90.7025 222.907C92.754 222.907 92.8175 227.779 96.0503 227.779C98.0705 227.779 96.6445 227.611 96.6445 226.507C96.6445 225.403 98.5812 227.899 99.2589 227.185C99.9366 226.471 107.324 225.554 108.389 226.507C109.454 227.459 109.744 225.078 110.325 223.293C110.906 221.507 114.294 221.983 113.617 219.602C112.939 217.221 114.294 217.34 114.198 215.673Z" fill="#E5DEDC" fill-opacity="0.95"/>
<path d="M106.237 155.18C108.791 150.895 114.335 149.492 118.619 152.046C122.861 154.574 124.279 160.033 121.829 164.299L121.6 164.689C119.361 168.553 117.316 174.454 115.43 182.406L115.287 183.014C113.801 189.377 112.556 196.211 110.77 207.271L109.433 215.616C107.026 230.56 105.566 238.244 103.483 245.768L103.417 246.005C101.959 251.238 100.342 255.585 98.4248 259.17C95.9757 263.749 92.9793 267.211 89.0938 269.335C84.7172 271.728 79.2294 270.12 76.8364 265.743C74.4674 261.411 76.0197 255.989 80.2976 253.559L80.4281 253.486C80.4386 253.48 80.478 253.453 80.5462 253.396C80.6717 253.291 80.8219 253.142 80.9928 252.944C81.4533 252.412 81.9637 251.647 82.4963 250.651L82.6355 250.387C83.7717 248.192 84.8825 245.186 85.9514 241.389L86.0168 241.156C87.8759 234.485 89.2533 227.282 91.5375 213.129L92.9417 204.368C94.8486 192.557 96.1763 185.316 97.8542 178.239L98.0073 177.598C100.286 168.142 102.884 160.805 106.237 155.18Z" fill="#EBBAAA"/>
<path d="M124.968 212.891L116.609 208.766C114.599 208.767 109.34 210.71 104.304 210.024C99.2686 209.337 96.62 207.116 95.0997 206.032C94.6517 205.863 93.0794 206.032 89.0389 209.36C85.7 212.109 82.8481 214.519 83.2159 215.42C83.5837 216.322 84.7608 219.461 89.0389 220.768C91.4589 221.508 93.0794 220.163 92.7229 219.223C92.3664 218.283 93.3828 215.904 95.436 219.223C97.4892 222.542 100.624 222.551 105.557 222.551C108.528 222.551 111.881 226.066 114.233 226.829C114.873 225.97 117.879 215.443 118.847 214.386C119.814 213.329 123.331 212.949 124.968 212.891Z" fill="#EBE5E3" fill-opacity="0.9"/>
<path d="M88.8229 181.997C91.5773 173.448 106.984 153.149 108.885 148.515L115.655 179.147C116.05 181.443 118.029 188.029 122.778 196.009C126.411 202.114 119.74 208.815 111.024 211.142C108.053 210.31 104.488 211.855 101.755 211.142C99.0212 210.429 100.36 209.726 97.714 208.766C96.2346 208.229 95.3266 209.003 93.7923 208.053C84.5256 202.31 85.7595 191.505 88.8229 181.997Z" fill="#F0E8E6" fill-opacity="0.9"/>
<path d="M176.266 155.288C187.912 180.244 195.161 189.514 186.843 208.171" stroke="#EBBAAA" stroke-width="18.0634" stroke-linecap="round"/>
<path d="M83.1002 291.388L85.8844 286.827C86.2456 286.235 87.0342 286.078 87.5956 286.484L91.1488 289.056C91.5863 289.375 91.7551 289.945 91.5599 290.449L89.193 296.555C88.8792 297.363 87.8319 297.574 87.2294 296.949L83.2589 292.83C82.8837 292.443 82.8184 291.849 83.1002 291.388Z" fill="#F1E5E2" fill-opacity="0.8"/>
<path d="M107.167 303.792L107.916 299.015C108.033 298.273 108.845 297.869 109.571 298.192L112.973 299.706C113.423 299.906 113.719 300.341 113.723 300.811L113.785 306.875C113.794 307.802 112.735 308.315 111.925 307.778L107.712 304.976C107.31 304.707 107.096 304.244 107.167 303.792Z" fill="#F1E5E2" fill-opacity="0.8"/>
<path d="M206.753 296.343L207.503 291.566C207.619 290.824 208.431 290.418 209.157 290.741L212.56 292.255C213.01 292.457 213.305 292.892 213.309 293.36L213.371 299.423C213.38 300.35 212.321 300.866 211.512 300.327L207.299 297.524C206.896 297.258 206.683 296.795 206.753 296.343Z" fill="#F1E5E2" fill-opacity="0.8"/>
<path d="M192.472 303.271L190.991 298.629C190.762 297.912 189.911 297.615 189.248 298.019L186.09 299.946C185.671 300.201 185.442 300.678 185.511 301.151L186.387 307.169C186.52 308.087 187.63 308.465 188.346 307.837L192.109 304.531C192.472 304.213 192.615 303.716 192.472 303.271Z" fill="#F1E5E2" fill-opacity="0.8"/>
<path d="M86.7812 299.459L89.3957 289.137L95.2188 291.796C95.0207 295.449 94.3393 302.461 93.1985 301.268C92.0577 300.077 88.445 299.566 86.7812 299.459Z" fill="#F1E5E2" fill-opacity="0.8"/>
<path d="M101.161 306.696L103.775 296.374L109.598 299.034C109.4 302.687 108.635 308.512 107.934 308.826C107.234 309.14 105.709 307.728 104.607 307.443C103.242 307.088 102.081 306.756 101.161 306.696Z" fill="#F1E5E2" fill-opacity="0.8"/>
<path d="M91.2966 303.184C91.0114 301.993 93.4753 296.443 94.7429 293.819L100.923 294.67C100.923 295.309 100.804 297.394 100.329 300.631C99.7345 304.674 97.0012 306.485 94.7429 304.781C92.4845 303.079 91.6531 304.674 91.2966 303.184Z" fill="#F1E5E2" fill-opacity="0.8"/>
<path d="M138.081 314.499C137.409 313.439 137.892 307.483 138.219 304.638L144.398 303.785C144.613 304.393 145.201 306.413 145.835 309.627C146.628 313.643 144.631 316.106 141.904 315.091C139.178 314.076 138.922 315.823 138.081 314.499Z" fill="#F1E5E2" fill-opacity="0.8"/>
<path d="M175.397 307.687C174.724 306.627 175.208 300.671 175.534 297.826L181.713 296.973C181.928 297.581 182.516 299.602 183.151 302.815C183.944 306.832 181.946 309.294 179.22 308.279C176.493 307.264 176.238 309.011 175.397 307.687Z" fill="#F1E5E2" fill-opacity="0.8"/>
<path d="M144.974 312.795C144.301 311.735 144.785 305.781 145.111 302.936L151.291 302.081C151.505 302.689 152.093 304.712 152.728 307.925C153.521 311.942 151.523 314.404 148.797 313.389C146.071 312.374 145.815 314.121 144.974 312.795Z" fill="#F1E5E2" fill-opacity="0.8"/>
<path d="M97.7144 303.29L99.4969 295.842L104.845 297.65L103.656 306.589L97.7144 303.29Z" fill="#F1E5E2" fill-opacity="0.8"/>
<path d="M212.393 297.65L205.853 290.061L211.141 288.117L217.081 295.381L212.393 297.65Z" fill="#F1E5E2" fill-opacity="0.8"/>
<path d="M127.401 313.824L127.482 303.238L133.807 304.719C134.488 308.327 135.501 315.305 134.102 314.359C132.702 313.413 129.051 313.608 127.401 313.824Z" fill="#F1E5E2" fill-opacity="0.8"/>
<path d="M133.557 311.863L132.044 304.367L137.758 304.22L140.453 312.893L133.557 311.863Z" fill="#F1E5E2" fill-opacity="0.8"/>
<path d="M165.824 308.985L166.628 301.398L172.174 302.639L172.154 311.645L165.824 308.985Z" fill="#F1E5E2" fill-opacity="0.8"/>
<path d="M204.908 302.454L202.022 295.288L207.629 294.29L211.899 302.442L204.908 302.454Z" fill="#F1E5E2" fill-opacity="0.8"/>
<path d="M171.104 308.843L169.076 301.444L174.769 300.98L178.058 309.489L171.104 308.843Z" fill="#F1E5E2" fill-opacity="0.8"/>
<path d="M151.383 309.736L149.869 302.237L155.583 302.09L158.279 310.765L151.383 309.736Z" fill="#F1E5E2" fill-opacity="0.8"/>
<path d="M189.886 305.905L188.373 298.406L194.087 298.259L196.782 306.934L189.886 305.905Z" fill="#F1E5E2" fill-opacity="0.8"/>
<path d="M180.379 305.052L178.866 297.555L184.58 297.408L187.275 306.081L180.379 305.052Z" fill="#F1E5E2" fill-opacity="0.8"/>
<path d="M121.905 309.23L121.997 304.405C122.011 303.652 122.78 303.155 123.552 303.4L127.122 304.524C127.59 304.674 127.936 305.061 128.003 305.517L128.891 311.528C129.027 312.446 128.025 313.08 127.144 312.631L122.594 310.321C122.166 310.102 121.897 309.677 121.905 309.23Z" fill="#F1E5E2" fill-opacity="0.8"/>
<path d="M154.705 305.399L154.796 300.574C154.81 299.82 155.579 299.324 156.352 299.566L159.921 300.693C160.389 300.84 160.735 301.23 160.802 301.686L161.691 307.697C161.827 308.614 160.824 309.249 159.943 308.8L155.393 306.487C154.965 306.271 154.696 305.846 154.705 305.399Z" fill="#F1E5E2" fill-opacity="0.8"/>
<path d="M116.078 310.197L117.263 299.664L123.406 301.667C123.708 305.316 123.744 311.179 123.091 311.566C122.439 311.956 120.733 310.72 119.6 310.559C118.197 310.357 116.999 310.155 116.078 310.197Z" fill="#F1E5E2" fill-opacity="0.8"/>
<path d="M160.931 308.436L158.696 298.042L165.222 298.385C166.679 301.803 168.59 307.409 168.089 307.949C167.588 308.488 165.559 307.744 164.421 307.88C163.013 308.046 161.801 308.16 160.931 308.436Z" fill="#F1E5E2" fill-opacity="0.8"/>
<path d="M195.156 308.225L192.921 297.829L199.447 298.171C200.904 301.589 202.815 307.198 202.315 307.737C201.814 308.277 199.784 307.531 198.647 307.666C197.238 307.835 196.026 307.946 195.156 308.225Z" fill="#F1E5E2" fill-opacity="0.8"/>
<path d="M199.91 306.095L197.675 295.701L204.201 296.044C205.658 299.459 207.569 305.068 207.068 305.608C206.567 306.147 204.538 305.403 203.4 305.539C201.992 305.705 200.779 305.819 199.91 306.095Z" fill="#F1E5E2" fill-opacity="0.8"/>
<path d="M112.192 307.193L112.944 299.604L118.498 300.814L118.54 309.817L112.192 307.193Z" fill="#F1E5E2" fill-opacity="0.8"/>
<path d="M84.9734 294.511L87.5922 290.066C87.9519 289.458 88.7624 289.294 89.3291 289.719L92.6352 292.2C93.0571 292.517 93.2199 293.073 93.0351 293.567L90.8119 299.509C90.5023 300.336 89.4306 300.548 88.8289 299.901L85.1273 295.922C84.769 295.537 84.7064 294.965 84.9734 294.511Z" fill="#F1E5E2" fill-opacity="0.4"/>
<path d="M107.888 306.741L108.59 302.1C108.706 301.339 109.536 300.916 110.262 301.251L113.409 302.703C113.843 302.903 114.125 303.331 114.129 303.792L114.186 309.672C114.196 310.618 113.117 311.148 112.314 310.594L108.408 307.904C108.023 307.637 107.821 307.186 107.888 306.741Z" fill="#F1E5E2" fill-opacity="0.4"/>
<path d="M202.684 299.392L203.387 294.753C203.502 293.99 204.332 293.569 205.058 293.905L208.206 295.357C208.639 295.556 208.921 295.982 208.926 296.445L208.983 302.325C208.992 303.269 207.914 303.801 207.111 303.248L203.204 300.555C202.819 300.291 202.617 299.837 202.684 299.392Z" fill="#F1E5E2" fill-opacity="0.4"/>
<path d="M189.093 306.23L187.704 301.719C187.477 300.982 186.604 300.673 185.938 301.094L183.019 302.941C182.616 303.195 182.397 303.659 182.463 304.125L183.283 309.962C183.414 310.896 184.548 311.283 185.259 310.637L188.747 307.464C189.093 307.148 189.228 306.668 189.093 306.23Z" fill="#F1E5E2" fill-opacity="0.4"/>
<path d="M88.483 302.463L90.9717 292.281L96.5148 294.905C96.3262 298.508 95.6777 305.422 94.5917 304.248C93.5057 303.072 90.0668 302.568 88.483 302.463Z" fill="#F1E5E2" fill-opacity="0.4"/>
<path d="M102.171 309.601L104.659 299.419L110.203 302.043C110.014 305.648 109.285 311.39 108.619 311.699C107.952 312.008 106.5 310.618 105.451 310.335C104.152 309.988 103.047 309.66 102.171 309.601Z" fill="#F1E5E2" fill-opacity="0.4"/>
<path d="M92.781 306.138C92.5095 304.961 94.8549 299.49 96.0615 296.899L101.944 297.741C101.944 298.371 101.831 300.427 101.379 303.619C100.813 307.607 98.2113 309.392 96.0615 307.711C93.9118 306.031 93.1203 307.607 92.781 306.138Z" fill="#F1E5E2" fill-opacity="0.4"/>
<path d="M137.316 317.294C136.676 316.251 137.136 310.378 137.447 307.571L143.329 306.727C143.533 307.329 144.093 309.323 144.697 312.491C145.452 316.453 143.55 318.882 140.955 317.881C138.36 316.878 138.117 318.602 137.316 317.294Z" fill="#F1E5E2" fill-opacity="0.4"/>
<path d="M172.837 310.578C172.196 309.532 172.657 303.659 172.967 300.854L178.85 300.01C179.054 300.612 179.614 302.604 180.218 305.774C180.973 309.734 179.071 312.163 176.476 311.162C173.881 310.162 173.637 311.885 172.837 310.578Z" fill="#F1E5E2" fill-opacity="0.4"/>
<path d="M143.876 315.616C143.236 314.571 143.697 308.698 144.007 305.891L149.889 305.049C150.094 305.648 150.654 307.642 151.258 310.811C152.013 314.773 150.111 317.202 147.516 316.201C144.921 315.2 144.677 316.924 143.876 315.616Z" fill="#F1E5E2" fill-opacity="0.4"/>
<path d="M98.8896 306.242L100.587 298.893L105.677 300.678L104.546 309.496L98.8896 306.242Z" fill="#F1E5E2" fill-opacity="0.4"/>
<path d="M208.054 300.678L201.828 293.194L206.863 291.278L212.517 298.442L208.054 300.678Z" fill="#F1E5E2" fill-opacity="0.4"/>
<path d="M127.149 316.631L127.226 306.19L133.247 307.649C133.896 311.207 134.86 318.09 133.528 317.156C132.195 316.225 128.72 316.417 127.149 316.631Z" fill="#F1E5E2" fill-opacity="0.4"/>
<path d="M133.008 314.697L131.568 307.302L137.007 307.157L139.573 315.711L133.008 314.697Z" fill="#F1E5E2" fill-opacity="0.4"/>
<path d="M163.724 311.856L164.489 304.377L169.769 305.601L169.749 314.48L163.724 311.856Z" fill="#F1E5E2" fill-opacity="0.4"/>
<path d="M200.929 305.418L198.182 298.349L203.519 297.365L207.584 305.403L200.929 305.418Z" fill="#F1E5E2" fill-opacity="0.4"/>
<path d="M168.75 311.719L166.82 304.419L172.239 303.963L175.37 312.355L168.75 311.719Z" fill="#F1E5E2" fill-opacity="0.4"/>
<path d="M149.977 312.598L148.537 305.204L153.976 305.059L156.542 313.613L149.977 312.598Z" fill="#F1E5E2" fill-opacity="0.4"/>
<path d="M186.629 308.819L185.189 301.425L190.628 301.28L193.194 309.834L186.629 308.819Z" fill="#F1E5E2" fill-opacity="0.4"/>
<path d="M177.579 307.98L176.139 300.586L181.578 300.441L184.144 308.995L177.579 307.98Z" fill="#F1E5E2" fill-opacity="0.4"/>
<path d="M121.917 312.096L122.003 307.412C122.017 306.639 122.798 306.124 123.568 306.376L126.873 307.455C127.326 307.604 127.657 307.989 127.722 308.441L128.553 314.269C128.687 315.205 127.672 315.859 126.799 315.4L122.577 313.175C122.165 312.959 121.909 312.541 121.917 312.096Z" fill="#F1E5E2" fill-opacity="0.4"/>
<path d="M153.139 308.32L153.225 303.633C153.239 302.86 154.02 302.345 154.79 302.596L158.095 303.678C158.548 303.825 158.879 304.21 158.944 304.662L159.775 310.49C159.909 311.426 158.894 312.08 158.021 311.621L153.799 309.396C153.387 309.18 153.131 308.762 153.139 308.32Z" fill="#F1E5E2" fill-opacity="0.4"/>
<path d="M116.37 313.052L117.498 302.665L123.346 304.64C123.633 308.239 123.667 314.021 123.046 314.404C122.426 314.787 120.801 313.57 119.723 313.408C118.387 313.211 117.248 313.011 116.37 313.052Z" fill="#F1E5E2" fill-opacity="0.4"/>
<path d="M159.067 311.317L156.939 301.066L163.151 301.403C164.539 304.773 166.358 310.304 165.881 310.837C165.404 311.369 163.472 310.635 162.39 310.768C161.049 310.932 159.895 311.043 159.067 311.317Z" fill="#F1E5E2" fill-opacity="0.4"/>
<path d="M191.646 311.108L189.518 300.854L195.73 301.192C197.118 304.564 198.937 310.095 198.46 310.627C197.983 311.158 196.051 310.423 194.969 310.556C193.628 310.723 192.474 310.834 191.646 311.108Z" fill="#F1E5E2" fill-opacity="0.4"/>
<path d="M196.171 309.009L194.042 298.756L200.255 299.093C201.642 302.463 203.461 307.996 202.984 308.526C202.508 309.059 200.575 308.324 199.493 308.458C198.152 308.624 196.998 308.733 196.171 309.009Z" fill="#F1E5E2" fill-opacity="0.4"/>
<path d="M112.671 310.09L113.387 302.606L118.674 303.799L118.713 312.679L112.671 310.09Z" fill="#F1E5E2" fill-opacity="0.4"/>
<path d="M94.2682 248.586C97.0697 240.849 106.984 217.402 113.163 198.563L131.821 195.583C132.217 219.495 132.772 278.258 131.821 288.391C130.632 301.056 123.621 301.056 110.668 300.205C97.7143 299.352 84.8801 292.647 85.4743 282.218C86.0685 271.786 91.4162 256.462 94.2682 248.586Z" fill="#E6DFDE"/>
<path d="M151.667 298.927C149.385 297.054 146.2 230.315 144.893 197.18C149.607 196.08 160.223 194.881 164.977 198.883C170.919 203.885 183.872 303.397 177.692 303.823C171.513 304.248 154.519 301.268 151.667 298.927Z" fill="#E6DCDA"/>
<path d="M211.323 286.049C210.848 278.387 191.477 222.83 179.594 198.564L163.551 192.604L173.414 298.927C175.316 300.027 180.877 302.29 187.912 302.547C196.706 302.865 211.918 295.628 211.323 286.049Z" fill="#EBE4E2"/>
<path d="M120.531 302.547C114.114 297.225 123.978 233.083 126.236 199.735C128.493 196.754 145.488 192.816 147.389 199.735C149.29 206.652 158.441 302.014 155.113 303.823C151.786 305.632 126.948 307.868 120.531 302.547Z" fill="#F0E8E6"/>
<mask id="mask2_0_4905" style="mask-type:luminance" maskUnits="userSpaceOnUse" x="85" y="192" width="127" height="114">
<path fill-rule="evenodd" clip-rule="evenodd" d="M211.324 286.049C210.848 278.387 191.478 222.83 179.594 198.564L163.551 192.604L164.072 198.225C159.124 195.11 149.851 196.087 145.267 197.095C142.097 195.253 136.266 195.758 131.844 196.996C131.836 196.513 131.829 196.042 131.821 195.583L113.163 198.564C108.922 211.493 102.921 226.594 98.6688 237.296L98.6687 237.297H98.6687C96.7253 242.187 95.147 246.159 94.2683 248.586C91.4163 256.462 86.0686 271.786 85.4745 282.218C84.8803 292.647 97.7144 299.352 110.668 300.205C113.955 300.422 116.859 300.581 119.383 300.495C119.686 301.465 120.066 302.159 120.531 302.547C126.948 307.868 151.786 305.632 155.113 303.823C155.446 303.642 155.655 302.523 155.757 300.65C161.981 302.492 172.98 304.148 177.692 303.823C178.287 303.782 178.705 302.825 178.968 301.12C181.437 301.826 184.502 302.423 187.912 302.547C196.706 302.865 211.918 295.628 211.324 286.049Z" fill="white"/>
</mask>
<g mask="url(#mask2_0_4905)">
<path d="M125.908 281.669L123.073 275.563L118.409 273.35L102.395 276.276L103.191 285.655L125.908 281.669Z" fill="#FCF2EA"/>
<path d="M113.755 278.612L102.023 276.321L104.293 269.859L118.253 272.827L123.66 275.185L123.178 275.753L118.459 273.923L113.755 278.612Z" fill="#7F5959"/>
<path d="M118.094 281.919L116.306 278.672L118.757 277.588L120.116 281.498L118.094 281.919Z" fill="#544646" stroke="#CCB57B" stroke-width="0.475352" stroke-linejoin="round"/>
<path d="M112.1 279.939L109.87 279.499L111.286 282.791L113.307 282.61L112.1 279.939Z" fill="#544646" stroke="#CCB57B" stroke-width="0.475352" stroke-linejoin="round"/>
<path d="M107.85 279.68L105.62 279.242L107.036 282.532L109.057 282.351L107.85 279.68Z" fill="#544646" stroke="#CCB57B" stroke-width="0.475352" stroke-linejoin="round"/>
<path d="M121.718 280.317L120.087 277.358L122.432 276.321L123.74 279.898L121.718 280.317Z" fill="#544646" stroke="#CCB57B" stroke-width="0.475352" stroke-linejoin="round"/>
<path d="M115.659 284.027L116.134 277.429L113.044 273.597L97.2389 269.873L93.3173 278.598L115.659 284.027Z" fill="#FCF2EA"/>
<path d="M106.271 276.471L96.8823 269.766L102.111 264.87L113.163 273.065L116.847 277.322L116.134 277.64L112.807 274.13L106.271 276.471Z" fill="#957373"/>
<path d="M108.528 281.153V277.536H111.262L110.549 281.579L108.528 281.153Z" fill="#544646" stroke="#CCB57B" stroke-width="0.475352" stroke-linejoin="round"/>
<path d="M104.132 277.003L102.349 275.725L101.992 279.237L103.894 279.877L104.132 277.003Z" fill="#544646" stroke="#CCB57B" stroke-width="0.475352" stroke-linejoin="round"/>
<path d="M100.447 275.088L98.6649 273.809L98.3083 277.322L100.21 277.961L100.447 275.088Z" fill="#544646" stroke="#CCB57B" stroke-width="0.475352" stroke-linejoin="round"/>
<path d="M112.569 281.153V277.854H115.183L114.589 281.579L112.569 281.153Z" fill="#544646" stroke="#CCB57B" stroke-width="0.475352" stroke-linejoin="round"/>
<path d="M154.402 288.526L154.366 281.914L150.987 278.282L134.932 275.546L131.694 284.495L154.402 288.526Z" fill="#FCF2EA"/>
<path d="M144.452 281.569L134.568 275.461L139.406 270.253L151.064 277.743L155.069 281.762L154.382 282.125L150.791 278.826L144.452 281.569Z" fill="#7F5959"/>
<path d="M148.22 273.597L147.864 276.789L151.31 278.598L151.904 274.448L148.22 273.597Z" fill="#7F5959"/>
<path d="M147.066 286.099L146.786 282.491L149.513 282.32L149.114 286.399L147.066 286.099Z" fill="#544646" stroke="#CCB57B" stroke-width="0.475352" stroke-linejoin="round"/>
<path d="M142.359 282.232L140.482 281.068L140.398 284.595L142.344 285.113L142.359 282.232Z" fill="#544646" stroke="#CCB57B" stroke-width="0.475352" stroke-linejoin="round"/>
<path d="M138.536 280.549L136.659 279.385L136.575 282.912L138.521 283.43L138.536 280.549Z" fill="#544646" stroke="#CCB57B" stroke-width="0.475352" stroke-linejoin="round"/>
<path d="M151.097 285.85L150.842 282.558L153.45 282.396L153.146 286.149L151.097 285.85Z" fill="#544646" stroke="#CCB57B" stroke-width="0.475352" stroke-linejoin="round"/>
<path d="M156.356 291.858L156.06 286.513L158.066 283.411L168.294 280.412L170.814 287.487L156.356 291.858Z" fill="#FCF2EA"/>
<path d="M162.441 285.747L168.525 280.326L165.153 276.354L157.99 282.981L155.6 286.425L156.06 286.684L158.219 283.844L162.441 285.747Z" fill="#7F5959"/>
<path d="M159.626 279.49L160.01 282.052L157.873 283.684L157.29 280.357L159.626 279.49Z" fill="#7F5959"/>
<path d="M160.972 289.538L160.979 286.608L159.211 286.603L159.665 289.881L160.972 289.538Z" fill="#544646" stroke="#CCB57B" stroke-width="0.475352" stroke-linejoin="round"/>
<path d="M163.824 286.18L164.979 285.148L165.203 287.993L163.972 288.509L163.824 286.18Z" fill="#544646" stroke="#CCB57B" stroke-width="0.475352" stroke-linejoin="round"/>
<path d="M166.21 284.633L167.365 283.601L167.589 286.446L166.358 286.962L166.21 284.633Z" fill="#544646" stroke="#CCB57B" stroke-width="0.475352" stroke-linejoin="round"/>
<path d="M158.359 289.534L158.365 286.862L156.675 286.857L157.052 289.876L158.359 289.534Z" fill="#544646" stroke="#CCB57B" stroke-width="0.475352" stroke-linejoin="round"/>
<path d="M144.418 287.221L144.893 280.621L141.803 276.789L125.998 273.065L122.076 281.792L144.418 287.221Z" fill="#FCF2EA"/>
<path d="M135.029 279.663L125.641 272.958L130.87 268.062L141.922 276.257L145.606 280.514L144.893 280.835L141.566 277.322L135.029 279.663Z" fill="#957373"/>
<path d="M137.287 284.348V280.728H140.021L139.308 284.773L137.287 284.348Z" fill="#544646" stroke="#CCB57B" stroke-width="0.475352" stroke-linejoin="round"/>
<path d="M132.89 280.195L131.108 278.919L130.751 282.429L132.653 283.069L132.89 280.195Z" fill="#544646" stroke="#CCB57B" stroke-width="0.475352" stroke-linejoin="round"/>
<path d="M129.206 278.28L127.424 277.003L127.067 280.514L128.969 281.153L129.206 278.28Z" fill="#544646" stroke="#CCB57B" stroke-width="0.475352" stroke-linejoin="round"/>
<path d="M141.328 284.345V281.046H143.942L143.348 284.773L141.328 284.345Z" fill="#544646" stroke="#CCB57B" stroke-width="0.475352" stroke-linejoin="round"/>
<path d="M204.497 287.264L201.923 281.065L197.356 278.698L181.23 281.075L181.627 290.475L204.497 287.264Z" fill="#FCF2EA"/>
<path d="M192.482 283.796L180.856 281.108L183.398 274.726L197.222 278.168L202.526 280.709L202.02 281.26L197.382 279.271L192.482 283.796Z" fill="#7F5959"/>
<path d="M192.958 275.15L193.849 278.258L197.78 278.895L196.744 274.814L192.958 275.15Z" fill="#7F5959"/>
<path d="M196.677 287.247L195.028 283.943L197.523 282.943L198.715 286.895L196.677 287.247Z" fill="#544646" stroke="#CCB57B" stroke-width="0.475352" stroke-linejoin="round"/>
<path d="M190.771 285.065L188.562 284.55L189.837 287.887L191.864 287.775L190.771 285.065Z" fill="#544646" stroke="#CCB57B" stroke-width="0.475352" stroke-linejoin="round"/>
<path d="M186.536 284.664L184.326 284.148L185.602 287.485L187.629 287.373L186.536 284.664Z" fill="#544646" stroke="#CCB57B" stroke-width="0.475352" stroke-linejoin="round"/>
<path d="M200.366 285.769L198.862 282.757L201.249 281.802L202.404 285.419L200.366 285.769Z" fill="#544646" stroke="#CCB57B" stroke-width="0.475352" stroke-linejoin="round"/>
<path d="M194.62 289.113L192.532 282.772L188.159 280.126L171.887 281.498L171.557 290.9L194.62 289.113Z" fill="#FCF2EA"/>
<path d="M182.903 284.911L171.512 281.507L174.541 275.299L188.067 279.589L193.161 282.451L192.614 282.971L188.141 280.699L182.903 284.911Z" fill="#957373"/>
<path d="M186.822 288.611L185.432 285.215L187.998 284.371L188.882 288.39L186.822 288.611Z" fill="#544646" stroke="#CCB57B" stroke-width="0.475352" stroke-linejoin="round"/>
<path d="M181.098 286.068L178.934 285.419L179.948 288.828L181.979 288.84L181.098 286.068Z" fill="#544646" stroke="#CCB57B" stroke-width="0.475352" stroke-linejoin="round"/>
<path d="M176.904 285.405L174.739 284.756L175.754 288.162L177.784 288.177L176.904 285.405Z" fill="#544646" stroke="#CCB57B" stroke-width="0.475352" stroke-linejoin="round"/>
<path d="M190.615 287.368L189.348 284.269L191.803 283.463L192.675 287.145L190.615 287.368Z" fill="#544646" stroke="#CCB57B" stroke-width="0.475352" stroke-linejoin="round"/>
<path d="M128.08 245.342C120.26 244.329 120.023 257.389 119.786 261.104L119.784 261.133C119.185 269.452 118.61 277.429 126.066 277.429C133.531 277.429 136.374 273.036 138.388 264.706C140.402 256.375 137.022 246.501 128.08 245.342Z" fill="#867869"/>
<path d="M129.919 253.056C130.513 251.672 128.968 248.48 126.235 248.905C123.264 248.905 122.789 249.757 121.719 251.353C120.864 252.63 122.076 255.362 122.789 256.568C122.195 256.284 120.863 256.526 120.293 259.761C119.58 263.805 118.51 275.406 119.58 275.832C120.649 276.257 129.919 275.62 128.612 273.809C127.305 272 125.165 268.276 126.235 266.467C127.305 264.656 134.316 264.87 137.049 262.315C139.782 259.761 137.405 254.972 134.316 255.717C131.844 256.313 129.483 259.371 128.612 260.825C127.503 259.938 125.475 258.058 126.235 257.632C127.186 257.1 129.325 254.439 129.919 253.056Z" fill="#FFF9F9"/>
<path d="M98.3197 252.03C92.3752 250.259 90.1451 260.528 89.3782 263.427L89.3721 263.451C87.6011 269.937 85.9037 276.155 91.7225 277.082C97.548 278.009 100.455 274.9 103.331 268.582C106.208 262.263 105.116 254.056 98.3197 252.03Z" fill="#867869"/>
<path d="M98.422 258.575C99.0927 257.578 98.3921 254.918 96.2194 254.912C93.9287 254.547 93.4318 255.147 92.3619 256.251C91.506 257.133 92.0208 259.395 92.3852 260.416C91.9706 260.124 90.9071 260.147 89.9702 262.579C88.799 265.621 86.1921 274.463 86.9512 274.924C87.7104 275.385 94.9553 276.029 94.2254 274.467C93.4956 272.908 92.4184 269.764 93.5213 268.497C94.6242 267.228 99.9966 268.254 102.496 266.612C104.996 264.972 103.9 260.976 101.403 261.173C99.4055 261.331 97.1157 263.406 96.2204 264.426C95.5015 263.603 94.2268 261.899 94.8785 261.664C95.6933 261.368 97.7513 259.572 98.422 258.575Z" fill="#FFF9F9"/>
<path d="M165.339 260.658C171.157 259.832 171.333 270.47 171.509 273.498L171.511 273.521C171.956 280.297 172.384 286.793 166.837 286.793C161.284 286.793 159.169 283.219 157.671 276.43C156.173 269.645 158.687 261.602 165.339 260.658Z" fill="#867869"/>
<path d="M163.94 267.342C163.497 266.244 164.649 263.71 166.687 264.05C168.903 264.05 169.257 264.725 170.055 265.992C170.693 267.004 169.789 269.172 169.257 270.13C169.7 269.904 170.693 270.096 171.119 272.663C171.651 275.872 172.448 285.079 171.651 285.417C170.853 285.754 163.94 285.248 164.915 283.813C165.89 282.377 167.485 279.42 166.687 277.985C165.889 276.549 160.661 276.718 158.622 274.691C156.584 272.663 158.356 268.863 160.661 269.455C162.504 269.928 164.265 272.354 164.915 273.507C165.742 272.804 167.254 271.313 166.687 270.973C165.978 270.553 164.383 268.44 163.94 267.342Z" fill="#FFF9F9"/>
<path d="M195.656 253.516C201.713 251.338 204.831 262.726 205.854 265.94L205.863 265.963C208.209 273.146 210.459 280.029 204.467 281.26C198.469 282.494 195.2 279.121 191.714 272.162C188.227 265.205 188.731 256.006 195.656 253.516Z" fill="#867869"/>
<path d="M195.956 260.892C195.173 259.804 195.717 256.812 198.012 256.724C200.406 256.232 200.975 256.883 202.188 258.075C203.157 259.028 202.781 261.571 202.471 262.722C202.888 262.382 204.013 262.367 205.183 265.046C206.646 268.395 210.055 278.163 209.287 278.705C208.519 279.247 200.911 280.233 201.566 278.465C202.222 276.699 203.128 273.151 201.868 271.777C200.609 270.403 195.008 271.746 192.245 270.009C189.482 268.274 190.345 263.774 192.998 263.9C195.12 264.003 197.694 266.232 198.715 267.335C199.414 266.391 200.635 264.445 199.928 264.205C199.046 263.908 196.738 261.98 195.956 260.892Z" fill="#FFF9F9"/>
<path d="M102.468 278.173C95.5222 275.492 90.3463 269.376 88.4449 266.039L81.0769 279.663L84.5232 300.098L133.247 309.57L213.819 307.122L228.317 284.027C221.108 276.364 206.594 262.55 206.213 268.594C205.738 276.152 199.083 287.858 187.912 287.858C178.976 287.858 173.573 285.305 171.988 284.027L171.75 280.835C171.116 281.543 169.529 283.632 167.234 285.305C162.124 289.03 158.718 289.598 155.707 289.669L155.232 280.835C151.984 280.835 143.752 280.302 136.812 278.173C129.872 276.045 122.353 270.9 119.462 268.594C119.343 269.942 119.081 272.872 118.986 273.809C118.891 274.745 118.788 278.883 118.749 280.835C116.649 280.656 109.36 280.835 102.468 278.173Z" fill="#E6DCBA"/>
<path d="M102.943 293.605C94.9571 292.243 88.0487 286.297 85.5927 283.494L82.9783 292.861L90.2274 304.144L204.431 311.592L216.077 296.692C215.285 290.164 213.32 277.089 211.799 281.26C209.897 286.475 204.787 293.605 193.735 297.969C187.902 300.272 177.058 296.514 173.058 295.095L173.414 298.927C173.652 299.141 174.077 299.445 174.484 299.566C174.84 299.673 175.632 299.92 176.028 299.991C174.246 299.813 169.374 299.884 165.927 299.352C163.102 298.917 158.401 297.401 155.826 296.692V299.459C152.538 300.417 143.847 300.949 137.287 300.949C129.087 300.949 119.105 298.608 118.867 297.969C118.677 297.458 118.551 295.202 118.511 294.137C116.649 294.527 110.929 294.969 102.943 293.605Z" fill="#D6CEBA"/>
</g>
<path d="M145.131 274.13C130.938 255.892 130.831 216.16 131.821 199.415C144.18 198.386 165.243 200.137 174.009 199.415C184.348 198.564 190.752 224.589 199.916 248.16C209.183 271.998 216.363 287.537 210.135 292.436C205.262 296.267 192.584 299.64 186.831 298.822C172.981 296.849 156.718 289.018 145.131 274.13Z" fill="#E7DCDA" fill-opacity="0.42" stroke="white" stroke-opacity="0.8" stroke-width="0.237676"/>
<path d="M148.886 274.12C163.002 255.888 163.109 216.169 162.124 199.429C149.832 198.4 123.383 198.031 115.064 198.031C111.143 198.031 103.512 224.594 94.398 248.159C85.1809 271.988 81.6559 286.156 87.8506 291.052C92.6974 294.881 101.69 299.623 107.412 298.803C121.187 296.83 137.362 289.004 148.886 274.12Z" fill="#E7DCDA" fill-opacity="0.42" stroke="white" stroke-opacity="0.8" stroke-width="0.237676"/>
<path d="M171.394 219.342C171.489 218.011 169.849 213.004 169.017 210.667L186.962 213.281C189.418 212.41 194.591 210.667 195.637 210.667C196.944 210.667 198.132 211.142 198.727 211.38C199.321 211.618 204.074 219.342 204.312 221.125C204.55 222.907 198.727 230.156 193.854 230.156C191.336 230.156 187.08 231.939 186.13 232.771C185.179 233.603 179.594 231.582 180.188 230.988C180.782 230.394 182.921 230.156 182.089 229.443C181.257 228.73 179.831 229.206 178.524 230.156C177.217 231.107 176.86 228.73 176.147 226.948C175.434 225.165 171.275 225.641 172.107 223.264C172.939 220.887 171.275 221.006 171.394 219.342Z" fill="#E5DEDC" fill-opacity="0.95"/>
<path d="M109.39 147.977C113.195 144.589 127.149 142.487 133.651 141.86H156.128C164.333 142.409 180.841 144.576 182.886 147.977C188.118 156.682 178.049 182.067 177.574 185.949C177.098 189.83 178.627 190.016 179.475 192.841C180.452 196.096 180.62 200.276 179.475 199.258C177.336 197.357 160.255 201.754 149.409 201.754C145.388 201.754 137.03 203.316 130.751 202.586C124.177 201.821 117.358 199.604 115.778 200.09C112.688 201.041 112.671 198.637 112.958 197.502C114.148 192.797 116.24 193.197 116.526 187.268C116.882 179.857 104.633 152.212 109.39 147.977Z" fill="#EDE9E8"/>
<path d="M129.444 147.098C129.444 144.139 131.843 141.741 134.802 141.741H156.411C159.369 141.741 161.768 144.139 161.768 147.098C161.768 154.903 155.441 161.23 147.636 161.23H143.576C135.771 161.23 129.444 154.903 129.444 147.098Z" fill="#EBBAAA"/>
<path d="M145.285 260.779C138.684 260.79 135.633 257.364 134.932 255.649C134.296 254.764 133.008 252.251 132.951 249.283C132.88 245.572 137.691 245.221 144.612 245.487C151.534 245.754 155.435 250.251 155.705 251.924C155.976 253.596 153.537 260.764 145.285 260.779Z" fill="#A19875"/>
<path d="M138.141 236.212C139.965 231.782 139.046 226.973 138.359 225.123C138.351 222.242 139.252 215.993 142.916 214.048C147.497 211.616 155.269 216.492 156.191 224.813C156.928 231.469 153.18 243.721 151.214 249.015C150.187 247.68 146.357 245.411 139.252 247.02C130.37 249.03 136.105 256.999 134.502 255.607C133.434 254.68 131.972 252.89 131.583 249.972C131.082 246.219 135.862 241.75 138.141 236.212Z" fill="#7A6659"/>
<path d="M157.265 253.722C152.416 253.577 149.49 250.354 148.633 248.762C145.011 241.411 150.921 238.698 158.783 238.234C166.644 237.77 173.787 244.642 171.707 248.142C169.627 251.642 163.326 253.905 157.265 253.722Z" fill="#ACA27F"/>
<path d="M152.261 233.892C153.924 231.092 153.832 223.758 153.578 220.442C155.516 209.521 175.842 214.804 176.884 221.902C177.925 228.999 175.858 245.668 172.528 248.634C169.198 251.599 168.847 250.742 170.377 248.423C171.907 246.104 167.655 240.75 156.393 240.469C147.384 240.245 147.466 245.904 148.634 248.762C148.203 248.72 147.132 248.121 146.292 246.063C145.241 243.491 150.181 237.391 152.261 233.892Z" fill="#817066"/>
<path d="M134.442 207.456C131.793 202.588 137.516 189.377 140.708 183.38C142.472 181.633 147.375 178.273 152.88 178.812C159.761 179.486 169.856 196.112 169.647 202.675C169.438 209.239 160.969 220.343 152.327 219.907C143.686 219.472 137.753 213.542 134.442 207.456Z" fill="#E4D5B6"/>
<path d="M153.858 189.146C154.03 189.624 153.795 190.15 153.332 190.344L153.285 190.362C152.988 190.469 152.582 190.722 152.114 191.076L152.467 191.277C153.658 191.965 154.579 192.6 155.003 193.089C155.347 193.486 155.304 194.086 154.907 194.43C154.524 194.762 153.952 194.734 153.603 194.374L153.566 194.335C153.203 193.915 152.035 193.188 150.56 192.398C149.853 193.054 149.12 193.799 148.459 194.531C148.108 194.921 147.507 194.952 147.117 194.601C146.727 194.249 146.696 193.648 147.047 193.258C147.598 192.647 148.179 192.042 148.761 191.477C148.149 191.177 147.52 190.881 146.902 190.601C146.423 190.385 146.21 189.822 146.426 189.344C146.642 188.865 147.205 188.652 147.684 188.868C148.569 189.268 149.449 189.686 150.28 190.104C151.173 189.362 152.001 188.803 152.642 188.573C153.136 188.395 153.681 188.652 153.858 189.146Z" fill="#71655B"/>
<path d="M153.759 199.012C153.931 199.49 153.696 200.015 153.233 200.21L153.186 200.228C152.888 200.335 152.483 200.588 152.014 200.942L152.252 201.077C153.499 201.79 154.466 202.45 154.903 202.955C155.247 203.351 155.205 203.952 154.808 204.296C154.425 204.628 153.852 204.6 153.504 204.24L153.467 204.201C153.103 203.781 151.936 203.055 150.461 202.265C149.754 202.921 149.021 203.665 148.36 204.398C148.008 204.788 147.407 204.819 147.017 204.467C146.627 204.115 146.596 203.514 146.948 203.124C147.499 202.514 148.08 201.908 148.662 201.344C148.05 201.043 147.421 200.747 146.802 200.467C146.324 200.251 146.111 199.688 146.327 199.21C146.543 198.731 147.106 198.518 147.584 198.734C148.47 199.134 149.35 199.552 150.18 199.97C151.074 199.228 151.902 198.669 152.543 198.439C153.037 198.261 153.581 198.518 153.759 199.012Z" fill="#71655B"/>
<path d="M180.748 198.556C183.302 194.271 188.846 192.868 193.131 195.422C197.415 197.976 198.818 203.52 196.264 207.804C191.506 215.788 184.734 220.858 176.291 223.355C170.036 225.205 163.538 225.595 154.747 225.142L153.619 225.081C152.352 225.008 151.077 224.923 149.057 224.779L146.979 224.632C141.242 224.234 138.728 224.14 135.898 224.265C132.535 224.412 130.145 224.931 128.519 225.792L128.429 225.84C124.052 228.233 118.565 226.625 116.172 222.249C113.779 217.872 115.387 212.384 119.763 209.991C124.095 207.623 129.004 206.514 134.836 206.231L135.346 206.209C138.9 206.062 141.802 206.169 147.889 206.589L152.37 206.903C153.556 206.983 154.445 207.038 155.408 207.089C169.535 207.842 176.257 205.903 180.617 198.773L180.748 198.556Z" fill="#EBBAAA"/>
<path d="M205.274 184.641C202.517 176.085 188.506 159.685 182.802 147.802L178.417 181.789C178.021 184.087 176.04 190.678 171.287 198.664C169.042 202.435 167.828 206.032 173.533 206.507C175.597 208.477 178.643 210.191 181.851 210.191C185.06 210.191 185.013 213.123 188.15 212.806C190.003 212.618 194.084 210.054 195.874 210.667C209.422 215.302 208.72 195.337 205.274 184.641Z" fill="#F0E8E6" fill-opacity="0.9"/>
<path d="M125.035 190.718L110.825 144.559L115.247 142.22L130.532 187.189L125.035 190.718Z" fill="white"/>
<path d="M104.933 147.722L111.508 144.219L113.849 150.857L108.03 155.927L104.933 147.722Z" fill="white" fill-opacity="0.7"/>
<path d="M105.858 154.524L113.152 149.867L115.401 155.589L108.127 162.813L105.858 154.524Z" fill="white" fill-opacity="0.7"/>
<path d="M109.009 158.533L114.807 154.433L116.387 160.628L109.752 165.894L109.009 158.533Z" fill="white" fill-opacity="0.7"/>
<path d="M111.1 163.865L116.043 159.581L118.87 165.11L112.93 170.17L111.1 163.865Z" fill="white" fill-opacity="0.7"/>
<path d="M111.498 170.18L118.039 163.977L120.663 172.23L113.169 176.095L111.498 170.18Z" fill="white" fill-opacity="0.7"/>
<path d="M113.507 174.709L119.751 170.294L122.017 177.366L114.827 181.877L113.507 174.709Z" fill="white" fill-opacity="0.7"/>
<path d="M116.358 179.289L121 175.576L123.212 182.113L116.242 185.25L116.358 179.289Z" fill="white" fill-opacity="0.7"/>
<path d="M116.976 184.229L122.682 180.409L124.235 186.336L118.411 190.169L116.976 184.229Z" fill="white" fill-opacity="0.7"/>
<path d="M117.37 189.327L124.191 184.719L125.795 189.965L119.265 195.085L117.37 189.327Z" fill="white" fill-opacity="0.7"/>
<path d="M170.198 191.162L178.918 144.66L174.667 142.81L164.858 188.256L170.198 191.162Z" fill="white"/>
<path d="M184.585 147.17L178.263 144.396L176.737 151.112L182.514 155.493L184.585 147.17Z" fill="white" fill-opacity="0.7"/>
<path d="M184.367 153.908L177.282 150.076L175.756 155.889L183.059 162.23L184.367 153.908Z" fill="white" fill-opacity="0.7"/>
<path d="M181.86 158.135L176.192 154.7L175.32 160.909L181.86 165.401V158.135Z" fill="white" fill-opacity="0.7"/>
<path d="M180.443 163.552L175.539 159.853L173.468 165.533L179.353 169.893L180.443 163.552Z" fill="white" fill-opacity="0.7"/>
<path d="M180.661 169.761L174.122 164.344L172.487 172.667L179.68 175.706L180.661 169.761Z" fill="white" fill-opacity="0.7"/>
<path d="M179.244 174.384L173.141 170.685L171.724 177.819L178.699 181.518L179.244 174.384Z" fill="white" fill-opacity="0.7"/>
<path d="M177.064 179.14L172.486 175.97L171.07 182.575L177.718 184.953L177.064 179.14Z" fill="white" fill-opacity="0.7"/>
<path d="M176.956 184.028L171.397 180.858L170.525 186.803L176.193 189.973L176.956 184.028Z" fill="white" fill-opacity="0.7"/>
<path d="M177.064 189.049L170.416 185.218L169.435 190.502L175.866 194.861L177.064 189.049Z" fill="white" fill-opacity="0.7"/>
<path d="M162.481 206.397L172.089 205.809C174.149 206.398 179.205 208.875 184.589 209.688C189.973 210.502 192.978 209.295 194.887 208.702C195.401 208.67 197.155 208.801 200.173 213.379C202.87 217.47 205.019 220.584 204.351 221.339C203.683 222.094 198.519 225.267 194.295 224.335C190.071 223.403 192.504 222.301 195.08 219.643C197.655 216.986 195.528 217.235 192.351 219.81C189.175 222.386 184.394 222.083 181.294 218.105C178.813 214.923 172.88 214.214 170.224 214.258C169.845 213.249 168.924 210.908 168.273 209.614C167.623 208.321 164.141 206.93 162.481 206.397Z" fill="#EBE5E3" fill-opacity="0.9"/>
<path d="M138.078 227.976C132.038 229.359 128.92 225.432 128.116 223.296C128.616 221.151 130.679 216.634 134.936 215.735C140.256 214.61 147.098 215.692 146.898 217.73C146.698 219.767 145.629 226.247 138.078 227.976Z" fill="#BBA580"/>
<path d="M161.192 226.949C155.503 224.745 155.112 218.123 155.782 215.72C158.549 214.07 165.658 212.408 170.723 213.891C177.054 215.746 176.805 222.717 175.355 224.221C173.905 225.725 168.304 229.703 161.192 226.949Z" fill="#BBA580"/>
<path d="M162.697 198.291C163.864 193.468 158.667 186.237 155.923 183.225C157.309 180.892 160.981 176.808 164.574 179.135C169.065 182.044 178.588 191.207 181.07 201.326C183.056 209.421 178.087 219.962 175.354 224.221C175.463 221.626 173.672 216.567 165.631 217.096C155.579 217.757 155.579 217.757 155.389 215.27C155.198 212.782 161.238 204.321 162.697 198.291Z" fill="#71655B"/>
<path d="M122.622 212.882C119.731 203.382 124.921 190.887 127.878 185.827L141.84 185.137C140.87 187.649 138.467 193.86 136.611 198.616C134.292 204.561 138.593 204.983 143.625 211.237C148.657 217.491 147.207 218.994 145.097 218.376C142.986 217.758 139.976 217.463 134.655 218.588C130.398 219.487 128.548 221.83 128.154 222.889C127.514 223.512 125.512 222.383 122.622 212.882Z" fill="#71655B"/>
<path d="M159.385 134.596C149.911 132.022 147.184 140.945 147.005 145.728C152.433 149.415 163.961 157.019 166.65 157.94C170.01 159.093 171.19 155.916 173.7 152.459C176.21 149.001 171.227 137.814 159.385 134.596Z" fill="#71665C"/>
<path d="M156.554 141.412C151.822 140.122 150.458 144.602 150.367 147.003C153.078 148.852 158.835 152.665 160.178 153.127C161.856 153.705 162.447 152.11 163.701 150.374C164.956 148.638 162.469 143.025 156.554 141.412Z" fill="#D9B89E"/>
<path d="M119.393 138.957C126.896 134.437 132.019 142.442 133.643 147.01C130.023 151.73 122.265 161.536 120.195 163.003C117.607 164.837 115.6 162.032 112.343 159.243C109.086 156.455 110.016 144.608 119.393 138.957Z" fill="#71655B"/>
<path d="M123.914 145.131C127.524 142.922 130.059 146.934 130.875 149.217C129.149 151.546 125.448 156.384 124.452 157.103C123.209 158.002 122.218 156.595 120.621 155.189C119.023 153.783 119.4 147.892 123.914 145.131Z" fill="#D9B89E"/>
<path d="M118.082 174.991C113.769 161.401 129.439 147.711 135.62 146.67C154.284 142.326 169.318 152.852 173.361 164.77C177.404 176.688 158.972 183.112 147.471 185.278C135.969 187.443 122.396 188.582 118.082 174.991Z" fill="#8C8279"/>
<path d="M128.057 172.7C128.496 168.216 137.067 164.941 143.327 163.085C155.809 159.782 163.71 158.91 166.552 165.361C169.394 171.812 166.675 181.833 148.562 184.996C130.45 188.16 127.617 177.183 128.057 172.7Z" fill="#E8D8BE"/>
<path d="M138.289 161.357C136.22 160.331 138.529 158.911 141.659 157.983C143.46 157.341 147.368 157.308 146.818 158.489C146.268 159.669 144.739 161.989 143.369 162.677C141.998 163.366 139.874 162.142 138.289 161.357Z" fill="#171717"/>
<path d="M146.984 174.923C147.232 174.837 147.502 174.968 147.589 175.216L147.686 175.491C148.736 178.417 150.61 182.276 151.861 183.718C152.033 183.916 152.012 184.216 151.814 184.388C151.615 184.56 151.315 184.539 151.143 184.341C149.753 182.738 147.755 178.588 146.691 175.528C146.605 175.28 146.736 175.009 146.984 174.923Z" fill="#71655B"/>
<path d="M132.712 154.204C134.823 154.822 135.794 158.209 133.674 162.117C131.554 166.024 128.504 166.137 126.393 165.518C124.283 164.9 124.212 161.19 125.822 158.055C127.431 154.921 130.602 153.586 132.712 154.204Z" fill="#B66F63" stroke="#AA5445" stroke-width="1.42606"/>
<path d="M129.834 156.815C130.208 156.935 130.372 157.622 129.985 158.422C129.599 159.223 129.056 159.253 128.683 159.133C128.309 159.012 128.306 158.258 128.6 157.616C128.894 156.974 129.461 156.695 129.834 156.815Z" fill="#483B30"/>
<path d="M132.176 159.513C132.549 159.634 132.713 160.32 132.326 161.121C131.94 161.921 131.397 161.952 131.024 161.831C130.65 161.711 130.647 160.956 130.941 160.314C131.235 159.673 131.802 159.393 132.176 159.513Z" fill="#483B30"/>
<path d="M128.575 160.807C128.949 160.927 129.113 161.614 128.726 162.414C128.339 163.214 127.797 163.245 127.423 163.125C127.05 163.004 127.047 162.249 127.341 161.608C127.635 160.966 128.202 160.686 128.575 160.807Z" fill="#483B30"/>
<path d="M148.619 154.939C148.568 155.462 148.95 155.927 149.473 155.978C149.995 156.029 150.46 155.647 150.511 155.125L148.619 154.939ZM155.074 150.442C155.458 150.083 155.478 149.481 155.119 149.098C154.761 148.714 154.159 148.694 153.776 149.053L155.074 150.442ZM154.807 154.752C155.25 155.034 155.837 154.902 156.119 154.459C156.4 154.016 156.269 153.428 155.826 153.147L154.807 154.752ZM149.694 149.254C149.251 148.973 148.663 149.104 148.382 149.547C148.1 149.99 148.231 150.578 148.675 150.859L149.694 149.254ZM150.511 155.125C150.5 155.238 150.467 155.299 150.476 155.28C150.479 155.274 150.493 155.245 150.528 155.191C150.597 155.084 150.708 154.934 150.864 154.742C151.175 154.361 151.611 153.881 152.109 153.361C153.1 152.325 154.286 151.179 155.074 150.442L153.776 149.053C152.971 149.805 151.759 150.977 150.735 152.047C150.224 152.58 149.748 153.102 149.391 153.54C149.213 153.758 149.051 153.971 148.926 154.166C148.864 154.264 148.801 154.371 148.75 154.483C148.704 154.583 148.638 154.745 148.619 154.939L150.511 155.125ZM155.826 153.147L149.694 149.254L148.675 150.859L154.807 154.752L155.826 153.147Z" fill="white"/>
</svg>
