<svg width="300" height="400" viewBox="0 0 300 400" fill="none" xmlns="http://www.w3.org/2000/svg">
<path d="M150 265.25C165.878 265.25 178.75 258.702 178.75 250.625C178.75 242.548 165.878 236 150 236C134.122 236 121.25 242.548 121.25 250.625C121.25 258.702 134.122 265.25 150 265.25Z" fill="#6686B7"/>
<path d="M161.889 299.255C161.993 295.528 165.098 292.592 168.824 292.695C172.513 292.798 175.429 295.842 175.386 299.519L175.384 299.63L173.747 358.438C173.644 362.164 170.539 365.101 166.812 364.998C163.123 364.895 160.208 361.851 160.25 358.174L160.253 358.062L161.889 299.255Z" fill="#EBBAAA"/>
<path d="M202.329 374.035C202.377 368.435 201.596 367.47 196.608 365.18C191.62 362.89 186.921 358.49 178.292 354.715C178.292 354.715 177.156 354.508 175.308 355.483C173.73 356.315 171.704 358.358 168.651 358.33C165.335 358.303 162.38 357.615 160.544 356.675C159.751 354.555 157.991 354.54 157.991 354.54C157.991 354.54 155.515 359.14 155.475 363.765C155.434 368.388 155.44 373.625 155.44 373.625L202.329 374.035Z" fill="#DCE1E6"/>
<path d="M178.339 366.07C180.064 366.54 181.455 366.477 182.243 365.878C184.272 364.315 182.973 361.933 182.422 361C183.414 362.143 184.399 363.29 185.169 364.54C186.382 366.492 186.897 368.638 186.078 370.01C184.611 372.49 181.084 371.345 178.836 370.347L157.976 361.093L178.339 366.07Z" fill="#EAF4FB"/>
<path d="M179.201 355.377C179.356 355.037 179.757 354.887 180.097 355.042C180.437 355.196 180.588 355.598 180.433 355.938C180.15 356.56 180.023 357.204 179.976 358.119L179.973 358.188L183.61 356.623C184.121 356.404 184.658 356.859 184.538 357.391L184.529 357.429L183.787 360.053L186.788 359.11C187.21 358.977 187.64 359.278 187.666 359.712L187.668 359.755L187.668 362.463L189.924 361.272C190.362 361.04 190.886 361.343 190.915 361.828L190.916 361.87L190.917 365.172C190.917 365.546 190.614 365.849 190.24 365.849C189.881 365.849 189.586 365.569 189.565 365.214L189.564 365.173L189.563 362.992L187.308 364.183C186.87 364.415 186.345 364.113 186.316 363.627L186.315 363.585L186.314 360.677L182.999 361.721C182.499 361.878 182.023 361.433 182.134 360.931L182.144 360.891L182.84 358.428L179.544 359.847C179.11 360.033 178.629 359.73 178.601 359.268L178.6 359.225L178.601 358.941C178.613 357.365 178.736 356.399 179.201 355.377Z" fill="white"/>
<path d="M156.945 356.975C157.908 358.253 161.381 359.015 162.688 359.203C163.995 359.39 165.395 359.228 164.835 361.335C164.439 362.828 160.631 362.225 159.143 362.21C157.932 362.2 156.235 365.77 155.603 364.558C155.602 360.41 156.403 358.163 156.945 356.975Z" fill="#C6CBCF"/>
<path d="M200.44 365.61C198.91 365.067 197.289 364.657 194.182 363.97L195.503 367.68L195.466 371.907L204.309 371.985C204.67 371.987 205.315 371.517 205.007 369.612C204.622 367.23 202.614 366.38 200.44 365.61Z" fill="#EAF4FB"/>
<path d="M155.324 373.58L155.548 370.897L195.199 371.507L205.086 370.802L205.286 372.365C205.444 373.602 204.528 374.717 203.283 374.8L195.15 375.347L156.387 374.752C155.76 374.742 155.272 374.205 155.324 373.58Z" fill="#C7CBCF"/>
<path d="M97.6716 374.035C97.6228 368.435 98.4046 367.47 103.392 365.18C108.38 362.89 113.079 358.49 121.708 354.715C121.708 354.715 122.844 354.508 124.693 355.483C126.27 356.315 128.296 358.358 131.35 358.33C134.665 358.303 137.62 357.615 139.456 356.675C140.25 354.555 142.009 354.54 142.009 354.54C142.009 354.54 144.485 359.14 144.526 363.765C144.566 368.388 144.561 373.625 144.561 373.625L97.6716 374.035Z" fill="#DCE1E6"/>
<path d="M121.661 366.07C119.936 366.54 118.545 366.477 117.758 365.878C115.728 364.315 117.028 361.933 117.579 361C116.587 362.143 115.601 363.29 114.831 364.54C113.618 366.492 113.103 368.638 113.922 370.01C115.389 372.49 118.916 371.345 121.164 370.347L142.024 361.093L121.661 366.07Z" fill="#EAF4FB"/>
<path d="M119.903 355.042C120.243 354.887 120.644 355.037 120.799 355.377C121.291 356.46 121.401 357.479 121.401 359.225C121.4 359.697 120.932 360.019 120.496 359.862L120.456 359.847L117.16 358.428L117.856 360.891C117.998 361.396 117.539 361.858 117.041 361.732L117.001 361.721L113.686 360.677L113.685 363.585C113.685 364.081 113.173 364.403 112.73 364.202L112.692 364.183L110.437 362.992L110.437 365.173C110.436 365.533 110.155 365.827 109.801 365.848L109.76 365.849C109.4 365.849 109.106 365.568 109.084 365.214L109.083 365.172L109.084 361.87C109.084 361.375 109.596 361.052 110.039 361.253L110.077 361.272L112.332 362.463L112.333 359.755C112.333 359.312 112.749 358.993 113.171 359.098L113.212 359.11L116.213 360.053L115.471 357.429C115.32 356.894 115.842 356.421 116.354 356.609L116.39 356.623L120.027 358.188L120.024 358.119C119.979 357.24 119.86 356.612 119.6 356.013L119.567 355.938C119.412 355.598 119.563 355.196 119.903 355.042Z" fill="white"/>
<path d="M143.056 356.975C142.092 358.253 138.619 359.015 137.312 359.203C136.006 359.39 134.606 359.228 135.165 361.335C135.561 362.828 139.369 362.225 140.858 362.21C142.068 362.2 143.765 365.77 144.397 364.558C144.398 360.41 143.597 358.163 143.056 356.975Z" fill="#C6CBCF"/>
<path d="M99.5603 365.61C101.091 365.067 102.711 364.657 105.818 363.97L104.497 367.68L104.534 371.907L95.6908 371.985C95.3299 371.987 94.6852 371.517 94.9934 369.612C95.3787 367.23 97.3859 366.38 99.5603 365.61Z" fill="#EAF4FB"/>
<path d="M144.676 373.58L144.453 370.897L104.801 371.507L94.9146 370.802L94.7144 372.365C94.5559 373.602 95.4725 374.717 96.7169 374.8L104.85 375.347L143.613 374.752C144.24 374.742 144.728 374.205 144.676 373.58Z" fill="#C7CBCF"/>
<path d="M148 246.75H183V278.75L180.5 321V355.75L167 358.25L155.479 355.75V347.125L156.957 328.5V301.25L148 246.75Z" fill="#6686B7"/>
<path fill-rule="evenodd" clip-rule="evenodd" d="M117.003 245.412L117.165 247.406L118.162 247.325L117.999 245.331L117.003 245.412ZM117.327 249.399L117.489 251.393L118.486 251.312L118.324 249.318L117.327 249.399ZM117.814 255.379L117.652 253.386L118.648 253.305L118.811 255.298L117.814 255.379ZM117.976 257.373L118.138 259.366L119.135 259.285L118.973 257.292L117.976 257.373ZM118.463 263.353L118.301 261.36L119.297 261.279L119.46 263.272L118.463 263.353ZM118.625 265.347L118.787 267.34L119.784 267.259L119.622 265.265L118.625 265.347ZM119.112 271.327L118.95 269.333L119.946 269.252L120.109 271.246L119.112 271.327ZM119.274 273.32L119.436 275.314L120.433 275.232L120.271 273.239L119.274 273.32ZM119.761 279.3L119.599 277.307L120.595 277.226L120.758 279.219L119.761 279.3ZM119.923 281.294L120.085 283.287L121.082 283.206L120.92 281.213L119.923 281.294ZM120.41 287.274L120.248 285.281L121.244 285.199L121.407 287.193L120.41 287.274ZM120.678 289.341L121.197 291.272L122.162 291.013L121.644 289.082L120.678 289.341ZM122.233 295.136L121.715 293.204L122.681 292.945L123.199 294.876L122.233 295.136ZM122.752 297.067L123.27 298.999L124.236 298.74L123.718 296.808L122.752 297.067ZM124.307 302.862L123.789 300.931L124.755 300.671L125.273 302.603L124.307 302.862Z" fill="#697B8F"/>
<path fill-rule="evenodd" clip-rule="evenodd" d="M178.627 255.153L178.501 253.157C178.484 252.881 178.693 252.643 178.969 252.626C179.244 252.609 179.482 252.818 179.499 253.094L179.625 255.09C179.643 255.365 179.433 255.603 179.158 255.62C178.882 255.637 178.645 255.428 178.627 255.153ZM178.879 259.144L178.753 257.148C178.736 256.873 178.945 256.635 179.221 256.618C179.496 256.601 179.734 256.81 179.751 257.085L179.877 259.081C179.895 259.357 179.685 259.595 179.41 259.612C179.134 259.629 178.897 259.42 178.879 259.144ZM179.005 261.141L179.131 263.137C179.148 263.412 179.386 263.622 179.661 263.604C179.937 263.587 180.146 263.349 180.129 263.074L180.003 261.078C179.986 260.802 179.748 260.593 179.473 260.61C179.197 260.628 178.988 260.865 179.005 261.141ZM179.383 267.129L179.257 265.133C179.24 264.857 179.449 264.619 179.725 264.602C180 264.585 180.238 264.794 180.255 265.07L180.381 267.066C180.398 267.341 180.189 267.579 179.913 267.596C179.638 267.614 179.4 267.404 179.383 267.129ZM179.509 269.125L179.635 271.121C179.652 271.396 179.89 271.606 180.165 271.588C180.441 271.571 180.65 271.333 180.633 271.058L180.507 269.062C180.49 268.786 180.252 268.577 179.976 268.594C179.701 268.612 179.492 268.849 179.509 269.125ZM179.887 275.113L179.761 273.117C179.744 272.841 179.953 272.604 180.228 272.586C180.504 272.569 180.742 272.778 180.759 273.054L180.885 275.05C180.902 275.325 180.693 275.563 180.417 275.58C180.142 275.598 179.904 275.388 179.887 275.113ZM180.013 277.109L180.124 278.873L180.112 279.038C180.093 279.313 180.3 279.552 180.576 279.572C180.851 279.592 181.09 279.384 181.11 279.109L181.126 278.877L181.011 277.046C180.993 276.77 180.756 276.561 180.48 276.578C180.205 276.596 179.995 276.833 180.013 277.109ZM179.828 283.028L179.97 281.033C179.99 280.757 180.229 280.55 180.505 280.569C180.78 280.589 180.987 280.828 180.968 281.104L180.826 283.099C180.806 283.374 180.567 283.581 180.292 283.562C180.016 283.542 179.809 283.303 179.828 283.028ZM179.686 285.023L179.544 287.018C179.525 287.293 179.732 287.532 180.007 287.552C180.283 287.571 180.522 287.364 180.542 287.089L180.684 285.094C180.703 284.818 180.496 284.579 180.221 284.559C179.945 284.54 179.706 284.747 179.686 285.023ZM179.26 291.008L179.402 289.013C179.422 288.737 179.661 288.53 179.936 288.549C180.212 288.569 180.419 288.808 180.4 289.084L180.258 291.079C180.238 291.354 179.999 291.561 179.723 291.542C179.448 291.522 179.241 291.283 179.26 291.008ZM179.118 293.002L178.976 294.997C178.957 295.273 179.164 295.512 179.439 295.532C179.715 295.551 179.954 295.344 179.974 295.068L180.116 293.073C180.135 292.798 179.928 292.559 179.652 292.539C179.377 292.52 179.138 292.727 179.118 293.002ZM178.692 298.987L178.834 296.992C178.854 296.717 179.093 296.51 179.368 296.529C179.644 296.549 179.851 296.788 179.832 297.063L179.69 299.058C179.67 299.334 179.431 299.541 179.155 299.522C178.88 299.502 178.672 299.263 178.692 298.987ZM178.55 300.982L178.408 302.977C178.388 303.253 178.596 303.492 178.871 303.512C179.147 303.531 179.386 303.324 179.405 303.048L179.548 301.053C179.567 300.778 179.36 300.539 179.084 300.519C178.809 300.499 178.57 300.707 178.55 300.982ZM178.124 306.967L178.266 304.972C178.285 304.697 178.525 304.489 178.8 304.509C179.076 304.528 179.283 304.768 179.263 305.043L179.121 307.038C179.102 307.313 178.863 307.521 178.587 307.501C178.312 307.482 178.104 307.242 178.124 306.967ZM177.982 308.962L177.84 310.957C177.82 311.232 178.028 311.472 178.303 311.491C178.578 311.511 178.818 311.303 178.837 311.028L178.979 309.033C178.999 308.758 178.792 308.518 178.516 308.499C178.241 308.479 178.001 308.687 177.982 308.962ZM177.556 314.947L177.698 312.952C177.717 312.676 177.957 312.469 178.232 312.489C178.507 312.508 178.715 312.747 178.695 313.023L178.553 315.018C178.534 315.293 178.294 315.501 178.019 315.481C177.744 315.461 177.536 315.222 177.556 314.947ZM177.414 316.942L177.377 317.464L177.336 318.962C177.328 319.238 177.546 319.468 177.822 319.475C178.098 319.483 178.328 319.265 178.336 318.989L178.375 317.513L178.411 317.013C178.431 316.737 178.223 316.498 177.948 316.479C177.673 316.459 177.433 316.666 177.414 316.942ZM177.228 322.961L177.282 320.961C177.29 320.685 177.519 320.468 177.795 320.475C178.071 320.482 178.289 320.712 178.282 320.988L178.228 322.988C178.221 323.264 177.991 323.481 177.715 323.474C177.439 323.467 177.221 323.237 177.228 322.961ZM177.175 324.96L177.121 326.959C177.114 327.235 177.332 327.465 177.608 327.472C177.884 327.48 178.113 327.262 178.121 326.986L178.174 324.987C178.182 324.711 177.964 324.481 177.688 324.474C177.412 324.466 177.182 324.684 177.175 324.96ZM177.014 330.958L177.067 328.959C177.075 328.682 177.305 328.465 177.581 328.472C177.857 328.48 178.074 328.709 178.067 328.985L178.013 330.985C178.006 331.261 177.776 331.478 177.5 331.471C177.224 331.464 177.006 331.234 177.014 330.958ZM176.96 332.957L176.906 334.956C176.899 335.232 177.117 335.462 177.393 335.47C177.669 335.477 177.899 335.259 177.906 334.983L177.96 332.984C177.967 332.708 177.749 332.478 177.473 332.471C177.197 332.463 176.968 332.681 176.96 332.957ZM176.799 338.955L176.853 336.956C176.86 336.68 177.09 336.462 177.366 336.469C177.642 336.477 177.86 336.706 177.852 336.982L177.799 338.982C177.791 339.258 177.562 339.476 177.286 339.468C177.009 339.461 176.792 339.231 176.799 338.955ZM176.745 340.954L176.692 342.953C176.684 343.229 176.902 343.459 177.178 343.467C177.454 343.474 177.684 343.256 177.691 342.98L177.745 340.981C177.752 340.705 177.535 340.475 177.259 340.468C176.983 340.46 176.753 340.678 176.745 340.954ZM176.584 346.952L176.638 344.953C176.645 344.677 176.875 344.459 177.151 344.466C177.427 344.474 177.645 344.703 177.638 344.979L177.584 346.979C177.577 347.255 177.347 347.473 177.071 347.465C176.795 347.458 176.577 347.228 176.584 346.952ZM176.531 348.951L176.477 350.95C176.47 351.227 176.687 351.456 176.964 351.464C177.24 351.471 177.469 351.253 177.477 350.977L177.53 348.978C177.538 348.702 177.32 348.472 177.044 348.465C176.768 348.457 176.538 348.675 176.531 348.951ZM176.375 354.736L176.423 352.95C176.431 352.674 176.661 352.456 176.937 352.463C177.213 352.471 177.43 352.701 177.423 352.977L177.375 354.763C177.368 355.039 177.138 355.257 176.862 355.25C176.586 355.242 176.368 355.013 176.375 354.736Z" fill="#385683"/>
<path d="M152 247.5H117V279.5L119.5 321.75V356.5L129.5 359L144.522 356.5V347.875L143.043 329.25V302L152 247.5Z" fill="#6686B7"/>
<path fill-rule="evenodd" clip-rule="evenodd" d="M120.25 255.09L120.376 253.094C120.393 252.818 120.631 252.609 120.906 252.626C121.182 252.643 121.391 252.881 121.374 253.157L121.248 255.153C121.231 255.428 120.993 255.637 120.717 255.62C120.442 255.603 120.233 255.365 120.25 255.09ZM119.998 259.081L120.124 257.085C120.141 256.81 120.379 256.601 120.654 256.618C120.93 256.635 121.139 256.873 121.122 257.148L120.996 259.144C120.979 259.42 120.741 259.629 120.465 259.612C120.19 259.595 119.981 259.357 119.998 259.081ZM119.872 261.078L119.746 263.074C119.729 263.349 119.938 263.587 120.214 263.604C120.489 263.622 120.727 263.412 120.744 263.137L120.87 261.141C120.887 260.865 120.678 260.628 120.403 260.61C120.127 260.593 119.889 260.802 119.872 261.078ZM119.494 267.066L119.62 265.07C119.638 264.794 119.875 264.585 120.151 264.602C120.426 264.619 120.636 264.857 120.618 265.133L120.492 267.129C120.475 267.404 120.237 267.614 119.962 267.596C119.686 267.579 119.477 267.341 119.494 267.066ZM119.368 269.062L119.242 271.058C119.225 271.333 119.434 271.571 119.71 271.588C119.985 271.606 120.223 271.396 120.24 271.121L120.366 269.125C120.384 268.849 120.174 268.612 119.899 268.594C119.623 268.577 119.386 268.786 119.368 269.062ZM118.99 275.05L119.116 273.054C119.134 272.778 119.371 272.569 119.647 272.586C119.922 272.604 120.132 272.841 120.114 273.117L119.988 275.113C119.971 275.388 119.733 275.598 119.458 275.58C119.182 275.563 118.973 275.325 118.99 275.05ZM118.864 277.046L118.749 278.877L118.765 279.109C118.785 279.384 119.024 279.592 119.3 279.572C119.575 279.552 119.782 279.313 119.763 279.038L119.751 278.873L119.862 277.109C119.88 276.833 119.67 276.596 119.395 276.578C119.119 276.561 118.882 276.77 118.864 277.046ZM119.049 283.099L118.907 281.104C118.888 280.828 119.095 280.589 119.371 280.569C119.646 280.55 119.885 280.757 119.905 281.033L120.047 283.028C120.066 283.303 119.859 283.542 119.584 283.562C119.308 283.581 119.069 283.374 119.049 283.099ZM119.191 285.094L119.333 287.089C119.353 287.364 119.592 287.571 119.868 287.552C120.143 287.532 120.35 287.293 120.331 287.018L120.189 285.023C120.169 284.747 119.93 284.54 119.655 284.559C119.379 284.579 119.172 284.818 119.191 285.094ZM119.617 291.079L119.475 289.084C119.456 288.808 119.663 288.569 119.939 288.549C120.214 288.53 120.453 288.737 120.473 289.013L120.615 291.008C120.635 291.283 120.427 291.522 120.152 291.542C119.876 291.561 119.637 291.354 119.617 291.079ZM119.76 293.073L119.902 295.068C119.921 295.344 120.16 295.551 120.436 295.532C120.711 295.512 120.919 295.273 120.899 294.997L120.757 293.002C120.737 292.727 120.498 292.52 120.223 292.539C119.947 292.559 119.74 292.798 119.76 293.073ZM120.186 299.058L120.044 297.063C120.024 296.788 120.231 296.549 120.507 296.529C120.782 296.51 121.022 296.717 121.041 296.992L121.183 298.987C121.203 299.263 120.995 299.502 120.72 299.522C120.444 299.541 120.205 299.334 120.186 299.058ZM120.328 301.053L120.47 303.048C120.489 303.324 120.729 303.531 121.004 303.512C121.279 303.492 121.487 303.253 121.467 302.977L121.325 300.982C121.306 300.707 121.066 300.499 120.791 300.519C120.515 300.539 120.308 300.778 120.328 301.053ZM120.754 307.038L120.612 305.043C120.592 304.768 120.8 304.528 121.075 304.509C121.35 304.489 121.59 304.697 121.609 304.972L121.751 306.967C121.771 307.242 121.563 307.482 121.288 307.501C121.013 307.521 120.773 307.313 120.754 307.038ZM120.896 309.033L121.038 311.028C121.057 311.303 121.297 311.511 121.572 311.491C121.848 311.472 122.055 311.232 122.035 310.957L121.893 308.962C121.874 308.687 121.634 308.479 121.359 308.499C121.084 308.518 120.876 308.758 120.896 309.033ZM121.322 315.018L121.18 313.023C121.16 312.747 121.368 312.508 121.643 312.489C121.919 312.469 122.158 312.676 122.177 312.952L122.319 314.947C122.339 315.222 122.132 315.461 121.856 315.481C121.581 315.501 121.342 315.293 121.322 315.018ZM121.464 317.013L121.501 317.535L121.54 318.989C121.547 319.265 121.777 319.483 122.053 319.475C122.329 319.468 122.547 319.238 122.539 318.962L122.5 317.487L122.461 316.942C122.442 316.666 122.203 316.459 121.927 316.479C121.652 316.498 121.444 316.737 121.464 317.013ZM121.647 322.988L121.593 320.988C121.586 320.712 121.804 320.482 122.08 320.475C122.356 320.468 122.586 320.685 122.593 320.961L122.647 322.961C122.654 323.237 122.436 323.467 122.16 323.474C121.884 323.481 121.654 323.264 121.647 322.988ZM121.701 324.987L121.754 326.986C121.762 327.262 121.992 327.48 122.268 327.472C122.544 327.465 122.761 327.235 122.754 326.959L122.7 324.96C122.693 324.684 122.463 324.466 122.187 324.474C121.911 324.481 121.693 324.711 121.701 324.987ZM121.862 330.985L121.808 328.985C121.801 328.709 122.018 328.48 122.294 328.472C122.57 328.465 122.8 328.682 122.808 328.959L122.861 330.958C122.869 331.234 122.651 331.464 122.375 331.471C122.099 331.478 121.869 331.261 121.862 330.985ZM121.915 332.984L121.969 334.983C121.976 335.259 122.206 335.477 122.482 335.47C122.758 335.462 122.976 335.232 122.969 334.956L122.915 332.957C122.908 332.681 122.678 332.463 122.402 332.471C122.126 332.478 121.908 332.708 121.915 332.984ZM122.076 338.982L122.023 336.982C122.015 336.706 122.233 336.477 122.509 336.469C122.785 336.462 123.015 336.68 123.022 336.956L123.076 338.955C123.083 339.231 122.866 339.461 122.59 339.468C122.314 339.476 122.084 339.258 122.076 338.982ZM122.13 340.981L122.184 342.98C122.191 343.256 122.421 343.474 122.697 343.467C122.973 343.459 123.191 343.229 123.183 342.953L123.13 340.954C123.122 340.678 122.893 340.46 122.616 340.468C122.34 340.475 122.123 340.705 122.13 340.981ZM122.291 346.979L122.237 344.979C122.23 344.703 122.448 344.474 122.724 344.466C123 344.459 123.23 344.677 123.237 344.953L123.291 346.952C123.298 347.228 123.08 347.458 122.804 347.465C122.528 347.473 122.298 347.255 122.291 346.979ZM122.345 348.978L122.398 350.977C122.406 351.253 122.636 351.471 122.912 351.464C123.188 351.456 123.406 351.227 123.398 350.95L123.344 348.951C123.337 348.675 123.107 348.457 122.831 348.465C122.555 348.472 122.337 348.702 122.345 348.978ZM122.5 354.763L122.452 352.977C122.445 352.701 122.662 352.471 122.938 352.463C123.215 352.456 123.444 352.674 123.452 352.95L123.5 354.736C123.507 355.013 123.289 355.242 123.013 355.25C122.737 355.257 122.507 355.039 122.5 354.763Z" fill="#385683"/>
<path d="M107.207 153.399C110.901 145.416 116.21 143.25 116.21 143.25L119.5 187.115V253.25C83.5597 242.177 88.4573 193.925 107.207 153.399Z" fill="#454B5E"/>
<path d="M192.792 153.399C189.099 145.416 183.79 143.25 183.79 143.25L180.5 187.115V253.25C216.44 242.177 211.543 193.925 192.792 153.399Z" fill="#454B5E"/>
<path d="M150 154.75C168.778 154.75 184 148.874 184 141.625C184 134.376 168.778 128.5 150 128.5C131.222 128.5 116 134.376 116 141.625C116 148.874 131.222 154.75 150 154.75Z" fill="#35383E"/>
<path d="M113.405 162.443C112.814 150.548 120.696 139.886 132.242 136.965L149.888 132.5L167.534 136.965C179.08 139.886 186.962 150.548 186.37 162.443L184.888 192.25L187.273 246.641C187.336 248.063 186.2 249.25 184.776 249.25H115C113.576 249.25 112.44 248.063 112.502 246.641L114.888 192.25L113.405 162.443Z" fill="white"/>
<path fill-rule="evenodd" clip-rule="evenodd" d="M132.25 169.957L132.25 170.125L132.25 170.293C132.251 171.745 132.253 173.095 131.22 174.117C130.477 174.854 129.619 175.25 128.375 175.25C127.131 175.25 126.273 174.854 125.53 174.117C124.497 173.095 124.499 171.745 124.5 170.293L124.5 170.125L124.5 169.957C124.499 168.505 124.497 167.155 125.53 166.133C126.273 165.396 127.131 165 128.375 165C129.619 165 130.477 165.396 131.22 166.133C132.253 167.155 132.251 168.505 132.25 169.957ZM123 165.25V175.25H120.799L117.518 170.222V175.25H115V165.25H117.201L120.482 170.278V165.25H123ZM129.75 170.125C129.75 171.939 129.607 172.26 129.378 172.553C129.191 172.791 128.833 173 128.375 173C127.917 173 127.559 172.791 127.372 172.553C127.143 172.26 127 171.939 127 170.125C127 168.311 127.143 167.976 127.372 167.683C127.559 167.445 127.917 167.25 128.375 167.25C128.833 167.25 129.191 167.445 129.378 167.683C129.607 167.976 129.75 168.311 129.75 170.125ZM139.812 171.079L142 175.25H139.115L137.325 171.528H136.487V175.25H134V165.25H138.007C140.252 165.25 141.46 166.823 141.46 168.466C141.46 169.829 140.607 170.685 139.812 171.079ZM139 168.25C139 168.764 138.6 169.25 137.914 169.25H136.5V167.25H137.914C138.6 167.25 139 167.736 139 168.25ZM150 173.059V175.25H143.25V165.25H145.742V173.059H150ZM158.998 169.831L158.998 169.83C159.008 168.446 159.017 167.293 157.949 166.233C157.256 165.545 156.28 165.25 155.234 165.25H151.5V175.25H155.234C156.28 175.25 157.256 174.955 157.949 174.267C159.017 173.207 159.008 172.054 158.998 170.67L158.998 170.669C158.997 170.532 158.996 170.392 158.996 170.25C158.996 170.108 158.997 169.968 158.998 169.831ZM156.236 172.425C156.431 172.138 156.5 171.864 156.5 170.125C156.5 168.4 156.431 168.112 156.236 167.825C156.014 167.48 155.681 167.25 155.069 167.25H154V173H155.069C155.681 173 156.014 172.77 156.236 172.425ZM167.25 167.441V165.25H159.75V167.441H162.25V175.25H164.75V167.441H167.25ZM175.75 169.957L175.75 170.125L175.75 170.293C175.751 171.745 175.753 173.095 174.72 174.117C173.977 174.854 173.119 175.25 171.875 175.25C170.631 175.25 169.773 174.854 169.03 174.117C167.997 173.095 167.999 171.745 168 170.293L168 170.125L168 169.957C167.999 168.505 167.997 167.155 169.03 166.133C169.773 165.396 170.631 165 171.875 165C173.119 165 173.977 165.396 174.72 166.133C175.753 167.155 175.751 168.505 175.75 169.957ZM173.25 170.125C173.25 171.939 173.107 172.26 172.878 172.553C172.691 172.791 172.333 173 171.875 173C171.417 173 171.059 172.791 170.872 172.553C170.643 172.26 170.5 171.939 170.5 170.125C170.5 168.311 170.643 167.976 170.872 167.683C171.059 167.445 171.417 167.25 171.875 167.25C172.333 167.25 172.691 167.445 172.878 167.683C173.107 167.976 173.25 168.311 173.25 170.125ZM182.195 171.965H184.75C184.377 174.188 182.813 175.25 180.875 175.25C179.684 175.25 178.78 174.854 178.034 174.117C176.997 173.095 176.999 171.745 177 170.293C177 170.237 177 170.181 177 170.125C177 170.069 177 170.013 177 169.957C176.999 168.505 176.997 167.155 178.034 166.133C178.78 165.396 179.684 165 180.875 165C182.813 165 184.377 166.062 184.75 168.285H182.195C182.038 167.718 181.722 167.209 180.889 167.209C180.43 167.209 180.086 167.393 179.899 167.633C179.67 167.931 179.512 168.285 179.512 170.125C179.512 171.965 179.67 172.319 179.899 172.617C180.086 172.857 180.43 173.041 180.889 173.041C181.722 173.041 182.038 172.532 182.195 171.965Z" fill="black"/>
<path d="M189.748 190.029C184.981 175.396 197.997 157.512 183.498 143.004C183.498 143.004 170.374 133.624 158.75 135.375C169.499 141.003 173.999 152.259 169.779 182.525C168.384 192.53 175.073 206.827 169.779 222.296C162.375 243.933 161.75 253.606 169.779 256.815C176.374 259.45 178.383 255.78 189.748 247.56C195.724 243.237 195.777 208.539 189.748 190.029Z" fill="#343844"/>
<path d="M182.712 143.916C182.896 143.822 183.122 143.896 183.216 144.08C183.31 144.265 183.236 144.491 183.051 144.584C180.228 146.019 177.391 149.716 175.605 154.916C173.396 161.346 172.872 169.59 174.453 179.392L174.502 179.689C176.143 189.627 176.345 200.636 175.386 211.894L175.334 212.492C174.583 220.954 173.196 229.089 171.745 234.591C170.675 238.874 169.977 242.952 169.894 246.609C169.781 251.55 170.848 254.977 173.321 256.427C173.5 256.531 173.56 256.761 173.455 256.94C173.35 257.118 173.121 257.178 172.942 257.074C170.168 255.448 169.026 251.779 169.144 246.592C169.229 242.868 169.935 238.742 171.019 234.404L171.121 234.014C172.558 228.427 173.921 220.265 174.639 211.831C175.579 200.788 175.397 189.99 173.83 180.229L173.762 179.811C172.102 169.762 172.622 161.291 174.896 154.672C176.741 149.301 179.698 145.447 182.712 143.916Z" fill="#78819C"/>
<path d="M110.252 190.029C115.019 175.396 102.003 157.512 116.502 143.004C116.502 143.004 129.626 133.624 141.25 135.375C130.501 141.003 126.001 152.259 130.221 182.525C131.616 192.53 124.928 206.827 130.221 222.296C137.625 243.933 138.25 253.606 130.221 256.815C123.626 259.45 121.617 255.78 110.252 247.56C104.276 243.237 104.223 208.539 110.252 190.029Z" fill="#343844"/>
<path d="M116.784 144.08C116.878 143.896 117.104 143.822 117.288 143.916C120.302 145.447 123.259 149.301 125.104 154.672C127.356 161.224 127.887 169.593 126.288 179.51L126.239 179.811C124.608 189.682 124.408 200.63 125.361 211.831L125.413 212.433C126.161 220.851 127.541 228.942 128.982 234.409C130.065 238.742 130.771 242.868 130.856 246.592C130.974 251.779 129.832 255.448 127.058 257.074C126.879 257.178 126.65 257.118 126.545 256.94C126.44 256.761 126.5 256.531 126.679 256.427C129.152 254.977 130.219 251.55 130.106 246.609C130.023 242.952 129.326 238.874 128.256 234.596C126.77 228.96 125.352 220.57 124.614 211.894C123.669 200.794 123.852 189.937 125.43 180.11L125.499 179.689C127.139 169.757 126.627 161.411 124.395 154.916C122.609 149.716 119.772 146.019 116.949 144.584C116.764 144.491 116.69 144.265 116.784 144.08Z" fill="#78819C"/>
<rect x="141.25" y="120.5" width="17.5" height="28.75" rx="8.75" fill="#EBBAAA"/>
<path opacity="0.5" d="M112.5 104.25C118.023 104.25 122.5 99.7727 122.5 94.25C122.5 88.7273 118.023 84.25 112.5 84.25C106.977 84.25 102.5 88.7273 102.5 94.25C102.5 99.7727 106.977 104.25 112.5 104.25Z" fill="#C99584"/>
<path opacity="0.5" d="M187.5 104.25C193.023 104.25 197.5 99.7727 197.5 94.25C197.5 88.7273 193.023 84.25 187.5 84.25C181.977 84.25 177.5 88.7273 177.5 94.25C177.5 99.7727 181.977 104.25 187.5 104.25Z" fill="#C99584"/>
<path d="M112.5 71.5C112.5 50.7892 129.289 34 150 34C170.711 34 187.5 50.7892 187.5 71.5V87.0773C187.5 89.4385 187.309 91.796 186.928 94.1265L184.839 106.906C182.049 123.978 167.299 136.513 150 136.513C132.701 136.513 117.951 123.978 115.161 106.906L113.072 94.1265C112.691 91.796 112.5 89.4385 112.5 87.0773V71.5Z" fill="#F4D5CC"/>
<path d="M167 79.5C168.631 79.5 169.959 80.8021 169.999 82.4238L170 82.5V85.75C170 87.4069 168.657 88.75 167 88.75C165.369 88.75 164.041 87.4479 164.001 85.8262L164 85.75V82.5C164 80.8431 165.343 79.5 167 79.5Z" fill="black"/>
<path d="M133.125 79.5C134.756 79.5 136.084 80.8021 136.124 82.4238L136.125 82.5V85.75C136.125 87.4069 134.782 88.75 133.125 88.75C131.494 88.75 130.166 87.4479 130.126 85.8262L130.125 85.75V82.5C130.125 80.8431 131.468 79.5 133.125 79.5Z" fill="black"/>
<path fill-rule="evenodd" clip-rule="evenodd" d="M157 79.5H180.5C181.467 79.5 182.25 80.2835 182.25 81.25V88.25C182.25 90.8733 180.123 93 177.5 93H160C157.377 93 155.25 90.8733 155.25 88.25V81.25C155.25 80.2835 156.033 79.5 157 79.5ZM180.25 81.5H157.25V88.25C157.25 89.7446 158.443 90.9608 159.928 90.9991L160 91H177.5C179.019 91 180.25 89.7687 180.25 88.25V81.5Z" fill="#393939"/>
<rect x="143.75" y="82.25" width="12.5" height="2" fill="#393939"/>
<path fill-rule="evenodd" clip-rule="evenodd" d="M119.5 79.5H143C143.967 79.5 144.75 80.2835 144.75 81.25V88C144.75 90.6233 142.623 92.75 140 92.75H122.5C119.877 92.75 117.75 90.6233 117.75 88V81.25C117.75 80.2835 118.533 79.5 119.5 79.5ZM142.75 81.5H119.75V88C119.75 89.4946 120.943 90.7108 122.428 90.7491L122.5 90.75H140C141.519 90.75 142.75 89.5187 142.75 88V81.5Z" fill="#393939"/>
<path d="M188.748 56.0085C188.903 41.9242 176.517 37.3095 178.71 39.9642C180.902 42.619 175.71 49.1983 178.71 51.276C181.71 53.3537 178.364 60.0487 179.979 62.588C181.595 65.1275 184.173 64.5502 185.633 69.5137C187.093 74.477 185.864 84.14 185.864 84.14C185.748 84.4037 185.864 84.75 186.095 84.75C186.325 84.75 186.671 84.6345 186.765 84.14C186.765 84.14 188.518 77.0162 188.748 56.0085Z" fill="#868686"/>
<path d="M111.251 56.0085C111.097 41.9242 123.483 37.3095 121.29 39.9642C119.098 42.619 124.29 49.1983 121.29 51.276C118.29 53.3537 121.636 60.0487 120.021 62.588C118.405 65.1275 115.826 64.5502 114.367 69.5137C112.907 74.477 114.136 84.14 114.136 84.14C114.251 84.4037 114.136 84.75 113.905 84.75C113.675 84.75 113.328 84.6345 113.235 84.14C113.235 84.14 111.482 77.0162 111.251 56.0085Z" fill="#868686"/>
<path fill-rule="evenodd" clip-rule="evenodd" d="M150.049 24.5C161.106 24.5421 191.31 30.375 188.576 62.75C185.679 58.9293 181.229 57.231 177.241 54.7614L177.063 54.6502C175.811 53.8647 174.593 53.1526 173.397 52.5094L169.422 56.9902L168.413 54.9328L166.051 57.0638L163.883 57.1107L160.804 59.517L157.864 57.2415L153.34 59.6792L150.881 57.3935L148.524 59.784L147.028 57.477L141.541 59.9357L141.49 57.5975L137.397 57.6865L136.147 55.6343L132.197 56.7598L129.836 53.432L126.916 53.4953L123.732 55.1311C119.634 57.2466 115.721 59.3853 111.522 62.75C108.077 32.06 138.275 24.6887 149.607 24.5034L149.945 24.5H150.049Z" fill="#272727"/>
<path d="M148.451 88.2097L151.987 90.5672C150.785 92.37 149.844 95.0761 149.844 97.0447C149.844 98.943 150.529 99.7409 152.628 99.763L152.719 99.7635V104.013C148.083 104.013 145.594 101.213 145.594 97.0447C145.594 94.2209 146.768 90.7931 148.363 88.3424L148.451 88.2097Z" fill="#EBBAAA"/>
<path d="M159.664 76.615L157.6 72.1683L171.727 68.915L176.247 71.491L176.488 73.9793L169.549 73.6473L159.664 76.615Z" fill="#393939"/>
<path d="M140.533 76.4695L142.517 71.9828L128.231 69.0093L123.736 71.674L123.545 74.1668L130.523 73.6978L140.533 76.4695Z" fill="#393939"/>
<path d="M160.904 110.233C161.266 109.645 162.036 109.462 162.624 109.824C163.212 110.186 163.395 110.956 163.033 111.543C162.317 112.708 160.695 114.038 158.662 115.048C156.171 116.286 153.215 117 149.969 117C146.723 117 143.924 116.289 141.583 115.029C139.807 114.074 138.41 112.862 137.478 111.65C137.057 111.103 137.159 110.318 137.707 109.898C138.254 109.477 139.039 109.579 139.46 110.126C140.181 111.064 141.31 112.044 142.767 112.828C144.746 113.892 147.138 114.5 149.969 114.5C152.824 114.5 155.4 113.877 157.55 112.809C159.158 112.01 160.403 111 160.873 110.283L160.904 110.233Z" fill="#C99584"/>
</svg>
