<svg width="300" height="400" viewBox="0 0 300 400" fill="none" xmlns="http://www.w3.org/2000/svg">
<path d="M134.703 297.875C138.773 297.899 142.061 301.184 142.103 305.238L142.103 305.362L141.799 357.902C141.775 362.013 138.424 365.326 134.313 365.302C130.243 365.279 126.956 361.993 126.913 357.939L126.913 357.816L127.217 305.275C127.241 301.165 130.593 297.852 134.703 297.875Z" fill="#EBBAAA"/>
<path d="M166.927 289.746C170.996 289.77 174.284 293.055 174.327 297.11L174.327 297.233L174.023 349.771C173.999 353.881 170.647 357.194 166.537 357.171C162.467 357.147 159.179 353.862 159.137 349.808L159.137 349.684L159.441 297.146C159.465 293.036 162.816 289.723 166.927 289.746Z" fill="#EBBAAA"/>
<path fill-rule="evenodd" clip-rule="evenodd" d="M112.159 243.236H146.593L146.55 244.771H180.816L182.975 331.589L178.684 337.617C177.42 339.391 175.439 340.519 173.268 340.699L156.669 342.073L155.521 334.804L149.124 272.578C148.022 272.672 146.899 272.738 145.757 272.773L144.042 333.401L143.277 342.201L126.666 341.332C124.797 341.234 123.029 340.455 121.695 339.142L115.867 333.401L112.159 243.236Z" fill="#474747"/>
<path d="M98.5229 364.394C98.5229 356.563 103.554 355.609 111.755 352.926C115.771 351.613 119.87 350.465 124.029 349.776C126.643 349.342 127.345 351.641 131.936 351.641C136.031 351.641 141.139 349.613 142.196 349.174C142.329 349.118 142.486 349.07 142.592 349.169C142.617 349.192 142.639 349.22 142.655 349.253C143.144 350.258 145.71 355.737 145.71 360.121C145.71 363.473 145.997 366.771 145.072 368.475C144.655 369.245 142.049 369.663 141.174 369.663H99.9417C99.1582 369.663 98.5229 365.179 98.5229 364.394Z" fill="#D0D4DB"/>
<mask id="mask0_0_5316" style="mask-type:luminance" maskUnits="userSpaceOnUse" x="98" y="349" width="48" height="21">
<path fill-rule="evenodd" clip-rule="evenodd" d="M98.5229 364.393C98.5229 360.486 99.7773 358.29 102.054 356.736C113.425 348.983 128.63 349.09 142.393 349.09C142.504 349.09 142.606 349.153 142.655 349.253C143.144 350.258 145.71 355.737 145.71 360.121C145.71 363.473 145.997 366.771 145.072 368.474C144.655 369.245 142.049 369.663 141.174 369.663H99.9417C99.1582 369.663 98.5229 365.179 98.5229 364.393Z" fill="white"/>
</mask>
<g mask="url(#mask0_0_5316)">
<path d="M103.661 355.726C100.358 353.859 101.654 357.56 98.6859 359.131L92.4014 371.176H142.415C143.637 369.431 148.448 365.518 144.718 365.518C136.556 365.518 126.704 365.781 121.991 365.518C117.278 365.256 103.785 366.199 104.578 362.011C105.494 357.167 106.672 357.428 103.661 355.726Z" fill="#E5E7EB"/>
</g>
<path d="M119.83 349.256C120.081 348.922 120.547 348.844 120.891 349.072L120.947 349.112L121.458 349.488C121.668 349.643 121.84 349.773 122.005 349.903L122.075 349.959C123.424 351.036 124.177 352.049 124.177 353.298C124.177 353.817 123.686 354.189 123.193 354.058L123.149 354.046L116.268 351.812L118.144 354.83C118.524 355.441 117.952 356.191 117.272 356.003L117.232 355.991L111.492 354.108L113.538 357.02C113.778 357.362 113.707 357.829 113.385 358.085L113.346 358.114C113.004 358.354 112.537 358.284 112.281 357.961L112.252 357.923L108.848 353.077C108.422 352.47 108.995 351.673 109.696 351.867L109.736 351.879L115.67 353.825L113.799 350.816C113.42 350.206 113.989 349.457 114.668 349.642L114.709 349.654L121.993 352.018L121.972 351.994C121.761 351.759 121.497 351.514 121.182 351.257L121.094 351.186L120.966 351.085C120.879 351.017 120.787 350.947 120.686 350.872L119.987 350.356C119.64 350.096 119.57 349.603 119.83 349.256Z" fill="white"/>
<path d="M202.121 364.394C202.121 356.563 197.09 355.609 188.89 352.926C184.873 351.613 180.774 350.465 176.615 349.776C174.001 349.342 173.299 351.641 168.708 351.641C164.614 351.641 159.506 349.613 158.448 349.174C158.315 349.118 158.158 349.07 158.053 349.169C158.027 349.192 158.005 349.22 157.99 349.253C157.5 350.258 154.934 355.737 154.934 360.121C154.934 363.473 154.647 366.771 155.572 368.475C155.989 369.245 158.595 369.663 159.47 369.663H200.702C201.486 369.663 202.121 365.179 202.121 364.394Z" fill="#D0D4DB"/>
<mask id="mask1_0_5316" style="mask-type:luminance" maskUnits="userSpaceOnUse" x="154" y="349" width="49" height="21">
<path fill-rule="evenodd" clip-rule="evenodd" d="M202.121 364.393C202.121 360.486 200.867 358.29 198.59 356.736C187.219 348.983 172.014 349.09 158.251 349.09C158.14 349.09 158.038 349.153 157.99 349.253C157.5 350.258 154.934 355.737 154.934 360.121C154.934 363.473 154.647 366.771 155.572 368.474C155.989 369.245 158.595 369.663 159.47 369.663H200.702C201.486 369.663 202.121 365.179 202.121 364.393Z" fill="white"/>
</mask>
<g mask="url(#mask1_0_5316)">
<path d="M196.983 355.726C200.286 353.859 198.99 357.56 201.958 359.131L208.243 371.176H158.229C157.007 369.431 152.196 365.518 155.925 365.518C164.088 365.518 173.94 365.781 178.653 365.518C183.366 365.256 196.859 366.199 196.066 362.011C195.15 357.167 193.972 357.428 196.983 355.726Z" fill="#E5E7EB"/>
</g>
<path d="M180.814 349.256C181.075 349.603 181.004 350.096 180.657 350.356L180.119 350.752C179.894 350.919 179.719 351.052 179.55 351.186C179.196 351.469 178.903 351.738 178.673 351.994L178.651 352.019L185.936 349.654C186.619 349.432 187.209 350.165 186.867 350.78L186.845 350.816L184.974 353.825L190.909 351.879C191.614 351.647 192.208 352.428 191.819 353.042L191.796 353.077L188.392 357.923C188.143 358.278 187.653 358.363 187.298 358.114C186.956 357.874 186.864 357.411 187.08 357.06L187.107 357.02L189.152 354.108L183.412 355.991C182.728 356.215 182.135 355.481 182.479 354.865L182.5 354.83L184.376 351.812L177.495 354.046C177.002 354.206 176.497 353.853 176.468 353.344L176.467 353.298C176.467 352.049 177.221 351.036 178.57 349.959L178.711 349.847C178.783 349.791 178.857 349.735 178.935 349.676L179.715 349.099C180.062 348.839 180.554 348.909 180.814 349.256Z" fill="white"/>
<path d="M214.94 231.515C213.962 235.338 192.581 236.868 190.626 235.338C190.192 234.999 189.32 232.627 189.32 232.627L215.234 229.38C215.234 229.38 215.009 231.243 214.94 231.515Z" fill="white"/>
<path d="M97.304 179.749C99.6749 175.107 105.36 173.267 110.001 175.637C114.643 178.008 116.484 183.693 114.113 188.335C110.826 194.77 107.356 207.741 105.544 220.297L105.489 220.678C104.628 226.756 104.238 232.203 104.373 236.198L104.38 236.387C104.435 237.81 104.557 238.957 104.711 239.75L104.726 239.826L104.734 239.835C107.414 242.903 107.876 247.474 105.604 251.075L105.52 251.206C102.668 255.568 96.8191 256.793 92.4567 253.94C89.3392 251.902 87.6349 248.923 86.634 245.286C85.9874 242.937 85.6395 240.224 85.5195 237.115C85.3156 231.833 85.7798 225.234 86.8013 218.028C88.8658 203.466 92.8699 188.43 97.304 179.749Z" fill="#EBBAAA"/>
<path d="M181.421 169.512C185.961 166.952 191.717 168.556 194.277 173.095C200.322 183.81 204.783 198.949 207.086 214.772C209.279 229.84 209.234 243.466 206.476 251.052C204.695 255.95 199.28 258.477 194.381 256.696C189.532 254.933 187.007 249.608 188.685 244.749L188.737 244.602C190.148 240.721 190.185 229.696 188.408 217.491C186.413 203.783 182.58 190.775 177.838 182.369C175.277 177.829 176.881 172.073 181.421 169.512Z" fill="#EBBAAA"/>
<path d="M105.018 160.723C105.018 154.729 118.154 148.611 127.336 145.702L139.324 141.725C140.993 141.672 152.464 142.149 154.118 142.377L172.737 148.611C181.56 149.831 195.179 153.646 194.29 162.508L184.738 201.482L185.618 251.653C185.637 252.116 164.528 254.737 164.065 254.714L128.994 252.489L109.992 251.635C109.548 251.611 109.317 250.312 109.354 249.867L111.907 196.784L105.018 160.723Z" fill="#EBBAAA"/>
<path d="M192.122 154.601C189.776 152.255 182.047 149.882 178.476 148.99C179.533 163.102 182.612 202.532 182.612 202.532L209.105 200.195C209.105 200.195 194.003 156.482 192.122 154.601Z" fill="#DAE2F3"/>
<path d="M101.843 154.601C104.189 152.255 114.546 149.882 118.117 148.99C117.061 163.102 111.353 202.532 111.353 202.532L84.8599 200.195C84.8599 200.195 99.9619 156.482 101.843 154.601Z" fill="#DAE2F3"/>
<path d="M155.893 154.601C153.546 152.255 145.818 149.882 142.247 148.99C143.303 163.102 146.382 202.532 146.382 202.532L172.876 200.195C172.876 200.195 157.774 156.482 155.893 154.601Z" fill="#DAE2F3"/>
<path d="M135.881 143.042L136.773 142.404L150.037 146.613L156.286 142.659L158.709 143.679L161.26 151.714L146.338 155.03L134.35 150.949L135.881 143.042Z" fill="#EBBAAA"/>
<path d="M143.788 164.931C142.512 161.233 143.15 156.132 143.15 156.132L137.411 158.045L130.524 144.654C122.575 146.057 122.235 146.567 116.496 149.117C109.65 152.16 111.012 162.381 109.992 176.282L108.589 252.418L127.464 255.351L140.089 255.479L145.701 169.14C145.701 169.14 145.063 168.63 143.788 164.931Z" fill="#E5EBF9"/>
<path d="M148.634 164.804C145.318 162.126 145.871 160 146.466 157.917L147.613 157.152L156.031 156.132L163.938 145.419C163.938 145.419 175.288 146.949 179.114 148.99C182.94 151.03 185.235 173.348 185.235 173.348L187.021 252.801L177.328 255.479H139.962C139.622 228.782 141.246 171.273 144.553 169.522C148.889 167.227 149.399 165.422 148.634 164.804Z" fill="#DAE2F3"/>
<path d="M157.051 148.99C157.928 146.088 157.051 144.016 156.796 142.741L163.938 145.419C163.938 145.419 166.361 148.48 164.83 155.494C163.154 163.178 155.739 166.207 153.99 168.247C153.225 169.14 153.48 158.3 147.614 157.152C150.292 156.514 155.393 154.474 157.051 148.99Z" fill="#E5EBF9"/>
<path d="M136.659 150.52C134.861 147.969 135.794 144.392 136.659 142.486L130.397 144.654C130.397 144.654 126.796 150.854 128.743 156.846C131.162 164.294 139.782 166.985 139.707 166.079C138.942 156.846 141.999 157.19 143.278 156.004C141.11 155.494 139.05 153.91 136.659 150.52Z" fill="#DAE2F3"/>
<path d="M156.286 164.676C156.99 164.676 157.561 164.105 157.561 163.401C157.561 162.696 156.99 162.125 156.286 162.125C155.581 162.125 155.01 162.696 155.01 163.401C155.01 164.105 155.581 164.676 156.286 164.676Z" fill="#DAE2F3"/>
<path d="M136.646 163.401C137.35 163.401 137.921 162.83 137.921 162.125C137.921 161.421 137.35 160.85 136.646 160.85C135.942 160.85 135.371 161.421 135.371 162.125C135.371 162.83 135.942 163.401 136.646 163.401Z" fill="#E5EBF9"/>
<path d="M146.976 176.154C148.032 176.154 148.889 175.298 148.889 174.241C148.889 173.185 148.032 172.328 146.976 172.328C145.919 172.328 145.063 173.185 145.063 174.241C145.063 175.298 145.919 176.154 146.976 176.154Z" fill="#EDF2FF"/>
<path d="M145.445 194.519C146.502 194.519 147.358 193.605 147.358 192.478C147.358 191.351 146.502 190.438 145.445 190.438C144.389 190.438 143.532 191.351 143.532 192.478C143.532 193.605 144.389 194.519 145.445 194.519Z" fill="#EDF2FF"/>
<path d="M144.425 212.628C145.482 212.628 146.338 211.772 146.338 210.715C146.338 209.659 145.482 208.802 144.425 208.802C143.369 208.802 142.512 209.659 142.512 210.715C142.512 211.772 143.369 212.628 144.425 212.628Z" fill="#EDF2FF"/>
<path d="M144.425 230.738C145.482 230.738 146.338 229.881 146.338 228.825C146.338 227.768 145.482 226.912 144.425 226.912C143.369 226.912 142.512 227.768 142.512 228.825C142.512 229.881 143.369 230.738 144.425 230.738Z" fill="#EDF2FF"/>
<path d="M144.425 246.807C145.482 246.807 146.338 245.95 146.338 244.894C146.338 243.837 145.482 242.981 144.425 242.981C143.369 242.981 142.512 243.837 142.512 244.894C142.512 245.95 143.369 246.807 144.425 246.807Z" fill="#EDF2FF"/>
<rect x="136.76" y="127.437" width="19.9804" height="30.2335" rx="9.66972" fill="#EBBAAA"/>
<path d="M175.417 114.601C183.675 114.601 189.649 105.375 190.37 98.5377C191.09 91.7 183.675 84.7933 175.417 84.7933C167.159 84.7933 160.465 90.947 160.465 98.5377C160.465 106.129 167.159 114.601 175.417 114.601Z" fill="#EBBAAA"/>
<path d="M115.913 114.601C107.655 114.601 101.682 105.375 100.961 98.5377C100.241 91.7 107.655 84.7933 115.913 84.7933C124.171 84.7933 130.866 90.947 130.866 98.5377C130.866 106.129 124.171 114.601 115.913 114.601Z" fill="#EBBAAA"/>
<path d="M106.654 75.8676C106.654 52.253 124.003 33.1096 145.404 33.1096C166.805 33.1096 184.153 52.253 184.153 75.8676L181.531 108.923C178.426 129.506 163.51 145.099 145.404 145.099C127.297 145.099 112.981 127.453 109.277 108.923L106.654 75.8676Z" fill="#F4D4C9"/>
<path d="M175.441 43.5676C175.441 44.5486 175.392 45.4048 175.301 46.1494L175.916 46.5931C185.222 53.2873 186.71 74.6472 184.323 84.0731L182.537 95.9971L181.541 94.5873L180.598 80.8312C175.909 76.225 173.307 71.8155 172.482 65.0502L172.327 63.7854C169.401 59.0973 169.072 56.3652 166.278 51.9813C162.995 54.6139 156.594 57.3985 145.704 57.3985C133.669 57.3985 127.951 53.9977 125.728 51.1591L125.029 52.0569C119.477 59.1625 114.894 64.419 111.547 67.3745L111.552 67.8073C111.616 73.6478 111.196 76.4889 109.669 82.9712L109.497 83.6976L109.697 94.1838L108.385 94.2078L106.931 85.8708C105.935 79.3238 105.359 72.5465 106.152 66.3578L106.134 66.0572C105.862 61.0818 106.106 52.9258 110.256 50.2345C110.96 49.7777 112.309 49.2773 114.145 48.7494L114.148 48.7493C114.143 46.878 114.829 44.2617 117.004 40.8783C122.191 32.8102 134.293 30.505 145.704 30.1208C157.115 29.7366 175.441 32.0419 175.441 43.5676Z" fill="#272727"/>
<path d="M119.962 82.0781L123.162 81.3483L134.963 82.8775C136.253 83.0447 137.163 84.2258 136.996 85.5156C136.832 86.7827 135.689 87.6834 134.426 87.5561L134.358 87.5483L123.39 86.127L121.009 86.67C119.764 86.9541 118.523 86.1932 118.206 84.9639L118.19 84.8976C117.906 83.6519 118.667 82.4116 119.896 82.0942L119.962 82.0781Z" fill="#393939"/>
<path d="M154.687 82.8775L166.488 81.3483L169.688 82.0781C170.956 82.3673 171.75 83.6296 171.461 84.8976C171.176 86.1434 169.953 86.9312 168.708 86.6842L168.641 86.67L166.26 86.127L155.293 87.5483C154.025 87.7125 152.863 86.837 152.664 85.5831L152.655 85.5156C152.49 84.2484 153.366 83.0862 154.62 82.8873L154.687 82.8775Z" fill="#393939"/>
<path d="M142.754 92.9722L147.041 94.1594L143.751 106.04C143.07 108.498 144.893 110.928 147.43 110.977L147.507 110.978H150.336V115.426H147.507C142.045 115.426 138.072 110.274 139.421 105.012L139.464 104.853L142.754 92.9722Z" fill="#EBBAAA"/>
<path d="M123.381 95.3304C124.336 94.844 127.045 94.163 130.235 95.3304" stroke="#393939" stroke-width="3.06077" stroke-linecap="round"/>
<path d="M159.727 95.3304C160.682 94.844 163.39 94.163 166.58 95.3304" stroke="#393939" stroke-width="3.06077" stroke-linecap="round"/>
<path d="M136.188 123.55C136.594 122.55 137.72 122.059 138.726 122.431L138.786 122.454C139.422 122.712 140.089 122.911 140.791 123.056C142.763 123.463 144.618 123.446 147.714 123.135L149.159 122.989C150.32 122.874 150.684 122.854 151.293 122.852L151.378 122.852C152.479 122.852 153.372 123.745 153.372 124.846C153.372 125.927 152.512 126.807 151.44 126.839L151.088 126.843C150.722 126.851 150.354 126.879 149.492 126.964L147.901 127.125C144.547 127.453 142.409 127.462 139.985 126.963C139.051 126.77 138.151 126.501 137.284 126.149C136.264 125.734 135.773 124.571 136.188 123.55Z" fill="#C99584"/>
<path d="M142.524 99.1711C142.524 102.799 139.971 105.941 136.292 108.214C132.626 110.479 127.993 111.779 124.166 111.779C120.381 111.779 118.214 110.515 116.94 108.425C115.622 106.263 115.188 103.107 115.188 99.1711C115.188 95.4388 116.721 93.1368 119.149 91.7263C121.635 90.2827 125.118 89.7419 129.033 89.7419C132.949 89.7419 136.338 90.2829 138.732 91.7215C141.068 93.1249 142.524 95.4237 142.524 99.1711Z" fill="url(#paint0_linear_0_5316)" stroke="black" stroke-width="1.27532"/>
<path d="M148.156 99.1711C148.156 102.799 150.709 105.941 154.389 108.214C158.054 110.479 162.688 111.779 166.515 111.779C170.299 111.779 172.467 110.515 173.741 108.425C175.059 106.263 175.492 103.107 175.492 99.1711C175.492 95.4388 173.96 93.1368 171.531 91.7263C169.045 90.2827 165.562 89.7419 161.648 89.7419C157.732 89.7419 154.343 90.2829 151.949 91.7215C149.613 93.1249 148.156 95.4237 148.156 99.1711Z" fill="url(#paint1_linear_0_5316)" stroke="black" stroke-width="1.27532"/>
<path d="M142.448 96.7735H148.57" stroke="black" stroke-width="1.27532"/>
<path d="M128.824 89.86H163.003" stroke="black" stroke-width="1.27532"/>
<path d="M182.557 88.6685L183.392 89.6322L175.15 96.7752L174.315 95.8115L182.557 88.6685Z" fill="black"/>
<path d="M108.617 89.1836L116.093 95.8165L115.247 96.7705L107.771 90.1376L108.617 89.1836Z" fill="black"/>
<defs>
<linearGradient id="paint0_linear_0_5316" x1="114.385" y1="89.1043" x2="114.385" y2="112.417" gradientUnits="userSpaceOnUse">
<stop stop-color="#7F91AD"/>
<stop offset="1" stop-color="#FB8BB9"/>
</linearGradient>
<linearGradient id="paint1_linear_0_5316" x1="147.378" y1="89.1043" x2="147.378" y2="112.417" gradientUnits="userSpaceOnUse">
<stop stop-color="#7F91AD"/>
<stop offset="1" stop-color="#FB8BB9"/>
</linearGradient>
</defs>
</svg>
