<svg width="300" height="400" viewBox="0 0 300 400" fill="none" xmlns="http://www.w3.org/2000/svg">
<path d="M164.126 261.192C169.128 260.157 174.023 263.373 175.058 268.376C176.657 276.103 177.831 290.361 178.205 305.572L178.216 306.033C178.604 322.521 178.008 337.472 176.36 346.851C175.476 351.882 170.681 355.245 165.649 354.361C160.618 353.477 157.255 348.681 158.139 343.65C159.528 335.744 160.082 321.835 159.721 306.467L159.7 305.607C159.339 291.571 158.253 278.462 156.942 272.124C155.907 267.122 159.123 262.227 164.126 261.192Z" fill="#EBBAAA"/>
<path d="M118.634 269.243C119.052 264.152 123.518 260.363 128.61 260.781C133.701 261.199 137.49 265.665 137.072 270.757C136.171 281.739 136.692 295.314 138.363 310.487C139.646 322.131 141.522 333.957 143.578 344.475C144.558 349.489 141.288 354.348 136.275 355.328C131.261 356.308 126.402 353.038 125.422 348.025C123.273 337.032 121.318 324.708 119.975 312.513L119.869 311.54C118.163 295.678 117.641 281.339 118.634 269.243Z" fill="#EBBAAA"/>
<path d="M115.25 253.75H152L148.144 301.572L143.153 338.5H123.75L119.333 318.043L116.384 290.412L115.25 253.75Z" fill="#33353A"/>
<path d="M152 256.5H186L183.819 292.513L180.441 319.487L177 338.625L159.455 340.75L154.649 307.958L152 256.5Z" fill="#33353A"/>
<path d="M143.5 333.75H123.25L124 342C131.908 342 135.592 342 143.5 342V333.75Z" fill="#282A2F"/>
<path d="M150.957 278.213C167.29 278.213 180.531 271.393 180.531 262.981C180.531 254.569 167.29 247.75 150.957 247.75C134.624 247.75 121.383 254.569 121.383 262.981C121.383 271.393 134.624 278.213 150.957 278.213Z" fill="#33353A"/>
<path d="M178 332.75H158.25V342C168.076 342 167.674 342 177.5 342L178 332.75Z" fill="#282A2F"/>
<rect x="169" y="266.672" width="13" height="4.5" rx="2.25" transform="rotate(-8.5 169 266.672)" fill="#DEDEE4"/>
<path d="M98.1936 363.37C98.1235 357.393 99.0311 358.968 104.222 356.508C109.412 354.048 114.294 349.338 123.275 345.283C123.275 345.283 124.458 345.055 126.387 346.093C128.034 346.975 130.153 349.15 133.335 349.113C136.79 349.073 139.868 348.333 141.778 347.323C142.598 345.055 144.431 345.033 144.431 345.033C144.431 345.033 147.028 349.94 147.086 354.878C147.143 359.813 147.111 363.225 147.111 363.225L98.1936 363.37Z" fill="#DCE1E6"/>
<path d="M134.697 360.857L134.921 360.749L135.4 360.519C137.847 359.354 139.874 358.533 141.866 357.954C143.661 357.433 145.334 357.148 146.906 357.127L147.094 357.125V359.46C145.708 359.46 144.186 359.711 142.517 360.196C140.542 360.77 138.488 361.617 135.926 362.856L135.74 362.946C135.701 362.971 131.369 365.133 129.988 365.758L129.787 365.847L128.865 363.703L128.974 363.655C129.717 363.324 131.683 362.357 133.107 361.651L134.697 360.857Z" fill="#FF5621"/>
<path d="M134.117 349.005C137.51 350.435 139.994 352.456 141.676 354.915C142.816 356.581 143.531 358.363 143.904 360.165C144.141 361.307 144.212 362.297 144.187 363.055L144.182 363.188L144.176 363.289L142.883 363.181L142.888 363.096C142.917 362.427 142.858 361.507 142.634 360.428C142.295 358.786 141.643 357.164 140.605 355.647C139.093 353.436 136.862 351.603 133.788 350.275L133.614 350.2L134.117 349.005Z" fill="#D0D4D8"/>
<path d="M129.29 348.572L129.545 349.843C124.408 350.877 120.979 353.183 118.924 356.378C117.986 357.837 117.389 359.401 117.07 360.978C116.953 361.554 116.881 362.098 116.844 362.598L116.832 362.773C116.821 362.97 116.817 363.138 116.817 363.275L116.82 363.416L115.524 363.479L115.522 363.417C115.516 363.189 115.523 362.88 115.55 362.504C115.591 361.95 115.671 361.352 115.799 360.721C116.149 358.994 116.802 357.28 117.833 355.676C120.055 352.223 123.727 349.731 129.106 348.609L129.29 348.572Z" fill="#D0D4D8"/>
<path d="M131.012 348.563C131.023 352.351 129.527 355.208 126.761 357.168C124.462 358.797 121.364 359.758 117.666 360.171C114.286 360.548 110.682 360.446 107.22 360.048C106.612 359.978 106.053 359.903 105.553 359.828L105.206 359.775L104.706 359.69L104.943 358.415L105.105 358.444L105.411 358.494C105.467 358.503 105.525 358.512 105.586 358.521L105.91 358.57C106.353 358.635 106.841 358.699 107.368 358.759C110.742 359.147 114.253 359.247 117.522 358.882C125.155 358.03 129.644 354.895 129.714 348.754L129.715 348.567L131.012 348.563Z" fill="#D0D4D8"/>
<path d="M121.509 345.397C121.863 345.238 122.278 345.397 122.437 345.75C122.951 346.897 123.068 347.982 123.074 349.843C123.075 350.336 122.584 350.672 122.13 350.504L122.09 350.488L118.643 348.979L119.386 351.641C119.533 352.166 119.053 352.645 118.535 352.51L118.496 352.499L115.038 351.394L115.048 354.52C115.049 355.038 114.512 355.374 114.051 355.16L114.013 355.141L111.66 353.876L111.667 356.223C111.669 356.596 111.378 356.903 111.01 356.926L110.967 356.927C110.594 356.928 110.288 356.638 110.265 356.27L110.263 356.227L110.253 352.702C110.251 352.185 110.788 351.848 111.249 352.062L111.287 352.082L113.64 353.346L113.631 350.435C113.63 349.973 114.065 349.639 114.506 349.752L114.547 349.764L117.684 350.765L116.893 347.931C116.738 347.374 117.283 346.885 117.814 347.084L117.851 347.099L121.646 348.761L121.644 348.721C121.596 347.746 121.47 347.058 121.188 346.4L121.155 346.325C120.997 345.971 121.155 345.555 121.509 345.397Z" fill="black"/>
<path fill-rule="evenodd" clip-rule="evenodd" d="M116.495 340.766C117.03 340.021 117.804 339.615 118.751 339.615C120.699 339.615 122.175 341.329 122.175 343.638L122.176 343.912L122.189 344.714C122.191 344.892 122.193 345.007 122.193 345.122L122.19 345.394C122.182 345.812 122.152 346.119 122.085 346.379C121.997 346.722 121.846 346.966 121.621 347.124C121.368 347.309 121.012 347.398 120.526 347.398C119.52 347.398 118.319 347.015 117.382 346.378C116.327 345.66 115.708 344.701 115.708 343.638C115.708 342.485 115.982 341.482 116.495 340.766ZM120.618 343.558C120.588 342.107 119.765 341.171 118.751 341.171C118.311 341.171 118.005 341.332 117.759 341.674C117.452 342.102 117.264 342.79 117.264 343.638C117.264 344.128 117.595 344.641 118.257 345.092C118.94 345.556 119.838 345.842 120.526 345.842L120.549 345.842L120.605 345.841L120.613 345.777C120.626 345.647 120.634 345.478 120.636 345.262L120.636 345.188C120.637 345.129 120.636 345.074 120.636 345.013L120.629 344.506L120.628 344.486L120.62 343.924L120.618 343.558Z" fill="black"/>
<path fill-rule="evenodd" clip-rule="evenodd" d="M121.843 347.091L121.797 346.997L121.772 346.923C121.768 346.912 121.766 346.904 121.764 346.896L121.754 346.853L121.746 346.808C121.732 346.705 121.735 346.593 121.755 346.468C121.791 346.247 121.878 345.995 122.032 345.648L122.08 345.54L122.302 345.061L122.304 345.059L122.331 345.001L122.54 344.544C123.239 343.059 124.738 342.404 126.06 342.992C126.714 343.284 127.127 343.792 127.275 344.453C127.417 345.086 127.309 345.836 126.967 346.603C126.653 347.311 125.945 347.758 124.998 347.916C124.164 348.05 123.223 347.936 122.528 347.628C122.189 347.477 121.962 347.303 121.843 347.091ZM125.757 344.793C125.716 344.61 125.629 344.504 125.427 344.414C124.906 344.183 124.277 344.465 123.927 345.251L123.899 345.315L123.617 345.926L123.615 345.929L123.541 346.088L123.443 346.306L123.465 346.312C123.824 346.408 124.261 346.442 124.656 346.393L124.746 346.38C125.216 346.302 125.469 346.142 125.545 345.971C125.759 345.49 125.819 345.073 125.757 344.793Z" fill="black"/>
<path d="M100.337 356.723C101.93 356.14 103.617 355.698 106.853 354.953L105.489 358.92L105.542 363.433L96.3256 363.54C95.9495 363.545 95.276 363.045 95.5907 361.01C95.984 358.468 98.073 357.55 100.337 356.723Z" fill="#EAF4FB"/>
<path d="M147.172 363.225L137.195 363.248L137.21 366.9C137.213 367.618 137.796 368.195 138.512 368.195L145.895 368.178C146.611 368.178 147.19 367.595 147.187 366.878L147.172 363.225Z" fill="#F0C533"/>
<path d="M138.136 363.245L126.861 363.268L126.876 366.923C126.879 367.638 127.462 368.218 128.179 368.215L136.859 368.198C137.576 368.195 138.154 367.613 138.151 366.898L138.136 363.245Z" fill="#F0C533"/>
<path d="M125.664 363.292L118.369 363.315L118.38 366.967C118.382 367.685 118.965 368.262 119.681 368.26L124.382 368.247C125.099 368.245 125.678 367.662 125.675 366.945L125.664 363.292Z" fill="#E7737A"/>
<path d="M118.109 363.315L110.814 363.338L110.824 366.99C110.827 367.708 111.409 368.285 112.125 368.283L116.827 368.27C117.543 368.268 118.122 367.685 118.12 366.968L118.109 363.315Z" fill="#E7737A"/>
<path d="M110.553 363.338L103.258 363.36L103.268 367.013C103.271 367.73 103.853 368.308 104.569 368.305L109.271 368.293C109.987 368.29 110.566 367.708 110.564 366.993L110.553 363.338Z" fill="#E7737A"/>
<path d="M102.991 363.358L95.8486 363.378L95.8596 367.033C95.8617 367.748 96.4441 368.328 97.1604 368.325L101.708 368.313C102.425 368.31 103.004 367.728 103.001 367.01L102.991 363.358Z" fill="#E7737A"/>
<path d="M128.36 356.978C127.139 357.38 126.138 357.388 125.55 356.988C124.034 355.948 124.878 354.193 125.239 353.505C124.569 354.36 123.904 355.218 123.399 356.14C122.601 357.583 122.312 359.138 122.951 360.088C124.097 361.808 126.587 360.855 128.163 360.058L142.794 352.65L128.36 356.978Z" fill="black"/>
<path d="M203.548 363.37C203.618 357.393 202.71 358.968 197.52 356.508C192.329 354.048 187.447 349.338 178.467 345.283C178.467 345.283 177.284 345.055 175.354 346.093C173.707 346.975 171.588 349.15 168.406 349.113C164.951 349.073 161.874 348.333 159.963 347.323C159.144 345.055 157.31 345.033 157.31 345.033C157.31 345.033 154.713 349.94 154.656 354.878C154.598 359.813 154.631 363.225 154.631 363.225L203.548 363.37Z" fill="#DCE1E6"/>
<path d="M169.776 362.216C171.021 362.829 172.329 363.464 172.842 363.688L172.876 363.703L171.954 365.847L171.84 365.797C171.245 365.532 169.939 364.898 168.713 364.294L166.011 362.951L165.815 362.856L165.367 362.641C163.083 361.553 161.2 360.784 159.394 360.246L159.224 360.196C157.621 359.731 156.155 359.48 154.814 359.461L154.647 359.46V357.125C156.273 357.125 158.008 357.412 159.875 357.954C161.996 358.57 164.156 359.461 166.82 360.749L169.776 362.216Z" fill="#FF5621"/>
<path d="M167.624 349.005L168.128 350.2C164.963 351.534 162.677 353.394 161.136 355.647C160.098 357.164 159.447 358.786 159.107 360.428C158.893 361.46 158.829 362.347 158.85 363.007L158.856 363.16L158.858 363.181L157.566 363.289L157.563 363.247C157.561 363.222 157.559 363.19 157.558 363.153C157.524 362.383 157.59 361.357 157.837 360.165C158.21 358.363 158.925 356.581 160.065 354.915C161.717 352.5 164.141 350.509 167.44 349.084L167.624 349.005Z" fill="#D0D4D8"/>
<path d="M172.451 348.572C177.93 349.674 181.661 352.184 183.907 355.676C184.939 357.28 185.592 358.994 185.942 360.721C186.07 361.352 186.15 361.95 186.19 362.504C186.215 362.846 186.223 363.132 186.22 363.353L186.216 363.479L184.921 363.416L184.922 363.385C184.927 363.197 184.921 362.931 184.897 362.598C184.86 362.098 184.788 361.554 184.671 360.978C184.351 359.401 183.755 357.837 182.817 356.378C180.786 353.22 177.413 350.931 172.374 349.88L172.195 349.843L172.451 348.572Z" fill="#D0D4D8"/>
<path d="M170.729 348.563L172.026 348.567C172.007 354.832 176.509 358.022 184.219 358.882C187.488 359.247 191 359.147 194.373 358.759L194.761 358.713C195.268 358.651 195.734 358.586 196.155 358.521L196.491 358.468L196.798 358.415L197.035 359.69L196.854 359.722L196.621 359.761C196.537 359.774 196.447 359.789 196.352 359.803L196.019 359.853C195.563 359.92 195.062 359.986 194.521 360.048C191.059 360.446 187.455 360.548 184.075 360.171C180.377 359.759 177.279 358.797 174.98 357.168C172.25 355.233 170.757 352.426 170.729 348.712L170.729 348.563Z" fill="#D0D4D8"/>
<path d="M179.304 345.75C179.463 345.397 179.878 345.238 180.232 345.397C180.586 345.555 180.744 345.971 180.586 346.325C180.431 346.67 180.315 347.064 180.233 347.505C180.165 347.87 180.125 348.208 180.101 348.606L180.093 348.762L183.89 347.099C184.42 346.867 184.981 347.339 184.858 347.892L184.848 347.931L184.057 350.765L187.194 349.764C187.634 349.623 188.083 349.938 188.109 350.392L188.11 350.435L188.101 353.346L190.454 352.082C190.91 351.837 191.459 352.152 191.487 352.659L191.488 352.702L191.478 356.227C191.477 356.615 191.162 356.928 190.774 356.927C190.4 356.926 190.096 356.634 190.075 356.266L190.074 356.223L190.081 353.876L187.728 355.141C187.272 355.386 186.722 355.07 186.695 354.563L186.693 354.52L186.703 351.394L183.245 352.499C182.725 352.665 182.229 352.203 182.345 351.681L182.355 351.641L183.097 348.979L179.651 350.488C179.2 350.686 178.696 350.369 178.669 349.886L178.667 349.843L178.669 349.576C178.677 348.587 178.717 347.979 178.852 347.248C178.953 346.704 179.101 346.205 179.304 345.75Z" fill="black"/>
<path fill-rule="evenodd" clip-rule="evenodd" d="M179.567 343.549C179.604 341.286 181.067 339.615 182.99 339.615C183.937 339.615 184.71 340.021 185.247 340.767C185.759 341.482 186.033 342.485 186.033 343.638C186.033 344.701 185.414 345.66 184.358 346.379C183.422 347.015 182.221 347.398 181.215 347.398C180.73 347.398 180.373 347.309 180.128 347.131C179.895 346.965 179.744 346.721 179.655 346.377C179.579 346.079 179.55 345.717 179.548 345.193C179.548 345.117 179.548 345.046 179.549 344.966L179.563 344.108L179.567 343.549ZM183.983 341.675C183.736 341.332 183.43 341.171 182.99 341.171C181.958 341.171 181.123 342.142 181.123 343.638L181.121 343.978L181.107 344.874L181.105 345.188C181.106 345.468 181.115 345.675 181.134 345.824L181.136 345.841L181.17 345.842L181.215 345.842C181.903 345.842 182.801 345.556 183.483 345.092C184.146 344.641 184.477 344.128 184.477 343.638C184.477 342.79 184.289 342.102 183.983 341.675Z" fill="black"/>
<path fill-rule="evenodd" clip-rule="evenodd" d="M174.466 344.452C174.614 343.792 175.027 343.284 175.682 342.992C177.025 342.395 178.552 343.081 179.236 344.619L179.437 345.059L179.439 345.061L179.603 345.414L179.743 345.726C179.876 346.033 179.953 346.264 179.986 346.467C180.006 346.589 180.008 346.695 179.997 346.793L179.99 346.845L179.977 346.896L179.952 346.976L179.837 347.056L179.899 347.091C179.787 347.288 179.584 347.452 179.283 347.596L179.212 347.629C178.518 347.937 177.577 348.05 176.739 347.915C175.796 347.758 175.088 347.311 174.774 346.604C174.432 345.836 174.324 345.086 174.466 344.452ZM178.124 345.926L177.978 345.612L177.783 345.186C177.428 344.45 176.82 344.189 176.315 344.414C176.112 344.504 176.025 344.611 175.985 344.793C175.922 345.074 175.982 345.49 176.196 345.972C176.272 346.142 176.525 346.302 176.991 346.38C177.411 346.447 177.889 346.416 178.275 346.313L178.298 346.306L178.285 346.278L178.126 345.929L178.124 345.926Z" fill="black"/>
<path d="M201.404 356.723C199.811 356.14 198.124 355.698 194.888 354.953L196.252 358.92L196.199 363.433L205.415 363.54C205.791 363.545 206.465 363.045 206.15 361.01C205.757 358.468 203.668 357.55 201.404 356.723Z" fill="#EAF4FB"/>
<path d="M154.569 363.225L164.546 363.248L164.531 366.9C164.528 367.618 163.945 368.195 163.229 368.195L155.846 368.178C155.13 368.178 154.551 367.595 154.554 366.878L154.569 363.225Z" fill="#F0C533"/>
<path d="M163.605 363.245L174.88 363.268L174.865 366.923C174.862 367.638 174.279 368.218 173.563 368.215L164.882 368.198C164.166 368.195 163.587 367.613 163.59 366.898L163.605 363.245Z" fill="#F0C533"/>
<path d="M176.076 363.292L183.372 363.315L183.361 366.967C183.358 367.685 182.776 368.262 182.06 368.26L177.358 368.247C176.642 368.245 176.063 367.662 176.065 366.945L176.076 363.292Z" fill="#E7737A"/>
<path d="M183.632 363.315L190.927 363.338L190.917 366.99C190.914 367.708 190.332 368.285 189.616 368.283L184.914 368.27C184.198 368.268 183.619 367.685 183.621 366.968L183.632 363.315Z" fill="#E7737A"/>
<path d="M191.188 363.338L198.484 363.36L198.473 367.013C198.471 367.73 197.888 368.308 197.172 368.305L192.47 368.293C191.754 368.29 191.175 367.708 191.177 366.993L191.188 363.338Z" fill="#E7737A"/>
<path d="M198.75 363.358L205.892 363.378L205.881 367.033C205.879 367.748 205.297 368.328 204.581 368.325L200.033 368.313C199.316 368.31 198.737 367.728 198.74 367.01L198.75 363.358Z" fill="#E7737A"/>
<path d="M173.381 356.978C174.602 357.38 175.603 357.388 176.191 356.988C177.707 355.948 176.863 354.193 176.502 353.505C177.172 354.36 177.837 355.218 178.342 356.14C179.14 357.583 179.429 359.138 178.79 360.088C177.644 361.808 175.154 360.855 173.578 360.058L158.947 352.65L173.381 356.978Z" fill="black"/>
<path d="M198.373 177.416C204.219 176.377 209.8 180.273 210.839 186.118L210.951 186.764C212.153 193.831 213.119 204.486 213.392 215.13C213.748 229.011 212.969 242.058 210.799 252.972C209.641 258.795 203.981 262.577 198.158 261.419C192.335 260.261 188.553 254.601 189.711 248.778C191.508 239.742 192.203 228.354 191.909 216.091L191.899 215.682C191.644 205.733 190.725 195.809 189.671 189.882C188.632 184.036 192.528 178.455 198.373 177.416Z" fill="#EBBAAA"/>
<path d="M98.8798 154.375C105.005 145.625 121.88 147.375 132.255 142.5H171.005C185.255 147.375 193.642 145.25 200.005 154.375C209.505 168 214.255 194.125 216.755 217.75C216.755 217.75 207.255 218.049 202.88 219.375C198.505 220.701 190.13 223.625 190.13 223.625L183.38 200.5V207.375L185.255 232.25L187 257.75C178.833 259.167 163.58 261.875 155.38 262.375C147.18 262.875 123.88 261.583 113.255 259.75V232.25C113.255 232.25 114.63 225.75 113.255 219.375C112.769 217.123 111.642 212.07 110.583 207.216C100.338 206.785 82.3799 205.875 82.3799 205.875C82.3799 205.875 86.2854 185.411 90.0048 174.625C92.5049 167.375 94.6505 160.417 98.8798 154.375Z" fill="#EDEDF3"/>
<mask id="mask0_0_6219" style="mask-type:luminance" maskUnits="userSpaceOnUse" x="82" y="143" width="135" height="121">
<path fill-rule="evenodd" clip-rule="evenodd" d="M98.8798 155C105.005 146.25 121.88 148 132.255 143.125H171.005C185.255 148 193.642 145.875 200.005 155C209.505 168.625 214.255 194.75 216.755 218.375C216.755 218.375 207.255 218.674 202.88 220C198.505 221.326 190.13 224.25 190.13 224.25L185.387 208L187 232.875L190.13 258.125C181.963 259.542 163.58 262.5 155.38 263C147.18 263.5 122.875 261.583 112.25 259.75C112.25 252.167 108.63 232.875 108.63 232.875C108.63 232.875 110.005 230.625 108.63 224.25C108.098 221.782 108.634 214.262 108.852 207.768C98.4435 207.314 82.3799 206.5 82.3799 206.5C82.3799 206.5 86.2854 186.036 90.0048 175.25C92.5049 168 94.6505 161.042 98.8798 155Z" fill="white"/>
</mask>
<g mask="url(#mask0_0_6219)">
<path d="M141.75 191.625L78.8748 157.75L74.4998 191.625L78.8748 252.25L144.5 278.25L185.125 267.25L251.37 162.75L141.75 191.625Z" fill="#1F2123"/>
<path d="M103.504 167.625L94.0044 158L83.3794 172.25V177.375L98.7495 186.625L109.75 197L112.004 215.25L136.75 213.25L163.629 212.375L186 215.25L185.004 198.875C185.004 198.875 191.5 193.125 199.75 191.5C208 189.875 212.379 186.625 212.379 186.625H218.879L212.379 167.625L181.754 177.375L165.879 173.25H122.504L103.504 167.625Z" fill="#EDEDF3"/>
<path fill-rule="evenodd" clip-rule="evenodd" d="M158.386 190.758L163 198.467H155.589L151.184 191.102L147.847 185.529L151.184 183.518L153.285 182.25L158.386 190.758ZM151.184 195.435L152.993 198.467H145.587L141.475 191.604L141.295 191.305L141.475 191.198L146.74 188.019L151.184 195.435ZM142.992 198.467L141.475 195.93L140.194 193.795L134.75 197.075L135.581 198.467H142.992Z" fill="black"/>
</g>
<path d="M127.443 153.877L127.557 155.623C123.729 155.875 119.089 156.553 115.293 157.529L114.974 157.612C110.395 158.823 107.368 160.395 106.539 162.128L106.299 162.634C104.358 166.771 100.091 176.638 96.9593 184.124L96.5575 185.087L94.9421 184.414L95.6561 182.706C98.9033 174.966 103.193 165.068 104.96 161.373C106.112 158.965 109.615 157.181 114.857 155.834C118.649 154.86 123.225 154.178 127.083 153.902L127.443 153.877Z" fill="#DEDEE4"/>
<path d="M169.558 153.877C173.488 154.136 178.233 154.829 182.143 155.834C187.385 157.181 190.888 158.965 192.039 161.373L192.166 161.639C193.063 163.549 194.669 167.294 196.943 172.733L199.078 177.869L204.058 189.914L202.442 190.587L196.811 176.969L195.668 174.223C193.114 168.099 191.352 163.991 190.461 162.128C189.613 160.355 186.465 158.751 181.707 157.529C178.026 156.583 173.552 155.916 169.793 155.647L169.443 155.623L169.558 153.877Z" fill="#DEDEE4"/>
<path d="M149.63 171.5C161.918 171.5 171.88 162.881 171.88 152.25C171.88 141.619 161.918 133 149.63 133C137.341 133 127.38 141.619 127.38 152.25C127.38 162.881 137.341 171.5 149.63 171.5Z" fill="#DEDEE4"/>
<rect x="133.38" y="136.75" width="32.5" height="28.75" rx="14.375" fill="#EBBAAA"/>
<rect x="120.093" y="221.664" width="21.5" height="31" transform="rotate(19 120.093 221.664)" fill="#F54141"/>
<path d="M125.254 219.343L120.17 221.823L140.262 228.741L145.465 226.302L125.254 219.343Z" fill="#FF6464"/>
<path d="M135.295 255.454L130.21 257.934L140.262 228.741L145.465 226.302L135.295 255.454Z" fill="#C24545"/>
<rect x="117.081" y="230.41" width="21.5" height="2.25" transform="rotate(19 117.081 230.41)" fill="#FCAD37"/>
<rect x="111.058" y="247.902" width="21.5" height="3.25" transform="rotate(19 111.058 247.902)" fill="#FCAD37"/>
<rect x="120.093" y="221.664" width="21.5" height="3.25" transform="rotate(19 120.093 221.664)" fill="#FCAD37"/>
<path d="M92.2539 216.066C97.3953 213.097 103.97 214.858 106.939 219.999L107.194 220.444C107.702 221.334 108.193 222.227 108.729 223.229L110.645 226.853L110.907 227.341C111.847 229.078 112.549 230.241 113.327 231.33C115.195 233.944 117.749 236.38 122.128 239.418C127.006 242.803 128.217 249.501 124.832 254.378C121.447 259.256 114.749 260.467 109.872 257.082C103.554 252.698 99.2151 248.562 95.8328 243.828C94.4352 241.872 93.3 239.986 91.9441 237.473L91.6304 236.888C91.2524 236.178 90.218 234.209 90.0134 233.824L89.796 233.416C89.2625 232.419 88.7997 231.581 88.3204 230.751C85.3514 225.609 87.1125 219.035 92.2539 216.066Z" fill="#EBBAAA"/>
<path d="M103.625 253C86.825 246.2 82.6667 219.75 82.5 206.5C90.75 203.25 100.875 201.5 110.875 206.5C109.5 218.5 114.375 228.5 120.25 236.125C113.875 237.5 104.25 246.625 103.625 253Z" fill="#35383A"/>
<path d="M211.5 250.375C221.125 229.375 217.25 217.875 216.125 208.5C207.875 205.25 197.25 209 187.25 214C188.625 226 190.25 230.125 190.25 242.5C195.875 240.875 209 244 211.5 250.375Z" fill="#35383A"/>
<path d="M115.159 117.873C122.427 117.873 128.318 112.284 128.318 105.39C128.318 98.4967 122.427 92.9082 115.159 92.9082C107.891 92.9082 102 98.4967 102 105.39C102 112.284 107.891 117.873 115.159 117.873Z" fill="#EBBAAA"/>
<path d="M181.084 118.84C188.352 118.84 194.244 113.252 194.244 106.358C194.244 99.4644 188.352 93.876 181.084 93.876C173.816 93.876 167.925 99.4644 167.925 106.358C167.925 113.252 173.816 118.84 181.084 118.84Z" fill="#EBBAAA"/>
<path d="M109.861 95.4535C107.509 73.3415 124.533 53.9308 146.763 53.3783C169.121 52.8226 187.137 71.573 185.689 93.8915L185.295 99.9695L183.286 116.245C181.077 134.148 165.868 147.595 147.829 147.595C129.807 147.595 114.606 134.173 112.376 116.289L110.342 99.9695L109.861 95.4535Z" fill="#EED4CC"/>
<path d="M157.206 124.37C158.12 123.883 159.256 124.229 159.743 125.142C160.23 126.056 159.884 127.192 158.971 127.679C151.642 131.586 144.049 131.521 138.777 127.518C137.952 126.892 137.791 125.716 138.417 124.891C139.044 124.066 140.22 123.905 141.045 124.531C145.06 127.579 151.089 127.631 157.206 124.37Z" fill="#C99584"/>
<path d="M128.277 95.8943L128.828 95.8957C131.872 95.9124 133.624 96.0813 135.797 96.7487C137.117 97.154 137.859 98.5525 137.453 99.8724C137.048 101.192 135.649 101.934 134.33 101.528L134.14 101.472C132.536 101.004 131.079 100.894 128.277 100.894C126.896 100.894 125.777 99.775 125.777 98.3943C125.777 97.0136 126.896 95.8943 128.277 95.8943Z" fill="black"/>
<path d="M166.814 95.6519C168.194 95.6519 169.314 96.7711 169.314 98.1519C169.314 99.5326 168.194 100.652 166.814 100.652L166.333 100.653C163.736 100.666 162.347 100.799 160.762 101.286C159.442 101.692 158.043 100.95 157.638 99.6304C157.232 98.3106 157.974 96.912 159.293 96.5066L159.547 96.4303C161.732 95.789 163.549 95.6519 166.814 95.6519Z" fill="black"/>
<path d="M157.922 86.44L165.086 85.357C165.289 85.3262 165.49 85.423 165.593 85.601L168.018 89.7875C168.222 90.1412 167.939 90.578 167.532 90.5352L164.08 90.1712L158.007 90.565C157.407 90.604 156.908 90.1075 156.945 89.507L157.073 87.3687C157.102 86.8977 157.455 86.5105 157.922 86.44Z" fill="#393939"/>
<path d="M136.913 86.4443L129.398 85.3538C129.199 85.325 129.002 85.4183 128.898 85.5905L126.37 89.7818C126.157 90.1348 126.438 90.579 126.848 90.5375L130.468 90.1713L136.841 90.568C137.441 90.6053 137.939 90.1078 137.901 89.5073L137.767 87.3715C137.737 86.8993 137.381 86.5123 136.913 86.4443Z" fill="#393939"/>
<path d="M144.517 100.529L148.727 101.107L148.708 101.24C148.62 101.777 148.439 102.394 148.123 103.311L147.211 105.89C147.169 106.011 147.133 106.117 147.104 106.199L146.97 106.595C146.558 107.831 146.252 108.886 146.032 109.884C145.538 112.119 145.552 113.805 146.07 114.847C146.602 115.916 147.829 116.542 150.289 116.562L150.413 116.563V120.813C146.381 120.813 143.6 119.424 142.265 116.74C141.219 114.636 141.198 112.064 141.882 108.968C142.151 107.749 142.516 106.502 143.005 105.054L143.259 104.318C143.551 103.485 144.008 102.206 144.068 102.035L144.212 101.61C144.385 101.087 144.483 100.741 144.513 100.555L144.517 100.529Z" fill="#EBBAAA"/>
<path d="M146.564 31.503C149.445 31.6292 152.524 32.1605 154.266 32.9535C155.081 32.7723 155.905 32.6905 156.724 32.7167C158.505 32.7737 159.581 33.2416 160.222 33.9166C160.697 34.0734 161.162 34.3071 161.59 34.6116C178.201 38.2156 192.5 50.8747 192.5 78C192.5 85.7557 191.868 95.3045 191.071 98.031C189.738 96.9402 188.647 96.3343 187.799 95.9707C183.78 94.2485 186.446 115.36 181.114 112.694C181.114 90.1535 182.014 83.6408 179.902 81.4282C174.812 76.096 177.76 68.5095 174.812 66.886C173.482 66.1536 172.046 65.6264 170.51 65.2491L170.455 65.4507C169.922 67.375 169.288 68.5825 169.288 68.5825L169.131 68.326C168.841 67.8465 168.178 66.7292 167.396 65.2713C164.576 69.159 161.469 71.0065 156.11 71.0065L156.415 70.6345C158.172 68.4873 159.459 66.7258 160.373 64.944C158.063 65.7549 155.436 66.0588 152.652 66.0685L152.487 66.2547C151.246 67.6749 150.413 68.9275 150.413 69.8144C148.367 68.4167 147.235 67.1141 146.569 65.7232C144.845 65.5465 143.105 65.3196 141.381 65.0861C140.446 65.9846 139.782 66.8877 139.782 67.8555C138.389 66.5537 137.594 65.5376 137.107 64.5109C134.333 64.1551 131.681 63.8815 129.301 63.8883L129.542 64.1518C131.275 66.0338 132.924 67.4481 133.189 67.572C131.134 67.8496 126.695 67.0811 122.942 65.0404C116.329 68.2524 115.717 78.6317 115.431 82.1555C114.963 87.9342 111.069 81.1325 114.219 113.489C106.692 115.549 109.875 94.375 107.625 95.25L107.323 95.4545C106.751 95.8403 106.845 95.7605 106 96.5C105.203 93.7738 105.031 86.4368 104.52 77.5C103.149 53.5017 116.577 37.8564 132.776 34.2286C134.472 33.4022 136.154 32.8222 137.736 32.5432L138.098 32.4809C140.893 32.0087 142.924 31.9124 144.425 32.0304C145.171 31.6605 145.894 31.4736 146.564 31.503Z" fill="#8B572A"/>
<rect x="140.975" y="125" width="4.5" height="25" rx="2.25" transform="rotate(54 140.975 125)" fill="#EBEEF0"/>
<rect x="140.975" y="125" width="4.5" height="12.5" rx="2.25" transform="rotate(54 140.975 125)" fill="#FFA16C"/>
<path d="M122.072 141.515C122.803 142.52 124.21 142.743 125.215 142.012C126.22 141.282 126.443 139.875 125.713 138.87C124.982 137.864 123.575 137.641 122.57 138.372C121.565 139.102 121.342 140.509 122.072 141.515Z" fill="#FF4040"/>
<path d="M132.185 134.168C132.915 135.173 134.322 135.396 135.328 134.665C136.333 133.935 136.556 132.528 135.825 131.523C135.095 130.517 133.688 130.295 132.683 131.025C131.677 131.755 131.454 133.162 132.185 134.168Z" fill="#EBEEF0"/>
</svg>
