<svg width="300" height="400" viewBox="0 0 300 400" fill="none" xmlns="http://www.w3.org/2000/svg">
<path d="M177.082 281.108L177.443 355.995L161.069 356.074L160.708 281.187L177.082 281.108Z" fill="#F6DDD6"/>
<path d="M128.682 271.022L145.056 271.046L144.936 355.323L128.562 355.3L128.682 271.022Z" fill="#F6DDD6"/>
<path d="M204.546 364.566C204.841 363.841 204.79 362.271 202.974 361.548C201.157 360.824 179.723 364.566 179.723 364.566C174.205 364.118 159.385 356.906 153.929 360.219C152.203 361.267 152.788 364.587 153.425 367.696C154.445 368.731 164.76 369.639 168.104 368.861C168.104 367.048 168.365 365.883 168.365 365.883C168.365 365.883 170.391 367.188 172.578 367.696C177.039 368.731 178.015 369.88 191.833 369.88C202.915 368.844 203.712 366.62 204.546 364.566Z" fill="#383129"/>
<path fill-rule="evenodd" clip-rule="evenodd" d="M154.784 362.452C155.139 362.667 155.558 362.843 156.087 363.001L156.019 363.231C155.471 363.069 155.034 362.885 154.659 362.658L154.784 362.452ZM202.436 363.991C202.884 363.653 203.244 363.327 203.487 363.04L203.671 363.196C203.415 363.497 203.042 363.836 202.581 364.184L202.436 363.991ZM199.983 365.468C200.428 365.251 200.85 365.022 201.246 364.786L201.369 364.993C200.968 365.232 200.539 365.464 200.089 365.685L199.983 365.468ZM198.671 366.05C198.231 366.226 197.78 366.389 197.319 366.536L197.392 366.765C197.858 366.616 198.315 366.452 198.76 366.274L198.671 366.05ZM194.525 367.21C194.998 367.132 195.467 367.036 195.932 366.924L195.988 367.158C195.518 367.272 195.043 367.369 194.564 367.448L194.525 367.21ZM193.096 367.392C192.619 367.434 192.141 367.458 191.663 367.463L191.665 367.704C192.15 367.699 192.634 367.675 193.118 367.632L193.096 367.392ZM188.782 367.424C189.259 367.438 189.74 367.449 190.224 367.456L190.221 367.696C189.735 367.69 189.253 367.679 188.775 367.665L188.782 367.424ZM187.34 367.368C186.855 367.345 186.375 367.318 185.899 367.287L185.883 367.527C186.361 367.558 186.842 367.585 187.329 367.608L187.34 367.368ZM183.024 367.047C183.497 367.095 183.976 367.14 184.461 367.18L184.441 367.42C183.954 367.38 183.474 367.335 182.999 367.286L183.024 367.047ZM181.591 366.885C181.106 366.825 180.63 366.761 180.161 366.693L180.126 366.931C180.597 367 181.075 367.064 181.561 367.124L181.591 366.885ZM177.319 366.213C177.781 366.303 178.254 366.389 178.737 366.47L178.697 366.708C178.212 366.626 177.737 366.54 177.273 366.449L177.319 366.213ZM175.906 365.918C175.422 365.81 174.954 365.697 174.506 365.581L174.445 365.814C174.897 365.931 175.367 366.044 175.854 366.153L175.906 365.918ZM173.116 365.195L173.049 365.426L172.765 365.344L171.661 365.022L171.729 364.791L173.116 365.195ZM170.275 364.613L170.344 364.382L169.28 364.065L168.96 363.969L168.89 364.199L170.088 364.557L170.275 364.613ZM167.526 363.616L167.545 363.856C167.21 363.883 166.836 363.909 166.442 363.933L166.1 363.953L166.087 363.713C166.489 363.69 166.877 363.665 167.231 363.639L167.526 363.616ZM164.646 363.777C164.157 363.794 163.674 363.806 163.205 363.811L163.207 364.051C163.678 364.046 164.163 364.035 164.655 364.018L164.646 363.777ZM160.326 363.742C160.766 363.773 161.247 363.794 161.764 363.805L161.759 364.045C161.238 364.035 160.753 364.014 160.309 363.982L160.326 363.742ZM158.863 363.818L158.901 363.58L158.502 363.514C158.119 363.45 157.784 363.39 157.482 363.331L157.435 363.567L157.644 363.607C157.999 363.674 158.398 363.743 158.863 363.818Z" fill="#67513B"/>
<path d="M172.336 330.633C171.154 330.633 164.254 334.245 160.682 331.432C160.292 331.127 159.5 331.377 159.499 331.873C159.493 336.679 159.422 345.044 158.699 348.36C157.935 351.871 157.289 351.37 156.525 354.63C155.995 356.889 154.281 362.155 156.525 362.155H166.758C169.18 362.155 172.45 364.96 180.513 365.748C193.897 367.055 197.168 365.266 199.84 364.419C205.921 362.497 202.835 358.098 199.84 356.692C195.453 354.63 189.166 353.085 185.967 351.377C183.477 350.048 182.622 349.636 181.343 348.237C179.234 345.933 177.382 333.802 177.097 330.64C177.077 330.421 176.769 330.308 176.582 330.423C175.334 331.192 173.507 330.633 172.336 330.633Z" fill="#2D2B30"/>
<path d="M198.048 359.947C198.493 359.812 198.964 360.064 199.098 360.51C199.233 360.955 198.981 361.426 198.536 361.561C196.783 362.091 195.587 362.373 194.032 362.54C191.918 362.767 189.683 362.663 187.226 362.15C186.77 362.054 186.478 361.608 186.573 361.152C186.668 360.697 187.115 360.404 187.57 360.5C189.854 360.977 191.912 361.073 193.852 360.864C195.281 360.711 196.387 360.45 198.048 359.947Z" fill="#59555F"/>
<path d="M182.75 355.871C180.379 353.699 171.73 348.842 172.336 330.633C171.308 330.633 168.824 331.96 165.07 332.203C161.127 332.083 161.192 331.729 160.148 331.139C160.12 331.124 160.087 331.1 160.061 331.081C158.423 329.981 159.159 347.542 157.984 350.653C157.036 353.164 155.257 356.932 155.257 361.522C156.087 362.972 164.269 362.247 166.877 362.247C168.097 355.75 177.664 360.703 179.723 360.099C181.53 359.569 182.75 358.529 182.75 355.871Z" fill="#1D1D20"/>
<path d="M179.844 348.047C177.131 345.921 176.09 335.584 175.969 330.633C176.453 330.513 176.574 330.173 176.937 330.296C177.301 330.416 177.301 331.863 177.422 333.072C177.554 334.394 178.512 338.507 178.996 341.283C179.48 344.062 179.965 345.752 181.781 348.047C183.235 349.882 188.926 351.765 190.742 353.335C190.541 353.296 190.016 353.022 189.532 353.118C188.926 353.239 189.047 353.361 188.321 353.361C187.594 353.361 183.235 350.703 179.844 348.047Z" fill="#1D1D20"/>
<path d="M176.384 331.027C176.7 330.922 177.041 331.093 177.146 331.409C177.246 331.711 177.093 332.037 176.803 332.155L176.764 332.17L173.529 333.245L176.739 334.159C177.25 334.305 177.331 334.986 176.887 335.253L176.849 335.274L174.181 336.643L177.653 337.286C178.233 337.394 178.322 338.178 177.803 338.422L177.764 338.438L174.13 339.87L178.21 341.17C178.716 341.331 178.776 342.013 178.326 342.266L178.286 342.287L175.082 343.808L179.068 344.285C179.593 344.348 179.782 345.005 179.389 345.339L179.357 345.365L176.447 347.541L180.934 347.541C181.461 347.541 181.728 348.167 181.381 348.547L181.353 348.576L178.51 351.331L184.196 350.091C184.723 349.976 185.117 350.555 184.834 350.999L184.813 351.031L182.823 353.795L186.845 351.829C187.131 351.689 187.475 351.796 187.631 352.068L187.65 352.105C187.79 352.391 187.683 352.734 187.411 352.891L187.374 352.91L181.198 355.93C180.647 356.199 180.102 355.572 180.424 355.068L180.445 355.037L182.918 351.602L176.703 352.957C176.123 353.084 175.737 352.389 176.129 351.964L176.155 351.937L179.448 348.745L174.637 348.745C174.071 348.745 173.824 348.042 174.245 347.686L174.276 347.661L177.431 345.302L172.87 344.756C172.284 344.686 172.144 343.911 172.646 343.633L172.683 343.614L176.391 341.854L172.153 340.504C171.628 340.336 171.59 339.618 172.074 339.388L172.115 339.37L175.37 338.088L172.226 337.505C171.675 337.403 171.556 336.677 172.024 336.398L172.061 336.377L174.942 334.899L171.323 333.868C170.768 333.71 170.737 332.945 171.256 332.733L171.298 332.718L176.384 331.027Z" fill="black"/>
<path d="M99.7103 364.566C99.4156 363.841 99.4664 362.271 101.283 361.548C103.099 360.824 124.534 364.566 124.534 364.566C130.051 364.118 144.871 356.906 150.328 360.219C152.054 361.267 151.469 364.587 150.832 367.696C149.812 368.731 139.497 369.639 136.152 368.861C136.152 367.048 135.892 365.883 135.892 365.883C135.892 365.883 133.866 367.188 131.678 367.696C127.217 368.731 126.241 369.88 112.424 369.88C101.342 368.844 100.545 366.62 99.7103 364.566Z" fill="#383129"/>
<path fill-rule="evenodd" clip-rule="evenodd" d="M149.597 362.658C149.223 362.884 148.785 363.068 148.238 363.231L148.169 363C148.698 362.843 149.117 362.667 149.473 362.452L149.597 362.658ZM101.676 364.184C101.214 363.836 100.842 363.497 100.585 363.196L100.769 363.04C101.012 363.327 101.372 363.653 101.82 363.991L101.676 364.184ZM104.167 365.685C103.717 365.464 103.288 365.232 102.887 364.993L103.011 364.786C103.406 365.022 103.829 365.251 104.273 365.468L104.167 365.685ZM105.496 366.274C105.941 366.452 106.398 366.616 106.864 366.765L106.937 366.536C106.477 366.389 106.025 366.226 105.585 366.05L105.496 366.274ZM109.692 367.448C109.213 367.369 108.738 367.272 108.268 367.158L108.324 366.924C108.789 367.036 109.258 367.132 109.732 367.21L109.692 367.448ZM111.139 367.632C111.622 367.675 112.106 367.699 112.591 367.704L112.594 367.463C112.115 367.458 111.637 367.434 111.16 367.392L111.139 367.632ZM115.482 367.665C115.003 367.679 114.521 367.69 114.036 367.696L114.032 367.456C114.517 367.449 114.997 367.438 115.474 367.424L115.482 367.665ZM116.928 367.608C117.414 367.585 117.896 367.558 118.373 367.527L118.357 367.287C117.882 367.318 117.401 367.345 116.916 367.368L116.928 367.608ZM121.257 367.286C120.782 367.335 120.302 367.38 119.816 367.42L119.796 367.18C120.28 367.14 120.759 367.095 121.232 367.047L121.257 367.286ZM122.695 367.124C123.181 367.064 123.66 367 124.13 366.931L124.095 366.693C123.627 366.761 123.15 366.825 122.666 366.885L122.695 367.124ZM126.983 366.449C126.52 366.54 126.045 366.626 125.559 366.708L125.519 366.47C126.003 366.389 126.476 366.303 126.937 366.213L126.983 366.449ZM128.403 366.153C128.89 366.044 129.36 365.931 129.811 365.814L129.751 365.581C129.302 365.697 128.835 365.81 128.35 365.918L128.403 366.153ZM131.208 365.426L131.141 365.195L131.424 365.113L132.528 364.791L132.595 365.022L131.208 365.426ZM133.913 364.382L133.981 364.613L135.208 364.247L135.366 364.199L135.297 363.969L134.462 364.219C134.285 364.272 134.101 364.326 133.913 364.382ZM136.712 363.856L136.731 363.616C137.064 363.643 137.436 363.669 137.828 363.693L138.169 363.713L138.156 363.953C137.752 363.931 137.363 363.906 137.008 363.879L136.712 363.856ZM139.602 364.018C140.093 364.035 140.578 364.046 141.049 364.051L141.052 363.811C140.583 363.806 140.1 363.794 139.61 363.777L139.602 364.018ZM143.947 363.982C143.503 364.014 143.018 364.035 142.498 364.045L142.493 363.805C143.01 363.794 143.49 363.773 143.93 363.742L143.947 363.982ZM145.355 363.58L145.394 363.818L145.795 363.752C146.179 363.687 146.516 363.627 146.821 363.567L146.775 363.331L146.568 363.371C146.215 363.437 145.818 363.505 145.355 363.58Z" fill="#67513B"/>
<path d="M131.921 330.633C133.102 330.633 140.003 334.245 143.574 331.432C143.964 331.127 144.757 331.377 144.758 331.873C144.764 336.679 144.835 345.044 145.557 348.36C146.322 351.871 146.967 351.37 147.732 354.63C148.261 356.889 149.976 362.155 147.732 362.155H137.498C135.077 362.155 131.806 364.96 123.743 365.748C110.359 367.055 107.088 365.266 104.416 364.419C98.3354 362.497 101.421 358.098 104.416 356.692C108.803 354.63 115.091 353.085 118.289 351.377C120.78 350.048 121.635 349.636 122.913 348.237C125.022 345.933 126.875 333.802 127.16 330.64C127.18 330.421 127.487 330.308 127.675 330.423C128.922 331.192 130.749 330.633 131.921 330.633Z" fill="#2D2B30"/>
<path d="M105.158 360.51C105.293 360.064 105.763 359.812 106.209 359.947L106.569 360.055C108.035 360.488 109.081 360.722 110.404 360.864C112.345 361.073 114.403 360.977 116.686 360.5C117.142 360.404 117.588 360.697 117.683 361.152C117.778 361.608 117.486 362.054 117.031 362.15C114.573 362.663 112.338 362.767 110.224 362.54C108.669 362.373 107.473 362.091 105.72 361.561C105.275 361.426 105.023 360.955 105.158 360.51Z" fill="#59555F"/>
<path d="M121.506 355.871C123.878 353.699 132.526 348.842 131.921 330.633C132.948 330.633 135.432 331.96 139.187 332.203C143.129 332.083 143.064 331.729 144.108 331.139C144.137 331.124 144.169 331.1 144.196 331.081C145.834 329.981 145.097 347.542 146.272 350.653C147.221 353.164 148.999 356.932 148.999 361.522C148.169 362.972 139.988 362.247 137.379 362.247C136.159 355.75 126.592 360.703 124.534 360.099C122.727 359.569 121.506 358.529 121.506 355.871Z" fill="#1D1D20"/>
<path d="M124.413 348.047C127.125 345.921 128.167 335.584 128.288 330.633C127.803 330.513 127.682 330.173 127.319 330.296C126.956 330.416 126.956 331.863 126.835 333.072C126.702 334.394 125.745 338.507 125.26 341.283C124.776 344.062 124.292 345.752 122.475 348.047C121.022 349.882 115.33 351.765 113.514 353.335C113.716 353.296 114.24 353.022 114.725 353.118C115.33 353.239 115.209 353.361 115.936 353.361C116.662 353.361 121.022 350.703 124.413 348.047Z" fill="#1D1D20"/>
<path d="M127.111 331.409C127.211 331.106 127.528 330.937 127.832 331.016L127.872 331.027L132.958 332.718C133.506 332.9 133.504 333.665 132.976 333.854L132.933 333.868L129.314 334.899L132.195 336.377C132.694 336.633 132.6 337.362 132.072 337.496L132.03 337.505L128.886 338.088L132.141 339.37C132.654 339.572 132.644 340.291 132.146 340.488L132.103 340.504L127.865 341.854L131.573 343.614C132.106 343.867 131.992 344.647 131.428 344.75L131.387 344.756L126.825 345.302L129.98 347.661C130.433 348 130.21 348.711 129.66 348.744L129.62 348.745L124.808 348.745L128.101 351.937C128.527 352.35 128.162 353.056 127.591 352.965L127.554 352.957L121.338 351.602L123.811 355.037C124.169 355.535 123.643 356.178 123.093 355.945L123.058 355.93L116.882 352.91C116.584 352.764 116.46 352.404 116.606 352.105C116.746 351.819 117.083 351.693 117.373 351.812L117.411 351.829L121.433 353.795L119.443 351.031C119.128 350.593 119.503 350.001 120.023 350.084L120.06 350.091L125.746 351.331L122.904 348.576C122.525 348.209 122.769 347.574 123.282 347.543L123.323 347.541L127.81 347.541L124.9 345.365C124.476 345.048 124.64 344.385 125.148 344.292L125.189 344.285L129.175 343.808L125.971 342.287C125.491 342.059 125.524 341.375 126.004 341.185L126.046 341.17L130.126 339.87L126.493 338.438C125.943 338.222 126.006 337.435 126.562 337.296L126.604 337.286L130.075 336.643L127.407 335.274C126.935 335.031 126.988 334.348 127.476 334.173L127.517 334.159L130.727 333.245L127.492 332.17C127.19 332.069 127.02 331.752 127.099 331.448L127.111 331.409Z" fill="black"/>
<path d="M150.474 257.791C165.767 257.791 178.165 252.131 178.165 245.149C178.165 238.167 165.767 232.507 150.474 232.507C135.18 232.507 122.782 238.167 122.782 245.149C122.782 252.131 135.18 257.791 150.474 257.791Z" fill="#252424"/>
<path d="M150.233 238.046H181.536L176.961 333.4H159.101L150.233 238.046Z" fill="#252424"/>
<path d="M150.715 238.046H119.412L126.635 333.4H144.495L150.715 238.046Z" fill="#252424"/>
<path d="M102.259 165.53C103.803 154.01 114.479 145.984 125.975 147.702C137.228 149.384 145.048 159.786 143.536 171.063L136.558 223.13C135.014 234.65 124.337 242.676 112.841 240.958C101.588 239.276 93.7686 228.874 95.2801 217.597L102.259 165.53Z" fill="#A7AEBD"/>
<path d="M195.866 161.548C194.353 149.999 183.662 141.937 172.142 143.658C160.914 145.336 153.1 155.699 154.573 166.955L161.897 222.882C163.409 234.431 174.101 242.493 185.621 240.772C196.848 239.094 204.663 228.731 203.189 217.475L195.866 161.548Z" fill="#A7AEBD"/>
<path d="M133.859 232.259V147.026H166.607V232.259C166.607 232.259 155.127 234.434 150.233 234.434C145.339 234.434 133.859 232.259 133.859 232.259Z" fill="#252423"/>
<rect x="140.601" y="127.281" width="19.2635" height="27.932" rx="9.63173" fill="#EBBAAA"/>
<path d="M136.201 139.69C136.007 137.943 137.689 136.584 139.356 137.139L145.893 139.319C148.71 140.258 151.756 140.258 154.573 139.319L161.111 137.139C162.778 136.584 164.459 137.943 164.265 139.69L163.602 145.655C162.845 152.467 157.087 157.621 150.233 157.621C143.379 157.621 137.621 152.467 136.864 145.655L136.201 139.69Z" fill="#4D4946"/>
<path d="M134.1 241.657V227.451H166.848V241.657H134.1Z" fill="#4C4946"/>
<path d="M107.344 273.717L117.685 145.275L137.982 144.016L147.825 189.285C145.757 216.587 142.919 278.061 142.919 281.372C142.919 284.68 117.685 277.165 107.344 273.717Z" fill="#B9BEC8"/>
<path d="M124.781 229.675L115.182 248.648L112.233 244.894L121.932 228.36L124.781 229.675Z" fill="#A7AEBD"/>
<path d="M193.386 272.27L183.101 145.22L162.783 144.377L153.031 190.128C155.1 217.43 157.811 276.614 157.811 279.922C157.811 283.233 183.044 275.718 193.386 272.27Z" fill="#B9BEC8"/>
<path d="M173.116 229.434L182.716 248.407L185.664 244.653L175.966 228.119L173.116 229.434Z" fill="#A7AEBD"/>
<path d="M155.29 229.136L153.002 190.128L163.626 140.043L183.13 143.895L158.661 192.174L155.29 229.136Z" fill="#CBCED5"/>
<path d="M145.475 229.618L147.734 189.165L137.139 140.524L117.635 144.377L142.104 192.656L145.475 229.618Z" fill="#CBCED5"/>
<path d="M140.54 196.569C141.854 196.569 142.919 195.504 142.919 194.191C142.919 192.877 141.854 191.812 140.54 191.812C139.227 191.812 138.162 192.877 138.162 194.191C138.162 195.504 139.227 196.569 140.54 196.569Z" fill="#252424"/>
<path d="M139.092 228.835C140.406 228.835 141.471 227.77 141.471 226.457C141.471 225.143 140.406 224.078 139.092 224.078C137.779 224.078 136.714 225.143 136.714 226.457C136.714 227.77 137.779 228.835 139.092 228.835Z" fill="#252424"/>
<path d="M140.127 212.702C141.44 212.702 142.505 211.638 142.505 210.324C142.505 209.01 141.44 207.945 140.127 207.945C138.813 207.945 137.748 209.01 137.748 210.324C137.748 211.638 138.813 212.702 140.127 212.702Z" fill="#252424"/>
<path d="M137.231 244.348C138.545 244.348 139.61 243.283 139.61 241.969C139.61 240.655 138.545 239.591 137.231 239.591C135.917 239.591 134.852 240.655 134.852 241.969C134.852 243.283 135.917 244.348 137.231 244.348Z" fill="#252424"/>
<path d="M135.783 257.792C137.097 257.792 138.162 256.727 138.162 255.413C138.162 254.1 137.097 253.035 135.783 253.035C134.47 253.035 133.405 254.1 133.405 255.413C133.405 256.727 134.47 257.792 135.783 257.792Z" fill="#252424"/>
<path d="M188.818 116.053C190.665 113.248 188.646 96.7612 185.717 90.4741L164.789 117.604C164.789 121.738 165.564 123.546 173.057 123.546C180.009 123.546 185.33 121.35 188.818 116.053Z" fill="#3D230C"/>
<path d="M112.565 116.053C110.717 113.248 112.737 96.7612 115.665 90.4741L136.594 117.604C136.594 121.738 135.819 123.546 128.326 123.546C121.373 123.546 116.053 121.35 112.565 116.053Z" fill="#3D230C"/>
<path d="M188.278 104.887C193.598 104.887 197.91 100.574 197.91 95.255C197.91 89.9357 193.598 85.6233 188.278 85.6233C182.959 85.6233 178.647 89.9357 178.647 95.255C178.647 100.574 182.959 104.887 188.278 104.887Z" fill="#EBBAAA"/>
<path d="M112.669 104.887C107.35 104.887 103.038 100.574 103.038 95.255C103.038 89.9357 107.35 85.6233 112.669 85.6233C117.989 85.6233 122.301 89.9357 122.301 95.255C122.301 100.574 117.989 104.887 112.669 104.887Z" fill="#EBBAAA"/>
<path d="M113.873 74.7874C113.873 54.8394 130.044 38.6685 149.992 38.6685C169.94 38.6685 186.111 54.8394 186.111 74.7874V100.312C186.111 120.26 169.94 136.43 149.992 136.43C130.044 136.43 113.873 120.26 113.873 100.312V74.7874Z" fill="#F4D5CC"/>
<path fill-rule="evenodd" clip-rule="evenodd" d="M165.764 80.5667H169.376C175.491 80.5667 180.473 85.4727 180.572 91.5865L180.573 91.7635C180.573 97.9474 175.56 102.96 169.376 102.96H165.764C159.58 102.96 154.567 97.9474 154.567 91.7635C154.567 85.5797 159.58 80.5667 165.764 80.5667ZM169.376 82.4934H165.764C160.644 82.4934 156.494 86.644 156.494 91.7639C156.494 96.8839 160.644 101.034 165.764 101.034H169.376C174.496 101.034 178.647 96.8839 178.647 91.7717L178.646 91.6103C178.564 86.5555 174.439 82.4934 169.376 82.4934Z" fill="white" fill-opacity="0.75"/>
<path fill-rule="evenodd" clip-rule="evenodd" d="M131.09 80.5667H134.702C140.886 80.5667 145.899 85.5797 145.899 91.7635C145.899 97.9474 140.886 102.96 134.702 102.96H131.09C124.906 102.96 119.893 97.9474 119.893 91.7557L119.895 91.5787C119.994 85.4727 124.975 80.5667 131.09 80.5667ZM134.702 82.4934H131.09C126.027 82.4934 121.903 86.5555 121.821 91.6025L121.82 91.7639C121.82 96.8839 125.97 101.034 131.09 101.034H134.702C139.822 101.034 143.973 96.8839 143.973 91.7639C143.973 86.644 139.822 82.4934 134.702 82.4934Z" fill="white" fill-opacity="0.75"/>
<rect x="144.363" y="90.9207" width="12.0397" height="1.92635" fill="white" fill-opacity="0.75"/>
<path d="M165.051 84.0356C166.622 84.0356 167.9 85.2898 167.939 86.8517L167.94 86.9252V93.6409C167.94 95.2367 166.647 96.5304 165.051 96.5304C163.48 96.5304 162.201 95.2762 162.162 93.7143L162.161 93.6409V86.9252C162.161 85.3293 163.455 84.0356 165.051 84.0356Z" fill="black"/>
<path d="M134.933 84.0356C136.504 84.0356 137.783 85.2898 137.822 86.8517L137.823 86.9252V93.6409C137.823 95.2367 136.529 96.5304 134.933 96.5304C133.362 96.5304 132.084 95.2762 132.045 93.7143L132.044 93.6409V86.9252C132.044 85.3293 133.337 84.0356 134.933 84.0356Z" fill="black"/>
<path fill-rule="evenodd" clip-rule="evenodd" d="M158.693 113.219V116.558C158.693 121.686 154.535 125.845 149.406 125.845C144.278 125.845 140.12 121.686 140.12 116.558V113.219H158.693Z" fill="#393939"/>
<mask id="mask0_0_6310" style="mask-type:luminance" maskUnits="userSpaceOnUse" x="140" y="111" width="19" height="15">
<path fill-rule="evenodd" clip-rule="evenodd" d="M158.571 111.629C158.651 112.122 158.693 112.627 158.693 113.143V116.558C158.693 121.687 154.535 125.845 149.407 125.845C144.278 125.845 140.12 121.687 140.12 116.558V113.143C140.12 112.627 140.162 112.122 140.243 111.629H158.571Z" fill="white"/>
</mask>
<g mask="url(#mask0_0_6310)">
<path d="M148.911 129.113C145.818 129.113 143.311 127.747 143.311 126.063C143.311 124.378 145.818 123.013 148.911 123.013C152.004 123.013 154.512 124.378 154.512 126.063C154.512 127.747 152.004 129.113 148.911 129.113Z" fill="#FF6C6C"/>
<rect width="18.5735" height="3.8303" transform="matrix(-1 0 0 1 158.693 112.738)" fill="white"/>
</g>
<path d="M165.368 49.3867C153.906 43.0298 148.993 42.524 135.509 52.2763C121.904 48.7848 134.064 39.8753 139.362 37.2266C144.659 34.5779 156.579 33.6147 166.571 38.6714C176.564 43.728 179.695 57.3329 165.368 49.3867Z" fill="#311E1C"/>
<path d="M134.731 63.4703C117.514 68.527 113.3 76.8344 113.902 103.683C110.531 86.8273 100.401 86.0594 104.907 69.3527C112.415 41.518 144.879 16.2912 174.703 39.391C174.703 39.391 159.356 43.0764 144.724 50.8287C139.932 53.3673 140.484 61.7805 134.731 63.4703Z" fill="#321A04"/>
<path d="M153.754 68.2861C145.928 59.8584 145.928 51.7887 145.928 51.7887C145.928 51.7887 150.864 63.8314 160.255 68.2861C186.381 70.1954 185.899 92.3654 185.899 102.599C189.271 89.7167 197.853 86.0593 193.529 69.3526C186.326 41.5179 155.013 15.8663 126.398 38.9661C126.398 38.9661 125.22 65.6374 153.754 68.2861Z" fill="#4D2909"/>
<path d="M160.145 73.9688L173.652 74.2831C174.848 74.3109 175.796 75.3035 175.768 76.5C175.741 77.6748 174.783 78.6095 173.616 78.6167L173.551 78.6162L160.044 78.3019C158.847 78.2741 157.9 77.2815 157.928 76.085C157.955 74.9102 158.912 73.9755 160.08 73.9683L160.145 73.9688Z" fill="#393939"/>
<path d="M138.852 73.8975C140.048 73.8569 141.05 74.7937 141.091 75.9899C141.131 77.1643 140.228 78.1522 139.063 78.2261L138.999 78.2293L125.496 78.6875C124.299 78.7281 123.297 77.7913 123.256 76.5951C123.216 75.4207 124.119 74.4329 125.284 74.3589L125.349 74.3557L138.852 73.8975Z" fill="#393939"/>
<path d="M147.808 94.842L151.214 97.1127C150.056 98.8491 149.15 101.456 149.15 103.352C149.15 105.179 149.809 105.948 151.829 105.97L151.919 105.97V110.064C147.454 110.064 145.056 107.367 145.056 103.352C145.056 100.632 146.188 97.3303 147.724 94.9699L147.808 94.842Z" fill="#EBBAAA"/>
</svg>
