<svg width="300" height="400" viewBox="0 0 300 400" fill="none" xmlns="http://www.w3.org/2000/svg">
<path d="M161.53 324.736C161.883 321.025 165.178 318.302 168.889 318.655C172.563 319.005 175.268 322.237 174.979 325.903L174.97 326.014L171.845 358.889C171.492 362.6 168.197 365.322 164.486 364.97C160.812 364.62 158.107 361.388 158.396 357.722L158.405 357.611L161.53 324.736Z" fill="#EBBAAA"/>
<path d="M131.111 318.655C134.785 318.306 138.051 320.971 138.458 324.625L138.47 324.736L141.595 357.611C141.947 361.322 139.225 364.617 135.514 364.97C131.84 365.319 128.574 362.654 128.167 359L128.155 358.889L125.03 326.014C124.678 322.303 127.4 319.008 131.111 318.655Z" fill="#EBBAAA"/>
<path d="M99.4164 374.32C99.3669 368.648 100.143 365.195 105.096 362.878C110.049 360.558 114.715 356.1 123.284 352.278C123.284 352.278 124.412 352.068 126.248 353.055C127.815 353.9 129.827 355.97 132.86 355.943C136.152 355.913 139.087 355.22 140.91 354.265C141.697 352.118 143.445 352.103 143.445 352.103C143.445 352.103 145.905 356.765 145.946 361.45C145.987 366.133 145.982 373.913 145.982 373.913L99.4164 374.32Z" fill="#DCE1E6"/>
<path d="M121.494 352.615C121.835 352.462 122.236 352.616 122.388 352.957C122.875 354.05 122.984 355.082 122.984 356.848C122.984 357.322 122.511 357.644 122.074 357.483L122.035 357.467L118.77 356.033L119.465 358.539C119.605 359.045 119.143 359.505 118.645 359.376L118.606 359.364L115.322 358.31L115.322 361.263C115.322 361.761 114.805 362.083 114.362 361.877L114.325 361.858L112.097 360.656L112.097 362.87C112.097 363.23 111.816 363.524 111.461 363.546L111.42 363.547C111.06 363.547 110.766 363.266 110.744 362.911L110.743 362.87L110.743 359.523C110.743 359.024 111.26 358.702 111.703 358.908L111.741 358.927L113.969 360.129L113.969 357.383C113.969 356.938 114.388 356.619 114.812 356.726L114.853 356.738L117.826 357.692L117.085 355.021C116.936 354.484 117.462 354.013 117.973 354.206L118.009 354.22L121.61 355.802L121.607 355.725C121.562 354.833 121.444 354.194 121.185 353.584L121.152 353.508C121 353.167 121.153 352.767 121.494 352.615Z" fill="white"/>
<path d="M144.485 354.57C143.528 355.865 140.079 356.638 138.781 356.828C137.484 357.018 136.093 356.85 136.65 358.988C137.043 360.498 140.824 359.888 142.303 359.875C143.505 359.865 145.191 363.483 145.818 362.253C145.818 358.05 145.022 355.775 144.485 354.57Z" fill="#518C2D"/>
<path d="M101.291 363.31C102.81 362.762 104.42 362.347 107.505 361.65L106.194 365.41L106.231 369.692L97.4489 369.767C97.0905 369.772 96.4501 369.295 96.7559 367.365C97.1381 364.952 99.1313 364.09 101.291 363.31Z" fill="#EAF4FB"/>
<path d="M115.83 362.526L119.921 370.291L116.09 372.309L111.999 364.544L115.83 362.526Z" fill="#518C2D"/>
<path d="M121.468 359.588L126.37 368.918L122.536 370.932L117.634 361.602L121.468 359.588Z" fill="#518C2D"/>
<path d="M126.996 356.355L133.774 369.505L129.925 371.49L123.147 358.34L126.996 356.355Z" fill="#518C2D"/>
<path d="M146.128 373.17L145.874 368.678L106.496 369.288L96.6779 368.57L96.3801 372C96.2753 373.208 97.1805 374.265 98.3888 374.348L106.545 374.91L145.064 374.313C145.68 374.303 146.163 373.783 146.128 373.17Z" fill="#C7CBCF"/>
<path d="M200.584 374.32C200.633 368.648 199.857 365.195 194.904 362.878C189.951 360.558 185.285 356.1 176.716 352.278C176.716 352.278 175.588 352.068 173.752 353.055C172.185 353.9 170.173 355.97 167.14 355.943C163.848 355.913 160.913 355.22 159.09 354.265C158.303 352.118 156.555 352.103 156.555 352.103C156.555 352.103 154.095 356.765 154.054 361.45C154.013 366.133 154.018 373.913 154.018 373.913L200.584 374.32Z" fill="#DCE1E6"/>
<path d="M177.612 352.957C177.765 352.616 178.165 352.462 178.506 352.615C178.847 352.767 179.001 353.167 178.848 353.508C178.566 354.141 178.44 354.795 178.393 355.725L178.389 355.802L181.991 354.22C182.501 353.996 183.041 354.449 182.924 354.983L182.915 355.021L182.174 357.692L185.147 356.738C185.571 356.602 186.003 356.904 186.03 357.34L186.031 357.383L186.031 360.129L188.259 358.927C188.697 358.691 189.226 358.993 189.255 359.48L189.257 359.522L189.257 362.87C189.257 363.244 188.954 363.547 188.58 363.547C188.22 363.547 187.926 363.266 187.905 362.911L187.904 362.87L187.903 360.656L185.676 361.858C185.237 362.095 184.708 361.793 184.679 361.305L184.678 361.263L184.677 358.311L181.394 359.364C180.895 359.525 180.417 359.082 180.526 358.579L180.535 358.539L181.23 356.033L177.965 357.467C177.531 357.658 177.046 357.355 177.018 356.89L177.016 356.848L177.017 356.56C177.029 354.967 177.152 353.989 177.612 352.957Z" fill="white"/>
<path d="M155.515 354.57C156.472 355.865 159.921 356.638 161.219 356.828C162.516 357.018 163.907 356.85 163.351 358.988C162.957 360.498 159.176 359.888 157.697 359.875C156.495 359.865 154.81 363.483 154.182 362.253C154.182 358.05 154.978 355.775 155.515 354.57Z" fill="#518C2D"/>
<path d="M198.709 363.31C197.19 362.762 195.58 362.347 192.495 361.65L193.806 365.41L193.769 369.692L202.551 369.767C202.909 369.772 203.55 369.295 203.244 367.365C202.862 364.952 200.869 364.09 198.709 363.31Z" fill="#EAF4FB"/>
<path d="M184.17 362.526L188.001 364.544L183.91 372.309L180.079 370.291L184.17 362.526Z" fill="#518C2D"/>
<path d="M178.532 359.588L182.366 361.602L177.464 370.932L173.63 368.918L178.532 359.588Z" fill="#518C2D"/>
<path d="M173.004 356.355L176.853 358.34L170.075 371.49L166.226 369.505L173.004 356.355Z" fill="#518C2D"/>
<path d="M153.872 373.17L154.126 368.678L193.504 369.288L203.322 368.57L203.62 372C203.725 373.208 202.82 374.265 201.611 374.348L193.455 374.91L154.936 374.313C154.321 374.303 153.837 373.783 153.872 373.17Z" fill="#C7CBCF"/>
<path d="M150 269.5C165.878 269.5 178.75 262.896 178.75 254.75C178.75 246.604 165.878 240 150 240C134.122 240 121.25 246.604 121.25 254.75C121.25 262.896 134.122 269.5 150 269.5Z" fill="#4D5457"/>
<path d="M151.25 248.75H185L180.098 336.872L176.86 345.825L157.924 347.5L156.115 338.875L151.25 248.75Z" fill="#4D5457"/>
<path d="M156.25 345.5H177.5L176.463 351H157.22L156.25 345.5Z" fill="#434A4C"/>
<path d="M148.75 248.75H115L119.902 336.872L123.141 345.825L142.076 347.5L143.885 338.875L148.75 248.75Z" fill="#4D5457"/>
<path d="M143.75 345.5H122.5L123.536 351H142.78L143.75 345.5Z" fill="#434A4C"/>
<path d="M178.715 258.542C180.289 258.142 183.861 255.918 184.467 256.292C186.132 258.042 185.072 302.525 184.164 303.9C183.256 305.275 175.536 305.775 175.536 303.9C175.536 302.025 175.385 295.528 175.536 290.405C175.688 285.283 173.115 259.666 174.326 259.292C175.536 258.917 176.747 259.042 178.715 258.542Z" fill="#2F3034"/>
<path d="M176.747 260.416C177.958 260.291 182.953 258.541 184.466 257.417C185.526 258.541 187.342 266.289 185.375 267.288C183.407 268.288 178.261 268.163 177.655 267.288C177.05 266.413 175.536 260.541 176.747 260.416Z" fill="#3B4345"/>
<path fill-rule="evenodd" clip-rule="evenodd" d="M177.079 261.816L177.323 261.765C177.415 262.207 177.526 262.723 177.64 263.229L177.396 263.284C177.311 262.903 177.227 262.517 177.151 262.161L177.079 261.816ZM177.737 264.748L177.98 264.688C178.116 265.246 178.236 265.695 178.334 266.008L178.371 266.126L178.134 266.204C178.047 265.94 177.94 265.556 177.817 265.072L177.737 264.748ZM179.443 266.952C179.89 267.016 180.415 267.061 180.951 267.078L180.959 266.829C180.432 266.811 179.916 266.767 179.478 266.704L179.443 266.952ZM183.972 266.811C183.536 266.928 183.028 267.007 182.468 267.05L182.449 266.8C182.995 266.759 183.488 266.682 183.907 266.569L183.972 266.811Z" fill="black"/>
<path fill-rule="evenodd" clip-rule="evenodd" d="M184.106 256.931L184.221 257.153C183.96 257.289 183.664 257.44 183.354 257.596L182.881 257.831L182.77 257.607C183.141 257.424 183.506 257.24 183.835 257.071L184.106 256.931ZM181.421 258.257L181.527 258.483C181.015 258.722 180.552 258.929 180.152 259.096L180.056 258.866C180.373 258.733 180.731 258.575 181.122 258.396L181.421 258.257ZM178.706 259.576L178.658 259.33L178.489 259.363C178.136 259.429 177.694 259.506 177.185 259.589L177.225 259.836L177.595 259.774C178.032 259.701 178.408 259.634 178.706 259.576ZM174.949 259.934L175.704 259.822L175.742 260.069L175.215 260.147L175.268 260.883L175.019 260.901L174.949 259.934ZM175.127 262.396L175.234 263.892L175.484 263.874L175.376 262.378L175.127 262.396ZM175.449 266.885L175.342 265.389L175.591 265.371L175.698 266.867L175.449 266.885ZM175.556 268.38L175.662 269.876L175.911 269.858L175.805 268.363L175.556 268.38ZM175.874 272.869L175.768 271.373L176.018 271.355L176.124 272.851L175.874 272.869ZM175.98 274.365L176.085 275.862L176.334 275.844L176.229 274.348L175.98 274.365ZM176.292 278.855L176.189 277.359L176.438 277.341L176.541 278.838L176.292 278.855ZM176.393 280.351L176.471 281.54C176.477 281.637 176.483 281.739 176.489 281.846L176.739 281.832L176.727 281.624L176.642 280.334L176.393 280.351ZM176.547 283.341L176.797 283.334C176.803 283.562 176.809 283.802 176.814 284.052L176.828 284.836L176.578 284.84C176.573 284.5 176.567 284.178 176.56 283.872L176.547 283.341ZM176.846 286.338L176.596 286.34L176.602 287.324C176.603 287.493 176.603 287.665 176.604 287.839L176.854 287.839L176.851 287.071C176.849 286.821 176.848 286.576 176.846 286.338ZM176.605 289.338L176.855 289.339C176.855 289.533 176.855 289.73 176.854 289.929L176.851 290.839L176.601 290.838L176.602 290.531L176.605 289.338ZM176.593 292.338L176.581 293.838L176.831 293.84L176.843 292.339L176.593 292.338ZM176.55 296.837L176.567 295.337L176.817 295.34L176.8 296.84L176.55 296.837ZM176.53 298.336L176.509 299.835L176.759 299.839L176.78 298.339L176.53 298.336ZM176.486 301.335L176.736 301.339C176.724 302.078 176.721 302.298 176.721 302.384L176.722 302.43C176.73 302.516 176.769 302.632 176.838 302.756L176.619 302.877C176.523 302.704 176.471 302.534 176.471 302.4L176.486 301.335ZM177.837 303.878C178.272 304.05 178.782 304.138 179.366 304.127L179.361 303.877C178.81 303.887 178.332 303.805 177.929 303.646L177.837 303.878ZM182.311 303.44C181.803 303.645 181.323 303.802 180.869 303.915L180.809 303.672C181.251 303.563 181.72 303.409 182.217 303.208L182.311 303.44Z" fill="black"/>
<path d="M121.285 258.542C119.711 258.142 116.139 255.918 115.534 256.292C113.869 258.042 114.928 302.525 115.836 303.9C116.745 305.275 124.464 305.775 124.464 303.9C124.464 302.025 124.615 295.528 124.464 290.405C124.313 285.283 126.886 259.666 125.675 259.292C124.464 258.917 123.253 259.042 121.285 258.542Z" fill="#2F3034"/>
<path d="M123.253 260.416C122.042 260.291 117.047 258.541 115.534 257.417C114.474 258.541 112.658 266.289 114.625 267.288C116.593 268.288 121.739 268.163 122.345 267.288C122.95 266.413 124.464 260.541 123.253 260.416Z" fill="#3B4345"/>
<path fill-rule="evenodd" clip-rule="evenodd" d="M122.677 261.765L122.921 261.816C122.864 262.093 122.799 262.399 122.73 262.714L122.604 263.284L122.36 263.229C122.445 262.85 122.529 262.465 122.604 262.109L122.677 261.765ZM122.02 264.688L122.263 264.747C122.125 265.311 122.004 265.764 121.905 266.084L121.866 266.204L121.629 266.126C121.708 265.886 121.804 265.542 121.915 265.111L122.02 264.688ZM120.522 266.704C120.084 266.767 119.568 266.811 119.041 266.828L119.049 267.078C119.585 267.061 120.11 267.016 120.557 266.952L120.522 266.704ZM116.093 266.569C116.512 266.682 117.005 266.759 117.551 266.8L117.532 267.05C116.972 267.007 116.464 266.928 116.028 266.811L116.093 266.569Z" fill="black"/>
<path fill-rule="evenodd" clip-rule="evenodd" d="M115.779 257.153L115.894 256.931C116.198 257.09 116.549 257.268 116.914 257.451L117.23 257.608L117.119 257.832C116.801 257.674 116.485 257.516 116.194 257.367L115.779 257.153ZM118.473 258.483L118.579 258.257C119.088 258.494 119.548 258.7 119.944 258.865L119.848 259.096C119.528 258.963 119.168 258.803 118.774 258.623L118.473 258.483ZM121.342 259.33L121.294 259.575L121.649 259.642C121.969 259.701 122.349 259.766 122.775 259.836L122.815 259.589L122.329 259.508C121.944 259.443 121.611 259.383 121.342 259.33ZM124.785 260.147L124.259 260.069L124.296 259.822L125.051 259.934L124.981 260.9L124.732 260.882L124.785 260.147ZM124.624 262.378L124.516 263.874L124.766 263.892L124.873 262.396L124.624 262.378ZM124.302 266.867L124.409 265.371L124.658 265.389L124.551 266.885L124.302 266.867ZM124.195 268.362L124.089 269.858L124.338 269.876L124.444 268.38L124.195 268.362ZM123.876 272.851L123.982 271.355L124.232 271.372L124.126 272.869L123.876 272.851ZM123.771 274.347L123.666 275.844L123.915 275.861L124.02 274.365L123.771 274.347ZM123.459 278.838L123.562 277.341L123.811 277.358L123.708 278.855L123.459 278.838ZM123.358 280.334L123.28 281.524L123.262 281.832L123.511 281.846L123.529 281.54L123.607 280.35L123.358 280.334ZM123.203 283.334L123.453 283.341C123.445 283.625 123.438 283.927 123.432 284.247L123.422 284.84L123.172 284.836C123.178 284.428 123.186 284.043 123.194 283.685L123.203 283.334ZM123.404 286.339L123.154 286.337L123.151 286.822C123.149 287.151 123.147 287.49 123.146 287.838L123.396 287.839L123.401 286.824C123.402 286.66 123.403 286.498 123.404 286.339ZM123.145 289.338L123.395 289.338L123.395 289.631L123.399 290.838L123.149 290.839L123.148 290.532L123.145 289.338ZM123.157 292.339L123.169 293.84L123.419 293.837L123.407 292.337L123.157 292.339ZM123.2 296.84L123.183 295.34L123.433 295.337L123.45 296.837L123.2 296.84ZM123.22 298.339L123.241 299.839L123.491 299.835L123.47 298.335L123.22 298.339ZM123.264 301.339L123.514 301.335C123.525 302.027 123.528 302.264 123.529 302.363L123.527 302.446C123.517 302.571 123.466 302.723 123.381 302.877L123.162 302.756C123.239 302.616 123.279 302.486 123.279 302.4L123.264 301.339ZM122.071 303.646C121.668 303.805 121.19 303.887 120.639 303.877L120.634 304.127C121.218 304.138 121.728 304.05 122.163 303.878L122.071 303.646ZM117.783 303.208C118.28 303.409 118.749 303.562 119.191 303.672L119.131 303.915C118.677 303.802 118.197 303.645 117.689 303.44L117.783 303.208Z" fill="black"/>
<path d="M112.943 157.955C115.453 153.506 121.095 151.933 125.545 154.443C129.994 156.953 131.567 162.595 129.057 167.045C124.455 175.201 119.64 190.343 116.444 206.258C114.941 213.744 113.911 220.868 113.491 226.66L113.456 227.17C113.286 229.698 113.242 231.899 113.319 233.686L113.327 233.863C113.367 234.69 113.433 235.398 113.518 235.97L113.536 236.083C113.598 236.476 113.658 236.733 113.688 236.824L113.693 236.839C115.439 241.64 112.962 246.947 108.161 248.693C103.36 250.439 98.0527 247.962 96.3069 243.161C93.592 235.695 94.6795 220.676 98.306 202.616C101.852 184.956 107.203 168.131 112.943 157.955Z" fill="#EBBAAA"/>
<path d="M174.455 154.443C178.905 151.933 184.547 153.506 187.057 157.955C192.797 168.131 198.148 184.956 201.694 202.616C205.32 220.676 206.408 235.695 203.693 243.161C201.947 247.962 196.64 250.439 191.839 248.693C187.086 246.965 184.611 241.746 186.256 236.983L186.307 236.839C186.334 236.763 186.398 236.499 186.464 236.083C186.552 235.529 186.621 234.838 186.665 234.027L186.673 233.863C186.767 231.928 186.713 229.489 186.509 226.66L186.464 226.067C186.019 220.384 185.008 213.49 183.556 206.258C180.36 190.343 175.545 175.201 170.943 167.045C168.433 162.595 170.006 156.953 174.455 154.443Z" fill="#EBBAAA"/>
<path d="M194.34 152.544C190.562 142.164 179.085 136.813 168.706 140.591C158.326 144.368 152.975 155.845 156.752 166.225L175.564 217.908L213.151 204.227L194.34 152.544Z" fill="#373434"/>
<path d="M105.66 152.544C109.438 142.164 120.915 136.813 131.294 140.591C141.674 144.368 147.025 155.845 143.248 166.225L124.436 217.908L86.8486 204.227L105.66 152.544Z" fill="#373434"/>
<path d="M113.043 154.147C112.732 147.899 117.088 142.384 123.237 141.238L150 136.25L176.763 141.238C182.913 142.384 187.268 147.899 186.958 154.147L185 193.5L187.386 247.891C187.448 249.313 186.312 250.5 184.888 250.5H115.112C113.688 250.5 112.552 249.313 112.615 247.891L115 193.5L113.043 154.147Z" fill="#373434"/>
<mask id="mask0_0_6413" style="mask-type:luminance" maskUnits="userSpaceOnUse" x="86" y="136" width="128" height="115">
<path fill-rule="evenodd" clip-rule="evenodd" d="M114.095 214.144L86.8486 204.227L105.66 152.544C109.232 142.73 119.687 137.411 129.59 140.054L150 136.25L170.41 140.054C180.313 137.411 190.768 142.73 194.34 152.544L213.151 204.227L185.906 214.144L187.385 247.891C187.448 249.313 186.312 250.5 184.888 250.5H115.112C113.688 250.5 112.552 249.313 112.615 247.891L114.095 214.144Z" fill="white"/>
</mask>
<g mask="url(#mask0_0_6413)">
<path d="M195.269 148.201L197.231 152.8L178.011 161H121.989L102.769 152.8L104.731 148.201L123.011 156H176.989L195.269 148.201Z" fill="white"/>
<path d="M202.739 166.214L204.761 170.787L180.528 181.5H119.472L95.2391 170.787L97.2609 166.214L120.529 176.5H179.471L202.739 166.214Z" fill="white"/>
<path d="M210.22 184.222L212.28 188.778L183.039 202H116.961L87.72 188.778L89.78 184.222L118.039 197H181.961L210.22 184.222Z" fill="white"/>
<path d="M187.5 217V222H112.5V217H187.5Z" fill="white"/>
<path d="M187.5 237V242H112.5V237H187.5Z" fill="white"/>
</g>
<rect x="140" y="101.75" width="20" height="48.75" rx="10" fill="#EBBAAA"/>
<path d="M140 139.25C140 133.727 144.477 129.25 150 129.25C155.523 129.25 160 133.727 160 139.25V140.5C160 146.023 155.523 150.5 150 150.5C144.477 150.5 140 146.023 140 140.5V139.25Z" fill="#EBBAAA"/>
<path opacity="0.5" d="M186.25 98.0002C191.773 98.0002 196.25 93.523 196.25 88.0002C196.25 82.4775 191.773 78.0002 186.25 78.0002C180.727 78.0002 176.25 82.4775 176.25 88.0002C176.25 93.523 180.727 98.0002 186.25 98.0002Z" fill="#DE8E7C"/>
<path opacity="0.5" d="M113.75 98.0002C108.227 98.0002 103.75 93.523 103.75 88.0002C103.75 82.4775 108.227 78.0002 113.75 78.0002C119.273 78.0002 123.75 82.4775 123.75 88.0002C123.75 93.523 119.273 98.0002 113.75 98.0002Z" fill="#DE8E7C"/>
<path d="M112.5 63.5C112.5 42.7893 129.289 26 150 26C170.711 26 187.5 42.7893 187.5 63.5V93.5C187.5 114.211 170.711 131 150 131C129.289 131 112.5 114.211 112.5 93.5V63.5Z" fill="#F4D5CC"/>
<path d="M188.75 63.2502L186.75 51.25H178.75L180 62.5C180 62.5 183.532 66.8005 185 70C187.396 75.2227 187.5 84.5 187.5 84.5L188.75 63.2502Z" fill="#868686"/>
<path d="M111.25 63.2502L113.25 51.25H121.25L120 62.5C120 62.5 116.468 66.8005 115 70C112.603 75.2227 112.5 84.5 112.5 84.5L111.25 63.2502Z" fill="#868686"/>
<path fill-rule="evenodd" clip-rule="evenodd" d="M150.049 25C161.178 25.0421 191.576 30.875 188.825 63.25C186.913 60.7446 184.329 59.1518 181.645 57.6558L181.408 63.0585L166.448 54.0203L170.01 62.5148L153.171 54.5885L147.25 62.5148L126.783 57.2725L116.625 66L117.921 58.6952C115.739 59.9834 113.548 61.4391 111.274 63.25C107.772 32.25 138.817 25.0421 149.944 25H150.049Z" fill="#272727"/>
<path d="M174.5 68.25C175.743 68.25 176.75 69.2574 176.75 70.5C176.75 71.7205 175.778 72.7139 174.566 72.749L174.5 72.75H160.5C159.257 72.75 158.25 71.7426 158.25 70.5C158.25 69.2795 159.222 68.2861 160.434 68.251L160.5 68.25H174.5Z" fill="#393939"/>
<path d="M139.5 68.25C140.743 68.25 141.75 69.2574 141.75 70.5C141.75 71.7205 140.778 72.7139 139.566 72.749L139.5 72.75H125.5C124.257 72.75 123.25 71.7426 123.25 70.5C123.25 69.2795 124.222 68.2861 125.434 68.251L125.5 68.25H139.5Z" fill="#393939"/>
<path d="M169.5 78C170.743 78 171.75 79.0074 171.75 80.25C171.75 81.4705 170.778 82.4639 169.566 82.499L169.5 82.5H162C160.757 82.5 159.75 81.4926 159.75 80.25C159.75 79.0295 160.722 78.0361 161.934 78.001L162 78H169.5Z" fill="black"/>
<path d="M138 78C139.243 78 140.25 79.0074 140.25 80.25C140.25 81.4705 139.278 82.4639 138.066 82.499L138 82.5H130.5C129.257 82.5 128.25 81.4926 128.25 80.25C128.25 79.0295 129.222 78.0361 130.434 78.001L130.5 78H138Z" fill="black"/>
<path d="M159.035 108.334C159.955 107.801 161.132 108.115 161.665 109.035C162.188 109.936 161.897 111.084 161.021 111.632L160.965 111.665C160.918 111.693 160.849 111.731 160.759 111.778L160.713 111.802C160.542 111.89 160.343 111.986 160.118 112.087C159.495 112.368 158.77 112.644 157.947 112.901C155.631 113.62 152.971 114.05 150 114.05C147.029 114.05 144.369 113.62 142.053 112.901C141.23 112.644 140.505 112.368 139.882 112.087C139.694 112.003 139.525 111.922 139.375 111.847L139.287 111.802C139.175 111.744 139.09 111.698 139.035 111.665C138.115 111.132 137.801 109.955 138.335 109.035C138.857 108.134 139.998 107.814 140.909 108.303L141.018 108.363C141.093 108.403 141.223 108.468 141.405 108.551L141.462 108.577C141.946 108.794 142.525 109.016 143.197 109.224C145.152 109.833 147.429 110.2 150 110.2C152.571 110.2 154.848 109.833 156.803 109.224C157.423 109.032 157.965 108.828 158.425 108.627L158.538 108.577C158.751 108.481 158.9 108.407 158.982 108.363L159.035 108.334Z" fill="#C99584"/>
<path d="M147.732 84.3213L151.268 86.6788C150.066 88.4816 149.125 91.1877 149.125 93.1563C149.125 95.0546 149.81 95.8525 151.909 95.8746L152 95.875V100.125C147.364 100.125 144.875 97.3246 144.875 93.1562C144.875 90.3325 146.05 86.9047 147.644 84.454L147.732 84.3213Z" fill="#EBBAAA"/>
</svg>
