<svg width="300" height="400" viewBox="0 0 300 400" fill="none" xmlns="http://www.w3.org/2000/svg">
<path d="M145.62 282.285C160.524 282.285 172.606 276.563 172.606 269.501C172.606 262.443 160.524 256.719 145.62 256.719C130.716 256.719 118.634 262.443 118.634 269.501C118.634 276.563 130.716 282.285 145.62 282.285Z" fill="#1B1E21"/>
<path d="M165.524 312.194C168.973 312.194 171.776 314.963 171.832 318.399L171.833 318.503V357.759C171.833 361.243 169.008 364.068 165.524 364.068C162.074 364.068 159.271 361.299 159.216 357.863L159.215 357.759V318.503C159.215 315.019 162.039 312.194 165.524 312.194Z" fill="#EBBAAA"/>
<path d="M133.047 312.232C136.476 311.857 139.563 314.305 139.992 317.714L140.004 317.818L143.913 353.587C144.292 357.051 141.791 360.166 138.327 360.544C134.898 360.919 131.811 358.472 131.382 355.062L131.37 354.958L127.461 319.189C127.082 315.725 129.583 312.61 133.047 312.232Z" fill="#EBBAAA"/>
<path d="M143.717 351.001C136.8 352.403 132.189 351.585 130.982 351.001L131.683 358.829L139.043 362.334L144.651 357.661C144.418 355.675 143.95 353.338 143.717 351.001Z" fill="#3F4248"/>
<path d="M159.139 351.235C166.055 352.637 170.666 351.819 171.873 351.235V359.063L164.513 362.568L158.905 357.894C159.139 355.908 158.905 353.572 159.139 351.235Z" fill="#3F4248"/>
<path d="M116.612 255.199H148.156L146.988 343.173V348.83H125.491L124.53 341.657L116.612 255.199Z" fill="#1B1E21"/>
<path d="M147.856 256.606H179.508L178.126 342.589L176.724 349.132L156.396 350.534L155.634 343.524L147.856 256.606Z" fill="#1B1E21"/>
<path d="M124.089 347.263H147.455V352.871H124.74L124.089 347.263Z" fill="#0A0A0B"/>
<path d="M155.634 347.73H177.598L176.663 352.871H156.508L155.634 347.73Z" fill="#0A0A0B"/>
<path d="M198.433 367.592C198.433 360.418 193.824 359.542 186.311 357.084C182.632 355.88 178.877 354.831 175.067 354.2C172.672 353.803 172.029 355.908 167.823 355.908C164.072 355.908 159.393 354.051 158.424 353.649C158.302 353.597 158.158 353.553 158.061 353.642C158.038 353.663 158.018 353.691 158.004 353.719C157.556 354.64 155.205 359.659 155.205 363.675C155.205 366.748 154.942 369.769 155.789 371.33C156.171 372.034 158.558 372.419 159.36 372.419H197.133C197.851 372.419 198.433 368.309 198.433 367.592Z" fill="#678EAB"/>
<mask id="mask0_0_6524" style="mask-type:luminance" maskUnits="userSpaceOnUse" x="155" y="352" width="44" height="21">
<path fill-rule="evenodd" clip-rule="evenodd" d="M198.433 367.591C198.433 363.907 197.217 361.883 195.015 360.453C184.54 353.653 170.957 353.333 158.476 352.871C158.374 352.871 158.048 353.628 158.004 353.719C157.556 354.639 155.205 359.659 155.205 363.675C155.205 366.748 154.942 369.769 155.789 371.33C156.171 372.033 158.558 372.419 159.36 372.419H197.133C197.851 372.419 198.433 368.309 198.433 367.591Z" fill="white"/>
</mask>
<g mask="url(#mask0_0_6524)">
<path d="M192.942 362.685C196.564 362.685 197.576 360.582 197.966 360.231C198.667 361.049 198.082 364.344 198.55 365.839C199.017 367.335 198.355 368.8 197.966 369.344L165.369 370.863C165.175 367.748 164.902 361.516 165.369 361.516C165.954 361.516 169.692 356.493 171.678 356.376C173.267 356.282 180.986 358.285 184.647 359.297C184.179 359.764 183.408 362.147 183.128 363.269C182.777 364.671 182.661 364.671 183.946 365.021C185.231 365.372 185.465 362.685 186.867 362.685H192.942Z" fill="#35455F"/>
<path d="M168.173 361.633C167.613 360.699 158.593 359.374 154.971 358.946L153.336 368.994L171.562 370.045C170.666 367.631 168.734 362.568 168.173 361.633Z" fill="#071427"/>
<path d="M177.754 368.877C183.712 368.643 188.853 370.045 195.395 368.643C207.079 367.358 201.076 368.122 204.041 373.805H158.223C153.686 372.732 152.181 366.122 155.556 366.657C162.916 367.825 173.195 369.057 177.754 368.877Z" fill="#D1CEC8"/>
<path d="M153.803 368.643C155.392 369.297 176.936 369.344 177.637 368.877C176.001 368.526 163.963 367.162 161.28 367.007C157.191 366.774 155.633 366.463 153.803 366.54C153.141 367.007 152.214 367.989 153.803 368.643Z" fill="#DEDEDE"/>
<path d="M175.19 353.424C175.53 353.218 175.973 353.326 176.179 353.665C176.386 354.005 176.278 354.447 175.938 354.654L175.729 354.776C175.453 354.936 175.005 355.192 174.815 355.306L174.701 355.375L174.551 355.47L179.655 354.296C180.299 354.148 180.778 354.869 180.412 355.402L180.388 355.435L178.991 357.258L184.684 355.639C185.386 355.439 185.896 356.286 185.416 356.813L185.387 356.842L182.281 359.924C181.999 360.204 181.543 360.202 181.263 359.92C180.994 359.649 180.985 359.219 181.235 358.937L181.267 358.902L182.391 357.787L177.297 359.236C176.644 359.422 176.128 358.686 176.505 358.139L176.529 358.107L178.029 356.147L172.891 357.329C172.455 357.43 172.037 357.112 172.011 356.671L172.01 356.628C172.01 355.64 172.692 354.926 173.947 354.149L174.102 354.055C174.402 353.877 175.081 353.491 175.19 353.424Z" fill="#0980D0"/>
<path fill-rule="evenodd" clip-rule="evenodd" d="M173.619 351.128C173.656 349.04 175.037 347.497 176.857 347.497C177.755 347.497 178.487 347.871 178.992 348.561C179.476 349.222 179.735 350.149 179.735 351.214C179.735 352.198 179.151 353.083 178.152 353.748C177.267 354.337 176.131 354.691 175.178 354.691C174.72 354.691 174.384 354.609 174.147 354.442C173.927 354.289 173.785 354.064 173.702 353.747C173.63 353.472 173.602 353.137 173.601 352.651L173.601 352.494L173.616 351.554L173.619 351.128ZM177.831 349.412C177.595 349.09 177.294 348.936 176.857 348.936C175.852 348.936 175.058 349.839 175.058 351.214L175.056 351.507L175.042 352.366C175.041 352.455 175.04 352.521 175.04 352.588L175.042 352.804C175.045 352.976 175.053 353.112 175.066 353.217L175.07 353.249L175.104 353.25L175.178 353.252C175.843 353.252 176.703 352.984 177.354 352.55C177.985 352.13 178.296 351.659 178.296 351.214C178.296 350.437 178.12 349.806 177.831 349.412Z" fill="#0980D0"/>
<path fill-rule="evenodd" clip-rule="evenodd" d="M170.102 350.638C169.492 350.911 169.107 351.384 168.97 351.999C168.838 352.586 168.939 353.285 169.257 354.002C169.551 354.66 170.211 355.076 171.088 355.219C171.863 355.347 172.74 355.241 173.387 354.954L173.456 354.922C173.676 354.816 173.834 354.702 173.94 354.576L173.971 354.538L173.985 354.519L174.003 354.493L174.018 354.463L174.045 354.416C174.063 354.385 174.068 354.37 174.081 354.334L174.081 354.334L174.094 354.291L174.105 354.247L174.115 354.19C174.129 354.095 174.126 353.991 174.108 353.876C174.077 353.686 174.006 353.474 173.884 353.19L173.814 353.031L173.453 352.251C173.439 352.22 173.425 352.188 173.409 352.153C172.772 350.722 171.351 350.083 170.102 350.638ZM172.807 353.971L172.697 353.949L172.702 353.924L172.72 353.864L172.737 353.827L172.774 353.747L172.803 353.698L173.076 353.466L173.082 353.464C173.152 353.44 173.25 353.416 173.4 353.377L172.807 353.971ZM172.094 352.738L172.064 352.672C171.731 351.987 171.16 351.742 170.688 351.952C170.496 352.038 170.413 352.14 170.374 352.313C170.316 352.574 170.372 352.966 170.572 353.415C170.643 353.576 170.882 353.726 171.321 353.798C171.705 353.862 172.142 353.835 172.499 353.742L172.549 353.728L172.465 353.541L172.223 353.019L172.094 352.738Z" fill="#0980D0"/>
</g>
<path d="M104.695 367.592C104.695 360.418 109.304 359.542 116.816 357.084C120.496 355.88 124.251 354.831 128.061 354.2C130.456 353.803 131.099 355.908 135.305 355.908C139.056 355.908 143.735 354.051 144.704 353.649C144.825 353.597 144.969 353.553 145.066 353.642C145.09 353.663 145.109 353.691 145.124 353.719C145.572 354.64 147.923 359.659 147.923 363.675C147.923 366.748 148.186 369.769 147.339 371.33C146.956 372.034 144.569 372.419 143.768 372.419H105.994C105.277 372.419 104.695 368.309 104.695 367.592Z" fill="#678EAB"/>
<mask id="mask1_0_6524" style="mask-type:luminance" maskUnits="userSpaceOnUse" x="104" y="352" width="44" height="21">
<path fill-rule="evenodd" clip-rule="evenodd" d="M104.695 367.591C104.695 363.907 105.911 361.883 108.113 360.453C118.588 353.653 132.17 353.333 144.651 352.871C144.753 352.871 145.079 353.628 145.124 353.719C145.572 354.639 147.923 359.659 147.923 363.675C147.923 366.748 148.186 369.769 147.339 371.33C146.956 372.033 144.569 372.419 143.768 372.419H105.994C105.277 372.419 104.695 368.309 104.695 367.591Z" fill="white"/>
</mask>
<g mask="url(#mask1_0_6524)">
<path d="M110.186 362.685C106.564 362.685 105.551 360.582 105.162 360.231C104.461 361.049 105.045 364.344 104.578 365.839C104.111 367.335 104.773 368.8 105.162 369.344L137.758 370.863C137.953 367.748 138.226 361.516 137.758 361.516C137.174 361.516 133.435 356.493 131.449 356.376C129.86 356.282 122.142 358.285 118.481 359.297C118.948 359.764 119.719 362.147 120 363.269C120.35 364.671 120.467 364.671 119.182 365.021C117.897 365.372 117.663 362.685 116.261 362.685H110.186Z" fill="#35455F"/>
<path d="M134.954 361.633C135.515 360.699 144.535 359.374 148.156 358.946L149.792 368.994L131.566 370.045C132.462 367.631 134.394 362.568 134.954 361.633Z" fill="#071427"/>
<path d="M125.374 368.877C119.416 368.643 114.275 370.045 107.732 368.643C96.0492 367.358 102.052 368.122 99.0868 373.805H144.905C149.442 372.732 150.947 366.122 147.572 366.657C140.212 367.825 129.933 369.057 125.374 368.877Z" fill="#D1CEC8"/>
<path d="M149.325 368.643C147.736 369.297 126.192 369.344 125.491 368.877C127.127 368.526 139.165 367.162 141.847 367.007C145.937 366.774 147.494 366.463 149.325 366.54C149.987 367.007 150.914 367.989 149.325 368.643Z" fill="#DEDEDE"/>
<path d="M126.948 353.665C127.155 353.326 127.597 353.218 127.937 353.424L128.302 353.636C128.582 353.797 128.939 354.002 129.092 354.095C130.404 354.893 131.117 355.617 131.117 356.628C131.117 357.076 130.714 357.412 130.279 357.338L130.236 357.329L125.098 356.147L126.599 358.107C127.012 358.646 126.517 359.396 125.87 359.246L125.831 359.236L120.737 357.787L121.86 358.903C122.131 359.171 122.144 359.602 121.897 359.886L121.864 359.92C121.596 360.191 121.165 360.204 120.881 359.956L120.847 359.924L117.74 356.842C117.222 356.328 117.71 355.468 118.405 355.629L118.444 355.639L124.136 357.258L122.74 355.435C122.338 354.91 122.796 354.175 123.432 354.288L123.472 354.296L128.576 355.47L128.426 355.375L128.277 355.284C127.993 355.116 127.32 354.734 127.189 354.654C126.849 354.447 126.742 354.005 126.948 353.665Z" fill="#0980D0"/>
<path fill-rule="evenodd" clip-rule="evenodd" d="M124.135 348.563C124.641 347.872 125.372 347.497 126.271 347.497C128.115 347.497 129.509 349.082 129.509 351.214L129.511 351.488L129.526 352.476L129.526 352.747C129.521 353.182 129.492 353.49 129.425 353.747C129.342 354.063 129.201 354.288 128.981 354.442C128.742 354.609 128.407 354.691 127.95 354.691C126.997 354.691 125.86 354.337 124.975 353.748C123.977 353.083 123.392 352.198 123.392 351.214C123.392 350.149 123.651 349.221 124.135 348.563ZM128.069 351.138C128.041 349.806 127.258 348.936 126.271 348.936C125.834 348.936 125.533 349.09 125.296 349.413C125.008 349.806 124.832 350.436 124.832 351.214C124.832 351.659 125.143 352.13 125.773 352.55C126.425 352.984 127.285 353.252 127.95 353.252C127.985 353.252 128.017 353.251 128.046 353.25L128.058 353.249L128.062 353.217C128.076 353.096 128.085 352.933 128.087 352.72L128.087 352.647C128.088 352.604 128.087 352.562 128.087 352.518L128.073 351.648L128.069 351.138Z" fill="#0980D0"/>
<path fill-rule="evenodd" clip-rule="evenodd" d="M129.534 352.555L129.333 352.988C129.319 353.018 129.307 353.045 129.295 353.072L129.278 353.111C129.135 353.434 129.054 353.668 129.02 353.874C129.001 353.991 128.999 354.095 129.012 354.19L129.024 354.254C129.027 354.28 129.03 354.298 129.039 354.322L129.053 354.351L129.057 354.362C129.065 354.383 129.072 354.398 129.087 354.424L129.131 354.497L129.129 354.499C129.242 354.669 129.436 354.818 129.739 354.953C130.388 355.241 131.265 355.347 132.041 355.219C132.917 355.075 133.577 354.659 133.87 354.003C134.189 353.285 134.29 352.585 134.157 351.998C134.02 351.384 133.636 350.91 133.027 350.639C131.798 350.092 130.404 350.701 129.752 352.08L129.534 352.555ZM129.733 353.383L130.301 353.686L130.376 353.803C130.384 353.816 130.391 353.827 130.397 353.837L130.401 353.846L130.405 353.857L130.428 353.935C130.429 353.94 130.43 353.944 130.431 353.949L130.372 353.96L129.733 353.383ZM130.643 353.583L130.578 353.728L130.628 353.742C130.958 353.827 131.356 353.857 131.718 353.811L131.808 353.798C132.246 353.726 132.484 353.576 132.555 353.417C132.756 352.966 132.812 352.574 132.753 352.312C132.714 352.139 132.632 352.038 132.441 351.953C131.953 351.736 131.361 352.002 131.033 352.738L130.643 353.583Z" fill="#0980D0"/>
</g>
<path d="M102.302 190.963C104.473 186.711 109.681 185.025 113.934 187.197C118.186 189.369 119.872 194.576 117.7 198.829C114.527 205.041 112.517 215.117 112.901 224.36C113.31 234.228 116.271 241.725 121.193 245.407L121.343 245.518C125.206 248.324 126.062 253.731 123.255 257.594C120.448 261.457 115.041 262.313 111.179 259.506C101.206 252.259 96.2363 239.825 95.6245 225.076C95.1219 212.961 97.7208 199.931 102.302 190.963Z" fill="#EBBAAA"/>
<path d="M181.23 182.053C185.389 179.707 190.662 181.177 193.008 185.335C198.942 195.855 202.583 210.34 202.895 223.862C203.056 230.843 202.323 237.345 200.643 242.897C198.637 249.522 195.289 254.826 190.406 258.213C186.483 260.935 181.096 259.961 178.374 256.038C175.68 252.154 176.608 246.835 180.433 244.089L180.55 244.006C183.598 241.892 185.844 234.471 185.608 224.261C185.359 213.462 182.416 201.752 177.948 193.831C175.602 189.672 177.072 184.399 181.23 182.053Z" fill="#EBBAAA"/>
<path d="M118.377 172.976C118.572 164.934 125.01 158.441 133.05 158.179L151.818 157.565C153.348 157.516 154.88 157.596 156.395 157.806L174.715 160.339C182.798 161.457 188.55 168.764 187.736 176.883L184.27 211.439L186.008 260.946C186.026 261.37 165.872 260.968 165.448 260.946H133.05L114.635 258.167C114.228 258.146 113.917 257.792 113.951 257.385L117.549 207.135L118.377 172.976Z" fill="#1D1E1F"/>
<path d="M148.884 178.504C158.195 178.504 165.743 170.956 165.743 161.645C165.743 152.334 158.195 144.786 148.884 144.786C139.573 144.786 132.025 152.334 132.025 161.645C132.025 170.956 139.573 178.504 148.884 178.504Z" fill="#363535"/>
<rect x="139.745" y="143.507" width="20.5625" height="27.8061" rx="8.85846" fill="#EBBAAA"/>
<rect x="109.869" y="155.892" width="34.5151" height="84.0358" rx="17.2575" transform="rotate(16.5 109.869 155.892)" fill="#1E4295"/>
<path d="M105.366 255.029C101.854 252.133 92.9555 236.573 90.9089 229.613L113.791 217.628C115.971 226.695 121.644 236.919 125.799 247.794L125.769 247.814C121.671 250.583 109.746 258.64 105.366 255.029Z" fill="#1E4295"/>
<path d="M104.237 253.938L110.924 249.869C115.515 247.076 121.768 244.092 124.164 242.634L125.699 247.854C123.338 249.519 117.389 253.348 112.481 255.35C107.572 257.352 104.939 255.243 104.237 253.938Z" fill="#172F72"/>
<path d="M96.2828 217.345L113.224 222.486L94.764 220.734L96.2828 217.345Z" fill="#172F72"/>
<path d="M100.489 224.122L113.574 223.421L102.241 227.042L100.489 224.122Z" fill="#172F72"/>
<rect width="36.9155" height="90.7339" rx="18.4578" transform="matrix(-0.96141 0.275121 0.275121 0.96141 189.29 154.704)" fill="#1E4295"/>
<path d="M151.662 220.383C151.476 204.691 146.288 183.149 146.288 175.636C144.652 175.636 143.016 175.403 141.848 174.702C141.911 168.663 142.338 162.47 139.772 156.826L119.788 160.675C116.675 164.959 111.198 177.758 110.32 202.273C109.621 221.756 110.343 234.884 110.32 247.488C110.313 250.744 114.977 253.138 114.977 261.9C118.822 263.012 139.027 265.854 151.662 261.9C153.999 246.553 151.937 243.613 151.662 220.383Z" fill="#173988"/>
<path d="M133.669 258.12C128.435 258.494 119.182 256.835 113.808 254.965V262.91C116.845 265.247 124.673 265.013 128.996 265.013C134.37 265.013 143.016 266.649 152.362 265.247L151.895 258.12C148.624 258.821 138.903 257.746 133.669 258.12Z" fill="#172F72"/>
<path d="M197.835 255.062C201.11 251.9 207.884 240.318 209.379 233.219L186.505 218.436C185.043 227.646 177.97 234.281 174.68 245.448C178.954 247.871 193.742 259.014 197.835 255.062Z" fill="#1E4295"/>
<path d="M189.139 248.7C186.034 247.131 178.349 242.852 175.847 241.587C175.028 241.74 174.851 244.592 176.14 246.186C177.751 248.179 186.976 253.236 192.191 255.35C196.364 257.041 198.288 255.203 198.728 254.073C196.697 252.653 193.622 250.967 189.139 248.7Z" fill="#172F72"/>
<path d="M202.484 215.242L185.543 220.383L204.003 218.631L202.484 215.242Z" fill="#172F72"/>
<path d="M199.329 222.72L186.244 222.019L197.577 225.64L199.329 222.72Z" fill="#172F72"/>
<path d="M149.793 217.579C149.793 195.099 152.246 182.534 152.246 175.264C153.531 175.264 154.804 175.615 156.568 175.031C157.406 168.815 159.668 161.706 162.032 156.359L175.595 158.546C178.969 159.09 181.93 161.052 182.68 164.386C184.342 171.776 185.296 185.577 186.814 203.588C188.347 221.785 187.586 237.101 188.347 249.591C188.585 253.487 183.236 259.839 183.44 262.378C176.72 263.335 163.084 266.204 151.195 262.378C151.195 247.074 149.793 240.059 149.793 217.579Z" fill="#173988"/>
<path d="M166.382 259.405C171.616 259.779 181.804 259.288 186.244 255.666L186.711 263.845C182.038 265.013 175.612 265.948 173.86 265.948C166.292 265.948 159.84 267.116 150.493 265.714V257.886C153.764 258.587 161.148 259.031 166.382 259.405Z" fill="#172F72"/>
<path d="M147.339 249.357C147.339 243.002 146.365 203.559 144.651 184.866L142.198 175.052L147.222 175.286C147.621 178.526 148.507 180.777 149.909 187.553L152.245 175.286L156.218 175.052C156.218 179.414 154.465 189.165 154.465 193.278V266.181L147.339 265.714V249.357Z" fill="#143481"/>
<path d="M148.508 187.25L151.31 187.155L151.367 188.848C152.273 216.49 152.843 256.829 152.26 265.671L152.242 265.934L149.445 265.727C150.054 257.514 149.464 215.907 148.536 188.089L148.508 187.25Z" fill="#122865"/>
<path d="M175.423 159.864C178.04 158.555 172.151 155.891 169.581 154.489C167.478 153.866 162.851 152.433 160.234 156.359C158.46 159.021 153.414 167.575 152.237 175.286C150.96 181.595 150.996 183.501 152.83 181.244C166.499 164.42 172.151 161.499 175.423 159.864Z" fill="#172F72"/>
<path d="M125.024 160.331C122.407 159.023 128.295 156.359 130.866 154.957C132.969 154.334 137.595 152.901 140.212 156.826C142.033 159.558 145.445 167.845 147.455 176.22C148.857 182.062 148.545 182.763 147.455 181.595C134.487 167.691 128.295 161.967 125.024 160.331Z" fill="#172F72"/>
<path fill-rule="evenodd" clip-rule="evenodd" d="M151.194 186.735H148.507L148.273 188.605L147.544 193.468C147.375 194.598 148.25 195.615 149.393 195.615H150.309C151.452 195.615 152.327 194.598 152.157 193.468L151.428 188.605L151.194 186.735ZM148.857 189.072L149.091 187.436H150.739L150.96 189.072H148.857ZM149.234 194.68H150.614C151.277 194.68 151.775 194.074 151.646 193.423C151.548 192.931 151.116 192.577 150.614 192.577H149.234C148.741 192.577 148.314 192.919 148.207 193.4C148.062 194.057 148.561 194.68 149.234 194.68Z" fill="#09193F"/>
<path d="M149.17 186.381L149.311 187.828C149.341 188.136 149.6 188.371 149.909 188.371C150.218 188.371 150.477 188.136 150.507 187.828L150.648 186.381C150.69 185.945 150.347 185.567 149.909 185.567C149.471 185.567 149.128 185.945 149.17 186.381Z" fill="#2E4A7A"/>
<path d="M110.069 212.205C112.738 212.205 116.026 214.052 119.207 216.941C122.079 219.549 124.35 222.572 124.86 224.67C125.338 226.634 125.162 231.048 124.508 238.103L124.424 238.999C124.345 239.827 124.26 240.685 124.168 241.596L123.997 243.252C123.798 245.151 123.404 248.838 123.326 249.597L123.226 250.603C123.085 252.041 123.022 252.886 123.035 253.122C123.099 254.266 123.455 255.683 123.81 256.582L123.849 256.68L123.948 256.92L124.136 259.294L124.171 259.763C124.221 260.453 124.26 261.087 124.29 261.696L124.299 261.898C124.349 263.009 124.361 263.983 124.328 264.819L124.321 264.974L121.053 264.818C121.087 264.109 121.081 263.242 121.039 262.235L121.031 262.045C120.999 261.341 120.953 260.602 120.892 259.771L120.725 257.675L120.681 257.558C120.256 256.41 119.876 254.855 119.778 253.458L119.769 253.304L119.765 253.208C119.75 252.681 119.828 251.687 120.01 249.871L120.397 246.189C120.562 244.634 120.741 242.943 120.819 242.189L120.944 240.966C120.984 240.569 121.022 240.182 121.06 239.803L121.168 238.689C121.84 231.637 122.05 226.958 121.682 225.443C121.363 224.132 119.437 221.569 117.007 219.362C114.417 217.01 111.791 215.521 110.143 215.477L110.069 215.476V212.205Z" fill="#142C6F"/>
<path opacity="0.1" d="M110.164 213.491C112.022 213.375 115.003 215.093 118.048 217.802C120.92 220.357 123.186 223.222 123.612 224.974C124.05 226.774 123.856 231.318 123.186 238.438L123.145 238.877C123.066 239.702 122.982 240.557 122.889 241.466L122.719 243.119L122.023 249.706C121.823 251.678 121.734 252.775 121.751 253.171L121.752 253.194C121.824 254.492 122.214 256.042 122.617 257.062L122.682 257.22L122.855 259.365L122.904 260.032C122.956 260.752 122.995 261.412 123.021 262.047L123.029 262.237C123.065 263.175 123.072 264.016 123.044 264.755L123.037 264.912L122.337 264.88C122.369 264.176 122.367 263.367 122.336 262.46L122.328 262.264C122.3 261.516 122.253 260.737 122.189 259.864L121.991 257.383L121.968 257.325C121.553 256.278 121.157 254.727 121.061 253.376L121.052 253.232C121.033 252.894 121.083 252.139 121.209 250.822L121.351 249.394C121.44 248.527 121.935 243.888 122.09 242.386L122.222 241.095C122.303 240.299 122.377 239.543 122.447 238.811L122.547 237.741C123.158 231.09 123.329 226.777 122.931 225.139C122.069 221.599 113.708 214.133 110.309 214.186L110.208 214.19L110.164 213.491Z" fill="white"/>
<path d="M187.412 211.509V214.78C185.745 214.78 183.049 216.28 180.391 218.671L180.169 218.873C177.822 221.032 175.983 223.481 175.672 224.75C175.3 226.263 175.513 230.942 176.191 237.991L176.3 239.105C176.366 239.768 176.436 240.456 176.511 241.179L177.297 248.565C177.539 250.901 177.634 252.058 177.604 252.608C177.52 254.097 176.341 257.73 175.502 259.826L175.473 259.897L175.465 260.02L175.45 260.303C175.383 261.704 175.393 263.571 175.484 265.559L175.493 265.752L172.226 265.909L172.207 265.492C172.108 263.203 172.111 261.07 172.219 259.536L172.248 259.136L172.349 258.894C172.527 258.467 172.963 257.279 173.333 256.178L173.43 255.889C173.951 254.31 174.29 253.037 174.335 252.466L174.337 252.425C174.351 252.19 174.287 251.345 174.145 249.907L174.017 248.649C173.879 247.344 173.428 243.157 173.29 241.83L173.163 240.599C173.112 240.099 173.063 239.615 173.017 239.143L172.935 238.304C172.205 230.722 171.992 226.019 172.495 223.97C173.01 221.87 175.304 218.847 178.203 216.239C181.367 213.393 184.636 211.559 187.301 211.51L187.412 211.509Z" fill="#142C6F"/>
<path opacity="0.1" d="M179.36 217.105C182.394 214.432 185.364 212.723 187.242 212.791L187.316 212.794L187.273 213.494C183.907 213.286 175.302 220.868 174.424 224.444L174.399 224.551C174.009 226.355 174.227 231.001 174.912 238.114L174.966 238.668C175.039 239.413 175.116 240.186 175.201 241.003L176.019 248.697C176.249 250.922 176.345 252.09 176.32 252.536C176.246 253.861 175.111 257.411 174.378 259.231L174.322 259.369L174.318 259.429C174.215 260.894 174.212 263.081 174.31 265.431L174.327 265.815L173.626 265.847L173.609 265.46C173.511 263.087 173.513 260.876 173.618 259.381L173.631 259.205L173.653 259.154C174.337 257.506 175.508 253.89 175.616 252.565L175.621 252.497C175.641 252.129 175.556 251.064 175.358 249.128L174.568 241.697L174.381 239.878C174.323 239.295 174.267 238.731 174.214 238.181L174.112 237.095C173.485 230.346 173.314 226.023 173.743 224.276C174.173 222.525 176.461 219.66 179.36 217.105Z" fill="white"/>
<path d="M168.497 161.616C169.18 161.64 170.019 161.88 170.584 162.249C171.355 162.751 171.617 163.482 171.117 164.259C170.607 165.052 169.879 165.052 169.184 164.463C168.77 164.111 168.371 163.571 168.013 162.956L167.946 162.84L168.557 162.495C168.894 163.092 169.276 163.621 169.638 163.928C170.041 164.269 170.277 164.27 170.527 163.88C170.793 163.466 170.679 163.147 170.201 162.836C169.773 162.557 169.109 162.358 168.563 162.322L168.473 162.317L168.497 161.616Z" fill="#1E1C1C"/>
<path d="M134.13 164.616C134.016 163.93 133.101 163.13 132.187 162.901C131.044 162.901 131.501 163.93 132.187 164.616C132.872 165.302 134.244 165.302 134.13 164.616Z" fill="#020D2B"/>
<path d="M132.631 163.466L132.656 164.166C132.108 164.185 131.41 164.385 130.969 164.672C130.505 164.975 130.395 165.283 130.652 165.684C130.894 166.06 131.12 166.06 131.511 165.729C131.843 165.447 132.194 164.972 132.508 164.431L132.567 164.329L133.177 164.674C132.811 165.323 132.396 165.898 131.964 166.263C131.282 166.843 130.564 166.843 130.063 166.063C129.571 165.298 129.828 164.579 130.586 164.085C131.114 163.741 131.884 163.511 132.535 163.47L132.631 163.466Z" fill="#1E1C1C"/>
<path d="M166.966 162.785C167.083 162.084 168.017 161.266 168.952 161.032C170.12 161.032 169.653 162.084 168.952 162.785C168.251 163.486 166.849 163.486 166.966 162.785Z" fill="#020D2B"/>
<path d="M184.012 151.985C182.825 150.304 180.387 148.978 179.316 148.525L171.9 152.603C172.56 152.85 174.496 153.987 176.967 156.558C180.057 159.771 181.046 160.142 182.529 160.018C183.715 159.919 183.847 158.823 183.765 158.288C184.012 158.535 184.704 158.831 185.495 158.041C186.483 157.052 185.495 154.086 184.012 151.985Z" fill="#F5D4A1"/>
<path d="M113.573 152.317C114.937 150.753 117.517 149.676 118.637 149.333L125.638 154.197C124.952 154.376 122.894 155.316 120.151 157.639C116.722 160.542 115.693 160.811 114.221 160.533C113.043 160.31 113.025 159.197 113.163 158.668C112.89 158.89 112.166 159.116 111.457 158.24C110.569 157.145 111.869 154.271 113.573 152.317Z" fill="#F5D4A1"/>
<path d="M107.884 124.549C108.576 116.343 109.326 100.121 109.615 93.0354H189.202C189.491 99.5853 190.166 114.811 190.562 123.313C191.056 133.942 184.012 161.995 146.319 159.153C108.626 156.31 107.019 134.807 107.884 124.549Z" fill="#76CCDB"/>
<path d="M182.714 126.195C190.58 126.195 196.957 119.818 196.957 111.952C196.957 104.086 190.58 97.7092 182.714 97.7092C174.848 97.7092 168.472 104.086 168.472 111.952C168.472 119.818 174.848 126.195 182.714 126.195Z" fill="#EBBAAA"/>
<path d="M116.367 126.916C108.501 126.916 102.124 120.539 102.124 112.673C102.124 104.807 108.501 98.4302 116.367 98.4302C124.233 98.4302 130.61 104.807 130.61 112.673C130.61 120.539 124.233 126.916 116.367 126.916Z" fill="#EBBAAA"/>
<path d="M111.705 87.3969C111.705 67.024 128.22 50.5085 148.593 50.5085C168.966 50.5085 185.482 67.024 185.482 87.3969V104.82L183.691 125.959C182.423 140.919 171.702 153.422 157.127 157.023C151.54 158.403 145.676 158.377 140.104 156.936C126.228 153.349 115.986 141.598 114.329 127.362L111.705 104.82V87.3969Z" fill="#F4D4C9"/>
<path d="M142.35 99.238L141.924 97.0698C141.844 96.6642 141.513 96.3555 141.102 96.3043L130.641 95.0019C130.596 94.9963 130.55 94.9972 130.505 95.0049L124.78 95.9772C124.549 96.0162 124.381 96.2158 124.381 96.4492V99.1609C124.381 99.4357 124.612 99.6541 124.886 99.639L132.864 99.2018C132.895 99.2001 132.925 99.2015 132.955 99.2057L141.278 100.371C141.93 100.463 142.477 99.8841 142.35 99.238Z" fill="#393939"/>
<path d="M155.854 99.1046L156.2 97.0944C156.27 96.6869 156.594 96.3703 157.002 96.3095L166.983 94.8246C167.028 94.818 167.073 94.8178 167.119 94.8246L172.617 95.6239C172.848 95.6576 173.021 95.8529 173.027 96.0864L173.088 98.6525C173.094 98.927 172.869 99.1509 172.594 99.1425L164.949 98.906C164.919 98.9051 164.889 98.9072 164.859 98.9121L156.953 100.212C156.303 100.319 155.742 99.7535 155.854 99.1046Z" fill="#393939"/>
<path d="M164.513 104.485C166.062 104.485 167.317 105.74 167.317 107.289C167.317 108.813 166.1 110.054 164.585 110.092L164.513 110.093H160.131C158.582 110.093 157.327 108.838 157.327 107.289C157.327 105.765 158.543 104.524 160.058 104.486L160.131 104.485H164.513Z" fill="black"/>
<path d="M137.291 104.485C138.84 104.485 140.095 105.74 140.095 107.289C140.095 108.813 138.878 110.054 137.363 110.092L137.291 110.093H132.501C130.952 110.093 129.697 108.838 129.697 107.289C129.697 105.765 130.913 104.524 132.428 104.486L132.501 104.485H137.291Z" fill="black"/>
<path d="M147.255 108.998L150.809 111.012C149.337 113.61 148.199 116.626 148.044 118.842L148.034 119C147.917 121.193 148.672 122.078 151.162 122.099L151.252 122.099V126.185C146.125 126.185 143.648 123.137 143.969 118.557C144.17 115.672 145.458 112.214 147.154 109.176L147.255 108.998Z" fill="#EBBAAA"/>
<path d="M173.999 74.7589C169.901 69.979 172.582 64.0182 172.085 59.8504C171.733 56.8982 171.697 56.1451 180.089 62.3312C188.481 68.517 189.74 82.0884 187.456 93.6235L185.776 106.681H183.907L184.491 99.578C184.491 99.578 184.141 97.5919 181.804 95.2552C179.467 92.9186 178.65 80.1838 173.999 74.7589Z" fill="#6E6C6C"/>
<path d="M117.064 82.809C117.411 76.5232 116.702 76.8469 116.933 72.6563C117.097 69.6881 118.12 70.3377 112.821 75.7804C109.896 78.7844 110.225 91.7561 110.848 100.197L111.588 107.977H113.542C113.542 107.977 113.311 105.049 113.542 103.647C113.773 102.245 115.444 101.019 115.876 98.3893C116.494 94.6243 116.86 86.5098 117.064 82.809Z" fill="#6E6C6C"/>
<path d="M116.145 58.57C122.336 52.9621 128.433 51.3264 136.473 51.3264C136.762 55.8525 132.075 56.4 133.552 65.9305C135.399 77.8436 139.213 78.6049 134.867 81.0387C131.391 82.9859 120.701 89.9979 117.78 93.2692C114.859 96.5405 114.859 97.3287 113.341 97.592C111.822 97.8553 110.77 96.8426 109.368 94.2723C107.966 91.702 107.792 91.5167 106.681 86.0256C105.569 80.5345 107.138 66.7282 116.145 58.57Z" fill="#272727"/>
<path d="M134.136 92.2177C130.398 92.4514 120.473 95.4446 118.831 93.7361C109.835 73.9919 124.117 53.1508 132.384 50.5085C157.97 42.3302 178.29 54.1145 184.024 62.776C189.515 71.0711 190.216 88.9464 188.58 90.9326C186.567 93.3772 182.092 95.0175 177.715 93.7361C173.338 92.4544 164.743 93.6272 161.241 92.2177C158.44 91.0898 148.624 92.3343 142.899 92.2177C139.956 92.1577 139.837 80.3132 137.524 80.3008C134.487 80.2845 135.953 92.1042 134.136 92.2177Z" fill="#272727"/>
<path d="M154.952 132.517C155.872 132.141 156.922 132.581 157.299 133.501C157.675 134.42 157.234 135.471 156.315 135.847C150.486 138.232 145.083 138.298 140.506 135.755C139.638 135.272 139.325 134.177 139.807 133.308C140.29 132.44 141.385 132.127 142.254 132.609C145.782 134.57 150.062 134.517 154.952 132.517Z" fill="#C99584"/>
<path fill-rule="evenodd" clip-rule="evenodd" d="M152.509 102.768C155.744 101.58 159.875 100.698 164.79 100.489L165.054 100.479C169.793 100.297 173.746 100.697 176.836 101.409C178.054 101.689 178.901 102.755 178.966 104.022C179.121 107.047 179.229 109.755 179.241 111.519L179.242 111.845C179.242 113.461 178.883 115.259 178.314 117.064C177.944 118.241 176.841 119.018 175.589 119.031L156.703 119.221C155.62 119.231 154.624 118.668 154.116 117.728C152.934 115.541 151.989 113.259 151.585 111.157C151.239 109.352 150.962 107.484 150.751 105.7C150.6 104.416 151.307 103.21 152.509 102.768ZM177.566 104.093C177.532 103.438 177.114 102.911 176.522 102.775C173.493 102.078 169.577 101.689 164.849 101.89C160.086 102.092 156.097 102.944 152.992 104.084C152.411 104.298 152.067 104.884 152.144 105.535C152.351 107.288 152.623 109.125 152.962 110.893C153.333 112.824 154.23 114.99 155.349 117.061C155.606 117.535 156.117 117.824 156.689 117.819L175.574 117.628C176.233 117.622 176.793 117.228 176.977 116.643C177.506 114.962 177.84 113.292 177.84 111.845C177.84 110.269 177.747 107.735 177.604 104.853L177.566 104.093Z" fill="black"/>
<path d="M144.858 104.305C146.738 103.392 149.526 103.16 151.878 104.249L151.995 104.305L150.975 106.407C149.346 105.617 147.278 105.762 145.956 106.37L145.878 106.407L144.858 104.305Z" fill="black"/>
<path fill-rule="evenodd" clip-rule="evenodd" d="M117.257 104.512C117.293 103.313 118.04 102.279 119.17 101.933C122.59 100.886 126.947 100.311 132.071 100.666C137.067 101.012 141.247 102.01 144.504 103.289C145.705 103.76 146.389 104.993 146.2 106.28C145.939 108.056 145.611 109.91 145.214 111.7C144.748 113.797 143.723 116.06 142.461 118.218C141.926 119.131 140.924 119.659 139.852 119.62L121.135 118.95C119.914 118.907 118.848 118.139 118.471 116.992C117.87 115.163 117.437 113.304 117.311 111.6C117.187 109.925 117.177 107.654 117.239 105.189L117.257 104.512ZM143.992 104.594C140.862 103.366 136.821 102.401 131.974 102.065L131.719 102.048C126.886 101.741 122.787 102.292 119.581 103.274C119.04 103.44 118.677 103.942 118.658 104.553C118.583 107.087 118.579 109.461 118.689 111.204L118.709 111.496C118.825 113.068 119.235 114.825 119.803 116.554C119.993 117.132 120.54 117.526 121.185 117.549L139.902 118.219C140.468 118.239 140.982 117.969 141.251 117.509C142.446 115.467 143.417 113.321 143.845 111.396C144.235 109.643 144.557 107.822 144.813 106.077C144.909 105.424 144.575 104.823 143.992 104.594Z" fill="black"/>
<path d="M103.432 100.47C105.723 99.1161 108.985 99.1248 110.33 99.2981C112.022 100.209 110.851 104.504 109.94 105.285C109.028 106.066 103.953 108.799 102 108.148C100.048 107.498 101.74 105.676 101.219 105.806C100.699 105.936 99.7878 105.285 99.7878 104.504C99.7878 103.723 100.569 102.161 103.432 100.47Z" fill="#EFD19F"/>
<path d="M194.329 98.5049C192.029 97.1393 188.752 97.148 187.401 97.3232C185.701 98.2422 186.878 102.575 187.793 103.363C188.708 104.151 193.807 106.908 195.767 106.252C197.729 105.595 196.029 103.757 196.552 103.888C197.075 104.02 197.99 103.363 197.99 102.575C197.99 101.787 197.206 100.212 194.329 98.5049Z" fill="#EFD19F"/>
<path d="M188.171 104.952C186.739 105.754 180.377 85.6098 148.23 86.1304C116.083 86.651 111.126 107.974 109.776 107.289C108.425 106.604 104.708 85.3755 105.021 72.4646C105.411 56.3258 108.795 33.5496 148.23 32.7687C187.666 31.9878 190.399 55.8053 190.529 72.4646C190.634 85.7919 189.602 104.15 188.171 104.952Z" fill="#76CCDB"/>
<path d="M142.894 80.9245C140.811 79.4667 140.985 75.0243 141.332 72.9853L147.45 70.6426V78.3215C147.45 80.0135 145.497 82.7466 142.894 80.9245Z" fill="white"/>
<path d="M148.751 81.4451C146.669 79.9873 147.234 72.6815 147.581 70.6426H153.519V78.3215C153.519 81.4451 151.354 83.2672 148.751 81.4451Z" fill="white"/>
<path d="M137.818 69.341C138.079 66.3475 143.024 64.5254 147.189 64.3953C153.046 64.3953 155.389 65.9571 157.471 67.7792C159.553 69.6013 159.814 73.1152 156.3 73.7659C152.786 74.4167 150.573 72.2041 148.1 72.0739C145.627 71.9438 143.415 73.7659 141.332 73.7659C139.25 73.7659 137.558 72.3343 137.818 69.341Z" fill="#F6D59F"/>
<path d="M141.983 64.9159C141.853 63.2239 143.415 60.4907 147.58 60.3606C152.526 60.3606 153.697 62.5732 153.697 64.0048C153.697 65.4365 152.265 67.5189 148.1 67.6491C143.935 67.7792 142.114 66.6079 141.983 64.9159Z" fill="black"/>
<path d="M149.664 52.6818C149.143 45.914 155.911 38.8859 164.241 39.5366C172.571 40.1874 175.563 44.4823 176.344 50.0788C177.125 55.6753 175.563 61.9224 165.932 63.8747C156.301 65.8269 150.184 59.4495 149.664 52.6818Z" fill="white"/>
<path d="M152.525 52.5515C152.525 51.25 153.697 48.647 156.43 48.5168C159.814 48.5168 160.595 51.6405 160.595 52.5515C160.595 53.4625 159.944 56.9765 156.43 56.9765C152.916 56.9765 152.525 53.853 152.525 52.5515Z" fill="black"/>
<path d="M116.762 53.8949C116.242 47.1271 123.009 40.099 131.339 40.7498C139.669 41.4005 142.662 45.6955 143.443 51.2919C144.224 56.8884 142.662 63.1357 133.031 65.088C123.399 67.0402 117.283 60.6628 116.762 53.8949Z" fill="white"/>
<path d="M119.624 53.7649C119.624 52.4634 120.795 49.8604 123.528 49.7302C126.912 49.7302 127.693 52.8539 127.693 53.7649C127.693 54.6759 127.042 58.1901 123.528 58.1901C120.014 58.1901 119.624 55.0664 119.624 53.7649Z" fill="black"/>
<path d="M190.789 39.9269C185.584 35.6579 179.944 39.7967 177.775 42.3997L183.501 55.9354C184.369 56.5428 187.041 57.2368 190.789 55.1545C195.475 52.5515 197.297 45.2631 190.789 39.9269Z" fill="#76CCDB"/>
<path d="M186.462 44.2721C184.497 42.6477 182.368 44.2226 181.549 45.2131L183.711 50.3638C184.038 50.5949 185.047 50.8591 186.462 50.0667C188.23 49.0762 188.918 46.3027 186.462 44.2721Z" fill="black"/>
<path d="M103.892 42.0309C109.237 37.7592 115.027 41.9006 117.254 44.5053L111.375 58.0497C110.484 58.6575 107.74 59.3522 103.892 57.2684C99.0812 54.6636 97.2105 47.3705 103.892 42.0309Z" fill="#76CCDB"/>
<path d="M108.241 46.3547C110.285 44.7302 112.498 46.3051 113.35 47.2957L111.102 52.4463C110.761 52.6775 109.712 52.9416 108.241 52.1492C106.401 51.1587 105.686 48.3852 108.241 46.3547Z" fill="black"/>
</svg>
