<svg width="300" height="400" viewBox="0 0 300 400" fill="none" xmlns="http://www.w3.org/2000/svg">
<path d="M149.968 286.437C165.176 286.437 177.504 273.572 177.504 257.705C177.504 241.836 165.176 228.972 149.968 228.972C134.761 228.972 122.433 241.836 122.433 257.705C122.433 273.572 134.761 286.437 149.968 286.437Z" fill="#C88497"/>
<path d="M132.25 301.042C135.785 301.042 138.657 303.879 138.714 307.4L138.715 307.507V362.099C138.715 365.669 135.82 368.564 132.25 368.564C128.715 368.564 125.843 365.727 125.786 362.206L125.785 362.099V307.507C125.785 303.937 128.68 301.042 132.25 301.042Z" fill="#EBBAAA"/>
<path d="M166.729 301.761C170.264 301.761 173.136 304.598 173.193 308.119L173.194 308.226V362.817C173.194 366.388 170.299 369.282 166.729 369.282C163.194 369.282 160.322 366.445 160.265 362.924L160.264 362.817V308.226C160.264 304.655 163.159 301.761 166.729 301.761Z" fill="#EBBAAA"/>
<path d="M149.968 233.521H185.884V258.662C185.884 292.183 173.912 343.662 173.912 343.662C173.912 343.662 166.029 348.13 159.546 346.057C156.335 345.03 152.363 343.662 152.363 343.662L151.166 288.592L149.968 233.521Z" fill="#E0A1B2"/>
<path d="M149.968 233.521H114.053V258.662C114.053 292.183 126.025 343.662 126.025 343.662C126.025 343.662 133.907 348.13 140.391 346.057C143.602 345.03 147.574 343.662 147.574 343.662L148.771 288.592L149.968 233.521Z" fill="#E0A1B2"/>
<path d="M200.29 364.972C200.29 357.621 195.567 356.726 187.869 354.207C184.098 352.972 180.25 351.896 176.346 351.25C173.893 350.843 173.233 353 168.924 353C165.08 353 160.285 351.097 159.292 350.685C159.168 350.632 159.02 350.587 158.921 350.678C158.897 350.702 158.877 350.728 158.862 350.759C158.403 351.7 155.994 356.846 155.994 360.962C155.994 364.108 155.724 367.204 156.593 368.803C156.984 369.526 159.43 369.919 160.251 369.919H198.958C199.693 369.919 200.29 365.707 200.29 364.972Z" fill="#D0D4DB"/>
<mask id="mask0_0_6642" style="mask-type:luminance" maskUnits="userSpaceOnUse" x="155" y="349" width="46" height="21">
<path fill-rule="evenodd" clip-rule="evenodd" d="M200.29 364.972C200.29 361.196 199.043 359.123 196.788 357.66C186.054 350.69 172.135 350.362 159.346 349.888C159.242 349.888 158.908 350.663 158.862 350.759C158.403 351.7 155.994 356.846 155.994 360.962C155.994 364.108 155.725 367.204 156.593 368.803C156.985 369.526 159.43 369.919 160.252 369.919H198.958C199.694 369.919 200.29 365.707 200.29 364.972Z" fill="white"/>
</mask>
<g mask="url(#mask0_0_6642)">
<path d="M176.434 355.883C176.39 355.297 175.697 355.009 175.25 355.392L172.714 357.571C172.536 357.722 172.294 357.78 172.067 357.722L168.795 356.879C168.213 356.728 167.715 357.317 167.959 357.866L169.302 360.89C169.4 361.108 169.381 361.364 169.251 361.565L167.488 364.338C167.169 364.838 167.56 365.487 168.152 365.439L171.541 365.164C171.772 365.145 171.997 365.238 172.147 365.415L174.349 368.006C174.733 368.458 175.469 368.276 175.597 367.697L176.31 364.491C176.362 364.254 176.529 364.062 176.753 363.976L179.84 362.786C180.401 362.571 180.465 361.804 179.948 361.498L177.038 359.781C176.836 359.661 176.705 359.451 176.687 359.216L176.434 355.883Z" fill="#E4E9F1"/>
<path d="M164.973 352.042C162.099 351.851 159.705 350.287 158.747 349.409C157.79 350.366 155.419 353 155.994 353.958C156.712 355.155 162.219 356.113 164.614 356.113C167.008 356.113 168.564 352.282 164.973 352.042Z" fill="#AEB5C0"/>
<path d="M195.466 356.836C198.567 355.083 197.351 358.555 200.137 360.03L206.036 371.339H159.087C157.94 369.698 152.493 365.331 155.994 365.331C163.656 365.331 174.431 366.528 179.1 366.768C183.525 366.995 196.963 367.347 196.219 363.416C195.359 358.869 192.64 358.433 195.466 356.836Z" fill="#AEB5C0"/>
</g>
<path d="M176.473 350.455C176.821 350.243 177.275 350.354 177.486 350.702C177.698 351.05 177.588 351.503 177.24 351.715L176.162 352.339C176.12 352.364 176.084 352.385 176.056 352.402C176.001 352.436 175.947 352.469 175.895 352.502L175.818 352.552L181.048 351.348C181.708 351.196 182.199 351.936 181.823 352.482L181.799 352.515L180.367 354.384L186.201 352.727C186.921 352.522 187.444 353.391 186.95 353.93L186.922 353.96L183.738 357.116C183.449 357.402 182.982 357.4 182.695 357.111C182.42 356.833 182.411 356.392 182.667 356.104L182.7 356.068L183.85 354.928L178.632 356.411C177.962 356.601 177.434 355.846 177.821 355.286L177.845 355.253L179.382 353.245L174.117 354.457C173.67 354.56 173.242 354.233 173.216 353.782L173.214 353.738C173.214 352.726 173.913 351.994 175.199 351.198L175.29 351.142C175.349 351.106 175.437 351.054 175.539 350.995L176.473 350.455Z" fill="#AEB5C0"/>
<path fill-rule="evenodd" clip-rule="evenodd" d="M174.863 348.103C174.9 345.962 176.316 344.381 178.18 344.381C179.099 344.381 179.849 344.766 180.368 345.472C180.865 346.148 181.13 347.099 181.13 348.19C181.13 349.198 180.531 350.105 179.508 350.786C178.601 351.39 177.437 351.753 176.46 351.753C175.991 351.753 175.647 351.669 175.404 351.498C175.179 351.341 175.033 351.11 174.948 350.786C174.874 350.503 174.846 350.16 174.844 349.665L174.844 349.568L174.859 348.624L174.863 348.103ZM179.18 346.345C178.937 346.014 178.627 345.855 178.181 345.855C177.151 345.855 176.337 346.781 176.337 348.19L176.335 348.489L176.32 349.451L176.32 349.743C176.322 349.902 176.327 350.035 176.336 350.142L176.345 350.242L176.349 350.275L176.373 350.276L176.46 350.278C177.142 350.278 178.023 350.003 178.691 349.559C179.337 349.128 179.655 348.646 179.655 348.19C179.655 347.393 179.475 346.747 179.18 346.345Z" fill="#AEB5C0"/>
<path fill-rule="evenodd" clip-rule="evenodd" d="M170.099 348.994C170.24 348.363 170.635 347.877 171.257 347.603C172.537 347.03 173.994 347.685 174.648 349.152C174.673 349.208 174.698 349.265 174.725 349.323L174.84 349.572L174.842 349.575L175.043 350.007L175.135 350.215C175.26 350.506 175.332 350.723 175.364 350.918C175.383 351.036 175.385 351.142 175.372 351.235C175.368 351.262 175.367 351.275 175.361 351.298L175.336 351.388L175.323 351.421L175.187 351.513L175.252 351.556C175.145 351.717 174.967 351.859 174.695 351.99L174.626 352.022C173.964 352.316 173.066 352.425 172.269 352.296C171.372 352.149 170.694 351.721 170.393 351.047C170.067 350.315 169.964 349.599 170.099 348.994ZM173.433 350.045L173.3 349.752C172.965 348.998 172.359 348.726 171.856 348.951C171.661 349.037 171.578 349.14 171.538 349.316C171.478 349.587 171.535 349.987 171.74 350.447C171.814 350.613 172.059 350.768 172.506 350.841C172.908 350.906 173.365 350.875 173.734 350.776L173.766 350.767L173.75 350.728L173.681 350.575L173.598 350.397L173.596 350.395L173.433 350.045Z" fill="#AEB5C0"/>
<path d="M98.9684 364.493C98.9684 357.143 103.692 356.247 111.389 353.728C115.16 352.493 119.008 351.418 122.912 350.771C125.366 350.364 126.025 352.522 130.335 352.522C134.178 352.522 138.973 350.618 139.966 350.206C140.09 350.153 140.238 350.108 140.337 350.199C140.361 350.223 140.381 350.249 140.396 350.28C140.855 351.221 143.264 356.367 143.264 360.483C143.264 363.629 143.534 366.725 142.666 368.324C142.274 369.047 139.828 369.44 139.006 369.44H100.3C99.5646 369.44 98.9684 365.228 98.9684 364.493Z" fill="#D0D4DB"/>
<mask id="mask1_0_6642" style="mask-type:luminance" maskUnits="userSpaceOnUse" x="98" y="349" width="46" height="21">
<path fill-rule="evenodd" clip-rule="evenodd" d="M98.9684 364.493C98.9684 360.717 100.215 358.644 102.471 357.181C113.205 350.211 127.123 349.883 139.912 349.409C140.016 349.409 140.35 350.184 140.396 350.28C140.855 351.221 143.264 356.367 143.264 360.483C143.264 363.629 143.534 366.725 142.666 368.324C142.274 369.047 139.828 369.44 139.006 369.44H100.3C99.5646 369.44 98.9684 365.228 98.9684 364.493Z" fill="white"/>
</mask>
<g mask="url(#mask1_0_6642)">
<path d="M122.824 355.405C122.869 354.818 123.562 354.531 124.008 354.914L126.544 357.093C126.722 357.244 126.964 357.301 127.192 357.244L130.463 356.401C131.045 356.25 131.543 356.839 131.299 357.387L129.956 360.411C129.858 360.629 129.878 360.885 130.007 361.086L131.771 363.859C132.089 364.36 131.698 365.008 131.107 364.961L127.717 364.685C127.487 364.666 127.261 364.759 127.111 364.937L124.909 367.527C124.525 367.98 123.789 367.798 123.661 367.218L122.948 364.012C122.896 363.775 122.73 363.584 122.505 363.498L119.418 362.308C118.857 362.092 118.793 361.326 119.31 361.019L122.22 359.303C122.422 359.183 122.553 358.972 122.571 358.738L122.824 355.405Z" fill="#E4E9F1"/>
<path d="M134.285 351.564C137.159 351.372 139.553 349.809 140.511 348.93C141.468 349.888 143.839 352.522 143.264 353.479C142.546 354.677 137.039 355.634 134.644 355.634C132.25 355.634 130.694 351.803 134.285 351.564Z" fill="#AEB5C0"/>
<path d="M103.792 356.357C100.691 354.605 101.907 358.077 99.1214 359.551L93.2219 370.86H140.172C141.319 369.22 146.765 364.853 143.264 364.853C135.602 364.853 124.828 366.05 120.159 366.289C115.733 366.517 102.295 366.869 103.039 362.937C103.899 358.39 106.619 357.954 103.792 356.357Z" fill="#AEB5C0"/>
</g>
<path d="M121.772 350.223C121.975 349.888 122.404 349.773 122.746 349.954L123.816 350.573C123.877 350.608 123.929 350.639 123.968 350.663L124.148 350.774C125.378 351.549 126.044 352.27 126.044 353.259C126.044 353.718 125.63 354.062 125.184 353.986L125.141 353.978L119.876 352.766L121.414 354.774C121.837 355.327 121.33 356.095 120.666 355.942L120.627 355.932L115.408 354.449L116.558 355.589C116.836 355.865 116.849 356.306 116.595 356.597L116.562 356.632C116.287 356.91 115.846 356.923 115.555 356.67L115.52 356.637L112.337 353.481C111.805 352.954 112.305 352.072 113.017 352.238L113.057 352.248L118.89 353.905L117.459 352.036C117.047 351.498 117.517 350.745 118.17 350.861L118.21 350.869L123.44 352.073C123.389 352.04 123.337 352.007 123.284 351.974L123.136 351.884C122.847 351.712 122.153 351.318 122.018 351.236C121.67 351.024 121.56 350.571 121.772 350.223Z" fill="#AEB5C0"/>
<path fill-rule="evenodd" clip-rule="evenodd" d="M118.89 344.993C119.409 344.287 120.159 343.902 121.077 343.902C122.967 343.902 124.396 345.527 124.396 347.711L124.397 347.916L124.412 348.885L124.414 349.186C124.412 349.682 124.383 350.025 124.31 350.307C124.225 350.631 124.08 350.861 123.855 351.019C123.61 351.19 123.266 351.274 122.798 351.274C121.821 351.274 120.657 350.911 119.75 350.308C118.727 349.626 118.128 348.72 118.128 347.711C118.128 346.619 118.393 345.669 118.89 344.993ZM122.921 347.711C122.921 346.302 122.108 345.377 121.077 345.377C120.631 345.377 120.321 345.536 120.079 345.866C119.783 346.269 119.603 346.914 119.603 347.711C119.603 348.168 119.921 348.65 120.567 349.08C121.235 349.525 122.116 349.799 122.798 349.799C122.83 349.799 122.859 349.799 122.885 349.798L122.908 349.796L122.913 349.764C122.927 349.64 122.936 349.474 122.938 349.257L122.939 349.182C122.939 349.111 122.939 349.043 122.938 348.962L122.923 348.017L122.921 347.711Z" fill="#AEB5C0"/>
<path fill-rule="evenodd" clip-rule="evenodd" d="M124.006 351.077L123.996 351.061L123.96 350.995C123.937 350.951 123.927 350.927 123.915 350.883L123.896 350.817C123.889 350.779 123.889 350.779 123.887 350.761L123.88 350.701C123.874 350.62 123.879 350.533 123.895 350.437C123.923 350.261 123.986 350.065 124.091 349.813L124.159 349.655C124.17 349.629 124.182 349.602 124.195 349.573L124.415 349.096L124.419 349.092L124.501 348.914L124.643 348.601C125.312 347.185 126.742 346.561 127.997 347.123C128.623 347.398 129.018 347.884 129.159 348.515C129.294 349.12 129.191 349.837 128.865 350.569C128.564 351.242 127.887 351.671 126.988 351.818C126.192 351.946 125.294 351.837 124.632 351.543C124.321 351.404 124.122 351.251 124.006 351.077ZM127.72 348.837C127.68 348.661 127.597 348.558 127.399 348.471C126.899 348.247 126.293 348.52 125.957 349.273C125.925 349.347 125.893 349.417 125.858 349.493L125.662 349.917L125.66 349.918L125.577 350.097L125.492 350.288L125.524 350.297C125.867 350.39 126.285 350.422 126.664 350.375L126.751 350.362C127.199 350.289 127.444 350.134 127.518 349.968C127.723 349.508 127.78 349.108 127.72 348.837Z" fill="#AEB5C0"/>
<path d="M149.968 146.606C165.176 146.606 179.898 140.978 179.898 134.035C179.898 99.9155 165.176 99.9155 149.968 99.9155C134.761 99.9155 120.039 99.9155 120.039 134.035C120.039 140.978 134.761 146.606 149.968 146.606Z" fill="#2D2427"/>
<path fill-rule="evenodd" clip-rule="evenodd" d="M120.016 170.112C119.278 171.442 118.712 173.653 117.874 178.499L117.359 181.491C117.144 182.726 117.043 183.253 116.847 184.245C116.114 187.938 115.283 190.993 114.116 193.906C112.61 197.661 110.611 200.944 107.95 203.756C101.865 210.184 93.0175 213.408 81.25 213.408C76.3572 213.408 72.3909 209.442 72.3909 204.549C72.3909 199.657 76.3572 195.69 81.25 195.69C88.4589 195.69 92.624 194.172 95.0822 191.575C97.0492 189.497 98.3306 186.367 99.3906 181.176L99.5706 180.27C99.6809 179.703 99.769 179.222 99.9264 178.318L100.48 175.102C100.973 172.257 101.316 170.54 101.795 168.68C102.544 165.771 103.477 163.292 104.788 161.05C107.5 156.415 111.58 153.373 116.782 152.19C117.63 147.528 121.222 143.608 126.173 142.598L149.968 137.747L173.764 142.598C178.714 143.608 182.306 147.528 183.155 152.19C188.357 153.373 192.437 156.415 195.148 161.05C196.42 163.224 197.336 165.621 198.073 168.417L198.142 168.68C198.621 170.54 198.963 172.257 199.457 175.102L200.091 178.778C200.233 179.584 200.317 180.024 200.45 180.695L200.546 181.176C201.606 186.367 202.888 189.497 204.855 191.575C207.313 194.172 211.478 195.69 218.687 195.69C223.579 195.69 227.546 199.657 227.546 204.549C227.546 209.442 223.579 213.408 218.687 213.408C206.919 213.408 198.072 210.184 191.987 203.756C189.325 200.944 187.326 197.661 185.821 193.906C184.687 191.077 183.87 188.112 183.153 184.56L182.962 183.595C182.832 182.926 182.731 182.374 182.552 181.34L182.007 178.177C181.2 173.554 180.642 171.412 179.92 170.112L173.912 195.342L185.102 231.028C185.522 232.368 184.713 233.775 183.337 234.054C177.182 235.302 161.183 238.31 149.968 238.31C138.753 238.31 122.754 235.302 116.6 234.054C115.223 233.775 114.414 232.368 114.835 231.028L126.025 195.342L120.016 170.112Z" fill="#F4D5CC"/>
<path d="M116.393 183.103C115.099 176.637 119.278 170.342 125.74 169.024L149.968 164.084L174.196 169.024C180.658 170.342 184.838 176.637 183.544 183.103L178.701 207.314C178.701 207.314 185.884 223.944 185.884 233.521C185.884 233.521 164.118 238.31 149.968 238.31C135.818 238.31 114.053 233.521 114.053 233.521C114.053 223.944 121.236 207.314 121.236 207.314L116.393 183.103Z" fill="#E0A1B2"/>
<path d="M120.349 206.772C121.091 205.707 122.543 205.43 123.622 206.136L123.788 206.247C123.856 206.292 123.952 206.353 124.074 206.43L124.282 206.558C124.606 206.756 124.978 206.972 125.398 207.203C126.888 208.023 128.638 208.847 130.631 209.62C136.353 211.837 142.842 213.169 149.968 213.169C157.085 213.169 163.404 211.841 168.853 209.633C170.663 208.899 172.246 208.119 173.592 207.342L173.774 207.236C174.25 206.956 174.657 206.7 174.994 206.473L175.223 206.316C175.281 206.276 175.32 206.247 175.341 206.231C176.396 205.433 177.898 205.642 178.695 206.697C179.493 207.752 179.284 209.253 178.229 210.051L178.093 210.151C177.984 210.229 177.842 210.328 177.667 210.446C177.25 210.727 176.759 211.036 176.197 211.366C174.617 212.293 172.765 213.215 170.651 214.071C164.651 216.502 157.727 217.958 149.968 217.958C142.219 217.958 135.151 216.507 128.901 214.085C126.703 213.233 124.761 212.318 123.089 211.398L122.773 211.223C122.362 210.991 121.99 210.771 121.658 210.566L121.413 210.413C121.199 210.277 121.042 210.174 120.945 210.106C119.86 209.35 119.593 207.857 120.349 206.772Z" fill="#B3818E"/>
<path d="M121.245 224.259C122.393 223.603 123.856 224.002 124.512 225.15C125.156 226.278 124.783 227.709 123.682 228.381L123.592 228.435L123.483 228.504C123.456 228.521 123.427 228.54 123.396 228.56C123.162 228.716 122.895 228.908 122.603 229.137C121.751 229.807 120.892 230.629 120.091 231.601C117.808 234.374 116.447 237.776 116.447 241.902C116.447 243.224 115.375 244.296 114.053 244.296C112.73 244.296 111.658 243.224 111.658 241.902C111.658 236.599 113.44 232.145 116.395 228.557C117.427 227.304 118.533 226.246 119.644 225.372C120.04 225.061 120.411 224.794 120.75 224.57L120.874 224.488C121.032 224.386 121.157 224.31 121.245 224.259Z" fill="#B3818E"/>
<path d="M124.293 224.079C124.959 222.937 126.425 222.551 127.568 223.217C128.69 223.872 129.082 225.297 128.464 226.43L128.403 226.541L128.337 226.668C128.299 226.743 128.257 226.828 128.213 226.922C128.014 227.345 127.812 227.84 127.621 228.401C127.036 230.123 126.701 232.027 126.745 234.037C126.803 236.633 127.493 239.218 128.959 241.757C129.62 242.902 129.228 244.366 128.083 245.027C126.937 245.689 125.473 245.296 124.812 244.151C122.934 240.898 122.033 237.525 121.958 234.143C121.9 231.535 122.332 229.084 123.087 226.86C123.337 226.124 123.607 225.462 123.88 224.882C123.963 224.708 124.041 224.549 124.115 224.407L124.204 224.238C124.233 224.185 124.258 224.14 124.278 224.104L124.293 224.079Z" fill="#B3818E"/>
<path d="M113.07 167.034C114.419 162.985 117.822 159.961 122.002 159.096L149.968 153.31L177.935 159.096C182.114 159.961 185.517 162.985 186.867 167.034L191.87 182.042C191.87 182.042 187.645 185.214 184.687 186.831C172.678 193.397 149.968 191.62 149.968 191.62C149.968 191.62 127.259 193.397 115.25 186.831C112.292 185.214 108.067 182.042 108.067 182.042L113.07 167.034Z" fill="#ECB3C3"/>
<rect x="141.588" y="121.465" width="16.7606" height="27.5352" rx="8.38028" fill="url(#paint0_linear_0_6642)"/>
<path fill-rule="evenodd" clip-rule="evenodd" d="M110.461 217.359C110.461 211.739 115.017 207.183 120.637 207.183C126.257 207.183 130.813 211.739 130.813 217.359C130.813 222.979 126.257 227.535 120.637 227.535C115.017 227.535 110.461 222.979 110.461 217.359ZM126.025 217.359C126.025 214.384 123.613 211.972 120.637 211.972C117.662 211.972 115.25 214.384 115.25 217.359C115.25 220.335 117.662 222.747 120.637 222.747C123.613 222.747 126.025 220.335 126.025 217.359Z" fill="#B3818E"/>
<path fill-rule="evenodd" clip-rule="evenodd" d="M123.63 220.951C123.63 215.331 128.186 210.775 133.806 210.775C139.426 210.775 143.982 215.331 143.982 220.951C143.982 226.571 139.426 231.127 133.806 231.127C128.186 231.127 123.63 226.571 123.63 220.951ZM139.194 220.951C139.194 217.976 136.782 215.564 133.806 215.564C130.831 215.564 128.419 217.976 128.419 220.951C128.419 223.927 130.831 226.339 133.806 226.339C136.782 226.339 139.194 223.927 139.194 220.951Z" fill="#B3818E"/>
<path fill-rule="evenodd" clip-rule="evenodd" d="M149.941 30C149.924 30 149.958 30 149.941 30C160.669 30 176.733 33.0371 183.513 47.0001C187.09 54.3682 188.913 59.5805 188.305 68.5493C180.863 59.0853 160.641 52.7465 149.941 52.7465C136.43 52.7465 122.163 60.3701 111.577 68.5493C111.092 59.5376 112.792 54.3682 116.369 47.0001C123.149 33.0371 138.934 29.9999 149.941 30Z" fill="#B3818E"/>
<path d="M150.447 98.7182C179.402 98.7182 205.039 99.476 205.039 86.2675C205.039 66.6062 179.402 45.8027 150.447 45.8027C121.493 45.8027 95.8556 66.6062 95.8556 86.2675C95.8556 99.476 121.493 98.7182 150.447 98.7182Z" fill="#ECB3C3"/>
<path d="M188.039 107.099C193.328 107.099 197.616 102.81 197.616 97.5211C197.616 92.2317 193.328 87.9436 188.039 87.9436C182.749 87.9436 178.461 92.2317 178.461 97.5211C178.461 102.81 182.749 107.099 188.039 107.099Z" fill="#EFC6BD"/>
<path d="M111.898 107.099C106.608 107.099 102.32 102.81 102.32 97.5211C102.32 92.2317 106.608 87.9436 111.898 87.9436C117.187 87.9436 121.475 92.2317 121.475 97.5211C121.475 102.81 117.187 107.099 111.898 107.099Z" fill="#EFC6BD"/>
<path d="M114.053 76.6902C114.053 56.8545 130.133 40.7747 149.968 40.7747C169.804 40.7747 185.884 56.8545 185.884 76.6902V93.0614L184.74 103.129C182.732 120.803 167.777 134.155 149.989 134.155C132.595 134.155 117.844 121.371 115.37 104.153L114.478 97.9382C114.195 95.9674 114.053 93.9789 114.053 91.9878V76.6902Z" fill="#F4D5CC"/>
<path d="M160.93 111.963C161.285 111.405 162.025 111.241 162.583 111.596C163.141 111.951 163.305 112.691 162.95 113.248C162.225 114.387 160.582 115.69 158.523 116.679C155.998 117.892 153.003 118.591 149.713 118.591C146.425 118.591 143.591 117.896 141.22 116.662C139.421 115.726 138.004 114.538 137.06 113.351C136.648 112.834 136.734 112.08 137.251 111.669C137.768 111.257 138.522 111.343 138.933 111.86C139.673 112.79 140.831 113.761 142.325 114.538C144.355 115.594 146.81 116.197 149.713 116.197C152.64 116.197 155.281 115.58 157.486 114.521C159.136 113.729 160.414 112.726 160.898 112.012L160.93 111.963Z" fill="#C99584"/>
<path d="M127.222 109.493C131.189 109.493 134.405 106.277 134.405 102.31C134.405 98.3427 131.189 95.1267 127.222 95.1267C123.255 95.1267 120.039 98.3427 120.039 102.31C120.039 106.277 123.255 109.493 127.222 109.493Z" fill="#F2CACA"/>
<path d="M135.602 84.3521C136.263 84.3521 136.799 84.888 136.799 85.5492C136.799 86.1925 136.292 86.7174 135.655 86.7453L135.602 86.7464H128.419C127.758 86.7464 127.222 86.2104 127.222 85.5492C127.222 84.9059 127.729 84.3811 128.366 84.3532L128.419 84.3521H135.602Z" fill="black"/>
<path d="M171.518 84.3521C172.179 84.3521 172.715 84.888 172.715 85.5492C172.715 86.1925 172.207 86.7174 171.571 86.7453L171.518 86.7464H164.334C163.673 86.7464 163.137 86.2104 163.137 85.5492C163.137 84.9059 163.645 84.3811 164.281 84.3532L164.334 84.3521H171.518Z" fill="black"/>
<path d="M164.334 82.4365C165.897 82.4365 167.168 83.6836 167.207 85.2367L167.208 85.3098V92.4929C167.208 94.0797 165.921 95.3661 164.334 95.3661C162.772 95.3661 161.501 94.119 161.462 92.5659L161.461 92.4929V85.3098C161.461 83.7229 162.748 82.4365 164.334 82.4365Z" fill="black"/>
<path d="M135.603 82.4365C137.165 82.4365 138.437 83.6836 138.475 85.2367L138.476 85.3098V92.4929C138.476 94.0797 137.19 95.3661 135.603 95.3661C134.041 95.3661 132.769 94.119 132.731 92.5659L132.73 92.4929V85.3098C132.73 83.7229 134.016 82.4365 135.603 82.4365Z" fill="black"/>
<path d="M160.34 73.5794L173.987 74.2977C174.78 74.3394 175.388 75.0155 175.347 75.8079C175.306 76.5818 174.66 77.1803 173.892 77.1689L173.836 77.167L160.189 76.4487C159.396 76.407 158.788 75.7309 158.829 74.9385C158.87 74.1646 159.516 73.5661 160.284 73.5776L160.34 73.5794Z" fill="#271E1E"/>
<path d="M139.597 73.5794C140.389 73.5377 141.065 74.1462 141.107 74.9385C141.148 75.7124 140.568 76.3755 139.803 76.4448L139.748 76.4487L126.1 77.167C125.308 77.2087 124.632 76.6002 124.59 75.8079C124.549 75.034 125.129 74.3709 125.894 74.3017L125.949 74.2977L139.597 73.5794Z" fill="#271E1E"/>
<path d="M172.715 109.493C176.682 109.493 179.898 106.277 179.898 102.31C179.898 98.3427 176.682 95.1267 172.715 95.1267C168.748 95.1267 165.532 98.3427 165.532 102.31C165.532 106.277 168.748 109.493 172.715 109.493Z" fill="#F2CACA"/>
<path d="M148.275 90.1667L151.662 92.4246C150.511 94.1512 149.609 96.743 149.609 98.6284C149.609 100.446 150.265 101.21 152.273 101.232L152.363 101.232V105.303C147.923 105.303 145.539 102.621 145.539 98.6284C145.539 95.9249 146.663 92.6432 148.19 90.2962L148.275 90.1667Z" fill="#EBBAAA"/>
<path d="M173.757 77.2821C168.978 74.1242 159.977 61.1338 156.074 55.0334C178.656 49.1723 188.094 65.9184 190.006 77.2821C191.918 88.6455 188.094 108.024 189.767 107.307C191.105 106.733 192.475 106.111 193.113 105.633C193.511 121.981 197.922 151.945 193.113 154.315C186.799 157.425 168.877 157.664 171.864 149.291C174.851 140.918 183.674 87.8082 182.718 85.0571C181.762 82.306 179.731 81.2294 173.757 77.2821Z" fill="#2D2427"/>
<path d="M126.18 77.2821C130.959 74.1242 139.96 61.1338 143.863 55.0334C121.281 49.1723 111.842 65.9184 109.93 77.2821C108.019 88.6455 111.842 108.024 110.169 107.307C108.831 106.733 107.461 106.111 106.824 105.633C106.426 121.981 102.014 151.945 106.824 154.315C113.137 157.425 131.059 157.664 128.073 149.291C125.086 140.918 116.263 87.8082 117.219 85.0571C118.174 82.306 120.206 81.2294 126.18 77.2821Z" fill="#2D2427"/>
<path fill-rule="evenodd" clip-rule="evenodd" d="M149.952 38.8591C149.936 38.8591 149.968 38.8591 149.952 38.8591C164.409 38.8591 187.63 44.9148 185.78 65.4366C178.83 58.7879 159.944 54.8394 149.952 54.8394C137.333 54.8394 124.01 59.6906 114.124 65.4366C112.62 44.4101 135.244 38.859 149.952 38.8591Z" fill="#ECB3C3"/>
<defs>
<linearGradient id="paint0_linear_0_6642" x1="148.146" y1="133.916" x2="148.146" y2="139.901" gradientUnits="userSpaceOnUse">
<stop stop-color="#EBBAAA"/>
<stop offset="1" stop-color="#F4D5CC"/>
</linearGradient>
</defs>
</svg>
