<svg width="300" height="400" viewBox="0 0 300 400" fill="none" xmlns="http://www.w3.org/2000/svg">
<path d="M166.135 301.307C169.492 301.309 172.219 304.004 172.272 307.348L172.273 307.449L172.253 359.758C172.251 363.149 169.501 365.897 166.111 365.896C162.754 365.894 160.027 363.199 159.974 359.855L159.973 359.754L159.994 307.445C159.995 304.054 162.745 301.306 166.135 301.307Z" fill="#EDBC3D"/>
<path d="M133.473 301.307C136.83 301.309 139.556 304.004 139.609 307.348L139.61 307.449L139.59 359.758C139.589 363.149 136.839 365.897 133.448 365.896C130.091 365.894 127.365 363.199 127.312 359.855L127.311 359.754L127.331 307.445C127.332 304.054 130.082 301.306 133.473 301.307Z" fill="#EDBC3D"/>
<path d="M147.94 250.963H177.41L174.779 350.915H160.535L156.535 340.355L147.94 250.963Z" fill="#35383E"/>
<path d="M151.869 250.963H122.399L125.031 350.915H139.274L143.274 340.355L151.869 250.963Z" fill="#35383E"/>
<path d="M152.685 335.547C153.811 333.724 156.344 334.162 157.47 334.608L157.189 335.679C156.72 335.77 155.528 335.949 155.078 336.485C154.515 337.155 154.937 338.494 154.515 338.761C154.093 339.031 152.967 338.761 152.404 338.761C151.841 338.761 151.278 337.826 152.685 335.547Z" fill="black"/>
<path d="M202.567 368.597C202.867 367.86 202.815 366.264 200.967 365.527C199.119 364.791 177.309 368.597 177.309 368.597C171.694 368.14 156.615 360.807 151.063 364.177C149.306 365.242 149.902 368.619 150.55 371.78C151.588 372.833 162.084 373.754 165.487 372.964C165.487 371.122 165.752 369.936 165.752 369.936C165.752 369.936 167.813 371.262 170.039 371.78C174.578 372.833 175.571 374 189.631 374C200.907 372.946 201.718 370.685 202.567 368.597Z" fill="#383129"/>
<path fill-rule="evenodd" clip-rule="evenodd" d="M151.833 366.385C152.192 366.617 152.614 366.805 153.148 366.971L153.075 367.206C152.521 367.033 152.079 366.836 151.7 366.591L151.833 366.385ZM200.417 368.014C200.874 367.669 201.242 367.336 201.49 367.044L201.677 367.203C201.416 367.51 201.036 367.855 200.565 368.21L200.417 368.014ZM197.915 369.519C198.368 369.298 198.799 369.065 199.203 368.824L199.328 369.035C198.919 369.279 198.482 369.515 198.023 369.74L197.915 369.519ZM196.576 370.111C196.127 370.29 195.667 370.455 195.197 370.605L195.272 370.839C195.747 370.688 196.213 370.521 196.667 370.339L196.576 370.111ZM192.347 371.29C192.829 371.21 193.308 371.113 193.782 371L193.839 371.238C193.36 371.354 192.875 371.452 192.386 371.532L192.347 371.29ZM190.89 371.473C190.403 371.515 189.915 371.539 189.427 371.543L189.429 371.789C189.924 371.784 190.418 371.76 190.911 371.717L190.89 371.473ZM186.49 371.501C186.976 371.516 187.467 371.527 187.961 371.535L187.957 371.78C187.462 371.773 186.97 371.762 186.482 371.747L186.49 371.501ZM185.019 371.444C184.524 371.42 184.034 371.392 183.55 371.36L183.533 371.605C184.02 371.637 184.511 371.665 185.007 371.689L185.019 371.444ZM180.617 371.114C181.099 371.163 181.587 371.209 182.082 371.251L182.061 371.495C181.565 371.454 181.075 371.408 180.591 371.358L180.617 371.114ZM179.155 370.947C178.661 370.886 178.175 370.821 177.697 370.751L177.662 370.994C178.142 371.064 178.629 371.13 179.125 371.191L179.155 370.947ZM174.798 370.259C175.269 370.351 175.751 370.439 176.245 370.522L176.204 370.765C175.708 370.681 175.224 370.592 174.751 370.5L174.798 370.259ZM173.359 369.957C172.865 369.845 172.388 369.73 171.931 369.611L171.869 369.849C172.329 369.968 172.808 370.084 173.305 370.196L173.359 369.957ZM170.513 369.216L170.444 369.452L170.084 369.347L169.03 369.039L169.099 368.803L169.445 368.905L170.513 369.216ZM167.616 368.622L167.686 368.386L166.604 368.063L166.275 367.964L166.204 368.199L167.427 368.565L167.616 368.622ZM164.809 367.639L164.828 367.884C164.385 367.918 163.881 367.951 163.355 367.98L163.341 367.734C163.735 367.713 164.115 367.689 164.467 367.664L164.809 367.639ZM161.872 367.798C161.371 367.815 160.879 367.825 160.401 367.83L160.403 368.075C160.883 368.071 161.378 368.06 161.88 368.044L161.872 367.798ZM157.466 367.751C157.913 367.785 158.403 367.808 158.932 367.82L158.926 368.066C158.393 368.053 157.899 368.03 157.448 367.996L157.466 367.751ZM155.974 367.819L156.013 367.576L155.477 367.487C155.14 367.429 154.84 367.373 154.567 367.319L154.518 367.559L154.84 367.622C155.174 367.685 155.547 367.749 155.974 367.819Z" fill="#67513B"/>
<path d="M169.793 334.093C168.59 334.093 161.573 337.764 157.938 334.911C157.54 334.599 156.731 334.854 156.731 335.36C156.724 340.245 156.652 348.747 155.917 352.119C155.139 355.689 154.482 355.179 153.704 358.494C153.166 360.79 151.421 366.146 153.704 366.146H164.117C166.581 366.146 169.909 368.998 178.113 369.798C191.732 371.129 195.06 369.307 197.779 368.447C203.966 366.493 200.826 362.018 197.779 360.589C193.315 358.494 186.917 356.922 183.663 355.186C181.129 353.835 180.259 353.415 178.958 351.993C176.812 349.651 174.927 337.32 174.637 334.103C174.617 333.879 174.303 333.764 174.112 333.882C172.843 334.663 170.984 334.093 169.793 334.093Z" fill="#2D2B30"/>
<path d="M195.956 363.899C196.41 363.762 196.89 364.019 197.027 364.474C197.163 364.928 196.906 365.408 196.451 365.545C194.66 366.084 193.45 366.369 191.869 366.538C189.717 366.769 187.443 366.663 184.943 366.14C184.478 366.043 184.18 365.588 184.278 365.123C184.375 364.658 184.83 364.36 185.295 364.458C187.617 364.943 189.711 365.041 191.686 364.829C193.139 364.673 194.258 364.41 195.956 363.899Z" fill="#59555F"/>
<path d="M180.389 359.756C177.976 357.546 169.176 352.607 169.792 334.093C168.747 334.093 166.219 335.443 162.399 335.689C158.387 335.569 158.453 335.208 157.391 334.608C157.362 334.591 157.329 334.567 157.302 334.55C155.636 333.432 156.385 351.286 155.189 354.449C154.224 357.003 152.414 360.834 152.414 365.5C153.259 366.974 161.584 366.237 164.238 366.237C165.48 359.633 175.214 364.668 177.309 364.054C179.147 363.516 180.389 362.458 180.389 359.756Z" fill="#1D1D20"/>
<path d="M177.432 351.799C174.672 349.638 173.612 339.127 173.489 334.093C173.982 333.97 174.105 333.626 174.475 333.749C174.844 333.872 174.844 335.345 174.968 336.573C175.102 337.919 176.077 342.099 176.57 344.923C177.062 347.747 177.555 349.466 179.404 351.799C180.882 353.666 186.674 355.581 188.522 357.178C188.317 357.136 187.783 356.858 187.29 356.957C186.674 357.079 186.797 357.202 186.057 357.202C185.318 357.202 180.882 354.501 177.432 351.799Z" fill="#1D1D20"/>
<path d="M173.912 334.492C174.233 334.386 174.581 334.56 174.688 334.882C174.79 335.19 174.635 335.522 174.338 335.643L174.299 335.658L171.013 336.749L174.273 337.677C174.795 337.826 174.877 338.521 174.424 338.792L174.385 338.814L171.676 340.202L175.203 340.857C175.795 340.966 175.886 341.767 175.355 342.015L175.316 342.031L171.624 343.486L175.77 344.804C176.287 344.969 176.347 345.666 175.887 345.924L175.847 345.944L172.593 347.488L176.642 347.973C177.179 348.037 177.371 348.707 176.969 349.048L176.937 349.074L173.981 351.283L178.541 351.284C179.079 351.284 179.351 351.922 178.996 352.31L178.968 352.338L176.081 355.136L181.861 353.876C182.398 353.759 182.8 354.35 182.511 354.804L182.489 354.835L180.468 357.64L184.556 355.644C184.848 355.501 185.198 355.611 185.357 355.889L185.377 355.926C185.52 356.218 185.41 356.568 185.132 356.727L185.095 356.747L178.811 359.817C178.248 360.091 177.692 359.451 178.022 358.937L178.043 358.906L180.556 355.417L174.236 356.795C173.645 356.924 173.251 356.215 173.651 355.782L173.678 355.754L177.025 352.511L172.134 352.511C171.557 352.511 171.305 351.793 171.735 351.43L171.766 351.406L174.972 349.009L170.336 348.455C169.738 348.384 169.595 347.592 170.108 347.31L170.145 347.291L173.913 345.503L169.606 344.133C169.07 343.962 169.032 343.228 169.526 342.994L169.567 342.976L172.874 341.674L169.681 341.082C169.119 340.977 168.997 340.236 169.475 339.952L169.512 339.932L172.439 338.432L168.762 337.385C168.195 337.223 168.164 336.442 168.694 336.227L168.736 336.211L173.912 334.492Z" fill="black"/>
<path d="M147.123 335.547C145.997 333.724 143.464 334.162 142.339 334.608L142.62 335.679C143.089 335.77 144.281 335.949 144.731 336.485C145.294 337.155 144.872 338.494 145.294 338.761C145.716 339.031 146.842 338.761 147.405 338.761C147.968 338.761 148.531 337.826 147.123 335.547Z" fill="black"/>
<path d="M97.2417 368.597C96.9419 367.86 96.9935 366.264 98.8417 365.527C100.69 364.791 122.5 368.597 122.5 368.597C128.115 368.14 143.194 360.807 148.746 364.177C150.502 365.242 149.907 368.619 149.259 371.78C148.221 372.833 137.725 373.754 134.322 372.964C134.322 371.122 134.057 369.936 134.057 369.936C134.057 369.936 131.996 371.262 129.77 371.78C125.231 372.833 124.238 374 110.178 374C98.9018 372.946 98.0907 370.685 97.2417 368.597Z" fill="#383129"/>
<path fill-rule="evenodd" clip-rule="evenodd" d="M148.109 366.59C147.73 366.836 147.288 367.033 146.734 367.205L146.661 366.971C147.195 366.805 147.617 366.617 147.976 366.384L148.109 366.59ZM99.2439 368.211C98.7731 367.856 98.393 367.51 98.1318 367.203L98.319 367.044C98.5673 367.336 98.9344 367.67 99.3917 368.014L99.2439 368.211ZM101.786 369.74C101.327 369.516 100.89 369.279 100.48 369.035L100.606 368.824C101.009 369.065 101.441 369.298 101.894 369.519L101.786 369.74ZM103.142 370.34C103.596 370.521 104.062 370.688 104.537 370.839L104.612 370.605C104.142 370.456 103.682 370.291 103.233 370.112L103.142 370.34ZM107.423 371.532C106.934 371.452 106.449 371.354 105.969 371.239L106.027 371C106.501 371.114 106.98 371.211 107.462 371.29L107.423 371.532ZM108.898 371.718C109.391 371.76 109.885 371.785 110.38 371.789L110.382 371.543C109.894 371.539 109.406 371.515 108.92 371.473L108.898 371.718ZM113.327 371.747C112.839 371.762 112.347 371.773 111.852 371.78L111.848 371.535C112.342 371.528 112.833 371.517 113.319 371.502L113.327 371.747ZM114.802 371.689C115.298 371.665 115.789 371.638 116.276 371.606L116.259 371.361C115.775 371.392 115.285 371.42 114.791 371.444L114.802 371.689ZM119.216 371.358C118.732 371.408 118.243 371.454 117.747 371.496L117.726 371.251C118.22 371.209 118.709 371.164 119.191 371.114L119.216 371.358ZM120.684 371.191C121.18 371.13 121.667 371.064 122.147 370.994L122.112 370.751C121.634 370.821 121.148 370.886 120.654 370.948L120.684 371.191ZM125.058 370.5C124.585 370.592 124.101 370.681 123.605 370.765L123.564 370.523C124.057 370.439 124.54 370.351 125.01 370.259L125.058 370.5ZM126.504 370.196C127.001 370.085 127.48 369.968 127.94 369.849L127.878 369.611C127.421 369.73 126.944 369.846 126.45 369.957L126.504 370.196ZM129.365 369.452L129.296 369.216L129.657 369.111L130.71 368.803L130.779 369.039C130.55 369.106 130.317 369.175 130.082 369.243L129.365 369.452ZM132.123 368.386L132.193 368.622L133.105 368.35C133.278 368.298 133.445 368.248 133.605 368.199L133.534 367.964L132.681 368.22C132.5 368.274 132.314 368.33 132.123 368.386ZM134.981 367.884L135 367.639C135.331 367.665 135.696 367.69 136.079 367.713L136.467 367.735L136.454 367.98C136.059 367.959 135.678 367.935 135.324 367.909L134.981 367.884ZM137.929 368.044C138.431 368.061 138.926 368.071 139.406 368.075L139.408 367.83C138.93 367.826 138.438 367.815 137.937 367.799L137.929 368.044ZM142.361 367.996C141.91 368.03 141.416 368.053 140.883 368.066L140.877 367.82C141.406 367.808 141.896 367.785 142.343 367.751L142.361 367.996ZM143.796 367.577L143.835 367.819L144.245 367.751C144.637 367.685 144.98 367.622 145.291 367.56L145.242 367.319C144.832 367.401 144.363 367.485 143.796 367.577Z" fill="#67513B"/>
<path d="M130.016 334.093C131.219 334.093 138.236 337.764 141.871 334.911C142.269 334.599 143.078 334.854 143.078 335.36C143.085 340.245 143.157 348.747 143.892 352.119C144.67 355.689 145.327 355.179 146.105 358.494C146.643 360.79 148.388 366.146 146.105 366.146H135.692C133.228 366.146 129.9 368.998 121.696 369.798C108.077 371.129 104.749 369.307 102.03 368.447C95.8427 366.493 98.9826 362.018 102.03 360.589C106.494 358.494 112.892 356.922 116.146 355.186C118.68 353.835 119.55 353.415 120.852 351.993C122.997 349.651 124.882 337.32 125.172 334.103C125.192 333.879 125.506 333.764 125.697 333.882C126.966 334.663 128.825 334.093 130.016 334.093Z" fill="#2D2B30"/>
<path d="M102.782 364.474C102.919 364.019 103.399 363.762 103.853 363.899L104.209 364.005C105.712 364.447 106.774 364.684 108.123 364.829C110.098 365.041 112.192 364.943 114.514 364.458C114.979 364.36 115.434 364.658 115.531 365.123C115.628 365.588 115.331 366.043 114.866 366.14C112.366 366.663 110.091 366.769 107.939 366.538C106.359 366.369 105.149 366.084 103.357 365.545C102.903 365.408 102.645 364.928 102.782 364.474Z" fill="#59555F"/>
<path d="M119.42 359.756C121.833 357.546 130.633 352.607 130.016 334.093C131.062 334.093 133.59 335.443 137.41 335.689C141.422 335.569 141.356 335.208 142.418 334.608C142.447 334.591 142.48 334.567 142.507 334.55C144.173 333.432 143.424 351.286 144.62 354.449C145.585 357.003 147.395 360.834 147.395 365.5C146.55 366.974 138.225 366.237 135.571 366.237C134.329 359.633 124.595 364.668 122.5 364.054C120.661 363.516 119.42 362.458 119.42 359.756Z" fill="#1D1D20"/>
<path d="M122.377 351.799C125.137 349.638 126.197 339.127 126.32 334.093C125.827 333.97 125.704 333.626 125.334 333.749C124.964 333.872 124.964 335.345 124.841 336.573C124.706 337.919 123.732 342.099 123.239 344.923C122.746 347.747 122.253 349.466 120.405 351.799C118.927 353.666 113.135 355.581 111.287 357.178C111.492 357.136 112.026 356.858 112.519 356.957C113.135 357.079 113.012 357.202 113.751 357.202C114.491 357.202 118.927 354.501 122.377 351.799Z" fill="#1D1D20"/>
<path d="M125.121 334.882C125.224 334.573 125.547 334.4 125.857 334.48L125.897 334.492L131.073 336.211C131.632 336.397 131.629 337.179 131.09 337.371L131.047 337.385L127.37 338.432L130.296 339.932C130.805 340.192 130.71 340.937 130.17 341.073L130.128 341.082L126.935 341.674L130.242 342.976C130.765 343.183 130.754 343.918 130.245 344.118L130.203 344.133L125.895 345.503L129.664 347.291C130.207 347.549 130.091 348.345 129.514 348.449L129.473 348.455L124.837 349.009L128.043 351.406C128.505 351.751 128.277 352.477 127.715 352.51L127.675 352.511L122.784 352.511L126.131 355.754C126.565 356.175 126.193 356.895 125.611 356.802L125.573 356.795L119.252 355.417L121.766 358.906C122.132 359.414 121.594 360.07 121.033 359.832L120.998 359.817L114.714 356.747C114.409 356.598 114.283 356.23 114.432 355.926C114.575 355.634 114.918 355.506 115.215 355.626L115.253 355.644L119.34 357.64L117.319 354.835C116.998 354.389 117.38 353.785 117.911 353.869L117.948 353.876L123.728 355.136L120.841 352.338C120.454 351.964 120.703 351.316 121.228 351.285L121.268 351.284L125.828 351.283L122.872 349.074C122.439 348.75 122.607 348.073 123.126 347.979L123.166 347.973L127.216 347.488L123.962 345.944C123.472 345.712 123.506 345.013 123.997 344.819L124.039 344.804L128.184 343.486L124.493 342.031C123.932 341.811 123.996 341.008 124.565 340.866L124.606 340.857L128.133 340.202L125.424 338.814C124.941 338.567 124.996 337.869 125.493 337.691L125.536 337.677L128.796 336.749L125.51 335.658C125.202 335.555 125.029 335.232 125.109 334.922L125.121 334.882Z" fill="black"/>
<path d="M156.535 343.793H175.691V350.915H157.454L156.535 343.793Z" fill="#1D1F23"/>
<path d="M143.274 343.793H124.118V350.915H142.355L143.274 343.793Z" fill="#1D1F23"/>
<path d="M102.139 140.788C103.388 124.982 108.156 100.635 108.156 100.635H192.513C192.513 100.635 214.657 162.809 202.705 179.959C190.753 197.108 126.82 186.589 102.139 186.589C83.0664 186.589 100.73 158.619 102.139 140.788Z" fill="#17100F"/>
<path d="M110.3 172.32C112.755 167.943 118.294 166.386 122.67 168.841C127.047 171.297 128.604 176.835 126.149 181.212C121.653 189.227 116.947 204.104 113.824 219.742L113.674 220.502C112.286 227.578 111.335 234.293 110.939 239.789L110.904 240.29C110.733 242.858 110.692 245.083 110.778 246.871L110.795 247.19C110.838 247.92 110.902 248.547 110.982 249.056L111.005 249.195C111.062 249.527 111.114 249.739 111.138 249.806C112.845 254.526 110.403 259.735 105.683 261.442C100.964 263.148 95.7548 260.706 94.0481 255.987C91.3994 248.663 92.4614 233.916 96.0027 216.183C99.4666 198.838 104.693 182.314 110.3 172.32Z" fill="#EBBAAA"/>
<path d="M177.139 168.841C181.516 166.386 187.054 167.943 189.51 172.32C195.116 182.313 200.343 198.838 203.807 216.183C207.348 233.916 208.41 248.663 205.761 255.987C204.055 260.706 198.846 263.148 194.126 261.442C189.454 259.752 187.014 254.63 188.622 249.948L188.672 249.806C188.699 249.73 188.762 249.468 188.827 249.056C188.919 248.474 188.99 247.739 189.032 246.871C189.123 244.968 189.071 242.57 188.871 239.789C188.461 234.097 187.454 227.097 185.985 219.742C182.862 204.104 178.157 189.227 173.66 181.212C171.205 176.835 172.762 171.297 177.139 168.841Z" fill="#EBBAAA"/>
<path d="M149.905 198.623C163.468 198.623 174.463 187.628 174.463 174.065C174.463 160.501 163.468 149.506 149.905 149.506C136.341 149.506 125.346 160.501 125.346 174.065C125.346 187.628 136.341 198.623 149.905 198.623Z" fill="#C4C4C4"/>
<path d="M197.548 163.013C190.225 148.446 158.009 146.805 158.009 146.805V248.967H207.126L210.809 232.299C210.809 232.299 205.323 178.482 197.548 163.013Z" fill="#E2C9BD"/>
<path d="M186.988 211.797L201.629 203.32L204.968 210.255L186.988 211.797Z" fill="#CCA999"/>
<path d="M191.757 212.642L205.711 214.282L203.494 218.617L191.757 215.843V212.642Z" fill="#CCA999"/>
<path d="M102.262 163.013C109.584 148.446 141.8 146.805 141.8 146.805V248.967H92.6838L89.0001 232.299C89.0001 232.299 94.486 178.482 102.262 163.013Z" fill="#D8B9AA"/>
<path d="M112.674 211.797L98.0328 203.32L94.6936 210.255L112.674 211.797Z" fill="#CCA999"/>
<path d="M107.905 212.642L93.9508 214.282L96.168 218.617L107.905 215.843V212.642Z" fill="#CCA999"/>
<path d="M105.7 260.019L115.645 145.209L139.59 144.104L171.515 200.342L146.221 272.297L105.7 260.019Z" fill="#E2C9BD"/>
<path d="M112.085 192.023L118.592 138.118L136.152 145.854L141.064 187.848L143.765 210.688L112.085 192.023Z" fill="#E9D5CB"/>
<path d="M157.427 215.403L158.591 215.795L141.891 265.403L140.727 265.011L157.427 215.403Z" fill="#CCA999"/>
<path fill-rule="evenodd" clip-rule="evenodd" d="M153.476 216.132L150.193 225.39L147.879 224.57L151.161 215.311L153.476 216.132ZM143.629 243.908L146.911 234.649L144.596 233.828L141.314 243.087L143.629 243.908ZM137.064 262.425L140.346 253.166L138.031 252.346L134.749 261.604L137.064 262.425Z" fill="black"/>
<path d="M148.063 159.606L140.941 136.276L125.96 144.748V174.955L148.063 159.606Z" fill="#E2C9BD"/>
<path d="M194.109 260.019L184.163 145.209L159.728 139.469L140.081 161.571L153.588 272.297L194.109 260.019Z" fill="#F4E4DC"/>
<path d="M194.109 260.019L166.973 262.874L151.746 155.309L140.081 161.571L153.588 272.297L194.109 260.019Z" fill="#E9D5CB"/>
<path d="M140.081 161.571L158.5 135.785L169.551 144.38L158.5 176.306L140.081 161.571Z" fill="#F4E4DC"/>
<path d="M140.081 161.571L157.518 171.026L169.551 144.38L158.5 176.306L140.081 161.571Z" fill="#E2C9BD"/>
<path d="M162.429 220.02L189.444 216.091L196.32 250.963L170.288 258.331L162.429 220.02Z" fill="#E9D5CB"/>
<path d="M169.306 234.018L164.64 226.651L168.815 235.983L191.654 230.334L169.306 234.018Z" fill="#CCA999"/>
<path d="M184.747 221.994L185.054 224.431L172.407 226.027L172.099 223.59L184.747 221.994Z" fill="black"/>
<path d="M162.429 220.02L171.27 256.366L196.32 250.963L168.323 259.804L162.429 220.02Z" fill="#CCAA99"/>
<path d="M137.38 220.02L110.366 216.091L103.49 250.963L129.521 258.331L137.38 220.02Z" fill="#E9D5CB"/>
<path d="M130.504 234.018L135.17 226.651L130.995 235.983L108.156 230.334L130.504 234.018Z" fill="#CCA999"/>
<path d="M115.063 221.994L127.71 223.59L127.403 226.027L114.755 224.431L115.063 221.994Z" fill="black"/>
<path d="M137.38 220.02L128.539 256.366L103.49 250.963L131.486 259.804L137.38 220.02Z" fill="#CCAA99"/>
<rect x="141.309" y="126.912" width="17.1908" height="28.4876" rx="8.59541" fill="#EBBAAA"/>
<path d="M183.058 110.704C188.484 110.704 192.882 106.306 192.882 100.88C192.882 95.4553 188.484 91.0571 183.058 91.0571C177.633 91.0571 173.235 95.4553 173.235 100.88C173.235 106.306 177.633 110.704 183.058 110.704Z" fill="#E4C1C1"/>
<path d="M116.751 110.704C111.326 110.704 106.928 106.306 106.928 100.88C106.928 95.4553 111.326 91.0571 116.751 91.0571C122.176 91.0571 126.574 95.4553 126.574 100.88C126.574 106.306 122.176 110.704 116.751 110.704Z" fill="#E4C1C1"/>
<path d="M115.523 79.5147C115.523 60.5262 130.916 45.1331 149.905 45.1331C168.893 45.1331 184.286 60.5262 184.286 79.5147V94.6473C184.286 98.6198 183.735 102.573 182.648 106.394L178.143 122.231C174.585 134.738 163.16 143.366 150.156 143.366C137.381 143.366 126.099 135.032 122.345 122.821L117.419 106.801C116.162 102.713 115.523 98.4607 115.523 94.1838V79.5147Z" fill="#F4D5CC"/>
<path fill-rule="evenodd" clip-rule="evenodd" d="M159.701 114.388C159.719 114.631 159.728 114.877 159.728 115.124V120.036C159.728 125.461 155.33 129.859 149.905 129.859C144.479 129.859 140.081 125.461 140.081 120.036V115.124C140.081 114.877 140.09 114.631 140.109 114.388H159.701Z" fill="#393939"/>
<mask id="mask0_0_6715" style="mask-type:luminance" maskUnits="userSpaceOnUse" x="140" y="105" width="20" height="25">
<rect width="19.6466" height="24.5583" rx="9.82332" transform="matrix(-1 0 0 1 159.728 105.301)" fill="white"/>
</mask>
<g mask="url(#mask0_0_6715)">
<path d="M149.904 137.227C146.514 137.227 143.765 134.478 143.765 131.087C143.765 127.696 146.514 124.948 149.904 124.948C153.295 124.948 156.044 127.696 156.044 131.087C156.044 134.478 153.295 137.227 149.904 137.227Z" fill="#FF6C6C"/>
</g>
<rect width="19.6466" height="4.91166" transform="matrix(-1 0 0 1 159.728 114.388)" fill="white"/>
<path d="M129.767 114.387C133.836 114.387 137.134 111.089 137.134 107.02C137.134 102.951 133.836 99.6523 129.767 99.6523C125.698 99.6523 122.399 102.951 122.399 107.02C122.399 111.089 125.698 114.387 129.767 114.387Z" fill="#F2CACA"/>
<path d="M162.19 88.356C162.256 87.6995 162.827 87.2157 163.479 87.2522L163.534 87.2564L170.901 87.9934C171.576 88.0609 172.069 88.6627 172.001 89.3375C171.935 89.994 171.364 90.4778 170.712 90.4413L170.657 90.4371L163.29 89.7001C162.615 89.6326 162.122 89.0308 162.19 88.356Z" fill="black"/>
<path d="M136.275 87.2564C136.95 87.1889 137.552 87.6812 137.619 88.356C137.685 89.0126 137.221 89.6 136.574 89.6934L136.52 89.7001L129.152 90.4371C128.478 90.5046 127.876 90.0123 127.808 89.3375C127.743 88.6809 128.207 88.0935 128.854 88.0001L128.908 87.9934L136.275 87.2564Z" fill="black"/>
<path d="M164.64 86.3911C166.242 86.3911 167.546 87.6702 167.586 89.2632L167.587 89.3381V96.7056C167.587 98.3332 166.267 99.6526 164.64 99.6526C163.037 99.6526 161.733 98.3735 161.694 96.7805L161.693 96.7056V89.3381C161.693 87.7105 163.012 86.3911 164.64 86.3911Z" fill="black"/>
<path d="M135.171 86.3911C136.773 86.3911 138.077 87.6702 138.117 89.2632L138.118 89.3381V96.7056C138.118 98.3332 136.798 99.6526 135.171 99.6526C133.568 99.6526 132.264 98.3735 132.225 96.7805L132.224 96.7056V89.3381C132.224 87.7105 133.543 86.3911 135.171 86.3911Z" fill="black"/>
<path d="M147.481 97.157L151.617 97.7273L151.585 97.9511C151.494 98.5576 151.386 99.0354 151.053 100.375L150.793 101.422C150.754 101.579 150.72 101.721 150.687 101.862C150.299 103.52 150.187 104.586 150.333 105.192L150.35 105.261C150.378 105.36 150.399 105.39 150.419 105.405C150.448 105.426 150.503 105.451 150.6 105.478C150.745 105.516 150.935 105.541 151.174 105.546L151.255 105.546V109.721C148.612 109.721 146.817 108.425 146.274 106.171C145.935 104.764 146.084 103.25 146.587 101.064L146.69 100.626C146.729 100.464 146.771 100.293 146.819 100.097L147.149 98.7682C147.344 97.9679 147.414 97.6291 147.472 97.2267L147.481 97.157Z" fill="#EBBAAA"/>
<path d="M170.042 114.387C174.111 114.387 177.41 111.089 177.41 107.02C177.41 102.951 174.111 99.6523 170.042 99.6523C165.973 99.6523 162.675 102.951 162.675 107.02C162.675 111.089 165.973 114.387 170.042 114.387Z" fill="#F2CACA"/>
<path d="M156.657 77.2233C160.144 75.6191 165.35 75.214 169.068 75.8868C170.27 76.1043 171.367 76.5167 172.351 77.0672C172.88 77.363 173.346 77.6815 173.746 78.0034L173.866 78.1017C174.057 78.2604 174.199 78.3927 174.292 78.4879C174.859 79.0715 174.846 80.0044 174.262 80.5715C173.694 81.1237 172.794 81.1256 172.224 80.5866L172.148 80.5131L172.134 80.5001C172.071 80.4422 171.993 80.3748 171.9 80.3003C171.623 80.0777 171.293 79.8517 170.913 79.6394C170.201 79.2412 169.408 78.9433 168.543 78.7867C165.38 78.2142 160.775 78.5724 157.888 79.9006C157.149 80.2407 156.274 79.9171 155.934 79.1778C155.594 78.4384 155.917 77.5634 156.657 77.2233Z" fill="#62360D"/>
<path d="M130.742 75.8868C134.46 75.214 139.666 75.6191 143.153 77.2233C143.893 77.5634 144.216 78.4384 143.876 79.1778C143.536 79.9171 142.661 80.2407 141.922 79.9006C139.035 78.5725 134.43 78.2143 131.267 78.7867C130.402 78.9433 129.609 79.2412 128.897 79.6394C128.517 79.8517 128.187 80.0777 127.91 80.3003C127.836 80.3599 127.771 80.415 127.716 80.4642L127.632 80.5417C127.064 81.1253 126.132 81.1387 125.548 80.5715C124.964 80.0044 124.951 79.0715 125.518 78.4879L125.58 78.4264C125.692 78.3168 125.854 78.1722 126.064 78.0034C126.464 77.6815 126.93 77.363 127.459 77.0672C128.443 76.5167 129.54 76.1043 130.742 75.8868Z" fill="#62360D"/>
<path fill-rule="evenodd" clip-rule="evenodd" d="M128.961 67.147C133.576 61.7161 141.091 58.5929 146.243 56.4519C147.985 55.7277 149.458 55.1159 150.456 54.5651C151.217 55.0186 152.611 55.4929 154.368 56.0907C158.697 57.5631 165.228 59.7846 169.92 64.2892C174.952 69.1196 184.286 82.9393 184.286 91.1806C197.425 93.1452 194.233 112.792 181.094 110.459C180.931 111.791 180.426 114.129 179.864 116.728C179.58 118.042 179.282 119.422 179.006 120.773C176.71 132.023 172.278 143.569 168.107 154.436C160.726 173.667 154.161 190.77 161.693 200.342C167.095 207.207 177.192 206.747 184.041 201.325C189.227 197.219 188.565 193.252 187.522 186.996C187.045 184.14 186.489 180.807 186.374 176.766C186.035 164.895 187.962 153.299 189.882 141.743C191.927 129.44 193.964 117.182 193.25 104.688C192.327 88.5327 188.434 75.7307 184.041 64.2892C178.147 48.9403 160.342 39.4856 153.589 41.8185C152.283 42.2695 151.33 43.0443 150.653 44.0134C150.315 43.2996 149.899 42.7059 149.397 42.3085C145.38 39.1291 131.137 45.3658 124.807 51.3577C118.476 57.3497 111.217 69.8197 108.364 87.7988C107.033 96.1845 107.033 122.688 107.033 132.377V132.556C107.033 135.594 107.144 138.919 107.26 142.39C107.509 149.814 107.78 157.912 107.033 165.328C106.286 172.754 105.208 186.236 105.209 204.457C105.209 208.618 116.837 209.876 117.502 206.536C117.991 204.081 118.02 195.902 118.051 187.264C118.082 178.686 118.114 169.654 118.6 165.328C118.732 164.148 118.874 163.012 119.02 161.909C119.421 165.61 119.783 168.419 120.066 169.767C121.052 174.448 121.203 179.561 121.342 184.239C121.479 188.888 121.604 193.107 122.522 196.044C123.317 198.586 125.929 198.518 129.716 198.42C130.503 198.399 131.34 198.377 132.223 198.377C134.433 198.377 135.415 169.153 134.433 159.821C133.647 152.355 130.667 140.092 129.276 134.649C123.521 128.746 120.364 118.393 118.593 110.581C118.22 110.675 117.72 110.661 117.199 110.596C117.427 106.947 117.429 102.619 117.432 98.5374V98.5374V98.5374C117.433 95.8166 117.434 93.2055 117.502 90.9784C117.746 83.0299 122.31 74.9737 128.961 67.147Z" fill="#311E1C"/>
<path fill-rule="evenodd" clip-rule="evenodd" d="M148.947 53.5326C117.571 54.5317 107.879 94.0354 107.879 94.0354C102.679 94.0354 100.6 87.7214 100.801 79.5578L100.552 79.3068L100.836 78.5769C100.873 77.7655 100.932 76.9382 101.011 76.0991L99.6152 74.7026L101.402 72.9154C101.449 72.6015 101.499 72.2867 101.551 71.9713L98.911 69.33L101.912 66.3287L100.256 63.3383L102.923 60.6708L102.184 56.7633L105.65 54.7272L105.053 52.4636L107.888 49.6291L106.279 48.0205L111.723 45.7943L111.114 43.1855L114.39 43.1268L114.449 39.8509L119.225 38.2916L119.618 34.6823L123.394 34.1234L124.894 32.6228L127.991 32.3853L127.228 30.2886L133.101 30.4926L134.22 27.9436L140.123 29.0113L141.51 26.7305L148.071 30.2078C148.526 30.1958 148.984 30.1883 149.444 30.1853L149.905 30.1838C150.519 30.1838 151.13 30.1918 151.736 30.2078L158.296 26.7305L159.684 29.0113L165.587 27.9436L166.706 30.4926L172.578 30.2886L171.816 32.3853L174.913 32.6228L176.413 34.1234L180.189 34.6823L180.581 38.2916L185.358 39.8509L185.417 43.1268L188.692 43.1855L188.084 45.7943L193.528 48.0205L191.919 49.6291L194.753 52.4636L194.157 54.7272L197.623 56.7633L196.884 60.6708L199.551 63.3383L197.895 66.3287L200.896 69.33L198.257 71.969C198.31 72.2862 198.36 72.6028 198.408 72.9184L200.192 74.7026L198.798 76.0968C198.878 76.9391 198.936 77.7696 198.974 78.5839L199.255 79.3068L199.008 79.5553C199.209 87.7201 197.131 94.0354 191.93 94.0354L191.882 93.8471C191.103 90.8751 180.756 53.721 149.905 53.5142L148.947 53.5326Z" fill="#8A8080"/>
</svg>
