<svg width="300" height="400" viewBox="0 0 300 400" fill="none" xmlns="http://www.w3.org/2000/svg">
<path d="M186.117 258.946C186.117 265.23 171.773 270.384 152.412 270.384C133.05 270.384 117.354 265.29 117.354 259.005C117.354 252.721 133.05 247.626 152.412 247.626C171.773 247.626 186.117 252.661 186.117 258.946Z" fill="#666666"/>
<path d="M169.749 265.863C173.602 265.061 177.375 267.534 178.177 271.387C179.854 279.442 180.428 293.815 180.353 315.398L180.336 318.856C180.315 322.191 180.281 325.578 180.23 329.622L179.971 348.341C179.924 352.085 179.917 353.68 179.917 356.138C179.917 360.073 176.727 363.263 172.792 363.263C168.857 363.263 165.667 360.073 165.667 356.138L165.672 353.422C165.678 352.185 165.69 350.862 165.712 348.966L165.983 329.276C166.044 324.485 166.079 320.623 166.098 316.663L166.105 314.774C166.162 294.824 165.619 281.212 164.268 274.499L164.226 274.291C163.424 270.439 165.897 266.665 169.749 265.863Z" fill="#EBBAAA"/>
<path d="M130.864 290.689C131.095 286.761 134.467 283.764 138.395 283.995C142.323 284.226 145.32 287.598 145.089 291.527C144.804 296.368 144.482 300.997 144.1 305.874L143.889 308.515C143.502 313.225 142.745 322.092 142.722 322.374L142.585 324.045C142.23 328.466 142 331.872 141.848 335.163L141.829 335.573C141.59 340.935 141.571 345.905 141.796 351.18C141.963 355.111 138.911 358.434 134.98 358.601C131.049 358.769 127.726 355.717 127.558 351.786C127.316 346.084 127.336 340.702 127.593 334.939L127.644 333.856C127.807 330.524 128.045 327.067 128.4 322.668L128.55 320.849C128.719 318.856 129.548 309.131 129.818 305.725C130.227 300.578 130.566 295.75 130.864 290.689Z" fill="#EBBAAA"/>
<path d="M113.745 239.77H150.864L148.115 324.77V339.37H124.743L118.89 324.77L113.745 239.77Z" fill="#666666"/>
<path d="M150.511 241.218H187.756V323.138L183.722 338.638H160.488V326.093L150.511 241.218Z" fill="#666666"/>
<path d="M102.529 369.6C102.529 359.23 110.934 350.825 121.302 350.825H145.417C145.577 350.825 145.706 350.955 145.706 351.115V368.423C145.706 369.84 144.557 370.99 143.139 370.99H103.919C103.151 370.99 102.529 370.368 102.529 369.6Z" fill="#D6AF85"/>
<mask id="mask0_0_6831" style="mask-type:luminance" maskUnits="userSpaceOnUse" x="102" y="350" width="44" height="21">
<path fill-rule="evenodd" clip-rule="evenodd" d="M102.529 369.6C102.529 359.23 110.934 350.825 121.302 350.825H145.706V368.423C145.706 369.84 144.557 370.99 143.139 370.99H103.919C103.151 370.99 102.529 370.368 102.529 369.6Z" fill="white"/>
</mask>
<g mask="url(#mask0_0_6831)">
<path d="M107.536 358.265C104.299 356.438 105.569 360.063 102.66 361.603L96.5002 373.41H145.521C146.719 371.698 150.635 365.648 147.189 364.425C139.233 361.603 130.122 367.12 125.502 366.865C120.882 366.608 107.658 368.53 108.435 364.425C109.333 359.678 110.488 359.935 107.536 358.265Z" fill="#A58F75"/>
<path d="M142.119 367.42C146.391 365.428 148.9 361.767 147.723 359.243C146.546 356.72 142.129 356.289 137.857 358.281C133.585 360.273 131.076 363.934 132.253 366.457C133.429 368.981 137.847 369.412 142.119 367.42Z" fill="#A58F75"/>
</g>
<path d="M120.138 350.106C120.384 349.778 120.841 349.702 121.178 349.925L122.278 350.709C122.356 350.765 122.423 350.814 122.471 350.85C123.85 351.884 124.604 352.827 124.604 354.033C124.604 354.529 124.144 354.891 123.667 354.785L123.624 354.774L117.839 353.134L119.74 356.191C120.112 356.79 119.552 357.525 118.886 357.341L118.846 357.33L113.22 355.486L115.224 358.338C115.46 358.673 115.391 359.13 115.075 359.382L115.037 359.41C114.702 359.646 114.244 359.577 113.993 359.261L113.965 359.223L110.628 354.476C110.21 353.881 110.772 353.101 111.458 353.289L111.498 353.301L117.315 355.207L115.481 352.257C115.117 351.671 115.646 350.947 116.304 351.099L116.344 351.11L122.422 352.832L122.411 352.821C122.202 352.608 121.943 352.384 121.633 352.147L121.547 352.082C121.304 351.9 120.448 351.301 120.292 351.184C119.952 350.929 119.883 350.446 120.138 350.106Z" fill="#978D73"/>
<path fill-rule="evenodd" clip-rule="evenodd" d="M117.059 344.774C117.6 344.038 118.382 343.638 119.343 343.638C121.316 343.638 122.807 345.334 122.807 347.615L122.809 347.855L122.825 348.926L122.825 349.255C122.82 349.72 122.789 350.05 122.717 350.326C122.629 350.664 122.477 350.904 122.228 351.078C121.975 351.247 121.622 351.333 121.139 351.333C120.119 351.333 118.903 350.954 117.958 350.324C116.889 349.616 116.263 348.669 116.263 347.615C116.263 346.474 116.539 345.485 117.059 344.774ZM121.268 347.615C121.268 346.144 120.418 345.177 119.343 345.177C118.875 345.177 118.552 345.343 118.301 345.684C117.991 346.109 117.803 346.781 117.803 347.615C117.803 348.091 118.136 348.594 118.81 349.042C119.508 349.506 120.428 349.793 121.14 349.793C121.172 349.793 121.203 349.792 121.231 349.791L121.255 349.79L121.264 349.713C121.276 349.589 121.284 349.429 121.286 349.226L121.286 349.148C121.287 349.062 121.286 348.981 121.285 348.875L121.271 348.086C121.27 348 121.269 347.921 121.269 347.844L121.268 347.615Z" fill="#978D73"/>
<path fill-rule="evenodd" clip-rule="evenodd" d="M122.877 348.958L123.065 348.545C123.762 347.066 125.254 346.414 126.571 347C127.222 347.291 127.633 347.795 127.781 348.453C127.922 349.084 127.814 349.832 127.474 350.595C127.161 351.301 126.454 351.747 125.516 351.9C124.685 352.037 123.747 351.924 123.053 351.616C122.774 351.491 122.568 351.35 122.437 351.179L122.406 351.135C122.396 351.121 122.386 351.106 122.377 351.091L122.353 351.045L122.354 351.044L122.347 351.032C122.326 350.993 122.319 350.974 122.307 350.937L122.302 350.919L122.279 350.823L122.273 350.781C122.261 350.68 122.266 350.575 122.284 350.465C122.319 350.242 122.405 349.996 122.56 349.645L122.579 349.6C122.613 349.525 122.649 349.446 122.693 349.352L122.877 348.958ZM126.278 348.789C126.237 348.605 126.15 348.498 125.944 348.406C125.421 348.173 124.789 348.458 124.438 349.245L124.377 349.382L124.045 350.096L123.951 350.305L123.985 350.315C124.343 350.411 124.78 350.445 125.176 350.394L125.266 350.38C125.736 350.304 125.99 350.143 126.067 349.969C126.281 349.489 126.341 349.071 126.278 348.789Z" fill="#978D73"/>
<path d="M205.102 369.6C205.102 359.23 196.697 350.825 186.329 350.825H162.214C162.054 350.825 161.925 350.955 161.925 351.115V368.423C161.925 369.84 163.074 370.99 164.492 370.99H203.712C204.48 370.99 205.102 370.368 205.102 369.6Z" fill="#D6AF85"/>
<mask id="mask1_0_6831" style="mask-type:luminance" maskUnits="userSpaceOnUse" x="161" y="350" width="45" height="21">
<path fill-rule="evenodd" clip-rule="evenodd" d="M205.102 369.6C205.102 359.23 196.697 350.825 186.329 350.825H161.925V368.423C161.925 369.84 163.074 370.99 164.492 370.99H203.712C204.48 370.99 205.102 370.368 205.102 369.6Z" fill="white"/>
</mask>
<g mask="url(#mask1_0_6831)">
<path d="M200.094 358.265C203.331 356.438 202.062 360.063 204.971 361.603L211.13 373.41H162.109C160.912 371.698 156.996 365.648 160.441 364.425C168.397 361.603 177.509 367.12 182.128 366.865C186.748 366.608 199.973 368.53 199.196 364.425C198.298 359.678 197.143 359.935 200.094 358.265Z" fill="#A58F75"/>
<path d="M165.512 367.42C161.24 365.428 158.731 361.767 159.908 359.243C161.084 356.72 165.502 356.289 169.774 358.281C174.046 360.273 176.555 363.934 175.378 366.457C174.201 368.981 169.784 369.412 165.512 367.42Z" fill="#A58F75"/>
</g>
<path d="M186.414 349.952C186.755 349.697 187.237 349.766 187.492 350.106C187.748 350.446 187.679 350.929 187.338 351.184L186.888 351.506C186.606 351.706 186.272 351.943 186.113 352.06L186.084 352.082C185.774 352.315 185.512 352.534 185.298 352.743L185.209 352.832L191.286 351.11C191.95 350.922 192.499 351.63 192.171 352.221L192.15 352.257L190.316 355.207L196.133 353.301C196.824 353.075 197.406 353.84 197.026 354.441L197.003 354.476L193.666 359.223C193.422 359.571 192.941 359.655 192.593 359.41C192.258 359.175 192.168 358.721 192.38 358.377L192.406 358.338L194.41 355.486L188.784 357.33C188.114 357.549 187.534 356.83 187.87 356.227L187.891 356.191L189.791 353.134L184.007 354.774C183.53 354.909 183.055 354.565 183.028 354.078L183.027 354.033C183.027 352.827 183.781 351.885 185.16 350.85L185.401 350.674C185.763 350.414 186.313 350.028 186.414 349.952Z" fill="#978D73"/>
<path fill-rule="evenodd" clip-rule="evenodd" d="M184.824 347.528C184.862 345.291 186.34 343.638 188.288 343.638C189.248 343.638 190.031 344.038 190.573 344.776C191.092 345.485 191.368 346.474 191.368 347.615C191.368 348.669 190.741 349.616 189.674 350.324C188.728 350.954 187.512 351.333 186.492 351.333C186.01 351.333 185.657 351.247 185.388 351.068C185.154 350.904 185.002 350.663 184.913 350.325C184.836 350.03 184.806 349.672 184.805 349.153C184.805 349.077 184.805 349.007 184.806 348.926L184.822 347.885L184.824 347.528ZM189.331 345.686C189.079 345.343 188.756 345.177 188.288 345.177C187.213 345.177 186.363 346.144 186.363 347.615C186.363 347.731 186.363 347.837 186.361 347.956L186.347 348.789L186.345 349.148C186.346 349.414 186.355 349.614 186.372 349.758L186.376 349.79L186.4 349.791L186.492 349.793C187.203 349.793 188.123 349.506 188.822 349.041C189.495 348.594 189.828 348.091 189.828 347.615C189.828 346.781 189.64 346.109 189.331 345.686Z" fill="#978D73"/>
<path fill-rule="evenodd" clip-rule="evenodd" d="M181.061 346.999C180.408 347.291 179.997 347.795 179.85 348.452C179.709 349.083 179.817 349.832 180.158 350.596C180.47 351.3 181.177 351.747 182.116 351.9C182.945 352.037 183.884 351.924 184.576 351.616L184.644 351.585C184.82 351.501 184.964 351.409 185.076 351.307L185.109 351.276C185.119 351.266 185.129 351.256 185.139 351.245L185.153 351.229C185.177 351.202 185.199 351.174 185.218 351.146L185.23 351.128L185.238 351.117L185.259 351.08L185.27 351.056L185.296 351.005C185.317 350.964 185.321 350.948 185.333 350.906L185.35 350.828L185.351 350.823C185.371 350.712 185.368 350.592 185.347 350.464C185.315 350.259 185.239 350.034 185.106 349.724L184.998 349.482L184.621 348.667L184.6 348.62C183.918 347.088 182.399 346.404 181.061 346.999ZM183.162 349.179L183.249 349.371L183.594 350.115L183.68 350.305L183.646 350.315C183.26 350.419 182.784 350.449 182.366 350.38C181.896 350.304 181.641 350.143 181.565 349.97C181.35 349.489 181.29 349.071 181.353 348.788C181.394 348.605 181.482 348.498 181.688 348.406C182.195 348.18 182.807 348.442 183.162 349.179ZM183.914 350.339L184.59 349.93L184.386 349.985C184.185 350.041 184.116 350.073 184.043 350.155L184.028 350.172C184.037 350.167 184.044 350.163 184.048 350.161L184.052 350.158C184.04 350.167 184.027 350.178 184.014 350.192L184.002 350.204L183.944 350.283L183.914 350.339Z" fill="#978D73"/>
<path d="M188.911 144.484C194.973 142.168 201.765 145.206 204.08 151.268C207.948 161.395 211.643 176.843 213.617 191.72C216.025 209.872 215.838 225.818 212.205 237.512C210.279 243.709 203.694 247.172 197.497 245.246C191.362 243.34 187.907 236.867 189.707 230.725L189.763 230.539C192.169 222.797 192.32 209.878 190.321 194.81C188.575 181.652 185.301 167.963 182.127 159.653C179.811 153.59 182.849 146.799 188.911 144.484Z" fill="#EBBAAA"/>
<path d="M96.2473 151.267C98.5628 145.205 105.354 142.168 111.416 144.483C117.479 146.799 120.516 153.59 118.2 159.652C114.133 170.301 111.163 183.628 111.469 193.565C111.632 198.834 112.684 202.645 114.318 204.788C115.774 206.698 118.105 207.75 122.651 207.75C129.14 207.75 134.401 213.011 134.401 219.5C134.401 225.989 129.14 231.25 122.651 231.25C111.06 231.25 101.732 227.04 95.6292 219.035C90.6011 212.44 88.2813 204.037 87.9805 194.29C87.7501 186.82 88.7214 178.656 90.6141 170.164C92.1082 163.46 94.136 156.795 96.2473 151.267Z" fill="#EBBAAA"/>
<path d="M99.5378 144.195C105.636 135.835 122.436 137.507 132.764 132.85H171.342C182.542 138.463 193.199 137.846 202.08 144.195C214.276 152.914 213.405 162.588 216.267 178.591C216.267 178.591 211.414 182.293 202.08 185.279C196.496 187.066 191.668 187.783 188.691 188.071C188.87 190.96 189.013 193.825 189.013 195.55V219.913V245.352C180.883 246.705 161.959 247.621 153.796 248.099C145.632 248.576 121.888 247.103 111.31 245.352C110.438 237.231 111.31 221.923 111.31 216.788C111.31 211.652 111.071 201.641 111.071 194.714C111.071 192.639 111.046 190.496 111.024 188.036C101.406 186.922 83.7334 182.293 83.7334 182.293C83.7334 182.293 87.3728 170.743 91.0756 160.438C93.5646 153.511 95.3273 149.968 99.5378 144.195Z" fill="#454B5E"/>
<path d="M111.076 188.132V185.147C107.613 184.788 101.763 183.833 98.3001 182.878C95.1357 182.005 88.5094 180.251 84.808 178.818L83.7334 182.4C85.405 182.997 89.7272 183.929 93.166 184.788C96.6047 185.648 106.539 187.296 111.076 188.132Z" fill="#727889"/>
<path d="M188.566 185.266L188.686 188.251C192.109 187.773 199.994 186.145 204.566 184.55C209.7 182.759 214.476 180.251 216.267 178.46L215.67 175.117C212.924 177.505 207.909 180.012 203.372 181.565C199.93 182.742 192.467 184.589 188.566 185.266Z" fill="#727889"/>
<path d="M152.03 160.55C163.768 160.55 173.283 152.318 173.283 142.163C173.283 132.008 163.768 123.775 152.03 123.775C140.292 123.775 130.777 132.008 130.777 142.163C130.777 152.318 140.292 160.55 152.03 160.55Z" fill="#727889"/>
<rect x="136.508" y="127.357" width="31.044" height="27.462" rx="13.731" fill="#EBBAAA"/>
<rect opacity="0.5" x="123.849" y="198.969" width="18.5403" height="9.52077" fill="white"/>
<path opacity="0.9" fill-rule="evenodd" clip-rule="evenodd" d="M124.21 230.042L121.652 196.051H144.673L142.115 230.042C141.949 231.907 140.837 233.343 139.558 233.343H126.768C125.451 233.343 124.376 231.907 124.21 230.042ZM133.156 207.238C136.933 205.539 141.246 207.238 141.246 207.238L141.821 199.78H124.504L125.067 207.238C125.067 207.238 129.379 208.938 133.156 207.238Z" fill="#E4EBED"/>
<path d="M98.3394 188.976C104.731 187.852 110.823 192.121 111.948 198.512C112.552 201.946 113.629 204.248 115.006 205.561C116.439 206.927 118.732 207.75 122.651 207.75C129.14 207.75 134.401 213.011 134.401 219.5C134.401 225.989 129.14 231.25 122.651 231.25C112.968 231.25 104.832 228.331 98.7889 222.568C93.4127 217.442 90.2151 210.607 88.8035 202.585C87.6789 196.194 91.9483 190.101 98.3394 188.976Z" fill="#EBBAAA"/>
<path d="M180.712 111.047C188.528 111.047 194.865 104.711 194.865 96.8947C194.865 89.0782 188.528 82.7419 180.712 82.7419C172.895 82.7419 166.559 89.0782 166.559 96.8947C166.559 104.711 172.895 111.047 180.712 111.047Z" fill="#EBBAAA"/>
<path d="M121.968 111.764C114.151 111.764 107.815 105.428 107.815 97.6112C107.815 89.795 114.151 83.4585 121.968 83.4585C129.784 83.4585 136.12 89.795 136.12 97.6112C136.12 105.428 129.784 111.764 121.968 111.764Z" fill="#EBBAAA"/>
<path d="M115.217 68.4842C115.217 48.5308 131.392 32.3555 151.345 32.3555C171.706 32.3555 188.044 49.171 187.459 69.5227L186.976 86.324L186.147 111.288C185.611 127.46 172.345 140.293 156.164 140.293H151.872H147.338C131.743 140.293 118.749 128.345 117.443 112.806L115.217 86.324V68.4842Z" fill="#F4D4C9"/>
<path d="M165.723 34.6239C165.894 34.7631 166.061 34.9048 166.223 35.0487C176.132 34.8388 192.87 43.3717 193.781 67.5782C191.731 82.158 189.851 86.5195 188.233 85.9478L187.881 93.6807C187.861 94.1068 187.471 94.4435 186.994 94.4435C186.554 94.4435 186.182 94.1539 186.117 93.7655L186.111 93.722L183.919 72.9376L183.8 72.281C183.05 59.184 173.72 48.9918 166.187 53.1721C165.982 53.3344 165.769 53.4922 165.548 53.6457C165.456 55.3259 164.282 57.2009 161.037 59.2095C150.516 65.7226 145.479 64.502 138.612 64.4506L138.189 64.449C138.189 64.449 147.391 62.8277 152.534 59.2095C152.725 59.0746 152.915 58.9313 153.101 58.7802L152.746 58.8996C148.291 60.3794 143.195 61.3728 140.449 61.8728L139.932 61.9662C136.55 62.5735 127.182 64.8185 121.898 63.2101C120.461 64.9861 119.582 67.2651 119.369 70.1885L119.331 70.7004C118.998 75.101 118.564 78.5741 118.061 81.2056L116.678 94.8852C116.635 95.3127 116.252 95.6375 115.796 95.6375C115.319 95.6375 114.929 95.2865 114.908 94.8422L114.593 87.6418C113.67 87.1865 112.737 85.3455 111.891 82.3722C111.494 80.976 111.948 75.8572 111.891 74.4095C111.891 36.1354 150.439 19.3406 165.723 34.6239Z" fill="#272727"/>
<path d="M135.092 74.29C137.683 74.29 140.194 74.6233 142.54 75.179C143.296 75.358 143.989 75.5497 144.609 75.7441L144.777 75.7971C145.192 75.93 145.497 76.0389 145.682 76.111C147.226 76.7122 147.99 78.4512 147.389 79.9951C146.797 81.5153 145.102 82.2796 143.576 81.7288L143.413 81.668C143.313 81.6322 143.156 81.5782 142.945 81.5108C142.426 81.3444 141.826 81.1759 141.158 81.0176C139.238 80.563 137.182 80.29 135.092 80.29C133.019 80.2899 131.099 80.558 129.388 81.002C128.801 81.1544 128.287 81.3155 127.854 81.4732L127.718 81.5235C127.654 81.5477 127.596 81.5704 127.543 81.5915L127.432 81.6371C125.924 82.3234 124.145 81.6571 123.459 80.1491C122.783 78.6646 123.418 76.9177 124.877 76.2089L125.006 76.1495C125.05 76.1302 125.103 76.1076 125.165 76.0819L125.212 76.0622C125.384 75.9915 125.581 75.9152 125.803 75.8347C126.41 75.6136 127.105 75.3958 127.881 75.1945C130.063 74.628 132.485 74.2899 135.092 74.29Z" fill="#393939"/>
<path d="M167.469 74.2898C170.077 74.2897 172.499 74.6278 174.681 75.1943C175.457 75.3956 176.151 75.6133 176.759 75.8345L176.972 75.9135C177.109 75.9652 177.235 76.0148 177.349 76.0619L177.521 76.1342C177.557 76.1499 177.589 76.1638 177.615 76.1757C179.123 76.862 179.789 78.6408 179.103 80.1489C178.427 81.6334 176.693 82.3021 175.201 81.668L175.069 81.6117L174.906 81.547C174.846 81.5238 174.78 81.499 174.708 81.473C174.274 81.3152 173.76 81.1541 173.174 81.0018C171.463 80.5578 169.543 80.2897 167.469 80.2898C165.379 80.2898 163.324 80.5627 161.404 81.0173C160.796 81.1612 160.245 81.3136 159.76 81.4651L159.616 81.5105C159.406 81.578 159.248 81.6319 159.149 81.6678L159.057 81.7018C157.513 82.303 155.774 81.5388 155.173 79.9949C154.571 78.4509 155.336 76.712 156.88 76.1108L157.053 76.0455C157.235 75.9789 157.481 75.8944 157.785 75.7969C158.447 75.5844 159.197 75.3741 160.021 75.1788C162.368 74.6231 164.878 74.2898 167.469 74.2898Z" fill="#393939"/>
<path d="M149.548 93.9453L153.534 95.4186C152.412 98.456 151.919 101.714 152.204 104.098C152.443 106.097 153.043 106.911 153.926 106.938L153.973 106.939V111.189C150.491 111.189 148.452 108.526 147.984 104.602C147.62 101.554 148.185 97.7188 149.475 94.1437L149.548 93.9453Z" fill="#EBBAAA"/>
<path d="M167.091 88.592C168.596 88.592 170.085 88.8795 171.505 89.3562C171.998 89.5219 172.45 89.6999 172.853 89.8794L173.044 89.9662C173.2 90.039 173.322 90.0995 173.404 90.1436C174.258 90.5979 174.581 91.6577 174.127 92.5108C173.682 93.3453 172.658 93.6729 171.815 93.2615L171.674 93.19C171.615 93.1615 171.533 93.1229 171.429 93.0765C171.123 92.9405 170.774 92.803 170.39 92.6742C169.304 92.3095 168.178 92.092 167.091 92.092C166.004 92.092 164.877 92.3095 163.791 92.6742C163.455 92.7869 163.146 92.9063 162.87 93.0255L162.753 93.0765C162.597 93.1461 162.49 93.1982 162.438 93.225L162.422 93.233C161.569 93.6872 160.509 93.3639 160.055 92.5108C159.601 91.6577 159.924 90.5979 160.777 90.1436L160.847 90.1075C160.961 90.049 161.123 89.971 161.329 89.8794C161.732 89.6998 162.184 89.5218 162.677 89.3562C164.097 88.8795 165.586 88.592 167.091 88.592Z" fill="#393939"/>
<path d="M136.763 88.592C138.269 88.592 139.757 88.8795 141.177 89.3562C141.67 89.5219 142.122 89.6999 142.525 89.8794L142.716 89.9662C142.873 90.039 142.994 90.0995 143.077 90.1436C143.93 90.5979 144.253 91.6577 143.799 92.5108C143.355 93.3453 142.331 93.6729 141.488 93.2615L141.346 93.19C141.288 93.1615 141.205 93.1229 141.101 93.0765C140.796 92.9405 140.447 92.803 140.063 92.6742C138.977 92.3095 137.851 92.092 136.763 92.092C135.676 92.092 134.55 92.3095 133.464 92.6742C133.08 92.803 132.731 92.9405 132.426 93.0765L132.286 93.14C132.231 93.1654 132.187 93.1867 132.153 93.2035L132.095 93.233C131.242 93.6872 130.182 93.3638 129.728 92.5107C129.273 91.6576 129.597 90.5978 130.45 90.1436L130.519 90.1075C130.634 90.0489 130.796 89.971 131.001 89.8794C131.405 89.6998 131.856 89.5218 132.35 89.3562C133.77 88.8795 135.258 88.592 136.763 88.592Z" fill="#393939"/>
<path fill-rule="evenodd" clip-rule="evenodd" d="M141.039 116.415V120.302C141.039 126.286 145.89 131.135 151.872 131.135C157.856 131.135 162.705 126.286 162.705 120.302V116.415H141.039Z" fill="#393939"/>
<mask id="mask2_0_6831" style="mask-type:luminance" maskUnits="userSpaceOnUse" x="141" y="116" width="22" height="16">
<path fill-rule="evenodd" clip-rule="evenodd" d="M141.056 116.412C141.044 116.612 141.039 116.814 141.039 117.016V120.803C141.039 126.51 145.89 131.136 151.872 131.136C157.856 131.136 162.705 126.51 162.705 120.803V117.016C162.705 116.814 162.699 116.612 162.687 116.412H141.056Z" fill="white"/>
</mask>
<g mask="url(#mask2_0_6831)">
<path d="M151.872 134.609C155.48 134.609 158.405 133.017 158.405 131.053C158.405 129.089 155.48 127.497 151.872 127.497C148.264 127.497 145.339 129.089 145.339 131.053C145.339 133.017 148.264 134.609 151.872 134.609Z" fill="#FF6C6C"/>
</g>
<rect x="141.039" y="116.415" width="21.6668" height="4.4657" fill="white"/>
<g opacity="0.7">
<path d="M146.657 136.502C147.035 136.1 147.668 136.08 148.071 136.458C148.46 136.824 148.491 137.427 148.151 137.831L148.115 137.872L147.217 138.827C146.839 139.229 146.206 139.249 145.804 138.871C145.415 138.505 145.383 137.902 145.723 137.499L145.76 137.458L146.657 136.502Z" fill="#C0C0C0"/>
<path d="M139.609 135.547C139.987 135.145 140.62 135.125 141.023 135.503C141.412 135.869 141.443 136.472 141.103 136.876L141.067 136.917L140.169 137.872C139.791 138.274 139.158 138.294 138.756 137.916C138.366 137.55 138.335 136.947 138.675 136.543L138.712 136.502L139.609 135.547Z" fill="#C0C0C0"/>
<path d="M143.133 136.502C143.511 136.1 144.144 136.08 144.546 136.458C144.935 136.824 144.967 137.427 144.627 137.831L144.59 137.872L143.693 138.827C143.315 139.229 142.682 139.249 142.279 138.871C141.89 138.505 141.859 137.902 142.199 137.499L142.235 137.458L143.133 136.502Z" fill="#C0C0C0"/>
<path d="M161.873 135.503C162.262 135.138 162.867 135.144 163.248 135.508L163.287 135.547L164.184 136.502C164.562 136.905 164.543 137.538 164.14 137.916C163.751 138.282 163.147 138.275 162.765 137.911L162.727 137.872L161.829 136.917C161.451 136.514 161.471 135.881 161.873 135.503Z" fill="#C0C0C0"/>
<path d="M158.349 136.458C158.738 136.093 159.343 136.099 159.724 136.463L159.763 136.502L160.66 137.458C161.038 137.86 161.018 138.493 160.616 138.871C160.227 139.237 159.622 139.23 159.241 138.866L159.202 138.827L158.305 137.872C157.927 137.469 157.947 136.836 158.349 136.458Z" fill="#C0C0C0"/>
<path d="M154.825 136.458C155.214 136.093 155.818 136.099 156.2 136.463L156.239 136.502L157.136 137.458C157.514 137.86 157.494 138.493 157.092 138.871C156.702 139.237 156.098 139.23 155.717 138.866L155.678 138.827L154.781 137.872C154.403 137.469 154.422 136.836 154.825 136.458Z" fill="#C0C0C0"/>
</g>
</svg>
