<svg width="300" height="400" viewBox="0 0 300 400" fill="none" xmlns="http://www.w3.org/2000/svg">
<path d="M165.91 268.594C169.768 267.821 173.522 270.322 174.295 274.181C175.806 281.721 176.403 295.281 176.456 315.274L176.46 319.032C176.458 323.211 176.435 327.399 176.39 332.715L176.234 349.523C176.22 351.382 176.216 352.522 176.215 353.903L176.214 354.605C176.214 358.54 173.025 361.73 169.089 361.73C165.154 361.73 161.964 358.54 161.964 354.605L161.968 352.175C161.974 350.386 161.991 348.33 162.034 343.825L162.145 332.082C162.191 326.524 162.212 322.208 162.21 317.784L162.208 315.97C162.168 296.842 161.608 283.607 160.362 277.177L160.323 276.98C159.55 273.121 162.051 269.367 165.91 268.594Z" fill="#EBBAAA"/>
<path d="M129.987 294.784C130.214 290.856 133.583 287.855 137.512 288.082C141.44 288.309 144.441 291.678 144.213 295.606C143.955 300.071 143.664 304.342 143.319 308.837L143.208 310.258C142.9 314.147 142.083 323.895 142.06 324.177L141.909 326.07C141.588 330.16 141.384 333.309 141.249 336.385C141.033 341.335 141.016 345.923 141.219 350.793C141.383 354.724 138.329 358.045 134.398 358.209C130.466 358.373 127.146 355.319 126.982 351.388C126.77 346.319 126.778 341.523 126.985 336.428L127.013 335.762C127.165 332.296 127.397 328.79 127.766 324.158L128.827 311.318C128.912 310.268 128.986 309.354 129.037 308.696C129.408 303.934 129.717 299.467 129.987 294.784Z" fill="#EBBAAA"/>
<path d="M126.464 342.105V354.355L141.714 354.98L141.339 343.48L126.464 342.105Z" fill="#F2EFEF"/>
<path d="M161.714 342.98V354.355L176.964 354.98V342.98H161.714Z" fill="#F2EFEF"/>
<path d="M146.105 270.001C162.051 270.001 174.977 263.677 174.977 255.877C174.977 248.076 162.051 241.753 146.105 241.753C130.159 241.753 117.232 248.076 117.232 255.877C117.232 263.677 130.159 270.001 146.105 270.001Z" fill="#2E2E2D"/>
<path d="M115.068 240.073H148.818L145.464 336.355L144.714 345.263L125.589 344.228L119.396 336.355L115.068 240.073Z" fill="#2E2E2D"/>
<path d="M148.464 241.729H182.329V338.98L178.286 344.66L158.661 346.338L157.536 338.98L148.464 241.729Z" fill="#2E2E2D"/>
<path d="M127.723 351.588C128.676 348.728 126.796 346.423 125.736 345.628C125.207 346.37 124.545 350.13 123.353 353.045L120.241 356.818L115.54 362.445L109.714 365.225L112.76 368.8C114.834 367.213 126.769 354.448 127.723 351.588Z" fill="#3B3937"/>
<path d="M145.885 371.248C145.885 371.248 146.054 365.033 144.731 361.59C143.409 358.148 142.046 349.268 142.046 349.268C142.046 349.268 139.7 351.783 135.33 351.783C130.96 351.783 126.326 350.73 126.326 350.73C126.326 350.73 118.21 361.45 116.091 362.775C113.973 364.098 103.644 366.88 103.644 366.88C101.377 366.88 99.5396 368.718 99.5396 370.983V373.073H124.433L145.885 371.248Z" fill="#1C1B19"/>
<mask id="mask0_0_6901" style="mask-type:luminance" maskUnits="userSpaceOnUse" x="99" y="349" width="47" height="25">
<path fill-rule="evenodd" clip-rule="evenodd" d="M145.884 371.248C145.884 371.248 146.054 365.033 144.731 361.59C143.409 358.148 142.046 349.268 142.046 349.268C142.046 349.268 139.699 351.783 135.33 351.783C130.96 351.783 126.326 350.73 126.326 350.73C126.326 350.73 118.21 361.45 116.091 362.775C113.972 364.098 104.796 366.673 103.667 366.748C101.326 366.905 99.3274 368.59 99.364 370.935L99.3954 372.945L124.433 373.073L145.884 371.248Z" fill="white"/>
</mask>
<g mask="url(#mask0_0_6901)">
<path d="M103.047 381.111C107.323 381.295 110.939 377.978 111.124 373.702C111.308 369.426 107.991 365.81 103.715 365.625C99.4387 365.441 95.8226 368.758 95.638 373.034C95.4534 377.31 98.7704 380.926 103.047 381.111Z" fill="#D0CEC1"/>
</g>
<path d="M121.953 353.278C122.11 352.885 122.546 352.687 122.942 352.819L122.986 352.835L124.31 353.365C124.718 353.528 124.916 353.991 124.753 354.398C124.595 354.791 124.16 354.989 123.764 354.856L123.72 354.84L122.396 354.31C121.988 354.147 121.79 353.685 121.953 353.278Z" fill="#ECECEC"/>
<path d="M120.231 355.663C120.389 355.27 120.824 355.072 121.22 355.204L121.264 355.22L122.588 355.75C122.996 355.913 123.194 356.376 123.031 356.783C122.874 357.176 122.438 357.374 122.042 357.241L121.998 357.225L120.674 356.695C120.266 356.532 120.068 356.07 120.231 355.663Z" fill="#ECECEC"/>
<path d="M118.378 358.045C118.535 357.652 118.97 357.454 119.367 357.587L119.41 357.603L120.735 358.133C121.142 358.296 121.34 358.758 121.177 359.166C121.02 359.558 120.584 359.757 120.188 359.624L120.144 359.608L118.82 359.078C118.413 358.915 118.215 358.453 118.378 358.045Z" fill="#ECECEC"/>
<path d="M115.994 360.431C116.15 360.038 116.585 359.839 116.982 359.971L117.026 359.987L118.35 360.515C118.758 360.677 118.956 361.139 118.794 361.547C118.637 361.94 118.202 362.139 117.806 362.007L117.762 361.991L116.438 361.463C116.03 361.301 115.831 360.839 115.994 360.431Z" fill="#ECECEC"/>
<path d="M113.876 362.548C114.033 362.155 114.468 361.957 114.865 362.089L114.909 362.105L116.233 362.635C116.64 362.798 116.838 363.261 116.675 363.668C116.518 364.061 116.082 364.259 115.686 364.126L115.642 364.11L114.318 363.58C113.911 363.417 113.713 362.955 113.876 362.548Z" fill="#ECECEC"/>
<path d="M146.128 371.185L122.691 372.245L99.3861 371.185L99.0186 374.233C98.9071 375.158 99.6112 375.978 100.542 376.01L122.205 376.745L134.299 376.878L146.393 376.48L146.128 371.185Z" fill="#D0CEC1"/>
<path d="M146.242 373.701L146.279 374.76L139.535 375.014L137.549 375.086C133.953 375.211 131.244 375.282 129.471 375.289L129.054 375.29L128.659 375.288C125.315 375.262 118.612 375.013 115.701 374.786L115.362 374.758L115.454 373.703L115.794 373.731C118.755 373.961 125.714 374.217 128.927 374.23L129.37 374.23C130.866 374.226 133.071 374.174 135.949 374.08L138.061 374.008L146.242 373.701Z" fill="#1C1B19"/>
<path d="M116.07 376.483V374.098V373.17L99.2536 372.378L99.0147 374.525C98.9294 375.295 99.5174 375.973 100.29 375.995L116.07 376.483Z" fill="#ECEADF"/>
<path d="M136.594 365.492C133.961 365.492 131.827 363.358 131.827 360.725C131.827 358.092 133.961 355.958 136.594 355.958C139.227 355.958 141.361 358.092 141.361 360.725C141.361 363.358 139.227 365.492 136.594 365.492Z" fill="#DCE0E4"/>
<path d="M136.605 357.218C136.496 357.028 136.216 357.045 136.131 357.248L135.34 359.133C135.306 359.213 135.235 359.273 135.15 359.29L133.147 359.708C132.932 359.75 132.862 360.023 133.028 360.168L134.577 361.503C134.643 361.56 134.677 361.645 134.668 361.733L134.446 363.765C134.422 363.983 134.658 364.133 134.846 364.02L136.595 362.96C136.67 362.915 136.762 362.908 136.841 362.945L138.706 363.785C138.907 363.875 139.123 363.695 139.073 363.483L138.605 361.49C138.585 361.405 138.608 361.318 138.666 361.253L140.041 359.738C140.189 359.575 140.086 359.313 139.867 359.295L137.829 359.125C137.742 359.118 137.664 359.068 137.621 358.993L136.605 357.218Z" fill="#5B568E"/>
<path d="M176.058 351.588C175.1 348.728 176.99 346.423 178.054 345.63C178.586 346.37 179.252 350.13 180.449 353.045L183.576 356.818L188.299 362.445L194.154 365.225L191.093 368.803C189.009 367.213 177.016 354.448 176.058 351.588Z" fill="#3B3937"/>
<path d="M157.809 371.248C157.809 371.248 157.638 365.033 158.967 361.59C160.296 358.148 161.666 349.268 161.666 349.268C161.666 349.268 164.023 351.783 168.414 351.783C172.805 351.783 177.462 350.73 177.462 350.73C177.462 350.73 185.617 361.45 187.745 362.775C189.874 364.098 200.252 366.88 200.252 366.88C202.531 366.88 204.377 368.725 204.377 371.003V373.073H179.363L157.809 371.248Z" fill="#1C1B19"/>
<mask id="mask1_0_6901" style="mask-type:luminance" maskUnits="userSpaceOnUse" x="157" y="349" width="48" height="25">
<path fill-rule="evenodd" clip-rule="evenodd" d="M157.809 371.248C157.809 371.248 157.638 365.033 158.967 361.59C160.296 358.148 161.665 349.268 161.665 349.268C161.665 349.268 164.023 351.783 168.414 351.783C172.805 351.783 177.461 350.73 177.461 350.73C177.461 350.73 185.616 361.45 187.745 362.775C189.874 364.098 199.095 366.673 200.23 366.748C202.582 366.905 204.59 368.6 204.553 370.958L204.521 372.945L179.363 373.073L157.809 371.248Z" fill="white"/>
</mask>
<g mask="url(#mask1_0_6901)">
<path d="M200.853 381.111C196.556 381.297 192.923 377.982 192.738 373.705C192.552 369.429 195.885 365.812 200.182 365.625C204.478 365.439 208.112 368.754 208.297 373.031C208.483 377.307 205.15 380.924 200.853 381.111Z" fill="#D0CEC1"/>
</g>
<path d="M180.82 352.835C181.228 352.672 181.69 352.871 181.852 353.279C182.009 353.672 181.829 354.116 181.451 354.292L181.408 354.311L180.077 354.841C179.67 355.003 179.207 354.804 179.045 354.397C178.889 354.004 179.068 353.56 179.446 353.383L179.489 353.365L180.82 352.835Z" fill="#ECECEC"/>
<path d="M182.55 355.22C182.957 355.057 183.419 355.256 183.582 355.664C183.738 356.057 183.559 356.501 183.181 356.677L183.138 356.696L181.807 357.226C181.399 357.388 180.937 357.189 180.775 356.782C180.618 356.389 180.798 355.945 181.176 355.768L181.219 355.75L182.55 355.22Z" fill="#ECECEC"/>
<path d="M184.414 357.602C184.821 357.44 185.283 357.639 185.446 358.046C185.602 358.439 185.423 358.883 185.044 359.06L185.001 359.078L183.671 359.608C183.263 359.771 182.801 359.572 182.639 359.164C182.482 358.771 182.661 358.328 183.04 358.151L183.083 358.132L184.414 357.602Z" fill="#ECECEC"/>
<path d="M186.808 359.987C187.216 359.825 187.678 360.025 187.84 360.433C187.996 360.826 187.816 361.269 187.437 361.445L187.394 361.464L186.064 361.991C185.656 362.153 185.194 361.954 185.032 361.546C184.876 361.152 185.056 360.709 185.435 360.533L185.478 360.514L186.808 359.987Z" fill="#ECECEC"/>
<path d="M188.938 362.105C189.345 361.942 189.808 362.141 189.97 362.549C190.126 362.942 189.947 363.386 189.569 363.562L189.526 363.581L188.195 364.111C187.787 364.273 187.325 364.074 187.163 363.667C187.006 363.274 187.186 362.83 187.564 362.653L187.607 362.635L188.938 362.105Z" fill="#ECECEC"/>
<path d="M157.563 371.185L181.114 372.245L204.531 371.185L204.9 374.23C205.012 375.155 204.307 375.978 203.376 376.01L181.602 376.745L169.45 376.878L157.297 376.48L157.563 371.185Z" fill="#D0CEC1"/>
<path d="M157.412 374.76L157.45 373.701L164.228 373.956L166.221 374.027C170.027 374.159 172.841 374.231 174.595 374.231L175.111 374.229C178.49 374.203 185.339 373.948 188.166 373.721L188.386 373.703L188.478 374.758L188.132 374.786C185.085 375.023 177.915 375.283 174.72 375.29L174.199 375.289C172.553 375.28 170.138 375.219 166.987 375.113L164.778 375.036L157.412 374.76Z" fill="#1C1B19"/>
<path d="M187.767 376.483V374.098V373.17L204.665 372.378L204.905 374.525C204.99 375.293 204.402 375.973 203.629 375.995L187.767 376.483Z" fill="#ECEADF"/>
<path d="M167.144 365.492C169.789 365.492 171.934 363.358 171.934 360.725C171.934 358.092 169.789 355.958 167.144 355.958C164.498 355.958 162.354 358.092 162.354 360.725C162.354 363.358 164.498 365.492 167.144 365.492Z" fill="#DCE0E4"/>
<path d="M167.133 357.215C167.243 357.025 167.522 357.043 167.607 357.243L168.404 359.133C168.438 359.213 168.509 359.273 168.594 359.29L170.607 359.708C170.823 359.75 170.893 360.023 170.726 360.168L169.17 361.503C169.104 361.56 169.07 361.645 169.079 361.733L169.302 363.765C169.326 363.983 169.09 364.135 168.902 364.023L167.141 362.958C167.067 362.915 166.975 362.908 166.896 362.945L165.018 363.785C164.818 363.875 164.602 363.695 164.652 363.483L165.123 361.49C165.143 361.405 165.12 361.318 165.061 361.253L163.68 359.738C163.532 359.575 163.635 359.313 163.854 359.295L165.903 359.125C165.99 359.118 166.068 359.07 166.111 358.993L167.133 357.215Z" fill="#5B568E"/>
<path d="M148.464 147.729C164.343 147.729 179.714 141.853 179.714 134.604C179.714 98.979 164.343 98.979 148.464 98.979C132.586 98.979 117.214 98.979 117.214 134.604C117.214 141.853 132.586 147.729 148.464 147.729Z" fill="#2D2427"/>
<path d="M99.4031 173.096C101.727 168.546 107.299 166.742 111.848 169.066C116.398 171.389 118.202 176.961 115.878 181.511C112.624 187.882 109.187 200.789 107.426 213.212L107.346 213.786C106.544 219.606 106.192 224.802 106.339 228.609C106.391 229.952 106.503 231.045 106.646 231.818L106.678 231.98L106.685 231.989C109.312 234.996 109.766 239.476 107.539 243.005L107.456 243.134C104.66 247.41 98.9278 248.61 94.652 245.814C91.5964 243.816 89.926 240.896 88.9449 237.332C88.3112 235.029 87.9702 232.37 87.8525 229.323C87.6527 224.145 88.1077 217.678 89.1089 210.615C91.1324 196.341 95.057 181.604 99.4031 173.096Z" fill="#EBBAAA"/>
<path d="M181.85 163.062C186.3 160.552 191.942 162.125 194.452 166.574C200.376 177.076 204.749 191.915 207.006 207.423C209.156 222.192 209.112 235.547 206.408 242.983C204.662 247.784 199.354 250.261 194.553 248.515C189.8 246.786 187.325 241.567 188.97 236.805L189.021 236.661C190.405 232.857 190.44 222.051 188.699 210.088C186.743 196.652 182.986 183.903 178.339 175.664C175.829 171.214 177.401 165.572 181.85 163.062Z" fill="#EBBAAA"/>
<path d="M192.339 148.479C190.039 146.179 182.464 143.854 178.964 142.979C181.173 172.479 185.789 232.229 186.589 235.229C187.589 238.979 209.464 240.479 211.464 238.979C213.464 237.479 215.714 223.354 215.214 215.604C214.714 207.854 195.214 151.354 192.339 148.479Z" fill="#F2EEE2"/>
<path d="M106.194 148.225C108.347 145.927 115.438 143.603 118.715 142.729C116.647 172.206 112.326 231.91 111.577 234.908C110.641 238.655 90.1632 240.154 88.291 238.655C86.4188 237.156 84.3125 223.042 84.7806 215.298C85.2486 207.554 103.503 151.098 106.194 148.225Z" fill="#F2EEE2"/>
<mask id="mask2_0_6901" style="mask-type:luminance" maskUnits="userSpaceOnUse" x="84" y="142" width="35" height="98">
<path fill-rule="evenodd" clip-rule="evenodd" d="M106.194 148.225C108.347 145.927 115.438 143.603 118.715 142.729C116.647 172.206 112.326 231.91 111.577 234.908C110.641 238.655 90.1632 240.154 88.291 238.655C86.4188 237.156 84.3125 223.042 84.7806 215.298C85.2486 207.554 103.503 151.098 106.194 148.225Z" fill="white"/>
</mask>
<g mask="url(#mask2_0_6901)">
<path d="M89.2971 179.507L93.3815 174.451L93.4282 174.487C93.5528 174.58 93.785 174.732 94.092 174.915L94.1589 174.955C94.6264 175.23 95.2037 175.541 95.8531 175.865C97.3579 176.614 99.1128 177.364 100.928 178.014C105.348 179.595 109.578 180.405 112.947 180.157L113.117 180.144L113.669 186.62C109.263 186.995 104.197 186.059 98.9898 184.223L98.7378 184.134C94.7985 182.724 90.9701 180.825 89.3637 179.56L89.2971 179.507Z" fill="black"/>
<path d="M90.4819 190.647C90.4754 190.631 90.4906 190.657 90.5355 190.716C90.6223 190.83 90.7517 190.97 90.923 191.128C91.3381 191.51 91.9328 191.938 92.6805 192.383C94.2647 193.325 96.4085 194.268 98.8307 195.084C103.837 196.771 109.276 197.681 112.956 197.407L113.117 197.394L113.669 203.87C108.987 204.269 102.612 203.218 96.7548 201.244L96.3743 201.114C90.2566 199.006 85.8273 196.34 84.4872 193.16L84.4468 193.061L90.4819 190.647Z" fill="black"/>
<path d="M85.0732 206.416C86.0463 207.726 90.7854 210.04 96.6952 211.877L96.8746 211.933C103.125 213.859 109.443 214.931 113.121 214.654L113.242 214.644L113.793 221.12C109.141 221.516 102.008 220.316 94.9608 218.145L94.524 218.009C87.4949 215.804 82.0298 213.123 79.9195 210.377L79.8553 210.292L85.0732 206.416Z" fill="black"/>
<path d="M82.2937 221.216C84.8235 223.551 90.1277 225.801 96.644 227.363C102.622 228.796 108.914 229.47 112.959 229.157L113.117 229.144L113.668 235.62C108.863 236.029 101.813 235.286 95.1289 233.684L94.6616 233.57C87.4452 231.794 81.4707 229.239 77.9961 226.094L77.8849 225.992L82.2937 221.216Z" fill="black"/>
<path d="M96.7565 158.951C97.6845 159.7 99.9852 160.88 102.555 161.743C105.936 162.878 109.477 163.416 112.89 163.162L113.117 163.144L113.669 169.62C109.232 169.998 104.735 169.332 100.486 167.904C97.2896 166.831 94.3617 165.34 92.7583 164.076L92.6721 164.007L96.7565 158.951Z" fill="black"/>
</g>
<mask id="mask3_0_6901" style="mask-type:luminance" maskUnits="userSpaceOnUse" x="178" y="142" width="38" height="98">
<path fill-rule="evenodd" clip-rule="evenodd" d="M192.339 148.479C190.039 146.179 182.464 143.854 178.964 142.979C181.173 172.479 185.789 232.229 186.589 235.229C187.589 238.979 209.464 240.479 211.464 238.979C213.464 237.479 215.714 223.354 215.214 215.604C214.714 207.854 195.214 151.354 192.339 148.479Z" fill="white"/>
</mask>
<g mask="url(#mask3_0_6901)">
<path d="M204.422 174.201L208.507 179.257C206.949 180.515 202.817 182.518 198.579 184.014C193.091 185.95 187.831 186.97 183.396 186.637L183.189 186.62L183.74 180.144C187.132 180.433 191.635 179.571 196.416 177.884C198.352 177.201 200.232 176.415 201.834 175.639L202.127 175.495C202.703 175.21 203.215 174.939 203.637 174.697L203.766 174.621C204.08 174.438 204.306 174.291 204.404 174.215L204.422 174.201Z" fill="black"/>
<path d="M209.549 188.495L214.88 192.214C210.475 198.528 193.481 204.595 183.49 203.894L183.189 203.871L183.74 197.394C191.489 198.053 206.287 192.846 209.457 188.622L209.549 188.495Z" fill="black"/>
<path d="M214.848 205.109L220.331 208.599C218.525 211.438 212.345 214.471 204.1 217.2L203.849 217.283C195.818 219.922 188.001 221.485 183.33 221.132L183.189 221.121L183.74 214.644C187.297 214.947 194.479 213.52 201.82 211.108C205.286 209.969 208.499 208.702 210.96 207.501L211.272 207.348C212.346 206.812 213.237 206.306 213.907 205.852C214.209 205.648 214.455 205.461 214.639 205.301L214.692 205.254C214.797 205.159 214.85 205.102 214.849 205.106L214.848 205.109Z" fill="black"/>
<path d="M216.442 222.007L216.543 221.917C216.571 221.892 216.583 221.88 216.581 221.885L216.579 221.888L222.1 225.32C220.099 228.538 213.646 231.058 204.337 233.177L203.855 233.285C196.053 235.026 187.94 235.991 183.331 235.632L183.189 235.621L183.74 229.144C187.613 229.474 195.463 228.53 202.895 226.839C206.652 225.984 210.023 225.001 212.574 224.005C213.855 223.504 214.898 223.013 215.655 222.556C215.992 222.353 216.257 222.167 216.442 222.007Z" fill="black"/>
<path d="M199.909 158.961L204.019 163.997C202.448 165.279 199.496 166.809 196.268 167.905C192.129 169.309 187.755 169.979 183.431 169.645L183.186 169.625L183.743 163.149C187.183 163.445 190.763 162.909 194.179 161.75C196.673 160.903 198.91 159.752 199.858 159.002L199.909 158.961Z" fill="black"/>
</g>
<path fill-rule="evenodd" clip-rule="evenodd" d="M148.239 151.389C146.55 145.462 143.749 138.231 141.214 139.573C140.469 139.967 140.049 144.502 139.848 151.57L138.714 151.948V138.979C131.214 138.979 123.839 140.698 118.214 143.198C112.902 145.559 112.632 152.329 112.254 161.807C112.155 164.302 112.048 166.984 111.839 169.823L110.464 244.448L128.964 247.323L141.214 247.446C141.214 247.447 141.214 247.447 141.214 247.448H141.339H177.839L187.339 244.823L185.589 166.948C185.589 166.948 183.339 145.073 179.589 143.073C175.839 141.073 155.964 138.729 155.964 138.729L156.964 150.073L148.714 151.073L148.239 151.389Z" fill="#FDF9EF"/>
<mask id="mask4_0_6901" style="mask-type:luminance" maskUnits="userSpaceOnUse" x="110" y="138" width="78" height="110">
<path fill-rule="evenodd" clip-rule="evenodd" d="M148.239 151.389C146.55 145.462 143.749 138.231 141.214 139.573C140.469 139.967 140.049 144.502 139.848 151.57L138.714 151.948V138.979C131.214 138.979 123.839 140.698 118.214 143.198C112.902 145.559 112.632 152.329 112.254 161.807C112.155 164.302 112.048 166.984 111.839 169.823L110.464 244.448L128.964 247.323L141.214 247.446C141.214 247.447 141.214 247.447 141.214 247.448H141.339H177.839L187.339 244.823L185.589 166.948C185.589 166.948 183.339 145.073 179.589 143.073C175.839 141.073 155.964 138.729 155.964 138.729L156.964 150.073L148.714 151.073L148.239 151.389Z" fill="white"/>
</mask>
<g mask="url(#mask4_0_6901)">
<path d="M150.002 160.261C166.908 160.082 182.6 160.638 187.962 161.694L188.124 161.727L186.805 168.092C182.183 167.134 166.324 166.574 149.545 166.767L149.036 166.773C130.759 167 115.88 168.052 111.161 169.594L111.021 169.641L108.907 163.495C114.355 161.621 129.348 160.535 148.377 160.281L150.002 160.261Z" fill="black"/>
<path d="M150.002 175.761C166.908 175.582 182.6 176.138 187.962 177.194L188.124 177.227L186.805 183.592C182.183 182.634 166.324 182.074 149.545 182.267L149.036 182.273C130.759 182.5 115.88 183.552 111.161 185.094L111.021 185.141L108.907 178.995C114.355 177.121 129.348 176.035 148.377 175.781L150.002 175.761Z" fill="black"/>
<path d="M150.002 193.511C166.908 193.332 182.6 193.888 187.962 194.944L188.124 194.977L186.805 201.342C182.183 200.384 166.324 199.824 149.545 200.017L149.036 200.023C130.759 200.25 115.88 201.302 111.161 202.844L111.021 202.891L108.907 196.745C114.355 194.871 129.348 193.785 148.377 193.531L150.002 193.511Z" fill="black"/>
<path d="M186.725 209.447L187.704 215.873L187.342 215.926C181.278 216.797 165.568 217.853 150.267 218.387L149.794 218.403C130.948 219.048 116.111 218.837 109.29 217.546L109.085 217.506L110.343 211.129C116.271 212.298 130.494 212.53 148.467 211.944L149.572 211.907C164.785 211.387 180.565 210.331 186.381 209.498L186.725 209.447Z" fill="black"/>
<path d="M186.724 225.266L187.704 231.692L187.342 231.745C181.216 232.626 165.244 233.695 149.794 234.223L148.657 234.261C130.352 234.858 115.974 234.631 109.29 233.365L109.085 233.326L110.343 226.949C116.271 228.118 130.495 228.35 148.467 227.764L149.572 227.727C164.786 227.206 180.565 226.15 186.381 225.317L186.724 225.266Z" fill="black"/>
<path d="M150.002 144.761C166.908 144.582 182.6 145.138 187.962 146.194L188.124 146.227L186.805 152.592C182.183 151.634 166.324 151.074 149.545 151.267L149.036 151.273C130.759 151.5 115.88 152.552 111.161 154.094L111.021 154.141L108.907 147.995C114.355 146.121 129.348 145.035 148.377 144.781L150.002 144.761Z" fill="black"/>
</g>
<path d="M134.464 143.885C134.464 141.314 136.549 139.229 139.12 139.229H157.899C160.47 139.229 162.555 141.314 162.555 143.885C162.555 150.668 157.056 156.166 150.274 156.166H146.745C139.963 156.166 134.464 150.668 134.464 143.885Z" fill="#EBBAAA" stroke="#E2DBD0" stroke-width="5"/>
<path d="M134.464 143.885C134.464 141.314 136.549 139.229 139.12 139.229H157.899C160.47 139.229 162.555 141.314 162.555 143.885C162.555 150.668 157.056 156.166 150.274 156.166H146.745C139.963 156.166 134.464 150.668 134.464 143.885Z" fill="#EBBAAA"/>
<path d="M134.589 143.885C134.589 141.314 136.674 139.229 139.245 139.229H158.024C160.595 139.229 162.68 141.314 162.68 143.885C162.68 150.668 157.181 156.166 150.399 156.166H146.87C140.088 156.166 134.589 150.668 134.589 143.885Z" fill="#EBBAAA" stroke="#E2DBD0" stroke-width="5"/>
<path d="M149.071 110.479C154.305 110.479 158.549 114.722 158.549 119.957V139.189L158.548 139.258C160.873 139.519 162.68 141.491 162.68 143.885C162.68 150.668 157.181 156.166 150.399 156.166H146.87C140.088 156.166 134.589 150.668 134.589 143.885C134.589 141.491 136.396 139.519 138.721 139.258L138.72 139.189V119.957C138.72 114.722 142.964 110.479 148.198 110.479H149.071Z" fill="#EBBAAA"/>
<path d="M138.595 119.957C138.595 114.722 142.839 110.479 148.073 110.479H148.946C154.181 110.479 158.424 114.722 158.424 119.957V139.189C158.424 144.665 153.985 149.103 148.51 149.103C143.034 149.103 138.595 144.665 138.595 139.189V119.957Z" fill="#EBBAAA"/>
<path d="M135.965 112.229C137.294 113.9 141.071 117.229 148.199 117.229C155.326 117.229 159.901 113.9 160.965 112.229" stroke="#C99584" stroke-width="2.5" stroke-linecap="round"/>
<path d="M124.715 108.979C128.857 108.979 132.215 105.621 132.215 101.479C132.215 97.3369 128.857 93.979 124.715 93.979C120.572 93.979 117.215 97.3369 117.215 101.479C117.215 105.621 120.572 108.979 124.715 108.979Z" fill="#F2CACA"/>
<path d="M125.965 83.979H133.465" stroke="black" stroke-width="2.5" stroke-linecap="round"/>
<path d="M163.465 83.979H170.965" stroke="black" stroke-width="2.5" stroke-linecap="round"/>
<path d="M163.465 83.729V91.229" stroke="black" stroke-width="6" stroke-linecap="round"/>
<path d="M133.466 83.729V91.229" stroke="black" stroke-width="6" stroke-linecap="round"/>
<path d="M159.215 72.979L173.465 73.729" stroke="#271E1E" stroke-width="3" stroke-linecap="round"/>
<path d="M137.715 72.979L123.465 73.729" stroke="#271E1E" stroke-width="3" stroke-linecap="round"/>
<path d="M172.215 108.979C176.357 108.979 179.715 105.621 179.715 101.479C179.715 97.3369 176.357 93.979 172.215 93.979C168.072 93.979 164.715 97.3369 164.715 101.479C164.715 105.621 168.072 108.979 172.215 108.979Z" fill="#F2CACA"/>
<path d="M148.465 89.979C145.965 93.729 143.465 102.479 150.965 102.479" stroke="#EBBAAA" stroke-width="4.25"/>
<path d="M173.303 74.597C168.313 71.2998 158.915 57.7363 154.84 51.3668C178.417 45.2471 188.273 62.732 190.269 74.597C192.265 86.4618 192.466 88.8325 192.59 90.729C192.965 96.479 193.512 99.854 193.512 104.199C193.928 121.268 198.534 152.554 193.512 155.028C186.92 158.275 168.208 158.525 171.326 149.783C174.445 141.04 183.657 85.5875 182.659 82.715C181.661 79.8425 179.54 78.7185 173.303 74.597Z" fill="#2D2427"/>
<path fill-rule="evenodd" clip-rule="evenodd" d="M148.436 25.979C148.418 25.979 148.454 25.979 148.436 25.979C159.637 25.979 178.91 31.6501 185.989 46.2291C189.724 53.9223 189.128 59.3645 188.493 68.729C180.723 58.8475 159.608 52.229 148.436 52.229C134.329 52.229 119.433 60.189 108.38 68.729C107.874 59.3197 107.148 53.9223 110.883 46.2291C117.962 31.6501 136.943 25.9789 148.436 25.979Z" fill="#614D4E"/>
<path fill-rule="evenodd" clip-rule="evenodd" d="M148.461 23.479C148.459 23.479 148.463 23.479 148.461 23.479C149.706 23.479 151.847 24.1091 152.634 25.729C153.049 26.5838 152.983 27.1885 152.912 28.229C152.049 27.1311 149.703 26.3957 148.461 26.3957C146.894 26.3957 145.239 27.2801 144.011 28.229C143.954 27.1835 143.874 26.5838 144.289 25.729C145.075 24.1091 147.184 23.479 148.461 23.479Z" fill="#272727"/>
<path d="M123.626 75.347C128.616 72.0498 138.014 58.4863 142.09 52.1168C118.512 45.9971 108.656 63.482 106.66 75.347C104.664 87.2118 104.714 87.854 104.089 93.479C103.922 94.99 103.553 99.354 103.417 104.949C103.001 122.018 98.3949 153.304 103.417 155.778C110.009 159.025 128.721 159.275 125.603 150.533C122.484 141.79 113.272 86.3375 114.27 83.465C115.268 80.5925 117.389 79.4685 123.626 75.347Z" fill="#2D2427"/>
<path fill-rule="evenodd" clip-rule="evenodd" d="M148.447 45.979C148.431 45.979 148.464 45.979 148.447 45.979C163.543 45.979 187.788 52.3017 185.856 73.729C178.6 66.787 158.881 62.6642 148.447 62.6642C135.272 62.6642 121.362 67.7295 111.039 73.729C109.469 51.775 133.09 45.9789 148.447 45.979Z" fill="#413F3F"/>
<path d="M111.09 74.729C111.09 54.0183 127.879 37.229 148.59 37.229C169.3 37.229 186.09 54.0183 186.09 74.729V91.8225L185.373 101.725C184.232 117.502 173.019 130.849 157.721 134.869C152.167 136.328 146.29 136.454 140.684 135.208C126.16 131.981 115.11 120.163 112.865 105.455L111.59 97.1025C111.257 94.92 111.09 92.7153 111.09 90.5075V74.729Z" fill="#F4D5CC"/>
<path d="M156.796 114.631C157.264 114.124 158.055 114.092 158.562 114.561C159.07 115.029 159.101 115.82 158.633 116.327C156.932 118.17 152.455 119.604 149.09 119.604C145.527 119.604 142.907 118.741 139.742 116.499C139.179 116.1 139.046 115.32 139.445 114.757C139.844 114.193 140.624 114.06 141.187 114.459C143.936 116.406 146.053 117.104 149.09 117.104C151.785 117.104 155.539 115.913 156.747 114.683L156.796 114.631Z" fill="#C99584"/>
<path d="M126.09 83.979H133.59" stroke="black" stroke-width="2.5" stroke-linecap="round"/>
<path d="M163.59 83.979H171.09" stroke="black" stroke-width="2.5" stroke-linecap="round"/>
<path d="M163.59 83.729V91.229" stroke="black" stroke-width="6" stroke-linecap="round"/>
<path d="M133.591 83.729V91.229" stroke="black" stroke-width="6" stroke-linecap="round"/>
<path d="M159.465 74.979H173.59" stroke="#271E1E" stroke-width="3" stroke-linecap="round"/>
<path d="M137.715 74.979H123.465" stroke="#271E1E" stroke-width="3" stroke-linecap="round"/>
<path d="M146.821 88.8003L150.358 91.1578C149.156 92.9606 148.215 95.6666 148.215 97.6353C148.215 99.5335 148.9 100.331 150.999 100.354L151.09 100.354V104.604C146.454 104.604 143.965 101.804 143.965 97.6353C143.965 94.8115 145.139 91.3837 146.734 88.933L146.821 88.8003Z" fill="#EBBAAA"/>
<path d="M171.428 75.347C166.438 72.0498 157.04 58.4863 152.965 52.1168C176.542 45.9971 186.398 63.482 188.394 75.347C190.39 87.2118 190.591 89.5825 190.715 91.479C191.09 97.229 191.637 100.604 191.637 104.949C192.053 122.018 196.659 153.304 191.637 155.778C185.045 159.025 159.161 159.878 166.965 151.354C171.428 146.479 174.566 135.56 176.84 122.604C179.92 105.051 181.358 85.1178 180.784 83.465C179.786 80.5925 177.665 79.4685 171.428 75.347Z" fill="#2D2427"/>
<path d="M127.501 75.347C132.491 72.0498 141.889 58.4863 145.965 52.1168C122.387 45.9971 112.531 63.482 110.535 75.347C108.539 87.2118 108.589 87.854 107.964 93.479C107.797 94.99 107.428 99.354 107.292 104.949C106.876 122.018 102.27 153.304 107.292 155.778C113.884 159.025 137.957 158.672 132.09 151.479C127.501 145.854 124.152 136.315 121.715 122.104C118.885 105.604 117.609 85.0083 118.145 83.465C119.143 80.5925 121.264 79.4685 127.501 75.347Z" fill="#2D2427"/>
<path fill-rule="evenodd" clip-rule="evenodd" d="M148.586 23.479C148.584 23.479 148.588 23.479 148.586 23.479C149.831 23.479 151.972 24.1091 152.759 25.729C153.174 26.5838 153.108 27.1885 153.037 28.229C152.174 27.1311 149.828 26.3957 148.586 26.3957C147.019 26.3957 145.364 27.2801 144.136 28.229C144.079 27.1835 143.999 26.5838 144.414 25.729C145.2 24.1091 147.309 23.479 148.586 23.479Z" fill="#272727"/>
<path fill-rule="evenodd" clip-rule="evenodd" d="M148.686 25.979C148.668 25.979 148.704 25.979 148.686 25.979C159.887 25.979 179.16 31.6501 186.239 46.2291C189.974 53.9223 189.378 59.3645 188.743 68.729C180.973 58.8475 159.858 52.229 148.686 52.229C134.579 52.229 119.683 60.189 108.63 68.729C108.124 59.3197 107.398 53.9223 111.133 46.2291C118.212 31.6501 137.193 25.9789 148.686 25.979Z" fill="#614D4E"/>
<path fill-rule="evenodd" clip-rule="evenodd" d="M148.697 45.979C148.681 45.979 148.714 45.979 148.697 45.979C163.793 45.979 188.038 52.3017 186.106 73.729C178.85 66.787 159.131 62.6642 148.697 62.6642C135.522 62.6642 121.612 67.7295 111.289 73.729C109.719 51.775 133.34 45.9789 148.697 45.979Z" fill="#715E5F"/>
<path d="M135.755 33.3911H134.25L133.589 36.7977H130.978L131.64 33.3911H130.135L128.505 41.6411H130.009L130.705 38.1418H133.315L132.62 41.6411H134.125L135.755 33.3911Z" fill="white"/>
<path fill-rule="evenodd" clip-rule="evenodd" d="M141.026 33.3911L142.255 41.6411H140.686L140.511 40.1348H137.69L136.905 41.6411H135.255L139.797 33.3911H141.026ZM138.322 38.8834H140.394L139.996 35.7085L138.322 38.8834Z" fill="white"/>
<path fill-rule="evenodd" clip-rule="evenodd" d="M147.558 33.3911C148.95 33.3911 149.755 34.2833 149.755 35.5695C149.755 37.041 148.697 38.4431 146.73 38.4431H145.155L144.523 41.6411H143.005L144.649 33.3911H147.558ZM146.788 37.0874C147.777 37.0874 148.225 36.3227 148.225 35.697C148.225 35.1755 147.984 34.7468 147.306 34.7468H145.903L145.431 37.0874H146.788Z" fill="white"/>
<path fill-rule="evenodd" clip-rule="evenodd" d="M154.558 33.3911C155.95 33.3911 156.755 34.2833 156.755 35.5695C156.755 37.041 155.697 38.4431 153.73 38.4431H152.155L151.523 41.6411H150.005L151.649 33.3911H154.558ZM153.788 37.0874C154.777 37.0874 155.225 36.3227 155.225 35.697C155.225 35.1755 154.984 34.7468 154.306 34.7468H152.903L152.431 37.0874H153.788Z" fill="white"/>
<path d="M163.755 33.3911H162.084L159.977 36.8093L159.107 33.3911H157.505L158.981 38.2577L158.306 41.6411H159.817L160.481 38.3156L163.755 33.3911Z" fill="white"/>
<path fill-rule="evenodd" clip-rule="evenodd" d="M165.19 33.3911H167.005L165.51 39.045H164.407L165.19 33.3911ZM164.633 39.9104C165.119 39.9104 165.522 40.3142 165.522 40.7873C165.522 41.2604 165.119 41.6412 164.633 41.6412C164.146 41.6412 163.755 41.2604 163.755 40.7873C163.755 40.3142 164.146 39.9104 164.633 39.9104Z" fill="white"/>
<path fill-rule="evenodd" clip-rule="evenodd" d="M137.816 31.8997C138.244 31.2725 138.953 30.8911 139.718 30.8911H140.932C141.721 30.8911 142.428 31.293 142.846 31.9169C143.265 31.2912 143.974 30.8911 144.76 30.8911H147.683C148.523 30.8911 149.355 31.0854 150.083 31.5128C150.499 31.1242 151.053 30.8911 151.654 30.8911H154.577C155.202 30.8911 155.823 30.9988 156.4 31.2303C156.757 31.0113 157.171 30.8911 157.6 30.8911H159.217C159.784 30.8911 160.311 31.0989 160.719 31.4509C161.132 31.0945 161.663 30.8911 162.221 30.8911H163.908C164.125 30.8911 164.338 30.922 164.542 30.9805C164.744 30.9222 164.957 30.8911 165.176 30.8911H166.944C167.658 30.8911 168.333 31.2245 168.77 31.7941C169.208 32.3637 169.36 33.1056 169.182 33.8037L167.726 39.5167C167.708 39.589 167.686 39.6597 167.662 39.7288C167.759 40.0365 167.811 40.3621 167.811 40.6965C167.811 42.5029 166.343 43.8911 164.634 43.8911C163.552 43.8911 162.598 43.3453 162.027 42.5115C161.655 43.317 160.847 43.8561 159.934 43.8561H158.409C157.716 43.8561 157.059 43.5422 156.62 43.0009C156.182 42.4596 156.007 41.748 156.144 41.0625L156.352 40.0238C155.669 40.3801 154.894 40.5886 154.059 40.6304L153.793 41.98C153.578 43.0707 152.629 43.8561 151.527 43.8561H150.002C149.309 43.8561 148.653 43.5426 148.214 43.002C147.775 42.4613 147.6 41.7504 147.736 41.0652L147.837 40.5589C147.618 40.595 147.394 40.6189 147.166 40.6304L146.899 41.98C146.684 43.0707 145.735 43.8561 144.633 43.8561H143.108C142.945 43.8561 142.783 43.8387 142.626 43.8049C142.469 43.8387 142.308 43.8561 142.145 43.8561H140.596C139.835 43.8561 139.153 43.483 138.73 42.9C138.3 43.4951 137.609 43.8561 136.865 43.8561H135.236C135.07 43.8561 134.907 43.8383 134.749 43.8038C134.591 43.8382 134.428 43.8561 134.261 43.8561H132.736C132.258 43.8561 131.797 43.7067 131.413 43.4362C131.036 43.7023 130.578 43.8561 130.09 43.8561H128.565C127.873 43.8561 127.217 43.5426 126.778 43.002C126.339 42.4613 126.164 41.7504 126.3 41.0652L127.952 32.7638C128.169 31.6747 129.117 30.8911 130.217 30.8911H131.742C132.22 30.8911 132.681 31.0406 133.065 31.311C133.443 31.045 133.9 30.8911 134.388 30.8911H135.913C136.606 30.8911 137.262 31.2046 137.701 31.7453C137.741 31.7954 137.78 31.8469 137.816 31.8997ZM165.282 41.2677C165.388 41.149 165.461 41.001 165.489 40.8372C165.496 40.7914 165.5 40.7444 165.5 40.6964C165.5 40.6485 165.496 40.6012 165.489 40.555C165.42 40.1406 165.06 39.8103 164.634 39.8103C164.558 39.8103 164.484 39.8208 164.414 39.8404C164.048 39.943 163.779 40.295 163.779 40.6964C163.779 40.8941 163.779 41.2677 164.414 41.5592C164.959 41.5592 165.282 41.2677 165.282 41.2677ZM164.414 38.9359H165.488L166.944 33.2229H165.177L164.414 38.9359ZM140.932 33.2229H139.719L135.236 41.5242H136.865L137.639 40.0086H140.423L140.597 41.5242H142.145L140.932 33.2229ZM139.915 35.5547L138.263 38.7493H140.308L139.915 35.5547ZM143.108 41.5242H144.633L145.269 38.3063H146.851C146.871 38.3063 146.89 38.3062 146.909 38.3059C147.465 38.2981 147.947 38.1778 148.351 37.9757C149.318 37.4928 149.846 36.5429 149.887 35.5431C149.889 35.5004 149.89 35.4577 149.89 35.4148C149.89 34.7053 149.647 34.115 149.197 33.7264C148.826 33.4062 148.315 33.2229 147.683 33.2229H144.76L143.108 41.5242ZM147.995 36.4891C148.238 36.2166 148.353 35.862 148.353 35.5432C148.353 35.4998 148.352 35.457 148.348 35.415C148.339 35.2987 148.316 35.1887 148.276 35.0893C148.271 35.0745 148.264 35.0599 148.258 35.0456C148.159 34.8285 147.976 34.6677 147.683 34.6102C147.606 34.5951 147.522 34.5872 147.429 34.5872H146.02L145.546 36.9423H146.909C147.011 36.9423 147.108 36.9342 147.198 36.919C147.224 36.9147 147.249 36.9098 147.274 36.9043C147.328 36.8925 147.38 36.8781 147.429 36.8613C147.664 36.782 147.852 36.6499 147.995 36.4891ZM150.002 41.5242H151.527L152.162 38.3063H153.745C153.764 38.3063 153.784 38.3062 153.803 38.3059C154.998 38.2891 155.852 37.7515 156.332 36.9981C156.607 36.5651 156.759 36.0608 156.781 35.5431C156.783 35.5004 156.784 35.4577 156.784 35.4148C156.784 34.6893 156.529 34.0884 156.06 33.7004C155.847 33.5243 155.589 33.3921 155.291 33.312C155.074 33.2537 154.835 33.2229 154.577 33.2229H151.654L150.002 41.5242ZM154.888 36.4891C155.132 36.2166 155.247 35.862 155.247 35.5432C155.247 35.4998 155.245 35.457 155.242 35.415C155.232 35.2987 155.209 35.1887 155.17 35.0893C155.164 35.0745 155.158 35.0599 155.151 35.0456C155.052 34.8285 154.87 34.6677 154.577 34.6102C154.5 34.5951 154.416 34.5872 154.323 34.5872H152.913L152.44 36.9423H153.803C153.905 36.9423 154.001 36.9342 154.091 36.919C154.117 36.9147 154.143 36.9098 154.168 36.9043C154.221 36.8925 154.273 36.8781 154.323 36.8613C154.557 36.782 154.745 36.6499 154.888 36.4891ZM158.409 41.5242H159.934L160.604 38.1781L163.908 33.2229H162.221L160.096 36.6624L159.218 33.2229H157.6L159.09 38.1198L158.409 41.5242ZM132.736 41.5242L133.441 38.0032H130.795L130.091 41.5242H128.566L130.218 33.2229H131.743L131.073 36.6507H133.718L134.388 33.2229H135.913L134.261 41.5242H132.736Z" fill="#3F3334"/>
<path d="M144.758 86.7686C146.102 80.5193 142.302 74.4583 136.111 72.9771L131.159 71.7921C130.394 71.6091 129.61 71.5016 128.819 71.4718L125.415 71.3428C118.645 71.0866 112.837 76.4256 112.572 83.1503L112.339 89.0641C112.157 93.6723 114.663 97.8983 118.78 99.9243L120.392 100.718C123.311 102.154 126.731 102.326 129.854 101.193L136.165 98.9026C140.189 97.4426 143.2 94.0116 144.09 89.8718L144.758 86.7686Z" fill="#302F35" fill-opacity="0.98" stroke="#C9A38D"/>
<path d="M152.317 87.5427C151.086 81.2904 154.944 75.0214 161.099 73.2734L165.938 71.8992C166.703 71.6819 167.486 71.5412 168.275 71.4792L171.571 71.2194C178.28 70.6909 183.945 75.8412 184.106 82.6139L184.249 88.5957C184.359 93.2367 181.815 97.6034 177.709 99.8197L176.18 100.645C173.253 102.225 169.844 102.537 166.754 101.508L160.622 99.4647C156.668 98.1469 153.748 94.8084 152.934 90.6727L152.317 87.5427Z" fill="#302F35" fill-opacity="0.98" stroke="#C9A38D"/>
<path d="M143.15 78.3051C146.618 76.571 150.289 76.5548 153.973 78.2238L154.117 78.2897L153.063 80.5567C150.055 79.1584 147.175 79.1325 144.396 80.4781L144.268 80.5412L143.15 78.3051Z" fill="#C9A38D"/>
<path d="M129.85 69.0997C129.946 68.9158 130.172 68.8441 130.356 68.9394L131.104 69.3257C139.057 73.4102 143.373 74.9646 148.133 75.1629C153.613 75.3913 159.482 73.5621 168.062 68.9421C168.244 68.8439 168.472 68.9122 168.57 69.0945C168.668 69.2769 168.6 69.5043 168.417 69.6025C159.729 74.2806 153.741 76.1472 148.102 75.9123C143.053 75.7019 138.537 74.0263 130.011 69.6052C129.827 69.5099 129.755 69.2835 129.85 69.0997Z" fill="#C9A38D"/>
</svg>
