<svg width="300" height="400" viewBox="0 0 300 400" fill="none" xmlns="http://www.w3.org/2000/svg">
<path d="M162.637 203.911C164.007 200.326 168.025 198.531 171.61 199.901C175.159 201.257 176.954 205.208 175.66 208.766L175.62 208.873L121.312 350.949C119.942 354.534 115.925 356.329 112.34 354.959C108.791 353.602 106.996 349.651 108.29 346.094L108.33 345.986L162.637 203.911Z" fill="#EBBAAA"/>
<path d="M125.794 211.221C129.487 210.325 133.206 212.561 134.158 216.224L134.186 216.336L165.844 346.829C166.749 350.559 164.459 354.316 160.729 355.221C157.037 356.117 153.317 353.881 152.365 350.217L152.337 350.106L120.679 219.613C119.775 215.883 122.065 212.126 125.794 211.221Z" fill="#EBBAAA"/>
<path d="M144.016 366.51C144.934 365.712 145.37 364.667 145.295 364.176C145.219 363.681 115.881 347.109 115.881 347.109C111.002 344.378 101.777 337.225 99.8166 339.621C93.1347 347.793 99.4066 350.717 103.416 352.586C108.929 355.157 110.264 354.001 113.655 356.138C115.423 357.252 117.591 359.803 130.245 365.702C140.395 370.433 141.963 368.299 144.016 366.51Z" fill="#DEDEDE"/>
<path d="M119.551 336.87C114.482 334.389 112.889 331.864 112.415 327.645L112.697 327.041C110.449 325.993 109.4 329.043 107.65 331.323C105.318 334.363 104.908 333.583 102.688 336.381C101.151 338.319 99.521 341.541 99.9277 343.94C100.559 347.67 103.13 348.529 107.266 350.457C109.648 351.569 113.942 352.833 117.125 355.497C121.571 359.213 135.22 366.435 139.238 366.981C146.086 367.913 146.762 361.643 145.215 358.415C142.5 352.75 131.888 349.09 131.054 345.276C130.372 342.159 132.408 335.91 131.779 333.972C130.652 330.5 129.676 332.095 128.986 334.633C128.133 337.773 125.888 339.971 119.551 336.87Z" fill="#252424"/>
<mask id="mask0_0_7043" style="mask-type:luminance" maskUnits="userSpaceOnUse" x="99" y="327" width="47" height="41">
<path fill-rule="evenodd" clip-rule="evenodd" d="M119.443 337.179C114.378 334.695 114.212 330.623 114.762 328.896L112.131 327.671C111.705 327.929 110.482 328.428 108.692 330.796C106.305 333.954 104.76 333.995 102.49 336.903C100.918 338.916 99.2353 342.249 99.6124 344.712C100.198 348.54 102.771 349.389 106.906 351.314C109.287 352.426 113.588 353.667 116.754 356.364C121.176 360.127 134.807 367.37 138.841 367.877C145.715 368.741 146.48 362.286 144.967 358.989C142.312 353.201 131.662 348.962 130.875 345.052C130.23 341.853 132.23 336.595 131.624 334.61C130.537 331.053 129.69 332.137 128.963 334.752C128.062 337.992 125.775 340.283 119.443 337.179Z" fill="white"/>
</mask>
<g mask="url(#mask0_0_7043)">
<path d="M130.233 335.954C130.773 334.011 130.718 332.623 130.623 332.173L131.708 331.151L134.59 332.495C135.382 334.289 136.293 338.201 133.608 339.511C130.252 341.15 129.557 338.386 130.233 335.954Z" fill="#D9D8DD"/>
</g>
<mask id="mask1_0_7043" style="mask-type:luminance" maskUnits="userSpaceOnUse" x="99" y="327" width="47" height="41">
<path fill-rule="evenodd" clip-rule="evenodd" d="M119.416 337.179C114.35 334.698 114.185 330.623 114.735 328.896L111.576 327.424C111.15 327.684 110.455 328.428 108.665 330.796C106.278 333.954 104.733 333.998 102.463 336.903C100.891 338.916 99.2084 342.249 99.5852 344.712C100.171 348.54 102.744 349.389 106.879 351.317C109.26 352.426 113.561 353.667 116.728 356.364C121.148 360.127 134.78 367.37 138.814 367.879C145.689 368.744 146.869 362.019 145.295 358.588C142.64 352.799 131.938 348.962 131.15 345.052C130.506 341.853 131.844 335.575 131.238 333.591C130.151 330.034 129.663 332.137 128.935 334.754C128.035 337.995 125.747 340.283 119.416 337.179Z" fill="white"/>
</mask>
<g mask="url(#mask1_0_7043)">
<path d="M140.024 361.414C142.329 362.487 143.568 361.337 143.898 360.626C143.034 362.917 140.777 367.65 138.666 368.253C136.027 369.007 122.403 361.589 120.874 359.96C119.345 358.333 123.227 355.566 124.388 357.329C125.55 359.09 130.921 360.984 133.626 360.415C136.332 359.844 137.142 360.071 140.024 361.414Z" fill="#DEDEDE"/>
<path d="M143.786 359.741C144.587 358.284 145.333 358.276 145.605 358.454L149.624 360.631L145.618 367.915L138.954 368.471C137.971 367.961 136.181 366.566 136.882 365.063C137.758 363.184 139.637 364.06 141.29 363.457C142.944 362.855 142.784 361.56 143.786 359.741Z" fill="#DEDEDE"/>
</g>
<path d="M125.399 343.988C125.439 343.548 125.817 343.22 126.253 343.235L126.3 343.238L132.476 343.802C133.06 343.855 133.401 344.477 133.145 344.994L133.124 345.033L131.044 348.743L136.513 349.193C136.999 349.233 137.342 349.679 137.264 350.153L137.255 350.199L136.402 354.057L141.183 353.578C141.623 353.533 142.017 353.842 142.085 354.273L142.091 354.32C142.136 354.76 141.827 355.154 141.396 355.222L141.349 355.228L135.428 355.823C134.881 355.878 134.438 355.397 134.527 354.863L134.535 354.818L135.43 350.768L129.621 350.29C129.034 350.242 128.688 349.617 128.944 349.098L128.965 349.058L131.052 345.337L126.149 344.89C125.709 344.85 125.38 344.472 125.396 344.035L125.399 343.988Z" fill="#2A2A2A"/>
<path d="M192.808 364.973C193.301 363.862 193.256 362.732 192.979 362.315C192.702 361.9 159.11 359.275 159.11 359.275C153.534 358.861 142.15 356.274 141.386 359.275C138.782 369.503 145.702 369.503 150.125 369.503C156.208 369.503 156.93 367.895 160.907 368.399C162.98 368.662 166.021 370.057 179.984 370.057C191.182 370.057 191.702 367.462 192.808 364.973Z" fill="#DEDEDE"/>
<path d="M158.11 348.442C152.467 348.336 149.957 346.72 147.745 343.096V342.429C145.265 342.429 145.603 345.636 144.98 348.442C144.15 352.184 143.45 351.649 142.62 355.123C142.046 357.53 141.929 361.138 143.312 363.143C145.459 366.255 148.152 365.949 152.716 365.949C155.344 365.949 159.77 365.28 163.781 366.35C169.38 367.843 184.803 368.62 188.676 367.418C195.275 365.37 193.24 359.401 190.474 357.128C185.62 353.141 174.454 354.307 172.088 351.203C170.152 348.666 169.358 342.141 167.97 340.651C165.481 337.979 165.271 339.84 165.717 342.429C166.27 345.636 165.164 348.576 158.11 348.442Z" fill="#252424"/>
<mask id="mask2_0_7043" style="mask-type:luminance" maskUnits="userSpaceOnUse" x="142" y="339" width="52" height="31">
<path fill-rule="evenodd" clip-rule="evenodd" d="M158.143 348.769C152.503 348.658 150.632 345.037 150.401 343.238H147.499C147.222 343.655 146.324 344.623 145.702 347.523C144.872 351.394 143.49 352.087 142.66 355.68C142.086 358.168 141.969 361.9 143.351 363.975C145.498 367.195 148.19 366.878 152.752 366.878C155.378 366.878 159.802 366.186 163.811 367.293C169.408 368.837 184.823 369.643 188.694 368.399C195.29 366.279 193.255 360.104 190.491 357.754C185.639 353.631 174.196 354.285 171.831 351.075C169.895 348.45 169.486 342.836 168.099 341.295C165.61 338.53 165.3 339.869 165.746 342.548C166.299 345.866 165.193 348.908 158.143 348.769Z" fill="white"/>
</mask>
<g mask="url(#mask2_0_7043)">
<path d="M167.405 343.101C167.073 341.109 166.437 339.876 166.161 339.506L166.713 338.124H169.893C171.368 339.416 173.847 342.576 171.967 344.898C169.617 347.801 167.82 345.59 167.405 343.101Z" fill="#D9D8DD"/>
</g>
<mask id="mask3_0_7043" style="mask-type:luminance" maskUnits="userSpaceOnUse" x="142" y="339" width="52" height="31">
<path fill-rule="evenodd" clip-rule="evenodd" d="M158.119 348.782C152.479 348.671 150.608 345.047 150.377 343.251H146.891C146.615 343.665 146.3 344.633 145.677 347.536C144.848 351.407 143.466 352.1 142.636 355.693C142.062 358.181 141.945 361.913 143.327 363.988C145.474 367.208 148.166 366.891 152.727 366.891C155.354 366.891 159.778 366.199 163.787 367.306C169.384 368.85 184.799 369.655 188.67 368.41C195.266 366.291 193.495 359.697 190.619 357.252C185.768 353.126 174.445 354.169 172.08 350.959C170.145 348.331 168.706 342.077 167.318 340.535C164.83 337.771 165.276 339.882 165.722 342.561C166.275 345.879 165.169 348.918 158.119 348.782Z" fill="white"/>
</mask>
<g mask="url(#mask3_0_7043)">
<path d="M187.035 362.04C189.578 362.04 190.214 360.472 190.214 359.69C190.399 362.132 190.353 367.375 188.694 368.814C186.62 370.61 171.138 369.643 169.064 368.814C166.99 367.985 169.34 363.836 171.138 364.943C172.935 366.05 178.602 365.496 180.814 363.836C183.026 362.179 183.855 362.04 187.035 362.04Z" fill="#DEDEDE"/>
<path d="M189.738 358.936C189.848 357.275 190.521 356.954 190.844 357L195.406 357.275L194.853 365.571L189.047 368.888C187.941 368.842 185.729 368.335 185.729 366.675C185.729 364.603 187.802 364.603 189.047 363.357C190.291 362.114 189.6 361.007 189.738 358.936Z" fill="#DEDEDE"/>
</g>
<path d="M172.754 349.265C173.305 349.067 173.878 349.487 173.863 350.064L173.861 350.107L173.543 354.348L178.691 352.446C179.148 352.277 179.647 352.536 179.777 352.999L179.788 353.044L180.646 356.903L184.775 354.447C185.155 354.221 185.642 354.333 185.886 354.694L185.912 354.736C186.138 355.115 186.026 355.602 185.664 355.846L185.623 355.872L180.508 358.915C180.036 359.195 179.432 358.948 179.286 358.427L179.275 358.382L178.375 354.331L172.907 356.352C172.354 356.556 171.776 356.136 171.79 355.556L171.792 355.512L172.111 351.258L167.478 352.924C167.062 353.073 166.605 352.87 166.434 352.467L166.417 352.424C166.268 352.007 166.471 351.55 166.873 351.38L166.917 351.362L172.754 349.265Z" fill="#2A2A2A"/>
<path d="M147.123 219.647L178.909 222.864L131.294 340.394C131.294 340.394 123.444 339.621 118.939 338.206C114.435 336.79 107.229 331.9 107.229 331.9L147.123 219.647Z" fill="black"/>
<path d="M109.815 218.969L146.865 225.953L170.029 346.28C170.029 346.28 166.683 348.673 158.705 349.883C150.726 351.09 144.806 349.883 144.806 349.883L109.815 218.969Z" fill="#252424"/>
<path d="M152.27 241.688C147.02 233.143 129.921 226.031 122.028 223.543H154.844C156.174 233.152 157.521 250.233 152.27 241.688Z" fill="black"/>
<path d="M117.708 215.906L179.81 221.391L178.322 228.709L117.053 223.224L117.708 215.906Z" fill="black"/>
<path fill-rule="evenodd" clip-rule="evenodd" d="M150.41 217.416L156.574 217.816C157.283 217.862 157.821 218.474 157.775 219.183L157.193 228.172C157.147 228.882 156.535 229.419 155.825 229.374L149.661 228.974C148.952 228.928 148.414 228.316 148.46 227.607L149.042 218.617C149.088 217.908 149.7 217.37 150.41 217.416ZM154.708 226.722L155.124 220.301L151.528 220.068L151.112 226.489L154.708 226.722Z" fill="#252424"/>
<path d="M48.223 108.514C51.533 104.427 57.5297 103.797 61.617 107.107C82.3085 123.863 93.546 131.717 118.207 146.64C122.707 149.363 124.147 155.218 121.425 159.718C118.702 164.218 112.846 165.658 108.347 162.935C82.9566 147.571 71.0085 139.22 49.6305 121.908C45.5432 118.598 44.9131 112.602 48.223 108.514Z" fill="#FBD2C5"/>
<path d="M224.964 64.6862C227.462 60.0576 233.239 58.3301 237.867 60.8277C242.496 63.3253 244.224 69.1022 241.726 73.7308C227.259 100.54 210.673 125.566 190.978 150.184C187.693 154.291 181.7 154.957 177.593 151.671C173.486 148.386 172.82 142.393 176.106 138.286C195.088 114.558 211.042 90.487 224.964 64.6862Z" fill="#FBD2C5"/>
<path d="M169.392 144.972C164.389 152.054 166.075 161.849 173.157 166.852L174.229 167.711C181.311 172.714 191.109 171.026 196.112 163.945L245.265 88.3138L218.546 69.3372L169.392 144.972Z" fill="black"/>
<path d="M129.182 185.767C136.142 190.938 145.975 189.488 151.147 182.528L152.032 181.477C157.203 174.517 155.752 164.682 148.792 159.51L74.3634 108.554L54.7505 134.81L129.182 185.767Z" fill="black"/>
<path d="M220.605 222.223C223.076 216.663 223.908 213.6 223.05 210.898C208.74 165.805 189.462 154.789 181.612 154.918L123.315 171.39L79.0454 244.615C79.0454 244.615 111.733 243.069 121.513 255.424L165.139 243.971C173.633 248.733 181.097 259.285 194.867 257.226C208.637 255.167 217.516 229.172 220.605 222.223Z" fill="black"/>
<path d="M115.545 151.676C115.735 143.302 122.024 136.54 129.878 136.267L148.213 135.627C149.706 135.577 151.203 135.66 152.682 135.878L170.58 138.516C178.475 139.68 181.506 147.415 180.71 155.87C180.71 155.87 183.8 177.749 183.8 191.92C183.8 206.091 179.024 222.596 179.024 222.596C178.909 223.122 178.697 223.401 178.283 223.379L111.889 219.576C111.491 219.554 111.188 219.185 111.221 218.761L114.736 187.249L115.545 151.676Z" fill="#F3F6F9"/>
<path d="M168.871 160.836C157.547 155.791 157.118 146.123 158.319 141.919L175.049 127.763C177.322 129.178 185.035 136.102 197.698 152.471C209.934 168.289 219.711 198.116 223.453 212.417C223.674 213.11 223.789 213.581 223.822 213.857C223.706 213.396 223.583 212.916 223.453 212.417C222.535 209.547 219.784 202.884 213.398 190.692C203.489 171.775 183.027 167.142 168.871 160.836Z" fill="#252424"/>
<path d="M133.095 156.46L145.45 144.492L133.095 133.039L114.821 138.573C114.821 138.573 105.556 147.967 104.269 167.399C102.982 186.831 68.2355 238.822 76.8577 243.841C85.4799 248.86 116.366 234.061 122.157 224.28C127.948 214.5 133.095 156.46 133.095 156.46Z" fill="#252424"/>
<path fill-rule="evenodd" clip-rule="evenodd" d="M145.45 144.527L133.095 156.495C133.095 156.495 128.26 211.008 122.691 223.275C122.132 223.52 121.648 223.576 121.256 223.414C116.88 221.613 113.792 154.694 113.792 154.694L129.235 153.021L125.631 143.111L137.47 137.13L145.45 144.527Z" fill="black"/>
<path d="M79.0454 153.278L100.923 122.521L113.277 130.5L91.5284 162.544L79.0454 153.278Z" fill="white"/>
<rect x="140.816" y="125.317" width="19.5609" height="29.5988" rx="9.75756" fill="#EBBAAA"/>
<path d="M181.611 117.888C189.784 117.888 196.41 111.262 196.41 103.089C196.41 94.9153 189.784 88.2893 181.611 88.2893C173.438 88.2893 166.812 94.9153 166.812 103.089C166.812 111.262 173.438 117.888 181.611 117.888Z" fill="#EBBAAA"/>
<path d="M119.582 117.888C111.409 117.888 104.783 111.262 104.783 103.089C104.783 94.9153 111.409 88.2893 119.582 88.2893C127.755 88.2893 134.382 94.9153 134.382 103.089C134.382 111.262 127.755 117.888 119.582 117.888Z" fill="#EBBAAA"/>
<path d="M113.517 81.455C111.122 59.6922 128.163 40.6738 150.057 40.6738C171.969 40.6738 189.015 59.7215 186.592 81.4991L182.672 116.735C180.823 133.363 166.767 145.943 150.035 145.943C133.289 145.943 119.225 133.341 117.394 116.695L113.517 81.455Z" fill="#F6DDD6"/>
<path d="M188.868 66.3055C189.034 64.7378 187.864 63.3487 186.292 63.246C184.661 63.1397 183.293 64.4588 183.341 66.0921L184.409 93.7613C184.423 94.2238 184.528 94.5983 184.988 94.6282C185.468 94.6596 185.628 94.3077 185.68 93.8313L188.868 66.3055Z" fill="#393939"/>
<path d="M166.455 96.5256C168.135 96.5256 169.502 97.8675 169.542 99.538L169.543 99.6142V102.96C169.543 104.666 168.16 106.049 166.455 106.049C164.774 106.049 163.407 104.707 163.367 103.036L163.366 102.96V99.6142C163.366 97.9084 164.749 96.5256 166.455 96.5256Z" fill="black"/>
<path d="M134.282 96.5256C135.962 96.5256 137.329 97.8675 137.37 99.538L137.37 99.6142V102.96C137.37 104.666 135.988 106.049 134.282 106.049C132.602 106.049 131.235 104.707 131.194 103.036L131.193 102.96V99.6142C131.193 97.9084 132.576 96.5256 134.282 96.5256Z" fill="black"/>
<path d="M175.2 92.6006C176.901 92.4763 178.381 93.7547 178.505 95.4559C178.628 97.1318 177.389 98.5928 175.726 98.7549L175.65 98.7613L161.377 99.8043C159.675 99.9286 158.195 98.6502 158.071 96.949C157.949 95.2731 159.187 93.8121 160.85 93.65L160.926 93.6435L175.2 92.6006Z" fill="#393939"/>
<path d="M121.777 95.5045C121.892 93.828 123.323 92.5557 124.993 92.6293L125.069 92.6335L139.347 93.6087C141.049 93.725 142.334 95.1988 142.218 96.9006C142.104 98.577 140.672 99.8493 139.002 99.7758L138.926 99.7715L124.648 98.7963C122.946 98.6801 121.661 97.2063 121.777 95.5045Z" fill="#393939"/>
<path d="M148.654 103.168L152.461 105.326C151.314 107.35 150.66 109.512 150.73 110.979C150.781 112.039 151.045 112.342 152.04 112.354L152.102 112.354V116.73C148.602 116.73 146.518 114.498 146.36 111.188C146.247 108.835 147.099 105.966 148.567 103.323L148.654 103.168Z" fill="#EBBAAA"/>
<path d="M185.6 91.8926C185.729 90.8631 186.244 89.5761 187.016 89.3188C187.788 89.0614 188.255 52.1899 177.235 43.3237C166.215 34.4576 139.84 30.8597 121.557 43.3237C103.273 55.7877 118.038 81.4687 111.88 88.5139C109.636 91.0821 113.96 92.0233 113.793 93.4369L114.761 85.6869C114.761 85.6869 119.972 75.9411 123.902 63.8427C127.033 54.2057 146.693 59.9879 150.575 59.9879C154.458 59.9879 172.258 54.4561 175.37 63.8427C179.503 76.3069 181.628 80.7449 183.799 84.2998C184.341 89.2683 185.358 93.8307 185.6 91.8926Z" fill="#393939"/>
<path d="M118.464 39.7701C110.446 48.0093 109.017 71.0083 112.951 81.4873C112.951 87.3484 95.6955 86.1992 92.8542 95.1421C90.5406 102.423 112.533 99.6242 136.076 95.1421C159.618 90.6601 215.762 72.017 207.091 69.3055C201.579 67.5815 196.756 68.0412 190.239 71.0083C190.239 58.1367 173.504 30.25 160.892 30.25C152.243 30.25 149.546 32.6855 144.034 34.7542C138.522 36.8228 130.585 27.3146 118.464 39.7701Z" fill="black"/>
<path fill-rule="evenodd" clip-rule="evenodd" d="M192.979 58.2179C192.245 56.9637 190.779 56.6495 188.271 58.1515C183.341 61.1037 164.881 63.5334 148.414 65.701C133.847 67.6185 120.84 69.3306 120.14 71.017C118.649 74.61 121.402 80.869 122.893 81.6803C124.384 82.4918 146.062 80.2662 155.238 79.2462C164.414 78.2265 182.383 73.3352 190.335 71.017C192.244 69.0192 194.043 63.121 193.471 59.6935C193.317 59.2065 193.153 58.7144 192.979 58.2179Z" fill="white"/>
<path d="M161.278 125.352H139.401C141.503 127.197 146.582 130.886 150.082 130.886C153.582 130.886 159.005 127.197 161.278 125.352Z" fill="white"/>
<path d="M168.485 122.521C172.109 122.521 175.048 119.583 175.048 115.958C175.048 112.333 172.109 109.395 168.485 109.395C164.86 109.395 161.921 112.333 161.921 115.958C161.921 119.583 164.86 122.521 168.485 122.521Z" fill="#FBD2C5"/>
<path d="M132.966 122.521C136.591 122.521 139.529 119.583 139.529 115.958C139.529 112.333 136.591 109.395 132.966 109.395C129.341 109.395 126.403 112.333 126.403 115.958C126.403 119.583 129.341 122.521 132.966 122.521Z" fill="#FBD2C5"/>
</svg>
