<svg width="300" height="400" viewBox="0 0 300 400" fill="none" xmlns="http://www.w3.org/2000/svg">
<path d="M166.975 295.75C169.982 295.75 172.425 298.163 172.474 301.159L172.475 301.25V351.25C172.475 354.288 170.012 356.75 166.975 356.75C163.967 356.75 161.524 354.337 161.475 351.341L161.475 351.25V301.25C161.475 298.212 163.937 295.75 166.975 295.75Z" fill="#EBBAAA"/>
<path d="M130.975 295.75C133.982 295.75 136.425 298.163 136.474 301.159L136.475 301.25V351.25C136.475 354.288 134.012 356.75 130.975 356.75C127.967 356.75 125.524 354.337 125.475 351.341L125.475 351.25V301.25C125.475 298.212 127.937 295.75 130.975 295.75Z" fill="#EBBAAA"/>
<path d="M148.975 266.5C164.853 266.5 177.724 260.624 177.724 253.375C177.724 246.126 164.853 240.25 148.975 240.25C133.096 240.25 120.225 246.126 120.225 253.375C120.225 260.624 133.096 266.5 148.975 266.5Z" fill="#252424"/>
<path d="M148.725 235.75H181.225V344.75H157.682L148.725 235.75Z" fill="#252424"/>
<path d="M149.225 235.75H116.725V344.75H140.267L149.225 235.75Z" fill="#252424"/>
<path d="M159.704 355.648C159.704 355.648 159.829 347.38 160.452 348.005C161.075 348.633 163.941 350.26 167.808 350.26C171.674 350.26 174.043 348.883 174.915 348.008C175.788 347.13 176.6 355.648 176.6 355.648H159.704Z" fill="#DCE1E9"/>
<path d="M201.847 369.802C202.326 368.72 202.281 367.62 202.013 367.215C201.745 366.812 169.198 364.255 169.198 364.255C163.796 363.852 152.767 361.335 152.026 364.255C149.504 374.212 156.208 374.212 160.494 374.212C166.387 374.212 167.086 372.645 170.939 373.135C172.948 373.392 175.895 374.75 189.422 374.75C200.272 374.75 200.775 372.225 201.847 369.802Z" fill="#DEDEDE"/>
<path d="M159.844 348.785L159.829 348.758C159.829 348.758 159.08 347.755 157.958 348.508C156.836 349.26 156.112 350.98 155.509 353.713C154.705 357.353 154.026 356.833 153.222 360.215C152.665 362.558 152.552 366.068 153.892 368.02C155.973 371.05 158.582 370.753 163.004 370.753C165.55 370.753 169.838 370.1 173.724 371.143C179.149 372.595 194.092 373.353 197.844 372.183C204.238 370.188 202.266 364.378 199.586 362.168C194.883 358.285 184.065 359.42 181.773 356.4C179.897 353.928 179.014 349.723 178.35 347.858C177.6 345.753 175.33 345.265 175.6 347.858C175.85 350.263 175.064 353.843 168.23 353.713C162.776 353.608 161.975 352.29 159.844 348.785Z" fill="#3B3247"/>
<mask id="mask0_0_7105" style="mask-type:luminance" maskUnits="userSpaceOnUse" x="152" y="344" width="51" height="30">
<path fill-rule="evenodd" clip-rule="evenodd" d="M168.238 354.04C162.774 353.932 160.961 350.407 160.738 348.657H157.361C157.093 349.062 156.787 350.005 156.184 352.83C155.381 356.597 154.041 357.27 153.238 360.767C152.681 363.19 152.568 366.822 153.907 368.842C155.987 371.977 158.595 371.667 163.015 371.667C165.56 371.667 169.846 370.995 173.73 372.07C179.153 373.575 194.088 374.357 197.838 373.147C204.229 371.085 202.514 364.667 199.727 362.287C195.027 358.272 184.057 359.285 181.765 356.16C179.89 353.605 178.496 347.515 177.152 346.015C174.741 343.322 175.173 345.377 175.605 347.985C176.14 351.215 175.069 354.175 168.238 354.04Z" fill="white"/>
</mask>
<g mask="url(#mask0_0_7105)">
<path d="M196.255 366.948C198.719 366.948 202.85 364.428 202.85 363.665C203.028 366.043 203.082 370.908 201.475 372.308C199.466 374.058 180.852 374.348 178.843 373.54C176.834 372.733 176.475 371.555 179.975 372.183C181.989 372.543 188.085 370.31 190.228 368.695C192.371 367.08 193.174 366.948 196.255 366.948Z" fill="#DEDEDE"/>
<path opacity="0.5" d="M167.954 361.945C169.679 362.415 171.069 362.352 171.857 361.753C173.887 360.19 172.587 357.808 172.036 356.875C173.028 358.018 174.014 359.165 174.784 360.415C175.997 362.367 176.511 364.513 175.693 365.885C174.226 368.365 170.699 367.22 168.451 366.222L147.591 356.968L167.954 361.945Z" fill="#7F8389"/>
</g>
<path d="M182.416 354.515C182.951 354.321 183.508 354.729 183.495 355.289L183.493 355.333L183.184 359.463L188.168 357.612C188.612 357.448 189.097 357.699 189.224 358.148L189.235 358.194L190.065 361.946L194.063 359.558C194.431 359.338 194.904 359.446 195.142 359.797L195.167 359.837C195.387 360.205 195.279 360.678 194.929 360.916L194.889 360.942L189.933 363.902C189.475 364.175 188.887 363.935 188.745 363.429L188.733 363.384L187.861 359.445L182.568 361.41C182.031 361.61 181.469 361.202 181.482 360.639L181.484 360.595L181.793 356.453L177.308 358.073C176.904 358.219 176.46 358.022 176.294 357.631L176.277 357.589C176.131 357.185 176.328 356.74 176.718 356.574L176.761 356.557L182.416 354.515Z" fill="#2A2A2A"/>
<path d="M138.245 355.647C138.245 355.647 138.121 347.38 137.497 348.005C136.874 348.632 134.008 350.26 130.141 350.26C126.276 350.26 123.907 348.882 123.034 348.007C122.161 347.13 121.164 356.022 121.164 356.022L138.245 355.647Z" fill="#DCE1E9"/>
<path d="M96.1024 369.802C95.6237 368.72 95.668 367.62 95.9361 367.215C96.2041 366.812 128.751 364.255 128.751 364.255C134.153 363.852 145.183 361.335 145.923 364.255C148.446 374.212 141.742 374.212 137.456 374.212C131.562 374.212 130.863 372.645 127.01 373.135C125.001 373.392 122.054 374.75 108.527 374.75C97.6775 374.75 97.1738 372.225 96.1024 369.802Z" fill="#DEDEDE"/>
<path d="M138.105 348.785L138.121 348.758C138.121 348.758 138.869 347.755 139.991 348.508C141.113 349.26 141.837 350.98 142.44 353.713C143.244 357.353 143.923 356.833 144.727 360.215C145.284 362.558 145.397 366.068 144.057 368.02C141.976 371.05 139.367 370.753 134.945 370.753C132.399 370.753 128.111 370.1 124.225 371.143C118.8 372.595 103.858 373.353 100.105 372.183C93.7113 370.188 95.6835 364.378 98.3631 362.168C103.066 358.285 113.884 359.42 116.177 356.4C118.052 353.928 118.936 349.723 119.6 347.858C120.35 345.753 122.619 345.265 122.349 347.858C122.1 350.263 122.886 353.843 129.72 353.713C135.173 353.608 135.974 352.29 138.105 348.785Z" fill="#3B3247"/>
<mask id="mask1_0_7105" style="mask-type:luminance" maskUnits="userSpaceOnUse" x="95" y="344" width="51" height="30">
<path fill-rule="evenodd" clip-rule="evenodd" d="M129.711 354.04C135.176 353.932 136.988 350.407 137.211 348.657H140.589C140.857 349.062 141.162 350.005 141.765 352.83C142.568 356.597 143.908 357.27 144.712 360.767C145.268 363.19 145.381 366.822 144.042 368.842C141.962 371.977 139.354 371.667 134.934 371.667C132.389 371.667 128.104 370.995 124.22 372.07C118.797 373.575 103.862 374.357 100.111 373.147C93.72 371.085 95.4354 364.667 98.222 362.287C102.923 358.272 113.893 359.285 116.184 356.16C118.059 353.605 119.454 347.515 120.798 346.015C123.208 343.322 122.777 345.377 122.344 347.985C121.809 351.215 122.88 354.175 129.711 354.04Z" fill="white"/>
</mask>
<g mask="url(#mask1_0_7105)">
<path d="M101.695 366.948C99.2301 366.948 95.0993 364.428 95.0993 363.665C94.9207 366.043 94.8671 370.908 96.4743 372.308C98.4833 374.058 117.097 374.348 119.106 373.54C121.115 372.733 121.474 371.555 117.974 372.183C115.96 372.543 109.865 370.31 107.722 368.695C105.579 367.08 104.775 366.948 101.695 366.948Z" fill="#DEDEDE"/>
<path opacity="0.5" d="M129.995 361.945C128.27 362.415 126.88 362.353 126.092 361.753C124.062 360.19 125.362 357.808 125.913 356.875C124.921 358.018 123.935 359.165 123.165 360.415C121.952 362.368 121.438 364.513 122.256 365.885C123.723 368.365 127.25 367.22 129.498 366.223L150.358 356.968L129.995 361.945Z" fill="#7F8389"/>
</g>
<path d="M114.457 355.333C114.414 354.765 114.956 354.338 115.492 354.501L115.534 354.515L121.188 356.557C121.607 356.708 121.824 357.17 121.672 357.589C121.526 357.993 121.091 358.209 120.684 358.087L120.641 358.073L116.156 356.453L116.465 360.595C116.508 361.166 115.96 361.593 115.423 361.424L115.381 361.41L110.088 359.445L109.216 363.384C109.101 363.905 108.522 364.168 108.057 363.925L108.016 363.902L103.061 360.942C102.679 360.714 102.554 360.219 102.782 359.837C103.002 359.469 103.47 359.339 103.846 359.535L103.887 359.558L107.884 361.946L108.714 358.194C108.817 357.732 109.291 357.46 109.737 357.597L109.781 357.612L114.765 359.463L114.457 355.333Z" fill="#2A2A2A"/>
<rect x="107.225" y="135.75" width="42.5" height="80" rx="21.25" transform="rotate(15 107.225 135.75)" fill="#503868"/>
<rect x="120.225" y="125" width="57.5" height="118.75" rx="28" fill="#503868"/>
<path d="M112.017 152.647C111.706 146.399 116.062 140.884 122.212 139.738L148.975 134.75L175.738 139.738C181.887 140.884 186.243 146.399 185.932 152.647L183.975 192L186.36 246.391C186.423 247.813 185.286 249 183.863 249H114.087C112.663 249 111.527 247.813 111.589 246.391L113.975 192L112.017 152.647Z" fill="#503868"/>
<rect width="22.5" height="72.5" rx="11.25" transform="matrix(-0.965926 0.258819 0.258819 0.965926 193.975 137.25)" fill="#503868"/>
<rect x="81.4746" y="201" width="26.25" height="51.25" rx="13.125" transform="rotate(-45 81.4746 201)" fill="#503868"/>
<rect width="26.25" height="51.25" rx="13.125" transform="matrix(0.707107 0.707107 0.707107 -0.707107 163.975 221.75)" fill="#503868"/>
<rect x="153.975" y="139.25" width="5" height="33.75" rx="2.5" fill="#F7F7F7"/>
<rect x="138.975" y="152.25" width="5" height="33.75" rx="2.5" fill="#F7F7F7"/>
<path d="M120.225 217C120.225 209.13 126.605 202.75 134.475 202.75H148.975H163.475C171.345 202.75 177.725 209.13 177.725 217V218.375V234H120.225V218.375V217Z" fill="#664C81"/>
<path d="M179.6 232.25C184.777 232.25 188.975 228.892 188.975 224.75C188.975 220.608 184.777 217.25 179.6 217.25C174.422 217.25 170.225 220.608 170.225 224.75C170.225 228.892 174.422 232.25 179.6 232.25Z" fill="#EBBAAA"/>
<path d="M148.975 161.75C158.639 161.75 166.475 153.915 166.475 144.25C166.475 134.585 158.639 126.75 148.975 126.75C139.31 126.75 131.475 134.585 131.475 144.25C131.475 153.915 139.31 161.75 148.975 161.75Z" fill="#503868"/>
<rect x="139.225" y="114" width="19" height="35.75" rx="9.47775" fill="#EBBAAA"/>
<path opacity="0.5" d="M186.475 108C191.997 108 196.475 103.523 196.475 98.0002C196.475 92.4775 191.997 88.0002 186.475 88.0002C180.952 88.0002 176.475 92.4775 176.475 98.0002C176.475 103.523 180.952 108 186.475 108Z" fill="#C99584"/>
<path opacity="0.5" d="M111.475 108C105.952 108 101.475 103.523 101.475 98.0002C101.475 92.4775 105.952 88.0002 111.475 88.0002C116.997 88.0002 121.475 92.4775 121.475 98.0002C121.475 103.523 116.997 108 111.475 108Z" fill="#C99584"/>
<rect x="111.475" y="31" width="75" height="102.5" rx="37.5" fill="#F4D5CC"/>
<path d="M157.998 116.323C158.648 117.164 158.493 118.373 157.652 119.023L157.595 119.066C157.563 119.089 157.526 119.116 157.483 119.146L157.438 119.177C157.3 119.272 157.141 119.375 156.961 119.483C156.467 119.779 155.894 120.071 155.243 120.341C153.417 121.098 151.317 121.55 148.975 121.55C146.633 121.55 144.533 121.098 142.706 120.341C142.056 120.071 141.482 119.779 140.988 119.483C140.838 119.393 140.703 119.306 140.582 119.225L140.511 119.177C140.418 119.113 140.347 119.061 140.298 119.023C139.457 118.373 139.302 117.164 139.952 116.323C140.588 115.499 141.76 115.334 142.599 115.937L142.666 115.987L142.693 116.005C142.766 116.056 142.858 116.115 142.969 116.181C143.305 116.383 143.71 116.589 144.181 116.784C145.557 117.355 147.161 117.7 148.975 117.7C150.789 117.7 152.392 117.355 153.769 116.784C154.239 116.589 154.645 116.383 154.981 116.181L155.104 116.105C155.143 116.081 155.178 116.058 155.21 116.037L155.298 115.977C156.139 115.327 157.348 115.482 157.998 116.323Z" fill="#C99584"/>
<path fill-rule="evenodd" clip-rule="evenodd" d="M154.475 82H177.975C179.218 82 180.225 83.0073 180.225 84.25V87.5C180.225 92.4707 176.196 96.5 171.225 96.5H161.225C156.254 96.5 152.225 92.4707 152.225 87.5V84.25C152.225 83.0073 153.232 82 154.475 82ZM177.225 85H155.225L155.225 87.5C155.225 90.7807 157.858 93.4462 161.126 93.4992L161.225 93.5H171.225C174.539 93.5 177.225 90.8138 177.225 87.5L177.225 85Z" fill="#393939"/>
<rect x="142.725" y="85.5" width="12.5" height="2.5" fill="#393939"/>
<path fill-rule="evenodd" clip-rule="evenodd" d="M119.475 82H142.975C144.218 82 145.225 83.0073 145.225 84.25V87.25C145.225 92.2207 141.196 96.25 136.225 96.25H126.225C121.254 96.25 117.225 92.2207 117.225 87.25V84.25C117.225 83.0073 118.232 82 119.475 82ZM142.225 85H120.225L120.225 87.25C120.225 90.5307 122.858 93.1962 126.126 93.2492L126.225 93.25H136.225C139.539 93.25 142.225 90.5638 142.225 87.25L142.225 85Z" fill="#393939"/>
<path d="M187.723 64.6217C187.781 63.054 186.646 61.7502 185.225 61.7502C183.751 61.7502 182.597 63.1487 182.736 64.7677L185.09 92.1935C185.13 92.652 185.478 93.0002 185.893 93.0002C186.328 93.0002 186.683 92.6237 186.701 92.1472L187.723 64.6217Z" fill="#6E6C6C"/>
<path d="M110.227 64.6217C110.169 63.054 111.304 61.7502 112.725 61.7502C114.199 61.7502 115.353 63.1487 115.213 64.7677L112.859 92.1935C112.82 92.652 112.472 93.0002 112.056 93.0002C111.622 93.0002 111.267 92.6237 111.248 92.1472L110.227 64.6217Z" fill="#6E6C6C"/>
<path d="M149.245 26.0513C167.338 22.4022 191.103 37.1398 188.822 62.193C188.072 70.4275 186.061 70.931 182.85 66.4063C182.605 62.0745 180.962 59.0965 178.239 57.049L178.188 57.4974C178.037 58.8587 177.885 60.3676 177.758 62.055L177.425 61.6079C172.057 54.4347 170.199 53.5736 162.797 53.0168C160.342 55.0493 161.183 59.22 166.36 61.5113C160.837 61.5113 149.193 59.22 149.521 53.585L149.386 53.6565C147.169 54.7995 144.715 54.7867 144.715 60.6275L144.52 60.4132C141.294 56.9011 136.113 52.8093 130.156 53.3652C129.595 53.4471 129.047 53.5374 128.512 53.6368C126.765 54.0508 124.963 54.8872 123.133 56.269C117.477 60.5403 115.87 64.0832 114.555 72.1269L114.475 72.625L112.998 68.7565C110.996 70.2451 109.697 68.453 109.127 62.193C106.835 37.0146 130.85 22.2552 148.975 26.1074L149.245 26.0513Z" fill="#393939"/>
<path d="M167.475 85.75C168.717 85.75 169.725 86.7574 169.725 88C169.725 89.2205 168.753 90.2139 167.541 90.249L167.475 90.25H162.475C161.232 90.25 160.225 89.2426 160.225 88C160.225 86.7795 161.197 85.7861 162.409 85.751L162.475 85.75H167.475Z" fill="black"/>
<path d="M134.975 85.75C136.217 85.75 137.225 86.7574 137.225 88C137.225 89.2205 136.253 90.2139 135.041 90.249L134.975 90.25H129.975C128.732 90.25 127.725 89.2426 127.725 88C127.725 86.7795 128.697 85.7861 129.909 85.751L129.975 85.75H134.975Z" fill="black"/>
<path d="M157.728 72.869C157.8 71.6507 158.827 70.7154 160.039 70.751L160.106 70.7539L175.106 71.6289C176.346 71.7013 177.293 72.7656 177.221 74.0061C177.15 75.2245 176.122 76.1597 174.91 76.1242L174.844 76.1212L159.844 75.2462C158.603 75.1739 157.656 74.1096 157.728 72.869Z" fill="#393939"/>
<path d="M137.344 70.7539C138.584 70.6815 139.648 71.6285 139.721 72.869C139.792 74.0874 138.88 75.1358 137.672 75.2414L137.606 75.2462L122.606 76.1212C121.365 76.1936 120.301 75.2466 120.228 74.0061C120.157 72.7877 121.07 71.7393 122.277 71.6337L122.344 71.6289L137.344 70.7539Z" fill="#393939"/>
<path d="M147.207 94.3213L150.743 96.6788C149.541 98.4815 148.6 101.188 148.6 103.156C148.6 105.055 149.285 105.852 151.384 105.875L151.475 105.875V110.125C146.839 110.125 144.35 107.325 144.35 103.156C144.35 100.332 145.525 96.9047 147.119 94.454L147.207 94.3213Z" fill="#EBBAAA"/>
</svg>
