<svg width="300" height="400" viewBox="0 0 300 400" fill="none" xmlns="http://www.w3.org/2000/svg">
<path d="M158.719 323.519C159.061 319.923 162.253 317.286 165.849 317.627C169.408 317.966 172.029 321.098 171.75 324.649L171.74 324.757L168.713 356.609C168.371 360.205 165.179 362.842 161.583 362.501C158.023 362.162 155.402 359.03 155.682 355.479L155.691 355.371L158.719 323.519Z" fill="#EBBAAA"/>
<path d="M134.091 317.627C137.651 317.289 140.815 319.871 141.209 323.412L141.22 323.519L144.248 355.371C144.59 358.967 141.952 362.159 138.356 362.501C134.797 362.839 131.633 360.257 131.238 356.717L131.227 356.609L128.199 324.757C127.857 321.161 130.495 317.969 134.091 317.627Z" fill="#EBBAAA"/>
<path d="M149.97 265.642C165.354 265.642 177.825 259.948 177.825 252.925C177.825 245.902 165.354 240.208 149.97 240.208C134.586 240.208 122.115 245.902 122.115 252.925C122.115 259.948 134.586 265.642 149.97 265.642Z" fill="#667A8C"/>
<path d="M183.639 240.693H152.15V346.301L165.956 348.723L174.96 346.301L183.639 240.693Z" fill="#667A8C"/>
<path d="M183.881 240.693H169.347L165.956 348.723L174.918 346.422L183.881 240.693Z" fill="#7D92A4"/>
<path d="M116.301 240.693H147.79V346.301L133.983 348.723L124.98 346.301L116.301 240.693Z" fill="#667A8C"/>
<path d="M116.059 240.693H130.592L133.983 348.723L125.021 346.422L116.059 240.693Z" fill="#7D92A4"/>
<path d="M196.961 366.035C196.961 358.645 192.187 357.744 184.406 355.21C180.595 353.97 176.706 352.89 172.76 352.238C170.28 351.829 169.614 353.999 165.258 353.999C161.372 353.999 156.525 352.083 155.523 351.669C155.397 351.618 155.249 351.572 155.149 351.664C155.124 351.686 155.104 351.712 155.088 351.744C154.624 352.691 152.19 357.862 152.19 362.002C152.19 365.165 151.917 368.278 152.795 369.886C153.191 370.613 155.663 371.008 156.493 371.008H195.614C196.358 371.008 196.961 366.774 196.961 366.035Z" fill="#E0E2E4"/>
<mask id="mask0_0_7165" style="mask-type:luminance" maskUnits="userSpaceOnUse" x="152" y="350" width="45" height="22">
<path fill-rule="evenodd" clip-rule="evenodd" d="M196.961 366.035C196.961 362.244 195.705 360.161 193.432 358.689C182.574 351.657 168.505 351.344 155.578 350.87C155.472 350.87 155.135 351.65 155.088 351.744C154.624 352.691 152.19 357.863 152.19 362.002C152.19 365.165 151.917 368.278 152.795 369.886C153.191 370.613 155.663 371.008 156.493 371.008H195.614C196.358 371.008 196.961 366.774 196.961 366.035Z" fill="white"/>
</mask>
<g mask="url(#mask0_0_7165)">
<path d="M191.274 360.981C195.025 360.981 196.074 358.815 196.477 358.454C197.203 359.295 196.598 362.691 197.082 364.231C197.566 365.772 196.88 367.281 196.477 367.843L162.718 369.407C162.516 366.196 162.233 359.777 162.718 359.777C163.322 359.777 167.195 354.601 169.251 354.482C170.897 354.385 178.891 356.446 182.683 357.49C182.199 357.972 181.4 360.426 181.11 361.584C180.747 363.027 180.626 363.027 181.957 363.388C183.288 363.749 183.53 360.981 184.982 360.981H191.274Z" fill="#C2C6CA"/>
<path d="M165.621 359.898C165.041 358.934 155.699 357.57 151.948 357.129L150.254 367.479L169.13 368.564C168.203 366.077 166.202 360.859 165.621 359.898Z" fill="#9EA5AC"/>
<path d="M161.265 353.036C158.361 352.844 155.941 351.272 154.973 350.388C154.005 351.352 151.609 354 152.19 354.961C152.916 356.165 158.482 357.129 160.902 357.129C163.322 357.129 164.895 353.278 161.265 353.036Z" fill="#C2C6CA"/>
<path d="M175.544 367.361C181.715 367.118 187.039 368.564 193.815 367.118C205.915 365.796 199.698 366.581 202.769 372.435H155.316C150.617 371.333 149.058 364.522 152.553 365.074C160.176 366.275 170.822 367.545 175.544 367.361Z" fill="#E0E2E4"/>
<path d="M150.738 367.118C152.384 367.794 174.696 367.843 175.422 367.361C173.728 367 161.261 365.592 158.482 365.435C154.247 365.193 152.634 364.873 150.738 364.953C150.052 365.435 149.092 366.445 150.738 367.118Z" fill="#F1F5F9"/>
</g>
<path d="M172.89 351.435C173.243 351.222 173.702 351.335 173.915 351.688C174.128 352.04 174.014 352.499 173.662 352.712L173.545 352.78C173.27 352.939 172.663 353.283 172.466 353.402C172.41 353.436 172.356 353.469 172.303 353.502L172.248 353.538L177.513 352.332C178.182 352.179 178.678 352.929 178.296 353.481L178.271 353.514L176.833 355.382L182.721 353.717C183.45 353.511 183.978 354.391 183.477 354.936L183.448 354.966L180.231 358.141C179.938 358.431 179.465 358.428 179.176 358.134C178.898 357.853 178.89 357.406 179.149 357.115L179.183 357.079L180.334 355.943L175.069 357.432C174.391 357.624 173.858 356.859 174.251 356.292L174.275 356.259L175.822 354.25L170.507 355.467C170.054 355.571 169.622 355.241 169.595 354.785L169.594 354.74C169.594 353.742 170.27 353.015 171.516 352.235L171.694 352.125C171.953 351.968 172.77 351.507 172.89 351.435Z" fill="#EBE5D9"/>
<path fill-rule="evenodd" clip-rule="evenodd" d="M171.261 349.075C171.299 346.924 172.73 345.332 174.614 345.332C175.544 345.332 176.302 345.719 176.825 346.429C177.328 347.109 177.596 348.064 177.596 349.162C177.596 350.175 176.99 351.087 175.955 351.773C175.038 352.379 173.861 352.744 172.875 352.744C172.401 352.744 172.054 352.659 171.822 352.497C171.585 352.341 171.434 352.102 171.347 351.771C171.273 351.488 171.244 351.143 171.242 350.643C171.242 350.607 171.242 350.572 171.243 350.537L171.257 349.577L171.261 349.075ZM175.625 347.315C175.381 346.984 175.068 346.824 174.615 346.824C173.573 346.824 172.753 347.753 172.753 349.162L172.752 349.402L172.736 350.411L172.735 350.722C172.737 350.882 172.743 351.015 172.751 351.123L172.761 351.223L172.764 351.249L172.787 351.251L172.876 351.252C173.564 351.252 174.456 350.975 175.132 350.529C175.783 350.097 176.104 349.614 176.104 349.162C176.104 348.364 175.923 347.718 175.625 347.315Z" fill="#EBE5D9"/>
<path fill-rule="evenodd" clip-rule="evenodd" d="M166.447 349.972C166.59 349.336 166.99 348.847 167.62 348.57C168.913 347.995 170.383 348.652 171.043 350.126L171.14 350.34L171.422 350.945L171.535 351.196C171.661 351.488 171.734 351.706 171.766 351.902C171.786 352.027 171.789 352.142 171.77 352.25L171.764 352.285C171.762 352.291 171.761 352.297 171.759 352.303L171.746 352.347L171.562 352.484L171.653 352.545C171.544 352.71 171.362 352.854 171.09 352.982L171.02 353.014C170.351 353.312 169.443 353.422 168.637 353.292C167.731 353.143 167.048 352.713 166.745 352.037C166.415 351.3 166.31 350.579 166.447 349.972ZM169.68 350.734L169.65 350.67C169.307 349.965 168.718 349.714 168.224 349.934C168.026 350.021 167.943 350.123 167.903 350.299C167.843 350.567 167.901 350.967 168.106 351.426C168.18 351.59 168.426 351.745 168.877 351.819C169.283 351.884 169.745 351.854 170.121 351.752L170.147 351.745L170.112 351.667L169.856 351.117C169.816 351.033 169.781 350.957 169.747 350.882L169.68 350.734Z" fill="#EBE5D9"/>
<path fill-rule="evenodd" clip-rule="evenodd" d="M171.324 356.094L174.219 357.39L172.285 360.082L175.774 358.059L178.659 359.426L175.044 366.231L172.289 364.934L174.327 361.69L170.361 364.017L167.576 362.908L171.324 356.094ZM173.479 357.589L171.534 356.719L168.264 362.66L170.319 363.479L175.792 360.269L172.99 364.728L174.832 365.596L177.993 359.646L175.796 358.605L170.573 361.635L173.479 357.589Z" fill="#E0E2E4"/>
<path d="M102.979 366.035C102.979 358.645 107.753 357.744 115.533 355.21C119.344 353.97 123.233 352.89 127.18 352.238C129.659 351.829 130.325 353.999 134.682 353.999C138.567 353.999 143.415 352.083 144.417 351.669C144.542 351.618 144.691 351.572 144.791 351.664C144.815 351.686 144.836 351.712 144.851 351.744C145.315 352.691 147.75 357.862 147.75 362.002C147.75 365.165 148.022 368.278 147.145 369.886C146.749 370.613 144.277 371.008 143.447 371.008H104.325C103.582 371.008 102.979 366.774 102.979 366.035Z" fill="#E0E2E4"/>
<mask id="mask1_0_7165" style="mask-type:luminance" maskUnits="userSpaceOnUse" x="102" y="350" width="46" height="22">
<path fill-rule="evenodd" clip-rule="evenodd" d="M102.979 366.035C102.979 362.244 104.234 360.161 106.507 358.689C117.365 351.657 131.434 351.344 144.361 350.87C144.467 350.87 144.805 351.65 144.851 351.744C145.315 352.691 147.75 357.863 147.75 362.002C147.75 365.165 148.022 368.278 147.145 369.886C146.749 370.613 144.276 371.008 143.446 371.008H104.325C103.581 371.008 102.979 366.774 102.979 366.035Z" fill="white"/>
</mask>
<g mask="url(#mask1_0_7165)">
<path d="M108.666 360.981C104.915 360.981 103.866 358.815 103.463 358.454C102.737 359.295 103.342 362.691 102.858 364.231C102.374 365.772 103.059 367.281 103.463 367.843L137.222 369.407C137.424 366.196 137.706 359.777 137.222 359.777C136.617 359.777 132.745 354.601 130.688 354.482C129.043 354.385 121.048 356.446 117.257 357.49C117.741 357.972 118.539 360.426 118.83 361.584C119.193 363.027 119.314 363.027 117.983 363.388C116.652 363.749 116.41 360.981 114.958 360.981H108.666Z" fill="#C2C6CA"/>
<path d="M134.319 359.898C134.899 358.934 144.241 357.57 147.992 357.129L149.686 367.479L130.809 368.564C131.737 366.077 133.738 360.859 134.319 359.898Z" fill="#9EA5AC"/>
<path d="M138.674 353.036C141.578 352.844 143.998 351.272 144.967 350.388C145.935 351.352 148.33 354 147.75 354.961C147.024 356.165 141.458 357.129 139.038 357.129C136.618 357.129 135.045 353.278 138.674 353.036Z" fill="#C2C6CA"/>
<path d="M124.396 367.361C118.225 367.118 112.901 368.564 106.125 367.118C94.0246 365.796 100.241 366.581 97.1707 372.435H144.624C149.323 371.333 150.882 364.522 147.387 365.074C139.763 366.275 129.118 367.545 124.396 367.361Z" fill="#E0E2E4"/>
<path d="M149.202 367.118C147.556 367.794 125.243 367.843 124.517 367.361C126.211 367 138.679 365.592 141.458 365.435C145.693 365.193 147.306 364.873 149.202 364.953C149.887 365.435 150.847 366.445 149.202 367.118Z" fill="#F1F5F9"/>
</g>
<path d="M126.025 351.688C126.238 351.335 126.697 351.222 127.049 351.435L127.261 351.557C127.555 351.726 128.053 352.009 128.246 352.125L128.424 352.235C129.67 353.015 130.346 353.742 130.346 354.74C130.346 355.204 129.928 355.552 129.477 355.476L129.433 355.467L124.118 354.25L125.664 356.259C126.094 356.818 125.582 357.597 124.91 357.442L124.87 357.432L119.605 355.943L120.757 357.079C121.038 357.357 121.052 357.804 120.797 358.098L120.764 358.134C120.486 358.416 120.039 358.43 119.745 358.175L119.709 358.141L116.491 354.966C115.952 354.434 116.457 353.54 117.178 353.707L117.218 353.717L123.107 355.383L121.668 353.514C121.25 352.971 121.724 352.207 122.385 352.324L122.426 352.332L127.691 353.537L127.556 353.452L127.407 353.362C127.113 353.189 126.412 352.793 126.278 352.712C125.925 352.499 125.812 352.04 126.025 351.688Z" fill="#EBE5D9"/>
<path fill-rule="evenodd" clip-rule="evenodd" d="M123.114 346.431C123.637 345.719 124.395 345.332 125.325 345.332C127.235 345.332 128.679 346.967 128.679 349.162L128.681 349.443L128.696 350.437L128.696 350.742C128.691 351.189 128.662 351.507 128.592 351.771C128.505 352.102 128.354 352.341 128.135 352.485C127.887 352.659 127.539 352.744 127.064 352.744C126.079 352.744 124.902 352.379 123.983 351.772C122.949 351.087 122.344 350.174 122.344 349.162C122.344 348.064 122.612 347.109 123.114 346.431ZM127.187 349.162C127.187 347.753 126.367 346.824 125.325 346.824C124.872 346.824 124.559 346.984 124.315 347.316C124.017 347.719 123.836 348.364 123.836 349.162C123.836 349.614 124.157 350.097 124.807 350.528C125.484 350.975 126.376 351.252 127.065 351.252L127.153 351.251L127.176 351.249L127.184 351.175C127.196 351.056 127.203 350.905 127.205 350.715L127.205 350.64C127.205 350.596 127.205 350.553 127.205 350.508L127.189 349.49L127.187 349.162Z" fill="#EBE5D9"/>
<path fill-rule="evenodd" clip-rule="evenodd" d="M128.489 351.006L128.788 350.367L128.931 350.053C129.605 348.631 131.048 348.004 132.318 348.569C132.95 348.847 133.35 349.336 133.492 349.972C133.629 350.579 133.525 351.3 133.195 352.037C132.892 352.713 132.208 353.143 131.301 353.292C130.497 353.422 129.589 353.312 128.924 353.016C128.608 352.878 128.405 352.723 128.286 352.545L128.358 352.497L128.208 352.393C128.192 352.346 128.185 352.323 128.179 352.298L128.171 352.257L128.162 352.196C128.154 352.122 128.155 352.045 128.165 351.963L128.174 351.9C128.208 351.688 128.292 351.448 128.44 351.116C128.458 351.074 128.472 351.043 128.489 351.006ZM130.259 350.736L130.227 350.807C130.194 350.88 130.161 350.951 130.126 351.027L129.91 351.487L129.793 351.746L129.821 351.754C130.168 351.847 130.591 351.88 130.973 351.832L131.061 351.819C131.513 351.745 131.76 351.59 131.833 351.427C132.039 350.967 132.097 350.568 132.036 350.299C131.997 350.124 131.913 350.021 131.714 349.933C131.207 349.708 130.596 349.981 130.259 350.736Z" fill="#EBE5D9"/>
<path fill-rule="evenodd" clip-rule="evenodd" d="M128.615 356.094L132.364 362.908L129.579 364.017L125.613 361.69L127.651 364.934L124.896 366.231L121.28 359.426L124.166 358.059L127.655 360.082L125.72 357.39L128.615 356.094ZM131.675 362.66L128.406 356.718L126.46 357.589L129.366 361.635L124.143 358.605L121.946 359.646L125.107 365.596L126.95 364.728L124.148 360.269L129.62 363.479L131.675 362.66Z" fill="#E0E2E4"/>
<path d="M114.066 161.928C116.498 157.617 121.964 156.093 126.275 158.525C130.586 160.957 132.11 166.423 129.678 170.734C125.22 178.637 120.554 193.307 117.458 208.728L117.309 209.477C115.958 216.33 115.023 222.84 114.619 228.203L114.597 228.495C114.399 231.236 114.347 233.599 114.438 235.474L114.455 235.788C114.494 236.455 114.551 237.035 114.623 237.515L114.662 237.761C114.718 238.086 114.769 238.292 114.792 238.357C116.484 243.008 114.084 248.151 109.433 249.842C104.781 251.534 99.6387 249.134 97.9472 244.482C95.3168 237.249 96.3705 222.697 99.8841 205.199C103.32 188.089 108.505 171.787 114.066 161.928Z" fill="#EBBAAA"/>
<path d="M173.664 158.525C177.975 156.093 183.441 157.617 185.873 161.928C191.435 171.787 196.619 188.089 200.055 205.199C203.569 222.697 204.622 237.249 201.992 244.482C200.3 249.134 195.158 251.534 190.507 249.842C185.901 248.168 183.504 243.111 185.097 238.497L185.147 238.357C185.173 238.284 185.235 238.028 185.299 237.624C185.39 237.052 185.46 236.328 185.501 235.474L185.516 235.128C185.586 233.311 185.529 231.069 185.342 228.495L185.298 227.91C184.874 222.504 183.922 215.968 182.556 209.103L182.482 208.728C179.385 193.307 174.719 178.637 170.261 170.734C167.83 166.423 169.353 160.957 173.664 158.525Z" fill="#EBBAAA"/>
<rect width="38.7553" height="87.1995" rx="19.3777" transform="matrix(-0.939693 0.34202 0.34202 0.939693 186.303 138.476)" fill="#373434"/>
<rect x="113.637" y="138.476" width="38.7553" height="87.1994" rx="19.3777" transform="rotate(20 113.637 138.476)" fill="#373434"/>
<path d="M114.162 158.238C113.861 152.184 118.081 146.841 124.04 145.73L149.97 140.898L175.9 145.73C181.858 146.841 186.078 152.184 185.777 158.238L183.881 196.366L186.192 249.064C186.252 250.442 185.151 251.593 183.772 251.593H116.167C114.788 251.593 113.687 250.442 113.747 249.064L116.059 196.366L114.162 158.238Z" fill="#373434"/>
<path d="M140.281 143.805C140.281 138.454 144.619 134.116 149.97 134.116C155.32 134.116 159.658 138.454 159.658 143.805V145.016C159.658 150.367 155.32 154.704 149.97 154.704C144.619 154.704 140.281 150.367 140.281 145.016V143.805Z" fill="#EBBAAA"/>
<rect x="140.281" y="107.472" width="19.3777" height="47.233" rx="9.68883" fill="#EBBAAA"/>
<path opacity="0.5" d="M185.818 103.839C191.169 103.839 195.507 99.5007 195.507 94.1498C195.507 88.7989 191.169 84.4609 185.818 84.4609C180.467 84.4609 176.129 88.7989 176.129 94.1498C176.129 99.5007 180.467 103.839 185.818 103.839Z" fill="#DE8E7C"/>
<path opacity="0.5" d="M113.152 103.839C107.801 103.839 103.463 99.5007 103.463 94.1498C103.463 88.7989 107.801 84.4609 113.152 84.4609C118.503 84.4609 122.841 88.7989 122.841 94.1498C122.841 99.5007 118.503 103.839 113.152 103.839Z" fill="#DE8E7C"/>
<path d="M113.636 70.412C113.636 50.3457 129.903 34.0789 149.97 34.0789C170.036 34.0789 186.303 50.3457 186.303 70.412V99.4784C186.303 119.545 170.036 135.812 149.97 135.812C129.903 135.812 113.636 119.545 113.636 99.4784V70.412Z" fill="#F4D5CC"/>
<path d="M173.571 71.7485C174.773 71.6734 175.808 72.5866 175.883 73.7882C175.957 74.968 175.078 75.9871 173.908 76.0949L173.843 76.0999L160.279 76.9477C159.077 77.0228 158.042 76.1096 157.967 74.908C157.893 73.7282 158.772 72.709 159.941 72.6013L160.007 72.5962L173.571 71.7485Z" fill="#393939"/>
<path d="M123.087 73.7882C123.161 72.6084 124.16 71.7067 125.334 71.7453L125.399 71.7485L138.963 72.5962C140.165 72.6713 141.078 73.7063 141.003 74.908C140.929 76.0877 139.93 76.9895 138.757 76.9508L138.691 76.9477L125.127 76.0999C123.925 76.0248 123.012 74.9898 123.087 73.7882Z" fill="#393939"/>
<path fill-rule="evenodd" clip-rule="evenodd" d="M157.963 79.8586H173.707C175.847 79.8586 177.583 81.5937 177.583 83.7342V90.0319C177.583 94.8479 173.679 98.7519 168.863 98.7519H162.807C157.991 98.7519 154.087 94.8479 154.087 90.0319V83.7342C154.087 81.5937 155.822 79.8586 157.963 79.8586ZM173.707 82.7659H157.963C157.427 82.7659 156.994 83.1996 156.994 83.7348V90.0325C156.994 93.2432 159.596 95.8458 162.807 95.8458H168.862C172.073 95.8458 174.676 93.2432 174.676 90.0325V83.7348C174.676 83.1996 174.242 82.7659 173.707 82.7659Z" fill="#FCEBE6"/>
<path fill-rule="evenodd" clip-rule="evenodd" d="M125.263 79.8586H141.007C143.148 79.8586 144.883 81.5937 144.883 83.7342V90.0319C144.883 94.8479 140.979 98.7519 136.163 98.7519H130.107C125.292 98.7519 121.387 94.8478 121.387 90.0319V83.7342C121.387 81.5938 123.123 79.8586 125.263 79.8586ZM141.008 82.7659H125.263C124.728 82.7659 124.294 83.1997 124.294 83.7348V90.0325C124.294 93.2431 126.897 95.8458 130.108 95.8458H136.163C139.374 95.8458 141.977 93.2432 141.977 90.0325V83.7348C141.977 83.1996 141.543 82.7659 141.008 82.7659Z" fill="#FCEBE6"/>
<rect x="143.429" y="83.7341" width="12.111" height="2.42221" fill="#F9EAE6"/>
<path d="M165.229 83.7341C166.81 83.7341 168.096 84.9957 168.135 86.5669L168.136 86.6408V89.5474C168.136 91.1527 166.835 92.4541 165.229 92.4541C163.649 92.4541 162.363 91.1925 162.324 89.6213L162.323 89.5474V86.6408C162.323 85.0355 163.624 83.7341 165.229 83.7341Z" fill="black"/>
<path d="M133.862 83.7341C135.442 83.7341 136.728 84.9957 136.767 86.5669L136.768 86.6408V89.5474C136.768 91.1527 135.467 92.4541 133.862 92.4541C132.281 92.4541 130.995 91.1925 130.956 89.6213L130.955 89.5474V86.6408C130.955 85.0355 132.256 83.7341 133.862 83.7341Z" fill="black"/>
<path d="M158.239 114.82C159.13 114.304 160.271 114.608 160.788 115.499C161.304 116.39 161 117.531 160.109 118.048L159.99 118.114C159.953 118.134 159.911 118.156 159.864 118.18C159.699 118.265 159.507 118.358 159.288 118.456C158.685 118.728 157.982 118.996 157.184 119.244C154.941 119.942 152.364 120.358 149.485 120.358C146.607 120.358 144.029 119.942 141.786 119.244C140.988 118.996 140.286 118.728 139.682 118.456C139.5 118.375 139.336 118.296 139.191 118.223L139.106 118.18C138.997 118.124 138.915 118.079 138.861 118.048C137.97 117.531 137.666 116.39 138.183 115.499C138.688 114.626 139.793 114.317 140.675 114.789L140.782 114.848C140.855 114.887 140.981 114.949 141.158 115.03L141.213 115.055C141.681 115.266 142.243 115.48 142.893 115.682C144.788 116.272 146.994 116.628 149.485 116.628C151.976 116.628 154.182 116.272 156.077 115.682C156.673 115.497 157.195 115.301 157.638 115.108L157.758 115.055C157.964 114.962 158.108 114.891 158.188 114.848L158.239 114.82Z" fill="#C99584"/>
<path d="M187.027 61.81C187.083 60.291 185.984 59.0278 184.607 59.0278C183.179 59.0278 182.061 60.3828 182.196 61.9514L184.476 98.2126C184.515 98.6568 184.852 98.9942 185.255 98.9942C185.675 98.9942 186.019 98.6295 186.038 98.1678L187.027 61.81Z" fill="#6E6C6C"/>
<path d="M116.783 61.81C116.84 60.291 115.74 59.0278 114.363 59.0278C112.935 59.0278 111.817 60.3828 111.952 61.9514L114.233 98.2126C114.271 98.6568 114.608 98.9942 115.011 98.9942C115.432 98.9942 115.775 98.6295 115.794 98.1678L116.783 61.81Z" fill="#6E6C6C"/>
<path d="M150.075 30.0762C156.554 27.1406 170.116 28.7941 174.65 37.9094C182.503 37.9094 189.987 45.7382 188.024 55.3737C191.789 58.3549 193.03 64.5232 189.694 68.6833L189.592 68.8087C186.129 72.9696 186.514 77.3187 183.361 72.9587C181.592 69.8009 179.793 67.2662 177.868 65.2329L177.815 65.7255C177.701 66.8068 177.59 67.9793 177.494 69.2576L177.171 68.8244C171.97 61.8744 170.17 61.0401 162.999 60.5005C160.62 62.4698 161.434 66.5108 166.45 68.7307C161.099 68.7307 149.818 66.5108 150.136 61.0511L150.005 61.1204C147.856 62.2279 145.479 62.2154 145.479 67.8745C141.217 63.1512 133.207 57.1276 124.569 63.6516C119.033 67.8322 117.5 71.2926 116.219 79.2559L116.18 79.4986L113.293 73.618C112.649 72.4956 111.891 70.7049 110.449 68.9323L110.347 68.8087C106.885 64.6481 108.112 58.385 111.915 55.3737C109.952 45.7382 117.436 37.9094 125.289 37.9094C129.848 28.7442 143.533 27.1228 149.97 30.1248L150.075 30.0762Z" fill="#393939"/>
<path d="M147.772 90.5854L151.198 92.8696C150.034 94.6163 149.122 97.2381 149.122 99.1455C149.122 100.984 149.786 101.757 151.818 101.779L151.907 101.78V105.897C147.416 105.897 145.004 103.184 145.004 99.1455C145.004 96.4096 146.142 93.0885 147.687 90.714L147.772 90.5854Z" fill="#EBBAAA"/>
</svg>
