<svg width="300" height="400" viewBox="0 0 300 400" fill="none" xmlns="http://www.w3.org/2000/svg">
<path d="M147.565 268.51C164.239 268.51 177.757 261.634 177.757 253.152C177.757 244.67 164.239 237.793 147.565 237.793C130.89 237.793 117.372 244.67 117.372 253.152C117.372 261.634 130.89 268.51 147.565 268.51Z" fill="#2D2D2D"/>
<path d="M169.007 288.194C172.882 288.194 176.032 291.304 176.094 295.165L176.095 295.282V355.142C176.095 359.057 172.921 362.231 169.007 362.231C165.131 362.231 161.982 359.12 161.919 355.26L161.918 355.142V295.282C161.918 291.368 165.092 288.194 169.007 288.194Z" fill="#EBBAAA"/>
<path d="M126.475 288.194C130.351 288.194 133.5 291.304 133.563 295.165L133.564 295.282V359.737C133.564 363.652 130.39 366.826 126.475 366.826C122.6 366.826 119.45 363.715 119.388 359.855L119.387 359.737V295.282C119.387 291.368 122.56 288.194 126.475 288.194Z" fill="#EBBAAA"/>
<rect x="161.775" y="340.24" width="14.9648" height="15.4899" fill="#071532"/>
<rect x="118.981" y="340.24" width="14.9648" height="15.4899" fill="#071532"/>
<path d="M153.111 240.156H111.367L114.341 334.137L118.152 343.073H136.767L141.246 332.433L153.111 240.156Z" fill="#2D2D2D"/>
<path d="M148.91 237.793H186.898C186.898 237.793 195.27 297.905 185.062 327.327C183.776 331.032 179.38 339.66 179.38 339.66L160.31 340.447L158.066 329.425L148.91 237.793Z" fill="#2D2D2D"/>
<path d="M115.727 338.607L139.227 338.607L137.724 348.585H117.435L115.727 338.607Z" fill="#707070"/>
<path d="M159.674 338.607H180.415L179.403 348.585H160.621L159.674 338.607Z" fill="#707070"/>
<path d="M119.787 251.063C118.055 250.83 114.125 249.531 113.459 249.749C114.064 254.979 110.075 261.108 108.871 265.632C106.909 273.002 114.179 272.857 112.564 277.552C111.87 279.57 123.284 278.645 123.284 277.552C123.284 276.457 123.451 272.662 123.284 269.671C123.118 266.679 125.949 251.72 124.617 251.501C123.284 251.282 121.952 251.355 119.787 251.063Z" fill="#707070"/>
<path d="M121.951 252.158C120.619 252.085 115.123 251.063 113.458 250.406C112.292 251.063 110.294 255.587 112.459 256.171C114.624 256.755 121.285 258.7 121.951 258.189C122.617 257.679 123.283 252.23 121.951 252.158Z" fill="#2D2D2D"/>
<path d="M182.025 251.063C183.757 250.83 187.687 249.531 188.353 249.749C187.748 254.979 191.737 261.108 192.941 265.632C194.902 273.002 187.632 272.857 189.248 277.552C189.942 279.57 178.527 278.645 178.527 277.552C178.527 276.457 178.361 272.662 178.527 269.671C178.694 266.679 175.863 251.72 177.195 251.501C178.527 251.282 179.86 251.355 182.025 251.063Z" fill="#707070"/>
<path d="M179.86 252.158C181.192 252.085 186.688 251.063 188.353 250.406C189.519 251.063 191.517 255.587 189.352 256.171C187.187 256.755 180.526 258.7 179.86 258.189C179.194 257.679 178.528 252.23 179.86 252.158Z" fill="#2D2D2D"/>
<path d="M94.3885 369.817C94.3414 364.417 95.0768 361.135 99.7695 358.927C104.462 356.722 108.883 352.48 117.001 348.845C117.001 348.845 118.07 348.642 119.81 349.585C121.294 350.387 123.201 352.355 126.074 352.33C129.194 352.302 131.974 351.642 133.701 350.735C134.447 348.692 136.103 348.677 136.103 348.677C136.103 348.677 138.434 353.115 138.473 357.572C138.512 362.027 138.508 369.432 138.508 369.432L94.3885 369.817Z" fill="#A9AEB4"/>
<path d="M115.262 349.068C115.64 348.9 116.083 349.07 116.251 349.448C116.437 349.867 116.571 350.325 116.662 350.824L116.693 351.003C116.8 351.653 116.824 352.231 116.824 353.19C116.824 353.716 116.298 354.073 115.814 353.891L115.774 353.875L112.887 352.602L113.487 354.773C113.641 355.334 113.127 355.843 112.575 355.697L112.535 355.685L109.566 354.728L109.566 357.392C109.566 357.945 108.99 358.302 108.499 358.07L108.46 358.051L106.509 356.994L106.509 358.922C106.509 359.321 106.198 359.647 105.805 359.67L105.761 359.671C105.362 359.671 105.036 359.359 105.013 358.966L105.012 358.922V355.737C105.012 355.185 105.588 354.827 106.079 355.059L106.117 355.079L108.068 356.135L108.068 353.7C108.068 353.207 108.535 352.853 109.004 352.975L109.047 352.987L111.674 353.834L111.024 351.479C110.86 350.884 111.444 350.363 112.01 350.579L112.048 350.595L115.301 352.03L115.3 352.011C115.281 351.711 115.251 351.447 115.203 351.17L115.189 351.094C115.118 350.705 115.017 350.359 114.882 350.057C114.714 349.679 114.884 349.236 115.262 349.068Z" fill="white"/>
<path d="M96.1641 359.34C97.6039 358.82 99.1287 358.425 102.052 357.762L100.81 361.337L100.845 365.412L92.5246 365.485C92.185 365.49 91.5782 365.035 91.8678 363.2C92.2299 360.902 94.1183 360.082 96.1641 359.34Z" fill="#EAF4FB"/>
<path d="M138.636 368.55L138.405 364.45L101.096 365.03L91.7936 364.347L91.5408 367.27C91.4254 368.605 92.4264 369.775 93.7625 369.867L101.143 370.377L137.459 369.815C138.14 369.805 138.675 369.23 138.636 368.55Z" fill="#C7CBCF"/>
<path d="M201.631 370.287C201.678 364.887 200.943 361.605 196.25 359.397C191.557 357.192 187.137 352.952 179.018 349.315C179.018 349.315 177.949 349.112 176.21 350.055C174.725 350.857 172.819 352.827 169.946 352.802C166.826 352.775 164.046 352.112 162.318 351.207C161.572 349.162 159.917 349.147 159.917 349.147C159.917 349.147 157.586 353.585 157.547 358.042C157.508 362.5 157.512 369.902 157.512 369.902L201.631 370.287Z" fill="#A9AEB4"/>
<path d="M179.768 349.919C179.936 349.541 180.379 349.37 180.757 349.538C181.121 349.7 181.292 350.117 181.154 350.486L181.137 350.526C181.003 350.828 180.903 351.172 180.831 351.558C180.783 351.821 180.751 352.068 180.729 352.34L180.718 352.502L183.971 351.068C184.536 350.818 185.136 351.32 185.005 351.912L184.995 351.952L184.346 354.306L186.972 353.458C187.441 353.306 187.922 353.641 187.95 354.126L187.951 354.17L187.951 356.607L189.902 355.549C190.388 355.286 190.976 355.622 191.006 356.164L191.007 356.208V359.393C191.007 359.806 190.672 360.141 190.259 360.141C189.86 360.141 189.534 359.83 189.511 359.437L189.51 359.393L189.51 357.465L187.559 358.523C187.073 358.787 186.485 358.451 186.455 357.908L186.454 357.865L186.454 355.198L183.485 356.158C182.931 356.336 182.4 355.844 182.523 355.286L182.533 355.246L183.132 353.074L180.246 354.348C179.764 354.56 179.225 354.223 179.196 353.706L179.195 353.663L179.195 353.409C179.2 352.511 179.236 351.955 179.359 351.286C179.45 350.792 179.583 350.336 179.768 349.919Z" fill="white"/>
<path d="M199.855 359.812C198.415 359.29 196.891 358.895 193.967 358.232L195.21 361.81L195.174 365.885L203.495 365.957C203.834 365.96 204.441 365.507 204.152 363.67C203.79 361.375 201.901 360.552 199.855 359.812Z" fill="#EAF4FB"/>
<path d="M157.383 369.02L157.614 364.92L194.923 365.5L204.226 364.817L204.479 367.742C204.594 369.075 203.593 370.245 202.257 370.337L194.877 370.847L158.561 370.285C157.88 370.275 157.345 369.7 157.383 369.02Z" fill="#C7CBCF"/>
<path d="M122.346 358.82C121.247 359.117 120.364 359.07 119.867 358.68C118.587 357.66 119.427 356.127 119.783 355.525C119.145 356.26 118.512 356.995 118.015 357.8C117.233 359.057 116.893 360.44 117.404 361.332C118.322 362.94 120.57 362.217 122.004 361.582L135.316 355.697L122.346 358.82Z" fill="#EAF4FB"/>
<path d="M172.591 359.1C173.658 359.412 174.52 359.377 175.012 358.995C176.279 357.995 175.488 356.45 175.152 355.842C175.76 356.585 176.365 357.33 176.834 358.142C177.574 359.41 177.88 360.797 177.365 361.682C176.44 363.277 174.261 362.522 172.874 361.867L160 355.795L172.591 359.1Z" fill="#EAF4FB"/>
<path d="M174.396 140.016C174.396 149.306 162.793 156.837 148.479 156.837C134.166 156.837 122.562 149.306 122.562 140.016C122.562 130.726 134.166 123.195 148.479 123.195C162.793 123.195 174.396 130.726 174.396 140.016Z" fill="#565656"/>
<path d="M103.125 144.502C103.125 143.221 104.388 142.323 105.598 142.743L147.477 157.271C148.226 157.531 148.729 158.238 148.729 159.031V245.186C148.729 246.214 147.895 247.048 146.866 247.048H104.987C103.959 247.048 103.125 246.214 103.125 245.186V144.502Z" fill="#C43C3C"/>
<path d="M103.125 146.355C103.125 144.7 105.123 143.867 106.299 145.033L118.523 157.159C118.876 157.509 119.074 157.985 119.074 158.482V245.186C119.074 246.214 118.24 247.048 117.211 247.048H104.987C103.959 247.048 103.125 246.214 103.125 245.186V146.355Z" fill="#27212D"/>
<path d="M93.0472 174.071C95.0369 169.75 100.153 167.86 104.474 169.85C108.752 171.819 110.647 176.853 108.754 181.146L108.695 181.276C106.359 186.35 105.226 195.795 105.558 206.66L105.568 206.99C105.883 216.487 107.327 225.822 108.78 229.431L108.824 229.539C110.651 233.931 108.572 238.973 104.18 240.8C99.7878 242.627 94.7459 240.548 92.9185 236.156C90.4872 230.312 88.7312 219.052 88.3504 207.56C87.9045 194.106 89.3126 182.181 93.0472 174.071Z" fill="#EBBAAA"/>
<rect x="105.369" y="134.048" width="30.2055" height="64.942" rx="15.1027" transform="rotate(25.8737 105.369 134.048)" fill="#E44343"/>
<path d="M115.073 221.073C115.396 223.98 112.962 226.631 109.637 226.994L92.8673 228.822C89.5461 229.184 86.5933 227.125 86.2703 224.221L82.2503 188.084C81.4763 181.125 87.3028 174.778 95.2608 173.91C103.211 173.044 110.278 177.974 111.052 184.925L115.073 221.073Z" fill="#E44343"/>
<path d="M193.834 144.373C193.834 143.13 192.64 142.236 191.447 142.586L141.344 157.313C140.551 157.546 140.007 158.273 140.007 159.099V245.186C140.007 246.214 140.841 247.048 141.869 247.048H191.972C193.001 247.048 193.834 246.214 193.834 245.186V144.373Z" fill="#C43C3C"/>
<path d="M194.582 146.355C194.582 144.7 192.584 143.867 191.408 145.033L179.184 157.159C178.831 157.509 178.633 157.985 178.633 158.482V245.186C178.633 246.214 179.467 247.048 180.496 247.048H192.72C193.748 247.048 194.582 246.214 194.582 245.186V146.355Z" fill="#27212D"/>
<path d="M168.867 137.757C167.692 146.971 154.454 154.316 147.982 156.837L183.035 152.649C183.035 152.649 186.079 160.909 191.956 142.76C197.834 124.611 183.035 117.165 183.035 117.165L168.867 112.977L153.229 124.611C158.932 125.154 170.042 128.543 168.867 137.757Z" fill="#E44343"/>
<path d="M147.766 164.064C139.441 152.078 167.768 146.981 168.948 137.764C170.128 128.547 158.972 125.157 153.246 124.614L168.948 112.977V120.076C168.948 120.076 179.381 122.985 179.381 133.458C179.381 137.306 172.421 141.699 168.948 145.444C162.967 151.895 158.868 156.346 158.868 156.346L147.766 164.064Z" fill="#898176"/>
<path d="M196.187 174.506C200.508 172.516 205.624 174.406 207.614 178.727C211.476 187.115 211.952 198.361 210.076 211.394L209.992 211.969C208.59 221.368 205.935 231.286 203.439 237.284C201.612 241.676 196.57 243.755 192.178 241.928C187.786 240.1 185.706 235.058 187.534 230.666C189.485 225.977 191.799 217.299 192.989 209.185L193.024 208.939C194.454 199.009 194.124 190.77 192.03 186.073L191.966 185.932C189.976 181.611 191.866 176.495 196.187 174.506Z" fill="#EBBAAA"/>
<path d="M184.826 222.606C184.523 225.936 186.979 228.893 190.309 229.208L207.105 230.795C210.431 231.109 213.37 228.668 213.672 225.34L217.425 183.933C218.147 175.96 212.269 168.883 204.299 168.13C196.337 167.378 189.301 173.222 188.579 181.186L184.826 222.606Z" fill="#E44343"/>
<path d="M130.335 137.757C131.511 146.971 144.749 154.316 151.221 156.837L116.167 152.649C116.167 152.649 113.123 160.909 107.246 142.76C101.369 124.611 116.167 117.165 116.167 117.165L130.335 112.977L145.973 124.611C140.271 125.154 129.16 128.543 130.335 137.757Z" fill="#D84747"/>
<path d="M115.413 156.478L112.595 152.102L124.328 153.509L126.419 156.48C126.871 157.122 126.375 158 125.592 157.945L116.848 157.328C116.262 157.286 115.731 156.971 115.413 156.478Z" fill="#898176"/>
<path d="M151.221 156.837C144.723 154.316 131.839 147.088 130.659 137.874C129.478 128.66 140.228 125.154 145.952 124.611L130.253 112.977V120.074C130.253 120.074 119.821 122.982 119.821 133.453C119.821 137.299 126.78 141.691 130.253 145.436C136.233 151.884 140.157 156.837 140.157 156.837H151.221Z" fill="#898176"/>
<path d="M143.476 246.55C143.267 221.664 141.385 170.877 143.476 166.809C144.514 164.789 147.226 164.1 150.531 162.119V246.55H143.476Z" fill="#E44343"/>
<path fill-rule="evenodd" clip-rule="evenodd" d="M159.8 155.384L160.813 155.173C171.14 153.043 180.766 151.482 182.701 151.992L182.759 152.009L184.208 152.461L150.997 162.465L150.997 247.015H143.014L142.992 244.611C142.954 240.956 142.895 237.388 142.753 230.312L142.405 213.341L142.351 210.649C141.8 182.108 141.894 168.869 143.062 166.596C143.575 165.597 144.415 164.883 145.863 164.078L145.987 164.01C146.086 163.961 149.072 162.436 150.202 161.773L150.292 161.72L150.428 161.638C151.019 161.279 151.65 160.862 152.356 160.37L152.684 160.14C152.943 159.957 153.214 159.763 153.512 159.547L155.831 157.859C158.178 156.158 158.679 155.858 159.646 155.448L159.8 155.384ZM150.066 246.084V162.919L149.574 163.187C148.853 163.576 148.019 164.012 147.391 164.336L146.431 164.828L146.316 164.892L146.092 165.018C145.004 165.645 144.361 166.196 143.966 166.883L143.927 166.952L143.89 167.022C142.827 169.091 142.743 183.044 143.301 211.558L143.756 233.936C143.852 238.922 143.896 241.875 143.927 244.982L143.937 246.084H150.066ZM179.357 152.95L153.412 160.765L153.93 160.393L156.454 158.557C158.561 157.033 159.1 156.699 159.918 156.345L160.076 156.277L160.989 156.088C167.994 154.644 174.898 153.432 178.977 152.99L179.357 152.95Z" fill="#E77070"/>
<rect width="30.4823" height="64.41" rx="15.2411" transform="matrix(-0.850914 0.525305 0.525305 0.850914 189.293 133.545)" fill="#E44343"/>
<path d="M157 189.936V171.736C157 171.424 157.156 171.133 157.415 170.961L165.01 165.906C165.376 165.662 165.863 165.708 166.177 166.016L170.863 170.602C171.224 170.955 171.237 171.532 170.892 171.902L168.448 174.525C168.152 174.844 168.116 175.325 168.361 175.685L171.448 180.213C171.49 180.276 171.54 180.333 171.597 180.384L176.576 184.824C177.002 185.204 176.99 185.873 176.55 186.237L171.564 190.357C171.53 190.386 171.497 190.417 171.466 190.451L166.209 196.282C165.886 196.641 165.342 196.693 164.957 196.402L157.37 190.68C157.137 190.504 157 190.229 157 189.936Z" fill="#E44343"/>
<path fill-rule="evenodd" clip-rule="evenodd" d="M157.028 170.379L164.623 165.325C165.264 164.898 166.115 164.978 166.666 165.516L171.351 170.103C171.983 170.721 172.006 171.731 171.404 172.378L168.96 175.002C168.885 175.081 168.876 175.201 168.938 175.291L172.025 179.82C172.035 179.836 172.048 179.85 172.062 179.863L177.041 184.303C177.786 184.967 177.764 186.139 176.995 186.775L172.01 190.895C172.001 190.903 171.992 190.911 171.985 190.919L166.728 196.75C166.162 197.377 165.211 197.469 164.536 196.96L156.95 191.237C156.541 190.929 156.302 190.448 156.302 189.936V171.736C156.302 171.191 156.574 170.682 157.028 170.379ZM165.689 166.515L165.666 166.496C165.588 166.436 165.48 166.432 165.397 166.488L157.802 171.542C157.737 171.585 157.698 171.658 157.698 171.736V189.936C157.698 190.01 157.733 190.078 157.791 190.122L165.377 195.845C165.474 195.917 165.61 195.904 165.691 195.815L170.948 189.983C171.001 189.924 171.058 189.87 171.12 189.819L176.105 185.698C176.215 185.607 176.218 185.44 176.111 185.345L171.133 180.906C171.033 180.817 170.945 180.717 170.87 180.607L167.783 176.078C167.355 175.448 167.419 174.606 167.937 174.049L170.382 171.426C170.468 171.333 170.464 171.189 170.374 171.101L165.689 166.515Z" fill="black"/>
<path d="M161.064 169.017V193.036H159.668V169.017H161.064Z" fill="black"/>
<path d="M159.559 173.234H161.171L161.862 179.877H158.868L159.559 173.234Z" fill="#898176"/>
<rect x="138.786" y="121.515" width="20.4864" height="27.7033" rx="8.8257" fill="#EBBAAA"/>
<path d="M112.014 105.273C106.1 105.273 101.305 99.8009 101.305 93.0509C101.305 86.3006 106.1 80.8286 112.014 80.8286C117.929 80.8286 122.723 86.3006 122.723 93.0509C122.723 99.8009 117.929 105.273 112.014 105.273Z" fill="#EBBAAA"/>
<path d="M184.648 105.273C178.734 105.273 173.94 99.8009 173.94 93.0509C173.94 86.3006 178.734 80.8286 184.648 80.8286C190.563 80.8286 195.357 86.3006 195.357 93.0509C195.357 99.8009 190.563 105.273 184.648 105.273Z" fill="#EBBAAA"/>
<path d="M108.467 84.3407C103.895 59.6 122.887 36.7754 148.047 36.7754C172.369 36.7754 191.134 58.1807 187.951 82.2935L184.696 106.949C182.311 125.01 166.913 138.509 148.695 138.509C131.186 138.509 116.17 126.014 112.987 108.796L108.467 84.3407Z" fill="#F4D5CC"/>
<path d="M108.359 67.5753C109.454 57.7928 108.925 59.0333 113.68 48.5808C118.436 38.1283 126.558 45.5114 122.357 50.0137C118.156 54.516 118.533 52.8928 117.718 63.2523C116.903 73.6118 111.22 91.5598 111.22 91.5598C111.178 92.0458 110.804 92.415 110.359 92.415C109.894 92.415 109.513 92.0158 109.493 91.5108C109.493 91.5108 107.264 77.3575 108.359 67.5753Z" fill="#272727"/>
<path d="M188.07 66.1755C186.975 56.3005 187.504 60.8832 182.748 50.3316C177.993 39.78 173.792 44.0327 177.993 48.5777C182.194 53.1227 179.875 47.4216 179.875 58.3632C179.875 69.305 185.209 90.3872 185.209 90.3872C185.251 90.878 185.624 91.2507 186.07 91.2507C186.535 91.2507 186.916 90.8477 186.935 90.338C186.935 90.338 189.164 76.0505 188.07 66.1755Z" fill="#272727"/>
<path d="M127.564 72.8422L139.052 73.1752C140.209 73.2087 141.119 74.1736 141.086 75.3302C141.053 76.4659 140.122 77.3642 138.993 77.3647L138.931 77.3638L127.443 77.0308C126.286 76.9973 125.376 76.0325 125.409 74.8758C125.442 73.7402 126.373 72.8419 127.501 72.8413L127.564 72.8422Z" fill="#393939"/>
<path d="M170.233 72.8422C171.389 72.8087 172.354 73.7192 172.388 74.8758C172.421 76.0114 171.544 76.9622 170.417 77.0281L170.354 77.0308L158.866 77.3638C157.71 77.3974 156.745 76.4869 156.711 75.3302C156.679 74.1946 157.556 73.2439 158.682 73.178L158.745 73.1752L170.233 72.8422Z" fill="#393939"/>
<path d="M146.419 84.3684L150.012 86.0278C148.606 89.0724 147.517 93.5906 147.517 97.0331C147.517 98.8926 147.824 100.353 148.394 101.279C148.904 102.108 149.625 102.52 150.797 102.541L150.893 102.542V106.499C148.297 106.499 146.273 105.381 145.024 103.354C144.011 101.709 143.559 99.5615 143.559 97.0331C143.559 93.0567 144.742 88.0828 146.336 84.5499L146.419 84.3684Z" fill="#EBBAAA"/>
<path d="M165.326 81.7061C166.845 81.7061 168.08 82.9174 168.119 84.4264L168.12 84.4997V91.2509C168.12 92.7938 166.869 94.0445 165.326 94.0445C163.808 94.0445 162.572 92.8332 162.534 91.3242L162.533 91.2509V84.4997C162.533 82.9568 163.783 81.7061 165.326 81.7061Z" fill="black"/>
<path fill-rule="evenodd" clip-rule="evenodd" d="M148.668 32.2284L148.668 32.2283C148.65 32.2283 148.633 32.2283 148.616 32.2283C148.598 32.2283 148.581 32.2283 148.564 32.2283L148.563 32.2284C137.492 32.2572 111.316 35.0831 109.056 63.163C111.999 60.4987 111.397 60.701 115.435 58.9622C118.683 57.5637 121.102 50.6351 129.784 49.1526C138.466 47.67 142.873 49.5056 148.563 49.5056C153.003 49.5056 158.198 48.1642 164.413 49.5056C170.629 50.8469 176.546 57.9245 179.425 58.9622C185.29 61.0767 182.088 60.0115 187.82 63.163C184.066 35.3159 159.739 32.2572 148.668 32.2284Z" fill="#272727"/>
<path d="M118.342 40.5707L116.338 48.6383L146.768 42.908L182.066 51.2353L181.797 44.5067L179.261 43.5964L179.1 41.0185L175.957 41.2022L175.708 37.2181L171.667 37.4543L170.578 34.4601L166.986 34.67L164.663 31.748L161.016 32.902L159.777 31.0927L155.96 31.3158L155.828 29.2065L150.796 31.6176L149.317 29.5871L147.203 31.8275L144.826 29.8495L140.692 32.2081L137.866 30.2563L135.079 32.5361L133.058 32.6542L130.93 34.6603L129.915 32.8379L126.347 37.0451L123.818 36.252L120.848 41.0123L118.342 40.5707Z" fill="#272727"/>
<path d="M131.454 81.7061C132.972 81.7061 134.208 82.9174 134.246 84.4264L134.247 84.4997V91.2509C134.247 92.7938 132.997 94.0445 131.454 94.0445C129.935 94.0445 128.7 92.8332 128.661 91.3242L128.66 91.2509V84.4997C128.66 82.9568 129.911 81.7061 131.454 81.7061Z" fill="black"/>
<mask id="mask0_0_7241" style="mask-type:luminance" maskUnits="userSpaceOnUse" x="135" y="114" width="27" height="11">
<path fill-rule="evenodd" clip-rule="evenodd" d="M135.315 114.584C135.301 114.721 135.294 114.859 135.294 114.997V117.577C135.294 121.467 141.097 124.619 148.253 124.619C155.411 124.619 161.211 121.467 161.211 117.577V114.997C161.211 114.859 161.204 114.721 161.19 114.584H135.315Z" fill="white"/>
</mask>
<g mask="url(#mask0_0_7241)">
<path fill-rule="evenodd" clip-rule="evenodd" d="M135.294 114.587V117.236C135.294 121.314 141.097 124.619 148.253 124.619C155.411 124.619 161.211 121.314 161.211 117.236V114.587H135.294Z" fill="#393939"/>
<path d="M148.355 126.932C152.278 126.932 155.458 125.873 155.458 124.565C155.458 123.258 152.278 122.198 148.355 122.198C144.433 122.198 141.253 123.258 141.253 124.565C141.253 125.873 144.433 126.932 148.355 126.932Z" fill="#FF6C6C"/>
<rect x="136.767" y="114.472" width="23.1758" height="3.23962" fill="white"/>
</g>
</svg>
