<svg width="300" height="400" viewBox="0 0 300 400" fill="none" xmlns="http://www.w3.org/2000/svg">
<path d="M167.296 267.958C171.481 267.058 175.603 269.72 176.503 273.905C178.088 281.274 178.681 293.24 178.708 310.789L178.707 313.838C178.702 316.633 178.684 319.45 178.652 322.899L178.489 338.367C178.474 340.146 178.469 341.347 178.468 342.739L178.468 343.215C178.468 347.495 174.998 350.965 170.718 350.965C166.438 350.965 162.968 347.495 162.968 343.215L162.97 341.328C162.975 339.754 162.988 338.105 163.019 335.213L163.147 323.373C163.187 319.156 163.206 315.913 163.208 312.58L163.208 310.861C163.183 294.601 162.635 283.321 161.388 277.348L161.35 277.165C160.449 272.98 163.112 268.858 167.296 267.958Z" fill="#EBBAAA"/>
<path d="M130.983 293.322C131.248 289.05 134.926 285.802 139.198 286.067C143.47 286.333 146.718 290.011 146.453 294.283C146.194 298.452 145.902 302.44 145.556 306.636L145.361 308.941L144.297 320.932L144.205 321.989C143.866 325.954 143.65 328.964 143.508 331.862L143.49 332.24C143.276 336.803 143.259 341.028 143.46 345.513C143.652 349.788 140.341 353.41 136.065 353.602C131.789 353.794 128.168 350.483 127.976 346.208C127.762 341.44 127.77 336.927 127.979 332.139L128.007 331.512C128.156 328.346 128.381 325.148 128.735 320.98L128.945 318.586C129.181 315.954 129.814 308.887 130.035 306.245C130.405 301.821 130.713 297.671 130.983 293.322Z" fill="#EBBAAA"/>
<path d="M147.721 270.339C163.667 270.339 176.594 264.45 176.594 257.185C176.594 249.92 163.667 244.031 147.721 244.031C131.775 244.031 118.849 249.92 118.849 257.185C118.849 264.45 131.775 270.339 147.721 270.339Z" fill="#9D8A7D"/>
<path d="M116.685 242.466H150.435L146.25 337.378L144.75 341.878L145.5 347.628L126.5 343.878V341.878L125 340.628L125.625 338.253L116.685 242.466Z" fill="#9D8A7D"/>
<path d="M126.543 343.265L145.543 346.14L145.207 348.365L126.207 345.49L126.543 343.265Z" fill="#847266"/>
<path d="M150.75 244.128H184.614L181.125 334.923V338.378L180.125 341.253L181.125 345.628L161.75 347.628V343.253L160 337.088L150.75 244.128Z" fill="#9D8A7D"/>
<path d="M180.265 343.4L180.735 345.855L163.735 349.105L163.265 346.65L180.265 343.4Z" fill="#847266"/>
<path d="M99.6586 366.968C99.6085 361.23 98.0064 358.473 105.879 356.718C113.751 354.96 118.568 348.13 124.663 343.843C124.663 343.843 126.555 343.093 128.395 344.093C129.965 344.945 129.764 349.875 135.352 349.825C140.941 349.778 141.593 349.095 143.419 348.133C144.209 345.96 145.96 345.943 145.96 345.943C145.96 345.943 148.425 350.66 148.467 355.395C148.508 360.133 148.504 368 148.504 368L99.6586 366.968Z" fill="#484D51"/>
<path d="M104.589 356.325C106.112 355.77 107.725 355.35 110.817 354.647L112.347 356.325C112.347 356.325 114.835 356.842 116.828 357.267C118.82 357.692 115.333 360.717 115.333 360.717C115.333 360.717 109.61 360.842 106.5 360.717C103.39 360.592 100.045 360.217 100.045 360.217C99.6577 359.842 99.3191 360.137 100.045 358.592C100.902 356.767 102.425 357.112 104.589 356.325Z" fill="#EAF4FB"/>
<path d="M121.055 356.468C122.631 355.175 126.803 351.668 127.897 350.968C134.49 353.468 139.343 363.218 139.467 363.843C139.592 364.468 128.235 365.96 127.898 364.718C127.155 361.985 123.174 358.385 121.091 356.5L121.055 356.468Z" fill="#EA503B"/>
<path d="M134.07 355.195C132.529 355.75 131.255 355.793 130.493 355.303C128.529 354.02 129.545 351.75 129.981 350.858C129.157 351.973 128.339 353.093 127.727 354.29C126.759 356.163 126.443 358.158 127.288 359.355C128.805 361.515 131.942 360.215 133.922 359.14L146.682 350.858L134.07 355.195Z" fill="#EAF4FB"/>
<path d="M111.725 354.343C113.218 353.718 120.806 347.093 121.304 346.593C121.636 347.425 122.623 349.243 123.916 349.843C125.534 350.593 128.967 344.883 129.763 345.843C130.385 346.593 131.754 347.968 131.256 348.593C130.759 349.218 122.051 355.968 121.304 356.343C120.558 356.718 118.07 357.218 117.323 357.343C116.577 357.468 113.343 357.218 112.596 356.843C111.85 356.468 110.233 354.968 111.725 354.343Z" fill="#D2D8DD"/>
<path d="M122.656 345.095C122.999 344.949 123.397 345.108 123.544 345.452C123.602 345.589 123.679 345.743 123.784 345.935L123.868 346.086C123.943 346.218 124.248 346.744 124.318 346.868C124.741 347.611 125.007 348.172 125.187 348.774C125.337 349.278 124.881 349.748 124.38 349.626L124.341 349.615L121.423 348.726L122.079 351.033C122.215 351.509 121.81 351.959 121.33 351.887L121.288 351.88L118.122 351.21L119.39 353.233C119.68 353.697 119.328 354.29 118.792 354.269L118.752 354.266L115.394 353.945L116.683 355.24C116.936 355.494 116.945 355.898 116.713 356.164L116.681 356.197C116.427 356.45 116.023 356.46 115.758 356.227L115.724 356.195L113.111 353.57C112.674 353.131 113.009 352.392 113.615 352.416L113.656 352.419L117.513 352.788L116.128 350.577C115.818 350.082 116.237 349.46 116.802 349.548L116.841 349.556L120.47 350.323L119.782 347.903C119.639 347.401 120.093 346.939 120.591 347.06L120.63 347.07L123.34 347.895L123.327 347.871C123.289 347.8 123.249 347.727 123.206 347.651L123.109 347.48C123.007 347.302 122.76 346.876 122.689 346.751C122.517 346.446 122.395 346.209 122.299 345.983C122.152 345.639 122.312 345.242 122.656 345.095Z" fill="white"/>
<path d="M113.467 353.968C113.84 353.468 114.089 353.218 114.462 353.093L116.204 354.593L115.084 355.593C114.503 355.05 113.716 354.468 113.467 353.968Z" fill="#EA503B"/>
<path d="M146.407 346.593C145.556 348.723 143.154 349.74 141.988 350.045C140.823 350.35 140.766 349.735 142.841 352.463C144.364 354.465 146.079 353.093 148.424 354.845C147.862 350.053 146.899 348.585 146.407 346.593Z" fill="#EA503B"/>
<path d="M148.759 367.193L148.504 362.638L109.042 363.253L99.2022 362.528L98.9016 366.023C98.798 367.228 99.702 368.285 100.909 368.368L109.091 368.938L147.695 368.338C148.31 368.328 148.794 367.808 148.759 367.193Z" fill="#DBE0E3"/>
<path d="M148.239 362.345C148.652 362.312 149.013 362.62 149.046 363.033C149.078 363.446 148.77 363.807 148.357 363.84L148.025 363.865C146.832 363.947 145.005 364.018 142.193 364.096L130.255 364.402C129.058 364.433 127.974 364.463 127.135 364.488L126.639 364.502C117.616 364.774 105.177 364.421 99.3357 363.839C98.9235 363.798 98.6227 363.43 98.6638 363.018C98.7049 362.606 99.0723 362.305 99.4845 362.346L99.8387 362.381C105.631 362.924 117.323 363.254 126.052 363.018L129.056 362.933L141.646 362.611L143.679 362.552C145.86 362.484 147.3 362.419 148.239 362.345Z" fill="#F7FBFF"/>
<path d="M208.437 366.718C208.487 360.98 210.09 358.223 202.217 356.468C194.345 354.71 189.528 347.88 183.433 343.593C183.433 343.593 181.541 342.843 179.701 343.843C178.131 344.695 178.332 349.625 172.744 349.575C167.155 349.528 166.503 348.845 164.677 347.883C163.887 345.71 162.136 345.693 162.136 345.693C162.136 345.693 159.671 350.41 159.629 355.145C159.588 359.883 159.592 367.75 159.592 367.75L208.437 366.718Z" fill="#484D51"/>
<path d="M203.507 356.075C201.984 355.52 200.371 355.1 197.279 354.397L195.749 356.075C195.749 356.075 193.261 356.592 191.268 357.017C189.276 357.442 192.763 360.467 192.763 360.467C192.763 360.467 198.486 360.592 201.596 360.467C204.706 360.342 208.051 359.967 208.051 359.967C208.438 359.592 208.777 359.887 208.051 358.342C207.194 356.517 205.671 356.862 203.507 356.075Z" fill="#EAF4FB"/>
<path d="M187.041 356.218C185.465 354.925 181.293 351.418 180.199 350.718C173.606 353.218 168.753 362.968 168.629 363.593C168.504 364.218 179.861 365.71 180.198 364.468C180.941 361.735 184.922 358.135 187.005 356.25L187.041 356.218Z" fill="#EA503B"/>
<path d="M174.026 354.945C175.567 355.5 176.841 355.543 177.603 355.053C179.567 353.77 178.551 351.5 178.115 350.608C178.939 351.723 179.757 352.843 180.369 354.04C181.337 355.913 181.653 357.908 180.808 359.105C179.291 361.265 176.154 359.965 174.174 358.89L161.414 350.608L174.026 354.945Z" fill="#EAF4FB"/>
<path d="M196.371 354.093C194.878 353.468 187.29 346.843 186.792 346.343C186.46 347.175 185.473 348.993 184.179 349.593C182.562 350.343 179.129 344.633 178.333 345.593C177.711 346.343 176.342 347.718 176.84 348.343C177.337 348.968 186.045 355.718 186.792 356.093C187.538 356.468 190.026 356.968 190.772 357.093C191.519 357.218 194.753 356.968 195.5 356.593C196.246 356.218 197.863 354.718 196.371 354.093Z" fill="#D2D8DD"/>
<path d="M184.552 345.202C184.699 344.858 185.097 344.699 185.44 344.845C185.784 344.992 185.944 345.389 185.797 345.733C185.701 345.959 185.579 346.196 185.407 346.501L184.954 347.287C184.91 347.364 184.868 347.44 184.828 347.513L184.755 347.645L187.466 346.82C187.965 346.668 188.436 347.114 188.324 347.613L188.314 347.653L187.625 350.073L191.255 349.306C191.826 349.185 192.266 349.793 191.988 350.293L191.968 350.327L190.582 352.538L194.44 352.169C195.057 352.11 195.416 352.838 195.012 353.29L194.984 353.32L192.372 355.945C192.108 356.21 191.68 356.211 191.415 355.947C191.161 355.695 191.15 355.291 191.381 355.024L191.413 354.99L192.701 353.695L189.344 354.016C188.799 354.068 188.427 353.488 188.686 353.018L188.706 352.983L189.974 350.96L186.808 351.63C186.323 351.732 185.901 351.298 186.006 350.823L186.017 350.783L186.672 348.476L183.755 349.365C183.251 349.518 182.779 349.065 182.899 348.563L182.909 348.524C183.068 347.993 183.294 347.493 183.635 346.873L183.812 346.559C183.917 346.376 184.162 345.953 184.228 345.836L184.312 345.685C184.417 345.493 184.494 345.339 184.552 345.202Z" fill="white"/>
<path d="M194.629 353.718C194.256 353.218 194.007 352.968 193.634 352.843L191.892 354.343L193.012 355.343C193.593 354.8 194.38 354.218 194.629 353.718Z" fill="#EA503B"/>
<path d="M161.689 346.343C162.54 348.473 164.942 349.49 166.108 349.795C167.273 350.1 167.33 349.485 165.255 352.213C163.732 354.215 162.017 352.843 159.672 354.595C160.234 349.803 161.197 348.335 161.689 346.343Z" fill="#EA503B"/>
<path d="M159.337 366.943L159.592 362.388L199.054 363.003L208.894 362.278L209.194 365.773C209.298 366.978 208.394 368.035 207.187 368.118L199.005 368.688L160.401 368.088C159.786 368.078 159.302 367.558 159.337 366.943Z" fill="#DBE0E3"/>
<path d="M208.611 362.096C209.024 362.055 209.391 362.356 209.432 362.768C209.473 363.18 209.172 363.548 208.76 363.589L208.402 363.624C202.484 364.179 190.546 364.512 181.729 364.26L178.881 364.18C173.89 364.045 165.792 363.848 166.256 363.86L164.198 363.802C161.939 363.733 160.458 363.667 159.489 363.59C159.076 363.557 158.767 363.196 158.8 362.783C158.833 362.37 159.194 362.062 159.607 362.095L159.926 362.118C161.004 362.193 162.657 362.258 165.151 362.329L166.535 362.366C168.171 362.405 177.171 362.627 180.998 362.738L181.502 362.753C190.462 363.023 202.838 362.672 208.611 362.096Z" fill="#F7FBFF"/>
<path d="M103.942 182.325C106.338 177.813 111.938 176.097 116.45 178.493C120.962 180.89 122.677 186.49 120.281 191.001C117.142 196.913 114.697 206.487 113.761 216.519L113.733 216.823C112.847 226.655 113.563 235.506 115.461 240.135L115.519 240.274C117.509 244.979 115.309 250.406 110.604 252.397C105.899 254.387 100.471 252.187 98.4807 247.482C91.8481 231.804 94.7474 199.639 103.942 182.325Z" fill="#EBBAAA"/>
<path d="M186.092 166.768C190.985 165.3 196.142 168.077 197.61 172.97C205.691 199.905 207.385 237.147 201.902 251.649C200.096 256.428 194.757 258.837 189.979 257.03C185.248 255.242 182.84 249.992 184.545 245.25L184.598 245.107C186.122 241.075 186.95 230.754 186.399 218.646C185.771 204.833 183.52 190.385 179.89 178.286C178.422 173.393 181.199 168.236 186.092 166.768Z" fill="#EBBAAA"/>
<path d="M110 165.292C110 159.641 122.875 153.874 131.875 151.131L143.625 147.382C145.261 147.332 156.504 147.782 158.125 147.997L176.375 153.874C185.023 155.024 181.621 164.023 180.75 172.378L179.25 202.878L176.375 246.503C176.393 246.939 168.329 253.92 167.875 253.898L133.5 251.801L114.875 250.996C114.439 250.974 114.214 249.748 114.25 249.33L116.752 199.287L110 165.292Z" fill="#EBBAAA"/>
<path d="M195.06 158.909C192.76 156.697 185.185 154.46 181.685 153.619C176 215.128 160.25 219.378 206.75 210.878C206.75 203.407 197.935 161.674 195.06 158.909Z" fill="#DDD2C4"/>
<path d="M206.407 220.472C207.424 220.01 208.151 212.736 208.326 209.917L177.381 213.077C177.63 215.538 178.279 220.842 178.882 222.375C179.636 224.291 185.654 224.597 191.946 223.964C198.237 223.33 205.136 221.049 206.407 220.472Z" fill="#D3C9BC"/>
<path d="M208.875 220.077C210.125 217.878 208.875 216.003 207 216.003H179.25C179.499 218.463 180.147 222.345 180.75 223.878C181.504 225.794 187.083 224.511 193.375 223.878C199.666 223.244 208.185 221.29 208.875 220.077Z" fill="#DDD2C4"/>
<path d="M108.914 159.506C111.067 157.296 118.158 155.061 121.435 154.22C119.368 182.571 122.999 212.995 122.25 215.878C121.314 219.482 108.247 216.319 106.375 214.878C104.503 213.436 93.7817 219.076 94.2498 211.628C94.7178 204.18 106.223 162.269 108.914 159.506Z" fill="#DDD2C4"/>
<path d="M94.8737 221.577C93.8635 221.157 92.9253 213.967 92.6663 211.177L123.07 213.145C122.902 215.596 122.432 220.883 121.889 222.427C121.211 224.357 115.326 224.888 109.145 224.496C102.964 224.104 96.1364 222.101 94.8737 221.577Z" fill="#D3C9BC"/>
<path d="M93.0354 218.451C91.954 218.491 91.7493 222.475 90.8043 223.89L120.7 228.292C121.148 226.978 122.01 224.123 121.869 223.217C121.693 222.085 116.133 220.755 110.058 219.856C103.981 218.956 94.3873 218.402 93.0354 218.451Z" fill="#DDD2C4"/>
<path d="M147.685 168.647C146.435 165.161 147.06 160.352 147.06 160.352L141.435 162.155L134.685 149.531C126.893 150.854 126.56 151.335 120.935 153.739C114.225 156.608 115.56 166.243 114.56 179.347V219.628L113.185 251.122L131.685 253.888L151.75 256.378L149.56 172.615C149.56 172.615 148.935 172.134 147.685 168.647Z" fill="#DED4C9"/>
<path d="M152.435 168.527C149.185 166.002 149.726 163.998 150.31 162.035L151.435 161.313L159.685 160.352L167.435 150.253C167.435 150.253 178.56 151.695 182.31 153.619C186.06 155.542 184.5 205.128 184.5 205.128L186.75 253.128L173.25 254.628L148.435 258.66C148.368 253.6 143.878 242.713 143.965 235.967C144.308 209.164 145.845 177.901 148.435 176.582C152.685 174.418 153.185 169.11 152.435 168.527Z" fill="#E4DBD0"/>
<path d="M160.685 153.619C161.545 150.884 160.685 148.93 160.435 147.728L167.435 150.253C167.435 150.253 169.81 153.138 168.31 159.751C166.667 166.995 159.399 169.85 157.685 171.773C156.935 172.615 157.185 162.396 151.435 161.313C154.06 160.712 159.06 158.789 160.685 153.619Z" fill="#DDD2C4"/>
<path d="M140.698 155.062C138.935 152.657 139.849 149.285 140.698 147.488L134.56 149.532C134.56 149.532 131.03 155.376 132.938 161.025C135.31 168.046 143.758 170.583 143.685 169.73C142.935 161.025 145.932 161.35 147.185 160.232C145.06 159.751 143.041 158.257 140.698 155.062Z" fill="#E4DBD0"/>
<path d="M159.935 168.407C160.625 168.407 161.185 167.868 161.185 167.204C161.185 166.54 160.625 166.002 159.935 166.002C159.245 166.002 158.685 166.54 158.685 167.204C158.685 167.868 159.245 168.407 159.935 168.407Z" fill="#E5EBF9"/>
<path d="M150.125 181.107C151.161 181.107 152 180.3 152 179.304C152 178.308 151.161 177.5 150.125 177.5C149.089 177.5 148.25 178.308 148.25 179.304C148.25 180.3 149.089 181.107 150.125 181.107Z" fill="#EDF2FF"/>
<path d="M149.31 196.54C150.346 196.54 151.185 195.679 151.185 194.616C151.185 193.554 150.346 192.693 149.31 192.693C148.274 192.693 147.435 193.554 147.435 194.616C147.435 195.679 148.274 196.54 149.31 196.54Z" fill="#EDF2FF"/>
<path d="M148.31 213.612C149.346 213.612 150.185 212.805 150.185 211.809C150.185 210.813 149.346 210.005 148.31 210.005C147.274 210.005 146.435 210.813 146.435 211.809C146.435 212.805 147.274 213.612 148.31 213.612Z" fill="#EDF2FF"/>
<path d="M148.31 230.684C149.346 230.684 150.185 229.877 150.185 228.881C150.185 227.885 149.346 227.077 148.31 227.077C147.274 227.077 146.435 227.885 146.435 228.881C146.435 229.877 147.274 230.684 148.31 230.684Z" fill="#EDF2FF"/>
<path d="M148.31 245.833C149.346 245.833 150.185 245.025 150.185 244.029C150.185 243.033 149.346 242.226 148.31 242.226C147.274 242.226 146.435 243.033 146.435 244.029C146.435 245.025 147.274 245.833 148.31 245.833Z" fill="#EDF2FF"/>
<rect x="97.3685" y="245.374" width="22.1961" height="51.731" rx="11.0981" transform="rotate(3 97.3685 245.374)" fill="#A7A7A7"/>
<rect x="102.793" y="244.25" width="22.1961" height="53.383" rx="11.0981" transform="rotate(3 102.793 244.25)" fill="#C4C4C4"/>
<path d="M114.256 248.006C114.32 247.233 114.999 246.658 115.773 246.722C116.527 246.785 117.093 247.433 117.06 248.183L117.056 248.239L112.996 297.109C112.932 297.882 112.253 298.457 111.48 298.393C110.725 298.33 110.159 297.682 110.192 296.931L110.196 296.876L114.256 248.006Z" fill="#9B9B9B"/>
<path d="M94.942 256.753C95.6163 251.359 99.531 246.685 103.652 244.812C107.304 244.812 120.369 244.784 114.75 246.358C109.131 247.931 105.335 263.262 105.148 270.661L94.38 266.306C94.099 265.369 94.2677 262.148 94.942 256.753Z" fill="#ADADAD"/>
<path d="M123.664 152.579C125.345 161.542 124.888 196.115 122.397 240.203L122.242 242.914L112.258 242.336L112.41 239.685C114.822 196.999 115.294 162.953 113.88 154.67L113.836 154.422L123.664 152.579Z" fill="#999999"/>
<path fill-rule="evenodd" clip-rule="evenodd" d="M113.714 221.941L122.211 222.164C124.42 222.222 126.163 224.059 126.105 226.267L125.961 231.765C125.904 233.974 124.066 235.717 121.858 235.659L113.361 235.437C111.153 235.379 109.409 233.542 109.467 231.333L109.611 225.835C109.669 223.627 111.506 221.884 113.714 221.941ZM120.989 230.635L121.081 227.136L114.583 226.966L114.491 230.464L120.989 230.635Z" fill="#3E3E3E"/>
<rect x="113.459" y="244.25" width="7.90565" height="8" rx="0.5" transform="rotate(1.5 113.459 244.25)" fill="#725037"/>
<rect x="112.459" y="238" width="10.5" height="8" rx="0.5" transform="rotate(1.5 112.459 238)" fill="#8D5E3B"/>
<mask id="mask0_0_7563" style="mask-type:luminance" maskUnits="userSpaceOnUse" x="111" y="224" width="13" height="10">
<rect x="112.149" y="224.401" width="11.5" height="8.5" rx="1.5" transform="rotate(1.5 112.149 224.401)" fill="white"/>
</mask>
<g mask="url(#mask0_0_7563)">
</g>
<path d="M183.256 115.928C191.439 115.928 198.073 109.548 198.073 101.677C198.073 93.8068 191.439 87.4265 183.256 87.4265C175.073 87.4265 168.44 93.8068 168.44 101.677C168.44 109.548 175.073 115.928 183.256 115.928Z" fill="#EBBAAA"/>
<path d="M120.468 115.928C112.285 115.928 105.651 109.548 105.651 101.677C105.651 93.8068 112.285 87.4265 120.468 87.4265C128.651 87.4265 135.284 93.8068 135.284 101.677C135.284 109.548 128.651 115.928 120.468 115.928Z" fill="#EBBAAA"/>
<path d="M112.435 81.1973C112.435 60.174 129.478 43.1311 150.501 43.1311C171.764 43.1311 188.905 60.5498 188.562 81.81L187.994 117.135C187.684 136.378 171.996 151.816 152.75 151.816C131.931 151.816 114.715 135.599 113.472 114.817L112.435 97.4733V81.1973Z" fill="#F4D4C9"/>
<path d="M159.271 124.596C160.255 124.194 161.379 124.665 161.782 125.649C162.184 126.633 161.713 127.757 160.729 128.159C154.493 130.711 148.712 130.781 143.815 128.06C142.886 127.544 142.551 126.372 143.067 125.443C143.584 124.514 144.756 124.179 145.685 124.695C149.46 126.792 154.039 126.737 159.271 124.596Z" fill="#C99584"/>
<path d="M111.003 78.1244C110.936 76.7614 112.241 75.6279 113.875 75.6279C115.57 75.6279 115.66 89.7204 115.5 91.1279L114.03 102.097C113.985 102.496 113.584 102.799 113.106 102.799C112.607 102.799 112.199 102.472 112.177 102.057L111.003 93.0029V78.1244Z" fill="#575757"/>
<path d="M191.41 75.9515C191.548 74.599 190.323 73.4077 188.714 73.328C187.045 73.2452 185.674 74.39 185.757 75.798L187.151 99.6497C187.174 100.048 187.552 100.369 188.023 100.393C188.514 100.417 188.934 100.111 188.977 99.7002L191.41 75.9515Z" fill="#575757"/>
<path d="M166.56 97.5991C168.191 97.5991 169.519 98.9013 169.559 100.523L169.56 100.599V103.552C169.56 105.209 168.217 106.552 166.56 106.552C164.929 106.552 163.601 105.25 163.561 103.629L163.56 103.552V100.599C163.56 98.9423 164.903 97.5991 166.56 97.5991Z" fill="black"/>
<path d="M135.31 96.8491C136.941 96.8491 138.269 98.1513 138.309 99.7729L138.31 99.8491V102.802C138.31 104.459 136.967 105.802 135.31 105.802C133.679 105.802 132.351 104.5 132.311 102.879L132.31 102.802V99.8491C132.31 98.1923 133.653 96.8491 135.31 96.8491Z" fill="black"/>
<path d="M173.641 83.8016C175.019 83.7152 176.206 84.7623 176.292 86.1403C176.377 87.4949 175.367 88.6651 174.024 88.7865L173.954 88.7918L159.657 89.6883C158.279 89.7747 157.091 88.7277 157.005 87.3497C156.92 85.995 157.93 84.8248 159.274 84.7035L159.344 84.6981L173.641 83.8016Z" fill="#393939"/>
<path d="M127.849 84.5547L142.16 85.1235C143.54 85.1783 144.614 86.3412 144.559 87.7208C144.505 89.077 143.381 90.1379 142.032 90.1214L141.962 90.1195L127.651 89.5508C126.271 89.496 125.197 88.3331 125.252 86.9535C125.306 85.5973 126.431 84.5364 127.779 84.5529L127.849 84.5547Z" fill="#393939"/>
<path d="M149.139 102.704L152.967 104.551C151.283 108.043 150.323 111.4 150.377 113.719C150.424 115.724 151.052 116.48 152.785 116.502L152.865 116.503V120.753C148.588 120.753 146.226 118.017 146.128 113.818C146.057 110.762 147.152 106.878 149.044 102.903L149.139 102.704Z" fill="#EBBAAA"/>
<path d="M113.425 59.3615C116.325 53.3983 123.717 50.7854 126.8 49.7434L137.175 54.1918C130.925 51.512 125.775 56.428 121.675 63.4493C117.575 70.4705 115.792 84.8363 115.5 91.128C115.5 91.128 114.3 92.604 113.55 92.544C112.8 92.4838 112.037 101.287 111 92.9895C109.963 84.6918 110.525 65.3248 113.425 59.3615Z" fill="#575757"/>
<path d="M192.494 69.877C188.637 45.1649 172.963 42.836 165.25 40.3777C165.25 40.3777 172.653 60.8428 179.868 66.089C187.083 71.3353 187.083 93.1278 187.083 93.1278L187.099 93.1055C192.497 85.4545 194.485 82.6378 192.494 69.877Z" fill="#575757"/>
<path d="M150 67.1808C158.2 67.1808 168.625 61.2095 170.875 57.6828L154.125 49.6277L128 51.0704L124.5 73.192C131.75 65.3773 141.8 67.1808 150 67.1808Z" fill="#181818"/>
<path d="M143.75 32.3792C170 27.8107 181.75 38.2528 185 43.2527C188.251 48.2527 191 57.8777 185 61.1277C180.711 63.4512 163.75 60.454 152.25 62.3777C140.75 64.3012 139.75 65.3777 129.125 67.961C121.485 69.8185 118.5 69.0027 114.25 67.961C114.25 58.9675 114.4 54.5906 116 49.8777C118 43.9866 129.759 34.8141 143.75 32.3792Z" fill="#181818"/>
<path d="M155.216 105.313L154.75 98.514C154.75 98.514 157.298 93.8848 167.536 92.6768C177.774 91.4685 182.454 96.849 182.454 96.849L181.497 105.864C180.974 110.793 176.749 114.491 171.795 114.358L164.439 114.16C159.544 114.028 155.551 110.198 155.216 105.313Z" fill="white" fill-opacity="0.22"/>
<path d="M146.241 104.76L146.75 98.5455C146.75 98.5455 143.686 93.7615 133.629 92.6563C123.572 91.551 119.25 96.6705 119.25 96.6705L120.248 105.321C120.816 110.241 125.068 113.899 130.017 113.727L137.104 113.479C141.92 113.311 145.848 109.563 146.241 104.76Z" fill="white" fill-opacity="0.22"/>
<path fill-rule="evenodd" clip-rule="evenodd" d="M158.006 95.0192C160.398 93.6443 163.523 92.6468 167.477 92.1802C172.444 91.5941 176.536 92.4482 179.779 94.2367C180.671 94.7287 181.429 95.2572 182.057 95.7875C182.44 96.1104 182.697 96.3662 182.831 96.5209L182.974 96.6852L181.994 105.917C181.443 111.105 176.996 114.998 171.781 114.858L164.425 114.66C159.273 114.521 155.07 110.489 154.718 105.347L154.241 98.4016L154.312 98.2729C154.437 98.0452 154.703 97.6758 155.141 97.2136C155.854 96.461 156.799 95.7132 158.006 95.0192ZM181.412 96.5511C180.833 96.0621 180.128 95.5712 179.296 95.1119C176.232 93.4223 172.349 92.6119 167.595 93.1729C163.771 93.6241 160.776 94.5801 158.504 95.8857C157.382 96.531 156.513 97.2182 155.867 97.9007C155.645 98.1355 155.467 98.3514 155.329 98.5428L155.304 98.5777L155.26 98.6413L155.715 105.279C156.029 109.86 159.74 113.462 164.313 113.655L164.452 113.66L171.808 113.858C176.502 113.984 180.504 110.48 181 105.811L181.932 97.0258L181.861 96.9554C181.755 96.8526 181.633 96.7412 181.496 96.6229L181.412 96.5511Z" fill="black"/>
<path d="M167.063 92.1066C170.369 91.6789 173.475 91.9183 176.343 92.6827C178.472 93.2501 180.304 94.0578 181.811 94.9651C182.83 95.5794 183.392 96.706 183.353 97.9082L183.349 97.9922L183.086 102.716L180.84 102.591L181.103 97.8674C181.126 97.4371 180.951 97.0738 180.65 96.8925C179.316 96.0895 177.677 95.3668 175.764 94.8568C173.171 94.1657 170.359 93.949 167.352 94.338C161.977 95.0331 158.261 96.7035 155.941 98.6658C155.754 98.8233 155.654 99.0897 155.675 99.4158L155.68 99.4776L156.339 105.503L154.102 105.748L153.444 99.722C153.328 98.6587 153.687 97.6251 154.488 96.9477C157.135 94.7094 161.254 92.858 167.063 92.1066Z" fill="black"/>
<path fill-rule="evenodd" clip-rule="evenodd" d="M119.572 96.2191C120.167 95.7088 120.892 95.2004 121.75 94.7274C124.836 93.0251 128.789 92.2045 133.654 92.7392C137.619 93.1748 140.816 94.1978 143.322 95.634C144.528 96.3248 145.496 97.068 146.249 97.8149C146.71 98.2715 147 98.6346 147.141 98.8558L147.232 98.998L146.71 105.381C146.296 110.437 142.162 114.382 137.092 114.559L130.005 114.806C124.795 114.988 120.32 111.137 119.722 105.959L118.699 97.0931L118.864 96.8986C118.979 96.7668 119.17 96.5723 119.441 96.3328L119.572 96.2191ZM142.825 96.5016C140.439 95.1346 137.375 94.1539 133.545 93.7331C128.888 93.2212 125.141 93.999 122.233 95.6029C121.436 96.0421 120.768 96.5113 120.222 96.9784C120.034 97.14 119.875 97.2891 119.744 97.4219L120.716 105.844C121.248 110.458 125.201 113.901 129.83 113.81L129.97 113.807L137.057 113.559C141.62 113.4 145.341 109.849 145.713 105.299L146.207 99.2669L146.189 99.2435L146.135 99.1745C145.98 98.9804 145.784 98.7619 145.545 98.5249C144.853 97.8385 143.954 97.1485 142.825 96.5016Z" fill="black"/>
<path d="M125.112 93.0236C127.917 92.2552 130.957 91.9983 134.199 92.3911C139.887 93.0804 143.939 94.8558 146.564 97.027C147.357 97.6828 147.727 98.6854 147.641 99.7258L147.632 99.8177L146.964 105.996L144.727 105.754L145.395 99.5755C145.434 99.2188 145.331 98.9267 145.13 98.7606C142.833 96.8607 139.183 95.2616 133.929 94.6248C130.985 94.2681 128.238 94.5003 125.706 95.1937C123.836 95.7062 122.234 96.4254 120.929 97.2224C120.645 97.3963 120.475 97.734 120.483 98.1373L120.486 98.1982L120.779 102.808L118.534 102.951L118.24 98.3411C118.162 97.1072 118.716 95.9379 119.756 95.3025C121.233 94.4003 123.026 93.595 125.112 93.0236Z" fill="black"/>
<path d="M145.469 99.4609C148.719 97.9134 151.852 97.7617 154.903 99.421L155.023 99.4874L154.168 101.014C151.662 99.6111 149.116 99.6966 146.349 100.981L146.221 101.041L145.469 99.4609Z" fill="black"/>
</svg>
