<svg width="300" height="400" viewBox="0 0 300 400" fill="none" xmlns="http://www.w3.org/2000/svg">
<path d="M103.25 358C106.75 354.75 119.833 350 126 347.5L142.5 339L145.75 354.25V360.75C145.75 363.65 143.4 366 140.5 366H103.25C101.583 363.167 100.304 360.735 103.25 358Z" fill="#C4C4C4"/>
<path d="M103.25 358C106.75 354.75 119.833 350 126 347.5L142.5 339L145.75 354.25V360.75C145.75 363.65 143.4 366 140.5 366H103.25C101.583 363.167 100.304 360.735 103.25 358Z" fill="#F8CCBE"/>
<path d="M97.5 368.75C97.5 365.987 99.7386 363.75 102.5 363.75H146.75L147.75 368.75H97.5Z" fill="#2E2622"/>
<path d="M108.206 354.795C109.197 355.381 109.538 356.646 108.988 357.647L108.774 358.018C108.725 358.102 108.674 358.192 108.621 358.286C108.367 358.737 108.112 359.203 107.877 359.658C107.786 359.833 107.7 360.002 107.619 360.166L107.522 360.366C107.286 360.855 107.11 361.263 107.016 361.547C106.872 361.978 106.872 362.512 106.973 363.014L106.994 363.114C107.007 363.169 107.015 363.2 107.016 363.203C107.387 364.316 106.785 365.52 105.672 365.891C104.559 366.262 103.355 365.66 102.984 364.547C102.93 364.384 102.865 364.147 102.805 363.847C102.572 362.682 102.572 361.438 102.984 360.203C103.165 359.66 103.445 359.021 103.809 358.283C103.903 358.094 104.001 357.9 104.103 357.703C104.364 357.199 104.642 356.689 104.92 356.197L105.033 355.998L105.296 355.544C105.893 354.533 107.196 354.198 108.206 354.795Z" fill="#2E2622"/>
<path d="M116 354.875C120.782 354.875 124.715 356.568 127.788 359.37C128.859 360.347 129.749 361.392 130.472 362.443C130.729 362.817 130.949 363.168 131.132 363.489L131.206 363.62C131.264 363.724 131.311 363.813 131.348 363.886L131.388 363.966L127.112 366.034L127.076 365.965C127.059 365.935 127.036 365.895 127.008 365.845C126.889 365.637 126.739 365.397 126.559 365.135C126.032 364.37 125.376 363.599 124.587 362.88C122.348 360.838 119.53 359.625 116 359.625C112.565 359.625 110.257 360.752 108.709 362.634C108.17 363.289 107.762 363.995 107.472 364.697L107.417 364.834C107.304 365.118 107.238 365.331 107.21 365.443L107.199 365.487L102.551 364.513L102.57 364.423C102.597 364.309 102.635 364.164 102.687 363.99C102.788 363.649 102.919 363.277 103.083 362.881C103.544 361.766 104.185 360.657 105.041 359.616C107.477 356.654 111.122 354.875 116 354.875Z" fill="#2E2622"/>
<path d="M112.633 356.051C114.676 355.71 116.608 357.09 116.949 359.133C117.285 361.15 115.944 363.059 113.945 363.435L113.866 363.449L109.366 364.199C107.324 364.539 105.391 363.159 105.051 361.116C104.715 359.1 106.055 357.191 108.055 356.815L108.133 356.801L112.633 356.051Z" fill="#DCB1A3"/>
<path d="M198 358C194.5 354.75 181.417 350 175.25 347.5L158.75 339L155.5 354.25V360.75C155.5 363.65 157.851 366 160.75 366H198C199.667 363.167 200.946 360.735 198 358Z" fill="#C4C4C4"/>
<path d="M198 358C194.5 354.75 181.417 350 175.25 347.5L158.75 339L155.5 354.25V360.75C155.5 363.65 157.851 366 160.75 366H198C199.667 363.167 200.946 360.735 198 358Z" fill="#F8CCBE"/>
<path d="M203.75 368.75C203.75 365.987 201.512 363.75 198.75 363.75H154.5L153.5 368.75H203.75Z" fill="#2E2622"/>
<path d="M193.044 354.795C194.035 354.21 195.307 354.521 195.919 355.486L195.99 355.604L196.217 355.998C196.254 356.062 196.291 356.128 196.33 356.197C196.608 356.689 196.886 357.199 197.147 357.703C197.249 357.9 197.347 358.094 197.441 358.283C197.805 359.021 198.085 359.66 198.266 360.203C198.678 361.438 198.678 362.682 198.445 363.847C198.385 364.147 198.32 364.384 198.266 364.547C197.895 365.66 196.691 366.262 195.578 365.891C194.485 365.527 193.885 364.361 194.214 363.265L194.237 363.191C194.244 363.166 194.259 363.105 194.277 363.014C194.378 362.512 194.378 361.978 194.234 361.547C194.127 361.225 193.916 360.744 193.631 360.166C193.55 360.002 193.464 359.833 193.373 359.658C193.138 359.203 192.883 358.737 192.629 358.286L192.429 357.936L192.295 357.706C191.698 356.696 192.034 355.392 193.044 354.795Z" fill="#2E2622"/>
<path d="M185.25 354.875C190.128 354.875 193.773 356.654 196.209 359.616C197.065 360.657 197.706 361.766 198.167 362.881C198.331 363.277 198.462 363.649 198.563 363.99L198.604 364.132C198.636 364.244 198.661 364.342 198.679 364.423L198.699 364.513L194.05 365.487L194.04 365.443C194.007 365.314 193.924 365.051 193.778 364.697C193.487 363.995 193.08 363.289 192.541 362.634C190.993 360.752 188.684 359.625 185.25 359.625C181.72 359.625 178.902 360.838 176.663 362.88C175.874 363.599 175.218 364.37 174.691 365.135C174.533 365.365 174.399 365.576 174.288 365.766L174.174 365.965L174.138 366.034L169.862 363.966L169.902 363.886C169.954 363.783 170.025 363.65 170.118 363.489C170.301 363.168 170.521 362.817 170.778 362.443C171.501 361.392 172.391 360.347 173.462 359.37C176.535 356.568 180.468 354.875 185.25 354.875Z" fill="#2E2622"/>
<path d="M184.301 359.133C184.637 357.117 186.524 355.746 188.538 356.039L188.616 356.051L193.116 356.801C195.159 357.141 196.539 359.073 196.199 361.116C195.863 363.133 193.976 364.504 191.962 364.211L191.883 364.199L187.383 363.449C185.341 363.108 183.961 361.176 184.301 359.133Z" fill="#DCB1A3"/>
<path d="M150.611 262.094C162.835 262.094 172.745 257.4 172.745 251.609C172.745 245.819 162.835 241.125 150.611 241.125C138.387 241.125 128.477 245.819 128.477 251.609C128.477 257.4 138.387 262.094 150.611 262.094Z" fill="#092978"/>
<path d="M164.404 246.301C169.001 245.35 173.498 248.307 174.449 252.904C176.011 260.459 176.767 278.507 176.713 300.532L176.711 301.201C176.644 322.335 175.825 342.201 174.54 351.201C173.876 355.849 169.571 359.078 164.924 358.415C160.276 357.751 157.047 353.446 157.71 348.799C160.241 331.072 160.46 270.452 157.88 256.747L157.801 256.346C156.85 251.749 159.807 247.252 164.404 246.301Z" fill="#F8CCBE"/>
<path d="M126.582 251.702C127.532 247.105 132.03 244.149 136.627 245.099C141.178 246.04 144.121 250.458 143.257 255.006L143.23 255.144C140.567 268.022 140.764 329.894 143.32 347.798C143.984 352.446 140.755 356.751 136.107 357.414C131.46 358.078 127.155 354.849 126.491 350.201C125.219 341.291 124.403 321.687 124.322 300.735L124.319 300.1C124.248 277.713 125.004 259.333 126.582 251.702Z" fill="#F8CCBE"/>
<path d="M146.5 305.622V302.125L111.138 300.125L110.5 303.957C113.521 304.79 121.274 306.69 128.117 307.622C134.96 308.555 143.223 306.677 146.5 305.622Z" fill="#393937"/>
<path d="M116.081 243.875L153.125 248.837L147.125 302.25C147.125 302.25 143.303 305.13 130.75 304.75C118.197 304.37 110.5 302.25 110.5 302.25L116.081 243.875Z" fill="#101010"/>
<path d="M152.708 304.24V300.742L187.579 298.742L188.208 302.575C185.229 303.407 177.583 305.307 170.836 306.24C164.088 307.172 155.939 305.295 152.708 304.24Z" fill="#393937"/>
<path d="M183.191 244.242L146.833 249.112L152.208 301.625C152.208 301.625 152.637 304.247 164.958 303.875C177.279 303.502 188.708 301.625 188.708 301.625L183.191 244.242Z" fill="#1D1D1D"/>
<path d="M132.513 249.674C131.396 250.838 124.926 258.929 123.448 260.748C123.635 261.526 126.109 263.611 126.109 263.611C127.853 261.653 135.615 252.55 135.338 252.195C134.477 251.09 132.847 249.326 132.513 249.674Z" fill="url(#paint0_linear_0_7651)" fill-opacity="0.8"/>
<path d="M149.104 257.497C149.279 259.101 151.329 269.256 151.775 271.557C152.491 271.913 155.678 271.355 155.678 271.355C155.297 268.76 153.301 256.965 152.85 256.949C151.45 256.901 149.051 257.018 149.104 257.497Z" fill="url(#paint1_linear_0_7651)" fill-opacity="0.8"/>
<path d="M125.396 285.898C125.572 287.503 127.621 297.658 128.067 299.96C128.783 300.315 131.971 299.755 131.971 299.755C131.589 297.163 129.594 285.368 129.143 285.35C127.743 285.303 125.344 285.42 125.396 285.898Z" fill="url(#paint2_linear_0_7651)" fill-opacity="0.8"/>
<path opacity="0.3" d="M148.955 255.024H136.779L132.613 256.947L144.789 260.472L162.732 255.024L156.965 251.5L148.955 255.024Z" fill="#C4C4C4"/>
<mask id="mask0_0_7651" style="mask-type:luminance" maskUnits="userSpaceOnUse" x="110" y="243" width="44" height="62">
<path fill-rule="evenodd" clip-rule="evenodd" d="M116.331 243.75L153.375 248.712L147.375 302.125C147.375 302.125 143.553 305.005 131 304.625C118.447 304.245 110.75 302.125 110.75 302.125L116.331 243.75Z" fill="white"/>
</mask>
<g mask="url(#mask0_0_7651)">
<path opacity="0.3" d="M108.936 260.421L104.06 258.112L101.75 260.421V264.527H108.936L112.272 267.094L125.874 264.527L121.768 254.005H117.919H114.069V260.421H108.936Z" fill="#C4C4C4"/>
<path opacity="0.3" d="M126.268 285.568L121.392 287.878L119.082 285.568V281.463H126.268L129.604 278.896L143.206 281.463L139.1 291.985H135.251H131.401V285.568H126.268Z" fill="#C4C4C4"/>
<path opacity="0.3" d="M118.773 291.82H110.423L107.291 294.115L111.675 296.62V298.918H117.312L121.487 296.62L124.827 300.17L128.168 297.665L118.773 291.82Z" fill="#C4C4C4"/>
<path opacity="0.3" d="M138.482 265.508H130.132L127 267.805L131.384 270.31V272.606H137.021L141.196 270.31L144.537 273.859L147.877 271.354L138.482 265.508Z" fill="#C4C4C4"/>
<path opacity="0.3" d="M142.482 295.75H134.132L131 298.047L135.384 300.552V302.847H141.021L145.196 300.552L148.537 304.1L151.877 301.595L142.482 295.75Z" fill="#C4C4C4"/>
</g>
<mask id="mask1_0_7651" style="mask-type:luminance" maskUnits="userSpaceOnUse" x="146" y="244" width="43" height="60">
<path fill-rule="evenodd" clip-rule="evenodd" d="M183.233 244.25L146.875 249.12L152.25 301.632C152.25 301.632 152.679 304.257 165 303.882C177.321 303.51 188.75 301.632 188.75 301.632L183.233 244.25Z" fill="white"/>
</mask>
<g mask="url(#mask1_0_7651)">
<path opacity="0.3" d="M189.734 260.421L194.611 258.112L196.92 260.421V264.527H189.734L186.398 267.094L172.796 264.527L176.902 254.005H180.752H184.601V260.421H189.734Z" fill="#C4C4C4"/>
<path opacity="0.3" d="M172.402 285.568L177.278 287.878L179.588 285.568V281.463H172.402L169.066 278.896L155.464 281.463L159.57 291.985H163.42H167.269V285.568H172.402Z" fill="#C4C4C4"/>
<path opacity="0.3" d="M179.898 291.82H188.249L191.38 294.115L186.996 296.62V298.918H181.359L177.184 296.62L173.844 300.17L170.504 297.665L179.898 291.82Z" fill="#C4C4C4"/>
<path opacity="0.3" d="M159.894 265.75H168.245L171.377 268.046L166.993 270.551V272.848H161.356L157.181 270.551L153.84 274.101L150.5 271.595L159.894 265.75Z" fill="#C4C4C4"/>
<path opacity="0.3" d="M180.895 270.75H189.246L192.377 273.046L187.993 275.551V277.848H182.356L178.181 275.551L174.841 279.101L171.5 276.595L180.895 270.75Z" fill="#C4C4C4"/>
</g>
<path d="M128.5 268.125C126.839 268.125 116.197 267.214 114.125 266.5C113.601 267.627 113.75 273.25 113.75 273.25C116.585 273.25 127.848 276.924 128 276.125C128.5 273.5 128.928 268.125 128.5 268.125Z" fill="#0A6DAB"/>
<path d="M120.179 271.714C118.31 271.459 114.067 270.037 113.347 270.277C114.001 275.998 110.229 282.515 108.929 287.465C106.811 295.527 108.929 295.465 109.282 300.41C109.448 302.735 120.855 301.607 120.855 300.41C120.855 299.212 121.035 295.06 120.855 291.787C120.675 288.515 126.831 272.433 125.393 272.193C123.955 271.954 122.516 272.034 120.179 271.714Z" fill="black"/>
<path d="M123.609 271.309C122.066 271.223 115.701 270.022 113.773 269.25C112.423 270.022 110.108 275.341 112.615 276.028C115.123 276.714 122.838 279.001 123.609 278.401C124.381 277.8 125.152 271.395 123.609 271.309Z" fill="#1C1C1E"/>
<path d="M175.556 267.65C176.746 267.65 183.889 266.962 185.374 266.25C185.75 267.375 186 271.625 186 271.625C183.968 271.625 175.25 275.687 175.25 274.875V274.859C175.25 272.355 175.25 267.65 175.556 267.65Z" fill="#0A6DAB"/>
<path d="M181.205 271.958C182.776 271.704 186.341 270.288 186.945 270.527C186.945 273.68 191.127 276.463 192 282.825C192 287.912 191.002 302.462 186.643 300.82C185.227 300.287 178.033 302.012 178.033 300.82C178.033 299.627 177.882 295.492 178.033 292.232C178.184 288.972 175.616 272.674 176.824 272.435C178.033 272.197 179.241 272.276 181.205 271.958Z" fill="black"/>
<path d="M178.125 271.421C179.462 271.331 184.975 270.064 186.646 269.25C187.815 270.064 192.615 275.009 190.443 275.733C188.271 276.457 179.246 279.804 178.578 279.171C177.909 278.537 176.789 271.512 178.125 271.421Z" fill="#1C1C1E"/>
<path d="M180.917 273.528C181.711 273.337 186.408 271.906 187.328 271.375C187.69 271.776 188.277 273.481 188.277 273.481C186.922 273.808 181.508 276.877 181.428 276.544L181.426 276.537C181.179 275.509 180.713 273.577 180.917 273.528Z" fill="#059EFE" fill-opacity="0.42"/>
<path d="M176.916 159.693C181.089 156.747 186.861 157.742 189.807 161.916C191.942 164.94 193.708 167.974 195.184 171.119L195.352 171.481C197.877 176.95 199.338 182.076 201.03 190.339L201.527 192.82C201.902 194.709 202.468 197.569 202.689 198.656C205.052 210.269 205.877 219.12 205.906 229.874L205.905 231.623C205.902 232.587 205.893 233.564 205.876 234.888L205.777 241.948C205.76 243.463 205.752 244.682 205.75 245.996L205.75 246.375C205.75 251.484 201.609 255.625 196.5 255.625C191.391 255.625 187.25 251.484 187.25 246.375L187.254 244.682C187.258 243.737 187.266 242.782 187.279 241.679L187.387 233.822C187.4 232.653 187.406 231.767 187.407 230.812L187.407 230.298C187.399 220.803 186.732 213.25 184.731 203.189L183.063 194.823L182.921 194.121C181.457 186.964 180.312 182.978 178.434 178.974C177.422 176.817 176.203 174.724 174.693 172.584C171.747 168.411 172.742 162.639 176.916 159.693Z" fill="#F8CCBE"/>
<path d="M102.645 170.71C104.324 165.885 109.596 163.335 114.421 165.014C119.246 166.693 121.796 171.965 120.117 176.79L119.706 177.973C115.384 190.441 114.509 193.855 113.041 204.289C110.882 219.634 110.529 235.279 112.745 243.836L112.813 244.093C114.142 249.026 111.221 254.102 106.288 255.431C101.356 256.761 96.2793 253.84 94.9499 248.907C93.2259 242.511 92.5837 234.401 92.785 224.979C92.9463 217.429 93.6598 209.256 94.7217 201.711L94.8235 200.993C96.4769 189.403 97.7035 184.908 102.645 170.71Z" fill="#F8CCBE"/>
<path d="M196.375 158C194.975 156.3 193.875 155.292 193.5 155.125L183.375 155.375L177.375 196.625L210.375 188.875C207 177.75 197.775 159.7 196.375 158Z" fill="#E6E0DD"/>
<path d="M105.25 157.75C106.15 156.75 107.875 155.5 108.625 155.25L119.875 166.5V196.125L89.5 188.125C95 178.667 104.35 158.75 105.25 157.75Z" fill="#E6E0DD"/>
<path d="M108.273 155.25C109.673 153.75 124.333 148.042 130.25 145.625L145.523 150.25L167.75 145.625C174.833 147.5 190.648 153 193.148 154.75C194.843 155.936 188.188 160.837 186.25 165.875C183.75 172.375 181.75 191.125 181.75 196.875C181.75 216.5 185.273 245.5 184.023 249.125C183.786 249.814 167.316 251.482 149.398 251.625C137.266 251.722 124.1 248.849 114.898 249C113.148 227.375 118.266 196.935 116.398 182.25C113.648 160.625 106.523 157.125 108.273 155.25Z" fill="#EDE9E6"/>
<path d="M126.25 152.185C126.25 148.01 129.635 144.625 133.81 144.625H164.19C168.365 144.625 171.75 148.01 171.75 152.185C171.75 163.198 162.822 172.125 151.809 172.125H146.191C135.178 172.125 126.25 163.198 126.25 152.185Z" fill="#ECF5F9"/>
<path d="M148.583 179.411C150.283 179.311 150.291 178.369 150.083 177.911C149.991 177.536 149.833 176.786 151.708 175.911C153.583 175.036 155.958 177.911 156.583 180.036C157.208 182.161 159.583 179.661 160.708 180.036C161.833 180.411 161.208 187.411 161.333 188.911C161.458 190.411 161.208 191.661 162.958 191.661C164.708 191.661 164.708 192.286 164.708 194.661C164.708 197.036 166.458 194.911 166.083 195.411C165.708 195.911 163.208 197.411 163.958 198.661C164.301 199.233 164.252 199.57 164.037 199.946C164.087 200.065 164.115 200.559 164.114 201.168C164.253 201.368 164.46 201.614 164.754 201.964C165.028 201.697 165.285 201.437 165.501 201.182C165.172 200.474 164.854 199.829 164.708 199.536C164.208 198.536 165.583 197.786 166.083 199.536C166.243 200.095 165.968 200.629 165.501 201.182C166.296 202.893 167.159 204.966 165.833 203.286C165.386 202.72 165.031 202.296 164.754 201.964C164.529 202.183 164.293 202.408 164.059 202.641C163.985 203.584 163.835 204.339 163.583 204.036C163.426 203.848 163.269 203.738 163.132 203.65C162.708 204.182 162.362 204.762 162.208 205.411C161.583 208.036 160.083 209.286 158.833 209.786C157.583 210.286 158.083 209.786 157.333 211.911C156.733 213.611 155.166 214.203 154.458 214.286C154.208 214.119 153.908 213.786 154.708 213.786C155.708 213.786 154.708 211.161 155.208 209.786C155.708 208.411 153.583 206.536 151.708 206.286C149.833 206.036 151.958 208.036 152.458 209.786C152.958 211.536 149.833 210.661 148.583 211.536C147.332 212.411 146.833 211.536 146.208 212.911C146.023 213.318 146.178 213.561 146.468 213.678C147.799 213.276 147.523 212.258 148.083 212.911C148.611 213.527 147.158 213.957 146.468 213.678C146.016 213.815 145.378 213.881 144.458 213.786C140.833 213.411 143.583 212.536 144.208 211.536C144.832 210.536 141.833 209.786 141.708 211.536C141.583 213.286 139.958 211.911 139.333 213.161C138.708 214.411 139.208 213.786 137.458 212.911C135.709 212.036 135.208 210.661 136.958 209.786C138.708 208.911 136.958 205.911 136.583 203.286C136.208 200.661 135.708 198.786 136.958 201.536C138.208 204.286 137.458 201.661 138.708 200.536C139.958 199.411 138.708 198.786 138.208 197.786C137.708 196.786 138.958 197.286 138.708 196.411C138.458 195.536 135.958 195.536 137.458 195.411C138.959 195.286 138.958 194.411 138.208 194.036C137.458 193.661 138.083 192.661 138.208 192.036C138.333 191.411 137.958 190.536 136.958 189.661C136.824 189.544 136.72 189.454 136.64 189.388C136.582 189.444 136.52 189.494 136.452 189.535C136.51 189.764 136.595 190.115 136.583 190.536C136.557 191.436 137.156 191.244 137.458 191.036L135.708 192.661L135.958 190.036C135.875 190.244 135.458 190.536 134.458 190.036C133.208 189.411 133.708 188.536 135.208 189.411C135.774 189.741 136.162 189.715 136.452 189.535C136.376 189.235 136.346 189.146 136.64 189.388C136.994 189.046 137.19 188.487 137.458 188.286C137.736 188.078 137.859 187.678 137.829 187.363C137.317 187.55 136.958 187.495 136.958 186.911C136.958 186.696 136.973 186.485 137 186.282C136.839 185.728 136.806 184.964 136.958 184.661C137.208 184.161 136.958 184.161 135.708 185.161C134.458 186.161 135.458 184.161 136.958 183.661C138.306 183.212 137.231 184.478 137 186.282C137.104 186.64 137.262 186.911 137.458 186.911C137.681 186.911 137.804 187.109 137.829 187.363C139.181 186.867 141.605 184.676 141.333 186.036C140.958 187.911 142.833 185.661 142.833 184.161C142.833 182.961 143.333 181.994 143.583 181.661C143.624 182.119 143.808 183.036 144.208 183.036C144.707 183.036 144.833 181.911 144.208 180.536C143.583 179.161 143.583 181.286 142.833 180.536C142.083 179.786 142.833 179.411 144.208 179.411C145.308 179.411 144.666 177.661 144.208 176.786C144.416 177.161 144.833 178.061 144.833 178.661C144.833 179.411 146.458 179.536 148.583 179.411Z" fill="#454A4D"/>
<path d="M159.25 181.462C159.417 181.295 160.175 180.937 161.875 180.837C163.865 180.72 166.621 182.137 163.784 179.137C160.881 179.009 159.534 174.871 163.125 178.462C163.372 178.709 163.591 178.933 163.784 179.137C164.013 179.148 164.253 179.133 164.5 179.087C167.328 178.563 169.805 182.34 167.078 183.651C167.109 183.774 167.125 183.919 167.125 184.087C167.125 184.5 159 184.212 164.875 184.087C165.827 184.067 166.55 183.905 167.078 183.651C166.673 182.043 163.81 184.081 163.5 183.462L167.125 181.962L166.625 180.837L165.625 181.962L160.75 181.25L159.25 181.962L157.75 184.837L159.25 181.462Z" fill="#454A4D"/>
<path fill-rule="evenodd" clip-rule="evenodd" d="M148.675 183.92C148.386 183.929 148.286 183.932 148.375 184.375C148.432 184.664 148.224 184.632 147.933 184.589C147.594 184.539 147.144 184.471 146.875 184.875C146.375 185.625 145.625 187.75 146.25 187.75C146.875 187.75 147.5 188.25 146.875 188.375C146.699 188.41 146.524 188.356 146.357 188.306C145.928 188.175 145.554 188.061 145.374 189.5C145.233 190.632 144.851 191.283 144.592 191.726C144.393 192.066 144.266 192.283 144.374 192.5C144.487 192.726 144.191 193.055 143.948 193.324C143.655 193.649 143.441 193.887 144.125 193.75C144.968 193.581 144.901 193.697 144.691 194.059C144.59 194.234 144.456 194.465 144.374 194.75C144.277 195.092 144.026 195.434 143.765 195.791C143.358 196.347 142.924 196.94 143 197.625C143.09 198.438 143.05 199.448 143.021 200.181C143.009 200.462 143 200.702 143 200.875C143 201.375 143.25 201.917 143.375 202.125L142.25 204.375L142.625 199.875C142.208 201.042 141.375 203.575 141.375 204.375C141.375 204.622 141.321 204.862 141.273 205.079C141.126 205.739 141.025 206.188 142.625 206C143.556 205.89 144.199 206.045 144.628 206.148C145.177 206.28 145.374 206.327 145.374 205.625C145.374 204.375 145.874 201.875 146.25 201.625C146.396 201.528 147.075 201.544 147.87 201.563C149.115 201.594 150.646 201.631 150.875 201.25C151.078 200.911 151.539 201.05 151.998 201.188C152.385 201.305 152.771 201.422 153 201.25C153.117 201.162 153.221 201.047 153.319 200.938C153.638 200.581 153.897 200.293 154.375 201.25C154.696 201.892 154.819 202.632 154.931 203.302C155.036 203.938 155.132 204.51 155.375 204.875C155.875 205.625 156.375 205.875 157.5 205.625C158.4 205.425 157.458 203.708 156.875 202.875C157.625 202.917 159.125 202.825 159.125 202.125C159.125 201.425 157.375 199.25 156.5 198.25C156.833 198.5 157.55 198.925 157.75 198.625C157.839 198.491 157.626 198.31 157.304 198.035C156.723 197.54 155.786 196.742 155.625 195.375C155.461 193.977 155.026 192.796 154.605 191.653C154.386 191.058 154.171 190.474 154 189.875C153.5 188.125 152.875 187.25 152 186.5C151.612 186.167 151.174 186.105 150.796 186.052C150.323 185.985 149.945 185.931 149.875 185.375C149.75 184.375 149.624 183.875 149.125 183.875C148.943 183.911 148.793 183.916 148.675 183.92ZM149.75 189.25C149.708 189.542 149.475 190.2 148.875 190.5C148.125 190.875 147.625 191.375 147.75 192.5C147.796 192.917 147.859 193.111 147.902 193.24C147.974 193.46 147.985 193.495 147.75 194.125C147.586 194.562 147.637 194.927 147.684 195.262C147.744 195.695 147.797 196.078 147.375 196.5C147.187 196.688 146.983 196.868 146.797 197.033C146.241 197.524 145.845 197.875 146.5 197.875C146.843 197.875 147.224 197.741 147.539 197.63C148.027 197.458 148.354 197.343 148.125 197.875C148.003 198.16 147.92 198.259 147.925 198.264C147.935 198.273 148.32 197.875 149.5 197.875C150.114 197.875 150.975 198.044 151.79 198.205C153.297 198.502 154.649 198.767 154 197.875C153.817 197.623 153.617 197.367 153.412 197.105C152.501 195.938 151.5 194.656 151.5 193.125C151.5 191.25 149.999 189.25 149.75 189.25Z" fill="#EDE9E6"/>
<path d="M132.25 150.26C132.25 147.148 134.773 144.625 137.885 144.625H160.615C163.727 144.625 166.25 147.148 166.25 150.26C166.25 158.47 159.595 165.125 151.385 165.125H147.115C138.905 165.125 132.25 158.47 132.25 150.26Z" fill="#EBBAAA"/>
<path d="M136.5 119.228C136.5 113.993 140.743 109.75 145.978 109.75H151.022C156.257 109.75 160.5 113.993 160.5 119.228V144.5C160.5 151.127 155.128 156.5 148.5 156.5C141.872 156.5 136.5 151.127 136.5 144.5V119.228Z" fill="#EBBAAA"/>
<path d="M181.192 112.258C189.375 112.258 196.009 105.625 196.009 97.4417C196.009 89.2587 189.375 82.625 181.192 82.625C173.009 82.625 166.375 89.2587 166.375 97.4417C166.375 105.625 173.009 112.258 181.192 112.258Z" fill="#EBBAAA"/>
<path d="M116.692 113.008C108.509 113.008 101.875 106.375 101.875 98.1917C101.875 90.0087 108.509 83.375 116.692 83.375C124.875 83.375 131.508 90.0087 131.508 98.1917C131.508 106.375 124.875 113.008 116.692 113.008Z" fill="#EBBAAA"/>
<path d="M110.825 76.8792C110.304 55.6311 127.387 38.125 148.641 38.125C170.169 38.125 187.357 56.0651 186.435 77.573L185.695 94.8467C185.566 97.8575 185.125 100.847 184.381 103.767L180.147 120.382C178.299 127.636 173.536 133.805 166.985 137.428C155.82 143.603 142.114 143.426 131.045 137.079C125.108 133.675 120.592 128.136 118.504 121.618L113.293 105.359C112.021 101.39 111.324 97.2595 111.222 93.0925L110.825 76.8792Z" fill="#F4D4C9"/>
<path d="M175.376 84C177.032 84 178.376 85.3431 178.376 87C178.376 88.6314 177.073 89.9586 175.452 89.9991L175.376 90H160.066C158.409 90 157.066 88.6569 157.066 87C157.066 85.3686 158.368 84.0414 159.99 84.0009L160.066 84H175.376Z" fill="#393939"/>
<path d="M137.891 84.8748C139.548 84.8748 140.891 86.2179 140.891 87.8748C140.891 89.5061 139.589 90.8334 137.967 90.8738L137.891 90.8748H122.75C121.094 90.8748 119.75 89.5316 119.75 87.8748C119.75 86.2434 121.053 84.9162 122.674 84.8757L122.75 84.8748H137.891Z" fill="#393939"/>
<path d="M146.805 98.0771L150.503 100.173C149.349 102.209 148.691 104.385 148.761 105.868C148.814 106.962 149.104 107.294 150.136 107.307L150.2 107.307V111.557C146.732 111.557 144.673 109.352 144.516 106.071C144.404 103.729 145.253 100.868 146.718 98.2319L146.805 98.0771Z" fill="#EBBAAA"/>
<path d="M183.376 47.3758C185.979 51.2304 190.757 73.3475 185.876 88.625C185 88.1157 184.211 78.7702 182.001 77.125C179.504 75.2665 179.746 63.6955 177.368 60.875C174.99 58.0545 156.466 58.6577 148.706 58.6577C140.946 58.6577 121.384 57.3165 118.381 61.9C115.377 66.4832 116.378 76.0023 114.626 78C113.224 79.5983 111.626 86.7055 111.126 88.625C111.126 79.811 106.836 67.2572 111.126 53.625C112.679 48.6892 124.277 32.7502 148.706 32.75C165.376 32.7498 167.48 36.2113 172.236 39.7369C175.991 41.9698 175.616 42.9101 177.368 44.9079C178.244 44.9079 181.799 45.041 183.376 47.3758Z" fill="#2C2929"/>
<path d="M114.125 46.125C118.325 42.325 125.417 38.5417 128.626 37.125L128.126 34.75L132.751 34.375L132.376 33.375H139.001L141.251 31.25L143.876 32.75L145.751 31.25L151.376 34.125L154.376 31.25L155.751 32.75L157.126 31.75L161.501 33.375L163.626 32.75L166.001 35.25L168.376 34.75L169.751 38.75C167.251 39.625 159.476 41.525 148.376 42.125C134.501 42.875 115.25 62 110.5 60.5C105.75 59 108.875 50.875 114.125 46.125Z" fill="#2C2929"/>
<path d="M114.597 72.2031L112.312 58.3171L133.269 45.3201L137.482 57.9511L126.077 63.9909L128.221 60.4101L120.667 65.4271L120.193 62.5419L114.597 72.2031Z" fill="#2C2929"/>
<path d="M182.519 71.2057L184.253 54.9218L164.16 45.9253L159.183 54.7834L159.411 62.8074L167.701 61.6659L169.743 64.8262L178.229 62.6474L182.519 71.2057Z" fill="#2C2929"/>
<path d="M131.225 68.2758L130.065 62.9328L127.858 50.2935L169.803 43.1047L157.109 65.3586L156.896 62.4566L151.692 64.7681L150.453 61.8253L145.881 65.7641L144.514 64.5786L137.29 67.2366L138.197 65.6613L131.225 68.2758Z" fill="#2C2929"/>
<path d="M184.115 41.9509L183.613 44.2194L182.218 49.4903L164.75 44.8098L173.172 36.2725L174.25 38.6475L175.75 37.5225L176.25 41.7209L178.011 40.3156L178.328 41.016L181.589 41.2742L180.959 41.7209L184.115 41.9509Z" fill="#2C2929"/>
<path d="M131.5 94C131.754 94 132.012 94.0084 132.274 94.0248C133.426 94.0969 134.621 94.3177 135.819 94.6396C136.326 94.7759 136.801 94.9219 137.234 95.0687L137.497 95.1602C137.635 95.2091 137.744 95.2497 137.82 95.2797C138.978 95.7325 139.549 97.0377 139.096 98.1949C138.651 99.3311 137.385 99.9022 136.244 99.494L136.054 99.423C135.996 99.4023 135.925 99.3769 135.839 99.3477L135.787 99.3297C135.443 99.2129 135.06 99.0952 134.651 98.9854C133.721 98.7356 132.81 98.5672 131.993 98.5161C131.823 98.5054 131.658 98.5 131.5 98.5C131.343 98.5 131.178 98.5054 131.008 98.5161C130.191 98.5672 129.28 98.7356 128.35 98.9854C128 99.0795 127.668 99.1794 127.364 99.2796L127.214 99.3297C127.033 99.3912 126.905 99.4379 126.838 99.4633L126.82 99.4703C125.663 99.9231 124.358 99.3521 123.905 98.1949C123.452 97.0377 124.023 95.7325 125.181 95.2797L125.297 95.2355C125.415 95.1913 125.573 95.1346 125.767 95.0687C126.199 94.9219 126.675 94.7759 127.182 94.6396C128.38 94.3177 129.575 94.0969 130.727 94.0248C130.989 94.0084 131.247 94 131.5 94Z" fill="black"/>
<path d="M165.501 94C166.984 94 168.478 94.2424 169.929 94.6441C170.432 94.7833 170.896 94.9329 171.312 95.0839L171.51 95.157C171.673 95.2184 171.8 95.2695 171.887 95.3069C173.029 95.7964 173.558 97.1192 173.069 98.2613C172.588 99.3827 171.304 99.9131 170.177 99.4688L170.028 99.4081C169.968 99.3848 169.885 99.3529 169.779 99.3146C169.468 99.2018 169.114 99.0877 168.728 98.9809C167.64 98.6795 166.533 98.5 165.501 98.5C164.468 98.5 163.361 98.6795 162.273 98.9809C161.935 99.0744 161.622 99.1734 161.341 99.2723L161.222 99.3146C161.046 99.3785 160.931 99.4243 160.887 99.4431C159.745 99.9326 158.422 99.4035 157.933 98.2613C157.443 97.1192 157.972 95.7964 159.114 95.3069L159.229 95.2592C159.345 95.212 159.5 95.1524 159.689 95.0839C160.105 94.9329 160.569 94.7833 161.072 94.6441C162.523 94.2424 164.017 94 165.501 94Z" fill="black"/>
<mask id="mask2_0_7651" style="mask-type:luminance" maskUnits="userSpaceOnUse" x="137" y="108" width="24" height="17">
<path fill-rule="evenodd" clip-rule="evenodd" d="M137.875 116.25C137.875 111.763 141.513 108.125 146 108.125H152C156.488 108.125 160.125 111.763 160.125 116.25C160.125 120.737 156.488 124.375 152 124.375H146C141.513 124.375 137.875 120.737 137.875 116.25Z" fill="white"/>
</mask>
<g mask="url(#mask2_0_7651)">
<rect x="138.625" y="118.875" width="50.75" height="10.5" fill="white"/>
</g>
<path d="M151.795 96.7125C150.975 93.6475 153.181 90.6037 156.348 90.4277L175.617 89.3582C178.785 89.1825 181.314 91.9635 180.838 95.1005L179.666 102.823C179.311 105.163 177.364 106.934 175 107.065L158.921 107.958C156.558 108.089 154.426 106.544 153.814 104.258L151.795 96.7125Z" fill="white" fill-opacity="0.29"/>
<path fill-rule="evenodd" clip-rule="evenodd" d="M176.393 89.6032L176.339 89.5977L176.284 89.5986L176.302 90.4734L176.284 89.5987L155.615 90.0234L155.632 90.8978L155.632 90.8976L155.614 90.0234L155.575 90.0242L155.536 90.0284L155.632 90.8976L155.632 90.8982L155.535 90.0284L155.536 90.0283C154.823 90.1081 153.381 90.6508 152.114 92.0911L153.428 93.2468C154.39 92.1537 155.401 91.8202 155.698 91.7719L176.262 91.3496C176.537 91.3844 177.004 91.4894 177.492 91.6998C178.014 91.9248 178.49 92.2403 178.8 92.6493L178.8 92.6492C179.173 93.1409 179.38 93.5851 179.489 93.9251C179.544 94.0956 179.574 94.2378 179.588 94.3448C179.602 94.4423 179.6 94.4965 179.6 94.509L179.151 98.1938L180.888 98.4056L181.339 94.7083L181.339 94.7083L181.34 94.7009L181.34 94.6931L180.48 94.6037L180.469 94.6023L181.34 94.6931C181.405 94.0746 181.164 92.8691 180.194 91.5908L180.194 91.5909C179.638 90.8587 178.869 90.3878 178.185 90.093C177.499 89.7973 176.831 89.649 176.393 89.6033L176.393 89.6032ZM176.345 90.0643L176.393 89.6033L176.393 89.6033L176.345 90.0643ZM176.302 90.4739L176.32 91.3484L176.262 91.3496C176.244 91.3474 176.228 91.3454 176.212 91.3438L176.302 90.4739ZM176.302 90.4739L176.345 90.0643L176.302 90.4734L176.302 90.4739ZM180.48 94.6037L180.47 94.6026L181.339 94.7084L181.339 94.7083L180.48 94.6037ZM180.469 94.6023L179.6 94.5118C179.6 94.5119 179.6 94.5114 179.6 94.5103C179.6 94.51 179.6 94.5095 179.6 94.509L179.602 94.4966L180.469 94.6023ZM180.194 91.5909L178.8 92.6491L178.8 92.6492L180.194 91.591L180.194 91.5909ZM155.698 91.7719L155.651 91.7729L155.632 90.8978L155.73 91.7676C155.72 91.7686 155.71 91.77 155.698 91.7719ZM151.783 95.8503L151.784 95.8502L151.782 95.8507L150.924 96.0181L150.93 96.0478C150.726 95.2463 150.793 93.5934 152.114 92.0911L153.428 93.2468C152.502 94.2998 152.557 95.3616 152.627 95.6208L152.378 95.6885L151.783 95.8503ZM150.93 96.0478L150.938 96.0801L151.782 95.8507L152.642 95.6829L153.23 98.7001L151.513 99.0354L150.93 96.0478ZM152.378 95.6885L152.627 95.6208L152.636 95.6516L152.642 95.6828L151.784 95.8502L152.378 95.6885ZM151.513 99.0354C151.605 99.5097 152.065 99.8192 152.539 99.7267C153.014 99.6339 153.323 99.1744 153.23 98.7002L151.513 99.0354ZM179.151 98.1938C179.092 98.6733 179.434 99.1098 179.913 99.1683C180.393 99.2268 180.829 98.8853 180.888 98.4056L179.151 98.1938Z" fill="black"/>
<path d="M116.353 94.8485C115.933 91.7038 118.51 88.9675 121.674 89.199L140.921 90.607C144.085 90.8385 146.236 93.9208 145.363 96.9708L143.212 104.479C142.56 106.755 140.401 108.262 138.04 108.089L121.98 106.914C119.619 106.741 117.703 104.937 117.389 102.59L116.353 94.8485Z" fill="white" fill-opacity="0.29"/>
<path fill-rule="evenodd" clip-rule="evenodd" d="M120.466 90.5458L120.466 90.5459L120.397 89.6734L120.466 90.5458ZM120.466 90.5463L120.466 90.5458L120.476 89.6709L120.436 89.6704L120.397 89.6734L120.397 89.6733C119.682 89.7298 118.223 90.2256 116.911 91.6238L118.186 92.8218C119.184 91.759 120.207 91.459 120.504 91.4212L141.068 91.6669C141.341 91.7104 141.806 91.8305 142.288 92.057C142.802 92.2988 143.267 92.6298 143.564 93.0485L143.565 93.0485C143.921 93.5519 144.113 94.0027 144.212 94.3459C144.261 94.5184 144.286 94.6614 144.297 94.7686C144.307 94.8651 144.304 94.9191 144.303 94.9327L143.735 98.6013C143.66 99.0788 143.988 99.5261 144.465 99.6001C144.943 99.6741 145.39 99.3471 145.464 98.8696L143.735 98.6014L143.735 98.6013L145.464 98.8696L146.035 95.1891L146.035 95.1891L146.036 95.1814L146.037 95.1739L145.546 95.1066L146.037 95.1739C146.121 94.5576 145.92 93.3451 144.992 92.0359L144.992 92.036C144.46 91.286 143.706 90.7903 143.033 90.4735C142.357 90.1555 141.693 89.9858 141.257 89.926L141.257 89.926L141.204 89.9185L141.149 89.9177L141.139 90.7912L141.138 90.7916L141.149 89.9176L120.476 89.6709L120.466 90.5463ZM141.139 90.7912L141.139 90.7927L141.257 89.926L141.257 89.926L141.139 90.7912ZM145.173 95.0553L145.546 95.1066L145.17 95.0549L145.173 95.0553ZM145.173 95.0553L145.637 95.1275L145.169 95.0548L145.173 95.0553ZM145.637 95.1275L146.035 95.1891L146.035 95.1892L145.637 95.1275ZM145.169 95.0548L144.303 94.9361C144.303 94.9362 144.303 94.9357 144.303 94.9348C144.303 94.9342 144.303 94.9335 144.303 94.9327L144.305 94.9209L145.169 95.0548ZM144.992 92.036L144.992 92.036L143.565 93.0485L143.564 93.0484L144.992 92.036ZM141.138 90.7916L141.128 91.6676L141.068 91.6669C141.051 91.6643 141.035 91.6619 141.019 91.6598L141.138 90.7916ZM120.466 90.5463L120.534 91.4181C120.525 91.4188 120.515 91.4198 120.504 91.4212L120.455 91.4206L120.466 90.5463ZM116.692 95.3326L117.321 95.231L117.812 98.2656L116.084 98.5449L116.084 98.5449L116.084 98.545L115.598 95.5359C115.6 95.5484 115.603 95.5607 115.606 95.5728L116.458 95.3704L116.692 95.3326ZM116.459 95.3703L116.457 95.3705L117.309 95.1685L116.459 95.3703ZM116.459 95.3703L116.692 95.3326L117.321 95.231L117.316 95.1995L117.309 95.1685L117.309 95.1685C117.247 94.9073 117.227 93.8443 118.186 92.822L116.911 91.624C115.544 93.0798 115.421 94.7266 115.598 95.5359L115.593 95.5102L116.458 95.3704L116.459 95.3703ZM116.084 98.5449C116.161 99.0219 116.611 99.3461 117.087 99.2691C117.564 99.1919 117.889 98.7426 117.812 98.2656L117.812 98.2656L117.812 98.2657L116.084 98.5449Z" fill="black"/>
<path d="M144.415 95.4945C146.536 94.3527 149.65 94.0614 152.221 95.4424L152.334 95.5044L151.113 97.6858C149.39 96.7214 147.144 96.9015 145.68 97.6541L145.6 97.6957L144.415 95.4945Z" fill="black"/>
<defs>
<linearGradient id="paint0_linear_0_7651" x1="127.537" y1="269.683" x2="140.659" y2="262.801" gradientUnits="userSpaceOnUse">
<stop stop-color="#059EFE" stop-opacity="0.01"/>
<stop offset="0.202437" stop-color="#059EFE" stop-opacity="0.05"/>
<stop offset="0.515476" stop-color="#059EFE" stop-opacity="0.74"/>
<stop offset="0.67509" stop-color="#059EFE" stop-opacity="0.59"/>
<stop offset="1" stop-color="#059EFE" stop-opacity="0.01"/>
</linearGradient>
<linearGradient id="paint1_linear_0_7651" x1="156.721" y1="273.626" x2="161.528" y2="260.018" gradientUnits="userSpaceOnUse">
<stop stop-color="#059EFE" stop-opacity="0.01"/>
<stop offset="0.202437" stop-color="#059EFE" stop-opacity="0.05"/>
<stop offset="0.515476" stop-color="#059EFE" stop-opacity="0.74"/>
<stop offset="0.67509" stop-color="#059EFE" stop-opacity="0.59"/>
<stop offset="1" stop-color="#059EFE" stop-opacity="0.01"/>
</linearGradient>
<linearGradient id="paint2_linear_0_7651" x1="133.014" y1="302.027" x2="137.821" y2="288.419" gradientUnits="userSpaceOnUse">
<stop stop-color="#059EFE" stop-opacity="0.01"/>
<stop offset="0.202437" stop-color="#059EFE" stop-opacity="0.05"/>
<stop offset="0.515476" stop-color="#059EFE" stop-opacity="0.74"/>
<stop offset="0.67509" stop-color="#059EFE" stop-opacity="0.59"/>
<stop offset="1" stop-color="#059EFE" stop-opacity="0.01"/>
</linearGradient>
</defs>
</svg>
