<svg width="300" height="400" viewBox="0 0 300 400" fill="none" xmlns="http://www.w3.org/2000/svg">
<path d="M168.276 254.833C172.628 253.933 176.886 256.732 177.786 261.085C179.459 269.177 180.268 286.872 180.192 308.086C180.12 328.153 179.246 347.356 177.872 356.982C177.244 361.382 173.168 364.44 168.768 363.812C164.368 363.184 161.31 359.107 161.938 354.707C164.674 335.546 164.902 279.419 162.11 264.775L162.024 264.344C161.124 259.991 163.923 255.733 168.276 254.833Z" fill="#F6DDD6"/>
<path d="M128.448 259.456C129.348 255.103 133.606 252.304 137.959 253.204C142.268 254.096 145.054 258.278 144.236 262.585L144.21 262.715C141.328 276.651 141.533 333.724 144.296 353.077C144.924 357.477 141.867 361.554 137.467 362.182C133.067 362.81 128.991 359.753 128.362 355.353C127.002 345.823 126.132 326.908 126.045 307.059L126.043 306.457C125.967 285.242 126.775 267.547 128.448 259.456Z" fill="#F6DDD6"/>
<rect x="117.14" y="149.683" width="69.2103" height="88.2565" rx="30.0448" fill="#EED1C9"/>
<path d="M116.335 313.32C116.335 298.03 115.69 274.154 117.408 258.327C119.127 242.5 118.75 241.685 118.75 215.943C120.946 204.731 118.75 195.911 118.75 184.556L113.678 162.494C120.17 159.056 133.461 148.873 132.641 157.124C131.616 167.437 135.918 171.68 150.136 182.142C167.036 171.412 166.768 155.317 174.815 155.317C191.2 155.317 180.181 214.869 182.863 245.182C185.546 275.495 187.96 310.637 187.96 310.637C176.425 320.562 130.259 322.442 116.335 313.32Z" fill="#D1DEED"/>
<path d="M126.739 221.363L127.929 216.96L128.2 217.033C132.138 218.066 138.545 219.101 145.727 219.706C155.129 220.499 165.189 220.535 175.39 219.625L175.947 219.574L176.367 224.115C165.885 225.085 155.544 225.08 145.862 224.293L145.344 224.251C137.824 223.616 131.089 222.522 126.883 221.401L126.739 221.363Z" fill="#C4D2E2"/>
<path fill-rule="evenodd" clip-rule="evenodd" d="M138.021 228.177C135.072 227.645 133.433 224.934 134.966 222.198L135.018 222.106C136.146 220.178 138.081 219.509 140.333 219.887C141.92 220.153 143.634 220.942 144.978 221.891C145.499 222.259 145.689 222.943 145.432 223.527C143.903 227.006 140.918 228.698 138.021 228.177ZM142.348 223.42C141.584 223.015 140.759 222.698 140.012 222.554L139.888 222.532C138.627 222.32 137.809 222.611 137.306 223.509C136.748 224.503 137.236 225.309 138.497 225.536C139.864 225.783 141.332 225.123 142.387 223.534L142.432 223.465L142.348 223.42Z" fill="#B5C6DA"/>
<path fill-rule="evenodd" clip-rule="evenodd" d="M144.646 222.008C146.027 220.687 147.864 219.484 149.635 218.908C152.151 218.089 154.457 218.539 156.046 220.589C158.206 223.377 156.841 226.648 153.632 227.734C150.446 228.814 146.776 227.401 144.438 223.693C144.098 223.153 144.184 222.449 144.646 222.008ZM152.772 225.193C154.355 224.657 154.862 223.441 153.925 222.232L153.877 222.171C153.065 221.17 151.963 220.971 150.465 221.459C149.455 221.787 148.354 222.425 147.398 223.171L147.375 223.189L147.399 223.218C148.989 225.128 150.986 225.759 152.694 225.219L152.772 225.193Z" fill="#B5C6DA"/>
<path d="M143.716 223.235C144.059 222.578 144.87 222.324 145.526 222.668C146.183 223.011 146.437 223.821 146.094 224.478C144.588 227.357 143.474 231.526 143.948 234.366C144.069 235.097 143.576 235.788 142.845 235.91C142.114 236.031 141.423 235.538 141.302 234.807C140.713 231.273 141.965 226.584 143.716 223.235Z" fill="#B5C6DA"/>
<path d="M144.049 223.086C144.548 222.539 145.397 222.5 145.944 223C147.698 224.602 148.445 228.444 148.579 233.986L148.584 234.165C148.671 238.198 148.376 242.979 147.972 245.403C147.85 246.134 147.159 246.628 146.428 246.506C145.698 246.384 145.204 245.693 145.326 244.962L145.36 244.748C145.712 242.466 145.975 238.119 145.905 234.403L145.902 234.223C145.797 229.438 145.145 225.966 144.167 225.012L144.135 224.981C143.588 224.482 143.549 223.633 144.049 223.086Z" fill="#B5C6DA"/>
<path d="M98.6306 368.58C98.6306 360.345 103.922 359.34 112.547 356.52C116.771 355.137 121.082 353.93 125.456 353.207C128.205 352.75 128.944 355.167 133.772 355.167C138.078 355.167 143.45 353.035 144.563 352.572C144.702 352.515 144.868 352.465 144.979 352.567C145.006 352.592 145.028 352.622 145.045 352.655C145.559 353.712 148.258 359.475 148.258 364.085C148.258 367.612 148.56 371.08 147.587 372.872C147.148 373.682 144.408 374.122 143.488 374.122H100.123C99.2986 374.122 98.6306 369.405 98.6306 368.58Z" fill="#DEDEDE"/>
<mask id="mask0_0_7763" style="mask-type:luminance" maskUnits="userSpaceOnUse" x="98" y="351" width="51" height="24">
<path fill-rule="evenodd" clip-rule="evenodd" d="M98.6306 368.58C98.6306 364.35 100.027 362.027 102.555 360.387C114.581 352.58 130.174 352.212 144.502 351.68C144.62 351.68 144.994 352.55 145.045 352.655C145.559 353.712 148.258 359.475 148.258 364.085C148.258 367.612 148.56 371.08 147.587 372.872C147.148 373.682 144.408 374.122 143.488 374.122H100.123C99.2986 374.122 98.6306 369.405 98.6306 368.58Z" fill="white"/>
</mask>
<g mask="url(#mask0_0_7763)">
<path d="M104.935 362.948C100.777 362.948 99.6144 360.533 99.1672 360.13C98.3624 361.07 99.0332 364.853 98.4967 366.57C97.9602 368.285 98.7202 369.968 99.1672 370.593H150.672C150.896 367.015 149.076 354.778 147.319 355.168C142.491 356.24 131.626 355.838 129.346 355.705C127.522 355.598 118.661 357.895 114.458 359.058C114.994 359.595 115.88 362.33 116.201 363.618C116.604 365.228 116.738 365.228 115.263 365.63C113.787 366.033 113.519 362.948 111.909 362.948H104.935Z" fill="#E9EAEB"/>
<path d="M138.198 354.095C141.417 353.88 144.1 352.128 145.173 351.145C146.246 352.218 148.902 355.168 148.258 356.24C147.453 357.583 141.283 358.655 138.601 358.655C135.918 358.655 134.174 354.363 138.198 354.095Z" fill="#CDC7BB"/>
<path d="M122.371 370.058C115.531 369.788 109.629 371.398 102.118 369.788C88.705 368.313 95.5961 369.19 92.1924 375.713H144.793C150.002 374.483 151.73 366.893 147.856 367.508C139.406 368.85 127.605 370.263 122.371 370.058Z" fill="#CDC7BB"/>
<path d="M149.868 369.788C148.043 370.54 123.31 370.593 122.505 370.058C124.383 369.655 138.203 368.088 141.283 367.91C145.978 367.643 147.766 367.285 149.868 367.375C150.628 367.91 151.692 369.038 149.868 369.788Z" fill="#DEDEDE"/>
</g>
<path d="M124.179 352.593C124.407 352.217 124.888 352.089 125.272 352.293L126.484 352.994C126.546 353.03 126.599 353.062 126.64 353.087C128.146 354.003 128.965 354.833 128.965 355.992C128.965 356.508 128.5 356.893 127.999 356.807L127.954 356.798L122.053 355.441L123.777 357.693C124.252 358.313 123.682 359.175 122.937 359L122.895 358.99L117.048 357.327L118.338 358.606C118.649 358.915 118.663 359.412 118.377 359.737L118.342 359.774C118.033 360.086 117.536 360.1 117.211 359.813L117.174 359.779L113.608 356.241C113.012 355.651 113.574 354.661 114.373 354.849L114.415 354.86L120.95 356.718L119.347 354.625C118.885 354.021 119.413 353.176 120.146 353.309L120.188 353.317L126.044 354.663L126.033 354.656C125.979 354.622 125.924 354.587 125.867 354.551L125.781 354.498C125.524 354.342 124.62 353.828 124.455 353.728C124.065 353.491 123.941 352.983 124.179 352.593Z" fill="#CDC7BB"/>
<path fill-rule="evenodd" clip-rule="evenodd" d="M120.949 346.734C121.53 345.942 122.37 345.511 123.401 345.511C125.518 345.511 127.119 347.332 127.119 349.78L127.12 350.073L127.138 351.265L127.138 351.532C127.133 352.034 127.1 352.392 127.022 352.687C126.927 353.051 126.764 353.31 126.506 353.489C126.233 353.676 125.851 353.769 125.329 353.769C124.235 353.769 122.931 353.363 121.913 352.687C120.767 351.923 120.096 350.908 120.096 349.78C120.096 348.555 120.393 347.492 120.949 346.734ZM125.466 349.78C125.466 348.2 124.555 347.163 123.401 347.163C122.899 347.163 122.553 347.341 122.282 347.711C121.95 348.163 121.748 348.885 121.748 349.78C121.748 350.289 122.106 350.829 122.828 351.311C123.577 351.809 124.565 352.116 125.329 352.116C125.364 352.116 125.397 352.115 125.427 352.114L125.452 352.113L125.455 352.093C125.472 351.951 125.483 351.757 125.485 351.503L125.486 351.424C125.486 351.349 125.486 351.275 125.485 351.19L125.468 350.086L125.466 349.78Z" fill="#CDC7BB"/>
<path fill-rule="evenodd" clip-rule="evenodd" d="M126.661 353.515L126.649 353.494C126.636 353.472 126.628 353.456 126.617 353.431L126.585 353.351C126.565 353.281 126.56 353.264 126.554 353.233L126.548 353.194C126.532 353.086 126.535 352.967 126.557 352.832C126.595 352.595 126.69 352.325 126.853 351.957C126.872 351.912 126.893 351.866 126.916 351.815L127.141 351.33L127.144 351.325L127.237 351.125L127.393 350.78C128.141 349.191 129.743 348.491 131.157 349.118C131.856 349.431 132.297 349.974 132.455 350.679C132.607 351.355 132.491 352.159 132.125 352.979C131.789 353.733 131.032 354.211 130.024 354.378C129.132 354.524 128.125 354.402 127.379 354.07C127.06 353.926 126.832 353.764 126.695 353.567L126.661 353.515ZM130.485 350.628C129.923 350.379 129.244 350.684 128.868 351.529L128.767 351.754L128.536 352.249L128.535 352.25L128.443 352.45L128.345 352.666L128.363 352.672C128.752 352.779 129.231 352.817 129.663 352.761L129.755 352.748C130.26 352.664 130.533 352.491 130.616 352.306C130.845 351.791 130.91 351.342 130.842 351.04C130.798 350.842 130.704 350.726 130.485 350.628Z" fill="#CDC7BB"/>
<path d="M208.124 368.58C208.124 360.345 202.832 359.34 194.208 356.517C189.983 355.137 185.672 353.93 181.298 353.205C178.549 352.75 177.811 355.167 172.982 355.167C168.676 355.167 163.304 353.035 162.192 352.572C162.052 352.515 161.887 352.465 161.776 352.567C161.749 352.592 161.726 352.622 161.709 352.655C161.195 353.712 158.496 359.475 158.496 364.085C158.496 367.612 158.194 371.08 159.167 372.872C159.606 373.682 162.346 374.122 163.266 374.122H206.632C207.456 374.122 208.124 369.405 208.124 368.58Z" fill="#DEDEDE"/>
<mask id="mask1_0_7763" style="mask-type:luminance" maskUnits="userSpaceOnUse" x="158" y="351" width="51" height="24">
<path fill-rule="evenodd" clip-rule="evenodd" d="M208.124 368.58C208.124 364.35 206.727 362.027 204.2 360.387C192.174 352.577 176.581 352.21 162.252 351.68C162.135 351.68 161.761 352.55 161.71 352.655C161.195 353.712 158.496 359.475 158.496 364.085C158.496 367.612 158.194 371.08 159.167 372.872C159.606 373.682 162.346 374.122 163.267 374.122H206.632C207.456 374.122 208.124 369.405 208.124 368.58Z" fill="white"/>
</mask>
<g mask="url(#mask1_0_7763)">
<path d="M201.82 362.947C205.978 362.947 207.14 360.532 207.587 360.13C208.392 361.07 207.721 364.852 208.258 366.57C208.794 368.285 208.034 369.967 207.587 370.592H156.574C156.351 367.015 159.016 354.595 159.525 354.765C165.158 356.642 174.682 355.705 176.962 355.57C178.786 355.462 188.094 357.895 192.297 359.057C191.76 359.595 190.875 362.33 190.553 363.617C190.151 365.227 190.016 365.227 191.492 365.63C192.967 366.032 193.235 362.947 194.845 362.947H201.82Z" fill="#E9EAEB"/>
<path d="M168.556 354.095C165.337 353.88 162.655 352.128 161.582 351.145C160.508 352.218 157.853 355.168 158.497 356.24C159.301 357.583 165.471 358.655 168.154 358.655C170.836 358.655 172.58 354.363 168.556 354.095Z" fill="#CDC7BB"/>
<path d="M184.383 370.055C191.224 369.788 197.125 371.398 204.637 369.788C218.049 368.313 211.158 369.19 214.562 375.713H161.961C156.753 374.483 155.025 366.893 158.899 367.508C167.349 368.85 179.149 370.263 184.383 370.055Z" fill="#CDC7BB"/>
<path d="M156.887 369.788C158.711 370.54 183.444 370.593 184.249 370.058C182.371 369.655 168.551 368.088 165.471 367.91C160.777 367.643 158.988 367.285 156.887 367.375C156.127 367.91 155.063 369.038 156.887 369.788Z" fill="#DEDEDE"/>
</g>
<path d="M181.441 352.317C181.83 352.079 182.339 352.203 182.576 352.593C182.813 352.983 182.689 353.491 182.3 353.728L181.133 354.404C181.068 354.442 181.013 354.474 180.974 354.498L180.803 354.604L180.711 354.663L186.567 353.317C187.307 353.147 187.858 353.979 187.433 354.591L187.408 354.625L185.805 356.716L192.339 354.86C193.146 354.631 193.733 355.606 193.177 356.21L193.147 356.241L189.581 359.779C189.257 360.1 188.734 360.098 188.412 359.774C188.103 359.462 188.093 358.966 188.382 358.642L188.417 358.606L189.708 357.325L183.859 358.987C183.107 359.201 182.515 358.353 182.952 357.724L182.977 357.69L184.7 355.442L178.801 356.798C178.298 356.913 177.818 356.546 177.791 356.039L177.789 355.992C177.789 354.858 178.574 354.039 180.019 353.145L180.185 353.044C180.525 352.842 181.314 352.394 181.441 352.317Z" fill="#CDC7BB"/>
<path fill-rule="evenodd" clip-rule="evenodd" d="M179.636 349.693C179.674 347.289 181.261 345.511 183.353 345.511C184.383 345.511 185.223 345.941 185.804 346.731C186.361 347.49 186.658 348.554 186.658 349.78C186.658 350.909 185.986 351.924 184.841 352.685C183.826 353.362 182.521 353.769 181.426 353.769C180.904 353.769 180.521 353.676 180.244 353.486C179.991 353.31 179.828 353.051 179.732 352.688C179.649 352.372 179.617 351.986 179.616 351.43C179.616 351.356 179.616 351.285 179.617 351.208L179.625 350.675L179.625 350.649C179.629 350.419 179.632 350.252 179.634 350.102L179.636 349.693ZM184.473 347.709C184.202 347.341 183.855 347.163 183.353 347.163C182.2 347.163 181.288 348.2 181.288 349.78C181.288 349.883 181.288 349.979 181.287 350.081L181.277 350.665L181.277 350.691C181.272 350.935 181.27 351.095 181.269 351.232L181.269 351.511C181.271 351.761 181.282 351.952 181.299 352.093L181.302 352.113L181.351 352.115L181.426 352.116C182.19 352.116 183.177 351.808 183.926 351.309C184.649 350.829 185.006 350.289 185.006 349.78C185.006 348.884 184.804 348.16 184.473 347.709Z" fill="#CDC7BB"/>
<path fill-rule="evenodd" clip-rule="evenodd" d="M174.299 350.676C174.457 349.972 174.899 349.43 175.599 349.117C177.034 348.481 178.664 349.214 179.395 350.856L179.44 350.956L179.775 351.679L179.937 352.039C180.079 352.366 180.162 352.614 180.198 352.835C180.219 352.971 180.222 353.095 180.207 353.189L180.207 353.189C180.203 353.22 180.201 353.233 180.194 353.259L180.166 353.36L180.152 353.397L180.058 353.46L180.108 353.488C179.989 353.705 179.768 353.883 179.442 354.037L179.371 354.07C178.627 354.401 177.621 354.523 176.729 354.377C175.722 354.211 174.965 353.733 174.628 352.978C174.263 352.156 174.148 351.355 174.299 350.676ZM177.955 351.682L177.886 351.528C177.51 350.684 176.831 350.378 176.271 350.626C176.05 350.725 175.955 350.842 175.912 351.037C175.844 351.341 175.908 351.789 176.138 352.306C176.22 352.491 176.494 352.664 176.997 352.747C177.452 352.821 177.972 352.785 178.39 352.669L178.407 352.664L178.36 352.556L177.955 351.682Z" fill="#CDC7BB"/>
<path d="M164.096 152.931L169.44 153.411C168.853 159.943 167.622 165.026 165.182 169.495C162.21 174.941 157.568 179.048 150.933 181.735L150.725 181.818L149.791 182.19L148.842 181.856C140.501 178.916 135.393 174.003 132.444 167.294C131.703 165.606 131.114 163.854 130.581 161.861L130.5 161.558C130.354 161 130.213 160.428 130.057 159.77L129.463 157.213L129.399 156.947C129.19 156.085 129.017 155.446 128.84 154.904L128.813 154.824L133.903 153.127C134.143 153.848 134.358 154.629 134.606 155.656L134.794 156.45C134.945 157.098 135.166 158.058 135.195 158.181L135.355 158.859C135.497 159.45 135.627 159.966 135.763 160.474C136.231 162.222 136.736 163.723 137.356 165.135C139.58 170.197 143.248 173.898 149.423 176.346L149.675 176.444L149.687 176.439C154.696 174.254 158.126 171.146 160.39 167.076L160.473 166.925C162.439 163.323 163.505 159.058 164.047 153.452L164.096 152.931Z" fill="#C4D2E2"/>
<rect x="138.869" y="140.26" width="20.9781" height="31.485" rx="10.4891" fill="#EED1C9"/>
<path d="M158.454 152.494C158.828 151.606 159.85 151.19 160.738 151.563C161.626 151.937 162.042 152.96 161.668 153.847C160.258 157.198 154.696 159.34 148.66 159.34C143.201 159.34 138.561 156.885 137.487 153.733C137.176 152.821 137.663 151.831 138.575 151.52C139.467 151.216 140.435 151.676 140.767 152.55L140.788 152.608C140.978 153.165 141.754 153.945 142.954 154.58C144.471 155.383 146.435 155.853 148.66 155.853C153.396 155.853 157.65 154.232 158.432 152.545L158.454 152.494Z" fill="#37383A"/>
<rect x="146.649" y="155.585" width="5.36513" height="4.02385" rx="2.01192" fill="#FFDD64"/>
<path d="M200.836 189.117C198.261 178.816 192.61 165.868 190.106 160.682V207.358C194.756 205.57 203.412 199.418 200.836 189.117Z" fill="#E3E9EC"/>
<path d="M157.513 177.85C160.33 172.753 166.497 162.225 166.497 152.097C166.497 152.097 166.572 152.419 178.6 154.763C190.628 157.107 190.374 162.023 190.374 162.023C192.8 166.056 189.689 187.832 190.374 210.916C191.059 234.001 190.374 237.135 190.374 247.597C184.61 249.448 177.892 253.156 163.547 254.571C163.547 251.885 162.443 247.915 162.341 244.879C160.664 234.967 160.061 222.515 159.257 210.916C158.695 202.817 157.513 187.373 157.513 177.85Z" fill="#EBF4F9"/>
<path d="M157.379 178.386L163.28 148.744L169.048 150.488L173.072 153.573C170.121 162.023 169.45 169.668 170.926 178.118C166.768 175.167 159.614 177.224 157.379 178.386Z" fill="#F7FAFF"/>
<path d="M206.442 171.224C208.176 166.023 213.797 163.213 218.997 164.946C224.198 166.68 227.008 172.301 225.275 177.501L225.077 178.091C222.288 186.388 219.779 192.316 216.968 197.279L216.869 197.454C214.405 201.773 212.247 204.678 207.678 210.199C204.183 214.422 197.926 215.012 193.703 211.517C189.48 208.022 188.89 201.766 192.385 197.543L193.158 196.605C196.454 192.592 197.957 190.53 199.565 187.725L199.625 187.62C201.817 183.776 203.92 178.791 206.442 171.224Z" fill="#F6DDD6"/>
<path fill-rule="evenodd" clip-rule="evenodd" d="M219.09 154.288C220.973 154.69 222.174 156.543 221.772 158.427L214.951 156.97L214.951 156.97C215.353 155.087 217.206 153.886 219.09 154.288ZM218.492 169.809L212.481 168.388C212.735 167.312 214.226 160.364 214.951 156.97L221.772 158.427L221.772 158.427C221.485 159.769 221.068 161.717 220.654 163.641C219.188 165.517 218.208 166.641 216.818 167.801L218.492 169.809ZM218.492 169.809L219.269 169.993C219.434 169.293 220.041 166.493 220.654 163.641C221.101 163.07 221.593 162.429 222.155 161.696C222.93 160.687 223.838 159.503 224.946 158.088L230.438 162.386C229.538 163.536 228.744 164.574 228.019 165.521C225.442 168.887 223.743 171.107 221.285 173.157L218.492 169.809ZM229.841 157.491C231.358 158.678 231.625 160.869 230.438 162.386L224.945 158.087C226.132 156.571 228.324 156.304 229.841 157.491Z" fill="#F6DDD6"/>
<path d="M206.201 175.436C198.69 184.825 199.983 184.288 195.203 191.8C192.699 195.734 186.793 202.672 189.798 210.827C193.553 221.021 201.373 219.028 207.14 216.077C213.736 212.702 220.956 200.92 223.37 180.265C213.176 180.265 211.835 177.582 206.201 175.436Z" fill="#F2F7FA"/>
<path d="M200.031 182.046L205.269 173.021C208.412 176.798 220.091 180.13 224.979 180.13C224.309 182.046 223.504 186.434 222.431 188.983C213.658 188.983 205.269 185.655 200.031 182.046Z" fill="#E4EBEF"/>
<path d="M99.1637 189.117C101.739 178.816 107.39 165.868 109.894 160.682V207.358C105.244 205.57 96.5885 199.418 99.1637 189.117Z" fill="#E3E9EC"/>
<path d="M142.487 177.85C139.671 172.753 133.503 162.225 133.503 152.097C133.503 152.097 133.428 152.419 121.4 154.763C109.372 157.107 109.626 162.023 109.626 162.023C107.201 166.056 110.311 187.832 109.626 210.916C108.941 234.001 109.626 237.135 109.626 247.597C115.391 249.448 122.108 253.156 136.453 254.571C136.453 251.885 137.557 247.915 137.66 244.879C139.336 234.967 139.939 222.515 140.744 210.916C141.305 202.817 142.487 187.373 142.487 177.85Z" fill="#EBF4F9"/>
<path d="M142.622 178.386L136.72 148.744L130.953 150.488L126.929 153.573C129.88 162.023 130.55 169.668 129.075 178.118C133.233 175.167 140.386 177.224 142.622 178.386Z" fill="#F7FAFF"/>
<path d="M81.0027 164.946C86.2031 163.213 91.8241 166.023 93.5576 171.224L93.8085 171.972C96.1648 178.958 98.1625 183.683 100.229 187.362L100.375 187.62C102.126 190.69 103.726 192.843 107.615 197.543C111.11 201.766 110.52 208.023 106.297 211.517C102.073 215.012 95.8168 214.422 92.3219 210.199L91.5488 209.262C87.5007 204.335 85.4514 201.522 83.1314 197.454L82.933 197.104C80.0964 192.059 77.5613 186.009 74.7253 177.501C72.9918 172.301 75.8023 166.68 81.0027 164.946Z" fill="#F6DDD6"/>
<path fill-rule="evenodd" clip-rule="evenodd" d="M80.9103 154.288C79.0268 154.69 77.826 156.543 78.2283 158.427L78.2283 158.427C78.5149 159.769 78.9319 161.717 79.3459 163.641C78.8992 163.07 78.4073 162.429 77.8449 161.696C77.0706 160.687 76.1626 159.503 75.0548 158.088L69.5623 162.386C70.4622 163.536 71.2564 164.574 71.9811 165.521C74.558 168.887 76.2574 171.107 78.7155 173.157L81.5078 169.809L87.5191 168.388C87.2646 167.312 85.7741 160.364 85.0491 156.97L85.0491 156.97C84.6468 155.087 82.7938 153.886 80.9103 154.288ZM85.0491 156.97L85.0491 156.97L78.2283 158.427L78.2283 158.427L85.0491 156.97ZM81.5078 169.809L83.1828 167.801C81.7921 166.641 80.8123 165.517 79.3459 163.641C79.9593 166.493 80.5659 169.293 80.7315 169.993L81.5078 169.809ZM70.1592 157.491C68.6425 158.678 68.3752 160.869 69.5623 162.386L75.0548 158.087C73.8678 156.571 71.6759 156.304 70.1592 157.491Z" fill="#F6DDD6"/>
<path d="M93.799 175.436C101.31 184.825 100.017 184.288 104.797 191.799C107.301 195.734 113.207 202.672 110.202 210.827C106.447 221.021 98.627 219.027 92.8597 216.077C86.2636 212.702 79.0446 200.92 76.6302 180.264C86.824 180.264 88.1655 177.582 93.799 175.436Z" fill="#F2F7FA"/>
<path d="M99.9686 182.045L94.7308 173.021C91.5882 176.797 79.9093 180.13 75.0208 180.13C75.6914 182.045 76.4962 186.434 77.5692 188.982C86.3425 188.982 94.7308 185.655 99.9686 182.045Z" fill="#E4EBEF"/>
<rect x="105.336" y="109.266" width="55.0512" height="39.181" rx="19.5905" transform="rotate(-7.99571 105.336 109.266)" fill="#3D230C"/>
<path d="M187.155 137.343C189.073 134.431 186.976 117.314 183.936 110.786L162.207 138.953C162.207 143.245 163.012 145.123 170.792 145.123C178.01 145.123 183.534 142.843 187.155 137.343Z" fill="#3D230C"/>
<path d="M112.335 119.17C121.088 119.17 128.185 112.435 128.185 104.127C128.185 95.8194 121.088 89.0845 112.335 89.0845C103.581 89.0845 96.4844 95.8194 96.4844 104.127C96.4844 112.435 103.581 119.17 112.335 119.17Z" fill="#EBBAAA"/>
<path d="M185.961 119.327C194.714 119.327 201.811 112.592 201.811 104.284C201.811 95.9761 194.714 89.2412 185.961 89.2412C177.207 89.2412 170.11 95.9761 170.11 104.284C170.11 112.592 177.207 119.327 185.961 119.327Z" fill="#EBBAAA"/>
<path d="M109.093 75.5365C109.093 53.6693 126.327 35.9424 147.587 35.9424C168.848 35.9424 186.082 53.6693 186.082 75.5365V114.918C182.978 140.462 164.351 154.512 147.587 154.512C130.824 154.512 111.369 137.482 109.093 114.918V75.5365Z" fill="#F6DDD6"/>
<path fill-rule="evenodd" clip-rule="evenodd" d="M137.26 124.331V127.957C137.26 133.526 141.775 138.041 147.344 138.041C152.914 138.041 157.429 133.526 157.429 127.957V124.331H137.26Z" fill="#393939"/>
<mask id="mask2_0_7763" style="mask-type:luminance" maskUnits="userSpaceOnUse" x="137" y="123" width="21" height="16">
<path fill-rule="evenodd" clip-rule="evenodd" d="M137.276 123.662C137.265 123.856 137.26 124.051 137.26 124.247V127.956C137.26 133.526 141.775 138.041 147.344 138.041C152.914 138.041 157.429 133.526 157.429 127.956V124.247C157.429 124.051 157.423 123.856 157.412 123.662H137.276Z" fill="white"/>
</mask>
<g mask="url(#mask2_0_7763)">
<path d="M147.344 141.276C150.703 141.276 153.425 139.793 153.425 137.964C153.425 136.134 150.703 134.652 147.344 134.652C143.985 134.652 141.262 136.134 141.262 137.964C141.262 139.793 143.985 141.276 147.344 141.276Z" fill="#FF6C6C"/>
<rect x="137.26" y="124.33" width="20.169" height="4.15935" fill="white"/>
</g>
<path d="M114.549 80.9125C116.695 73.1867 123.67 63.3865 127.426 59.452C131.181 55.5175 141.73 51.8142 144.77 51.099C144.77 48.5952 144.77 38.0885 132.967 42.649C124.46 45.9362 119.378 41.2106 109.184 59.452C98.9903 77.6935 110.702 130.369 111.239 113.201C111.775 96.032 111.867 90.5697 114.549 80.9125Z" fill="#3D230C"/>
<path d="M121.062 65.4673C127.259 56.3113 132.221 53.3543 140.709 47.2092C141.928 48.2728 144.886 51.132 151.075 54.8545C142.87 57.407 129.02 65.1128 117.525 87.4478C116.464 79.6483 117.582 70.6078 121.062 65.4673Z" fill="#3D230C"/>
<path d="M141.942 32.0848C151.692 27.5988 174.409 37.1649 185.814 59.549C185.814 59.549 188.791 68.4168 192.789 76.9858C194.112 79.8223 194.899 87.875 195.363 95.7483C196.031 107.087 190.173 117.709 180.583 123.797C180.583 123.797 177.498 97.9098 165.963 83.692C156.013 71.4283 143.269 61.36 139.266 56.0697C138.297 54.7892 137.293 53.288 137.109 51.6928C136.599 47.2904 139.155 37.9901 141.942 32.0848Z" fill="#543415"/>
<path d="M152.684 75.4827C148.526 68.1057 142.491 59.8172 138.064 54.4522C139.897 54.4522 141.418 51.7155 146.783 56.9732C153.489 63.5455 153.623 67.167 152.684 75.4827Z" fill="#543415"/>
<path d="M137.249 86.0891C138.211 86.0471 139.025 86.7929 139.067 87.755C139.108 88.697 138.394 89.4971 137.461 89.5695L137.401 89.5731L122.032 90.2446C121.07 90.2866 120.256 89.5408 120.214 88.5787C120.173 87.6367 120.887 86.8366 121.82 86.7642L121.88 86.7606L137.249 86.0891Z" fill="#62360D"/>
<path d="M132.916 96.6224C133.648 96.5067 134.335 97.0061 134.451 97.7378C134.563 98.4512 134.092 99.122 133.39 99.2623L133.335 99.272L126.109 100.414C125.378 100.53 124.691 100.031 124.575 99.2989C124.462 98.5855 124.934 97.9146 125.636 97.7743L125.69 97.7646L132.916 96.6224Z" fill="black"/>
<path d="M159.305 97.038C159.418 96.3246 160.074 95.8321 160.785 95.9151L160.84 95.9227L168.066 97.0652C168.797 97.1809 169.297 97.8678 169.181 98.5995C169.068 99.3129 168.412 99.8054 167.701 99.7223L167.647 99.7148L160.421 98.5723C159.689 98.4566 159.19 97.7697 159.305 97.038Z" fill="black"/>
<path d="M131.758 94.7283C133.51 94.7283 134.935 96.128 134.976 97.8703L134.977 97.9473V105.667C134.977 107.445 133.535 108.886 131.758 108.886C130.005 108.886 128.58 107.487 128.539 105.744L128.538 105.667V97.9473C128.538 96.1695 129.98 94.7283 131.758 94.7283Z" fill="black"/>
<path d="M162.292 94.0283C164.045 94.0284 165.47 95.4282 165.51 97.1704L165.511 97.2475L165.511 104.967C165.511 106.745 164.07 108.187 162.292 108.186C160.54 108.186 159.115 106.787 159.074 105.044L159.073 104.967L159.073 97.2473C159.073 95.4694 160.515 94.0283 162.292 94.0283Z" fill="black"/>
<path d="M154.794 87.2256C154.852 86.2844 155.646 85.5634 156.581 85.589L156.641 85.5917L171.996 86.5314C172.957 86.5903 173.689 87.4172 173.63 88.3784C173.573 89.3195 172.779 90.0405 171.843 90.0149L171.783 90.0123L156.428 89.0725C155.467 89.0137 154.735 88.1868 154.794 87.2256Z" fill="#62360D"/>
<path d="M143.973 105.448L148.491 106.068L148.437 106.434C148.345 107.021 148.227 107.548 147.916 108.808L147.612 110.036C147.568 110.215 147.53 110.375 147.493 110.53L147.475 110.608C147.051 112.432 146.927 113.606 147.088 114.277C147.113 114.383 147.142 114.454 147.167 114.495C147.176 114.509 147.178 114.512 147.186 114.518C147.218 114.541 147.278 114.569 147.383 114.598C147.54 114.64 147.748 114.667 148.008 114.672L148.097 114.673V119.233C145.206 119.233 143.246 117.81 142.653 115.34C142.292 113.833 142.44 112.211 142.96 109.894L143.034 109.574C143.079 109.378 143.126 109.182 143.18 108.961L143.613 107.205C143.802 106.427 143.882 106.049 143.942 105.662L143.973 105.448Z" fill="#EBBAAA"/>
<path d="M139.85 45.3881C127.491 45.3881 120.152 48.4783 113.849 51.7032C111.748 49.0158 108.852 40.0637 118.839 34.6381C139.85 23.2229 160.477 22.3595 179.913 34.6381C195.015 44.1787 203.672 76.0257 194.348 87.4477C192.51 82.0727 190.7 76.832 187.126 72.7542C169.266 52.3757 149.699 45.3881 139.85 45.3881Z" fill="#B82E36"/>
</svg>
