<svg width="300" height="400" viewBox="0 0 300 400" fill="none" xmlns="http://www.w3.org/2000/svg">
<path d="M168.125 299.25C171.132 299.25 173.576 301.663 173.624 304.659L173.625 304.75V361.75C173.625 364.787 171.163 367.25 168.125 367.25C165.118 367.25 162.674 364.836 162.626 361.841L162.625 361.75V304.75C162.625 301.712 165.087 299.25 168.125 299.25Z" fill="#EBBAAA"/>
<path d="M131.125 299.25C134.132 299.25 136.576 301.663 136.624 304.659L136.625 304.75V361.75C136.625 364.787 134.163 367.25 131.125 367.25C128.118 367.25 125.674 364.836 125.626 361.841L125.625 361.75V304.75C125.625 301.712 128.087 299.25 131.125 299.25Z" fill="#EBBAAA"/>
<path d="M161.417 363.895C161.417 363.895 161.542 355.627 162.165 356.255C162.789 356.88 165.655 358.51 169.522 358.51C173.387 358.51 175.756 357.132 176.629 356.255C177.502 355.377 178.313 363.895 178.313 363.895H161.417Z" fill="#3F4347"/>
<path d="M174.411 356.973C175.261 355.593 176.573 355.49 177.617 354.683C178.159 355.41 178.148 356.495 178.659 357.933L181.832 361.625L187.325 367.18L192.49 369.795L189.511 373.398C187.412 371.855 175.413 359.798 174.411 356.973Z" fill="#C2C6CA"/>
<path d="M156.859 376.097C156.859 376.097 156.58 369.927 157.84 366.485C159.1 363.042 160.304 354.202 160.304 354.202C160.304 354.202 162.691 356.66 167.054 356.585L175.276 356.445C175.276 356.445 182.697 366.197 184.836 367.475C186.974 368.755 198.957 371.032 198.957 371.032C201.221 370.995 203.088 372.797 203.128 375.062L203.165 377.112L178.309 377.54L156.859 376.097Z" fill="#E0E2E4"/>
<path d="M178.116 361.75C177.475 360.81 176.166 358.78 176.056 358.185C170.332 359.277 162.592 359.29 159.699 358.097C158.99 360.345 158.675 363.375 158.675 363.375C159.192 364.36 164.747 366.18 166.875 366.515C167.983 365.627 168.816 365.39 169.681 364.877C171.038 364.075 175.581 361.96 178.116 361.75Z" fill="#C2C6CA"/>
<path d="M165.745 371.017C164.858 370.542 159.807 368.83 157.539 367.627C156.454 368.442 156.718 373.175 156.766 375.907L167.758 376.212C167.098 374.155 166.043 371.3 165.745 371.017Z" fill="#C2C6CA"/>
<path d="M171.923 369.8C173.084 370.152 174.028 370.135 174.572 369.74C175.975 368.705 175.135 367.047 174.778 366.397C175.431 367.2 176.079 368.005 176.579 368.875C177.367 370.237 177.679 371.715 177.101 372.642C176.063 374.315 173.692 373.467 172.186 372.742L158.208 366.012L171.923 369.8Z" fill="#C2C6CA"/>
<path d="M192.652 371.93C195.779 372.248 199.775 372.303 200.506 371.298L195.363 369.895L188.578 367.405L186.846 368.305L187.108 369.045L183.405 371.47L185.067 373.675L185.092 373.665C186.308 373.098 189.495 371.608 192.652 371.93Z" fill="#C2C6CA"/>
<path d="M178.5 357.654C178.905 357.485 179.37 357.677 179.539 358.082C179.702 358.472 179.53 358.919 179.154 359.102L179.112 359.121L177.799 359.668C177.394 359.837 176.929 359.646 176.76 359.241C176.597 358.85 176.769 358.404 177.145 358.221L177.187 358.202L178.5 357.654Z" fill="#F1F5F9"/>
<path d="M180.537 359.854C180.942 359.685 181.407 359.877 181.576 360.282C181.738 360.672 181.566 361.119 181.191 361.301L181.148 361.321L179.835 361.868C179.43 362.037 178.965 361.846 178.796 361.441C178.633 361.05 178.805 360.604 179.181 360.421L179.224 360.402L180.537 359.854Z" fill="#F1F5F9"/>
<path d="M182.322 362.057C182.727 361.888 183.192 362.078 183.362 362.483C183.525 362.873 183.354 363.32 182.978 363.504L182.936 363.523L181.623 364.073C181.218 364.242 180.753 364.052 180.583 363.647C180.42 363.257 180.591 362.81 180.966 362.627L181.009 362.607L182.322 362.057Z" fill="#F1F5F9"/>
<path d="M184.358 364.257C184.762 364.088 185.228 364.278 185.397 364.683C185.561 365.073 185.39 365.52 185.014 365.704L184.972 365.723L183.659 366.273C183.254 366.442 182.788 366.252 182.619 365.847C182.455 365.457 182.627 365.01 183.002 364.826L183.045 364.807L184.358 364.257Z" fill="#F1F5F9"/>
<path d="M187.393 366.44C187.797 366.27 188.263 366.461 188.432 366.866C188.596 367.256 188.424 367.703 188.049 367.886L188.006 367.905L186.693 368.455C186.289 368.625 185.823 368.434 185.654 368.03C185.49 367.639 185.662 367.193 186.037 367.009L186.08 366.99L187.393 366.44Z" fill="#F1F5F9"/>
<path d="M156.547 375.848L179.968 376.493L203.218 375.038L203.637 378.043C203.765 378.968 203.075 379.803 202.144 379.85L180.531 380.955L168.458 381.298L156.375 381.113L156.547 375.848Z" fill="#F1F5F9"/>
<path d="M203.292 378.603L203.746 380.032C201.708 380.679 181.541 381.679 173.866 381.823L173.138 381.834C171.355 381.854 168.704 381.834 165.229 381.781L162.759 381.741L156.467 381.627L156.491 380.128L163.045 380.245L165.655 380.287C169.251 380.34 171.925 380.357 173.612 380.328L174.296 380.314C181.962 380.145 201.105 379.189 203.231 378.62L203.292 378.603Z" fill="#9EA5AC"/>
<path d="M125.589 356.973C124.739 355.593 123.427 355.49 122.383 354.683C121.841 355.41 121.852 356.495 121.341 357.933L118.168 361.625L112.675 367.18L107.51 369.795L110.489 373.398C112.588 371.855 124.587 359.798 125.589 356.973Z" fill="#C2C6CA"/>
<path d="M143.141 376.097C143.141 376.097 143.42 369.927 142.16 366.485C140.9 363.042 139.696 354.202 139.696 354.202C139.696 354.202 137.309 356.66 132.946 356.585L124.724 356.445C124.724 356.445 117.303 366.197 115.165 367.475C113.026 368.755 101.043 371.032 101.043 371.032C98.7792 370.995 96.912 372.797 96.8718 375.062L96.8354 377.112L121.691 377.54L143.141 376.097Z" fill="#E0E2E4"/>
<path d="M121.884 361.75C122.525 360.81 123.834 358.78 123.944 358.185C129.668 359.277 137.408 359.29 140.301 358.097C141.011 360.345 141.325 363.375 141.325 363.375C140.808 364.36 135.254 366.18 133.125 366.515C132.017 365.627 131.184 365.39 130.319 364.877C128.962 364.075 124.419 361.96 121.884 361.75Z" fill="#C2C6CA"/>
<path d="M134.255 371.017C135.142 370.542 140.193 368.83 142.461 367.627C143.546 368.442 143.282 373.175 143.234 375.907L132.242 376.212C132.902 374.155 133.957 371.3 134.255 371.017Z" fill="#C2C6CA"/>
<path d="M128.077 369.8C126.916 370.152 125.972 370.135 125.428 369.74C124.025 368.705 124.865 367.047 125.222 366.397C124.57 367.2 123.921 368.005 123.421 368.875C122.633 370.237 122.321 371.715 122.9 372.642C123.937 374.315 126.308 373.467 127.814 372.742L141.793 366.012L128.077 369.8Z" fill="#C2C6CA"/>
<path d="M107.348 371.93C104.221 372.248 100.225 372.303 99.4937 371.298L104.637 369.895L111.422 367.405L113.155 368.305L112.892 369.045L116.595 371.47L114.933 373.675L114.908 373.665C113.693 373.098 110.506 371.608 107.348 371.93Z" fill="#C2C6CA"/>
<path d="M120.461 358.082C120.624 357.691 121.062 357.499 121.456 357.637L121.5 357.654L122.813 358.202C123.218 358.371 123.409 358.836 123.24 359.241C123.077 359.631 122.639 359.823 122.245 359.685L122.201 359.668L120.888 359.121C120.483 358.952 120.292 358.487 120.461 358.082Z" fill="#F1F5F9"/>
<path d="M118.425 360.282C118.587 359.891 119.026 359.699 119.42 359.837L119.464 359.854L120.777 360.402C121.182 360.571 121.373 361.036 121.204 361.441C121.041 361.831 120.603 362.023 120.209 361.885L120.165 361.868L118.852 361.321C118.447 361.152 118.256 360.687 118.425 360.282Z" fill="#F1F5F9"/>
<path d="M116.639 362.483C116.802 362.093 117.241 361.902 117.635 362.04L117.678 362.057L118.991 362.607C119.396 362.777 119.587 363.242 119.417 363.647C119.254 364.037 118.815 364.228 118.421 364.09L118.377 364.073L117.064 363.523C116.66 363.353 116.469 362.888 116.639 362.483Z" fill="#F1F5F9"/>
<path d="M114.602 364.683C114.766 364.293 115.204 364.102 115.598 364.24L115.642 364.257L116.955 364.807C117.36 364.977 117.55 365.442 117.381 365.847C117.217 366.237 116.779 366.428 116.385 366.29L116.341 366.273L115.028 365.723C114.623 365.553 114.433 365.088 114.602 364.683Z" fill="#F1F5F9"/>
<path d="M111.568 366.866C111.731 366.475 112.17 366.284 112.564 366.423L112.608 366.44L113.921 366.99C114.325 367.159 114.516 367.625 114.346 368.03C114.183 368.42 113.744 368.611 113.35 368.472L113.307 368.455L111.994 367.905C111.589 367.736 111.398 367.27 111.568 366.866Z" fill="#F1F5F9"/>
<path d="M143.452 375.848L120.032 376.493L96.7816 375.038L96.3633 378.043C96.2349 378.968 96.925 379.803 97.8559 379.85L119.468 380.955L131.542 381.298L143.624 381.113L143.452 375.848Z" fill="#F1F5F9"/>
<path d="M96.7079 378.603C98.4945 379.169 117.958 380.144 125.704 380.314L126.679 380.332C128.375 380.355 130.949 380.337 134.345 380.287L137.215 380.241L143.509 380.128L143.533 381.627L136.98 381.745L134.166 381.79C130.855 381.838 128.337 381.854 126.656 381.832L126.363 381.827C118.943 381.7 98.7228 380.705 96.3217 380.052L96.2544 380.032L96.7079 378.603Z" fill="#9EA5AC"/>
<path d="M150 273.442C165.878 273.442 178.75 267.566 178.75 260.317C178.75 253.068 165.878 247.192 150 247.192C134.122 247.192 121.25 253.068 121.25 260.317C121.25 267.566 134.122 273.442 150 273.442Z" fill="#35383E"/>
<path d="M150.25 245.192H114L120.25 333.692L122.929 347.442H139.929L141.5 336.192L150.25 245.192Z" fill="#35383E"/>
<path d="M149.75 245.192H186L179.75 333.692L177.071 347.442H160.071L158.5 336.192L149.75 245.192Z" fill="#35383E"/>
<path d="M159.25 346.5H178.25L177.25 352H160.186L159.25 346.5Z" fill="#1D1F23"/>
<path d="M140.75 346.5H121.75L122.75 352H139.814L140.75 346.5Z" fill="#1D1F23"/>
<path d="M150 151.75C165.188 151.75 177.5 145.874 177.5 138.625C177.5 131.376 165.188 125.5 150 125.5C134.812 125.5 122.5 131.376 122.5 138.625C122.5 145.874 134.812 151.75 150 151.75Z" fill="#40424E"/>
<path d="M191.292 156.241C187.599 148.186 182.29 146 182.29 146L179 190.264V257C214.94 245.827 210.043 197.136 191.292 156.241Z" fill="#40424E"/>
<path d="M108.707 156.241C112.401 148.186 117.71 146 117.71 146L121 190.264V257C85.0597 245.827 89.9573 197.136 108.707 156.241Z" fill="#40424E"/>
<path d="M113.009 156.216C112.713 150.268 116.654 144.937 122.427 143.477L150 136.5L177.573 143.477C183.346 144.937 187.287 150.268 186.991 156.216L185 196.25L187.41 252.402C187.462 253.615 186.643 254.687 185.454 254.931C179.545 256.144 162.104 259.5 150 259.5C137.896 259.5 120.455 256.144 114.546 254.931C113.357 254.687 112.538 253.615 112.59 252.402L115 196.25L113.009 156.216Z" fill="#313C52"/>
<path d="M121.25 232.5C121.25 224.63 127.63 218.25 135.5 218.25H150H164.5C172.37 218.25 178.75 224.63 178.75 232.5V233.875V249.5H121.25V233.875V232.5Z" fill="#40424E"/>
<path d="M159.37 163.356C167.512 161.751 182.389 140.931 175.909 135.269C170.545 130.583 160.642 137.777 159.37 142.793C158.352 146.805 155.553 156.669 153.772 159.344C151.737 161.267 151.228 164.961 159.37 163.356Z" fill="#40424E"/>
<path d="M140.63 163.356C132.488 161.751 117.611 140.931 124.091 135.269C129.455 130.583 139.358 137.777 140.63 142.793C141.647 146.805 144.446 156.669 146.227 159.344C148.263 161.267 148.772 164.961 140.63 163.356Z" fill="#40424E"/>
<path d="M160 157.5C160.946 157.5 161.717 158.251 161.749 159.19L161.75 159.25V199.25C161.75 200.216 160.966 201 160 201C159.054 201 158.283 200.249 158.251 199.31L158.25 199.25V159.25C158.25 158.284 159.034 157.5 160 157.5Z" fill="#325944"/>
<path d="M140 157.5C140.946 157.5 141.717 158.251 141.749 159.19L141.75 159.25V183C141.75 183.966 140.966 184.75 140 184.75C139.054 184.75 138.283 183.999 138.251 183.06L138.25 183V159.25C138.25 158.284 139.034 157.5 140 157.5Z" fill="#325944"/>
<path d="M160 197.25C160.672 197.25 161.22 197.781 161.249 198.446L161.25 198.5V202.25C161.25 202.94 160.69 203.5 160 203.5C159.328 203.5 158.78 202.969 158.751 202.304L158.75 202.25V198.5C158.75 197.81 159.31 197.25 160 197.25Z" fill="#40424E"/>
<path d="M140 181C140.672 181 141.22 181.531 141.249 182.196L141.25 182.25V186C141.25 186.69 140.69 187.25 140 187.25C139.328 187.25 138.78 186.719 138.751 186.054L138.75 186V182.25C138.75 181.56 139.31 181 140 181Z" fill="#40424E"/>
<rect x="141.25" y="120.25" width="17.5" height="28.75" rx="8.75" fill="#EBBAAA"/>
<path d="M149.984 149C140.609 143.5 141.234 135.5 141.234 135.5C132.891 143.4 132.515 152.014 138.182 161.902C139.234 149.875 149.984 149 149.984 149Z" fill="#6686B7"/>
<path d="M150.016 149C159.391 143.5 158.766 135.5 158.766 135.5C167.109 143.4 167.485 152.014 161.818 161.902C160.766 149.875 150.016 149 150.016 149Z" fill="#6686B7"/>
<path opacity="0.5" d="M187.75 102.442C193.273 102.442 197.75 97.9649 197.75 92.4421C197.75 86.9191 193.273 82.4421 187.75 82.4421C182.227 82.4421 177.75 86.9191 177.75 92.4421C177.75 97.9649 182.227 102.442 187.75 102.442Z" fill="#C99584"/>
<path opacity="0.5" d="M112.75 102.442C107.227 102.442 102.75 97.9649 102.75 92.4421C102.75 86.9191 107.227 82.4421 112.75 82.4421C118.273 82.4421 122.75 86.9191 122.75 92.4421C122.75 97.9649 118.273 102.442 112.75 102.442Z" fill="#C99584"/>
<path d="M112.5 69.5C112.5 48.7892 129.289 32 150 32C170.711 32 187.5 48.7892 187.5 69.5V88.6175V97C187.5 117.711 170.711 134.5 150 134.5C129.289 134.5 112.5 117.711 112.5 97V88.6175V69.5Z" fill="#F4D5CC"/>
<path fill-rule="evenodd" clip-rule="evenodd" d="M159.784 108.151V111.617C159.784 116.942 155.467 121.259 150.142 121.259C144.817 121.259 140.5 116.942 140.5 111.617V108.151H159.784Z" fill="#393939"/>
<mask id="mask0_0_7860" style="mask-type:luminance" maskUnits="userSpaceOnUse" x="140" y="106" width="20" height="16">
<path fill-rule="evenodd" clip-rule="evenodd" d="M159.656 106.5C159.74 107.012 159.784 107.536 159.784 108.072V111.617C159.784 116.942 155.467 121.259 150.142 121.259C144.817 121.259 140.5 116.942 140.5 111.617V108.072C140.5 107.536 140.544 107.012 140.627 106.5H159.656Z" fill="white"/>
</mask>
<g mask="url(#mask0_0_7860)">
<path d="M149.627 124.652C146.416 124.652 143.813 123.234 143.813 121.486C143.813 119.737 146.416 118.319 149.627 118.319C152.839 118.319 155.442 119.737 155.442 121.486C155.442 123.234 152.839 124.652 149.627 124.652Z" fill="#FF6C6C"/>
<rect width="19.2837" height="3.97675" transform="matrix(-1 0 0 1 159.784 107.651)" fill="white"/>
</g>
<path d="M188.748 59.0636C188.806 57.4961 187.671 56.1924 186.25 56.1924C184.776 56.1924 183.622 57.5909 183.762 59.2096L186.115 86.6354C186.155 87.0939 186.503 87.4424 186.919 87.4424C187.353 87.4424 187.708 87.0656 187.727 86.5894L188.748 59.0636Z" fill="#A9D0BA"/>
<path d="M111.252 59.0636C111.194 57.4961 112.329 56.1924 113.75 56.1924C115.224 56.1924 116.378 57.5909 116.239 59.2096L113.885 86.6354C113.845 87.0939 113.497 87.4424 113.081 87.4424C112.647 87.4424 112.292 87.0656 112.274 86.5894L111.252 59.0636Z" fill="#A9D0BA"/>
<path d="M161.748 49.3862C176.746 49.3862 184.631 49.2057 185.245 63.1037C187.759 67.6235 191.314 67.273 191.902 59.0477C193.781 32.7051 168.497 6.61185 141.5 24.819L150 36.7908C150 36.7908 159.248 40.532 161.748 49.3862Z" fill="#688274"/>
<path d="M138.252 49.3862C123.253 49.3862 115.369 49.2057 114.754 63.1037C112.241 67.6235 108.686 67.273 108.099 59.0477C106.219 32.7051 131.503 6.61185 158.5 24.819L150 36.7908C150 36.7908 140.752 40.532 138.252 49.3862Z" fill="#688274"/>
<path d="M161.25 49.0002C158.818 41.2377 154.125 39.6251 150 36.7501C157.875 36.7502 175.255 27.6251 180.812 45.8252C185.812 62.2002 193.062 68.9502 193.062 68.9502H185.812C161.562 68.9502 164.052 57.9435 161.25 49.0002Z" fill="#82A190"/>
<path d="M138.833 49.0002C141.265 41.2377 145.958 39.6251 150.083 36.7501C142.208 36.7502 124.828 27.6251 119.271 45.8252C114.271 62.2002 107.021 68.9502 107.021 68.9502H114.271C138.521 68.9502 136.031 57.9435 138.833 49.0002Z" fill="#82A190"/>
<path d="M158.754 69.7966C158.833 68.4416 159.978 67.4018 161.326 67.4433L161.396 67.4465L176.396 68.3215C177.774 68.4019 178.826 69.5844 178.746 70.9628C178.667 72.3178 177.523 73.3576 176.174 73.3161L176.104 73.313L161.104 72.438C159.726 72.3576 158.674 71.175 158.754 69.7966Z" fill="#393939"/>
<path d="M138.604 67.4465C139.983 67.3661 141.165 68.4183 141.246 69.7966C141.325 71.1516 140.309 72.3174 138.965 72.4329L138.896 72.438L123.896 73.313C122.517 73.3934 121.335 72.3412 121.254 70.9628C121.175 69.6078 122.191 68.442 123.535 68.3265L123.604 68.3215L138.604 67.4465Z" fill="#393939"/>
<path d="M148.482 88.7632L152.018 91.1207C150.816 92.9234 149.875 95.6295 149.875 97.5982C149.875 99.4964 150.56 100.294 152.659 100.316L152.75 100.317V104.567C148.114 104.567 145.625 101.767 145.625 97.5982C145.625 94.7744 146.8 91.3466 148.394 88.8959L148.482 88.7632Z" fill="#EBBAAA"/>
<path d="M164.884 76.0439C166.516 76.0439 167.843 77.3461 167.883 78.9677L167.884 79.0439V86.0164C167.884 87.6733 166.541 89.0164 164.884 89.0164C163.253 89.0164 161.926 87.7143 161.885 86.0927L161.884 86.0164V79.0439C161.884 77.3871 163.227 76.0439 164.884 76.0439Z" fill="black"/>
<path d="M133.615 76.0439C135.246 76.0439 136.574 77.3461 136.614 78.9677L136.615 79.0439V86.0164C136.615 87.6733 135.272 89.0164 133.615 89.0164C131.984 89.0164 130.656 87.7143 130.616 86.0927L130.615 86.0164V79.0439C130.615 77.3871 131.958 76.0439 133.615 76.0439Z" fill="black"/>
</svg>
