<svg width="300" height="400" viewBox="0 0 300 400" fill="none" xmlns="http://www.w3.org/2000/svg">
<path d="M170.572 311.966C175.174 311.966 178.913 315.659 178.987 320.243L178.988 320.382V364.567C178.988 369.215 175.22 372.983 170.572 372.983C165.971 372.983 162.232 369.29 162.158 364.706L162.156 364.567V320.382C162.156 315.734 165.924 311.966 170.572 311.966Z" fill="#9EA4AC"/>
<path d="M133.088 312.279C137.662 311.779 141.78 315.044 142.352 319.592L142.368 319.731L146.768 359.991C147.273 364.611 143.936 368.766 139.316 369.271C134.742 369.771 130.624 366.506 130.052 361.957L130.035 361.819L125.636 321.559C125.131 316.939 128.467 312.784 133.088 312.279Z" fill="#9EA4AC"/>
<path d="M152.163 278.596C166.034 278.596 177.279 272.474 177.279 264.921C177.279 257.368 166.034 251.245 152.163 251.245C138.292 251.245 127.047 257.368 127.047 264.921C127.047 272.474 138.292 278.596 152.163 278.596Z" fill="#2A2D34"/>
<path d="M114.732 249.395H150.236L148.921 344.02L146.818 351.437L126.698 350.385L123.644 342.312L114.732 249.395Z" fill="#2A2D34"/>
<path d="M149.898 250.979H185.523L184.163 341.97L181.27 349.597L160.756 353.127L158.847 344.075L149.898 250.979Z" fill="#2A2D34"/>
<path d="M124.594 345.387H147.344L148.658 347.487L147.344 351.7L142.084 353.405H126.567L125.646 351.7L126.172 349.327L124.068 348.802L124.594 345.387Z" fill="#474D5C"/>
<path d="M159.409 347.106L183.373 345.777L181.401 349.985L181.795 352.22L176.141 353.01H170.092L159.966 354.109L158.783 351.695L159.409 347.106Z" fill="#474D5C"/>
<path d="M101.211 378.802C101.159 372.767 101.981 369.094 107.227 366.629C112.474 364.162 117.416 359.422 126.493 355.354C126.493 355.354 127.688 355.129 129.633 356.182C131.292 357.079 133.424 359.282 136.636 359.254C140.124 359.222 143.233 358.484 145.164 357.469C145.998 355.184 147.849 355.169 147.849 355.169C147.849 355.169 150.455 360.129 150.499 365.112C150.542 370.094 150.538 378.372 150.538 378.372L101.211 378.802Z" fill="#363636"/>
<path d="M124.599 355.722C124.959 355.562 125.379 355.723 125.539 356.083C125.743 356.541 125.89 357.044 125.99 357.592L126.024 357.782C126.143 358.503 126.17 359.146 126.17 360.214C126.17 360.714 125.671 361.054 125.211 360.882L125.171 360.866L121.702 359.336L122.443 362.02C122.59 362.553 122.102 363.037 121.577 362.898L121.538 362.887L118.055 361.762L118.055 364.914C118.055 365.44 117.508 365.779 117.041 365.559L117.003 365.54L114.638 364.258L114.638 366.622C114.638 367.001 114.341 367.311 113.968 367.333L113.926 367.334C113.547 367.334 113.237 367.038 113.215 366.664L113.214 366.622V363.062C113.214 362.537 113.761 362.197 114.227 362.417L114.265 362.436L116.631 363.719L116.631 360.784C116.631 360.316 117.074 359.98 117.52 360.095L117.561 360.107L120.719 361.126L119.931 358.269C119.775 357.703 120.329 357.209 120.867 357.413L120.905 357.428L124.728 359.114L124.724 359.022C124.703 358.624 124.667 358.288 124.605 357.931L124.59 357.848C124.509 357.405 124.393 357.009 124.238 356.661C124.079 356.302 124.24 355.881 124.599 355.722Z" fill="white"/>
<path d="M148.951 357.794C147.937 359.169 144.284 359.994 142.909 360.194C141.535 360.397 140.062 360.219 140.651 362.492C141.068 364.099 145.073 363.452 146.639 363.437C147.913 363.427 149.699 367.274 150.363 365.967C150.363 361.497 149.52 359.077 148.951 357.794Z" fill="#141413"/>
<path d="M103.196 367.092C104.806 366.507 106.511 366.067 109.779 365.324L108.39 369.324L108.43 373.879L99.1269 373.962C98.7472 373.964 98.0689 373.457 98.3927 371.404C98.7974 368.839 100.909 367.919 103.196 367.092Z" fill="#363636"/>
<path d="M118.586 366.271L122.92 374.534L118.885 376.65L114.551 368.388L118.586 366.271Z" fill="white"/>
<path d="M124.558 363.146L129.751 373.071L125.714 375.183L120.521 365.258L124.558 363.146Z" fill="white"/>
<path d="M130.413 359.709L137.593 373.696L133.54 375.777L126.36 361.79L130.413 359.709Z" fill="white"/>
<path d="M150.694 377.595L150.424 372.802L108.711 373.45L98.3105 372.687L97.9927 376.362C97.8831 377.632 98.8348 378.745 100.105 378.832L108.763 379.43L149.574 378.797C150.221 378.787 150.73 378.24 150.694 377.595Z" fill="#DBDBDB"/>
<path d="M207.106 378.802C207.159 372.767 206.337 369.094 201.09 366.629C195.843 364.162 190.901 359.422 181.824 355.354C181.824 355.354 180.63 355.129 178.685 356.182C177.025 357.079 174.893 359.282 171.681 359.254C168.193 359.222 165.085 358.484 163.154 357.469C162.319 355.184 160.469 355.169 160.469 355.169C160.469 355.169 157.862 360.129 157.819 365.112C157.775 370.094 157.78 378.372 157.78 378.372L207.106 378.802Z" fill="#363636"/>
<path d="M182.778 356.083C182.938 355.723 183.359 355.562 183.718 355.722C184.077 355.881 184.239 356.302 184.079 356.661C183.924 357.009 183.809 357.405 183.727 357.848C183.656 358.236 183.616 358.593 183.594 359.022L183.589 359.114L187.413 357.428C187.949 357.191 188.519 357.668 188.396 358.229L188.386 358.269L187.598 361.126L190.756 360.107C191.202 359.963 191.658 360.281 191.685 360.741L191.686 360.784L191.686 363.718L194.052 362.436C194.514 362.186 195.073 362.505 195.102 363.02L195.103 363.062V366.622C195.103 367.015 194.785 367.334 194.392 367.334C194.012 367.334 193.703 367.038 193.681 366.664L193.68 366.622L193.68 364.257L191.314 365.54C190.852 365.791 190.293 365.472 190.264 364.957L190.263 364.914L190.263 361.762L186.78 362.887C186.254 363.057 185.749 362.59 185.865 362.06L185.875 362.02L186.615 359.336L183.146 360.866C182.689 361.067 182.177 360.748 182.148 360.258L182.147 360.214L182.148 359.945C182.153 358.946 182.191 358.33 182.327 357.592C182.427 357.044 182.574 356.541 182.778 356.083Z" fill="white"/>
<path d="M159.367 357.794C160.38 359.169 164.034 359.994 165.408 360.194C166.783 360.397 168.256 360.219 167.666 362.492C167.25 364.099 163.244 363.452 161.678 363.437C160.405 363.427 158.619 367.274 157.954 365.967C157.954 361.497 158.797 359.077 159.367 357.794Z" fill="#141413"/>
<path d="M205.121 367.092C203.512 366.507 201.807 366.067 198.538 365.324L199.927 369.324L199.888 373.879L209.19 373.962C209.57 373.964 210.248 373.457 209.925 371.404C209.52 368.839 207.409 367.919 205.121 367.092Z" fill="#363636"/>
<path d="M189.731 366.271L193.766 368.388L189.432 376.65L185.397 374.534L189.731 366.271Z" fill="white"/>
<path d="M183.76 363.146L187.796 365.258L182.603 375.183L178.566 373.071L183.76 363.146Z" fill="white"/>
<path d="M177.905 359.709L181.958 361.79L174.777 375.777L170.724 373.696L177.905 359.709Z" fill="white"/>
<path d="M157.624 377.595L157.894 372.802L199.606 373.45L210.007 372.687L210.325 376.362C210.434 377.632 209.483 378.745 208.212 378.832L199.554 379.43L158.743 378.797C158.096 378.787 157.587 378.24 157.624 377.595Z" fill="#DBDBDB"/>
<rect x="96.9758" y="177.483" width="28.8958" height="4.3886" transform="rotate(18 96.9758 177.483)" fill="#F1EDED"/>
<path d="M115.62 165.801C115.84 156.75 123.086 149.442 132.134 149.146L153.259 148.455C154.98 148.401 156.704 148.49 158.409 148.726L179.03 151.578C188.127 152.836 194.601 161.06 193.685 170.198L189.784 209.092L191.741 264.814C191.76 265.291 169.077 264.839 168.6 264.814H132.134L111.408 261.686C110.95 261.662 110.6 261.263 110.638 260.805L114.688 204.248L115.62 165.801Z" fill="#705B55"/>
<path d="M149.957 172.023C160.437 172.023 168.933 163.528 168.933 153.048C168.933 142.568 160.437 134.073 149.957 134.073C139.478 134.073 130.982 142.568 130.982 153.048C130.982 163.528 139.478 172.023 149.957 172.023Z" fill="#503F39"/>
<rect x="139.67" y="132.633" width="23.1436" height="31.2965" rx="9.97042" fill="#EBBAAA"/>
<path d="M93.8451 186.131C96.2897 181.345 102.151 179.446 106.937 181.891C111.723 184.336 113.621 190.197 111.177 194.983C107.754 201.685 104.138 215.264 102.285 228.332L102.203 228.918C101.358 235.048 100.987 240.521 101.141 244.53L101.155 244.842C101.217 246.175 101.337 247.255 101.486 248.015L101.498 248.076L101.506 248.085C104.27 251.249 104.747 255.961 102.404 259.674L102.317 259.81C99.3757 264.308 93.3452 265.57 88.8471 262.629C85.6327 260.527 83.8755 257.456 82.8434 253.706C82.1768 251.284 81.8181 248.487 81.6943 245.281C81.484 239.834 81.9627 233.03 83.016 225.6C85.1446 210.585 89.2732 195.082 93.8451 186.131Z" fill="#EBBAAA"/>
<rect x="102.364" y="146.656" width="38.8478" height="94.5847" rx="19.4238" transform="rotate(16.5 102.364 146.656)" fill="#314367"/>
<path d="M81.5484 249.355C79.8653 244.516 78.3624 229.236 80.4663 221.346L110.005 221.346C106.796 231.34 106.007 242.254 103.64 255.141C98.117 255.404 83.6524 255.404 81.5484 249.355Z" fill="#314367"/>
<path d="M113.503 152.704V154.808C109.316 154.808 105.781 157.399 102.703 162.41L102.61 162.562C100.019 166.834 97.8735 172.574 95.8041 180.175L95.4864 181.356C94.8533 183.738 94.3186 185.922 93.3887 189.86L92.4483 193.839C91.7137 196.918 91.2909 198.572 90.7928 200.294L90.6807 200.677C90.2903 201.997 89.9163 203.095 89.5413 204.005L89.4877 204.133C86.867 210.365 85.258 217.72 84.5029 225.686C83.9528 231.489 83.9021 237.177 84.1768 241.664C84.3022 243.712 84.5375 245.745 84.8521 247.717C84.9975 248.629 85.1525 249.482 85.3128 250.278L85.3839 250.627C85.4074 250.74 85.4307 250.851 85.4538 250.959L85.5209 251.269L85.6 251.626L83.5462 252.082L83.4322 251.566L83.3602 251.228C83.336 251.114 83.3117 250.996 83.2872 250.876L83.2501 250.693C83.0845 249.87 82.9244 248.989 82.7744 248.049C82.4496 246.012 82.2066 243.913 82.0768 241.793L82.0469 241.278C81.8002 236.772 81.8681 231.186 82.4083 225.488C83.1701 217.451 84.7843 210.003 87.4238 203.616L87.5483 203.318C87.9243 202.424 88.3089 201.293 88.7181 199.894L88.9225 199.182C89.4492 197.314 89.9397 195.322 90.906 191.223L91.7846 187.506C92.5487 184.299 93.0382 182.348 93.6636 180.03L93.6945 179.915C95.8355 171.995 98.0618 166.003 100.811 161.471C104.221 155.849 108.337 152.766 113.35 152.705L113.503 152.704Z" fill="white"/>
<path d="M97.0599 189.725L95.2826 197.189C94.2039 201.677 93.5227 204.199 92.8443 206.052L92.7907 206.197C90.5792 212.126 89.09 218.382 88.2619 224.61C87.6173 229.458 87.4135 234.061 87.5855 237.531L87.619 238.142C87.887 242.777 88.7467 253.603 88.9008 254.518L88.9054 254.543L86.8412 254.95C86.6685 254.074 85.7409 242.373 85.4948 237.841C85.2979 234.215 85.5026 229.399 86.1763 224.333C87.0058 218.093 88.4839 211.825 90.6725 205.859L90.8694 205.327C91.4614 203.709 92.0763 201.475 93.0003 197.676L95.0147 189.231L95.3905 187.686C95.8817 185.683 96.3367 183.895 96.7975 182.17L96.9644 181.549C98.9116 174.349 100.85 168.763 103.049 164.477C105.861 158.999 109.028 155.852 112.774 155.48L112.888 155.469L113.064 157.566C110.21 157.806 107.519 160.43 105 165.285L104.921 165.437C102.742 169.684 100.798 175.345 98.8302 182.713L98.6932 183.228C98.1686 185.211 97.6452 187.3 97.0599 189.725Z" fill="white"/>
<path d="M81.6799 255.404L80.8909 248.172C82.574 249.75 97.6788 250.539 104.56 251.065C105.963 252.467 107.006 256.193 103.64 257.245C100.274 258.297 84.4413 257.245 81.6799 255.404Z" fill="#212D44"/>
<path d="M144.142 219.243C143.933 201.581 143.353 177.335 143.353 168.879C141.512 168.879 139.671 168.616 138.356 167.827C138.427 161.031 138.908 154.061 136.019 147.708L113.527 152.04C110.023 156.862 103.859 171.267 102.87 198.86C102.084 220.789 102.896 235.565 102.87 249.75C102.863 253.415 108.111 256.11 108.111 265.972C112.44 267.224 129.921 270.422 144.142 265.972C146.772 248.698 144.451 245.39 144.142 219.243Z" fill="#45587D"/>
<path d="M102.589 237.389C102.589 237.389 131.825 220.645 144.536 218.191C144.536 222.136 145.457 242.383 145.457 252.38C145.457 259.218 144.975 261.936 144.273 263.689C132.526 262.286 108.506 259.849 107.454 259.218C106.139 258.429 105.512 256.003 104.035 253.827C101.537 250.145 102.589 237.389 102.589 237.389Z" fill="#D24138"/>
<path d="M105.744 240.545L103.377 236.863C103.377 236.863 106.928 233.839 111.267 231.998C115.607 230.157 119.946 227.922 119.946 227.922L122.313 230.814L105.744 240.545Z" fill="#B1362E"/>
<path d="M143.879 208.197L102.72 197.283C102.72 190.761 105.35 160.858 113.108 151.653L119.157 150.075L125.732 148.76L137.304 168.222L143.616 169.537L143.879 208.197Z" fill="#B5BDC2"/>
<path d="M143.604 169.142C144.258 169.136 144.793 169.66 144.799 170.314L144.892 179.509C145.144 203.709 145.427 224.669 145.576 226.424L145.599 226.651C145.793 228.687 146.189 237.069 146.361 243.866L146.392 245.156C146.622 255.59 146.401 261.908 145.39 263.425C145.027 263.969 144.292 264.116 143.748 263.753C143.221 263.401 143.067 262.699 143.389 262.161L143.42 262.112C144.014 261.221 144.238 254.239 144.011 244.567L143.978 243.278C143.798 236.594 143.416 228.624 143.24 226.845L143.229 226.737C143.047 225.108 142.713 199.084 142.432 170.337C142.426 169.684 142.951 169.149 143.604 169.142Z" fill="#C9CED1"/>
<path d="M126.314 261.684C121.101 262.101 111.885 260.251 106.533 258.166V267.025C109.558 269.631 117.354 269.37 121.659 269.37C127.012 269.37 134.57 270.932 143.878 269.37L146.114 261.684C140.46 263.163 131.526 261.267 126.314 261.684Z" fill="#304367"/>
<path d="M119.42 151.653C116.475 150.18 123.102 147.182 125.995 145.604C128.362 144.903 133.569 143.29 136.515 147.708C140.197 153.231 143.713 186.144 140.986 179.53C130.466 154.02 123.102 153.494 119.42 151.653Z" fill="#A4ABAF"/>
<path d="M193.312 181.891C198.098 179.446 203.96 181.345 206.404 186.131C210.976 195.082 215.105 210.585 217.233 225.6C218.287 233.03 218.765 239.834 218.555 245.281C218.431 248.487 218.073 251.284 217.406 253.706C216.374 257.456 214.617 260.527 211.402 262.629C206.904 265.57 200.874 264.308 197.933 259.81C195.516 256.114 195.937 251.383 198.66 248.182L198.751 248.076L198.764 248.015C198.913 247.254 199.033 246.172 199.095 244.837L199.108 244.53C199.268 240.393 198.867 234.699 197.964 228.332L197.851 227.547C195.967 214.723 192.427 201.551 189.072 194.983C186.628 190.197 188.526 184.336 193.312 181.891Z" fill="#EBBAAA"/>
<rect width="38.8478" height="94.5848" rx="19.4238" transform="matrix(-0.95882 0.284015 0.284015 0.95882 197.886 146.656)" fill="#314367"/>
<path d="M218.701 249.355C220.384 244.516 221.804 228.563 219.7 220.673L190.244 221.346C193.453 231.34 194.242 242.254 196.609 255.141C202.132 255.404 216.597 255.404 218.701 249.355Z" fill="#314367"/>
<path d="M186.747 152.704C191.829 152.704 195.994 155.792 199.439 161.471C202.153 165.947 204.358 171.846 206.474 179.619L206.825 180.927C207.461 183.324 208.004 185.546 208.95 189.556L209.818 193.226C210.54 196.259 210.959 197.905 211.434 199.559L211.477 199.71C211.889 201.133 212.275 202.285 212.652 203.2L212.701 203.318C215.414 209.77 217.067 217.325 217.841 225.488C218.402 231.406 218.453 237.202 218.172 241.793C218.043 243.913 217.8 246.012 217.475 248.049C217.325 248.989 217.165 249.869 216.999 250.693C216.962 250.879 216.925 251.056 216.889 251.228L216.783 251.719L216.703 252.082L214.649 251.626L214.728 251.269L214.761 251.12C214.818 250.854 214.876 250.577 214.936 250.278C215.097 249.481 215.252 248.629 215.397 247.717C215.712 245.745 215.947 243.712 216.072 241.664C216.347 237.177 216.296 231.489 215.746 225.686C215.003 217.845 213.432 210.595 210.883 204.426L210.761 204.133C210.35 203.156 209.942 201.956 209.512 200.487L209.346 199.909C208.813 198.034 208.335 196.11 207.412 192.2L206.457 188.16C205.663 184.821 205.168 182.848 204.524 180.464L204.366 179.887C202.347 172.524 200.252 166.925 197.738 162.725L197.64 162.562C194.57 157.502 191.046 154.861 186.873 154.809L186.747 154.808V152.704Z" fill="white"/>
<path d="M187.361 155.469C191.157 155.789 194.36 158.943 197.2 164.477C199.431 168.824 201.393 174.509 203.368 181.858L203.452 182.17C204.005 184.24 204.549 186.4 205.158 188.915L206.245 193.472L206.925 196.335C208.02 200.905 208.703 203.459 209.354 205.255L209.43 205.462C211.699 211.546 213.225 217.955 214.073 224.333C214.734 229.305 214.944 234.037 214.765 237.638L214.739 238.121C214.474 242.79 213.595 253.863 213.413 254.921L213.408 254.95L211.344 254.543L211.353 254.486C211.522 253.367 212.383 242.504 212.638 238L212.654 237.726C212.843 234.234 212.644 229.549 211.987 224.61C211.178 218.52 209.736 212.404 207.605 206.593L207.406 206.056C206.726 204.2 206.044 201.673 204.963 197.172L203.189 189.725L202.889 188.489C202.373 186.376 201.899 184.509 201.419 182.713L201.257 182.111C199.344 175.036 197.448 169.568 195.328 165.437C192.813 160.536 190.125 157.864 187.274 157.574L187.185 157.566L187.361 155.469Z" fill="white"/>
<path d="M218.569 255.404L219.358 248.172C217.675 249.75 202.57 250.539 195.689 251.065C194.286 252.467 193.243 256.193 196.609 257.245C199.976 258.297 215.808 257.245 218.569 255.404Z" fill="#212D44"/>
<path d="M156.107 219.243C156.316 201.581 156.896 177.335 156.896 168.879C158.737 168.879 160.578 168.616 161.893 167.827C161.822 161.031 161.342 154.061 164.23 147.708L186.722 152.04C190.226 156.862 196.39 171.267 197.379 198.86C198.166 220.789 197.353 235.565 197.379 249.75C197.386 253.415 192.138 256.11 192.138 265.972C187.81 267.224 170.328 270.422 156.107 265.972C153.477 248.698 155.798 245.39 156.107 219.243Z" fill="#45587D"/>
<path d="M197.661 237.389C197.661 237.389 168.425 220.645 155.713 218.191C155.713 222.136 154.793 242.383 154.793 252.38C154.793 259.218 155.275 261.936 155.976 263.689C167.723 262.286 191.743 259.849 192.795 259.218C194.11 258.429 194.738 256.003 196.214 253.827C198.713 250.145 197.661 237.389 197.661 237.389Z" fill="#D24138"/>
<path d="M194.505 240.545L196.872 236.863C196.872 236.863 193.322 233.839 188.982 231.998C184.643 230.157 180.303 227.922 180.303 227.922L177.936 230.814L194.505 240.545Z" fill="#B1362E"/>
<path d="M156.37 208.197L197.529 197.283C197.529 190.761 194.899 160.858 187.141 151.653L181.092 150.075L174.517 148.76L162.945 168.222L156.633 169.537L156.37 208.197Z" fill="#B5BDC2"/>
<path fill-rule="evenodd" clip-rule="evenodd" d="M181.824 180.032L185.333 184.326L180.756 184.97L177.405 180.867L174.867 177.763L176.756 176.248L177.945 175.293L181.824 180.032ZM177.776 183.506L179.152 185.195L174.578 185.838L171.451 182.015L171.314 181.849L171.416 181.768L174.396 179.375L177.776 183.506ZM172.975 186.063L171.821 184.65L170.847 183.461L167.765 185.931L168.398 186.707L172.975 186.063Z" fill="#45587D"/>
<path d="M156.645 169.142C157.299 169.149 157.823 169.684 157.817 170.337L157.688 183.016C157.443 206.068 157.181 224.904 157.026 226.681L157.004 226.905C156.819 228.859 156.425 237.192 156.254 243.928L156.226 245.144C156.023 254.42 156.243 261.101 156.812 262.084L156.829 262.112C157.192 262.656 157.045 263.391 156.501 263.753C155.957 264.116 155.222 263.969 154.86 263.425C153.838 261.893 153.623 255.461 153.865 244.835L153.894 243.649C154.068 236.891 154.459 228.665 154.65 226.651L154.668 226.476C154.835 224.981 155.176 198.45 155.45 170.314C155.457 169.66 155.992 169.136 156.645 169.142Z" fill="#C9CED1"/>
<path d="M173.936 261.684C179.148 262.101 188.364 260.251 193.716 258.166V267.025C190.691 269.631 182.895 269.37 178.59 269.37C173.238 269.37 165.679 270.932 156.371 269.37L154.135 261.684C159.79 263.163 168.723 261.267 173.936 261.684Z" fill="#304367"/>
<path d="M180.829 151.653C183.774 150.18 177.147 147.182 174.254 145.604C171.887 144.903 166.68 143.29 163.734 147.708C160.052 153.231 156.536 186.144 159.263 179.53C169.783 154.02 177.147 153.494 180.829 151.653Z" fill="#A4ABAF"/>
<path d="M112.211 113.741C120.645 113.741 127.483 107.255 127.483 99.2548C127.483 91.2544 120.645 84.7688 112.211 84.7688C103.776 84.7688 96.939 91.2544 96.939 99.2548C96.939 107.255 103.776 113.741 112.211 113.741Z" fill="#EBBAAA"/>
<path d="M189.794 113.741C198.229 113.741 205.066 107.255 205.066 99.2548C205.066 91.2544 198.229 84.7688 189.794 84.7688C181.36 84.7688 174.522 91.2544 174.522 99.2548C174.522 107.255 181.36 113.741 189.794 113.741Z" fill="#EBBAAA"/>
<path d="M106.567 75.0587C105.171 49.7415 125.324 28.4463 150.68 28.4463C175.936 28.4463 196.052 49.5815 194.805 74.8067L193.04 110.518C191.927 133.046 173.337 150.739 150.782 150.739C128.32 150.739 109.773 133.187 108.536 110.759L106.567 75.0587Z" fill="#EED4CC"/>
<path d="M161.789 120.474C162.76 119.98 163.947 120.367 164.441 121.338C164.935 122.308 164.549 123.496 163.578 123.99C154.156 128.785 144.453 128.705 137.725 123.829C136.843 123.19 136.646 121.957 137.285 121.075C137.924 120.193 139.158 119.996 140.04 120.635C145.473 124.572 153.604 124.639 161.789 120.474Z" fill="#EBBAAA"/>
<path d="M161.499 115.276C162.496 115.276 163.307 116.068 163.339 117.057L163.34 117.117C163.34 120.138 165.141 122.007 168.732 122.007C169.748 122.007 170.573 122.831 170.573 123.848C170.573 124.864 169.748 125.689 168.732 125.689C163.076 125.689 159.658 122.141 159.658 117.117C159.658 116.101 160.482 115.276 161.499 115.276Z" fill="#EBBAAA"/>
<path d="M125.35 94.6855C125.481 92.9732 126.956 91.6851 128.662 91.7749L128.738 91.7799L136.151 92.3479C137.888 92.4811 139.189 93.9978 139.056 95.7357C138.925 97.4481 137.45 98.7361 135.745 98.6463L135.668 98.6413L128.256 98.0733C126.518 97.9402 125.217 96.4234 125.35 94.6855Z" fill="black"/>
<path d="M171.988 91.543C173.727 91.423 175.234 92.7353 175.354 94.4741C175.472 96.1874 174.2 97.6755 172.499 97.8337L172.422 97.8399L165.006 98.3519C163.267 98.472 161.76 97.1597 161.64 95.4208C161.522 93.7076 162.794 92.2194 164.495 92.0612L164.571 92.055L171.988 91.543Z" fill="black"/>
<path d="M124.478 80.2457L139.361 80.6634C140.813 80.7042 141.957 81.9142 141.917 83.3662C141.876 84.7943 140.705 85.9245 139.285 85.9223L139.214 85.9213L124.331 85.5035C122.879 85.4628 121.735 84.2527 121.775 82.8008C121.816 81.3727 122.987 80.2425 124.407 80.2446L124.478 80.2457Z" fill="#393939"/>
<path d="M175.247 80.3383C176.699 80.2919 177.913 81.4311 177.96 82.8829C178.005 84.3108 176.904 85.5092 175.486 85.5923L175.415 85.5955L160.27 86.0795C158.819 86.1259 157.604 84.9867 157.558 83.5349C157.512 82.107 158.614 80.9086 160.031 80.8255L160.102 80.8223L175.247 80.3383Z" fill="#393939"/>
<rect x="106.407" y="63.729" width="2.89295" height="36.2935" rx="1.44648" fill="#E3BF53"/>
<rect x="191.881" y="67.937" width="2.89295" height="32.0855" rx="1.44648" fill="#D4AE3C"/>
<path d="M146.66 94.7217L151.09 95.3296C150.991 96.0483 150.732 96.8272 150.277 97.9183L150.188 98.1271C149.906 98.7858 149.037 100.73 148.914 101.012L148.764 101.359C148.326 102.38 147.994 103.228 147.728 104.032C147 106.229 146.884 107.803 147.336 108.706C147.831 109.694 149.309 110.351 152.384 110.369L152.519 110.37V114.841C147.831 114.841 144.729 113.486 143.338 110.707C142.224 108.481 142.417 105.845 143.484 102.626C143.812 101.637 144.208 100.631 144.728 99.4279L145.048 98.7003C145.381 97.9517 145.943 96.6882 146.104 96.3073L146.177 96.1315C146.461 95.4468 146.617 94.9834 146.656 94.7497L146.66 94.7217Z" fill="#EBBAAA"/>
<path d="M165.444 38.4814C162.814 39.2784 118.775 47.029 140.867 49.9218C150.622 51.1993 168.525 49.9153 175.964 52.2888C185.408 55.3015 185.392 62.3625 186.489 67.8055C188.771 79.1248 190.072 79.8133 194.387 86.3883C196.14 89.0593 196.746 71.3143 194.387 55.9708C191.049 34.262 175.575 35.4115 165.444 38.4814Z" fill="#D4AE3C"/>
<path d="M122.05 54.1298C114.16 59.6183 119.237 68.3243 114.686 72.2065C108.9 77.142 110.483 85.1395 109.036 88.1878C106.694 93.1233 103.513 80.7133 103.513 72.2065C103.513 44.592 120.735 26.5151 144.93 26.5151C148.129 26.5151 152.13 19.8155 160.578 20.8607C171.756 20.8607 189.639 41.5058 181.881 55.5763C176.685 50.8578 165.765 51.076 154.53 50.8423C141.029 50.5613 127.074 50.6348 122.05 54.1298Z" fill="#E3BF53"/>
<path d="M145.261 22.1846C164.986 22.7029 174.613 33.1291 177.41 46.5028C163.033 39.8403 132.306 35.1466 132.306 32.3249C132.306 28.7978 134.073 21.8907 145.261 22.1846Z" fill="#E3BF53"/>
<path d="M135.535 24.566C147.317 23.8296 156.925 40.5649 160.257 49.0245L123.306 39.5569C122.473 34.8668 123.753 25.3024 135.535 24.566Z" fill="#E3BF53"/>
<path d="M131.557 53.6037V45.3885L127.046 34.0105L175.438 36.6404L167.811 50.5792H163.077L157.685 52.6832L152.689 50.5792L148.612 52.6832L145.325 50.5792L139.802 53.6037L138.092 51.49L131.557 53.6037Z" fill="#E3BF53"/>
</svg>
