<svg width="300" height="400" viewBox="0 0 300 400" fill="none" xmlns="http://www.w3.org/2000/svg">
<path d="M129.562 341.593C130.546 338.643 128.606 336.265 127.513 335.445C126.967 336.21 126.284 340.09 125.054 343.095L121.844 346.99L116.994 352.795L110.982 355.665L114.125 359.353C116.265 357.715 128.579 344.545 129.562 341.593Z" fill="#E4E4E0"/>
<path d="M148.177 361.867C148.177 361.867 148.352 355.455 146.987 351.902C145.623 348.35 144.217 339.19 144.217 339.19C144.217 339.19 141.796 341.785 137.287 341.785C132.779 341.785 127.997 340.7 127.997 340.7C127.997 340.7 119.624 351.757 117.438 353.125C115.252 354.49 104.596 357.36 104.596 357.36C102.257 357.36 100.361 359.255 100.361 361.595V363.75H126.045L148.177 361.867Z" fill="#F7F6F6"/>
<path d="M123.535 343.216C123.697 342.81 124.147 342.605 124.557 342.743L124.6 342.759L125.967 343.304C126.387 343.471 126.592 343.948 126.424 344.369C126.262 344.775 125.812 344.98 125.403 344.843L125.359 344.826L123.993 344.281C123.573 344.114 123.368 343.637 123.535 343.216Z" fill="#ECECEC"/>
<path d="M121.759 345.676C121.921 345.27 122.371 345.065 122.78 345.203L122.824 345.219L124.19 345.764C124.611 345.931 124.816 346.408 124.648 346.829C124.486 347.235 124.036 347.44 123.627 347.302L123.583 347.286L122.217 346.741C121.796 346.574 121.591 346.097 121.759 345.676Z" fill="#ECECEC"/>
<path d="M119.846 348.133C120.009 347.727 120.459 347.523 120.868 347.661L120.912 347.677L122.278 348.224C122.698 348.393 122.903 348.87 122.734 349.29C122.572 349.696 122.121 349.9 121.712 349.762L121.668 349.746L120.302 349.198C119.882 349.03 119.678 348.553 119.846 348.133Z" fill="#ECECEC"/>
<path d="M117.387 350.594C117.549 350.188 117.999 349.983 118.409 350.12L118.452 350.136L119.819 350.681C120.239 350.849 120.444 351.326 120.276 351.746C120.114 352.152 119.664 352.357 119.255 352.22L119.211 352.204L117.845 351.659C117.424 351.491 117.219 351.014 117.387 350.594Z" fill="#ECECEC"/>
<path d="M115.201 352.778C115.364 352.372 115.814 352.168 116.223 352.306L116.267 352.322L117.633 352.869C118.053 353.038 118.258 353.515 118.089 353.935C117.927 354.341 117.476 354.545 117.067 354.407L117.023 354.391L115.657 353.844C115.237 353.675 115.033 353.198 115.201 352.778Z" fill="#ECECEC"/>
<path d="M148.538 361.568L124.357 362.663L100.312 361.568L99.9327 364.713C99.8176 365.668 100.544 366.515 101.505 366.548L123.855 367.308L136.333 367.443L148.811 367.033L148.538 361.568Z" fill="#E4E4E0"/>
<path d="M148.469 364.304L148.508 365.396L141.256 365.67L138.476 365.768C135.141 365.88 132.621 365.942 130.963 365.944L130.48 365.943C127.045 365.923 119.811 365.654 116.833 365.413L116.609 365.395L116.704 364.306L116.928 364.324C119.991 364.571 127.648 364.851 130.865 364.851L131.373 364.849C132.977 364.839 135.28 364.781 138.243 364.682L140.032 364.621L148.469 364.304Z" fill="#F7F6F6"/>
<path d="M117.466 367.155V364.695V363.74L100.115 362.92L99.8684 365.137C99.7803 365.93 100.387 366.63 101.184 366.655L117.466 367.155Z" fill="#ECEADF"/>
<path d="M138.598 355.858C135.882 355.858 133.68 353.656 133.68 350.94C133.68 348.224 135.882 346.022 138.598 346.022C141.315 346.022 143.517 348.224 143.517 350.94C143.517 353.656 141.315 355.858 138.598 355.858Z" fill="#E4E4E0"/>
<path d="M138.743 347.262C138.631 347.067 138.342 347.085 138.254 347.292L137.437 349.24C137.403 349.322 137.329 349.382 137.241 349.4L135.175 349.83C134.953 349.877 134.881 350.157 135.052 350.305L136.651 351.682C136.719 351.742 136.754 351.83 136.744 351.92L136.515 354.017C136.49 354.242 136.734 354.4 136.928 354.282L138.733 353.187C138.81 353.14 138.904 353.135 138.986 353.172L140.911 354.037C141.117 354.13 141.341 353.947 141.289 353.725L140.806 351.672C140.785 351.585 140.809 351.492 140.87 351.425L142.288 349.862C142.44 349.695 142.334 349.425 142.109 349.407L140.005 349.232C139.916 349.225 139.836 349.172 139.791 349.095L138.743 347.262Z" fill="#F7F6F6"/>
<path d="M171.801 341.593C170.817 338.643 172.757 336.265 173.85 335.445C174.396 336.21 175.079 340.09 176.309 343.095L179.519 346.99L184.369 352.795L190.381 355.665L187.238 359.353C185.098 357.715 172.784 344.545 171.801 341.593Z" fill="#E4E4E0"/>
<path d="M153.186 361.867C153.186 361.867 153.011 355.455 154.376 351.902C155.74 348.35 157.146 339.19 157.146 339.19C157.146 339.19 159.567 341.785 164.076 341.785C168.584 341.785 173.366 340.7 173.366 340.7C173.366 340.7 181.739 351.757 183.925 353.125C186.111 354.49 196.767 357.36 196.767 357.36C199.106 357.36 201.002 359.255 201.002 361.595V363.75H175.318L153.186 361.867Z" fill="#F7F6F6"/>
<path d="M176.762 342.759C177.183 342.591 177.66 342.796 177.827 343.216C177.989 343.622 177.804 344.081 177.412 344.263L177.37 344.281L176.004 344.826C175.583 344.994 175.106 344.789 174.938 344.369C174.776 343.963 174.962 343.504 175.353 343.322L175.396 343.304L176.762 342.759Z" fill="#ECECEC"/>
<path d="M178.539 345.219C178.959 345.051 179.436 345.256 179.604 345.676C179.766 346.082 179.58 346.541 179.189 346.723L179.146 346.741L177.78 347.286C177.359 347.454 176.883 347.249 176.715 346.829C176.553 346.423 176.738 345.964 177.13 345.782L177.172 345.764L178.539 345.219Z" fill="#ECECEC"/>
<path d="M180.451 347.677C180.871 347.508 181.348 347.712 181.517 348.133C181.679 348.538 181.495 348.997 181.103 349.18L181.061 349.198L179.694 349.746C179.274 349.914 178.797 349.71 178.629 349.29C178.466 348.884 178.651 348.425 179.042 348.243L179.085 348.224L180.451 347.677Z" fill="#ECECEC"/>
<path d="M182.911 350.136C183.331 349.968 183.808 350.173 183.976 350.594C184.138 351 183.952 351.458 183.561 351.64L183.518 351.659L182.152 352.204C181.731 352.372 181.254 352.167 181.087 351.746C180.925 351.34 181.11 350.882 181.502 350.7L181.544 350.681L182.911 350.136Z" fill="#ECECEC"/>
<path d="M185.096 352.322C185.516 352.153 185.993 352.358 186.162 352.778C186.324 353.184 186.14 353.642 185.748 353.825L185.706 353.844L184.339 354.391C183.919 354.559 183.442 354.355 183.273 353.935C183.111 353.529 183.296 353.07 183.687 352.888L183.729 352.869L185.096 352.322Z" fill="#ECECEC"/>
<path d="M152.825 361.568L177.006 362.663L201.051 361.568L201.43 364.713C201.545 365.668 200.819 366.515 199.858 366.548L177.508 367.308L165.03 367.443L152.552 367.033L152.825 361.568Z" fill="#E4E4E0"/>
<path d="M152.855 365.396L152.894 364.304L160.147 364.578C160.755 364.6 161.337 364.621 161.9 364.641L164.27 364.72C166.994 364.805 169.083 364.851 170.498 364.851L170.883 364.85C174.29 364.83 181.488 364.562 184.435 364.324L184.659 364.306L184.754 365.395L184.527 365.413C181.548 365.654 174.321 365.923 170.887 365.943L170.4 365.944L169.877 365.941C168.193 365.928 165.784 365.866 162.686 365.761L161.292 365.713L152.855 365.396Z" fill="#F7F6F6"/>
<path d="M183.897 367.155V364.695V363.74L201.248 362.92L201.494 365.137C201.582 365.93 200.976 366.63 200.178 366.655L183.897 367.155Z" fill="#ECEADF"/>
<path d="M162.764 355.858C165.48 355.858 167.682 353.656 167.682 350.94C167.682 348.224 165.48 346.022 162.764 346.022C160.048 346.022 157.846 348.224 157.846 350.94C157.846 353.656 160.048 355.858 162.764 355.858Z" fill="#E4E4E0"/>
<path d="M162.62 347.262C162.732 347.067 163.021 347.085 163.109 347.292L163.925 349.24C163.96 349.322 164.034 349.382 164.122 349.4L166.188 349.83C166.409 349.877 166.482 350.157 166.31 350.305L164.712 351.682C164.644 351.742 164.609 351.83 164.619 351.92L164.848 354.017C164.872 354.242 164.628 354.4 164.435 354.282L162.63 353.187C162.553 353.14 162.458 353.135 162.376 353.172L160.452 354.037C160.245 354.13 160.022 353.947 160.074 353.725L160.557 351.672C160.577 351.585 160.553 351.492 160.493 351.425L159.075 349.862C158.922 349.695 159.028 349.425 159.254 349.407L161.357 349.232C161.447 349.225 161.527 349.172 161.572 349.095L162.62 347.262Z" fill="#F7F6F6"/>
<path d="M164.155 292.751C167.963 292.751 171.057 295.807 171.119 299.6L171.12 299.715V338.923C171.12 342.769 168.002 345.887 164.155 345.887C160.347 345.887 157.253 342.831 157.192 339.038L157.191 338.923V299.715C157.191 295.869 160.309 292.751 164.155 292.751Z" fill="#EBBAAA"/>
<path d="M137.33 292.751C141.138 292.751 144.232 295.807 144.293 299.6L144.294 299.715V338.405C144.294 342.251 141.176 345.369 137.33 345.369C133.522 345.369 130.428 342.313 130.366 338.52L130.365 338.405V299.715C130.365 295.869 133.484 292.751 137.33 292.751Z" fill="#EBBAAA"/>
<path d="M103.798 335.248L114.889 235.953L123.014 201.957L152.532 210.304C156.634 248.508 151.96 346.853 146.628 348.333C141.295 349.813 105.507 338.535 103.798 335.248Z" fill="#F7F6F6"/>
<path d="M198.719 335.248L187.628 235.953L179.502 201.957L149.985 210.304C145.883 248.508 150.556 346.853 155.889 348.333C161.221 349.813 197.01 338.535 198.719 335.248Z" fill="#F7F6F6"/>
<path d="M111.067 147.648C113.167 143.926 117.887 142.61 121.609 144.71C125.331 146.81 126.646 151.529 124.547 155.252C119.627 163.973 115.69 177.331 113.643 191.396C111.825 203.886 111.844 215.183 113.354 219.559L113.4 219.69C114.861 223.706 112.789 228.146 108.773 229.606C104.756 231.067 100.316 228.995 98.856 224.979C96.1951 217.661 96.1504 204.13 98.3283 189.167C100.628 173.368 105.079 158.263 111.067 147.648Z" fill="#EBBAAA"/>
<path d="M141.731 161.827C146.016 150.284 139.442 137.556 127.549 134.369C116.401 131.382 104.942 137.998 101.955 149.146L92.9158 182.881C89.5136 195.578 99.5492 207.877 112.671 207.092C120.29 206.636 126.921 201.724 129.577 194.569L141.731 161.827Z" fill="#F0F0EC"/>
<path d="M103.42 176.163L122.121 181.838L101.743 179.903L103.42 176.163Z" fill="white"/>
<path d="M91.9652 214.596C90.4031 209.839 90.692 192.277 92.6446 184.522L119.79 187.512C116.812 197.336 121.987 196.512 119.79 209.179C114.664 209.438 93.9178 220.541 91.9652 214.596Z" fill="#F0F0EC"/>
<path d="M193.044 184.417L178.6 183.643L191.11 187.641L193.044 184.417Z" fill="#7EBFD7"/>
<path d="M178.409 142.34C182.131 140.24 186.851 141.555 188.951 145.278C194.938 155.892 199.39 170.998 201.69 186.797C203.868 201.76 203.823 215.291 201.162 222.608C199.701 226.625 195.262 228.697 191.245 227.236C187.269 225.79 185.199 221.425 186.575 217.44L186.617 217.32C188.173 213.041 188.211 201.642 186.375 189.026C184.328 174.961 180.391 161.603 175.471 152.881C173.371 149.159 174.687 144.44 178.409 142.34Z" fill="#EBBAAA"/>
<path d="M156.826 161.691C153.222 150.015 160.037 137.681 171.841 134.518C183.308 131.446 195.1 138.226 198.215 149.682L206.129 178.795C210.445 194.674 195.681 209.139 179.894 204.498C173.126 202.508 167.805 197.259 165.724 190.519L156.826 161.691Z" fill="#F0F0EC"/>
<path d="M196.526 176.163L177.826 181.838L198.203 179.904L196.526 176.163Z" fill="white"/>
<path d="M208.907 209.566C210.497 204.81 208.583 188.692 206.596 180.937L178.655 187.512C181.685 197.336 176.419 192.256 178.655 204.923C183.871 205.182 206.92 215.512 208.907 209.566Z" fill="#F0F0EC"/>
<path d="M113.128 146.766C112.104 139.75 116.936 133.223 123.945 132.155L149.969 128.187L175.992 132.155C183.001 133.223 187.833 139.75 186.81 146.766L183.501 169.457L187.389 203.476C187.536 204.769 186.977 206.041 185.925 206.807L180.534 210.727H119.661L115.187 206.75C114.349 206.005 113.904 204.912 113.984 203.794L116.437 169.457L113.128 146.766Z" fill="#E6E6E3"/>
<rect x="140.683" y="101.361" width="19.6033" height="50.0397" rx="9.77868" fill="#EBBAAA"/>
<path d="M194.65 217.167C194.618 216.17 195.4 215.336 196.396 215.304L199.457 215.205C200.418 215.174 201.235 215.901 201.315 216.858L202.893 235.647C202.979 236.677 202.185 237.569 201.152 237.602L197.122 237.733C196.125 237.765 195.291 236.983 195.259 235.986L194.65 217.167Z" fill="#E3D08F"/>
<path d="M181.953 212.532C181.953 211.535 182.761 210.727 183.758 210.727H194.979C195.924 210.727 196.71 211.456 196.78 212.398L199.09 243.351C199.168 244.398 198.339 245.291 197.289 245.291H183.758C182.761 245.291 181.953 244.482 181.953 243.485V212.532Z" fill="#E8D79D"/>
<path d="M132.139 131.177C133.689 139.856 140.065 154.7 148.895 168.773C159.928 186.355 173.739 201.503 189.443 211.911L189.919 212.225L190.852 212.836V222.205H186.725L186.725 215.059L186.673 215.025C170.803 204.385 156.897 189.147 145.744 171.512L145.4 170.966C136.4 156.624 129.861 141.469 128.127 132.182L128.076 131.903L132.139 131.177Z" fill="#CC8879"/>
<path d="M163.956 129.451L161.946 128.617C161.082 128.259 160.104 128.771 159.907 129.685L158.741 135.075C157.837 139.259 154.136 142.245 149.856 142.245C145.861 142.245 142.335 139.636 141.165 135.817L139.357 129.914C139.046 128.901 137.872 128.443 136.958 128.979L136.356 129.331C135.559 129.799 135.17 130.739 135.404 131.633L137.892 141.158C138.454 143.311 139.539 145.292 141.049 146.925L141.457 147.366C143.759 149.856 146.997 151.272 150.388 151.272C154.615 151.272 158.54 149.078 160.752 145.476L161.492 144.271C162.317 142.929 162.92 141.463 163.279 139.929L165.175 131.827C165.405 130.843 164.889 129.838 163.956 129.451Z" fill="#F4F3F3"/>
<path d="M150.743 149.08H144.939L132.687 171.392H150.743V149.08Z" fill="#F4F3F3"/>
<path d="M151.517 149.08H145.713L138.62 181.838H156.675L151.517 149.08Z" fill="#F4F3F3"/>
<path d="M147.905 142.631H152.797L163.124 160.171H147.905V142.631Z" fill="#F7F6F6"/>
<path d="M118.5 134.893C120.032 115.118 128.934 75.5679 152.29 75.5679C145.802 96.8984 127.06 124.006 118.5 134.893Z" fill="#272727"/>
<path d="M185.306 136.183C170.087 116.709 177.758 75.5679 150.742 75.5679C158.246 94.7654 153.192 123.544 185.306 136.183Z" fill="#272727"/>
<path d="M181.824 121.739C170.921 106.822 174.998 75.5679 155.643 75.5679C161.019 90.2721 158.817 112.058 181.824 121.739Z" fill="#272727"/>
<path d="M120.821 99.8138C113.698 99.8138 107.924 94.0398 107.924 86.917C107.924 79.7943 113.698 74.02 120.821 74.02C127.944 74.02 133.718 79.7943 133.718 86.917C133.718 94.0398 127.944 99.8138 120.821 99.8138Z" fill="#E4C1C1"/>
<path d="M180.663 99.8138C187.785 99.8138 193.559 94.0398 193.559 86.917C193.559 79.7943 187.785 74.02 180.663 74.02C173.54 74.02 167.766 79.7943 167.766 86.917C167.766 94.0398 173.54 99.8138 180.663 99.8138Z" fill="#E4C1C1"/>
<path d="M115.643 71.6278C114.395 51.3932 130.47 34.2976 150.743 34.2976C171.015 34.2976 187.09 51.3932 185.842 71.6278L184.268 97.1717C183.482 109.922 172.953 121.122 161.177 126.071C152.854 129.569 148.631 129.569 140.308 126.071C128.532 121.122 118.003 109.922 117.217 97.1717L115.643 71.6278Z" fill="#F6DDD6"/>
<path fill-rule="evenodd" clip-rule="evenodd" d="M139.65 105.749V108.405C139.65 112.493 144.617 115.806 150.741 115.806C156.867 115.806 161.832 112.493 161.832 108.405V105.749H139.65Z" fill="#393939"/>
<mask id="mask0_0_8017" style="mask-type:luminance" maskUnits="userSpaceOnUse" x="139" y="105" width="23" height="11">
<path fill-rule="evenodd" clip-rule="evenodd" d="M139.668 105.746C139.656 105.883 139.65 106.021 139.65 106.159V108.746C139.65 112.646 144.616 115.806 150.741 115.806C156.867 115.806 161.832 112.646 161.832 108.746V106.159C161.832 106.021 161.826 105.883 161.814 105.746H139.668Z" fill="white"/>
</mask>
<g mask="url(#mask0_0_8017)">
<path d="M150.742 118.179C154.436 118.179 157.43 117.091 157.43 115.749C157.43 114.408 154.436 113.32 150.742 113.32C147.048 113.32 144.053 114.408 144.053 115.749C144.053 117.091 147.048 118.179 150.742 118.179Z" fill="#FF6C6C"/>
</g>
<rect x="139.65" y="105.749" width="22.1826" height="3.05095" fill="white"/>
<path d="M136.555 79.9526C137.268 79.9526 137.845 80.53 137.845 81.2423C137.845 81.9363 137.297 82.5023 136.61 82.5309L136.555 82.532H128.817C128.105 82.532 127.528 81.9546 127.528 81.2423C127.528 80.5483 128.076 79.9823 128.763 79.9538L128.817 79.9526H136.555Z" fill="black"/>
<path d="M172.667 79.9526C173.379 79.9526 173.956 80.53 173.956 81.2423C173.956 81.9363 173.408 82.5023 172.721 82.5309L172.667 82.532H164.929C164.216 82.532 163.639 81.9546 163.639 81.2423C163.639 80.5483 164.187 79.9823 164.874 79.9538L164.929 79.9526H172.667Z" fill="black"/>
<path d="M165.96 77.8892C167.644 77.8891 169.014 79.2337 169.055 80.9079L169.055 80.9843L169.056 85.885C169.056 87.5945 167.67 88.9803 165.961 88.9804C164.277 88.9805 162.907 87.6358 162.866 85.9616L162.865 85.8853L162.865 80.9846C162.865 79.2751 164.251 77.8892 165.96 77.8892Z" fill="black"/>
<path d="M135.524 77.8892C137.208 77.889 138.578 79.2336 138.619 80.9078L138.62 80.9841L138.62 85.8848C138.62 87.5943 137.235 88.9802 135.525 88.9804C133.841 88.9806 132.471 87.636 132.431 85.9618L132.43 85.8855L132.429 80.9847C132.429 79.2753 133.815 77.8893 135.524 77.8892Z" fill="black"/>
<path d="M166.081 67.7621C167.84 67.6161 169.33 67.6309 170.509 67.8575C171.705 68.0876 172.767 68.4234 173.698 68.8399C174.373 69.1417 174.945 69.4705 175.42 69.8065C175.728 70.0251 175.948 70.2116 176.083 70.3463C176.687 70.9506 176.687 71.9305 176.083 72.535C175.493 73.1243 174.547 73.1391 173.94 72.5794L173.892 72.5342L173.872 72.5179C173.811 72.4659 173.731 72.4033 173.631 72.3324C173.319 72.1115 172.922 71.8834 172.434 71.6654C171.72 71.3457 170.885 71.0819 169.924 70.897C169.078 70.7343 167.839 70.7221 166.338 70.8468C165.345 70.9292 164.28 71.0673 163.187 71.2454C162.614 71.3389 162.065 71.4382 161.554 71.5382L161.146 71.6199C161.054 71.6388 160.967 71.6568 160.886 71.674L160.627 71.7302C159.793 71.9188 158.965 71.3959 158.776 70.5623C158.592 69.7472 159.087 68.9367 159.889 68.7248L159.963 68.7069L160.159 68.6643C160.326 68.6285 160.517 68.5888 160.73 68.5462C161.335 68.4248 161.995 68.3037 162.689 68.1905C163.856 68.0002 165 67.8519 166.081 67.7621Z" fill="#271E1E"/>
<path d="M132.265 67.8574C133.443 67.6309 134.934 67.6161 136.692 67.7621C137.773 67.852 138.917 68.0002 140.085 68.1905C140.778 68.3037 141.438 68.4248 142.044 68.5462L142.529 68.6461L142.829 68.7113C143.663 68.8999 144.186 69.7286 143.997 70.5623C143.813 71.3774 143.017 71.8954 142.202 71.7417L141.966 71.6908C141.863 71.6688 141.75 71.6451 141.627 71.6199L141.436 71.5811C140.865 71.4668 140.241 71.3523 139.586 71.2454C138.494 71.0673 137.428 70.9292 136.436 70.8468C134.934 70.7221 133.696 70.7343 132.85 70.897C131.888 71.0819 131.054 71.3457 130.339 71.6654C129.852 71.8834 129.455 72.1115 129.143 72.3324C129.063 72.3891 128.995 72.4405 128.94 72.4854L128.876 72.5391L128.879 72.5352C128.275 73.1395 127.295 73.1394 126.691 72.535C126.086 71.9305 126.086 70.9506 126.691 70.3463L126.759 70.2805C126.895 70.1535 127.093 69.9915 127.354 69.8065C127.828 69.4705 128.401 69.1417 129.075 68.8399C130.007 68.4234 131.069 68.0876 132.265 67.8574Z" fill="#271E1E"/>
<path d="M148.918 85.4429L152.566 87.8753C151.326 89.7353 150.355 92.5273 150.355 94.5584L150.357 94.719C150.395 96.5627 151.123 97.3414 153.23 97.3629L153.321 97.3634V101.748C148.538 101.748 145.97 98.859 145.97 94.5583C145.97 91.644 147.183 88.106 148.829 85.5774L148.918 85.4429Z" fill="#EBBAAA"/>
<path d="M151.124 43.2177V37.3061V33.6672C148.184 32.2336 142.435 32.6747 137.561 33.6672C131.228 34.9565 119.953 45.3889 117.245 55.1905C114.524 65.0395 114.685 67.32 115.174 74.2065L115.189 74.4245C117.772 75.086 118.495 78.5743 118.495 76.9863C118.495 75.0015 116.271 61.4893 131.655 50.1608C141.286 43.0684 151.124 44.5409 151.124 43.2177Z" fill="#272727"/>
<path d="M151.774 43.2177V37.3061V33.6672C154.714 32.2336 160.463 32.6747 165.338 33.6672C171.67 34.9565 182.946 45.3889 185.654 55.1905C188.375 65.0395 188.213 67.32 187.725 74.2065L187.709 74.4245C185.127 75.086 184.403 78.5743 184.403 76.9863C184.403 75.0015 187.792 61.1022 172.409 49.7739C162.777 42.6815 151.774 44.5409 151.774 43.2177Z" fill="#272727"/>
</svg>
