<svg width="300" height="400" viewBox="0 0 300 400" fill="none" xmlns="http://www.w3.org/2000/svg">
<path fill-rule="evenodd" clip-rule="evenodd" d="M142.523 303.276C142.213 298.522 138.108 294.921 133.355 295.231C128.601 295.541 125 299.646 125.31 304.399C125.992 314.854 126.673 327.143 127.084 337.092L127.151 338.735C127.369 344.272 127.493 348.897 127.511 352.385L127.513 353.103C127.514 354.8 127.487 356.161 127.434 357.134L127.418 357.402C127.412 357.488 127.407 357.567 127.401 357.64L127.389 357.794L127.362 357.886C126.297 361.612 127.858 365.721 131.371 367.734C135.504 370.102 140.774 368.671 143.142 364.537C143.903 363.21 144.193 362.112 144.406 360.718C144.513 360.025 144.586 359.262 144.64 358.385C144.719 357.092 144.758 355.485 144.762 353.552L144.762 352.895C144.756 349.229 144.634 344.429 144.412 338.681L144.342 336.923C143.948 327.263 143.299 315.376 142.634 304.992L142.523 303.276ZM127.517 357.385C127.634 357.01 127.825 356.573 128.175 355.963L128.105 356.087C127.875 356.503 127.684 356.93 127.53 357.363L127.485 357.491L127.517 357.385Z" fill="#694536"/>
<path d="M168.44 283.341C173.194 283.03 177.299 286.632 177.609 291.386L177.713 292.998C178.458 304.798 179.154 319.841 179.404 331.817L179.43 333.105C179.569 340.545 179.532 346.671 179.29 351.233L179.264 351.697C179.111 354.372 178.881 356.53 178.536 358.256C178.263 359.624 177.911 360.808 177.343 361.962C176.824 363.015 176.153 363.99 175.187 364.887C173.578 366.379 171.44 367.33 169.002 367.33C164.239 367.33 160.377 363.468 160.377 358.705C160.377 357.042 160.848 355.489 161.663 354.172L161.756 354.025L161.759 354.001C161.872 353.134 161.976 351.936 162.056 350.466L162.081 349.983C162.294 345.688 162.314 339.615 162.158 332.178L162.134 331.089C161.858 319.014 161.142 303.944 160.396 292.509C160.085 287.756 163.687 283.651 168.44 283.341Z" fill="#694536"/>
<path d="M115.25 244.499L148.347 247.023L146.414 343.403H118.511L115.25 244.499Z" fill="#748B9B"/>
<path d="M117.332 258.268L120.231 342.565L118.482 342.625L115.583 258.328L117.332 258.268Z" fill="#DF4949"/>
<path d="M119.024 257.731L121.923 342.03L120.174 342.09L117.275 257.792L119.024 257.731Z" fill="#D8E2EB"/>
<path d="M118.995 345.682L118.27 341.79H146.777V343.67L145.327 345.682L142.187 344.072L140.737 346.355L138.2 344.072L136.026 346.355L133.127 344.475L130.228 345.682L129.141 344.475L127.812 346.355L125.034 345.28L123.343 346.355L121.894 344.475L118.995 345.682Z" fill="#DCEAF5"/>
<path d="M151.16 270.248C167.418 270.248 180.597 262.705 180.597 253.4C180.597 244.096 167.418 236.553 151.16 236.553C134.903 236.553 121.723 244.096 121.723 253.4C121.723 262.705 134.903 270.248 151.16 270.248Z" fill="#748B9B"/>
<path d="M151.584 247.869H185.675L184.463 342.597H159.339L151.584 247.869Z" fill="#748B9B"/>
<path d="M186.125 258L187.874 258.06L184.975 342.357L183.226 342.297L186.125 258Z" fill="#DF4949"/>
<path d="M184.434 257.463L186.183 257.523L183.284 341.82L181.535 341.76L184.434 257.463Z" fill="#D8E2EB"/>
<path d="M176.47 302.907L176.879 304.883L171.026 307.413L176.657 308.455L176.859 310.421L169.393 313.464L168.616 311.556L172.825 309.841L167.324 308.823L167.103 306.865L171.491 304.967L167.512 304.968V302.907H176.47Z" fill="#506A7E"/>
<path d="M134.838 300.76V302.82L130.861 302.82L135.247 304.714L135.026 306.673L129.523 307.692L133.734 309.408L132.956 311.316L125.491 308.274L125.692 306.307L131.323 305.263L125.471 302.735L125.88 300.76H134.838Z" fill="#506A7E"/>
<path d="M184.392 345.415L185.067 341.522H158.976V344.207L160.328 345.415L162.527 344.207L164.123 346.087L166.488 343.805L168.515 346.087L171.217 344.207L173.92 345.415L174.933 344.207L176.172 346.087L178.761 345.012L180.338 346.087L181.689 344.207L184.392 345.415Z" fill="#DCEAF5"/>
<path d="M101.886 371.81C101.837 366.04 102.606 362.53 107.513 360.172C112.42 357.815 117.043 353.282 125.533 349.395C125.533 349.395 126.65 349.18 128.469 350.185C130.021 351.045 132.015 353.147 135.02 353.122C138.282 353.092 141.189 352.385 142.995 351.417C143.776 349.232 145.507 349.217 145.507 349.217C145.507 349.217 147.944 353.96 147.985 358.722C148.026 363.485 148.022 371.397 148.022 371.397L101.886 371.81Z" fill="#161616"/>
<path d="M130.762 356.482C131.838 355.979 133.045 355.831 134.206 356.063C137.373 356.693 139.568 357.246 142.784 358.197L143.089 358.287L142.411 360.567L141.837 360.398C138.835 359.516 136.742 358.994 133.741 358.396C133.078 358.264 132.387 358.349 131.77 358.637L130.478 359.246L124.005 362.32C123.829 362.402 123.658 362.482 123.475 362.567C120.841 363.787 117.006 363.252 115.714 361.809L115.67 361.758L117.491 360.227C117.616 360.375 118.359 360.679 119.24 360.806C120.374 360.969 121.53 360.846 122.474 360.408L123.642 359.862L129.557 357.05C129.997 356.841 130.385 356.659 130.762 356.482Z" fill="#ECEFF5"/>
<path d="M123.7 349.601C124.121 349.418 124.612 349.611 124.795 350.033C124.99 350.481 125.13 350.971 125.226 351.503C125.366 352.282 125.397 352.919 125.397 354.04C125.397 354.63 124.804 355.028 124.263 354.816L124.222 354.799L121.299 353.482L121.906 355.73C122.075 356.357 121.497 356.921 120.882 356.751L120.841 356.738L117.807 355.736L117.807 358.532C117.807 359.152 117.157 359.549 116.609 359.281L116.571 359.261L114.611 358.175L114.611 360.165C114.611 360.609 114.262 360.973 113.824 360.996L113.778 360.998C113.333 360.998 112.97 360.649 112.947 360.211L112.945 360.165V356.762C112.945 356.143 113.595 355.745 114.142 356.014L114.181 356.034L116.141 357.119L116.141 354.585C116.141 354.033 116.667 353.638 117.191 353.781L117.235 353.794L119.896 354.672L119.233 352.217C119.053 351.552 119.71 350.976 120.339 351.224L120.379 351.241L123.701 352.737C123.681 352.432 123.649 352.16 123.601 351.876L123.587 351.798C123.513 351.386 123.408 351.018 123.268 350.697C123.085 350.275 123.278 349.785 123.7 349.601Z" fill="white"/>
<path d="M103.743 360.615C105.248 360.055 106.843 359.632 109.9 358.925L108.601 362.747L108.638 367.102L99.9367 367.18C99.5816 367.185 98.9471 366.7 99.25 364.737C99.6285 362.285 101.603 361.407 103.743 360.615Z" fill="#161616"/>
<path d="M148.216 370.757L148.152 366.072L108.9 366.692L99.1724 365.962L98.8646 369.602C98.7678 370.747 99.6259 371.75 100.772 371.83L108.949 372.407L147.201 371.802C147.77 371.792 148.223 371.325 148.216 370.757Z" fill="#E1E6F0"/>
<rect x="145.842" y="367.17" width="2.61693" height="3.40398" rx="0.237903" fill="#F03131"/>
<path d="M204.615 371.81C204.664 366.04 203.895 362.53 198.988 360.172C194.081 357.815 189.458 353.282 180.968 349.395C180.968 349.395 179.851 349.18 178.032 350.185C176.48 351.045 174.486 353.147 171.481 353.122C168.219 353.092 165.312 352.385 163.506 351.417C162.725 349.232 160.994 349.217 160.994 349.217C160.994 349.217 158.557 353.96 158.516 358.722C158.475 363.485 158.479 371.397 158.479 371.397L204.615 371.81Z" fill="#161616"/>
<path d="M172.294 356.063C173.456 355.831 174.663 355.979 175.739 356.482L177.039 357.095L182.999 359.928C183.373 360.104 183.678 360.247 184.026 360.408C184.971 360.846 186.126 360.969 187.261 360.806C188.115 360.683 188.838 360.394 188.996 360.241L189.01 360.227L190.83 361.758C189.598 363.223 185.78 363.788 183.118 362.608L182.25 362.205L175.221 358.867C175.053 358.788 174.891 358.712 174.73 358.637C174.114 358.349 173.423 358.264 172.759 358.396C169.758 358.994 167.665 359.516 164.664 360.398L164.09 360.567L163.412 358.287L164.015 358.109C167.07 357.212 169.227 356.674 172.294 356.063Z" fill="#ECEFF5"/>
<path d="M181.706 350.033C181.889 349.611 182.38 349.418 182.801 349.601C183.223 349.785 183.416 350.275 183.233 350.697C183.093 351.018 182.988 351.386 182.914 351.798C182.867 352.059 182.834 352.306 182.812 352.574L182.8 352.737L186.122 351.241C186.75 350.958 187.423 351.515 187.278 352.175L187.268 352.217L186.605 354.672L189.266 353.794C189.79 353.621 190.33 353.996 190.358 354.539L190.36 354.585L190.359 357.119L192.32 356.034C192.862 355.734 193.524 356.11 193.554 356.718L193.556 356.762V360.165C193.556 360.625 193.183 360.998 192.723 360.998C192.278 360.998 191.915 360.649 191.891 360.211L191.89 360.165L191.89 358.175L189.93 359.261C189.388 359.561 188.726 359.185 188.695 358.576L188.694 358.532L188.694 355.736L185.66 356.738C185.044 356.941 184.448 356.395 184.585 355.772L184.595 355.73L185.202 353.482L182.278 354.799C181.741 355.041 181.134 354.664 181.105 354.084L181.104 354.04L181.105 353.656C181.113 352.764 181.151 352.189 181.275 351.503C181.37 350.971 181.511 350.481 181.706 350.033Z" fill="white"/>
<path d="M202.759 360.615C201.253 360.055 199.658 359.632 196.602 358.925L197.901 362.747L197.863 367.102L206.564 367.18C206.92 367.185 207.554 366.7 207.251 364.737C206.873 362.285 204.898 361.407 202.759 360.615Z" fill="#161616"/>
<path d="M158.285 370.757L158.349 366.072L197.601 366.692L207.328 365.962L207.636 369.602C207.733 370.747 206.875 371.75 205.729 371.83L197.552 372.407L159.3 371.802C158.731 371.792 158.278 371.325 158.285 370.757Z" fill="#E1E6F0"/>
<rect width="2.61694" height="3.40398" rx="0.237903" transform="matrix(-1 0 0 1 160.659 367.17)" fill="#F03131"/>
<rect x="104.51" y="121.776" width="82.1133" height="38.733" rx="19.3665" fill="#23180D"/>
<path d="M107.624 167.573C107.639 153.108 119.379 141.411 133.843 141.411H162.157C175.826 141.411 187.214 151.894 188.045 165.538C188.719 176.602 189.337 189.335 189.337 198.814C189.337 210.831 188.344 228.003 187.502 240.389C186.903 249.218 179.538 255.996 170.69 255.996H126.378C117.579 255.996 110.237 249.283 109.586 240.508C108.735 229.044 107.751 213.547 107.677 202.391C107.617 193.245 107.612 179.623 107.624 167.573Z" fill="#26282C"/>
<path d="M148.725 163.736C157.736 163.736 165.042 156.149 165.042 146.791C165.042 137.432 157.736 129.845 148.725 129.845C139.713 129.845 132.407 137.432 132.407 146.791C132.407 156.149 139.713 163.736 148.725 163.736Z" fill="#26282C"/>
<rect x="138.673" y="124.47" width="20.2274" height="31.0093" rx="10.1137" fill="#EED1C9"/>
<path d="M125.301 152.17C128.88 157.98 135.565 162.903 144.514 162.903C144.514 155.999 139.776 148.405 134.249 140.335C131.955 136.986 130.038 133.342 125.301 133.342C123.81 137.197 121.722 146.36 125.301 152.17Z" fill="#5F646C"/>
<path d="M171.095 152.17C167.516 157.98 160.831 163.158 151.882 163.158C151.882 156.254 156.62 148.405 162.147 140.335C164.441 136.986 166.358 133.342 171.095 133.342C172.586 137.197 174.674 146.36 171.095 152.17Z" fill="#5F646C"/>
<path d="M117.129 151.538C120.229 146.394 126.912 144.736 132.056 147.836C137.201 150.936 138.858 157.619 135.759 162.763L135.306 163.511C134.6 164.673 133.834 165.914 132.936 167.351L131.366 169.851C130.384 171.407 128.307 174.698 127.624 175.787L126.588 177.44C126.306 177.892 126.035 178.329 125.77 178.756L125.013 179.983C122.596 183.914 120.722 187.125 119.226 189.936L118.978 190.404L118.815 190.846C112.789 207.319 110.736 230.261 112.95 251.07L113.019 251.713C113.681 257.683 109.378 263.059 103.409 263.72C97.4393 264.382 92.0636 260.079 91.4018 254.11C88.6993 229.731 91.0994 202.842 98.6443 182.683L98.8745 182.074L99.3744 180.958L99.5862 180.551C101.544 176.802 103.943 172.697 107.108 167.581L107.843 166.396C108.129 165.937 108.424 165.464 108.732 164.973L113.405 157.556C114.967 155.074 116.116 153.219 117.129 151.538Z" fill="#EBBAAA"/>
<path d="M99.4529 166.313C101.826 154.278 113.449 146.731 125.408 149.461C137.36 152.19 145.12 164.151 142.74 176.178L131.269 234.131C129.17 244.735 118.384 250.901 108.136 247.355L106.683 246.852C104.759 246.186 102.713 246.015 100.733 246.353C92.3092 247.794 84.9058 240.087 86.5762 231.616L99.4529 166.313Z" fill="#C8C0A8"/>
<path d="M87.5908 239.466C87.6251 238.201 88.7888 237.315 90.0066 237.628L112.975 243.526C114.126 243.822 114.8 245.059 114.422 246.182L113.012 250.369C112.691 251.322 111.715 251.862 110.735 251.629L89.0427 246.472C88.099 246.248 87.4303 245.372 87.4568 244.395L87.5908 239.466Z" fill="#B8B09B"/>
<path d="M110.131 163.244C110.131 151.646 119.533 142.244 131.131 142.244H133.017C133.871 142.244 134.679 142.627 135.219 143.287C141.969 151.545 145.657 161.884 145.657 172.55V198.559V258.508C145.657 259.98 144.392 261.133 142.927 260.997L112.401 258.175C111.115 258.056 110.131 256.977 110.131 255.686V192.821V163.244Z" fill="#D9D1BA"/>
<path d="M122.326 150.202C131.738 157.024 140.795 166.373 145.501 184.944C145.501 182.773 145.501 172.816 145.501 168.395C145.501 161.446 139.149 142.875 133.502 142.875C130.914 145.275 127.385 147.549 122.326 150.202Z" fill="#C2BAA1"/>
<path d="M138.834 219.704C138.834 219.191 138.447 218.761 137.937 218.709L115.426 216.386C114.847 216.326 114.339 216.772 114.324 217.354L113.45 250.429C113.436 250.968 113.852 251.421 114.39 251.453L137.775 252.848C138.349 252.883 138.834 252.426 138.834 251.85V219.704Z" fill="#C2BAA1"/>
<path d="M167.943 147.836C173.088 144.736 179.771 146.394 182.871 151.538L183.375 152.372C184.008 153.412 184.705 154.539 185.524 155.85L190.797 164.222L191.571 165.458C191.771 165.778 191.966 166.09 192.156 166.396L192.718 167.301C196.027 172.641 198.507 176.883 200.52 180.755L200.625 180.958L201.125 182.074C208.851 202.299 211.327 229.484 208.598 254.11C207.936 260.079 202.56 264.382 196.591 263.72C190.621 263.059 186.318 257.683 186.98 251.713C189.306 230.735 187.273 207.489 181.185 190.846L181.021 190.403L180.955 190.279C179.4 187.329 177.426 183.945 174.838 179.741L174.229 178.756C173.921 178.258 173.602 177.747 173.269 177.213L171.233 173.972C170.071 172.129 168.536 169.698 168.183 169.136L167.064 167.351C165.97 165.601 165.072 164.143 164.241 162.763C161.141 157.619 162.799 150.936 167.943 147.836Z" fill="#EBBAAA"/>
<path d="M200.547 166.313C198.174 154.278 186.55 146.731 174.592 149.461C162.639 152.19 154.88 164.151 157.26 176.178L168.73 234.131C170.829 244.735 181.616 250.901 191.864 247.355L193.317 246.852C195.241 246.186 197.287 246.015 199.267 246.353C207.69 247.794 215.094 240.087 213.423 231.616L200.547 166.313Z" fill="#C8C0A8"/>
<path d="M212.409 239.466C212.375 238.201 211.211 237.315 209.993 237.628L187.025 243.526C185.874 243.822 185.2 245.059 185.578 246.182L186.988 250.369C187.309 251.322 188.285 251.862 189.265 251.629L210.957 246.472C211.901 246.248 212.569 245.372 212.543 244.395L212.409 239.466Z" fill="#B8B09B"/>
<path d="M189.869 163.244C189.869 151.646 180.467 142.244 168.869 142.244H166.982C166.129 142.244 165.321 142.627 164.781 143.287C158.03 151.545 154.343 161.884 154.343 172.55V198.559V258.508C154.343 259.98 155.607 261.133 157.073 260.997L187.599 258.175C188.885 258.056 189.869 256.977 189.869 255.686V192.821V163.244Z" fill="#D9D1BA"/>
<path d="M177.673 150.202C168.262 157.024 159.204 166.373 154.499 184.944C154.499 182.773 154.499 172.816 154.499 168.395C154.499 161.446 160.851 142.875 166.498 142.875C169.086 145.275 172.615 147.549 177.673 150.202Z" fill="#C2BAA1"/>
<path d="M161.165 219.704C161.165 219.191 161.553 218.761 162.063 218.709L184.574 216.386C185.153 216.326 185.661 216.772 185.676 217.354L186.549 250.429C186.564 250.968 186.148 251.421 185.609 251.453L162.225 252.848C161.65 252.883 161.165 252.426 161.165 251.85V219.704Z" fill="#C2BAA1"/>
<path d="M182.538 79.8645C178.114 61.0035 159.039 51.3123 151.645 48.9961C148.27 42.5436 148.752 29.1735 154.056 28.1498C161.772 26.6607 182.502 36.0912 191.664 54.456C203.183 77.5445 201.03 138.899 198.25 159.25C185.874 153.875 188 149 174.127 143.495C179.943 117.189 182.538 96.2438 182.538 96.2438C182.538 96.2438 184.982 90.2878 182.538 79.8645Z" fill="#342B22"/>
<path d="M110.185 71.3327C110.185 51.375 126.92 35.196 147.563 35.196C168.207 35.196 184.941 51.375 184.941 71.3327V107.275C181.927 130.589 163.841 143.412 147.563 143.412C131.285 143.412 112.395 127.869 110.185 107.275V71.3327Z" fill="#F6DDD6"/>
<path fill-rule="evenodd" clip-rule="evenodd" d="M137.612 115.488V119.658C137.612 125.572 142.406 130.366 148.32 130.366C154.233 130.366 159.028 125.572 159.028 119.658V115.488H137.612Z" fill="#393939"/>
<mask id="mask0_0_8089" style="mask-type:luminance" maskUnits="userSpaceOnUse" x="137" y="114" width="23" height="17">
<path fill-rule="evenodd" clip-rule="evenodd" d="M137.619 114.763C137.614 114.895 137.612 115.028 137.612 115.162V119.658C137.612 125.572 142.406 130.366 148.32 130.366C154.234 130.366 159.028 125.572 159.028 119.658V115.162C159.028 115.028 159.025 114.895 159.02 114.763H137.619Z" fill="white"/>
</mask>
<g mask="url(#mask0_0_8089)">
<path d="M148.319 133.877C151.886 133.877 154.777 132.268 154.777 130.283C154.777 128.297 151.886 126.688 148.319 126.688C144.753 126.688 141.862 128.297 141.862 130.283C141.862 132.268 144.753 133.877 148.319 133.877Z" fill="#FF6C6C"/>
<rect x="137.612" y="115.488" width="21.416" height="4.51375" fill="white"/>
</g>
<path d="M149.346 28.6376C158.066 24.5368 180.61 34.8517 190.812 55.3137C190.812 55.3137 196.341 67.6585 197.696 76.1905C199.033 84.6082 194.65 88.866 194.65 88.866L185.164 96.9025C185.164 96.9025 177.66 71.9107 168.436 64.016C159.213 56.1215 151.35 53.8462 148.94 52.1065C146.531 50.3667 146.247 35.348 149.346 28.6376Z" fill="#342B22"/>
<path d="M130.627 78.6668C133.092 78.5439 135.125 78.804 136.746 79.3244C137.238 79.4822 137.66 79.655 138.015 79.8325C138.251 79.9504 138.424 80.053 138.535 80.1302C139.188 80.5831 139.351 81.48 138.898 82.1335C138.457 82.7702 137.594 82.9409 136.946 82.5303L136.895 82.4967C136.787 82.4216 136.45 82.2535 135.866 82.0658C134.578 81.6525 132.892 81.4367 130.77 81.5425C128.917 81.6349 127.428 81.9286 126.265 82.3525C125.793 82.5245 125.417 82.7031 125.13 82.8744C125.076 82.9066 125.029 82.9361 124.988 82.9628L124.903 83.0221C124.904 83.0212 124.907 83.0182 124.913 83.0129C124.314 83.535 123.404 83.4722 122.882 82.8725C122.36 82.2729 122.423 81.3635 123.023 80.8414C123.154 80.7274 123.363 80.5753 123.657 80.4004C124.099 80.1371 124.638 79.8811 125.279 79.6475C126.717 79.123 128.491 78.7733 130.627 78.6668Z" fill="#23180D"/>
<path d="M122.445 80.1955C125.429 66.7808 140.293 53.9455 147.331 51.627C150.233 50.6708 152.175 27.75 147.331 27.75C135.068 27.75 115.617 40.3572 108.675 51.627C97.2765 70.1338 93.2453 90.8823 99.3129 137.581C100.798 149.008 102.146 166.646 105.985 176.109C113.183 168.752 127.699 166.646 127.699 166.646C127.699 166.646 132.091 161.066 129.101 150.002C123.701 130.021 119.462 93.6105 122.445 80.1955Z" fill="#342B22"/>
<path d="M106.322 153.882C109.445 146.618 107.623 131.016 106.322 124.122C115.866 134.042 132.741 154.991 123.891 159.43C115.041 163.869 116.733 179.102 118.685 186.163C116.516 185.659 111.007 182.935 106.322 176.075C100.465 167.501 102.417 162.961 106.322 153.882Z" fill="#342B22"/>
<path d="M122.377 151.655C114.741 148.131 112.031 145.865 107.844 139.571C107.023 143.431 107.351 155.784 109.322 162.229C111.292 168.673 115.099 180.278 124.46 180.278C124.46 180.278 121.996 174.768 124.46 169.733C126.923 164.698 127.537 154.037 122.377 151.655Z" fill="#342B22"/>
<path d="M111.896 52.3453C112.294 51.8158 113.046 51.7094 113.576 52.1077C114.105 52.506 114.211 53.2581 113.813 53.7876C111.288 57.145 108.222 63.4318 105.859 70.3915C103.059 78.6406 101.433 87.1293 101.433 94.7637C101.433 95.4263 100.896 95.9634 100.233 95.9634C99.5706 95.9634 99.0334 95.4263 99.0334 94.7637C99.0334 86.8434 100.708 78.1017 103.587 69.6203L103.747 69.1528C106.163 62.1565 109.257 55.8527 111.896 52.3453Z" fill="#65513D"/>
<path d="M112.456 64.0709C112.684 63.4488 113.374 63.1295 113.996 63.3576C114.618 63.5857 114.937 64.2749 114.709 64.897L113.807 67.3647C111.309 74.227 110.599 76.4835 109.405 81.1617C109.242 81.8037 108.588 82.1914 107.946 82.0277C107.304 81.8639 106.917 81.2107 107.08 80.5687L107.318 79.6461C108.53 74.977 109.379 72.4639 112.456 64.0709Z" fill="#65513D"/>
<path d="M134.487 90.6029C135.141 90.4973 135.757 90.9418 135.863 91.5959C135.966 92.2323 135.548 92.8326 134.923 92.9619L134.87 92.9716L128.407 94.0159C127.753 94.1215 127.137 93.677 127.031 93.0229C126.929 92.3865 127.347 91.7862 127.972 91.6569L128.024 91.6472L134.487 90.6029Z" fill="black"/>
<path d="M158.345 91.7063C158.448 91.0699 159.034 90.6318 159.668 90.7059L159.721 90.7133L166.184 91.7575C166.838 91.8632 167.283 92.4791 167.177 93.1332C167.074 93.7696 166.488 94.2077 165.854 94.1336L165.801 94.1262L159.338 93.082C158.684 92.9763 158.24 92.3604 158.345 91.7063Z" fill="black"/>
<path d="M133.455 88.908C135.021 88.908 136.294 90.1578 136.333 91.7141L136.334 91.7873L136.334 98.8443C136.334 100.434 135.045 101.724 133.454 101.723C131.889 101.723 130.615 100.474 130.576 98.9173L130.575 98.8441L130.575 91.7871C130.576 90.1969 131.865 88.9079 133.455 88.908Z" fill="black"/>
<path d="M161.016 89.0183C162.582 89.0184 163.856 90.2681 163.895 91.8245L163.895 91.8977L163.895 98.9547C163.895 100.545 162.606 101.834 161.016 101.834C159.45 101.834 158.176 100.584 158.138 99.0276L158.137 98.9545L158.137 91.8975C158.137 90.3073 159.426 89.0183 161.016 89.0183Z" fill="black"/>
<path d="M169.262 82.9079L169.223 82.886C169.142 82.8397 169.034 82.7844 168.898 82.7219C168.479 82.5281 167.934 82.3283 167.254 82.1378C166.135 81.8244 164.786 81.5742 163.187 81.4148C160.948 81.1916 159.213 81.3532 157.933 81.7436C157.649 81.8302 157.419 81.9196 157.241 82.0044L157.169 82.0398L157.112 82.0702L157.127 82.0599C156.463 82.497 155.571 82.3129 155.133 81.6487C154.696 80.9845 154.88 80.0918 155.545 79.6547C155.646 79.5878 155.799 79.5014 156.005 79.4035C156.311 79.2584 156.673 79.1177 157.093 78.9897C158.742 78.4865 160.86 78.2893 163.473 78.5498C165.234 78.7255 166.748 79.006 168.03 79.3653C168.857 79.5968 169.545 79.8493 170.105 80.1077L170.255 80.1787C170.542 80.3174 170.749 80.4369 170.882 80.5273C171.539 80.9755 171.708 81.8712 171.259 82.5279C170.823 83.1678 169.961 83.3446 169.31 82.9386L169.262 82.9079Z" fill="#23180D"/>
<path d="M144.38 98.6565L148.423 99.1992L148.392 99.4224C148.312 99.9699 148.218 100.414 147.96 101.487L147.638 102.818C147.592 103.009 147.553 103.176 147.516 103.341C147.133 105.021 147.021 106.105 147.169 106.735L147.184 106.793C147.254 107.059 147.349 107.115 147.94 107.121L148.069 107.122V111.201C145.474 111.201 143.723 109.901 143.198 107.667C142.872 106.276 143.016 104.77 143.503 102.592L143.597 102.182C143.624 102.067 143.652 101.948 143.683 101.82L144.07 100.214C144.249 99.4568 144.315 99.1232 144.37 98.7271L144.38 98.6565Z" fill="#EBBAAA"/>
<path d="M142.827 98.2027C142.827 104.967 137.469 110.405 130.913 110.405C124.358 110.405 119 104.967 119 98.2027C119 91.4387 124.358 86.0002 130.913 86.0002C137.469 86.0002 142.827 91.4387 142.827 98.2027Z" fill="white" fill-opacity="0.2"/>
<path d="M175.327 98.2027C175.327 104.967 169.969 110.405 163.414 110.405C156.858 110.405 151.5 104.967 151.5 98.2027C151.5 91.4387 156.858 86.0002 163.414 86.0002C169.969 86.0002 175.327 91.4387 175.327 98.2027Z" fill="white" fill-opacity="0.2"/>
<path fill-rule="evenodd" clip-rule="evenodd" d="M117.742 97.5536C117.742 90.1498 123.615 84.1514 130.855 84.1514C138.096 84.1514 143.969 90.1498 143.969 97.5536C143.969 104.958 138.096 110.956 130.855 110.956C123.615 110.956 117.742 104.958 117.742 97.5536ZM141.569 97.5533C141.569 91.4635 136.758 86.5505 130.855 86.5505C124.951 86.5505 120.141 91.4635 120.141 97.5533C120.141 103.643 124.951 108.556 130.855 108.556C136.758 108.556 141.569 103.643 141.569 97.5533Z" fill="#A8AEB9"/>
<path fill-rule="evenodd" clip-rule="evenodd" d="M150.3 98.2027C150.3 90.7989 156.173 84.8005 163.413 84.8005C170.654 84.8005 176.527 90.799 176.527 98.2027C176.527 105.606 170.654 111.605 163.413 111.605C156.173 111.605 150.3 105.607 150.3 98.2027ZM174.128 98.2025C174.128 92.1127 169.317 87.1997 163.414 87.1997C157.51 87.1997 152.699 92.1126 152.699 98.2025C152.699 104.292 157.51 109.205 163.414 109.205C169.317 109.205 174.128 104.292 174.128 98.2025Z" fill="#A8AEB9"/>
<path d="M142.75 96.3149L151.56 96.3934C152.223 96.3993 152.755 96.9412 152.749 97.6038C152.743 98.2484 152.23 98.7698 151.592 98.792L151.539 98.7927L142.728 98.7142C142.066 98.7083 141.533 98.1664 141.539 97.5039C141.545 96.8593 142.058 96.3379 142.696 96.3156L142.75 96.3149Z" fill="#A8AEB9"/>
</svg>
