<svg width="300" height="400" viewBox="0 0 300 400" fill="none" xmlns="http://www.w3.org/2000/svg">
<path d="M130.618 290.906C135.433 290.557 139.62 294.177 139.969 298.992L140.014 299.624C140.447 305.934 140.669 314.281 140.734 324.612L140.747 327.104C140.767 332.22 140.752 337.309 140.706 344.007L140.617 357.179L140.617 358.25C140.617 363.078 136.703 366.992 131.875 366.992C127.095 366.992 123.211 363.156 123.134 358.394L123.136 355.996L123.231 342.672C123.271 336.324 123.283 331.436 123.26 326.465L123.251 324.758C123.186 314.417 122.96 306.175 122.531 300.257C122.182 295.442 125.802 291.255 130.618 290.906Z" fill="#EBBAAA"/>
<path d="M168.538 287.751C173.355 287.42 177.528 291.056 177.86 295.873C178.753 308.856 179.366 336.518 179.366 349.125C179.366 353.953 175.453 357.867 170.625 357.867C165.796 357.867 161.883 353.953 161.883 349.125L161.882 348.373C161.858 335.8 161.259 309.317 160.417 297.073C160.086 292.256 163.722 288.083 168.538 287.751Z" fill="#EBBAAA"/>
<path d="M116.464 254.207L146.464 255.279L145.701 307L144.125 345.5H120.75L115.5 308.5L110.875 257.875L116.464 254.207Z" fill="#314560"/>
<path d="M150.64 255.207L188.75 252.875L186.75 311.125L181.558 345.125L160.714 346.957L150.64 255.207Z" fill="#314560"/>
<path d="M150.702 275.35C167.5 275.35 181.118 268.336 181.118 259.685C181.118 251.033 167.5 244.02 150.702 244.02C133.904 244.02 120.286 251.033 120.286 259.685C120.286 268.336 133.904 275.35 150.702 275.35Z" fill="#314560"/>
<path d="M121 347.75L120.323 342.5H144.25L144 348L121 347.75Z" fill="#2B3C54"/>
<path d="M160.75 348.25L160.25 342.75H181.945L181.125 347.75L160.75 348.25Z" fill="#2B3C54"/>
<path d="M97.0441 368.114C96.5746 366.997 96.9125 365.467 97.1754 365.049C97.4383 364.634 129.362 362.717 129.362 362.717C134.661 362.302 145.164 360.552 145.89 363.564C146.787 367.292 146.746 368.134 146.134 371.019C145.155 371.982 135.25 372.822 132.038 372.102C132.038 370.417 131.788 369.337 131.788 369.337C131.788 369.337 129.998 370.427 127.898 370.899C123.614 371.862 122.794 372.822 109.525 372.822C98.8835 371.859 98.0951 370.612 97.0441 368.114Z" fill="#BF9A7D"/>
<path d="M131.57 351.902C134.232 351.937 138.298 351.095 140.51 348.137C140.705 347.877 141.091 347.835 141.317 348.07C143.319 350.14 142.025 348.96 142.826 352.507C143.615 356.002 144.281 355.502 145.071 358.75C145.617 360.997 147.387 366.24 145.071 366.24H134.507C132.008 366.24 128.632 369.032 120.309 369.817C106.494 371.12 103.118 369.337 100.359 368.495C94.0827 366.58 97.2679 362.2 100.359 360.8C104.888 358.75 111.378 357.21 114.679 355.51C117.25 354.187 118.133 353.777 119.453 352.385C121.142 350.602 121.855 349.467 122.39 348.58C122.616 348.207 123.208 348.295 123.447 348.66C124.904 350.887 129.111 351.872 131.57 351.902Z" fill="#EAEAEA"/>
<path d="M101.117 364.6C101.253 364.136 101.738 363.869 102.202 364.004L102.575 364.112C104.089 364.542 105.17 364.775 106.537 364.917C108.543 365.125 110.67 365.029 113.03 364.554C113.503 364.459 113.965 364.766 114.06 365.239C114.155 365.713 113.849 366.174 113.375 366.27C110.841 366.78 108.537 366.883 106.357 366.658C104.754 366.492 103.521 366.212 101.713 365.684C101.249 365.549 100.982 365.064 101.117 364.6Z" fill="white"/>
<path d="M119.773 358.514C122.221 356.352 124.041 355.269 126 352.864C127.06 352.864 128.461 352.984 132.5 352.984C137.763 352.984 139.158 350.819 141.483 348.297C143.25 349.377 142.34 351.662 143.564 354.787C144.543 357.289 146.379 361.039 146.379 365.609C145.522 367.052 137.077 366.329 134.384 366.329C133.772 363.444 129 361.039 126.875 360.439C125.01 359.912 122.833 359.717 119.773 358.514Z" fill="#E3E3E3"/>
<path d="M122.966 349.005C123.292 348.854 123.676 348.985 123.845 349.297L123.864 349.335C123.957 349.536 124.145 349.785 124.434 350.093L124.553 350.218C124.635 350.302 124.726 350.392 124.835 350.499L125.536 351.177C125.778 351.414 125.881 351.526 126.036 351.709C126.425 352.166 126.639 352.568 126.639 353.012C126.639 353.462 126.21 353.783 125.783 353.665L125.743 353.652L122.38 352.499L123.803 354.52C124.161 355.028 123.703 355.701 123.11 355.572L123.071 355.562L119.973 354.71L121.167 356.307C121.53 356.792 121.122 357.465 120.535 357.383L120.496 357.376L117.197 356.734L118.709 358.139C118.971 358.382 118.997 358.786 118.774 359.06L118.744 359.095C118.5 359.357 118.097 359.383 117.823 359.161L117.788 359.13L114.539 356.113C114.051 355.659 114.445 354.856 115.09 354.946L115.129 354.953L119.032 355.712L117.706 353.94C117.328 353.434 117.786 352.741 118.389 352.872L118.428 352.882L121.61 353.757L120.072 351.572C119.702 351.046 120.203 350.358 120.807 350.53L120.844 350.542L124.08 351.651L123.886 351.464C123.73 351.312 123.608 351.189 123.491 351.066L123.448 351.02C123.068 350.615 122.802 350.263 122.636 349.904C122.479 349.564 122.627 349.162 122.966 349.005Z" fill="white"/>
<path d="M205.287 368.115C205.756 366.997 205.418 365.467 205.155 365.05C204.893 364.635 172.969 362.717 172.969 362.717C167.67 362.302 157.167 360.552 156.441 363.565C155.543 367.292 155.584 368.135 156.196 371.02C157.176 371.982 167.081 372.822 170.293 372.102C170.293 370.417 170.543 369.337 170.543 369.337C170.543 369.337 172.333 370.427 174.433 370.9C178.717 371.862 179.537 372.822 192.806 372.822C203.447 371.86 204.236 370.612 205.287 368.115Z" fill="#BF9A7D"/>
<path d="M170.761 351.902C168.099 351.937 164.033 351.095 161.82 348.137C161.626 347.877 161.24 347.835 161.014 348.07C159.012 350.14 160.306 348.96 159.505 352.507C158.716 356.002 158.049 355.502 157.26 358.75C156.714 360.997 154.944 366.24 157.26 366.24H167.824C170.323 366.24 173.699 369.032 182.021 369.817C195.837 371.12 199.213 369.337 201.972 368.495C208.248 366.58 205.063 362.2 201.972 360.8C197.443 358.75 190.953 357.21 187.652 355.51C185.081 354.187 184.198 353.777 182.878 352.385C181.189 350.602 180.476 349.467 179.941 348.58C179.715 348.207 179.123 348.295 178.884 348.66C177.426 350.887 173.219 351.872 170.761 351.902Z" fill="#EAEAEA"/>
<path d="M200.129 364.005C200.593 363.869 201.078 364.136 201.214 364.6C201.349 365.064 201.082 365.549 200.618 365.685C198.81 366.212 197.577 366.492 195.974 366.658C193.794 366.884 191.49 366.78 188.956 366.27C188.482 366.175 188.176 365.713 188.271 365.24C188.366 364.766 188.828 364.459 189.301 364.554C191.661 365.029 193.788 365.125 195.794 364.917C197.27 364.764 198.413 364.505 200.129 364.005Z" fill="white"/>
<path d="M182.558 358.515C180.11 356.352 178.29 355.27 176.331 352.865C175.271 352.865 173.87 352.985 169.831 352.985C164.568 352.985 163.173 350.82 160.848 348.297C159.081 349.377 159.991 351.662 158.767 354.787C157.788 357.29 155.952 361.04 155.952 365.61C156.809 367.052 165.254 366.33 167.947 366.33C168.559 363.445 173.331 361.04 175.456 360.44C177.321 359.912 179.498 359.717 182.558 358.515Z" fill="#E3E3E3"/>
<path d="M178.467 349.336C178.624 348.996 179.026 348.849 179.365 349.006C179.704 349.162 179.852 349.565 179.695 349.904C179.541 350.237 179.301 350.565 178.963 350.934L178.883 351.02C178.753 351.159 178.62 351.293 178.445 351.464L178.251 351.651L181.487 350.542C182.094 350.334 182.615 351.007 182.281 351.539L182.259 351.572L180.72 353.757L183.903 352.882C184.512 352.715 184.99 353.395 184.648 353.908L184.625 353.94L183.299 355.713L187.202 354.953C187.856 354.826 188.273 355.617 187.82 356.085L187.792 356.113L184.543 359.131C184.269 359.385 183.841 359.369 183.587 359.095C183.343 358.833 183.348 358.429 183.589 358.172L183.622 358.139L185.134 356.734L181.835 357.376C181.241 357.492 180.812 356.832 181.141 356.34L181.164 356.307L182.358 354.711L179.26 355.562C178.661 355.727 178.183 355.068 178.506 354.553L178.528 354.52L179.951 352.499L176.588 353.652C176.162 353.798 175.719 353.496 175.693 353.054L175.692 353.012C175.692 352.591 175.884 352.209 176.235 351.781L176.338 351.658C176.478 351.495 176.587 351.38 176.83 351.142L177.496 350.499C177.66 350.339 177.781 350.217 177.897 350.094C178.166 349.808 178.347 349.572 178.445 349.379L178.467 349.336Z" fill="white"/>
<path d="M98.8468 187.792C101.171 183.243 106.743 181.439 111.292 183.762C115.796 186.063 117.609 191.547 115.391 196.071L115.322 196.208C112.1 202.515 108.699 215.228 106.923 227.536L106.87 227.908C106.012 233.961 105.631 239.374 105.783 243.306L105.796 243.612C105.854 244.865 105.967 245.883 106.107 246.602L106.121 246.677L106.129 246.686C108.756 249.693 109.209 254.172 106.982 257.702L106.9 257.831C104.104 262.107 98.3715 263.306 94.0957 260.511C91.0401 258.513 89.3697 255.593 88.3886 252.029C87.7549 249.726 87.4139 247.067 87.2963 244.02C87.0997 238.927 87.5367 232.586 88.5038 225.659L88.5526 225.312C90.5761 211.038 94.5007 196.301 98.8468 187.792Z" fill="#EBBAAA"/>
<path d="M184.205 177.443C188.655 174.933 194.297 176.506 196.807 180.955C202.731 191.457 207.104 206.296 209.361 221.805C211.511 236.573 211.466 249.928 208.763 257.364C207.017 262.165 201.709 264.642 196.908 262.896C192.155 261.168 189.68 255.949 191.325 251.186L191.376 251.042C192.759 247.238 192.795 236.432 191.054 224.469C189.098 211.033 185.341 198.284 180.693 190.045C178.183 185.595 179.756 179.953 184.205 177.443Z" fill="#EBBAAA"/>
<rect x="138.432" y="129" width="20" height="51.25" rx="9.74753" fill="#EBBAAA"/>
<path d="M138.027 168.171C138.737 168.171 139.312 167.595 139.312 166.885C139.312 166.175 138.737 165.6 138.027 165.6C137.317 165.6 136.741 166.175 136.741 166.885C136.741 167.595 137.317 168.171 138.027 168.171Z" fill="#E5EBF9"/>
<path d="M147 164C146.114 162.375 146.5 157.875 146.5 157.875L140.969 157.418L133.125 147C125.333 148.375 125 148.875 119.375 151.375C112.665 154.357 114 164.375 113 178L116 255.125L131.375 257.418L144.094 257.668L147.625 169.875C147.625 169.875 147.886 165.625 147 164Z" fill="#DEDEE2"/>
<path d="M147.25 167.75C147.5 165.75 147.875 163.375 149.5 161.75C151.125 160.125 152.875 158.25 152.875 158.25H158.328L166.078 147.75C166.078 147.75 177.203 149.25 180.953 151.25C184.703 153.25 186.953 175.125 186.953 175.125L185.875 255.125L179.203 257.75H145.078C143.578 230.5 146.828 178.792 146.828 175.125C146.828 173.543 147 169.75 147.25 167.75Z" fill="#DEDEE2"/>
<mask id="mask0_0_8172" style="mask-type:luminance" maskUnits="userSpaceOnUse" x="144" y="149" width="45" height="111">
<path fill-rule="evenodd" clip-rule="evenodd" d="M147.297 164.293C147.547 162.293 147.672 161.418 148.172 160.293L152.453 159.75H158.328L166.078 149.25C166.078 149.25 177.203 150.75 180.953 152.75C184.703 154.75 186.953 176.625 186.953 176.625L188.703 256.625L179.203 259.25H145.078C143.578 232 146.828 180.292 146.828 176.625C146.828 175.043 147.047 166.293 147.297 164.293Z" fill="white"/>
</mask>
<g mask="url(#mask0_0_8172)">
<path d="M153 209.625C153.1 200.125 155.193 165.125 152.818 156.25C152.818 156.25 151.137 158.061 149.443 159.625C147.747 161.189 147.443 163.875 147.443 163.875V164L142 257.625H153C152.75 245.458 152.9 219.125 153 209.625Z" fill="#CDCBD6"/>
<path d="M153 209.625C153.1 200.125 155.193 165.125 152.818 156.25C152.818 156.25 151.137 158.061 149.443 159.625C147.747 161.189 147.443 163.875 147.443 163.875V164L142 257.625H153C152.75 245.458 152.9 219.125 153 209.625Z" fill="#CDCBD6"/>
<path fill-rule="evenodd" clip-rule="evenodd" d="M161.586 161.097L161.336 161.096L160.985 259.451L161.235 259.452L161.586 161.097ZM159.463 161.163L159.713 161.164L159.361 259.518L159.111 259.518L159.463 161.163ZM157.589 161.24L157.339 161.239L156.987 259.594L157.237 259.595L157.589 161.24ZM155.465 161.316L155.215 161.315L154.864 259.67L155.114 259.671L155.465 161.316Z" fill="black" fill-opacity="0.32"/>
<path fill-rule="evenodd" clip-rule="evenodd" d="M145.896 262.324L146.248 163.969L146.498 163.97L146.146 262.325L145.896 262.324ZM148.02 262.248L148.371 163.893L148.621 163.894L148.27 262.249L148.02 262.248ZM150.143 262.171L150.495 163.816L150.745 163.817L150.393 262.172L150.143 262.171ZM152.017 262.104L152.368 163.75L152.618 163.75L152.267 262.105L152.017 262.104Z" fill="black" fill-opacity="0.13"/>
</g>
<path d="M150.625 168.75C151.384 168.75 152 168.134 152 167.375C152 166.616 151.384 166 150.625 166C149.866 166 149.25 166.616 149.25 167.375C149.25 168.134 149.866 168.75 150.625 168.75Z" fill="#BAB8C6"/>
<path d="M150.375 176.25C151.134 176.25 151.75 175.634 151.75 174.875C151.75 174.116 151.134 173.5 150.375 173.5C149.616 173.5 149 174.116 149 174.875C149 175.634 149.616 176.25 150.375 176.25Z" fill="#BAB8C6"/>
<path d="M150.125 188.25C150.884 188.25 151.5 187.578 151.5 186.75C151.5 185.922 150.884 185.25 150.125 185.25C149.366 185.25 148.75 185.922 148.75 186.75C148.75 187.578 149.366 188.25 150.125 188.25Z" fill="#BAB8C6"/>
<path d="M149.625 201.25C150.384 201.25 151 200.634 151 199.875C151 199.116 150.384 198.5 149.625 198.5C148.866 198.5 148.25 199.116 148.25 199.875C148.25 200.634 148.866 201.25 149.625 201.25Z" fill="#BAB8C6"/>
<path d="M149.625 214.5C150.384 214.5 151 213.884 151 213.125C151 212.366 150.384 211.75 149.625 211.75C148.866 211.75 148.25 212.366 148.25 213.125C148.25 213.884 148.866 214.5 149.625 214.5Z" fill="#BAB8C6"/>
<path d="M149.625 229C150.384 229 151 228.384 151 227.625C151 226.866 150.384 226.25 149.625 226.25C148.866 226.25 148.25 226.866 148.25 227.625C148.25 228.384 148.866 229 149.625 229Z" fill="#BAB8C6"/>
<path d="M149.625 242.25C150.384 242.25 151 241.634 151 240.875C151 240.116 150.384 239.5 149.625 239.5C148.866 239.5 148.25 240.116 148.25 240.875C148.25 241.634 148.866 242.25 149.625 242.25Z" fill="#BAB8C6"/>
<mask id="mask1_0_8172" style="mask-type:luminance" maskUnits="userSpaceOnUse" x="112" y="147" width="36" height="111">
<path fill-rule="evenodd" clip-rule="evenodd" d="M147 164C146.113 162.375 146.5 157.875 146.5 157.875L140.968 157.418L133.125 147C125.333 148.375 125 148.875 119.375 151.375C112.664 154.357 114 164.375 113 178L116 255.125L131.375 257.418L144.093 257.668L147.625 169.875C147.625 169.875 147.886 165.625 147 164Z" fill="white"/>
</mask>
<g mask="url(#mask1_0_8172)">
<path fill-rule="evenodd" clip-rule="evenodd" d="M139.5 160.505L139.25 160.495L135.375 257.87L135.625 257.88L139.5 160.505ZM141.375 160.495L141.625 160.505L137.75 257.88L137.5 257.87L141.375 160.495ZM143.75 160.505L143.5 160.495L139.625 257.87L139.875 257.88L143.75 160.505ZM145.625 160.505L145.375 160.495L141.5 257.87L141.75 257.88L145.625 160.505Z" fill="black" fill-opacity="0.32"/>
</g>
<path d="M146.785 162.625C146.385 161.625 146.375 159.208 146.5 157.875C144.833 158.333 141.874 159.425 143.374 160.125C144.874 160.825 146.869 164.542 147.661 166.375C147.494 165.667 147.185 163.625 146.785 162.625Z" fill="#CDCBD6"/>
<path d="M139.625 151.625C138.108 148.969 138.625 146.25 138.432 143.25L132.714 146.082C132.714 146.082 130.714 149.082 131.964 156.332C132.825 161.332 130.625 165.25 137.125 169.125C137.875 162.5 145.248 159.038 146.5 157.875C144.125 156.625 141.625 155.125 139.625 151.625Z" fill="#CDCBD6"/>
<mask id="mask2_0_8172" style="mask-type:luminance" maskUnits="userSpaceOnUse" x="131" y="143" width="16" height="27">
<path fill-rule="evenodd" clip-rule="evenodd" d="M139.625 151.625C138.107 148.969 138.625 146.25 138.432 143.25L132.714 146.082C132.714 146.082 130.714 149.082 131.964 156.332C132.825 161.332 130.625 165.25 137.125 169.125C137.875 162.5 145.247 159.038 146.5 157.875C144.125 156.625 141.625 155.125 139.625 151.625Z" fill="white"/>
</mask>
<g mask="url(#mask2_0_8172)">
<path d="M138.554 143.25C136.146 145.578 134.745 147.44 135.927 152.819C137.109 158.199 140.105 161.48 141 162.25" stroke="black" stroke-opacity="0.12" stroke-width="0.25"/>
<path d="M135.223 144.5C132.853 146.81 132.844 149.804 134.007 155.142C135.171 160.48 138.119 163.736 139 164.5" stroke="black" stroke-opacity="0.12" stroke-width="0.25"/>
<path d="M140.985 142.25C138.631 144.516 137.262 146.33 138.417 151.568C139.573 156.806 142.5 160 143.375 160.75" stroke="black" stroke-opacity="0.12" stroke-width="0.25"/>
<path d="M143.485 142C141.131 144.266 139.762 146.08 140.917 151.318C142.073 156.556 145 159.75 145.875 160.5" stroke="black" stroke-opacity="0.12" stroke-width="0.25"/>
</g>
<path d="M151.75 162.75C154.5 161.25 156.875 160.625 158.375 159.5C157.875 157.2 154.25 157.75 152.875 158.25C152.458 158.792 151.275 160.15 149.875 161.25C148.475 162.35 147.667 164.792 147.5 165.875C148.083 165.542 150.063 163.67 151.75 162.75Z" fill="#CDCBD6"/>
<path d="M157.5 151.375C158.36 148.531 158.307 143.875 158.307 142.5L165.589 146.082C165.589 146.082 167.089 149.457 165.589 156.332C163.945 163.864 162.339 161 160.625 163C158.875 160 156.375 158.25 152.75 158.25C156.25 155.25 156.744 153.875 157.5 151.375Z" fill="#CDCBD6"/>
<mask id="mask3_0_8172" style="mask-type:luminance" maskUnits="userSpaceOnUse" x="152" y="142" width="15" height="21">
<path fill-rule="evenodd" clip-rule="evenodd" d="M157.5 151.375C158.359 148.531 158.307 143.875 158.307 142.5L165.588 146.082C165.588 146.082 167.088 149.457 165.588 156.332C163.945 163.864 162.339 161 160.625 163C158.875 160 156.375 158.25 152.75 158.25C156.25 155.25 156.744 153.875 157.5 151.375Z" fill="white"/>
</mask>
<g mask="url(#mask3_0_8172)">
<path d="M159.125 142.875C160.958 145.125 162.025 146.925 161.125 152.125C160.225 157.325 158.167 160 157.75 160" stroke="black" stroke-opacity="0.12" stroke-width="0.25"/>
<path d="M157.125 141.25C158.958 143.5 160.025 145.3 159.125 150.5C158.225 155.7 156.166 158.375 155.75 158.375" stroke="black" stroke-opacity="0.12" stroke-width="0.25"/>
<path d="M160.875 144.25C162.708 146.5 163.775 148.3 162.875 153.5C161.975 158.7 159.917 161.375 159.5 161.375" stroke="black" stroke-opacity="0.12" stroke-width="0.25"/>
</g>
<path d="M157.082 159.258L157.167 159.493L156.885 159.596C153.212 160.96 149.344 163.07 148.027 164.877L147.977 164.946L147.772 164.804C149.079 162.925 153.03 160.761 156.797 159.362L157.082 159.258Z" fill="black" fill-opacity="0.12"/>
<path d="M156.576 158.385L156.673 158.615C153.898 159.777 150.589 161.474 148.919 162.776L148.828 162.848L148.672 162.652C150.303 161.347 153.607 159.64 156.421 158.45L156.576 158.385Z" fill="black" fill-opacity="0.12"/>
<path d="M155.446 157.637L155.554 157.863L155.346 157.966C155.066 158.11 154.739 158.301 154.024 158.734L152.924 159.4C152.152 159.863 151.661 160.139 151.268 160.322L151.176 160.364L151.074 160.136L151.164 160.095C151.562 159.909 152.072 159.621 152.891 159.128L154.371 158.233C154.815 157.968 155.058 157.831 155.287 157.715L155.446 157.637Z" fill="black" fill-opacity="0.12"/>
<path d="M142.209 187.246C140.672 185.447 137.599 179.499 136.318 177C135.08 203.031 134.373 259.017 137.344 259.217C141.057 259.467 151.813 260.716 152.581 258.217C153.349 255.718 151.3 197.992 150.532 195.618C149.763 193.243 144.129 189.495 142.209 187.246Z" fill="#273447"/>
<path d="M154.75 187.25C156.25 185.45 159.25 179.5 160.5 177C161.709 203.042 162.4 259.05 159.5 259.25C155.874 259.5 145.375 260.75 144.625 258.25C143.875 255.75 145.875 198 146.625 195.625C147.376 193.25 152.875 189.5 154.75 187.25Z" fill="#2B394D"/>
<path d="M161.25 168.125C162.647 160.213 167.125 145.329 159.557 142.875C159.557 142.875 165.991 144.733 176.182 148.625C186.373 152.517 188.246 159.458 188.246 159.458C190.508 164.087 193.111 185.503 193.749 212C194.388 238.497 192.5 247.875 189.499 260.25C184.124 262.375 170.875 263.875 157.375 264.625C157.375 261.541 156.875 253.957 156.75 249.5C156.625 245.043 156.222 237.347 156.375 218.125C156.509 201.164 159.196 179.751 161.25 168.125Z" fill="#5E82AE"/>
<path d="M96.6248 179.125C101.406 158.861 103.682 155.875 120.682 149.625C120.682 149.625 112.713 176.457 112.713 188.457C112.713 200.457 114.588 219.207 114.588 219.207C112.838 229.707 116.965 248.25 114.59 253.875C108.215 255.875 89.9636 255.375 86.9646 251.75C83.9656 248.125 83.5007 239.125 85.2498 226.25C86.9988 213.375 93.9998 190.25 96.6248 179.125Z" fill="#5E82AE"/>
<path d="M138.5 172.125C137.238 164.213 127.875 150.875 137.683 143.25C137.683 143.25 134.433 144.875 124.308 148.125C114.183 151.375 112.506 159.708 112.506 159.708C110.464 164.337 109.827 186.253 109.25 212.75C108.673 239.247 107.187 246.5 109.25 258C114.105 260.125 124.732 262.457 136.814 264.082C136.814 260.999 137.744 256.442 137.83 252.957C138.112 241.58 141.196 233.195 141.058 213.973C140.936 197.013 140.355 183.751 138.5 172.125Z" fill="#5E82AE"/>
<path d="M126.244 253.547C126.244 245.225 126.76 240.566 127.743 234.907C127.997 233.443 121.053 229.859 117.55 228.25L107.357 229.582C106.099 236.904 105.678 247.688 107.357 248.886C109.455 250.384 121.297 255.544 126.244 253.547Z" fill="#577BA6"/>
<path d="M105.459 228.74L107.04 224.26L108.732 224.856C117.309 227.859 123.337 229.773 128.352 230.895L128.513 230.931L127.486 235.569L127.148 235.493C121.991 234.327 115.968 232.418 107.466 229.445L105.459 228.74Z" fill="#4A6A90"/>
<path d="M214.75 224.75C212.875 214.375 210.5 203.75 207.375 194C201.752 176.457 197.819 162.509 193.807 156.25C190.543 151.157 179.807 149.875 177.182 149L188.5 219.375C188.5 230.875 188.25 243.75 187.75 253.125C194.125 255.125 210.625 257 213.625 253.125C216.625 249.25 216.625 235.125 214.75 224.75Z" fill="#5E82AE"/>
<path d="M171.444 256.902C171.444 248.348 170.861 243.558 169.754 237.742C169.467 236.236 186.259 229.654 190.21 228L191.999 230.217C191.999 240 192.103 252.42 190.209 253.651C187.843 255.191 177.023 258.954 171.444 256.902Z" fill="#577BA6"/>
<path d="M191.738 227.25L193.262 231.75L192.643 231.957C186.375 234.048 177.633 236.506 170.726 238.151L170.042 238.312L168.958 233.688L169.629 233.529C176.401 231.916 185.007 229.497 191.134 227.454L191.738 227.25Z" fill="#4A6A90"/>
<path d="M211.806 249.818C212.461 249.6 212.797 248.839 212.556 248.118C212.316 247.398 211.59 246.991 210.935 247.21C210.281 247.428 209.945 248.189 210.185 248.91C210.425 249.63 211.151 250.037 211.806 249.818Z" fill="#4A6A90"/>
<path d="M212.041 245.787C212.696 245.568 213.032 244.807 212.792 244.087C212.551 243.366 211.826 242.959 211.171 243.178C210.516 243.397 210.18 244.158 210.42 244.878C210.661 245.598 211.386 246.005 212.041 245.787Z" fill="#4A6A90"/>
<path d="M212.278 241.754C212.933 241.536 213.269 240.775 213.028 240.054C212.788 239.334 212.062 238.927 211.407 239.146C210.752 239.364 210.416 240.125 210.657 240.846C210.897 241.566 211.623 241.973 212.278 241.754Z" fill="#4A6A90"/>
<path d="M89.2357 247.799C89.8463 247.477 90.0539 246.671 89.6994 245.999C89.345 245.328 88.5627 245.045 87.9522 245.367C87.3416 245.689 87.134 246.495 87.4885 247.166C87.8429 247.838 88.6252 248.121 89.2357 247.799Z" fill="#4A6A90"/>
<path d="M88.8119 243.783C89.4224 243.46 89.6301 242.655 89.2756 241.983C88.9212 241.312 88.1389 241.028 87.5283 241.351C86.9178 241.673 86.7102 242.479 87.0646 243.15C87.4191 243.822 88.2014 244.105 88.8119 243.783Z" fill="#4A6A90"/>
<path d="M88.3891 239.766C88.9996 239.443 89.2072 238.638 88.8528 237.966C88.4983 237.295 87.716 237.011 87.1055 237.334C86.4949 237.656 86.2873 238.461 86.6418 239.133C86.9962 239.805 87.7785 240.088 88.3891 239.766Z" fill="#4A6A90"/>
<path d="M126.251 148.5C127.059 145.5 137.933 143.125 137.933 143.125C135.251 145.875 134.051 147.8 135.251 155C136.451 162.2 143.126 181.875 141.058 219.875C141.058 219.875 120.626 162 121.251 160.875C121.52 160.39 123.709 160.672 126.11 161.15C125.922 157.44 125.674 150.643 126.251 148.5Z" fill="#4A6A90"/>
<path d="M170.851 148.125C170.062 145.125 159.439 142.75 159.439 142.75C162.059 145.5 163.232 147.425 162.059 154.625C160.887 161.825 154.366 181.5 156.386 219.5C156.386 219.5 176.347 161.625 175.737 160.5C175.473 160.015 173.335 160.297 170.989 160.775C171.173 157.065 171.415 150.268 170.851 148.125Z" fill="#4A6A90"/>
<path d="M150.125 201.75C151.022 201.75 151.75 200.855 151.75 199.75C151.75 198.645 151.022 197.75 150.125 197.75C149.228 197.75 148.5 198.645 148.5 199.75C148.5 200.855 149.228 201.75 150.125 201.75Z" fill="#263245"/>
<path d="M149.875 215.5C150.772 215.5 151.5 214.605 151.5 213.5C151.5 212.395 150.772 211.5 149.875 211.5C148.978 211.5 148.25 212.395 148.25 213.5C148.25 214.605 148.978 215.5 149.875 215.5Z" fill="#263245"/>
<path d="M149.625 229.25C150.522 229.25 151.25 228.355 151.25 227.25C151.25 226.145 150.522 225.25 149.625 225.25C148.728 225.25 148 226.145 148 227.25C148 228.355 148.728 229.25 149.625 229.25Z" fill="#263245"/>
<path d="M149.375 243C150.272 243 151 242.105 151 241C151 239.895 150.272 239 149.375 239C148.478 239 147.75 239.895 147.75 241C147.75 242.105 148.478 243 149.375 243Z" fill="#263245"/>
<path d="M115.039 113.794C122.241 113.794 128.078 108.256 128.078 101.426C128.078 94.595 122.241 89.0576 115.039 89.0576C107.838 89.0576 102 94.595 102 101.426C102 108.256 107.838 113.794 115.039 113.794Z" fill="#EBBAAA"/>
<path d="M184.444 114.753C191.646 114.753 197.483 109.215 197.483 102.385C197.483 95.554 191.646 90.0166 184.444 90.0166C177.243 90.0166 171.405 95.554 171.405 102.385C171.405 109.215 177.243 114.753 184.444 114.753Z" fill="#EBBAAA"/>
<path d="M111.97 91.4599C109.64 69.5501 126.508 50.3167 148.535 49.7693C170.689 49.2187 188.54 67.7979 187.105 89.9124L186.715 95.9349L184.768 111.706C182.554 129.649 167.312 143.125 149.234 143.125C130.526 143.125 114.971 128.723 113.535 110.07L112.447 95.9349L111.97 91.4599Z" fill="#EED4CC"/>
<path d="M158.048 83.3537L170.747 81.207C170.893 81.1822 171.042 81.2235 171.155 81.3192L175.535 85.0512C175.885 85.3497 175.68 85.923 175.22 85.9317L169.116 86.048L158.285 87.3282C157.681 87.3997 157.154 86.9197 157.168 86.3117L157.215 84.3165C157.226 83.8372 157.575 83.4335 158.048 83.3537Z" fill="#393939"/>
<path d="M139.42 83.3551L126.83 81.2069C126.684 81.1819 126.534 81.2231 126.421 81.3199L122.07 85.0461C121.721 85.3451 121.926 85.9169 122.385 85.9259L128.438 86.0441L139.177 87.3264C139.781 87.3986 140.309 86.9196 140.295 86.3119L140.252 84.3191C140.242 83.8399 139.893 83.4356 139.42 83.3551Z" fill="#393939"/>
<path d="M146.254 98.2109L150.465 98.789C150.385 99.3689 150.2 100.012 149.878 100.926L149.803 101.136C149.606 101.681 149.026 103.232 148.9 103.581C148.543 104.565 148.274 105.376 148.061 106.137L148.022 106.279C147.498 108.204 147.412 109.62 147.746 110.437C148.046 111.173 148.839 111.609 150.732 111.625L150.839 111.625V115.875C147.28 115.875 144.842 114.567 143.811 112.044C143.038 110.149 143.173 107.911 143.922 105.162C144.161 104.284 144.452 103.389 144.832 102.332L144.936 102.045C145.126 101.527 145.698 99.9946 145.832 99.6205L145.922 99.3641C146.1 98.8474 146.205 98.4865 146.244 98.2733L146.254 98.2109Z" fill="#EBBAAA"/>
<path d="M126.412 61.5715C121.477 63.1235 122.673 66.9395 122.374 70.571C121.91 76.2015 112.684 69.1763 112.684 95.9985C111.605 96.102 111.272 90.5525 109.253 90.7733C108.02 91.2148 108.208 91.1058 107.334 91.5975C106.545 88.9413 105.092 84.2483 104.586 75.5405C102.907 46.6108 126.048 28.7805 146.669 31.528C153.592 32.4505 163 39.1884 163 58.6195C152.905 64.1398 135.523 58.7068 126.412 61.5715Z" fill="#2A2A2A"/>
<path d="M173.119 63.5827C176.048 65.1657 177.686 65.9102 179.121 69.2742C182.386 76.9327 184.089 73.1192 186.785 96.2485C187.868 96.352 187.792 91.0085 189.82 91.2295C190.55 91.592 190.948 91.7217 191.575 92.0907C192.367 89.432 196 82.2545 196 74.6912C196 40.5383 170.469 29.8682 148.733 31.3898C133.838 32.4324 140.473 41.1747 140.473 60.623C155.449 62.8335 164.705 59.0352 173.119 63.5827Z" fill="#2C2929"/>
<path d="M165.454 65.4607C168.529 57.9172 165.454 37.903 163.243 33.041C161.033 28.1791 154.113 29.0627 158.342 40.555C159.976 44.9951 162.82 49.4836 162.667 56.9092C162.513 64.335 158.662 72.3302 157.381 74C158.214 73.6562 162.378 73.0042 165.454 65.4607Z" fill="#2A2A2A"/>
<path d="M165.51 63.3674C167.68 55.4797 160.686 36.8752 157.325 32.6581C153.965 28.4411 146.265 30.7209 153.077 40.8947C155.709 44.8255 159.724 48.5523 160.849 55.7227C161.975 62.8929 159.003 71.3752 157.841 73.2452C158.726 72.7424 163.34 71.2549 165.51 63.3674Z" fill="#2A2A2A"/>
<path d="M135.208 70.5784C132.648 61.8277 136.222 38.9427 138.44 33.4266C140.659 27.9105 147.01 29.1296 142.686 42.1974C141.015 47.2463 138.225 52.3149 138.094 60.8439C137.962 69.3729 141.221 78.6652 142.341 80.6202C141.586 80.2007 137.767 79.3292 135.208 70.5784Z" fill="#2A2A2A"/>
<path d="M121.508 68.5691C121.508 64.3138 119.206 53.1716 118.93 47.9841C119.298 47.4153 120.563 46.4922 122.676 47.3507C125.316 48.4238 125.224 57.6856 124.451 68.5691C124.077 73.8536 124.952 77.2286 124.952 77.2286C124.952 77.2286 121.508 74.3536 121.508 68.5691Z" fill="#2A2A2A"/>
<path d="M150.788 27.2542C154.905 27.525 157.165 30.3579 157.5 32.5023C157.5 33.7438 156.739 39.5449 155.934 46.7229C154.927 55.6955 150.788 63.8215 148.998 69.916C147.566 74.7918 145.671 79.5042 145.671 83.75C141.25 77.5448 139.097 74.4123 137.307 62.3585C135.069 47.2915 145.641 26.9156 150.788 27.2542Z" fill="#2A2A2A"/>
<path d="M135.134 81.9393C134.568 81.545 133.352 78.992 132.899 73.0455C132.665 69.9715 135.326 68.6468 139.661 59.858C143.711 51.6459 148.308 36.9733 150.75 32.1044C149.731 30.584 148.034 27.8811 139.661 30.0771C130.855 32.3863 123.479 46.6325 123.253 62.85C123.072 75.824 131.212 82.7275 135.134 81.9393Z" fill="#2A2A2A"/>
<path d="M178.983 59.4124L182.013 50.4813L152.861 53.7422L120.772 44.467L120.489 48.2076L122.718 49.5088L122.495 52.4479L125.447 52.5737L125.103 57.1159L128.899 57.2777L129.479 60.7869L132.853 60.9307L134.594 64.4897L138.154 63.5692L139.047 65.7514L142.631 65.9044L142.449 68.3089L147.482 66.1112L148.565 68.5697L150.856 66.2549L152.782 68.7494L156.971 66.5157L159.32 69.0282L162.243 66.7402L164.141 66.8212L166.412 64.7737L167.093 66.9469L171.022 62.5577L173.261 63.7252L176.713 58.6454L178.983 59.4124Z" fill="#2A2A2A"/>
<path d="M168.597 58.0071C169.433 56.8304 176.023 61.8819 179.213 64.5546L181.45 69.8016L179.022 74.2461L176.452 68.4421L175.657 73.2991L172.456 65.6561L171.986 69.3781C171.629 68.6346 171.022 67.2306 170.624 66.2964C170.225 65.3621 170.564 62.7134 170.315 61.1954L170.105 59.8859C169.532 58.8231 167.761 59.1839 168.597 58.0071Z" fill="#2C2929"/>
<path d="M116.905 68.5304C116.668 66.9262 123.471 62.4267 126.902 60.3774L131.348 60.8587L132.656 66.1019L127.683 65.6772L130.169 69.3284L123.726 68.5622L125.71 71.2047C125.058 71.1812 123.863 71.0619 123.071 70.9764C122.28 70.8909 120.87 69.0057 119.81 68.4212L118.899 67.9117C117.93 67.9482 117.141 70.1347 116.905 68.5304Z" fill="#2C2929"/>
<path d="M137.5 93.75C138.743 93.75 139.75 94.7574 139.75 96C139.75 97.2205 138.778 98.2139 137.566 98.249L137.5 98.25H128C126.757 98.25 125.75 97.2426 125.75 96C125.75 94.7795 126.722 93.7861 127.934 93.751L128 93.75H137.5Z" fill="black"/>
<path d="M169.375 93.75C170.618 93.75 171.625 94.7574 171.625 96C171.625 97.2205 170.653 98.2139 169.441 98.249L169.375 98.25H159.875C158.632 98.25 157.625 97.2426 157.625 96C157.625 94.7795 158.597 93.7861 159.809 93.751L159.875 93.75H169.375Z" fill="black"/>
<path fill-rule="evenodd" clip-rule="evenodd" d="M136 118.004V122.45C136 129.294 141.548 134.84 148.39 134.84C155.233 134.84 160.779 129.294 160.779 122.45V118.004H136Z" fill="#393939"/>
<mask id="mask4_0_8172" style="mask-type:luminance" maskUnits="userSpaceOnUse" x="136" y="118" width="25" height="17">
<path fill-rule="evenodd" clip-rule="evenodd" d="M136.02 118C136.007 118.229 136 118.461 136 118.692V123.022C136 129.55 141.548 134.84 148.39 134.84C155.233 134.84 160.779 129.55 160.779 123.022V118.692C160.779 118.461 160.773 118.229 160.76 118H136.02Z" fill="white"/>
</mask>
<g mask="url(#mask4_0_8172)">
<path d="M148.39 138.813C152.516 138.813 155.861 136.992 155.861 134.746C155.861 132.499 152.516 130.679 148.39 130.679C144.263 130.679 140.918 132.499 140.918 134.746C140.918 136.992 144.263 138.813 148.39 138.813Z" fill="#FF6C6C"/>
</g>
<rect x="136" y="118.004" width="24.7803" height="5.1074" fill="white"/>
<path d="M143.958 90.9438C146.642 89.9129 149.226 89.7955 152.21 90.8836L152.365 90.941L151.483 93.2804C149.085 92.3766 147.114 92.4356 144.976 93.2317L144.855 93.2776L143.958 90.9438Z" fill="#CFAE8F"/>
<path fill-rule="evenodd" clip-rule="evenodd" d="M155.344 87.0672C157.874 85.4411 161.175 84.2652 165.349 83.7292C170.587 83.0563 174.82 83.8815 178.104 85.6729C178.979 86.1499 179.717 86.6616 180.322 87.1744C180.536 87.3548 180.717 87.5228 180.868 87.6742L180.901 87.7077C180.975 87.783 181.026 87.8387 181.054 87.8721L181.122 87.9515L180.154 99.4818C179.724 104.606 175.388 108.478 170.247 108.328L161.616 108.075C156.589 107.928 152.464 103.977 152.094 98.9543L151.496 90.8413L151.539 90.7558C151.566 90.7055 151.608 90.6336 151.665 90.5422L151.729 90.4444C151.897 90.1886 152.11 89.9047 152.371 89.6001C153.112 88.7347 154.094 87.8713 155.344 87.0672ZM179.999 87.5561C179.419 87.0647 178.709 86.5722 177.865 86.1119C174.672 84.3705 170.545 83.5659 165.412 84.2252C161.311 84.752 158.08 85.9026 155.615 87.4879C154.406 88.2653 153.461 89.0964 152.75 89.9256C152.503 90.2139 152.303 90.4808 152.146 90.7192C152.092 90.8017 152.047 90.8743 152.011 90.9364L152.005 90.9477L152.593 98.9176C152.941 103.637 156.782 107.361 161.488 107.57L161.631 107.575L170.262 107.828C175.137 107.971 179.248 104.3 179.656 99.4401L180.606 88.1222L180.543 88.0571L180.451 87.9654C180.323 87.84 180.173 87.7027 179.999 87.5561Z" fill="#CFAE8F"/>
<path fill-rule="evenodd" clip-rule="evenodd" d="M116.33 87.1978C116.961 86.682 117.725 86.1672 118.625 85.6873C121.943 83.9183 126.143 83.0839 131.26 83.696C135.41 84.1925 138.666 85.3471 141.132 86.9631C142.319 87.7406 143.246 88.5755 143.943 89.4125C144.188 89.7073 144.388 89.9819 144.545 90.2295C144.641 90.3808 144.702 90.4914 144.733 90.5543L144.761 90.6128L144.32 98.2853C144.029 103.347 139.92 107.383 134.861 107.576L126.656 107.888C121.576 108.081 117.241 104.332 116.7 99.2783L115.49 87.9815L115.578 87.8829C115.594 87.8659 115.614 87.8448 115.639 87.8199L115.76 87.7002C115.918 87.5481 116.107 87.3792 116.33 87.1978ZM140.858 87.3814C138.458 85.8085 135.276 84.6801 131.2 84.1925C126.187 83.5928 122.089 84.4069 118.861 86.1285C117.99 86.5927 117.253 87.0894 116.646 87.5851C116.435 87.7577 116.255 87.9176 116.107 88.0604L116.075 88.0908L116.011 88.1544L117.197 99.2252C117.705 103.97 121.737 107.5 126.493 107.392L126.637 107.388L134.842 107.076C139.643 106.894 143.545 103.061 143.821 98.2567L144.254 90.7176L144.217 90.6526C144.198 90.6202 144.176 90.5829 144.15 90.5409L144.123 90.4974C143.977 90.2677 143.79 90.0105 143.559 89.7325C142.893 88.9329 142.003 88.1313 140.858 87.3814Z" fill="#CFAE8F"/>
<path fill-rule="evenodd" clip-rule="evenodd" d="M155.344 87.0672C157.874 85.4411 161.175 84.2652 165.349 83.7292C170.587 83.0563 174.82 83.8815 178.104 85.6729C178.979 86.1499 179.717 86.6616 180.322 87.1744C180.536 87.3548 180.717 87.5228 180.868 87.6742L180.901 87.7077C180.975 87.783 181.026 87.8387 181.054 87.8721L181.122 87.9515L180.154 99.4818C179.724 104.606 175.388 108.478 170.247 108.328L161.616 108.075C156.589 107.928 152.464 103.977 152.094 98.9543L151.496 90.8413L151.539 90.7558C151.566 90.7055 151.608 90.6336 151.665 90.5422L151.729 90.4444C151.897 90.1886 152.11 89.9047 152.371 89.6001C153.112 88.7347 154.094 87.8713 155.344 87.0672ZM179.999 87.5561C179.419 87.0647 178.709 86.5722 177.865 86.1119C174.672 84.3705 170.545 83.5659 165.412 84.2252C161.311 84.752 158.08 85.9026 155.615 87.4879C154.406 88.2653 153.461 89.0964 152.75 89.9256C152.503 90.2139 152.303 90.4808 152.146 90.7192C152.092 90.8017 152.047 90.8743 152.011 90.9364L152.005 90.9477L152.593 98.9176C152.941 103.637 156.782 107.361 161.488 107.57L161.631 107.575L170.262 107.828C175.137 107.971 179.248 104.3 179.656 99.4401L180.606 88.1222L180.543 88.0571L180.451 87.9654C180.323 87.84 180.173 87.7027 179.999 87.5561Z" fill="#CFAE8F"/>
<path d="M164.982 83.0306C168.534 82.5304 171.864 82.826 174.93 83.7429C177.178 84.4153 179.094 85.3589 180.647 86.401C181.552 87.0075 182.043 88.0425 182.014 89.1456L182.01 89.2329L181.719 94.9264L179.722 94.8243L180.013 89.1306C180.036 88.6731 179.855 88.2778 179.533 88.062C178.138 87.126 176.4 86.2704 174.356 85.659C171.559 84.8223 168.518 84.5523 165.26 85.011C161.983 85.4724 159.208 86.3383 156.895 87.4994C155.215 88.3426 153.924 89.264 152.988 90.1558C152.797 90.3376 152.696 90.6219 152.715 90.9605L152.72 91.0247L153.316 97.2112L151.325 97.403L150.729 91.2166C150.637 90.2662 150.936 89.3476 151.608 88.7073C152.685 87.6824 154.137 86.646 155.998 85.7119C158.505 84.4533 161.489 83.5222 164.982 83.0306Z" fill="black"/>
<path fill-rule="evenodd" clip-rule="evenodd" d="M116.347 87.6306C116.979 87.1149 117.743 86.6 118.643 86.1201C121.96 84.3512 126.161 83.5167 131.277 84.1289C135.428 84.6254 138.683 85.7799 141.15 87.3959C142.337 88.1735 143.264 89.0084 143.96 89.8453C144.206 90.1401 144.405 90.4148 144.562 90.6624C144.658 90.8137 144.72 90.9242 144.75 90.9871L144.779 91.0457L144.338 98.7182C144.047 103.78 139.937 107.816 134.879 108.008L126.673 108.32C121.593 108.513 117.258 104.765 116.717 99.7112L115.507 88.4144L115.596 88.3158C115.612 88.2988 115.632 88.2777 115.656 88.2528L115.777 88.1331C115.935 87.9809 116.125 87.812 116.347 87.6306ZM140.876 87.8137C138.475 86.2409 135.293 85.1124 131.218 84.6249C126.205 84.0252 122.107 84.8392 118.878 86.5609C118.008 87.0251 117.27 87.5217 116.663 88.0175C116.452 88.1901 116.272 88.3499 116.124 88.4928L116.093 88.5232L116.028 88.5869L117.214 99.6575C117.722 104.402 121.755 107.932 126.51 107.825L126.654 107.82L134.86 107.508C139.661 107.326 143.563 103.493 143.839 98.6891L144.271 91.1502L144.235 91.085C144.216 91.0526 144.193 91.0152 144.167 90.9733L144.14 90.9298C143.994 90.7001 143.808 90.4428 143.576 90.1648C142.911 89.3653 142.021 88.5637 140.876 87.8137Z" fill="#CFAE8F"/>
<path d="M121.864 84.1355C124.862 83.2143 128.122 82.8985 131.605 83.3582C137.726 84.1658 142.024 86.262 144.738 88.7794C145.419 89.4116 145.729 90.3272 145.647 91.2752L145.638 91.367L144.922 97.6795L142.934 97.4541L143.65 91.1419C143.693 90.764 143.59 90.4425 143.377 90.2457C142.442 89.3779 141.164 88.4893 139.51 87.6828C137.244 86.5775 134.534 85.762 131.343 85.341C128.154 84.9201 125.183 85.2081 122.451 86.0473C120.452 86.6614 118.754 87.5128 117.388 88.4421C117.083 88.6504 116.906 89.0216 116.914 89.453L116.916 89.515L117.241 95.0775L115.244 95.1942L114.919 89.6319C114.853 88.4965 115.338 87.4187 116.263 86.7889C117.785 85.7525 119.662 84.812 121.864 84.1355Z" fill="black"/>
</svg>
