<svg width="300" height="400" viewBox="0 0 300 400" fill="none" xmlns="http://www.w3.org/2000/svg">
<path d="M166.523 300.25C169.94 300.251 172.716 302.995 172.77 306.399L172.77 306.502L172.75 359.752C172.749 363.204 169.949 366.001 166.498 366C163.08 365.999 160.305 363.255 160.251 359.851L160.25 359.748L160.271 306.498C160.272 303.046 163.071 300.249 166.523 300.25Z" fill="#EDBC3D"/>
<path d="M133.273 300.25C136.69 300.251 139.466 302.995 139.52 306.399L139.52 306.502L139.5 359.752C139.499 363.204 136.699 366.001 133.248 366C129.83 365.999 127.055 363.255 127.001 359.851L127 359.748L127.021 306.498C127.022 303.046 129.821 300.249 133.273 300.25Z" fill="#EDBC3D"/>
<path d="M173.125 355.25C172.172 353.06 173 351.25 175 350.875C182.875 359 193.625 359.675 196.75 360.675L196.5 362.675L190.25 362.175C184.125 361.55 174.077 357.44 173.125 355.25Z" fill="#3B3937"/>
<path d="M158.321 365.87C158.321 365.87 157.375 358.425 160.25 355.5C160.25 355.5 161.125 358.875 168.125 357.875C172.846 357.2 172.75 352.75 172.75 352.75C179.108 357.707 192.702 359.835 200.561 361.5C202.828 361.5 204.666 363.337 204.666 365.605V367.693H179.772L158.321 365.87Z" fill="#1C1B19"/>
<path d="M180.029 354.512C180.436 354.349 180.899 354.547 181.062 354.955C181.219 355.348 181.04 355.792 180.662 355.969L180.619 355.988L179.295 356.518C178.888 356.681 178.425 356.483 178.262 356.075C178.105 355.682 178.284 355.238 178.662 355.061L178.705 355.042L180.029 354.512Z" fill="#ECECEC"/>
<path d="M177.029 353.012C177.436 352.849 177.899 353.047 178.062 353.455C178.219 353.848 178.04 354.292 177.662 354.469L177.619 354.488L176.295 355.018C175.888 355.181 175.425 354.983 175.262 354.575C175.105 354.182 175.284 353.738 175.662 353.561L175.705 353.542L177.029 353.012Z" fill="#ECECEC"/>
<path d="M183.279 355.762C183.686 355.599 184.149 355.797 184.312 356.205C184.469 356.598 184.29 357.042 183.912 357.219L183.869 357.238L182.545 357.768C182.138 357.931 181.675 357.733 181.512 357.325C181.355 356.932 181.534 356.488 181.912 356.311L181.955 356.292L183.279 355.762Z" fill="#ECECEC"/>
<path d="M186.529 357.012C186.936 356.849 187.399 357.047 187.562 357.455C187.719 357.848 187.54 358.292 187.162 358.469L187.119 358.488L185.795 359.018C185.388 359.181 184.925 358.983 184.762 358.575C184.605 358.182 184.784 357.738 185.162 357.561L185.205 357.542L186.529 357.012Z" fill="#ECECEC"/>
<path d="M189.779 358.262C190.186 358.099 190.649 358.297 190.812 358.705C190.969 359.098 190.79 359.542 190.412 359.719L190.369 359.738L189.045 360.268C188.638 360.431 188.175 360.233 188.012 359.825C187.855 359.432 188.034 358.988 188.412 358.811L188.455 358.792L189.779 358.262Z" fill="#ECECEC"/>
<path d="M158.018 365.613L181.455 366.67L204.75 365.675L205.12 368.653C205.236 369.58 204.531 370.405 203.598 370.438L181.941 371.173L169.847 371.305L157.753 370.908L158.018 365.613Z" fill="#D0CEC1"/>
<path d="M157.867 369.187L157.905 368.128L164.65 368.383L167.818 368.494C171.01 368.6 173.409 368.658 174.967 368.658L175.352 368.657C178.62 368.637 185.431 368.385 188.352 368.158L188.692 368.13L188.784 369.185L188.44 369.213C185.408 369.45 178.272 369.71 175.092 369.717L174.574 369.716C172.799 369.707 170.125 369.635 166.597 369.513L157.867 369.187Z" fill="#1C1B19"/>
<path d="M187.75 370.925L188.076 368.525V367.598L204.875 366.8L205.173 368.963C205.281 369.743 204.687 370.445 203.899 370.468L187.75 370.925Z" fill="#ECEADF"/>
<path d="M204.75 365.675C204.95 362.175 202.25 361.175 196.75 360.675C196.75 360.675 195.943 360.878 194.5 362.8C193.375 364.3 193.125 366.175 193.125 366.175L204.75 365.675Z" fill="#ECEADF"/>
<path d="M126.597 355.25C127.549 353.06 126.722 351.25 124.722 350.875C116.847 359 106.097 359.675 102.972 360.675L103.222 362.675L109.472 362.175C115.597 361.55 125.645 357.44 126.597 355.25Z" fill="#3B3937"/>
<path d="M141.401 365.87C141.401 365.87 142.347 358.425 139.472 355.5C139.472 355.5 138.597 358.875 131.597 357.875C126.876 357.2 126.972 352.75 126.972 352.75C120.614 357.707 107.02 359.835 99.1606 361.5C96.8936 361.5 95.0557 363.337 95.0557 365.605V367.693H119.95L141.401 365.87Z" fill="#1C1B19"/>
<path d="M118.66 354.955C118.817 354.562 119.253 354.364 119.649 354.496L119.693 354.512L121.017 355.042C121.425 355.205 121.623 355.668 121.46 356.075C121.302 356.468 120.867 356.666 120.471 356.534L120.427 356.518L119.103 355.988C118.695 355.825 118.497 355.362 118.66 354.955Z" fill="#ECECEC"/>
<path d="M121.66 353.455C121.817 353.062 122.253 352.864 122.649 352.996L122.693 353.012L124.017 353.542C124.425 353.705 124.623 354.168 124.46 354.575C124.302 354.968 123.867 355.166 123.471 355.034L123.427 355.018L122.103 354.488C121.695 354.325 121.497 353.862 121.66 353.455Z" fill="#ECECEC"/>
<path d="M115.41 356.205C115.567 355.812 116.003 355.614 116.399 355.746L116.443 355.762L117.767 356.292C118.175 356.455 118.373 356.918 118.21 357.325C118.052 357.718 117.617 357.916 117.221 357.784L117.177 357.768L115.853 357.238C115.445 357.075 115.247 356.612 115.41 356.205Z" fill="#ECECEC"/>
<path d="M112.16 357.455C112.317 357.062 112.753 356.864 113.149 356.996L113.193 357.012L114.517 357.542C114.925 357.705 115.123 358.168 114.96 358.575C114.802 358.968 114.367 359.166 113.971 359.034L113.927 359.018L112.603 358.488C112.195 358.325 111.997 357.862 112.16 357.455Z" fill="#ECECEC"/>
<path d="M108.91 358.705C109.067 358.312 109.503 358.114 109.899 358.246L109.943 358.262L111.267 358.792C111.675 358.955 111.873 359.418 111.71 359.825C111.552 360.218 111.117 360.416 110.721 360.284L110.677 360.268L109.353 359.738C108.945 359.575 108.747 359.112 108.91 358.705Z" fill="#ECECEC"/>
<path d="M141.704 365.613L118.267 366.67L94.972 365.675L94.6015 368.653C94.4863 369.58 95.1911 370.405 96.1244 370.438L117.781 371.173L129.875 371.305L141.969 370.908L141.704 365.613Z" fill="#D0CEC1"/>
<path d="M141.817 368.128L141.855 369.187L135.111 369.442L133.125 369.513C129.529 369.638 126.82 369.709 125.047 369.717L124.63 369.717L124.235 369.715C120.891 369.69 114.188 369.44 111.277 369.213L110.938 369.185L111.03 368.13L111.37 368.158C114.331 368.389 121.29 368.644 124.503 368.657L124.946 368.658C126.442 368.653 128.647 368.601 131.525 368.507L133.637 368.435L141.817 368.128Z" fill="#1C1B19"/>
<path d="M111.972 370.925L111.646 368.525V367.598L94.8471 366.8L94.5488 368.963C94.4411 369.743 95.0351 370.445 95.823 370.468L111.972 370.925Z" fill="#ECEADF"/>
<path d="M94.972 365.675C94.772 362.175 97.472 361.175 102.972 360.675C102.972 360.675 103.779 360.878 105.222 362.8C106.347 364.3 106.597 366.175 106.597 366.175L94.972 365.675Z" fill="#ECEADF"/>
<path d="M150 267.75C165.878 267.75 178.75 261.874 178.75 254.625C178.75 247.376 165.878 241.5 150 241.5C134.122 241.5 121.25 247.376 121.25 254.625C121.25 261.874 134.122 267.75 150 267.75Z" fill="#385B75"/>
<path d="M148 249H178L175.322 350.75H160.821L156.75 340L148 249Z" fill="#385B75"/>
<path d="M152 249H122L124.679 350.75H139.179L143.25 340L152 249Z" fill="#385B75"/>
<path d="M156.75 343.5H176.25V350.75H157.686L156.75 343.5Z" fill="#5F86A3"/>
<path d="M143.25 343.5H123.75V350.75H142.314L143.25 343.5Z" fill="#5F86A3"/>
<path d="M150 162.75C170.02 162.75 186.25 149.654 186.25 133.5C186.25 117.346 170.02 104.25 150 104.25C129.98 104.25 113.75 117.346 113.75 133.5C113.75 149.654 129.98 162.75 150 162.75Z" fill="#3D2C18"/>
<path d="M133 247.751L138.25 140.125L150 134L161.875 140.125L167 247.751C167 247.751 155.081 250.75 150 250.75C144.919 250.75 133 247.751 133 247.751Z" fill="#F2F2F2"/>
<path d="M141.25 128C141.25 123.168 145.168 119.25 150 119.25C154.833 119.25 158.75 123.168 158.75 128V139.25C158.75 144.083 154.833 148 150 148C145.168 148 141.25 144.083 141.25 139.25V128Z" fill="#EBBAAA"/>
<path d="M106.42 157.057C112.452 145.119 122.311 146.02 126.5 146.472L118.681 187.85V248.25C82.8336 238.138 87.7184 194.07 106.42 157.057Z" fill="#A1D9EB"/>
<path d="M193.58 157.057C187.548 145.119 177.689 146.02 173.5 146.472L181.319 187.85V248.25C217.167 238.138 212.282 194.07 193.58 157.057Z" fill="#A1D9EB"/>
<path d="M158.001 281.25L195 272.2L189.652 209.994L184.304 147.789L158.75 138.5L153 186.665C155.151 215.011 158.001 281.25 158.001 281.25Z" fill="#8CC9DC"/>
<path d="M141.999 281.25L105 272.2L110.348 209.994L115.696 147.789L141.25 138.5L147 186.5C144.849 214.846 141.999 281.25 141.999 281.25Z" fill="#8CC9DC"/>
<path d="M152.904 186.914L158.75 138.5L176.607 144.22L158.75 189.125L155.5 228.375L152.904 186.914Z" fill="#66ABC1"/>
<path d="M147 186.5L141.25 138.5L122.86 144.22L143.375 185.125L145.75 205.75L147 186.5Z" fill="#66ABC1"/>
<path d="M140.216 193.852C141.58 193.852 142.686 192.746 142.686 191.382C142.686 190.018 141.58 188.913 140.216 188.913C138.852 188.913 137.746 190.018 137.746 191.382C137.746 192.746 138.852 193.852 140.216 193.852Z" fill="#66ACC1"/>
<path d="M138.213 227.101C139.577 227.101 140.682 225.995 140.682 224.631C140.682 223.268 139.577 222.162 138.213 222.162C136.849 222.162 135.743 223.268 135.743 224.631C135.743 225.995 136.849 227.101 138.213 227.101Z" fill="#66ACC1"/>
<path d="M139.537 210.601C140.9 210.601 142.006 209.495 142.006 208.131C142.006 206.768 140.9 205.662 139.537 205.662C138.173 205.662 137.067 206.768 137.067 208.131C137.067 209.495 138.173 210.601 139.537 210.601Z" fill="#66ACC1"/>
<path d="M136.53 243.207C137.894 243.207 139 242.101 139 240.737C139 239.373 137.894 238.268 136.53 238.268C135.166 238.268 134.06 239.373 134.06 240.737C134.06 242.101 135.166 243.207 136.53 243.207Z" fill="#66ACC1"/>
<path d="M135.027 259.415C136.391 259.415 137.497 258.309 137.497 256.945C137.497 255.581 136.391 254.476 135.027 254.476C133.663 254.476 132.558 255.581 132.558 256.945C132.558 258.309 133.663 259.415 135.027 259.415Z" fill="#66ACC1"/>
<path d="M112.5 70C112.5 49.2893 129.289 32.5 150 32.5C170.711 32.5 187.5 49.2893 187.5 70V87.0935L185.92 102.624C184.049 121.012 168.564 135 150.082 135C131.955 135 116.651 121.53 114.35 103.55L112.5 89.095V70Z" fill="#F4D5CC"/>
<path d="M177.2 78.8348C169.168 71.1103 171.3 48.1859 152.977 48.1859C149.787 48.1859 142.437 30.9926 152.977 28.75C173.558 28.75 184.11 43.2023 188.628 54.4565C197.92 77.6045 200.174 116.71 194.15 143.662C191.705 154.603 192.885 159.257 191.128 161.25C191.128 161.25 182.343 156.578 172.554 147.358C178.204 127.054 183.475 89.9853 177.2 78.8348Z" fill="#3D2C18"/>
<path d="M122.8 78.8348C130.832 71.1103 128.7 48.1859 147.023 48.1859C150.213 48.1859 157.563 30.9926 147.023 28.75C126.442 28.75 115.89 43.2023 111.372 54.4565C102.08 77.6045 99.8263 116.71 105.85 143.662C108.295 154.603 107.115 159.257 108.872 161.25C108.872 161.25 117.657 156.578 127.446 147.358C121.796 127.054 116.526 89.9853 122.8 78.8348Z" fill="#3D2C18"/>
<path d="M142.174 33.5162C142.856 33.4053 143.498 33.8677 143.609 34.5491C143.72 35.2305 143.257 35.8728 142.576 35.9837L140.609 36.3071C140.046 36.402 139.672 36.4685 139.279 36.5431L139.187 36.5604C138.183 36.7523 137.435 36.9338 136.719 37.163L136.6 37.2016C135.493 37.5663 134.362 38.0743 132.317 39.1142C131.701 39.4271 130.949 39.1819 130.636 38.5665C130.323 37.9511 130.568 37.1986 131.183 36.8857L131.465 36.7432C133.396 35.7673 134.563 35.2468 135.735 34.8549L135.818 34.8271C136.592 34.5721 137.376 34.3724 138.361 34.1746L139.142 34.0254C139.79 33.9066 140.519 33.7856 142.174 33.5162Z" fill="#6E5232"/>
<path d="M142.789 38.128C143.478 38.0805 144.075 38.6003 144.122 39.289C144.17 39.9778 143.65 40.5746 142.961 40.6221C139.9 40.8332 138.645 41.291 135.783 43.0629C135.196 43.4263 134.426 43.245 134.062 42.658C133.699 42.071 133.88 41.3006 134.467 40.9372L134.771 40.7507C137.759 38.9274 139.398 38.3619 142.789 38.128Z" fill="#6E5232"/>
<path d="M140.496 67.8586C141.323 67.8225 142.023 68.4641 142.06 69.2917C142.095 70.1006 141.483 70.7877 140.683 70.8523L140.626 70.8558L126.303 71.4815C125.476 71.5177 124.775 70.8761 124.739 70.0484C124.704 69.2396 125.316 68.5524 126.116 68.4879L126.172 68.4844L140.496 67.8586Z" fill="#62360D"/>
<path d="M137.202 79.3004C137.884 79.1926 138.524 79.658 138.632 80.3399C138.737 81.0039 138.298 81.6282 137.646 81.7602L137.592 81.7698L130.858 82.8343C130.177 82.9421 129.536 82.4767 129.429 81.7948C129.324 81.1308 129.762 80.5064 130.415 80.3745L130.468 80.3649L137.202 79.3004Z" fill="black"/>
<path d="M161.796 79.6875C161.901 79.0236 162.51 78.5649 163.172 78.6408L163.225 78.6481L169.959 79.7128C170.641 79.8207 171.107 80.4608 170.999 81.1427C170.894 81.8067 170.284 82.2653 169.623 82.1895L169.569 82.1822L162.835 81.1174C162.153 81.0096 161.688 80.3694 161.796 79.6875Z" fill="black"/>
<path d="M136.122 77.5347C137.753 77.5347 139.081 78.8368 139.121 80.4584L139.122 80.5347V87.7292C139.122 89.386 137.779 90.7292 136.122 90.7292C134.491 90.7292 133.163 89.427 133.123 87.8054L133.122 87.7292V80.5347C133.122 78.8778 134.465 77.5347 136.122 77.5347Z" fill="black"/>
<path d="M164.579 77.3828C166.21 77.3828 167.537 78.6849 167.578 80.3066L167.579 80.3828V87.5776C167.579 89.2344 166.236 90.5776 164.579 90.5776C162.947 90.5776 161.62 89.2754 161.58 87.6538L161.579 87.5776V80.3828C161.579 78.726 162.922 77.3828 164.579 77.3828Z" fill="black"/>
<path d="M158.466 68.8003C158.515 67.9922 159.196 67.3728 159.999 67.3923L160.055 67.3947L174.365 68.2704C175.192 68.321 175.821 69.0324 175.771 69.8593C175.721 70.6674 175.041 71.2867 174.238 71.2672L174.182 71.2648L159.872 70.3891C159.045 70.3385 158.415 69.6272 158.466 68.8003Z" fill="#62360D"/>
<path fill-rule="evenodd" clip-rule="evenodd" d="M159.784 105.151V108.617C159.784 113.942 155.467 118.259 150.142 118.259C144.817 118.259 140.5 113.942 140.5 108.617V105.151H159.784Z" fill="#393939"/>
<mask id="mask0_0_8314" style="mask-type:luminance" maskUnits="userSpaceOnUse" x="140" y="103" width="20" height="16">
<path fill-rule="evenodd" clip-rule="evenodd" d="M159.656 103.5C159.74 104.012 159.784 104.536 159.784 105.072V108.617C159.784 113.942 155.467 118.259 150.142 118.259C144.817 118.259 140.5 113.942 140.5 108.617V105.072C140.5 104.536 140.543 104.012 140.627 103.5H159.656Z" fill="white"/>
</mask>
<g mask="url(#mask0_0_8314)">
<path d="M149.627 121.652C146.416 121.652 143.813 120.234 143.813 118.486C143.813 116.737 146.416 115.319 149.627 115.319C152.839 115.319 155.442 116.737 155.442 118.486C155.442 120.234 152.839 121.652 149.627 121.652Z" fill="#FF6C6C"/>
<rect width="19.2837" height="3.97675" transform="matrix(-1 0 0 1 159.784 104.651)" fill="white"/>
</g>
<path d="M149.201 86.96L152.737 89.3174C151.535 91.1202 150.594 93.8263 150.594 95.7949C150.594 97.6932 151.279 98.4911 153.378 98.5132L153.469 98.5137V102.764C148.833 102.764 146.344 99.9633 146.344 95.7949C146.344 92.9712 147.518 89.5434 149.113 87.0927L149.201 86.96Z" fill="#EBBAAA"/>
<path d="M178.134 143.287C176.346 137.908 177.389 126.354 178.134 121.25C172.669 128.595 172.876 138.75 172.876 143.287C172.876 149.327 172.172 161.962 171.054 167.191C172.296 166.818 175.451 164.801 178.134 159.721C181.488 153.372 180.37 150.01 178.134 143.287Z" fill="#3D2C18"/>
<path d="M176.876 138.125C179.501 132.963 179.005 123.604 179.751 118.5C174.285 125.845 173.601 133.214 170.759 136.75C163.126 146.25 170.494 153.146 169.376 158.375C172.259 154.5 173.001 152 173.001 146.625C173.001 139.444 173.664 144.441 176.876 138.125Z" fill="#3D2C18"/>
<path d="M190.384 147.537C188.595 142.158 189.639 130.604 190.384 125.5C184.919 132.845 171.613 146.852 176.681 150.139C181.748 153.426 184.422 166.212 183.304 171.441C184.546 171.068 187.701 169.051 190.384 163.971C193.738 157.622 192.62 154.26 190.384 147.537Z" fill="#3D2C18"/>
<path d="M121.867 143.287C123.655 137.908 122.612 126.354 121.867 121.25C127.332 128.595 127.125 138.75 127.125 143.287C127.125 149.327 127.829 161.962 128.947 167.191C127.705 166.818 124.55 164.801 121.867 159.721C118.513 153.372 119.631 150.01 121.867 143.287Z" fill="#3D2C18"/>
<path d="M123.125 138.125C120.5 132.963 120.995 123.604 120.25 118.5C125.715 125.845 126.4 133.214 129.242 136.75C136.875 146.25 129.507 153.146 130.625 158.375C127.742 154.5 127 152 127 146.625C127 139.444 126.337 144.441 123.125 138.125Z" fill="#3D2C18"/>
<path d="M109.617 147.537C111.405 142.158 110.362 130.604 109.617 125.5C115.082 132.845 128.388 146.852 123.32 150.139C118.252 153.426 115.579 166.212 116.697 171.441C115.455 171.068 112.3 169.051 109.617 163.971C106.263 157.622 107.381 154.26 109.617 147.537Z" fill="#3D2C18"/>
<path fill-rule="evenodd" clip-rule="evenodd" d="M163.625 75H167.375C173.724 75 178.896 80.0936 178.999 86.4412L179 86.625C179 93.0453 173.795 98.25 167.375 98.25H163.625C157.205 98.25 152 93.0453 152 86.625C152 80.2047 157.205 75 163.625 75ZM167.375 77H163.625C158.309 77 154 81.3093 154 86.625C154 91.9407 158.309 96.25 163.625 96.25H167.375C172.691 96.25 177 91.9407 177 86.6331L176.999 86.4655C176.914 81.2174 172.631 77 167.375 77Z" fill="#060606" fill-opacity="0.75"/>
<path fill-rule="evenodd" clip-rule="evenodd" d="M132.625 75H136.375C142.795 75 148 80.2047 148 86.625C148 93.0453 142.795 98.25 136.375 98.25H132.625C126.205 98.25 121 93.0453 121 86.6169L121.002 86.4331C121.104 80.0936 126.276 75 132.625 75ZM136.375 77H132.625C127.369 77 123.086 81.2174 123.001 86.4574L123 86.625C123 91.9407 127.309 96.25 132.625 96.25H136.375C141.691 96.25 146 91.9407 146 86.625C146 81.3093 141.691 77 136.375 77Z" fill="#060606" fill-opacity="0.75"/>
<rect x="146.25" y="83.75" width="7.5" height="2" fill="#423A38"/>
</svg>
