<svg width="300" height="400" viewBox="0 0 300 400" fill="none" xmlns="http://www.w3.org/2000/svg">
<path d="M166.625 302.798C170.316 302.798 173.314 305.76 173.374 309.436L173.375 309.548V351.55C173.375 355.278 170.353 358.3 166.625 358.3C162.934 358.3 159.935 355.338 159.876 351.662L159.875 351.55V309.548C159.875 305.82 162.897 302.798 166.625 302.798Z" fill="#DCE1E9"/>
<path d="M131.878 302.838C135.547 302.437 138.85 305.055 139.308 308.703L139.321 308.814L143.504 347.084C143.909 350.79 141.233 354.123 137.527 354.528C133.858 354.929 130.555 352.31 130.097 348.662L130.084 348.551L125.901 310.281C125.496 306.575 128.172 303.243 131.878 302.838Z" fill="#DCE1E9"/>
<path d="M205.495 360.625C205.371 359.825 205.732 359.273 203.855 358.523C201.978 357.773 179.83 361.648 179.83 361.648C174.128 361.185 158.814 353.718 153.176 357.148C151.393 358.233 151.997 361.67 152.656 364.888C153.709 365.96 164.368 366.898 167.824 366.095C167.824 364.218 168.093 363.01 168.093 363.01C168.093 363.01 170.187 364.363 172.447 364.888C177.056 365.96 177.703 366 191.98 366C203.432 364.928 205.619 361.425 205.495 360.625Z" fill="#5F4A3D"/>
<path d="M172.108 326.625C170.888 326.625 163.767 330.358 160.074 327.46C159.668 327.143 158.844 327.403 158.843 327.92C158.836 332.893 158.763 341.545 158.017 344.975C157.227 348.61 156.56 348.09 155.77 351.465C155.223 353.803 153.451 359.255 155.77 359.255H166.345C168.847 359.255 172.226 362.158 180.557 362.973C194.388 364.328 199.033 362.528 201.406 361.5C207.455 358.883 203.623 355.053 200.529 353.598C195.995 351.465 189.498 349.865 186.193 348.098C183.62 346.723 182.736 346.295 181.415 344.848C179.237 342.463 177.323 329.915 177.027 326.638C177.007 326.41 176.687 326.293 176.492 326.413C175.204 327.205 173.317 326.625 172.108 326.625Z" fill="#DDB488"/>
<path d="M174.781 344.625C172.907 344.125 172.179 337.625 172.179 326.75C171.117 326.75 168.55 328.125 164.671 328.375C160.597 328.253 160.664 327.885 159.585 327.275C159.556 327.257 159.522 327.233 159.494 327.215C157.802 326.077 158.563 344.253 157.349 347.472C156.369 350.073 154.531 353.972 154.531 358.722C154.531 360.125 164.031 359.25 167.531 359.5C168.792 352.778 176.436 351.355 178.281 350.125C178.655 349.875 176.406 345.058 174.781 344.625Z" fill="#B0865D"/>
<mask id="mask0_0_8396" style="mask-type:luminance" maskUnits="userSpaceOnUse" x="154" y="326" width="25" height="34">
<path fill-rule="evenodd" clip-rule="evenodd" d="M174.74 344.375C172.866 343.875 172.138 337.375 172.138 326.5C171.076 326.5 168.509 327.875 164.63 328.125C160.556 328.003 160.623 327.635 159.544 327.025C159.515 327.007 159.481 326.983 159.453 326.965C157.761 325.827 158.522 344.003 157.308 347.222C156.328 349.823 154.49 353.722 154.49 358.472C154.49 359.875 163.99 359 167.49 359.25C168.751 352.528 176.395 351.105 178.24 349.875C178.614 349.625 176.365 344.808 174.74 344.375Z" fill="white"/>
</mask>
<g mask="url(#mask0_0_8396)">
<path d="M157 336.75V330.875L174.375 329.75V336.75C173.25 337.043 170.1 337.625 166.5 337.625C162.9 337.625 158.125 337.625 157 336.75Z" fill="#ECCF5A"/>
<path d="M157.906 332.875L157.031 326.125L173.906 324.25C174.739 326.875 175.481 332.275 171.781 332.875C168.081 333.475 160.989 333.125 157.906 332.875Z" fill="#473E3E"/>
</g>
<path d="M179.866 344.65C177.422 342.058 175.987 331.75 175.862 326.625C176.362 326.5 176.487 326.15 176.863 326.275C177.238 326.4 177.238 327.9 177.363 329.15C177.5 330.52 178.49 334.775 178.99 337.65C179.491 340.525 179.991 342.275 181.868 344.65C183.37 346.55 185.654 347.125 187.531 348.75C187.031 348.5 186.531 348.375 186.281 348.375H185.281C184.531 348.375 182.906 347.875 179.866 344.65Z" fill="#B0865D"/>
<path d="M176.445 327.002C177.163 326.952 177.373 327.946 176.725 328.203L176.685 328.218L173.348 329.329L176.659 330.274C177.19 330.426 177.273 331.133 176.812 331.41L176.773 331.431L174.02 332.845L177.603 333.511C178.205 333.623 178.298 334.437 177.758 334.689L177.718 334.706L173.968 336.187L178.179 337.53C178.704 337.697 178.766 338.406 178.298 338.669L178.257 338.689L174.946 340.264L178.982 340.755C179.509 340.819 179.716 341.465 179.341 341.824L179.31 341.852L176.466 344.264L180.834 343.754C181.43 343.685 181.765 344.408 181.347 344.818L181.318 344.845L178.615 347.215L183.041 346.386C183.367 346.325 183.681 346.528 183.762 346.845L183.77 346.885C183.832 347.211 183.628 347.525 183.311 347.605L183.271 347.614L176.603 348.864C175.991 348.979 175.613 348.232 176.047 347.807L176.075 347.78L178.984 345.229L174.558 345.746C173.957 345.816 173.624 345.082 174.051 344.675L174.081 344.648L177.412 341.823L172.658 341.245C172.051 341.172 171.906 340.367 172.428 340.08L172.465 340.061L176.292 338.24L171.918 336.846C171.372 336.672 171.333 335.924 171.837 335.686L171.878 335.669L175.236 334.342L171.993 333.74C171.422 333.633 171.298 332.879 171.785 332.589L171.822 332.569L174.795 331.042L171.06 329.976C170.483 329.811 170.452 329.016 170.993 328.797L171.034 328.782L171.632 328.583L171.037 328.624C170.706 328.646 170.418 328.407 170.375 328.084L170.371 328.043C170.348 327.712 170.587 327.424 170.911 327.381L170.952 327.377L176.445 327.002Z" fill="#F2D996"/>
<path d="M174.288 328.077C174.521 327.823 174.916 327.806 175.171 328.04L175.393 328.245C179.008 331.616 183.807 337.36 184.957 340.001C185.094 340.317 184.949 340.685 184.633 340.823C184.316 340.961 183.948 340.816 183.81 340.499C182.724 338.004 177.845 332.19 174.326 328.961C174.071 328.727 174.054 328.332 174.288 328.077Z" fill="#F2D996"/>
<path d="M184.175 339.938C184.347 339.823 184.58 339.87 184.695 340.042L184.778 340.168C184.83 340.249 184.881 340.33 184.946 340.438L185.145 340.767C185.208 340.869 185.258 340.947 185.321 341.042C185.436 341.214 185.39 341.447 185.217 341.562C185.045 341.677 184.812 341.63 184.697 341.458L184.615 341.333C184.58 341.279 184.546 341.225 184.508 341.163L184.248 340.734C184.185 340.631 184.135 340.554 184.072 340.458C183.957 340.286 184.003 340.053 184.175 339.938Z" fill="#463E35"/>
<path d="M173.259 328.235C173.475 327.965 173.868 327.921 174.138 328.137C174.407 328.353 174.451 328.746 174.235 329.016C172.946 330.626 171.329 333.197 170.447 335.361C170.316 335.681 169.952 335.834 169.632 335.704C169.312 335.573 169.159 335.209 169.289 334.889C170.223 332.6 171.901 329.931 173.259 328.235Z" fill="#F2D996"/>
<path fill-rule="evenodd" clip-rule="evenodd" d="M163.178 334.482C163.285 334.374 163.407 334.34 163.513 334.415C163.564 334.451 163.601 334.508 163.626 334.582L164.032 334.431L164.085 334.466C164.211 334.55 164.304 334.648 164.364 334.763L164.39 334.816L164.421 334.824C165.172 335.011 165.292 335.54 164.916 336.093C164.777 336.298 164.581 336.483 164.399 336.584C164.168 336.712 163.951 336.702 163.895 336.475C163.849 336.291 163.88 336.153 164.023 335.77L164.077 335.626C164.1 335.564 164.116 335.518 164.131 335.47C164.188 335.291 164.21 335.151 164.193 335.034C164.032 335.013 163.862 335.016 163.686 335.042L163.669 335.045C163.649 335.407 163.538 335.79 163.366 336.02C163.194 336.25 162.803 336.371 162.33 336.378L162.274 336.379C162.065 336.501 161.846 336.57 161.641 336.57C161.42 336.57 161.353 336.424 161.415 336.242C161.151 336.151 160.949 336.021 160.836 335.855C160.104 336.159 159.738 335.969 159.88 335.444C159.987 335.045 160.372 334.57 160.641 334.57C160.788 334.57 161.023 334.625 161.287 334.716L161.379 334.748C161.557 334.634 161.749 334.54 161.889 334.496C161.982 334.467 162.048 334.458 162.107 334.484C162.236 334.541 162.217 334.647 162.142 334.742L162.125 334.762L162.104 334.783C162.046 334.842 161.996 334.918 161.958 335.004C162.03 335.041 162.096 335.079 162.155 335.117L162.171 335.128L162.599 334.967C162.617 334.936 162.64 334.907 162.669 334.879L162.7 334.85L162.705 334.847L162.705 334.847C162.746 334.818 163.033 334.615 163.157 334.501L163.178 334.482ZM164.448 335.091L164.449 335.12C164.448 335.229 164.428 335.347 164.39 335.478L164.37 335.546C164.346 335.618 164.322 335.686 164.28 335.796L164.237 335.911C164.133 336.195 164.11 336.307 164.137 336.415C164.14 336.424 164.169 336.426 164.278 336.365C164.424 336.284 164.592 336.126 164.71 335.953C164.97 335.569 164.934 335.267 164.503 335.11L164.448 335.091ZM162.448 335.548C162.522 335.499 162.597 335.453 162.674 335.41L162.683 335.431C162.738 335.595 162.538 335.911 162.205 336.127L162.1 336.122C162.002 336.115 161.904 336.103 161.809 336.086C161.871 336.015 161.948 335.939 162.035 335.863C162.122 335.868 162.214 335.85 162.312 335.811C162.471 335.748 162.547 335.632 162.519 335.503L162.448 335.548ZM163.414 335.1L163.355 335.117C163.261 335.145 163.166 335.178 163.071 335.217L162.976 335.258L162.895 335.295L162.908 335.322C162.999 335.54 162.893 335.817 162.672 336.058L162.628 336.104L162.643 336.102C162.854 336.069 163.023 336.004 163.12 335.919L163.145 335.895L163.166 335.87C163.285 335.712 163.373 335.442 163.407 335.17L163.414 335.1ZM161.653 335.589L161.674 335.581L161.678 335.592L161.694 335.628C161.716 335.675 161.744 335.716 161.778 335.75L161.73 335.79L161.742 335.794L161.694 335.842C161.646 335.892 161.602 335.942 161.564 335.99L161.541 336.02L161.527 336.016L161.463 335.994C161.298 335.933 161.169 335.856 161.088 335.77L161.083 335.765L161.652 335.581L161.653 335.589ZM160.641 334.82C160.516 334.82 160.203 335.207 160.121 335.509C160.049 335.778 160.173 335.86 160.681 335.651L160.73 335.63L160.725 335.617L160.743 335.611L160.741 335.592C160.728 335.382 160.857 335.17 161.082 334.971L161.132 334.928L161.092 334.915C160.941 334.868 160.807 334.836 160.711 334.825L160.672 334.821L160.641 334.82ZM161.908 335.493L162.137 335.408L162.171 335.435L162.162 335.442C162.096 335.49 162.032 335.539 161.972 335.589C161.945 335.569 161.923 335.538 161.908 335.493ZM161.411 335.029C161.167 335.204 161.018 335.382 160.995 335.53L161.635 335.324C161.636 335.262 161.643 335.198 161.656 335.134C161.597 335.106 161.535 335.079 161.473 335.053L161.411 335.029ZM163.822 334.776L163.997 334.711L164.027 334.735L164.044 334.751L164.06 334.767L164.066 334.773L164.026 334.771L163.964 334.771C163.923 334.771 163.881 334.772 163.839 334.775L163.822 334.776Z" fill="#473E3E"/>
<path fill-rule="evenodd" clip-rule="evenodd" d="M166.927 334.482C167.068 334.341 167.234 334.338 167.331 334.488C167.373 334.552 167.399 334.642 167.412 334.751L167.416 334.792L167.482 334.784C167.587 334.772 167.692 334.768 167.795 334.772L167.816 334.773L167.794 334.751C167.775 334.733 167.754 334.716 167.732 334.699L167.696 334.674C167.639 334.636 167.623 334.558 167.661 334.501C167.7 334.443 167.777 334.428 167.835 334.466C167.982 334.564 168.081 334.675 168.138 334.802L168.144 334.817L168.171 334.824C168.903 335.007 169.035 335.514 168.693 336.052L168.666 336.093C168.527 336.298 168.33 336.482 168.148 336.584C167.918 336.712 167.701 336.702 167.644 336.475C167.598 336.291 167.629 336.153 167.772 335.77L167.827 335.626C167.849 335.564 167.865 335.518 167.881 335.47C167.931 335.311 167.955 335.18 167.947 335.067L167.943 335.035L167.906 335.03C167.766 335.015 167.621 335.018 167.473 335.037L167.418 335.045L167.416 335.078C167.394 335.403 167.298 335.744 167.15 335.97L167.115 336.02C166.933 336.264 166.509 336.378 166.053 336.38L166.022 336.379L166 336.392C165.82 336.494 165.623 336.56 165.434 336.569L165.39 336.57C165.174 336.57 165.107 336.435 165.158 336.262L165.166 336.237C164.876 336.136 164.643 335.982 164.543 335.782L164.524 335.741C164.419 335.477 164.56 335.203 164.849 334.954L164.88 334.927L164.845 334.916C164.677 334.863 164.528 334.828 164.426 334.821L164.39 334.82C164.182 334.82 164.082 335.353 164.14 335.933C164.147 336.001 164.097 336.063 164.028 336.069C163.959 336.076 163.898 336.026 163.891 335.957C163.817 335.216 163.939 334.57 164.39 334.57C164.541 334.57 164.785 334.629 165.049 334.72L165.128 334.748L165.185 334.713C165.366 334.603 165.555 334.516 165.682 334.484C165.786 334.457 165.856 334.457 165.912 334.526C165.985 334.616 165.945 334.693 165.854 334.783C165.799 334.838 165.753 334.908 165.717 334.984L165.708 335.004L165.746 335.024C165.891 335.103 166.011 335.182 166.099 335.258L166.134 335.291L166.202 335.249L166.281 335.202L166.317 335.182L166.315 335.171C166.295 335.06 166.331 334.964 166.421 334.876L166.45 334.85L166.455 334.847L166.455 334.847L166.455 334.847C166.495 334.818 166.783 334.615 166.907 334.501L166.927 334.482ZM168.198 335.09C168.2 335.228 168.172 335.378 168.119 335.545L168.087 335.639C168.072 335.683 168.054 335.732 168.03 335.795L167.987 335.91C167.883 336.195 167.86 336.306 167.887 336.414C167.889 336.424 167.918 336.425 168.027 336.364C168.174 336.283 168.341 336.125 168.459 335.952C168.72 335.569 168.683 335.267 168.253 335.109L168.198 335.09ZM166.337 335.459L166.423 335.409L166.433 335.436C166.488 335.617 166.27 335.914 165.975 336.113L165.952 336.128L165.852 336.122C165.758 336.115 165.663 336.103 165.571 336.087L165.56 336.084L165.578 336.063C165.631 336.006 165.691 335.945 165.759 335.884L165.784 335.862L165.802 335.863C165.88 335.865 165.968 335.848 166.062 335.811L166.096 335.795C166.227 335.732 166.286 335.632 166.271 335.523L166.267 335.502L166.337 335.459ZM167.163 335.099L167.096 335.117C166.97 335.155 166.842 335.203 166.715 335.26L166.644 335.293L166.653 335.311C166.754 335.536 166.636 335.823 166.413 336.066L166.372 336.109L166.427 336.1C166.629 336.066 166.797 335.999 166.892 335.898L166.916 335.869C167.039 335.705 167.129 335.419 167.16 335.138L167.163 335.099ZM165.127 335.052L165.161 335.028L165.276 335.075L165.375 335.119L165.406 335.133L165.399 335.168C165.383 335.262 165.38 335.357 165.392 335.445L165.398 335.483C165.418 335.593 165.462 335.683 165.525 335.747L165.532 335.754L165.481 335.803C165.414 335.87 165.356 335.935 165.307 335.998L165.291 336.018L165.279 336.015C165.022 335.932 164.821 335.808 164.757 335.648C164.693 335.488 164.841 335.265 165.127 335.052ZM165.64 335.25L165.637 335.273C165.633 335.321 165.634 335.368 165.639 335.412C165.65 335.489 165.672 335.545 165.71 335.578L165.721 335.587L165.765 335.552C165.786 335.535 165.807 335.519 165.829 335.502L165.895 335.453L165.921 335.434L165.893 335.412C165.835 335.368 165.762 335.32 165.676 335.271L165.64 335.25ZM167.122 334.636L167.125 334.63L167.131 334.641C167.149 334.681 167.163 334.75 167.169 334.839L167.065 334.866C166.937 334.902 166.807 334.948 166.679 335.002L166.645 335.017L166.693 334.983C166.807 334.902 167.011 334.751 167.104 334.658C167.107 334.655 167.11 334.652 167.112 334.649L167.122 334.636Z" fill="#473E3E"/>
<path d="M169.408 335.082C169.5 334.897 169.725 334.822 169.911 334.915C170.096 335.007 170.171 335.233 170.078 335.418L170.037 335.498C170.007 335.553 169.974 335.612 169.927 335.692L169.71 336.056C169.646 336.164 169.61 336.229 169.578 336.293C169.485 336.478 169.26 336.553 169.075 336.46C168.889 336.368 168.814 336.142 168.907 335.957L168.932 335.908C168.967 335.842 169.006 335.773 169.065 335.673L169.314 335.254C169.355 335.183 169.383 335.132 169.408 335.082Z" fill="#463E35"/>
<path d="M203.303 364.193C204.189 363.985 203.89 362.498 203.533 361.52C202.8 361.733 201.318 362.585 201.332 363.208C201.365 364.785 202.195 364.45 203.303 364.193Z" fill="#5F4A3D"/>
<path d="M205.086 362.51C205.413 362.335 205.273 360.505 204.781 359.545C203.616 359.81 203.026 361.188 203.026 361.188C203.026 361.188 202.664 362.2 203.454 362.805C203.774 362.923 204.59 362.773 205.086 362.51Z" fill="#5F4A3D"/>
<path d="M201.218 365.333C202.207 365.135 201.727 363.123 201.363 362.143C200.543 362.35 198.935 363.075 199.064 364.333C199.226 365.905 199.982 365.583 201.218 365.333Z" fill="#5F4A3D"/>
<path d="M198.496 366.16C199.592 366.062 199.295 364.013 199.01 363C198.097 363.123 196.271 363.68 196.271 364.945C196.271 366.525 197.127 366.28 198.496 366.16Z" fill="#5F4A3D"/>
<path d="M195.614 366.66C196.892 366.562 196.546 364.513 196.213 363.5C195.148 363.623 193.018 364.18 193.018 365.445C193.018 367.025 194.016 366.78 195.614 366.66Z" fill="#5F4A3D"/>
<path d="M192.49 367.16C193.586 367.062 193.289 365.013 193.004 364C192.091 364.123 190.265 364.68 190.265 365.945C190.265 367.525 191.121 367.28 192.49 367.16Z" fill="#5F4A3D"/>
<path d="M189.607 367.41C190.886 367.312 190.539 365.263 190.207 364.25C189.141 364.373 187.011 364.93 187.011 366.195C187.011 367.775 188.01 367.53 189.607 367.41Z" fill="#5F4A3D"/>
<path d="M186.354 367.66C187.632 367.562 187.286 365.513 186.953 364.5C185.888 364.623 183.758 365.18 183.758 366.445C183.758 368.025 184.756 367.78 186.354 367.66Z" fill="#5F4A3D"/>
<path d="M183.049 367.817C184.149 367.842 184.083 365.772 183.913 364.735C183.544 364.742 182.068 364.32 181.565 364.47C180.814 364.697 181.059 365.61 180.974 366.362C180.797 367.932 181.675 367.785 183.049 367.817Z" fill="#5F4A3D"/>
<path d="M180.119 367.567C181.219 367.592 181.154 365.522 180.984 364.485C180.614 364.492 179.139 364.07 178.635 364.22C177.884 364.447 178.129 365.36 178.044 366.112C177.867 367.682 178.745 367.535 180.119 367.567Z" fill="#5F4A3D"/>
<path d="M177.366 367.23C178.466 367.255 178.401 365.185 178.23 364.148C177.861 364.155 176.385 363.73 175.882 363.883C175.131 364.11 175.376 365.02 175.291 365.773C175.114 367.343 175.992 367.198 177.366 367.23Z" fill="#5F4A3D"/>
<path d="M174.613 366.73C175.713 366.755 175.648 364.685 175.478 363.648C175.108 363.655 173.633 363.23 173.129 363.383C172.378 363.61 172.623 364.52 172.538 365.273C172.361 366.843 173.239 366.698 174.613 366.73Z" fill="#5F4A3D"/>
<path d="M172.111 365.98C173.21 366.005 173.145 363.935 172.975 362.898C172.605 362.905 171.13 362.48 170.626 362.633C169.875 362.86 170.12 363.77 170.035 364.523C169.859 366.093 170.736 365.948 172.111 365.98Z" fill="#5F4A3D"/>
<path d="M169.608 365.48C170.707 365.505 170.642 363.435 170.472 362.398C170.103 362.405 168.627 361.98 168.124 362.133C167.372 362.36 167.617 363.27 167.533 364.023C167.356 365.593 168.233 365.448 169.608 365.48Z" fill="#5F4A3D"/>
<path d="M152.869 358.958L153.056 358.792L153.135 358.879C154.047 359.857 155.17 360.241 158.363 360.752C160.304 361.062 163.846 361.02 166.832 360.792L167.342 360.751L167.39 360.756L168.283 361.03C169.506 361.401 171.292 361.932 173.269 362.505L173.511 362.574C177.435 363.66 183.891 364.25 192.031 364.25C197.39 364.25 202.579 362.5 204.261 360.602L204.311 360.544L204.501 360.706C202.82 362.691 197.511 364.5 192.031 364.5L191.523 364.499C183.517 364.475 177.178 363.873 173.32 362.78L172.01 362.399C170.126 361.847 168.508 361.363 167.53 361.061L167.339 361.002L167.194 361.014C164.179 361.262 160.504 361.323 158.439 361.016L158.324 360.999C155.078 360.48 153.914 360.081 152.952 359.05L152.869 358.958Z" fill="#B0865D" fill-opacity="0.2"/>
<path d="M176.108 327.125C177.553 327.15 179.676 328.466 181.277 330.237C183.105 332.26 183.897 334.437 183.038 336.155C182.327 337.575 181.352 338.206 180.227 337.931C179.338 337.714 178.476 336.943 177.621 335.736C176.258 333.812 174.929 330.698 174.485 328.631C174.413 328.294 174.628 327.961 174.965 327.889C175.303 327.817 175.635 328.031 175.708 328.369C176.116 330.274 177.378 333.232 178.641 335.014C179.337 335.996 180 336.589 180.524 336.717C180.999 336.833 181.445 336.545 181.92 335.595C182.489 334.458 181.87 332.758 180.35 331.076C178.983 329.564 177.182 328.435 176.145 328.377L176.087 328.375C175.742 328.369 175.467 328.085 175.473 327.739C175.478 327.394 175.763 327.119 176.108 327.125Z" fill="#F2D996"/>
<path d="M174.179 327.889C174.517 327.817 174.849 328.032 174.921 328.37C175.175 329.56 175.202 333.726 174.932 337.155L174.897 337.58C174.485 342.353 173.661 345.125 171.932 345.125C168.383 345.125 165.977 342.994 165.818 339.718C165.654 336.323 167.884 332.247 172.271 328.405C172.531 328.178 172.926 328.204 173.153 328.463C173.381 328.723 173.355 329.118 173.095 329.345C168.969 332.959 166.923 336.697 167.067 339.657C167.192 342.246 169.031 343.875 171.932 343.875C172.023 343.875 172.15 343.788 172.315 343.543C172.526 343.231 172.728 342.744 172.91 342.104C173.243 340.933 173.495 339.304 173.66 337.377L173.695 336.935C173.947 333.64 173.918 329.66 173.698 328.63C173.626 328.293 173.842 327.961 174.179 327.889Z" fill="#F2D996"/>
<path d="M96.5049 360.625C96.6292 359.825 96.2676 359.273 98.1445 358.523C100.021 357.773 122.17 361.648 122.17 361.648C127.872 361.185 143.185 353.718 148.823 357.148C150.607 358.233 150.003 361.67 149.344 364.888C148.29 365.96 137.632 366.898 134.176 366.095C134.176 364.218 133.907 363.01 133.907 363.01C133.907 363.01 131.813 364.363 129.553 364.888C124.943 365.96 124.297 366 110.019 366C98.568 364.928 96.3806 361.425 96.5049 360.625Z" fill="#5F4A3D"/>
<path d="M129.892 326.625C131.112 326.625 138.233 330.358 141.926 327.46C142.331 327.143 143.156 327.403 143.156 327.92C143.163 332.893 143.237 341.545 143.983 344.975C144.773 348.61 145.44 348.09 146.23 351.465C146.777 353.803 148.548 359.255 146.23 359.255H135.655C133.153 359.255 129.774 362.158 121.442 362.973C107.612 364.328 102.966 362.528 100.594 361.5C94.5448 358.883 98.3762 355.053 101.471 353.598C106.004 351.465 112.501 349.865 115.806 348.098C118.38 346.723 119.263 346.295 120.585 344.848C122.763 342.463 124.677 329.915 124.972 326.638C124.993 326.41 125.313 326.293 125.507 326.413C126.796 327.205 128.682 326.625 129.892 326.625Z" fill="#DDB488"/>
<path d="M127.218 344.625C129.093 344.125 129.821 337.625 129.821 326.75C130.883 326.75 133.45 328.125 137.329 328.375C141.403 328.253 141.336 327.885 142.414 327.275C142.444 327.257 142.478 327.233 142.505 327.215C144.197 326.077 143.436 344.253 144.651 347.472C145.631 350.073 147.469 353.972 147.469 358.722C147.469 360.125 137.969 359.25 134.469 359.5C133.208 352.778 125.563 351.355 123.719 350.125C123.344 349.875 125.594 345.058 127.218 344.625Z" fill="#B0865D"/>
<mask id="mask1_0_8396" style="mask-type:luminance" maskUnits="userSpaceOnUse" x="123" y="326" width="25" height="34">
<path fill-rule="evenodd" clip-rule="evenodd" d="M127.259 344.375C129.133 343.875 129.861 337.375 129.861 326.5C130.923 326.5 133.49 327.875 137.369 328.125C141.443 328.003 141.376 327.635 142.455 327.025C142.484 327.007 142.518 326.983 142.546 326.965C144.238 325.827 143.477 344.003 144.691 347.222C145.671 349.823 147.509 353.722 147.509 358.472C147.509 359.875 138.009 359 134.509 359.25C133.248 352.528 125.604 351.105 123.76 349.875C123.385 349.625 125.634 344.808 127.259 344.375Z" fill="white"/>
</mask>
<g mask="url(#mask1_0_8396)">
<path d="M144.999 336.75V330.875L127.624 329.75V336.75C128.749 337.043 131.899 337.625 135.499 337.625C139.099 337.625 143.874 337.625 144.999 336.75Z" fill="#ECCF5A"/>
<path d="M144.093 332.875L144.968 326.125L128.093 324.25C127.26 326.875 126.518 332.275 130.218 332.875C133.918 333.475 141.01 333.125 144.093 332.875Z" fill="#473E3E"/>
</g>
<path d="M122.134 344.65C124.578 342.058 126.013 331.75 126.138 326.625C125.638 326.5 125.513 326.15 125.137 326.275C124.762 326.4 124.762 327.9 124.637 329.15C124.5 330.52 123.51 334.775 123.01 337.65C122.509 340.525 122.009 342.275 120.132 344.65C118.63 346.55 116.346 347.125 114.469 348.75C114.969 348.5 115.469 348.375 115.719 348.375H116.719C117.469 348.375 119.094 347.875 122.134 344.65Z" fill="#B0865D"/>
<path d="M125.513 327L125.555 327.001L131.048 327.376C131.392 327.4 131.653 327.698 131.629 328.043C131.606 328.373 131.331 328.626 131.004 328.625L130.963 328.624L130.367 328.583L130.965 328.782C131.534 328.971 131.531 329.767 130.982 329.963L130.939 329.976L127.205 331.042L130.178 332.569C130.695 332.835 130.597 333.593 130.047 333.731L130.006 333.739L126.763 334.342L130.122 335.669C130.654 335.879 130.643 336.627 130.124 336.831L130.082 336.845L125.707 338.24L129.535 340.061C130.087 340.323 129.969 341.132 129.383 341.239L129.342 341.245L124.588 341.823L127.919 344.648C128.38 345.04 128.071 345.784 127.482 345.749L127.442 345.746L123.015 345.229L125.925 347.78C126.393 348.191 126.038 348.949 125.436 348.87L125.397 348.864L118.729 347.614C118.389 347.551 118.166 347.224 118.229 346.885C118.29 346.559 118.594 346.34 118.918 346.379L118.959 346.386L123.385 347.215L120.682 344.845C120.231 344.449 120.543 343.716 121.127 343.751L121.166 343.754L125.534 344.264L122.689 341.852C122.284 341.508 122.467 340.855 122.977 340.761L123.018 340.755L127.053 340.264L123.742 338.689C123.244 338.453 123.279 337.742 123.778 337.545L123.821 337.53L128.031 336.187L124.282 334.706C123.712 334.481 123.777 333.664 124.355 333.52L124.397 333.511L127.979 332.845L125.227 331.431C124.736 331.179 124.792 330.468 125.299 330.287L125.341 330.274L128.651 329.329L125.315 328.218C124.646 327.995 124.808 327.031 125.471 327L125.513 327Z" fill="#F2D996"/>
<path d="M126.829 328.04C127.083 327.806 127.479 327.823 127.712 328.077C127.945 328.332 127.928 328.727 127.674 328.96L127.459 329.159C123.959 332.423 119.254 338.054 118.189 340.499C118.052 340.816 117.683 340.961 117.367 340.823C117.05 340.685 116.905 340.317 117.043 340.001C118.216 337.306 123.191 331.378 126.829 328.04Z" fill="#F2D996"/>
<path d="M117.304 340.042C117.419 339.87 117.652 339.823 117.824 339.938C117.996 340.053 118.043 340.286 117.928 340.458L117.852 340.574C117.811 340.637 117.772 340.7 117.723 340.78L117.492 341.163C117.425 341.271 117.371 341.355 117.302 341.458C117.187 341.63 116.954 341.677 116.782 341.562C116.61 341.447 116.563 341.214 116.678 341.042L116.779 340.888C116.827 340.812 116.877 340.73 116.946 340.617L117.115 340.338C117.182 340.229 117.235 340.145 117.304 340.042Z" fill="#463E35"/>
<path d="M127.862 328.137C128.132 327.921 128.525 327.965 128.741 328.235C130.099 329.931 131.777 332.6 132.711 334.889C132.841 335.209 132.688 335.573 132.368 335.704C132.048 335.834 131.684 335.681 131.553 335.361C130.671 333.197 129.054 330.626 127.765 329.016C127.549 328.746 127.593 328.353 127.862 328.137Z" fill="#F2D996"/>
<path fill-rule="evenodd" clip-rule="evenodd" d="M138.487 334.415C138.585 334.346 138.696 334.37 138.797 334.458L138.822 334.482C138.931 334.591 139.252 334.816 139.295 334.847L139.299 334.85C139.342 334.887 139.375 334.923 139.399 334.967L139.828 335.128C139.869 335.101 139.913 335.074 139.961 335.048L140.041 335.004C140.004 334.918 139.954 334.842 139.895 334.783C139.796 334.684 139.751 334.591 139.859 334.504C139.921 334.455 139.991 334.461 140.096 334.492C140.24 334.535 140.445 334.635 140.633 334.757L140.621 334.748C140.88 334.654 141.118 334.59 141.284 334.574L141.33 334.571L141.359 334.57C141.627 334.57 142.013 335.045 142.12 335.444C142.261 335.969 141.896 336.159 141.163 335.855C141.051 336.021 140.849 336.151 140.585 336.242C140.647 336.423 140.58 336.57 140.359 336.57C140.155 336.57 139.936 336.501 139.726 336.379C139.229 336.381 138.813 336.259 138.634 336.02C138.462 335.79 138.351 335.408 138.331 335.045C138.155 335.018 137.986 335.013 137.825 335.032L137.807 335.035C137.792 335.14 137.808 335.261 137.851 335.412L137.868 335.47C137.878 335.499 137.887 335.527 137.898 335.558L138.018 335.883C138.125 336.183 138.146 336.31 138.105 336.475C138.048 336.702 137.832 336.712 137.601 336.584C137.419 336.483 137.223 336.298 137.083 336.093C136.707 335.54 136.828 335.011 137.578 334.824C137.599 334.819 137.619 334.814 137.641 334.809L137.612 334.809C137.663 334.693 137.746 334.591 137.862 334.503L137.914 334.466L137.968 334.431L138.373 334.582C138.398 334.508 138.435 334.451 138.487 334.415ZM137.551 335.119L137.552 335.091L137.542 335.094C137.069 335.247 137.02 335.556 137.29 335.953C137.408 336.126 137.576 336.284 137.722 336.365C137.831 336.426 137.86 336.424 137.862 336.415C137.891 336.3 137.863 336.182 137.742 335.856L137.674 335.674C137.661 335.639 137.651 335.607 137.64 335.577L137.63 335.546C137.587 335.409 137.56 335.288 137.553 335.175L137.551 335.119ZM139.754 336.1C139.434 335.878 139.253 335.57 139.326 335.41L139.41 335.459L139.482 335.503C139.454 335.634 139.529 335.748 139.687 335.811L139.729 335.827L139.78 335.842C139.846 335.86 139.909 335.867 139.967 335.863L139.992 335.885C140.066 335.953 140.134 336.021 140.191 336.086C140.065 336.109 139.932 336.123 139.799 336.127L139.794 336.127L139.754 336.1ZM138.585 335.1C138.613 335.396 138.705 335.698 138.834 335.87C138.91 335.972 139.078 336.05 139.3 336.092L139.371 336.104L139.338 336.07C139.121 335.837 139.01 335.57 139.08 335.353L139.094 335.316L139.104 335.295L139.023 335.257C138.929 335.215 138.834 335.178 138.739 335.146L138.645 335.117L138.585 335.1ZM140.321 335.592L140.325 335.581L140.889 335.792L140.863 335.816L140.826 335.845C140.735 335.912 140.613 335.97 140.468 336.017L140.458 336.02L140.436 335.991L140.396 335.942C140.354 335.893 140.307 335.842 140.255 335.791L140.266 335.788L140.22 335.75L140.244 335.724C140.276 335.686 140.302 335.642 140.321 335.592ZM141.362 334.82L141.339 334.821C141.262 334.824 141.154 334.845 141.026 334.88L140.913 334.913L140.867 334.928L140.87 334.93C141.109 335.129 141.254 335.34 141.26 335.55L141.259 335.592L141.255 335.624L141.269 335.629C141.785 335.851 141.935 335.796 141.89 335.559L141.885 335.534L141.878 335.509C141.797 335.207 141.484 334.82 141.362 334.82ZM139.863 335.408L140.091 335.494C140.076 335.536 140.055 335.568 140.027 335.588L139.977 335.547C139.929 335.509 139.88 335.472 139.828 335.436L139.863 335.408ZM140.588 335.028C140.514 335.058 140.44 335.089 140.37 335.121L140.344 335.134C140.352 335.178 140.359 335.222 140.362 335.266L140.364 335.328L141.008 335.57C141.008 335.425 140.875 335.246 140.64 335.067L140.588 335.028ZM137.973 334.735L138.003 334.711L138.178 334.776L138.161 334.775L138.098 334.772C138.057 334.77 138.015 334.77 137.974 334.771L137.933 334.773L137.939 334.767L137.956 334.751L137.973 334.735Z" fill="#473E3E"/>
<path fill-rule="evenodd" clip-rule="evenodd" d="M134.668 334.488C134.76 334.347 134.911 334.341 135.046 334.457L135.072 334.482C135.181 334.591 135.502 334.816 135.545 334.847L135.55 334.85C135.66 334.945 135.706 335.049 135.685 335.171L135.682 335.182L135.719 335.202L135.797 335.249L135.865 335.291L135.901 335.258C135.989 335.182 136.108 335.103 136.253 335.024L136.291 335.004L136.283 334.984C136.254 334.923 136.218 334.866 136.177 334.818L136.146 334.783C136.055 334.693 136.015 334.616 136.088 334.526C136.144 334.457 136.213 334.457 136.318 334.484C136.431 334.513 136.592 334.584 136.754 334.677L136.841 334.73L136.871 334.748L136.885 334.743C137.149 334.647 137.4 334.582 137.566 334.571L137.609 334.57C138.061 334.57 138.182 335.216 138.108 335.957C138.101 336.026 138.04 336.076 137.972 336.069C137.903 336.063 137.853 336.001 137.86 335.933C137.918 335.353 137.817 334.82 137.609 334.82C137.509 334.82 137.343 334.856 137.154 334.916L137.119 334.927L137.15 334.954C137.426 335.191 137.567 335.451 137.488 335.704L137.475 335.741C137.393 335.947 137.175 336.106 136.896 336.215L136.833 336.237L136.841 336.262C136.89 336.426 136.832 336.556 136.642 336.569L136.609 336.57C136.406 336.57 136.193 336.501 135.999 336.392L135.977 336.379L135.946 336.38C135.512 336.378 135.107 336.274 134.912 336.054L134.884 336.02C134.717 335.797 134.608 335.428 134.583 335.078L134.581 335.045L134.527 335.037C134.378 335.018 134.233 335.015 134.094 335.03L134.056 335.035L134.053 335.067C134.046 335.167 134.064 335.282 134.103 335.418L134.119 335.47C134.128 335.498 134.137 335.527 134.148 335.558L134.268 335.883C134.376 336.183 134.396 336.31 134.355 336.475C134.299 336.702 134.082 336.712 133.851 336.584C133.669 336.482 133.473 336.298 133.334 336.093C132.967 335.554 133.072 335.038 133.774 334.838L133.829 334.824L133.855 334.817L133.862 334.802C133.913 334.688 133.998 334.587 134.122 334.496L134.165 334.466C134.222 334.428 134.3 334.443 134.338 334.501C134.376 334.558 134.361 334.636 134.303 334.674C134.266 334.699 134.234 334.724 134.205 334.751L134.183 334.773L134.205 334.772C134.308 334.768 134.412 334.772 134.518 334.784L134.583 334.792L134.587 334.751C134.598 334.66 134.618 334.583 134.649 334.522L134.668 334.488ZM133.801 335.09L133.792 335.093C133.319 335.246 133.271 335.555 133.541 335.952C133.658 336.125 133.826 336.283 133.972 336.364C134.081 336.425 134.11 336.424 134.113 336.414C134.141 336.3 134.114 336.181 133.992 335.855L133.924 335.673C133.907 335.626 133.894 335.586 133.881 335.545C133.835 335.402 133.808 335.272 133.802 335.152L133.801 335.09ZM136.025 336.113C135.715 335.904 135.491 335.589 135.576 335.409L135.663 335.459L135.732 335.502L135.728 335.523C135.712 335.641 135.783 335.749 135.938 335.811L135.978 335.825C136.057 335.853 136.131 335.865 136.198 335.863L136.215 335.862L136.24 335.884C136.308 335.945 136.369 336.006 136.421 336.063L136.439 336.084L136.428 336.087C136.306 336.109 136.178 336.122 136.052 336.128L136.047 336.128L136.025 336.113ZM134.836 335.099L134.84 335.138C134.871 335.419 134.96 335.705 135.084 335.869C135.172 335.987 135.352 336.062 135.573 336.1L135.627 336.109L135.625 336.106C135.377 335.855 135.24 335.549 135.347 335.311L135.355 335.293L135.285 335.26C135.158 335.203 135.03 335.155 134.903 335.117L134.836 335.099ZM136.838 335.028L136.872 335.052C137.159 335.265 137.307 335.488 137.243 335.648L137.227 335.682C137.15 335.825 136.959 335.938 136.721 336.015L136.708 336.018L136.693 335.998C136.644 335.935 136.585 335.87 136.519 335.803L136.467 335.754L136.474 335.747C136.545 335.675 136.591 335.572 136.608 335.445L136.613 335.392C136.618 335.319 136.613 335.244 136.6 335.168L136.593 335.133L136.624 335.119C136.69 335.089 136.758 335.06 136.825 335.033L136.838 335.028ZM136.359 335.25L136.323 335.271C136.237 335.32 136.164 335.368 136.107 335.412L136.079 335.434L136.105 335.453C136.149 335.485 136.193 335.519 136.234 335.552L136.278 335.587L136.29 335.578C136.322 335.55 136.343 335.505 136.355 335.444L136.36 335.412C136.366 335.368 136.366 335.321 136.362 335.273L136.359 335.25ZM134.868 334.641L134.874 334.63L134.877 334.636C134.881 334.641 134.886 334.648 134.896 334.658L134.917 334.678C135.006 334.762 135.163 334.879 135.27 334.958L135.354 335.017L135.321 335.002C135.16 334.934 134.998 334.879 134.837 334.84L134.83 334.839L134.834 334.795C134.841 334.728 134.853 334.675 134.868 334.641Z" fill="#473E3E"/>
<path d="M132.089 334.915C132.275 334.822 132.5 334.897 132.592 335.082L132.64 335.172C132.658 335.205 132.679 335.241 132.704 335.286L132.976 335.743C133.026 335.829 133.06 335.891 133.093 335.957C133.186 336.142 133.111 336.368 132.925 336.46C132.74 336.553 132.515 336.478 132.422 336.293L132.388 336.227C132.351 336.158 132.301 336.073 132.216 335.931L132.073 335.692C132.003 335.573 131.962 335.498 131.922 335.418C131.829 335.233 131.904 335.007 132.089 334.915Z" fill="#463E35"/>
<path d="M98.6961 364.193C97.81 363.985 98.1089 362.498 98.4658 361.52C99.1992 361.733 100.681 362.585 100.668 363.208C100.634 364.785 99.8037 364.45 98.6961 364.193Z" fill="#5F4A3D"/>
<path d="M96.9138 362.51C96.587 362.335 96.7267 360.505 97.2187 359.545C98.3841 359.81 98.9745 361.188 98.9745 361.188C98.9745 361.188 99.3358 362.2 98.5466 362.805C98.2265 362.923 97.41 362.773 96.9138 362.51Z" fill="#5F4A3D"/>
<path d="M100.782 365.333C99.793 365.135 100.273 363.123 100.637 362.143C101.457 362.35 103.065 363.075 102.936 364.333C102.774 365.905 102.018 365.583 100.782 365.333Z" fill="#5F4A3D"/>
<path d="M103.503 366.16C102.408 366.062 102.704 364.013 102.99 363C103.903 363.123 105.729 363.68 105.729 364.945C105.729 366.525 104.873 366.28 103.503 366.16Z" fill="#5F4A3D"/>
<path d="M106.386 366.66C105.108 366.562 105.454 364.513 105.787 363.5C106.852 363.623 108.982 364.18 108.982 365.445C108.982 367.025 107.984 366.78 106.386 366.66Z" fill="#5F4A3D"/>
<path d="M109.509 367.16C108.413 367.062 108.71 365.013 108.995 364C109.908 364.123 111.734 364.68 111.734 365.945C111.734 367.525 110.878 367.28 109.509 367.16Z" fill="#5F4A3D"/>
<path d="M112.392 367.41C111.113 367.312 111.46 365.263 111.792 364.25C112.858 364.373 114.988 364.93 114.988 366.195C114.988 367.775 113.989 367.53 112.392 367.41Z" fill="#5F4A3D"/>
<path d="M115.646 367.66C114.368 367.562 114.714 365.513 115.047 364.5C116.112 364.623 118.243 365.18 118.243 366.445C118.243 368.025 117.244 367.78 115.646 367.66Z" fill="#5F4A3D"/>
<path d="M118.95 367.817C117.851 367.842 117.916 365.772 118.086 364.735C118.456 364.742 119.931 364.32 120.435 364.47C121.186 364.697 120.941 365.61 121.026 366.362C121.203 367.932 120.325 367.785 118.95 367.817Z" fill="#5F4A3D"/>
<path d="M121.88 367.567C120.781 367.592 120.846 365.522 121.016 364.485C121.386 364.492 122.861 364.07 123.365 364.22C124.116 364.447 123.871 365.36 123.955 366.112C124.132 367.682 123.255 367.535 121.88 367.567Z" fill="#5F4A3D"/>
<path d="M124.633 367.23C123.534 367.255 123.599 365.185 123.769 364.148C124.139 364.155 125.614 363.73 126.118 363.883C126.869 364.11 126.624 365.02 126.709 365.773C126.885 367.343 126.008 367.198 124.633 367.23Z" fill="#5F4A3D"/>
<path d="M127.386 366.73C126.287 366.755 126.352 364.685 126.522 363.648C126.892 363.655 128.367 363.23 128.871 363.383C129.622 363.61 129.377 364.52 129.462 365.273C129.639 366.843 128.761 366.698 127.386 366.73Z" fill="#5F4A3D"/>
<path d="M129.889 365.98C128.79 366.005 128.855 363.935 129.025 362.898C129.395 362.905 130.87 362.48 131.374 362.633C132.125 362.86 131.88 363.77 131.965 364.523C132.141 366.093 131.264 365.948 129.889 365.98Z" fill="#5F4A3D"/>
<path d="M132.393 365.48C131.293 365.505 131.358 363.435 131.528 362.398C131.898 362.405 133.373 361.98 133.877 362.133C134.628 362.36 134.383 363.27 134.468 364.023C134.645 365.593 133.767 365.448 132.393 365.48Z" fill="#5F4A3D"/>
<path d="M148.944 358.792L149.131 358.958L149.048 359.049C148.101 360.066 146.956 360.468 143.817 360.976L143.677 360.999C141.635 361.325 137.878 361.267 134.807 361.014L134.661 361.002L133.959 361.217C132.917 361.535 131.414 361.983 129.714 362.479L128.801 362.745C124.876 363.883 118.3 364.5 109.969 364.5C104.544 364.5 99.2867 362.727 97.5503 360.765L97.4987 360.706L97.6895 360.544C99.3163 362.465 104.556 364.25 109.969 364.25L110.476 364.249C118.545 364.225 124.913 363.612 128.731 362.505L130.769 361.91C132.101 361.517 133.255 361.171 134.076 360.92L134.61 360.756L134.658 360.751L135.169 360.792C138.154 361.02 141.696 361.062 143.637 360.752L143.91 360.708C146.895 360.219 147.979 359.829 148.865 358.879L148.944 358.792Z" fill="#B0865D" fill-opacity="0.2"/>
<path d="M125.892 327.125C126.237 327.119 126.521 327.394 126.527 327.739C126.533 328.071 126.28 328.346 125.954 328.373L125.913 328.375C124.886 328.392 123.042 329.536 121.65 331.076C120.13 332.758 119.511 334.458 120.079 335.595C120.555 336.545 121 336.833 121.476 336.717C122 336.589 122.663 335.996 123.359 335.014C124.621 333.232 125.884 330.275 126.292 328.369C126.365 328.031 126.697 327.816 127.035 327.889C127.372 327.961 127.587 328.294 127.515 328.631C127.071 330.698 125.742 333.812 124.379 335.736C123.524 336.943 122.661 337.714 121.773 337.931C120.648 338.206 119.672 337.575 118.962 336.155C118.102 334.437 118.895 332.26 120.723 330.237C122.324 328.466 124.446 327.15 125.892 327.125Z" fill="#F2D996"/>
<path d="M127.079 328.37C127.151 328.032 127.483 327.817 127.821 327.889C128.159 327.961 128.374 328.293 128.302 328.63C128.077 329.686 128.053 333.844 128.325 337.183L128.358 337.569C128.522 339.412 128.768 340.972 129.091 342.104C129.273 342.744 129.475 343.231 129.685 343.543C129.85 343.788 129.977 343.875 130.068 343.875C132.97 343.875 134.809 342.246 134.934 339.657C135.077 336.697 133.031 332.959 128.905 329.345C128.646 329.118 128.62 328.723 128.847 328.463C129.074 328.204 129.469 328.178 129.729 328.405C134.116 332.247 136.347 336.323 136.183 339.718C136.024 342.994 133.617 345.125 130.068 345.125C128.322 345.125 127.499 342.296 127.091 337.433L127.079 337.285C126.798 333.832 126.823 329.575 127.079 328.37Z" fill="#F2D996"/>
<path d="M149.75 274.395C163.695 274.395 174.999 270.349 174.999 265.358C174.999 260.367 163.695 256.321 149.75 256.321C135.806 256.321 124.502 260.367 124.502 265.358C124.502 270.349 135.806 274.395 149.75 274.395Z" fill="#4E607A"/>
<path d="M114.294 241.818H148.044L146.25 319.198L144.25 326.25L125.125 325.25L122.222 317.575L114.294 241.818Z" fill="#4E607A"/>
<path d="M147.723 243.324H181.587L180.066 317.75L177.316 325L157.816 328.355L156 319.75L147.723 243.324Z" fill="#4E607A"/>
<path d="M123.669 323H146.544L146.125 325.057L145.294 329L140.294 330.62L125.25 330.432L125 329.307L124.669 327.682L124.25 325.807L123.669 323Z" fill="#899099"/>
<path d="M156.75 323.75L178.5 324.125V327.5V329.875L172.669 330.562H166.919L156.169 329.312L156.75 323.75Z" fill="#899099"/>
<path d="M97.9393 181.6C100.263 177.05 105.835 175.246 110.384 177.57C114.934 179.893 116.738 185.465 114.415 190.015C111.193 196.322 107.792 209.036 106.015 221.343L105.962 221.716C105.118 227.672 104.735 233.01 104.868 236.925L104.875 237.114C104.927 238.457 105.039 239.549 105.183 240.322L105.214 240.484L105.222 240.493C107.849 243.5 108.302 247.98 106.075 251.51L105.992 251.638C103.197 255.914 97.4641 257.114 93.1883 254.318C90.1327 252.32 88.4623 249.401 87.4812 245.836C86.8475 243.534 86.5065 240.875 86.3889 237.827C86.189 232.65 86.644 226.182 87.6452 219.119C89.6687 204.846 93.5933 190.109 97.9393 181.6Z" fill="#EBBAAA"/>
<path d="M182.386 172.067C186.835 169.557 192.477 171.129 194.987 175.579C200.911 186.081 205.284 200.919 207.542 216.428C209.691 231.196 209.647 244.552 206.943 251.988C205.197 256.789 199.89 259.266 195.089 257.52C190.336 255.792 187.861 250.573 189.506 245.81L189.557 245.666C190.94 241.862 190.976 231.055 189.234 219.093C187.279 205.656 183.522 192.907 178.874 184.668C176.364 180.219 177.936 174.577 182.386 172.067Z" fill="#EBBAAA"/>
<rect x="97.416" y="173.46" width="27.468" height="4.17175" transform="rotate(18 97.416 173.46)" fill="#F1EDED"/>
<rect x="200.685" y="183.082" width="27.468" height="4.17175" transform="rotate(162 200.685 183.082)" fill="#F1EDED"/>
<path d="M115.239 162.253C115.447 153.649 129.523 145.531 138.125 145.25L151.018 145.765C152.654 145.713 154.293 145.798 155.913 146.022L175.515 148.733C184.163 149.929 190.316 157.747 189.445 166.433L185.737 203.405L187.598 256.374C187.616 256.827 166.054 256.397 165.6 256.374H130.936L111.234 253.4C110.799 253.377 110.466 252.998 110.502 252.563L114.352 198.8L115.239 162.253Z" fill="#1D2C43"/>
<path d="M121.658 252.751L141.269 254.5H157.5V255.25H141.25L141.217 255.249L121.592 253.499L121.658 252.751Z" fill="#121B2B"/>
<path d="M148 168.25C157.941 168.25 166 162.821 166 156.125C166 149.429 157.941 144 148 144C138.059 144 130 149.429 130 156.125C130 162.821 138.059 168.25 148 168.25Z" fill="#121B2B"/>
<rect x="138" y="130.827" width="22" height="29.75" rx="9.47775" fill="#EBBAAA"/>
<rect x="106.036" y="144.5" width="36.928" height="89.9108" rx="18.464" transform="rotate(16.5 106.036 144.5)" fill="#16131B"/>
<path d="M84.8002 244.577C83.2002 239.977 83.4054 221.956 85.4054 214.456L113.3 215.077C112.5 226.625 111.375 237.5 107.5 249.327L107.462 249.328C102.175 249.58 86.7954 250.313 84.8002 244.577Z" fill="#16131B"/>
<path opacity="0.2" d="M91.4999 209.827L109.625 215.327L89.8749 213.452L91.4999 209.827Z" fill="#413A4E"/>
<path opacity="0.2" d="M95.9999 217.077L110 216.327L97.8749 220.202L95.9999 217.077Z" fill="#413A4E"/>
<rect width="39.4963" height="97.077" rx="19.7481" transform="matrix(-0.945519 0.325568 0.325568 0.945519 188.094 142.577)" fill="#16131B"/>
<path d="M141.25 213.625C141.051 196.836 142.75 168.663 142.75 160.625C141.25 160 138.625 156.625 137.375 155.875C136.125 155.125 138 151.875 138 145L116.528 149.118C113.198 153.701 107.339 167.395 106.398 193.624C105.651 214.469 107.971 228.64 107.946 242.125C107.94 245.608 107.946 250.75 108.25 257.75C112.375 258.375 129.322 259.875 142.572 259.875C143.5 243.75 141.544 238.479 141.25 213.625Z" fill="#1B1821"/>
<path d="M128 258.75C123.5 258.75 114 258.015 108.25 257.254L108.375 260.25C111.625 261.201 120.777 261.483 125.375 261.673C130 261.863 136.125 261.673 142.625 261.416V258.75H128Z" fill="#09090C"/>
<path d="M213.5 245.577C215.1 240.977 215.5 224.827 213.5 217.327L185 216.077C188.05 225.577 184.5 235.327 186.75 247.577C192 247.827 211.5 251.327 213.5 245.577Z" fill="#16131B"/>
<path opacity="0.2" d="M205.125 207.577L187 213.077L206.75 211.202L205.125 207.577Z" fill="#413A4E"/>
<path opacity="0.2" d="M201.75 215.577L187.75 214.827L199.875 218.702L201.75 215.577Z" fill="#413A4E"/>
<path d="M156 213.625C156 189.573 155.625 178.375 155.625 174.125C155.625 169.875 155.125 164.375 155.125 161.5C157.625 156.173 160.75 154.5 160 145.875L175.727 147.27C179.706 147.623 183.232 149.827 184.06 153.734C185.763 161.768 186.774 176.291 188.359 195.108C190 214.577 189.185 230.963 190 244.327C190.254 248.495 190 255.75 190.001 259.125C182.811 260.148 166.75 262.25 153 261.125C154.5 247.444 156 237.677 156 213.625Z" fill="#1B1821"/>
<path d="M167 259.125C172.625 259.125 184.375 259 190 258.75V261.875C185.043 262.375 177.876 262.375 173.855 262.375H173.75C165.684 262.375 162 262.75 152.5 261L153 258.125C156.5 258.428 161.397 259.125 167 259.125Z" fill="#09090C"/>
<path d="M138.751 159.467L139.999 159.533L139.835 162.541C139.743 164.202 139.633 166.117 139.501 168.37L138.511 185.079C137.578 200.999 137.162 209.485 137.247 212.144L137.279 212.988C137.329 214.199 137.392 215.371 137.588 218.575L138.373 231.211C138.873 239.355 139.114 244.081 139.124 246.588L139.124 246.853C139.122 248.095 139.085 249.31 139.001 251.18L138.891 253.533C138.721 257.256 138.7 259.066 138.851 260.946L138.872 261.195L137.627 261.305L137.605 261.047C137.45 259.13 137.469 257.315 137.634 253.652L137.752 251.128C137.829 249.427 137.866 248.276 137.873 247.157L137.874 246.671L137.872 246.342C137.85 244.004 137.643 239.848 137.233 233.06L136.951 228.473L136.298 217.957C136.143 215.417 136.084 214.303 136.039 213.243L136 212.273C135.903 209.703 136.298 201.535 137.204 186.017L138.435 165.163C138.516 163.744 138.587 162.485 138.649 161.351L138.751 159.467Z" fill="#09090C"/>
<path d="M136.623 157.467L137.871 157.533L137.79 159.023C137.609 162.228 137.359 166.017 136.908 172.413L135.583 191C134.638 204.414 134.311 210.063 134.381 212.273L134.414 213.113C134.464 214.324 134.526 215.496 134.722 218.7L135.508 231.336C136.007 239.48 136.248 244.206 136.258 246.713L136.259 246.978C136.257 248.289 136.215 249.57 136.121 251.623L136.018 253.82C135.851 257.542 135.836 259.323 136 261.237L136.007 261.32L134.762 261.43L134.74 261.172C134.581 259.197 134.605 257.331 134.784 253.443L134.893 251.1C134.965 249.482 135.001 248.367 135.007 247.282L135.009 246.796L135.007 246.467C134.984 244.129 134.778 239.973 134.368 233.185L134.086 228.598L133.432 218.082C133.278 215.542 133.218 214.428 133.173 213.368L133.135 212.398C133.038 209.84 133.48 202.798 134.826 184.031L135.431 175.58C136.088 166.348 136.388 161.835 136.599 157.907L136.623 157.467Z" fill="#09090C"/>
<path d="M155.886 161.274L157.135 161.225L157.191 162.753C157.362 167.618 157.484 173.74 157.575 181.177L157.608 184.071C157.629 186.015 157.647 188.044 157.665 190.233L157.792 206.972C157.815 209.192 157.838 210.607 157.867 211.5L157.875 211.726C158.117 218.151 157.225 241.195 156.517 247.632L156.377 248.867C156.351 249.102 156.324 249.342 156.297 249.591L155.881 253.438C155.722 254.888 155.591 255.987 155.446 257.056C155.263 258.4 155.062 259.658 154.82 260.941L154.738 261.369L153.511 261.131C153.758 259.863 153.962 258.632 154.146 257.326L154.207 256.888C154.338 255.923 154.458 254.931 154.598 253.67L155.065 249.355C155.116 248.893 155.164 248.46 155.214 248.027L155.254 247.678C155.944 241.704 156.832 219.128 156.639 212.179L156.603 211.009C156.58 210.108 156.561 208.824 156.542 206.995L156.409 189.52C156.385 186.649 156.359 184.048 156.329 181.536L156.29 178.509C156.199 171.951 156.079 166.507 155.918 162.135L155.886 161.274Z" fill="#09090C"/>
<path d="M158.261 161.274L159.51 161.225L159.566 162.753C159.737 167.618 159.859 173.74 159.95 181.177L159.983 184.071C160.004 186.015 160.022 188.044 160.04 190.233L160.167 206.972C160.19 209.192 160.213 210.607 160.242 211.5L160.25 211.726C160.492 218.151 159.6 241.195 158.892 247.632L158.275 253.052L158.153 254.084C157.969 255.603 157.804 256.848 157.621 258.064C157.454 259.169 157.276 260.229 157.076 261.289L156.988 261.744L155.761 261.506C155.994 260.31 156.197 259.123 156.385 257.878L156.432 257.563C156.618 256.3 156.789 254.98 156.984 253.327L157.629 247.678C158.319 241.704 159.207 219.128 159.014 212.179L158.978 211.009C158.955 210.108 158.936 208.824 158.917 206.995L158.784 189.52C158.76 186.649 158.734 184.048 158.704 181.536L158.665 178.509C158.574 171.951 158.454 166.507 158.293 162.135L158.261 161.274Z" fill="#09090C"/>
<path d="M154.635 161.265L155.385 161.235L155.434 162.539C155.597 167.139 155.718 172.884 155.808 179.822L155.858 184.073C155.88 186.126 155.899 188.272 155.918 190.601L156.042 206.977C156.063 209.079 156.085 210.46 156.113 211.36L156.125 211.736C156.367 218.148 155.476 241.179 154.769 247.603L154.133 253.369L154.02 254.366C153.916 255.258 153.821 256.024 153.72 256.772C153.533 258.145 153.327 259.43 153.078 260.754L152.993 261.196L152.257 261.053C152.542 259.585 152.771 258.183 152.976 256.671L153.037 256.215C153.138 255.449 153.235 254.641 153.343 253.678L153.957 248.102L154.002 247.707C154.694 241.72 155.582 219.131 155.389 212.17L155.35 210.882C155.321 209.685 155.298 207.845 155.274 205.023L155.159 189.518C155.135 186.647 155.109 184.045 155.079 181.533L155.04 178.505C154.952 172.164 154.837 166.864 154.684 162.566L154.635 161.265Z" fill="#7B7E8C"/>
<path d="M134.001 153.342L135.249 153.408L135.183 154.63C134.949 158.799 134.585 164.051 133.78 175.049L132.859 187.628C131.73 203.164 131.322 209.715 131.382 212.069L131.417 212.988C131.467 214.199 131.529 215.371 131.725 218.575L132.511 231.211C133.01 239.355 133.251 244.081 133.261 246.588L133.262 246.853C133.26 248.095 133.223 249.31 133.138 251.18L133.028 253.533C132.859 257.256 132.837 259.066 132.988 260.946L133.01 261.195L131.764 261.305L131.743 261.047C131.588 259.13 131.607 257.315 131.771 253.652L131.889 251.128C131.966 249.427 132.003 248.276 132.01 247.157L132.012 246.671L132.01 246.342C131.987 244.004 131.781 239.848 131.371 233.06L131.089 228.473L130.435 217.957C130.281 215.417 130.221 214.303 130.176 213.243L130.138 212.273C130.05 209.944 130.466 203.273 131.689 186.477L132.892 170.039C133.511 161.485 133.796 157.196 133.993 153.492L134.001 153.342Z" fill="#09090C"/>
<path d="M139.25 152.875C137.65 150.175 138.125 146.75 138 144.875L134.249 145.75C134.249 145.75 132.499 151.875 135.874 157.5C137.742 160.613 143.751 163.017 146.405 163.731C146.711 163.814 146.999 163.577 146.999 163.26V158.872C146.999 158.651 146.855 158.458 146.647 158.385C144.486 157.627 140.764 155.43 139.25 152.875Z" fill="#09090C"/>
<path d="M158.125 155.125C160.425 152.825 160 148.25 160 145.75L163.625 146.125C163.958 147.583 164.625 152.05 163.125 156.75C161.683 161.267 155.277 163.914 151.673 164.113C151.428 164.127 151.221 163.947 151.182 163.705L150.453 159.232C150.41 158.964 150.587 158.711 150.853 158.655C152.89 158.224 155.999 157.251 158.125 155.125Z" fill="#09090C"/>
<path d="M144.375 161.25C144.858 161.25 145.25 160.858 145.25 160.375C145.25 159.892 144.858 159.5 144.375 159.5C143.892 159.5 143.5 159.892 143.5 160.375C143.5 160.858 143.892 161.25 144.375 161.25Z" fill="#C4C4C4"/>
<path d="M154.125 162C154.746 162 155.25 161.496 155.25 160.875C155.25 160.254 154.746 159.75 154.125 159.75C153.504 159.75 153 160.254 153 160.875C153 161.496 153.504 162 154.125 162Z" fill="#C4C4C4"/>
<path d="M144.125 161C144.47 161 144.75 160.72 144.75 160.375C144.75 160.03 144.47 159.75 144.125 159.75C143.78 159.75 143.5 160.03 143.5 160.375C143.5 160.72 143.78 161 144.125 161Z" fill="#ECECEC"/>
<path d="M154.494 248.679L153.192 248.51C152.84 248.464 152.491 248.608 152.273 248.887L151.83 249.458C151.643 249.697 151.576 250.009 151.647 250.304L152.315 253.1C152.411 253.503 152.747 253.806 153.158 253.859L153.293 253.877C153.712 253.931 154.12 253.716 154.313 253.34L155.593 250.834C155.735 250.557 155.739 250.229 155.605 249.948L155.268 249.241C155.122 248.934 154.831 248.723 154.494 248.679Z" fill="#C4C4C4"/>
<path fill-rule="evenodd" clip-rule="evenodd" d="M154.585 251.104L152.533 250.837L152.169 252.241L151.226 255.544C150.933 256.569 151.62 257.614 152.677 257.752C153.734 257.889 154.666 257.054 154.645 255.989L154.578 252.555L154.585 251.104ZM152.525 252.681L152.883 251.396L154.202 251.568L154.209 252.9L152.525 252.681ZM152.35 256.461L153.317 256.587C153.781 256.647 154.185 256.268 154.154 255.8C154.13 255.447 153.86 255.159 153.508 255.113L152.541 254.988C152.196 254.943 151.866 255.144 151.747 255.471C151.585 255.918 151.878 256.4 152.35 256.461Z" fill="#DCDCDC"/>
<path d="M153.074 250.632L153.038 251.751C153.03 251.99 153.204 252.195 153.44 252.225C153.677 252.256 153.898 252.102 153.951 251.87L154.202 250.779C154.278 250.45 154.054 250.127 153.719 250.084C153.384 250.04 153.085 250.295 153.074 250.632Z" fill="#B3AFAF"/>
<path opacity="0.5" d="M186.97 113.077C192.492 113.077 196.97 108.599 196.97 103.077C196.97 97.5537 192.492 93.0767 186.97 93.0767C181.447 93.0767 176.97 97.5537 176.97 103.077C176.97 108.599 181.447 113.077 186.97 113.077Z" fill="#C99584"/>
<path opacity="0.5" d="M111.97 113.077C106.447 113.077 101.97 108.599 101.97 103.077C101.97 97.5537 106.447 93.0767 111.97 93.0767C117.492 93.0767 121.97 97.5537 121.97 103.077C121.97 108.599 117.492 113.077 111.97 113.077Z" fill="#C99584"/>
<path d="M111.75 78.125C111.75 57.3452 128.595 40.5 149.375 40.5C170.155 40.5 187 57.3452 187 78.125V93L185.962 109.159C185.495 116.437 183.317 123.589 178.456 129.025C172.014 136.229 161.563 145.25 149.625 145.25C137.51 145.25 126.927 135.961 120.511 128.707C115.857 123.447 113.698 116.595 113.12 109.596L111.75 93V78.125Z" fill="#F4D5CC"/>
<path fill-rule="evenodd" clip-rule="evenodd" d="M136.47 117.081V121.527C136.47 128.371 142.018 133.917 148.859 133.917C155.703 133.917 161.249 128.371 161.249 121.527V117.081H136.47Z" fill="#393939"/>
<mask id="mask2_0_8396" style="mask-type:luminance" maskUnits="userSpaceOnUse" x="136" y="117" width="26" height="17">
<path fill-rule="evenodd" clip-rule="evenodd" d="M136.49 117.077C136.476 117.306 136.47 117.537 136.47 117.768V122.099C136.47 128.627 142.018 133.917 148.859 133.917C155.703 133.917 161.249 128.627 161.249 122.099V117.768C161.249 117.537 161.242 117.306 161.229 117.077H136.49Z" fill="white"/>
</mask>
<g mask="url(#mask2_0_8396)">
<path d="M148.859 137.889C152.986 137.889 156.331 136.069 156.331 133.822C156.331 131.576 152.986 129.755 148.859 129.755C144.733 129.755 141.387 131.576 141.387 133.822C141.387 136.069 144.733 137.889 148.859 137.889Z" fill="#FF6C6C"/>
</g>
<rect x="136.47" y="117.081" width="24.7803" height="5.1074" fill="white"/>
<path d="M109.5 74.1247C109.5 64.4997 110.176 61.8747 112.75 60.1247C115.323 58.3747 125.125 55.1247 120.625 58.6247C116.125 62.1247 115.651 69.6985 115.651 69.6985L113.355 97.2702C113.315 97.7287 112.967 98.077 112.551 98.077C112.117 98.077 111.762 97.7005 111.743 97.224C111.743 97.224 109.5 83.7497 109.5 74.1247Z" fill="black"/>
<path d="M188.375 71.75C188.375 61.7828 186.75 52.9254 179.375 49.875C172 46.8246 171.125 55.125 175 56.5C178.875 57.875 180.018 60.6475 180.625 64.125C181.232 67.6025 184.814 95.8443 184.814 95.8443C184.853 96.3028 185.201 96.651 185.617 96.651C186.051 96.651 186.406 96.2745 186.425 95.798C186.425 95.798 188.375 81.7175 188.375 71.75Z" fill="black"/>
<path d="M152.609 59.8204C149.443 60.8402 127.25 58.7497 125.593 58.8494C124.963 58.8872 120.375 58.1792 117.875 61.8747C115.375 65.5704 111.876 60.4997 113.5 54.9997C115.123 49.4998 115.209 48.1623 118.75 43.7498C122.291 39.3373 128.125 35.7498 137 33.7498C145.875 31.7498 159.279 30.2962 170.75 41.7498C178.386 49.3748 178.625 49.3748 176.5 54.9997C174.375 60.6247 152.609 59.8204 152.609 59.8204Z" fill="black"/>
<path opacity="0.3" d="M173.001 57.875C180.626 55.75 170.375 43.8749 166.25 40.7498C160.75 36.8749 155.423 33.5298 147.125 37.3749C159.23 45.9276 158.751 47.2499 160.5 51.2499C162.722 56.332 160.863 59.2632 159.189 59.7912C159.005 59.8032 158.861 59.828 158.751 59.875C158.893 59.866 159.04 59.838 159.189 59.7912C160.564 59.7017 164.18 60.3332 173.001 57.875Z" fill="#C4C4C4"/>
<path opacity="0.3" d="M157.374 51.8745C156.531 46.5187 149.386 41.3444 144.231 39.3081C155.757 47.1992 155.005 51.641 153.5 59.7496C157.75 59.7496 158.593 59.6106 157.374 51.8745Z" fill="#C4C4C4"/>
<path d="M174.655 80.5C175.898 80.5 176.905 81.5074 176.905 82.75C176.905 83.9705 175.934 84.9639 174.722 84.999L174.655 85H160.405C159.163 85 158.155 83.9926 158.155 82.75C158.155 81.5295 159.127 80.5361 160.339 80.501L160.405 80.5H174.655Z" fill="#393939"/>
<path d="M137.405 80.5C138.648 80.5 139.655 81.5074 139.655 82.75C139.655 83.9705 138.684 84.9639 137.472 84.999L137.405 85H123C121.757 85 120.75 83.9926 120.75 82.75C120.75 81.5295 121.722 80.5361 122.934 80.501L123 80.5H137.405Z" fill="#393939"/>
<path d="M147.702 99.3979L151.238 101.755C150.036 103.558 149.095 106.264 149.095 108.233C149.095 110.131 149.78 110.929 151.879 110.951L151.97 110.952V115.202C147.334 115.202 144.845 112.401 144.845 108.233C144.845 105.409 146.019 101.981 147.614 99.5306L147.702 99.3979Z" fill="#EBBAAA"/>
<path d="M165 88C166.631 88 167.959 89.3021 167.999 90.9238L168 91V95.25C168 96.9069 166.657 98.25 165 98.25C163.369 98.25 162.041 96.9479 162.001 95.3262L162 95.25V91C162 89.3431 163.343 88 165 88Z" fill="black"/>
<path d="M133.875 88C135.506 88 136.834 89.3021 136.874 90.9238L136.875 91V95.25C136.875 96.9069 135.532 98.25 133.875 98.25C132.244 98.25 130.916 96.9479 130.876 95.3262L130.875 95.25V91C130.875 89.3431 132.218 88 133.875 88Z" fill="black"/>
<path d="M145.428 92.1846C146.773 85.9354 142.973 79.8746 136.782 78.3931L131.83 77.2081C131.065 77.0251 130.281 76.9176 129.49 76.8879L126.086 76.7589C119.315 76.5026 113.508 81.8416 113.243 88.5664L113.009 94.4801C112.827 99.0884 115.334 103.314 119.451 105.34L121.062 106.134C123.982 107.57 127.401 107.742 130.525 106.609L136.835 104.319C140.859 102.859 143.87 99.4276 144.761 95.2879L145.428 92.1846Z" fill="#302F35"/>
<path d="M152.979 93.1106C151.747 86.8583 155.606 80.5893 161.761 78.8413L166.6 77.4671C167.365 77.2498 168.148 77.1091 168.936 77.0471L172.232 76.7873C178.941 76.2588 184.607 81.4091 184.768 88.1818L184.91 94.1633C185.021 98.8046 182.476 103.171 178.371 105.388L176.842 106.213C173.914 107.793 170.505 108.105 167.415 107.076L161.284 105.033C157.329 103.715 154.41 100.376 153.595 96.2406L152.979 93.1106Z" fill="#302F35"/>
<path fill-rule="evenodd" clip-rule="evenodd" d="M112.462 94.5651L112.696 88.6514C112.972 81.6502 119.012 76.0973 126.057 76.364L129.461 76.4929C130.284 76.5239 131.101 76.6357 131.899 76.8266L136.851 78.0116C143.307 79.5564 147.271 85.8803 145.87 92.3945L145.202 95.4977C144.275 99.8064 141.144 103.375 136.959 104.893L130.648 107.183C127.397 108.363 123.836 108.184 120.794 106.687L119.182 105.894C114.888 103.78 112.273 99.3706 112.462 94.5651ZM129.424 77.4927L126.019 77.3637C119.524 77.1179 113.949 82.2428 113.695 88.6913L113.461 94.605C113.287 99.0161 115.685 103.058 119.624 104.997L121.236 105.79C124.032 107.167 127.311 107.331 130.307 106.244L136.617 103.954C140.48 102.552 143.37 99.2589 144.225 95.2879L144.892 92.1847C146.18 86.2007 142.545 80.4028 136.618 78.9846L131.666 77.7996C130.932 77.6241 130.181 77.5212 129.424 77.4927Z" fill="#715B4E"/>
<path fill-rule="evenodd" clip-rule="evenodd" d="M168.897 76.5486L172.193 76.2889C179.189 75.7378 185.1 81.1111 185.268 88.17L185.41 94.1514C185.525 98.9809 182.879 103.522 178.608 105.828L177.079 106.653C174.031 108.299 170.479 108.624 167.257 107.55L161.126 105.507C157 104.132 153.954 100.649 153.105 96.3372L152.488 93.2072C151.206 86.6993 155.219 80.1794 161.624 78.3604L166.463 76.9861C167.26 76.7598 168.076 76.6132 168.897 76.5486ZM184.41 94.1752L184.268 88.1937C184.114 81.7068 178.693 76.7798 172.271 77.2857L168.975 77.5455C168.22 77.6049 167.47 77.7397 166.736 77.948L161.897 79.3223C155.992 80.9993 152.288 87.0174 153.469 93.0139L154.086 96.1439C154.866 100.104 157.659 103.298 161.442 104.558L167.573 106.601C170.531 107.587 173.797 107.288 176.604 105.773L178.133 104.948C182.074 102.82 184.516 98.628 184.41 94.1752Z" fill="#715B4E"/>
<path d="M143.773 83.8259C147.241 82.0917 150.913 82.0756 154.596 83.7446L154.74 83.8104L153.686 86.0774C150.678 84.6792 147.798 84.6532 145.019 85.9989L144.891 86.062L143.773 83.8259Z" fill="#715B4E"/>
<path d="M137.534 78.3765L138.232 78.4376C145.692 79.0747 151.239 79.0329 161.226 78.3758C161.432 78.3622 161.611 78.5187 161.624 78.7254C161.638 78.9321 161.482 79.1106 161.275 79.1242L160.358 79.1836C150.604 79.8047 145.093 79.8065 137.467 79.1235C137.261 79.105 137.108 78.9228 137.127 78.7166C137.144 78.5224 137.307 78.3761 137.498 78.375L137.534 78.3765Z" fill="#715B4E"/>
</svg>
