<svg width="300" height="400" viewBox="0 0 300 400" fill="none" xmlns="http://www.w3.org/2000/svg">
<path d="M155.265 248.983C159.653 248.205 163.841 251.131 164.619 255.52C166.124 264.006 166.868 282.718 166.815 305.171L166.813 305.853C166.747 327.418 165.942 348.06 164.683 358.343C164.142 362.767 160.117 365.914 155.693 365.372C151.269 364.831 148.122 360.806 148.664 356.382C151.216 335.537 151.427 274.814 148.808 258.808L148.728 258.337C147.95 253.949 150.876 249.761 155.265 248.983Z" fill="#F6DDD6"/>
<path d="M117.681 253.763C118.459 249.375 122.647 246.448 127.035 247.226C131.38 247.997 134.292 252.109 133.594 256.449L133.572 256.581C130.869 271.827 131.059 333.572 133.636 354.627C134.178 359.051 131.031 363.076 126.607 363.617C122.183 364.159 118.158 361.012 117.617 356.588C116.383 346.511 115.585 326.485 115.492 305.389L115.487 304.097C115.417 281.34 116.161 262.334 117.681 253.763Z" fill="#F6DDD6"/>
<path fill-rule="evenodd" clip-rule="evenodd" d="M131.988 351.723C133.469 355.608 131.521 359.958 127.637 361.438L118.996 364.733C115.112 366.215 110.762 364.268 109.28 360.383C107.799 356.498 101.606 355.865 105.49 354.385L122.272 347.37C126.156 345.89 130.506 347.838 131.988 351.723Z" fill="#F6DDD6"/>
<path d="M109.23 352.82C109.431 352.945 109.616 353.078 109.786 353.218C112.609 355.558 115.043 360.013 118.709 359.913L126.807 359.69C129.51 359.618 131.738 357.548 132.012 354.858L132.518 349.888C132.578 349.303 133.398 349.225 133.568 349.788L134.28 352.148V358.9V363.775C134.28 365.698 132.729 367.26 130.807 367.273L98.2138 367.495C96.5395 367.505 95.095 366.313 95.2105 364.643C95.4828 360.703 97.672 353.975 109.23 352.82Z" fill="#CFB2B2"/>
<path fill-rule="evenodd" clip-rule="evenodd" d="M117.318 355.565C116.126 354.25 113.555 352.42 111.499 351.928L113.329 351.125C115.343 351.763 117.252 352.83 119.176 354.558C121.1 356.285 122.353 358.315 123.34 360.438L120.627 360.95C119.823 359.223 118.51 356.883 117.318 355.565Z" fill="#CFB2B2"/>
<path fill-rule="evenodd" clip-rule="evenodd" d="M150.96 351.723C149.478 355.608 151.426 359.958 155.311 361.438L163.952 364.733C167.836 366.215 172.186 364.268 173.668 360.383C175.149 356.498 181.342 355.865 177.458 354.385L160.676 347.37C156.792 345.89 152.442 347.838 150.96 351.723Z" fill="#F6DDD6"/>
<path d="M173.718 352.82C173.517 352.945 173.332 353.078 173.162 353.218C170.339 355.558 167.905 360.013 164.239 359.913L156.141 359.69C153.438 359.618 151.21 357.548 150.936 354.858L150.43 349.888C150.37 349.303 149.549 349.225 149.38 349.788L148.667 352.148V358.9V363.775C148.667 365.698 150.219 367.26 152.141 367.273L184.734 367.495C186.408 367.505 187.853 366.313 187.737 364.643C187.465 360.703 185.276 353.975 173.718 352.82Z" fill="#CFB2B2"/>
<path fill-rule="evenodd" clip-rule="evenodd" d="M165.63 355.565C166.822 354.25 169.393 352.42 171.448 351.928L169.619 351.125C167.605 351.763 165.696 352.83 163.772 354.558C161.848 356.285 160.594 358.315 159.608 360.438L162.321 360.95C163.125 359.223 164.438 356.883 165.63 355.565Z" fill="#CFB2B2"/>
<path d="M93.4584 187.015L93.4713 186.816C93.7439 182.368 97.571 178.983 102.019 179.255C106.468 179.528 109.853 183.355 109.58 187.803C109.366 191.297 108.74 194.884 107.717 198.924L107.516 199.704C106.942 201.911 106.47 203.521 105.32 207.217L104.12 211.06C102.002 217.879 101.036 221.594 100.442 225.694C99.68 230.948 99.8974 235.514 101.235 239.861C102.546 244.121 100.155 248.636 95.8954 249.947C91.6357 251.258 87.1201 248.867 85.8095 244.607C83.7152 237.801 83.3848 230.86 84.4694 223.378L84.5658 222.731C85.3211 217.802 86.4597 213.496 88.7566 206.113L90.0766 201.885C91.0195 198.845 91.4299 197.434 91.9001 195.627L91.9978 195.25C92.8147 192.074 93.2949 189.411 93.4584 187.015Z" fill="#FBE8E3"/>
<path d="M117.689 189.119C106.042 181.186 109.79 163.1 123.643 160.518L136.279 158.162C138.732 157.705 141.246 157.687 143.705 158.108L157.148 160.411C170.004 162.614 175.839 177.756 167.784 188.016C164.8 191.817 163.551 196.697 164.341 201.465L165.405 207.883C167.495 220.486 157.774 231.951 144.999 231.951H136.928C125.231 231.951 117.635 219.626 122.894 209.177C126.436 202.139 124.201 193.555 117.689 189.119Z" fill="#FBE8E3"/>
<path d="M166.428 172.961C170.316 170.781 175.234 172.166 177.414 176.053L177.693 176.549C178.352 177.71 179.056 178.904 179.849 180.213L180.142 180.693C180.922 181.951 185.094 188.668 186.32 190.768C191.288 199.28 193.932 206.267 194.61 214.615C195.404 224.391 193.187 235.148 187.589 248.014C185.811 252.101 181.056 253.972 176.97 252.194C172.883 250.416 171.012 245.661 172.79 241.575C177.398 230.984 179.083 222.808 178.524 215.921C178.077 210.422 176.279 205.62 172.512 199.129L172.265 198.705C170.908 196.408 166.482 189.294 166.232 188.883L165.859 188.268C164.94 186.746 164.119 185.342 163.336 183.946C161.157 180.059 162.541 175.141 166.428 172.961Z" fill="#FBE8E3"/>
<path d="M175.008 207.559C173.304 204.638 171.643 199.482 168.557 197.781C168.557 197.781 174.795 195.294 175.008 196.733L176.736 208.173C176.736 208.239 176.709 208.305 176.709 208.372C176.709 208.372 181.46 234.327 178.812 254.565C176.165 274.802 187.351 309.017 187.351 309.017C187.511 310.98 186.41 312.757 184.602 313.445C179.652 315.342 161.958 321.525 141.33 321.525C141.256 321.525 141.176 321.56 141.096 321.525C123.323 321.525 104.869 316.242 97.59 313.445C95.7888 312.757 94.6813 310.98 94.8413 309.017C94.8413 309.017 96.509 276.782 100.993 258.695C105.476 240.608 105.483 208.372 105.483 208.372C105.483 208.352 105.476 208.338 105.476 208.325C105.476 208.319 105.483 208.319 105.483 208.312L107.231 196.733V195.076C107.231 195.076 110.148 197.69 108.817 200.124L105.848 208.828C99.9298 205.673 87.656 195.632 86.982 191.112C86.315 186.671 99.785 173.289 112.842 163.221C113.455 162.816 114.042 162.458 114.329 162.366C116.691 161.59 120.22 160.801 123.877 160.51C123.99 163.413 124.73 167.781 127.759 171.28C130.768 174.767 135.245 176.576 141.069 176.656C141.083 176.656 141.096 176.656 141.103 176.656C141.109 176.656 141.129 176.656 141.136 176.656C146.96 176.583 151.437 174.773 154.446 171.28C157.475 167.774 158.216 163.406 158.329 160.51C161.985 160.801 165.514 161.59 167.863 162.359C168.19 162.472 168.89 162.889 169.577 163.36C182.574 173.415 195.924 186.691 195.257 191.112C194.583 195.632 180.926 204.404 175.008 207.559Z" fill="#D2DCE3"/>
<path opacity="0.3" d="M113.218 310.89L120.035 312.065V246.5L113.218 310.89Z" fill="#97B4C7"/>
<path opacity="0.3" d="M176.707 307.372L171.549 308.91L169.891 275.535L176.707 307.372Z" fill="#97B4C7"/>
<path fill-rule="evenodd" clip-rule="evenodd" d="M111.407 162.137C112.984 161.72 112.918 161.751 114.583 161.357C116.291 162.192 117.399 163.755 118.697 166.838C120.024 169.991 121.066 174.521 121.534 180.738C122.469 193.177 121.124 212.669 114.813 242.123C114.61 243.072 113.676 243.676 112.727 243.473C111.779 243.27 111.175 242.336 111.378 241.387C117.653 212.101 118.931 192.973 118.031 181.001C117.58 175.012 116.59 170.888 115.459 168.201C114.298 165.443 113.532 164.437 113.006 163.824C112.48 163.211 112.07 162.879 111.407 162.137Z" fill="white"/>
<path d="M112.266 270.561L119.549 241.565L123.346 280.48L114.218 281.537L112.266 270.561Z" fill="#F7F3ED"/>
<path d="M90.1358 227.824L120.034 241.588L114.519 281.745L83.017 261.045L90.1358 227.824Z" fill="white"/>
<path d="M84.3701 224.821C84.9145 220.398 88.9416 217.253 93.365 217.798C97.7883 218.342 100.933 222.369 100.388 226.792C99.4556 234.372 99.929 240.247 102.178 245.61L102.254 245.788C104.007 249.886 102.105 254.629 98.0076 256.381C93.9099 258.134 89.1674 256.232 87.4149 252.135C83.832 243.757 83.1073 235.081 84.3701 224.821Z" fill="#FBE8E3"/>
<path d="M142.156 132.841C191.395 144.696 234.823 139.719 239.156 121.725C243.488 103.731 207.084 79.5338 157.844 67.6786C108.605 55.8234 65.1769 60.7999 60.8445 78.7939C56.5122 96.7878 92.9164 120.985 142.156 132.841Z" fill="#D9D0C1"/>
<path d="M111.348 127.309C117.409 127.309 122.322 122.085 122.322 115.642C122.322 109.198 117.409 103.974 111.348 103.974C105.287 103.974 100.374 109.198 100.374 115.642C100.374 122.085 105.287 127.309 111.348 127.309Z" fill="#EBBAAA"/>
<path d="M116.198 70.8803C119.961 47.1907 137.839 41.5682 158.276 44.8145C178.713 48.0608 193.969 58.9465 190.206 82.636L183.43 125.299C176.05 152.498 158.276 165.633 139.612 162.315C120.948 158.997 107.727 138.335 109.421 113.543L116.198 70.8803Z" fill="#F6DDD6"/>
<path fill-rule="evenodd" clip-rule="evenodd" d="M134.88 132.619L134.358 135.901C133.573 140.841 136.942 145.482 141.882 146.266C146.821 147.051 151.462 143.683 152.246 138.743L152.768 135.46L134.88 132.619Z" fill="#393939"/>
<mask id="mask0_0_8576" style="mask-type:luminance" maskUnits="userSpaceOnUse" x="134" y="132" width="19" height="15">
<path fill-rule="evenodd" clip-rule="evenodd" d="M134.986 132.025C134.953 132.18 134.924 132.337 134.899 132.495L134.358 135.901C133.573 140.841 136.942 145.481 141.882 146.266C146.821 147.05 151.462 143.682 152.246 138.742L152.787 135.337C152.813 135.179 152.833 135.02 152.85 134.863L134.986 132.025Z" fill="white"/>
</mask>
<g mask="url(#mask0_0_8576)">
<path d="M141.423 149.151C144.402 149.624 147.027 148.685 147.286 147.054C147.546 145.423 145.341 143.717 142.362 143.243C139.383 142.77 136.758 143.709 136.499 145.34C136.24 146.972 138.445 148.678 141.423 149.151Z" fill="#FF6C6C"/>
<rect x="134.879" y="132.619" width="18.1126" height="3.75575" transform="rotate(9.02572 134.879 132.619)" fill="white"/>
</g>
<mask id="mask1_0_8576" style="mask-type:luminance" maskUnits="userSpaceOnUse" x="129" y="113" width="30" height="26">
<path fill-rule="evenodd" clip-rule="evenodd" d="M132.573 113.401L158.329 117.493L154.984 138.554L129.227 134.463L132.573 113.401Z" fill="white"/>
</mask>
<g mask="url(#mask1_0_8576)">
<rect x="131.75" y="135.652" width="23.4002" height="4.85215" transform="rotate(9.02572 131.75 135.652)" fill="white"/>
</g>
<path d="M118.706 86.8879C118.805 86.0215 119.573 85.394 120.435 85.4618L120.493 85.4673L138.378 87.5086C139.263 87.6097 139.899 88.4095 139.798 89.2951C139.699 90.1615 138.932 90.7889 138.069 90.7212L138.012 90.7156L120.127 88.6744C119.241 88.5733 118.605 87.7734 118.706 86.8879Z" fill="#62360D"/>
<path d="M123.85 100.175C123.909 99.3048 124.646 98.6427 125.511 98.6708L125.569 98.6737L138.524 99.5517C139.414 99.6119 140.086 100.382 140.026 101.271C139.967 102.141 139.229 102.803 138.364 102.775L138.306 102.772L125.351 101.894C124.461 101.834 123.789 101.064 123.85 100.175Z" fill="#8BA569"/>
<path d="M161.936 105.158C162.206 104.329 163.083 103.868 163.914 104.107L163.97 104.124L173.303 107.167C174.15 107.443 174.613 108.354 174.337 109.201C174.067 110.03 173.19 110.491 172.359 110.253L172.302 110.235L162.97 107.193C162.122 106.916 161.659 106.005 161.936 105.158Z" fill="#8BA569"/>
<path d="M145.366 115.106L149.915 115.58L149.897 115.769C149.857 116.233 149.843 116.749 149.842 117.674L149.846 119.338C149.846 119.448 149.845 119.552 149.844 119.663L149.841 119.99C149.808 122.516 149.585 124.17 148.89 125.61C147.752 127.967 145.496 128.97 142.628 128.307L142.523 128.282L143.607 123.84C143.915 123.915 144.163 123.944 144.352 123.938C144.465 123.934 144.533 123.92 144.572 123.903C144.618 123.883 144.676 123.822 144.772 123.623C145.098 122.947 145.251 121.737 145.271 119.767L145.273 119.045L145.269 117.624C145.271 116.573 145.288 115.969 145.343 115.354L145.366 115.106Z" fill="#E1BFB4"/>
<path fill-rule="evenodd" clip-rule="evenodd" d="M158.709 70.4262C143.693 90.6972 139.657 93.8597 117.849 93.5822C116.706 100.781 117.404 116.97 121.162 122.419C110.676 125.235 101.969 117.191 97.3708 107.291C97.3708 107.291 95.0088 113.179 98.072 117.929C101.135 122.678 105.364 124.371 105.364 124.371C48.7422 128 105.043 71.1152 105.363 70.426C132.511 60.5557 157.241 34.4589 177.554 53.299C198.809 57.901 189.4 85.0515 198.809 85.0515C214.935 104.163 217.608 117.929 198.809 137.055C200.609 133.024 205.523 117.254 202.43 114.254C195.495 139.654 188.722 140.017 168.051 137.453C179.133 123.136 183.821 114.424 186.781 95.794L177.554 107.291C180.344 95.8097 178.314 71.073 174.359 60.5557C173.34 85.2297 170.979 98.2122 150.928 100.928C157.302 97.4375 168.599 75.6772 158.709 70.4262Z" fill="#8BA569"/>
<path d="M117.849 93.583C139.657 93.8605 143.693 90.698 158.709 70.4268C168.599 75.6778 156.358 88.1045 149.985 91.5948C166.61 89.343 178.595 83.447 178.595 70.4268C180.274 67.0223 172.195 59.9603 176.179 53.879C153.951 45.7005 130.438 54.1098 121.161 68.671C101.741 102.35 110.732 115.721 121.162 122.42C117.404 116.971 116.705 100.782 117.849 93.583Z" fill="#A1CC6A"/>
<path d="M131.855 105.313C134.091 105.093 136.073 106.258 137.365 108.688C137.888 109.672 137.514 110.893 136.53 111.416C135.547 111.939 134.325 111.566 133.802 110.582C133.25 109.544 132.793 109.275 132.249 109.328C131.723 109.38 131.042 109.75 130.535 110.233L130.469 110.297C129.682 111.085 128.405 111.086 127.616 110.298C126.828 109.511 126.828 108.234 127.615 107.445C128.737 106.323 130.263 105.469 131.855 105.313Z" fill="black"/>
<path d="M164.682 110.618C166.968 110.674 168.869 112.032 169.964 114.579C170.404 115.602 169.931 116.789 168.908 117.229C167.904 117.661 166.743 117.214 166.283 116.231L166.257 116.173C165.77 115.038 165.251 114.668 164.584 114.652C163.977 114.637 163.197 114.931 162.598 115.36L162.521 115.416C161.631 116.088 160.366 115.911 159.695 115.022C159.023 114.133 159.2 112.868 160.089 112.197C161.338 111.253 162.956 110.611 164.559 110.617L164.682 110.618Z" fill="black"/>
<path d="M121.855 38.0966C122.844 34.4575 126.373 32.1112 130.111 32.6063L179.361 39.1278C183.879 39.7259 188.164 41.4848 191.798 44.2328L200.648 50.923C203.059 52.7458 204.146 55.8333 203.41 58.7648L196.652 85.6863L155.373 72.3503L114.095 66.6348L121.855 38.0966Z" fill="#EBE4D9"/>
<path fill-rule="evenodd" clip-rule="evenodd" d="M234.406 106.287C211.196 92.389 176.365 79.1275 136.958 73.6205C108.216 69.6042 86.8773 67.5497 71.283 67.6065C87.7701 59.3555 121.198 58.8555 157.845 67.6787C193.895 76.3585 223.065 91.654 234.406 106.287Z" fill="#E8E1D6"/>
<path d="M181.545 74.6335C184.773 69.1743 194.574 58.8745 207.956 61.348C202.014 80.079 187.482 73.48 181.545 74.6335Z" fill="#8BA569"/>
<path d="M180.866 74.5968C186.91 72.6763 199.147 65.4363 199.739 51.8406C180.152 53.4281 183.322 69.0706 180.866 74.5968Z" fill="#A1CC6A"/>
</svg>
