<svg width="300" height="400" viewBox="0 0 300 400" fill="none" xmlns="http://www.w3.org/2000/svg">
<path d="M174.623 285.8L175.897 339.155L176.097 345.484C176.375 354.544 176.502 360.108 176.513 364.449L176.514 365.093L159.767 365.293L159.153 339.614L158.703 325.744C158.624 323.253 158.555 321.008 158.49 318.854L158.4 315.765C158.073 304.331 157.895 295.15 157.877 287.334L157.875 286L174.623 285.8Z" fill="#EBBAAA"/>
<path d="M144.123 285.8L145.397 339.155L145.597 345.484C145.875 354.544 146.002 360.108 146.013 364.449L146.014 365.093L129.267 365.293L128.653 339.614L128.203 325.744C128.124 323.253 128.055 321.008 127.99 318.854L127.9 315.765C127.573 304.331 127.395 295.15 127.377 287.334L127.375 286L144.123 285.8Z" fill="#EBBAAA"/>
<path d="M146.536 273.73C162.482 273.73 175.409 267.607 175.409 260.053C175.409 252.5 162.482 246.377 146.536 246.377C130.59 246.377 117.664 252.5 117.664 260.053C117.664 267.607 130.59 273.73 146.536 273.73Z" fill="#D2D7DB"/>
<path d="M115.5 244.75H149.25L148 347.198V353.25H125L123.972 345.575L115.5 244.75Z" fill="#D2D7DB"/>
<path d="M148.929 246.255H182.793L181.5 343.75L180 350.75L158.25 352.25L157.435 344.75L148.929 246.255Z" fill="#D2D7DB"/>
<path d="M202.292 369.5C202.292 361.825 197.36 360.888 189.322 358.258C185.386 356.97 181.368 355.848 177.292 355.173C174.73 354.748 174.042 357 169.542 357C165.529 357 160.522 355.013 159.485 354.583C159.355 354.528 159.201 354.48 159.098 354.575C159.073 354.598 159.052 354.628 159.036 354.658C158.557 355.643 156.042 361.013 156.042 365.31C156.042 368.598 155.76 371.83 156.667 373.5C157.076 374.253 159.629 374.665 160.487 374.665H200.901C201.669 374.665 202.292 370.268 202.292 369.5Z" fill="#D0D4DB"/>
<mask id="mask0_0_8624" style="mask-type:luminance" maskUnits="userSpaceOnUse" x="156" y="354" width="47" height="21">
<path fill-rule="evenodd" clip-rule="evenodd" d="M202.292 369.5C202.292 365.668 201.062 363.515 198.831 361.995C187.686 354.393 172.782 354.5 159.292 354.5C159.183 354.5 159.084 354.56 159.036 354.658C158.557 355.643 156.042 361.013 156.042 365.31C156.042 368.598 155.76 371.83 156.667 373.5C157.076 374.253 159.63 374.665 160.487 374.665H200.901C201.669 374.665 202.292 370.268 202.292 369.5Z" fill="white"/>
</mask>
<g mask="url(#mask0_0_8624)">
<path d="M174.911 359.114L178.171 360.386C176.728 364.087 169.938 371.777 166.478 373.731L166.375 373.789L164.708 370.711C167.38 369.264 173.627 362.222 174.875 359.204L174.911 359.114Z" fill="#DE9F40"/>
<path d="M156.508 358.228C158.431 359.847 161.75 361.061 166.126 361.869C169.525 362.496 173.244 362.837 177.351 363.001C182.315 363.2 189.971 367.196 191.788 370.161L191.841 370.251L189.242 371.749C188.805 370.991 186.988 369.596 184.742 368.402L184.625 368.34C182.01 366.967 179.292 366.081 177.231 365.999C172.994 365.829 169.144 365.476 165.582 364.819C160.813 363.938 157.102 362.595 154.687 360.616L154.575 360.522L156.508 358.228Z" fill="#576478"/>
<path d="M149.882 354.603C153.456 357.612 160.873 360.69 170.057 363.64L170.621 363.821C175.151 365.262 180.898 369.71 182.663 372.662L182.716 372.751L180.117 374.249C178.799 371.963 173.59 367.914 169.711 366.679C165.805 365.436 162.141 364.149 158.69 362.731C154.006 360.807 150.372 358.899 148.063 356.991L147.95 356.897L149.882 354.603Z" fill="#576478"/>
<path d="M197.255 361.005C200.492 359.175 199.223 362.8 202.131 364.34L208.291 376.147H159.27C158.073 374.435 153.357 370.602 157.013 370.602C165.013 370.602 174.67 370.857 179.289 370.602C183.909 370.345 197.134 371.27 196.357 367.162C195.459 362.415 194.304 362.672 197.255 361.005Z" fill="#AEB5C0"/>
</g>
<path d="M181.408 354.663C181.663 355.003 181.594 355.486 181.254 355.741L180.726 356.129C180.505 356.292 180.334 356.423 180.169 356.555C179.821 356.832 179.534 357.095 179.309 357.346L179.287 357.37L186.427 355.05C187.097 354.833 187.675 355.551 187.34 356.154L187.319 356.189L185.484 359.141L191.302 357.233C191.992 357.007 192.576 357.772 192.194 358.374L192.172 358.408L188.835 363.155C188.591 363.503 188.11 363.587 187.762 363.342C187.427 363.107 187.337 362.653 187.549 362.309L187.575 362.27L189.579 359.419L183.954 361.264C183.284 361.484 182.703 360.765 183.039 360.161L183.06 360.126L184.899 357.166L178.154 359.357C177.671 359.514 177.176 359.169 177.148 358.669L177.147 358.625C177.147 357.4 177.885 356.407 179.208 355.351L179.346 355.242C179.416 355.187 179.489 355.132 179.566 355.074L180.33 354.509C180.67 354.254 181.152 354.323 181.408 354.663Z" fill="white"/>
<path d="M103 369.5C103 361.825 107.931 360.888 115.969 358.258C119.906 356.97 123.924 355.848 128 355.173C130.562 354.748 131.25 357 135.75 357C139.763 357 144.77 355.013 145.806 354.583C145.936 354.528 146.09 354.48 146.194 354.575C146.219 354.598 146.24 354.628 146.256 354.658C146.735 355.643 149.25 361.013 149.25 365.31C149.25 368.598 149.532 371.83 148.625 373.5C148.216 374.253 145.662 374.665 144.805 374.665H104.39C103.622 374.665 103 370.268 103 369.5Z" fill="#D0D4DB"/>
<mask id="mask1_0_8624" style="mask-type:luminance" maskUnits="userSpaceOnUse" x="103" y="354" width="47" height="21">
<path fill-rule="evenodd" clip-rule="evenodd" d="M103 369.5C103 365.668 104.23 363.515 106.461 361.995C117.606 354.393 132.509 354.5 145.999 354.5C146.108 354.5 146.208 354.56 146.256 354.658C146.735 355.643 149.25 361.013 149.25 365.31C149.25 368.598 149.532 371.83 148.625 373.5C148.216 374.253 145.662 374.665 144.805 374.665H104.39C103.622 374.665 103 370.268 103 369.5Z" fill="white"/>
</mask>
<g mask="url(#mask1_0_8624)">
<path d="M130.38 359.114C131.526 362.049 137.758 369.106 140.501 370.666L140.584 370.711L138.917 373.789C135.525 371.952 128.716 364.28 127.165 360.499L127.12 360.386L130.38 359.114Z" fill="#DE9F40"/>
<path d="M148.784 358.228L150.716 360.522C148.305 362.553 144.553 363.925 139.71 364.819C136.147 365.476 132.298 365.829 128.06 365.999C126.042 366.079 123.394 366.93 120.83 368.255L120.666 368.34C118.405 369.527 116.558 370.929 116.073 371.709L116.049 371.749L113.451 370.251C115.166 367.277 122.927 363.202 127.94 363.001C132.048 362.837 135.767 362.496 139.165 361.869C143.473 361.073 146.757 359.885 148.693 358.303L148.784 358.228Z" fill="#576478"/>
<path d="M155.409 354.603L157.341 356.897C155.039 358.836 151.362 360.775 146.601 362.731C143.151 364.149 139.486 365.436 135.58 366.679C131.74 367.901 126.597 371.883 125.215 374.18L125.174 374.249L122.576 372.751C124.277 369.8 130.095 365.277 134.67 363.821L135.235 363.64C144.325 360.72 151.683 357.675 155.298 354.695L155.409 354.603Z" fill="#576478"/>
<path d="M108.036 361.005C104.799 359.175 106.069 362.8 103.16 364.34L97 376.147H146.021C147.219 374.435 151.934 370.602 148.278 370.602C140.278 370.602 130.622 370.857 126.002 370.602C121.382 370.345 108.158 371.27 108.934 367.162C109.833 362.415 110.988 362.672 108.036 361.005Z" fill="#AEB5C0"/>
</g>
<path d="M123.884 354.663C124.13 354.335 124.586 354.259 124.924 354.482L124.98 354.522L125.48 354.89C125.715 355.064 125.901 355.205 126.084 355.351C127.406 356.407 128.145 357.4 128.145 358.625C128.145 359.133 127.663 359.498 127.18 359.37L127.137 359.357L120.393 357.166L122.232 360.126C122.604 360.725 122.044 361.459 121.377 361.276L121.338 361.264L115.713 359.419L117.717 362.27C117.952 362.605 117.883 363.063 117.567 363.314L117.529 363.342C117.194 363.578 116.737 363.509 116.485 363.193L116.457 363.155L113.12 358.408C112.702 357.813 113.265 357.032 113.951 357.222L113.99 357.233L119.807 359.141L117.973 356.189C117.601 355.591 118.159 354.857 118.825 355.038L118.864 355.05L126.004 357.37L125.983 357.346C125.776 357.116 125.518 356.876 125.209 356.624L125.123 356.555L124.932 356.405C124.888 356.371 124.843 356.337 124.795 356.301L124.038 355.741C123.698 355.486 123.629 355.003 123.884 354.663Z" fill="white"/>
<path d="M113.324 159.647C113.013 153.399 117.369 147.884 123.519 146.738L150.282 141.75L177.044 146.738C183.194 147.884 187.55 153.399 187.239 159.647L185.282 199L187.667 253.391C187.729 254.813 186.593 256 185.169 256H115.394C113.97 256 112.834 254.813 112.896 253.391L115.282 199L113.324 159.647Z" fill="#373434"/>
<path d="M113.225 163.455C115.735 159.006 121.377 157.433 125.826 159.943C130.231 162.428 131.816 167.983 129.412 172.411L129.338 172.545C124.737 180.701 119.921 195.843 116.725 211.758L116.574 212.518C115.178 219.599 114.212 226.324 113.795 231.864L113.773 232.16C113.568 234.989 113.515 237.428 113.608 239.363L113.626 239.688C113.669 240.429 113.735 241.065 113.817 241.583L113.85 241.778C113.9 242.062 113.945 242.25 113.97 242.324L113.974 242.339C115.72 247.14 113.244 252.447 108.442 254.193C103.641 255.939 98.3341 253.462 96.5883 248.661C93.8734 241.195 94.9609 226.176 98.5874 208.116C102.134 190.456 107.485 173.631 113.225 163.455Z" fill="#EBBAAA"/>
<path d="M174.737 159.943C179.186 157.433 184.828 159.006 187.338 163.455C193.078 173.631 198.429 190.456 201.975 208.116C205.602 226.176 206.689 241.195 203.975 248.661C202.229 253.462 196.921 255.939 192.12 254.193C187.367 252.465 184.892 247.246 186.537 242.483L186.588 242.339C186.616 242.263 186.68 241.999 186.746 241.583C186.84 240.992 186.912 240.245 186.954 239.363L186.97 239.006C187.041 237.131 186.982 234.817 186.79 232.16C186.371 226.368 185.341 219.244 183.837 211.758C180.641 195.843 175.826 180.701 171.225 172.545C168.715 168.095 170.287 162.453 174.737 159.943Z" fill="#EBBAAA"/>
<path d="M139.541 177.142L117.837 222.183C117.837 222.183 98.7489 211.724 91.4274 204.925C91.4274 204.925 94.4403 187.667 98.7489 171.913C101.247 162.777 107.267 155.642 111.884 151.259C115.583 147.747 120.42 145.866 125.432 144.921L134.834 143.149L139.541 177.142Z" fill="#5788A8"/>
<path d="M91.455 204.66C91.9737 200.456 96.1689 197.745 100.215 198.999L110.739 202.26C114.171 203.324 116.441 206.583 116.25 210.171L116.196 211.183C116.175 211.576 116.125 211.967 116.045 212.352L110.428 239.552C109.941 241.907 107.913 243.626 105.51 243.72L92.6919 244.221C89.4697 244.347 86.9025 241.555 87.2974 238.355L91.455 204.66Z" fill="#5788A8"/>
<path d="M87.7667 244.344L86.4592 233.1C94.8267 231.636 106.332 233.71 111.039 234.93L109.731 244.344C109.731 244.344 102.933 245.128 98.749 245.128C94.5652 245.128 87.7667 244.344 87.7667 244.344Z" fill="#6EA5C9"/>
<path d="M114.961 202.245L100.056 193.616L96.6571 200.676L114.961 202.245Z" fill="#4F7F9D"/>
<path d="M110.106 203.105L95.901 204.775L98.1581 209.188L110.106 206.364V203.105Z" fill="#4F7F9D"/>
<path d="M112.74 164.097C113.549 152.592 123.186 143.672 134.719 143.672C137.021 143.672 139.133 144.987 140.14 147.057L147.647 162.499C147.647 162.499 142.155 192.831 142.155 207.736C142.155 220.277 139.564 250.587 138.742 259.888C138.609 261.388 137.238 262.456 135.749 262.229L109.948 258.293C108.633 258.093 107.678 256.937 107.73 255.607L109.47 210.612L112.74 164.097Z" fill="#5991B6"/>
<path d="M144.391 162.556L147.765 162.966C143.047 201.841 139.482 245.581 139.411 259.617L139.41 260.033H136.011C136.011 246.436 139.538 202.832 144.248 163.739L144.391 162.556Z" fill="#5383A2"/>
<path d="M115.547 195.714L116.16 181.678L135.866 179.935C134.517 186.126 134.131 194.963 133.939 199.381C119.207 205.769 120.589 203.746 115.547 195.714Z" fill="#5383A2"/>
<path d="M135.262 179.967L115.205 177.259L113.669 182.95L121.547 189.314L132.677 185.089L135.262 179.967Z" fill="#6EA5C9"/>
<path d="M138.096 263.541L108.548 260.418C107.883 260.348 107.378 259.787 107.378 259.118V254.542L139.541 257.896V262.241C139.541 263.017 138.868 263.622 138.096 263.541Z" fill="#5383A2"/>
<path d="M147.647 163.806L137.579 139.75L126.597 143.019L127.774 169.821L147.647 163.806Z" fill="#5383A3"/>
<path d="M160.459 177.077L182.162 222.118C182.162 222.118 201.251 211.658 208.572 204.86C208.572 204.86 205.559 187.602 201.251 171.847C198.412 161.466 191.026 153.668 186.319 149.556C183.688 147.258 180.394 145.954 176.961 145.307L165.166 143.084L160.459 177.077Z" fill="#5788A8"/>
<path d="M208.545 204.661C208.026 200.457 203.831 197.746 199.785 198.999L189.261 202.261C185.829 203.325 183.558 206.584 183.75 210.171L183.803 211.183C183.824 211.576 183.875 211.967 183.954 212.352L189.572 239.553C190.058 241.907 192.087 243.627 194.489 243.721L207.308 244.221C210.53 244.347 213.097 241.556 212.702 238.355L208.545 204.661Z" fill="#5788A8"/>
<path d="M212.233 244.344L213.541 233.1C205.173 231.636 193.668 233.711 188.961 234.931L190.268 244.344C190.268 244.344 197.067 245.129 201.251 245.129C205.435 245.129 212.233 244.344 212.233 244.344Z" fill="#6EA5C9"/>
<path d="M184.516 198.584L199.42 189.955L202.82 197.015L184.516 198.584Z" fill="#4F7F9D"/>
<path d="M189.371 199.445L203.576 201.115L201.319 205.527L189.371 202.703V199.445Z" fill="#4F7F9D"/>
<path d="M185.144 162.023C184.043 151.591 175.246 143.672 164.756 143.672C162.608 143.672 160.647 144.899 159.708 146.832L152.092 162.499C152.092 162.499 157.583 192.831 157.583 207.736C157.583 220.277 160.174 250.587 160.997 259.888C161.129 261.388 162.5 262.456 163.989 262.229L189.79 258.293C191.105 258.093 192.06 256.937 192.009 255.607L190.268 210.612L185.144 162.023Z" fill="#5991B6"/>
<path d="M155.347 162.556C160.081 201.553 163.655 245.411 163.726 259.612L163.727 260.033H160.328C160.328 246.599 156.811 203.114 152.116 164.145L151.973 162.966L155.347 162.556Z" fill="#5383A2"/>
<path d="M184.191 195.714L183.578 181.678L163.872 179.935C165.221 186.126 165.607 194.963 165.8 199.381C180.531 205.769 179.149 203.746 184.191 195.714Z" fill="#5383A2"/>
<path d="M164.477 179.967L184.533 177.259L186.069 182.95L178.191 189.314L167.061 185.089L164.477 179.967Z" fill="#6EA5C9"/>
<path d="M161.643 263.541L191.19 260.418C191.855 260.348 192.36 259.787 192.36 259.118V254.542L160.198 257.896V262.241C160.198 263.017 160.87 263.622 161.643 263.541Z" fill="#5383A2"/>
<path d="M152.353 163.806L161.374 139.75L173.141 143.019L171.965 169.821L152.353 163.806Z" fill="#5383A3"/>
<rect x="139.75" y="127.75" width="19.5" height="24" rx="9.47775" fill="#EBBAAA"/>
<path d="M185.317 113.633C193.5 113.633 200.133 107 200.133 98.8167C200.133 90.6337 193.5 84 185.317 84C177.134 84 170.5 90.6337 170.5 98.8167C170.5 107 177.134 113.633 185.317 113.633Z" fill="#EBBAAA"/>
<path d="M115.567 114.383C107.384 114.383 100.75 107.75 100.75 99.5667C100.75 91.3837 107.384 84.75 115.567 84.75C123.75 84.75 130.383 91.3837 130.383 99.5667C130.383 107.75 123.75 114.383 115.567 114.383Z" fill="#EBBAAA"/>
<path d="M109 72.7878C109 50.9517 126.702 33.25 148.538 33.25C170.923 33.25 188.843 51.816 188.051 74.1865L186.783 110.023C186.067 130.234 169.475 146.25 149.25 146.25C130.26 146.25 114.247 132.098 111.912 113.252L109 89.75V72.7878Z" fill="#F4D4C9"/>
<path d="M157.021 119.468C158.005 119.066 159.129 119.537 159.532 120.521C159.934 121.505 159.463 122.629 158.479 123.031C152.242 125.583 146.462 125.653 141.565 122.933C140.636 122.416 140.301 121.244 140.817 120.315C141.334 119.386 142.505 119.051 143.435 119.567C147.21 121.665 151.789 121.609 157.021 119.468Z" fill="#C99584"/>
<path d="M150.853 49.5001C131.802 49.5001 115.607 54.474 114.597 68.358C113.093 89.041 109.496 90.7048 106.769 81.113C106.353 79.6512 106.078 66.391 106.019 64.875C107.098 35.4052 138.974 28.2886 150.853 28.2886C160.588 36.2102 169.905 49.5001 150.853 49.5001Z" fill="#272727"/>
<path d="M108.59 68.3148C108.525 66.2983 109.812 64.6211 111.422 64.6211C113.094 64.6211 114.402 66.4203 114.244 68.5026L111.575 103.781C111.53 104.371 111.135 104.819 110.664 104.819C110.172 104.819 109.769 104.335 109.748 103.722L108.59 68.3148Z" fill="#272727"/>
<path d="M188.966 68.1496C189.032 66.2236 187.745 64.6216 186.134 64.6216C184.463 64.6216 183.155 66.3401 183.313 68.3288L185.982 102.025C186.026 102.588 186.421 103.016 186.892 103.016C187.385 103.016 187.787 102.553 187.808 101.968L188.966 68.1496Z" fill="#272727"/>
<path d="M151 48.5C170.631 48.5 182.491 57.5839 183.3 71.7254C184.516 89.75 187.669 95.3224 190.019 65.125C190.269 33.25 160.199 28.25 147.959 28.25C137.927 36.1716 131.367 48.5 151 48.5Z" fill="#272727"/>
<path d="M125.941 35.3991L123.25 41.6447L149.233 39.8231L178 47.5V43.8567L175.958 42.6857V39.8231H173.36V35.3991H170.019L169.277 32.0161H166.308L164.544 28.633L161.482 29.674L160.554 27.5921H157.399V25.25L153.13 27.5921L152.017 25.25L150.161 27.5921L148.305 25.25L144.779 27.5921L142.552 25.25L140.139 27.5921H138.469L136.613 29.674L135.87 27.5921L132.715 32.0161L130.674 30.9752L127.983 36.0497L125.941 35.3991Z" fill="#272727"/>
<path d="M134.135 56.1133L130.788 47.5658L126.5 36.75L172.5 39.25L160.404 58.25L157.828 53.3657L154.995 56.1133L151.39 50.9237L149.072 56.1133L145.209 53.3657L140.316 56.1133L138.771 53.3657L134.135 56.1133Z" fill="#272727"/>
<path d="M165.143 88.729C166.775 88.729 168.102 90.0311 168.142 91.6528L168.143 91.729V98.9158C168.143 100.573 166.8 101.916 165.143 101.916C163.512 101.916 162.185 100.614 162.144 98.992L162.143 98.9158V91.729C162.143 90.0721 163.486 88.729 165.143 88.729Z" fill="black"/>
<path d="M132.913 88.729C134.545 88.729 135.872 90.0311 135.912 91.6528L135.913 91.729V98.9158C135.913 100.573 134.57 101.916 132.913 101.916C131.282 101.916 129.955 100.614 129.914 98.992L129.913 98.9158V91.729C129.913 90.0721 131.256 88.729 132.913 88.729Z" fill="black"/>
<path d="M153.68 92.5V96H144.5V92.5H153.68Z" fill="black"/>
<path fill-rule="evenodd" clip-rule="evenodd" d="M118.5 97.4134C118.5 89.8673 124.617 83.75 132.163 83.75C139.709 83.75 145.827 89.8673 145.827 97.4134C145.827 104.959 139.709 111.077 132.163 111.077C124.617 111.077 118.5 104.959 118.5 97.4134ZM143.327 97.4134C143.327 91.248 138.329 86.25 132.163 86.25C125.998 86.25 121 91.248 121 97.4134C121 103.579 125.998 108.577 132.163 108.577C138.329 108.577 143.327 103.579 143.327 97.4134Z" fill="#B98E4F"/>
<path fill-rule="evenodd" clip-rule="evenodd" d="M152.445 98.0538C152.445 90.5077 158.562 84.3904 166.108 84.3904C173.654 84.3904 179.772 90.5077 179.772 98.0538C179.772 105.6 173.654 111.717 166.108 111.717C158.562 111.717 152.445 105.6 152.445 98.0538ZM177.272 98.0533C177.272 91.8879 172.274 86.8899 166.109 86.8899C159.943 86.8899 154.945 91.8879 154.945 98.0533C154.945 104.219 159.943 109.217 166.109 109.217C172.274 109.217 177.272 104.219 177.272 98.0533Z" fill="#B98E4F"/>
<path d="M174.071 76.8526C175.45 76.8044 176.608 77.8839 176.656 79.2638C176.704 80.6203 175.661 81.762 174.315 81.8462L174.245 81.8496L159.926 82.3501C158.546 82.3983 157.388 81.3188 157.34 79.9389C157.293 78.5824 158.335 77.4407 159.681 77.3565L159.751 77.3531L174.071 76.8526Z" fill="#393939"/>
<path d="M124.158 77.2808L138.486 77.4063C139.866 77.4184 140.976 78.5474 140.964 79.9281C140.952 81.2853 139.86 82.3805 138.512 82.4057L138.442 82.4061L124.114 82.2806C122.734 82.2685 121.624 81.1394 121.636 79.7588C121.648 78.4015 122.74 77.3064 124.088 77.2811L124.158 77.2808Z" fill="#393939"/>
<path d="M147.18 99.4521L150.877 101.548C149.723 103.584 149.065 105.76 149.136 107.243C149.188 108.337 149.479 108.669 150.51 108.682L150.574 108.682V112.932C147.107 112.932 145.048 110.727 144.891 107.446C144.779 105.104 145.628 102.243 147.093 99.6069L147.18 99.4521Z" fill="#EBBAAA"/>
</svg>
