<svg width="300" height="400" viewBox="0 0 300 400" fill="none" xmlns="http://www.w3.org/2000/svg">
<path d="M117.385 251.596C119.226 250.401 120.974 251.015 122.063 253.261L122.214 253.579C122.682 254.563 123.24 255.652 123.975 257.026L124.866 258.675C125.452 259.755 126.269 261.256 126.677 262.011L127.056 262.718C128.402 265.241 129.414 267.266 130.292 269.244C133.761 277.059 134.486 282.96 131.545 287.425L131.455 287.56L129.801 286.435C132.318 282.732 131.725 277.481 128.561 270.274L128.464 270.055C127.582 268.068 126.553 266.018 125.164 263.422L124.628 262.427C123.928 261.136 122.762 258.994 122.486 258.481L122.12 257.799C121.386 256.423 120.826 255.324 120.349 254.315L120.293 254.194C119.695 252.922 119.26 252.763 118.474 253.274C117.463 253.93 116.195 255.594 114.805 258.079C112.502 262.195 109.952 268.412 107.962 274.363L107.775 274.929L105.875 274.304C107.927 268.072 110.61 261.48 113.06 257.102L113.23 256.8C114.704 254.215 116.076 252.446 117.385 251.596Z" fill="#ECECED"/>
<path d="M101.682 328.67L89.0275 278.312L102.216 276.602L103.03 285.94L115.063 329.657C113.944 328.852 110.841 326.922 108.202 327.427L101.682 328.67Z" fill="#32274D"/>
<path d="M151.357 295.552L115.063 329.657L103.119 286.405L105.003 276.875L136.198 254.842L151.357 295.552Z" fill="#090E0F"/>
<path fill-rule="evenodd" clip-rule="evenodd" d="M122.902 260.986C128.993 256.876 131.943 254.363 133.35 251.611C133.531 251.257 134.065 251.39 134.059 251.787C134.036 253.329 137.335 255.331 139.862 255.213L139.912 255.212C140.8 255.191 141.116 255.741 140.379 256.281C140.038 256.531 139.449 256.858 138.317 257.436L135.383 258.922C134.89 259.174 134.434 259.41 133.979 259.649L133.648 259.823C132.002 260.691 130.512 261.522 129.096 262.377C126.483 263.954 124.267 265.522 122.484 267.114C120.569 268.823 118.516 270.913 115.518 274.146L114.749 274.978L111.807 278.175C107.417 282.932 105.766 284.611 103.834 286.22L103.481 286.511C103.306 286.653 103.045 286.61 102.926 286.418L99.5257 280.941L89.2552 278.618C88.9061 278.539 88.86 278.069 89.1693 277.917L89.2025 277.903C96.5636 275.052 100.248 273.581 104.041 271.918L104.773 271.596C109.813 269.36 113.651 267.329 116.481 265.331L116.935 265.012C117.564 264.572 118.202 264.135 119.034 263.575L122.902 260.986ZM133.558 252.762L133.514 252.833C131.848 255.458 128.759 257.957 122.944 261.862L119.357 264.262C118.608 264.767 118.017 265.171 117.44 265.573L116.766 266.047C113.954 268.011 110.205 269.995 105.335 272.166L104.819 272.395C101.478 273.87 98.347 275.146 92.8911 277.274L90.6199 278.157L99.8448 280.244C99.9305 280.263 100.006 280.312 100.059 280.381L100.081 280.412L103.337 285.657L103.612 285.427C105.446 283.871 107.165 282.102 111.521 277.378L113.34 275.402L114.512 274.129C117.62 270.765 119.742 268.584 121.693 266.816L121.985 266.554C123.807 264.928 126.059 263.334 128.708 261.735C130.234 260.814 131.84 259.922 133.631 258.984C134.203 258.684 134.776 258.39 135.421 258.061L138.076 256.717C138.707 256.394 139.157 256.154 139.477 255.968L139.481 255.965L139.456 255.965C137.107 255.888 134.394 254.4 133.564 252.772L133.558 252.762Z" fill="#32274D"/>
<path d="M125.616 261.592L126.26 261.977L125.284 263.611L124.64 263.226L125.616 261.592Z" fill="#090E0F"/>
<path d="M119.805 246.858C120.944 246.855 122.246 247.527 123.851 248.797L124.126 249.017C126.066 250.585 127.816 252.367 131.98 256.925L134.832 260.057C137.929 263.447 139.86 265.447 141.685 267.085L141.767 267.158L140.434 268.65L140.181 268.422C138.259 266.68 136.226 264.558 132.932 260.941L130.849 258.653C126.474 253.857 124.717 252.058 122.804 250.52L122.61 250.365C121.335 249.356 120.366 248.857 119.81 248.858C119.475 248.859 119.241 249.132 119.084 250.099L119.032 250.439C118.662 252.997 118.485 256.072 118.399 260.483L118.367 262.47L118.313 266.849C118.251 271.117 118.161 273.184 117.925 275.228C117.746 276.77 117.493 277.953 117.13 278.815C116.658 279.937 115.941 280.63 114.937 280.661L114.865 280.662V278.662C114.884 278.662 114.895 278.658 114.941 278.614C115.046 278.515 115.167 278.323 115.287 278.039C115.552 277.409 115.764 276.438 115.921 275.138L115.954 274.853C116.18 272.84 116.262 270.695 116.323 266.155L116.383 261.383L116.4 260.436C116.49 255.794 116.681 252.592 117.094 249.876C117.384 247.976 118.304 246.862 119.805 246.858Z" fill="#ECECED"/>
<path d="M108.239 273.363L110.153 274.124L109.876 274.821L107.962 274.059L108.239 273.363Z" fill="#090E0F"/>
<path fill-rule="evenodd" clip-rule="evenodd" d="M175.853 292.921C171.038 292.573 166.852 296.195 166.504 301.011C165.768 311.22 165.035 323.257 164.61 332.834L164.57 333.737C164.348 338.907 164.22 343.267 164.2 346.672L164.198 347.251C164.194 349.355 164.234 351.083 164.327 352.459L164.341 352.656C164.398 353.435 164.475 354.129 164.585 354.774C164.83 356.222 165.17 357.385 166.047 358.77C168.631 362.849 174.032 364.061 178.11 361.478L178.232 361.399C181.529 359.235 182.893 355.204 181.811 351.589L181.789 351.519L181.771 351.276C181.71 350.374 181.679 349.018 181.682 347.286L181.684 346.769C181.702 343.554 181.829 339.283 182.052 334.17L182.146 332.078C182.539 323.633 183.154 313.462 183.788 304.451L183.943 302.269C184.291 297.454 180.669 293.268 175.853 292.921ZM180.818 349.416C180.832 349.437 180.845 349.459 180.859 349.481L180.818 349.416ZM180.859 349.481C181.176 349.991 181.434 350.522 181.635 351.064L181.645 351.092L181.624 351.028C181.485 350.607 181.266 350.135 180.88 349.515L180.859 349.481Z" fill="#EBBAAA"/>
<path d="M131.669 289.956C132.017 285.14 136.203 281.518 141.018 281.866C145.834 282.214 149.455 286.399 149.108 291.215L149.047 292.075C148.039 306.673 146.242 347.644 146.242 352.95C146.242 357.778 142.328 361.692 137.5 361.692C132.672 361.692 128.758 357.778 128.758 352.95L128.76 352.553C128.833 345.354 130.668 303.829 131.669 289.956Z" fill="#EBBAAA"/>
<path d="M192.81 248.321L162.954 249.393L163.713 289.358L162.25 342.2L161.375 346.325L162.25 348.575H183L191.814 289.358L198.781 257.571L192.81 248.321Z" fill="#242C26"/>
<path d="M158.839 273.529C142.122 273.529 128.57 266.516 128.57 257.864C128.57 249.213 142.122 242.199 158.839 242.199C175.557 242.199 189.109 249.213 189.109 257.864C189.109 266.516 175.557 273.529 158.839 273.529Z" fill="#242C26"/>
<path d="M158.799 249.321H126.083L126.75 341.07L128.5 348.45L149 349.075L152.5 346.075L149.75 339.825L158.799 249.321Z" fill="#242C26"/>
<path d="M103.441 372.205C103.391 366.468 104.172 362.978 109.16 360.633C114.147 358.288 118.845 353.78 127.473 349.915C127.473 349.915 128.609 349.703 130.458 350.703C132.035 351.555 134.062 353.648 137.115 353.62C140.431 353.593 143.386 352.89 145.221 351.928C146.014 349.755 147.774 349.738 147.774 349.738C147.774 349.738 150.251 354.455 150.293 359.19C150.334 363.928 150.33 371.795 150.33 371.795L103.441 372.205Z" fill="#161616"/>
<path d="M125.673 350.264C126.015 350.112 126.415 350.266 126.567 350.608C126.76 351.042 126.899 351.519 126.995 352.038L127.027 352.219C127.14 352.905 127.167 353.517 127.167 354.535C127.167 355.01 126.693 355.332 126.256 355.17L126.217 355.154L122.92 353.7L123.623 356.25C123.763 356.756 123.3 357.215 122.803 357.086L122.763 357.074L119.452 356.007L119.452 359.003C119.452 359.501 118.934 359.824 118.491 359.617L118.453 359.598L116.204 358.379L116.204 360.625C116.204 360.985 115.923 361.279 115.568 361.301L115.527 361.302C115.167 361.302 114.873 361.021 114.852 360.666L114.85 360.625V357.243C114.85 356.744 115.369 356.422 115.812 356.629L115.849 356.648L118.099 357.866L118.099 355.078C118.099 354.633 118.518 354.313 118.942 354.422L118.983 354.434L121.985 355.401L121.236 352.685C121.088 352.148 121.614 351.678 122.125 351.871L122.161 351.886L125.795 353.489C125.777 353.07 125.742 352.727 125.678 352.361L125.664 352.283C125.587 351.863 125.477 351.487 125.33 351.158C125.178 350.816 125.332 350.416 125.673 350.264Z" fill="white"/>
<path d="M105.327 361.073C106.858 360.518 108.478 360.098 111.585 359.393L110.265 363.195L110.302 367.525L101.459 367.603C101.098 367.605 100.454 367.125 100.761 365.173C101.146 362.733 103.153 361.86 105.327 361.073Z" fill="#161616"/>
<path d="M150.599 371.055L150.342 366.5L110.595 367.118L100.684 366.39L100.381 369.885C100.276 371.09 101.181 372.148 102.389 372.233L110.644 372.8L149.535 372.198C150.15 372.188 150.634 371.67 150.599 371.055Z" fill="#D8D8D8"/>
<path d="M131.674 361.053C130.312 361.435 129.214 361.383 128.592 360.898C126.99 359.633 128.016 357.705 128.451 356.95C127.667 357.875 126.889 358.803 126.282 359.815C125.324 361.395 124.918 363.13 125.564 364.243C126.722 366.25 129.506 365.325 131.281 364.518L147.75 357.025L131.674 361.053Z" fill="#F3F4F5"/>
<path d="M207.353 372.705C207.403 366.968 206.621 363.478 201.634 361.133C196.647 358.788 191.949 354.28 183.32 350.415C183.32 350.415 182.184 350.203 180.336 351.203C178.758 352.055 176.732 354.148 173.678 354.12C170.363 354.093 167.408 353.39 165.572 352.428C164.779 350.255 163.02 350.238 163.02 350.238C163.02 350.238 160.542 354.955 160.501 359.69C160.46 364.428 160.464 372.295 160.464 372.295L207.353 372.705Z" fill="#161616"/>
<path d="M184.227 351.108C184.379 350.766 184.779 350.612 185.12 350.764C185.462 350.916 185.615 351.316 185.463 351.658C185.317 351.987 185.207 352.363 185.13 352.783C185.065 353.134 185.027 353.459 185.005 353.842L184.998 353.989L188.632 352.386C189.142 352.161 189.684 352.613 189.567 353.147L189.558 353.185L188.808 355.901L191.81 354.934C192.234 354.797 192.667 355.099 192.693 355.535L192.695 355.578L192.695 358.366L194.944 357.148C195.382 356.91 195.913 357.212 195.942 357.7L195.943 357.743V361.125C195.943 361.499 195.64 361.802 195.266 361.802C194.906 361.802 194.612 361.521 194.591 361.166L194.59 361.125L194.59 358.879L192.34 360.098C191.902 360.335 191.372 360.033 191.343 359.545L191.341 359.503L191.341 356.507L188.03 357.574C187.531 357.735 187.052 357.293 187.16 356.79L187.17 356.75L187.874 354.2L184.577 355.654C184.143 355.846 183.656 355.543 183.628 355.078L183.627 355.035L183.627 354.778C183.632 353.827 183.669 353.241 183.798 352.538C183.894 352.019 184.033 351.542 184.227 351.108Z" fill="white"/>
<path d="M205.466 361.573C203.936 361.018 202.315 360.598 199.208 359.893L200.529 363.695L200.491 368.025L209.334 368.103C209.695 368.105 210.34 367.625 210.032 365.673C209.647 363.233 207.64 362.36 205.466 361.573Z" fill="#161616"/>
<path d="M160.177 371.555L160.434 366.998L200.195 367.618L210.109 366.89L210.412 370.385C210.517 371.59 209.612 372.648 208.404 372.73L200.146 373.3L161.241 372.698C160.625 372.688 160.142 372.168 160.177 371.555Z" fill="#D8D8D8"/>
<path d="M179.076 361.053C180.438 361.435 181.536 361.383 182.158 360.898C183.76 359.633 182.734 357.705 182.299 356.95C183.082 357.875 183.86 358.803 184.468 359.815C185.426 361.395 185.832 363.13 185.186 364.243C184.028 366.25 181.243 365.325 179.469 364.518L163 357.025L179.076 361.053Z" fill="#F3F4F5"/>
<path d="M161.25 350.891L162 351.778L162.625 353.171L163.5 354.564C163.5 354.564 170.562 355.893 174 355.323C177.439 354.753 183.249 353.171 183.249 353.171L182.597 351.271L184.374 349.371L183.249 346.965C183.249 346.965 176.125 348.485 172.25 348.485C168.375 348.485 162 347.599 162 347.599L161.25 350.891Z" fill="#181E19"/>
<path d="M150.499 348.825L150.125 347.95C150.125 347.95 142.625 348.325 138.125 348.325C133.625 348.325 127.885 346.483 127.885 346.483L126.124 348.825L126.5 351.325C126.5 351.325 130.375 353.893 136.125 354.575C141.875 355.255 149.5 354.575 149.5 354.575V352.95L149 350.95L150.499 348.825Z" fill="#181E19"/>
<path d="M197.697 260.712C200.483 258.154 202.962 253.778 202.973 252.278C199.703 251.428 190.826 249.836 190.826 253.153C190.825 254.699 194.215 263.909 197.697 260.712Z" fill="#EBBAAA"/>
<path d="M194.703 252.272C194.742 254.161 196.578 256.948 200.318 260.299L200.446 260.414L197.289 263.963C192.614 259.806 190.08 256.018 189.957 252.48L189.954 252.37L194.703 252.272Z" fill="#1C1E22"/>
<rect width="20.2713" height="51.25" rx="9.74753" transform="matrix(-0.999789 0.0205631 0.0205631 0.999789 168.244 128.665)" fill="#EBBAAA"/>
<path d="M193.029 156.579C191.58 155.108 183.325 149.819 177.279 147.526L161.897 152.468L139.279 148.307C132.139 150.33 123.199 155.139 120.701 156.941C119.008 158.163 118.881 163.942 120.948 168.939C123.615 175.385 126.027 194.089 126.146 199.838C126.549 219.459 123.575 248.526 124.917 252.125C125.171 252.809 141.895 254.133 160.055 253.902C172.351 253.746 185.634 250.599 194.962 250.559C196.291 228.902 190.479 198.575 192.069 183.854L192.15 183.105C194.421 162.089 194.82 158.395 193.029 156.579Z" fill="#EDE9E6"/>
<path fill-rule="evenodd" clip-rule="evenodd" d="M151.777 187.252L154.376 193.963L152.638 193.999L152.304 192.999L150.224 193.042L149.912 194.055L148.174 194.091L150.495 187.278L151.777 187.252ZM150.661 191.645L151.839 191.621L151.232 189.828L150.661 191.645Z" fill="#79A3F6"/>
<path fill-rule="evenodd" clip-rule="evenodd" d="M158.89 191.049L160.411 193.84L158.482 193.879L157.234 191.387L156.674 191.398L156.725 193.915L155.063 193.95L154.924 187.187L157.602 187.132C159.103 187.101 159.932 188.148 159.955 189.26C159.974 190.181 159.416 190.772 158.89 191.049ZM157.586 189.992C158.041 189.983 158.301 189.645 158.293 189.294C158.286 188.942 158.013 188.615 157.557 188.625L156.617 188.644L156.645 190.012L157.586 189.992Z" fill="#79A3F6"/>
<path d="M166.145 186.956L164.416 186.992L163.373 190.795L162.156 187.038L160.436 187.074L162.808 193.79L164.042 193.765L166.145 186.956Z" fill="#79A3F6"/>
<path d="M168.626 193.67L168.487 186.908L166.824 186.942L166.963 193.705L168.626 193.67Z" fill="#79A3F6"/>
<path fill-rule="evenodd" clip-rule="evenodd" d="M152.28 194.507L151.946 193.506L150.596 193.534L150.284 194.548L147.471 194.605L150.135 186.785L152.117 186.744L154.544 193.011L154.414 186.697L157.592 186.632C158.468 186.614 159.185 186.913 159.686 187.413C160.182 187.908 160.441 188.574 160.455 189.249C160.474 190.155 160.044 190.806 159.547 191.21L161.243 194.322L158.177 194.385L157.195 192.425L157.235 194.405L152.28 194.507ZM157.234 191.387L158.482 193.879L160.411 193.839L158.89 191.049C158.907 191.04 158.925 191.03 158.942 191.02C159.453 190.732 159.974 190.15 159.955 189.259C159.932 188.148 159.103 187.101 157.603 187.132L154.924 187.187L155.063 193.949L156.725 193.915L156.674 191.398L157.234 191.387ZM150.224 193.042L152.304 192.999L152.638 193.999L154.376 193.963L151.777 187.251L150.495 187.278L148.174 194.091L149.912 194.055L150.224 193.042ZM151.839 191.621L151.232 189.828L150.661 191.645L151.839 191.621ZM157.747 189.43C157.776 189.399 157.794 189.354 157.793 189.304C157.792 189.253 157.772 189.209 157.742 189.179C157.717 189.154 157.667 189.122 157.567 189.124L157.127 189.133L157.135 189.501L157.575 189.492C157.675 189.49 157.723 189.456 157.747 189.43ZM164.032 186.499L163.333 189.05L162.516 186.53L159.734 186.588L162.456 194.297L164.413 194.257L166.346 187.998L166.474 194.215L169.136 194.16L168.976 186.398L164.032 186.499ZM164.416 186.992L166.144 186.956L164.042 193.765L162.807 193.79L160.436 187.074L162.155 187.038L163.373 190.795L164.416 186.992ZM168.487 186.908L168.626 193.67L166.963 193.704L166.824 186.942L168.487 186.908ZM157.585 189.992C158.041 189.983 158.3 189.645 158.293 189.293C158.286 188.942 158.013 188.615 157.557 188.624L156.617 188.644L156.645 190.011L157.585 189.992Z" fill="#02076C"/>
<path d="M150.984 200.035L150.968 199.255L149.423 199.286L149.41 198.662L150.73 198.634L150.714 197.855L149.394 197.882L149.382 197.287L150.927 197.255L150.911 196.475L148.491 196.525L148.564 200.084L150.984 200.035Z" fill="#79A3F6"/>
<path fill-rule="evenodd" clip-rule="evenodd" d="M153.62 198.495L154.42 199.964L153.405 199.985L152.748 198.673L152.453 198.679L152.481 200.004L151.606 200.022L151.532 196.462L152.942 196.433C153.732 196.417 154.168 196.968 154.18 197.553C154.19 198.038 153.897 198.349 153.62 198.495ZM152.933 197.939C153.173 197.934 153.309 197.756 153.306 197.571C153.302 197.386 153.158 197.214 152.918 197.219L152.423 197.229L152.438 197.949L152.933 197.939Z" fill="#79A3F6"/>
<path d="M158.654 199.877L158.581 196.318L157.706 196.336L157.734 197.705L156.805 197.724L156.777 196.355L155.902 196.373L155.975 199.932L156.85 199.914L156.821 198.504L157.751 198.485L157.78 199.895L158.654 199.877Z" fill="#79A3F6"/>
<path d="M161.792 199.812L161.776 199.032L160.231 199.064L160.219 198.439L161.538 198.412L161.522 197.632L160.202 197.659L160.19 197.065L161.735 197.033L161.719 196.253L159.299 196.303L159.373 199.862L161.792 199.812Z" fill="#79A3F6"/>
<path fill-rule="evenodd" clip-rule="evenodd" d="M164.428 198.273L165.228 199.742L164.214 199.763L163.556 198.451L163.262 198.457L163.289 199.782L162.414 199.8L162.341 196.24L163.75 196.211C164.54 196.195 164.977 196.746 164.989 197.331C164.999 197.816 164.705 198.127 164.428 198.273ZM163.741 197.717C163.981 197.712 164.117 197.534 164.114 197.349C164.11 197.164 163.966 196.992 163.726 196.997L163.231 197.007L163.246 197.727L163.741 197.717Z" fill="#79A3F6"/>
<path fill-rule="evenodd" clip-rule="evenodd" d="M167.211 196.14L168.579 199.673L167.665 199.691L167.489 199.165L166.394 199.187L166.23 199.721L165.315 199.74L166.537 196.154L167.211 196.14ZM166.624 198.452L167.244 198.44L166.924 197.496L166.624 198.452Z" fill="#79A3F6"/>
<path d="M170.058 196.592L169.794 195.697L168.955 195.714L169.563 196.602L170.058 196.592Z" fill="#79A3F6"/>
<path fill-rule="evenodd" clip-rule="evenodd" d="M148.075 200.594L147.981 196.035L152.932 195.933C153.452 195.923 153.893 196.102 154.206 196.414C154.514 196.721 154.672 197.131 154.68 197.543C154.69 198.015 154.503 198.376 154.262 198.628L155.253 200.447L153.1 200.491L152.986 200.264L152.991 200.493L148.075 200.594ZM152.453 198.679L152.748 198.673L153.405 199.984L154.42 199.963L153.62 198.495C153.629 198.49 153.638 198.485 153.647 198.48C153.916 198.328 154.19 198.022 154.18 197.553C154.168 196.968 153.732 196.417 152.942 196.433L151.532 196.462L151.606 200.021L152.48 200.003L152.453 198.679ZM148.564 200.084L148.491 196.525L150.911 196.475L150.927 197.255L149.382 197.287L149.394 197.881L150.714 197.854L150.73 198.634L149.41 198.661L149.423 199.286L150.968 199.254L150.984 200.034L148.564 200.084ZM152.938 197.939C152.936 197.939 152.935 197.939 152.933 197.939L152.438 197.949L152.423 197.229L152.918 197.219C152.92 197.219 152.922 197.219 152.923 197.219C153.16 197.216 153.302 197.387 153.306 197.571C153.309 197.755 153.175 197.931 152.938 197.939ZM155.485 200.442L155.391 195.883L163.74 195.711C164.26 195.7 164.701 195.879 165.014 196.192C165.322 196.498 165.48 196.909 165.489 197.321C165.498 197.793 165.311 198.154 165.07 198.406L165.175 198.599L166.176 195.661L167.551 195.633L169.303 200.158L167.307 200.199L167.131 199.672L166.766 199.68L166.602 200.213L163.908 200.269L163.794 200.042L163.799 200.271L155.485 200.442ZM163.262 198.457L163.556 198.451L164.214 199.762L165.228 199.741L164.428 198.273C164.437 198.268 164.446 198.263 164.456 198.258C164.724 198.106 164.998 197.8 164.989 197.331C164.977 196.746 164.54 196.195 163.75 196.211L162.341 196.24L162.414 199.799L163.289 199.781L163.262 198.457ZM166.23 199.721L166.394 199.187L167.489 199.165L167.665 199.691L168.579 199.672L167.211 196.14L166.537 196.154L165.315 199.739L166.23 199.721ZM166.924 197.496L166.624 198.452L167.244 198.439L166.924 197.496ZM158.654 199.876L157.779 199.894L157.751 198.485L156.821 198.504L156.85 199.914L155.975 199.931L155.902 196.372L156.776 196.354L156.805 197.724L157.734 197.705L157.706 196.335L158.581 196.317L158.654 199.876ZM159.373 199.862L159.299 196.302L161.719 196.253L161.735 197.032L160.19 197.064L160.202 197.659L161.522 197.632L161.538 198.412L160.219 198.439L160.231 199.064L161.776 199.032L161.792 199.812L159.373 199.862ZM163.746 197.716C163.745 197.716 163.743 197.716 163.741 197.716L163.247 197.727L163.232 197.007L163.727 196.996C163.728 196.996 163.73 196.996 163.732 196.996C163.969 196.994 164.11 197.165 164.114 197.349C164.118 197.532 163.983 197.709 163.746 197.716ZM170.722 197.078L169.303 197.107L168.019 195.233L170.166 195.189L170.722 197.078ZM169.794 195.697L170.058 196.591L169.563 196.602L168.955 195.714L169.794 195.697Z" fill="#02076C"/>
<path d="M181.467 154C181.381 149.826 177.928 146.512 173.753 146.598L142.762 147.235C138.588 147.321 135.274 150.774 135.359 154.949C135.586 165.959 144.695 174.701 155.706 174.475L161.941 174.346C172.951 174.12 181.693 165.011 181.467 154Z" fill="#ECF5F9"/>
<path d="M175.348 152.201C175.284 149.09 172.709 146.619 169.598 146.683L146.412 147.16C143.3 147.224 140.83 149.798 140.894 152.91C141.062 161.118 147.853 167.635 156.061 167.466L160.792 167.369C168.999 167.2 175.516 160.409 175.348 152.201Z" fill="#EBBAAA"/>
<path d="M124.784 255.548C125.978 253.385 124.13 248.816 123.056 246.801L151.735 254.994L150.426 266.603C148.706 266.639 143.375 265.017 133.847 263.38C121.936 261.334 123.292 258.252 124.784 255.548Z" fill="#453138"/>
<mask id="mask0_0_8704" style="mask-type:luminance" maskUnits="userSpaceOnUse" x="123" y="246" width="29" height="21">
<path fill-rule="evenodd" clip-rule="evenodd" d="M124.912 255.546C126.105 253.383 124.257 248.813 123.184 246.799L151.862 254.991L150.553 266.601C148.834 266.636 143.502 265.015 133.974 263.378C122.063 261.332 123.419 258.249 124.912 255.546Z" fill="white"/>
</mask>
<g mask="url(#mask0_0_8704)">
<path d="M134.394 265.024C135.67 261.841 133.628 254.985 132.448 251.954L156.775 255.527L150.631 270.418C144.687 269.946 133.118 268.207 134.394 265.024Z" fill="#242830"/>
</g>
<path d="M148.804 168.24C147.234 160.687 142.534 158.386 142.305 147.245C142.305 147.245 142.241 147.6 130.943 150.412C119.644 153.224 118.114 160.446 118.114 160.446C115.916 164.93 119.307 187.044 119.183 212.451C119.059 237.858 117.124 247.909 122.555 253.173C127.985 258.437 137.067 256.068 150.637 257.346C150.576 254.391 150.244 242.942 150.272 239.6C150.364 228.69 150.234 230.242 149.701 211.824C149.23 195.572 151.111 179.339 148.804 168.24Z" fill="#282C3C"/>
<mask id="mask1_0_8704" style="mask-type:luminance" maskUnits="userSpaceOnUse" x="117" y="147" width="34" height="111">
<path fill-rule="evenodd" clip-rule="evenodd" d="M148.805 168.24C147.235 160.686 142.535 158.385 142.306 147.244C142.306 147.244 142.243 147.6 130.944 150.411C119.645 153.223 118.115 160.445 118.115 160.445C115.917 164.93 119.308 187.044 119.184 212.451C119.06 237.858 117.839 247.26 122.261 251.178C126.671 255.088 137.016 256.062 150.536 257.337L150.638 257.346C150.577 254.391 150.245 242.941 150.273 239.6C150.365 228.69 150.235 230.242 149.702 211.823C149.231 195.572 151.113 179.339 148.805 168.24Z" fill="white"/>
</mask>
<g mask="url(#mask1_0_8704)">
<path d="M118.2 164.744C121.892 159.417 132.76 153.859 136.589 153.113L138.075 157.584C138.075 157.584 128.472 165.033 125.777 169.589C123.083 174.145 114.683 184.285 116.066 202.671C117.311 219.242 113.854 236.848 113.854 236.848L109.096 245.823C107.229 241.277 103.204 231.666 102.046 229.59C100.599 226.994 102.775 209.571 102.964 206.441C103.153 203.311 112.961 172.303 118.2 164.744Z" fill="#492129"/>
</g>
<path d="M123.555 222.668L128.177 223.764C127.364 227.193 126.342 230.738 125.232 233.756L125.089 234.14C123.664 237.939 122.186 240.676 120.492 242.188L120.407 242.263L117.3 238.67C119.271 236.966 121.717 230.346 123.501 222.894L123.555 222.668Z" fill="#242830"/>
<path d="M109.374 210.06C113.906 209.967 117.671 213.492 117.909 217.985L117.918 218.196C117.917 218.158 117.918 218.149 117.921 218.163L117.945 218.329C117.975 218.52 118.018 218.762 118.075 219.048L118.143 219.381C118.287 220.073 118.485 220.924 118.733 221.913L118.86 222.417C119.443 224.699 120.244 227.567 121.226 230.913L121.72 232.583C123.128 237.323 124.632 242.155 126.557 248.222C127.956 252.63 125.516 257.338 121.107 258.737C116.699 260.136 111.99 257.696 110.591 253.288L109.488 249.797C107.898 244.75 106.587 240.492 105.323 236.204L104.849 234.587C102.451 226.361 101.231 221.419 101.173 218.606C101.078 213.981 104.749 210.156 109.374 210.06Z" fill="#EBBAAA"/>
<path d="M209.382 188.041C202.793 163.987 198.331 154.469 190.053 152.514C190.053 152.514 195.074 175.163 195.31 186.654C195.546 198.145 194.019 216.138 194.019 216.138C195.996 226.157 189.475 241.282 191.989 246.619C198.478 248.402 197.911 251.623 203.35 251.512L209.046 233.193C210.275 227.34 212.29 198.656 209.382 188.041Z" fill="#282C3C"/>
<mask id="mask2_0_8704" style="mask-type:luminance" maskUnits="userSpaceOnUse" x="190" y="152" width="21" height="100">
<path fill-rule="evenodd" clip-rule="evenodd" d="M209.393 188.04C202.803 163.987 195.645 157.428 190.064 152.514C190.064 152.514 195.084 175.162 195.32 186.653C195.557 198.144 194.029 216.138 194.029 216.138C196.006 226.156 189.486 241.282 191.999 246.619C198.489 248.401 197.922 251.623 203.36 251.511L209.056 233.192C210.285 227.339 212.301 198.656 209.393 188.04Z" fill="white"/>
</mask>
<g mask="url(#mask2_0_8704)">
<path d="M190.276 159.751C184.573 155.673 177.631 151.685 174.068 151.093C174.068 151.093 172.125 152.556 175.95 156.305C179.108 159.4 183.698 166.398 187.258 170.076C190.819 173.753 192.461 183.346 192.461 183.346L188.891 249.434L205.443 247.718C206.987 243.108 208.607 235.997 209.594 233.88C210.827 231.233 209.049 196.003 208.751 192.888C208.452 189.773 197.404 164.848 190.276 159.751Z" fill="#3B1A20"/>
</g>
<path d="M186.255 251.235L188.143 243.823C189.319 246.411 200.228 246.348 205.662 245.991C204.807 247.799 204.464 249.807 203.496 252.355C199.349 254.126 190.274 252.346 186.255 251.235Z" fill="#242830"/>
<path d="M193.531 253.839C192.271 251.764 193.901 247.205 194.873 245.184L167.057 254.383L168.811 265.725C170.5 265.69 175.667 263.883 184.952 261.892C196.56 259.403 195.105 256.432 193.531 253.839Z" fill="#453138"/>
<mask id="mask3_0_8704" style="mask-type:luminance" maskUnits="userSpaceOnUse" x="166" y="245" width="29" height="21">
<path fill-rule="evenodd" clip-rule="evenodd" d="M193.405 253.842C192.145 251.767 193.775 247.208 194.747 245.187L166.931 254.386L168.685 265.727C170.374 265.693 175.54 263.886 184.826 261.895C196.434 259.405 194.979 256.435 193.405 253.842Z" fill="white"/>
</mask>
<g mask="url(#mask3_0_8704)">
<path d="M184.48 263.527C183.099 260.455 184.826 253.643 185.862 250.621L162.13 255.11L168.762 269.477C174.577 268.774 185.861 266.599 184.48 263.527Z" fill="#242830"/>
</g>
<path d="M165.115 172.281C166.236 164.672 172.844 158.012 172.615 146.872C172.615 146.872 172.681 146.984 182.987 149.352C193.293 151.719 194.962 159.115 194.962 159.115C197.121 163.51 194.926 185.739 196.032 211.121C197.138 236.503 198.811 239.477 194.514 246.192C190.217 252.907 180.333 255.803 168.137 257.612C168.076 254.657 168.149 253.951 167.993 250.613C167.484 239.715 168.707 230.112 168.468 211.688C168.257 195.431 163.467 183.461 165.115 172.281Z" fill="#282C3C"/>
<path d="M186.716 222.198L191.323 221.039L191.425 221.442C193.093 227.941 195.389 233.694 197.262 235.25L197.319 235.297L194.379 239.027C192.578 237.608 191.039 234.953 189.572 231.25C188.527 228.614 187.571 225.54 186.804 222.543L186.716 222.198Z" fill="#242830"/>
<path d="M102.153 196.192C109.349 164.912 112.589 156.858 122.286 154.533L119.945 212.829C121.889 221.29 124.678 233.925 124.092 242.319C117.685 244.367 112.926 246.62 107.492 246.732L100.83 230.225C99.3619 224.428 99.6853 206.917 102.153 196.192Z" fill="#282C3C"/>
<mask id="mask4_0_8704" style="mask-type:luminance" maskUnits="userSpaceOnUse" x="99" y="154" width="26" height="93">
<path fill-rule="evenodd" clip-rule="evenodd" d="M102.153 196.192C109.35 164.912 113.215 156.47 122.299 154.533L119.945 212.829C121.889 221.29 124.678 233.925 124.092 242.319C117.685 244.367 112.927 246.62 107.492 246.732L100.83 230.225C99.3623 224.428 99.6856 206.917 102.153 196.192Z" fill="white"/>
</mask>
<g mask="url(#mask4_0_8704)">
<path d="M118.19 164.244C123.151 159.016 132.129 153.997 135.958 153.251L128.867 239.79L109.086 245.323C107.218 240.777 103.193 231.166 102.036 229.09C100.588 226.494 102.764 209.07 102.953 205.941C103.142 202.811 111.846 170.929 118.19 164.244Z" fill="#3B1A20"/>
</g>
<mask id="mask5_0_8704" style="mask-type:luminance" maskUnits="userSpaceOnUse" x="164" y="146" width="34" height="112">
<path fill-rule="evenodd" clip-rule="evenodd" d="M165.117 172.281C166.238 164.672 172.846 158.013 172.616 146.872C172.616 146.872 172.683 146.985 182.989 149.352C193.295 151.72 194.964 159.116 194.964 159.116C197.122 163.51 194.927 185.739 196.033 211.121C197.139 236.503 198.813 239.478 194.516 246.192C190.218 252.907 180.335 255.803 168.139 257.612C168.078 254.657 168.151 253.951 167.995 250.614C167.485 239.716 168.708 230.112 168.469 211.688C168.258 195.431 163.469 183.462 165.117 172.281Z" fill="white"/>
</mask>
<g mask="url(#mask5_0_8704)">
<path d="M190.277 159.751C184.574 155.673 179.362 149.524 175.799 148.931C175.799 148.931 173.203 150.033 177.028 153.782C180.186 156.877 183.699 166.398 187.259 170.075C190.82 173.753 196.454 186.389 196.454 186.389L200.799 243.062L202.784 247.147C204.328 242.538 205.649 234.433 206.636 232.315C207.869 229.668 207.256 194.415 206.958 191.3C206.66 188.184 197.405 164.848 190.277 159.751Z" fill="#492129"/>
</g>
<path d="M127.081 245.327L124.408 238.632C123.355 241.643 111.673 243.756 106.262 243.586C107.191 245.616 107.342 246.818 108.415 249.689C112.61 251.531 124.589 247.427 127.081 245.327Z" fill="#242830"/>
<path d="M139.078 144.742C135.428 145.957 134.136 150.953 134.2 154.038C134.221 155.063 133.887 157.295 137.169 162.853C140.452 168.412 149.931 174.093 150.351 172.891C153.261 164.558 153.235 159.079 151.668 156.861C150.102 154.643 147.652 152.568 147.577 148.943C147.539 147.069 148.301 147.178 148.299 147.053L148.247 144.554C148.237 144.054 142.728 143.528 139.078 144.742Z" fill="#453138"/>
<path d="M149.633 171.928C150.626 171.969 151.398 172.807 151.357 173.801L151.326 174.589C151.11 180.257 151.043 187.283 151.099 195.449L151.108 196.605C151.162 203.157 151.29 210.073 151.477 217.61L151.895 233.038L151.907 233.569C151.967 235.941 152.103 238.134 152.455 242.907L152.672 245.847L152.77 247.237C153.361 255.845 153.363 260.788 152.51 265.047C152.315 266.021 151.367 266.653 150.392 266.458C149.417 266.263 148.786 265.314 148.981 264.34L149.028 264.096C149.782 260.128 149.732 255.167 149.101 246.38L148.72 241.178C148.476 237.769 148.367 235.855 148.313 233.841L148.268 232.008C148.189 229.093 147.977 221.571 147.895 218.331L147.848 216.446C147.682 209.583 147.567 203.229 147.513 197.183L147.5 195.472C147.44 186.871 147.518 179.519 147.76 173.652C147.8 172.679 148.606 171.918 149.572 171.926L149.633 171.928Z" fill="#242830"/>
<path d="M177.498 145.896C179.303 147.984 180.252 150.34 180.29 152.214C180.312 153.279 180.407 158.513 178.107 163.137C172.181 170.76 164.539 172.482 164.094 171.927C157.202 163.317 162.512 156.581 165.756 154.139C166.971 153.224 168.485 151.442 169.223 150.192C170.074 148.424 168.671 147.992 168.639 146.453L168.598 144.453C169.908 143.752 175.693 143.807 177.498 145.896Z" fill="#453138"/>
<path d="M164.476 171.247C165.466 171.166 166.336 171.902 166.418 172.893L166.498 173.876C167.793 190.078 169.288 221.176 169.536 232.416L169.549 233.04C169.595 235.602 169.55 237.879 169.387 242.87L169.294 245.72L169.262 246.805C169.02 255.326 169.204 260.127 170.143 263.987C170.378 264.953 169.786 265.927 168.82 266.162C167.854 266.397 166.881 265.804 166.645 264.839L166.582 264.57C165.608 260.401 165.422 255.488 165.655 247.007L165.765 243.501C165.95 237.921 165.999 235.603 165.946 232.923L165.929 232.14C165.654 220.444 164.124 188.846 162.83 173.189C162.748 172.199 163.485 171.329 164.476 171.247Z" fill="#242830"/>
<path d="M195.444 109.977C203.86 109.977 210.682 103.155 210.682 94.7387C210.682 86.323 203.86 79.5005 195.444 79.5005C187.028 79.5005 180.205 86.323 180.205 94.7387C180.205 103.155 187.028 109.977 195.444 109.977Z" fill="#EBBAAA"/>
<path d="M124.458 110.748C116.042 110.748 109.22 103.926 109.22 95.5097C109.22 87.094 116.042 80.2715 124.458 80.2715C132.874 80.2715 139.697 87.094 139.697 95.5097C139.697 103.926 132.874 110.748 124.458 110.748Z" fill="#EBBAAA"/>
<path d="M119.526 68.316C119.526 46.5187 137.196 28.8486 158.993 28.8486C180.79 28.8486 198.46 46.5187 198.46 68.316V86.9567L197.827 107.415C197.177 128.395 179.982 145.065 158.993 145.065C138.715 145.065 121.958 129.244 120.794 109L119.526 86.9567V68.316Z" fill="#F4D4C9"/>
<path fill-rule="evenodd" clip-rule="evenodd" d="M148.782 116.057V119.524C148.782 124.849 153.098 129.166 158.423 129.166C163.748 129.166 168.065 124.849 168.065 119.524V116.057H148.782Z" fill="#393939"/>
<mask id="mask6_0_8704" style="mask-type:luminance" maskUnits="userSpaceOnUse" x="148" y="114" width="21" height="16">
<path fill-rule="evenodd" clip-rule="evenodd" d="M148.909 114.406C148.825 114.918 148.782 115.443 148.782 115.978V119.524C148.782 124.849 153.098 129.165 158.423 129.165C163.748 129.165 168.065 124.849 168.065 119.524V115.978C168.065 115.443 168.022 114.918 167.938 114.406H148.909Z" fill="white"/>
</mask>
<g mask="url(#mask6_0_8704)">
<path d="M158.938 132.558C162.149 132.558 164.752 131.141 164.752 129.392C164.752 127.643 162.149 126.225 158.938 126.225C155.726 126.225 153.123 127.643 153.123 129.392C153.123 131.141 155.726 132.558 158.938 132.558Z" fill="#FF6C6C"/>
<rect x="148.782" y="115.557" width="19.2837" height="3.97675" fill="white"/>
</g>
<path d="M169.142 79.3603L181.803 81.7915C181.979 81.8255 182.125 81.9495 182.187 82.1185L183.632 86.0663C183.773 86.4493 183.431 86.8348 183.034 86.741L167.635 83.1058C166.954 82.945 166.631 82.1643 166.999 81.5693L168.077 79.827C168.301 79.4658 168.725 79.28 169.142 79.3603Z" fill="#393939"/>
<path d="M146.696 78.7197L134.24 82.0455C134.066 82.092 133.929 82.2262 133.88 82.399L132.719 86.4397C132.606 86.8317 132.975 87.1917 133.364 87.07L148.465 82.349C149.133 82.1402 149.4 81.3382 148.99 80.771L147.791 79.11C147.542 78.7655 147.106 78.6102 146.696 78.7197Z" fill="#393939"/>
<path d="M172.907 86.6567C174.538 86.6567 175.865 87.9589 175.906 89.5805L175.907 89.6567V94.1567C175.907 95.8136 174.563 97.1567 172.907 97.1567C171.275 97.1567 169.948 95.8546 169.908 94.233L169.907 94.1567V89.6567C169.907 87.9999 171.25 86.6567 172.907 86.6567Z" fill="black"/>
<path d="M143.407 86.6567C145.038 86.6567 146.365 87.9589 146.406 89.5805L146.407 89.6567V94.1567C146.407 95.8136 145.063 97.1567 143.407 97.1567C141.775 97.1567 140.448 95.8546 140.408 94.233L140.407 94.1567V89.6567C140.407 87.9999 141.75 86.6567 143.407 86.6567Z" fill="black"/>
<path d="M154.755 91.5786L158.558 93.7338C156.983 96.5126 155.766 99.7396 155.6 102.11L155.59 102.275C155.464 104.599 156.252 105.552 158.848 105.594L159.032 105.596V109.967C153.546 109.967 150.897 106.706 151.239 101.805C151.456 98.7162 152.836 95.0117 154.654 91.7589L154.755 91.5786Z" fill="#EBBAAA"/>
<path d="M186.119 54.9458C185.322 48.2571 184.603 43.4543 184.071 38.9952C183.695 35.8366 183.656 35.031 192.635 41.6493C201.614 48.2676 202.96 62.7878 200.517 75.1293L197.818 89.7851L195.045 89.0998L195.118 70.5013C190.594 65.9473 186.916 61.6346 186.119 54.9458Z" fill="#6E6C6C"/>
<path d="M124.366 62.0805C124.737 55.3555 123.98 55.7014 124.227 51.2181C124.402 48.0423 125.496 48.7372 119.827 54.5605C116.698 57.7745 117.876 71.5832 118.542 80.6142L119.334 88.9377L120.598 89.0075L121.169 78.6539C123.404 71.4797 123.996 68.8057 124.366 62.0805Z" fill="#6E6C6C"/>
<path d="M127.168 37.3234C136.234 28.0037 149.598 27.9492 158.2 27.9492C158.51 32.7918 159.525 45.0261 161.106 55.223C163.082 67.969 148.901 59.0605 144.252 61.6645C140.532 63.7477 138.72 71.803 138.293 75.8232C137.013 75.8232 134.367 75.2327 128.043 76.3293C121.72 77.4255 117.343 76.6572 115.793 78.0732C114.293 75.3232 114.607 70.8232 113.418 64.9482C110.395 50.0098 118.102 46.643 127.168 37.3234Z" fill="#272727"/>
<path d="M148.625 69.8243C147.472 64.744 144.506 61.4473 142.75 59.6193C144.545 51.4841 146.507 33.9336 154 28.4492C163.366 21.5938 192.491 34.3073 198.625 43.5742C204.5 52.4493 204.215 78.6773 201.522 76.6205C198.83 74.564 194.264 76.6205 189.581 75.2495C184.898 73.8785 168.156 78.1288 164.409 76.6205C161.412 75.414 152.858 76.1178 148.955 76.6205C149.25 75.3243 149.17 72.2258 148.625 69.8243Z" fill="#272727"/>
</svg>
