<svg width="300" height="400" viewBox="0 0 300 400" fill="none" xmlns="http://www.w3.org/2000/svg">
<path d="M168.25 296.75C171.257 296.75 173.701 299.163 173.749 302.159L173.75 302.25V364.5C173.75 367.538 171.288 370 168.25 370C165.243 370 162.799 367.587 162.751 364.591L162.75 364.5V302.25C162.75 299.212 165.212 296.75 168.25 296.75Z" fill="#EBBAAA"/>
<path d="M132.25 296.75C135.257 296.75 137.701 299.163 137.749 302.159L137.75 302.25V364.5C137.75 367.538 135.288 370 132.25 370C129.243 370 126.799 367.587 126.751 364.591L126.75 364.5V302.25C126.75 299.212 129.212 296.75 132.25 296.75Z" fill="#EBBAAA"/>
<path d="M150.25 267.5C166.128 267.5 179 261.624 179 254.375C179 247.126 166.128 241.25 150.25 241.25C134.372 241.25 121.5 247.126 121.5 254.375C121.5 261.624 134.372 267.5 150.25 267.5Z" fill="#35383E"/>
<path d="M148.75 247H117.5L118.75 335.5L121.429 349.25H138.429L140 338L148.75 247Z" fill="#35383E"/>
<path d="M147.5 247.5H178.75L177.5 336L174.821 349.75H157.821L156.25 338.5L147.5 247.5Z" fill="#35383E"/>
<path d="M202.853 373.285C202.902 367.685 202.12 366.72 197.132 364.43C192.144 362.14 187.445 357.74 178.816 353.965C178.816 353.965 177.68 353.758 175.832 354.733C174.254 355.565 172.228 357.608 169.175 357.58C165.859 357.553 162.904 356.865 161.068 355.925C160.275 353.805 158.516 353.79 158.516 353.79C158.516 353.79 156.039 358.39 155.999 363.015C155.958 367.638 155.964 372.875 155.964 372.875L202.853 373.285Z" fill="#DCE1E6"/>
<path d="M178.863 365.32C180.588 365.79 181.979 365.727 182.767 365.128C184.796 363.565 183.497 361.183 182.946 360.25C183.938 361.393 184.924 362.54 185.693 363.79C186.906 365.742 187.421 367.888 186.603 369.26C185.135 371.74 181.608 370.595 179.361 369.597L158.5 360.343L178.863 365.32Z" fill="#E65555"/>
<path d="M179.725 354.629C179.88 354.289 180.282 354.139 180.622 354.294C180.962 354.449 181.112 354.85 180.957 355.191C180.674 355.812 180.548 356.454 180.501 357.369L180.497 357.438L184.134 355.873C184.645 355.654 185.182 356.109 185.063 356.641L185.053 356.679L184.312 359.303L187.312 358.36C187.734 358.227 188.164 358.528 188.191 358.962L188.192 359.005L188.192 361.713L190.448 360.522C190.886 360.29 191.41 360.593 191.439 361.078L191.441 361.12L191.441 364.422C191.441 364.796 191.139 365.099 190.765 365.099C190.405 365.099 190.111 364.818 190.089 364.464L190.088 364.423L190.087 362.242L187.832 363.433C187.394 363.665 186.869 363.362 186.84 362.877L186.839 362.835L186.839 359.927L183.523 360.971C183.023 361.128 182.547 360.683 182.659 360.181L182.669 360.141L183.364 357.678L180.068 359.097C179.635 359.283 179.153 358.98 179.125 358.518L179.124 358.475L179.125 358.191C179.137 356.615 179.26 355.65 179.725 354.629Z" fill="white"/>
<path d="M157.469 356.225C158.432 357.503 161.905 358.265 163.212 358.453C164.519 358.64 165.919 358.478 165.359 360.585C164.963 362.078 161.156 361.475 159.667 361.46C158.456 361.45 156.76 365.02 156.127 363.808C156.126 359.66 156.928 357.415 157.469 356.225Z" fill="#E65555"/>
<path d="M200.964 364.86C199.434 364.317 197.813 363.907 194.706 363.22L196.027 366.93L195.99 371.157L204.834 371.235C205.194 371.237 205.839 370.767 205.531 368.862C205.146 366.48 203.139 365.63 200.964 364.86Z" fill="#EAF4FB"/>
<path d="M155.849 372.83L156.072 370.147L195.723 370.757L205.61 370.052L205.81 371.615C205.969 372.852 205.052 373.967 203.807 374.05L195.674 374.597L156.911 374.002C156.284 373.992 155.797 373.455 155.849 372.83Z" fill="#C7CBCF"/>
<path d="M97.6715 372.785C97.6226 367.185 98.4044 366.22 103.392 363.93C108.38 361.64 113.079 357.24 121.708 353.465C121.708 353.465 122.844 353.258 124.692 354.233C126.27 355.065 128.296 357.108 131.349 357.08C134.665 357.053 137.62 356.365 139.456 355.425C140.249 353.305 142.009 353.29 142.009 353.29C142.009 353.29 144.485 357.89 144.525 362.515C144.566 367.138 144.56 372.375 144.56 372.375L97.6715 372.785Z" fill="#DCE1E6"/>
<path d="M121.661 364.82C119.936 365.29 118.545 365.227 117.758 364.628C115.728 363.065 117.028 360.683 117.579 359.75C116.586 360.893 115.601 362.04 114.831 363.29C113.618 365.242 113.103 367.388 113.922 368.76C115.389 371.24 118.916 370.095 121.164 369.097L142.024 359.843L121.661 364.82Z" fill="#E65555"/>
<path d="M119.902 353.794C120.242 353.639 120.644 353.789 120.799 354.129C121.291 355.21 121.401 356.229 121.4 357.975C121.4 358.447 120.932 358.769 120.496 358.612L120.456 358.597L117.16 357.178L117.856 359.641C117.998 360.146 117.539 360.608 117.041 360.482L117.001 360.471L113.685 359.427L113.685 362.335C113.685 362.831 113.173 363.153 112.73 362.952L112.692 362.933L110.437 361.742L110.436 363.923C110.436 364.283 110.155 364.577 109.801 364.598L109.76 364.599C109.4 364.599 109.105 364.318 109.084 363.964L109.083 363.922L109.084 360.62C109.084 360.124 109.596 359.802 110.039 360.003L110.076 360.022L112.332 361.213L112.332 358.505C112.332 358.062 112.749 357.743 113.171 357.848L113.212 357.86L116.213 358.803L115.471 356.179C115.32 355.644 115.842 355.171 116.353 355.359L116.39 355.373L120.027 356.938L120.024 356.869C119.979 355.991 119.86 355.363 119.6 354.765L119.567 354.691C119.412 354.351 119.562 353.949 119.902 353.794Z" fill="white"/>
<path d="M143.056 355.725C142.092 357.003 138.619 357.765 137.312 357.953C136.006 358.14 134.606 357.978 135.165 360.085C135.561 361.578 139.369 360.975 140.858 360.96C142.068 360.95 143.765 364.52 144.397 363.308C144.398 359.16 143.597 356.915 143.056 355.725Z" fill="#E65555"/>
<path d="M99.5602 364.36C101.09 363.817 102.711 363.407 105.818 362.72L104.497 366.43L104.534 370.657L95.6907 370.735C95.3298 370.737 94.6851 370.267 94.9933 368.362C95.3785 365.98 97.3857 365.13 99.5602 364.36Z" fill="#EAF4FB"/>
<path d="M144.676 372.33L144.452 369.647L104.801 370.257L94.9145 369.552L94.7142 371.115C94.5557 372.352 95.4724 373.467 96.7168 373.55L104.85 374.097L143.613 373.502C144.24 373.492 144.728 372.955 144.676 372.33Z" fill="#C7CBCF"/>
<path d="M106.39 154.855C112.435 141.278 122.315 142.302 126.513 142.817L121.5 208.5H95.0001C93.2501 196.25 96.5771 179.055 96.9689 177.5C98.2873 172.267 101.73 165.321 106.39 154.855Z" fill="#E2D3BD"/>
<path d="M190.123 155.54C184.078 141.964 174.198 142.988 170 143.503L175.013 209.186H201.513C206.138 202.811 199.936 179.741 199.544 178.186C198.226 172.953 194.783 166.007 190.123 155.54Z" fill="#E2D3BD"/>
<path d="M118.543 151.141C119.582 143.581 125.923 138.037 133.556 137.953L150.801 137.762L166.69 139.436C173.955 140.201 179.849 145.844 180.806 153.108C182.891 168.938 186.127 196.629 186.127 215.986C186.127 244.542 190.667 247.274 183.637 251.015C176.608 254.757 120.366 254.23 112.687 248.429C105.009 242.628 109.783 236.585 109.783 224.741C109.783 216.015 115.521 173.123 118.543 151.141Z" fill="#F0E4D2"/>
<path fill-rule="evenodd" clip-rule="evenodd" d="M140.525 193.03C140.558 193.113 140.593 193.195 140.625 193.278C140.642 193.323 140.649 193.372 140.671 193.415C140.714 193.503 140.784 193.507 140.846 193.427C140.882 193.379 140.907 193.323 140.946 193.276C140.997 193.214 141.056 193.193 141.13 193.255C141.158 193.278 141.223 193.291 141.248 193.274C141.289 193.245 141.345 193.181 141.337 193.146C141.311 193.042 141.378 193.002 141.435 192.945C141.665 192.717 141.887 192.48 142.12 192.255C142.749 191.652 143.446 191.144 144.238 190.771C144.441 190.675 144.643 190.586 144.794 190.398C144.9 190.266 145.07 190.2 145.245 190.175C145.383 190.156 145.441 190.039 145.51 189.945C145.896 189.426 146.326 188.952 146.851 188.567C146.885 188.542 146.922 188.509 146.939 188.472C147.014 188.304 147.163 188.243 147.32 188.183C147.568 188.089 147.675 187.925 147.672 187.669C147.671 187.507 147.669 187.344 147.676 187.182C147.684 186.98 147.809 186.799 148.017 186.768C148.056 186.762 148.099 186.732 148.126 186.7C148.192 186.625 148.28 186.55 148.301 186.462C148.322 186.368 148.28 186.258 148.259 186.157C148.237 186.053 148.21 185.951 148.177 185.85C148.157 185.791 148.126 185.732 148.087 185.682C148.02 185.597 147.959 185.515 147.973 185.397C147.977 185.366 147.955 185.328 147.936 185.301C147.824 185.143 147.711 184.987 147.595 184.832C147.522 184.734 147.434 184.741 147.364 184.84C147.291 184.944 147.214 185.038 147.08 185.087C147.012 185.112 146.961 185.217 146.928 185.296C146.778 185.657 146.591 185.989 146.275 186.232C146.145 186.332 146.013 186.431 145.882 186.529C145.594 186.746 145.422 187.045 145.327 187.382C145.27 187.581 145.26 187.794 145.236 188.002C145.224 188.104 145.325 188.212 145.438 188.222C145.509 188.229 145.575 188.241 145.575 188.327C145.575 188.415 145.505 188.426 145.435 188.433C145.282 188.449 145.135 188.43 145.027 188.311C144.884 188.153 144.791 188.217 144.678 188.366C144.603 188.466 144.567 188.606 144.425 188.641C144.386 188.651 144.332 188.646 144.302 188.625C144.285 188.612 144.294 188.549 144.306 188.514C144.326 188.456 144.358 188.402 144.384 188.346C144.377 188.337 144.37 188.327 144.362 188.318C144.238 188.361 144.116 188.408 143.991 188.446C143.886 188.477 143.779 188.502 143.671 188.518C143.643 188.522 143.607 188.48 143.575 188.459C143.595 188.429 143.609 188.389 143.637 188.371C143.725 188.318 143.822 188.278 143.908 188.222C143.944 188.198 143.96 188.145 143.983 188.108C143.794 188.149 143.623 188.199 143.449 188.218C143.27 188.237 143.092 188.21 142.932 188.123C142.929 188.109 142.927 188.095 142.924 188.08C142.979 188.061 143.033 188.027 143.088 188.025C143.481 188.011 143.853 187.912 144.162 187.67C144.354 187.52 144.529 187.331 144.665 187.128C144.826 186.886 144.942 186.612 145.071 186.349C145.296 185.894 145.575 185.474 145.889 185.075C145.966 184.977 146.008 184.852 146.07 184.742C146.153 184.595 146.24 184.451 146.325 184.306C146.441 184.11 146.556 183.913 146.673 183.718C146.806 183.495 146.924 183.26 147.081 183.055C147.151 182.963 147.3 182.932 147.412 182.873C147.455 182.851 147.502 182.834 147.538 182.804C147.679 182.681 147.805 182.545 147.87 182.363C147.899 182.28 147.855 182.231 147.8 182.175C147.687 182.061 147.565 181.951 147.479 181.818C147.294 181.53 147.343 181.222 147.489 180.94C147.64 180.65 147.879 180.423 148.197 180.341C148.486 180.266 148.781 180.306 149.011 180.532C149.151 180.67 149.304 180.773 149.492 180.836C149.568 180.86 149.677 180.918 149.592 181.046C149.583 181.059 149.604 181.101 149.621 181.121C149.663 181.172 149.71 181.218 149.756 181.266C149.899 181.107 150.055 180.943 150.196 180.767C150.241 180.711 150.248 180.624 150.27 180.55C150.352 180.283 150.434 180.015 150.511 179.746C150.527 179.692 150.528 179.63 150.523 179.573C150.506 179.362 150.557 179.174 150.662 178.988C150.725 178.875 150.736 178.733 150.768 178.603C150.823 178.373 150.875 178.142 150.931 177.912C150.936 177.891 150.954 177.87 150.971 177.854C151.09 177.747 151.092 177.594 151.125 177.455C151.172 177.256 151.213 177.056 151.261 176.857C151.303 176.685 151.263 176.522 151.198 176.366C151.108 176.152 151.004 175.943 150.909 175.73C150.782 175.443 150.674 175.149 150.73 174.829C150.799 174.433 151.007 174.124 151.365 173.928C151.577 173.811 151.806 173.753 152.049 173.777C152.516 173.823 152.854 174.064 153.073 174.475C153.211 174.733 153.22 175.016 153.164 175.284C153.084 175.663 152.861 175.962 152.495 176.121C152.363 176.179 152.216 176.209 152.072 176.23C151.882 176.258 151.879 176.268 151.917 176.45C151.94 176.56 151.919 176.681 151.911 176.796C151.907 176.857 151.88 176.915 151.875 176.975C151.854 177.265 151.834 177.555 151.819 177.845C151.814 177.94 151.835 178.037 151.825 178.131C151.796 178.397 151.761 178.663 151.72 178.927C151.714 178.966 151.658 178.995 151.635 179.035C151.595 179.102 151.543 179.17 151.53 179.244C151.473 179.569 151.431 179.896 151.295 180.204C151.248 180.31 151.252 180.438 151.229 180.555C151.206 180.666 151.177 180.777 151.153 180.888C151.145 180.924 151.136 180.961 151.136 180.997C151.133 181.111 151.132 181.225 151.133 181.339C151.136 181.583 151.04 181.804 150.95 182.02C150.826 182.316 150.797 182.605 150.859 182.92C150.909 183.178 150.964 183.431 151.076 183.669C151.144 183.815 151.224 183.956 151.291 184.103C151.326 184.18 151.363 184.263 151.367 184.345C151.389 184.843 151.421 185.342 151.411 185.84C151.405 186.129 151.319 186.416 151.286 186.705C151.276 186.792 151.32 186.884 151.34 186.974C151.393 187.213 151.6 187.305 151.774 187.427C151.955 187.553 152.09 187.714 152.016 187.939C151.962 188.102 152.031 188.128 152.15 188.183C152.458 188.326 152.769 188.467 153.057 188.644C153.345 188.822 153.609 189.038 153.879 189.244C154.046 189.373 154.184 189.573 154.371 189.638C155.037 189.869 155.575 190.302 156.13 190.702C156.747 191.147 157.332 191.636 157.934 192.102C158.063 192.202 158.205 192.288 158.34 192.381C158.392 192.417 158.447 192.444 158.431 192.532C158.397 192.715 158.46 192.787 158.645 192.821C158.71 192.833 158.77 192.87 158.835 192.887C158.904 192.905 158.99 192.943 159.044 192.918C159.18 192.855 159.311 192.773 159.428 192.679C159.618 192.526 159.687 192.504 159.885 192.549C159.64 192.706 159.403 192.87 159.304 193.179C159.364 193.179 159.417 193.179 159.469 193.179C159.683 193.18 159.898 193.168 160.11 193.186C160.402 193.212 160.643 193.107 160.87 192.942C160.938 192.893 161.015 192.846 161.094 192.829C161.256 192.795 161.379 192.896 161.5 192.982C161.513 192.991 161.504 193.059 161.485 193.08C161.285 193.296 161.081 193.51 160.876 193.723C160.521 194.091 160.062 194.319 159.659 194.623C159.48 194.758 159.312 194.908 159.13 195.038C158.971 195.15 158.963 195.173 158.859 194.988C158.79 194.865 158.744 194.729 158.666 194.613C158.582 194.485 158.478 194.37 158.376 194.255C158.159 194.015 157.941 193.776 157.718 193.542C157.618 193.437 157.496 193.385 157.345 193.363C157.217 193.344 157.091 193.264 156.979 193.189C156.746 193.034 156.527 192.856 156.291 192.704C156.158 192.618 155.993 192.581 155.862 192.493C155.573 192.297 155.302 192.075 155.014 191.88C154.676 191.653 154.323 191.448 153.984 191.223C153.737 191.057 153.457 191.01 153.175 190.972C152.674 190.905 152.205 190.746 151.745 190.541C151.362 190.371 150.967 190.226 150.573 190.083C150.302 189.985 150.022 189.912 149.748 189.824C149.694 189.807 149.639 189.784 149.595 189.75C149.459 189.642 149.325 189.657 149.185 189.737C148.735 189.991 148.29 190.254 147.834 190.497C147.269 190.797 146.691 191.073 146.127 191.375C145.921 191.486 145.742 191.648 145.543 191.775C145.075 192.077 144.599 192.368 144.132 192.671C143.874 192.837 143.621 193.013 143.374 193.195C143.145 193.365 142.931 193.556 142.701 193.724C142.647 193.763 142.552 193.749 142.476 193.754C142.45 193.755 142.408 193.727 142.399 193.737C142.269 193.88 142.079 193.915 141.924 194.012C141.695 194.155 141.512 194.346 141.372 194.58C141.335 194.642 141.256 194.68 141.194 194.726C141.159 194.753 141.109 194.766 141.082 194.798C140.991 194.913 140.902 195.03 140.821 195.152C140.733 195.286 140.503 195.377 140.294 195.315C140.087 195.253 139.909 195.316 139.741 195.405C139.409 195.581 139.12 195.551 138.862 195.277C138.758 195.168 138.664 195.049 138.575 194.927C138.45 194.756 138.573 194.563 138.712 194.487C138.887 194.391 139.07 194.317 139.279 194.311C139.386 194.308 139.493 194.26 139.597 194.225C139.785 194.163 139.973 194.098 140.158 194.028C140.187 194.018 140.218 193.978 140.224 193.947C140.25 193.811 140.32 193.735 140.459 193.728C140.553 193.722 140.571 193.698 140.534 193.606C140.486 193.491 140.451 193.37 140.429 193.248C140.417 193.181 140.445 193.108 140.455 193.038C140.478 193.035 140.501 193.033 140.525 193.03Z" fill="black"/>
<path d="M148.563 161.951C155.38 161.951 160.906 154.63 160.906 145.6C160.906 136.57 155.38 129.25 148.563 129.25C141.745 129.25 136.219 136.57 136.219 145.6C136.219 154.63 141.745 161.951 148.563 161.951Z" fill="white"/>
<rect x="140.219" y="125.5" width="17.25" height="28.75" rx="8.625" fill="#EBBAAA"/>
<path d="M139.346 162.862C131.2 161.279 113.635 144.069 122.799 135.167C128.654 127.749 138.073 137.64 139.346 142.585C140.364 146.542 143.164 156.268 144.946 158.905C146.982 160.801 147.491 164.444 139.346 162.862Z" fill="#E2D3BD"/>
<path d="M158.592 162.862C166.738 161.279 184.303 144.069 175.138 135.167C169.284 127.749 159.865 137.64 158.592 142.585C157.574 146.542 154.774 156.268 152.992 158.905C150.955 160.801 150.446 164.444 158.592 162.862Z" fill="#E2D3BD"/>
<path d="M133.25 155.5C134.196 155.5 134.967 156.251 134.999 157.19L135 157.25V184.75C135 185.716 134.216 186.5 133.25 186.5C132.304 186.5 131.533 185.749 131.501 184.81L131.5 184.75V157.25C131.5 156.284 132.284 155.5 133.25 155.5Z" fill="white"/>
<path d="M163 155.5C163.946 155.5 164.717 156.251 164.749 157.19L164.75 157.25V179.25C164.75 180.216 163.966 181 163 181C162.054 181 161.283 180.249 161.251 179.31L161.25 179.25V157.25C161.25 156.284 162.034 155.5 163 155.5Z" fill="white"/>
<path d="M181.5 238C206.5 235.75 203.406 209.846 203.219 202.086H186C186.74 212.037 171.682 209.563 171 222C176.045 223.473 172.5 238.81 181.5 238Z" fill="#E2D3BD"/>
<path d="M116.707 238C91.7074 235.75 94.3075 209.846 94.4949 202.086H111.983C111.243 212.037 126.525 209.563 127.207 222C122.162 223.473 125.707 238.81 116.707 238Z" fill="#E2D3BD"/>
<path d="M122.441 222.233C123.66 215.442 129.568 210.5 136.467 210.5H148.367H169.721C171.352 210.5 173.01 210.775 174.21 211.88C176.228 213.737 179.174 217.892 180.229 226.737C181.894 240.7 180.229 242.974 180.229 242.974C180.229 242.974 163.056 247.5 148.367 247.5C133.677 247.5 118.719 242.974 118.719 242.974L121.633 226.737L122.441 222.233Z" fill="#FDF6EC"/>
<path opacity="0.5" d="M186.469 111.639C191.992 111.639 196.469 106.77 196.469 100.764C196.469 94.7577 191.992 89.8889 186.469 89.8889C180.946 89.8889 176.469 94.7577 176.469 100.764C176.469 106.77 180.946 111.639 186.469 111.639Z" fill="#C99584"/>
<path opacity="0.5" d="M111.469 111.639C105.946 111.639 101.469 106.77 101.469 100.764C101.469 94.7577 105.946 89.8889 111.469 89.8889C116.992 89.8889 121.469 94.7577 121.469 100.764C121.469 106.77 116.992 111.639 111.469 111.639Z" fill="#C99584"/>
<path d="M111.469 76.5805C111.469 55.87 128.258 39.0806 148.969 39.0806C169.679 39.0806 186.469 55.87 186.469 76.5805V90.292C186.469 92.5197 186.298 94.744 185.959 96.9457L183.668 111.822C181.036 128.905 166.336 141.513 149.052 141.513C132.135 141.513 117.636 129.422 114.598 112.78L112.179 99.5307C111.707 96.9412 111.469 94.3142 111.469 91.682V76.5805Z" fill="#F4D5CC"/>
<path d="M157.754 75.0469C157.833 73.6919 158.977 72.6521 160.326 72.6936L160.396 72.6967L175.396 73.5717C176.774 73.6521 177.826 74.8347 177.746 76.213C177.667 77.5681 176.523 78.6079 175.174 78.5663L175.104 78.5632L160.104 77.6882C158.726 77.6078 157.674 76.4252 157.754 75.0469Z" fill="#393939"/>
<path d="M137.604 72.6967C138.983 72.6163 140.165 73.6685 140.246 75.0469C140.325 76.4019 139.309 77.5677 137.965 77.6832L137.896 77.6882L122.896 78.5632C121.517 78.6436 120.335 77.5914 120.254 76.213C120.175 74.858 121.191 73.6922 122.535 73.5767L122.604 73.5717L137.604 72.6967Z" fill="#393939"/>
<path fill-rule="evenodd" clip-rule="evenodd" d="M157 81.5H177C178.933 81.5 180.5 83.067 180.5 85V97.5C180.5 101.504 177.254 104.75 173.25 104.75H167C159.544 104.75 153.5 98.7058 153.5 91.25V85C153.5 83.067 155.067 81.5 157 81.5ZM177 83.5H157C156.172 83.5 155.5 84.1715 155.5 85V91.25C155.5 97.6012 160.649 102.75 167 102.75H173.25C176.149 102.75 178.5 100.399 178.5 97.5V85C178.5 84.1715 177.828 83.5 177 83.5Z" fill="white" fill-opacity="0.75"/>
<path fill-rule="evenodd" clip-rule="evenodd" d="M121 81.5H141C142.933 81.5 144.5 83.067 144.5 85V91.25C144.5 98.7058 138.456 104.75 131 104.75H124.75C120.746 104.75 117.5 101.504 117.5 97.5V85C117.5 83.067 119.067 81.5 121 81.5ZM141 83.5H121C120.172 83.5 119.5 84.1715 119.5 85V97.5C119.5 100.399 121.851 102.75 124.75 102.75H131C137.351 102.75 142.5 97.6012 142.5 91.25V85C142.5 84.1715 141.828 83.5 141 83.5Z" fill="white" fill-opacity="0.75"/>
<rect x="142.75" y="85" width="12.5" height="2" fill="white" fill-opacity="0.75"/>
<path fill-rule="evenodd" clip-rule="evenodd" d="M159.034 114.651V118.118C159.034 123.443 154.717 127.76 149.392 127.76C144.067 127.76 139.75 123.443 139.75 118.118V114.651H159.034Z" fill="#393939"/>
<mask id="mask0_0_8843" style="mask-type:luminance" maskUnits="userSpaceOnUse" x="139" y="113" width="21" height="15">
<path fill-rule="evenodd" clip-rule="evenodd" d="M158.906 113C158.99 113.512 159.034 114.036 159.034 114.572V118.117C159.034 123.442 154.717 127.759 149.392 127.759C144.067 127.759 139.75 123.442 139.75 118.117V114.572C139.75 114.036 139.794 113.512 139.877 113H158.906Z" fill="white"/>
</mask>
<g mask="url(#mask0_0_8843)">
<path d="M148.877 131.152C145.666 131.152 143.063 129.734 143.063 127.986C143.063 126.237 145.666 124.819 148.877 124.819C152.089 124.819 154.692 126.237 154.692 127.986C154.692 129.734 152.089 131.152 148.877 131.152Z" fill="#FF6C6C"/>
<rect width="19.2837" height="3.97675" transform="matrix(-1 0 0 1 159.034 114.151)" fill="white"/>
</g>
<path d="M109.094 65.2637C108.926 50.0112 122.344 45.0138 119.969 47.8887C117.594 50.7635 123.219 57.8887 119.969 60.1387C116.719 62.3887 120.344 69.639 118.594 72.389C116.844 75.139 114.05 74.514 112.469 79.889C110.888 85.264 112.219 95.7282 112.219 95.7282C112.344 96.014 112.219 96.389 111.969 96.389C111.719 96.389 111.344 96.264 111.242 95.7282C111.242 95.7282 109.344 88.0137 109.094 65.2637Z" fill="#487FCE"/>
<path d="M188.717 65.6473C188.872 51.5628 176.486 46.9482 178.679 49.6029C180.871 52.2578 175.678 58.837 178.679 60.9148C181.679 62.9925 178.333 69.6873 179.948 72.2268C181.563 74.766 184.142 74.189 185.602 79.1523C187.061 84.1157 185.833 93.7785 185.833 93.7785C185.717 94.0425 185.833 94.3888 186.063 94.3888C186.294 94.3888 186.64 94.2733 186.734 93.7785C186.734 93.7785 188.487 86.655 188.717 65.6473Z" fill="#487FCE"/>
<path d="M150.219 56.1382C129.469 56.1382 115.166 59.5132 111.969 66.4352C108.772 73.3572 109.504 75.5132 109.344 73.6382C109.184 71.7632 108.969 69.6697 108.969 65.8882C108.969 41.3412 126.094 37.6377 141.594 39.1379C157.094 40.6381 169.184 56.1382 150.219 56.1382Z" fill="#1451A9"/>
<path d="M147.55 56.0157C166.587 56.0157 185.684 48.8498 186.469 62.7632C189.469 67.5132 188.344 73.0135 188.719 65.2632C190.334 31.8884 139.469 9.42029 113.469 48.2953C113.469 48.2953 128.51 56.0157 147.55 56.0157Z" fill="#1451A9"/>
<path d="M147.951 93.21L151.487 95.5674C150.285 97.3702 149.344 100.076 149.344 102.045C149.344 103.943 150.029 104.741 152.128 104.763L152.219 104.764V109.014C147.583 109.014 145.094 106.213 145.094 102.045C145.094 99.2212 146.268 95.7934 147.863 93.3427L147.951 93.21Z" fill="#EBBAAA"/>
<path d="M164.719 85.25C166.35 85.25 167.677 86.5521 167.718 88.1738L167.719 88.25V91.75C167.719 93.4069 166.376 94.75 164.719 94.75C163.087 94.75 161.76 93.4479 161.72 91.8262L161.719 91.75V88.25C161.719 86.5931 163.062 85.25 164.719 85.25Z" fill="black"/>
<path d="M133.344 85.25C134.975 85.25 136.302 86.5521 136.343 88.1738L136.344 88.25V91.75C136.344 93.4069 135.001 94.75 133.344 94.75C131.712 94.75 130.385 93.4479 130.345 91.8262L130.344 91.75V88.25C130.344 86.5931 131.687 85.25 133.344 85.25Z" fill="black"/>
<path d="M138.969 57.7635C129.344 55.42 116.844 60.7635 109.094 62.1385C109.094 45.2634 127.094 28.0134 147.719 27.5134C168.344 27.0134 181.094 40.6384 184.344 47.3884C185.608 50.0135 182.719 54.8705 175.969 57.7635C168.094 61.1385 153.344 61.2635 138.969 57.7635Z" fill="#013581"/>
<path d="M138.724 62.8488C147.98 57.1923 152.231 56.0325 156.687 53.4613C153.602 52.09 145.592 48.2592 141.478 51.5503C139.718 53.847 136.578 57.7063 138.724 62.8488Z" fill="#013581"/>
<path d="M121.188 65.4343C134.944 57.4638 140.901 60.035 145.357 57.4638C142.272 56.0925 148.957 46.294 126.973 51.0358C120.417 52.45 119.042 60.292 121.188 65.4343Z" fill="#013581"/>
<path d="M180.054 36.3509L182.543 45.191L149.739 40.1108L112.25 46.964L112.329 43.3267L115.003 42.2151L115.065 39.3572L118.436 39.4304L118.532 35.0136L122.866 35.1078L123.903 31.7512L127.756 31.8349L130.117 28.5071L134.067 29.6327L135.316 27.5804L139.41 27.6694L139.46 25.3311L144.948 27.7897L146.443 25.4828L148.8 27.8735L151.259 25.5875L155.783 28.0253L158.724 25.7498L161.803 28.1561L163.97 28.2032L166.333 30.3341L167.341 28.2765L171.339 32.7823L174.01 31.8006L177.391 36.9428L180.054 36.3509Z" fill="#013581"/>
</svg>
