<svg width="300" height="400" viewBox="0 0 300 400" fill="none" xmlns="http://www.w3.org/2000/svg">
<path d="M169.625 288.032C173.999 288.032 177.553 291.543 177.624 295.9L177.625 296.032V354.907C177.625 359.326 174.043 362.907 169.625 362.907C165.251 362.907 161.697 359.397 161.626 355.04L161.625 354.907V296.032C161.625 291.614 165.207 288.032 169.625 288.032Z" fill="#EBBAAA"/>
<path d="M130.365 288.032C134.739 288.032 138.293 291.543 138.363 295.9L138.365 296.032V354.907C138.365 359.326 134.783 362.907 130.365 362.907C125.99 362.907 122.436 359.397 122.366 355.04L122.365 354.907V296.032C122.365 291.614 125.946 288.032 130.365 288.032Z" fill="#EBBAAA"/>
<path d="M203.603 374.288C203.653 368.55 202.871 365.06 197.884 362.715C192.896 360.37 188.199 355.863 179.57 351.998C179.57 351.998 178.434 351.785 176.586 352.785C175.008 353.638 172.982 355.73 169.928 355.705C166.613 355.675 163.658 354.973 161.822 354.01C161.029 351.838 159.27 351.823 159.27 351.823C159.27 351.823 156.792 356.538 156.751 361.275C156.71 366.01 156.714 373.878 156.714 373.878L203.603 374.288Z" fill="#DCE1E6"/>
<path d="M180.477 352.69C180.629 352.349 181.029 352.195 181.37 352.347C181.712 352.499 181.865 352.899 181.713 353.24C181.567 353.57 181.457 353.946 181.38 354.365C181.315 354.717 181.277 355.042 181.255 355.424L181.248 355.572L184.882 353.969C185.392 353.744 185.934 354.196 185.817 354.729L185.808 354.768L185.058 357.484L188.061 356.516C188.484 356.38 188.917 356.681 188.944 357.118L188.945 357.16L188.945 359.949L191.194 358.73C191.632 358.493 192.163 358.795 192.192 359.283L192.193 359.325V362.71C192.193 363.084 191.89 363.387 191.516 363.387C191.157 363.387 190.862 363.106 190.841 362.751L190.84 362.71L190.84 360.461L188.591 361.68C188.152 361.918 187.622 361.616 187.593 361.128L187.591 361.085L187.591 358.089L184.28 359.157C183.781 359.318 183.302 358.875 183.411 358.373L183.42 358.333L184.124 355.782L180.827 357.237C180.393 357.428 179.906 357.125 179.878 356.66L179.877 356.618L179.878 356.361C179.883 355.41 179.919 354.823 180.049 354.12C180.144 353.602 180.284 353.125 180.477 352.69Z" fill="white"/>
<path d="M158.222 354.318C159.185 355.625 162.658 356.408 163.965 356.6C165.272 356.793 166.672 356.623 166.112 358.785C165.716 360.313 161.908 359.695 160.419 359.683C159.209 359.67 157.511 363.33 156.879 362.088C156.879 357.838 157.681 355.535 158.222 354.318Z" fill="#518C2D"/>
<path d="M201.716 363.155C200.186 362.6 198.565 362.18 195.458 361.475L196.779 365.278L196.741 369.608L205.584 369.685C205.945 369.688 206.59 369.208 206.282 367.255C205.897 364.815 203.89 363.943 201.716 363.155Z" fill="#EAF4FB"/>
<path d="M187.087 362.377L190.922 364.389L186.802 372.241L182.967 370.229L187.087 362.377Z" fill="#518C2D"/>
<path d="M181.41 359.404L185.248 361.412L180.311 370.847L176.473 368.839L181.41 359.404Z" fill="#518C2D"/>
<path d="M175.844 356.136L179.697 358.114L172.871 371.412L169.018 369.434L175.844 356.136Z" fill="#518C2D"/>
<path d="M156.566 373.138L156.822 368.583L196.474 369.2L206.36 368.475L206.662 371.968C206.767 373.175 205.862 374.23 204.654 374.315L196.424 374.883L157.63 374.283C157.015 374.273 156.531 373.753 156.566 373.138Z" fill="#C7CBCF"/>
<path d="M96.1909 374.288C96.1408 368.55 96.9224 365.06 101.91 362.715C106.897 360.37 111.595 355.863 120.223 351.998C120.223 351.998 121.359 351.785 123.208 352.785C124.786 353.638 126.812 355.73 129.865 355.705C133.181 355.675 136.136 354.973 137.971 354.01C138.765 351.838 140.524 351.823 140.524 351.823C140.524 351.823 143.001 356.538 143.043 361.275C143.084 366.01 143.08 373.878 143.08 373.878L96.1909 374.288Z" fill="#DCE1E6"/>
<path d="M118.424 352.347C118.765 352.195 119.165 352.349 119.317 352.69C119.51 353.125 119.65 353.602 119.745 354.12L119.777 354.301C119.89 354.988 119.917 355.599 119.917 356.618C119.917 357.092 119.443 357.415 119.006 357.253L118.967 357.237L115.67 355.782L116.373 358.333C116.513 358.838 116.051 359.298 115.553 359.168L115.513 359.157L112.202 358.089L112.202 361.085C112.202 361.584 111.684 361.906 111.241 361.699L111.203 361.68L108.954 360.461L108.954 362.71C108.954 363.07 108.673 363.364 108.319 363.386L108.277 363.387C107.917 363.387 107.623 363.106 107.602 362.751L107.601 362.71V359.325C107.601 358.827 108.119 358.504 108.562 358.711L108.6 358.73L110.849 359.949L110.849 357.16C110.849 356.715 111.269 356.396 111.692 356.504L111.733 356.516L114.735 357.484L113.986 354.768C113.838 354.23 114.364 353.761 114.875 353.954L114.912 353.969L118.545 355.572C118.527 355.152 118.492 354.809 118.428 354.444L118.414 354.365C118.337 353.946 118.227 353.57 118.08 353.24C117.929 352.899 118.082 352.499 118.424 352.347Z" fill="white"/>
<path d="M141.572 354.318C140.608 355.625 137.135 356.408 135.829 356.6C134.522 356.793 133.122 356.623 133.682 358.785C134.078 360.313 137.886 359.695 139.375 359.683C140.585 359.67 142.283 363.33 142.915 362.088C142.915 357.838 142.113 355.535 141.572 354.318Z" fill="#518C2D"/>
<path d="M98.0778 363.155C99.608 362.6 101.228 362.18 104.335 361.475L103.015 365.278L103.053 369.608L94.2097 369.685C93.8488 369.688 93.204 369.208 93.5118 367.255C93.8965 364.815 95.9035 363.943 98.0778 363.155Z" fill="#EAF4FB"/>
<path d="M112.707 362.377L116.827 370.229L112.992 372.241L108.872 364.389L112.707 362.377Z" fill="#518C2D"/>
<path d="M118.384 359.404L123.32 368.839L119.483 370.847L114.546 361.412L118.384 359.404Z" fill="#518C2D"/>
<path d="M123.95 356.136L130.776 369.434L126.923 371.412L120.097 358.114L123.95 356.136Z" fill="#518C2D"/>
<path d="M143.228 373.138L142.971 368.583L103.32 369.2L93.4333 368.475L93.1312 371.968C93.027 373.175 93.9316 374.23 95.1393 374.315L103.37 374.883L142.164 374.283C142.779 374.273 143.263 373.753 143.228 373.138Z" fill="#C7CBCF"/>
<path d="M150.75 286.282C166.628 286.282 179.5 280.405 179.5 273.157C179.5 265.908 166.628 260.032 150.75 260.032C134.872 260.032 122 265.908 122 273.157C122 280.405 134.872 286.282 150.75 286.282Z" fill="#2C2E32"/>
<path d="M155.5 246.974H109.25L118 335.475L123.179 346.725H140.179L141.75 335.475L155.5 246.974Z" fill="#2C2E32"/>
<path d="M144.5 246.974H190.75L182 335.475L176.821 346.725H159.821L158.25 335.475L144.5 246.974Z" fill="#2C2E32"/>
<path d="M141.25 343.475H120.75L121.75 348.975H140.314L141.25 343.475Z" fill="#1D1F23"/>
<path d="M158.75 343.475H179.25L178.25 348.975H159.686L158.75 343.475Z" fill="#1D1F23"/>
<path d="M113.443 166.237C115.953 161.788 121.595 160.216 126.045 162.726C130.494 165.236 132.067 170.877 129.557 175.327C124.955 183.483 120.14 198.625 116.944 214.541C115.441 222.026 114.411 229.15 113.991 234.942L113.956 235.452C113.786 237.981 113.742 240.181 113.819 241.968L113.827 242.146C113.867 242.972 113.933 243.68 114.018 244.252L114.036 244.365C114.098 244.758 114.158 245.016 114.188 245.107L114.193 245.121C115.939 249.922 113.462 255.229 108.661 256.975C103.86 258.721 98.5527 256.244 96.8069 251.443C94.092 243.977 95.1795 228.958 98.806 210.899C102.352 193.238 107.703 176.413 113.443 166.237Z" fill="#EBBAAA"/>
<path d="M174.955 162.726C179.405 160.216 185.046 161.788 187.556 166.237C193.297 176.413 198.648 193.238 202.194 210.899C205.82 228.958 206.908 243.977 204.193 251.443C202.447 256.244 197.14 258.721 192.339 256.975C187.586 255.247 185.111 250.028 186.756 245.265L186.807 245.121C186.834 245.045 186.898 244.782 186.964 244.365C187.052 243.811 187.121 243.12 187.165 242.309L187.173 242.146C187.267 240.21 187.213 237.771 187.008 234.942L186.964 234.349C186.519 228.666 185.508 221.772 184.056 214.541C180.86 198.625 176.044 183.483 171.443 175.327C168.933 170.877 170.506 165.236 174.955 162.726Z" fill="#EBBAAA"/>
<path d="M180.375 145.157L178 215.532C200.75 215.532 208 205.532 208 205.532C207.212 185.308 203.625 156.907 180.375 145.157Z" fill="#2C2E32"/>
<path d="M119.625 145.157L122 215.532C99.25 215.532 92 205.532 92 205.532C92.7886 185.308 96.375 156.907 119.625 145.157Z" fill="#2C2E32"/>
<path d="M109.391 166.75C108.736 155.535 115.643 145.259 126.276 141.632L150.75 133.282L175.223 141.632C185.857 145.259 192.764 155.535 192.108 166.75L190.719 190.532C190.719 190.532 196.495 207.647 196.964 219.032C197.358 228.572 194.371 242.502 193.47 246.452C193.312 247.145 192.861 247.721 192.213 248.014C188.548 249.671 174.827 255.032 150.75 255.032C126.672 255.032 112.952 249.671 109.287 248.014C108.639 247.721 108.188 247.145 108.03 246.452C107.129 242.502 104.142 228.572 104.535 219.032C105.005 207.647 110.781 190.532 110.781 190.532L109.391 166.75Z" fill="#35383E"/>
<path fill-rule="evenodd" clip-rule="evenodd" d="M161.643 194.393C168.833 197.042 170.563 189.385 163.607 185.38C159.774 183.171 153.888 183.69 150.548 182.749C153.888 181.808 159.773 182.326 163.606 180.12C170.563 176.114 168.832 168.458 161.644 171.107C164.292 163.918 156.636 162.186 152.629 169.143C150.424 172.976 150.941 178.861 150 182.201C149.059 178.861 149.579 172.976 147.369 169.142C143.364 162.186 135.708 163.917 138.358 171.107C131.168 168.457 129.437 176.113 136.393 180.119C140.227 182.328 146.112 181.808 149.452 182.749C146.112 183.691 140.227 183.173 136.392 185.381C129.436 189.386 131.168 197.042 138.357 194.393C135.708 201.582 143.363 203.314 147.368 196.357C149.577 192.522 149.059 186.638 150 183.297C150.941 186.637 150.422 192.523 152.631 196.357C156.636 203.312 164.293 201.582 161.643 194.393Z" fill="#6D6D6D"/>
<path d="M190 117.907C190 136.532 190 136.532 150.125 136.532C110.25 136.532 110.25 136.532 110.25 117.907C110.25 35.7822 128.103 35.7822 150.125 35.7822C172.147 35.7822 190 35.7822 190 117.907Z" fill="#AF682A"/>
<path opacity="0.5" d="M188.469 110.921C193.992 110.921 198.469 106.052 198.469 100.046C198.469 94.0394 193.992 89.1707 188.469 89.1707C182.946 89.1707 178.469 94.0394 178.469 100.046C178.469 106.052 182.946 110.921 188.469 110.921Z" fill="#C99584"/>
<path opacity="0.5" d="M113.469 110.921C107.946 110.921 103.469 106.052 103.469 100.046C103.469 94.0394 107.946 89.1707 113.469 89.1707C118.992 89.1707 123.469 94.0394 123.469 100.046C123.469 106.052 118.992 110.921 113.469 110.921Z" fill="#C99584"/>
<rect x="142.219" y="117.282" width="17.25" height="28.75" rx="8.625" fill="#EBBAAA"/>
<path d="M111.494 75.8465C112.317 54.866 129.565 38.2822 150.562 38.2822C171.483 38.2822 188.697 54.7515 189.622 75.6525L190.469 94.7823C194.661 118.795 176.18 140.782 151.804 140.782H151H150.493C125.987 140.782 107.192 119.029 110.75 94.7823L111.494 75.8465Z" fill="#F4D5CC"/>
<path fill-rule="evenodd" clip-rule="evenodd" d="M160.534 110.683V114.15C160.534 119.475 156.217 123.792 150.892 123.792C145.567 123.792 141.25 119.475 141.25 114.15V110.683H160.534Z" fill="#393939"/>
<mask id="mask0_0_8913" style="mask-type:luminance" maskUnits="userSpaceOnUse" x="141" y="109" width="20" height="15">
<path fill-rule="evenodd" clip-rule="evenodd" d="M160.406 109.032C160.49 109.544 160.534 110.069 160.534 110.604V114.15C160.534 119.475 156.217 123.791 150.892 123.791C145.567 123.791 141.25 119.475 141.25 114.15V110.604C141.25 110.069 141.293 109.544 141.377 109.032H160.406Z" fill="white"/>
</mask>
<g mask="url(#mask0_0_8913)">
<path d="M150.815 125.866C147.603 125.866 145 124.448 145 122.699C145 120.95 147.603 119.532 150.815 119.532C154.026 119.532 156.629 120.95 156.629 122.699C156.629 124.448 154.026 125.866 150.815 125.866Z" fill="#FF6C6C"/>
<rect width="19.2837" height="3.97675" transform="matrix(-1 0 0 1 160.534 110.183)" fill="white"/>
</g>
<path d="M159.754 75.8284C159.833 74.4734 160.978 73.4336 162.326 73.4751L162.396 73.4782L177.396 74.3532C178.774 74.4336 179.826 75.6162 179.746 76.9945C179.667 78.3495 178.523 79.3894 177.174 79.3478L177.104 79.3447L162.104 78.4697C160.726 78.3893 159.674 77.2067 159.754 75.8284Z" fill="#AF682A"/>
<path d="M139.604 73.4782C140.983 73.3978 142.165 74.45 142.246 75.8284C142.325 77.1834 141.309 78.3492 139.965 78.4647L139.896 78.4697L124.896 79.3447C123.517 79.4251 122.335 78.3729 122.254 76.9945C122.175 75.6395 123.191 74.4737 124.535 74.3582L124.604 74.3532L139.604 73.4782Z" fill="#AF682A"/>
<path d="M166.75 84.7822C168.381 84.7822 169.709 86.0844 169.749 87.706L169.75 87.7822V91.0322C169.75 92.6891 168.407 94.0322 166.75 94.0322C165.119 94.0322 163.791 92.7301 163.751 91.1085L163.75 91.0322V87.7822C163.75 86.1254 165.093 84.7822 166.75 84.7822Z" fill="black"/>
<path d="M135.375 84.7822C137.006 84.7822 138.334 86.0844 138.374 87.706L138.375 87.7822V91.0322C138.375 92.6891 137.032 94.0322 135.375 94.0322C133.744 94.0322 132.416 92.7301 132.376 91.1085L132.375 91.0322V87.7822C132.375 86.1254 133.718 84.7822 135.375 84.7822Z" fill="black"/>
<path d="M152.219 55.4205C131.468 55.4205 117.165 58.7955 113.969 65.7175C110.772 72.6395 111.504 74.7955 111.344 72.9205C111.184 71.0455 110.969 68.952 110.969 65.1705C110.969 40.6235 128.094 36.92 143.594 38.4201C159.094 39.9203 171.184 55.4205 152.219 55.4205Z" fill="#706F6F"/>
<path d="M149.55 55.298C168.587 55.298 187.684 48.132 188.469 62.0455C191.469 66.7955 190.344 72.2955 190.719 64.5455C192.334 31.1706 141.469 8.70251 115.469 47.5775C115.469 47.5775 130.51 55.298 149.55 55.298Z" fill="#706F6F"/>
<path d="M153.567 53.5323C117.75 61.532 105.067 84.782 114.942 119.532C100.692 104.782 97.5671 86.907 102.317 68.5323C110.231 37.9181 144.631 9.70498 176.067 35.1114C176.067 35.1114 178.623 47.9358 153.567 53.5323Z" fill="#D88439"/>
<path d="M148.25 68.5323C182.25 73.0321 196.75 84.7821 186.875 119.532C201.125 104.782 204.25 86.9071 199.5 68.5323C191.586 37.9181 156.877 8.63625 125.441 34.0427C125.441 34.0427 122.798 65.1636 148.25 68.5323Z" fill="#E18D43"/>
<path d="M157.761 55.4943C157.851 54.8098 158.479 54.328 159.163 54.4181C161.381 54.7098 163.084 55.4456 164.46 56.6364C165.467 57.5081 166.159 58.4314 167.145 60.0645L167.771 61.1164C167.925 61.3744 168.054 61.5888 168.18 61.7905L168.233 61.8763C170.319 65.2125 172.602 66.927 177.352 67.8031C178.031 67.9283 178.479 68.5802 178.354 69.2591C178.229 69.938 177.577 70.3869 176.898 70.2616C171.413 69.2499 168.551 67.1009 166.113 63.2016L165.94 62.921C165.861 62.7925 165.78 62.6575 165.691 62.5098L165.164 61.6221L164.946 61.2591C164.121 59.9022 163.565 59.1685 162.824 58.5265C161.828 57.6645 160.581 57.1262 158.837 56.8967C158.152 56.8066 157.671 56.1788 157.761 55.4943Z" fill="white" fill-opacity="0.307064"/>
<path d="M171.308 59.6559C171.516 58.9976 172.218 58.6325 172.876 58.8403C175.269 59.596 176.759 60.5256 177.965 61.8415L178.211 62.118C178.336 62.2617 178.449 62.4011 178.673 62.6842L178.903 62.9752C179.576 63.8291 179.955 64.2107 180.585 64.5967C181.439 65.1197 182.651 65.5173 184.443 65.7973C185.125 65.9039 185.591 66.5432 185.485 67.2253C185.378 67.9074 184.739 68.3739 184.057 68.2673C180.227 67.6689 178.667 66.7136 176.94 64.5233L176.545 64.0253C176.392 63.8344 176.314 63.7438 176.181 63.5959C175.265 62.5729 174.147 61.8633 172.123 61.2243C171.465 61.0164 171.1 60.3142 171.308 59.6559Z" fill="white" fill-opacity="0.307064"/>
<path d="M149.951 92.4917L153.487 94.8492C152.285 96.652 151.344 99.3581 151.344 101.327C151.344 103.225 152.029 104.023 154.128 104.045L154.219 104.045V108.295C149.583 108.295 147.094 105.495 147.094 101.327C147.094 98.5029 148.268 95.0751 149.863 92.6244L149.951 92.4917Z" fill="#EBBAAA"/>
</svg>
