<svg width="300" height="400" viewBox="0 0 300 400" fill="none" xmlns="http://www.w3.org/2000/svg">
<path d="M98.7941 360.364C98.3246 359.247 98.6625 357.717 98.9254 357.299C99.1883 356.884 131.112 354.967 131.112 354.967C136.411 354.552 146.914 352.802 147.64 355.814C148.537 359.542 148.496 360.384 147.884 363.269C146.905 364.232 137 365.072 133.788 364.352C133.788 362.667 133.538 361.587 133.538 361.587C133.538 361.587 131.748 362.677 129.648 363.149C125.364 364.112 124.544 365.072 111.275 365.072C100.633 364.109 99.8451 362.862 98.7941 360.364Z" fill="#1D1D1D"/>
<path d="M133.32 344.152C135.982 344.187 140.048 343.345 142.261 340.387C142.455 340.127 142.841 340.085 143.067 340.32C145.069 342.39 143.775 341.21 144.576 344.757C145.365 348.252 146.032 347.752 146.821 351C147.367 353.247 149.137 358.49 146.821 358.49H136.257C133.758 358.49 130.382 361.282 122.06 362.067C108.244 363.37 104.868 361.587 102.109 360.745C95.8327 358.83 99.018 354.45 102.109 353.05C106.638 351 113.128 349.46 116.429 347.76C119 346.437 119.883 346.027 121.203 344.635C122.892 342.852 123.606 341.717 124.14 340.83C124.366 340.457 124.958 340.545 125.197 340.91C126.655 343.137 130.862 344.122 133.32 344.152Z" fill="black"/>
<path d="M124.716 341.255C125.042 341.104 125.426 341.235 125.595 341.547L125.614 341.585C125.707 341.786 125.895 342.035 126.184 342.343L126.303 342.468C126.385 342.552 126.476 342.642 126.585 342.749L127.286 343.427C127.528 343.664 127.631 343.776 127.786 343.959C128.175 344.416 128.389 344.818 128.389 345.262C128.389 345.712 127.96 346.033 127.533 345.915L127.493 345.902L124.13 344.749L125.553 346.77C125.911 347.278 125.453 347.951 124.86 347.822L124.821 347.812L121.723 346.96L122.917 348.557C123.28 349.042 122.872 349.715 122.285 349.633L122.246 349.626L118.947 348.984L120.459 350.389C120.721 350.632 120.747 351.036 120.524 351.31L120.494 351.345C120.25 351.607 119.847 351.633 119.573 351.411L119.538 351.38L116.289 348.363C115.801 347.909 116.195 347.106 116.84 347.196L116.879 347.203L120.782 347.962L119.456 346.19C119.078 345.684 119.536 344.991 120.139 345.122L120.178 345.132L123.36 346.007L121.822 343.822C121.452 343.296 121.953 342.608 122.557 342.78L122.594 342.792L125.83 343.901L125.636 343.714C125.48 343.562 125.358 343.439 125.241 343.316L125.198 343.27C124.818 342.865 124.552 342.513 124.386 342.154C124.229 341.814 124.377 341.412 124.716 341.255Z" fill="#1C1B1B"/>
<path d="M102.867 356.85C103.003 356.386 103.488 356.119 103.952 356.254L104.325 356.362C105.839 356.792 106.92 357.025 108.287 357.167C110.293 357.375 112.42 357.279 114.78 356.804C115.253 356.709 115.715 357.016 115.81 357.489C115.905 357.963 115.599 358.424 115.125 358.52C112.591 359.03 110.287 359.133 108.107 358.908C106.504 358.742 105.271 358.462 103.463 357.934C102.999 357.799 102.732 357.314 102.867 356.85Z" fill="white" fill-opacity="0.11"/>
<path d="M121.523 350.764C123.971 348.602 125.792 347.519 127.75 345.114C128.811 345.114 130.211 345.234 134.25 345.234C139.513 345.234 140.908 343.069 143.233 340.547C145 341.627 144.09 343.912 145.314 347.037C146.293 349.539 148.129 353.289 148.129 357.859C147.272 359.302 138.827 358.579 136.135 358.579C135.523 355.694 130.75 353.289 128.625 352.689C126.76 352.162 124.583 351.967 121.523 350.764Z" fill="#1B1A1A"/>
<path d="M204.142 360.365C204.611 359.247 204.273 357.717 204.01 357.3C203.748 356.885 171.824 354.967 171.824 354.967C166.525 354.552 156.022 352.802 155.296 355.815C154.398 359.542 154.439 360.385 155.051 363.27C156.031 364.232 165.936 365.072 169.148 364.352C169.148 362.667 169.398 361.587 169.398 361.587C169.398 361.587 171.188 362.677 173.288 363.15C177.572 364.112 178.392 365.072 191.661 365.072C202.302 364.11 203.091 362.862 204.142 360.365Z" fill="#1D1D1D"/>
<path d="M169.616 344.152C166.954 344.187 162.888 343.345 160.675 340.387C160.481 340.127 160.095 340.085 159.869 340.32C157.867 342.39 159.161 341.21 158.36 344.757C157.571 348.252 156.904 347.752 156.115 351C155.569 353.247 153.799 358.49 156.115 358.49H166.679C169.178 358.49 172.554 361.282 180.876 362.067C194.692 363.37 198.068 361.587 200.827 360.745C207.103 358.83 203.918 354.45 200.827 353.05C196.298 351 189.808 349.46 186.507 347.76C183.936 346.437 183.053 346.027 181.733 344.635C180.044 342.852 179.331 341.717 178.796 340.83C178.57 340.457 177.978 340.545 177.739 340.91C176.281 343.137 172.074 344.122 169.616 344.152Z" fill="black"/>
<path d="M177.322 341.586C177.479 341.246 177.881 341.099 178.22 341.256C178.559 341.412 178.707 341.815 178.55 342.154C178.396 342.487 178.156 342.815 177.818 343.184L177.738 343.27C177.608 343.409 177.475 343.543 177.3 343.714L177.105 343.901L180.341 342.792C180.949 342.584 181.47 343.257 181.136 343.789L181.114 343.822L179.575 346.007L182.758 345.132C183.367 344.965 183.845 345.645 183.502 346.158L183.479 346.19L182.153 347.963L186.057 347.203C186.711 347.076 187.128 347.867 186.675 348.335L186.646 348.363L183.398 351.381C183.124 351.635 182.696 351.619 182.442 351.345C182.198 351.083 182.202 350.679 182.444 350.422L182.477 350.389L183.989 348.984L180.69 349.626C180.096 349.742 179.667 349.082 179.996 348.59L180.019 348.557L181.213 346.961L178.115 347.812C177.516 347.977 177.038 347.318 177.36 346.803L177.383 346.77L178.805 344.749L175.443 345.902C175.017 346.048 174.574 345.746 174.548 345.304L174.546 345.262C174.546 344.841 174.739 344.459 175.09 344.031L175.193 343.908C175.333 343.745 175.442 343.63 175.685 343.392L176.351 342.749C176.515 342.589 176.636 342.467 176.752 342.344C177.02 342.058 177.202 341.822 177.3 341.629L177.322 341.586Z" fill="#1C1B1B"/>
<path d="M198.983 356.255C199.447 356.119 199.933 356.386 200.068 356.85C200.204 357.314 199.937 357.799 199.473 357.935C197.665 358.462 196.432 358.742 194.829 358.908C192.649 359.134 190.345 359.03 187.811 358.52C187.337 358.425 187.03 357.963 187.126 357.49C187.221 357.016 187.682 356.709 188.156 356.804C190.516 357.279 192.643 357.375 194.649 357.167C196.125 357.014 197.268 356.755 198.983 356.255Z" fill="white" fill-opacity="0.11"/>
<path d="M181.412 350.765C178.964 348.602 177.144 347.52 175.186 345.115C174.125 345.115 172.725 345.235 168.686 345.235C163.423 345.235 162.028 343.07 159.702 340.547C157.936 341.627 158.846 343.912 157.622 347.037C156.643 349.54 154.807 353.29 154.807 357.86C155.663 359.302 164.109 358.58 166.801 358.58C167.413 355.695 172.186 353.29 174.311 352.69C176.176 352.162 178.353 351.967 181.412 350.765Z" fill="#1B1A1A"/>
<path d="M149.75 272.821C163.695 272.821 174.999 268.775 174.999 263.784C174.999 258.793 163.695 254.747 149.75 254.747C135.806 254.747 124.502 258.793 124.502 263.784C124.502 268.775 135.806 272.821 149.75 272.821Z" fill="black"/>
<path d="M114.295 240.244H148.045L145.75 332.697L143.75 339.75L124.625 338.75L121.721 331.075L114.295 240.244Z" fill="black"/>
<path d="M147.724 241.75H181.588L182.25 331.395L179.5 338.645L160 342L158.185 333.395L147.724 241.75Z" fill="black"/>
<path d="M123 336.75H145.875L145.456 338.807L144.625 342.75L139.625 344.37L124.581 344.182L124.331 343.057L124 341.432L123.581 339.557L123 336.75Z" fill="black"/>
<path d="M158.331 337.5L180.081 337.875V341.25V343.625L174.25 344.312H168.5L157.75 343.062L158.331 337.5Z" fill="black"/>
<path d="M99.1896 180.026C101.513 175.476 107.085 173.672 111.635 175.996C116.139 178.296 117.952 183.78 115.733 188.304L115.665 188.441C112.443 194.748 109.042 207.462 107.265 219.769L107.212 220.142C106.368 226.098 105.986 231.435 106.118 235.351L106.125 235.54C106.179 236.934 106.298 238.058 106.449 238.836L106.464 238.91L106.472 238.919C109.099 241.926 109.552 246.406 107.325 249.935L107.242 250.064C104.447 254.34 98.7142 255.54 94.4384 252.744C91.3828 250.746 89.7123 247.826 88.7313 244.262C88.0976 241.96 87.7566 239.301 87.6389 236.253C87.439 231.076 87.8941 224.608 88.8953 217.545C90.9188 203.271 94.8435 188.534 99.1896 180.026Z" fill="#EBBAAA"/>
<path d="M182.386 170.493C186.835 167.983 192.477 169.555 194.987 174.005C200.911 184.507 205.284 199.345 207.542 214.854C209.691 229.622 209.647 242.978 206.943 250.414C205.197 255.215 199.89 257.691 195.089 255.946C190.336 254.217 187.861 248.998 189.506 244.235L189.557 244.091C190.94 240.288 190.976 229.481 189.235 217.519C187.299 204.217 183.597 191.588 179.013 183.342L178.874 183.094C176.364 178.644 177.936 173.003 182.386 170.493Z" fill="#EBBAAA"/>
<rect x="97.416" y="171.886" width="27.468" height="4.17175" transform="rotate(18 97.416 171.886)" fill="#F1EDED"/>
<rect x="200.685" y="181.508" width="27.468" height="4.17175" transform="rotate(162 200.685 181.508)" fill="#F1EDED"/>
<path d="M115.239 160.679C115.448 152.075 129.524 143.957 138.125 143.676L151.018 144.19C152.654 144.139 154.293 144.224 155.914 144.448L175.516 147.159C184.163 148.355 190.317 156.173 189.446 164.859L185.738 201.831L187.598 254.8C187.616 255.253 166.054 254.823 165.601 254.8H130.937L111.235 251.826C110.799 251.803 110.467 251.424 110.503 250.989L114.352 197.226L115.239 160.679Z" fill="#1B1A1A"/>
<path d="M148 166.676C157.941 166.676 166 161.247 166 154.551C166 147.854 157.941 142.426 148 142.426C138.059 142.426 130 147.854 130 154.551C130 161.247 138.059 166.676 148 166.676Z" fill="#222222"/>
<rect x="138" y="129.252" width="22" height="29.75" rx="9.47775" fill="#EBBAAA"/>
<rect x="102.036" y="142.926" width="36.928" height="89.9108" rx="18.464" transform="rotate(16.5 102.036 142.926)" fill="#474A4F"/>
<path d="M80.8007 243.003C79.2007 238.403 79.2502 220.676 81.2502 213.176L109.301 213.503C108.5 225.051 113.176 235.224 109.301 247.051C104.051 247.301 82.8007 248.753 80.8007 243.003Z" fill="#474A4F"/>
<path d="M97.546 159.574C100.299 161.057 103.955 162.435 107.496 163.127C112.082 164.023 116.145 163.738 119.324 162.01L119.458 161.937L120.069 163.027C116.573 164.987 112.172 165.315 107.256 164.354C103.664 163.652 99.9749 162.276 97.1408 160.775L96.9531 160.675L97.546 159.574Z" fill="#5E5F64"/>
<path d="M103.609 151.104C106.675 154.848 118.206 156.598 124.707 154.239L124.902 154.166L125.348 155.334C118.495 157.95 106.366 156.18 102.749 152.022L102.642 151.896L103.609 151.104Z" fill="#5E5F64"/>
<path d="M92.0017 177.822L92.4996 176.676L92.6273 176.733C93.2678 177.025 95.3893 178.039 96.2052 178.401L96.2545 178.422C99.0538 179.652 101.544 180.376 104.144 180.545C107.396 180.756 110.546 180.039 113.634 178.191L113.799 178.091L114.451 179.157C111.086 181.217 107.625 182.024 104.063 181.792C101.368 181.617 98.8114 180.89 95.9818 179.667L95.6491 179.521C94.7224 179.108 92.4624 178.026 92.0253 177.833L92.0017 177.822Z" fill="#5E5F64"/>
<path d="M88.6223 188.072L89.1202 186.926L89.3355 187.023C90.0788 187.366 92.1306 188.345 92.8751 188.672C95.6744 189.902 98.1643 190.626 100.764 190.795C104.017 191.006 107.167 190.289 110.254 188.441L110.42 188.341L111.072 189.407C107.707 191.467 104.246 192.274 100.683 192.042C97.9886 191.867 95.432 191.14 92.6024 189.917L92.2697 189.771C91.4339 189.398 89.5134 188.482 88.8241 188.164L88.6223 188.072Z" fill="#5E5F64"/>
<path d="M94.4856 169.441L95.0146 168.308L96.6891 169.101L96.8239 169.164C97.6286 169.541 98.3331 169.859 99.0482 170.162C102.832 171.769 106.203 172.663 109.393 172.649C112.285 172.637 114.841 171.85 117.03 170.162L117.154 170.065L117.929 171.045C115.481 172.984 112.611 173.885 109.398 173.899C106.008 173.914 102.485 172.98 98.5596 171.313C97.9617 171.059 97.3724 170.796 96.7302 170.499L96.2551 170.278L94.4856 169.441Z" fill="#5E5F64"/>
<path d="M86.0967 196.821L86.6021 195.678L88.1808 196.378L88.5662 196.547C89.0687 196.765 89.5289 196.959 89.9895 197.146C93.0243 198.377 95.7517 199.152 98.5347 199.427C101.977 199.768 105.242 199.289 108.344 197.827L108.519 197.743L109.064 198.868C105.692 200.501 102.139 201.04 98.4116 200.671C95.4922 200.382 92.656 199.577 89.5195 198.304L89.1663 198.159C88.753 197.988 88.3326 197.809 87.876 197.609L86.0967 196.821Z" fill="#5E5F64"/>
<path d="M83.615 205.321L84.1204 204.178L84.5826 204.381C88.4625 206.081 91.132 207.043 94.4577 207.715C99.3165 208.697 103.725 208.448 107.565 206.639L107.727 206.562L108.272 207.687C104.118 209.699 99.3839 209.986 94.21 208.94C90.7762 208.246 88.0399 207.261 84.0859 205.528L83.615 205.321Z" fill="#5E5F64"/>
<path d="M81.878 212.178C84.4672 213.322 89.003 214.504 93.5118 215.088C99.0546 215.806 104.152 215.618 108.12 214.341L108.302 214.281L108.698 215.467C104.498 216.867 99.1501 217.079 93.3512 216.328C88.802 215.738 84.2244 214.555 81.5008 213.377L81.3726 213.321L81.878 212.178Z" fill="#5E5F64"/>
<path d="M80.5725 219.771C83.6481 220.796 89.1994 221.622 94.8001 221.821L95.0156 221.828C101.599 222.043 107.544 221.402 111.739 219.843L111.906 219.78L112.352 220.948C107.966 222.622 101.797 223.3 94.9748 223.077C89.2635 222.891 83.5673 222.06 80.3016 220.998L80.1772 220.957L80.5725 219.771Z" fill="#5E5F64"/>
<path d="M79.8047 227.879C85.2926 227.255 102.78 227.249 111.774 227.857L112.044 227.876L111.956 229.123C103.205 228.507 85.7559 228.5 80.1132 229.102L79.9458 229.121L79.8047 227.879Z" fill="#5E5F64"/>
<path d="M80.227 235.366L80.0215 234.133L80.2924 234.089C83.837 233.536 89.9584 233.284 95.6858 233.562L96.1889 233.588C103.374 233.975 109.424 235.125 113.397 237.123L113.535 237.193L112.963 238.305C109.097 236.317 102.952 235.167 95.6252 234.811C89.9051 234.533 83.7844 234.792 80.3559 235.345L80.227 235.366Z" fill="#5E5F64"/>
<path d="M80.3972 240.646C83.8945 240.064 90.1853 239.791 96.0615 240.076L96.5646 240.102C103.75 240.489 109.8 241.639 113.773 243.637L113.911 243.707L113.339 244.819C109.473 242.831 103.328 241.68 96.0009 241.325C90.2808 241.047 84.1601 241.306 80.7316 241.858L80.6027 241.879L80.3972 240.646Z" fill="#5E5F64"/>
<rect width="39.4963" height="97.077" rx="19.7481" transform="matrix(-0.945519 0.325568 0.325568 0.945519 191.845 141.002)" fill="#474A4F"/>
<path d="M145.125 258.25C146.75 250.375 141.419 237.229 141.125 212.375C140.991 201.062 143.386 187.007 143.875 175C144.112 169.187 142.75 161.673 142.75 159.051C141.25 158.426 138.625 155.051 137.375 154.301C136.125 153.551 138 150.301 138 143.426L116.529 147.544C113.198 152.127 107.339 165.821 106.398 192.05C105.651 212.895 107.972 227.066 107.946 240.551C107.94 244.034 107.375 250.801 109.125 254.176C110.875 257.551 131.875 258.25 145.125 258.25Z" fill="#3E4044"/>
<path d="M198.281 160.727L198.968 161.772C193.034 165.675 180.682 167.381 175.865 165.141L175.722 165.072L176.278 163.953C180.512 166.059 192.393 164.475 198.11 160.838L198.281 160.727Z" fill="#5E5F64"/>
<path d="M201.11 168.319L201.639 169.451C194.559 172.763 182.872 174.739 178.599 172.769L178.472 172.708L179.028 171.589C182.72 173.425 194.043 171.555 200.903 168.415L201.11 168.319Z" fill="#5E5F64"/>
<path d="M193.982 152.76L194.735 153.758C192.01 155.818 187.607 157.197 182.767 157.694C178.315 158.152 174.107 157.785 171.816 156.692L171.722 156.646L172.278 155.527C174.292 156.528 178.34 156.892 182.639 156.451C187.203 155.982 191.343 154.7 193.868 152.845L193.982 152.76Z" fill="#5E5F64"/>
<path d="M217.25 244.002C218.85 239.402 219.624 223.676 217.624 216.176L188.75 214.502C191.8 224.002 186.5 233.676 188.75 245.926C194 246.176 215.25 249.752 217.25 244.002Z" fill="#474A4F"/>
<path d="M203.596 175.942L204.121 177.076L202.181 177.968L201.528 178.263C197.374 180.114 194.359 181.104 191.266 181.42C188.291 181.724 185.579 181.294 183.102 180.003L182.954 179.925L183.545 178.824C185.828 180.05 188.34 180.463 191.139 180.177C194.121 179.872 197.082 178.887 201.238 177.023L202.321 176.531L203.596 175.942Z" fill="#5E5F64"/>
<path d="M206.346 184.092L206.871 185.227L204.931 186.119L204.278 186.413C200.124 188.264 197.109 189.255 194.016 189.571C191.041 189.875 188.329 189.444 185.852 188.154L185.704 188.076L186.295 186.974C188.578 188.2 191.09 188.614 193.889 188.327C196.871 188.022 199.832 187.037 203.988 185.173L205.071 184.681L206.346 184.092Z" fill="#5E5F64"/>
<path d="M209.015 192.237L209.702 193.281C203.866 197.12 191.775 198.51 186.868 196.216L186.721 196.146L187.278 195.027C191.621 197.187 203.238 195.908 208.847 192.345L209.015 192.237Z" fill="#5E5F64"/>
<path d="M212.109 200.558L212.639 201.69C208.821 203.478 205.01 204.853 201.218 205.626C196.313 206.627 191.87 206.514 188.063 205.022L187.89 204.954L188.359 203.795C191.947 205.247 196.21 205.372 200.968 204.401C204.545 203.672 208.16 202.384 211.789 200.707L212.109 200.558Z" fill="#5E5F64"/>
<path d="M214.234 207.122L214.764 208.254C211.289 209.881 206.475 211.442 201.894 212.285C196.161 213.341 191.112 213.26 187.29 211.764L187.14 211.704L187.609 210.545C191.188 211.994 196.072 212.086 201.667 211.056C206.057 210.248 210.676 208.762 214.042 207.212L214.234 207.122Z" fill="#5E5F64"/>
<path d="M216.609 213.455L217.139 214.587C210.446 217.72 198.49 219.622 188.729 218.651L188.434 218.621L188.565 217.378C198.061 218.384 209.821 216.559 216.411 213.547L216.609 213.455Z" fill="#5E5F64"/>
<path d="M217.764 219.42L218.233 220.579C208.932 224.342 192.887 225.874 186.899 223.084L186.721 222.998L187.277 221.879C192.678 224.566 208.351 223.13 217.49 219.53L217.764 219.42Z" fill="#5E5F64"/>
<path d="M205.555 228.433C211.042 228.223 215.317 228.193 218.484 228.393L218.792 228.413L218.706 229.66L218.403 229.64C215.39 229.45 211.325 229.472 206.133 229.662L205.061 229.704C203.769 229.755 202.444 229.815 200.984 229.887L191.798 230.369L190.375 230.437C189.157 230.491 188.239 230.521 187.537 230.528L187.25 230.529V229.279L187.604 229.277C188.48 229.267 189.707 229.22 191.435 229.135L199.412 228.714C201.237 228.621 202.832 228.545 204.36 228.481L205.555 228.433Z" fill="#5E5F64"/>
<path d="M186.132 238.617C191.306 234.843 206.729 234.399 217.815 237.061L218.15 237.143L217.849 238.356C207.175 235.712 192.024 236.082 187.017 239.522L186.868 239.627L186.132 238.617Z" fill="#5E5F64"/>
<path d="M185.631 243.979C190.806 240.205 206.228 239.761 217.315 242.423L217.649 242.505L217.349 243.718C206.674 241.074 191.524 241.444 186.517 244.884L186.368 244.989L185.631 243.979Z" fill="#5E5F64"/>
<path d="M109.043 170.374C111.876 171.878 116.453 173.528 121.492 174.679C127.922 176.148 134.663 176.742 141.338 176.208L141.696 176.178L141.803 177.423C134.875 178.02 127.879 177.42 121.214 175.898C116.152 174.742 111.537 173.089 108.595 171.551L108.457 171.478L109.043 170.374Z" fill="#474A4F"/>
<path d="M110.793 161.698C113.626 163.202 118.203 164.852 123.242 166.003C129.672 167.471 136.413 168.066 143.088 167.532L143.446 167.502L143.553 168.747C136.625 169.344 129.629 168.744 122.964 167.221C117.902 166.065 113.287 164.412 110.345 162.875L110.207 162.802L110.793 161.698Z" fill="#474A4F"/>
<path d="M112.375 160.25V159L113.33 159C123.182 159.015 129.175 159.28 140.227 160.428L140.94 160.503L140.809 161.746L139.75 161.636C128.966 160.522 123.035 160.265 113.326 160.25L112.375 160.25Z" fill="#474A4F"/>
<path d="M156 212.051C156 187.999 155.125 177.125 155.125 172.875C155.125 168.625 156.25 164.125 156.25 161.25C158.749 155.923 160.75 152.926 160 144.301L175.728 145.696C179.707 146.049 183.233 148.252 184.06 152.16C185.763 160.194 186.774 174.717 188.36 193.534C190 213.003 189.185 229.389 190 242.753C190.254 246.921 191.124 252.801 188.75 256.051C186.375 259.301 166.875 259.801 153.125 258.676C154.625 244.995 156 236.103 156 212.051Z" fill="#3E4044"/>
<path d="M141.874 165.75C141.874 169.227 141.746 173.075 141.503 177.317L141.479 177.743C141.241 181.804 140.912 186.043 140.471 190.992L139.447 202.047L139.32 203.481C139.102 206.02 139 207.621 139 208.624C139.001 218.933 139.994 230.141 141.814 244.851L141.999 246.343C142.641 251.616 142.869 254.39 142.875 257.745L142.875 257.875H141.625L141.623 257.37C141.601 254.239 141.37 251.517 140.757 246.489L140.464 244.113C138.725 229.939 137.771 219.016 137.751 208.939L137.75 208.625C137.75 207.495 137.87 205.697 138.128 202.763L138.385 199.957C138.63 197.328 139.036 192.993 139.19 191.283L139.331 189.694C139.719 185.259 140.013 181.388 140.231 177.669L140.279 176.826C140.498 172.912 140.616 169.341 140.624 166.096L140.624 165.75H141.874Z" fill="#474A4F"/>
<path d="M144.25 173.1C144.485 179.09 144.288 183.558 143.656 189.584L143.451 191.465L143.166 193.99C142.339 201.358 142 206.227 142 213.374C142 221.57 143.6 235.996 145.069 243.65L145.113 243.88C146.119 249.032 146.362 253.271 145.9 258.027L145.872 258.313L144.628 258.186C145.106 253.532 144.898 249.421 143.945 244.42L143.887 244.119C142.391 236.454 140.75 221.74 140.75 213.374C140.75 206.305 141.08 201.44 141.879 194.252L142.251 190.947C142.278 190.702 142.303 190.472 142.328 190.244C143.007 183.999 143.234 179.521 143.015 173.533L143 173.149L144.25 173.1Z" fill="#656566"/>
<path d="M186.205 170.625L186.795 171.727C180.678 174.999 174.46 176.975 168.265 177.892C163.845 178.546 159.878 178.618 156.109 178.324L155.833 178.302L155.937 177.056C159.699 177.368 163.657 177.31 168.082 176.655C174.038 175.774 180.017 173.891 185.906 170.784L186.205 170.625Z" fill="#474A4F"/>
<path d="M184.57 162.551L185.16 163.653C179.402 166.733 173.839 168.612 168.314 169.57C164.573 170.219 161.767 170.386 157.353 170.381L155.5 170.375V169.125L157.348 169.131C161.698 169.136 164.444 168.973 168.1 168.339C173.402 167.419 178.741 165.631 184.274 162.708L184.57 162.551Z" fill="#474A4F"/>
<path d="M184.567 159.128L184.684 160.372L183.034 160.526C170.375 161.688 163.879 161.936 158.538 161.525L158.198 161.498L158.302 160.252L158.636 160.279C164.06 160.696 170.742 160.42 184.15 159.167L184.567 159.128Z" fill="#474A4F"/>
<path d="M112.022 156.469C117.612 154.279 126.129 153.454 139.508 154.277L139.915 154.302L139.835 155.549L139.034 155.5C126.184 154.736 117.984 155.525 112.642 157.569L112.478 157.633L112.022 156.469Z" fill="#474A4F"/>
<path d="M123.278 148.682L123.572 148.647C127.377 148.215 132.283 148.183 139.012 148.593L139.54 148.626L139.46 149.873L138.938 149.841C132.189 149.429 127.314 149.467 123.571 149.906L123.428 149.923C120.387 150.29 118.271 150.861 115.458 151.95L115.228 152.039L114.772 150.875C117.793 149.692 120.04 149.073 123.278 148.682Z" fill="#474A4F"/>
<path d="M163.876 152.964C167.027 152.626 169.032 152.565 171.759 152.848C175.475 153.234 179.629 154.296 184.589 156.24L184.855 156.345L184.395 157.507C179.419 155.537 175.294 154.472 171.63 154.091C169.006 153.819 167.077 153.877 164.004 154.208L162.246 154.401C161.542 154.476 161.189 154.508 160.725 154.538L160.538 154.55L160.462 153.302L160.902 153.273C161.181 153.252 161.455 153.227 161.852 153.186L163.876 152.964Z" fill="#474A4F"/>
<path d="M162.376 147.379C165.526 147.04 167.532 146.979 170.259 147.262C173.975 147.648 178.129 148.711 183.089 150.654L183.355 150.759L182.895 151.921C177.919 149.952 173.793 148.886 170.13 148.506C167.445 148.227 165.487 148.295 162.287 148.646L160.679 148.823C160.019 148.893 159.674 148.923 159.225 148.952L159.038 148.964L158.962 147.716L159.402 147.687C159.681 147.666 159.955 147.641 160.352 147.6L162.376 147.379Z" fill="#474A4F"/>
<path d="M187.58 189L188.17 190.102C182.058 193.371 175.609 195.396 169.079 196.38C164.369 197.09 159.971 197.206 156.311 196.922L156.083 196.903L156.187 195.658C159.798 195.957 164.184 195.853 168.893 195.144C175.179 194.196 181.387 192.265 187.276 189.161L187.58 189Z" fill="#474A4F"/>
<path d="M186.705 180.323L187.295 181.426C181.182 184.695 174.94 186.656 168.694 187.551C164.268 188.186 160.315 188.243 156.485 187.944L156.198 187.92L156.302 186.675C160.134 186.993 164.082 186.949 168.517 186.314C174.522 185.453 180.523 183.585 186.406 180.482L186.705 180.323Z" fill="#474A4F"/>
<path d="M188.705 209.25L189.295 210.352C183.184 213.62 176.552 215.698 169.77 216.754C164.816 217.526 160.08 217.694 156.526 217.419L156.333 217.403L156.437 216.158C159.914 216.446 164.632 216.289 169.577 215.519C176.115 214.501 182.506 212.516 188.401 209.411L188.705 209.25Z" fill="#474A4F"/>
<path d="M188.82 219.873L189.41 220.975C183.299 224.243 176.667 226.321 169.885 227.377C164.931 228.149 160.195 228.317 156.641 228.042L156.448 228.027L156.552 226.781C160.029 227.069 164.747 226.913 169.692 226.142C176.23 225.124 182.621 223.139 188.516 220.034L188.82 219.873Z" fill="#474A4F"/>
<path d="M187.955 199.573L188.545 200.676C182.442 203.94 175.949 205.925 169.317 206.854C164.605 207.515 160.239 207.593 156.45 207.297L156.198 207.276L156.302 206.031C160.061 206.343 164.424 206.278 169.144 205.616C175.529 204.722 181.778 202.829 187.657 199.732L187.955 199.573Z" fill="#474A4F"/>
<path d="M188.83 229.625L189.42 230.727C183.333 233.983 176.555 235.935 169.438 236.819C164.459 237.438 159.779 237.483 155.834 237.174L155.583 237.153L155.687 235.908C159.602 236.233 164.291 236.199 169.284 235.579C176.149 234.726 182.683 232.861 188.551 229.773L188.83 229.625Z" fill="#474A4F"/>
<path d="M189.08 239.573L189.67 240.676C183.591 243.927 176.645 245.86 169.24 246.716C164.104 247.31 159.242 247.335 155.2 247.017L154.948 246.996L155.052 245.75C159.065 246.084 163.942 246.07 169.096 245.474C176.244 244.648 182.944 242.802 188.806 239.719L189.08 239.573Z" fill="#474A4F"/>
<path d="M106.793 189.249C109.499 190.685 114.586 192.414 120.111 193.615C127.035 195.12 134.152 195.741 140.845 195.207L141.197 195.178L141.304 196.423C134.375 197.02 127.006 196.393 119.845 194.837L119.413 194.741C114.096 193.555 109.215 191.9 106.428 190.468L106.207 190.353L106.793 189.249Z" fill="#474A4F"/>
<path d="M107.293 180.698C109.999 182.135 115.086 183.864 120.611 185.064C127.535 186.569 134.652 187.191 141.345 186.656L141.697 186.627L141.804 187.873C134.875 188.469 127.506 187.842 120.345 186.286L119.913 186.191C114.596 185.004 109.715 183.349 106.928 181.918L106.707 181.802L107.293 180.698Z" fill="#474A4F"/>
<path d="M106.793 209.374C109.57 210.848 114.475 212.574 119.804 213.778C126.563 215.306 133.541 215.94 140.22 215.406L140.572 215.377L140.679 216.623C133.755 217.219 126.525 216.579 119.528 214.998C114.174 213.787 109.23 212.057 106.33 210.543L106.207 210.478L106.793 209.374Z" fill="#474A4F"/>
<path d="M107.793 221.198C110.409 222.587 115.219 224.138 120.598 225.187C127.161 226.466 134.098 226.949 140.823 226.408L141.197 226.377L141.304 227.623C134.34 228.222 127.152 227.738 120.359 226.413C114.941 225.357 110.075 223.797 107.318 222.36L107.207 222.302L107.793 221.198Z" fill="#474A4F"/>
<path d="M106.543 199.448C109.289 200.906 114.235 202.622 119.614 203.815C126.4 205.32 133.409 205.941 140.095 205.406L140.447 205.377L140.554 206.623C133.626 207.219 126.366 206.593 119.343 205.035L118.893 204.934C113.735 203.757 109.006 202.121 106.196 200.677L105.957 200.552L106.543 199.448Z" fill="#474A4F"/>
<path d="M108.918 230.073C111.628 231.512 116.334 233.115 121.545 234.214C128.042 235.584 134.881 236.121 141.581 235.583L141.947 235.553L142.054 236.798C135.108 237.396 128.017 236.856 121.287 235.437C116.045 234.331 111.293 232.722 108.456 231.242L108.332 231.177L108.918 230.073Z" fill="#474A4F"/>
<path d="M108.543 240.698C111 242.003 116.166 243.465 122.079 244.433C128.978 245.563 136.274 245.956 143.056 245.41L143.447 245.377L143.554 246.623C136.552 247.225 129.006 246.834 121.877 245.667L121.467 245.599C115.671 244.622 110.617 243.185 108.047 241.849L107.957 241.802L108.543 240.698Z" fill="#474A4F"/>
<path d="M145.702 253.609L144.4 253.439C144.048 253.394 143.699 253.537 143.481 253.817L143.038 254.387C142.851 254.627 142.784 254.938 142.855 255.234L143.523 258.03C143.619 258.433 143.955 258.735 144.366 258.789L144.501 258.806C144.92 258.861 145.328 258.646 145.521 258.27L146.801 255.763C146.943 255.486 146.947 255.159 146.813 254.878L146.476 254.17C146.33 253.864 146.039 253.653 145.702 253.609Z" fill="#363333"/>
<path fill-rule="evenodd" clip-rule="evenodd" d="M145.793 256.033L143.741 255.766L143.377 257.171L142.434 260.473C142.141 261.498 142.828 262.544 143.885 262.681C144.942 262.819 145.874 261.984 145.853 260.918L145.786 257.484L145.793 256.033ZM143.733 257.611L144.09 256.325L145.41 256.497L145.417 257.83L143.733 257.611ZM143.558 261.391L144.525 261.516C144.989 261.577 145.393 261.197 145.362 260.73C145.338 260.376 145.068 260.089 144.716 260.043L143.749 259.917C143.404 259.872 143.074 260.073 142.955 260.401C142.793 260.847 143.086 261.329 143.558 261.391Z" fill="#484747"/>
<path d="M144.282 255.562L144.246 256.681C144.238 256.919 144.412 257.124 144.648 257.155C144.885 257.186 145.106 257.032 145.159 256.8L145.41 255.709C145.486 255.38 145.262 255.057 144.927 255.013C144.592 254.97 144.293 255.224 144.282 255.562Z" fill="#1E1D1D"/>
<path d="M175.874 147.579C178.674 146.179 172.374 143.329 169.624 141.829C167.374 141.162 162.424 139.629 159.624 143.829C156.124 149.079 152.781 180.366 155.374 174.079C165.374 149.829 172.374 149.329 175.874 147.579Z" fill="#101848"/>
<path d="M122.702 147.579C119.902 146.179 126.202 143.329 128.952 141.829C131.202 141.162 136.152 139.629 138.952 143.829C142.452 149.079 145.794 180.366 143.202 174.079C133.202 149.829 126.202 149.329 122.702 147.579Z" fill="#101848"/>
<path d="M121.875 223.375C121.875 230.705 121.581 236.084 120.408 242.858L120.345 243.223L116.406 242.527C117.54 236.096 117.853 230.991 117.874 224.131L117.875 223.375H121.875Z" fill="#35373A"/>
<path d="M118.75 224.625H120.75L120.758 226.08C120.803 231.986 120.58 235.874 119.542 241.846L119.485 242.174L117.515 241.826C118.539 236.026 118.785 232.278 118.762 226.731L118.75 224.79L118.75 224.625Z" fill="#474A4F"/>
<path d="M120.452 222.753L119.139 222.727C118.785 222.72 118.453 222.901 118.268 223.203L117.889 223.818C117.73 224.077 117.697 224.394 117.8 224.68L118.77 227.386C118.91 227.776 119.277 228.04 119.692 228.048L119.828 228.051C120.25 228.059 120.632 227.801 120.782 227.405L121.781 224.774C121.891 224.483 121.86 224.157 121.696 223.893L121.283 223.226C121.104 222.938 120.792 222.76 120.452 222.753Z" fill="#51545A"/>
<path fill-rule="evenodd" clip-rule="evenodd" d="M120.809 225.153L118.74 225.112L118.531 226.548L117.955 229.934C117.776 230.985 118.574 231.949 119.64 231.97C120.705 231.991 121.54 231.059 121.403 230.002L120.96 226.596L120.809 225.153ZM118.934 226.946L119.149 225.629L120.479 225.655L120.632 226.979L118.934 226.946ZM119.173 230.722L120.148 230.741C120.617 230.751 120.977 230.329 120.894 229.868C120.832 229.519 120.532 229.263 120.178 229.256L119.203 229.237C118.854 229.23 118.548 229.466 118.466 229.804C118.354 230.266 118.698 230.713 119.173 230.722Z" fill="#5E6167"/>
<path d="M119.255 224.85L119.341 225.966C119.359 226.204 119.555 226.388 119.793 226.393C120.031 226.398 120.234 226.221 120.262 225.984L120.392 224.872C120.431 224.537 120.173 224.241 119.836 224.234C119.498 224.227 119.228 224.513 119.255 224.85Z" fill="#696B70"/>
<path d="M119.978 230.375H119.375C119.099 230.375 118.875 230.599 118.869 230.875C118.85 231.644 118.786 232.694 118.625 233.5C118.431 234.468 118.242 235.188 118.118 235.661L118.113 235.678C118.047 235.93 118.192 236.184 118.441 236.261L119.147 236.478C119.411 236.559 119.689 236.411 119.751 236.141C119.894 235.523 120.048 234.661 120.125 234.125C120.209 233.534 120.389 231.952 120.468 230.896C120.489 230.612 120.262 230.375 119.978 230.375Z" fill="#1B1B1B"/>
<path d="M176.111 223.375H180.111L180.112 224.131C180.133 230.867 180.435 235.91 181.52 242.178L181.581 242.527L177.642 243.223C176.437 236.398 176.122 231.028 176.112 223.766L176.111 223.375Z" fill="#35373A"/>
<path d="M177.237 224.625H179.237L179.232 225.693L179.229 226.096C179.185 231.891 179.401 235.668 180.414 241.5L180.471 241.826L178.502 242.174C177.454 236.236 177.201 232.377 177.225 226.717L177.236 224.788L177.237 224.625Z" fill="#474A4F"/>
<path d="M177.533 222.753L178.847 222.727C179.201 222.72 179.533 222.901 179.718 223.203L180.097 223.818C180.256 224.077 180.289 224.394 180.186 224.68L179.216 227.386C179.076 227.776 178.709 228.04 178.294 228.048L178.158 228.051C177.736 228.059 177.354 227.801 177.204 227.405L176.205 224.774C176.095 224.483 176.126 224.157 176.29 223.893L176.703 223.226C176.882 222.938 177.194 222.76 177.533 222.753Z" fill="#51545A"/>
<path fill-rule="evenodd" clip-rule="evenodd" d="M177.177 225.153L179.247 225.112L179.455 226.548L180.031 229.934C180.21 230.985 179.412 231.949 178.346 231.97C177.281 231.991 176.446 231.059 176.583 230.002L177.026 226.596L177.177 225.153ZM179.052 226.946L178.838 225.629L177.507 225.655L177.355 226.979L179.052 226.946ZM178.813 230.722L177.837 230.741C177.369 230.751 177.009 230.329 177.091 229.868C177.154 229.519 177.454 229.263 177.808 229.256L178.783 229.237C179.131 229.23 179.438 229.466 179.52 229.804C179.632 230.266 179.288 230.713 178.813 230.722Z" fill="#5E6167"/>
<path d="M178.732 224.85L178.645 225.966C178.627 226.204 178.431 226.388 178.193 226.393C177.955 226.398 177.752 226.221 177.724 225.984L177.594 224.872C177.555 224.537 177.813 224.241 178.151 224.234C178.488 224.227 178.758 224.513 178.732 224.85Z" fill="#696B70"/>
<path d="M178.008 230.375H178.611C178.887 230.375 179.111 230.599 179.117 230.875C179.136 231.644 179.2 232.694 179.361 233.5C179.554 234.468 179.744 235.188 179.868 235.661L179.873 235.678C179.939 235.93 179.794 236.184 179.545 236.261L178.839 236.478C178.575 236.559 178.297 236.411 178.235 236.141C178.092 235.523 177.937 234.661 177.861 234.125C177.776 233.534 177.597 231.952 177.518 230.896C177.497 230.612 177.723 230.375 178.008 230.375Z" fill="#1B1B1B"/>
<path d="M186.97 111.503C192.492 111.503 196.97 107.025 196.97 101.503C196.97 95.9797 192.492 91.5027 186.97 91.5027C181.447 91.5027 176.97 95.9797 176.97 101.503C176.97 107.025 181.447 111.503 186.97 111.503Z" fill="#E4CAC1"/>
<path d="M111.97 111.503C106.447 111.503 101.97 107.025 101.97 101.503C101.97 95.9797 106.447 91.5027 111.97 91.5027C117.492 91.5027 121.97 95.9797 121.97 101.503C121.97 107.025 117.492 111.503 111.97 111.503Z" fill="#E4CAC1"/>
<path d="M111.75 76.551C111.75 55.7713 128.595 38.926 149.375 38.926C170.155 38.926 187 55.7713 187 76.551V91.426L188.081 105.296C188.761 114.015 186.98 122.957 180.863 129.207C174.176 136.039 163.581 143.676 149.625 143.676C135.936 143.676 125.259 136.328 118.352 129.599C111.752 123.169 109.806 113.733 110.606 104.553L111.75 91.426V76.551Z" fill="#F4D5CC"/>
<path d="M109.5 72.5512C109.5 62.9262 113.077 57.1762 115.651 55.4263C118.224 53.6762 119.25 55.4263 121.625 64.5002C124 73.5742 115.651 73.8012 114.5 76.8755C113.35 79.9495 112.75 93.5002 112.625 94.7502C112.5 96.0002 112.28 98.2185 111.5 97.7502C110.875 97.3752 111.269 91.9767 111.25 91.5002L110 91.6762C109.334 88.146 109.5 78.8395 109.5 72.5512Z" fill="black"/>
<path d="M188.705 68.882C187.83 62.132 186.704 51.3075 179.329 48.2571C171.954 45.2067 182.579 46.2061 176.125 58.625C169.671 71.0437 184.161 70.1037 184.768 73.5812C185.375 77.0587 185.75 91.125 186 93.5C186.25 95.875 186.834 96.75 187.25 96.75C188.125 96.75 187.606 91.9765 187.625 91.5L189.205 91.757C189.612 87.6447 189.58 75.632 188.705 68.882Z" fill="black"/>
<path d="M148.232 93.7473L151.768 96.1048C150.566 97.9076 149.625 100.614 149.625 102.582C149.625 104.481 150.31 105.278 152.409 105.301L152.5 105.301V109.551C147.864 109.551 145.375 106.751 145.375 102.582C145.375 99.7585 146.55 96.3307 148.144 93.88L148.232 93.7473Z" fill="#EBBAAA"/>
<path d="M168 87.7502C169.657 87.7502 171 89.0934 171 90.7502C171 92.3816 169.698 93.7088 168.076 93.7493L168 93.7502H163.75C162.093 93.7502 160.75 92.4071 160.75 90.7502C160.75 89.1189 162.052 87.7916 163.674 87.7512L163.75 87.7502H168Z" fill="black"/>
<path d="M136.954 119.046C137.43 118.074 138.591 117.66 139.571 118.102L139.719 118.171L139.794 118.205C139.957 118.278 140.153 118.361 140.379 118.452C141.039 118.716 141.802 118.982 142.655 119.231C145.1 119.946 147.751 120.375 150.5 120.375C153.228 120.375 155.638 119.953 157.704 119.256C158.413 119.016 159.024 118.762 159.534 118.513L159.692 118.434C159.853 118.352 159.965 118.29 160.026 118.254L160.056 118.235C160.99 117.645 162.226 117.924 162.816 118.857C163.394 119.773 163.138 120.977 162.249 121.58L162.193 121.617C162.134 121.654 162.045 121.707 161.925 121.775L161.763 121.864C161.621 121.941 161.465 122.021 161.294 122.105C160.632 122.429 159.861 122.749 158.984 123.045C156.518 123.878 153.678 124.375 150.5 124.375C147.343 124.375 144.322 123.886 141.532 123.07C140.553 122.784 139.67 122.476 138.894 122.166L138.721 122.096C138.331 121.937 138.045 121.808 137.87 121.722C136.878 121.236 136.468 120.038 136.954 119.046Z" fill="#C99584"/>
<path d="M136.5 87.7502C138.157 87.7502 139.5 89.0934 139.5 90.7502C139.5 92.3816 138.198 93.7088 136.576 93.7493L136.5 93.7502H131.75C130.093 93.7502 128.75 92.4071 128.75 90.7502C128.75 89.1189 130.052 87.7916 131.674 87.7512L131.75 87.7502H136.5Z" fill="black"/>
<path d="M149.5 60.0513C146.5 60.0513 136.398 58.7433 133.75 58.2468C131.103 57.7505 120.375 57.2503 121.875 65.3753C123.376 73.5003 109.25 73.2505 109.875 67.1255C110.5 61.0005 111.707 54.6254 117.125 47.8754C122.543 41.1254 129.874 34.7505 151.125 34.7505C172.376 34.7505 186.125 45.7505 188 63.7505C188.88 72.1963 172.648 70.5003 174.625 62.8753C176.601 55.2503 162.625 58.2468 162.625 58.2468C162.625 58.2468 152.5 60.0513 149.5 60.0513Z" fill="black"/>
<path d="M142.384 80.7316L141.449 82.6036C141.256 82.9896 140.837 83.2081 140.41 83.1458L130.173 81.6506C130.059 81.6338 129.942 81.6371 129.829 81.6601L123.893 82.8658C123.387 82.9686 123.076 82.3311 123.468 81.9958L128.528 77.6718C128.749 77.4836 129.04 77.4001 129.327 77.4433L141.639 79.2956C142.311 79.3966 142.688 80.1238 142.384 80.7316Z" fill="#393939"/>
<path d="M158.113 80.8103L159.007 82.6023C159.2 82.9888 159.619 83.208 160.047 83.1453L170.017 81.6853C170.132 81.6685 170.248 81.6718 170.362 81.6948L176.111 82.8655C176.616 82.9685 176.928 82.3315 176.536 81.9958L171.636 77.798C171.415 77.609 171.123 77.5253 170.836 77.5685L158.859 79.375C158.188 79.4763 157.81 80.2028 158.113 80.8103Z" fill="#393939"/>
</svg>
