<svg width="300" height="400" viewBox="0 0 300 400" fill="none" xmlns="http://www.w3.org/2000/svg">
<path d="M149.846 274.021C168.259 274.021 183.186 267.64 183.186 259.77C183.186 251.899 168.259 245.519 149.846 245.519C131.434 245.519 116.507 251.899 116.507 259.77C116.507 267.64 131.434 274.021 149.846 274.021Z" fill="#35383E"/>
<path d="M165.386 287.24C169.999 286.964 173.961 290.481 174.237 295.094C174.502 299.532 174.801 303.778 175.157 308.259L175.297 309.994C175.636 314.105 176.436 323.346 176.463 323.665L176.626 325.652C176.967 329.859 177.189 333.158 177.339 336.406L177.349 336.618C177.595 342.07 177.615 347.167 177.382 352.566C177.182 357.183 173.278 360.764 168.661 360.565C164.044 360.365 160.463 356.461 160.662 351.844C160.873 346.955 160.855 342.348 160.631 337.374L160.594 336.595C160.448 333.601 160.23 330.467 159.898 326.417L159.655 323.543C159.385 320.403 158.772 313.282 158.548 310.502C158.151 305.577 157.821 300.947 157.531 296.091C157.256 291.478 160.772 287.515 165.386 287.24Z" fill="#2C2F34"/>
<path d="M126.502 295.094C126.777 290.481 130.74 286.964 135.353 287.24C139.966 287.515 143.482 291.478 143.207 296.091C142.936 300.622 142.631 304.955 142.269 309.515L142.101 311.594C141.896 314.075 141.549 318.122 141.29 321.134L140.952 325.061L140.797 326.939C140.475 330.911 140.266 334.001 140.126 336.985L140.108 337.374C139.883 342.348 139.865 346.954 140.076 351.844C140.275 356.461 136.694 360.365 132.077 360.565C127.46 360.764 123.556 357.183 123.357 352.566C123.133 347.392 123.142 342.495 123.36 337.298L123.39 336.618C123.559 332.877 123.822 329.094 124.251 323.955L125.371 310.845C125.425 310.185 125.473 309.609 125.51 309.153C125.897 304.34 126.219 299.825 126.502 295.094Z" fill="#2C2F34"/>
<path d="M95.6909 374.255C95.6408 368.517 96.4224 365.027 101.41 362.682C106.397 360.34 111.095 355.832 119.723 351.967C119.723 351.967 120.859 351.752 122.708 352.752C124.286 353.605 126.312 355.697 129.365 355.672C132.681 355.642 135.636 354.94 137.471 353.977C138.265 351.805 140.024 351.79 140.024 351.79C140.024 351.79 142.501 356.505 142.543 361.242C142.584 365.977 142.58 373.845 142.58 373.845L95.6909 374.255Z" fill="#DCE1E6"/>
<path d="M117.924 352.314C118.265 352.162 118.665 352.316 118.817 352.657C119.011 353.093 119.15 353.571 119.246 354.092C119.386 354.856 119.417 355.481 119.417 356.587C119.417 357.062 118.943 357.384 118.506 357.222L118.467 357.206L115.17 355.75L115.873 358.3C116.013 358.805 115.551 359.265 115.053 359.135L115.013 359.124L111.702 358.056L111.702 361.052C111.702 361.551 111.184 361.873 110.741 361.666L110.703 361.647L108.454 360.428L108.454 362.677C108.454 363.037 108.173 363.331 107.819 363.352L107.777 363.354C107.417 363.354 107.123 363.073 107.102 362.718L107.101 362.677V359.292C107.101 358.793 107.619 358.471 108.062 358.678L108.1 358.697L110.349 359.916L110.349 357.127C110.349 356.682 110.769 356.363 111.192 356.471L111.233 356.483L114.235 357.451L113.486 354.734C113.338 354.197 113.864 353.727 114.375 353.921L114.412 353.935L118.046 355.541L118.042 355.452C118.022 355.074 117.988 354.754 117.929 354.415L117.915 354.336C117.837 353.915 117.727 353.538 117.58 353.207C117.428 352.866 117.582 352.466 117.924 352.314Z" fill="white"/>
<path d="M141.072 354.285C140.108 355.592 136.635 356.375 135.329 356.567C134.022 356.76 132.622 356.59 133.182 358.752C133.578 360.28 137.386 359.662 138.875 359.65C140.085 359.64 141.783 363.297 142.415 362.055C142.415 357.805 141.613 355.502 141.072 354.285Z" fill="#518C2D"/>
<path d="M97.5778 363.122C99.108 362.567 100.728 362.147 103.835 361.445L102.515 365.245L102.553 369.575L93.7097 369.652C93.3488 369.655 92.704 369.175 93.0118 367.222C93.3965 364.782 95.4035 363.91 97.5778 363.122Z" fill="#EAF4FB"/>
<path d="M112.207 362.344L116.327 370.196L112.491 372.208L108.372 364.356L112.207 362.344Z" fill="#518C2D"/>
<path d="M117.883 359.373L122.82 368.805L118.983 370.814L114.046 361.381L117.883 359.373Z" fill="#518C2D"/>
<path d="M123.45 356.105L130.276 369.4L126.423 371.379L119.597 358.084L123.45 356.105Z" fill="#518C2D"/>
<path d="M142.728 373.107L142.471 368.55L102.82 369.167L92.9332 368.442L92.6312 371.935C92.527 373.142 93.4316 374.2 94.6393 374.282L102.87 374.852L141.664 374.25C142.279 374.24 142.763 373.72 142.728 373.107Z" fill="#C7CBCF"/>
<path d="M204.353 374.255C204.403 368.517 203.621 365.027 198.634 362.682C193.647 360.34 188.949 355.832 180.32 351.967C180.32 351.967 179.185 351.752 177.336 352.752C175.758 353.605 173.732 355.697 170.678 355.672C167.363 355.642 164.408 354.94 162.572 353.977C161.779 351.805 160.02 351.79 160.02 351.79C160.02 351.79 157.542 356.505 157.501 361.242C157.46 365.977 157.464 373.845 157.464 373.845L204.353 374.255Z" fill="#DCE1E6"/>
<path d="M181.227 352.657C181.379 352.316 181.779 352.162 182.12 352.314C182.462 352.466 182.615 352.866 182.463 353.207C182.316 353.538 182.206 353.915 182.129 354.336C182.061 354.705 182.023 355.045 182.002 355.452L181.998 355.541L185.632 353.935C186.142 353.71 186.684 354.162 186.567 354.696L186.558 354.734L185.808 357.451L188.811 356.483C189.234 356.346 189.667 356.648 189.694 357.084L189.695 357.127L189.695 359.916L191.944 358.697C192.382 358.459 192.913 358.761 192.942 359.25L192.943 359.292V362.677C192.943 363.051 192.64 363.354 192.266 363.354C191.907 363.354 191.612 363.073 191.591 362.718L191.59 362.677L191.59 360.428L189.341 361.647C188.902 361.885 188.372 361.583 188.343 361.094L188.341 361.052L188.341 358.056L185.03 359.124C184.531 359.285 184.052 358.842 184.161 358.339L184.17 358.3L184.873 355.75L181.577 357.206C181.143 357.398 180.656 357.095 180.628 356.63L180.627 356.587L180.628 356.209C180.636 355.329 180.675 354.764 180.798 354.092C180.893 353.571 181.033 353.093 181.227 352.657Z" fill="white"/>
<path d="M158.972 354.285C159.935 355.592 163.408 356.375 164.715 356.567C166.022 356.76 167.422 356.59 166.862 358.752C166.465 360.28 162.658 359.662 161.169 359.65C159.959 359.64 158.261 363.297 157.629 362.055C157.629 357.805 158.431 355.502 158.972 354.285Z" fill="#518C2D"/>
<path d="M202.466 363.122C200.936 362.567 199.315 362.147 196.208 361.445L197.529 365.245L197.491 369.575L206.334 369.652C206.695 369.655 207.34 369.175 207.032 367.222C206.647 364.782 204.64 363.91 202.466 363.122Z" fill="#EAF4FB"/>
<path d="M187.837 362.344L191.672 364.356L187.552 372.208L183.717 370.196L187.837 362.344Z" fill="#518C2D"/>
<path d="M182.16 359.373L185.998 361.381L181.061 370.814L177.224 368.805L182.16 359.373Z" fill="#518C2D"/>
<path d="M176.594 356.105L180.447 358.084L173.621 371.379L169.768 369.4L176.594 356.105Z" fill="#518C2D"/>
<path d="M157.316 373.107L157.573 368.55L197.224 369.167L207.111 368.442L207.413 371.935C207.517 373.142 206.612 374.2 205.404 374.282L197.174 374.852L158.38 374.25C157.765 374.24 157.281 373.72 157.316 373.107Z" fill="#C7CBCF"/>
<path d="M113.282 229.307H153.638L146.796 302.26L141.784 345.027C141.784 345.027 136.249 346.19 131.673 346.06C127.097 345.93 121.911 345.027 121.911 345.027L114.589 306.445V261.282L111.539 257.749L113.282 229.307Z" fill="#35383E"/>
<path d="M187.457 229.307H147.101L153.943 302.26L158.955 345.027C158.955 345.027 164.489 346.19 169.065 346.06C173.641 345.93 178.828 345.027 178.828 345.027L186.149 306.445V261.282L189.2 257.749L187.457 229.307Z" fill="#35383E"/>
<path d="M122.66 346.297C121.504 345.822 121.04 342.542 120.952 340.96C131.357 342.027 139.373 341.217 142.263 340.775C142.263 343.257 142.263 344 141.875 345.75C136.548 347.342 124.105 346.89 122.66 346.297Z" fill="#3E4A57"/>
<path d="M159 345.25C158.594 344.125 158.432 342.467 158.344 340.885C168.749 341.952 176.765 341.145 179.655 340.7C179.655 343.182 180.022 344.23 178.445 346.035C173.118 347.627 160.445 345.842 159 345.25Z" fill="#3E4A57"/>
<path d="M149.528 169.075C159.49 169.075 167.566 161 167.566 151.038C167.566 141.076 159.49 133 149.528 133C139.566 133 131.491 141.076 131.491 151.038C131.491 161 139.566 169.075 149.528 169.075Z" fill="#E9E4E0"/>
<path d="M191.873 159.54C185.828 145.964 175.948 146.988 171.75 147.503L179.586 194.558L180.816 261.353C217.815 251.382 210.615 201.632 191.873 159.54Z" fill="#454B5E"/>
<path d="M107.451 159.54C113.496 145.964 123.376 146.988 127.574 147.503L119.738 194.558V261.019C80.8599 251.382 88.7091 201.632 107.451 159.54Z" fill="#454B5E"/>
<path d="M119.542 148.891C120.582 141.331 126.922 135.787 134.555 135.703L151.8 135.512L167.69 137.186C174.955 137.951 180.849 143.594 181.805 150.858C183.89 166.688 187.127 194.379 187.127 213.736C187.127 242.292 191.667 245.024 184.637 248.765C177.607 252.507 121.366 251.98 113.687 246.179C106.008 240.378 110.783 234.335 110.783 222.491C110.783 213.765 116.521 170.873 119.542 148.891Z" fill="white"/>
<path d="M109.75 190.25C109.75 186.77 102.5 160.25 117 145.75L140.5 137.75C138.515 141.734 125.5 155.75 130.72 185.25C131.82 191.463 128.22 208.85 130.72 225C137.082 266.096 130.72 256.562 130.72 259.5C118.002 264.579 121.115 255.966 109.75 247.75C103.773 243.429 109.75 202.201 109.75 190.25Z" fill="#343844"/>
<path d="M116.67 146.166C119.864 147.789 123.235 151.54 125.475 156.643C128.338 163.169 129.249 171.42 127.669 181.262L127.62 181.561C125.99 191.432 125.789 202.38 126.742 213.581L126.795 214.183C127.543 222.601 128.922 230.692 130.364 236.159C131.29 239.866 131.871 244.457 131.737 248.363C131.564 253.443 130.243 257.118 127.528 258.771L127.44 258.824L127.06 258.177C129.555 256.714 130.82 253.241 130.988 248.337C131.119 244.507 130.547 239.984 129.637 236.346C128.151 230.71 126.733 222.32 125.995 213.644C125.05 202.544 125.233 191.687 126.811 181.86L126.88 181.439C128.504 171.604 127.62 163.399 124.788 156.944C122.641 152.053 119.439 148.461 116.437 146.89L116.33 146.834L116.67 146.166Z" fill="#70778D"/>
<path d="M188.5 192.75C184.859 181.58 196.75 160.25 182.25 145.75L158.75 137.75C160.734 141.734 173.75 155.75 168.53 185.25C167.43 191.463 171.03 208.85 168.53 225C162.168 266.096 168.529 256.562 168.529 259.5C181.248 264.579 177.135 258.466 188.5 250.25C194.477 245.929 194.53 211.25 188.5 192.75Z" fill="#343844"/>
<path d="M182.461 147.166L182.801 147.834C179.768 149.376 176.516 152.994 174.344 157.944C171.54 164.334 170.645 172.44 172.203 182.144L172.251 182.439C173.892 192.377 174.094 203.386 173.136 214.644L173.084 215.242C172.333 223.704 170.946 231.839 169.495 237.341C168.584 240.984 168.013 245.507 168.144 249.337C168.309 254.187 169.548 257.637 171.989 259.128L172.071 259.177L171.692 259.824C168.916 258.197 167.57 254.498 167.394 249.363C167.261 245.457 167.841 240.866 168.769 237.154L168.87 236.764C170.308 231.177 171.671 223.015 172.389 214.581C173.329 203.538 173.147 192.74 171.579 182.979L171.511 182.561C169.864 172.587 170.764 164.235 173.657 157.643C175.87 152.598 179.19 148.875 182.351 147.223L182.461 147.166Z" fill="#70778D"/>
<path d="M133 254.257C127.4 254.657 117.5 252.882 111.75 250.882V259.382C115 261.882 123.375 261.632 128 261.632C133.75 261.632 143 263.382 153 261.882L152.5 254.257C149 255.007 138.6 253.857 133 254.257Z" fill="#42506A"/>
<path d="M167.75 255.382C173.35 255.782 184.25 255.257 189 251.382L189.5 260.132C184.5 261.382 177.625 262.382 175.75 262.382C167.653 262.382 160.75 263.632 150.75 262.132V253.757C154.25 254.507 162.15 254.982 167.75 255.382Z" fill="#42506A"/>
<rect x="136.823" y="133.975" width="24.5774" height="32.1183" rx="12.2887" transform="rotate(-1 136.823 133.975)" fill="#EBBAAA"/>
<path d="M112.448 113.043C120.289 113.043 126.645 107.013 126.645 99.5761C126.645 92.1388 120.289 86.1096 112.448 86.1096C104.607 86.1096 98.2505 92.1388 98.2505 99.5761C98.2505 107.013 104.607 113.043 112.448 113.043Z" fill="#EBBAAA"/>
<path d="M186.115 114.086C193.956 114.086 200.312 108.057 200.312 100.62C200.312 93.1825 193.956 87.1533 186.115 87.1533C178.274 87.1533 171.918 93.1825 171.918 100.62C171.918 108.057 178.274 114.086 186.115 114.086Z" fill="#EBBAAA"/>
<path d="M108.826 87.4567C106.361 64.2787 124.196 43.9282 147.497 43.3325C170.956 42.7326 189.868 62.4015 188.348 85.8187L187.844 93.5972L186.605 110.172C185.137 129.801 168.783 144.979 149.099 144.979C130.126 144.979 114.124 130.848 111.777 112.021L109.48 93.5972L108.826 87.4567Z" fill="#EED4CC"/>
<path d="M127.577 93.7593C129.667 92.7143 132.958 92.4779 136.056 93.6529C137.412 94.1671 138.094 95.6827 137.58 97.0382C137.074 98.3711 135.6 99.0529 134.262 98.5863L134.194 98.5616C133.246 98.202 132.291 98.0759 131.382 98.1412C131.02 98.1672 130.681 98.2233 130.385 98.3001C130.187 98.3513 130.031 98.4061 129.947 98.4443L129.924 98.4553C128.627 99.1035 127.051 98.5777 126.402 97.2809C125.754 95.9842 126.28 94.4075 127.577 93.7593Z" fill="black"/>
<path d="M159.327 94.0093C161.417 92.9643 164.708 92.7279 167.806 93.9029C169.162 94.4171 169.844 95.9327 169.33 97.2882C168.824 98.6211 167.35 99.3029 166.012 98.8363L165.944 98.8116C164.996 98.452 164.041 98.3259 163.132 98.3912C162.77 98.4172 162.431 98.4733 162.135 98.5501C161.937 98.6013 161.781 98.6561 161.697 98.6943L161.674 98.7053C160.377 99.3535 158.801 98.8277 158.152 97.5309C157.504 96.2342 158.03 94.6575 159.327 94.0093Z" fill="black"/>
<path d="M143.76 93.8902C144.452 90.7907 142.197 87.8105 139.026 87.6345L120.759 86.6207C117.448 86.4367 114.831 89.3887 115.411 92.6537L116.844 100.728C117.28 103.183 119.414 104.971 121.907 104.971H137.163C139.571 104.971 141.657 103.3 142.182 100.95L143.76 93.8902Z" fill="white" fill-opacity="0.29"/>
<path d="M178.082 92.2763C178.517 89.0406 175.866 86.2236 172.61 86.4618L154.466 87.7893C151.211 88.0273 148.999 91.1973 149.898 94.3343L151.934 101.443C152.566 103.649 154.583 105.169 156.878 105.169H171.85C174.425 105.169 176.603 103.265 176.947 100.713L178.082 92.2763Z" fill="white" fill-opacity="0.29"/>
<path fill-rule="evenodd" clip-rule="evenodd" d="M154.75 87.8181L154.75 87.818L154.75 87.8165L154.75 87.8166L154.75 87.8181ZM154.757 86.6611L154.75 87.8166L154.888 88.9669C154.868 88.9693 154.847 88.9722 154.824 88.9756L154.743 88.9751L154.75 87.818L154.613 86.6695L154.613 86.6694L154.75 87.8165L154.757 86.6611L154.757 86.6611ZM173.434 87.9305L173.441 86.7724L154.757 86.6611L154.757 86.6611V86.6611L154.685 86.6606L154.613 86.6694L154.613 86.6695C154.157 86.724 153.477 86.8865 152.783 87.1982C152.092 87.5082 151.298 88.0069 150.724 88.7867L152.588 90.1582C152.843 89.8109 153.253 89.5237 153.731 89.3089C154.165 89.1139 154.581 89.0125 154.824 88.9756L173.357 89.086C173.594 89.1274 174.503 89.409 175.396 90.3933L177.11 88.8391C175.805 87.3996 174.321 86.8526 173.545 86.7776L173.493 86.7727L173.441 86.7725L173.434 87.9294V87.9295L173.434 87.9305ZM173.434 87.9294L173.545 86.7776L173.545 86.7777L173.434 87.9294ZM173.434 87.9305L173.427 89.0864L173.357 89.086C173.343 89.0836 173.332 89.082 173.323 89.0811L173.434 87.9305ZM177.764 92.7072L176.607 92.6952L176.607 92.6951L177.764 92.7071L177.764 92.7072ZM177.764 92.7071L177.764 92.7071L176.643 92.4204L176.643 92.4204L177.764 92.7071ZM178.92 92.8205C178.969 92.4953 178.926 92.1789 178.872 91.9336C178.802 91.6179 178.684 91.2846 178.531 90.9521C178.226 90.2856 177.748 89.5426 177.11 88.8391L175.396 90.3934C175.882 90.9299 176.226 91.4756 176.428 91.9164C176.529 92.1374 176.586 92.3121 176.612 92.4304C176.618 92.4588 176.622 92.4805 176.624 92.4962L176.609 92.5557L176.607 92.6951H176.607L176.577 95.6491L178.891 95.6731L178.92 92.8205ZM178.92 92.8205L178.921 92.7191L177.764 92.7071L178.885 92.9939C178.9 92.936 178.912 92.8781 178.92 92.8205ZM176.624 92.4962C176.627 92.5179 176.627 92.5281 176.627 92.528C176.627 92.528 176.626 92.4884 176.643 92.4204L176.643 92.4204L176.624 92.4962ZM178.891 95.6732C178.884 96.3122 178.361 96.8247 177.722 96.8182C177.083 96.8114 176.57 96.2882 176.577 95.6492L178.891 95.6732ZM151.891 91.7728L150.742 91.9098L150.743 91.9099L150.743 91.91L149.589 91.8281L149.582 91.9146C149.544 91.1996 149.819 90.0172 150.724 88.7866L152.588 90.1581C152.251 90.6159 152.071 91.0216 151.98 91.3226C151.901 91.5805 151.894 91.7348 151.893 91.7697C151.892 91.7786 151.892 91.7797 151.891 91.7729L151.891 91.7729L151.891 91.7728ZM149.582 91.9146L149.333 95.4304L151.641 95.5941L151.897 91.9919L150.743 91.91L149.594 92.0471C149.589 92.005 149.585 91.9607 149.582 91.9146ZM151.891 91.7729L150.743 91.9099L151.897 91.9918L151.904 91.8821L151.891 91.7729ZM151.641 95.5942C151.596 96.2317 151.043 96.7117 150.405 96.6664C149.768 96.6212 149.288 96.0679 149.333 95.4304L151.641 95.5942Z" fill="#6D513C"/>
<path fill-rule="evenodd" clip-rule="evenodd" d="M139.156 87.7105L139.156 87.7084L139.156 87.7095L139.019 88.8595C139.038 88.8618 139.059 88.8646 139.081 88.868L120.55 88.9783C120.563 88.9759 120.575 88.9743 120.584 88.9734L120.473 87.8223L120.473 87.8213L120.473 87.8218L120.471 87.4463L120.466 86.6647L139.149 86.5535L139.156 87.7105ZM118.511 90.2856C119.403 89.3015 120.313 89.0198 120.55 88.9783L120.48 88.9787L120.473 87.8223L120.362 86.6699C119.585 86.7449 118.102 87.2919 116.797 88.7314L116.797 88.7315C116.159 89.4352 115.681 90.1782 115.376 90.8444C115.223 91.1769 115.104 91.5102 115.035 91.8259C114.981 92.0711 114.938 92.3873 114.987 92.7124L115.016 95.5654L117.33 95.5414L117.3 92.5877L117.3 92.5877L117.298 92.448L117.283 92.3886C117.285 92.3729 117.289 92.3511 117.295 92.3227C117.321 92.2047 117.378 92.0297 117.479 91.8087C117.681 91.3682 118.024 90.8224 118.511 90.2857L118.511 90.2856ZM117.264 92.3128C117.281 92.3808 117.28 92.4204 117.28 92.4205C117.279 92.4205 117.28 92.4103 117.283 92.3886L117.264 92.3127L117.264 92.3128ZM116.694 92.4584L117.264 92.3128L117.263 92.3127L116.694 92.4584ZM116.143 92.5995L116.694 92.4584L116.143 92.5995L116.143 92.5995ZM116.393 92.5969L116.143 92.5995L116.143 92.5995L114.986 92.6114L114.987 92.7124C114.995 92.7702 115.007 92.8284 115.022 92.8864L116.143 92.5995L116.393 92.5969ZM116.393 92.5969L117.3 92.5877L117.3 92.5876L116.393 92.5969ZM118.511 90.2856L118.511 90.2857L116.797 88.7315L116.797 88.7314L118.511 90.2856ZM142.015 91.6697C142.014 91.6699 142.014 91.6674 142.014 91.6621C142.013 91.6272 142.006 91.4729 141.927 91.215C141.835 90.914 141.656 90.5082 141.319 90.0505L141.319 90.0505C141.064 89.7035 140.654 89.416 140.176 89.2013C139.741 89.0059 139.325 88.9045 139.081 88.868L139.163 88.8675L139.156 87.7095L139.294 86.5618C139.75 86.6163 140.43 86.7788 141.124 87.0905C141.815 87.4008 142.609 87.8995 143.183 88.679L143.183 88.679C144.088 89.9097 144.363 91.0924 144.324 91.8073L144.318 91.7205L143.164 91.8023L142.316 91.7011L143.164 91.8024L142.488 91.8503L142.01 91.8842L142.002 91.7744L142.015 91.6697ZM142.015 91.6697L142.015 91.6652L142.015 91.6652C142.015 91.6661 142.015 91.6669 142.015 91.6675C142.015 91.6688 142.015 91.6696 142.015 91.6697ZM142.266 95.4867L142.01 91.8842L142.488 91.8503L143.164 91.8024L143.164 91.8024L143.164 91.8023L144.313 91.9395C144.318 91.8974 144.322 91.8533 144.324 91.8073L144.574 95.323L144.574 95.323C144.619 95.9602 144.139 96.5137 143.502 96.559C142.864 96.6042 142.311 96.124 142.266 95.4867L142.266 95.4867ZM139.156 87.7084L139.293 86.5617L139.222 86.5532L139.15 86.5535L139.156 87.7084ZM120.466 86.6648L120.471 87.4463L120.473 87.8213L120.362 86.67L120.414 86.665L120.466 86.6648ZM115.016 95.5655C115.023 96.2045 115.546 96.7173 116.185 96.7105C116.824 96.704 117.337 96.1805 117.33 95.5415L115.016 95.5655Z" fill="#6D513C"/>
<path d="M143.035 92.6491C145.507 91.2647 148.531 91.5104 150.612 92.591L150.705 92.6399L149.608 94.6773C148.189 93.9132 145.979 93.705 144.259 94.6173L144.165 94.6681L143.035 92.6491Z" fill="#6D513C"/>
<path d="M175.487 61.4966C174.69 54.8078 173.971 50.0051 173.44 45.5458C173.063 42.3874 173.024 41.5817 182.003 48.2001C190.982 54.8183 192.328 69.3386 189.886 81.6803L187.186 96.3358L184.414 95.6506L184.486 77.0521C179.962 72.4981 176.284 68.1853 175.487 61.4966Z" fill="#F8BCC4"/>
<path d="M114.734 68.6316C115.105 61.9064 114.347 62.2526 114.595 57.7691C114.77 54.5934 115.864 55.2881 110.195 61.1114C107.066 64.3254 108.244 78.1341 108.91 87.1651L109.701 95.4886L110.966 95.5584L111.537 85.2049C113.772 78.0306 114.363 75.3566 114.734 68.6316Z" fill="#F8BCC4"/>
<path d="M147.867 59.3695C128.904 59.3695 113.742 59.3172 112.96 73.2767C109.761 77.8165 107.758 77.3112 107.011 69.0495C104.619 42.5907 122.598 32.3337 140.851 38.2552C140.851 38.2552 166.833 59.3695 147.867 59.3695Z" fill="#E7939E"/>
<path d="M147.217 59.274C167.595 59.274 183.889 59.222 184.729 73.1528C188.167 77.683 190.32 77.179 191.122 68.9343C193.693 42.5297 157.032 13.6728 124.25 39.0793C124.25 39.0793 126.837 59.274 147.217 59.274Z" fill="#E7939E"/>
<path d="M182.594 73.6145C183.25 64.9497 187.684 63.4225 186.457 59.9935L147.204 48.4972L144.828 41.4994L126.195 39.75C126.195 39.75 119.942 61.8682 136.608 63.7615C153.273 65.6547 148.296 69.743 152.696 74.6165C152.696 68.6585 155.252 68.7933 157.505 67.5763C157.177 73.2095 168.825 75.5 174.35 75.5C169.171 73.2095 168.33 69.04 170.786 67.0082C178.342 67.5763 176.964 66.0317 182.594 73.6145Z" fill="#E7939E"/>
<path d="M155.122 79.6448L169.054 77.6853C169.207 77.6638 169.362 77.711 169.477 77.8145L174.181 82.053C174.538 82.3753 174.307 82.9688 173.826 82.9645L167.123 82.9065L155.246 83.9773C154.612 84.0343 154.075 83.5173 154.107 82.882L154.223 80.627C154.248 80.1265 154.625 79.7145 155.122 79.6448Z" fill="#E7939E"/>
<path d="M138.872 79.9642L125.134 77.5317C124.981 77.5047 124.823 77.5469 124.705 77.6474L119.892 81.7177C119.525 82.0282 119.735 82.6274 120.216 82.6399L126.862 82.8114L138.594 84.2867C139.225 84.3659 139.78 83.8687 139.77 83.2327L139.735 80.9779C139.728 80.4769 139.366 80.0517 138.872 79.9642Z" fill="#E7939E"/>
<path d="M144.103 95.125L148.507 95.7296C148.412 96.4231 148.16 97.168 147.715 98.2192L147.626 98.4277C147.354 99.0536 146.523 100.892 146.391 101.191L146.241 101.534C145.829 102.484 145.514 103.279 145.26 104.032C144.565 106.092 144.44 107.567 144.834 108.392C145.251 109.263 146.539 109.851 149.317 109.869L149.446 109.869V114.314C145.04 114.314 142.11 113.001 140.824 110.309C139.804 108.175 140.016 105.669 141.048 102.61C141.363 101.677 141.742 100.727 142.235 99.5996L142.41 99.2034C142.678 98.6055 143.356 97.1042 143.558 96.6362L143.696 96.3092C143.81 96.0342 143.899 95.8018 143.968 95.6034L144.005 95.4925C144.05 95.3522 144.08 95.2433 144.095 95.1717L144.103 95.125Z" fill="#EBBAAA"/>
<path d="M135.464 28.0194L130.419 34.9611L160.816 41.137L190.147 62.6088L192.562 56.0763L190.578 54.2358L191.45 51.7108L188.472 50.6828L189.819 46.7806L185.989 45.4588L186.168 42.181L182.765 41.0061L181.774 37.3245L177.946 37.0311L177.517 34.8276L173.9 33.5793L174.613 31.5134L169.007 31.8904L168.444 29.3839L165.603 30.7156L164.189 27.9154L159.434 28.5861L157.594 25.6391L154.115 26.7504L152.201 26.0895L149.44 27.1916L149.222 25.0615L144.259 27.7155L142.236 25.9896L137.606 29.401L135.464 28.0194Z" fill="#E7939E"/>
<path d="M159.42 117.323C160.474 117.191 161.437 117.921 161.601 118.964L161.61 119.025C161.692 119.679 162.095 120.638 162.623 121.161L162.683 121.217C163.484 121.945 163.543 123.186 162.815 123.987C162.086 124.789 160.846 124.848 160.044 124.119C158.704 122.901 157.909 121.042 157.718 119.512C157.583 118.437 158.346 117.457 159.42 117.323Z" fill="#C99584"/>
<path d="M135.102 119.775C135.689 118.864 136.902 118.602 137.813 119.189C139.126 120.035 140.203 120.598 141.63 121.092C143.587 121.769 145.852 122.144 148.551 122.144C151.26 122.144 153.641 121.715 155.695 120.971C157.078 120.469 158.178 119.876 158.928 119.329L159.01 119.268C159.877 118.618 161.106 118.794 161.756 119.661C162.406 120.527 162.23 121.756 161.363 122.406C160.308 123.198 158.837 124.004 157.031 124.658C154.555 125.556 151.722 126.067 148.551 126.067C145.419 126.067 142.72 125.619 140.347 124.799C138.581 124.188 137.243 123.487 135.688 122.486C134.778 121.899 134.515 120.685 135.102 119.775Z" fill="#C99584"/>
</svg>
