<svg width="300" height="400" viewBox="0 0 300 400" fill="none" xmlns="http://www.w3.org/2000/svg">
<path d="M149.777 244.75H118.527L119.777 333.25L122.456 347H139.456L141.027 335.75L149.777 244.75Z" fill="black"/>
<path d="M149.277 244.75H180.527L179.277 333.25L176.598 347H159.598L158.027 335.75L149.277 244.75Z" fill="black"/>
<path fill-rule="evenodd" clip-rule="evenodd" d="M190.402 321.44L184.028 251.737V321.44H190.402Z" fill="#BB462F"/>
<mask id="mask0_0_9187" style="mask-type:luminance" maskUnits="userSpaceOnUse" x="184" y="251" width="7" height="71">
<path fill-rule="evenodd" clip-rule="evenodd" d="M190.402 321.44L184.028 251.737V321.44H190.402Z" fill="white"/>
</mask>
<g mask="url(#mask0_0_9187)">
</g>
<path fill-rule="evenodd" clip-rule="evenodd" d="M187.825 327.5L185.113 253.926H177.247L183.078 333.393L187.825 327.5Z" fill="#BB462F"/>
<mask id="mask1_0_9187" style="mask-type:luminance" maskUnits="userSpaceOnUse" x="177" y="253" width="11" height="81">
<path fill-rule="evenodd" clip-rule="evenodd" d="M187.825 327.5L185.113 253.926H177.247L183.078 333.393L187.825 327.5Z" fill="white"/>
</mask>
<g mask="url(#mask1_0_9187)">
</g>
<path fill-rule="evenodd" clip-rule="evenodd" d="M105.777 294.165L113.914 248.875L123 250.727L115.134 315.21L105.777 294.165Z" fill="#BB462F"/>
<mask id="mask2_0_9187" style="mask-type:luminance" maskUnits="userSpaceOnUse" x="105" y="248" width="19" height="68">
<path fill-rule="evenodd" clip-rule="evenodd" d="M105.777 294.165L113.914 248.875L123 250.727L115.134 315.21L105.777 294.165Z" fill="white"/>
</mask>
<g mask="url(#mask2_0_9187)">
</g>
<mask id="mask3_0_9187" style="mask-type:luminance" maskUnits="userSpaceOnUse" x="109" y="250" width="38" height="103">
<path fill-rule="evenodd" clip-rule="evenodd" d="M109.71 295.008L113.507 250.727H142.936C143.026 259.987 143.153 279.045 142.936 281.2C142.719 283.355 145.015 297.7 146.191 304.603H140.902L125.984 326.828L128.56 330.53L113.507 352.25L109.71 295.008Z" fill="white"/>
</mask>
<g mask="url(#mask3_0_9187)">
<rect x="22.6436" y="236.584" width="157.316" height="146.476" fill="#EA5E42"/>
</g>
<mask id="mask4_0_9187" style="mask-type:luminance" maskUnits="userSpaceOnUse" x="148" y="250" width="38" height="100">
<path fill-rule="evenodd" clip-rule="evenodd" d="M148.225 291.64L154.328 250.727L180.637 256.452L185.926 333.058L180.637 349.725L175.891 315.883L162.193 304.435L160.566 296.018L148.225 291.64Z" fill="white"/>
</mask>
<g mask="url(#mask4_0_9187)">
<rect x="135.027" y="249" width="135.888" height="126.609" fill="#EA5E42"/>
</g>
<path d="M125.601 346.788C124.685 345.375 123.326 345.305 122.225 344.495C121.685 345.265 121.725 346.393 121.236 347.9L118.057 351.825L112.531 357.745L107.264 360.6L110.441 364.265C112.568 362.605 124.642 349.75 125.601 346.788Z" fill="#010101"/>
<path d="M144.268 366.187C144.268 366.187 144.387 359.767 142.99 356.225C141.594 352.682 140.107 343.527 140.107 343.527C140.107 343.527 137.707 346.145 133.195 346.185L124.693 346.26C124.693 346.26 117.29 356.592 115.115 357.98C112.939 359.365 100.616 362.055 100.616 362.055C98.2752 362.077 96.3942 363.99 96.4147 366.332L96.4335 368.487L122.136 368.262L144.268 366.187Z" fill="black"/>
<path d="M118.294 361.275C117.257 359.2 116.659 357.19 116.875 356.243L111.97 358.695L101.257 362.18C101.257 361.92 99.9409 362.103 98.2889 362.825C96.6368 363.548 96.3958 365.45 96.4819 366.31L120.359 367.213L123.199 367.085C121.779 366.438 119.714 364.115 118.294 361.275Z" fill="#1C1622"/>
<path d="M133.653 356.5C130.659 357.222 124.404 353.963 121.65 352.243L124.652 346.25C127.535 346.25 133.669 346.185 135.527 345.875C137.386 345.565 139.421 344.145 140.152 343.5L140.881 347.595L141.913 352.627C140.408 353.617 136.648 355.778 133.653 356.5Z" fill="black"/>
<path d="M121.902 351.855C122.539 350.86 123.837 348.713 123.935 348.093C129.88 349.075 137.881 348.875 140.838 347.558C141.633 349.875 142.04 353.015 142.04 353.015C141.533 354.053 135.842 356.095 133.651 356.5C132.481 355.608 131.613 355.383 130.705 354.875C129.281 354.078 124.528 352.003 121.902 351.855Z" fill="#2C407F"/>
<path d="M134.712 361.018C135.637 360.488 140.881 358.18 143.305 357.183C144.476 358.02 144.329 363.065 144.354 365.973L132.725 366.603C133.367 364.395 134.404 361.325 134.712 361.018Z" fill="#192D6A"/>
<path d="M129.083 360.613C127.87 360.94 126.896 360.888 126.347 360.458C124.935 359.333 125.862 357.643 126.254 356.978C125.551 357.788 124.853 358.6 124.305 359.488C123.441 360.875 123.066 362.4 123.631 363.383C124.643 365.158 127.123 364.36 128.706 363.66L143.391 357.168L129.083 360.613Z" fill="#2C407F"/>
<path d="M107.155 362.825C103.931 363.24 99.8025 363.405 99.0191 362.38L104.297 360.785L111.243 358.013L113.058 358.903L112.806 359.678C112.806 359.678 114.939 362.053 114.81 363.083C114.681 364.115 113.593 364.633 112.358 364.245C111.122 363.858 110.432 362.403 107.155 362.825Z" fill="#2C407F"/>
<path d="M123.457 350.95C122.115 352.81 118.509 356.63 116.874 358.308L116.358 356.5C117.391 355.34 119.107 352.925 120.527 351.375C122.012 349.755 123.5 347.94 124.618 346.305H126.038C125.823 347.25 124.799 349.093 123.457 350.95Z" fill="#1C1622"/>
<path d="M122.758 348.17L121.386 347.635C120.977 347.475 120.517 347.677 120.357 348.086C120.198 348.495 120.4 348.956 120.809 349.115L122.181 349.65C122.589 349.809 123.05 349.607 123.21 349.198C123.369 348.79 123.167 348.329 122.758 348.17Z" fill="#2B2A2A"/>
<path d="M120.713 350.512L119.341 349.977C118.932 349.818 118.472 350.02 118.312 350.429C118.153 350.838 118.355 351.298 118.764 351.458L120.136 351.993C120.545 352.152 121.005 351.95 121.165 351.541C121.324 351.132 121.122 350.672 120.713 350.512Z" fill="#2B2A2A"/>
<path d="M118.927 352.85L117.555 352.315C117.146 352.155 116.685 352.358 116.526 352.766C116.366 353.175 116.568 353.636 116.977 353.795L118.349 354.33C118.758 354.49 119.219 354.287 119.378 353.879C119.537 353.47 119.335 353.009 118.927 352.85Z" fill="#2B2A2A"/>
<path d="M116.882 355.193L115.51 354.658C115.101 354.498 114.641 354.7 114.481 355.109C114.322 355.518 114.524 355.979 114.933 356.138L116.305 356.673C116.714 356.832 117.174 356.63 117.334 356.221C117.493 355.813 117.291 355.352 116.882 355.193Z" fill="#2B2A2A"/>
<path d="M113.805 357.542L112.433 357.007C112.024 356.848 111.563 357.05 111.404 357.459C111.244 357.867 111.447 358.328 111.855 358.488L113.227 359.023C113.636 359.182 114.097 358.98 114.256 358.571C114.416 358.162 114.213 357.702 113.805 357.542Z" fill="#2B2A2A"/>
<path d="M144.579 365.917L120.39 367.222L96.3179 366.34L95.9596 369.545C95.8561 370.47 96.5675 371.287 97.4986 371.31L119.928 371.875L132.417 371.902L144.9 371.385L144.579 365.917Z" fill="#E7E5DD"/>
<path d="M144.787 371.145C140.942 371.308 131.283 371.778 127.071 371.815C124.048 371.843 98.338 371.433 95.75 370.68" stroke="#536E83" stroke-width="1.5"/>
<path d="M135.461 352.63C133.809 352.525 132.966 351.812 132.75 351.467C132.578 352.37 132.88 354.202 135.461 354.307C138.042 354.41 138.774 352.457 138.817 351.467C138.386 351.897 137.113 352.732 135.461 352.63Z" fill="black"/>
<path d="M133.783 351.338C133.68 352.06 133.998 352.758 134.17 353.015C135.719 354.178 137.397 353.015 137.397 351.855C137.397 350.693 136.622 350.435 135.848 350.435C135.074 350.435 133.912 350.435 133.783 351.338Z" fill="black"/>
<path d="M173.578 346.943C174.466 345.52 175.819 345.425 176.901 344.598C177.453 345.358 177.432 346.48 177.945 347.975L181.181 351.828L186.789 357.63L192.086 360.385L188.985 364.09C186.836 362.473 174.584 349.875 173.578 346.943Z" fill="#010101"/>
<path d="M155.317 366.592C155.317 366.592 155.087 360.2 156.417 356.645C157.747 353.092 159.069 343.945 159.069 343.945C159.069 343.945 161.505 346.512 166.001 346.472L174.472 346.4C174.472 346.4 182.027 356.567 184.218 357.91C186.41 359.252 198.734 361.72 198.734 361.72C201.066 361.697 202.973 363.572 202.994 365.905L203.012 368.052L177.402 368.277L155.317 366.592Z" fill="#010101"/>
<path d="M181.109 361.25C182.107 359.162 182.667 357.147 182.436 356.21L187.365 358.567L198.097 361.852C198.093 361.595 199.408 361.752 201.066 362.445C202.725 363.135 202.998 365.025 202.927 365.885L179.155 367.2L176.324 367.12C177.727 366.452 179.744 364.102 181.109 361.25Z" fill="#1C1622"/>
<path d="M165.725 356.757C168.72 357.427 174.895 354.07 177.608 352.307L174.527 346.375C171.655 346.425 165.509 346.4 163.652 346.125C161.795 345.847 159.767 344.505 159.027 343.875L158.369 348.012L157.428 353.045C158.945 354.005 162.729 356.09 165.725 356.757Z" fill="black"/>
<path d="M177.351 351.925C176.699 350.945 175.369 348.83 175.261 348.213C169.354 349.293 161.38 349.235 158.411 347.975C157.66 350.295 157.308 353.433 157.308 353.433C157.832 354.458 163.537 356.393 165.727 356.758C166.876 355.848 167.737 355.61 168.633 355.088C170.038 354.268 174.737 352.12 177.351 351.925Z" fill="#2C407F"/>
<path d="M164.748 361.277C163.817 360.765 158.552 358.555 156.12 357.607C154.968 358.46 155.203 363.482 155.228 366.38L166.824 366.807C166.146 364.617 165.06 361.577 164.748 361.277Z" fill="#192D6A"/>
<path d="M170.349 360.775C171.563 361.08 172.533 361.012 173.072 360.572C174.459 359.43 173.506 357.76 173.104 357.105C173.818 357.9 174.529 358.697 175.09 359.572C175.974 360.937 176.374 362.452 175.829 363.44C174.851 365.227 172.367 364.475 170.778 363.805L156.035 357.592L170.349 360.775Z" fill="#2C407F"/>
<path d="M192.234 362.597C195.452 362.955 199.568 363.05 200.331 362.012L195.045 360.515L188.077 357.875L186.285 358.793L186.549 359.562C186.549 359.562 184.465 361.962 184.612 362.99C184.758 364.015 185.851 364.51 187.075 364.102C188.3 363.697 188.962 362.235 192.234 362.597Z" fill="#2C407F"/>
<path d="M175.786 351.052C177.155 352.88 180.814 356.625 182.472 358.267L182.954 356.457C181.906 355.317 180.496 353.142 179.054 351.625C177.547 350.037 175.691 348.052 174.548 346.442L173.133 346.467C173.364 347.407 174.416 349.225 175.786 351.052Z" fill="#1C1622"/>
<path d="M177.036 349.738L178.393 349.18C178.799 349.013 178.993 348.549 178.827 348.143C178.66 347.737 178.196 347.543 177.79 347.71L176.432 348.268C176.026 348.434 175.832 348.899 175.999 349.304C176.166 349.71 176.63 349.904 177.036 349.738Z" fill="#2B2A2A"/>
<path d="M179.114 352.035L180.471 351.477C180.877 351.311 181.071 350.847 180.904 350.441C180.738 350.035 180.273 349.841 179.868 350.008L178.51 350.565C178.104 350.732 177.91 351.196 178.077 351.602C178.244 352.008 178.708 352.202 179.114 352.035Z" fill="#2B2A2A"/>
<path d="M180.934 354.333L182.291 353.778C182.697 353.612 182.892 353.148 182.726 352.742C182.56 352.336 182.096 352.141 181.69 352.307L180.332 352.862C179.926 353.028 179.732 353.492 179.898 353.898C180.064 354.305 180.528 354.499 180.934 354.333Z" fill="#2B2A2A"/>
<path d="M183.012 356.63L184.37 356.073C184.776 355.906 184.97 355.442 184.803 355.036C184.636 354.63 184.172 354.436 183.766 354.603L182.409 355.16C182.003 355.327 181.809 355.791 181.976 356.197C182.142 356.603 182.607 356.797 183.012 356.63Z" fill="#2B2A2A"/>
<path d="M186.118 358.918L187.475 358.363C187.882 358.197 188.076 357.733 187.91 357.327C187.744 356.921 187.28 356.726 186.874 356.892L185.517 357.447C185.111 357.613 184.916 358.077 185.082 358.483C185.248 358.89 185.712 359.084 186.118 358.918Z" fill="#2B2A2A"/>
<path d="M155.003 366.33L179.125 367.21L203.091 365.91L203.502 369.093C203.622 370.015 202.925 370.845 201.994 370.883L179.665 371.838L167.224 372.083L154.778 371.783L155.003 366.33Z" fill="#E7E5DD"/>
<path d="M154.887 371.54C158.721 371.635 168.352 371.938 172.549 371.9C175.56 371.875 201.167 371.02 203.732 370.225" stroke="#536E83" stroke-width="1.5"/>
<path d="M163.856 352.933C165.5 352.8 166.328 352.075 166.536 351.728C166.723 352.625 166.455 354.458 163.885 354.605C161.315 354.753 160.553 352.82 160.493 351.833C160.929 352.255 162.212 353.065 163.856 352.933Z" fill="black"/>
<path d="M165.506 351.617C165.621 352.335 165.316 353.035 165.149 353.295C163.626 354.48 161.935 353.352 161.914 352.195C161.894 351.037 162.661 350.767 163.433 350.752C164.204 350.74 165.361 350.72 165.506 351.617Z" fill="black"/>
<path d="M113.902 103.875C115.902 101.625 116.86 94.5833 116.652 88.75H185.527C184.152 92.9167 185.477 101.975 188.777 106.375C192.902 111.875 198.402 113.75 198.402 113.75C198.402 113.75 190.777 125.5 177.277 123.625C162.194 123.292 130.352 122.825 123.652 123.625C116.952 124.425 108.694 116.375 105.402 112.25C107.027 111.917 111.616 106.447 113.902 103.875Z" fill="#A23A26"/>
<path d="M108.167 152.105C114.212 138.528 124.092 139.552 128.29 140.067L123.277 205.75H97.5268C95.7768 193.5 98.3539 176.305 98.7457 174.75C100.064 169.517 103.506 162.571 108.167 152.105Z" fill="#19171D"/>
<path d="M191.9 152.79C185.855 139.214 175.975 140.238 171.777 140.753L176.79 206.436L203.152 201.375C206.527 191 201.713 176.991 201.321 175.436C200.003 170.203 196.561 163.257 191.9 152.79Z" fill="#19171D"/>
<path d="M120.319 148.391C121.359 140.831 127.699 135.287 135.332 135.203L152.577 135.012L168.467 136.686C175.731 137.451 181.626 143.094 182.582 150.358C184.667 166.188 187.904 193.878 187.904 213.236C187.904 241.792 192.444 244.523 185.414 248.265C178.384 252.007 122.143 251.48 114.464 245.679C106.785 239.878 111.56 233.835 111.56 221.99C111.56 213.265 117.298 170.373 120.319 148.391Z" fill="black"/>
<path d="M134.277 168.432C134.277 167.389 134.407 166.652 134.667 166.223H139.648C139.908 166.836 140.039 167.327 140.039 167.696V168.801L139.746 170.274C138.704 170.274 138.183 172.36 138.183 176.534V212.992C138.183 214.588 138.248 215.938 138.378 217.043C138.769 218.762 139.681 219.621 141.113 219.621C142.301 219.621 143.212 217.534 143.847 213.36C144.319 208.941 144.775 206.732 145.214 206.732H145.41C145.54 206.854 145.67 207.468 145.8 208.573C145.166 219.375 144.677 224.777 144.335 224.777H134.667C134.537 224.654 134.407 224.04 134.277 222.935C134.277 222.567 134.342 221.953 134.472 221.094C135.579 220.603 136.132 218.884 136.132 215.938V174.693C136.132 173.404 136.035 172.299 135.839 171.378C134.798 170.58 134.277 169.598 134.277 168.432Z" fill="white"/>
<path fill-rule="evenodd" clip-rule="evenodd" d="M146.508 192.001V198.63C146.508 208.205 147.322 216.184 148.95 222.567C149.747 225.022 150.594 226.25 151.489 226.25H152.465C154.89 226.25 156.551 219.13 157.446 204.891C157.511 203.541 157.56 202.19 157.592 200.84C157.625 199.428 157.641 197.955 157.641 196.421V194.948C157.641 181.629 156.437 171.931 154.028 165.855C153.621 165.118 153.165 164.75 152.661 164.75H151.391C149.129 164.75 147.534 172.238 146.606 187.214C146.541 188.257 146.508 189.853 146.508 192.001ZM149.047 196.789V195.316C149.047 186.048 149.568 178.314 150.61 172.115C151.049 170.642 151.473 169.906 151.879 169.906H152.27C153.735 169.906 154.646 177.762 155.004 193.475V196.053C155.004 207.898 154.191 216.123 152.563 220.726H151.879C150.415 220.726 149.471 212.747 149.047 196.789Z" fill="white"/>
<path d="M158.911 166.223H163.012C163.142 166.345 163.273 166.959 163.403 168.064C163.403 168.371 163.37 168.739 163.305 169.169C162.622 170.765 162.264 171.992 162.231 172.851C162.231 173.711 162.98 183.899 164.477 203.417H164.672C164.851 203.417 165.633 193.351 167.016 173.22V172.483L166.137 168.432C166.137 167.389 166.267 166.652 166.528 166.223H169.848C170.109 166.836 170.239 167.327 170.239 167.696V168.801C170.19 169.537 169.767 170.396 168.969 171.378L166.137 205.995C165.34 218.516 164.786 224.777 164.477 224.777H164.184L163.989 224.408C162.752 209.064 161.775 197.126 161.059 188.595C160.343 180.063 159.887 174.815 159.692 172.851C158.911 170.335 158.52 168.862 158.52 168.432C158.52 167.389 158.65 166.652 158.911 166.223Z" fill="white"/>
<path d="M171.679 220.726C172.46 219.928 172.851 217.718 172.851 214.097V176.534C172.851 174.509 172.753 172.913 172.558 171.747C171.582 170.335 171.093 169.107 171.093 168.064C171.223 166.959 171.354 166.345 171.484 166.223H180.664C181.038 166.223 181.266 170.887 181.347 180.217C181.25 181.444 181.054 182.058 180.761 182.058C180.306 182.058 179.947 180.094 179.687 176.166C179.394 172.974 178.776 171.378 177.832 171.378H175.878C175.227 171.378 174.902 172.606 174.902 175.061V187.95C174.902 190.16 175.13 191.265 175.585 191.265H177.929C178.141 191.265 178.369 190.896 178.613 190.16C179.036 185.25 179.329 182.795 179.492 182.795H179.687C180.078 182.795 180.273 183.531 180.273 185.004V203.417C180.11 204.399 179.98 204.89 179.882 204.89H179.492C179.28 204.583 179.085 203.479 178.906 201.576C178.906 198.384 178.385 196.789 177.343 196.789H175.878C175.227 196.789 174.902 198.016 174.902 200.471V213.36C174.902 217.534 175.39 219.621 176.367 219.621C178.027 219.621 179.264 218.762 180.078 217.043C180.875 210.905 181.331 207.836 181.445 207.836H181.933C182.194 208.266 182.324 209.003 182.324 210.046C182.324 210.721 182.161 213.667 181.835 218.884C181.722 222.812 181.396 224.777 180.859 224.777H171.484C171.354 224.654 171.223 224.04 171.093 222.935C171.093 221.646 171.289 220.91 171.679 220.726Z" fill="white"/>
<path d="M120.917 165.692H125.019C125.149 165.815 125.279 166.429 125.41 167.534C125.41 167.841 125.377 168.209 125.312 168.639C124.628 170.234 124.27 171.462 124.238 172.321C124.238 173.181 124.987 183.369 126.484 202.887H126.679C126.858 202.887 127.64 192.821 129.023 172.69V171.953L128.144 167.902C128.144 166.859 128.274 166.122 128.535 165.692H131.855C132.115 166.306 132.246 166.797 132.246 167.166V168.27C132.197 169.007 131.774 169.866 130.976 170.848L128.144 205.465C127.347 217.986 126.793 224.246 126.484 224.246H126.191L125.996 223.878C124.759 208.534 123.782 196.596 123.066 188.065C122.35 179.533 121.894 174.285 121.699 172.321C120.917 169.805 120.527 168.332 120.527 167.902C120.527 166.859 120.657 166.122 120.917 165.692Z" fill="#DA4B2A"/>
<path d="M111.868 252.955L113.572 242.68C113.779 241.435 114.881 240.539 116.142 240.592L183.505 243.38C184.845 243.435 185.902 244.537 185.902 245.878V255.665C185.902 257.079 184.731 258.211 183.319 258.164L114.251 255.863C112.742 255.812 111.621 254.445 111.868 252.955Z" fill="black"/>
<path d="M147.152 157.25C139.006 155.667 115.412 141.319 124.576 132.417C130.431 124.999 139.85 134.89 141.122 139.835C142.141 143.792 147.62 148.737 149.402 151.375C151.438 153.271 155.298 158.832 147.152 157.25Z" fill="#19171D"/>
<path d="M155.652 156.875C163.798 155.292 186.079 141.319 176.915 132.417C171.06 124.999 161.642 134.89 160.369 139.835C159.351 143.792 155.434 149.237 153.652 151.875C151.615 153.771 147.506 158.457 155.652 156.875Z" fill="#19171D"/>
<path d="M140.277 153C141.796 153 143.027 151.769 143.027 150.25C143.027 148.731 141.796 147.5 140.277 147.5C138.758 147.5 137.527 148.731 137.527 150.25C137.527 151.769 138.758 153 140.277 153Z" fill="#C4C4C4"/>
<path d="M162.277 153C163.796 153 165.027 151.769 165.027 150.25C165.027 148.731 163.796 147.5 162.277 147.5C160.758 147.5 159.527 148.731 159.527 150.25C159.527 151.769 160.758 153 162.277 153Z" fill="#C4C4C4"/>
<path d="M138.277 150.75V178.25C138.277 179.216 139.06 180 140.027 180C140.993 180 141.777 179.216 141.777 178.25V150.75C141.777 149.784 140.993 149 140.027 149C139.06 149 138.277 149.784 138.277 150.75Z" fill="#3A3838"/>
<path d="M160.527 150.75V172.75C160.527 173.716 161.31 174.5 162.277 174.5C163.243 174.5 164.027 173.716 164.027 172.75V150.75C164.027 149.784 163.243 149 162.277 149C161.31 149 160.527 149.784 160.527 150.75Z" fill="#3A3838"/>
<path d="M179.616 214.786L179.198 214.953L178.721 215.138L175.487 216.343C172.6 217.423 168.565 218.948 166.657 219.734L166.471 219.811C161.399 221.928 157.212 224.125 153.496 226.8C148.832 230.157 145.143 234.139 142.553 238.936C140.584 242.581 141.944 247.131 145.588 249.099C149.196 251.048 153.692 249.735 155.691 246.172L155.751 246.064C158.478 241.014 163.602 237.294 171.993 233.761L172.414 233.586L172.881 233.396C176.096 232.106 183.996 229.182 184.196 229.104C184.538 228.971 184.867 228.842 185.187 228.714C189.033 227.175 190.904 222.81 189.365 218.965C187.827 215.119 183.462 213.248 179.616 214.786Z" fill="#CDA497"/>
<path d="M116.552 225.96L123.62 229.341L124.906 229.962L126.26 230.62C128.143 231.537 129.876 232.396 131.548 233.242L132.253 233.6C134.351 234.669 136.287 235.685 138.069 236.659L138.725 237.02L139.277 237.326C143.946 239.93 147.311 242.136 148.964 243.673L149.085 243.787C152.074 246.655 156.822 246.556 159.689 243.566C162.557 240.577 162.458 235.829 159.469 232.962C156.546 230.159 151.936 227.159 145.582 223.672L144.943 223.322C143.009 222.271 140.932 221.183 138.695 220.048L137.758 219.574L136.762 219.074C135.089 218.238 133.343 217.381 131.45 216.464L126.876 214.269L123.141 212.485C119.405 210.696 114.926 212.275 113.137 216.011C111.366 219.709 112.896 224.136 116.552 225.96Z" fill="#EBBAAA"/>
<path d="M150.902 225.25L143.152 221.5L135.277 236.5L143.152 240.25C143.152 241.25 143.294 236.122 145.527 232C147.152 229 149.152 226.75 150.902 225.25Z" fill="#161616"/>
<path d="M162.994 238.833L170.527 235.25L162.152 221.375L155.402 225C155.727 225.188 158.574 227.506 161.027 231.5C162.812 234.407 162.57 236.568 162.994 238.833Z" fill="#161616"/>
<path d="M170.027 237.5C197.152 236.375 205.777 202.5 204.152 189H187.277C188.017 198.95 166.027 213.875 161.652 222.5C163.902 225.375 160.998 237.874 170.027 237.5Z" fill="#19171D"/>
<path d="M133.902 238.5C102.402 238.5 92.1519 207.125 98.7768 185.375H112.902C112.162 195.325 139.027 211.5 146.152 224.125C144.527 229.625 142.938 238.5 133.902 238.5Z" fill="#19171D"/>
<rect x="141.996" y="122.75" width="17.25" height="28.75" rx="8.625" fill="#EBBAAA"/>
<path d="M186.527 108.889C192.05 108.889 196.527 104.02 196.527 98.0137C196.527 92.0074 192.05 87.1387 186.527 87.1387C181.004 87.1387 176.527 92.0074 176.527 98.0137C176.527 104.02 181.004 108.889 186.527 108.889Z" fill="#EBBAAA"/>
<path d="M114.527 108.889C109.004 108.889 104.527 104.02 104.527 98.0137C104.527 92.0074 109.004 87.1387 114.527 87.1387C120.05 87.1387 124.527 92.0074 124.527 98.0137C124.527 104.02 120.05 108.889 114.527 108.889Z" fill="#EBBAAA"/>
<path d="M113.246 73.8305C113.246 53.12 130.035 36.3306 150.746 36.3306C171.456 36.3306 188.246 53.12 188.246 73.8305V87.542C188.246 89.7697 188.075 91.994 187.736 94.1957L185.444 109.072C182.813 126.155 168.113 138.763 150.829 138.763C133.912 138.763 119.413 126.672 116.375 110.03L113.956 96.7807C113.483 94.1912 113.246 91.5642 113.246 88.932V73.8305Z" fill="#F4D5CC"/>
<path d="M163.221 74.6409L163.335 74.5912L163.412 74.559C163.686 74.4465 164.017 74.3301 164.402 74.2192C165.887 73.7916 167.629 73.5879 169.58 73.742C171.214 73.871 172.647 74.1793 173.878 74.6078C174.437 74.8027 174.91 75.007 175.295 75.2052C175.398 75.2584 175.486 75.3063 175.558 75.3479L175.631 75.3909L175.625 75.3873C176.769 76.1613 178.323 75.8618 179.097 74.7184C179.871 73.575 179.572 72.0207 178.428 71.2467C178.249 71.1251 177.967 70.957 177.584 70.7599C176.995 70.4565 176.307 70.1593 175.522 69.8859C173.895 69.3194 172.043 68.9209 169.974 68.7575C167.395 68.5539 165.057 68.8274 163.019 69.4145C162.454 69.5771 161.951 69.7538 161.511 69.9343L161.362 69.9967L161.228 70.0553C161.079 70.1215 160.959 70.1793 160.869 70.2262C159.646 70.8655 159.172 72.3758 159.811 73.5996C160.428 74.7804 161.856 75.263 163.055 74.721L163.12 74.6905L163.221 74.6409Z" fill="#393939"/>
<path d="M140.532 70.153L140.445 70.1158L140.34 70.0737C140.228 70.0293 140.091 69.9783 139.929 69.9223C139.515 69.7787 139.041 69.6381 138.511 69.5086C136.506 69.0195 134.215 68.8041 131.7 69.008C129.771 69.1644 127.996 69.4996 126.392 69.9624C125.58 70.1968 124.859 70.4505 124.235 70.708C124.008 70.8016 123.806 70.8903 123.632 70.9723L123.459 71.0556L123.366 71.1031C122.143 71.7444 121.672 73.2555 122.313 74.4782C122.943 75.6795 124.413 76.1556 125.623 75.5638L125.757 75.4981C125.86 75.4498 125.988 75.3934 126.14 75.3307C126.599 75.1416 127.147 74.9487 127.779 74.7663C129.07 74.3936 130.517 74.1203 132.104 73.9916C134.059 73.8331 135.819 73.9986 137.325 74.3661C137.658 74.4473 137.951 74.5321 138.2 74.6153L138.401 74.6852L138.516 74.7288L138.522 74.7311C139.786 75.2862 141.261 74.7114 141.816 73.4472C142.371 72.1829 141.796 70.7081 140.532 70.153Z" fill="#393939"/>
<path d="M111.028 67.1485C110.861 51.896 124.279 46.8986 121.904 49.7735C119.528 52.6484 125.154 59.7735 121.904 62.0235C118.653 64.2735 122.279 71.5238 120.529 74.2738C118.779 77.0238 115.985 76.3988 114.403 81.7738C112.822 87.1488 114.153 97.613 114.153 97.613C114.278 97.8988 114.153 98.2738 113.903 98.2738C113.653 98.2738 113.278 98.1488 113.177 97.613C113.177 97.613 111.278 89.8985 111.028 67.1485Z" fill="black"/>
<path d="M189.775 69.5086C189.93 55.4242 177.544 50.8095 179.737 53.4642C181.929 56.1189 176.737 62.6983 179.737 64.7761C182.737 66.8538 179.391 73.5486 181.006 76.0881C182.622 78.6273 185.2 78.0503 186.66 83.0136C188.12 87.9771 186.891 97.6398 186.891 97.6398C186.775 97.9038 186.891 98.2501 187.122 98.2501C187.352 98.2501 187.698 98.1346 187.792 97.6398C187.792 97.6398 189.545 90.5163 189.775 69.5086Z" fill="black"/>
<path d="M149.727 90.46C148.088 92.9185 146.871 96.4198 146.871 99.2949C146.871 103.463 149.36 106.264 153.996 106.264V102.014C151.826 102.014 151.121 101.22 151.121 99.2949C151.121 97.3263 152.062 94.6202 153.264 92.8174L149.727 90.46Z" fill="#EBBAAA"/>
<path d="M168.246 87.25H164.746" stroke="black" stroke-width="6" stroke-linecap="round"/>
<path d="M136.871 87.25H133.371" stroke="black" stroke-width="6" stroke-linecap="round"/>
<path fill-rule="evenodd" clip-rule="evenodd" d="M160.811 114.65V115.367C160.811 120.692 156.494 125.009 151.169 125.009C145.844 125.009 141.527 120.692 141.527 115.367V114.65H160.811Z" fill="white"/>
<path fill-rule="evenodd" clip-rule="evenodd" d="M150.609 60.182C120.569 60.182 112.389 78.2272 112.055 87.25C105.608 67.5 104.294 28 150.609 28C196.924 28 195.442 67.5 188.912 87.25C188.661 78.2272 180.648 60.182 150.609 60.182Z" fill="#BB462F"/>
<mask id="mask5_0_9187" style="mask-type:luminance" maskUnits="userSpaceOnUse" x="108" y="28" width="85" height="60">
<path fill-rule="evenodd" clip-rule="evenodd" d="M150.609 60.182C120.569 60.182 112.389 78.2272 112.055 87.25C105.608 67.5 104.294 28 150.609 28C196.924 28 195.442 67.5 188.912 87.25C188.661 78.2272 180.648 60.182 150.609 60.182Z" fill="white"/>
</mask>
<g mask="url(#mask5_0_9187)">
</g>
</svg>
