<svg width="300" height="400" viewBox="0 0 300 400" fill="none" xmlns="http://www.w3.org/2000/svg">
<path d="M164 317.75V355.25C164 358.978 167.022 362 170.75 362C174.478 362 177.5 358.978 177.5 355.25V317.75C177.5 314.022 174.478 311 170.75 311C167.022 311 164 314.022 164 317.75Z" fill="#EBBAAA"/>
<path d="M138 317.75V355.25C138 358.978 141.022 362 144.75 362C148.478 362 151.5 358.978 151.5 355.25V317.75C151.5 314.022 148.478 311 144.75 311C141.022 311 138 314.022 138 317.75Z" fill="#EBBAAA"/>
<path d="M112.25 331.375L124.678 224.25H138.598C142.575 255.286 139.294 335.18 134.124 336.38C128.954 337.582 113.907 334.045 112.25 331.375Z" fill="#482625"/>
<path d="M203.25 331.375L190.822 224.25H176.903C172.926 255.286 176.207 335.18 181.377 336.38C186.547 337.582 201.593 334.045 203.25 331.375Z" fill="#482625"/>
<path d="M128.491 341.888C131.722 344.39 157.097 347.06 158.754 344.39V292.33L154.59 230.507H133.924C129.947 261.544 125.259 339.385 128.491 341.888Z" fill="#653B3A"/>
<path d="M155.997 341.635C162.211 343.638 170.165 343.388 187.565 341.635C187.565 341.635 184.311 316.357 182.842 287.822C181.373 259.29 179.611 224.5 179.611 224.5L153.76 228.004C155.997 262.544 157.489 291.827 155.997 341.635Z" fill="#522F2E"/>
<path d="M108.666 365.505C108.617 359.833 109.393 356.38 114.346 354.063C119.299 351.745 123.965 347.288 132.534 343.465C132.534 343.465 133.662 343.253 135.498 344.243C137.065 345.085 139.077 347.155 142.11 347.128C145.402 347.1 148.337 346.405 150.16 345.453C150.947 343.305 152.695 343.29 152.695 343.29C152.695 343.29 155.155 347.953 155.196 352.635C155.237 357.32 155.232 365.1 155.232 365.1L108.666 365.505Z" fill="#DCE1E6"/>
<path d="M127.26 345.405C126.738 345.176 126.183 345.656 126.335 346.206L127.076 348.879L124.103 347.923C123.666 347.783 123.219 348.109 123.219 348.567L123.219 351.316L120.991 350.114C120.54 349.871 119.993 350.198 119.993 350.71V354.055C119.993 354.429 120.296 354.732 120.67 354.732C121.044 354.732 121.347 354.429 121.347 354.055V351.844L123.575 353.046C124.025 353.289 124.572 352.962 124.572 352.45L124.573 349.496L127.855 350.552C128.368 350.717 128.858 350.246 128.715 349.727L128.02 347.218L131.285 348.652C131.732 348.849 132.234 348.521 132.234 348.033L132.233 347.778L132.231 347.505C132.22 346.717 132.179 346.184 132.063 345.556C131.968 345.045 131.829 344.574 131.638 344.144C131.486 343.803 131.085 343.65 130.744 343.802C130.403 343.954 130.25 344.354 130.402 344.696C130.547 345.021 130.655 345.39 130.732 345.803C130.796 346.149 130.834 346.469 130.855 346.845L130.863 346.988L127.26 345.405Z" fill="white"/>
<path d="M153.735 345.757C152.778 347.05 149.329 347.825 148.031 348.012C146.734 348.202 145.343 348.037 145.9 350.175C146.293 351.685 150.074 351.075 151.553 351.062C152.755 351.05 154.441 354.667 155.068 353.44C155.068 349.237 154.272 346.962 153.735 345.757Z" fill="#3F3232" fill-opacity="0.5"/>
<path d="M110.541 354.497C112.06 353.95 113.67 353.532 116.755 352.837L115.444 356.595L115.481 360.877L106.699 360.955C106.341 360.957 105.7 360.482 106.006 358.552C106.388 356.14 108.381 355.277 110.541 354.497Z" fill="#EAF4FB"/>
<path d="M121.249 355.732L125.34 363.497L129.172 361.478L125.081 353.713L121.249 355.732Z" fill="#3F3232"/>
<path d="M126.884 352.787L131.786 362.117L135.62 360.103L130.718 350.773L126.884 352.787Z" fill="#3F3232"/>
<path d="M132.397 349.527L139.175 362.675L143.024 360.69L136.246 347.542L132.397 349.527Z" fill="#3F3232"/>
<path d="M155.378 364.355L155.124 359.862L115.746 360.475L105.928 359.757L105.63 363.187C105.525 364.392 106.431 365.45 107.639 365.535L115.796 366.095L154.314 365.5C154.93 365.49 155.413 364.97 155.378 364.355Z" fill="#C7CBCF"/>
<path d="M206.834 365.57C206.883 359.895 206.107 356.445 201.154 354.125C196.201 351.808 191.535 347.35 182.966 343.528C182.966 343.528 181.838 343.318 180.002 344.305C178.435 345.15 176.423 347.218 173.391 347.193C170.098 347.163 167.164 346.468 165.341 345.515C164.553 343.368 162.806 343.353 162.806 343.353C162.806 343.353 160.345 348.015 160.305 352.7C160.264 357.383 160.268 365.163 160.268 365.163L206.834 365.57Z" fill="#DCE1E6"/>
<path d="M186.785 349.789C186.642 350.308 187.132 350.779 187.644 350.614L190.927 349.56L190.928 352.513C190.928 353.025 191.475 353.351 191.926 353.108L194.153 351.906V354.12C194.153 354.494 194.456 354.797 194.83 354.797C195.204 354.797 195.507 354.494 195.507 354.12V350.773C195.507 350.26 194.96 349.934 194.509 350.177L192.281 351.379L192.281 348.632C192.281 348.174 191.834 347.848 191.397 347.988L188.424 348.943L189.165 346.271C189.317 345.721 188.763 345.241 188.24 345.47L184.637 347.053C184.657 346.614 184.696 346.258 184.768 345.87C184.844 345.455 184.953 345.084 185.098 344.758C185.251 344.417 185.097 344.017 184.756 343.865C184.415 343.712 184.015 343.866 183.862 344.207C183.67 344.638 183.531 345.11 183.437 345.624C183.297 346.381 183.266 347.001 183.266 348.098C183.266 348.586 183.768 348.914 184.215 348.717L187.48 347.283L186.785 349.789Z" fill="white"/>
<path d="M161.765 345.82C162.722 347.112 166.171 347.887 167.469 348.077C168.766 348.267 170.157 348.1 169.601 350.237C169.207 351.747 165.426 351.137 163.947 351.125C162.745 351.115 161.06 354.73 160.432 353.502C160.432 349.3 161.228 347.025 161.765 345.82Z" fill="#3F3232" fill-opacity="0.5"/>
<path d="M204.96 354.56C203.44 354.012 201.831 353.597 198.745 352.9L200.056 356.66L200.019 360.942L208.801 361.017C209.16 361.022 209.8 360.545 209.494 358.615C209.112 356.202 207.119 355.34 204.96 354.56Z" fill="#EAF4FB"/>
<path d="M190.419 353.775L186.328 361.54L190.16 363.559L194.251 355.794L190.419 353.775Z" fill="#3F3232"/>
<path d="M184.782 350.838L179.88 360.168L183.714 362.182L188.616 352.852L184.782 350.838Z" fill="#3F3232"/>
<path d="M179.254 347.605L172.476 360.755L176.325 362.74L183.103 349.59L179.254 347.605Z" fill="#3F3232"/>
<path d="M160.122 364.42L160.376 359.927L199.754 360.537L209.572 359.82L209.87 363.25C209.975 364.457 209.07 365.515 207.861 365.597L199.705 366.16L161.186 365.562C160.571 365.552 160.087 365.032 160.122 364.42Z" fill="#C7CBCF"/>
<path fill-rule="evenodd" clip-rule="evenodd" d="M199.25 115.75C199.25 115.75 189.752 145.594 199.25 171.75H116.25V115.75H199.25Z" fill="#3F3232"/>
<path d="M181.124 178.592C185.772 186.831 189.529 199.58 191.485 213.016C193.208 224.859 193.191 235.569 191.848 239.473L191.807 239.589C190.061 244.39 192.538 249.697 197.339 251.443C202.14 253.189 207.447 250.712 209.193 245.911C211.897 238.475 211.941 225.12 209.792 210.352C207.534 194.843 203.162 180.005 197.237 169.502C194.727 165.053 189.086 163.481 184.636 165.99C180.187 168.5 178.614 174.142 181.124 178.592Z" fill="#EBBAAA"/>
<path d="M177 186.5C168.5 209 117 219.5 96 177.5" stroke="#96CCE0" stroke-width="25" stroke-linecap="round" stroke-linejoin="bevel"/>
<path d="M90.3263 155.99L87.3622 148.496C86.6004 146.57 84.4217 145.626 82.4958 146.388C80.5699 147.15 79.6261 149.328 80.3879 151.254L87.0129 168.004L94.0304 167.89L100.03 151.14C100.729 149.19 99.7144 147.043 97.7646 146.345C95.8149 145.646 93.6681 146.661 92.9697 148.61L90.3263 155.99Z" fill="#F6DDD6"/>
<path d="M91.625 175.25C96.8027 175.25 101 171.892 101 167.75C101 163.608 96.8027 160.25 91.625 160.25C86.4473 160.25 82.25 163.608 82.25 167.75C82.25 171.892 86.4473 175.25 91.625 175.25Z" fill="#F6DDD6"/>
<rect x="158.25" y="163.25" width="42.5" height="80" rx="21.25" transform="rotate(-15 158.25 163.25)" fill="#96CCE0"/>
<path d="M203.125 198L185 203.5L204.75 201.625L203.125 198Z" fill="#7EBFD7"/>
<path d="M199.75 206L185.75 205.25L197.875 209.125L199.75 206Z" fill="#7EBFD7"/>
<rect x="116.5" y="152.25" width="42.5" height="58.75" rx="21.25" transform="rotate(15 116.5 152.25)" fill="#96CCE0"/>
<path d="M129.849 180.404L111.36 176.291L129.484 184.36L129.849 180.404Z" fill="#7EBFD7"/>
<path d="M122.98 185.714L111.154 178.184L119.811 187.515L122.98 185.714Z" fill="#7EBFD7"/>
<path d="M214.75 238.5C216.35 233.9 216.75 217.75 214.75 210.25L186.25 209C189.3 218.5 189.8 231 192.05 243.25L192.089 243.252C197.375 243.504 212.755 244.236 214.75 238.5Z" fill="#96CCE0"/>
<path d="M122.042 169.257C121.051 162.457 125.734 156.132 132.527 155.096L157.75 151.25L182.973 155.096C189.766 156.132 194.45 162.457 193.458 169.257L190.25 191.25L194.265 225.374C194.789 229.832 191.305 233.75 186.816 233.75H128.684C124.195 233.75 120.711 229.832 121.236 225.374L125.25 191.25L122.042 169.257Z" fill="#BEE1EE"/>
<path d="M148.5 152.728C148.5 147.493 152.766 143.25 158 143.25C163.235 143.25 167.5 147.493 167.5 152.728V170.794C167.5 172.719 166.914 174.598 165.82 176.182L158 187.5L150.18 176.182C149.086 174.598 148.5 172.719 148.5 170.794V152.728Z" fill="#EBBAAA"/>
<path d="M157.75 178.25C167.415 178.25 175.25 170.415 175.25 160.75C175.25 151.085 167.415 143.25 157.75 143.25C148.085 143.25 140.25 151.085 140.25 160.75C140.25 170.415 148.085 178.25 157.75 178.25Z" fill="#BEE1EE"/>
<rect x="148" y="122.25" width="19" height="48.5" rx="9.47775" fill="#EBBAAA"/>
<path d="M195.25 117.5C202.154 117.5 207.75 111.903 207.75 105C207.75 98.0965 202.154 92.5 195.25 92.5C188.347 92.5 182.75 98.0965 182.75 105C182.75 111.903 188.347 117.5 195.25 117.5Z" fill="#E4C1C1"/>
<rect x="119" y="42" width="77.5" height="110" rx="38.75" fill="#F6DDD6"/>
<path d="M160.052 34.6493C169.034 30.4938 191.978 44.6702 200.262 61.6822C206.007 73.4823 210.551 87.5397 203.536 95.6297C203.536 95.6297 199.101 94.675 196.5 93.125C187.25 87.6125 189.214 78.4997 179.714 70.4997C170.214 62.4997 162.117 60.1947 159.634 58.4323C157.152 56.6673 156.859 41.4498 160.052 34.6493Z" fill="#271E1E"/>
<path d="M132.75 122.75C136.892 122.75 140.25 119.392 140.25 115.25C140.25 111.108 136.892 107.75 132.75 107.75C128.608 107.75 125.25 111.108 125.25 115.25C125.25 119.392 128.608 122.75 132.75 122.75Z" fill="#F2CACA"/>
<path d="M132.341 86.895C135.416 73.3025 150.726 60.295 157.974 57.945C160.964 56.9775 162.964 33.75 157.974 33.75C145.344 33.75 125.309 46.525 118.159 57.945C106.419 76.7 102.266 97.725 108.516 145.048C110.044 156.628 106.314 161.662 103.714 164.43C110.884 171.832 137.754 174.5 137.754 174.5C137.754 174.5 142.276 168.845 139.199 157.632C133.636 137.385 129.269 100.49 132.341 86.895Z" fill="#3F3232"/>
<path d="M120.739 61.5185L120.634 61.7066L120.524 61.9078L120.428 62.0854C120.379 62.1782 120.327 62.2769 120.272 62.3815L120.125 62.665L119.974 62.9613C119.694 63.5165 119.393 64.1366 119.077 64.8197C117.847 67.4721 116.619 70.5385 115.474 73.9823C111.771 85.1173 109.763 97.5237 110.34 110.799C110.367 111.42 110.892 111.901 111.513 111.874C112.133 111.847 112.615 111.322 112.588 110.701C112.023 97.7181 113.988 85.5808 117.609 74.6923C118.726 71.3315 119.923 68.3436 121.118 65.7661L121.283 65.4127C121.637 64.6607 121.967 63.9965 122.266 63.4234L122.413 63.1458L122.543 62.9038L122.688 62.6435C122.999 62.1054 122.814 61.4174 122.276 61.1067C121.738 60.7961 121.05 60.9804 120.739 61.5185Z" fill="#615252"/>
<path d="M115.408 93.8392L115.383 94.107L115.338 94.6264L115.318 94.8658C115.255 95.636 115.192 96.5167 115.133 97.498L115.121 97.7098C114.512 108.082 114.761 119.494 116.486 130.268C116.646 131.267 116.818 132.251 117.002 133.221C117.118 133.832 117.707 134.232 118.317 134.116C118.928 134.001 119.329 133.412 119.213 132.801C119.033 131.853 118.864 130.89 118.708 129.913C117.012 119.325 116.767 108.064 117.367 97.8416L117.404 97.2258L117.447 96.5744C117.476 96.1518 117.505 95.7529 117.534 95.3785L117.58 94.8154L117.647 94.0653C117.709 93.4471 117.259 92.8953 116.641 92.8329C116.023 92.7705 115.471 93.221 115.408 93.8392Z" fill="#615252"/>
<path d="M136.5 99H144C144.69 99 145.25 98.4404 145.25 97.75C145.25 97.0596 144.69 96.5 144 96.5H136.5C135.81 96.5 135.25 97.0596 135.25 97.75C135.25 98.4404 135.81 99 136.5 99Z" fill="black"/>
<path d="M171.5 99H179C179.69 99 180.25 98.4404 180.25 97.75C180.25 97.0596 179.69 96.5 179 96.5H171.5C170.81 96.5 170.25 97.0596 170.25 97.75C170.25 98.4404 170.81 99 171.5 99Z" fill="black"/>
<path d="M169.5 97.5V104.75C169.5 106.407 170.843 107.75 172.5 107.75C174.157 107.75 175.5 106.407 175.5 104.75V97.5C175.5 95.8431 174.157 94.5 172.5 94.5C170.843 94.5 169.5 95.8431 169.5 97.5Z" fill="black"/>
<path d="M140.001 97.5V104.75C140.001 106.407 141.344 107.75 143.001 107.75C144.658 107.75 146.001 106.407 146.001 104.75V97.5C146.001 95.8431 144.658 94.5 143.001 94.5C141.344 94.5 140.001 95.8431 140.001 97.5Z" fill="black"/>
<path d="M167.171 88.248L181.421 88.998C182.248 89.0415 182.954 88.4062 182.998 87.5789C183.041 86.7516 182.406 86.0457 181.579 86.0021L167.329 85.2521C166.502 85.2086 165.796 85.8439 165.752 86.6712C165.709 87.4985 166.344 88.2044 167.171 88.248Z" fill="#271E1E"/>
<path d="M148.171 85.2521L133.921 86.0021C133.094 86.0457 132.459 86.7516 132.502 87.5789C132.546 88.4062 133.252 89.0415 134.079 88.998L148.329 88.248C149.156 88.2044 149.791 87.4985 149.748 86.6712C149.704 85.8439 148.998 85.2086 148.171 85.2521Z" fill="#271E1E"/>
<path d="M182.75 122.75C186.892 122.75 190.25 119.392 190.25 115.25C190.25 111.108 186.892 107.75 182.75 107.75C178.608 107.75 175.25 111.108 175.25 115.25C175.25 119.392 178.608 122.75 182.75 122.75Z" fill="#F2CACA"/>
<path d="M155.982 102.571C154.343 105.03 153.125 108.531 153.125 111.406C153.125 115.575 155.614 118.375 160.25 118.375V114.125C158.08 114.125 157.375 113.332 157.375 111.406C157.375 109.438 158.316 106.732 159.518 104.929L155.982 102.571Z" fill="#EBBAAA"/>
<path fill-rule="evenodd" clip-rule="evenodd" d="M144 120.755V125.705C144 133.325 150.157 139.5 157.75 139.5C165.345 139.5 171.499 133.325 171.499 125.705V120.755H144Z" fill="#393939"/>
<mask id="mask0_0_9285" style="mask-type:luminance" maskUnits="userSpaceOnUse" x="144" y="120" width="28" height="20">
<path fill-rule="evenodd" clip-rule="evenodd" d="M144.023 120.75C144.008 121.005 144 121.263 144 121.52V126.342C144 133.61 150.157 139.5 157.75 139.5C165.345 139.5 171.499 133.61 171.499 126.342V121.52C171.499 121.263 171.492 121.005 171.477 120.75H144.023Z" fill="white"/>
</mask>
<g mask="url(#mask0_0_9285)">
<path d="M157.75 143.923C162.329 143.923 166.042 141.896 166.042 139.395C166.042 136.894 162.329 134.867 157.75 134.867C153.17 134.867 149.458 136.894 149.458 139.395C149.458 141.896 153.17 143.923 157.75 143.923Z" fill="#FF6C6C"/>
</g>
<rect x="144" y="120.755" width="27.5" height="5.68665" fill="white"/>
</svg>
