<svg width="300" height="400" viewBox="0 0 300 400" fill="none" xmlns="http://www.w3.org/2000/svg">
<path d="M130.937 363.171C134.897 365.692 140.151 364.524 142.671 360.564C143.53 359.215 143.863 358.08 144.103 356.67C144.209 356.045 144.285 355.374 144.34 354.622L144.355 354.415C144.443 353.123 144.483 351.514 144.482 349.566L144.479 348.774L144.473 347.994C144.438 344.609 144.303 340.342 144.079 335.328L144.033 334.302C143.612 325.165 142.921 313.946 142.228 304.385C141.888 299.703 137.817 296.183 133.135 296.523C128.453 296.862 124.933 300.933 125.272 305.615L125.424 307.736L125.538 309.357C126.141 318.061 126.715 327.687 127.074 335.593L127.156 337.459L127.211 338.791C127.382 343.07 127.476 346.652 127.481 349.382L127.481 349.876L127.478 350.478C127.469 351.645 127.44 352.583 127.394 353.259L127.377 353.49C126.271 357.06 127.631 361.068 130.937 363.171Z" fill="black"/>
<path d="M166.187 352.421C170.147 354.942 175.401 353.774 177.921 349.814C178.78 348.465 179.113 347.33 179.353 345.92C179.459 345.295 179.535 344.624 179.59 343.872L179.605 343.665C179.693 342.373 179.733 340.764 179.732 338.816L179.729 338.024L179.723 337.244C179.688 333.859 179.553 329.592 179.329 324.578L179.283 323.552C178.862 314.415 178.171 303.196 177.478 293.635C177.138 288.953 173.067 285.433 168.385 285.773C163.703 286.112 160.183 290.183 160.522 294.865L160.674 296.986L160.788 298.607C161.391 307.311 161.965 316.937 162.324 324.843L162.406 326.709L162.461 328.041C162.632 332.32 162.726 335.902 162.731 338.632L162.731 339.126L162.728 339.728C162.719 340.895 162.69 341.833 162.644 342.509L162.627 342.74C161.521 346.31 162.881 350.318 166.187 352.421Z" fill="black"/>
<path d="M115.997 251.354L146.714 254.198V341.25H124.464L115.997 251.354Z" fill="#2B2B2B"/>
<path d="M124.5 341L123.75 336H146.75V341H124.5Z" fill="#1B1919"/>
<path d="M151.074 273.713C167.408 273.713 180.648 266.893 180.648 258.481C180.648 250.069 167.408 243.25 151.074 243.25C134.741 243.25 121.5 250.069 121.5 258.481C121.5 266.893 134.741 273.713 151.074 273.713Z" fill="#2B2B2B"/>
<path d="M151.5 254.4H182.978L182.728 341.827H159.927L151.5 254.4Z" fill="#2B2B2B"/>
<path d="M159.5 341.75L158.75 336.75H183.25V341.75H159.5Z" fill="#1B1919"/>
<path d="M101.044 364.355C100.575 363.193 100.913 361.603 101.175 361.17C101.438 360.735 133.362 358.745 133.362 358.745C138.661 358.31 149.164 356.493 149.89 359.625C150.787 363.5 150.746 364.375 150.134 367.375C149.155 368.375 139.25 369.25 136.038 368.5C136.038 366.75 135.788 365.625 135.788 365.625C135.788 365.625 133.998 366.76 131.898 367.25C127.614 368.25 126.794 369.25 113.525 369.25C102.883 368.25 102.095 366.953 101.044 364.355Z" fill="#272727"/>
<path d="M135.57 347.5C138.23 347.535 142.293 346.66 144.506 343.593C144.701 343.323 145.099 343.28 145.325 343.523C147.316 345.663 146.026 344.445 146.826 348.128C147.615 351.763 148.281 351.243 149.071 354.618C149.617 356.955 151.387 362.408 149.071 362.408H138.507C136.008 362.408 132.632 365.31 124.309 366.125C110.494 367.48 107.118 365.625 104.359 364.75C98.0827 362.76 101.268 358.205 104.359 356.75C108.888 354.618 115.378 353.015 118.679 351.25C121.25 349.875 122.133 349.448 123.453 348C125.137 346.153 125.851 344.973 126.386 344.055C126.608 343.67 127.213 343.758 127.449 344.13C128.908 346.445 133.112 347.468 135.57 347.5Z" fill="#563D2A"/>
<path d="M124.852 346.113C124.236 345.893 123.698 346.588 124.065 347.13L125.645 349.462L122.434 348.544C121.817 348.368 121.324 349.069 121.699 349.59L123.068 351.494L119.134 350.697C118.472 350.563 118.043 351.377 118.53 351.847L121.778 354.987C122.047 355.246 122.475 355.239 122.735 354.97C122.995 354.702 122.987 354.273 122.719 354.014L121.136 352.483L124.491 353.163C125.094 353.286 125.534 352.605 125.174 352.105L123.935 350.381L127.064 351.276C127.672 351.45 128.165 350.769 127.81 350.246L126.345 348.082L129.735 349.292C130.176 349.45 130.639 349.123 130.639 348.655C130.639 348.231 130.45 347.84 130.103 347.4L129.981 347.249L129.902 347.156C129.78 347.015 129.651 346.879 129.391 346.617L128.844 346.069L128.675 345.895C128.589 345.806 128.514 345.726 128.442 345.645C128.172 345.347 127.99 345.1 127.89 344.897L127.868 344.85C127.717 344.509 127.317 344.355 126.975 344.507C126.634 344.659 126.48 345.059 126.632 345.4C126.796 345.769 127.06 346.134 127.437 346.552L127.57 346.697L127.683 346.816C127.743 346.878 127.806 346.943 127.876 347.014L128.15 347.29L124.852 346.113Z" fill="#2C221B"/>
<path d="M105.704 361.793C107.515 362.342 108.748 362.634 110.353 362.807C112.537 363.042 114.845 362.934 117.382 362.402C117.855 362.303 118.158 361.839 118.059 361.366C117.959 360.893 117.496 360.59 117.023 360.689C114.667 361.183 112.543 361.282 110.541 361.067C109.067 360.908 107.927 360.638 106.211 360.118C105.749 359.978 105.26 360.239 105.12 360.701C104.98 361.164 105.241 361.652 105.704 361.793Z" fill="#7C593E"/>
<path d="M123.773 354.375C126.221 352.125 128.042 351 130 348.5C131.061 348.5 132.461 348.625 136.5 348.625C141.763 348.625 143.158 346.375 145.483 343.75C147.25 344.875 146.34 347.25 147.564 350.5C148.543 353.1 150.379 357 150.379 361.75C149.522 363.25 141.077 362.5 138.385 362.5C137.773 359.5 133 357 130.875 356.375C129.01 355.828 126.833 355.625 123.773 354.375Z" fill="#423023"/>
<path d="M206.037 364.452C206.506 363.292 206.168 361.7 205.905 361.267C205.642 360.835 173.718 358.842 173.718 358.842C168.42 358.41 157.917 356.59 157.191 359.722C156.293 363.597 156.334 364.472 156.946 367.472C157.925 368.472 167.831 369.347 171.042 368.597C171.042 366.847 171.292 365.722 171.292 365.722C171.292 365.722 173.083 366.857 175.183 367.347C179.467 368.347 180.287 369.347 193.555 369.347C204.197 368.347 204.986 367.05 206.037 364.452Z" fill="#272727"/>
<path d="M171.511 347.597C168.85 347.632 164.788 346.757 162.574 343.69C162.38 343.42 161.982 343.377 161.755 343.62C159.765 345.76 161.054 344.542 160.255 348.225C159.466 351.86 158.799 351.342 158.01 354.715C157.464 357.052 155.694 362.505 158.01 362.505H168.574C171.073 362.505 174.448 365.407 182.771 366.222C196.587 367.577 199.963 365.722 202.721 364.847C208.998 362.857 205.813 358.305 202.721 356.847C198.193 354.715 191.703 353.115 188.401 351.347C185.831 349.972 184.948 349.545 183.628 348.097C181.944 346.252 181.229 345.072 180.695 344.152C180.472 343.77 179.868 343.855 179.632 344.23C178.172 346.542 173.968 347.567 171.511 347.597Z" fill="#563D2A"/>
<path d="M179.27 350.343C178.916 350.867 179.409 351.547 180.017 351.373L183.146 350.479L181.906 352.203C181.547 352.702 181.987 353.383 182.59 353.261L185.945 352.583L184.362 354.111C184.094 354.371 184.086 354.799 184.346 355.068C184.605 355.337 185.034 355.344 185.303 355.085L188.551 351.947C189.037 351.477 188.61 350.663 187.947 350.797L184.012 351.593L185.382 349.688C185.757 349.167 185.263 348.466 184.646 348.642L181.436 349.56L183.016 347.227C183.383 346.686 182.844 345.991 182.228 346.21L178.931 347.387L179.205 347.112L179.329 346.985C179.446 346.864 179.546 346.758 179.644 346.65C180.021 346.231 180.285 345.867 180.449 345.498C180.601 345.156 180.447 344.756 180.106 344.604C179.777 344.458 179.395 344.595 179.231 344.909L179.212 344.948C179.118 345.16 178.929 345.421 178.639 345.743L178.52 345.873L178.388 346.011C178.326 346.075 178.258 346.145 178.18 346.223L177.571 346.835L177.419 346.991C177.256 347.161 177.164 347.268 177.036 347.424C176.653 347.894 176.441 348.306 176.441 348.753C176.441 349.221 176.905 349.547 177.345 349.39L180.736 348.18L179.27 350.343Z" fill="#2C221B"/>
<path d="M200.87 360.217L200.51 360.325L200.137 360.433C198.803 360.815 197.794 361.029 196.54 361.164C194.537 361.379 192.414 361.28 190.058 360.786C189.585 360.687 189.121 360.99 189.022 361.463C188.923 361.936 189.226 362.4 189.699 362.499C192.236 363.031 194.544 363.139 196.727 362.904C198.331 362.731 199.559 362.442 201.376 361.892C201.839 361.753 202.101 361.264 201.961 360.802C201.821 360.339 201.333 360.078 200.87 360.217Z" fill="#7C593E"/>
<path d="M183.307 354.473C180.859 352.223 179.039 351.098 177.081 348.598C176.02 348.598 174.62 348.723 170.581 348.723C165.318 348.723 163.923 346.473 161.597 343.848C159.831 344.973 160.74 347.348 159.516 350.598C158.537 353.198 156.701 357.098 156.701 361.848C157.558 363.348 166.003 362.598 168.696 362.598C169.308 359.598 174.081 357.098 176.206 356.473C178.071 355.925 180.247 355.723 183.307 354.473Z" fill="#423023"/>
<path d="M113.311 245.489L113.271 245.319C113.098 244.558 112.942 243.472 112.831 242.12L112.805 241.774L112.78 241.42C112.537 237.719 112.638 232.723 113.061 226.746C113.817 216.09 115.565 202.827 117.543 191.295C118.407 186.26 115.026 181.478 109.991 180.615C104.955 179.751 100.174 183.132 99.3098 188.168L99.1162 189.306C97.1234 201.117 95.3865 214.448 94.6077 225.438L94.5602 226.122L94.5145 226.811C94.0854 233.434 94.022 239.076 94.3926 243.623C94.6349 246.595 95.0638 249.158 95.7548 251.376C96.8183 254.79 98.5012 257.572 101.438 259.492C105.714 262.288 111.446 261.088 114.242 256.812C116.608 253.193 116.112 248.531 113.311 245.489Z" fill="#EBBAAA"/>
<path d="M179.124 188.092C183.569 195.971 186.526 208.086 187.54 221.387C188.401 232.683 187.665 243.489 186.105 247.955L186.057 248.089C184.311 252.89 186.788 258.197 191.589 259.943C196.39 261.689 201.697 259.212 203.443 254.411C206.114 247.067 207.038 233.782 205.986 219.981C204.785 204.212 201.219 189.607 195.237 179.002C192.727 174.553 187.085 172.981 182.636 175.491C178.186 178.001 176.614 183.642 179.124 188.092Z" fill="#EBBAAA"/>
<path d="M107.75 166.875C107.75 161 120.625 155.004 129.625 152.152L141.375 148.254C143.011 148.202 154.254 148.67 155.875 148.894L174.125 155.004C182.773 156.199 189.871 160.813 189 169.5L185.887 206.825L186.75 256C186.768 256.453 166.703 250.773 166.25 250.75L131.25 256.82L112.625 255.982C112.19 255.959 111.964 254.685 112 254.25L114.502 202.22L107.75 166.875Z" fill="#EBBAAA"/>
<path d="M191.527 160.996C189.502 158.697 182.832 156.374 179.75 155.5C181.694 184.975 181.907 242.302 182.612 245.3C183.492 249.047 204.625 252.918 206.386 251.42C208.147 249.921 210.128 235.808 209.688 228.064C209.247 220.321 194.059 163.868 191.527 160.996Z" fill="#322B1F"/>
<path d="M206.16 251.5C207.26 251.3 209.785 244.167 210.66 241.375L179.91 236.5C179.535 239.042 178.835 244.55 179.035 246.25C179.285 248.375 185.035 250.25 191.285 251.25C197.535 252.25 204.785 251.75 206.16 251.5Z" fill="#3F3627"/>
<path d="M106.98 159.996C109.133 157.697 116.223 155.374 119.5 154.5C117.433 183.977 113.111 243.681 112.362 246.678C111.426 250.426 96.3722 252.749 94.5 251.25C92.6277 249.751 90.5215 235.637 90.9896 227.893C91.4576 220.149 104.288 162.868 106.98 159.996Z" fill="#322B1F"/>
<path d="M93.9061 252.154C92.8291 251.955 90.3568 244.868 89.5 242.094L119.609 237.25C119.976 239.776 120.661 245.248 120.465 246.938C120.221 249.049 114.59 250.912 108.471 251.906C102.351 252.899 95.2525 252.403 93.9061 252.154Z" fill="#3F3627"/>
<path d="M138 149.545L138.875 148.92L151.875 153.045L158 149.17L160.375 150.17L162.875 158.045L148.25 161.295L136.5 157.295L138 149.545Z" fill="#EBBAAA"/>
<path d="M145.946 171.102C144.743 167.481 145.345 162.237 145.345 162.237L139.932 164.36L133.437 151.25C125.94 152.623 125.619 153.123 120.207 155.62C113.751 158.599 115.035 168.605 114.073 182.214L112.75 256.754L130.551 259.625L142.458 259.75L147.75 175.222C147.75 175.222 147.149 174.723 145.946 171.102Z" fill="#E5EBF9"/>
<path d="M149.864 170.978C146.873 168.356 147.371 166.275 147.908 164.236L149.174 163.237L156.538 162.488L163.673 152C163.673 152 173.914 153.498 177.366 155.496C180.818 157.493 182.889 179.343 182.889 179.343L184.5 257.128H166.5L146.182 253.5C145.875 227.364 143.199 177.312 146.182 175.598C150.095 173.35 150.555 171.583 149.864 170.978Z" fill="#DAE2F3"/>
<path d="M158 170.75C158.69 170.75 159.25 170.19 159.25 169.5C159.25 168.81 158.69 168.25 158 168.25C157.31 168.25 156.75 168.81 156.75 169.5C156.75 170.19 157.31 170.75 158 170.75Z" fill="#DAE2F3"/>
<path d="M138.75 169.5C139.44 169.5 140 168.94 140 168.25C140 167.56 139.44 167 138.75 167C138.06 167 137.5 167.56 137.5 168.25C137.5 168.94 138.06 169.5 138.75 169.5Z" fill="#E5EBF9"/>
<path d="M148.875 182C149.911 182 150.75 181.161 150.75 180.125C150.75 179.089 149.911 178.25 148.875 178.25C147.839 178.25 147 179.089 147 180.125C147 181.161 147.839 182 148.875 182Z" fill="#EDF2FF"/>
<path d="M204.16 249.25C205.196 249.25 206.035 248.411 206.035 247.375C206.035 246.339 205.196 245.5 204.16 245.5C203.125 245.5 202.285 246.339 202.285 247.375C202.285 248.411 203.125 249.25 204.16 249.25Z" fill="#332918"/>
<path d="M96.875 249.5C97.9105 249.5 98.75 248.661 98.75 247.625C98.75 246.589 97.9105 245.75 96.875 245.75C95.8395 245.75 95 246.589 95 247.625C95 248.661 95.8395 249.5 96.875 249.5Z" fill="#332918"/>
<path d="M147.375 200C148.411 200 149.25 199.105 149.25 198C149.25 196.895 148.411 196 147.375 196C146.339 196 145.5 196.895 145.5 198C145.5 199.105 146.339 200 147.375 200Z" fill="#EDF2FF"/>
<path d="M146.375 217.75C147.411 217.75 148.25 216.911 148.25 215.875C148.25 214.839 147.411 214 146.375 214C145.339 214 144.5 214.839 144.5 215.875C144.5 216.911 145.339 217.75 146.375 217.75Z" fill="#EDF2FF"/>
<path d="M158.75 155.125C159.61 152.281 158.75 150.25 158.5 149L165.5 151.625C165.5 151.625 167.875 154.625 166.375 161.5C164.732 169.032 157.464 172 155.75 174C155 174.875 155.25 164.25 149.5 163.125C152.125 162.5 157.125 160.5 158.75 155.125Z" fill="#E5EBF9"/>
<path d="M138.763 156.875C137 154.375 137.915 150.868 138.763 149L132.625 151.125C132.625 151.125 129.096 157.202 131.004 163.075C133.375 170.375 141.824 173.013 141.75 172.125C141 163.075 143.997 163.413 145.25 162.25C143.125 161.75 141.106 160.197 138.763 156.875Z" fill="#DAE2F3"/>
<path d="M143.671 183.196C141.863 175.499 140.468 161.683 135.821 150.25C135.821 150.25 131 150.75 126.405 151.971C121.81 153.192 116.396 155.413 116.396 155.413C113.47 159.917 113.718 172.17 112.892 197.947C112.066 223.725 110.61 249.528 109.75 261.134C113.364 262.304 136.883 267.658 148.757 263.5C148.757 260.5 149.803 257.64 149.926 254.25C150.33 243.182 148.954 232.644 148.757 213.945C148.582 197.445 146.327 194.506 143.671 183.196Z" fill="#483E2D"/>
<path d="M122.75 155.653L135.75 149.75C137.75 155.653 139.784 162.455 142 169.645C144.5 177.756 148.75 193.011 148.75 222.75L122.75 173.84L131.25 164.501L122.75 167.942V155.653Z" fill="#5A4D37"/>
<path d="M159.69 186.221C159.69 178.653 160.233 160.953 164.85 150L177.866 152.662C181.359 153.377 184.345 155.575 184.618 159.129C185.194 166.623 183.948 180.323 184.564 198.879C185.385 223.574 186.145 249.352 187 260.471C179.755 263.381 163.074 267.606 151.276 263.623C151.276 261.036 150.402 259.501 149.278 254.651C149.227 245.957 148.613 236.492 148.778 221.43C148.951 205.624 159.69 193.789 159.69 186.221Z" fill="#483E2D"/>
<path d="M175 154.355L164.5 150C163.167 154.839 159.966 164.939 157.75 172.016C155.25 180 149.75 188.226 149.75 217.5L175 172.742L166.5 163.549L175 166.935V154.355Z" fill="#5A4D37"/>
<path d="M145.625 232.5C146.799 232.5 147.75 231.549 147.75 230.375C147.75 229.201 146.799 228.25 145.625 228.25C144.451 228.25 143.5 229.201 143.5 230.375C143.5 231.549 144.451 232.5 145.625 232.5Z" fill="#332918"/>
<path d="M145.625 248.75C146.799 248.75 147.75 247.799 147.75 246.625C147.75 245.451 146.799 244.5 145.625 244.5C144.451 244.5 143.5 245.451 143.5 246.625C143.5 247.799 144.451 248.75 145.625 248.75Z" fill="#332918"/>
<rect x="138.862" y="134.25" width="19.5837" height="29.6332" rx="9.47775" fill="#EBBAAA"/>
<path d="M184.317 117.633C192.5 117.633 199.133 111 199.133 102.817C199.133 94.634 192.5 88.0002 184.317 88.0002C176.134 88.0002 169.5 94.634 169.5 102.817C169.5 111 176.134 117.633 184.317 117.633Z" fill="#EBBAAA"/>
<path d="M114.567 118.383C106.384 118.383 99.7501 111.75 99.7501 103.567C99.7501 95.384 106.384 88.7502 114.567 88.7502C122.75 88.7502 129.383 95.384 129.383 103.567C129.383 111.75 122.75 118.383 114.567 118.383Z" fill="#EBBAAA"/>
<path d="M110 75.3752C110 54.1813 127.181 37.0002 148.375 37.0002C169.569 37.0002 186.75 54.1813 186.75 75.3752V93.5002L186.134 113.393C185.502 133.791 168.783 150 148.375 150C128.658 150 112.365 134.618 111.233 114.933L110 93.5002V75.3752Z" fill="#F4D4C9"/>
<path d="M140.565 128.183C145.462 130.904 151.242 130.833 157.479 128.282C158.463 127.879 158.934 126.755 158.532 125.772C158.129 124.788 157.005 124.316 156.021 124.719C150.789 126.859 146.21 126.915 142.435 124.818C141.505 124.301 140.334 124.636 139.817 125.566C139.301 126.495 139.636 127.667 140.565 128.183Z" fill="#C99584"/>
<path d="M161.125 98.0002V102.5C161.125 104.157 162.468 105.5 164.125 105.5C165.782 105.5 167.125 104.157 167.125 102.5V98.0002C167.125 96.3434 165.782 95.0002 164.125 95.0002C162.468 95.0002 161.125 96.3434 161.125 98.0002Z" fill="black"/>
<path d="M128.875 98.0002V102.5C128.875 104.157 130.218 105.5 131.875 105.5C133.532 105.5 134.875 104.157 134.875 102.5V98.0002C134.875 96.3434 133.532 95.0002 131.875 95.0002C130.218 95.0002 128.875 96.3434 128.875 98.0002Z" fill="black"/>
<path d="M160.472 86.4115L174.786 85.786C176.442 85.7137 177.725 84.3132 177.653 82.6579C177.58 81.0026 176.18 79.7194 174.525 79.7917L160.21 80.4172C158.555 80.4896 157.272 81.8901 157.344 83.5453C157.416 85.2006 158.817 86.4838 160.472 86.4115Z" fill="#393939"/>
<path d="M137.74 80.4066L123.413 80.2811C121.756 80.2666 120.401 81.5979 120.386 83.2547C120.372 84.9115 121.703 86.2664 123.36 86.2809L137.687 86.4064C139.344 86.4209 140.699 85.0896 140.714 83.4328C140.728 81.776 139.397 80.4211 137.74 80.4066Z" fill="#393939"/>
<path d="M146.18 104.702C144.662 107.381 143.777 110.308 143.891 112.696C144.048 115.977 146.107 118.182 149.574 118.182V113.932C148.491 113.932 148.19 113.609 148.136 112.493C148.065 111.01 148.723 108.834 149.877 106.798L146.18 104.702Z" fill="#EBBAAA"/>
<path d="M151.399 97.2878C150.579 94.2228 152.784 91.1788 155.952 91.0031L173.619 90.0226C176.787 89.8466 179.316 92.6278 178.84 95.7646L177.806 102.582C177.451 104.923 175.503 106.694 173.139 106.825L158.289 107.649C155.925 107.78 153.793 106.236 153.182 103.949L151.399 97.2878Z" fill="white" fill-opacity="0.29"/>
<path fill-rule="evenodd" clip-rule="evenodd" d="M174.581 91.0638L174.581 91.0627L174.581 91.0635L174.426 92.5558C174.449 92.5581 174.475 92.5614 174.504 92.5657L155.097 92.9643C155.112 92.9608 155.121 92.9588 155.125 92.958L155.125 92.958L155.125 92.958C155.127 92.9577 155.127 92.9576 155.127 92.9576L154.961 91.4671L154.961 91.4668L154.961 91.4667L154.794 89.976L154.862 89.9685L154.93 89.9673L154.93 89.9672L174.551 89.564L174.551 89.564L174.551 89.564L174.581 91.0638ZM174.737 89.5718L174.737 89.5718L174.644 89.5623L174.551 89.564L174.581 91.0627L174.707 89.8595L174.581 91.0635L174.612 92.5635L174.504 92.5657C174.712 92.5966 175.069 92.6801 175.446 92.8425C175.879 93.0293 176.219 93.2695 176.42 93.5338L176.42 93.5337C176.728 93.94 176.889 94.2942 176.969 94.545C177.026 94.7197 177.037 94.8251 177.041 94.8557C177.041 94.8581 177.041 94.86 177.042 94.8614L176.621 98.3113L179.599 98.6745L180.027 95.1651L178.991 95.0386L180.027 95.165L180.028 95.1518L180.03 95.1388L178.538 94.9833L178.991 95.0386L178.529 94.9823L180.03 95.1387C180.112 94.3475 179.81 93.0377 178.809 91.7197L178.809 91.7198C178.187 90.9008 177.345 90.3943 176.634 90.0878C175.919 89.7795 175.218 89.622 174.737 89.5718ZM174.737 89.5718L174.707 89.8595L174.737 89.5718L174.737 89.5718ZM178.809 91.7198L178.809 91.7198L176.42 93.5337L176.42 93.5337L178.809 91.7198ZM178.529 94.9823L177.046 94.8277C177.045 94.84 177.044 94.8492 177.043 94.8554C177.043 94.8618 177.043 94.8651 177.042 94.8651C177.042 94.8651 177.042 94.8639 177.042 94.8614L177.049 94.8018L178.529 94.9823ZM153.371 94.1388L153.371 94.1388C153.782 93.6713 154.202 93.3731 154.543 93.1906C154.825 93.039 155.025 92.9819 155.097 92.9643L154.991 92.9665L154.961 91.4671L154.794 89.9761C153.942 90.0713 152.423 90.6736 151.118 92.1573L151.118 92.1572C149.723 93.744 149.605 95.5244 149.841 96.4929L150.393 99.3194L153.338 98.7449L152.779 95.8806L151.305 96.1683L151.306 96.1679L152.779 95.8804L152.768 95.8269L152.754 95.7742C152.754 95.7755 152.754 95.7744 152.754 95.7712C152.75 95.7432 152.722 95.5486 152.788 95.2475C152.854 94.9392 153.014 94.5448 153.371 94.1388ZM152.754 95.7742L152.754 95.7742L151.779 96.0393L152.754 95.7742ZM153.371 94.1388L151.118 92.1573L151.118 92.1573L153.371 94.1387L153.371 94.1388ZM151.305 96.1683L149.834 96.4554L149.841 96.4929C149.847 96.5163 149.853 96.5391 149.859 96.5615L151.305 96.1683ZM152.153 100.504C152.966 100.346 153.496 99.5579 153.338 98.7449L150.393 99.3194C150.552 100.133 151.34 100.663 152.153 100.504ZM176.621 98.3113C176.521 99.1335 177.106 99.8815 177.928 99.9818C178.751 100.082 179.499 99.4968 179.599 98.6745L176.621 98.3113Z" fill="black"/>
<path d="M117.717 95.5265C117.296 92.3817 119.873 89.6455 123.037 89.877L140.685 91.168C143.849 91.3995 146 94.4817 145.126 97.5317L143.227 104.161C142.575 106.436 140.417 107.943 138.056 107.77L123.222 106.685C120.861 106.512 118.945 104.708 118.631 102.361L117.717 95.5265Z" fill="white" fill-opacity="0.29"/>
<path fill-rule="evenodd" clip-rule="evenodd" d="M121.579 91.1315L121.579 91.1321L121.524 90.4332L121.579 91.1315ZM121.594 89.8785L121.579 91.1315L121.579 91.1327L121.561 92.6321L121.667 92.6333C121.594 92.6485 121.392 92.6992 121.105 92.8415C120.759 93.0127 120.329 93.2972 119.903 93.751L119.903 93.7509L119.903 93.7508L117.716 91.6976C119.069 90.2569 120.606 89.7045 121.461 89.637L121.524 90.4332L121.461 89.6368L121.529 89.6313L121.597 89.6323L121.594 89.8785ZM121.597 89.6323L121.594 89.8785L121.579 91.1327L121.697 92.6277C121.697 92.6277 121.697 92.6277 121.696 92.6278L121.696 92.6278L121.696 92.6278L121.696 92.6278C121.694 92.6281 121.684 92.6297 121.667 92.6333L141.075 92.865C141.282 92.9028 141.637 92.9977 142.009 93.1724C142.435 93.3731 142.767 93.6241 142.959 93.8949L145.406 92.1596C144.811 91.3209 143.986 90.7871 143.286 90.4579C142.581 90.1264 141.886 89.9461 141.406 89.8804L141.406 89.8804L141.314 89.8679L141.22 89.8667L141.22 89.8666L121.597 89.6323ZM141.202 91.3665L140.998 92.8526C141.021 92.8557 141.047 92.8598 141.075 92.865L141.184 92.8663L141.202 91.3665ZM141.202 91.3657L141.216 90.1885L141.202 91.3665L141.202 91.3657ZM141.202 91.3657L141.202 91.3667L141.383 90.0488L141.202 91.3657ZM121.597 89.6323L121.597 89.6323L121.597 89.6323L121.597 89.6323ZM116.299 95.9901C116.094 95.0147 116.269 93.2384 117.716 91.6975L117.716 91.6976L117.716 91.6977L119.903 93.7509C119.533 94.1451 119.361 94.5343 119.284 94.8403C119.209 95.137 119.23 95.3317 119.233 95.3619C119.233 95.3648 119.233 95.3662 119.233 95.366L119.233 95.3655L118.984 95.4247L117.772 95.7123L116.293 95.9514L116.299 95.9901ZM116.759 98.8322L116.759 98.8322L116.299 95.9901C116.304 96.0133 116.309 96.036 116.314 96.0583L117.772 95.7123L119.255 95.4727L119.72 98.3533L116.759 98.832L116.759 98.8322ZM116.759 98.8322C116.891 99.6498 117.661 100.206 118.479 100.074C119.297 99.9413 119.852 99.1713 119.72 98.3533L119.72 98.3533L119.72 98.3534L116.759 98.8322ZM118.984 95.4247L117.774 95.712L119.255 95.4725L119.246 95.4187L119.233 95.366L119.233 95.3655L118.984 95.4247ZM146.511 95.6425L145.029 95.4127L145.04 95.4142L146.512 95.6424L146.511 95.6425ZM145.97 99.136L146.511 95.6425L146.512 95.6425L146.514 95.6295L146.515 95.6165L145.04 95.4142L145.032 95.4129L146.515 95.6164C146.623 94.8284 146.364 93.5094 145.406 92.1597L142.959 93.8949C143.254 94.3112 143.403 94.6702 143.476 94.9237C143.526 95.0998 143.535 95.2056 143.537 95.2364C143.537 95.2385 143.537 95.2403 143.538 95.2417L143.005 98.6764L143.005 98.6764C142.878 99.4951 143.439 100.262 144.258 100.389C145.076 100.516 145.843 99.9548 145.97 99.136L145.97 99.136ZM145.97 99.136L145.97 99.1361L143.005 98.6764C143.005 98.6763 143.005 98.6763 143.005 98.6763L145.97 99.136ZM143.538 95.2417L143.547 95.1826L145.032 95.4129L143.543 95.2087C143.541 95.2208 143.54 95.2299 143.54 95.2361C143.539 95.2427 143.539 95.2459 143.538 95.2459C143.538 95.2459 143.538 95.2445 143.538 95.2417Z" fill="black"/>
<path d="M144.875 96.8748C145.958 96.2915 148.75 95.4748 151.25 96.8748" stroke="black" stroke-width="2.5"/>
<path d="M175.75 62.3754C174.975 55.8719 174.276 51.202 173.759 46.8663C173.393 43.7951 173.355 43.0118 182.086 49.4469C190.816 55.8821 192.125 70.0004 189.75 82.0004L186.125 96.2504L183.429 95.5841L184.5 77.5004C180.101 73.0726 176.525 68.8791 175.75 62.3754Z" fill="#6E6C6C"/>
<path d="M114.706 69.3122C115.067 62.7732 114.33 63.11 114.57 58.7505C114.741 55.6625 115.805 56.3382 110.292 62.0005C107.25 65.1255 108.395 78.552 109.043 87.333L109.813 95.4262L111.042 95.494L111.598 85.4272C113.771 78.4515 114.346 75.8515 114.706 69.3122Z" fill="#6E6C6C"/>
<path fill-rule="evenodd" clip-rule="evenodd" d="M149.666 31.7714L149.666 31.7712C149.647 31.7712 149.629 31.7713 149.61 31.7713C149.592 31.7713 149.573 31.7712 149.555 31.7712L149.555 31.7714C137.764 31.8122 109.534 38.3494 108.473 68.9425C111.608 65.174 116.45 63.5302 120.75 61.071C129.802 55.8942 137.194 53.999 147.002 53.999C155.43 53.999 165.768 55.907 172.75 59.2502C178.995 62.2412 184.532 64.4847 190.637 68.9425C189.576 38.3494 161.455 31.8122 149.666 31.7714Z" fill="#272727"/>
<path d="M118.967 41.0298L116.548 49.6253L148.444 44.6857L184.895 51.3492L184.818 47.8125L182.218 46.7317L182.158 43.9529L178.88 44.0241L178.787 39.7295L174.572 39.8211L173.564 36.5574L169.818 36.6388L167.523 33.4031L163.682 34.4975L162.467 32.502L158.487 32.5885L158.438 30.3149L153.102 32.7056L151.648 30.4625L149.356 32.787L146.965 30.5643L142.566 32.9346L139.708 30.7221L136.713 33.0618L134.606 33.1076L132.309 35.1795L131.328 33.1789L127.442 37.5599L124.844 36.6054L121.557 41.6054L118.967 41.0298Z" fill="#272727"/>
<mask id="mask0_0_9353" style="mask-type:luminance" maskUnits="userSpaceOnUse" x="113" y="36" width="70" height="22">
<path fill-rule="evenodd" clip-rule="evenodd" d="M116.359 47.0709L113.096 40.9342L145.835 43.415L182.287 36.7515L182.21 40.2882L179.61 41.369L179.549 44.1478L176.271 44.0766L176.178 48.3712L171.964 48.2796L170.956 51.5433L167.21 51.4619L164.914 54.6976L161.073 53.6032L159.859 55.5988L155.878 55.5123L155.829 57.7858L150.494 55.395L149.039 57.6383L146.748 55.3138L144.357 57.5365L139.958 55.166L137.099 57.3788L134.105 55.039L131.998 54.993L129.7 52.9212L128.72 54.9218L124.833 50.5408L122.236 51.4953L118.948 46.4953L116.359 47.0709Z" fill="white"/>
</mask>
<g mask="url(#mask0_0_9353)">
<rect x="133.25" y="43.7502" width="39.029" height="26.5228" fill="#272727"/>
</g>
</svg>
