<svg width="300" height="400" viewBox="0 0 300 400" fill="none" xmlns="http://www.w3.org/2000/svg">
<path d="M202.75 277.75C205.75 292.25 204.75 329.5 204.75 348.25" stroke="#4A4E54" stroke-width="18.5" stroke-linecap="round" stroke-linejoin="bevel"/>
<path d="M164.603 277.5C162.5 303.125 167.5 333.25 170.75 349.875" stroke="#4A4E54" stroke-width="18.5" stroke-linecap="round" stroke-linejoin="bevel"/>
<path d="M148.25 261.25H188.75L184.5 306.25L179 341H159.25L152.75 321.75L149.5 295.75L148.25 261.25Z" fill="#33353A"/>
<path d="M156 259H152.5V293.032L152.501 293.065C152.818 301.622 154.699 316.524 156.141 322.651L156.289 323.274L156.44 323.9C158.144 330.848 160.145 336.521 163.034 340.955L165.966 339.045C163.192 334.787 161.228 328.993 159.547 321.849C158.19 316.078 156.386 301.892 156.02 293.473L156 292.967V259Z" fill="#C8CFE2"/>
<path d="M186.75 263.75H225.751L223.25 297.625L219.375 323L213.875 341L195.301 343L189.789 312.155L186.75 263.75Z" fill="#33353A"/>
<path d="M223.996 261.367L220.504 261.134L218.379 293.009L218.376 293.06C218.056 301.699 215.821 316.485 214.296 320.483L214.173 320.795L214.093 321.003C212.743 324.517 209.555 334.273 208.307 339.058L211.693 339.942L211.813 339.492L211.937 339.034C213.314 334.028 216.258 325.075 217.428 322.083L217.5 321.9C219.171 317.72 221.44 302.917 221.85 293.766L221.873 293.216L223.996 261.367Z" fill="#C8CFE2"/>
<path d="M179.5 338.5H159.25L160 344.25C167.908 344.25 171.592 344.25 179.5 344.25V338.5Z" fill="#282A2F"/>
<path d="M214.75 338.5H195V344.25C204.826 344.25 204.424 344.25 214.25 344.25L214.75 338.5Z" fill="#282A2F"/>
<path d="M135.441 369.505C135.391 363.768 136.172 360.278 141.16 357.933C146.147 355.59 150.845 351.083 159.473 347.218C159.473 347.218 160.609 347.003 162.458 348.003C164.035 348.855 166.062 350.948 169.115 350.923C172.431 350.893 175.386 350.19 177.221 349.228C178.014 347.055 179.774 347.04 179.774 347.04C179.774 347.04 182.251 351.755 182.293 356.493C182.334 361.228 182.33 369.095 182.33 369.095L135.441 369.505Z" fill="#DCE1E6"/>
<path d="M154.162 349.186C153.64 348.956 153.084 349.435 153.236 349.985L153.985 352.701L150.983 351.734C150.546 351.593 150.099 351.919 150.099 352.378V355.166L147.85 353.948C147.399 353.703 146.851 354.03 146.851 354.543V357.928C146.851 358.301 147.153 358.604 147.527 358.604C147.901 358.604 148.204 358.301 148.204 357.928V355.679L150.453 356.898C150.904 357.142 151.452 356.816 151.452 356.303V353.307L154.764 354.374C155.276 354.539 155.767 354.069 155.624 353.55L154.92 351.001L158.217 352.457C158.664 352.654 159.167 352.327 159.167 351.838L159.166 351.581L159.164 351.307C159.153 350.513 159.112 349.975 158.996 349.343C158.901 348.822 158.761 348.344 158.567 347.908C158.415 347.566 158.015 347.413 157.674 347.564C157.345 347.71 157.191 348.086 157.314 348.418L157.33 348.458C157.477 348.788 157.588 349.166 157.665 349.587C157.729 349.938 157.767 350.263 157.788 350.645L157.796 350.791L154.162 349.186Z" fill="white"/>
<path d="M180.821 349.535C179.858 350.843 176.385 351.625 175.078 351.818C173.772 352.01 172.372 351.84 172.932 354.003C173.328 355.53 177.136 354.913 178.624 354.9C179.835 354.89 181.532 358.548 182.164 357.305C182.164 353.055 181.363 350.753 180.821 349.535Z" fill="#37393F"/>
<path d="M137.328 358.372C138.858 357.817 140.478 357.397 143.585 356.695L142.265 360.495L142.303 364.825L133.459 364.902C133.099 364.905 132.454 364.425 132.762 362.472C133.146 360.032 135.153 359.16 137.328 358.372Z" fill="#EAF4FB"/>
<path d="M148.122 359.606L152.241 367.459L156.077 365.447L151.957 357.594L148.122 359.606Z" fill="#37393F"/>
<path d="M153.796 356.632L158.733 366.064L162.57 364.056L157.633 354.624L153.796 356.632Z" fill="#37393F"/>
<path d="M159.347 353.334L166.173 366.629L170.026 364.651L163.2 351.356L159.347 353.334Z" fill="#37393F"/>
<path d="M182.478 368.357L182.221 363.8L142.57 364.417L132.683 363.692L132.381 367.185C132.277 368.392 133.181 369.45 134.389 369.532L142.619 370.102L181.414 369.5C182.029 369.49 182.512 368.97 182.478 368.357Z" fill="#C7CBCF"/>
<path d="M239.353 370.005C239.403 364.268 238.621 360.778 233.634 358.433C228.647 356.09 223.949 351.583 215.32 347.718C215.32 347.718 214.185 347.503 212.336 348.503C210.758 349.355 208.732 351.448 205.678 351.423C202.363 351.393 199.408 350.69 197.572 349.728C196.779 347.555 195.02 347.54 195.02 347.54C195.02 347.54 192.542 352.255 192.501 356.993C192.46 361.728 192.464 369.595 192.464 369.595L239.353 370.005Z" fill="#DCE1E6"/>
<path d="M219.17 354.05C219.027 354.569 219.518 355.039 220.03 354.874L223.342 353.807V356.803C223.342 357.316 223.89 357.642 224.341 357.398L226.59 356.179V358.428C226.59 358.801 226.893 359.104 227.267 359.104C227.641 359.104 227.943 358.801 227.943 358.428V355.043C227.943 354.53 227.395 354.203 226.944 354.448L224.695 355.666V352.878C224.695 352.419 224.248 352.093 223.811 352.234L220.809 353.201L221.558 350.485C221.71 349.935 221.154 349.456 220.632 349.686L216.998 351.291C217.018 350.844 217.057 350.482 217.129 350.087C217.207 349.666 217.317 349.288 217.464 348.958C217.615 348.616 217.462 348.216 217.12 348.064C216.779 347.913 216.379 348.066 216.227 348.408C216.033 348.844 215.893 349.322 215.798 349.843C215.658 350.606 215.627 351.232 215.627 352.338C215.627 352.827 216.13 353.154 216.577 352.957L219.874 351.501L219.17 354.05Z" fill="white"/>
<path d="M193.973 350.035C194.936 351.343 198.409 352.125 199.716 352.318C201.022 352.51 202.422 352.34 201.862 354.503C201.466 356.03 197.658 355.413 196.17 355.4C194.959 355.39 193.262 359.048 192.63 357.805C192.63 353.555 193.431 351.253 193.973 350.035Z" fill="#37393F"/>
<path d="M237.466 358.872C235.936 358.317 234.315 357.897 231.209 357.195L232.529 360.995L232.491 365.325L241.334 365.402C241.695 365.405 242.34 364.925 242.032 362.972C241.647 360.532 239.64 359.66 237.466 358.872Z" fill="#EAF4FB"/>
<path d="M222.837 358.094L218.717 365.947L222.553 367.959L226.672 360.106L222.837 358.094Z" fill="#37393F"/>
<path d="M217.161 355.124L212.224 364.556L216.061 366.564L220.998 357.132L217.161 355.124Z" fill="#37393F"/>
<path d="M211.594 351.856L204.768 365.151L208.621 367.129L215.447 353.834L211.594 351.856Z" fill="#37393F"/>
<path d="M192.316 368.857L192.573 364.3L232.224 364.917L242.111 364.192L242.413 367.685C242.517 368.892 241.612 369.95 240.405 370.032L232.174 370.602L193.38 370C192.765 369.99 192.281 369.47 192.316 368.857Z" fill="#C7CBCF"/>
<path d="M103.238 165.354L64.1363 180.364L42.6007 124.262L81.702 109.252C83.1048 108.714 84.6765 109.378 85.2148 110.781L104.793 161.783C105.336 163.199 104.64 164.816 103.238 165.354Z" fill="#4C5B60"/>
<path opacity="0.3" d="M48.113 122.17L42.5878 124.291L64.1232 180.393L69.6485 178.272L48.113 122.17Z" fill="#CCDDE5"/>
<path d="M90.452 124.424L48.8005 140.412L54.8914 156.279L96.543 140.291L90.452 124.424Z" fill="#FF9852"/>
<path d="M100.7 167.653L97.127 169.024C96.1975 169.381 95.301 169.303 95.127 168.849L73.3522 112.124C73.1782 111.671 73.792 111.012 74.7215 110.656L78.294 109.284C79.2235 108.928 80.12 109.006 80.294 109.459L102.063 166.171C102.243 166.638 101.629 167.296 100.7 167.653Z" fill="#B7C8CE"/>
<path d="M75.833 183.375L68.996 182.502L67.6645 179.034L73.3315 176.858L75.833 183.375Z" fill="#EA3939"/>
<path d="M223.845 192.703C228.769 201.088 230.722 208.434 229.807 213.447C229.436 215.479 228.601 217.088 227.21 218.457C225.49 220.149 222.823 221.583 219.053 222.611C213.592 224.1 210.372 229.735 211.861 235.197C213.351 240.658 218.985 243.878 224.447 242.388C238.627 238.521 247.697 229.598 249.974 217.129C251.903 206.561 248.715 194.569 241.521 182.321C238.654 177.44 232.373 175.807 227.492 178.674C222.611 181.541 220.978 187.822 223.845 192.703Z" fill="#EBBAAA"/>
<path d="M157.686 148.591C153.725 150.301 149.889 152.617 145.866 155.591L145.298 156.015C142.411 158.182 139.772 160.394 135.679 163.987L131.811 167.381C129.648 169.272 128.911 169.89 127.642 170.916L127.281 171.207C121.136 176.155 117.062 178.08 113.869 177.84C112.148 177.71 110.242 176.943 107.926 175.209C104.845 172.902 101.423 169.125 97.7024 163.702C94.4999 159.034 88.1196 157.846 83.4516 161.048C78.7836 164.251 77.5955 170.631 80.798 175.299C90.7401 189.791 100.934 197.424 112.331 198.282C117.671 198.684 122.855 197.542 127.986 195.118C131.886 193.275 135.653 190.765 139.884 187.378L141.188 186.325C142.288 185.428 143.159 184.688 145.033 183.052L149.719 178.942L150.164 178.553C157.379 172.27 161.47 169.286 165.814 167.411C171.011 165.166 173.405 159.134 171.16 153.937C168.916 148.74 162.883 146.346 157.686 148.591Z" fill="#EBBAAA"/>
<path d="M147.634 150.577C158.203 141.922 173.917 144.176 181.627 155.453C189.198 166.526 185.878 181.689 174.372 188.585L137.25 210.835L116.75 175.87L147.634 150.577Z" fill="#2E3032"/>
<path d="M229.588 155.074C220.431 144.706 204.169 145.003 195.396 155.697C187.216 165.67 189.1 180.469 199.519 188.074L227.208 208.285L257.701 186.906L229.588 155.074Z" fill="#2E3032"/>
<path d="M148.584 175.678C149.409 161.017 161.406 149.476 176.088 149.22L195.591 148.879C210.947 148.611 223.661 160.748 224.106 176.1L225.232 214.931L225.714 264.001C225.714 264.001 200 265.501 185.5 265.501C171 265.501 145.717 264.001 145.717 264.001L146.299 216.295L148.584 175.678Z" fill="#2E3032"/>
<path d="M185.302 175.677C195.068 175.506 202.848 167.451 202.677 157.684C202.507 147.917 194.451 140.138 184.684 140.309C174.918 140.479 167.138 148.535 167.309 158.301C167.479 168.068 175.535 175.847 185.302 175.677Z" fill="#424649"/>
<path d="M84.885 182.457C92.2341 182.328 98.0878 176.267 97.9595 168.917C97.8312 161.568 91.7696 155.715 84.4204 155.843C77.0713 155.971 71.2176 162.033 71.3459 169.382C71.4742 176.731 77.5358 182.585 84.885 182.457Z" fill="#EBBAAA"/>
<rect x="173.185" y="138.812" width="23.498" height="30.7078" rx="11.749" transform="rotate(-1 173.185 138.812)" fill="#EBBAAA"/>
<path d="M147.815 120.679C156.029 120.679 162.689 114.363 162.689 106.571C162.689 98.7784 156.029 92.4617 147.815 92.4617C139.6 92.4617 132.94 98.7784 132.94 106.571C132.94 114.363 139.6 120.679 147.815 120.679Z" fill="#EBBAAA"/>
<path d="M224.093 121.773C232.308 121.773 238.967 115.456 238.967 107.664C238.967 99.8722 232.308 93.5554 224.093 93.5554C215.878 93.5554 209.218 99.8722 209.218 107.664C209.218 115.456 215.878 121.773 224.093 121.773Z" fill="#EBBAAA"/>
<path d="M142.631 80.2945C141.348 55.755 160.899 35.1541 185.472 35.1541C210.147 35.1541 229.736 55.9185 228.299 80.5515L226.256 115.579C224.989 137.299 207.007 154.263 185.25 154.263C163.529 154.263 145.611 137.258 144.476 115.566L142.631 80.2945Z" fill="#EED4CC"/>
<path d="M177.737 130.855C182.666 135.347 192.907 134.259 196.044 129.091C196.581 128.206 196.299 127.052 195.414 126.515C194.547 125.989 193.424 126.248 192.873 127.091L192.838 127.145C192.022 128.49 189.828 129.584 187.201 129.863C184.442 130.156 181.817 129.499 180.263 128.083C179.498 127.386 178.312 127.441 177.614 128.206C176.917 128.971 176.972 130.157 177.737 130.855Z" fill="#C99584"/>
<path d="M175.405 86.351L159.298 83.279C159.129 83.247 158.956 83.3013 158.836 83.4238L155.216 87.1193C154.924 87.4178 155.093 87.922 155.506 87.9843L175.58 91.0128C176.281 91.1185 176.875 90.4975 176.738 89.8018L176.218 87.1595C176.138 86.7493 175.816 86.4293 175.405 86.351Z" fill="#393939"/>
<path d="M193.596 86.351L209.703 83.279C209.872 83.247 210.045 83.3013 210.165 83.4238L213.784 87.1193C214.077 87.4178 213.908 87.922 213.495 87.9843L193.42 91.0128C192.719 91.1185 192.125 90.4975 192.262 89.8018L192.782 87.1595C192.863 86.7493 193.185 86.4293 193.596 86.351Z" fill="#393939"/>
<path d="M165.998 98.2024V105.443C165.998 107.141 167.375 108.517 169.072 108.517C170.77 108.517 172.146 107.141 172.146 105.443V98.2024C172.146 96.5048 170.77 95.1287 169.072 95.1287C167.375 95.1287 165.998 96.5048 165.998 98.2024Z" fill="black"/>
<path d="M197.685 97.9524V105.193C197.685 106.891 199.061 108.267 200.759 108.267C202.456 108.267 203.833 106.891 203.833 105.193V97.9524C203.833 96.2548 202.456 94.8787 200.759 94.8787C199.061 94.8787 197.685 96.2548 197.685 97.9524Z" fill="black"/>
<path d="M181.998 100.965C181.9 101.36 181.738 101.861 181.495 102.534L181.319 103.012L180.393 105.453L180.246 105.848L180.099 106.25C179.764 107.172 179.496 107.973 179.263 108.763C178.277 112.103 178.073 114.762 179.011 117.002C180.239 119.932 183.178 121.421 187.611 121.421V117.066C184.774 117.066 183.486 116.414 183.028 115.319C182.576 114.242 182.713 112.455 183.439 109.996C183.677 109.193 183.963 108.353 184.341 107.329L184.636 106.543C184.881 105.899 185.294 104.816 185.442 104.418L185.558 104.104L185.662 103.813C185.914 103.105 186.094 102.538 186.223 102.021L181.998 100.965Z" fill="#EBBAAA"/>
<path d="M216.986 62.3752C216.151 55.3677 213.017 51.8639 212.46 47.1922C212.066 43.8831 212.025 43.0391 221.432 49.9729C230.839 56.9067 232.249 72.119 229.69 85.049L227.321 99.8907L224.417 99.1727L224.033 80.2002C220.111 72.7502 217.821 69.3827 216.986 62.3752Z" fill="#272727"/>
<path d="M147.861 71.3751C148.249 64.3293 148.426 64.6943 148.686 59.9971C148.869 56.6701 150.015 57.3981 144.076 63.4988C140.798 66.8661 142.032 81.3331 142.73 90.7943L143.411 97.4271L144.736 97.5001L145.482 88.7408C147.824 81.2246 147.472 78.4208 147.861 71.3751Z" fill="#272727"/>
<path fill-rule="evenodd" clip-rule="evenodd" d="M186.5 30.9277L186.5 30.9275C186.48 30.9275 186.46 30.9275 186.44 30.9275C186.42 30.9275 186.4 30.9275 186.381 30.9275L186.38 30.9277C173.676 30.9716 143.259 38.0153 142.116 70.979C145.493 66.9185 150.71 65.1475 155.344 62.4977C165.098 56.9197 171.76 56.5 184.63 56.5C197.5 56.5 206.477 58.895 214 62.4977C220.73 65.7202 224.068 66.1757 230.645 70.979C229.502 38.0154 199.203 30.9716 186.5 30.9277Z" fill="#272727"/>
<path d="M184.424 58.6845C198.18 50.7139 204.136 53.2851 208.593 50.714C205.508 49.3427 212.193 39.5442 190.209 44.2861C183.653 45.7003 182.278 53.5422 184.424 58.6845Z" fill="#272727"/>
<path d="M176.798 60.3187C186.054 54.662 190.304 53.5024 194.761 50.9313C191.675 49.56 183.665 45.7291 179.552 49.0202C177.791 51.3169 174.651 55.1762 176.798 60.3187Z" fill="#272727"/>
<path d="M167.424 61.9345C181.18 53.964 189.404 52.3213 193.86 49.7502C190.775 48.3789 195.192 42.7943 173.209 47.5361C166.653 48.9503 165.278 56.7922 167.424 61.9345Z" fill="#272727"/>
<path d="M153.423 40.904L150.816 50.1655L185.183 44.8432L224.459 52.023L224.376 48.2123L221.574 47.0477L221.509 44.0536L217.978 44.1303L217.877 39.503L213.336 39.6017L212.25 36.0851L208.214 36.1728L205.741 32.6863L201.602 33.8656L200.293 31.7154L196.005 31.8087L195.951 29.3589L190.202 31.9348L188.636 29.5179L186.166 32.0225L183.59 29.6276L178.85 32.1815L175.77 29.7976L172.544 32.3186L170.273 32.368L167.798 34.6004L166.742 32.4447L162.554 37.1653L159.755 36.1368L156.212 41.5242L153.423 40.904Z" fill="#272727"/>
<path d="M223.674 52.5764L219.635 51.6243L225.351 71.6411L226.486 95.3651L228.028 95.0726L228.213 93.3386L229.425 93.1086L229.029 91.0214L230.902 90.6661L230.393 87.9826L231.712 87.1144L231.259 84.7291L232.423 83.0411L231.515 80.6649L232.255 79.7524L231.774 77.2179L232.766 77.0299L231.124 73.7891L231.945 72.7066L230.671 71.4039L231.38 69.7249L229.851 67.0806L230.503 65.1034L229.143 63.3536L228.889 62.0119V59.9839L229.851 58.7339L226.139 57.7459L226.268 56.0224L223.709 54.2686L223.674 52.5764Z" fill="#272727"/>
<path d="M149.256 49.8264L153.295 48.8743L146.661 65.5001L143.901 88.2714L142.027 87.9161L142.537 85.2326L141.218 84.3644L141.67 81.9791L140.507 80.2911L141.414 77.9149L140.674 77.0024L141.155 74.4679L140.163 74.2799L141.806 71.0391L140.984 69.9566L142.258 68.6539L141.55 66.9749L143.079 64.3306L142.427 62.3534L143.786 60.6036L144.041 59.2619V57.2339L143.079 55.9839L146.791 54.9959L146.661 53.2725L149.22 51.5185L149.256 49.8264Z" fill="#272727"/>
</svg>
