<svg width="300" height="400" viewBox="0 0 300 400" fill="none" xmlns="http://www.w3.org/2000/svg">
<path d="M160 305.29L160.301 365.54C160.324 369.958 163.923 373.522 168.341 373.5C172.76 373.478 176.323 369.878 176.301 365.46L176 305.21C175.978 300.792 172.378 297.228 167.96 297.25C163.542 297.272 159.978 300.872 160 305.29Z" fill="#EBBAAA"/>
<path d="M123.5 305.25V368.75C123.5 373.168 127.082 376.75 131.5 376.75C135.918 376.75 139.5 373.168 139.5 368.75V305.25C139.5 300.832 135.918 297.25 131.5 297.25C127.082 297.25 123.5 300.832 123.5 305.25Z" fill="#EBBAAA"/>
<path d="M150 270.5C165.878 270.5 178.75 264.624 178.75 257.375C178.75 250.126 165.878 244.25 150 244.25C134.122 244.25 121.25 250.126 121.25 257.375C121.25 264.624 134.122 270.5 150 270.5Z" fill="#E2D3BD"/>
<path d="M149.75 239.75H189.75L182.25 353.75L158.707 356.25L151.729 294.25L149.75 239.75Z" fill="#E2D3BD"/>
<path d="M150.25 239.75H110.25L117.75 353.75L141.293 356.25L148.272 294.25L150.25 239.75Z" fill="#E2D3BD"/>
<path d="M206.469 376.76C206.513 371.715 205.726 371.338 200.736 369.27C195.746 367.203 183.998 363.85 179.912 358.213C179.912 358.213 178.776 358.025 176.929 358.903C175.352 359.65 173.328 361.488 170.274 361.463C166.958 361.433 164.003 360.813 162.166 359.963C161.371 358.053 159.612 358.035 159.612 358.035C159.612 358.035 157.139 362.18 157.103 366.345C157.067 370.51 157.079 377.43 157.079 377.43L206.469 376.76Z" fill="#8D5D42"/>
<path d="M166.276 367.33C165.401 366.818 160.391 364.915 158.152 363.615C157.045 364.425 157.183 369.318 157.158 372.138L168.153 372.745C167.547 370.605 166.568 367.63 166.276 367.33Z" fill="#A87C63"/>
<path d="M194.88 370.355C198.002 370.765 202.001 370.93 202.76 369.91L197.648 368.328L190.922 365.578L189.164 366.458L189.407 367.23L185.636 369.633L187.241 371.955L187.266 371.943C188.498 371.39 191.728 369.938 194.88 370.355Z" fill="#A87C63"/>
<path d="M183.037 364.566C182.897 365.087 183.392 365.554 183.903 365.385L187.209 364.289L187.209 367.377C187.208 367.893 187.763 368.22 188.214 367.969L190.457 366.723L190.457 369.042C190.457 369.416 190.759 369.719 191.133 369.719C191.507 369.719 191.81 369.416 191.81 369.043L191.811 365.573C191.811 365.056 191.257 364.73 190.805 364.981L188.562 366.227L188.563 363.353C188.563 362.891 188.112 362.565 187.674 362.71L184.671 363.705L185.428 360.893C185.576 360.341 185.016 359.865 184.495 360.101L180.868 361.742C180.911 360.716 181.038 360.008 181.335 359.321C181.484 358.978 181.326 358.58 180.983 358.431C180.64 358.283 180.242 358.44 180.093 358.783C179.605 359.91 179.496 360.973 179.495 362.8C179.495 363.291 180.003 363.619 180.451 363.416L183.748 361.924L183.037 364.566Z" fill="#67432F"/>
<path d="M157.188 376.637L157.189 372L196.79 374.757L206.741 373.73L206.947 375.455C207.094 376.682 206.184 377.782 204.951 377.872L196.789 378.452L176.74 377.718L158.271 377.72C157.672 377.72 157.188 377.237 157.188 376.637Z" fill="#67432F"/>
<path d="M93.4167 376.573C93.3727 371.528 94.1596 371.148 99.1494 369.08C104.139 367.015 115.887 363.663 119.973 358.025C119.973 358.025 121.109 357.835 122.957 358.713C124.534 359.463 126.558 361.3 129.611 361.273C132.927 361.245 135.882 360.623 137.719 359.775C138.514 357.863 140.274 357.848 140.274 357.848C140.274 357.848 142.746 361.993 142.783 366.158C142.819 370.323 142.806 377.24 142.806 377.24L93.4167 376.573Z" fill="#8D5D42"/>
<path d="M133.609 367.142C134.484 366.63 139.495 364.727 141.733 363.425C142.84 364.237 142.702 369.127 142.727 371.947L131.732 372.557C132.338 370.415 133.318 367.44 133.609 367.142Z" fill="#A87C63"/>
<path d="M105.005 370.165C101.884 370.578 97.8848 370.74 97.1259 369.723L102.237 368.14L108.964 365.388L110.721 366.27L110.478 367.043L114.249 369.445L112.644 371.765L112.62 371.755C111.387 371.2 108.157 369.75 105.005 370.165Z" fill="#A87C63"/>
<path d="M115.391 359.911C114.87 359.675 114.309 360.151 114.458 360.703L115.215 363.516L112.212 362.522C111.774 362.378 111.322 362.704 111.322 363.165L111.323 366.04L109.08 364.793C108.629 364.543 108.074 364.869 108.075 365.385L108.075 368.855C108.075 369.229 108.378 369.532 108.752 369.532C109.126 369.532 109.429 369.229 109.429 368.855L109.428 366.535L111.671 367.781C112.122 368.032 112.677 367.706 112.677 367.19L112.676 364.102L115.983 365.195C116.494 365.364 116.989 364.897 116.848 364.376L116.137 361.735L119.434 363.229C119.882 363.432 120.39 363.104 120.39 362.612L120.389 362.322L120.386 362.029C120.361 360.547 120.226 359.595 119.792 358.593C119.644 358.25 119.245 358.093 118.902 358.241C118.559 358.39 118.402 358.788 118.55 359.131C118.835 359.788 118.963 360.465 119.012 361.422L119.018 361.554L115.391 359.911Z" fill="#67432F"/>
<path d="M142.698 376.45L142.697 371.81L103.096 374.57L93.1447 373.543L92.9383 375.265C92.7913 376.493 93.701 377.595 94.9348 377.683L103.096 378.263L123.146 377.528L141.615 377.533C142.213 377.533 142.698 377.048 142.698 376.45Z" fill="#67432F"/>
<path d="M178.124 182.342C182.772 190.581 186.529 203.33 188.485 216.766C190.208 228.609 190.191 239.319 188.848 243.223L188.807 243.339C187.061 248.14 189.538 253.447 194.339 255.193C199.14 256.939 204.447 254.462 206.193 249.661C208.897 242.225 208.941 228.87 206.792 214.102C204.534 198.593 200.161 183.755 194.237 173.252C191.727 168.803 186.086 167.231 181.636 169.74C177.187 172.25 175.614 177.892 178.124 182.342Z" fill="#EBBAAA"/>
<path d="M105.759 173.253C99.8349 183.755 95.462 198.594 93.2047 214.102C91.0552 228.87 91.0993 242.226 93.8032 249.662C95.549 254.463 100.856 256.94 105.657 255.194C110.41 253.466 112.885 248.247 111.241 243.484L111.189 243.34C109.806 239.536 109.771 228.73 111.512 216.767C113.467 203.331 117.225 190.581 121.872 182.342C124.382 177.893 122.81 172.251 118.361 169.741C113.911 167.231 108.269 168.803 105.759 173.253Z" fill="#EBBAAA"/>
<rect x="108.25" y="139.75" width="42.5" height="98.2055" rx="21.25" transform="rotate(15 108.25 139.75)" fill="#2D3870"/>
<rect width="42.5" height="98.2055" rx="21.25" transform="matrix(-0.965926 0.258819 0.258819 0.965926 191.802 139.75)" fill="#2D3870"/>
<path d="M201 176.46C198.75 175.375 190.5 177.75 186 180.5V188.46C186 186.86 197.5 183.627 203.25 182.21C203 181.127 202.2 178.46 201 176.46Z" fill="#E8ECF3"/>
<path d="M203.25 182.365C197.875 181.625 191.125 184.75 186.625 187.5C186.625 190.25 188.25 196.465 188.25 194.865C188.25 193.265 199.5 190.281 205.25 188.865C205 187.781 204.45 184.365 203.25 182.365Z" fill="#3D507B"/>
<path d="M99 176.46C101.25 175.375 109.5 177.75 114 180.5V188.46C114 186.86 102.5 183.627 96.75 182.21C97 181.127 97.8 178.46 99 176.46Z" fill="#E8ECF3"/>
<path d="M96.75 182.365C102.125 181.625 108.875 184.75 113.375 187.5C113.375 190.25 111.75 196.465 111.75 194.865C111.75 193.265 100.5 190.281 94.75 188.865C95 187.781 95.55 184.365 96.75 182.365Z" fill="#3D507B"/>
<path d="M212 243.25C213.6 238.65 214 222.5 212 215L183.5 213.75C186.55 223.25 187.05 235.75 189.3 248L189.339 248.002C194.625 248.254 210.005 248.986 212 243.25Z" fill="#2D3870"/>
<path d="M88.1044 243.25C86.5044 238.65 86.1044 222.5 88.1044 215L116.604 213.75C113.554 223.25 113.054 235.75 110.804 248L110.766 248.002C105.479 248.254 90.0995 248.986 88.1044 243.25Z" fill="#2D3870"/>
<path d="M108.054 156.883C107.739 150.534 112.238 144.959 118.511 143.928L150 138.75L181.489 143.928C187.762 144.959 192.261 150.534 191.946 156.883L190 196C190 196 190.78 213.115 191.25 224.5C191.64 233.952 190.485 247.713 190.112 251.808C190.043 252.562 189.636 253.233 188.964 253.583C185.571 255.345 173.627 260.5 150 260.5C126.373 260.5 114.429 255.345 111.036 253.583C110.363 253.233 109.957 252.562 109.888 251.808C109.515 247.713 108.36 233.952 108.75 224.5C109.219 213.115 110 196 110 196L108.054 156.883Z" fill="#455191"/>
<path d="M150 165.75C159.665 165.75 167.5 157.915 167.5 148.25C167.5 138.585 159.665 130.75 150 130.75C140.335 130.75 132.5 138.585 132.5 148.25C132.5 157.915 140.335 165.75 150 165.75Z" fill="#5D6AAF"/>
<path fill-rule="evenodd" clip-rule="evenodd" d="M172.4 195.2V213.7C172.4 227.3 162.3 234.9 150.7 234.9C139.1 234.9 129 227.3 129 213.7V195.2C129 181.6 139.1 174 150.7 174C162.3 174 172.4 181.6 172.4 195.2ZM150.7 223.2C155.8 223.2 159.4 219.6 159.4 213.6V195.4C159.4 189.4 155.8 185.7 150.7 185.7C145.6 185.7 142 189.4 142 195.4V213.6C142 219.6 145.6 223.2 150.7 223.2Z" fill="white"/>
<rect x="138" y="107.25" width="24" height="48.5" rx="12" fill="#EBBAAA"/>
<path opacity="0.5" d="M187.5 103.75C193.023 103.75 197.5 99.2727 197.5 93.75C197.5 88.2273 193.023 83.75 187.5 83.75C181.977 83.75 177.5 88.2273 177.5 93.75C177.5 99.2727 181.977 103.75 187.5 103.75Z" fill="#C99584"/>
<path opacity="0.5" d="M112.5 103.75C106.977 103.75 102.5 99.2727 102.5 93.75C102.5 88.2273 106.977 83.75 112.5 83.75C118.023 83.75 122.5 88.2273 122.5 93.75C122.5 99.2727 118.023 103.75 112.5 103.75Z" fill="#C99584"/>
<rect x="112.5" y="31.75" width="75" height="107.5" rx="37.5" fill="#F4D5CC"/>
<path d="M139.035 113.415L139.122 113.464L139.241 113.528L139.287 113.552C139.458 113.64 139.657 113.736 139.882 113.837C140.505 114.118 141.23 114.394 142.053 114.651C144.369 115.37 147.029 115.8 150 115.8C152.971 115.8 155.631 115.37 157.947 114.651C158.77 114.394 159.495 114.118 160.118 113.837C160.306 113.753 160.475 113.672 160.625 113.597L160.713 113.552C160.825 113.494 160.91 113.448 160.965 113.415C161.885 112.882 162.198 111.705 161.665 110.785C161.143 109.884 160.002 109.564 159.091 110.053L158.982 110.113L158.889 110.161C158.815 110.198 158.716 110.245 158.595 110.301L158.538 110.327C158.054 110.544 157.475 110.766 156.803 110.974C154.848 111.583 152.571 111.95 150 111.95C147.429 111.95 145.152 111.583 143.197 110.974C142.577 110.782 142.035 110.578 141.575 110.377L141.462 110.327C141.23 110.222 141.074 110.144 140.997 110.102L140.965 110.084C140.045 109.551 138.868 109.865 138.334 110.785C137.801 111.705 138.115 112.882 139.035 113.415Z" fill="#C99584"/>
<path d="M188.748 60.3715C188.806 58.8038 187.671 57.5 186.25 57.5C184.776 57.5 183.622 58.8985 183.761 60.5175L186.115 87.9433C186.155 88.4018 186.503 88.75 186.918 88.75C187.353 88.75 187.708 88.3735 187.726 87.897L188.748 60.3715Z" fill="#393939"/>
<path d="M111.252 60.3715C111.194 58.8038 112.329 57.5 113.75 57.5C115.224 57.5 116.378 58.8985 116.238 60.5175L113.885 87.9433C113.845 88.4018 113.497 88.75 113.081 88.75C112.647 88.75 112.292 88.3735 112.273 87.897L111.252 60.3715Z" fill="#393939"/>
<path d="M148.831 48.2948C167.868 48.2948 183.09 48.2428 183.875 62.1563C187.086 66.681 189.097 66.1775 189.847 57.943C192.249 31.5712 165.789 16.6294 147.465 22.5315C147.465 22.5315 129.792 48.2948 148.831 48.2948Z" fill="#393939"/>
<path d="M151.169 48.2948C132.132 48.2948 116.91 48.2428 116.125 62.1563C112.914 66.681 110.902 66.1775 110.152 57.943C107.751 31.5712 134.211 16.6294 152.535 22.5315C152.535 22.5315 170.208 48.2948 151.169 48.2948Z" fill="#393939"/>
<path d="M135.635 53.1133L132.288 44.5658L131 26.25H173.75L161.903 55.25L159.328 50.3657L156.495 53.1133L152.89 47.9237L150.572 53.1133L146.709 50.3657L141.816 53.1133L140.271 50.3657L135.635 53.1133Z" fill="#393939"/>
<path d="M166 81.5H161C159.757 81.5 158.75 82.5074 158.75 83.75C158.75 84.9926 159.757 86 161 86H166C167.243 86 168.25 84.9926 168.25 83.75C168.25 82.5074 167.243 81.5 166 81.5Z" fill="black"/>
<path d="M138.5 81.5H133.5C132.257 81.5 131.25 82.5074 131.25 83.75C131.25 84.9926 132.257 86 133.5 86H138.5C139.743 86 140.75 84.9926 140.75 83.75C140.75 82.5074 139.743 81.5 138.5 81.5Z" fill="black"/>
<path d="M160.804 70.9913L170.804 71.8663C172.042 71.9746 173.133 71.0589 173.241 69.821C173.35 68.5831 172.434 67.4918 171.196 67.3835L161.196 66.5085C159.958 66.4001 158.867 67.3159 158.758 68.5538C158.65 69.7917 159.566 70.883 160.804 70.9913Z" fill="#393939"/>
<path d="M138.304 66.5085L128.304 67.3835C127.066 67.4918 126.15 68.5831 126.258 69.821C126.367 71.0589 127.458 71.9746 128.696 71.8663L138.696 70.9913C139.934 70.883 140.85 69.7917 140.741 68.5538C140.633 67.3159 139.542 66.4001 138.304 66.5085Z" fill="#393939"/>
<path d="M148.232 90.0713C146.593 92.5299 145.375 96.0312 145.375 98.9063C145.375 103.075 147.864 105.875 152.5 105.875V101.625C150.33 101.625 149.625 100.832 149.625 98.9063C149.625 96.9376 150.566 94.2315 151.768 92.4288L148.232 90.0713Z" fill="#EBBAAA"/>
</svg>
