<svg width="300" height="400" viewBox="0 0 300 400" fill="none" xmlns="http://www.w3.org/2000/svg">
<path d="M162.667 303V360C162.667 363.038 165.13 365.5 168.167 365.5C171.205 365.5 173.667 363.038 173.667 360V303C173.667 299.962 171.205 297.5 168.167 297.5C165.13 297.5 162.667 299.962 162.667 303Z" fill="#EBBAAA"/>
<path d="M125.667 303V364.375C125.667 367.413 128.13 369.875 131.167 369.875C134.205 369.875 136.667 367.413 136.667 364.375V303C136.667 299.962 134.205 297.5 131.167 297.5C128.13 297.5 125.667 299.962 125.667 303Z" fill="#EBBAAA"/>
<path d="M161.417 361.955C161.417 361.955 161.542 353.688 162.165 354.313C162.789 354.94 165.655 356.568 169.522 356.568C173.387 356.568 175.756 355.19 176.629 354.313C177.502 353.438 178.313 361.955 178.313 361.955H161.417Z" fill="#DCE1E9"/>
<path d="M138.563 362.705C138.563 362.705 138.438 354.438 137.815 355.063C137.192 355.69 134.326 357.318 130.459 357.318C126.593 357.318 124.224 355.94 123.352 355.063C122.479 354.188 121.667 362.705 121.667 362.705H138.563Z" fill="#DCE1E9"/>
<path d="M149.667 271.5C165.545 271.5 178.417 265.624 178.417 258.375C178.417 251.126 165.545 245.25 149.667 245.25C133.789 245.25 120.917 251.126 120.917 258.375C120.917 265.624 133.789 271.5 149.667 271.5Z" fill="#416E97"/>
<path d="M149.417 240.75H186.917L181.917 351.5H158.374L149.417 240.75Z" fill="#416E97"/>
<path d="M149.917 240.75H112.417L117.417 351.5H140.96L149.917 240.75Z" fill="#416E97"/>
<path d="M160.397 361.647C160.397 361.647 160.521 353.38 161.145 354.005C161.768 354.632 164.634 356.26 168.501 356.26C172.366 356.26 174.735 354.882 175.608 354.007C176.481 353.13 177.292 361.647 177.292 361.647H160.397Z" fill="#DCE1E9"/>
<path d="M202.54 375.803C203.018 374.72 202.974 373.62 202.706 373.215C202.438 372.813 169.891 370.255 169.891 370.255C164.489 369.853 153.459 367.335 152.719 370.255C150.196 380.213 156.9 380.213 161.186 380.213C167.079 380.213 167.779 378.645 171.632 379.135C173.641 379.393 176.588 380.75 190.115 380.75C200.965 380.75 201.468 378.225 202.54 375.803Z" fill="#5B5D60"/>
<path d="M160.537 354.785L160.521 354.758C160.521 354.758 159.773 353.758 158.651 354.508C157.529 355.26 156.805 356.98 156.202 359.713C155.398 363.355 154.719 362.833 153.915 366.215C153.358 368.558 153.245 372.07 154.585 374.02C156.666 377.05 159.275 376.753 163.697 376.753C166.243 376.753 170.531 376.103 174.417 377.143C179.842 378.595 194.785 379.353 198.537 378.183C204.931 376.188 202.959 370.378 200.279 368.168C195.576 364.285 184.758 365.42 182.466 362.4C180.59 359.928 179.707 355.723 179.043 353.858C178.293 351.753 176.023 351.265 176.293 353.858C176.543 356.263 175.757 359.843 168.923 359.713C163.469 359.608 162.668 358.29 160.537 354.785Z" fill="#393939"/>
<mask id="mask0_0_9560" style="mask-type:luminance" maskUnits="userSpaceOnUse" x="153" y="350" width="50" height="30">
<path fill-rule="evenodd" clip-rule="evenodd" d="M168.931 360.04C163.466 359.932 161.654 356.407 161.431 354.657H158.053C157.785 355.062 157.48 356.005 156.877 358.83C156.074 362.597 154.734 363.27 153.93 366.767C153.374 369.19 153.261 372.822 154.6 374.842C156.68 377.977 159.288 377.667 163.708 377.667C166.253 377.667 170.538 376.995 174.422 378.07C179.845 379.575 194.78 380.357 198.531 379.147C204.922 377.085 203.207 370.667 200.42 368.287C195.719 364.272 184.749 365.285 182.458 362.16C180.583 359.605 179.188 353.515 177.844 352.015C175.434 349.322 175.865 351.377 176.298 353.985C176.833 357.215 175.762 360.175 168.931 360.04Z" fill="white"/>
</mask>
<g mask="url(#mask0_0_9560)">
<path d="M196.947 372.948C199.412 372.948 203.543 370.428 203.543 369.665C203.721 372.043 203.775 376.908 202.168 378.308C200.159 380.058 181.545 380.348 179.536 379.54C177.527 378.733 177.168 377.555 180.668 378.183C182.682 378.543 188.777 376.31 190.92 374.695C193.063 373.08 193.867 372.948 196.947 372.948Z" fill="#5B5D60"/>
<path opacity="0.5" d="M168.646 367.945C170.371 368.415 171.762 368.352 172.55 367.753C174.579 366.19 173.28 363.808 172.729 362.875C173.721 364.018 174.707 365.165 175.476 366.415C176.689 368.367 177.204 370.513 176.385 371.885C174.918 374.365 171.391 373.22 169.143 372.222L148.283 362.968L168.646 367.945Z" fill="#7F8389"/>
</g>
<path d="M182.177 366.595C182.133 367.18 182.71 367.614 183.261 367.41L188.554 365.445L189.426 369.384C189.545 369.92 190.154 370.183 190.626 369.901L195.581 366.941C195.963 366.713 196.088 366.219 195.86 365.837C195.632 365.455 195.137 365.33 194.755 365.558L190.758 367.946L189.928 364.193C189.822 363.716 189.319 363.442 188.861 363.612L183.877 365.462L184.185 361.332C184.229 360.75 183.658 360.316 183.108 360.515L177.454 362.557C177.035 362.708 176.819 363.17 176.97 363.589C177.121 364.007 177.583 364.224 178.001 364.073L182.486 362.453L182.177 366.595Z" fill="#2A2A2A"/>
<path d="M138.688 361.647C138.688 361.647 138.563 353.38 137.94 354.005C137.317 354.632 134.451 356.26 130.584 356.26C126.718 356.26 124.349 354.882 123.477 354.007C122.604 353.13 121.792 361.647 121.792 361.647H138.688Z" fill="#DCE1E9"/>
<path d="M96.5452 375.803C96.0665 374.72 96.1109 373.62 96.3789 373.215C96.647 372.813 129.194 370.255 129.194 370.255C134.596 369.853 145.626 367.335 146.366 370.255C148.889 380.213 142.185 380.213 137.899 380.213C132.005 380.213 131.306 378.645 127.453 379.135C125.444 379.393 122.497 380.75 108.97 380.75C98.1203 380.75 97.6167 378.225 96.5452 375.803Z" fill="#5B5D60"/>
<path d="M138.548 354.785L138.563 354.758C138.563 354.758 139.312 353.758 140.434 354.508C141.556 355.26 142.28 356.98 142.883 359.713C143.688 363.355 144.366 362.833 145.17 366.215C145.727 368.558 145.84 372.07 144.5 374.02C142.419 377.05 139.81 376.753 135.388 376.753C132.842 376.753 128.554 376.103 124.668 377.143C119.243 378.595 104.301 379.353 100.548 378.183C94.1543 376.188 96.1265 370.378 98.8061 368.168C103.509 364.285 114.327 365.42 116.619 362.4C118.495 359.928 119.378 355.723 120.042 353.858C120.792 351.753 123.062 351.265 122.792 353.858C122.542 356.263 123.328 359.843 130.162 359.713C135.616 359.608 136.417 358.29 138.548 354.785Z" fill="#393939"/>
<mask id="mask1_0_9560" style="mask-type:luminance" maskUnits="userSpaceOnUse" x="96" y="350" width="50" height="30">
<path fill-rule="evenodd" clip-rule="evenodd" d="M130.154 360.04C135.619 359.932 137.431 356.407 137.654 354.657H141.032C141.3 355.062 141.605 356.005 142.208 358.83C143.011 362.597 144.351 363.27 145.155 366.767C145.711 369.19 145.824 372.822 144.485 374.842C142.405 377.977 139.797 377.667 135.377 377.667C132.832 377.667 128.547 376.995 124.663 378.07C119.24 379.575 104.304 380.357 100.554 379.147C94.1629 377.085 95.8783 370.667 98.6649 368.287C103.366 364.272 114.336 365.285 116.627 362.16C118.502 359.605 119.897 353.515 121.241 352.015C123.651 349.322 123.22 351.377 122.787 353.985C122.252 357.215 123.323 360.175 130.154 360.04Z" fill="white"/>
</mask>
<g mask="url(#mask1_0_9560)">
<path d="M102.138 372.948C99.6733 372.948 95.5424 370.428 95.5424 369.665C95.3638 372.043 95.3102 376.908 96.9174 378.308C98.9265 380.058 117.54 380.348 119.549 379.54C121.558 378.733 121.917 377.555 118.417 378.183C116.403 378.543 110.308 376.31 108.165 374.695C106.022 373.08 105.218 372.948 102.138 372.948Z" fill="#5B5D60"/>
<path opacity="0.5" d="M130.439 367.945C128.713 368.415 127.323 368.352 126.535 367.753C124.506 366.19 125.805 363.808 126.356 362.875C125.364 364.018 124.378 365.165 123.609 366.415C122.396 368.367 121.881 370.513 122.699 371.885C124.167 374.365 127.693 373.22 129.941 372.222L150.802 362.968L130.439 367.945Z" fill="#7F8389"/>
</g>
<path d="M110.224 363.612C109.766 363.442 109.263 363.716 109.157 364.193L108.327 367.946L104.33 365.558C103.948 365.33 103.453 365.455 103.225 365.837C102.997 366.219 103.121 366.713 103.503 366.941L108.459 369.901C108.931 370.183 109.54 369.92 109.659 369.384L110.531 365.445L115.824 367.41C116.375 367.614 116.952 367.18 116.908 366.595L116.599 362.453L121.084 364.073C121.502 364.224 121.964 364.007 122.115 363.589C122.266 363.17 122.05 362.708 121.631 362.557L115.977 360.515C115.427 360.316 114.856 360.75 114.9 361.332L115.208 365.462L110.224 363.612Z" fill="#2A2A2A"/>
<path d="M173.205 173.544C177.876 181.825 182.384 194.841 185.258 207.991L185.345 208.39C186.706 214.694 187.598 220.631 187.922 225.511C188.079 227.87 188.098 229.921 187.987 231.58C187.94 232.277 187.872 232.885 187.787 233.391L187.767 233.506C187.7 233.879 187.632 234.151 187.579 234.307L187.568 234.339C185.822 239.14 188.299 244.447 193.1 246.193C197.901 247.939 203.208 245.462 204.954 240.661C207.666 233.204 206.794 220.072 203.428 204.485C200.196 189.523 195.06 174.635 189.318 164.455C186.808 160.005 181.166 158.433 176.716 160.943C172.267 163.453 170.695 169.095 173.205 173.544Z" fill="#EBBAAA"/>
<path d="M111.407 164.455C105.664 174.635 100.528 189.523 97.297 204.485C93.9307 220.072 93.059 233.204 95.7705 240.661C97.5163 245.462 102.824 247.939 107.625 246.193C112.378 244.464 114.853 239.245 113.208 234.483L113.157 234.339C113.103 234.19 113.029 233.906 112.958 233.506C112.864 232.977 112.788 232.331 112.738 231.58C112.627 229.921 112.646 227.87 112.803 225.511C113.127 220.631 114.019 214.694 115.38 208.39C118.249 195.105 122.802 181.909 127.52 173.544C130.03 169.095 128.458 163.453 124.008 160.943C119.559 158.433 113.917 160.005 111.407 164.455Z" fill="#EBBAAA"/>
<rect x="108.167" y="137" width="42.5" height="98.2055" rx="21.25" transform="rotate(15 108.167 137)" fill="#393939"/>
<rect width="42.5" height="98.2055" rx="21.25" transform="matrix(-0.965926 0.258819 0.258819 0.965926 191.719 137)" fill="#393939"/>
<path d="M112.667 148.75H145H187.667V234.75H112.667V148.75Z" fill="white"/>
<path d="M192.393 152.17C192.553 147.417 189.342 143.208 184.715 142.107L167.581 138.027C164.189 137.22 160.865 139.592 160.526 143.062L155.917 190.25L150 222.75V246.5L156.667 251.75H189.972C191.427 251.75 192.574 250.513 192.465 249.062L190.167 218.5L192.393 152.17Z" fill="#494949"/>
<path d="M107.942 152.17C107.782 147.417 110.993 143.208 115.62 142.107L132.754 138.027C136.145 137.22 139.469 139.592 139.808 143.062L144.417 190.25L150 222.75V246.5L143.667 251.75H110.362C108.908 251.75 107.76 250.513 107.869 249.062L110.167 218.5L107.942 152.17Z" fill="#494949"/>
<path d="M140.667 127.228C140.667 121.993 144.933 117.75 150.167 117.75C155.402 117.75 159.667 121.993 159.667 127.228V145.143C159.667 146.043 159.539 146.938 159.287 147.802L150.167 179L141.048 147.802C140.796 146.938 140.667 146.043 140.667 145.143V127.228Z" fill="#EBBAAA"/>
<path d="M152.667 154.25L159.667 132L168.667 137.25L170.417 168.5L152.667 154.25Z" fill="white"/>
<path d="M147.667 154.25L140.667 132L131.667 137.25L129.917 168.5L147.667 154.25Z" fill="white"/>
<path opacity="0.5" d="M187.667 101.5C193.19 101.5 197.667 97.0227 197.667 91.5C197.667 85.9773 193.19 81.5 187.667 81.5C182.144 81.5 177.667 85.9773 177.667 91.5C177.667 97.0227 182.144 101.5 187.667 101.5Z" fill="#C99584"/>
<path opacity="0.5" d="M112.667 101.5C107.144 101.5 102.667 97.0227 102.667 91.5C102.667 85.9773 107.144 81.5 112.667 81.5C118.19 81.5 122.667 85.9773 122.667 91.5C122.667 97.0227 118.19 101.5 112.667 101.5Z" fill="#C99584"/>
<path d="M112.667 62C112.667 41.2893 129.457 24.5 150.167 24.5C170.878 24.5 187.667 41.2893 187.667 62V110.491C187.667 115.871 184.224 120.648 179.12 122.349L163.987 127.393C155.017 130.383 145.318 130.383 136.347 127.393L121.214 122.349C116.11 120.648 112.667 115.871 112.667 110.491V62Z" fill="#F4D5CC"/>
<path fill-rule="evenodd" clip-rule="evenodd" d="M155.667 75.5C154.425 75.5 153.417 76.5073 153.417 77.75V84.75C153.417 87.6494 155.768 90 158.667 90H176.167C179.067 90 181.417 87.6494 181.417 84.75V77.75C181.417 76.5073 180.41 75.5 179.167 75.5H155.667ZM158.667 87C157.425 87 156.417 85.9926 156.417 84.75V78.5H178.417V84.75C178.417 85.9926 177.41 87 176.167 87H158.667Z" fill="#393939"/>
<path fill-rule="evenodd" clip-rule="evenodd" d="M120.667 75.5C119.425 75.5 118.417 76.5073 118.417 77.75V84.5C118.417 87.3994 120.768 89.75 123.667 89.75H141.167C144.067 89.75 146.417 87.3994 146.417 84.5V77.75C146.417 76.5073 145.41 75.5 144.167 75.5H120.667ZM121.417 84.5V78.5H143.417V84.5C143.417 85.7426 142.41 86.75 141.167 86.75H123.667C122.425 86.75 121.417 85.7426 121.417 84.5Z" fill="#393939"/>
<path d="M188.915 58.1215C188.973 56.5538 187.838 55.25 186.417 55.25C184.943 55.25 183.789 56.6485 183.929 58.2675L186.283 85.6933C186.322 86.1518 186.67 86.5 187.086 86.5C187.52 86.5 187.875 86.1235 187.894 85.647L188.915 58.1215Z" fill="#6E6C6C"/>
<path d="M111.419 58.1215C111.361 56.5538 112.497 55.25 113.917 55.25C115.391 55.25 116.545 56.6485 116.406 58.2675L114.052 85.6933C114.013 86.1518 113.664 86.5 113.249 86.5C112.815 86.5 112.459 86.1235 112.441 85.647L111.419 58.1215Z" fill="#6E6C6C"/>
<path d="M148.999 46.0448C168.036 46.0448 183.257 45.9928 184.042 59.9063C187.254 64.431 189.265 63.9275 190.015 55.693C192.416 29.3212 165.957 14.3794 147.632 20.2815C147.632 20.2815 129.959 46.0448 148.999 46.0448Z" fill="#393939"/>
<path d="M151.336 46.0448C132.299 46.0448 117.077 45.9928 116.292 59.9063C113.081 64.431 111.07 63.9275 110.32 55.693C107.919 29.3212 134.378 14.3794 152.702 20.2815C152.702 20.2815 170.375 46.0448 151.336 46.0448Z" fill="#393939"/>
<path d="M121.652 51.3505V47.31L114.917 51.3505V43L152.629 45.155L148.05 50.8117L144.279 49.7343L139.43 51.3505L137.545 48.3875L132.696 51.3505V47.31L125.962 51.3505V47.31L121.652 51.3505Z" fill="#393939"/>
<path d="M156.902 51.1005V47.06L150.167 51.1005V42.75L187.879 44.905L183.3 50.5617L179.529 49.4843L174.68 51.1005L172.795 48.1375L167.946 51.1005V47.06L161.212 51.1005V47.06L156.902 51.1005Z" fill="#393939"/>
<path d="M168.667 79.25H163.667C162.425 79.25 161.417 80.2574 161.417 81.5C161.417 82.7426 162.425 83.75 163.667 83.75H168.667C169.91 83.75 170.917 82.7426 170.917 81.5C170.917 80.2574 169.91 79.25 168.667 79.25Z" fill="black"/>
<path d="M136.167 79.25H131.167C129.925 79.25 128.917 80.2574 128.917 81.5C128.917 82.7426 129.925 83.75 131.167 83.75H136.167C137.41 83.75 138.417 82.7426 138.417 81.5C138.417 80.2574 137.41 79.25 136.167 79.25Z" fill="black"/>
<path d="M161.036 68.7462L176.036 69.6212C177.277 69.6936 178.341 68.7466 178.414 67.5061C178.486 66.2656 177.539 65.2013 176.298 65.1289L161.298 64.2539C160.058 64.1815 158.994 65.1285 158.921 66.369C158.849 67.6096 159.796 68.6739 161.036 68.7462Z" fill="#393939"/>
<path d="M138.536 64.2539L123.536 65.1289C122.296 65.2013 121.349 66.2656 121.421 67.5061C121.494 68.7466 122.558 69.6936 123.798 69.6212L138.798 68.7462C140.039 68.6739 140.986 67.6096 140.914 66.369C140.841 65.1285 139.777 64.1815 138.536 64.2539Z" fill="#393939"/>
<path d="M150.193 91.9811C150.513 91.5206 150.971 91.0538 151.442 90.7L148.892 87.3C146.991 88.7262 145.542 90.8083 145.542 92.8282C145.542 94.3195 146.323 95.6036 147.719 96.3893C148.917 97.0627 150.549 97.375 152.667 97.375V93.125C151.272 93.125 150.337 92.9566 149.859 92.7151L149.817 92.6929C149.866 92.5287 149.988 92.2759 150.193 91.9811Z" fill="#EBBAAA"/>
<path fill-rule="evenodd" clip-rule="evenodd" d="M136.167 99.25V104.201C136.167 111.823 142.325 118 149.917 118C157.512 118 163.667 111.823 163.667 104.201V99.25H136.167Z" fill="#393939"/>
<mask id="mask2_0_9560" style="mask-type:luminance" maskUnits="userSpaceOnUse" x="136" y="99" width="28" height="19">
<path fill-rule="evenodd" clip-rule="evenodd" d="M136.19 99.25C136.175 99.5053 136.167 99.7628 136.167 100.02V104.842C136.167 112.11 142.325 118 149.917 118C157.512 118 163.667 112.11 163.667 104.842V100.02C163.667 99.7628 163.66 99.5053 163.645 99.25H136.19Z" fill="white"/>
</mask>
<g mask="url(#mask2_0_9560)">
<path d="M149.917 121.75C154.059 121.75 157.417 119.735 157.417 117.25C157.417 114.765 154.059 112.75 149.917 112.75C145.775 112.75 142.417 114.765 142.417 117.25C142.417 119.735 145.775 121.75 149.917 121.75Z" fill="#FF6C6C"/>
</g>
<rect x="136.167" y="99.25" width="27.5" height="5" fill="white"/>
<rect x="143.917" y="79" width="12.5" height="2.5" fill="#393939"/>
</svg>
