<svg width="300" height="400" viewBox="0 0 300 400" fill="none" xmlns="http://www.w3.org/2000/svg">
<path d="M131.065 254.527C130.6 257.449 128.171 263.875 122.181 266.212" stroke="#0036A2" stroke-width="1.25" stroke-linecap="round"/>
<path d="M113.679 297.329V279.929L151.624 254.273L159.873 266.593L133.857 297.329H113.679Z" fill="#020202"/>
<path d="M106.064 246.399L116.597 239.159L149.721 237L134.999 265.45L109.364 300.123L101.749 294.027L93.5001 291.867L101.749 268.371L109.018 259.018L106.064 246.399Z" fill="#10171B"/>
<path fill-rule="evenodd" clip-rule="evenodd" d="M112.023 242.431L106.064 246.526L108.448 256.71L115.075 250.336L112.023 242.431ZM121.267 284.151L117.993 281.453L110.76 290.851L112.185 296.435L121.267 284.151ZM100.232 293.757L105.303 287.93L101.749 281.453L96.3091 283.994L93.5001 291.995L100.232 293.757ZM102.109 268.035L110.76 263.037L107.518 261.075L102.109 268.035Z" fill="#312E2A"/>
<path d="M108.602 276.373L120.532 260.497L129.161 265.45L123.07 293.265L108.602 276.373Z" fill="#312E2A"/>
<path d="M159.018 257.276L159.043 257.4C161.748 270.47 161.578 332.082 159.039 351.056L158.961 351.618C158.367 355.781 161.262 359.638 165.428 360.233C169.595 360.827 173.455 357.934 174.05 353.771C175.334 344.783 176.161 324.959 176.244 303.786L176.246 303.144C176.318 280.551 175.552 261.968 173.968 254.316C173.116 250.197 169.084 247.549 164.962 248.4C160.882 249.244 158.244 253.201 159.018 257.276Z" fill="#F6DDD6"/>
<path d="M127.321 253.095C125.753 260.671 124.987 279.002 125.041 301.348L125.043 302.026C125.112 323.496 125.943 343.678 127.24 352.755C127.835 356.919 131.695 359.812 135.861 359.217C140.028 358.623 142.923 354.766 142.328 350.603C139.741 332.499 139.519 270.637 142.166 256.59L142.247 256.179C143.099 252.061 140.449 248.032 136.327 247.18C132.206 246.329 128.173 248.977 127.321 253.095Z" fill="#F6DDD6"/>
<path d="M172.746 270.052L127.52 264.914L117.755 240.25L178.913 242.819L172.746 270.052Z" fill="#617EAC"/>
<path d="M122.118 337.591H145.759L144.988 348.638H124.045L122.118 337.591Z" fill="#6A8AB9"/>
<path d="M155.267 337.591H180.192L177.879 348.638H155.78L155.267 337.591Z" fill="#6A8AB9"/>
<path d="M98.3673 371.491C98.3164 365.665 99.1106 362.122 104.178 359.741C109.246 357.36 114.019 352.783 122.787 348.859C122.787 348.859 123.941 348.643 125.819 349.659C127.422 350.524 129.481 352.649 132.584 352.623C135.953 352.593 138.955 351.88 140.82 350.902C141.626 348.696 143.414 348.679 143.414 348.679C143.414 348.679 145.931 353.469 145.973 358.276C146.015 363.086 146.011 371.074 146.011 371.074L98.3673 371.491Z" fill="#CE604D"/>
<path d="M117.389 350.86C116.859 350.626 116.295 351.113 116.449 351.671L117.21 354.429L114.16 353.446C113.716 353.303 113.261 353.634 113.261 354.1V356.932L110.976 355.694C110.518 355.446 109.961 355.778 109.961 356.299V359.733C109.961 360.112 110.269 360.42 110.648 360.42C111.028 360.42 111.336 360.112 111.336 359.733V357.452L113.621 358.69C114.079 358.938 114.636 358.606 114.636 358.086V355.044L118.001 356.128C118.521 356.295 119.02 355.818 118.875 355.291L118.16 352.701L121.51 354.178C121.964 354.379 122.475 354.046 122.475 353.55L122.474 353.289L122.472 353.01C122.461 352.203 122.419 351.656 122.301 351.014C122.204 350.487 122.062 350.003 121.866 349.562C121.711 349.215 121.305 349.059 120.958 349.213C120.611 349.367 120.455 349.773 120.609 350.12C120.758 350.455 120.87 350.837 120.948 351.262C121.014 351.62 121.053 351.95 121.075 352.339L121.082 352.488L117.389 350.86Z" fill="#B14432"/>
<path d="M100.285 360.187C101.839 359.624 103.486 359.197 106.643 358.481L105.301 362.342L105.34 366.739L96.3542 366.817C95.9875 366.82 95.3323 366.332 95.645 364.35C96.036 361.873 98.0753 360.987 100.285 360.187Z" fill="#EF8F83"/>
<path d="M146.161 370.323L145.901 365.698L105.611 366.325L95.5653 365.586L95.2584 369.135C95.1525 370.358 96.0717 371.432 97.2988 371.518L105.661 372.095L145.08 371.485C145.705 371.475 146.196 370.947 146.161 370.323Z" fill="#7C3524"/>
<path d="M202.427 371.998C202.478 366.173 201.684 362.629 196.616 360.248C191.549 357.868 186.775 353.291 178.008 349.367C178.008 349.367 176.854 349.151 174.975 350.166C173.373 351.032 171.313 353.156 168.211 353.131C164.842 353.101 161.84 352.387 159.974 351.41C159.169 349.204 157.381 349.187 157.381 349.187C157.381 349.187 154.864 353.976 154.822 358.784C154.78 363.594 154.784 371.582 154.784 371.582L202.427 371.998Z" fill="#CE604D"/>
<path d="M181.92 355.799C181.775 356.326 182.273 356.803 182.794 356.635L186.158 355.552V358.593C186.158 359.114 186.715 359.445 187.174 359.197L189.459 357.96V360.241C189.459 360.62 189.767 360.928 190.146 360.928C190.526 360.928 190.834 360.62 190.834 360.241V356.806C190.834 356.286 190.277 355.954 189.819 356.202L187.534 357.44V354.608C187.534 354.142 187.079 353.811 186.635 353.954L183.585 354.937L184.346 352.179C184.5 351.621 183.936 351.134 183.406 351.368L179.713 352.995C179.733 352.54 179.773 352.172 179.847 351.77C179.925 351.344 180.037 350.963 180.186 350.628C180.34 350.281 180.184 349.875 179.837 349.721C179.49 349.567 179.084 349.723 178.929 350.07C178.733 350.511 178.591 350.995 178.494 351.522L178.462 351.705L178.434 351.886C178.342 352.514 178.32 353.113 178.32 354.057C178.32 354.554 178.83 354.886 179.285 354.686L182.635 353.209L181.92 355.799Z" fill="#B14432"/>
<path d="M200.51 360.695C198.956 360.131 197.309 359.705 194.152 358.989L195.493 362.85L195.455 367.246L204.441 367.325C204.807 367.328 205.463 366.84 205.15 364.858C204.759 362.38 202.719 361.495 200.51 360.695Z" fill="#EF8F83"/>
<path d="M154.633 370.831L154.894 366.206L195.184 366.833L205.229 366.094L205.537 369.643C205.642 370.866 204.723 371.94 203.496 372.026L195.133 372.602L155.715 371.993C155.09 371.983 154.598 371.455 154.633 370.831Z" fill="#7C3524"/>
<path d="M147.962 246.286L184.937 243.674L178.445 339.876L156.472 338.861L155.666 290.417L147.962 246.286Z" fill="#617EAC"/>
<path d="M114.812 241.389L148.077 246.93L143.966 295.854L145.041 339.749L123.322 338.86L114.812 241.389Z" fill="#617EAC"/>
<path d="M106.723 163.773C101.028 174.921 96.0494 189.033 94.31 201.392C93.2985 208.579 95.9998 215.194 101.275 221.357C104.824 225.503 109.353 229.305 115.493 233.661L116.109 234.095L116.967 234.688C119.783 236.626 125.506 240.501 127.374 241.831L127.675 242.048C131.866 245.114 137.749 244.203 140.816 240.013C143.883 235.823 142.971 229.941 138.78 226.875L138.505 226.676C136.072 224.931 128.216 219.628 126.626 218.505L126.179 218.187L125.732 217.868C121.088 214.535 117.792 211.737 115.563 209.132C113.471 206.689 112.79 205.021 112.932 204.011C114.347 193.963 118.654 181.755 123.471 172.325C125.833 167.701 123.999 162.039 119.374 159.677C114.75 157.315 109.086 159.149 106.723 163.773Z" fill="#EBBAAA"/>
<path d="M176.754 175.434C181.696 184.193 185.081 194.683 186.956 207.034C187.546 210.919 181.851 216.859 169.541 223.967L168.325 224.663C166.217 225.861 164.602 226.729 160.531 228.871L157.129 230.66L155.762 231.385C152.755 232.99 150.974 234.01 149.297 235.108C144.952 237.952 143.736 243.779 146.581 248.123C149.397 252.423 155.137 253.658 159.468 250.922L159.877 250.658L160.196 250.458C161.469 249.669 163.23 248.699 166.272 247.095L171.002 244.607L172.334 243.901C174.807 242.588 176.207 241.816 178.141 240.711L178.519 240.495C186.351 236.005 192.354 231.757 196.942 227.008C203.489 220.231 206.824 212.611 205.549 204.213C203.348 189.717 199.266 177.064 193.133 166.196C190.582 161.674 184.847 160.076 180.324 162.627C175.8 165.178 174.202 170.912 176.754 175.434Z" fill="#EBBAAA"/>
<path d="M128.399 150.981C128.399 147.201 131.464 144.136 135.245 144.136H163.485C167.266 144.136 170.331 147.201 170.331 150.981C170.331 160.952 162.246 169.036 152.272 169.036H146.458C136.484 169.036 128.399 160.952 128.399 150.981Z" fill="#EBBAAA"/>
<path d="M197.269 157.73C195.846 156.002 194.728 154.977 194.346 154.808L184.054 155.062L177.955 196.985L211.5 189.108C208.07 177.802 198.692 159.457 197.269 157.73Z" fill="black"/>
<path d="M104.638 157.475C105.553 156.459 107.306 155.189 108.068 154.935L119.504 166.368V196.477L88.6273 188.346C94.2182 178.733 103.723 158.492 104.638 157.475Z" fill="black"/>
<path d="M107.814 154.935C109.237 153.41 121.622 148.117 127.637 145.661L145.68 149.853L170.458 145.661C177.658 147.566 191.551 152.648 194.092 154.426C195.815 155.632 190.153 156.713 189.645 162.176C189.012 168.976 182.91 192.284 182.91 198.128C182.91 218.073 186.087 246.657 184.816 250.341C184.575 251.042 167.833 252.737 149.619 252.882C137.287 252.98 123.902 250.06 114.549 250.214C112.77 228.236 117.972 197.299 116.074 182.375C113.278 160.397 106.035 156.84 107.814 154.935Z" fill="#0C0F10"/>
<path d="M124.079 152.378C124.079 147.826 127.769 144.136 132.322 144.136H166.408C170.96 144.136 174.651 147.826 174.651 152.378C174.651 164.384 164.916 174.118 152.907 174.118H145.823C133.814 174.118 124.079 164.384 124.079 152.378Z" fill="#1E2529"/>
<path d="M130.178 150.422C130.178 146.951 132.993 144.136 136.465 144.136H162.264C165.737 144.136 168.552 146.951 168.552 150.422C168.552 159.58 161.127 167.003 151.968 167.003H146.762C137.603 167.003 130.178 159.58 130.178 150.422Z" fill="#EBBAAA"/>
<path fill-rule="evenodd" clip-rule="evenodd" d="M134.388 184.11C134.388 181.791 132.703 179.571 129.571 179.571H123.981V193.682H127.45V188.648H129.571C132.703 188.648 134.388 186.428 134.388 184.11ZM130.919 184.109C130.919 184.843 130.364 185.536 129.412 185.536H127.45V182.682H129.412C130.364 182.682 130.919 183.376 130.919 184.109ZM146.875 188.727V179.571H143.406V188.648C143.406 189.956 142.653 190.709 141.503 190.709C140.353 190.709 139.64 189.956 139.64 188.648V179.571H136.171V188.727C136.171 191.818 138.569 193.8 141.503 193.8C144.437 193.8 146.875 191.818 146.875 188.727ZM162.657 193.681V179.571H159.247L156.076 185.794L152.904 179.571H149.495V193.681H152.964V186.923L154.966 190.411H157.186L159.188 186.923V193.681H162.657ZM177.02 193.681L171.886 179.571H169.21L164.076 193.681H167.704L168.398 191.581H172.739L173.393 193.681H177.02ZM171.827 188.687H169.369L170.638 184.922L171.827 188.687Z" fill="#598CBD"/>
<mask id="mask0_0_9634" style="mask-type:luminance" maskUnits="userSpaceOnUse" x="123" y="179" width="55" height="15">
<path fill-rule="evenodd" clip-rule="evenodd" d="M134.388 184.11C134.388 181.791 132.703 179.571 129.571 179.571H123.981V193.682H127.45V188.648H129.571C132.703 188.648 134.388 186.428 134.388 184.11ZM130.919 184.109C130.919 184.843 130.364 185.536 129.412 185.536H127.45V182.682H129.412C130.364 182.682 130.919 183.376 130.919 184.109ZM146.875 188.727V179.571H143.406V188.648C143.406 189.956 142.653 190.709 141.503 190.709C140.353 190.709 139.64 189.956 139.64 188.648V179.571H136.171V188.727C136.171 191.818 138.569 193.8 141.503 193.8C144.437 193.8 146.875 191.818 146.875 188.727ZM162.657 193.681V179.571H159.247L156.076 185.794L152.904 179.571H149.495V193.681H152.964V186.923L154.966 190.411H157.186L159.188 186.923V193.681H162.657ZM177.02 193.681L171.886 179.571H169.21L164.076 193.681H167.704L168.398 191.581H172.739L173.393 193.681H177.02ZM171.827 188.687H169.369L170.638 184.922L171.827 188.687Z" fill="white"/>
</mask>
<g mask="url(#mask0_0_9634)">
<path d="M156.452 156.759L160.367 148.55H150.972L149.407 159.886L138.838 148.55H121.811L112.416 163.795L128.856 174.545L121.811 181.973H110.067L118.679 193.7L110.067 198.195L104 234.355L128.856 241L160.367 231.618V219.695L149.407 230.055L144.318 222.432L138.838 231.618V217.35L128.856 224.386L112.416 231.618V213.05H121.811L128.856 198.195L143.535 204.059L145.884 217.35L156.452 209.141L150.972 198.195L145.884 193.7L150.972 188.618L156.452 174.545V183.927L164.281 181.973V168.682H172.697L169.565 181.973L177.786 183.927V198.195L175.437 191.355L172.697 201.323L177.786 213.05H167.021L164.281 227.123L169.957 224.386L177.786 217.35H185.223L182.874 209.141L179.743 195.264L198.14 213.05L196.183 193.7L185.223 188.618L202.25 183.927L192.269 153.241L182.874 156.759L172.697 144.25L177.786 153.241L164.281 163.795V153.241L156.452 156.759Z" fill="#5A4438"/>
<path d="M177.151 210.263L172.963 210.466L179.013 204.067L172.667 204.375L174.622 200.083C178.098 199.194 184.414 197.395 181.866 197.315C179.318 197.236 169.212 197.844 164.478 198.159L162.975 206.499C162.446 206.101 161.529 205.017 162.084 203.871C162.639 202.725 160.774 201.349 159.772 200.804L154.442 201.062C154.239 201.072 154.546 204.958 154.725 206.899C156.215 207.887 158.724 210.139 156.844 211.248C154.495 212.634 152.739 215.771 151.873 213.651C151.18 211.955 151.37 208.546 151.552 207.053L151.278 201.406C151.274 202.177 150.752 203.025 148.604 201.345C146.493 203.992 146.287 207.775 146.447 209.336L144.045 199.15L141.126 199.291L140.83 193.201C140.793 192.439 139.202 191.117 137.403 193.367C135.964 195.167 134.716 198.288 134.272 199.624C133.757 200.37 131.919 201.468 128.688 199.895C124.649 197.928 122.935 194.069 123.696 194.032C124.458 193.995 132.959 190.912 128.263 191.139C124.506 191.322 120.702 195.237 119.269 197.172L124.263 205.706C126.373 206.366 130.311 208.185 129.186 210.173C127.781 212.658 129.259 216.91 126.235 214.895C123.212 212.879 122.584 207.822 121.139 206.875C119.694 205.927 117.653 208.443 116.367 202.909C115.081 197.375 112.671 192.277 115.751 190.22C118.216 188.574 120.811 185.268 121.802 183.821L124.911 187.613L124.721 183.68L122.951 178.678L127.506 175.532C126.371 174.866 123.822 173.548 122.705 173.602C121.588 173.656 122.096 170.664 122.49 169.161L127.185 168.933C127.838 166.655 129.487 162.361 130.861 163.413C131.142 169.199 129.602 172.42 128.797 173.307C129.128 174.012 130.12 175.405 131.44 175.341C133.09 175.261 137.315 175.819 133.231 178.179C129.114 185.604 131.807 187.279 133.669 187.188L132.197 190.948C133.935 190.059 137.348 188.028 137.096 187.022C136.843 186.017 138.681 184.741 139.632 184.228L143.25 182.781L145.345 186.622L145.45 188.779L147.883 186.499C148.138 184.749 148.989 181.485 150.358 182.436L152.953 191.341L155.804 189.803L155.625 186.124L155.434 182.19L161.019 181.919C159.552 181.397 157.033 180.001 158.695 178.598C160.357 177.194 162.5 175.742 163.364 175.192L164.087 179.608L166.846 189.268L170.399 189.096L170.221 185.416L166.23 176.579L169.71 174.884C169.274 176.389 168.707 179.384 169.925 179.325C174.494 179.103 176.981 177.032 177.652 176.025C177.563 175.054 176.978 173.132 175.353 173.211C173.729 173.29 170.799 171.99 169.537 171.331L177.191 166.508C178.226 165.991 180.373 166.557 180.684 172.952C181.072 180.947 182.282 182.287 180.309 186.198C178.731 189.327 176.939 191.025 176.24 191.483L193.052 202.369L177.151 210.263Z" fill="#1F6F1D"/>
</g>
<path d="M135.796 122.887C135.796 117.57 140.105 113.26 145.42 113.26H153.334C158.649 113.26 162.958 117.57 162.958 122.887V147.163C162.958 154.667 156.877 160.75 149.377 160.75C141.877 160.75 135.796 154.667 135.796 147.163V122.887Z" fill="#EBBAAA"/>
<path d="M183.587 111.363C191.896 111.363 198.632 104.625 198.632 96.312C198.632 87.9993 191.896 81.2605 183.587 81.2605C175.278 81.2605 168.542 87.9993 168.542 96.312C168.542 104.625 175.278 111.363 183.587 111.363Z" fill="#EBBAAA"/>
<path d="M114.795 112.125C106.486 112.125 99.7501 105.386 99.7501 97.0737C99.7501 88.7611 106.486 82.0222 114.795 82.0222C123.103 82.0222 129.839 88.7611 129.839 97.0737C129.839 105.386 123.103 112.125 114.795 112.125Z" fill="#EBBAAA"/>
<path d="M110.158 74.6803C110.158 53.3484 127.443 36.0554 148.765 36.0554C170.365 36.0554 187.763 53.7838 187.366 75.3896L187.005 95.0672C186.966 97.2035 186.773 99.334 186.427 101.442L184.046 115.955C181.696 130.274 170.277 141.38 155.904 143.325L155.146 143.428C151.149 143.969 147.098 143.962 143.103 143.408L141.915 143.243C128.118 141.329 117.008 130.955 114.15 117.317L111.103 102.783C110.474 99.7863 110.158 96.7324 110.158 93.6704V74.6803Z" fill="#F4D4C9"/>
<path d="M161.28 82.6536L175.801 83.5417" stroke="#393939" stroke-width="6" stroke-linecap="round"/>
<path d="M138.288 82.9626L123.76 83.7238" stroke="#393939" stroke-width="6" stroke-linecap="round"/>
<path d="M148.771 98.0217C146.176 102.603 145.388 108.492 150.341 108.492" stroke="#EBBAAA" stroke-width="4.25"/>
<path d="M135.796 122.887C135.796 117.57 140.105 113.26 145.42 113.26H153.334C158.649 113.26 162.958 117.57 162.958 122.887V147.163C162.958 154.667 156.877 160.75 149.377 160.75C141.877 160.75 135.796 154.667 135.796 147.163V122.887Z" fill="#EBBAAA"/>
<path d="M183.587 111.363C191.896 111.363 198.632 104.625 198.632 96.312C198.632 87.9993 191.896 81.2605 183.587 81.2605C175.278 81.2605 168.542 87.9993 168.542 96.312C168.542 104.625 175.278 111.363 183.587 111.363Z" fill="#EBBAAA"/>
<path d="M114.795 112.125C106.486 112.125 99.7501 105.386 99.7501 97.0737C99.7501 88.7611 106.486 82.0222 114.795 82.0222C123.103 82.0222 129.839 88.7611 129.839 97.0737C129.839 105.386 123.103 112.125 114.795 112.125Z" fill="#EBBAAA"/>
<path d="M110.158 74.6803C110.158 53.3484 127.443 36.0554 148.765 36.0554C170.365 36.0554 187.763 53.7838 187.366 75.3896L187.005 95.0672C186.966 97.2035 186.773 99.334 186.427 101.442L184.046 115.955C181.697 130.274 170.277 141.38 155.904 143.325L155.146 143.428C151.149 143.969 147.098 143.962 143.104 143.408L141.915 143.243C128.118 141.329 117.008 130.955 114.15 117.317L111.103 102.783C110.474 99.7863 110.158 96.7324 110.158 93.6704V74.6803Z" fill="#F4D4C9"/>
<path d="M161.094 85.6954L175.616 86.5835C177.295 86.6862 178.739 85.4076 178.842 83.7276C178.945 82.0477 177.666 80.6025 175.987 80.4998L161.466 79.6117C159.787 79.509 158.342 80.7877 158.239 82.4676C158.137 84.1476 159.415 85.5927 161.094 85.6954Z" fill="#393939"/>
<path d="M138.129 79.9193L123.6 80.6804C121.92 80.7684 120.629 82.2023 120.717 83.8831C120.805 85.5639 122.239 86.8551 123.919 86.7671L138.448 86.006C140.128 85.918 141.418 84.4841 141.33 82.8033C141.242 81.1225 139.809 79.8313 138.129 79.9193Z" fill="#393939"/>
<path d="M146.894 96.9575C145.353 99.6783 144.454 102.652 144.57 105.078C144.729 108.411 146.82 110.651 150.341 110.651V106.334C149.241 106.334 148.935 106.006 148.881 104.872C148.809 103.366 149.477 101.155 150.649 99.0862L146.894 96.9575Z" fill="#EBBAAA"/>
<path d="M184.027 45.4527C186.67 49.3684 192.033 71.8359 187.077 87.3554C186.187 86.8381 184.875 77.3446 182.631 75.6733C180.096 73.7853 180.341 62.031 177.927 59.1658C175.512 56.3007 156.704 56.9133 148.824 56.9133C140.945 56.9133 121.082 55.551 118.032 60.2068C114.982 64.8627 115.999 74.5327 114.219 76.5621C112.796 78.1857 110.571 85.4055 110.063 87.3554C110.063 78.4018 105.707 64.3149 110.063 50.4667C111.64 45.4527 121.501 31.4769 146.282 32.5595C156.565 33.0088 167.887 34.1114 172.716 37.6929C176.529 39.9611 176.148 40.9163 177.927 42.9458C178.816 42.9458 182.426 43.0809 184.027 45.4527Z" fill="#2C2929"/>
<path d="M111.935 73.3877V53.0751L135.289 42.6584L137.446 61.9292L124.909 66.1498L127.673 61.9292L119.2 66.1498V61.9292L111.935 73.3877Z" fill="#2C2929"/>
<path d="M186.565 74.9113L185.169 51.166L163.212 40.8806L159.912 54.3405L161.689 65.8957L169.812 63.1314L172.477 67.4195L180.597 63.1314L186.565 74.9113Z" fill="#2C2929"/>
<path d="M131.034 67.4075L130.25 59.4865L128.942 40.8806H172.35L157.706 69.5781V65.3784L152.215 67.4075L151.169 62.8977L146.201 67.4075L144.893 65.3784L137.31 67.4075L138.356 65.3784L131.034 67.4075Z" fill="#2C2929"/>
<path d="M172.35 35.0396C172.985 35.5051 174.457 36.6903 175.269 37.7061C175.687 38.2282 176.141 38.8755 176.539 40.2457C176.725 40.8864 176.219 39.5208 175.523 38.468C174.811 37.3911 172.858 36.0554 173.619 36.9443C174.889 39.4839 178.95 48.8042 178.442 42.9123C177.935 37.0204 174.169 35.2089 172.35 35.0396Z" fill="#2C2929"/>
<path d="M179.839 40.6267C178.417 40.6267 176.623 42.5737 175.904 43.5473L179.839 45.198L183.392 44.6901L180.6 43.5473L184.408 44.0552L181.869 42.4044L184.408 43.1663C184.196 42.997 183.697 42.6076 183.392 42.4044C183.088 42.2013 181.404 41.6426 180.6 41.3886H182.377C182.123 41.1346 181.26 40.6267 179.839 40.6267Z" fill="#2C2929"/>
<path d="M161.525 97.234L173.202 95.4562C174.449 95.2663 175.306 94.1007 175.116 92.8527C174.927 91.6048 173.762 90.7471 172.514 90.937L160.837 92.7147C159.59 92.9046 158.732 94.0702 158.922 95.3182C159.112 96.5661 160.277 97.4239 161.525 97.234Z" fill="black"/>
<path d="M137.409 92.7147L125.732 90.937C124.485 90.7471 123.32 91.6048 123.13 92.8527C122.94 94.1007 123.797 95.2663 125.045 95.4562L136.722 97.234C137.969 97.4239 139.134 96.5661 139.324 95.3182C139.514 94.0702 138.657 92.9046 137.409 92.7147Z" fill="black"/>
<mask id="mask1_0_9634" style="mask-type:luminance" maskUnits="userSpaceOnUse" x="137" y="107" width="24" height="17">
<path fill-rule="evenodd" clip-rule="evenodd" d="M137.827 115.418C137.827 110.86 141.521 107.164 146.077 107.164H152.169C156.726 107.164 160.419 110.86 160.419 115.418C160.419 119.976 156.726 123.672 152.169 123.672H146.077C141.521 123.672 137.827 119.976 137.827 115.418Z" fill="white"/>
</mask>
<g mask="url(#mask1_0_9634)">
<rect x="138.589" y="118.085" width="51.5308" height="10.6663" fill="white"/>
</g>
</svg>
