<svg width="300" height="400" viewBox="0 0 300 400" fill="none" xmlns="http://www.w3.org/2000/svg">
<path fill-rule="evenodd" clip-rule="evenodd" d="M155.774 357.453L155.791 357.69C156.929 361.363 155.53 365.484 152.131 367.648C148.058 370.24 142.655 369.04 140.062 364.967C139.179 363.579 138.837 362.413 138.589 360.961C138.47 360.261 138.389 359.504 138.33 358.643C138.236 357.265 138.196 355.536 138.2 353.432L138.202 352.852C138.22 349.774 138.327 345.916 138.512 341.384L138.574 339.915L138.637 338.497C139.013 330.203 139.613 320.153 140.243 311.06L140.359 309.402L140.518 307.188C140.867 302.373 145.054 298.752 149.869 299.101C154.685 299.451 158.305 303.638 157.956 308.453C157.226 318.51 156.499 330.393 156.08 339.791L156.043 340.63C155.839 345.343 155.718 349.328 155.69 352.415L155.685 353.124L155.684 353.797C155.685 355.039 155.704 356.072 155.741 356.867L155.757 357.179L155.774 357.453ZM155.36 356.578L155.441 356.725C155.295 356.396 155.095 356.025 154.812 355.579C155.018 355.904 155.201 356.238 155.36 356.578Z" fill="black"/>
<path d="M119.538 346.633L119.52 346.396L119.503 346.122L119.488 345.822C119.448 344.956 119.428 343.805 119.431 342.409L119.433 341.892L119.439 341.161C119.472 337.918 119.605 333.713 119.827 328.734L119.897 327.203L119.952 326.051C120.381 317.142 121.041 306.518 121.702 297.398C122.052 292.582 118.431 288.396 113.616 288.046C108.8 287.697 104.614 291.317 104.264 296.133L104.106 298.346L103.985 300.072C103.369 308.957 102.784 318.749 102.407 326.919L102.321 328.858L102.284 329.728C102.079 334.617 101.963 338.748 101.948 341.989L101.947 342.374C101.943 344.406 101.98 346.088 102.067 347.441L102.077 347.585C102.135 348.446 102.216 349.203 102.336 349.903C102.583 351.354 102.926 352.521 103.808 353.909C106.4 357.982 111.804 359.183 115.877 356.591C119.277 354.427 120.675 350.305 119.538 346.633Z" fill="black"/>
<path d="M167.496 252.647L135.905 255.572V345.102H158.788L167.496 252.647Z" fill="#764047"/>
<path d="M158.75 344.846L159.521 339.703H135.867V344.846H158.75Z" fill="#593036"/>
<path d="M131.419 275.643C114.621 275.643 101.003 268.629 101.003 259.978C101.003 251.326 114.621 244.313 131.419 244.313C148.218 244.313 161.835 251.326 161.835 259.978C161.835 268.629 148.218 275.643 131.419 275.643Z" fill="#764047"/>
<path d="M130.982 255.78H98.6074L98.8647 345.695H122.315L130.982 255.78Z" fill="#764047"/>
<path d="M122.754 345.615L123.525 340.473H98.3279V345.615H122.754Z" fill="#593036"/>
<path d="M182.874 368.863C183.356 367.671 183.009 366.033 182.739 365.588C182.468 365.143 149.636 363.093 149.636 363.093C144.186 362.648 133.384 360.778 132.638 364.001C131.714 367.986 131.757 368.886 132.386 371.971C133.393 373.001 143.58 373.901 146.883 373.128C146.883 371.328 147.14 370.171 147.14 370.171C147.14 370.171 148.982 371.338 151.142 371.843C155.547 372.871 156.391 373.901 170.037 373.901C180.982 372.871 181.793 371.536 182.874 368.863Z" fill="#272727"/>
<path d="M147.365 351.53C144.629 351.565 140.451 350.665 138.174 347.51C137.974 347.233 137.565 347.19 137.332 347.44C135.285 349.64 136.611 348.388 135.789 352.175C134.977 355.913 134.292 355.38 133.48 358.85C132.918 361.253 131.098 366.86 133.48 366.86H144.344C146.915 366.86 150.386 369.848 158.946 370.685C173.155 372.078 176.627 370.17 179.464 369.27C185.919 367.223 182.643 362.54 179.464 361.043C174.807 358.85 168.132 357.203 164.736 355.388C162.093 353.973 161.185 353.533 159.827 352.045C158.095 350.145 157.36 348.93 156.811 347.985C156.582 347.593 155.96 347.68 155.717 348.065C154.216 350.445 149.892 351.498 147.365 351.53Z" fill="#8E5742"/>
<path d="M155.346 354.355C154.981 354.893 155.488 355.593 156.113 355.414L159.331 354.495L158.057 356.266C157.687 356.78 158.14 357.481 158.76 357.355L162.211 356.655L160.582 358.23C160.306 358.497 160.298 358.938 160.566 359.214C160.833 359.49 161.273 359.498 161.55 359.231L164.891 356.001C165.391 355.517 164.95 354.68 164.269 354.818L160.224 355.638L161.631 353.682C162.016 353.146 161.509 352.425 160.875 352.606L157.572 353.55L159.198 351.148C159.575 350.591 159.021 349.876 158.388 350.102L154.997 351.313L155.321 350.987L155.452 350.852C155.555 350.745 155.645 350.649 155.734 350.55C156.12 350.122 156.39 349.749 156.558 349.37C156.714 349.019 156.556 348.608 156.205 348.452C155.853 348.296 155.442 348.454 155.286 348.805C155.189 349.023 154.996 349.289 154.7 349.618L154.587 349.742L154.495 349.839C154.4 349.939 154.292 350.049 154.158 350.183L153.766 350.576L153.563 350.781C153.314 351.036 153.208 351.156 153.048 351.351C152.654 351.835 152.436 352.258 152.436 352.718C152.436 353.199 152.913 353.535 153.366 353.373L156.853 352.128L155.346 354.355Z" fill="#60391C"/>
<path d="M159.497 358.6C156.98 356.288 155.108 355.13 153.094 352.558C152.003 352.558 150.563 352.688 146.409 352.688C140.996 352.688 139.561 350.373 137.169 347.673C135.353 348.83 136.288 351.273 135.03 354.615C134.023 357.29 132.134 361.3 132.134 366.185C133.016 367.728 141.701 366.958 144.47 366.958C145.1 363.873 150.008 361.3 152.194 360.658C154.112 360.093 156.35 359.888 159.497 358.6Z" fill="#714433"/>
<path d="M74.6355 368.965C74.1527 367.77 74.5002 366.133 74.7706 365.688C75.041 365.243 107.873 363.195 107.873 363.195C113.323 362.75 124.125 360.878 124.871 364.1C125.795 368.085 125.752 368.985 125.123 372.07C124.116 373.1 113.929 374 110.626 373.228C110.626 371.428 110.369 370.273 110.369 370.273C110.369 370.273 108.527 371.438 106.367 371.943C101.962 372.97 101.118 374 87.4719 374C76.5272 372.97 75.7164 371.635 74.6355 368.965Z" fill="#272727"/>
<path d="M110.144 351.63C112.88 351.668 117.058 350.765 119.335 347.61C119.535 347.333 119.944 347.29 120.177 347.54C122.224 349.74 120.898 348.488 121.72 352.275C122.532 356.015 123.217 355.48 124.029 358.95C124.591 361.355 126.411 366.96 124.029 366.96H113.165C110.594 366.96 107.123 369.948 98.563 370.785C84.3542 372.178 80.8821 370.273 78.045 369.373C71.5898 367.325 74.8657 362.64 78.045 361.145C82.7025 358.95 89.3774 357.303 92.7727 355.488C95.4165 354.073 96.3244 353.633 97.682 352.145C99.4142 350.245 100.149 349.033 100.698 348.088C100.927 347.693 101.549 347.78 101.792 348.165C103.293 350.545 107.617 351.598 110.144 351.63Z" fill="#8E5742"/>
<path d="M99.1211 350.204C98.4876 349.978 97.9339 350.693 98.3112 351.25L99.9365 353.649L96.6343 352.706C95.9997 352.524 95.4927 353.246 95.8781 353.781L97.2861 355.738L93.2403 354.92C92.5585 354.782 92.1185 355.62 92.6188 356.103L95.9595 359.33C96.2359 359.597 96.6765 359.59 96.9436 359.313C97.2106 359.037 97.203 358.596 96.9266 358.329L95.2988 356.757L98.7494 357.455C99.3697 357.58 99.8219 356.88 99.4523 356.366L98.1778 354.594L101.396 355.514C102.021 355.693 102.528 354.993 102.163 354.454L100.656 352.229L104.143 353.473C104.597 353.634 105.073 353.298 105.073 352.817C105.073 352.38 104.877 351.977 104.519 351.523L104.417 351.397L104.33 351.294C104.207 351.15 104.081 351.017 103.832 350.765L103.238 350.169L103.11 350.039C103.031 349.957 102.96 349.883 102.895 349.812L102.809 349.718C102.534 349.413 102.348 349.161 102.245 348.952L102.223 348.905C102.067 348.553 101.656 348.395 101.304 348.551C100.953 348.708 100.795 349.119 100.951 349.47C101.119 349.848 101.389 350.221 101.775 350.649L101.901 350.788L102.006 350.898C102.078 350.974 102.155 351.054 102.244 351.143L102.514 351.414L99.1211 350.204Z" fill="#60391C"/>
<path d="M98.012 358.703C100.529 356.388 102.401 355.23 104.416 352.66C105.506 352.66 106.947 352.788 111.101 352.788C116.513 352.788 117.948 350.473 120.34 347.775C122.156 348.93 121.221 351.373 122.48 354.715C123.487 357.39 125.375 361.4 125.375 366.285C124.494 367.83 115.808 367.058 113.039 367.058C112.409 363.973 107.501 361.4 105.315 360.758C103.397 360.195 101.159 359.988 98.012 358.703Z" fill="#714433"/>
<mask id="mask0_0_9712" style="mask-type:luminance" maskUnits="userSpaceOnUse" x="74" y="347" width="52" height="25">
<path fill-rule="evenodd" clip-rule="evenodd" d="M110.401 351.63C113.137 351.668 117.315 350.765 119.592 347.61C119.792 347.333 120.201 347.29 120.434 347.54C122.481 349.74 121.155 348.488 121.977 352.275C122.789 356.015 123.474 355.48 124.286 358.95C124.848 361.355 126.668 366.96 124.286 366.96H113.422C110.851 366.96 107.38 369.948 98.8202 370.785C84.6113 372.178 81.1391 370.273 78.3021 369.373C71.8469 367.325 75.1228 362.64 78.3021 361.145C82.9596 358.95 89.6344 357.303 93.0297 355.488C95.6736 354.073 96.5815 353.633 97.9389 352.145C99.6712 350.245 100.406 349.033 100.955 348.088C101.184 347.693 101.806 347.78 102.049 348.165C103.55 350.545 107.874 351.598 110.401 351.63Z" fill="white"/>
</mask>
<g mask="url(#mask0_0_9712)">
<path d="M86.1247 370.24C86.6174 370.175 86.9643 369.723 86.8994 369.23C86.8346 368.737 86.3825 368.39 85.8898 368.455C85.397 368.52 85.0501 368.972 85.115 369.465C85.1799 369.958 85.6319 370.305 86.1247 370.24Z" fill="#6C3F2E"/>
<path d="M88.9286 369.87C89.4214 369.805 89.7683 369.353 89.7034 368.86C89.6385 368.367 89.1865 368.02 88.6937 368.085C88.201 368.15 87.8541 368.602 87.919 369.095C87.9838 369.588 88.4359 369.934 88.9286 369.87Z" fill="#6C3F2E"/>
<path d="M91.7328 369.502C92.2256 369.438 92.5725 368.985 92.5076 368.493C92.4427 368 91.9907 367.653 91.4979 367.718C91.0052 367.783 90.6583 368.235 90.7232 368.728C90.788 369.22 91.2401 369.567 91.7328 369.502Z" fill="#6C3F2E"/>
<path d="M94.537 369.132C95.0298 369.067 95.3767 368.615 95.3118 368.123C95.2469 367.63 94.7949 367.283 94.3021 367.348C93.8094 367.413 93.4625 367.865 93.5274 368.358C93.5922 368.85 94.0443 369.197 94.537 369.132Z" fill="#6C3F2E"/>
<path d="M97.341 368.762C97.8337 368.697 98.1806 368.245 98.1157 367.752C98.0509 367.26 97.5988 366.913 97.1061 366.978C96.6133 367.043 96.2665 367.495 96.3313 367.987C96.3962 368.48 96.8482 368.827 97.341 368.762Z" fill="#6C3F2E"/>
<path d="M86.4267 372.535C86.9194 372.47 87.2663 372.018 87.2014 371.525C87.1366 371.032 86.6845 370.685 86.1918 370.75C85.699 370.815 85.3521 371.267 85.417 371.76C85.4819 372.253 85.9339 372.599 86.4267 372.535Z" fill="#6C3F2E"/>
<path d="M89.2309 372.165C89.7236 372.1 90.0705 371.648 90.0056 371.155C89.9408 370.662 89.4887 370.315 88.996 370.38C88.5032 370.445 88.1563 370.897 88.2212 371.39C88.2861 371.883 88.7381 372.229 89.2309 372.165Z" fill="#6C3F2E"/>
<path d="M92.0348 371.795C92.5276 371.73 92.8745 371.278 92.8096 370.785C92.7447 370.292 92.2927 369.946 91.7999 370.01C91.3072 370.075 90.9603 370.527 91.0252 371.02C91.09 371.513 91.5421 371.86 92.0348 371.795Z" fill="#6C3F2E"/>
<path d="M94.839 371.427C95.3318 371.362 95.6787 370.91 95.6138 370.418C95.5489 369.925 95.0969 369.578 94.6041 369.643C94.1114 369.708 93.7645 370.16 93.8294 370.652C93.8942 371.145 94.3463 371.492 94.839 371.427Z" fill="#6C3F2E"/>
<path d="M97.643 371.057C98.1357 370.992 98.4826 370.54 98.4177 370.047C98.3529 369.555 97.9008 369.208 97.4081 369.273C96.9153 369.338 96.5685 369.79 96.6333 370.282C96.6982 370.775 97.1502 371.122 97.643 371.057Z" fill="#6C3F2E"/>
<path d="M85.8227 367.945C86.3154 367.88 86.6623 367.428 86.5974 366.935C86.5326 366.442 86.0805 366.095 85.5878 366.16C85.095 366.225 84.7481 366.677 84.813 367.17C84.8779 367.663 85.3299 368.01 85.8227 367.945Z" fill="#6C3F2E"/>
<path d="M88.6266 367.577C89.1194 367.512 89.4663 367.06 89.4014 366.567C89.3365 366.075 88.8845 365.728 88.3917 365.793C87.899 365.858 87.5521 366.31 87.617 366.802C87.6818 367.295 88.1339 367.642 88.6266 367.577Z" fill="#6C3F2E"/>
<path d="M91.4308 367.207C91.9236 367.142 92.2705 366.69 92.2056 366.197C92.1407 365.705 91.6887 365.358 91.1959 365.423C90.7032 365.487 90.3563 365.939 90.4212 366.432C90.486 366.925 90.9381 367.272 91.4308 367.207Z" fill="#6C3F2E"/>
<path d="M94.2348 366.837C94.7275 366.772 95.0744 366.32 95.0095 365.828C94.9447 365.335 94.4926 364.988 93.9999 365.053C93.5071 365.118 93.1603 365.57 93.2251 366.063C93.29 366.555 93.742 366.902 94.2348 366.837Z" fill="#6C3F2E"/>
<path d="M97.039 366.47C97.5317 366.405 97.8786 365.953 97.8137 365.46C97.7489 364.967 97.2968 364.62 96.8041 364.685C96.3113 364.75 95.9645 365.202 96.0293 365.695C96.0942 366.188 96.5462 366.535 97.039 366.47Z" fill="#6C3F2E"/>
<path d="M100.608 368.574C101.094 368.466 101.4 367.985 101.292 367.5C101.185 367.015 100.704 366.709 100.219 366.816C99.7337 366.924 99.4275 367.405 99.5351 367.89C99.6427 368.375 100.123 368.681 100.608 368.574Z" fill="#6C3F2E"/>
<path d="M103.37 367.961C103.855 367.854 104.161 367.373 104.053 366.888C103.946 366.403 103.465 366.097 102.98 366.204C102.495 366.312 102.189 366.792 102.296 367.277C102.404 367.763 102.884 368.069 103.37 367.961Z" fill="#6C3F2E"/>
<path d="M106.131 367.351C106.616 367.243 106.922 366.763 106.815 366.278C106.707 365.792 106.227 365.486 105.741 365.594C105.256 365.701 104.95 366.182 105.058 366.667C105.165 367.152 105.646 367.459 106.131 367.351Z" fill="#6C3F2E"/>
<path d="M108.892 366.739C109.378 366.631 109.684 366.151 109.576 365.665C109.469 365.18 108.988 364.874 108.503 364.981C108.018 365.089 107.711 365.57 107.819 366.055C107.927 366.54 108.407 366.846 108.892 366.739Z" fill="#6C3F2E"/>
<path d="M111.654 366.126C112.139 366.018 112.445 365.538 112.337 365.053C112.23 364.567 111.749 364.261 111.264 364.369C110.779 364.476 110.473 364.957 110.58 365.442C110.688 365.927 111.168 366.233 111.654 366.126Z" fill="#6C3F2E"/>
<path d="M101.109 370.833C101.595 370.726 101.901 370.245 101.793 369.76C101.686 369.275 101.205 368.969 100.72 369.076C100.235 369.184 99.9285 369.664 100.036 370.15C100.144 370.635 100.624 370.941 101.109 370.833Z" fill="#6C3F2E"/>
<path d="M103.871 370.221C104.356 370.113 104.662 369.633 104.554 369.148C104.447 368.662 103.966 368.356 103.481 368.464C102.996 368.571 102.69 369.052 102.797 369.537C102.905 370.022 103.385 370.329 103.871 370.221Z" fill="#6C3F2E"/>
<path d="M106.632 369.609C107.117 369.501 107.423 369.021 107.315 368.535C107.208 368.05 106.727 367.744 106.242 367.852C105.757 367.959 105.451 368.44 105.558 368.925C105.666 369.41 106.146 369.716 106.632 369.609Z" fill="#6C3F2E"/>
<path d="M109.393 368.998C109.878 368.891 110.184 368.41 110.077 367.925C109.969 367.44 109.489 367.134 109.004 367.241C108.518 367.349 108.212 367.829 108.32 368.315C108.427 368.8 108.908 369.106 109.393 368.998Z" fill="#6C3F2E"/>
<path d="M112.154 368.386C112.64 368.279 112.946 367.798 112.838 367.313C112.731 366.828 112.25 366.521 111.765 366.629C111.28 366.737 110.973 367.217 111.081 367.702C111.189 368.188 111.669 368.494 112.154 368.386Z" fill="#6C3F2E"/>
<path d="M100.107 366.316C100.593 366.209 100.899 365.728 100.791 365.243C100.684 364.758 100.203 364.452 99.7179 364.559C99.2327 364.667 98.9266 365.147 99.0341 365.632C99.1417 366.118 99.6223 366.424 100.107 366.316Z" fill="#6C3F2E"/>
<path d="M102.869 365.703C103.354 365.596 103.66 365.115 103.553 364.63C103.445 364.145 102.965 363.839 102.479 363.946C101.994 364.054 101.688 364.534 101.796 365.02C101.903 365.505 102.384 365.811 102.869 365.703Z" fill="#6C3F2E"/>
<path d="M105.63 365.091C106.115 364.984 106.421 364.503 106.314 364.018C106.206 363.533 105.726 363.226 105.24 363.334C104.755 363.442 104.449 363.922 104.557 364.407C104.664 364.893 105.145 365.199 105.63 365.091Z" fill="#6C3F2E"/>
<path d="M108.391 364.478C108.877 364.371 109.183 363.89 109.075 363.405C108.968 362.92 108.487 362.614 108.002 362.721C107.517 362.829 107.21 363.309 107.318 363.795C107.426 364.28 107.906 364.586 108.391 364.478Z" fill="#6C3F2E"/>
<path d="M111.152 363.866C111.638 363.759 111.944 363.278 111.836 362.793C111.729 362.308 111.248 362.001 110.763 362.109C110.278 362.217 109.971 362.697 110.079 363.182C110.187 363.668 110.667 363.974 111.152 363.866Z" fill="#6C3F2E"/>
</g>
<mask id="mask1_0_9712" style="mask-type:luminance" maskUnits="userSpaceOnUse" x="132" y="347" width="51" height="25">
<path fill-rule="evenodd" clip-rule="evenodd" d="M147.108 351.53C144.372 351.565 140.194 350.665 137.917 347.51C137.717 347.233 137.308 347.19 137.075 347.44C135.028 349.64 136.354 348.388 135.532 352.175C134.72 355.913 134.035 355.38 133.223 358.85C132.661 361.253 130.841 366.86 133.223 366.86H144.087C146.658 366.86 150.129 369.848 158.689 370.685C172.898 372.078 176.37 370.17 179.207 369.27C185.662 367.223 182.386 362.54 179.207 361.043C174.55 358.85 167.875 357.203 164.479 355.388C161.835 353.973 160.928 353.533 159.57 352.045C157.838 350.145 157.103 348.93 156.554 347.985C156.325 347.593 155.703 347.68 155.46 348.065C153.959 350.445 149.635 351.498 147.108 351.53Z" fill="white"/>
</mask>
<g mask="url(#mask1_0_9712)">
<path d="M171.385 370.14C170.892 370.075 170.545 369.623 170.61 369.13C170.675 368.638 171.127 368.291 171.62 368.356C172.112 368.421 172.459 368.873 172.394 369.365C172.329 369.858 171.877 370.205 171.385 370.14Z" fill="#6C3F2E"/>
<path d="M168.581 369.77C168.088 369.705 167.741 369.253 167.806 368.76C167.871 368.268 168.323 367.921 168.816 367.986C169.308 368.05 169.655 368.502 169.59 368.995C169.525 369.488 169.073 369.835 168.581 369.77Z" fill="#6C3F2E"/>
<path d="M165.776 369.4C165.284 369.335 164.937 368.883 165.002 368.391C165.067 367.898 165.519 367.551 166.011 367.616C166.504 367.681 166.851 368.133 166.786 368.626C166.721 369.118 166.269 369.465 165.776 369.4Z" fill="#6C3F2E"/>
<path d="M162.972 369.033C162.479 368.968 162.133 368.516 162.197 368.023C162.262 367.53 162.714 367.183 163.207 367.248C163.7 367.313 164.047 367.765 163.982 368.258C163.917 368.751 163.465 369.098 162.972 369.033Z" fill="#6C3F2E"/>
<path d="M160.168 368.663C159.676 368.598 159.329 368.146 159.394 367.653C159.458 367.16 159.91 366.813 160.403 366.878C160.896 366.943 161.243 367.395 161.178 367.888C161.113 368.381 160.661 368.727 160.168 368.663Z" fill="#6C3F2E"/>
<path d="M171.083 372.433C170.59 372.368 170.243 371.916 170.308 371.423C170.373 370.93 170.825 370.583 171.318 370.648C171.81 370.713 172.157 371.165 172.092 371.658C172.027 372.151 171.575 372.497 171.083 372.433Z" fill="#6C3F2E"/>
<path d="M168.279 372.065C167.786 372.001 167.439 371.548 167.504 371.056C167.569 370.563 168.021 370.216 168.514 370.281C169.006 370.346 169.353 370.798 169.288 371.291C169.223 371.783 168.771 372.13 168.279 372.065Z" fill="#6C3F2E"/>
<path d="M165.474 371.695C164.982 371.63 164.635 371.178 164.7 370.686C164.765 370.193 165.217 369.846 165.709 369.911C166.202 369.976 166.549 370.428 166.484 370.921C166.419 371.413 165.967 371.76 165.474 371.695Z" fill="#6C3F2E"/>
<path d="M162.67 371.325C162.177 371.26 161.831 370.808 161.895 370.315C161.96 369.823 162.412 369.476 162.905 369.541C163.398 369.606 163.745 370.058 163.68 370.55C163.615 371.043 163.163 371.39 162.67 371.325Z" fill="#6C3F2E"/>
<path d="M159.866 370.957C159.374 370.893 159.027 370.441 159.092 369.948C159.156 369.455 159.608 369.108 160.101 369.173C160.594 369.238 160.941 369.69 160.876 370.183C160.811 370.675 160.359 371.022 159.866 370.957Z" fill="#6C3F2E"/>
<path d="M171.687 367.845C171.194 367.78 170.847 367.328 170.912 366.836C170.977 366.343 171.429 365.996 171.922 366.061C172.414 366.126 172.761 366.578 172.696 367.07C172.631 367.563 172.179 367.91 171.687 367.845Z" fill="#6C3F2E"/>
<path d="M168.883 367.475C168.39 367.41 168.043 366.958 168.108 366.465C168.173 365.973 168.625 365.626 169.118 365.691C169.611 365.756 169.957 366.208 169.893 366.7C169.828 367.193 169.376 367.54 168.883 367.475Z" fill="#6C3F2E"/>
<path d="M166.078 367.108C165.586 367.043 165.239 366.591 165.304 366.098C165.369 365.605 165.821 365.259 166.313 365.323C166.806 365.388 167.153 365.84 167.088 366.333C167.023 366.826 166.571 367.173 166.078 367.108Z" fill="#6C3F2E"/>
<path d="M163.274 366.738C162.782 366.673 162.435 366.221 162.5 365.728C162.565 365.235 163.017 364.888 163.509 364.953C164.002 365.018 164.349 365.47 164.284 365.963C164.219 366.456 163.767 366.803 163.274 366.738Z" fill="#6C3F2E"/>
<path d="M160.47 366.368C159.978 366.303 159.631 365.851 159.696 365.358C159.76 364.865 160.212 364.518 160.705 364.583C161.198 364.648 161.545 365.1 161.48 365.593C161.415 366.086 160.963 366.433 160.47 366.368Z" fill="#6C3F2E"/>
<path d="M156.901 368.474C156.416 368.366 156.11 367.886 156.217 367.401C156.325 366.915 156.805 366.609 157.291 366.717C157.776 366.824 158.082 367.305 157.974 367.79C157.867 368.275 157.386 368.582 156.901 368.474Z" fill="#6C3F2E"/>
<path d="M154.14 367.862C153.655 367.754 153.348 367.274 153.456 366.788C153.564 366.303 154.044 365.997 154.529 366.105C155.015 366.212 155.321 366.693 155.213 367.178C155.106 367.663 154.625 367.969 154.14 367.862Z" fill="#6C3F2E"/>
<path d="M151.378 367.249C150.893 367.141 150.587 366.661 150.695 366.176C150.802 365.69 151.283 365.384 151.768 365.492C152.253 365.599 152.559 366.08 152.452 366.565C152.344 367.05 151.864 367.356 151.378 367.249Z" fill="#6C3F2E"/>
<path d="M148.617 366.639C148.132 366.531 147.826 366.051 147.933 365.566C148.041 365.08 148.521 364.774 149.007 364.882C149.492 364.989 149.798 365.47 149.69 365.955C149.583 366.44 149.102 366.747 148.617 366.639Z" fill="#6C3F2E"/>
<path d="M145.856 366.027C145.371 365.919 145.065 365.439 145.172 364.953C145.28 364.468 145.76 364.162 146.245 364.27C146.731 364.377 147.037 364.858 146.929 365.343C146.822 365.828 146.341 366.134 145.856 366.027Z" fill="#6C3F2E"/>
<path d="M156.4 370.734C155.915 370.627 155.609 370.146 155.716 369.661C155.824 369.176 156.304 368.87 156.79 368.977C157.275 369.085 157.581 369.565 157.473 370.05C157.366 370.536 156.885 370.842 156.4 370.734Z" fill="#6C3F2E"/>
<path d="M153.639 370.121C153.153 370.014 152.847 369.533 152.955 369.048C153.062 368.563 153.543 368.257 154.028 368.364C154.513 368.472 154.82 368.952 154.712 369.438C154.604 369.923 154.124 370.229 153.639 370.121Z" fill="#6C3F2E"/>
<path d="M150.877 369.509C150.392 369.402 150.086 368.921 150.194 368.436C150.301 367.951 150.782 367.644 151.267 367.752C151.752 367.86 152.058 368.34 151.951 368.825C151.843 369.311 151.363 369.617 150.877 369.509Z" fill="#6C3F2E"/>
<path d="M148.116 368.896C147.631 368.789 147.325 368.308 147.433 367.823C147.54 367.338 148.021 367.032 148.506 367.139C148.991 367.247 149.297 367.727 149.19 368.213C149.082 368.698 148.602 369.004 148.116 368.896Z" fill="#6C3F2E"/>
<path d="M145.355 368.284C144.87 368.176 144.564 367.696 144.671 367.211C144.779 366.725 145.259 366.419 145.744 366.527C146.23 366.634 146.536 367.115 146.428 367.6C146.321 368.085 145.84 368.392 145.355 368.284Z" fill="#6C3F2E"/>
<path d="M157.402 366.214C156.916 366.107 156.61 365.626 156.718 365.141C156.825 364.656 157.306 364.35 157.791 364.457C158.276 364.565 158.582 365.045 158.475 365.53C158.367 366.016 157.887 366.322 157.402 366.214Z" fill="#6C3F2E"/>
<path d="M154.641 365.604C154.155 365.496 153.849 365.016 153.957 364.531C154.064 364.045 154.545 363.739 155.03 363.847C155.515 363.954 155.821 364.435 155.714 364.92C155.606 365.405 155.126 365.711 154.641 365.604Z" fill="#6C3F2E"/>
<path d="M151.879 364.992C151.394 364.884 151.088 364.403 151.196 363.918C151.303 363.433 151.784 363.127 152.269 363.234C152.754 363.342 153.06 363.823 152.953 364.308C152.845 364.793 152.365 365.099 151.879 364.992Z" fill="#6C3F2E"/>
<path d="M149.118 364.379C148.633 364.272 148.326 363.791 148.434 363.306C148.542 362.821 149.022 362.515 149.507 362.622C149.993 362.73 150.299 363.21 150.191 363.695C150.084 364.181 149.603 364.487 149.118 364.379Z" fill="#6C3F2E"/>
<path d="M146.357 363.766C145.871 363.659 145.565 363.178 145.673 362.693C145.78 362.208 146.261 361.902 146.746 362.009C147.231 362.117 147.538 362.597 147.43 363.083C147.322 363.568 146.842 363.874 146.357 363.766Z" fill="#6C3F2E"/>
</g>
<path d="M170.179 192.652C193.437 209.314 228.172 190.273 228.172 161.521C228.172 156.267 223.912 152.008 218.658 152.008C213.404 152.008 209.145 156.267 209.145 161.521C209.145 175.077 191.68 184.651 181.26 177.185C176.989 174.125 171.046 175.107 167.986 179.378C164.926 183.649 165.908 189.592 170.179 192.652Z" fill="#EBBAAA"/>
<path d="M85.9996 178.236C79.8472 189.143 76.1804 204.163 74.9444 220.381C73.8627 234.575 74.8135 248.239 77.56 255.792C79.3556 260.729 84.814 263.277 89.7517 261.481C94.64 259.703 97.1854 254.336 95.4936 249.438L95.4411 249.289C93.8024 244.783 93.0216 233.562 93.9159 221.827C94.9585 208.147 98.0001 195.688 102.571 187.585C105.153 183.008 103.536 177.206 98.9596 174.625C94.3834 172.043 88.581 173.66 85.9996 178.236Z" fill="#EBBAAA"/>
<path d="M175.977 165.763C175.977 159.721 162.736 153.554 153.479 150.622L141.395 146.612C139.712 146.559 128.149 147.04 126.482 147.271L107.713 153.554C98.8188 154.784 91.5186 159.529 92.4144 168.463L95.6159 206.85L94.7284 257.425C94.7099 257.892 114.06 258.292 114.526 258.268C114.526 258.268 120.44 260.511 133.81 261.025C147.18 261.539 151.808 258.268 151.808 258.268L170.963 257.407C171.411 257.383 171.643 256.073 171.606 255.625L169.033 202.114L175.977 165.763Z" fill="#8D939E"/>
<path d="M176.769 158.688C174.555 156.325 167.262 153.935 163.893 153.036C159.265 185.947 170.771 222.18 190.118 215.258C211.525 205.309 225.103 186.506 225.857 175.662C222.515 169.749 219.232 166.904 209.659 164.349C201.431 171.034 196.032 178.233 190.118 180.805C187.574 177.465 184.664 172.605 183.155 170.006C180.991 169.62 182.127 168.206 182.127 168.206C182.127 168.206 178.318 160.341 176.769 158.688Z" fill="#3A3A5F"/>
<path d="M174.038 200.725C173.262 195.625 175.122 191.077 178.903 187.571C182.1 184.607 186.425 182.733 189.604 182.733C190.101 182.733 190.504 182.331 190.504 181.833C190.504 181.336 190.101 180.934 189.604 180.934C185.946 180.934 181.194 182.992 177.679 186.252C173.484 190.141 171.388 195.269 172.259 200.995C172.334 201.487 172.793 201.824 173.284 201.75C173.775 201.675 174.113 201.216 174.038 200.725Z" fill="#474765"/>
<path d="M201.164 207.571C197.5 205.092 194.938 200.224 193.371 193.77C192.291 189.319 191.79 184.455 191.79 181.19C191.79 180.693 191.387 180.291 190.89 180.291C190.393 180.291 189.99 180.693 189.99 181.19C189.99 184.59 190.505 189.594 191.622 194.194C193.285 201.043 196.039 206.277 200.156 209.062C200.567 209.34 201.127 209.232 201.405 208.82C201.684 208.409 201.576 207.849 201.164 207.571Z" fill="#474765"/>
<path d="M216.087 193.531C211.309 193.531 206.888 190.898 203.284 186.501C200.476 183.074 198.475 178.77 198.475 176.819C198.475 176.322 198.072 175.919 197.575 175.919C197.078 175.919 196.675 176.322 196.675 176.819C196.675 179.256 198.844 183.923 201.892 187.642C205.808 192.419 210.696 195.331 216.087 195.331C216.584 195.331 216.987 194.928 216.987 194.431C216.987 193.934 216.584 193.531 216.087 193.531Z" fill="#474765"/>
<path d="M165.811 188.383C165.035 183.283 166.895 178.735 170.675 175.23C173.872 172.265 178.197 170.392 181.376 170.392C181.873 170.392 182.276 169.989 182.276 169.492C182.276 168.995 181.873 168.592 181.376 168.592C177.719 168.592 172.966 170.651 169.452 173.91C165.257 177.8 163.16 182.927 164.031 188.654C164.106 189.145 164.565 189.483 165.056 189.408C165.548 189.333 165.886 188.874 165.811 188.383Z" fill="#474765"/>
<path d="M223.126 183.534C224.233 183.33 226.776 176.04 227.657 173.188L209.145 160.493C208.767 163.09 201.744 168.526 201.946 170.263C202.197 172.434 205.422 176.955 211.716 177.976C218.01 178.998 221.741 183.79 223.126 183.534Z" fill="#2F2F43"/>
<path d="M134.067 168.463C124.837 168.463 117.354 160.981 117.354 151.751C117.354 142.521 124.837 135.038 134.067 135.038C143.297 135.038 150.78 142.521 150.78 151.751C150.78 160.981 143.297 168.463 134.067 168.463Z" fill="#7B8493"/>
<path d="M144.095 168.464C143.385 168.464 142.809 167.888 142.809 167.178C142.809 166.468 143.385 165.893 144.095 165.893C144.805 165.893 145.38 166.468 145.38 167.178C145.38 167.888 144.805 168.464 144.095 168.464Z" fill="#E5EBF9"/>
<path d="M142.866 166.407C144.264 158.494 144.11 158.105 147.702 146.352C147.702 146.352 157.495 149.18 161.047 150.435C164.599 151.69 168.783 153.973 168.783 153.973C171.045 158.603 173.282 187.644 173.92 214.141C174.559 240.639 176.748 246.113 173.92 262.65C171.127 263.852 152.948 269.355 143.77 265.081C143.77 261.997 142.962 259.057 142.866 255.573C142.554 244.195 143.617 233.363 143.77 214.141C143.905 197.18 140.813 178.033 142.866 166.407Z" fill="#474765"/>
<path d="M171.465 166.829L170.807 166.46L170.16 166.101C163.144 162.222 154.803 158.143 150.132 156.694C149.454 156.483 148.734 156.863 148.523 157.541C148.313 158.219 148.692 158.939 149.37 159.149L149.659 159.241C154.462 160.796 163.246 165.155 170.204 169.07C170.823 169.418 171.607 169.198 171.955 168.579C172.303 167.961 172.084 167.177 171.465 166.829Z" fill="#3C3C56"/>
<rect width="20.1411" height="30.4767" rx="9.74753" transform="matrix(-1 0 0 1 143.98 132.21)" fill="#EBBAAA"/>
<path d="M152.065 140.181C155.665 141.209 156.436 144.809 156.436 149.437C156.436 152.522 139.981 177.977 141.524 172.577C145.123 159.978 136.124 155.093 137.153 153.551C138.181 152.008 145.894 141.209 152.065 140.181Z" fill="#3C3C56"/>
<path d="M142.552 264.11C140.752 255.883 142.552 242.513 142.552 232.485C142.552 225.861 143.752 189.89 142.552 170.263C143.837 166.064 144.094 159.979 138.181 154.836" stroke="#606092" stroke-width="3.59963" stroke-linecap="round"/>
<path d="M90.4857 158.565C92.1312 156.508 98.1135 154.365 100.899 153.551C100.213 181.791 98.662 239.093 97.942 242.384C97.0421 246.498 76.8585 245.727 74.0302 243.027C71.202 240.327 74.0302 235.057 72.8732 230.043C72.0097 226.301 72.842 221.674 73.3875 219.501C73.5729 218.762 74.1311 219.217 74.0302 218.858C73.1046 215.567 74.2874 208.574 75.3158 206.131C75.5301 205.531 76.9871 206.003 75.9586 205.617C75.2387 204.486 77.2013 197.046 78.1441 194.175C78.7012 193.832 79.3783 194.355 78.6583 193.532C77.9384 192.71 80.6724 184.191 82.0008 180.162C82.6436 180.162 82.6436 180.162 82.6436 179.52C81.8209 178.491 84.0149 172.406 85.2148 169.492C86.3718 169.235 86.2433 169.132 85.729 168.721C85.0862 168.207 88.4287 161.136 90.4857 158.565Z" fill="#3A3A5F"/>
<path d="M73.9017 246.883C73.9017 241.484 73.2589 242.769 73.9017 240.198L95.0775 236.856C95.4631 239.47 96.1831 245.135 95.9774 246.883C95.7203 249.069 93.9567 248.555 87.5288 249.583C81.1009 250.612 73.9017 254.629 73.9017 246.883Z" fill="#2F2F43"/>
<path d="M86.7349 170.733L87.4103 170.952L87.8472 171.092C94.9828 173.36 102.049 174.975 104.467 174.348C104.948 174.224 105.237 173.732 105.112 173.251C104.988 172.77 104.497 172.481 104.015 172.606C101.978 173.134 94.3154 171.319 87.2944 169.022C86.822 168.868 86.3138 169.126 86.1593 169.598C86.0048 170.07 86.2625 170.578 86.7349 170.733Z" fill="#474765"/>
<path d="M83.3924 180.889L84.0678 181.108L84.5047 181.248C91.6402 183.517 98.7063 185.132 101.125 184.505C101.606 184.38 101.895 183.889 101.77 183.408C101.645 182.926 101.154 182.638 100.673 182.762C98.6353 183.291 90.9728 181.475 83.9519 179.179C83.4795 179.024 82.9713 179.282 82.8168 179.754C82.6623 180.227 82.92 180.735 83.3924 180.889Z" fill="#474765"/>
<path d="M79.5356 195.03L80.2108 195.249L80.8659 195.458C87.9243 197.689 94.8741 199.266 97.268 198.645C97.7491 198.521 98.038 198.03 97.9133 197.549C97.7928 197.083 97.3298 196.798 96.8645 196.892L96.8164 196.903C94.7785 197.431 87.1133 195.615 80.0952 193.319C79.6229 193.165 79.1147 193.422 78.9601 193.895C78.8056 194.367 79.0633 194.875 79.5356 195.03Z" fill="#474765"/>
<path d="M76.4502 206.858L77.1257 207.077L77.781 207.286C84.8418 209.518 91.7889 211.094 94.1826 210.473C94.6637 210.349 94.9526 209.857 94.8278 209.376C94.7031 208.895 94.212 208.606 93.7309 208.731C91.6932 209.259 84.0307 207.444 77.0097 205.147C76.5374 204.993 76.0292 205.251 75.8747 205.723C75.7202 206.195 75.9778 206.703 76.4502 206.858Z" fill="#474765"/>
<path d="M73.8281 219.889C77.8019 222.248 89.222 224.514 95.7567 224.514C96.2537 224.514 96.6566 224.111 96.6566 223.614C96.6566 223.117 96.2537 222.714 95.7567 222.714C89.5165 222.714 78.3961 220.508 74.7469 218.341C74.3196 218.087 73.7674 218.228 73.5137 218.655C73.26 219.083 73.4007 219.635 73.8281 219.889Z" fill="#474765"/>
<path d="M124.928 166.407C123.531 158.494 123.684 158.105 120.093 146.352C120.093 146.352 110.299 149.18 106.747 150.435C103.195 151.69 99.0107 153.973 99.0107 153.973C96.7495 158.603 94.5126 187.644 93.8741 214.141C93.2357 240.639 91.046 246.113 93.8741 262.65C96.6674 263.852 114.846 269.355 124.024 265.081C124.024 261.997 124.832 259.057 124.928 255.573C125.24 244.195 124.177 233.363 124.024 214.141C123.889 197.18 126.981 178.033 124.928 166.407Z" fill="#474765"/>
<path d="M97.5899 168.555L98.4508 168.074L99.0807 167.725C105.91 163.961 114.017 160.002 118.424 158.635C119.102 158.424 119.481 157.704 119.271 157.026C119.061 156.348 118.34 155.969 117.662 156.179C112.698 157.72 103.59 162.23 96.3294 166.314C95.7105 166.662 95.4911 167.446 95.8392 168.065C96.1872 168.684 96.9711 168.903 97.5899 168.555Z" fill="#3C3C56"/>
<path d="M115.729 140.181C112.129 141.209 111.358 144.809 111.358 149.437C111.358 152.522 127.813 177.977 126.271 172.577C122.671 159.978 131.67 155.093 130.642 153.551C129.613 152.008 121.9 141.209 115.729 140.181Z" fill="#3C3C56"/>
<path d="M125.243 264.11C127.042 255.883 125.243 242.513 125.243 232.485C125.243 225.861 124.043 189.89 125.243 170.263C123.957 166.064 123.7 159.979 129.613 154.836" stroke="#606092" stroke-width="3.59963" stroke-linecap="round"/>
<path d="M97.7453 113.32C89.3293 113.32 82.5068 106.498 82.5068 98.082C82.5068 89.6663 89.3293 82.8438 97.7453 82.8438C106.161 82.8438 112.984 89.6663 112.984 98.082C112.984 106.498 106.161 113.32 97.7453 113.32Z" fill="#EBBAAA"/>
<path d="M169.481 114.092C177.896 114.092 184.719 107.269 184.719 98.8535C184.719 90.4377 177.896 83.6152 169.481 83.6152C161.065 83.6152 154.242 90.4377 154.242 98.8535C154.242 107.269 161.065 114.092 169.481 114.092Z" fill="#EBBAAA"/>
<path d="M173.663 71.6592C173.663 49.862 155.993 32.1919 134.196 32.1919C112.399 32.1919 94.7285 49.862 94.7285 71.6592V90.3L95.3622 110.759C96.012 131.738 113.207 148.408 134.196 148.408C154.474 148.408 171.231 132.588 172.395 112.343L173.663 90.3V71.6592Z" fill="#F4D4C9"/>
<path d="M124.879 75.1211L110.148 75.5063C108.629 75.546 107.431 76.809 107.47 78.3273C107.51 79.8455 108.773 81.0442 110.291 81.0044L125.022 80.6192C126.541 80.5795 127.739 79.3165 127.7 77.7982C127.66 76.28 126.397 75.0814 124.879 75.1211Z" fill="#393939"/>
<path d="M145.561 80.4811L160.283 81.1231C161.801 81.1892 163.084 80.0128 163.151 78.4955C163.217 76.9782 162.04 75.6945 160.523 75.6283L145.801 74.9863C144.284 74.9201 143 76.0965 142.934 77.6139C142.868 79.1312 144.044 80.4149 145.561 80.4811Z" fill="#393939"/>
<path d="M133.165 101.177C134.352 103.271 135.028 105.509 134.956 107.034L134.948 107.166C134.875 108.208 134.547 108.514 133.476 108.514V112.885C137.043 112.885 139.161 110.617 139.322 107.243C139.439 104.787 138.529 101.776 136.968 99.0215L133.165 101.177Z" fill="#EBBAAA"/>
<path d="M107.07 58.2891C107.867 51.6003 108.586 46.7975 109.118 42.3384C109.494 39.1799 109.533 38.3742 100.554 44.9925C91.5751 51.6108 90.229 66.1311 92.6716 78.4728L95.3713 93.1283L98.1438 92.4431L98.071 73.8446C102.595 69.2906 106.273 64.9778 107.07 58.2891Z" fill="#6E6C6C"/>
<path d="M168.823 65.4237C168.452 58.6987 169.21 59.045 168.963 54.5615C168.787 51.3855 167.693 52.0805 173.362 57.9037C176.491 61.1177 175.313 74.9265 174.647 83.9575L173.856 92.281L172.591 92.3507L172.02 81.9972C169.785 74.823 169.194 72.149 168.823 65.4237Z" fill="#6E6C6C"/>
<path fill-rule="evenodd" clip-rule="evenodd" d="M133.698 26.7927L133.699 26.7925C133.717 26.7925 133.736 26.7925 133.754 26.7925C133.773 26.7925 133.792 26.7925 133.81 26.7925L133.81 26.7927C145.691 26.8347 174.137 33.5722 175.206 65.1027C172.047 61.2188 167.168 59.5247 162.835 56.99C153.714 51.6548 146.265 49.7014 136.382 49.7014C127.89 49.7014 117.473 51.6678 110.438 55.1135C104.145 58.1963 98.5654 60.5082 92.4146 65.1027C93.4836 33.5722 121.819 26.8347 133.698 26.7927Z" fill="#272727"/>
<path d="M135.096 54.818C125.84 49.1614 121.589 48.0017 117.132 45.4305C120.218 44.0593 128.228 40.2284 132.342 43.5195C134.102 45.8161 137.242 49.6755 135.096 54.818Z" fill="#272727"/>
<path d="M149.88 54.818C136.124 46.8475 130.167 49.4187 125.711 46.8475C128.796 45.4763 122.111 35.6778 144.094 40.4196C150.651 41.8338 152.026 49.6757 149.88 54.818Z" fill="#272727"/>
<path d="M164.44 36.8509L166.929 45.691L134.125 40.6108L96.636 47.464L96.715 43.8267L99.3891 42.7151L99.4513 39.8572L102.822 39.9304L102.918 35.5136L107.253 35.6078L108.289 32.2512L112.142 32.3349L114.503 29.0071L118.453 30.1327L119.702 28.0804L123.796 28.1694L123.847 25.8311L129.334 28.2897L130.829 25.9828L133.187 28.3735L135.645 26.0875L140.169 28.5253L143.11 26.2498L146.189 28.6561L148.356 28.7032L150.719 30.8341L151.727 28.7765L155.725 33.2823L158.396 32.3006L161.777 37.4428L164.44 36.8509Z" fill="#272727"/>
<path d="M116.608 95.4872L116.674 95.4553C116.75 95.4171 116.917 95.3564 117.134 95.3001C117.431 95.2233 117.769 95.1672 118.132 95.1412C118.997 95.079 119.905 95.1904 120.809 95.5118L120.944 95.5616C122.3 96.0758 123.815 95.3937 124.329 94.0382C124.844 92.6827 124.162 91.1671 122.806 90.6529C119.708 89.4779 116.417 89.7143 114.326 90.7593C113.03 91.4075 112.504 92.9842 113.152 94.2809C113.789 95.5557 115.324 96.0854 116.608 95.4872Z" fill="black"/>
<path d="M148.608 95.7372L148.674 95.7053C148.75 95.6671 148.917 95.6064 149.134 95.5501C149.431 95.4733 149.769 95.4172 150.132 95.3912C150.997 95.329 151.905 95.4404 152.809 95.7618L152.944 95.8116C154.3 96.3258 155.815 95.6437 156.329 94.2882C156.844 92.9327 156.162 91.4171 154.806 90.9029C151.708 89.7279 148.417 89.9643 146.326 91.0093C145.03 91.6575 144.504 93.2342 145.152 94.5309C145.789 95.8057 147.324 96.3354 148.608 95.7372Z" fill="black"/>
<path d="M132.009 90.8902C132.702 87.7907 130.447 84.8105 127.275 84.6345L109.008 83.6207C105.697 83.4367 103.081 86.3887 103.66 89.6537L105.093 97.728C105.529 100.183 107.663 101.971 110.157 101.971H125.413C127.821 101.971 129.906 100.3 130.431 97.9505L132.009 90.8902Z" fill="white" fill-opacity="0.29"/>
<path d="M166.332 89.2766C166.767 86.0408 164.116 83.2238 160.86 83.4621L142.716 84.7896C139.461 85.0276 137.249 88.1976 138.147 91.3346L140.184 98.4433C140.816 100.649 142.833 102.17 145.127 102.17H160.1C162.675 102.17 164.853 100.265 165.196 97.7131L166.332 89.2766Z" fill="white" fill-opacity="0.29"/>
<path fill-rule="evenodd" clip-rule="evenodd" d="M143 84.8181L143 84.8179L143 84.8174L143 84.8176L143 84.8181ZM143.002 84.5834L143 84.8176L143.138 85.9669C143.118 85.9693 143.097 85.9722 143.074 85.9756L142.993 85.9751L143 84.8179L142.863 83.6694L142.863 83.6694L143 84.8174L143.002 84.5834ZM161.691 83.7725V83.7724L143.007 83.6611L143.002 84.5834L143.007 83.6611L142.935 83.6606L142.863 83.6694L142.863 83.6694C142.407 83.7239 141.726 83.8864 141.033 84.1982C140.342 84.5082 139.547 85.0069 138.974 85.7867L140.838 87.1582C141.093 86.8109 141.503 86.5237 141.981 86.3089C142.415 86.1139 142.83 86.0125 143.074 85.9756L161.607 86.086C161.844 86.1274 162.753 86.409 163.645 87.3933L165.36 85.8391C164.055 84.3996 162.571 83.8526 161.795 83.7776L161.743 83.7727L161.691 83.7725ZM161.684 84.9277L161.795 83.7777L161.795 83.7776L161.684 84.9277ZM161.684 84.9277L161.691 83.7725L161.691 83.7725L161.684 84.9293L161.684 84.9295L161.573 86.0811C161.582 86.082 161.593 86.0836 161.607 86.086L161.677 86.0864L161.684 84.9279V84.9277ZM164.857 89.6952L164.857 89.6952L164.858 89.5557L164.874 89.4962C164.877 89.5179 164.877 89.528 164.877 89.528C164.877 89.528 164.876 89.4885 164.893 89.4204L166.014 89.7071L164.857 89.6951L164.857 89.6952ZM167.17 89.8175C167.218 89.4933 167.175 89.1782 167.122 88.9336C167.052 88.6179 166.933 88.2846 166.781 87.9521C166.476 87.2856 165.998 86.5426 165.36 85.8391L163.645 87.3934C164.132 87.9299 164.476 88.4756 164.678 88.9164C164.779 89.1374 164.835 89.3121 164.861 89.4304C164.868 89.4588 164.871 89.4805 164.874 89.4962L164.893 89.4204L164.893 89.4204L164.893 89.4204L166.014 89.7071L166.014 89.7071L166.014 89.7072L164.857 89.6952L164.827 92.6491L167.141 92.6731L167.17 89.8175ZM167.17 89.8175C167.161 89.8761 167.15 89.935 167.135 89.9939L166.014 89.7071L167.171 89.7191L167.17 89.8175ZM167.14 92.6732C167.134 93.3122 166.61 93.8247 165.971 93.8182C165.332 93.8114 164.82 93.2882 164.826 92.6492L167.14 92.6732ZM140.141 88.7728L138.992 88.9098L138.993 88.9099L138.992 88.91L137.838 88.8281L137.832 88.9146C137.793 88.1996 138.068 87.0172 138.974 85.7866L140.837 87.1581C140.501 87.6159 140.321 88.0216 140.229 88.3226C140.151 88.5805 140.144 88.7348 140.142 88.7697C140.142 88.7786 140.142 88.7797 140.141 88.7729L140.141 88.7729L140.141 88.7728ZM137.832 88.9146L137.583 92.4304L139.891 92.5941L140.147 88.9919L138.992 88.91L137.843 89.0471C137.838 89.005 137.835 88.9607 137.832 88.9146ZM140.141 88.7729L138.993 88.9099L140.146 88.9918L140.154 88.8821L140.141 88.7729ZM139.891 92.5942C139.846 93.2317 139.292 93.7117 138.655 93.6664C138.018 93.6212 137.537 93.0679 137.583 92.4304L139.891 92.5942Z" fill="#A49C72"/>
<path fill-rule="evenodd" clip-rule="evenodd" d="M127.405 84.7102L127.406 84.7082L127.406 84.7092L127.268 85.8593C127.288 85.8616 127.309 85.8645 127.332 85.8679L108.798 85.9783C108.812 85.9758 108.824 85.9741 108.833 85.9732L108.722 84.8198L108.72 84.4328L108.715 83.6647L127.399 83.5535L127.405 84.7102ZM108.611 83.6698L108.611 83.6697C107.835 83.7447 106.351 84.2917 105.046 85.7312L106.761 87.2854C107.651 86.3033 108.558 86.0206 108.798 85.9783L108.729 85.9787L108.722 84.8211L108.722 84.8216L108.722 84.8198L108.722 84.8194L108.72 84.4328L108.715 83.6646L108.663 83.6648L108.611 83.6698ZM108.722 84.8194L108.722 84.8211L108.611 83.6698L108.611 83.6698L108.722 84.8194ZM130.264 88.6694C130.264 88.6697 130.264 88.6671 130.263 88.6619C130.262 88.627 130.255 88.4727 130.176 88.2147C130.085 87.9137 129.905 87.508 129.568 87.0502L129.568 87.0503C129.313 86.7033 128.903 86.4158 128.425 86.201C127.991 86.0061 127.576 85.9047 127.332 85.8679L127.413 85.8675L127.406 84.7092L127.543 83.5615C127.999 83.616 128.68 83.7785 129.373 84.0903C130.064 84.4005 130.859 84.8993 131.432 85.6788L131.432 85.6787C132.338 86.9095 132.613 88.0921 132.574 88.807L132.568 88.7202L131.413 88.8021L130.565 88.7008L131.413 88.8021L130.737 88.8501L130.259 88.8839L130.251 88.7742L130.264 88.6694ZM130.264 88.6694L130.264 88.6649L130.265 88.665C130.265 88.6659 130.264 88.6667 130.264 88.6673C130.264 88.6686 130.264 88.6693 130.264 88.6694ZM130.737 88.8501L130.259 88.884L130.515 92.4865L132.823 92.3227L132.574 88.807C132.571 88.8531 132.567 88.8972 132.562 88.9392L131.413 88.8021L131.413 88.8021L131.413 88.8022L130.737 88.8501ZM127.399 83.5535L127.399 83.5532L127.471 83.553L127.543 83.5615L127.406 84.7082L127.399 83.5535H127.399ZM105.549 89.5875L105.549 89.5874H105.549L105.579 92.5412L103.265 92.5652L103.236 89.7114C103.245 89.7695 103.256 89.8279 103.271 89.8862L104.392 89.5993L104.647 89.5967L105.549 89.5875ZM104.392 89.5992L105.094 89.4196L105.513 89.3125C105.53 89.3806 105.529 89.4202 105.529 89.4202C105.529 89.4202 105.529 89.4101 105.532 89.3885L105.547 89.4478L105.549 89.5874L104.647 89.5967L104.392 89.5992ZM105.532 89.3885C105.534 89.3727 105.538 89.3509 105.545 89.3225C105.571 89.2045 105.627 89.0295 105.728 88.8085C105.93 88.368 106.274 87.8222 106.761 87.2855L105.046 85.7312C104.408 86.435 103.93 87.178 103.625 87.8442C103.472 88.1767 103.354 88.51 103.284 88.8257C103.23 89.0706 103.188 89.3866 103.236 89.7114L103.235 89.6112L104.392 89.5993L104.392 89.5992L104.392 89.5992L105.094 89.4196L105.513 89.3125L105.513 89.3125L105.513 89.3125L105.532 89.3885ZM103.265 92.5653C103.272 93.2043 103.795 93.717 104.434 93.7103C105.073 93.7038 105.586 93.1803 105.579 92.5413L103.265 92.5653ZM130.515 92.4865C130.56 93.1238 131.114 93.604 131.751 93.5588C132.388 93.5135 132.869 92.96 132.823 92.3228L130.515 92.4865Z" fill="#A49C72"/>
<path d="M138.406 90.6588C137.292 90.0588 134.421 89.219 131.85 90.6588" stroke="#A49C72" stroke-width="2.31404"/>
<path fill-rule="evenodd" clip-rule="evenodd" d="M144.407 117.401V120.868C144.407 126.193 140.091 130.51 134.766 130.51C129.441 130.51 125.124 126.193 125.124 120.868V117.401H144.407Z" fill="#393939"/>
<mask id="mask2_0_9712" style="mask-type:luminance" maskUnits="userSpaceOnUse" x="125" y="115" width="20" height="16">
<path fill-rule="evenodd" clip-rule="evenodd" d="M144.28 115.75C144.364 116.262 144.407 116.786 144.407 117.322V120.867C144.407 126.192 140.091 130.509 134.766 130.509C129.441 130.509 125.124 126.192 125.124 120.867V117.322C125.124 116.786 125.167 116.262 125.251 115.75H144.28Z" fill="white"/>
</mask>
<g mask="url(#mask2_0_9712)">
<path d="M134.251 133.902C131.04 133.902 128.437 132.484 128.437 130.736C128.437 128.987 131.04 127.569 134.251 127.569C137.463 127.569 140.066 128.987 140.066 130.736C140.066 132.484 137.463 133.902 134.251 133.902Z" fill="#FF6C6C"/>
<rect width="19.2837" height="3.97675" transform="matrix(-1 0 0 1 144.407 116.901)" fill="white"/>
</g>
</svg>
