<svg width="300" height="400" viewBox="0 0 300 400" fill="none" xmlns="http://www.w3.org/2000/svg">
<path d="M165.25 300.5V357.5" stroke="#EBBAAA" stroke-width="11" stroke-linecap="round" stroke-linejoin="bevel"/>
<path d="M128.25 300.5V361.875" stroke="#EBBAAA" stroke-width="11" stroke-linecap="round" stroke-linejoin="bevel"/>
<path d="M146.75 269C162.628 269 175.5 263.124 175.5 255.875C175.5 248.626 162.628 242.75 146.75 242.75C130.872 242.75 118 248.626 118 255.875C118 263.124 130.872 269 146.75 269Z" fill="#0F0F11"/>
<path d="M146.5 238.25H184L179 349H155.457L146.5 238.25Z" fill="#0F0F11"/>
<path d="M147 238.25H109.5L114.5 349H138.043L147 238.25Z" fill="#0F0F11"/>
<path d="M121.811 354.25L121.5 350.25H133.75V354.25H121.811Z" fill="#C6C6C7"/>
<path d="M159.605 356.5L159.25 350.25H173.25V356.5H159.605Z" fill="#C6C6C7"/>
<path d="M118.9 352.75L118.5 347H134.25V352.75H118.9Z" fill="#0F0F11"/>
<path d="M159.16 352.75L158.75 347H175.25L174.922 352.75H159.16Z" fill="#0F0F11"/>
<path d="M92.1904 372.755C92.1403 367.018 92.9219 363.528 97.9093 361.183C102.897 358.838 107.594 354.33 116.223 350.465C116.223 350.465 117.359 350.253 119.207 351.253C120.785 352.105 122.812 354.198 125.865 354.173C129.181 354.143 132.135 353.44 133.971 352.478C134.764 350.305 136.523 350.29 136.523 350.29C136.523 350.29 139.001 355.005 139.042 359.74C139.084 364.478 139.079 372.345 139.079 372.345L92.1904 372.755Z" fill="#465688"/>
<path d="M110.911 352.436C110.389 352.206 109.834 352.685 109.986 353.235L110.735 355.951L107.733 354.984C107.296 354.843 106.848 355.169 106.848 355.628V358.416L104.599 357.198C104.149 356.953 103.6 357.28 103.6 357.793V361.178C103.6 361.551 103.903 361.854 104.277 361.854C104.651 361.854 104.954 361.551 104.954 361.178V358.929L107.203 360.148C107.654 360.392 108.202 360.066 108.202 359.553V356.557L111.513 357.624C112.026 357.789 112.516 357.319 112.373 356.8L111.67 354.25L114.966 355.704C115.414 355.902 115.916 355.574 115.916 355.085L115.916 354.828L115.913 354.554C115.902 353.759 115.861 353.221 115.745 352.588C115.649 352.069 115.51 351.592 115.317 351.158C115.165 350.816 114.765 350.663 114.423 350.814C114.082 350.966 113.928 351.366 114.08 351.708C114.227 352.037 114.336 352.413 114.414 352.833C114.478 353.185 114.517 353.51 114.538 353.893L114.545 354.039L110.911 352.436Z" fill="white"/>
<path d="M137.571 352.785C136.608 354.093 133.135 354.875 131.828 355.068C130.521 355.258 129.121 355.09 129.682 357.25C130.078 358.78 133.885 358.163 135.374 358.15C136.584 358.138 138.282 361.795 138.914 360.555C138.914 356.303 138.112 354.003 137.571 352.785Z" fill="white"/>
<path d="M94.0773 361.622C95.6075 361.067 97.228 360.647 100.335 359.942L99.0145 363.745L99.0523 368.075L90.2092 368.152C89.8483 368.155 89.2035 367.675 89.5113 365.722C89.896 363.282 91.903 362.41 94.0773 361.622Z" fill="#2C3C6D"/>
<path d="M104.871 362.856L108.991 370.708L112.826 368.696L108.707 360.844L104.871 362.856Z" fill="white"/>
<path d="M110.545 359.879L115.482 369.314L119.32 367.306L114.383 357.871L110.545 359.879Z" fill="white"/>
<path d="M116.096 356.581L122.922 369.879L126.775 367.901L119.949 354.604L116.096 356.581Z" fill="white"/>
<path d="M139.421 371.605L139.163 367.047L99.3595 367.667L89.435 366.94L89.1318 370.432C89.027 371.64 89.9322 372.697 91.1404 372.782L99.4092 373.35L138.356 372.747C138.972 372.737 139.455 372.217 139.421 371.605Z" fill="#E2E6EA"/>
<path d="M201.353 373.255C201.403 367.518 200.621 364.028 195.634 361.683C190.646 359.338 185.948 354.83 177.32 350.965C177.32 350.965 176.184 350.753 174.335 351.753C172.758 352.605 170.731 354.698 167.678 354.673C164.362 354.643 161.408 353.94 159.572 352.978C158.779 350.805 157.019 350.79 157.019 350.79C157.019 350.79 154.542 355.505 154.501 360.24C154.459 364.978 154.464 372.845 154.464 372.845L201.353 373.255Z" fill="#465688"/>
<path d="M181.17 357.3C181.027 357.819 181.518 358.289 182.03 358.124L185.341 357.057V360.053C185.341 360.566 185.889 360.892 186.34 360.648L188.589 359.429V361.678C188.589 362.051 188.892 362.354 189.266 362.354C189.64 362.354 189.943 362.051 189.943 361.678V358.293C189.943 357.78 189.395 357.453 188.944 357.698L186.695 358.916V356.128C186.695 355.669 186.247 355.343 185.81 355.484L182.808 356.451L183.558 353.735C183.709 353.185 183.154 352.706 182.632 352.936L178.998 354.539C179.017 354.091 179.057 353.729 179.129 353.333C179.207 352.913 179.317 352.537 179.463 352.208C179.615 351.866 179.461 351.466 179.12 351.314C178.778 351.163 178.378 351.316 178.227 351.658C178.033 352.092 177.894 352.569 177.798 353.088L177.767 353.269L177.739 353.447C177.649 354.065 177.627 354.655 177.627 355.585C177.627 356.074 178.129 356.402 178.577 356.204L181.874 354.75L181.17 357.3Z" fill="white"/>
<path d="M155.972 353.285C156.935 354.593 160.408 355.375 161.715 355.568C163.022 355.758 164.422 355.59 163.861 357.75C163.465 359.28 159.658 358.663 158.169 358.65C156.959 358.638 155.261 362.295 154.629 361.055C154.629 356.803 155.431 354.503 155.972 353.285Z" fill="white"/>
<path d="M199.466 362.122C197.936 361.567 196.315 361.147 193.208 360.442L194.529 364.245L194.491 368.575L203.334 368.652C203.695 368.655 204.34 368.175 204.032 366.222C203.647 363.782 201.64 362.91 199.466 362.122Z" fill="#2C3C6D"/>
<path d="M184.837 361.344L180.717 369.196L184.552 371.208L188.672 363.356L184.837 361.344Z" fill="white"/>
<path d="M179.16 358.371L174.223 367.806L178.061 369.814L182.997 360.379L179.16 358.371Z" fill="white"/>
<path d="M173.593 355.104L166.768 368.401L170.621 370.379L177.446 357.081L173.593 355.104Z" fill="white"/>
<path d="M153.929 372.102L154.188 367.547L194.144 368.165L204.106 367.44L204.411 370.932C204.516 372.14 203.61 373.197 202.402 373.28L194.094 373.85L154.994 373.245C154.378 373.237 153.895 372.717 153.929 372.102Z" fill="#E2E6EA"/>
<path d="M190.178 170.671C185.624 173.308 184.04 179.104 186.593 183.683L186.723 183.91L186.891 184.196C187.458 185.147 187.851 185.632 189.737 187.806L190.949 189.204L191.229 189.53C192.465 190.969 193.341 192.035 194.25 193.222L194.352 193.354C197.154 197.031 198.901 200.244 199.398 202.681L199.42 202.795C200.412 208.017 205.449 211.446 210.67 210.455C215.892 209.463 219.321 204.426 218.33 199.205C217.192 193.211 214.157 187.587 209.659 181.686L209.324 181.249L209.079 180.933C207.982 179.525 206.913 178.241 205.459 176.558L203.686 174.511L203.456 174.239C203.42 174.197 203.385 174.154 203.346 174.108L203.195 173.924L203.11 173.819C200.355 169.498 194.656 168.079 190.178 170.671Z" fill="#EBBAAA"/>
<path d="M109.655 153.444C108.941 154.743 108.214 155.989 107.472 157.189C104.924 161.305 102.275 164.781 99.1104 168.322L98.8527 168.609C97.1627 170.486 91.2983 176.54 90.2312 177.705C86.1911 182.115 83.4275 185.974 81.2859 190.695C78.9777 195.784 81.2319 201.781 86.3209 204.089C91.359 206.374 97.2866 204.188 99.6443 199.206L99.7146 199.054C100.806 196.647 102.319 194.503 104.86 191.695L105.206 191.316C106.18 190.266 111.928 184.329 113.889 182.152C117.935 177.659 121.386 173.159 124.679 167.837C125.605 166.341 126.508 164.794 127.389 163.19C130.081 158.293 128.292 152.141 123.395 149.45C118.498 146.759 112.346 148.547 109.655 153.444Z" fill="#EBBAAA"/>
<path d="M110.593 146.901C120.618 137.371 136.793 139.083 144.6 150.502C151.88 161.15 148.713 175.728 137.671 182.396L108.326 200.117L79.8125 176.162L110.593 146.901Z" fill="#32A3DE"/>
<path d="M192.01 146.654C182.854 136.286 166.591 136.583 157.819 147.277C149.639 157.25 151.523 172.049 161.942 179.654L189.631 199.865L220.123 178.486L192.01 146.654Z" fill="#32A3DE"/>
<path d="M111.007 167.257C111.832 152.596 123.829 141.055 138.511 140.799L158.014 140.459C173.37 140.191 186.083 152.327 186.528 167.679L187.655 206.51L188.136 255.58C188.136 255.58 162.423 257.08 147.923 257.08C133.423 257.08 108.139 255.58 108.139 255.58L108.721 207.875L111.007 167.257Z" fill="#32A3DE"/>
<path d="M147.844 167.991C157.611 167.821 165.39 159.765 165.22 149.999C165.049 140.232 156.994 132.453 147.227 132.623C137.46 132.794 129.681 140.849 129.852 150.616C130.022 160.383 138.078 168.162 147.844 167.991Z" fill="#42B4EF"/>
<path fill-rule="evenodd" clip-rule="evenodd" d="M132.22 206.085V204.6H128.035V206.79H129.61V206.94C129.61 207.345 129.505 207.78 129.205 208.08C128.965 208.335 128.59 208.5 128.035 208.5C127.555 208.5 127.195 208.305 127 208.05C126.76 207.735 126.61 207.36 126.61 205.41C126.61 203.46 126.76 203.1 127 202.785C127.195 202.53 127.555 202.32 128.035 202.32C128.935 202.32 129.355 202.71 129.565 203.52H132.205C131.95 201.765 130.78 199.98 128.035 199.98C126.745 199.98 125.845 200.4 125.065 201.18C123.982 202.263 123.983 203.694 123.985 205.232L123.985 205.41L123.985 205.588C123.983 207.126 123.982 208.557 125.065 209.64C125.845 210.42 126.79 210.84 128.035 210.84C129.205 210.84 130.225 210.585 131.14 209.64C131.95 208.815 132.22 207.81 132.22 206.085ZM141.827 205.41L141.827 205.232C141.829 203.694 141.83 202.263 140.747 201.18C139.967 200.4 139.067 199.98 137.762 199.98C136.457 199.98 135.557 200.4 134.777 201.18C133.694 202.263 133.696 203.694 133.697 205.232L133.697 205.41L133.697 205.588C133.696 207.126 133.694 208.557 134.777 209.64C135.557 210.42 136.457 210.84 137.762 210.84C139.067 210.84 139.967 210.42 140.747 209.64C141.83 208.557 141.829 207.126 141.827 205.588L141.827 205.41ZM138.812 208.02C139.052 207.705 139.202 207.36 139.202 205.41C139.202 203.46 139.052 203.1 138.812 202.785C138.617 202.53 138.242 202.32 137.762 202.32C137.282 202.32 136.907 202.53 136.712 202.785C136.472 203.1 136.322 203.46 136.322 205.41C136.322 207.36 136.472 207.705 136.712 208.02C136.907 208.275 137.282 208.5 137.762 208.5C138.242 208.5 138.617 208.275 138.812 208.02ZM151.527 206.085V204.6H147.342V206.79H148.917V206.94C148.917 207.345 148.812 207.78 148.512 208.08C148.272 208.335 147.897 208.5 147.342 208.5C146.862 208.5 146.502 208.305 146.307 208.05C146.067 207.735 145.917 207.36 145.917 205.41C145.917 203.46 146.067 203.1 146.307 202.785C146.502 202.53 146.862 202.32 147.342 202.32C148.242 202.32 148.662 202.71 148.872 203.52H151.512C151.257 201.765 150.087 199.98 147.342 199.98C146.052 199.98 145.152 200.4 144.372 201.18C143.289 202.263 143.29 203.694 143.292 205.232L143.292 205.41L143.292 205.588C143.29 207.126 143.289 208.557 144.372 209.64C145.152 210.42 146.097 210.84 147.342 210.84C148.512 210.84 149.532 210.585 150.447 209.64C151.257 208.815 151.527 207.81 151.527 206.085ZM161.134 205.232L161.134 205.41L161.134 205.588C161.136 207.126 161.137 208.557 160.054 209.64C159.274 210.42 158.374 210.84 157.069 210.84C155.764 210.84 154.864 210.42 154.084 209.64C153.001 208.557 153.002 207.126 153.004 205.588L153.004 205.41L153.004 205.232C153.002 203.694 153.001 202.263 154.084 201.18C154.864 200.4 155.764 199.98 157.069 199.98C158.374 199.98 159.274 200.4 160.054 201.18C161.137 202.263 161.136 203.694 161.134 205.232ZM158.509 205.41C158.509 207.36 158.359 207.705 158.119 208.02C157.924 208.275 157.549 208.5 157.069 208.5C156.589 208.5 156.214 208.275 156.019 208.02C155.779 207.705 155.629 207.36 155.629 205.41C155.629 203.46 155.779 203.1 156.019 202.785C156.214 202.53 156.589 202.32 157.069 202.32C157.549 202.32 157.924 202.53 158.119 202.785C158.359 203.1 158.509 203.46 158.509 205.41ZM170.834 204.6V206.085C170.834 207.81 170.564 208.815 169.754 209.64C168.839 210.585 167.819 210.84 166.649 210.84C165.404 210.84 164.459 210.42 163.679 209.64C162.595 208.557 162.597 207.126 162.599 205.588C162.599 205.529 162.599 205.47 162.599 205.41C162.599 205.35 162.599 205.291 162.599 205.232C162.597 203.694 162.595 202.263 163.679 201.18C164.459 200.4 165.359 199.98 166.649 199.98C169.394 199.98 170.564 201.765 170.819 203.52H168.179C167.969 202.71 167.549 202.32 166.649 202.32C166.169 202.32 165.809 202.53 165.614 202.785C165.374 203.1 165.224 203.46 165.224 205.41C165.224 207.36 165.374 207.735 165.614 208.05C165.809 208.305 166.169 208.5 166.649 208.5C167.204 208.5 167.579 208.335 167.819 208.08C168.119 207.78 168.224 207.345 168.224 206.94V206.79H166.649V204.6H170.834Z" fill="white"/>
<path d="M122.223 204.821C123.074 201.961 130.374 195.841 134.213 193.63C138.112 194.899 158.351 206.274 162.081 211.384C159.261 214.143 156.115 218.365 150.386 223.067C145.289 222.249 121.373 207.681 122.223 204.821Z" fill="#7C8491"/>
<path d="M125.156 140.281C124.42 145.73 125.514 156.306 127.955 166.531C130.908 178.901 135.383 189.393 141.141 195.833L146.359 191.167C141.532 185.769 137.471 176.246 134.764 164.906L134.63 164.338C132.465 155.057 131.505 145.571 132.093 141.219L125.156 140.281Z" fill="#6B5B7B"/>
<path d="M164.24 140.766C165.359 145.017 165.054 153.778 163.284 163.298C161.272 174.124 157.681 184.623 152.984 192.599L159.016 196.151C164.165 187.407 168.015 176.151 170.166 164.577C172.108 154.131 172.446 144.441 171.01 138.984L164.24 140.766Z" fill="#6B5B7B"/>
<rect x="121.5" y="192.25" width="52.75" height="28.5" rx="0.955495" fill="#E6E6E6"/>
<rect x="121.593" y="191.75" width="8.91798" height="5.09597" rx="0.636998" fill="#2B2927"/>
<rect x="132.422" y="191.75" width="5.41447" height="5.09597" rx="0.636998" fill="#2B2927"/>
<rect x="143.75" y="190.25" width="30.5" height="3" rx="0.636998" fill="#FCFAF9"/>
<path d="M118 198.438H165.871C168.632 198.438 170.871 200.677 170.871 203.438V222.007H123C120.239 222.007 118 219.769 118 217.007V198.438Z" fill="#FCFAF9"/>
<path d="M166.5 203.75C167.605 203.75 168.5 202.855 168.5 201.75C168.5 200.645 167.605 199.75 166.5 199.75C165.395 199.75 164.5 200.645 164.5 201.75C164.5 202.855 165.395 203.75 166.5 203.75Z" fill="#FF2929"/>
<path fill-rule="evenodd" clip-rule="evenodd" d="M163.899 213.249C163.899 222.659 156.27 230.288 146.859 230.288C137.448 230.288 129.819 222.659 129.819 213.249C129.819 203.838 137.448 196.209 146.859 196.209C156.27 196.209 163.899 203.838 163.899 213.249ZM134.278 213.249C134.278 220.197 139.911 225.829 146.859 225.829C153.807 225.829 159.44 220.197 159.44 213.249C159.44 206.301 153.807 200.668 146.859 200.668C139.911 200.668 134.278 206.301 134.278 213.249Z" fill="#E6E6E6"/>
<path fill-rule="evenodd" clip-rule="evenodd" d="M161.669 213.249C161.669 221.428 155.038 228.059 146.859 228.059C138.68 228.059 132.049 221.428 132.049 213.249C132.049 205.069 138.68 198.438 146.859 198.438C155.038 198.438 161.669 205.069 161.669 213.249ZM136.508 213.249C136.508 218.965 141.142 223.6 146.859 223.6C152.576 223.6 157.21 218.965 157.21 213.249C157.21 207.532 152.576 202.897 146.859 202.897C141.142 202.897 136.508 207.532 136.508 213.249Z" fill="#252626"/>
<path fill-rule="evenodd" clip-rule="evenodd" d="M147.018 223.918C152.823 223.918 157.529 219.213 157.529 213.408C157.529 207.603 152.823 202.897 147.018 202.897C141.214 202.897 136.508 207.603 136.508 213.408C136.508 219.213 141.214 223.918 147.018 223.918Z" fill="#5D5F61"/>
<mask id="mask0_0_9878" style="mask-type:luminance" maskUnits="userSpaceOnUse" x="136" y="202" width="22" height="22">
<path fill-rule="evenodd" clip-rule="evenodd" d="M147.018 223.918C152.823 223.918 157.529 219.213 157.529 213.408C157.529 207.603 152.823 202.897 147.018 202.897C141.214 202.897 136.508 207.603 136.508 213.408C136.508 219.213 141.214 223.918 147.018 223.918Z" fill="white"/>
</mask>
<g mask="url(#mask0_0_9878)">
<rect x="156.385" y="193.979" width="7.96247" height="34.8875" transform="rotate(40 156.385 193.979)" fill="white" fill-opacity="0.28"/>
<rect x="151.926" y="182.832" width="7.96247" height="34.8875" transform="rotate(40 151.926 182.832)" fill="white" fill-opacity="0.28"/>
</g>
<path d="M200.839 195.945C188.807 207.977 173.41 216.333 163.445 216.498L163.144 216.501C157.829 216.501 153.521 220.81 153.521 226.125C153.521 231.44 157.829 235.748 163.144 235.748C179.05 235.748 199.022 224.982 214.449 209.555C218.208 205.796 218.208 199.703 214.449 195.945C210.691 192.186 204.598 192.186 200.839 195.945Z" fill="#EBBAAA"/>
<path d="M83.0494 190.476C79.4469 194.384 79.6944 200.473 83.6022 204.075C87.7379 207.888 92.7432 209.255 98.6961 209.026C100.634 208.951 102.649 208.718 105.151 208.318L106.009 208.175C107.977 207.84 112.287 207.067 112.09 207.101L112.704 206.995L113.332 206.888C117.786 206.137 121.277 205.712 125.039 205.528C130.221 205.276 135.363 205.555 140.739 206.483C145.976 207.387 150.955 203.874 151.859 198.636C152.762 193.398 149.249 188.42 144.012 187.516C137.2 186.341 130.651 185.984 124.102 186.304C119.278 186.539 114.941 187.082 109.506 188.015L103.258 189.119C102.891 189.182 102.583 189.235 102.369 189.27L101.976 189.333L101.47 189.412C100.044 189.628 98.9486 189.748 98.0564 189.788L97.9543 189.793C97.4739 189.811 97.0778 189.804 96.7613 189.777L96.6379 189.764C96.5803 189.758 96.5289 189.751 96.4834 189.744L96.4398 189.737C92.5268 186.331 86.5886 186.637 83.0494 190.476Z" fill="#EBBAAA"/>
<rect x="137.75" y="115.25" width="19" height="28.75" rx="9.47775" fill="#EBBAAA"/>
<rect x="135.607" y="130.391" width="23.498" height="30.7078" rx="11.749" transform="rotate(-1 135.607 130.391)" fill="#EBBAAA"/>
<path d="M183.567 113.383C191.75 113.383 198.384 106.75 198.384 98.567C198.384 90.384 191.75 83.7502 183.567 83.7502C175.384 83.7502 168.75 90.384 168.75 98.567C168.75 106.75 175.384 113.383 183.567 113.383Z" fill="#EBBAAA"/>
<path d="M113.817 114.133C105.634 114.133 99 107.5 99 99.317C99 91.134 105.634 84.5002 113.817 84.5002C122 84.5002 128.633 91.134 128.633 99.317C128.633 107.5 122 114.133 113.817 114.133Z" fill="#EBBAAA"/>
<path d="M109.25 71.1252C109.25 49.9313 126.431 32.7502 147.625 32.7502C168.819 32.7502 186 49.9313 186 71.1252V89.2502L183.462 112.091C181.891 126.237 172.047 138.13 158.46 142.369C151.427 144.564 143.862 144.53 136.853 142.258C123.871 138.049 114.438 126.788 112.57 113.269L109.25 89.2502V71.1252Z" fill="#F4D4C9"/>
<path d="M139.816 123.933C144.713 126.654 150.493 126.583 156.729 124.032C157.713 123.629 158.185 122.505 157.782 121.522C157.38 120.538 156.256 120.066 155.272 120.469C150.039 122.609 145.461 122.665 141.685 120.568C140.756 120.051 139.584 120.386 139.068 121.316C138.551 122.245 138.886 123.417 139.816 123.933Z" fill="#C99584"/>
<path d="M159.875 93.7502V97.2502C159.875 99.1832 161.442 100.75 163.375 100.75C165.308 100.75 166.875 99.1832 166.875 97.2502V93.7502C166.875 91.8172 165.308 90.2502 163.375 90.2502C161.442 90.2502 159.875 91.8172 159.875 93.7502Z" fill="black"/>
<path d="M127.625 93.7502V97.2502C127.625 99.1832 129.192 100.75 131.125 100.75C133.058 100.75 134.625 99.1832 134.625 97.2502V93.7502C134.625 91.8172 133.058 90.2502 131.125 90.2502C129.192 90.2502 127.625 91.8172 127.625 93.7502Z" fill="black"/>
<path d="M157.881 82.1615L172.196 81.536C173.851 81.4637 175.134 80.0632 175.062 78.4079C174.989 76.7526 173.589 75.4694 171.934 75.5417L157.619 76.1672C155.964 76.2396 154.681 77.6401 154.753 79.2953C154.825 80.9506 156.226 82.2338 157.881 82.1615Z" fill="#393939"/>
<path d="M136.99 76.1566L122.663 76.0311C121.006 76.0166 119.651 77.3479 119.637 79.0047C119.622 80.6615 120.954 82.0164 122.61 82.0309L136.938 82.1564C138.595 82.1709 139.95 80.8396 139.964 79.1828C139.979 77.526 138.647 76.1711 136.99 76.1566Z" fill="#393939"/>
<path d="M145.43 100.452C143.912 103.131 143.027 106.058 143.141 108.446C143.298 111.727 145.357 113.932 148.825 113.932V109.682L148.698 109.681L148.579 109.676C147.695 109.626 147.435 109.27 147.386 108.243C147.316 106.76 147.973 104.584 149.127 102.548L145.43 100.452Z" fill="#EBBAAA"/>
<path d="M175.5 58.625C175.038 54.75 176.017 54.2108 175.5 49.875C175.134 46.8039 172.605 38.7613 181.336 45.1964C190.066 51.6315 191.375 65.75 189 77.75L185.375 92L182.679 91.3335L183.75 73.25C179.351 68.822 176.275 65.1285 175.5 58.625Z" fill="#6E6C6C"/>
<path d="M113.957 65.0622C114.317 58.5232 113.58 58.86 113.821 54.5005C113.991 51.4125 115.055 52.0882 109.543 57.7505C106.5 60.8755 107.646 74.302 108.293 83.083L109.063 91.1762L110.293 91.244L110.848 81.1772C113.021 74.2015 113.596 71.6015 113.957 65.0622Z" fill="#6E6C6C"/>
<path fill-rule="evenodd" clip-rule="evenodd" d="M148.878 27.5005V27.5002C148.859 27.5002 148.841 27.5003 148.822 27.5003C148.804 27.5003 148.786 27.5002 148.767 27.5002L148.767 27.5005C136.995 27.5447 108.559 34.8045 107.5 68.0002C110.63 63.9112 113.332 60.3925 117.625 57.7242C126.663 52.1067 136.426 51.619 146.219 51.619C151.608 51.619 158.744 52.2125 162.625 51.619C169.125 50.6252 172.051 51.7547 177.168 57.7242C181.785 64.777 183.531 68.9132 189.625 73.7502C195.25 38.7502 160.649 27.5447 148.878 27.5005Z" fill="#272727"/>
<path d="M118.218 36.7798L115.798 45.3753L147.694 40.4357L184.146 47.0992L184.069 43.5625L181.469 42.4817L181.408 39.7029L178.13 39.7741L178.037 35.4795L173.823 35.5711L172.815 32.3074L169.069 32.3888L166.773 29.1531L162.932 30.2475L161.718 28.252L157.738 28.3385L157.688 26.0649L152.353 28.4556L150.898 26.2125L148.607 28.537L146.216 26.3143L141.817 28.6846L138.958 26.4721L135.964 28.8118L133.857 28.8576L131.559 30.9295L130.579 28.9289L126.692 33.3099L124.095 32.3554L120.807 37.3554L118.218 36.7798Z" fill="#272727"/>
<path d="M129.25 52.3222V48.0002L124.25 53.3832L125.922 41.5002L162.872 49.8259L152.5 56.8017V52.3222L147.125 56.8017L145.75 52.3222L140.375 55.6252L139.125 51.0002L133.875 54.6252L132.375 49.8259L129.25 52.3222Z" fill="#272727"/>
<path d="M143 90.5753C144.599 90.4046 145.935 90.1653 149.625 90.5753" stroke="black" stroke-width="2.5646"/>
<path d="M149.557 90.8275C148.932 88.093 150.996 85.5002 153.797 85.5002H175.264C178.065 85.5002 180.163 88.093 179.575 90.8275L177.905 98.5882C177.474 100.593 175.706 102.019 173.653 102.019H155.627C153.574 102.019 151.787 100.593 151.329 98.5882L149.557 90.8275Z" fill="white" fill-opacity="0.29"/>
<path d="M113.469 90.9259C112.887 88.1916 114.99 85.5989 117.791 85.5989H139.255C142.056 85.5989 144.114 88.1916 143.484 90.9259L141.695 98.6891C141.234 100.694 139.444 102.12 137.39 102.12H119.368C117.315 102.12 115.55 100.694 115.123 98.6891L113.469 90.9259Z" fill="white" fill-opacity="0.29"/>
<path fill-rule="evenodd" clip-rule="evenodd" d="M148.805 90.8984L148.826 90.9945L150.598 98.7552C151.134 101.101 153.224 102.769 155.627 102.769H173.653C176.059 102.769 178.133 101.096 178.639 98.746L180.308 90.9852C180.997 87.7834 178.543 84.7502 175.264 84.7502H153.797C150.547 84.7502 148.142 87.7303 148.805 90.8984ZM155.627 101.269C153.924 101.269 152.44 100.085 152.061 98.4215L150.288 90.6607C149.771 88.3955 151.478 86.2505 153.797 86.2505H175.265C177.588 86.2505 179.33 88.4029 178.842 90.67L177.172 98.4308C176.815 100.09 175.353 101.269 173.653 101.269H155.627Z" fill="black"/>
<path fill-rule="evenodd" clip-rule="evenodd" d="M112.716 90.9861L112.736 91.0821L114.389 98.8454C114.89 101.196 116.962 102.87 119.368 102.87H137.39C139.793 102.87 141.886 101.202 142.426 98.8575L144.215 91.0943C144.953 87.8905 142.539 84.8489 139.255 84.8489H117.791C114.547 84.8489 112.104 87.8204 112.716 90.9861ZM119.368 101.371C117.668 101.371 116.209 100.191 115.856 98.5331L114.202 90.7699C113.72 88.5026 115.467 86.3491 117.791 86.3491H139.255C141.573 86.3491 143.275 88.4929 142.753 90.7577L140.964 98.521C140.581 100.185 139.094 101.371 137.39 101.371H119.368Z" fill="black"/>
</svg>
