<svg width="300" height="400" viewBox="0 0 300 400" fill="none" xmlns="http://www.w3.org/2000/svg">
<path d="M148.579 275.486C164.524 275.486 177.451 269.363 177.451 261.809C177.451 254.256 164.524 248.133 148.579 248.133C132.633 248.133 119.706 254.256 119.706 261.809C119.706 269.363 132.633 275.486 148.579 275.486Z" fill="#090B08"/>
<path d="M169.874 314.235V356.238" stroke="#DCE1E9" stroke-width="13.5" stroke-linecap="round" stroke-linejoin="bevel"/>
<path d="M135.86 314.235L140.042 352.505" stroke="#DCE1E9" stroke-width="13.5" stroke-linecap="round" stroke-linejoin="bevel"/>
<path d="M133.746 348.1C132.859 346.732 131.543 346.662 130.477 345.877C129.953 346.625 129.993 347.715 129.519 349.177L126.44 352.977L121.088 358.71L115.987 361.477L119.064 365.025C121.124 363.417 132.818 350.967 133.746 348.1Z" fill="#3B3937"/>
<path d="M151.825 366.887C151.825 366.887 151.94 360.67 150.588 357.237C149.235 353.807 147.795 344.94 147.795 344.94C147.795 344.94 145.47 347.477 141.101 347.515L132.867 347.587C132.867 347.587 125.697 357.595 123.59 358.937C121.483 360.28 109.548 362.885 109.548 362.885C107.281 362.905 105.46 364.76 105.479 367.027L105.498 369.115L130.391 368.897L151.825 366.887Z" fill="#1C1B19"/>
<path d="M115.881 363.63C112.759 364.033 108.76 364.193 108.002 363.2L113.113 361.655L119.84 358.97L121.598 359.83L121.354 360.583L125.125 362.925L123.52 365.19L123.495 365.178C122.263 364.64 119.033 363.225 115.881 363.63Z" fill="#303030"/>
<path d="M131.001 349.415L129.673 348.897C129.264 348.738 128.803 348.94 128.644 349.349C128.485 349.758 128.687 350.219 129.096 350.378L130.425 350.895C130.834 351.055 131.294 350.852 131.453 350.443C131.613 350.034 131.41 349.574 131.001 349.415Z" fill="#1C1B19"/>
<path d="M129.021 351.682L127.692 351.165C127.284 351.005 126.823 351.208 126.664 351.617C126.505 352.026 126.707 352.486 127.116 352.645L128.444 353.163C128.853 353.322 129.314 353.12 129.473 352.711C129.632 352.302 129.43 351.841 129.021 351.682Z" fill="#1C1B19"/>
<path d="M127.291 353.947L125.962 353.43C125.553 353.271 125.093 353.473 124.933 353.882C124.774 354.291 124.976 354.751 125.385 354.911L126.714 355.428C127.123 355.587 127.583 355.385 127.743 354.976C127.902 354.567 127.7 354.107 127.291 353.947Z" fill="#1C1B19"/>
<path d="M125.31 356.215L123.981 355.697C123.573 355.538 123.112 355.741 122.953 356.149C122.794 356.558 122.996 357.019 123.405 357.178L124.734 357.696C125.143 357.855 125.603 357.652 125.762 357.244C125.922 356.835 125.719 356.374 125.31 356.215Z" fill="#1C1B19"/>
<path d="M122.331 358.493L121.003 357.973C120.594 357.813 120.133 358.015 119.973 358.423C119.813 358.832 120.015 359.293 120.424 359.453L121.752 359.973C122.161 360.132 122.622 359.931 122.782 359.522C122.942 359.114 122.74 358.653 122.331 358.493Z" fill="#1C1B19"/>
<path d="M152.126 366.627L128.699 367.89L105.386 367.035L105.045 370.085C104.941 371.01 105.653 371.827 106.584 371.85L128.252 372.397L140.347 372.422L152.437 371.92L152.126 366.627Z" fill="#303030"/>
<path d="M176.247 347.85C177.134 346.482 178.451 346.412 179.517 345.627C180.04 346.375 180.001 347.465 180.474 348.927L183.553 352.727L188.905 358.46L194.006 361.227L190.93 364.775C188.869 363.167 177.176 350.717 176.247 347.85Z" fill="#3B3937"/>
<path d="M158.168 366.637C158.168 366.637 158.053 360.42 159.406 356.987C160.758 353.557 162.198 344.69 162.198 344.69C162.198 344.69 164.523 347.227 168.892 347.265L177.127 347.337C177.127 347.337 184.296 357.345 186.403 358.687C188.51 360.03 200.445 362.635 200.445 362.635C202.712 362.655 204.534 364.51 204.514 366.777L204.496 368.865L179.603 368.647L158.168 366.637Z" fill="#1C1B19"/>
<path d="M194.112 363.38C197.234 363.783 201.233 363.943 201.991 362.95L196.88 361.405L190.153 358.72L188.395 359.58L188.639 360.333L184.868 362.675L186.473 364.94L186.498 364.928C187.73 364.39 190.96 362.975 194.112 363.38Z" fill="#303030"/>
<path d="M179.569 350.645L180.897 350.128C181.306 349.969 181.509 349.508 181.349 349.099C181.19 348.69 180.73 348.488 180.321 348.647L178.992 349.165C178.583 349.324 178.381 349.784 178.54 350.193C178.699 350.602 179.16 350.805 179.569 350.645Z" fill="#1C1B19"/>
<path d="M181.549 352.913L182.878 352.395C183.286 352.236 183.489 351.776 183.33 351.367C183.17 350.958 182.71 350.755 182.301 350.915L180.972 351.432C180.563 351.591 180.361 352.052 180.52 352.461C180.679 352.87 181.14 353.072 181.549 352.913Z" fill="#1C1B19"/>
<path d="M183.279 355.178L184.608 354.661C185.017 354.501 185.219 354.041 185.06 353.632C184.901 353.223 184.44 353.021 184.031 353.18L182.702 353.697C182.294 353.857 182.091 354.317 182.25 354.726C182.41 355.135 182.87 355.337 183.279 355.178Z" fill="#1C1B19"/>
<path d="M185.259 357.446L186.588 356.928C186.997 356.769 187.199 356.308 187.04 355.899C186.881 355.491 186.42 355.288 186.011 355.447L184.683 355.965C184.274 356.124 184.071 356.585 184.231 356.994C184.39 357.402 184.85 357.605 185.259 357.446Z" fill="#1C1B19"/>
<path d="M188.241 359.723L189.57 359.203C189.978 359.043 190.18 358.582 190.02 358.173C189.86 357.765 189.399 357.563 188.991 357.723L187.662 358.243C187.253 358.403 187.051 358.864 187.211 359.272C187.371 359.681 187.832 359.882 188.241 359.723Z" fill="#1C1B19"/>
<path d="M157.867 366.377L181.294 367.64L204.608 366.785L204.948 369.835C205.052 370.76 204.341 371.577 203.409 371.6L181.741 372.147L169.646 372.172L157.556 371.67L157.867 366.377Z" fill="#303030"/>
<path d="M117.542 246.506H151.292L150.042 336.455L148.042 343.505L128.917 342.505L126.014 334.83L117.542 246.506Z" fill="#090B08"/>
<path d="M150.971 248.012H184.835L183.542 334.505L180.792 341.755L161.292 345.11L159.477 336.505L150.971 248.012Z" fill="#090B08"/>
<path d="M126.917 340.505H148.542L149.792 342.5L148.542 346.505L143.542 348.125H128.792L127.917 346.505L128.417 344.25L126.417 343.75L126.917 340.505Z" fill="#090B08"/>
<path d="M160.542 340.505L182.792 340.875L180.917 344.875L181.292 347L175.917 347.75H170.167L159.417 346.5L160.542 340.505Z" fill="#090B08"/>
<rect x="97.2075" y="176.14" width="27.468" height="4.17175" transform="rotate(18 97.2075 176.14)" fill="#F1EDED"/>
<rect x="203.728" y="185.262" width="27.468" height="4.17175" transform="rotate(162 203.728 185.262)" fill="#F1EDED"/>
<path d="M118.18 164.535C118.389 155.931 125.277 148.984 133.878 148.703L153.959 148.046C155.596 147.994 157.234 148.079 158.855 148.304L178.457 151.014C187.105 152.21 193.258 160.028 192.387 168.714L188.679 205.686L190.54 258.655C190.558 259.109 168.996 258.679 168.542 258.655H133.878L114.176 255.682C113.741 255.658 113.408 255.28 113.444 254.844L117.294 201.082L118.18 164.535Z" fill="#D9D9E3"/>
<path d="M150.792 170.75C160.595 170.75 168.542 162.635 168.542 152.625C168.542 142.615 160.595 134.5 150.792 134.5C140.989 134.5 133.042 142.615 133.042 152.625C133.042 162.635 140.989 170.75 150.792 170.75Z" fill="#E9E9F0"/>
<path d="M100.542 163.125C103.142 155.125 106.959 153.709 108.542 154L127.667 234C125.917 240.25 119.642 251.1 108.542 244.5C94.667 236.25 85.292 217.5 86.042 211.875C86.792 206.25 97.292 173.125 100.542 163.125Z" fill="#1B1B1B"/>
<path d="M203.042 156.5C200.642 155 188.792 151.458 182.792 149.5C183.917 179.958 186.317 241.5 188.417 241.5C191.042 241.5 207.542 228 212.792 220.125C218.042 212.25 206.042 158.375 203.042 156.5Z" fill="#1B1B1B"/>
<path d="M147.292 213C147.093 196.211 144.042 190.288 144.042 182.25C142.667 176.875 140.917 170.75 139.667 170C126.292 156.375 138.417 149.375 139.542 144C139.542 144 137.667 143.517 137.542 143.5C137.417 143.483 135.792 143 135.792 143C135.792 143 132.917 145.125 130.167 148.125C127.417 151.125 108.042 153.75 108.042 153.75C108.042 154.375 110.5 169.395 109.559 195.624C108.619 221.854 110.539 247.609 109.559 259.42C113.674 260.61 136.774 264.576 150.292 260.345C150.292 243.423 147.586 237.854 147.292 213Z" fill="#1B1B1B"/>
<path d="M108.292 231.25C109.592 227.65 112.375 226.708 114.417 226.375V260C111.208 259.458 108.392 259.6 105.292 257C101.417 253.75 100.667 242.25 101.917 238.375C103.167 234.5 106.667 235.75 108.292 231.25Z" fill="#333131"/>
<path d="M135.75 256.506C130.794 256.906 119.38 253.006 114.292 251.006V259.506C117.168 262.006 124.627 262.792 128.671 263.506C135.75 264.756 141.944 263.506 150.792 262.006L150.35 254.381C147.253 255.131 140.705 256.106 135.75 256.506Z" fill="#2C2A2A"/>
<path d="M126.667 151.125C128.167 149.225 133.292 144.917 135.667 143L139.542 144C139.417 144.375 139.042 145.4 138.542 146.5C137.917 147.875 134.167 151.554 133.417 156.375C132.542 162 138.042 168.25 139.792 170.125C141.542 172 142.292 175.625 143.292 179.25C144.292 182.875 144.167 188.5 145.542 192.75C146.917 197 147.417 208.875 147.417 213.875C147.417 218.875 147.917 232.25 148.542 235.375C149.042 237.875 150.417 256.792 150.792 262.125L145.167 262.75C143.542 236.542 139.167 175.575 135.667 170.875C132.167 166.175 122.125 166.75 117.542 167.625C119.042 165.25 122.267 159.95 123.167 157.75C124.292 155 124.792 153.5 126.667 151.125Z" fill="#090B08"/>
<path d="M155.967 216.125C156.154 199.879 153.233 196.75 155.967 188.75C159.342 178.875 157.967 176.75 162.092 167.256C162.988 160.606 171.717 153.75 162.092 144.125L166.042 143.25L182.681 149.41C184.193 149.97 185.427 150.935 185.844 152.492C187.502 158.685 190.609 176.968 191.326 197.537C192.211 222.918 193.545 249.009 194.467 260.437C187.277 261.46 178.467 264.125 165.967 263.125C162.092 248 155.69 240.175 155.967 216.125Z" fill="#1B1B1B"/>
<path d="M181.854 172.597C179.745 173.475 170.572 173.987 166.25 174.353V180.717C167.203 180.791 169.583 180.717 171.525 180.717C174.602 180.717 182.148 179.327 186.25 178.523V171.5C186.25 171.5 183.393 171.957 181.854 172.597Z" fill="#BB2521"/>
<path d="M197.792 241.125C196.792 237.325 193.542 229.042 192.042 225.375L189.417 254.125C192.625 251.375 198.792 244.925 197.792 241.125Z" fill="#1B1B1B"/>
<path d="M169.792 143.5L166.042 143.125L162.042 144.125C162.417 144.458 163.567 145.675 165.167 147.875C167.167 150.625 167.042 155.375 165.167 158.625C163.292 161.875 162.167 166.625 162.042 167.375C161.917 168.125 161.417 169.25 160.417 170.75C159.617 171.95 159.084 175.583 158.917 177.25C160.125 174.375 162.817 168.375 163.917 167.375C165.017 166.375 173.625 163.042 177.792 161.5C177.542 161.125 176.542 159.875 174.542 157.875C172.542 155.875 170.542 147.458 169.792 143.5Z" fill="#090B08"/>
<path d="M179.542 255.5C184.292 254.941 189.292 255.131 194.042 251.256L194.542 260.006C189.542 261.256 184.026 262.135 182.167 262.375C178.292 262.875 175.917 263.75 166.042 262.875L163.667 255.256C167.167 256.006 173.167 256.25 179.542 255.5Z" fill="#2C2A2A"/>
<path d="M140.917 183C141.953 183 142.792 182.161 142.792 181.125C142.792 180.089 141.953 179.25 140.917 179.25C139.881 179.25 139.042 180.089 139.042 181.125C139.042 182.161 139.881 183 140.917 183Z" fill="#48494D"/>
<path d="M144.167 202.75C145.203 202.75 146.042 201.911 146.042 200.875C146.042 199.839 145.203 199 144.167 199C143.131 199 142.292 199.839 142.292 200.875C142.292 201.911 143.131 202.75 144.167 202.75Z" fill="#48494D"/>
<path d="M144.917 220.5C145.953 220.5 146.792 219.661 146.792 218.625C146.792 217.589 145.953 216.75 144.917 216.75C143.881 216.75 143.042 217.589 143.042 218.625C143.042 219.661 143.881 220.5 144.917 220.5Z" fill="#48494D"/>
<path d="M145.917 239.25C146.953 239.25 147.792 238.411 147.792 237.375C147.792 236.339 146.953 235.5 145.917 235.5C144.881 235.5 144.042 236.339 144.042 237.375C144.042 238.411 144.881 239.25 145.917 239.25Z" fill="#48494D"/>
<path d="M147.667 257.5C148.703 257.5 149.542 256.661 149.542 255.625C149.542 254.589 148.703 253.75 147.667 253.75C146.631 253.75 145.792 254.589 145.792 255.625C145.792 256.661 146.631 257.5 147.667 257.5Z" fill="#48494D"/>
<path d="M134 167H136.375" stroke="#1B1B1B" stroke-width="0.75"/>
<rect x="139.542" y="133.006" width="22.5" height="29.75" rx="9.47775" fill="#EBBAAA"/>
<path d="M183.358 115.139C191.541 115.139 198.175 108.506 198.175 100.323C198.175 92.1396 191.541 85.5059 183.358 85.5059C175.175 85.5059 168.542 92.1396 168.542 100.323C168.542 108.506 175.175 115.139 183.358 115.139Z" fill="#EBBAAA"/>
<path d="M118.609 115.889C110.426 115.889 103.792 109.256 103.792 101.073C103.792 92.8896 110.426 86.2559 118.609 86.2559C126.792 86.2559 133.425 92.8896 133.425 101.073C133.425 109.256 126.792 115.889 118.609 115.889Z" fill="#EBBAAA"/>
<path d="M112.792 69.329C112.792 48.4399 129.726 31.5059 150.615 31.5059C171.93 31.5059 189.036 49.1101 188.423 70.4165L187.917 88.0058L187.004 115.501C186.468 131.673 173.202 144.506 157.021 144.506H151.167H145.126C129.531 144.506 116.537 132.559 115.231 117.019L112.792 88.0058V69.329Z" fill="#F4D4C9"/>
<path d="M143.857 126.438C148.754 129.159 154.534 129.089 160.771 126.537C161.755 126.135 162.226 125.011 161.824 124.027C161.421 123.043 160.297 122.572 159.313 122.974C154.081 125.115 149.502 125.17 145.727 123.073C144.797 122.557 143.626 122.892 143.109 123.821C142.593 124.75 142.928 125.922 143.857 126.438Z" fill="#C99584"/>
<path d="M152.571 57.23C133.521 57.23 118.149 57.23 117.139 71.1138C115.635 91.797 112.038 93.4608 109.311 83.869C108.895 82.407 106.02 72.6295 105.961 71.1138C105.961 31.0444 149.667 17.8809 165.667 33.881C175.402 41.8026 171.624 57.23 152.571 57.23Z" fill="#272727"/>
<path d="M138.667 62.506C142.567 61.806 152.792 59.881 157.917 56.756C143.542 55.256 115.017 53.781 115.917 59.881C117.042 67.506 133.792 63.381 138.667 62.506Z" fill="#272727"/>
<path d="M111.294 70.0584C111.228 68.5284 112.533 67.2559 114.167 67.2559C115.862 67.2559 117.189 68.6209 117.029 70.2009L114.322 96.9684C114.276 97.4159 113.876 97.7559 113.398 97.7559C112.899 97.7559 112.49 97.3884 112.469 96.9234L111.294 70.0584Z" fill="#272727"/>
<path d="M190.04 69.9436C190.106 68.4764 188.801 67.2559 187.167 67.2559C185.472 67.2559 184.145 68.5651 184.305 70.0804L187.012 95.7509C187.058 96.1799 187.458 96.5059 187.936 96.5059C188.435 96.5059 188.844 96.1536 188.865 95.7076L190.04 69.9436Z" fill="#272727"/>
<path d="M165.417 53.756C173.417 48.2561 183.783 59.1628 184.592 73.3043C186.599 84.395 190.404 101.364 195.042 68.381C193.932 38.9112 170.417 31.6312 161.792 35.1311C151.76 43.0527 145.784 53.756 165.417 53.756Z" fill="#272727"/>
<path d="M166.917 93.5059V93.7559" stroke="black" stroke-width="6" stroke-linecap="round"/>
<path d="M134.667 93.5059V93.7559" stroke="black" stroke-width="6" stroke-linecap="round"/>
<path d="M162.169 83.7078L176.496 83.5068C178.152 83.4835 179.476 82.1217 179.453 80.465C179.43 78.8083 178.068 77.4841 176.411 77.5074L162.085 77.7084C160.428 77.7316 159.104 79.0935 159.127 80.7502C159.15 82.4069 160.512 83.731 162.169 83.7078Z" fill="#393939"/>
<path d="M140.458 77.7367L126.131 77.9627C124.475 77.9888 123.153 79.353 123.179 81.0097C123.205 82.6663 124.569 83.9881 126.226 83.962L140.553 83.736C142.209 83.7098 143.531 82.3457 143.505 80.689C143.479 79.0324 142.115 77.7106 140.458 77.7367Z" fill="#393939"/>
<path d="M148.972 102.208C147.454 104.886 146.569 107.813 146.683 110.202C146.84 113.482 148.899 115.688 152.366 115.688V111.438C151.283 111.438 150.981 111.115 150.928 109.999C150.857 108.516 151.515 106.34 152.669 104.304L148.972 102.208Z" fill="#EBBAAA"/>
<path d="M154.689 99.9031L154.297 94.8636C154.297 94.8636 156.844 89.1391 167.082 87.9311C177.32 86.7231 181.847 93.0184 181.847 93.0184L181.054 100.382C180.525 105.305 176.303 108.996 171.353 108.863L163.905 108.662C159.044 108.531 155.067 104.751 154.689 99.9031Z" fill="white" fill-opacity="0.44"/>
<path d="M145.772 99.7082L146.107 94.9174C146.107 94.9174 143.562 89.3194 133.505 88.2142C123.447 87.1092 119.055 93.3232 119.055 93.3232L119.871 100.382C120.441 105.301 124.692 108.957 129.64 108.784L136.627 108.541C141.487 108.371 145.434 104.559 145.772 99.7082Z" fill="white" fill-opacity="0.44"/>
<path d="M155.75 103.681L154.274 94.1374C154.164 93.4259 154.368 92.7029 154.921 92.2414C156.42 90.9892 160.09 88.5762 166.862 87.7002C173.827 86.7994 178.813 89.1587 180.885 90.4069C181.577 90.8234 181.926 91.6014 181.881 92.4077L181.618 97.1317" stroke="black" stroke-width="2"/>
<path d="M144.75 103.582L146.121 94.2257C146.225 93.5135 146.015 92.7915 145.458 92.3355C143.966 91.1147 140.348 88.7897 133.719 87.9862C126.899 87.1597 122.034 89.4965 119.998 90.7407C119.309 91.1617 118.967 91.942 119.018 92.748L119.312 97.3582" stroke="black" stroke-width="2"/>
<path d="M145.5 94.7285C148.125 93.4785 151.125 92.9783 154.25 94.7285" stroke="black" stroke-width="1.75"/>
</svg>
