<svg width="300" height="400" viewBox="0 0 300 400" fill="none" xmlns="http://www.w3.org/2000/svg">
<path d="M177.553 167.998L178.317 170.769L179.771 176.008L180.448 178.468L180.798 179.751C181.135 180.991 181.435 182.113 181.723 183.205L182.012 184.315L182.188 184.995C183.457 189.941 184.387 194.097 185.081 198.054C186.718 207.382 187.003 215.565 185.787 223.878C184.41 233.289 181.058 243.005 175.273 253.708C173.04 257.838 174.579 262.995 178.708 265.228C182.838 267.46 187.995 265.922 190.228 261.792C196.93 249.394 200.933 237.79 202.608 226.338C204.105 216.103 203.757 206.129 201.825 195.116L201.716 194.499L201.603 193.879C200.801 189.533 199.76 185.012 198.383 179.719L198.043 178.423C197.555 176.577 197.027 174.635 196.359 172.215L194.023 163.778L193.948 163.503C192.706 158.975 188.03 156.311 183.503 157.553C178.975 158.794 176.311 163.47 177.553 167.998Z" fill="#EBBAAA"/>
<path d="M188.344 262.082C191.144 259.582 193.677 255.258 193.719 253.758C190.511 252.842 183.619 251.683 181.719 254.383C179.344 257.758 184.844 265.207 188.344 262.082Z" fill="#EBBAAA"/>
<path d="M170.365 358.378L170.347 358.141L170.33 357.866L170.315 357.567C170.275 356.701 170.255 355.55 170.258 354.154L170.26 353.637L170.264 353.092C170.294 349.825 170.428 345.553 170.654 340.478L170.724 338.947L170.779 337.795C171.208 328.886 171.868 318.263 172.53 309.14C172.879 304.324 169.258 300.138 164.443 299.788C159.627 299.439 155.441 303.06 155.091 307.875L154.973 309.531L154.82 311.698C154.175 320.994 153.562 331.294 153.188 339.699L153.122 341.195C152.902 346.402 152.781 350.761 152.774 354.118L152.774 354.76L152.777 355.401C152.789 356.937 152.83 358.243 152.904 359.33C152.962 360.19 153.043 360.948 153.163 361.648C153.41 363.099 153.753 364.266 154.635 365.653C157.228 369.726 162.631 370.927 166.704 368.335C170.104 366.172 171.502 362.05 170.365 358.378Z" fill="#161616"/>
<path d="M135.361 347.32L135.344 347.083L135.327 346.809L135.311 346.509C135.271 345.644 135.251 344.492 135.254 343.096L135.256 342.579L135.26 342.034C135.29 338.767 135.424 334.495 135.651 329.421L135.721 327.89L135.775 326.737C136.205 317.828 136.865 307.204 137.526 298.085C137.876 293.269 134.255 289.083 129.44 288.733C124.624 288.384 120.438 292.004 120.088 296.82L119.969 298.475L119.846 300.227C119.217 309.25 118.615 319.272 118.231 327.606L118.144 329.545L118.071 331.302C117.881 335.996 117.777 339.957 117.77 343.061L117.771 343.702L117.774 344.343C117.786 345.88 117.826 347.185 117.9 348.272C117.959 349.133 118.04 349.89 118.159 350.59C118.406 352.041 118.749 353.208 119.632 354.596C122.224 358.669 127.627 359.87 131.7 357.278C135.1 355.114 136.499 350.992 135.361 347.32Z" fill="#161616"/>
<path d="M181.481 255.188L151.481 256.259L152.244 296.225V347.688H169.981L180.481 296.225L187.481 264.438L181.481 255.188Z" fill="#C5B493"/>
<path d="M170.838 348.688L171.482 343.438H151.732V348.688H170.838Z" fill="#998B6E"/>
<path d="M147.243 276.33C130.445 276.33 116.827 269.316 116.827 260.665C116.827 252.013 130.445 245 147.243 245C164.042 245 177.659 252.013 177.659 260.665C177.659 269.316 164.042 276.33 147.243 276.33Z" fill="#C4B493"/>
<path d="M147.306 256.188H114.432L115.982 347.938H137.232L147.306 256.188Z" fill="#C5B493"/>
<path d="M137.331 348.938L137.982 343.688H115.857V348.562L137.331 348.938Z" fill="#998B6E"/>
<path d="M197.235 372.49C197.733 371.37 197.375 368.87 197.096 368.45C196.817 368.032 162.972 365.387 162.972 365.387C157.355 364.97 146.89 365.01 146.12 368.032C144.17 375.692 149.464 375.692 153.921 375.692C160.049 375.692 160.776 374.07 164.783 374.58C166.872 374.845 169.936 376.25 184.003 376.25C195.285 376.25 196.121 374.997 197.235 372.49Z" fill="#C9D1DC"/>
<path d="M162.277 353.615C156.595 353.502 154.71 349.852 154.478 348.042H151.553C151.275 348.46 150.37 349.435 149.743 352.36C148.907 356.26 147.514 356.957 146.679 360.577C146.1 363.085 145.982 366.845 147.375 368.935C149.538 372.18 152.25 371.86 156.846 371.86C159.492 371.86 163.949 371.162 167.988 372.277C173.627 373.832 189.158 374.645 193.058 373.39C199.703 371.255 197.653 365.035 194.868 362.667C189.98 358.512 180.538 358.797 178.155 355.565C176.205 352.917 175.096 346.532 173.698 344.98C171.191 342.192 169.488 344.647 169.938 347.347C170.495 350.69 169.38 353.752 162.277 353.615Z" fill="#3B434E"/>
<mask id="mask0_0_10042" style="mask-type:luminance" maskUnits="userSpaceOnUse" x="146" y="343" width="52" height="32">
<path fill-rule="evenodd" clip-rule="evenodd" d="M162.277 353.615C156.595 353.502 154.71 349.852 154.478 348.042H151.553C151.275 348.46 150.37 349.435 149.743 352.36C148.907 356.26 147.514 356.957 146.679 360.577C146.1 363.085 145.982 366.845 147.375 368.935C149.538 372.18 152.25 371.86 156.846 371.86C159.492 371.86 163.949 371.162 167.988 372.277C173.627 373.832 189.158 374.645 193.058 373.39C199.703 371.255 197.653 365.035 194.868 362.667C189.98 358.512 180.538 358.797 178.155 355.565C176.205 352.917 175.096 346.532 173.698 344.98C171.191 342.192 169.488 344.647 169.938 347.347C170.495 350.69 169.38 353.752 162.277 353.615Z" fill="white"/>
</mask>
<g mask="url(#mask0_0_10042)">
<path d="M185.506 362.97C183.612 362.525 174.875 357.955 170.743 355.727C163.64 357.817 158.348 365.197 154.309 372.58C154.448 374.25 170.503 375.882 172.275 373.695C174.643 370.77 178.96 364.78 185.506 362.97Z" fill="#32373F"/>
<path d="M191.914 367.03C194.091 367.03 194.635 365.437 194.635 364.64C194.793 367.122 194.753 372.452 193.334 373.915C191.559 375.74 176.983 374.757 175.208 373.915C173.434 373.072 180.413 367.195 181.951 368.32C183.489 369.442 184.698 370.542 186.591 368.857C188.484 367.17 189.193 367.03 191.914 367.03Z" fill="#32373F"/>
<path d="M193.166 366.172C193.278 364.502 195.627 363.484 195.952 363.532L200.548 363.809L199.991 372.167L194.141 375.509C193.027 375.462 185.924 374.252 190.381 374.252C192.47 374.252 192.888 373.419 194.141 372.167C195.395 370.912 193.027 368.262 193.166 366.172Z" fill="#C8D1DC"/>
<path d="M171.609 347.902C171.275 345.897 170.634 344.655 170.356 344.282L170.913 342.89H174.116C175.602 344.19 178.1 347.375 176.205 349.715C173.838 352.64 172.027 350.41 171.609 347.902Z" fill="#C8D1DC"/>
</g>
<path d="M90.7189 372.49C90.2211 371.37 90.5793 368.87 90.8581 368.45C91.1368 368.032 124.981 365.387 124.981 365.387C130.599 364.97 141.064 365.01 141.834 368.032C143.784 375.692 138.49 375.692 134.033 375.692C127.905 375.692 127.178 374.07 123.171 374.58C121.082 374.845 118.018 376.25 103.951 376.25C92.6689 376.25 91.8331 374.997 90.7189 372.49Z" fill="#C9D1DC"/>
<path d="M125.677 353.615C131.359 353.502 133.244 349.852 133.476 348.042H136.401C136.679 348.46 137.584 349.435 138.211 352.36C139.047 356.26 140.44 356.957 141.275 360.577C141.854 363.085 141.972 366.845 140.579 368.935C138.416 372.18 135.704 371.86 131.108 371.86C128.462 371.86 124.005 371.162 119.966 372.277C114.327 373.832 98.7967 374.645 94.8967 373.39C88.2509 371.255 90.3007 365.035 93.0859 362.667C97.9741 358.512 107.416 358.797 109.799 355.565C111.749 352.917 112.858 346.532 114.256 344.98C116.763 342.192 118.466 344.647 118.016 347.347C117.46 350.69 118.574 353.752 125.677 353.615Z" fill="#3B434E"/>
<mask id="mask1_0_10042" style="mask-type:luminance" maskUnits="userSpaceOnUse" x="90" y="343" width="52" height="32">
<path fill-rule="evenodd" clip-rule="evenodd" d="M125.677 353.615C131.359 353.502 133.244 349.852 133.476 348.042H136.401C136.679 348.46 137.584 349.435 138.211 352.36C139.047 356.26 140.44 356.957 141.275 360.577C141.854 363.085 141.972 366.845 140.579 368.935C138.416 372.18 135.704 371.86 131.108 371.86C128.462 371.86 124.005 371.162 119.966 372.277C114.327 373.832 98.7967 374.645 94.8967 373.39C88.2509 371.255 90.3007 365.035 93.0859 362.667C97.9741 358.512 107.416 358.797 109.799 355.565C111.749 352.917 112.858 346.532 114.256 344.98C116.763 342.192 118.466 344.647 118.016 347.347C117.46 350.69 118.574 353.752 125.677 353.615Z" fill="white"/>
</mask>
<g mask="url(#mask1_0_10042)">
<path d="M102.448 362.97C104.342 362.525 113.079 357.955 117.211 355.727C124.314 357.817 129.607 365.197 133.646 372.58C133.506 374.25 117.451 375.882 115.679 373.695C113.311 370.77 108.994 364.78 102.448 362.97Z" fill="#32373F"/>
<path d="M96.0399 367.03C93.8632 367.03 93.319 365.437 93.319 364.64C93.1613 367.122 93.2007 372.452 94.6204 373.915C96.3948 375.74 110.972 374.757 112.746 373.915C114.521 373.072 107.541 367.195 106.003 368.32C104.465 369.442 103.256 370.542 101.363 368.857C99.4706 367.17 98.7608 367.03 96.0399 367.03Z" fill="#32373F"/>
<path d="M94.7878 366.172C94.6764 364.502 92.3273 363.484 92.0023 363.532L87.4062 363.809L87.9633 372.167L93.8129 375.509C94.9271 375.462 102.03 374.252 97.5733 374.252C95.4842 374.252 95.0664 373.419 93.8129 372.167C92.5594 370.912 94.9271 368.262 94.7878 366.172Z" fill="#C8D1DC"/>
<path d="M116.345 347.902C116.679 345.897 117.32 344.655 117.598 344.282L117.041 342.89H113.838C112.352 344.19 109.855 347.375 111.749 349.715C114.116 352.64 115.927 350.41 116.345 347.902Z" fill="#C8D1DC"/>
</g>
<path d="M196.08 158.759C190.261 146.534 175.449 141.591 163.454 147.872C151.28 154.247 146.99 169.56 154.081 181.333L176.1 217.886L210.615 196.638L205 177.501L196.08 158.759Z" fill="#294763"/>
<path d="M187.67 171.01C187.898 155.557 175.577 142.833 160.124 142.563L143.361 142.27C127.685 141.997 114.831 154.631 114.835 170.31L114.844 209.645L114.861 253.743C114.861 253.743 138.588 258.285 153.088 258.28C167.588 258.275 188.609 253.771 188.609 253.771L187.098 209.661L187.67 171.01Z" fill="#2E5880"/>
<path d="M103.554 183.431C99.3499 199.197 97.4451 211.383 97.8098 222.971C98.2311 236.356 101.791 248.648 109.005 260.835C111.537 265.112 117.057 266.527 121.335 263.995C125.612 261.463 127.027 255.943 124.495 251.666C118.829 242.095 116.127 232.764 115.801 222.405C115.501 212.87 117.155 202.286 120.946 188.069C122.227 183.266 119.372 178.335 114.569 177.054C109.766 175.773 104.835 178.629 103.554 183.431Z" fill="#EBBAAA"/>
<path d="M151.962 166.24C143.137 166.086 136.107 158.807 136.261 149.981C136.415 141.156 143.694 134.126 152.52 134.28C161.345 134.434 168.375 141.714 168.221 150.539C168.067 159.365 160.788 166.394 151.962 166.24Z" fill="#294763"/>
<path d="M114.217 152.07C122.466 143.128 129.672 143.411 134 146.415C139.265 150.069 132 160.25 132 160.25C141.165 169.667 151.003 190.229 139.874 197.999L117.028 207.501L89.2499 197.999C89.2499 197.999 95.9341 171.89 114.217 152.07Z" fill="#2E5880"/>
<path d="M178.25 254.5C178.25 258.191 180.725 262.144 185.367 266.504L189.133 262.496L188.888 262.264L188.649 262.034C185.341 258.828 183.75 256.209 183.75 254.5H178.25Z" fill="#998B6E"/>
<path d="M110.498 262.25C112.498 261.85 121.581 256.083 125.248 254C127.998 258.5 136.048 261.25 136.248 262.25C136.498 263.5 116.322 285.228 114.998 282.25C112.998 277.75 107.998 262.75 110.498 262.25Z" fill="#C4B493"/>
<path d="M110.826 268.123C116.6 266.299 122.636 262.501 128.443 256.695L124.553 252.806C119.352 258.007 114.07 261.33 109.17 262.878L110.826 268.123Z" fill="#998B6E"/>
<rect width="20" height="31.75" rx="9.74753" transform="matrix(-1 0 0 1 162 128.5)" fill="#EBBAAA"/>
<path d="M115.806 110.528C107.39 110.528 100.568 103.706 100.568 95.2895C100.568 86.8738 107.39 80.0513 115.806 80.0513C124.222 80.0513 131.045 86.8738 131.045 95.2895C131.045 103.706 124.222 110.528 115.806 110.528Z" fill="#EBBAAA"/>
<path d="M186.792 111.299C195.208 111.299 202.03 104.477 202.03 96.0605C202.03 87.6448 195.208 80.8223 186.792 80.8223C178.376 80.8223 171.553 87.6448 171.553 96.0605C171.553 104.477 178.376 111.299 186.792 111.299Z" fill="#EBBAAA"/>
<path d="M191.724 68.8667C191.724 47.0695 174.054 29.3994 152.257 29.3994C130.46 29.3994 112.79 47.0695 112.79 68.8667V87.5075L113.423 107.966C114.073 128.945 131.268 145.616 152.257 145.616C172.535 145.616 189.292 129.795 190.456 109.55L191.724 87.5075V68.8667Z" fill="#F4D4C9"/>
<path d="M144.31 78.4258L131.491 77.0493C131.312 77.0301 131.136 77.1061 131.028 77.2496L128.492 80.6023C128.245 80.9276 128.46 81.3961 128.867 81.4226L144.656 82.4486C145.354 82.4938 145.891 81.8416 145.713 81.1651L145.191 79.1836C145.083 78.7726 144.732 78.4711 144.31 78.4258Z" fill="#393939"/>
<path d="M163.089 78.5167L175.908 77.1402C176.087 77.1209 176.262 77.1969 176.371 77.3404L178.907 80.6932C179.153 81.0184 178.939 81.4869 178.532 81.5134L162.743 82.5394C162.045 82.5847 161.508 81.9324 161.686 81.2559L162.208 79.2744C162.316 78.8634 162.667 78.5622 163.089 78.5167Z" fill="#393939"/>
<path d="M135.344 90.207V94.707C135.344 96.3639 136.687 97.707 138.344 97.707C140.001 97.707 141.344 96.3639 141.344 94.707V90.207C141.344 88.5502 140.001 87.207 138.344 87.207C136.687 87.207 135.344 88.5502 135.344 90.207Z" fill="black"/>
<path d="M164.844 90.207V94.707C164.844 96.3639 166.187 97.707 167.844 97.707C169.501 97.707 170.844 96.3639 170.844 94.707V90.207C170.844 88.5502 169.501 87.207 167.844 87.207C166.187 87.207 164.844 88.5502 164.844 90.207Z" fill="black"/>
<path d="M149.881 90.6696C150.652 87.6188 148.442 84.6061 145.297 84.4213L127.49 83.3751C124.345 83.1903 121.833 85.9258 122.28 89.0478L123.399 96.8541C123.738 99.2208 125.701 101.028 128.085 101.168L142.845 102.035C145.229 102.175 147.369 100.609 147.953 98.2966L149.881 90.6696Z" fill="white" fill-opacity="0.29"/>
<path fill-rule="evenodd" clip-rule="evenodd" d="M126.598 84.3853L126.442 82.8933L126.442 82.8933L126.753 85.8771C126.73 85.8795 126.703 85.8829 126.673 85.8874L126.567 85.8852L126.598 84.3853ZM146.084 86.2861L126.673 85.8874C126.465 85.9188 126.108 86.002 125.733 86.1638C125.3 86.3506 124.96 86.5908 124.759 86.8551L122.37 85.0411C122.992 84.2221 123.834 83.7156 124.545 83.4091C125.26 83.1008 125.96 82.9433 126.442 82.8931L126.442 82.8933L126.535 82.8838L126.628 82.8855L126.628 82.8857L146.249 83.289L146.218 84.7881L146.052 86.2789L146.052 86.2789C146.052 86.2789 146.052 86.2789 146.052 86.2789L146.054 86.2793C146.058 86.2802 146.068 86.2823 146.084 86.2861ZM146.084 86.2861C146.158 86.3043 146.356 86.3618 146.636 86.5119C146.977 86.6944 147.397 86.9926 147.808 87.4601L150.061 85.4786C148.755 83.9949 147.237 83.3926 146.385 83.2974L146.385 83.2973L146.317 83.2898L146.249 83.2886L146.249 83.289L146.187 86.2882L146.084 86.2861ZM149.873 89.4895L149.87 89.489L148.425 89.096C148.425 89.0965 148.425 89.0966 148.425 89.0964L148.425 89.0957L149.873 89.4895ZM149.871 89.4893L149.87 89.489L148.4 89.202L148.411 89.1485L148.425 89.0964L148.425 89.093C148.429 89.0649 148.457 88.8704 148.391 88.5693C148.324 88.261 148.165 87.8665 147.808 87.4605L150.061 85.479C151.459 87.069 151.574 88.8534 151.336 89.8206L151.345 89.7769L149.871 89.4893ZM150.786 92.6409L147.841 92.0664L148.4 89.2021L149.871 89.4893L151.32 89.8833C151.326 89.8628 151.331 89.8419 151.336 89.8206L150.786 92.6409ZM150.786 92.6409L147.841 92.0664C147.683 92.8794 148.213 93.6672 149.026 93.8259C149.839 93.9847 150.627 93.4542 150.786 92.6409ZM122.31 88.3451L122.614 88.3079L122.616 88.3078L122.31 88.3451ZM121.152 88.4864L121.152 88.4863L122.31 88.3451L121.152 88.4864ZM121.149 88.4605L122.614 88.3079L122.641 88.3046L121.149 88.4601L121.149 88.4605ZM121.149 88.4605L121.15 88.4731L121.152 88.4864L121.152 88.4864L121.58 91.9958L124.558 91.6325L124.137 88.1835C124.138 88.182 124.138 88.18 124.138 88.1775C124.142 88.1468 124.153 88.0414 124.209 87.867C124.29 87.616 124.451 87.2618 124.759 86.8555L122.37 85.0415C121.369 86.3598 121.067 87.6695 121.149 88.4605L121.149 88.4605ZM124.137 88.1835C124.137 88.1858 124.137 88.187 124.137 88.187C124.136 88.187 124.136 88.1837 124.136 88.1771C124.135 88.1709 124.134 88.1618 124.133 88.1498L122.616 88.3078L124.13 88.123L124.137 88.1835ZM124.558 91.6328C124.658 92.4551 124.073 93.2031 123.251 93.3033C122.428 93.4036 121.68 92.8183 121.58 91.9961L124.558 91.6328Z" fill="black"/>
<path d="M183.514 88.7959C183.91 85.6654 181.353 82.9767 178.212 83.2199L160.424 84.5974C157.283 84.8407 155.123 87.8947 155.945 90.9309L157.999 98.5199C158.622 100.821 160.787 102.347 163.167 102.163L177.913 101.021C180.293 100.836 182.226 98.9932 182.525 96.6204L183.514 88.7959Z" fill="white" fill-opacity="0.29"/>
<path fill-rule="evenodd" clip-rule="evenodd" d="M159.959 83.1893L179.583 82.9551L179.6 84.4549L179.6 84.4534L179.6 84.4548L179.483 85.9502C179.482 85.9502 179.483 85.9502 179.483 85.9503C179.485 85.9506 179.495 85.9523 179.513 85.9561L160.104 86.1878C160.132 86.1826 160.158 86.1785 160.181 86.1754L159.977 84.6892L159.959 83.1893ZM159.773 83.2032L159.866 83.1907L159.959 83.1895L159.977 84.6892L159.773 83.2032ZM159.773 83.2032L159.773 83.2031C159.293 83.2691 158.598 83.4491 157.894 83.7806C157.193 84.1099 156.368 84.6436 155.773 85.4824L158.22 87.2176C158.412 86.9469 158.744 86.6959 159.171 86.4951C159.542 86.3204 159.897 86.2255 160.104 86.1878L159.995 86.1891L159.977 84.6895L159.773 83.2032L159.773 83.2032ZM179.513 85.9561L179.618 85.9548L179.6 84.4548L179.713 83.03L179.6 84.4534L179.583 82.9551L179.651 82.9541L179.718 82.9596L179.718 82.9595C180.574 83.027 182.111 83.5795 183.463 85.0202L181.276 87.0735C180.85 86.6197 180.421 86.3352 180.074 86.164C179.788 86.0226 179.587 85.9716 179.513 85.9561ZM183.405 89.035L181.925 88.7955L181.459 91.6763L181.459 91.6763C181.327 92.494 181.883 93.264 182.7 93.3963C183.518 93.5285 184.288 92.9728 184.42 92.1549L184.421 92.1549L184.879 89.3188C185.086 88.3446 184.913 86.5644 183.463 85.0205L181.276 87.0738C181.646 87.468 181.818 87.8573 181.895 88.1633C181.97 88.4632 181.949 88.6589 181.946 88.6858L181.946 88.6859L181.946 88.6882C181.946 88.6889 181.946 88.6891 181.946 88.6889L181.933 88.7417L181.925 88.7954L183.403 89.0344L183.405 89.035ZM183.404 89.0346L184.865 89.3813C184.87 89.3608 184.874 89.34 184.879 89.3188L184.886 89.2742L183.404 89.0346ZM183.404 89.0346L183.403 89.0344L182.309 88.7747L183.404 89.0346ZM182.309 88.7747L181.946 88.6885L181.946 88.6885L182.309 88.7747ZM184.42 92.1549L184.421 92.1548L181.459 91.6763L181.459 91.6764L184.42 92.1549ZM154.668 88.965L156.145 88.736L156.146 88.7358L154.668 88.9651L155.209 92.4588L155.209 92.4589L155.209 92.4589C155.336 93.2776 156.103 93.8383 156.922 93.7113C157.74 93.5843 158.301 92.8178 158.174 91.999L157.641 88.5656C157.641 88.5641 157.642 88.5619 157.642 88.5592C157.644 88.5285 157.653 88.4226 157.703 88.2464C157.776 87.9929 157.925 87.6339 158.22 87.2177L155.773 85.4824C154.816 86.8322 154.556 88.1512 154.664 88.9392L154.664 88.9392L154.666 88.952L154.668 88.965ZM158.174 91.999L158.174 91.9991L155.209 92.4589C155.209 92.4588 155.209 92.4588 155.209 92.4588L158.174 91.999ZM157.641 88.5656C157.641 88.5676 157.641 88.5687 157.641 88.5687C157.641 88.5687 157.64 88.5654 157.639 88.5589C157.639 88.5527 157.638 88.5436 157.636 88.5314L156.146 88.7358L157.632 88.5054L157.641 88.5656ZM156.145 88.736L154.664 88.9392L154.664 88.939L156.15 88.7352L156.145 88.736Z" fill="black"/>
<path d="M156.304 90.1968C155.221 89.6136 152.429 88.7968 149.929 90.1968" stroke="black" stroke-width="2.5"/>
<path d="M151.692 94.2846C153.267 97.0633 154.485 100.29 154.651 102.661C154.825 105.16 154.024 106.147 151.219 106.147V110.517C156.704 110.517 159.354 107.257 159.011 102.356C158.791 99.2098 157.363 95.425 155.495 92.1294L151.692 94.2846Z" fill="#EBBAAA"/>
<path d="M125.131 55.4966C125.928 48.808 126.647 44.0051 127.179 39.546C127.555 36.3874 127.728 31.3817 118.749 38.0001C109.771 44.6184 106.557 60.6586 109 73.0001L113.432 90.3359L116.205 89.6506L116.132 71.0521C120.656 66.4981 124.334 62.1854 125.131 55.4966Z" fill="#272727"/>
<path d="M186.884 62.6311C186.513 55.9059 187.271 56.2521 187.024 51.7686C186.849 48.5928 186.247 42.9266 191.917 48.7499C195.046 51.9639 199.042 73.0849 195.25 81.2499L191.917 89.4881L190.652 89.5579L190.081 79.2044C187.846 72.0301 187.255 69.3561 186.884 62.6311Z" fill="#272727"/>
<path fill-rule="evenodd" clip-rule="evenodd" d="M151.76 24.0002V24C151.778 24 151.797 24 151.816 24C151.834 24 151.853 24 151.871 24L151.872 24.0002C163.752 24.0422 194.969 31.4573 193.267 62.3102C190.108 58.4263 185.23 56.7323 180.896 54.1978C171.775 48.8622 164.327 46.9089 154.444 46.9089C145.951 46.9089 135.535 48.8752 128.499 52.3213C122.206 55.4038 115.62 57.7157 109.469 62.3102C110.538 30.7797 139.88 24.0422 151.76 24.0002Z" fill="#272727"/>
<path d="M123.45 32.0096L128.618 31.6631L118.011 54.5864L114.411 83.4402L110.565 82.2127L110.643 80.0927L109.183 79.5769L110.041 77.1474L107.785 76.3504L108.889 73.2267L107.409 71.9229L108.39 69.1462L107.247 66.8882L108.79 64.2122L108.035 62.9694L109.077 60.0192L107.883 59.5972L110.487 56.0277L109.661 54.5644L111.468 53.2509L110.887 51.0934L113.246 48.2181L112.788 45.7136L114.779 43.8794L115.331 42.3175L117.005 40.9571L116.189 39.8879L119.487 37.7346L119.631 35.6381L123.107 34.0358L123.45 32.0096Z" fill="#272727"/>
<path d="M134.344 52.957L132.594 48.457L121.469 52.957L128.594 54.957V52.207L134.344 52.957Z" fill="#272727"/>
<path d="M153.147 55.1835C142.897 50.4335 134.416 48.716 129.959 46.1448C134.397 39.4336 145.283 40.1423 149.396 43.4334C151.157 45.73 155.293 50.041 153.147 55.1835Z" fill="#272727"/>
<path d="M159.594 55.957C149.219 48.8321 143.635 50.173 139.178 47.6019C143.616 40.8906 155.48 42.4161 159.594 45.7071C161.354 48.0038 163.844 51.207 159.594 55.957Z" fill="#272727"/>
<path d="M164.28 56.6412C150.525 48.6707 144.568 51.242 140.112 48.6708C143.197 47.2995 136.512 37.501 158.495 42.2428C165.052 43.657 166.426 51.499 164.28 56.6412Z" fill="#272727"/>
<path d="M171.907 58.2755C162.651 52.619 158.4 51.4593 153.943 48.8881C157.029 47.5168 165.039 43.6859 169.153 46.977C170.913 49.2738 174.053 53.133 171.907 58.2755Z" fill="#272727"/>
<path d="M181.28 59.8915C167.525 51.9208 159.3 50.278 154.844 47.707C157.929 46.3357 153.512 40.7511 175.495 45.4929C182.052 46.9071 183.426 54.749 181.28 59.8915Z" fill="#272727"/>
<path d="M188.004 64.0492C175.879 54.1742 176.085 47.9956 171.629 45.4244C174.714 44.0532 181.004 41.2993 186.379 48.1743C192.935 49.5885 190.15 58.907 188.004 64.0492Z" fill="#272727"/>
<path fill-rule="evenodd" clip-rule="evenodd" d="M161.969 116.358V119.824C161.969 125.149 157.652 129.466 152.327 129.466C147.002 129.466 142.685 125.149 142.685 119.824V116.358H161.969Z" fill="#393939"/>
<mask id="mask2_0_10042" style="mask-type:luminance" maskUnits="userSpaceOnUse" x="142" y="114" width="20" height="16">
<path fill-rule="evenodd" clip-rule="evenodd" d="M161.841 114.707C161.925 115.219 161.969 115.744 161.969 116.279V119.825C161.969 125.15 157.652 129.466 152.327 129.466C147.002 129.466 142.685 125.15 142.685 119.825V116.279C142.685 115.744 142.729 115.219 142.812 114.707H161.841Z" fill="white"/>
</mask>
<g mask="url(#mask2_0_10042)">
<path d="M151.813 132.859C148.601 132.859 145.998 131.441 145.998 129.693C145.998 127.944 148.601 126.526 151.813 126.526C155.024 126.526 157.627 127.944 157.627 129.693C157.627 131.441 155.024 132.859 151.813 132.859Z" fill="#FF6C6C"/>
<rect width="19.2837" height="3.97675" transform="matrix(-1 0 0 1 161.969 115.858)" fill="white"/>
</g>
</svg>
