<svg width="300" height="400" viewBox="0 0 300 400" fill="none" xmlns="http://www.w3.org/2000/svg">
<path d="M168.25 328.875L165.125 361.75" stroke="#EBBAAA" stroke-width="13.5" stroke-linecap="round" stroke-linejoin="bevel"/>
<path d="M131.75 328.875L134.875 361.75" stroke="#EBBAAA" stroke-width="13.5" stroke-linecap="round" stroke-linejoin="bevel"/>
<path d="M200.705 375.578C201.176 374.41 200.837 372.81 200.573 372.373C200.31 371.938 168.277 369.935 168.277 369.935C162.961 369.5 152.422 367.67 151.694 370.82C150.793 374.718 150.834 375.598 151.448 378.615C152.431 379.62 162.37 380.5 165.592 379.745C165.592 377.985 165.843 376.855 165.843 376.855C165.843 376.855 167.639 377.995 169.747 378.49C174.045 379.495 174.868 380.5 188.182 380.5C198.86 379.495 199.651 378.19 200.705 375.578Z" fill="#272727"/>
<path d="M166.062 358.628C163.392 358.663 159.315 357.783 157.094 354.695C156.9 354.425 156.501 354.383 156.274 354.625C154.275 356.78 155.57 355.555 154.768 359.258C153.976 362.913 153.307 362.39 152.515 365.785C151.967 368.135 150.191 373.618 152.515 373.618H163.115C165.622 373.618 169.009 376.538 177.36 377.358C191.223 378.72 194.61 376.855 197.378 375.975C203.676 373.973 200.48 369.393 197.378 367.93C192.834 365.785 186.322 364.175 183.01 362.398C180.43 361.015 179.545 360.585 178.22 359.13C176.528 357.27 175.812 356.083 175.275 355.158C175.053 354.775 174.448 354.86 174.212 355.235C172.75 357.565 168.529 358.595 166.062 358.628Z" fill="#563D2A"/>
<path d="M174.41 356.241C173.867 357.463 171.688 358.836 171.688 359.788L177.044 357.873L174.41 361.771L179.429 360.333L177.044 363.656L182.688 362.511L179.429 365.668" stroke="#2C221B" stroke-width="1.35342" stroke-linecap="round" stroke-linejoin="round"/>
<path d="M195.775 372.161C193.434 372.871 189.864 373.881 184.492 372.753" stroke="#7C593E" stroke-width="1.75" stroke-linecap="round"/>
<path d="M177.898 365.54C175.442 363.278 173.616 362.148 171.651 359.633C170.586 359.633 169.181 359.758 165.129 359.758C159.848 359.758 158.448 357.495 156.115 354.855C154.342 355.988 155.255 358.375 154.027 361.645C153.044 364.26 151.202 368.18 151.202 372.958C152.062 374.465 160.536 373.713 163.237 373.713C163.851 370.695 168.64 368.18 170.773 367.553C172.644 367 174.828 366.798 177.898 365.54Z" fill="#423023"/>
<path d="M99.2949 375.578C98.8238 374.41 99.1628 372.81 99.4267 372.373C99.6905 371.938 131.723 369.935 131.723 369.935C137.039 369.5 147.578 367.67 148.306 370.82C149.207 374.718 149.166 375.598 148.552 378.615C147.569 379.62 137.63 380.5 134.408 379.745C134.408 377.985 134.157 376.855 134.157 376.855C134.157 376.855 132.361 377.995 130.253 378.49C125.955 379.495 125.132 380.5 111.818 380.5C101.141 379.495 100.349 378.19 99.2949 375.578Z" fill="#272727"/>
<path d="M133.938 358.627C136.608 358.662 140.685 357.782 142.906 354.695C143.1 354.425 143.499 354.382 143.725 354.625C145.724 356.78 144.43 355.555 145.232 359.257C146.024 362.912 146.693 362.39 147.485 365.785C148.033 368.135 149.809 373.617 147.485 373.617H136.885C134.377 373.617 130.99 376.537 122.639 377.357C108.777 378.72 105.389 376.855 102.622 375.975C96.3237 373.972 99.5197 369.392 102.622 367.93C107.165 365.785 113.678 364.175 116.99 362.397C119.569 361.015 120.455 360.585 121.78 359.13C123.471 357.27 124.188 356.082 124.724 355.157C124.947 354.775 125.552 354.86 125.788 355.235C127.25 357.565 131.471 358.595 133.938 358.627Z" fill="#563D2A"/>
<path d="M125.59 356.241C126.133 357.463 128.312 358.836 128.312 359.788L122.956 357.873L125.59 361.771L120.571 360.333L122.956 363.656L117.312 362.511L120.571 365.668" stroke="#2C221B" stroke-width="1.35342" stroke-linecap="round" stroke-linejoin="round"/>
<path d="M104.225 372.161C106.566 372.871 110.137 373.881 115.508 372.753" stroke="#7C593E" stroke-width="1.75" stroke-linecap="round"/>
<path d="M122.102 365.54C124.558 363.278 126.384 362.148 128.349 359.633C129.413 359.633 130.818 359.758 134.871 359.758C140.152 359.758 141.552 357.495 143.885 354.855C145.658 355.988 144.745 358.375 145.973 361.645C146.955 364.26 148.798 368.18 148.798 372.958C147.938 374.465 139.464 373.713 136.762 373.713C136.148 370.695 131.359 368.18 129.227 367.553C127.356 367 125.172 366.798 122.102 365.54Z" fill="#423023"/>
<path d="M150 270.5C165.878 270.5 178.75 263.896 178.75 255.75C178.75 247.604 165.878 241 150 241C134.122 241 121.25 247.604 121.25 255.75C121.25 263.896 134.122 270.5 150 270.5Z" fill="#4D5457"/>
<path d="M151.25 252.25H185L180.098 340.372L176.86 349.325L157.924 351L156.115 342.375L151.25 252.25Z" fill="#4D5457"/>
<path d="M156.25 349H177.5L176.463 354.5H157.22L156.25 349Z" fill="#434A4C"/>
<path d="M148.75 252.25H115L119.902 340.372L123.141 349.325L142.076 351L143.885 342.375L148.75 252.25Z" fill="#4D5457"/>
<path d="M143.75 349H122.5L123.536 354.5H142.78L143.75 349Z" fill="#434A4C"/>
<path d="M121 163.5C110 183 101 230 105 241" stroke="#EBBAAA" stroke-width="18.5" stroke-linecap="round" stroke-linejoin="bevel"/>
<path d="M179 163.5C190 183 199 230 195 241" stroke="#EBBAAA" stroke-width="18.5" stroke-linecap="round" stroke-linejoin="bevel"/>
<rect x="112" y="139.5" width="42.5" height="100" rx="21.25" transform="rotate(15 112 139.5)" fill="#A1A1B7"/>
<rect width="42.5" height="100" rx="21.25" transform="matrix(-0.965926 0.258819 0.258819 0.965926 188 139.5)" fill="#A1A1B7"/>
<path d="M111.789 155.667C112.214 150.329 115.992 145.855 121.183 144.541L150 137.25L178.817 144.541C184.008 145.855 187.786 150.329 188.211 155.667L192.5 209.5L188.75 235.5L186.975 238.518C186.526 239.281 185.706 239.75 184.82 239.75H113.75L111.25 235.5L107.5 209.5L111.789 155.667Z" fill="#BFBFCB"/>
<path d="M150.168 158.942C157.071 158.942 162.668 153.346 162.668 146.442C162.668 139.539 157.071 133.942 150.168 133.942C143.264 133.942 137.668 139.539 137.668 146.442C137.668 153.346 143.264 158.942 150.168 158.942Z" fill="#A1A1B7"/>
<path d="M115 239.75H185L186.902 249.26C187.211 250.807 186.028 252.25 184.451 252.25H115.549C113.972 252.25 112.789 250.807 113.098 249.26L115 239.75Z" fill="#A1A1B7"/>
<rect x="140" y="105.25" width="20" height="48.75" rx="10" fill="#EBBAAA"/>
<path d="M140 142.75C140 137.227 144.477 132.75 150 132.75C155.523 132.75 160 137.227 160 142.75V144C160 149.523 155.523 154 150 154C144.477 154 140 149.523 140 144V142.75Z" fill="#EBBAAA"/>
<path opacity="0.5" d="M186.25 101.5C191.773 101.5 196.25 97.0232 196.25 91.5005C196.25 85.9777 191.773 81.5005 186.25 81.5005C180.727 81.5005 176.25 85.9777 176.25 91.5005C176.25 97.0232 180.727 101.5 186.25 101.5Z" fill="#DE8E7C"/>
<path opacity="0.5" d="M113.75 101.5C108.227 101.5 103.75 97.0232 103.75 91.5005C103.75 85.9777 108.227 81.5005 113.75 81.5005C119.273 81.5005 123.75 85.9777 123.75 91.5005C123.75 97.0232 119.273 101.5 113.75 101.5Z" fill="#DE8E7C"/>
<path d="M112.5 67C112.5 46.2892 129.289 29.5 150 29.5C170.711 29.5 187.5 46.2892 187.5 67V97C187.5 117.711 170.711 134.5 150 134.5C129.289 134.5 112.5 117.711 112.5 97V67Z" fill="#F4D5CC"/>
<path d="M188.75 66.7502L186.75 54.75H178.75L180 66C180 66 183.532 70.3005 185 73.5C187.396 78.7227 187.5 88 187.5 88L188.75 66.7502Z" fill="#868686"/>
<path d="M111.25 66.7502L113.25 54.75H121.25L120 66C120 66 116.468 70.3005 115 73.5C112.603 78.7227 112.5 88 112.5 88L111.25 66.7502Z" fill="#868686"/>
<path fill-rule="evenodd" clip-rule="evenodd" d="M188.75 66.75C188.75 66.75 188.75 51 150 51C111.25 51 111.25 66.75 111.25 66.75C111.25 56.7085 108.829 46.2482 115 38.5C122.425 29.1762 139.418 23.5 150 23.5C160.629 23.5 177.57 29.1075 185 38.5C191.114 46.2288 188.75 56.7625 188.75 66.75Z" fill="#272727"/>
<path d="M118.921 29.7851L116.25 38.4824L149.045 34.1594L186.25 41.75V38.1476L183.61 36.9898V34.1594H180.249V29.7851H175.929L174.968 26.4401H171.128L168.848 23.095L164.887 24.1243L163.687 22.0658H159.606V19.75L154.086 22.0658L152.646 19.75L150.245 22.0658L147.845 19.75L143.284 22.0658L140.404 19.75L137.284 22.0658H135.123L132.723 24.1243L131.763 22.0658L127.682 26.4401L125.042 25.4108L121.561 30.4284L118.921 29.7851Z" fill="#272727"/>
<path d="M160.104 73.7149L174.104 76.2149C175.328 76.4333 176.497 75.6187 176.715 74.3954C176.933 73.1721 176.119 72.0034 174.896 71.7849L160.896 69.2849C159.672 69.0665 158.503 69.8811 158.285 71.1044C158.067 72.3277 158.881 73.4964 160.104 73.7149Z" fill="#393939"/>
<path d="M125.896 76.2149L139.896 73.7149C141.119 73.4964 141.933 72.3277 141.715 71.1044C141.497 69.8811 140.328 69.0665 139.104 69.2849L125.104 71.7849C123.881 72.0034 123.067 73.1721 123.285 74.3954C123.503 75.6187 124.672 76.4333 125.896 76.2149Z" fill="#393939"/>
<path d="M162 86H169.5C170.743 86 171.75 84.9926 171.75 83.75C171.75 82.5074 170.743 81.5 169.5 81.5H162C160.757 81.5 159.75 82.5074 159.75 83.75C159.75 84.9926 160.757 86 162 86Z" fill="black"/>
<path d="M130.5 86H138C139.243 86 140.25 84.9926 140.25 83.75C140.25 82.5074 139.243 81.5 138 81.5H130.5C129.257 81.5 128.25 82.5074 128.25 83.75C128.25 84.9926 129.257 86 130.5 86Z" fill="black"/>
<path d="M158.982 111.863L158.889 111.911C158.827 111.942 158.749 111.98 158.654 112.024L158.538 112.077C158.054 112.294 157.475 112.516 156.803 112.724C154.848 113.333 152.571 113.7 150 113.7C147.429 113.7 145.152 113.333 143.197 112.724C142.577 112.532 142.035 112.328 141.575 112.127L141.462 112.077C141.191 111.955 141.024 111.869 140.965 111.834C140.045 111.301 138.868 111.615 138.335 112.535C137.812 113.436 138.103 114.584 138.979 115.132L139.035 115.165C139.082 115.193 139.151 115.231 139.241 115.278L139.287 115.302C139.458 115.39 139.657 115.486 139.882 115.587C140.505 115.868 141.23 116.144 142.053 116.401C144.369 117.12 147.029 117.55 150 117.55C152.971 117.55 155.631 117.12 157.947 116.401C158.77 116.144 159.495 115.868 160.118 115.587C160.306 115.503 160.475 115.422 160.625 115.347L160.713 115.302C160.825 115.244 160.91 115.198 160.965 115.165C161.885 114.632 162.199 113.455 161.665 112.535C161.154 111.652 160.05 111.328 159.149 111.773L159.091 111.803L158.982 111.863Z" fill="#C99584"/>
<path d="M147.732 87.8213C146.093 90.2799 144.875 93.7812 144.875 96.6563C144.875 100.825 147.364 103.625 152 103.625V99.375C149.83 99.375 149.125 98.5816 149.125 96.6563C149.125 94.6876 150.066 91.9815 151.268 90.1788L147.732 87.8213Z" fill="#EBBAAA"/>
</svg>
