<svg width="300" height="400" viewBox="0 0 300 400" fill="none" xmlns="http://www.w3.org/2000/svg">
<path d="M145.286 274.98C161.232 274.98 174.159 268.857 174.159 261.303C174.159 253.75 161.232 247.627 145.286 247.627C129.34 247.627 116.414 253.75 116.414 261.303C116.414 268.857 129.34 274.98 145.286 274.98Z" fill="#565952"/>
<path d="M158.277 313.973L162.027 356.098C162.357 359.812 165.635 362.554 169.349 362.223C173.062 361.893 175.804 358.615 175.473 354.901L171.723 312.776C171.393 309.063 168.115 306.321 164.401 306.652C160.688 306.982 157.946 310.26 158.277 313.973Z" fill="#EBBAAA"/>
<path d="M128 313.25V352C128 355.728 131.022 358.75 134.75 358.75C138.478 358.75 141.5 355.728 141.5 352V313.25C141.5 309.522 138.478 306.5 134.75 306.5C131.022 306.5 128 309.522 128 313.25Z" fill="#EBBAAA"/>
<path d="M114.25 246H148L145.5 334.375L144.75 343L125.625 342L124.25 334.375L114.25 246Z" fill="#565952"/>
<path opacity="0.2" d="M129.633 256.777C129.365 258.456 128.568 260.617 127.386 262.509C125.859 264.951 123.818 266.801 121.273 267.793C120.951 267.918 120.792 268.28 120.918 268.602C121.043 268.924 121.405 269.083 121.727 268.957C124.543 267.86 126.785 265.828 128.446 263.172C129.718 261.136 130.574 258.816 130.867 256.973C130.922 256.633 130.689 256.312 130.348 256.258C130.007 256.204 129.687 256.436 129.633 256.777Z" fill="white"/>
<path d="M147.679 247.505H181.543L177.875 333.5L177.5 341.25L157.875 342.875L156.75 335.75L147.679 247.505Z" fill="#565952"/>
<path opacity="0.2" d="M166.5 254.984C166.446 257.111 167.091 259.809 168.423 262.201C170.15 265.305 172.882 267.717 176.662 269.088C176.986 269.205 177.345 269.038 177.463 268.713C177.58 268.388 177.412 268.03 177.088 267.912C173.599 266.648 171.1 264.44 169.515 261.593C168.293 259.399 167.702 256.922 167.75 255.016C167.759 254.671 167.486 254.384 167.141 254.375C166.796 254.366 166.509 254.639 166.5 254.984Z" fill="white"/>
<path fill-rule="evenodd" clip-rule="evenodd" d="M176.582 270.486L176.625 268.487C176.633 268.142 176.918 267.868 177.263 267.875C177.608 267.883 177.882 268.168 177.875 268.513L177.832 270.513C177.825 270.858 177.539 271.132 177.194 271.124C176.849 271.117 176.575 270.831 176.582 270.486ZM176.497 274.485L176.539 272.486C176.547 272.141 176.833 271.867 177.178 271.874C177.523 271.882 177.797 272.167 177.789 272.512L177.746 274.512C177.739 274.857 177.453 275.131 177.108 275.123C176.763 275.116 176.489 274.83 176.497 274.485ZM176.454 276.485L176.411 278.484C176.404 278.829 176.677 279.115 177.022 279.122C177.367 279.13 177.653 278.856 177.661 278.511L177.703 276.511C177.711 276.166 177.437 275.881 177.092 275.873C176.747 275.866 176.461 276.14 176.454 276.485ZM176.325 282.483L176.368 280.484C176.375 280.139 176.661 279.865 177.006 279.872C177.351 279.88 177.625 280.165 177.618 280.51L177.575 282.51C177.568 282.855 177.282 283.129 176.937 283.121C176.592 283.114 176.318 282.828 176.325 282.483ZM176.282 284.483L176.24 286.482C176.232 286.827 176.506 287.113 176.851 287.12C177.196 287.128 177.482 286.854 177.489 286.509L177.532 284.509C177.539 284.164 177.266 283.879 176.921 283.871C176.576 283.864 176.29 284.138 176.282 284.483ZM176.154 290.482L176.197 288.482C176.204 288.137 176.49 287.863 176.835 287.871C177.18 287.878 177.454 288.164 177.446 288.509L177.404 290.509C177.396 290.854 177.11 291.127 176.765 291.12C176.42 291.113 176.146 290.827 176.154 290.482ZM176.111 292.481L176.068 294.481C176.061 294.826 176.335 295.112 176.68 295.119C177.025 295.126 177.31 294.853 177.318 294.508L177.361 292.508C177.368 292.163 177.094 291.877 176.749 291.87C176.404 291.862 176.118 292.136 176.111 292.481ZM175.982 298.48L176.025 296.48C176.033 296.135 176.318 295.861 176.664 295.869C177.009 295.876 177.282 296.162 177.275 296.507L177.232 298.507C177.225 298.852 176.939 299.125 176.594 299.118C176.249 299.111 175.975 298.825 175.982 298.48ZM175.94 300.479L175.897 302.479C175.889 302.824 176.163 303.11 176.508 303.117C176.853 303.124 177.139 302.851 177.146 302.506L177.189 300.506C177.197 300.161 176.923 299.875 176.578 299.868C176.233 299.86 175.947 300.134 175.94 300.479ZM175.811 306.478L175.854 304.478C175.861 304.133 176.147 303.859 176.492 303.867C176.837 303.874 177.111 304.16 177.104 304.505L177.061 306.505C177.053 306.85 176.768 307.123 176.423 307.116C176.077 307.109 175.804 306.823 175.811 306.478ZM175.768 308.477L175.725 310.477C175.718 310.822 175.992 311.108 176.337 311.115C176.682 311.123 176.968 310.849 176.975 310.504L177.018 308.504C177.025 308.159 176.752 307.873 176.406 307.866C176.061 307.858 175.776 308.132 175.768 308.477ZM175.64 314.476L175.683 312.476C175.69 312.131 175.976 311.857 176.321 311.865C176.666 311.872 176.94 312.158 176.932 312.503L176.889 314.503C176.882 314.848 176.596 315.122 176.251 315.114C175.906 315.107 175.632 314.821 175.64 314.476ZM175.597 316.475L175.554 318.475C175.547 318.82 175.82 319.106 176.165 319.113C176.511 319.121 176.796 318.847 176.804 318.502L176.847 316.502C176.854 316.157 176.58 315.871 176.235 315.864C175.89 315.857 175.604 316.13 175.597 316.475ZM175.468 322.474L175.511 320.475C175.519 320.13 175.804 319.856 176.149 319.863C176.494 319.871 176.768 320.157 176.761 320.502L176.718 322.501C176.711 322.846 176.425 323.12 176.08 323.113C175.735 323.105 175.461 322.82 175.468 322.474ZM175.425 324.474L175.383 326.473C175.375 326.819 175.649 327.104 175.994 327.112C176.339 327.119 176.625 326.845 176.632 326.5L176.675 324.501C176.683 324.156 176.409 323.87 176.064 323.862C175.719 323.855 175.433 324.129 175.425 324.474ZM175.297 330.472L175.34 328.473C175.347 328.128 175.633 327.854 175.978 327.861C176.323 327.869 176.597 328.155 176.589 328.5L176.547 330.499C176.539 330.844 176.253 331.118 175.908 331.111C175.563 331.103 175.29 330.818 175.297 330.472ZM175.254 332.472L175.211 334.472C175.204 334.817 175.478 335.102 175.823 335.11C176.168 335.117 176.454 334.843 176.461 334.498L176.504 332.499C176.511 332.154 176.237 331.868 175.892 331.86C175.547 331.853 175.261 332.127 175.254 332.472ZM175.126 338.471L175.168 336.471C175.176 336.126 175.462 335.852 175.807 335.86C176.152 335.867 176.425 336.153 176.418 336.498L176.375 338.497C176.368 338.842 176.082 339.116 175.737 339.109C175.392 339.101 175.118 338.816 175.126 338.471Z" fill="#777A74"/>
<path fill-rule="evenodd" clip-rule="evenodd" d="M120.8 270.422L120.627 268.429C120.597 268.085 120.852 267.782 121.196 267.752C121.54 267.723 121.843 267.977 121.873 268.321L122.045 270.314C122.075 270.657 121.821 270.96 121.477 270.99C121.133 271.02 120.83 270.765 120.8 270.422ZM121.146 274.406L120.973 272.414C120.943 272.07 121.198 271.767 121.541 271.737C121.885 271.707 122.188 271.962 122.218 272.306L122.391 274.298C122.421 274.642 122.166 274.945 121.822 274.975C121.478 275.005 121.175 274.75 121.146 274.406ZM121.318 276.399L121.491 278.392C121.521 278.736 121.824 278.99 122.168 278.96C122.512 278.931 122.766 278.628 122.737 278.284L122.564 276.291C122.534 275.947 122.231 275.693 121.887 275.723C121.543 275.752 121.289 276.055 121.318 276.399ZM121.837 282.377L121.664 280.384C121.634 280.04 121.889 279.737 122.233 279.707C122.577 279.678 122.88 279.932 122.909 280.276L123.082 282.269C123.112 282.613 122.857 282.915 122.514 282.945C122.17 282.975 121.867 282.721 121.837 282.377ZM122.01 284.369L122.183 286.361C122.212 286.705 122.515 286.96 122.859 286.93C123.203 286.9 123.458 286.597 123.428 286.253L123.255 284.261C123.225 283.917 122.922 283.662 122.578 283.692C122.234 283.722 121.98 284.025 122.01 284.369ZM122.528 290.347L122.355 288.354C122.325 288.01 122.58 287.707 122.924 287.678C123.268 287.648 123.571 287.902 123.601 288.246L123.773 290.239C123.803 290.583 123.549 290.886 123.205 290.916C122.861 290.945 122.558 290.691 122.528 290.347ZM122.701 292.339L122.874 294.332C122.903 294.676 123.206 294.93 123.55 294.9C123.894 294.871 124.149 294.568 124.119 294.224L123.946 292.231C123.916 291.887 123.613 291.633 123.27 291.663C122.926 291.692 122.671 291.995 122.701 292.339ZM123.219 298.317L123.047 296.325C123.017 295.981 123.271 295.678 123.615 295.648C123.959 295.618 124.262 295.873 124.292 296.217L124.465 298.209C124.494 298.553 124.24 298.856 123.896 298.886C123.552 298.916 123.249 298.661 123.219 298.317ZM123.392 300.309L123.565 302.302C123.595 302.646 123.898 302.9 124.242 302.871C124.585 302.841 124.84 302.538 124.81 302.194L124.637 300.201C124.608 299.858 124.305 299.603 123.961 299.633C123.617 299.663 123.362 299.966 123.392 300.309ZM123.911 306.287L123.738 304.294C123.708 303.95 123.963 303.647 124.306 303.618C124.65 303.588 124.953 303.842 124.983 304.186L125.156 306.179C125.186 306.523 124.931 306.826 124.587 306.855C124.243 306.885 123.94 306.631 123.911 306.287ZM124.083 308.28L124.256 310.272C124.286 310.616 124.589 310.871 124.933 310.841C125.277 310.811 125.531 310.508 125.501 310.164L125.329 308.172C125.299 307.828 124.996 307.573 124.652 307.603C124.308 307.633 124.053 307.936 124.083 308.28ZM124.602 314.257L124.429 312.264C124.399 311.921 124.654 311.618 124.998 311.588C125.341 311.558 125.644 311.813 125.674 312.156L125.847 314.149C125.877 314.493 125.622 314.796 125.278 314.826C124.934 314.855 124.632 314.601 124.602 314.257ZM124.775 316.249L124.947 318.242C124.977 318.586 125.28 318.84 125.624 318.811C125.968 318.781 126.222 318.478 126.193 318.134L126.02 316.141C125.99 315.797 125.687 315.543 125.343 315.573C124.999 315.603 124.745 315.905 124.775 316.249ZM125.293 322.227L125.12 320.235C125.09 319.891 125.345 319.588 125.689 319.558C126.033 319.528 126.336 319.783 126.365 320.127L126.538 322.119C126.568 322.463 126.313 322.766 125.97 322.796C125.626 322.826 125.323 322.571 125.293 322.227ZM125.466 324.22L125.639 326.212C125.668 326.556 125.971 326.811 126.315 326.781C126.659 326.751 126.914 326.448 126.884 326.104L126.711 324.112C126.681 323.768 126.378 323.513 126.034 323.543C125.691 323.573 125.436 323.876 125.466 324.22ZM125.984 330.197L125.811 328.204C125.782 327.861 126.036 327.558 126.38 327.528C126.724 327.498 127.027 327.753 127.057 328.096L127.229 330.089C127.259 330.433 127.005 330.736 126.661 330.766C126.317 330.795 126.014 330.541 125.984 330.197ZM126.157 332.19L126.33 334.182C126.36 334.526 126.662 334.781 127.006 334.751C127.35 334.721 127.605 334.418 127.575 334.074L127.402 332.082C127.372 331.738 127.069 331.483 126.726 331.513C126.382 331.543 126.127 331.846 126.157 332.19ZM126.675 338.167L126.503 336.175C126.473 335.831 126.727 335.528 127.071 335.498C127.415 335.468 127.718 335.723 127.748 336.067L127.921 338.059C127.951 338.403 127.696 338.706 127.352 338.736C127.008 338.766 126.705 338.511 126.675 338.167Z" fill="#777A74"/>
<path d="M142.771 353.875C142.771 353.875 142.646 345.625 142.023 346.25C141.399 346.875 138.534 348.5 134.666 348.5C130.801 348.5 128.432 347.125 127.559 346.25C126.687 345.375 125.689 354.25 125.689 354.25L142.771 353.875Z" fill="#DCE1E9"/>
<path d="M100.628 368C100.149 366.92 100.193 365.822 100.461 365.417C100.73 365.015 133.277 362.465 133.277 362.465C138.679 362.062 149.708 359.55 150.448 362.465C152.971 372.4 146.267 372.4 141.981 372.4C136.088 372.4 135.389 370.837 131.536 371.327C129.527 371.582 126.58 372.937 113.052 372.937C102.203 372.937 101.699 370.417 100.628 368Z" fill="#DEDEDE"/>
<path d="M142.631 347.025L142.646 347C142.646 347 143.394 346 144.517 346.75C145.639 347.5 146.363 349.217 146.966 351.942C147.77 355.577 148.449 355.057 149.253 358.432C149.809 360.77 149.923 364.275 148.583 366.222C146.502 369.245 143.893 368.947 139.471 368.947C136.925 368.947 132.637 368.297 128.751 369.337C123.326 370.787 108.383 371.542 104.631 370.375C98.2368 368.385 100.209 362.587 102.889 360.38C107.592 356.507 118.409 357.64 120.702 354.625C122.578 352.16 123.461 347.962 124.125 346.102C124.875 344 127.144 343.515 126.875 346.102C126.625 348.5 127.411 352.072 134.245 351.942C139.699 351.84 140.499 350.525 142.631 347.025Z" fill="#252424"/>
<mask id="mask0_0_10230" style="mask-type:luminance" maskUnits="userSpaceOnUse" x="100" y="343" width="50" height="29">
<path fill-rule="evenodd" clip-rule="evenodd" d="M134.236 352.273C139.701 352.165 141.514 348.645 141.737 346.9H145.114C145.382 347.303 145.687 348.243 146.29 351.063C147.094 354.823 148.433 355.495 149.237 358.985C149.793 361.403 149.906 365.028 148.567 367.043C146.487 370.17 143.88 369.863 139.46 369.863C136.915 369.863 132.629 369.19 128.745 370.265C123.322 371.765 108.387 372.548 104.636 371.338C98.2454 369.28 99.9608 362.875 102.747 360.5C107.448 356.493 118.418 357.505 120.71 354.388C122.584 351.835 123.979 345.76 125.323 344.263C127.734 341.578 127.302 343.628 126.87 346.23C126.334 349.453 127.406 352.405 134.236 352.273Z" fill="white"/>
</mask>
<g mask="url(#mask0_0_10230)">
<path d="M106.22 365.15C103.756 365.15 99.6251 362.635 99.6251 361.875C99.4465 364.247 99.3929 369.102 101 370.5C103.009 372.245 121.623 372.535 123.632 371.73C125.641 370.925 126 369.75 122.5 370.375C120.486 370.735 114.39 368.507 112.247 366.895C110.105 365.285 109.301 365.15 106.22 365.15Z" fill="#DEDEDE"/>
</g>
<path d="M114.306 355.832C113.848 355.662 113.345 355.936 113.24 356.413L112.409 360.159L108.412 357.775C108.03 357.548 107.535 357.673 107.307 358.055C107.079 358.437 107.204 358.931 107.587 359.159L112.542 362.114C113.014 362.396 113.622 362.133 113.741 361.597L114.613 357.664L119.907 359.625C120.458 359.829 121.034 359.395 120.991 358.81L120.682 354.679L125.167 356.295C125.585 356.446 126.047 356.229 126.198 355.81C126.349 355.392 126.132 354.93 125.713 354.779L120.059 352.742C119.509 352.544 118.939 352.978 118.982 353.56L119.29 357.678L114.306 355.832Z" fill="#2A2A2A"/>
<path d="M159.979 353.875C159.979 353.875 160.104 345.625 160.727 346.25C161.351 346.875 164.216 348.5 168.084 348.5C171.949 348.5 174.318 347.125 175.191 346.25C176.063 345.375 177.061 354.25 177.061 354.25L159.979 353.875Z" fill="#DCE1E9"/>
<path d="M202.122 368C202.601 366.92 202.557 365.822 202.289 365.417C202.021 365.015 169.474 362.465 169.474 362.465C164.072 362.062 153.042 359.55 152.302 362.465C149.779 372.4 156.483 372.4 160.769 372.4C166.662 372.4 167.362 370.837 171.215 371.327C173.224 371.582 176.17 372.937 189.698 372.937C200.547 372.937 201.051 370.417 202.122 368Z" fill="#DEDEDE"/>
<path d="M160.12 347.025L160.104 347C160.104 347 159.356 346 158.234 346.75C157.112 347.5 156.387 349.217 155.784 351.942C154.98 355.577 154.301 355.057 153.497 358.432C152.941 360.77 152.828 364.275 154.167 366.222C156.248 369.245 158.857 368.947 163.279 368.947C165.825 368.947 170.113 368.297 173.999 369.337C179.424 370.787 194.367 371.542 198.119 370.375C204.513 368.385 202.541 362.587 199.861 360.38C195.158 356.507 184.341 357.64 182.048 354.625C180.172 352.16 179.289 347.962 178.625 346.102C177.875 344 175.606 343.515 175.875 346.102C176.125 348.5 175.339 352.072 168.505 351.942C163.051 351.84 162.251 350.525 160.12 347.025Z" fill="#252424"/>
<mask id="mask1_0_10230" style="mask-type:luminance" maskUnits="userSpaceOnUse" x="153" y="343" width="50" height="29">
<path fill-rule="evenodd" clip-rule="evenodd" d="M168.514 352.273C163.049 352.165 161.237 348.645 161.013 346.9H157.636C157.368 347.303 157.063 348.243 156.46 351.063C155.656 354.823 154.317 355.495 153.513 358.985C152.957 361.403 152.844 365.028 154.183 367.043C156.263 370.17 158.871 369.863 163.29 369.863C165.835 369.863 170.121 369.19 174.005 370.265C179.428 371.765 194.363 372.548 198.114 371.338C204.505 369.28 202.789 362.875 200.003 360.5C195.302 356.493 184.332 357.505 182.04 354.388C180.166 351.835 178.771 345.76 177.427 344.263C175.016 341.578 175.448 343.628 175.88 346.23C176.416 349.453 175.344 352.405 168.514 352.273Z" fill="white"/>
</mask>
<g mask="url(#mask1_0_10230)">
<path d="M196.53 365.15C198.994 365.15 203.125 362.635 203.125 361.875C203.303 364.247 203.357 369.102 201.75 370.5C199.741 372.245 181.127 372.535 179.118 371.73C177.109 370.925 176.75 369.75 180.25 370.375C182.264 370.735 188.36 368.507 190.503 366.895C192.645 365.285 193.449 365.15 196.53 365.15Z" fill="#DEDEDE"/>
</g>
<path d="M181.759 358.81C181.716 359.395 182.292 359.829 182.843 359.625L188.137 357.664L189.009 361.597C189.128 362.133 189.736 362.396 190.208 362.114L195.163 359.159C195.546 358.931 195.671 358.437 195.443 358.055C195.215 357.673 194.72 357.548 194.338 357.775L190.341 360.159L189.51 356.413C189.405 355.936 188.902 355.662 188.444 355.832L183.46 357.678L183.768 353.56C183.811 352.978 183.241 352.544 182.691 352.742L177.037 354.779C176.618 354.93 176.401 355.392 176.552 355.81C176.703 356.229 177.165 356.446 177.583 356.295L182.068 354.679L181.759 358.81Z" fill="#2A2A2A"/>
<path d="M106.631 239.441L106.625 239.288C106.475 235.418 106.842 230.113 107.671 224.178L107.712 223.89C109.473 211.467 112.91 198.56 116.164 192.189C118.488 187.64 116.684 182.068 112.134 179.744C107.585 177.42 102.013 179.224 99.6891 183.774C95.343 192.283 91.4184 207.019 89.3949 221.293L89.2982 221.986C88.3646 228.779 87.9452 234.993 88.1386 240.001C88.2562 243.049 88.5972 245.708 89.2309 248.01C90.212 251.574 91.8824 254.494 94.938 256.492C99.2138 259.288 104.946 258.088 107.742 253.812C110.042 250.295 109.638 245.793 107.043 242.75L106.964 242.658C106.811 241.907 106.689 240.809 106.631 239.441Z" fill="#EBBAAA"/>
<path d="M178.624 186.342C183.272 194.581 187.029 207.33 188.985 220.766C190.708 232.609 190.691 243.319 189.348 247.223L189.307 247.339C187.561 252.14 190.038 257.447 194.839 259.193C199.64 260.939 204.947 258.462 206.693 253.661C209.397 246.225 209.441 232.87 207.292 218.102C205.034 202.593 200.661 187.754 194.737 177.252C192.227 172.803 186.585 171.231 182.136 173.741C177.686 176.251 176.114 181.892 178.624 186.342Z" fill="#EBBAAA"/>
<path d="M107.25 165.125C107.25 159.25 120.125 153.254 129.125 150.402L140.875 146.504C142.511 146.452 153.754 146.92 155.375 147.144L173.625 153.254C182.273 154.449 195.621 158.188 194.75 166.875L185.387 205.075L186.25 254.25C186.268 254.703 165.578 257.273 165.125 257.25L130.75 255.07L112.125 254.232C111.689 254.209 111.464 252.935 111.5 252.5L114.002 200.47L107.25 165.125Z" fill="#EBBAAA"/>
<path d="M192.625 159.125C190.325 156.825 182.75 154.5 179.25 153.625C181.458 183.125 186.075 242.875 186.875 245.875C187.875 249.625 209.75 251.125 211.75 249.625C213.75 248.125 216 234 215.5 226.25C215 218.5 195.5 162 192.625 159.125Z" fill="#C5C9CF"/>
<path d="M211.625 250C212.725 249.8 215.25 242.667 216.125 239.875L185.375 235C185 237.542 184.3 243.05 184.5 244.75C184.75 246.875 190.5 248.75 196.75 249.75C203 250.75 210.25 250.25 211.625 250Z" fill="#DADDE2"/>
<path d="M106.48 159.746C108.633 157.447 115.723 155.124 119 154.25C116.933 183.727 112.611 243.431 111.862 246.428C110.926 250.176 90.4487 251.674 88.5765 250.176C86.7043 248.677 84.5981 234.563 85.0661 226.819C85.5342 219.075 103.788 162.618 106.48 159.746Z" fill="#BFC3C8"/>
<path d="M88.1561 250.404C87.0791 250.205 84.6068 243.118 83.75 240.344L113.859 235.5C114.226 238.026 114.911 243.498 114.715 245.188C114.471 247.299 108.84 249.162 102.721 250.156C96.6013 251.149 89.5025 250.653 88.1561 250.404Z" fill="#DADDE2"/>
<path d="M145.25 169.25C144 165.625 144.625 160.625 144.625 160.625L139 162.5L132.25 149.375C124.458 150.75 124.125 151.25 118.5 153.75C111.79 156.732 113.125 166.75 112.125 180.375L110.75 255L129.25 257.875L141.625 258L147.125 173.375C147.125 173.375 146.5 172.875 145.25 169.25Z" fill="#C5C9CF"/>
<path d="M150 169.125C146.75 166.5 147.292 164.417 147.875 162.375L149 161.625L157.25 160.625L165 150.125C165 150.125 176.125 151.625 179.875 153.625C183.625 155.625 185.875 177.5 185.875 177.5L187.625 255.375L178.125 258H141.5C141.167 231.833 142.759 175.466 146 173.75C150.25 171.5 150.75 169.731 150 169.125Z" fill="#BFC3C8"/>
<path d="M158.25 153.625C159.11 150.781 158.25 148.75 158 147.5L165 150.125C165 150.125 167.375 153.125 165.875 160C164.232 167.532 156.964 170.5 155.25 172.5C154.5 173.375 154.75 162.75 149 161.625C151.625 161 156.625 159 158.25 153.625Z" fill="#DADDE2"/>
<path d="M138.263 155.125C136.5 152.625 137.415 149.118 138.263 147.25L132.125 149.375C132.125 149.375 128.596 155.452 130.504 161.325C132.875 168.625 141.324 171.263 141.25 170.375C140.5 161.325 143.497 161.663 144.75 160.5C142.625 160 140.606 158.447 138.263 155.125Z" fill="#DADDE2"/>
<path d="M157.5 169C158.19 169 158.75 168.44 158.75 167.75C158.75 167.06 158.19 166.5 157.5 166.5C156.81 166.5 156.25 167.06 156.25 167.75C156.25 168.44 156.81 169 157.5 169Z" fill="#DAE2F3"/>
<path d="M138.25 167.75C138.94 167.75 139.5 167.19 139.5 166.5C139.5 165.81 138.94 165.25 138.25 165.25C137.56 165.25 137 165.81 137 166.5C137 167.19 137.56 167.75 138.25 167.75Z" fill="#E5EBF9"/>
<path d="M148.375 180.25C149.411 180.25 150.25 179.411 150.25 178.375C150.25 177.339 149.411 176.5 148.375 176.5C147.339 176.5 146.5 177.339 146.5 178.375C146.5 179.411 147.339 180.25 148.375 180.25Z" fill="#DADDE2"/>
<path d="M209.625 247.75C210.661 247.75 211.5 246.911 211.5 245.875C211.5 244.839 210.661 244 209.625 244C208.589 244 207.75 244.839 207.75 245.875C207.75 246.911 208.589 247.75 209.625 247.75Z" fill="#DAE2F3"/>
<path d="M91.125 247.75C92.1605 247.75 93 246.911 93 245.875C93 244.839 92.1605 244 91.125 244C90.0895 244 89.25 244.839 89.25 245.875C89.25 246.911 90.0895 247.75 91.125 247.75Z" fill="#DAE2F3"/>
<path d="M146.875 198.25C147.911 198.25 148.75 197.355 148.75 196.25C148.75 195.145 147.911 194.25 146.875 194.25C145.839 194.25 145 195.145 145 196.25C145 197.355 145.839 198.25 146.875 198.25Z" fill="#DADDE2"/>
<path d="M145.875 216C146.911 216 147.75 215.161 147.75 214.125C147.75 213.089 146.911 212.25 145.875 212.25C144.839 212.25 144 213.089 144 214.125C144 215.161 144.839 216 145.875 216Z" fill="#DADDE2"/>
<path d="M145.875 233.75C146.911 233.75 147.75 232.911 147.75 231.875C147.75 230.839 146.911 230 145.875 230C144.839 230 144 230.839 144 231.875C144 232.911 144.839 233.75 145.875 233.75Z" fill="#DADDE2"/>
<path d="M145.875 249.5C146.911 249.5 147.75 248.661 147.75 247.625C147.75 246.589 146.911 245.75 145.875 245.75C144.839 245.75 144 246.589 144 247.625C144 248.661 144.839 249.5 145.875 249.5Z" fill="#DADDE2"/>
<path d="M159.5 180C159.5 179.31 160.06 178.75 160.75 178.75H179.5C180.19 178.75 180.75 179.31 180.75 180V199.75C180.75 200.44 180.19 201 179.5 201H160.75C160.06 201 159.5 200.44 159.5 199.75V180Z" fill="#DADDE2"/>
<path fill-rule="evenodd" clip-rule="evenodd" d="M163.344 213.397L163.571 202.189L163.575 202.101C163.621 201.314 164.069 200.608 164.776 200.255C166.263 199.514 167.811 198.931 169.239 198.704C170.443 198.513 171.689 198.369 172.869 198.267C173.856 198.182 174.768 198.753 175.08 199.687C175.804 201.859 176.305 204.614 176.342 207.87C176.38 211.264 175.715 214.355 174.727 216.915C174.373 217.831 173.443 218.368 172.465 218.24C171.021 218.05 169.656 217.774 168.563 217.387C167.505 217.012 166.214 216.377 164.875 215.628L164.472 215.4C163.755 214.991 163.327 214.222 163.344 213.397ZM165.465 201.625C165.252 201.731 165.114 201.956 165.109 202.219L164.882 213.428C164.876 213.699 165.013 213.944 165.238 214.072C166.644 214.876 168.024 215.571 169.078 215.944C170.048 216.288 171.32 216.545 172.666 216.722C172.946 216.759 173.195 216.614 173.292 216.365C174.214 213.974 174.84 211.068 174.804 207.888C174.769 204.797 174.297 202.197 173.62 200.17C173.537 199.921 173.292 199.768 173.001 199.793C171.856 199.891 170.646 200.031 169.482 200.216C168.241 200.414 166.824 200.947 165.465 201.625Z" fill="black"/>
<path d="M170.32 217.009H171.844V196.067L168.956 190.259L167.594 190.944L170.32 196.429V217.009Z" fill="black"/>
<path d="M172.451 195.144C172.854 196.034 172.922 197.447 172.344 198.536L173.739 199.259C174.566 197.702 174.474 195.801 173.889 194.509L172.451 195.144Z" fill="black"/>
<path fill-rule="evenodd" clip-rule="evenodd" d="M164.397 179.444L163.599 190.96C163.543 191.775 163.919 192.554 164.602 192.986C166.005 193.872 167.484 194.603 168.878 194.961C170.045 195.261 171.254 195.516 172.411 195.724C173.384 195.899 174.341 195.403 174.729 194.492C175.64 192.355 176.384 189.603 176.715 186.3C177.055 182.906 176.691 179.745 175.962 177.069C175.687 176.06 174.734 175.424 173.695 175.518L173.266 175.558C171.779 175.702 170.44 175.873 169.457 176.072C168.267 176.312 166.899 176.898 165.538 177.637C164.873 177.997 164.449 178.68 164.397 179.444ZM165.117 191.122L165.119 191.066L165.916 179.55C165.933 179.303 166.064 179.093 166.261 178.987C167.5 178.315 168.751 177.779 169.757 177.575L170.018 177.525C170.861 177.369 171.963 177.228 173.179 177.107L173.832 177.045C174.149 177.016 174.416 177.195 174.493 177.475C175.176 179.981 175.519 182.959 175.199 186.146C174.885 189.287 174.181 191.888 173.329 193.887C173.225 194.132 172.966 194.266 172.68 194.214C171.556 194.012 170.381 193.765 169.255 193.475C168.046 193.165 166.693 192.496 165.412 191.687C165.228 191.571 165.117 191.36 165.117 191.122Z" fill="black"/>
<path d="M172.969 176.509V178.759" stroke="black" stroke-width="1.15301"/>
<rect x="138.362" y="132.5" width="19.5837" height="29.6332" rx="9.47775" fill="#EBBAAA"/>
<path d="M183.817 115.883C192 115.883 198.633 109.249 198.633 101.066C198.633 92.8833 192 86.2495 183.817 86.2495C175.634 86.2495 169 92.8833 169 101.066C169 109.249 175.634 115.883 183.817 115.883Z" fill="#EBBAAA"/>
<path d="M114.067 116.633C105.884 116.633 99.2501 109.999 99.2501 101.816C99.2501 93.6333 105.884 86.9995 114.067 86.9995C122.25 86.9995 128.883 93.6333 128.883 101.816C128.883 109.999 122.25 116.633 114.067 116.633Z" fill="#EBBAAA"/>
<path d="M109.5 73.3273C109.5 52.2975 126.548 35.2495 147.578 35.2495C168.838 35.2495 185.98 52.659 185.651 73.917L185.067 111.629C184.753 131.945 168.194 148.25 147.875 148.25C128.158 148.25 111.865 132.867 110.733 113.183L109.5 91.7495V73.3273Z" fill="#F4D4C9"/>
<path d="M140.565 127.432C145.462 130.153 151.243 130.082 157.479 127.531C158.463 127.129 158.934 126.005 158.532 125.021C158.129 124.037 157.005 123.566 156.021 123.968C150.789 126.108 146.21 126.164 142.435 124.067C141.506 123.551 140.334 123.886 139.817 124.815C139.301 125.744 139.636 126.916 140.565 127.432Z" fill="#C99584"/>
<path d="M107.503 69.3453C107.436 67.9283 108.741 66.7495 110.375 66.7495C112.07 66.7495 113.397 68.0138 113.237 69.4773L110.53 94.27C110.485 94.6845 110.084 94.9995 109.606 94.9995C109.107 94.9995 108.699 94.659 108.677 94.2285L107.503 69.3453Z" fill="#272727"/>
<path d="M188.475 69.3735C188.613 67.9672 187.388 66.7285 185.779 66.6455C184.11 66.5595 182.739 67.7497 182.822 69.2135L184.216 94.0127C184.239 94.4272 184.617 94.7607 185.088 94.785C185.579 94.8105 185.999 94.4925 186.042 94.0652L188.475 69.3735Z" fill="#272727"/>
<path d="M160.625 94.9995V99.4995C160.625 101.156 161.968 102.5 163.625 102.5C165.282 102.5 166.625 101.156 166.625 99.4995V94.9995C166.625 93.3427 165.282 91.9995 163.625 91.9995C161.968 91.9995 160.625 93.3427 160.625 94.9995Z" fill="black"/>
<path d="M128.375 94.9995V99.4995C128.375 101.156 129.718 102.5 131.375 102.5C133.032 102.5 134.375 101.156 134.375 99.4995V94.9995C134.375 93.3427 133.032 91.9995 131.375 91.9995C129.718 91.9995 128.375 93.3427 128.375 94.9995Z" fill="black"/>
<path d="M123.764 85.6384L123.763 85.6396L123.775 85.6309C123.835 85.5846 123.918 85.5268 124.022 85.4597C124.359 85.2434 124.787 85.0175 125.31 84.7999C126.211 84.4248 127.271 84.1263 128.5 83.9402C129.177 83.8376 129.94 83.7674 130.77 83.7281C132.42 83.6503 134.213 83.697 135.957 83.8231L136.251 83.8451L136.53 83.8677C136.666 83.8791 136.796 83.8906 136.921 83.9021L137.42 83.9522C138.792 84.1094 140.031 83.1248 140.188 81.7531C140.343 80.4046 139.394 79.1839 138.059 78.9936L137.989 78.9847C137.908 78.9754 137.771 78.9608 137.584 78.9427L137.243 78.9108L136.95 78.8853C136.749 78.8685 136.538 78.852 136.318 78.8361C134.391 78.6968 132.409 78.6452 130.534 78.7337C129.542 78.7806 128.611 78.8663 127.751 78.9967C126.117 79.2443 124.663 79.6533 123.389 80.1836C122.589 80.5165 121.899 80.8804 121.318 81.2538C120.934 81.501 120.652 81.7155 120.47 81.8765C119.435 82.7907 119.338 84.3706 120.252 85.4053C121.132 86.4019 122.631 86.5292 123.664 85.7202L123.722 85.6735L123.764 85.6384Z" fill="#393939"/>
<path d="M157.469 83.616L157.851 83.5766L158.164 83.5473L158.428 83.5244C158.609 83.5092 158.801 83.4943 159.001 83.4798C160.745 83.3537 162.538 83.307 164.188 83.3849C165.019 83.4241 165.781 83.4944 166.459 83.597C167.687 83.7831 168.747 84.0815 169.649 84.4567C170.171 84.6742 170.6 84.9002 170.936 85.1165L171.033 85.1804L171.115 85.2376L171.196 85.2968L171.177 85.2801C172.212 86.1944 173.792 86.0967 174.706 85.062C175.621 84.0274 175.523 82.4475 174.488 81.5332L174.404 81.461C174.223 81.3103 173.969 81.1224 173.64 80.9106C173.059 80.5371 172.369 80.1732 171.569 79.8404C170.295 79.3101 168.842 78.901 167.208 78.6534C166.347 78.5231 165.417 78.4373 164.424 78.3904C162.549 78.3019 160.567 78.3535 158.64 78.4928L158.317 78.5171L158.008 78.5421C157.858 78.5547 157.713 78.5675 157.575 78.5803L157.069 78.6304L156.969 78.6415C155.597 78.7986 154.613 80.0381 154.77 81.4098C154.924 82.7583 156.125 83.7326 157.469 83.616Z" fill="#393939"/>
<path d="M149.513 95.128L145.454 93.8706L145.212 94.6351L145.065 95.0765C144.907 95.5378 144.693 96.1339 144.305 97.2008L143.429 99.6065L143.214 100.207L143.046 100.683L142.858 101.225C141.33 105.672 140.759 108.512 141.246 110.925C141.637 112.859 142.778 114.314 144.626 115.009C146.319 115.647 148.493 115.602 151.246 114.94L150.253 110.808C148.252 111.289 146.881 111.317 146.123 111.032C145.71 110.877 145.524 110.64 145.412 110.083C145.108 108.578 145.671 106.021 147.12 101.911L147.342 101.286L148.78 97.3233L149.024 96.6339C149.22 96.0681 149.333 95.7108 149.513 95.128Z" fill="#EBBAAA"/>
<path d="M187.5 52.1245C184.6 45.9245 177.208 43.2078 174.125 42.1245L163.75 46.7495C170 43.9634 157.332 47.1382 165 50.4995C174.125 54.4995 182.625 64.7495 184.75 85.6245C184.75 85.6245 186.625 86.687 187.375 86.6245C188.125 86.562 190 87.3745 190 87.3745C190.125 78.7078 190.4 58.3245 187.5 52.1245Z" fill="#1E1E1E"/>
<path d="M106 60.9995C109.875 37.1245 125.625 34.8745 133.375 32.4995L114.375 59.9995L110.25 85.6245C107.875 82.2913 103.997 73.3395 106 60.9995Z" fill="#272727"/>
<path d="M152.5 54.9995C160.7 54.9995 171.125 48.7912 173.375 45.1245L156.625 36.7495L130.5 38.2495L127 61.2495C134.25 53.1245 144.3 54.9995 152.5 54.9995Z" fill="#272727"/>
<path d="M138 28.7495C164.25 23.9996 172.375 33.4941 173.875 37.369C175.375 41.2439 175.188 41.9941 173.125 44.7441C170.125 48.7441 156 43.369 144.5 45.369C133 47.369 131.5 59.994 123.375 65.744C116.875 70.344 110.417 71.4108 108 71.369C109.625 66.369 113.275 55.144 114.875 50.244C116.875 44.119 124.009 31.2811 138 28.7495Z" fill="#272727"/>
<path d="M129.164 64.4511L128.593 56.8381L127.819 47.212L172.537 42.9478L154.472 62.6876L153.49 58.4329L149.806 61.4434L147.903 57.0481L143.945 62.2974L141.003 60.2524L135.28 63.5599L134.632 61.1804L129.164 64.4511Z" fill="#272727"/>
</svg>
