<svg width="300" height="400" viewBox="0 0 300 400" fill="none" xmlns="http://www.w3.org/2000/svg">
<path fill-rule="evenodd" clip-rule="evenodd" d="M141.196 361.298C138.972 364.793 134.336 365.822 130.842 363.597C127.916 361.735 126.719 358.182 127.712 355.024L127.724 354.886L127.749 354.557L127.767 354.265C127.821 353.324 127.852 352.043 127.861 350.463L127.863 349.926L127.863 349.175C127.856 345.394 127.738 340.351 127.526 334.408L127.482 333.187L127.417 331.488C127.013 321.092 126.367 308.87 125.789 300.211L125.672 298.491L125.574 297.113C125.274 292.982 128.38 289.39 132.511 289.09C136.643 288.791 140.235 291.897 140.534 296.028C141.142 304.403 141.867 317.63 142.334 329.11L142.406 330.907L142.472 332.646C142.678 338.196 142.807 343.048 142.849 346.968L142.859 348.094L142.863 349.146C142.867 351.214 142.841 352.954 142.78 354.367L142.758 354.826L142.743 355.118C142.691 356.028 142.621 356.804 142.52 357.487C142.307 358.941 142.033 359.983 141.196 361.298ZM127.814 354.72C127.998 354.213 128.241 353.717 128.543 353.242C128.054 354.009 127.862 354.459 127.761 354.873L127.814 354.72Z" fill="#EBBAAA"/>
<path d="M161.476 285.863C162.51 300.115 163.353 335.634 163.353 356.611C163.353 360.753 166.711 364.111 170.853 364.111C174.995 364.111 178.353 360.753 178.353 356.611L178.352 355.315L178.347 353.351C178.268 331.813 177.45 298.743 176.437 284.778C176.137 280.647 172.545 277.541 168.414 277.84C164.282 278.14 161.176 281.732 161.476 285.863Z" fill="#EBBAAA"/>
<path d="M150.898 265.113C167.723 265.113 181.361 258.089 181.361 249.424C181.361 240.76 167.723 233.735 150.898 233.735C134.074 233.735 120.436 240.76 120.436 249.424C120.436 258.089 134.074 265.113 150.898 265.113Z" fill="#020202"/>
<path d="M100.563 371.683C100.513 365.945 101.294 362.455 106.281 360.11C111.269 357.765 115.967 353.258 124.595 349.393C124.595 349.393 125.731 349.18 127.58 350.18C129.157 351.033 131.184 353.125 134.237 353.1C137.553 353.07 140.507 352.368 142.343 351.405C143.136 349.233 144.896 349.218 144.896 349.218C144.896 349.218 147.373 353.933 147.414 358.67C147.456 363.405 147.452 371.273 147.452 371.273L100.563 371.683Z" fill="#161616"/>
<path d="M119.283 351.364C118.761 351.134 118.206 351.613 118.358 352.163L119.107 354.879L116.105 353.911C115.668 353.771 115.221 354.096 115.221 354.555V357.344L112.972 356.125C112.521 355.881 111.972 356.208 111.972 356.72V360.105C111.972 360.479 112.275 360.782 112.649 360.782C113.023 360.782 113.326 360.479 113.326 360.105V357.857L115.575 359.075C116.026 359.32 116.574 358.993 116.574 358.48V355.485L119.885 356.552C120.398 356.717 120.888 356.247 120.745 355.728L120.042 353.178L123.339 354.632C123.786 354.829 124.288 354.502 124.288 354.013L124.288 353.756C124.283 352.805 124.246 352.219 124.117 351.516C124.021 350.997 123.882 350.52 123.689 350.086C123.537 349.744 123.137 349.59 122.796 349.742C122.454 349.894 122.3 350.294 122.452 350.635C122.599 350.965 122.709 351.341 122.786 351.76C122.851 352.112 122.889 352.437 122.91 352.821L122.917 352.967L119.283 351.364Z" fill="white"/>
<path d="M102.449 360.551C103.98 359.996 105.6 359.576 108.707 358.871L107.387 362.673L107.424 367.003L98.5813 367.081C98.2204 367.083 97.5756 366.603 97.8834 364.651C98.2682 362.211 100.275 361.338 102.449 360.551Z" fill="#161616"/>
<path d="M147.6 370.533L147.343 365.978L107.692 366.596L97.805 365.871L97.5029 369.363C97.3987 370.571 98.3033 371.626 99.511 371.711L107.741 372.281L146.535 371.678C147.151 371.668 147.634 371.148 147.6 370.533Z" fill="#808080"/>
<path d="M204.976 372.123C205.026 366.385 204.245 362.895 199.257 360.55C194.27 358.205 189.572 353.698 180.944 349.833C180.944 349.833 179.808 349.62 177.959 350.618C176.382 351.473 174.355 353.565 171.302 353.538C167.986 353.51 165.031 352.808 163.196 351.843C162.403 349.67 160.643 349.655 160.643 349.655C160.643 349.655 158.166 354.37 158.124 359.108C158.083 363.845 158.087 371.713 158.087 371.713L204.976 372.123Z" fill="#161616"/>
<path d="M184.794 356.168C184.65 356.687 185.141 357.157 185.654 356.992L188.965 355.925V358.92C188.965 359.433 189.513 359.76 189.964 359.515L192.213 358.297V360.543C192.213 360.917 192.516 361.22 192.89 361.22C193.264 361.22 193.567 360.917 193.567 360.543V357.16C193.567 356.648 193.018 356.321 192.568 356.565L190.318 357.784V354.995C190.318 354.536 189.871 354.211 189.434 354.351L186.432 355.319L187.181 352.603C187.333 352.053 186.778 351.574 186.255 351.804L182.621 353.407C182.641 352.955 182.681 352.591 182.754 352.192C182.832 351.775 182.941 351.401 183.087 351.072C183.239 350.731 183.084 350.331 182.743 350.179C182.401 350.028 182.001 350.182 181.85 350.524C181.658 350.956 181.519 351.431 181.424 351.946C181.282 352.713 181.25 353.342 181.25 354.453C181.25 354.942 181.753 355.269 182.2 355.072L185.497 353.618L184.794 356.168Z" fill="white"/>
<path d="M203.089 360.991C201.559 360.436 199.939 360.016 196.832 359.311L198.152 363.113L198.114 367.443L206.958 367.521C207.318 367.523 207.963 367.041 207.655 365.091C207.271 362.651 205.264 361.778 203.089 360.991Z" fill="#161616"/>
<path d="M157.939 370.973L158.196 366.418L197.847 367.033L207.734 366.308L208.036 369.803C208.14 371.008 207.236 372.066 206.028 372.148L197.798 372.718L159.003 372.116C158.388 372.108 157.905 371.588 157.939 370.973Z" fill="#808080"/>
<path d="M113.737 241.135L146.406 244.507V347.708H123.488L113.737 241.135Z" fill="#020202"/>
<path d="M151.317 244.747H186.596L183.483 348.393H159.997L151.317 244.747Z" fill="#020202"/>
<path d="M119.056 248.152C119.056 250.727 121.012 252.881 123.575 253.129L146.75 255.371C148.949 255.584 151.164 255.594 153.365 255.4L179.401 253.105C182.038 252.873 184.037 250.625 183.96 247.978L181.198 153.545C181.119 150.842 178.905 148.691 176.2 148.691H124.056C121.295 148.691 119.056 150.93 119.056 153.691V248.152Z" fill="#020202"/>
<path d="M149.338 169.429C159.006 169.429 166.844 161.495 166.844 151.709C166.844 141.923 159.006 133.989 149.338 133.989C139.669 133.989 131.832 141.923 131.832 151.709C131.832 161.495 139.669 169.429 149.338 169.429Z" fill="#2D2F32"/>
<rect x="139.731" y="129.993" width="19.2142" height="28.8213" rx="9.60707" fill="#EBBAAA"/>
<path d="M122.059 181.343L122.828 180.805C125.184 179.151 126.665 178.027 128.304 176.545C130.554 174.512 132.501 172.269 134.2 169.643C137.463 164.6 136.02 157.867 130.978 154.604C125.986 151.374 119.337 152.756 116.039 157.677L115.831 157.992L115.722 158.154C114.626 159.753 113.362 160.869 110.479 162.899L109.4 163.655L108.592 164.226C106.436 165.759 105.139 166.778 103.587 168.219C101.031 170.591 98.8938 173.262 97.1206 176.453L95.8866 180.029C91.918 205.019 90.4441 229.222 92.7715 248.77C93.4816 254.734 98.892 258.993 104.856 258.283C110.82 257.573 115.079 252.163 114.369 246.199C112.407 229.718 113.579 208.457 116.925 186.297L117.027 185.626C117.997 184.345 119.323 183.263 122.059 181.343Z" fill="#EBBAAA"/>
<path d="M182.145 185.185L182.485 187.361L182.773 189.235C184.316 199.315 185.282 206.817 185.974 214.66L186.047 215.499L186.117 216.342C187.045 227.692 187.078 237.547 186.078 245.949C185.368 251.913 189.627 257.323 195.591 258.033C201.555 258.743 206.966 254.484 207.676 248.52C208.912 238.136 208.828 226.455 207.681 213.215L207.587 212.15C206.71 202.419 205.45 193.251 203.31 179.779L202.076 176.203L201.838 175.777L201.678 175.495C199.22 171.181 196.499 167.419 191.499 161.06L189.459 158.469C185.623 153.587 184.317 151.825 182.7 149.327C179.438 144.284 172.705 142.842 167.662 146.104C162.62 149.367 161.177 156.1 164.44 161.143L164.785 161.674C166.719 164.63 168.29 166.732 172.374 171.928L174.611 174.771L175.315 175.669C178.598 179.877 180.587 182.619 182.145 185.185Z" fill="#EBBAAA"/>
<path d="M139.361 175.627L117.658 220.668C117.658 220.668 98.5693 210.209 91.2477 203.41C91.2477 203.41 94.2606 186.152 98.5693 170.398C101.068 161.262 107.087 154.127 111.704 149.744C115.403 146.232 120.24 144.351 125.252 143.406L134.654 141.634L139.361 175.627Z" fill="#525252"/>
<path d="M91.2752 203.145C91.7939 198.941 95.9891 196.23 100.035 197.484L110.559 200.745C113.991 201.809 116.262 205.068 116.071 208.656L116.017 209.668C115.996 210.061 115.945 210.451 115.866 210.837L110.248 238.037C109.762 240.392 107.733 242.111 105.331 242.205L86.3641 242.946L91.2752 203.145Z" fill="#525252"/>
<path d="M112.561 162.493C113.37 150.989 123.006 142.069 134.539 142.069C136.841 142.069 138.954 143.383 139.96 145.454L147.467 160.896C147.467 160.896 141.976 191.228 141.976 206.133C141.976 218.673 139.384 248.984 138.562 258.284C138.43 259.784 137.059 260.853 135.57 260.625L109.769 256.69C108.454 256.489 107.499 255.333 107.55 254.004L109.29 209.009L112.561 162.493Z" fill="#2D2F32"/>
<path d="M144.211 161.041C139.429 200.434 135.831 244.784 135.831 258.518L139.231 258.518C139.23 244.95 142.819 200.719 147.586 161.45L144.211 161.041Z" fill="#525252"/>
<path d="M137.916 262.026L108.368 258.903C107.703 258.832 107.198 258.271 107.198 257.603V253.026L139.361 256.381V260.726C139.361 261.502 138.688 262.107 137.916 262.026Z" fill="#525252"/>
<path d="M147.467 162.56L138.576 139.735L127.594 143.004V157.355L147.467 162.56Z" fill="#525252"/>
<path d="M160.688 176.062L182.391 221.103C182.391 221.103 201.479 210.643 208.801 203.845C208.801 203.845 205.788 186.587 201.479 170.832C198.64 160.451 191.255 152.653 186.547 148.542C183.916 146.244 180.622 144.939 177.189 144.292L165.395 142.069L160.688 176.062Z" fill="#525252"/>
<path d="M208.724 203.621C208.206 199.417 204.011 196.706 199.965 197.96L189.44 201.221C186.009 202.285 183.738 205.544 183.929 209.132L183.983 210.144C184.004 210.537 184.054 210.927 184.134 211.313L189.752 238.513C190.238 240.868 192.267 242.587 194.669 242.681L213.635 243.422L208.724 203.621Z" fill="#525252"/>
<path d="M185.369 161.054C184.268 150.623 175.471 142.704 164.981 142.704C162.833 142.704 160.872 143.931 159.933 145.863L152.317 161.531C152.317 161.531 157.808 191.863 157.808 206.768C157.808 219.308 160.399 249.619 161.222 258.92C161.354 260.42 162.725 261.488 164.214 261.261L190.015 257.325C191.33 257.124 192.285 255.968 192.233 254.639L190.493 209.644L185.369 161.054Z" fill="#2D2F32"/>
<path d="M152.201 161.95C156.968 201.219 160.557 245.45 160.556 259.018L163.956 259.018C163.956 245.284 160.358 200.934 155.576 161.541L152.201 161.95Z" fill="#525252"/>
<path d="M162.132 262.941L191.68 259.818C192.345 259.748 192.85 259.187 192.85 258.518V253.942L160.687 257.296V261.641C160.687 262.417 161.36 263.023 162.132 262.941Z" fill="#525252"/>
<path d="M152.582 162.792L159.32 139.735L172.193 141.485L172.193 158.492L152.582 162.792Z" fill="#525252"/>
<path d="M130.831 171.967L145.232 164.009L138.789 213.653L130.831 171.967Z" fill="#525252"/>
<path d="M168.956 171.967L154.556 164.009L160.998 213.653L168.956 171.967Z" fill="#525252"/>
<path d="M123.666 221.5L117.75 242.534L121.022 243.454L126.938 222.42L123.666 221.5Z" fill="#525252"/>
<path d="M184.269 116.076C192.452 116.076 199.085 109.442 199.085 101.259C199.085 93.0759 192.452 86.4424 184.269 86.4424C176.086 86.4424 169.452 93.0759 169.452 101.259C169.452 109.442 176.086 116.076 184.269 116.076Z" fill="#EBBAAA"/>
<path d="M117.019 116.826C108.836 116.826 102.202 110.192 102.202 102.009C102.202 93.8259 108.836 87.1924 117.019 87.1924C125.202 87.1924 131.835 93.8259 131.835 102.009C131.835 110.192 125.202 116.826 117.019 116.826Z" fill="#EBBAAA"/>
<path d="M110.648 74.9765C110.648 53.2805 128.236 35.6924 149.932 35.6924C172.368 35.6924 190.248 54.4507 189.172 76.8607L187.511 111.442C186.738 127.553 175.178 141.106 159.392 144.413C153.812 145.582 148.032 145.387 142.544 143.844L141.527 143.558C126.095 139.22 114.781 126.035 112.838 110.123L110.648 92.1925V74.9765Z" fill="#F4D4C9"/>
<path d="M143.017 125.375C147.914 128.096 153.694 128.025 159.931 125.474C160.915 125.072 161.386 123.948 160.984 122.964C160.581 121.98 159.457 121.508 158.473 121.911C153.241 124.051 148.662 124.107 144.887 122.01C143.958 121.494 142.786 121.828 142.269 122.758C141.753 123.687 142.088 124.859 143.017 125.375Z" fill="#C99584"/>
<path d="M152.305 51.9425C133.254 51.9425 117.059 56.9165 116.05 70.8002C114.545 91.4835 113.698 93.1472 110.971 83.5555C110.555 82.0935 110.28 68.8332 110.221 67.3175C110.221 30.731 140.427 30.731 152.305 30.731C162.04 38.6526 171.358 51.9425 152.305 51.9425Z" fill="#272727"/>
<path d="M110.223 70.7575C110.157 68.741 111.444 67.064 113.055 67.064C114.727 67.064 116.035 68.863 115.877 70.9455L113.208 106.224C113.163 106.814 112.768 107.262 112.297 107.262C111.805 107.262 111.402 106.778 111.381 106.165L110.223 70.7575Z" fill="#272727"/>
<path d="M190.418 70.5917C190.484 68.6657 189.197 67.064 187.586 67.064C185.915 67.064 184.607 68.7822 184.765 70.7712L187.434 104.467C187.478 105.03 187.873 105.458 188.344 105.458C188.837 105.458 189.239 104.996 189.26 104.41L190.418 70.5917Z" fill="#272727"/>
<path d="M152.452 50.9422C172.082 50.9422 181.642 58.8007 182.452 72.9422C184.459 84.0327 187.064 100.425 191.702 67.4422C191.702 15.7617 156.993 50.9422 144.753 50.9422C134.721 58.8637 132.819 50.9422 152.452 50.9422Z" fill="#272727"/>
<path d="M171.626 36.8824L176.967 42.5377L150.211 40.8882L124.702 47.8396L123.156 44.5407L124.701 43.4803L123.486 40.8882H126.084L124.207 36.8824H127.548L126.854 33.819H129.824L130.151 30.7557L133.655 31.6983L133.7 29.8131H136.855L135.861 27.6924L141.124 29.8131L141.243 27.6924L144.093 29.8131L144.955 27.6924L149.475 29.8131L150.709 27.6924L154.115 29.8131H155.786L158.525 31.6983L158.384 29.8131L163.416 33.819L165.016 32.8765L169.861 37.4715L171.626 36.8824Z" fill="#272727"/>
<path d="M173.235 84.0241C174.609 84.1652 175.837 83.1662 175.978 81.7927C176.119 80.4192 175.12 79.1914 173.746 79.0503L169.07 78.5698L158.762 80.5802C157.407 80.8445 156.523 82.1573 156.787 83.5125C157.052 84.8677 158.364 85.752 159.72 85.4877L169.298 83.6196L173.235 84.0241Z" fill="#393939"/>
<path d="M140.916 85.4877C142.271 85.752 143.584 84.8677 143.849 83.5125C144.113 82.1573 143.229 80.8445 141.873 80.5802L131.566 78.5698L126.89 79.0503C125.516 79.1914 124.517 80.4192 124.658 81.7927C124.799 83.1662 126.027 84.1652 127.401 84.0241L131.338 83.6196L140.916 85.4877Z" fill="#393939"/>
<path d="M147.382 97.1445C145.591 100.305 144.427 104.659 144.913 107.973C145.646 112.969 149.743 115.286 156.432 113.867L155.55 109.71C153.078 110.234 151.393 110.114 150.405 109.555C149.696 109.154 149.279 108.455 149.118 107.356C148.789 105.111 149.714 101.649 151.079 99.2402L147.382 97.1445Z" fill="#EBBAAA"/>
<path d="M127.827 53.6597L129.253 46.1599L131.008 36.6636L175.297 44.1657L152.724 58.5332L152.881 54.1697L148.541 56.1195L147.846 51.3804L142.659 55.421L140.35 52.6817L133.964 54.3885L133.957 51.9225L127.827 53.6597Z" fill="#272727"/>
<path d="M128.778 96.3189L128.874 96.2728C128.924 96.2496 128.982 96.2228 129.049 96.1931C129.371 96.0497 129.739 95.9047 130.143 95.769C131.288 95.3846 132.475 95.1553 133.624 95.1553C134.772 95.1553 135.959 95.3846 137.104 95.769C137.508 95.9047 137.876 96.0497 138.198 96.1931L138.292 96.2354L138.441 96.3049C138.471 96.3196 138.496 96.3321 138.517 96.3423L138.55 96.3594C139.403 96.8137 140.463 96.4904 140.917 95.6373C141.371 94.7842 141.048 93.7244 140.195 93.2701L140.082 93.2118L139.988 93.1656C139.887 93.1166 139.765 93.0595 139.622 92.996C139.203 92.809 138.732 92.6236 138.218 92.451C136.739 91.9546 135.189 91.6553 133.624 91.6553C132.058 91.6553 130.508 91.9546 129.029 92.451C128.515 92.6236 128.044 92.809 127.625 92.996L127.489 93.0573L127.311 93.1405C127.203 93.1921 127.116 93.2359 127.052 93.2701C126.199 93.7244 125.876 94.7842 126.33 95.6373C126.765 96.4533 127.753 96.7846 128.585 96.4143L128.641 96.388L128.778 96.3189Z" fill="#393939"/>
<path d="M160.105 96.3189L160.201 96.2728C160.251 96.2496 160.309 96.2228 160.376 96.1931C160.698 96.0497 161.066 95.9047 161.47 95.769C162.615 95.3846 163.803 95.1553 164.951 95.1553C166.099 95.1553 167.286 95.3846 168.431 95.769C168.836 95.9047 169.203 96.0497 169.525 96.1931L169.619 96.2354L169.768 96.3049C169.798 96.3196 169.824 96.3321 169.844 96.3423L169.877 96.3594C170.73 96.8137 171.79 96.4904 172.244 95.6373C172.698 94.7842 172.375 93.7244 171.522 93.2701L171.409 93.2118L171.315 93.1656C171.214 93.1166 171.092 93.0595 170.95 92.996C170.53 92.809 170.059 92.6236 169.545 92.451C168.067 91.9546 166.517 91.6553 164.951 91.6553C163.385 91.6553 161.835 91.9546 160.356 92.451C159.842 92.6236 159.372 92.809 158.952 92.996L158.816 93.0573L158.638 93.1405C158.53 93.1921 158.444 93.2359 158.379 93.2701C157.526 93.7244 157.203 94.7842 157.657 95.6373C158.092 96.4533 159.08 96.7846 159.912 96.4143L159.969 96.388L160.105 96.3189Z" fill="#393939"/>
<path d="M175.71 39.634C175.71 33.7334 167.046 29.2143 162.714 27.6924C163.728 28.1167 165.78 30.1858 165.875 35.0682C165.971 39.9506 161.466 42.0197 159.202 42.4439C164.705 43.9659 175.71 45.5347 175.71 39.634Z" fill="#272727"/>
<path d="M178.694 44.2933C182.866 40.1209 177.895 34.0334 174.888 31.5112C175.543 32.1497 176.014 34.2977 172.652 37.7819C169.289 41.2661 163.58 41.2256 161.146 40.7698C165.257 43.6827 174.521 48.4656 178.694 44.2933Z" fill="#272727"/>
</svg>
