<svg width="300" height="400" viewBox="0 0 300 400" fill="none" xmlns="http://www.w3.org/2000/svg">
<path d="M129.476 336.973L114.235 337.508L116.339 351.275L131.704 350.735L129.476 336.973Z" fill="black"/>
<path d="M153.059 337.062L168.115 337.598L166.037 351.365L150.858 350.825L153.059 337.062Z" fill="black"/>
<path d="M100.5 249.25H133.75V338.75H109.665L100.5 249.25Z" fill="#2E2622"/>
<path d="M138.023 283.768C153.705 283.768 166.417 277.746 166.417 270.318C166.417 262.889 153.705 256.868 138.023 256.868C122.341 256.868 109.629 262.889 109.629 270.318C109.629 277.746 122.341 283.768 138.023 283.768Z" fill="#2E2622"/>
<path d="M140.25 249.25H173.75V341.5H149.484L140.25 249.25Z" fill="#2E2622"/>
<path d="M106.426 328.5H133.753V341.95H109.201L106.426 328.5Z" fill="#49403C"/>
<path d="M147.416 328.5H174.743V341.95H147.416V328.5Z" fill="#49403C"/>
<path d="M90.6253 362.75C90.1786 361.745 90.5001 359.5 90.7502 359.125C91.0004 358.75 121.376 356.375 121.376 356.375C126.418 356 135.811 356.038 136.501 358.75C138.251 365.625 133.5 365.625 129.5 365.625C124 365.625 123.347 364.168 119.751 364.625C117.876 364.863 115.126 366.125 102.501 366.125C92.3755 366.125 91.6253 365 90.6253 362.75Z" fill="#C6CFDB"/>
<path d="M122.25 346.875C127.35 346.775 129.042 343.5 129.25 341.875H131.875C132.125 342.25 132.938 343.125 133.5 345.75C134.25 349.25 135.5 349.875 136.25 353.125C136.77 355.375 136.875 358.75 135.625 360.625C133.684 363.537 131.25 363.25 127.125 363.25C124.75 363.25 120.75 362.625 117.125 363.625C112.064 365.02 98.1253 365.75 94.6249 364.625C88.6603 362.707 90.5001 357.125 92.9997 355C97.387 351.27 105.861 351.527 108 348.625C109.75 346.25 110.746 340.517 112 339.125C114.25 336.625 115.779 338.827 115.375 341.25C114.875 344.25 115.875 347 122.25 346.875Z" fill="#D9E0E9"/>
<mask id="mask0_0_10399" style="mask-type:luminance" maskUnits="userSpaceOnUse" x="90" y="338" width="47" height="28">
<path fill-rule="evenodd" clip-rule="evenodd" d="M122.25 346.875C127.35 346.775 129.042 343.5 129.25 341.875H131.875C132.125 342.25 132.938 343.125 133.5 345.75C134.25 349.25 135.5 349.875 136.25 353.125C136.77 355.375 136.875 358.75 135.625 360.625C133.684 363.537 131.25 363.25 127.125 363.25C124.75 363.25 120.75 362.625 117.125 363.625C112.064 365.02 98.1253 365.75 94.6249 364.625C88.6603 362.707 90.5001 357.125 92.9997 355C97.387 351.27 105.861 351.527 108 348.625C109.75 346.25 110.746 340.517 112 339.125C114.25 336.625 115.779 338.827 115.375 341.25C114.875 344.25 115.875 347 122.25 346.875Z" fill="white"/>
</mask>
<g mask="url(#mask0_0_10399)">
<path d="M113.875 341.75C114.175 339.95 114.75 338.833 115 338.5L114.5 337.25H111.625C110.291 338.418 108.05 341.275 109.75 343.375C111.875 346 113.5 344 113.875 341.75Z" fill="#FFC9C6"/>
</g>
<mask id="mask1_0_10399" style="mask-type:luminance" maskUnits="userSpaceOnUse" x="90" y="338" width="47" height="28">
<path fill-rule="evenodd" clip-rule="evenodd" d="M122.25 346.875C127.35 346.775 129.042 343.5 129.25 341.875H131.875C132.125 342.25 132.938 343.125 133.5 345.75C134.25 349.25 135.5 349.875 136.25 353.125C136.77 355.375 136.875 358.75 135.625 360.625C133.684 363.537 131.25 363.25 127.125 363.25C124.75 363.25 120.75 362.625 117.125 363.625C112.064 365.02 98.1253 365.75 94.6249 364.625C88.6603 362.707 90.5001 357.125 92.9997 355C97.387 351.27 105.861 351.527 108 348.625C109.75 346.25 110.746 340.517 112 339.125C114.25 336.625 115.779 338.827 115.375 341.25C114.875 344.25 115.875 347 122.25 346.875Z" fill="white"/>
</mask>
<g mask="url(#mask1_0_10399)">
<path d="M96.1249 358.875C93.8249 358.875 93.2499 357.458 93.2499 356.75C93.0832 358.958 93.1249 363.7 94.6249 365C96.4997 366.625 110.5 365.75 112.375 365C114.25 364.25 112.125 360.5 110.5 361.5C108.875 362.5 103.75 362 101.75 360.5C99.7497 359 98.9997 358.875 96.1249 358.875Z" fill="#253A54"/>
<path d="M93.625 356C93.525 354.5 92.9167 354.208 92.625 354.25L88.5 354.5L89 362L94.25 365C95.25 364.958 97.25 364.5 97.25 363C97.25 361.125 95.375 361.125 94.25 360C93.125 358.875 93.75 357.875 93.625 356Z" fill="#463131"/>
<path d="M126 356.625L122.875 363.375H120.25L122.5 358.5L118 357.625L119 355.25L126 356.625Z" fill="#253A54"/>
<path d="M119.875 360L118.5 363.375L115.625 364.25L117.5 359.375L119.875 360Z" fill="#253A54"/>
<path d="M130.25 356.75C132.183 356.75 133.75 355.183 133.75 353.25C133.75 351.317 132.183 349.75 130.25 349.75C128.317 349.75 126.75 351.317 126.75 353.25C126.75 355.183 128.317 356.75 130.25 356.75Z" fill="#FFC9C6"/>
</g>
<path d="M102.635 349.922C102.209 349.764 101.741 350.019 101.643 350.462L100.868 353.951L97.1333 351.73C96.7773 351.519 96.317 351.636 96.1053 351.992C95.8936 352.348 96.0107 352.808 96.3667 353.02L100.992 355.77C101.431 356.031 101.996 355.786 102.107 355.288L102.921 351.626L107.865 353.453C108.377 353.643 108.914 353.239 108.873 352.694L108.558 348.5H113C113.414 348.5 113.75 348.164 113.75 347.75C113.75 347.336 113.414 347 113 347H107.75C107.314 347 106.969 347.371 107.002 347.806L107.29 351.642L102.635 349.922Z" fill="#C6CFDB"/>
<path d="M191.529 362.848C191.972 361.835 191.653 359.573 191.406 359.193C191.158 358.815 161.091 356.42 161.091 356.42C156.101 356.043 146.803 356.08 146.12 358.815C144.387 365.748 149.09 365.748 153.05 365.748C158.494 365.748 159.14 364.278 162.7 364.738C164.555 364.978 167.278 366.25 179.774 366.25C189.797 366.25 190.54 365.118 191.529 362.848Z" fill="#C6CFDB"/>
<path d="M160.216 346.885C155.169 346.783 153.495 343.498 153.289 341.868H150.691C150.444 342.243 149.64 343.12 149.083 345.755C148.341 349.268 147.104 349.895 146.362 353.155C145.848 355.415 145.743 358.8 146.98 360.683C148.901 363.605 151.31 363.318 155.392 363.318C157.742 363.318 161.7 362.69 165.288 363.693C170.296 365.095 184.09 365.825 187.554 364.698C193.457 362.773 191.636 357.17 189.162 355.038C184.821 351.295 176.435 351.553 174.318 348.64C172.586 346.258 171.601 340.505 170.36 339.108C168.133 336.598 166.621 338.808 167.02 341.24C167.514 344.25 166.525 347.01 160.216 346.885Z" fill="#D9E0E9"/>
<mask id="mask2_0_10399" style="mask-type:luminance" maskUnits="userSpaceOnUse" x="146" y="338" width="46" height="28">
<path fill-rule="evenodd" clip-rule="evenodd" d="M160.197 346.965C155.159 346.865 153.488 343.59 153.282 341.965H150.689C150.442 342.34 149.64 343.215 149.084 345.84C148.343 349.34 147.108 349.965 146.367 353.215C145.854 355.465 145.75 358.84 146.985 360.715C148.903 363.628 151.307 363.34 155.382 363.34C157.728 363.34 161.679 362.715 165.26 363.715C170.26 365.113 184.029 365.84 187.487 364.715C193.379 362.798 191.562 357.215 189.093 355.09C184.759 351.36 176.387 351.618 174.274 348.715C172.546 346.34 171.562 340.61 170.323 339.215C168.1 336.715 166.59 338.918 166.989 341.34C167.483 344.34 166.495 347.09 160.197 346.965Z" fill="white"/>
</mask>
<g mask="url(#mask2_0_10399)">
<path d="M168.471 341.84C168.175 340.04 167.607 338.922 167.36 338.59L167.853 337.34H170.694C172.011 338.507 174.225 341.365 172.546 343.465C170.447 346.09 168.841 344.09 168.471 341.84Z" fill="#FFC9C6"/>
</g>
<mask id="mask3_0_10399" style="mask-type:luminance" maskUnits="userSpaceOnUse" x="146" y="338" width="46" height="28">
<path fill-rule="evenodd" clip-rule="evenodd" d="M160.197 346.965C155.159 346.865 153.488 343.59 153.282 341.965H150.689C150.442 342.34 149.64 343.215 149.084 345.84C148.343 349.34 147.108 349.965 146.367 353.215C145.854 355.465 145.75 358.84 146.985 360.715C148.903 363.628 151.307 363.34 155.382 363.34C157.728 363.34 161.679 362.715 165.26 363.715C170.26 365.113 184.029 365.84 187.487 364.715C193.379 362.798 191.562 357.215 189.093 355.09C184.759 351.36 176.387 351.618 174.274 348.715C172.546 346.34 171.562 340.61 170.323 339.215C168.1 336.715 166.59 338.918 166.989 341.34C167.483 344.34 166.495 347.09 160.197 346.965Z" fill="white"/>
</mask>
<g mask="url(#mask3_0_10399)">
<path d="M186.005 358.965C188.277 358.965 188.845 357.547 188.845 356.84C189.01 359.047 188.969 363.79 187.487 365.09C185.635 366.715 171.805 365.84 169.953 365.09C168.1 364.34 170.199 360.59 171.805 361.59C173.41 362.59 178.473 362.09 180.448 360.59C182.424 359.09 183.165 358.965 186.005 358.965Z" fill="#253A54"/>
<path d="M188.475 356.09C188.574 354.59 189.174 354.297 189.463 354.34L193.537 354.59L193.044 362.09L187.857 365.09C186.869 365.047 184.894 364.59 184.894 363.09C184.894 361.215 186.746 361.215 187.857 360.09C188.969 358.965 188.351 357.965 188.475 356.09Z" fill="#463131"/>
<path d="M156.493 356.715L159.58 363.465H162.173L159.95 358.59L164.396 357.715L163.408 355.34L156.493 356.715Z" fill="#253A54"/>
<path d="M162.544 360.09L163.902 363.465L166.742 364.34L164.89 359.465L162.544 360.09Z" fill="#253A54"/>
</g>
<path d="M152.25 356.75C150.317 356.75 148.75 355.183 148.75 353.25C148.75 351.317 150.317 349.75 152.25 349.75C154.183 349.75 155.75 351.317 155.75 353.25C155.75 355.183 154.183 356.75 152.25 356.75Z" fill="#FFC9C6"/>
<path d="M173.377 352.78C173.337 353.326 173.876 353.73 174.389 353.537L179.327 351.68L180.142 355.41C180.252 355.912 180.823 356.158 181.263 355.892L185.888 353.094C186.243 352.88 186.356 352.419 186.142 352.064C185.927 351.71 185.466 351.596 185.112 351.811L181.384 354.066L180.608 350.512C180.51 350.066 180.039 349.81 179.611 349.971L174.959 351.72L175.248 347.805C175.28 347.37 174.936 347 174.5 347H169.25C168.836 347 168.5 347.336 168.5 347.75C168.5 348.164 168.836 348.5 169.25 348.5H173.693L173.377 352.78Z" fill="#C6CFDB"/>
<path d="M97.787 166.63C95.6183 169.341 93.6354 171.971 91.7268 174.664C90.2179 176.792 88.7486 178.968 87.2305 181.315L86.7567 182.05L86.3662 182.661C85.0586 184.711 83.6873 186.927 82.0613 189.605L75.6477 200.266C71.3762 207.364 73.6677 216.581 80.7659 220.852C87.7931 225.081 96.8968 222.878 101.223 215.946L107.418 205.648L107.961 204.753C109.692 201.907 111.086 199.671 112.418 197.611C113.714 195.608 114.947 193.782 116.201 192.013C117.773 189.796 119.406 187.629 121.213 185.37C126.388 178.902 125.339 169.462 118.87 164.287C112.402 159.112 102.962 160.161 97.787 166.63Z" fill="#FFB2B2"/>
<rect x="113.5" y="132.25" width="78" height="36" rx="18" fill="#FFB2B2"/>
<path d="M96.17 182.243C97.5028 169.085 108.675 159.25 121.9 159.25H150.628C163.733 159.25 174.843 168.912 176.289 181.936C177.651 194.215 179 208.786 179 218.369C179 228.988 177.344 242.203 175.848 251.977C174.619 260.008 167.632 265.75 159.508 265.75H113.126C104.831 265.75 97.7483 259.77 96.639 251.549C95.3035 241.65 93.818 228.462 93.7498 218.369C93.6879 209.213 94.915 194.632 96.17 182.243Z" fill="#FF9494"/>
<path d="M136.528 180.438C146.197 180.438 154.034 172.505 154.034 162.718C154.034 152.932 146.197 144.999 136.528 144.999C126.86 144.999 119.022 152.932 119.022 162.718C119.022 172.505 126.86 180.438 136.528 180.438Z" fill="#FFB3B3"/>
<rect x="127.25" y="175" width="5.33728" height="44.833" rx="2.66863" fill="#FFB2B2"/>
<rect x="142.079" y="174.887" width="5.33728" height="34.1585" rx="2.66863" fill="#FFB2B2"/>
<path d="M168.281 187.139L168.463 187.87L168.612 188.482C169.241 191.103 169.835 193.965 170.618 198.048L171.718 203.844C172.653 208.739 173.245 211.587 173.996 214.685C175.127 219.35 176.348 223.217 177.844 226.581L178.452 227.941L178.72 228.556C178.866 228.896 179.028 229.275 179.228 229.751L180.848 233.62L181.045 234.086C185.328 244.219 189.618 251.399 198.89 262.541C202.157 266.468 207.989 267.003 211.916 263.735C215.843 260.468 216.378 254.635 213.111 250.708L212.696 250.209C208.451 245.071 205.374 240.782 203.037 236.871L202.797 236.467L202.552 236.048C200.977 233.335 199.775 230.848 198.303 227.397L197.994 226.668L196.118 222.19L195.812 221.472C195.511 220.769 195.274 220.235 194.958 219.531L194.806 219.195C192.991 215.172 191.771 210.244 189.716 199.462L188.921 195.265L188.534 193.255C187.677 188.847 187.01 185.744 186.219 182.611C184.968 177.658 179.939 174.656 174.986 175.906C170.033 177.156 167.031 182.185 168.281 187.139Z" fill="#F6DDD6"/>
<rect width="28.402" height="97.1655" rx="14.201" transform="matrix(-0.945519 0.325568 0.325568 0.945519 182.104 157.5)" fill="#FFB2B2"/>
<path d="M114.734 185.945L114.632 186.04L114.581 186.082L114.477 186.164L114.363 186.251L114.235 186.346C114.123 186.428 113.996 186.517 113.857 186.614L113.772 186.672C113.189 187.071 112.447 187.541 111.563 188.072L111.263 188.251L110.932 188.447C109.193 189.47 107.049 190.653 104.539 191.979L103.806 192.365L102.785 192.899C102.669 192.959 102.553 193.019 102.437 193.08L101.369 193.632C99.3065 194.694 97.1559 195.779 94.6344 197.037L88.1779 200.245L86.8271 200.924L86.2305 201.229C85.1761 201.774 84.6994 202.061 84.121 202.481L84.0712 202.517C83.7964 202.718 83.5249 202.936 83.2274 203.21C82.4878 203.892 81.8546 204.63 81.2505 205.806L81.0585 206.207L81.0026 206.328C80.8515 206.664 80.7805 206.889 80.5384 207.655L80.4235 208.174L80.3872 208.347C80.2494 209.025 80.2488 209.316 80.2458 210.644L80.3172 211.183L80.3642 211.519C80.5201 212.582 80.6451 212.867 81.3179 214.401L81.6592 214.935L81.8751 215.267C82.4573 216.149 82.6695 216.341 83.6889 217.259L84.1634 217.594C84.9585 218.151 85.0906 218.21 85.9933 218.614L86.5045 218.798L86.7121 218.87C87.0232 218.974 87.1901 219.011 87.6602 219.117L88.3485 219.218L88.5373 219.243C88.9402 219.296 89.1049 219.297 89.5925 219.299C90.562 219.289 91.1883 219.174 91.9141 218.987C92.1751 218.919 92.4111 218.848 92.655 218.769L92.8696 218.697L93.029 218.641C93.492 218.479 94.0528 218.264 94.7851 217.973C95.8532 217.55 96.7987 216.949 97.6011 216.219L102.312 213.881C105.048 212.518 107.366 211.351 109.591 210.206L110.59 209.691L111.327 209.309C111.57 209.182 111.811 209.057 112.049 208.932L113.085 208.387L114.152 207.822C120.783 204.291 125.006 201.714 127.387 199.441C131.082 195.914 131.218 190.059 127.691 186.363C124.202 182.708 118.436 182.535 114.734 185.945Z" fill="#F6DDD6"/>
<path fill-rule="evenodd" clip-rule="evenodd" d="M126.378 176.159C127.67 176.644 128.325 178.085 127.841 179.377L123.159 177.622C123.644 176.329 125.085 175.674 126.378 176.159ZM135.565 180.405C136.515 181.408 136.472 182.99 135.469 183.94L132.031 180.31C133.033 179.36 134.615 179.403 135.565 180.405ZM125.018 186.877C125.915 184.508 127.13 181.272 127.841 179.378L123.159 177.622C122.026 180.644 119.69 186.854 119.304 187.821L123.946 189.678C123.947 189.677 123.948 189.675 123.948 189.673L125.675 192.51C128.145 191.006 129.942 189.268 132.765 186.536C133.57 185.757 134.458 184.898 135.469 183.94L132.031 180.31C130.844 181.434 129.86 182.385 129.013 183.203C127.292 184.865 126.14 185.978 125.018 186.877ZM125.018 186.877C124.507 188.225 124.1 189.293 123.948 189.673L123.075 188.239C123.776 187.813 124.392 187.378 125.018 186.877Z" fill="#F6DDD6"/>
<path d="M103.778 187.537L103.318 187.845L102.671 188.273C95.8045 192.808 92.2066 194.535 87.6973 195.909L87.1122 196.084L86.5824 196.239L84.2094 196.917C83.4599 197.132 82.827 197.317 82.1898 197.508C74.2549 199.888 69.7522 208.25 72.1326 216.185C74.5131 224.12 82.8754 228.623 90.8103 226.242L91.4552 226.051L94.8625 225.074L95.4437 224.904C95.6308 224.849 95.8127 224.796 95.994 224.741L96.4648 224.599L96.9231 224.458C104.384 222.136 110.708 219.003 120.472 212.463C127.355 207.853 129.198 198.536 124.588 191.653C119.978 184.77 110.661 182.927 103.778 187.537Z" fill="#FFB2B2"/>
<path d="M189.875 292.375C195.805 275.151 200.542 262.75 203.625 257.875C205.5 255.75 203.943 265.867 207 265.75C210.25 265.625 213 263 213.375 262.125C214.958 263.625 217.675 272.85 220.875 282.75C224.875 295.125 229.25 323.25 228.375 328.5C227.5 333.75 221.75 340 200.75 339.125C179.75 338.25 182 315.25 189.875 292.375Z" fill="#8D95B1"/>
<path d="M204.53 269.849L197.53 300.849L199.969 301.399L206.969 270.399L204.53 269.849Z" fill="white"/>
<path d="M207.004 289.016L205.379 307.766L207.87 307.982L209.495 289.232L207.004 289.016Z" fill="white"/>
<rect x="128.202" y="143.504" width="19.2142" height="28.8213" rx="9.60707" fill="#EED1C9"/>
<path d="M99.8521 119.506C107.917 119.506 114.454 113.267 114.454 105.571C114.454 97.8755 107.917 91.6367 99.8521 91.6367C91.7875 91.6367 85.2498 97.8755 85.2498 105.571C85.2498 113.267 91.7875 119.506 99.8521 119.506Z" fill="#EFC8BD"/>
<path d="M172.793 119.651C180.858 119.651 187.396 113.412 187.396 105.716C187.396 98.0205 180.858 91.7817 172.793 91.7817C164.729 91.7817 158.191 98.0205 158.191 105.716C158.191 113.412 164.729 119.651 172.793 119.651Z" fill="#EFC8BD"/>
<path d="M98.8889 79.119C98.8889 58.8949 116.126 42.5 137.389 42.5C158.652 42.5 175.889 58.8949 175.889 79.119V115.541C172.784 139.166 154.155 152.16 137.389 152.16C120.623 152.16 101.166 136.41 98.8889 115.541V79.119Z" fill="#F6DDD6"/>
<path d="M113.152 90.8564L127.311 90.2344C128.139 90.1981 128.78 89.4977 128.744 88.67C128.708 87.8424 128.007 87.201 127.18 87.2373L113.02 87.8593C112.192 87.8957 111.551 88.5961 111.587 89.4237C111.624 90.2513 112.324 90.8928 113.152 90.8564Z" fill="#62360D"/>
<path d="M113.389 129.25C118.498 129.25 122.639 125.109 122.639 120C122.639 114.891 118.498 110.75 113.389 110.75C108.281 110.75 104.139 114.891 104.139 120C104.139 125.109 108.281 129.25 113.389 129.25Z" fill="#F2CACA"/>
<path d="M146.333 89.7707L160.48 90.6412C161.307 90.692 162.018 90.063 162.069 89.2361C162.12 88.4093 161.491 87.6977 160.664 87.6468L146.517 86.7763C145.691 86.7254 144.979 87.3545 144.928 88.1814C144.877 89.0082 145.506 89.7198 146.333 89.7707Z" fill="#62360D"/>
<path d="M138.298 107.369L134.087 106.795L134.056 107.005L134.034 107.145C133.98 107.46 133.904 107.808 133.752 108.436L133.303 110.271L133.222 110.616L133.151 110.926L133.082 111.242C132.661 113.215 132.555 114.634 132.871 115.959C133.418 118.252 135.234 119.577 137.91 119.577V115.327C137.635 115.327 137.42 115.301 137.262 115.259C137.169 115.233 137.117 115.209 137.09 115.189L137.079 115.179L137.067 115.162C137.05 115.133 137.031 115.079 137.005 114.973C136.861 114.367 136.965 113.318 137.333 111.7L137.431 111.282L137.917 109.297L138.031 108.812C138.17 108.203 138.232 107.853 138.298 107.369Z" fill="#EBBAAA"/>
<path d="M179.389 111.455C180.632 111.455 181.639 112.462 181.639 113.705C181.639 114.947 180.632 115.955 179.389 115.955C178.147 115.955 177.139 114.947 177.139 113.705C177.139 112.462 178.147 111.455 179.389 111.455Z" fill="#FD9292"/>
<path d="M95.389 111.455C96.6317 111.455 97.639 112.462 97.639 113.705C97.639 114.947 96.6317 115.955 95.389 115.955C94.1464 115.955 93.139 114.947 93.139 113.705C93.139 112.462 94.1464 111.455 95.389 111.455Z" fill="#FD9292"/>
<path d="M164.264 128.75C169.304 128.75 173.389 124.609 173.389 119.5C173.389 114.391 169.304 110.25 164.264 110.25C159.225 110.25 155.139 114.391 155.139 119.5C155.139 124.609 159.225 128.75 164.264 128.75Z" fill="#F2CACA"/>
<path d="M136.751 34C104.751 34 90.7498 59.875 90.6248 74.125C90.5785 79.4007 91.2133 86.875 92.6249 93.5C96.3749 92 97.1231 94.866 99.2496 96.5C101.624 94.5 103 85.125 110.25 81.125C116.993 77.4045 125.625 71.625 127.626 68.75C129.626 71.625 133.875 73.125 143.751 76.5C157.136 81.0742 168.251 80.125 172.376 85.5C175.676 89.8 174.625 94.5 175.625 95.375C176.625 96.25 175.875 91.25 180.625 93.875C182.225 85.4897 183.753 63.1733 176.625 53.5C165.707 38.6821 155.146 34 136.751 34Z" fill="#231202"/>
<path d="M98.7498 173.875C91.4993 168.75 93.3335 137.167 95.2498 118.75C95.2498 118.75 96.9998 119.25 97.9998 119.375C98.9998 119.5 99.6248 119.5 99.6248 119.5C99.9998 121.125 101.375 126 106 133.25C109.863 139.306 116.625 145.625 121 147.5C120.75 150.042 120.79 154.875 121.375 162.375C122.125 172 119.25 177.75 114.125 178C110.025 178.2 106.5 173.125 106 172C105.375 173.5 103.952 177.552 98.7498 173.875Z" fill="#231202"/>
<path d="M182.438 153C181.472 144.382 178.625 131 178 118.75C178 118.75 177.125 119 176.563 119.25C176.001 119.5 175.125 119.875 175.125 119.875C173.75 123.75 173.688 127.875 167.688 136.375C163.925 141.706 158.063 145.625 154.938 147.375C154.188 156.292 155.695 170.379 159.188 172.125C161.188 173.125 161.688 171.875 164.563 170.75C167.438 169.625 169.9 175.5 173.188 175.5C179.563 175.5 184.063 167.5 182.438 153Z" fill="#231202"/>
<path d="M124.478 129.864C125.632 133.19 131.823 136.125 137.869 136.125C143.573 136.125 148.487 133.55 150.582 130.256C151.138 129.383 150.88 128.224 150.006 127.668C149.151 127.124 148.022 127.36 147.453 128.19L147.418 128.244C146.86 129.121 145.726 130.115 144.261 130.883C142.448 131.833 140.281 132.375 137.869 132.375C135.409 132.375 132.953 131.805 130.936 130.849C130.058 130.433 129.312 129.964 128.767 129.498C128.351 129.143 128.103 128.833 128.031 128.66L128.021 128.636C127.682 127.657 126.614 127.139 125.635 127.479C124.657 127.818 124.139 128.886 124.478 129.864Z" fill="#EBBAAA"/>
<rect x="141" y="91.75" width="27.25" height="19.75" rx="7" fill="white" fill-opacity="0.2" stroke="#F1CA64" stroke-width="2.5" stroke-linejoin="round"/>
<rect x="105.25" y="92" width="27.25" height="19.75" rx="7" fill="white" fill-opacity="0.2" stroke="#F1CA64" stroke-width="2.5" stroke-linejoin="round"/>
<path d="M150.192 99.0375C150.338 99.0764 150.576 99.1275 150.893 99.1763C152.119 99.3649 153.493 99.3649 154.91 99.0499C155.593 98.8982 156.233 98.7059 156.828 98.4821C157.381 98.2737 157.869 98.0486 158.288 97.8207L158.414 97.751L158.539 97.679C158.676 97.5985 158.782 97.5305 158.856 97.4787C159.421 97.0828 159.559 96.3034 159.163 95.7379C158.779 95.1885 158.032 95.043 157.471 95.398L157.374 95.4621L157.295 95.5105C157.253 95.5356 157.201 95.5652 157.14 95.5988L157.093 95.6246C156.773 95.7987 156.39 95.9756 155.947 96.1423C155.461 96.3254 154.934 96.4837 154.368 96.6095C153.285 96.8501 152.214 96.8501 151.274 96.7053L151.119 96.6801L151.019 96.6618C150.959 96.6502 150.91 96.6398 150.875 96.6315L150.836 96.6219C150.169 96.444 149.484 96.8406 149.306 97.5076C149.128 98.1747 149.525 98.8596 150.192 99.0375Z" fill="black"/>
<path d="M148.377 99.2095V104.223C148.377 105.88 149.72 107.223 151.377 107.223C153.034 107.223 154.377 105.88 154.377 104.223V99.2095C154.377 97.5526 153.034 96.2095 151.377 96.2095C149.72 96.2095 148.377 97.5526 148.377 99.2095Z" fill="black"/>
<path d="M123.247 97.4637L123.182 97.4777C123.097 97.4951 122.982 97.5162 122.84 97.538C121.825 97.6942 120.67 97.6942 119.502 97.4344C118.893 97.2991 118.325 97.1287 117.802 96.9316C117.372 96.77 116.995 96.5994 116.672 96.43L116.567 96.3735L116.467 96.3185C116.344 96.2494 116.261 96.198 116.219 96.1699L116.207 96.1612C115.641 95.7652 114.862 95.9027 114.466 96.4682C114.07 97.0337 114.207 97.8132 114.773 98.2091L114.839 98.2543C114.961 98.335 115.139 98.4429 115.372 98.5695C115.816 98.8111 116.333 99.0501 116.921 99.2713C117.553 99.5092 118.233 99.7136 118.959 99.8749C120.405 100.196 121.808 100.209 123.07 100.031L123.221 100.009C123.557 99.9572 123.808 99.9033 123.961 99.8624C124.628 99.6845 125.025 98.9996 124.847 98.3325C124.679 97.7015 124.057 97.3126 123.425 97.423L123.371 97.4337L123.247 97.4637Z" fill="black"/>
<path d="M119.716 100.129V105.487C119.716 107.144 121.059 108.487 122.716 108.487C124.373 108.487 125.716 107.144 125.716 105.487V100.129C125.716 98.4725 124.373 97.1294 122.716 97.1294C121.059 97.1294 119.716 98.4725 119.716 100.129Z" fill="black"/>
<path d="M132.5 101.25C133.083 100.833 134.95 100 136.75 100C138.55 100 140.083 100.833 140.75 101.25" stroke="#F1CA64" stroke-width="2.5"/>
</svg>
