<svg width="300" height="400" viewBox="0 0 300 400" fill="none" xmlns="http://www.w3.org/2000/svg">
<path d="M146.286 280.73C162.232 280.73 175.159 274.607 175.159 267.053C175.159 259.5 162.232 253.377 146.286 253.377C130.34 253.377 117.414 259.5 117.414 267.053C117.414 274.607 130.34 280.73 146.286 280.73Z" fill="#46799F"/>
<path d="M158.032 319.834L161.782 361.959C162.173 366.36 166.058 369.61 170.459 369.218C174.86 368.827 178.11 364.942 177.718 360.541L173.968 318.416C173.577 314.015 169.692 310.765 165.291 311.157C160.89 311.548 157.64 315.433 158.032 319.834Z" fill="#EBBAAA"/>
<path d="M127.753 319.224L128.753 354.974C128.876 359.39 132.557 362.87 136.973 362.747C141.39 362.623 144.87 358.943 144.746 354.526L143.746 318.776C143.623 314.36 139.942 310.88 135.526 311.003C131.109 311.127 127.629 314.807 127.753 319.224Z" fill="#EBBAAA"/>
<path d="M102.191 374.815C102.141 369.078 102.922 365.588 107.91 363.245C112.897 360.9 117.595 356.393 126.223 352.528C126.223 352.528 127.359 352.313 129.208 353.313C130.786 354.168 132.812 356.26 135.865 356.233C139.181 356.203 142.136 355.5 143.971 354.538C144.765 352.365 146.524 352.35 146.524 352.35C146.524 352.35 149.001 357.065 149.043 361.803C149.084 366.54 149.08 374.408 149.08 374.408L102.191 374.815Z" fill="#DCE1E6"/>
<path d="M120.912 354.498C120.39 354.268 119.835 354.747 119.986 355.297L120.735 358.013L117.734 357.043C117.297 356.902 116.849 357.228 116.849 357.687V360.476L114.6 359.257C114.149 359.013 113.601 359.339 113.601 359.852V363.237C113.601 363.611 113.904 363.914 114.277 363.914C114.651 363.914 114.954 363.611 114.954 363.237V360.989L117.203 362.207C117.654 362.452 118.202 362.125 118.202 361.612V358.617L121.513 359.686C122.026 359.852 122.517 359.382 122.373 358.862L121.67 356.312L124.967 357.766C125.414 357.964 125.917 357.636 125.917 357.147L125.916 356.891L125.914 356.616C125.903 355.822 125.862 355.285 125.746 354.652C125.651 354.132 125.511 353.653 125.317 353.217C125.165 352.876 124.765 352.722 124.424 352.874C124.082 353.026 123.929 353.426 124.08 353.767C124.227 354.098 124.338 354.475 124.415 354.896C124.479 355.248 124.517 355.573 124.539 355.955L124.546 356.101L120.912 354.498Z" fill="white"/>
<path d="M147.572 354.845C146.608 356.153 143.135 356.935 141.829 357.128C140.522 357.32 139.122 357.153 139.682 359.313C140.078 360.84 143.886 360.223 145.375 360.21C146.585 360.2 148.283 363.858 148.915 362.615C148.915 358.365 148.113 356.065 147.572 354.845Z" fill="#B8CAD8"/>
<path d="M104.078 363.682C105.608 363.127 107.228 362.707 110.335 362.005L109.015 365.805L109.053 370.137L100.21 370.212C99.8488 370.217 99.204 369.735 99.5118 367.782C99.8965 365.345 101.904 364.472 104.078 363.682Z" fill="#EAF4FB"/>
<path fill-rule="evenodd" clip-rule="evenodd" d="M114.908 364.897L115.605 366.226L119.368 364.251L118.671 362.923L114.908 364.897ZM116.301 367.554L116.998 368.882L120.762 366.908L120.065 365.58L116.301 367.554ZM118.392 371.539L117.695 370.211L121.459 368.236L122.155 369.565L118.392 371.539Z" fill="#B8CAD8"/>
<path fill-rule="evenodd" clip-rule="evenodd" d="M121.277 363.252L120.582 361.922L124.348 359.952L125.043 361.281L121.277 363.252ZM122.668 365.91L121.973 364.581L125.738 362.61L126.434 363.939L122.668 365.91ZM123.363 367.239L124.059 368.568L127.824 366.598L127.129 365.269L123.363 367.239ZM125.45 371.226L124.754 369.897L128.52 367.926L129.215 369.255L125.45 371.226Z" fill="#B8CAD8"/>
<path fill-rule="evenodd" clip-rule="evenodd" d="M126.133 358.625L126.818 359.96L130.599 358.019L129.914 356.685L126.133 358.625ZM127.503 361.294L128.188 362.629L131.969 360.688L131.284 359.354L127.503 361.294ZM129.558 365.298L128.873 363.963L132.654 362.022L133.339 363.357L129.558 365.298ZM130.243 366.632L130.928 367.967L134.709 366.026L134.024 364.691L130.243 366.632ZM132.298 370.636L131.613 369.301L135.394 367.36L136.079 368.695L132.298 370.636Z" fill="#B8CAD8"/>
<path d="M149.228 373.667L148.971 369.11L109.32 369.727L99.4333 369.002L99.1312 372.495C99.027 373.702 99.9317 374.76 101.139 374.842L109.37 375.412L148.164 374.81C148.779 374.8 149.263 374.28 149.228 373.667Z" fill="#C7CBCF"/>
<path d="M203.853 374.815C203.903 369.078 203.121 365.588 198.134 363.245C193.146 360.9 188.449 356.393 179.82 352.528C179.82 352.528 178.684 352.313 176.836 353.313C175.258 354.168 173.232 356.26 170.178 356.233C166.863 356.203 163.908 355.5 162.072 354.538C161.279 352.365 159.52 352.35 159.52 352.35C159.52 352.35 157.042 357.065 157.001 361.803C156.96 366.54 156.964 374.408 156.964 374.408L203.853 374.815Z" fill="#DCE1E6"/>
<path d="M183.67 358.862C183.527 359.381 184.018 359.852 184.531 359.686L187.842 358.617V361.612C187.842 362.125 188.39 362.452 188.841 362.207L191.09 360.989V363.237C191.09 363.611 191.393 363.914 191.767 363.914C192.14 363.914 192.443 363.611 192.443 363.237V359.852C192.443 359.339 191.895 359.013 191.444 359.257L189.195 360.476V357.687C189.195 357.228 188.747 356.902 188.31 357.043L185.309 358.013L186.058 355.297C186.21 354.747 185.654 354.268 185.132 354.498L181.498 356.101C181.518 355.653 181.557 355.292 181.629 354.897C181.706 354.475 181.817 354.098 181.964 353.767C182.115 353.426 181.962 353.026 181.62 352.874C181.279 352.722 180.879 352.876 180.727 353.217C180.533 353.653 180.393 354.132 180.298 354.652C180.158 355.416 180.127 356.042 180.127 357.147C180.127 357.636 180.63 357.964 181.077 357.766L184.374 356.312L183.67 358.862Z" fill="white"/>
<path d="M158.473 354.845C159.436 356.153 162.909 356.935 164.215 357.128C165.522 357.32 166.922 357.153 166.362 359.313C165.966 360.84 162.158 360.223 160.669 360.21C159.459 360.2 157.762 363.858 157.129 362.615C157.129 358.365 157.931 356.065 158.473 354.845Z" fill="#B8CAD8"/>
<path d="M201.966 363.682C200.436 363.127 198.815 362.707 195.708 362.005L197.029 365.805L196.991 370.137L205.834 370.212C206.195 370.217 206.84 369.735 206.532 367.782C206.147 365.345 204.14 364.472 201.966 363.682Z" fill="#EAF4FB"/>
<path fill-rule="evenodd" clip-rule="evenodd" d="M187.373 362.923L186.676 364.251L190.439 366.226L191.136 364.897L187.373 362.923ZM185.979 365.58L185.282 366.908L189.046 368.882L189.743 367.554L185.979 365.58ZM183.888 369.564L184.585 368.236L188.349 370.21L187.652 371.539L183.888 369.564Z" fill="#B8CAD8"/>
<path fill-rule="evenodd" clip-rule="evenodd" d="M181.001 361.281L181.696 359.952L185.462 361.922L184.767 363.252L181.001 361.281ZM179.61 363.939L180.305 362.61L184.071 364.581L183.376 365.91L179.61 363.939ZM178.915 365.269L178.219 366.598L181.985 368.568L182.68 367.239L178.915 365.269ZM176.828 369.255L177.524 367.926L181.289 369.897L180.594 371.226L176.828 369.255Z" fill="#B8CAD8"/>
<path fill-rule="evenodd" clip-rule="evenodd" d="M176.13 356.685L175.445 358.019L179.226 359.96L179.911 358.625L176.13 356.685ZM174.76 359.354L174.075 360.688L177.856 362.629L178.541 361.294L174.76 359.354ZM172.705 363.357L173.39 362.022L177.171 363.963L176.486 365.298L172.705 363.357ZM172.02 364.691L171.335 366.026L175.116 367.967L175.801 366.632L172.02 364.691ZM169.965 368.695L170.65 367.36L174.431 369.301L173.746 370.636L169.965 368.695Z" fill="#B8CAD8"/>
<path d="M156.816 373.667L157.073 369.11L196.724 369.727L206.611 369.002L206.913 372.495C207.017 373.702 206.112 374.76 204.905 374.842L196.674 375.412L157.88 374.81C157.265 374.8 156.781 374.28 156.816 373.667Z" fill="#C7CBCF"/>
<path d="M115.25 251.75H149L146.5 340.125L145.75 348.75L126.625 347.75L125.25 340.125L115.25 251.75Z" fill="#46799F"/>
<path d="M129.398 262.33C129.157 263.846 128.419 265.849 127.326 267.597C125.933 269.824 124.093 271.492 121.819 272.378L123.181 275.872C126.268 274.669 128.711 272.455 130.506 269.585C131.868 267.404 132.782 264.926 133.102 262.92L129.398 262.33Z" fill="#2F5F83"/>
<path d="M148.678 253.255H182.542L178.875 339.25L178.499 347L158.875 348.625L157.75 341.5L148.678 253.255Z" fill="#46799F"/>
<path d="M166.25 260.703C166.191 263.05 166.889 265.969 168.33 268.559C170.201 271.919 173.164 274.537 177.236 276.013L178.514 272.487C175.316 271.328 173.049 269.326 171.607 266.735C170.496 264.739 169.956 262.483 169.999 260.797L166.25 260.703Z" fill="#2F5F83"/>
<path fill-rule="evenodd" clip-rule="evenodd" d="M174.455 343.791L176.449 343.627C176.793 343.599 177.095 343.855 177.123 344.199C177.151 344.543 176.895 344.845 176.551 344.873L174.558 345.036C174.214 345.065 173.912 344.809 173.884 344.464C173.855 344.12 174.111 343.819 174.455 343.791ZM170.469 344.117L172.462 343.954C172.806 343.926 173.108 344.182 173.136 344.526C173.164 344.87 172.908 345.171 172.564 345.2L170.571 345.363C170.227 345.391 169.925 345.135 169.897 344.791C169.869 344.447 170.125 344.145 170.469 344.117ZM168.475 344.28L166.482 344.444C166.138 344.472 165.882 344.774 165.91 345.118C165.939 345.462 166.24 345.718 166.584 345.69L168.578 345.526C168.922 345.498 169.178 345.196 169.149 344.852C169.121 344.508 168.82 344.252 168.475 344.28ZM162.496 344.771L164.489 344.608C164.833 344.579 165.135 344.835 165.163 345.179C165.191 345.523 164.935 345.825 164.591 345.853L162.598 346.017C162.254 346.045 161.952 345.789 161.924 345.445C161.896 345.101 162.152 344.799 162.496 344.771Z" fill="#7096E0"/>
<path fill-rule="evenodd" clip-rule="evenodd" d="M129.549 344.177L131.546 344.276C131.891 344.294 132.156 344.587 132.139 344.932C132.122 345.277 131.829 345.542 131.484 345.525L129.486 345.425C129.142 345.408 128.876 345.114 128.893 344.77C128.91 344.425 129.204 344.159 129.549 344.177ZM135.541 344.476L133.543 344.376C133.199 344.359 132.905 344.625 132.888 344.969C132.871 345.314 133.136 345.607 133.481 345.625L135.479 345.725C135.823 345.742 136.117 345.476 136.134 345.132C136.151 344.787 135.886 344.493 135.541 344.476ZM137.538 344.576L139.536 344.676C139.881 344.693 140.146 344.987 140.129 345.331C140.112 345.676 139.818 345.942 139.474 345.924L137.476 345.824C137.131 345.807 136.866 345.514 136.883 345.169C136.9 344.824 137.194 344.559 137.538 344.576ZM141.533 344.776L143.531 344.876C143.876 344.893 144.141 345.186 144.124 345.531C144.107 345.876 143.813 346.141 143.469 346.124L141.471 346.024C141.126 346.007 140.861 345.713 140.878 345.369C140.895 345.024 141.189 344.758 141.533 344.776Z" fill="#7096E0"/>
<path fill-rule="evenodd" clip-rule="evenodd" d="M177.582 276.236L177.625 274.237C177.632 273.892 177.918 273.618 178.263 273.625C178.608 273.633 178.882 273.918 178.875 274.263L178.832 276.263C178.824 276.608 178.539 276.882 178.194 276.874C177.849 276.867 177.575 276.581 177.582 276.236ZM177.496 280.235L177.539 278.236C177.547 277.891 177.832 277.617 178.178 277.624C178.523 277.632 178.796 277.917 178.789 278.262L178.746 280.262C178.739 280.607 178.453 280.881 178.108 280.873C177.763 280.866 177.489 280.58 177.496 280.235ZM177.454 282.235L177.411 284.234C177.403 284.579 177.677 284.865 178.022 284.872C178.367 284.88 178.653 284.606 178.661 284.261L178.703 282.261C178.711 281.916 178.437 281.631 178.092 281.623C177.747 281.616 177.461 281.89 177.454 282.235ZM177.325 288.233L177.368 286.234C177.375 285.889 177.661 285.615 178.006 285.622C178.351 285.63 178.625 285.915 178.618 286.26L178.575 288.26C178.567 288.605 178.282 288.879 177.937 288.871C177.591 288.864 177.318 288.578 177.325 288.233ZM177.282 290.233L177.239 292.232C177.232 292.577 177.506 292.863 177.851 292.87C178.196 292.878 178.482 292.604 178.489 292.259L178.532 290.259C178.539 289.914 178.266 289.629 177.92 289.621C177.575 289.614 177.29 289.888 177.282 290.233ZM177.154 296.232L177.197 294.232C177.204 293.887 177.49 293.613 177.835 293.621C178.18 293.628 178.454 293.914 178.446 294.259L178.403 296.259C178.396 296.604 178.11 296.877 177.765 296.87C177.42 296.863 177.146 296.577 177.154 296.232ZM177.111 298.231L177.068 300.231C177.061 300.576 177.334 300.862 177.679 300.869C178.025 300.876 178.31 300.603 178.318 300.258L178.361 298.258C178.368 297.913 178.094 297.627 177.749 297.62C177.404 297.612 177.118 297.886 177.111 298.231ZM176.982 304.23L177.025 302.23C177.033 301.885 177.318 301.611 177.663 301.619C178.009 301.626 178.282 301.912 178.275 302.257L178.232 304.257C178.225 304.602 177.939 304.875 177.594 304.868C177.249 304.861 176.975 304.575 176.982 304.23ZM176.939 306.229L176.897 308.229C176.889 308.574 177.163 308.86 177.508 308.867C177.853 308.874 178.139 308.601 178.146 308.256L178.189 306.256C178.197 305.911 177.923 305.625 177.578 305.618C177.233 305.61 176.947 305.884 176.939 306.229ZM176.811 312.228L176.854 310.228C176.861 309.883 177.147 309.609 177.492 309.617C177.837 309.624 178.111 309.91 178.103 310.255L178.061 312.255C178.053 312.6 177.768 312.873 177.422 312.866C177.077 312.859 176.804 312.573 176.811 312.228ZM176.768 314.227L176.725 316.227C176.718 316.572 176.992 316.858 177.337 316.865C177.682 316.873 177.968 316.599 177.975 316.254L178.018 314.254C178.025 313.909 177.751 313.623 177.406 313.616C177.061 313.608 176.775 313.882 176.768 314.227ZM176.64 320.226L176.682 318.226C176.69 317.881 176.976 317.607 177.321 317.615C177.666 317.622 177.94 317.908 177.932 318.253L177.889 320.253C177.882 320.598 177.596 320.872 177.251 320.864C176.906 320.857 176.632 320.571 176.64 320.226ZM176.597 322.225L176.554 324.225C176.546 324.57 176.82 324.856 177.165 324.863C177.51 324.871 177.796 324.597 177.804 324.252L177.846 322.252C177.854 321.907 177.58 321.621 177.235 321.614C176.89 321.607 176.604 321.88 176.597 322.225ZM176.468 328.224L176.511 326.225C176.518 325.88 176.804 325.606 177.149 325.613C177.494 325.621 177.768 325.907 177.761 326.252L177.718 328.251C177.71 328.596 177.425 328.87 177.08 328.863C176.735 328.855 176.461 328.57 176.468 328.224ZM176.425 330.224L176.382 332.223C176.375 332.569 176.649 332.854 176.994 332.862C177.339 332.869 177.625 332.595 177.632 332.25L177.675 330.251C177.682 329.906 177.409 329.62 177.064 329.612C176.718 329.605 176.433 329.879 176.425 330.224ZM176.297 336.222L176.34 334.223C176.347 333.878 176.633 333.604 176.978 333.611C177.323 333.619 177.597 333.905 177.589 334.25L177.546 336.249C177.539 336.594 177.253 336.868 176.908 336.861C176.563 336.853 176.289 336.568 176.297 336.222ZM176.254 338.222L176.211 340.222C176.204 340.567 176.477 340.852 176.823 340.86C177.168 340.867 177.453 340.593 177.461 340.248L177.504 338.249C177.511 337.904 177.237 337.618 176.892 337.61C176.547 337.603 176.261 337.877 176.254 338.222ZM176.125 344.221L176.168 342.221C176.176 341.876 176.461 341.602 176.806 341.61C177.152 341.617 177.425 341.903 177.418 342.248L177.375 344.247C177.368 344.592 177.082 344.866 176.737 344.859C176.392 344.851 176.118 344.566 176.125 344.221Z" fill="#7096E0"/>
<path fill-rule="evenodd" clip-rule="evenodd" d="M121.8 276.172L121.627 274.179C121.598 273.835 121.852 273.532 122.196 273.502C122.54 273.473 122.843 273.727 122.873 274.071L123.046 276.064C123.075 276.407 122.821 276.71 122.477 276.74C122.133 276.77 121.83 276.515 121.8 276.172ZM122.146 280.156L121.973 278.164C121.943 277.82 122.198 277.517 122.542 277.487C122.886 277.457 123.188 277.712 123.218 278.056L123.391 280.048C123.421 280.392 123.166 280.695 122.822 280.725C122.479 280.755 122.176 280.5 122.146 280.156ZM122.319 282.149L122.491 284.142C122.521 284.486 122.824 284.74 123.168 284.71C123.512 284.681 123.766 284.378 123.737 284.034L123.564 282.041C123.534 281.697 123.231 281.443 122.887 281.473C122.543 281.502 122.289 281.805 122.319 282.149ZM122.837 288.127L122.664 286.134C122.634 285.79 122.889 285.487 123.233 285.457C123.577 285.428 123.88 285.682 123.91 286.026L124.082 288.019C124.112 288.363 123.858 288.665 123.514 288.695C123.17 288.725 122.867 288.471 122.837 288.127ZM123.01 290.119L123.183 292.111C123.212 292.455 123.515 292.71 123.859 292.68C124.203 292.65 124.458 292.347 124.428 292.003L124.255 290.011C124.225 289.667 123.922 289.412 123.578 289.442C123.235 289.472 122.98 289.775 123.01 290.119ZM123.528 296.097L123.355 294.104C123.326 293.76 123.58 293.457 123.924 293.428C124.268 293.398 124.571 293.652 124.601 293.996L124.774 295.989C124.803 296.333 124.549 296.636 124.205 296.666C123.861 296.695 123.558 296.441 123.528 296.097ZM123.701 298.089L123.874 300.082C123.904 300.426 124.207 300.68 124.55 300.65C124.894 300.621 125.149 300.318 125.119 299.974L124.946 297.981C124.916 297.637 124.614 297.383 124.27 297.413C123.926 297.442 123.671 297.745 123.701 298.089ZM124.219 304.067L124.047 302.075C124.017 301.731 124.271 301.428 124.615 301.398C124.959 301.368 125.262 301.623 125.292 301.967L125.465 303.959C125.495 304.303 125.24 304.606 124.896 304.636C124.552 304.666 124.249 304.411 124.219 304.067ZM124.392 306.059L124.565 308.052C124.595 308.396 124.898 308.65 125.242 308.621C125.586 308.591 125.84 308.288 125.81 307.944L125.638 305.951C125.608 305.608 125.305 305.353 124.961 305.383C124.617 305.413 124.362 305.716 124.392 306.059ZM124.911 312.037L124.738 310.044C124.708 309.7 124.963 309.397 125.307 309.368C125.65 309.338 125.953 309.592 125.983 309.936L126.156 311.929C126.186 312.273 125.931 312.576 125.587 312.605C125.243 312.635 124.94 312.381 124.911 312.037ZM125.083 314.03L125.256 316.022C125.286 316.366 125.589 316.621 125.933 316.591C126.277 316.561 126.531 316.258 126.502 315.914L126.329 313.922C126.299 313.578 125.996 313.323 125.652 313.353C125.308 313.383 125.054 313.686 125.083 314.03ZM125.602 320.007L125.429 318.014C125.399 317.671 125.654 317.368 125.998 317.338C126.342 317.308 126.645 317.563 126.674 317.906L126.847 319.899C126.877 320.243 126.622 320.546 126.278 320.576C125.935 320.605 125.632 320.351 125.602 320.007ZM125.775 321.999L125.947 323.992C125.977 324.336 126.28 324.59 126.624 324.561C126.968 324.531 127.223 324.228 127.193 323.884L127.02 321.891C126.99 321.547 126.687 321.293 126.343 321.323C125.999 321.353 125.745 321.655 125.775 321.999ZM126.293 327.977L126.12 325.985C126.09 325.641 126.345 325.338 126.689 325.308C127.033 325.278 127.336 325.533 127.366 325.877L127.538 327.869C127.568 328.213 127.314 328.516 126.97 328.546C126.626 328.576 126.323 328.321 126.293 327.977ZM126.466 329.97L126.639 331.962C126.669 332.306 126.971 332.561 127.315 332.531C127.659 332.501 127.914 332.198 127.884 331.854L127.711 329.862C127.681 329.518 127.378 329.263 127.035 329.293C126.691 329.323 126.436 329.626 126.466 329.97ZM126.984 335.947L126.811 333.954C126.782 333.611 127.036 333.308 127.38 333.278C127.724 333.248 128.027 333.503 128.057 333.846L128.23 335.839C128.259 336.183 128.005 336.486 127.661 336.516C127.317 336.545 127.014 336.291 126.984 335.947ZM127.157 337.94L127.33 339.932C127.36 340.276 127.663 340.531 128.007 340.501C128.35 340.471 128.605 340.168 128.575 339.824L128.402 337.832C128.373 337.488 128.07 337.233 127.726 337.263C127.382 337.293 127.127 337.596 127.157 337.94ZM127.675 343.917L127.503 341.925C127.473 341.581 127.727 341.278 128.071 341.248C128.415 341.218 128.718 341.473 128.748 341.817L128.921 343.809C128.951 344.153 128.696 344.456 128.352 344.486C128.008 344.516 127.705 344.261 127.675 343.917Z" fill="#7096E0"/>
<path d="M100.689 189.524C96.2609 198.193 93.7073 211.254 93.1237 225.301C92.5666 238.711 93.8874 251.056 97.0793 258.078C99.1934 262.729 104.677 264.785 109.328 262.671C113.932 260.578 115.994 255.182 113.983 250.562L113.921 250.422C112.215 246.67 111.161 236.818 111.608 226.069C112.086 214.566 114.132 204.007 117.075 198.116L117.164 197.939C119.488 193.39 117.684 187.818 113.134 185.494C108.585 183.17 103.013 184.974 100.689 189.524Z" fill="#EBBAAA"/>
<path d="M179.624 192.092C184.101 200.029 187.218 212.384 188.425 225.882C189.457 237.431 188.865 248.365 187.353 252.709L187.307 252.839C185.561 257.64 188.038 262.947 192.839 264.693C197.64 266.439 202.947 263.962 204.693 259.161C207.367 251.808 208.114 238.369 206.851 224.236C205.431 208.346 201.707 193.586 195.737 183.002C193.227 178.553 187.585 176.981 183.136 179.49C178.686 182 177.114 187.642 179.624 192.092Z" fill="#EBBAAA"/>
<path d="M108.25 170.875C108.25 165 121.125 159.004 130.125 156.152L141.875 152.254C143.511 152.202 154.754 152.67 156.375 152.894L174.625 159.004C183.273 160.199 196.621 163.938 195.75 172.625L186.387 210.825L187.25 260C187.268 260.453 166.578 263.023 166.125 263L131.75 260.82L113.125 259.982C112.69 259.959 112.464 258.685 112.5 258.25L115.002 206.22L108.25 170.875Z" fill="#EBBAAA"/>
<path d="M193.625 164.875C191.325 162.575 183.75 160.25 180.25 159.375C182.458 188.875 187.075 248.625 187.875 251.625C188.875 255.375 206.5 256.5 208.5 255C210.5 253.5 208.75 224.75 206.5 212.5C205.097 204.862 196.5 167.75 193.625 164.875Z" fill="#C5C8CB"/>
<path d="M208.663 255.654C209.601 255.455 211.754 248.368 212.5 245.594L186.276 240.75C185.957 243.276 185.36 248.748 185.53 250.438C185.743 252.549 190.647 254.412 195.977 255.406C201.307 256.399 207.49 255.903 208.663 255.654Z" fill="#CED2D7"/>
<path d="M107.48 165.496C109.859 163.432 118.474 159.374 121.75 158.5C119.683 187.977 113.611 249.181 112.862 252.178C111.926 255.926 93.8722 257.249 92 255.75C90.1278 254.251 91.532 232.494 92 224.75C92.4681 217.006 98.25 173.5 107.48 165.496Z" fill="#C5C8CB"/>
<path d="M92.1561 256.154C91.0791 255.955 88.6068 248.868 87.75 246.094L117.859 241.25C118.226 243.776 118.911 249.248 118.715 250.938C118.471 253.049 112.84 254.912 106.721 255.906C100.601 256.899 93.5025 256.403 92.1561 256.154Z" fill="#CED2D7"/>
<path d="M156.044 169.945C151.244 172.545 145.544 171.028 143.294 169.945C137.628 179.195 125.994 198.045 124.794 199.445C123.294 201.195 160.294 205.195 164.544 205.195C168.794 205.195 162.044 166.695 156.044 169.945Z" fill="#E3ECF1"/>
<path d="M146.25 175C145 171.375 145.625 166.375 145.625 166.375L140 168.25L133.25 155.125C125.458 156.5 125.125 157 119.5 159.5C112.79 162.482 114.125 172.5 113.125 186.125L111.75 260.75C111.75 260.75 120.75 263.75 127 263.75H142.625L148.125 179.125C148.125 179.125 147.5 178.625 146.25 175Z" fill="#D1D6DB"/>
<path d="M151.043 175C147.793 172.375 148.335 170.292 148.918 168.25L150.043 167.5L158.293 166.5L166.043 156C166.043 156 177.168 157.5 180.918 159.5C184.668 161.5 186.918 183.375 186.918 183.375L188.668 261.25C188.668 261.25 178.043 262.625 170.293 263.875C162.543 265.125 142.543 263.875 142.543 263.875C142.21 237.708 143.802 181.341 147.043 179.625C151.293 177.375 151.793 175.606 151.043 175Z" fill="#D1D6DB"/>
<path d="M187.151 184.25C182.865 187.058 160.246 190.768 149.065 191.771C148.289 195.364 148.25 199.793 148.25 202.676C150.696 205.559 169.914 202.3 187.151 196.91C187.617 193.15 187.617 189.139 187.151 184.25Z" fill="#3A3A3C"/>
<path d="M187.285 196C183.01 198.826 160.216 202.686 149.063 203.695C148.289 207.311 148.25 211.768 148.25 214.669C150.69 217.57 170.556 214.291 187.75 208.867C187.75 203.695 187.518 199.658 187.285 196Z" fill="#866959"/>
<path d="M113.099 184.75C117.385 187.558 140.004 191.268 151.185 192.271C151.961 195.864 152 200.293 152 203.176C149.554 206.059 130.336 202.8 113.099 197.41C112.634 193.65 112.634 189.639 113.099 184.75Z" fill="#3A3A3C"/>
<path d="M112.965 196.5C117.24 199.326 140.034 203.186 151.187 204.195C151.961 207.811 152 212.268 152 215.169C149.56 218.07 129.694 214.791 112.5 209.367C112.5 204.195 112.732 200.158 112.965 196.5Z" fill="#866959"/>
<path d="M152.805 183.568L152.811 183.478L152.814 183.466C152.832 183.403 152.864 183.316 152.911 183.21C153.03 182.938 153.222 182.598 153.482 182.203C154.017 181.395 154.793 180.426 155.792 179.313C156.244 178.809 156.736 178.28 157.279 177.715L157.669 177.311L158.133 176.836C158.412 176.553 158.707 176.256 159.032 175.93L160.969 173.999L161.389 173.575C162.599 172.348 163.09 171.778 163.433 171.092L158.067 168.408C158.088 168.366 158.108 168.329 158.126 168.298L158.172 168.223L158.16 168.239C158.109 168.303 158.031 168.394 157.928 168.509L157.796 168.654L157.617 168.845C157.489 168.98 157.343 169.131 157.175 169.303L156.693 169.79L154.785 171.692L154.112 172.369C153.814 172.67 153.536 172.954 153.263 173.236L153.146 173.357C152.482 174.045 151.88 174.688 151.325 175.307L151.077 175.585L150.835 175.86C148.338 178.716 146.968 180.906 146.825 183.051C146.626 186.04 146.318 249.254 146.318 264H152.318L152.32 262.054C152.342 244.898 152.627 187.501 152.805 183.568Z" fill="#C5C8CB"/>
<path d="M148.125 192.25C148.75 191.875 151.333 191.583 152.75 191.375V203.375C152.75 203.675 149.417 204.25 147.625 204.25C147.25 199.875 147.625 192.55 148.125 192.25Z" fill="#272729"/>
<path d="M147.652 204.125C148.25 204.125 151.348 203.75 152.75 203.25C152.75 207.125 152.527 215.45 152.527 215.75C152.527 216.05 149.167 216.625 147.375 216.625C147 212.25 147.125 205.625 147.652 204.125Z" fill="#514239"/>
<path d="M159.25 159.375C160.11 156.531 159.25 154.5 159 153.25L166 155.875C166 155.875 168.375 158.875 166.875 165.75C165.232 173.282 157.964 176.25 156.25 178.25C155.5 179.125 155.75 168.5 150 167.375C152.625 166.75 157.625 164.75 159.25 159.375Z" fill="#D7E1E9"/>
<path d="M139.263 160.875C137.5 158.375 138.415 154.868 139.263 153L133.125 155.125C133.125 155.125 129.596 161.202 131.504 167.075C133.875 174.375 142.324 177.013 142.25 176.125C141.5 167.075 144.497 167.413 145.75 166.25C143.625 165.75 141.606 164.197 139.263 160.875Z" fill="#D7E1E9"/>
<path d="M205.625 252.75C206.661 252.75 207.5 251.911 207.5 250.875C207.5 249.839 206.661 249 205.625 249C204.589 249 203.75 249.839 203.75 250.875C203.75 251.911 204.589 252.75 205.625 252.75Z" fill="#E2E9F9"/>
<path d="M94.875 252.75C95.9105 252.75 96.75 251.911 96.75 250.875C96.75 249.839 95.9105 249 94.875 249C93.8395 249 93 249.839 93 250.875C93 251.911 93.8395 252.75 94.875 252.75Z" fill="#E2E9F9"/>
<rect x="139.25" y="139.75" width="19.75" height="28.25" rx="9.47775" fill="#EBBAAA"/>
<path d="M184.816 121.384C192.999 121.384 199.633 114.75 199.633 106.567C199.633 98.3842 192.999 91.7505 184.816 91.7505C176.633 91.7505 170 98.3842 170 106.567C170 114.75 176.633 121.384 184.816 121.384Z" fill="#EBBAAA"/>
<path d="M115.066 122.134C106.883 122.134 100.25 115.5 100.25 107.317C100.25 99.1342 106.883 92.5005 115.066 92.5005C123.249 92.5005 129.883 99.1342 129.883 107.317C129.883 115.5 123.249 122.134 115.066 122.134Z" fill="#EBBAAA"/>
<path d="M110.5 78.951C110.5 57.9915 127.491 41.0005 148.451 41.0005C169.739 41.0005 186.863 58.5075 186.392 79.7905L185.544 118.134C185.103 138.07 168.815 154 148.875 154C129.158 154 112.865 138.618 111.733 118.933L110.5 97.5005V78.951Z" fill="#F4D4C9"/>
<path d="M140.565 130.183C145.462 132.904 151.242 132.833 157.479 130.282C158.463 129.88 158.934 128.756 158.532 127.772C158.129 126.788 157.005 126.316 156.021 126.719C150.789 128.859 146.21 128.915 142.435 126.818C141.505 126.302 140.334 126.636 139.817 127.566C139.301 128.495 139.636 129.667 140.565 130.183Z" fill="#C99584"/>
<path d="M108 78.5005C107.747 76.1547 109.741 72.5005 111.375 72.5005C113.07 72.5005 113.66 73.6327 113.5 75.0962L112.25 99.9795C111.375 101.125 111.084 100.75 110.606 100.75C110.107 100.75 109.699 100.41 109.677 99.9795L108 78.5005Z" fill="#272727"/>
<path d="M189.474 75.1245C189.613 73.7182 188.388 72.4795 186.779 72.3965C185.11 72.3105 183.739 73.5007 183.821 74.9645L185.215 99.7637C185.239 100.178 185.617 100.512 186.087 100.536C186.579 100.561 186.999 100.243 187.042 99.8162L189.474 75.1245Z" fill="#272727"/>
<path d="M160.695 88.9967L172.277 89.5869C173.932 89.6712 175.342 88.3982 175.426 86.7435C175.51 85.0888 174.237 83.679 172.582 83.5947L161 83.0044C159.346 82.9201 157.936 84.1932 157.852 85.8479C157.767 87.5026 159.04 88.9123 160.695 88.9967Z" fill="#393939"/>
<path d="M138.082 83.0032L126.496 83.4925C124.84 83.5624 123.555 84.961 123.625 86.6164C123.695 88.2717 125.093 89.557 126.749 89.4871L138.336 88.9979C139.991 88.928 141.276 87.5294 141.206 85.874C141.136 84.2186 139.738 82.9333 138.082 83.0032Z" fill="#393939"/>
<path d="M145.652 104.703C143.87 107.845 142.662 111.13 142.605 113.898C142.517 118.16 145.199 120.875 150.25 120.875V116.625C148.746 116.625 147.846 116.325 147.387 115.86C147.026 115.495 146.835 114.893 146.854 113.985C146.893 112.077 147.885 109.381 149.349 106.798L145.652 104.703Z" fill="#EBBAAA"/>
<path d="M189.875 50.6255C180.871 31.3755 166.833 33.2088 163.75 32.1255V56.7505C170 53.9642 176.15 54.8255 180.25 62.1255C184.35 69.4255 184.583 84.3337 184.875 90.8755C184.875 90.8755 187.625 92.438 188.375 92.3755C189.125 92.313 191 93.1255 191 93.1255C191.125 84.4587 192.775 56.8255 189.875 50.6255Z" fill="#1E1E1E"/>
<path d="M106 66.0005C106 46.35 116 37.7505 133.75 34.1255C133.75 34.1255 136.25 57.7805 126.75 55.5005C117.25 53.2205 114 66.7505 114 66.7505L112.5 90.5005C110.125 87.1672 106 83.3755 106 66.0005Z" fill="#181818"/>
<path d="M178.039 37.8623L172.731 37.5063L183.625 61.0529L187.323 90.6907L191.274 89.4299L191.195 87.2524L192.694 86.7227L191.812 84.2269L194.129 83.4084L192.996 80.1997L194.516 78.8604L193.508 76.0084L194.682 73.6889L193.098 70.9402L193.873 69.6637L192.803 66.6332L194.029 66.1997L191.354 62.5332L192.203 61.0302L190.347 59.6809L190.944 57.4649L188.52 54.5112L188.991 51.9387L186.946 50.0547L186.379 48.4504L184.659 47.053L185.497 45.9547L182.11 43.7428L181.962 41.5893L178.391 39.9435L178.039 37.8623Z" fill="#1E1E1E"/>
<path d="M116.109 51.2988L120.379 50.749L113.124 60.2643L112.742 70.3088L111.219 94.4338L107.965 93.6103L107.921 91.8473L106.684 91.4935L107.273 89.434L105.361 88.887L106.118 86.239L104.824 85.2323L105.497 82.8785L104.434 81.0628L105.578 78.764L104.888 77.771L105.604 75.27L104.591 74.9805L105.811 72.4073L104.888 70.3085L105.811 68.9073L105.361 66.9073L106.118 64.4073L107.956 63.2113L109.516 61.5883L109.894 60.2643L111.215 59.0503L110.483 58.2045L113.111 56.2505L113.124 54.5035L115.927 52.9975L116.109 51.2988Z" fill="#1E1E1E"/>
<path d="M139.5 59.2507C124.5 58.0007 121.417 51.834 121 50.0007C121 46.0007 122.4 40.2507 127 36.2507C132.75 31.2507 149.75 29.2507 160.25 29.5007C170.75 29.7507 178.75 41.7507 177.75 47.2507C176.75 52.7507 174.5 54.7507 164 57.7507C153.5 60.7507 147.661 59.9307 139.5 59.2507Z" fill="#343333"/>
<path d="M123.835 35.939L122.162 44.2443L147.697 38.8399L177.332 48.05L177.1 41.0899L174.971 40.1057L174.833 37.4381L172.195 37.5744L171.982 33.4517L168.59 33.627L167.673 30.5133L164.658 30.669L162.705 27.6089L159.646 28.7395L158.604 26.8481L155.4 27.0136L155.287 24.8311L151.066 27.2375L149.823 25.1134L148.051 27.3933L146.054 25.3081L142.586 27.6756L140.212 25.6098L137.875 27.919L136.179 28.0066L134.395 30.044L133.541 28.1429L130.551 32.431L128.428 31.5681L125.939 36.4382L123.835 35.939Z" fill="#343333"/>
<path d="M165.499 99.875H162.499C160.842 99.875 159.499 101.218 159.499 102.875C159.499 104.532 160.842 105.875 162.499 105.875H165.499C167.156 105.875 168.499 104.532 168.499 102.875C168.499 101.218 167.156 99.875 165.499 99.875Z" fill="black"/>
<path d="M135.655 99.9253L132.659 99.7683C131.004 99.6816 129.593 100.953 129.506 102.607C129.419 104.262 130.69 105.673 132.345 105.76L135.341 105.917C136.995 106.004 138.407 104.733 138.494 103.078C138.58 101.424 137.309 100.012 135.655 99.9253Z" fill="black"/>
<path d="M144.341 101.339L143.752 106.922C143.67 107.704 143.304 108.429 142.574 108.755C141.216 109.36 138.239 110.253 131.986 110.745C124.853 111.307 120.57 109.231 118.682 107.976C117.902 107.457 117.536 106.555 117.536 105.604L117.535 99.699C117.535 99.2372 117.425 98.7792 117.434 98.3172C117.458 97.0787 118.566 94.624 127.125 95.0002C134.612 95.3295 139.809 96.9585 142.487 98.0335C143.803 98.5617 144.492 99.9087 144.341 101.339Z" fill="white" fill-opacity="0.3"/>
<path d="M152.03 101.339L152.619 106.922C152.702 107.704 153.067 108.429 153.798 108.755C155.155 109.36 158.132 110.253 164.386 110.745C171.518 111.307 175.802 109.231 177.69 107.976C178.47 107.457 178.836 106.555 178.836 105.604L178.836 99.699C178.836 99.2372 178.947 98.7792 178.938 98.3172C178.914 97.0787 177.806 94.624 169.247 95.0002C161.759 95.3295 156.562 96.9585 153.884 98.0335C152.568 98.5617 151.879 99.9087 152.03 101.339Z" fill="white" fill-opacity="0.3"/>
<path d="M145.243 103.867L145.644 100.307C145.775 99.1359 145.295 98.0222 144.291 97.4535C142.086 96.2032 138.55 95.1353 133.37 94.5075C127.897 93.8441 122.907 94.4906 118.761 95.8144C117.335 96.2696 116.453 97.6487 116.548 99.1581L116.813 103.318L118.809 103.191L118.544 99.0312C118.505 98.4136 118.841 97.8881 119.369 97.7196C123.259 96.4774 127.969 95.8674 133.129 96.493C138.061 97.0907 141.346 98.0827 143.305 99.1934C143.564 99.3401 143.704 99.6639 143.656 100.083L143.256 103.643L145.243 103.867Z" fill="#5E381C"/>
<path d="M115.5 97.3755L118.25 96.0005L118 99.7505L115.5 99.5005V97.3755Z" fill="#5D381C"/>
<path d="M181.25 96.8755L178.5 95.5005L178.75 99.2505L181.25 99.0005V96.8755Z" fill="#5D381C"/>
<path d="M153.339 103.626L152.819 100.257C152.737 99.727 152.951 99.2727 153.35 99.0821C155.78 97.9198 159.393 96.8866 164.378 96.2421C169.601 95.5666 174.081 96.1398 177.612 97.3582C178.092 97.5238 178.395 98.0123 178.362 98.5968L178.119 102.973L180.116 103.084L180.359 98.7079C180.44 97.2588 179.619 95.935 178.264 95.4676C174.456 94.1535 169.669 93.5411 164.121 94.2586L163.639 94.3228C158.694 94.998 155.032 96.0606 152.487 97.2777C151.257 97.8658 150.632 99.1942 150.843 100.562L151.362 103.931L153.339 103.626Z" fill="#5E381C"/>
<path d="M144.68 101.528C147.033 100.408 149.217 100.408 151.57 101.528L152.43 99.7225C149.533 98.3431 146.717 98.3432 143.82 99.7225L144.68 101.528Z" fill="#5E381C"/>
</svg>
