<svg width="300" height="400" viewBox="0 0 300 400" fill="none" xmlns="http://www.w3.org/2000/svg">
<path d="M116.501 255.5L146.751 258.396V354.25H124.839L116.501 255.5Z" fill="#333945"/>
<path d="M151.101 274.866C167.2 274.866 180.251 268.684 180.251 261.058C180.251 253.432 167.2 247.25 151.101 247.25C135.002 247.25 121.951 253.432 121.951 261.058C121.951 268.684 135.002 274.866 151.101 274.866Z" fill="#333945"/>
<path d="M153.501 258.5H184.501V354.25H162.046L153.501 258.5Z" fill="#333945"/>
<path d="M121.751 341.5H146.751V356.5H124.29L121.751 341.5Z" fill="#3E485E"/>
<path d="M185.751 342.145L159.251 341.5L160.537 354.25H185.017L185.751 342.145Z" fill="#3E485E"/>
<path d="M104.001 370.01C104.001 359.642 112.406 351.237 122.774 351.237H146.889C147.049 351.237 147.178 351.367 147.178 351.527V368.835C147.178 370.252 146.029 371.402 144.611 371.402H105.391C104.623 371.402 104.001 370.78 104.001 370.01Z" fill="#CEB56F"/>
<mask id="mask0_0_10141" style="mask-type:luminance" maskUnits="userSpaceOnUse" x="104" y="351" width="44" height="21">
<path fill-rule="evenodd" clip-rule="evenodd" d="M104.001 370.01C104.001 359.642 112.406 351.237 122.774 351.237H147.178V368.835C147.178 370.252 146.029 371.402 144.611 371.402H105.391C104.623 371.402 104.001 370.78 104.001 370.01Z" fill="white"/>
</mask>
<g mask="url(#mask0_0_10141)">
<path d="M109.009 358.677C105.771 356.847 107.041 360.475 104.132 362.015L97.9724 373.82H146.993C148.191 372.11 152.107 366.06 148.662 364.837C140.705 362.015 131.594 367.532 126.974 367.275C122.355 367.02 109.13 368.942 109.907 364.837C110.805 360.09 111.96 360.347 109.009 358.677Z" fill="#B69F62"/>
<path d="M143.591 367.829C147.863 365.837 150.372 362.177 149.195 359.653C148.019 357.13 143.601 356.699 139.329 358.691C135.057 360.683 132.548 364.344 133.725 366.867C134.902 369.391 139.319 369.821 143.591 367.829Z" fill="#B69F62"/>
</g>
<path d="M117.817 351.522C117.14 351.33 116.581 352.072 116.953 352.669L118.787 355.619L112.97 353.711C112.266 353.48 111.674 354.279 112.1 354.885L115.437 359.635C115.681 359.983 116.161 360.067 116.509 359.823C116.857 359.578 116.941 359.098 116.697 358.75L114.692 355.896L120.318 357.742C121.002 357.966 121.592 357.214 121.212 356.604L119.311 353.545L125.097 355.183C125.588 355.323 126.076 354.953 126.076 354.443C126.076 353.264 125.355 352.336 124.034 351.329L123.877 351.211L123.521 350.955C123.179 350.711 122.774 350.426 122.689 350.362C122.348 350.106 121.866 350.175 121.611 350.516C121.355 350.856 121.424 351.338 121.765 351.593L121.915 351.702L122.692 352.255C122.811 352.34 122.916 352.415 122.987 352.468L123.019 352.492C123.338 352.731 123.606 352.957 123.824 353.172L123.895 353.243L117.817 351.522Z" fill="#EED99F"/>
<path fill-rule="evenodd" clip-rule="evenodd" d="M124.297 349.317L124.282 348.406L124.279 347.94C124.241 345.703 122.763 344.05 120.815 344.05C119.855 344.05 119.072 344.45 118.531 345.186C118.012 345.893 117.735 346.885 117.735 348.027C117.735 349.078 118.361 350.025 119.429 350.736C120.376 351.366 121.591 351.745 122.611 351.745C123.1 351.745 123.459 351.657 123.714 351.478C123.942 351.33 124.099 351.082 124.19 350.737C124.261 350.462 124.292 350.13 124.297 349.666L124.297 349.317ZM122.757 349.708C122.753 349.92 122.743 350.082 122.727 350.202L122.633 350.205L122.518 350.203C121.82 350.18 120.95 349.898 120.282 349.454C119.608 349.005 119.275 348.501 119.275 348.027C119.275 347.193 119.463 346.519 119.772 346.098C120.024 345.755 120.347 345.59 120.815 345.59C121.89 345.59 122.74 346.556 122.74 348.027L122.742 348.339L122.757 349.311L122.758 349.56L122.757 349.708Z" fill="#EED99F"/>
<path fill-rule="evenodd" clip-rule="evenodd" d="M124.538 348.957L124.326 349.419L124.092 349.923L124.032 350.057L123.965 350.212C123.851 350.484 123.785 350.688 123.756 350.877C123.74 350.974 123.735 351.063 123.741 351.147L123.75 351.229L123.77 351.318L123.78 351.353L123.789 351.379C123.797 351.4 123.809 351.423 123.833 351.469L123.832 351.47L123.846 351.498L123.865 351.529L123.869 351.534C123.885 351.558 123.901 351.582 123.92 351.605L123.948 351.638C123.967 351.661 123.984 351.679 124.003 351.696C124.131 351.82 124.305 351.927 124.526 352.026C125.216 352.336 126.155 352.45 126.988 352.312C127.926 352.159 128.633 351.713 128.946 351.008C129.286 350.244 129.394 349.495 129.253 348.864C129.106 348.207 128.695 347.703 128.043 347.412C126.726 346.826 125.235 347.478 124.538 348.957ZM125.071 350.58L125.046 350.565C125.062 350.577 125.079 350.592 125.097 350.611L125.159 350.695L125.189 350.751L124.513 350.343L124.716 350.397C124.928 350.457 124.994 350.489 125.071 350.58ZM125.526 350.488L125.424 350.717C125.814 350.829 126.306 350.864 126.738 350.793C127.207 350.716 127.461 350.556 127.539 350.381C127.753 349.901 127.813 349.483 127.75 349.201C127.709 349.017 127.621 348.91 127.416 348.819C126.893 348.586 126.26 348.87 125.91 349.658L125.843 349.807L125.526 350.488Z" fill="#EED99F"/>
<path d="M203.004 370.01C203.004 359.642 194.598 351.237 184.23 351.237H160.115C159.956 351.237 159.826 351.367 159.826 351.527V368.835C159.826 370.252 160.976 371.402 162.393 371.402H201.613C202.381 371.402 203.004 370.78 203.004 370.01Z" fill="#CEB56F"/>
<mask id="mask1_0_10141" style="mask-type:luminance" maskUnits="userSpaceOnUse" x="159" y="351" width="45" height="21">
<path fill-rule="evenodd" clip-rule="evenodd" d="M203.004 370.01C203.004 359.642 194.598 351.237 184.23 351.237H159.826V368.835C159.826 370.252 160.976 371.402 162.393 371.402H201.613C202.381 371.402 203.004 370.78 203.004 370.01Z" fill="white"/>
</mask>
<g mask="url(#mask1_0_10141)">
<path d="M197.996 358.677C201.233 356.847 199.963 360.475 202.872 362.015L209.032 373.82H160.011C158.813 372.11 154.897 366.06 158.343 364.837C166.299 362.015 175.41 367.532 180.03 367.275C184.65 367.02 197.874 368.942 197.097 364.837C196.199 360.09 195.044 360.347 197.996 358.677Z" fill="#B69F62"/>
<path d="M163.414 367.829C159.142 365.837 156.633 362.177 157.809 359.653C158.986 357.13 163.403 356.699 167.675 358.691C171.947 360.683 174.456 364.344 173.28 366.867C172.103 369.391 167.686 369.821 163.414 367.829Z" fill="#B69F62"/>
</g>
<path d="M185.792 356.604C185.413 357.214 186.003 357.966 186.686 357.742L192.312 355.896L190.308 358.75C190.063 359.098 190.147 359.578 190.495 359.823C190.843 360.067 191.323 359.983 191.568 359.635L194.904 354.885C195.33 354.279 194.738 353.48 194.034 353.711L188.218 355.619L190.052 352.669C190.423 352.072 189.865 351.33 189.188 351.522L183.109 353.243C183.316 353.031 183.573 352.807 183.881 352.571L183.985 352.492C184.228 352.309 185.084 351.71 185.24 351.594C185.58 351.338 185.649 350.856 185.394 350.516C185.148 350.188 184.692 350.112 184.354 350.335L183.959 350.616L183.284 351.097C183.193 351.162 183.116 351.219 183.061 351.26L182.881 351.397C181.617 352.378 180.928 353.29 180.928 354.443C180.928 354.953 181.416 355.323 181.908 355.183L187.694 353.545L185.792 356.604Z" fill="#EED99F"/>
<path fill-rule="evenodd" clip-rule="evenodd" d="M187.576 350.736C186.629 351.366 185.413 351.745 184.393 351.745C183.911 351.745 183.555 351.659 183.3 351.485L183.253 351.452C183.038 351.29 182.898 351.055 182.814 350.736C182.738 350.442 182.708 350.081 182.706 349.564L182.707 349.34L182.722 348.415L182.726 347.94C182.763 345.703 184.242 344.05 186.19 344.05C187.15 344.05 187.932 344.45 188.474 345.187C188.992 345.893 189.27 346.886 189.27 348.027C189.27 349.078 188.643 350.025 187.576 350.736ZM184.247 349.328L184.247 349.643C184.249 349.887 184.26 350.07 184.278 350.202L184.352 350.205L184.393 350.205C185.105 350.205 186.025 349.918 186.722 349.454C187.396 349.005 187.73 348.501 187.73 348.027C187.73 347.193 187.541 346.519 187.233 346.098C186.98 345.755 186.657 345.59 186.19 345.59C185.114 345.59 184.265 346.556 184.265 348.027L184.265 348.122L184.263 348.311L184.247 349.328Z" fill="#EED99F"/>
<path fill-rule="evenodd" clip-rule="evenodd" d="M182.912 349.92L182.53 349.096L182.467 348.957C181.77 347.477 180.278 346.826 178.962 347.411C178.31 347.702 177.899 348.206 177.751 348.864C177.61 349.495 177.718 350.244 178.059 351.008C178.372 351.712 179.078 352.158 180.017 352.312C180.849 352.449 181.788 352.335 182.481 352.025C182.746 351.906 182.945 351.774 183.077 351.614L183.123 351.555C183.13 351.544 183.136 351.534 183.144 351.522L183.168 351.48L183.173 351.47L183.18 351.457L183.179 351.456L183.218 351.369C183.227 351.346 183.231 351.332 183.238 351.304L183.238 351.304L183.255 351.222L183.263 351.158C183.27 351.077 183.265 350.981 183.249 350.876C183.216 350.671 183.14 350.445 183.007 350.136L182.912 349.92ZM179.254 349.201C179.295 349.018 179.383 348.911 179.589 348.819C180.097 348.593 180.708 348.855 181.063 349.592L181.176 349.84L181.487 350.509L181.58 350.718L181.495 350.74C181.12 350.834 180.667 350.86 180.267 350.793C179.797 350.717 179.542 350.556 179.466 350.383C179.251 349.902 179.191 349.484 179.254 349.201Z" fill="#EED99F"/>
<path d="M147.501 170.75C162.827 170.75 175.251 165.322 175.251 158.625C175.251 151.929 162.827 146.5 147.501 146.5C132.175 146.5 119.751 151.929 119.751 158.625C119.751 165.322 132.175 170.75 147.501 170.75Z" fill="#B9A28D"/>
<path d="M119.751 258.17C119.751 260.741 121.702 262.894 124.261 263.146L147.369 265.42C149.606 265.64 151.858 265.65 154.096 265.449L180.064 263.122C182.697 262.886 184.692 260.641 184.616 257.998L181.851 161.857C181.773 159.153 179.559 157.001 176.853 157.001H124.751C121.99 157.001 119.751 159.239 119.751 162.001V258.17Z" fill="#2C2C2C"/>
<path d="M148.751 173.751C156.621 173.751 163.001 167.259 163.001 159.251C163.001 151.243 156.621 144.751 148.751 144.751C140.881 144.751 134.501 151.243 134.501 159.251C134.501 167.259 140.881 173.751 148.751 173.751Z" fill="#504E4E"/>
<path d="M138.542 185.643L116.839 225.5C116.839 225.5 93.573 221.299 86.2515 214.5C86.2515 214.5 91.491 193.5 95.2515 179.75C97.5731 171.261 105.257 163.764 110.796 159.27C114.639 156.152 119.346 154.42 124.222 153.577L129.001 152.75L138.542 185.643Z" fill="#AE9A87"/>
<path d="M86.0658 221.028C83.5215 216.805 85.9922 211.245 90.8605 210.464L107.364 207.814C109.152 207.527 110.551 209.331 109.828 210.991C109.518 211.701 109.589 212.518 110.014 213.165L123.275 233.33C125.209 236.27 123.745 240.243 120.366 241.225L105.772 245.469C103.819 246.037 101.716 245.422 100.446 243.834C98.0399 240.827 94.0947 235.578 91.3209 230.275C89.739 227.251 87.8341 223.964 86.0658 221.028Z" fill="#AE9A87"/>
<path d="M99.8864 205.969L109.643 212.087L98.0204 210.365L99.8864 205.969Z" fill="#8F7964"/>
<path d="M93.6338 214.59L109.997 213.424L95.0016 219.125L93.6338 214.59Z" fill="#8F7964"/>
<path d="M112.166 167.51C112.735 158.88 119.901 152.172 128.549 152.172C130.077 152.172 131.501 152.949 132.329 154.234L144.251 172.75C144.251 172.75 141.157 201.331 141.157 216.236C141.157 228.589 138.642 258.188 137.781 267.958C137.635 269.613 136.003 270.687 134.415 270.198L110.559 262.845C110.355 262.782 110.162 262.697 109.986 262.575C108.448 261.514 100.751 255.552 100.751 242.5C108.751 228.75 108.751 219.25 108.751 219.25L112.166 167.51Z" fill="#C4B2A1"/>
<path d="M146.188 178.706L142.814 178.296L142.635 179.782L142.458 181.266C140.91 194.371 139.666 207.318 138.498 221.72L138.28 224.45C137.767 231.019 136.26 251.219 135.837 256.129L135.725 257.386L135.606 258.682C135.1 264.09 134.623 267.737 134.092 270.133L137.41 270.869L137.454 270.671L137.518 270.367C138.113 267.474 138.628 263.193 139.19 256.807L139.268 255.9C139.777 249.82 141.368 228.451 141.755 223.628L141.886 221.995L142.021 220.347C143.235 205.565 144.54 192.282 146.188 178.706Z" fill="#AE9A87"/>
<path d="M138.251 161C134.751 152.5 127.751 150.5 127.751 150.5L115.001 164.5L132.001 177.5C132.001 177.5 141.751 169.5 138.251 161Z" fill="#B9A28D"/>
<path d="M138.251 222C139.632 222 140.751 220.881 140.751 219.5C140.751 218.12 139.632 217 138.251 217C136.87 217 135.751 218.12 135.751 219.5C135.751 220.881 136.87 222 138.251 222Z" fill="#453E37"/>
<path d="M136.251 241.25C137.632 241.25 138.751 240.131 138.751 238.75C138.751 237.37 137.632 236.25 136.251 236.25C134.87 236.25 133.751 237.37 133.751 238.75C133.751 240.131 134.87 241.25 136.251 241.25Z" fill="#453E37"/>
<path d="M134.501 260.5C135.882 260.5 137.001 259.381 137.001 258C137.001 256.62 135.882 255.5 134.501 255.5C133.12 255.5 132.001 256.62 132.001 258C132.001 259.381 133.12 260.5 134.501 260.5Z" fill="#453E37"/>
<path d="M125.001 173C126.374 170.712 135.084 164.167 137.501 160.75C139.668 163.084 144.351 168.55 145.751 171.75C147.501 175.75 144.752 209 140.751 236.25C139.001 213.75 129.751 180.75 125.001 173Z" fill="#D6C2AE"/>
<path d="M161.248 185.643L182.951 225.5C182.951 225.5 206.216 221.299 213.538 214.5C213.538 214.5 208.298 193.5 204.538 179.75C202.216 171.261 194.533 163.764 188.993 159.27C185.15 156.152 180.443 154.42 175.567 153.577L170.788 152.75L161.248 185.643Z" fill="#AE9A87"/>
<path d="M213.723 221.028C216.268 216.805 213.797 211.245 208.929 210.464L192.425 207.814C190.637 207.527 189.238 209.331 189.962 210.991C190.271 211.701 190.201 212.518 189.776 213.165L176.514 233.33C174.58 236.27 176.044 240.243 179.423 241.225L194.018 245.469C195.97 246.037 198.073 245.422 199.343 243.834C201.749 240.827 205.695 235.578 208.468 230.275C210.05 227.251 211.955 223.964 213.723 221.028Z" fill="#AE9A87"/>
<path d="M199.903 205.969L190.147 212.087L201.769 210.365L199.903 205.969Z" fill="#8F7964"/>
<path d="M206.156 214.59L189.792 213.424L204.788 219.125L206.156 214.59Z" fill="#8F7964"/>
<path d="M187.624 167.51C187.054 158.88 179.889 152.172 171.24 152.172C169.712 152.172 168.288 152.949 167.461 154.234L155.538 172.75C155.538 172.75 158.633 201.331 158.633 216.236C158.633 228.589 161.148 258.188 162.008 267.958C162.154 269.613 163.786 270.687 165.374 270.198L189.23 262.845C189.435 262.782 189.627 262.697 189.804 262.575C191.341 261.514 199.038 255.552 199.038 242.5C191.038 228.75 191.038 219.25 191.038 219.25L187.624 167.51Z" fill="#C4B2A1"/>
<path d="M156.975 178.296L153.601 178.706L153.779 180.186C155.374 193.506 156.648 206.605 157.837 221.184L158.088 224.303C158.565 230.371 160.131 251.38 160.566 256.424L160.679 257.705L160.781 258.814C161.307 264.46 161.803 268.273 162.379 270.869L165.697 270.133L165.637 269.854L165.597 269.659C165.051 267.001 164.559 262.957 164.025 256.952L163.924 255.792L163.766 253.864C163.153 246.219 161.779 227.808 161.423 223.356L161.225 220.906L161.022 218.439C159.842 204.265 158.568 191.42 156.975 178.296Z" fill="#AE9A87"/>
<path d="M161.538 161C165.038 152.5 172.038 150.5 172.038 150.5L184.788 164.5L167.788 177.5C167.788 177.5 158.038 169.5 161.538 161Z" fill="#B9A28D"/>
<path d="M174.788 173C173.415 170.712 164.705 164.167 162.288 160.75C160.122 163.084 155.438 168.55 154.038 171.75C152.288 175.75 155.038 209 159.038 236.25C160.788 213.75 170.038 180.75 174.788 173Z" fill="#D6C2AE"/>
<rect x="139.911" y="140.009" width="19.2142" height="28.8213" rx="9.60707" fill="#EBBAAA"/>
<path d="M111.518 117.727C119.536 117.727 126.035 111.562 126.035 103.957C126.035 96.3516 119.536 90.1865 111.518 90.1865C103.5 90.1865 97.0007 96.3516 97.0007 103.957C97.0007 111.562 103.5 117.727 111.518 117.727Z" fill="#EBBAAA"/>
<path d="M188.018 118.794C196.036 118.794 202.535 112.629 202.535 105.024C202.535 97.419 196.036 91.2539 188.018 91.2539C180 91.2539 173.501 97.419 173.501 105.024C173.501 112.629 180 118.794 188.018 118.794Z" fill="#EBBAAA"/>
<path d="M106.953 80.8932C106.001 56.803 125.274 36.7544 149.382 36.7544C173.549 36.7544 192.844 56.8957 191.806 81.0402L190.404 113.653C189.459 135.654 171.347 153.004 149.326 153.004C127.249 153.004 109.113 135.57 108.241 113.511L106.953 80.8932Z" fill="#EED4CC"/>
<path d="M136.438 127.717C137.993 128.719 139.331 129.419 141.098 130.031C143.47 130.851 146.169 131.299 149.301 131.299C152.473 131.299 155.305 130.788 157.781 129.89C159.588 129.236 161.059 128.429 162.114 127.638C162.981 126.988 163.156 125.759 162.506 124.892C161.856 124.026 160.627 123.85 159.761 124.5C159.009 125.064 157.88 125.683 156.445 126.203C154.392 126.947 152.011 127.376 149.301 127.376C146.603 127.376 144.337 127.001 142.38 126.324C140.953 125.83 139.876 125.266 138.563 124.42C137.653 123.834 136.439 124.096 135.853 125.006C135.266 125.917 135.528 127.13 136.438 127.717Z" fill="#C99584"/>
<path d="M139.189 82.5254L123.784 81.0321C123.606 81.0149 123.433 81.0931 123.329 81.2376L120.255 85.5094C120.022 85.8334 120.244 86.2869 120.643 86.3011L139.31 86.9634C139.917 86.9851 140.403 86.4649 140.341 85.8609L140.087 83.4174C140.038 82.9444 139.662 82.5714 139.189 82.5254Z" fill="#38332F"/>
<path d="M157.73 82.5254L173.135 81.0321C173.312 81.0149 173.485 81.0931 173.589 81.2376L176.663 85.5094C176.897 85.8334 176.674 86.2869 176.275 86.3011L157.608 86.9634C157.001 86.9851 156.515 86.4649 156.578 85.8609L156.832 83.4174C156.881 82.9444 157.257 82.5714 157.73 82.5254Z" fill="#38332F"/>
<path d="M132.975 97.1807L133.08 100.539" stroke="black" stroke-width="6" stroke-linecap="round"/>
<path d="M166.038 97.1782L165.962 100.538" stroke="black" stroke-width="6" stroke-linecap="round"/>
<rect x="104.459" y="69.5044" width="5.75" height="34.5" rx="2.875" fill="#33210D"/>
<rect x="187.959" y="74.2544" width="5.75" height="30.5" rx="2.875" fill="#553A1C"/>
<path d="M150.356 101.539L146.146 100.961L146.126 101.103L146.114 101.165C146.072 101.358 145.961 101.608 145.468 102.548L144.093 105.14C143.59 106.086 143.204 106.856 142.865 107.611C141.541 110.561 141.106 112.913 142 115.004C143.131 117.648 146.035 118.879 150.584 118.879V114.629L150.328 114.628C147.474 114.597 146.213 114.046 145.908 113.334C145.617 112.653 145.867 111.302 146.742 109.352L146.848 109.119L146.959 108.882C147.186 108.402 147.448 107.887 147.765 107.288L148.004 106.838L148.793 105.377L148.971 105.042C149.082 104.831 149.18 104.642 149.272 104.461L149.355 104.297L149.482 104.04C149.972 103.034 150.256 102.27 150.356 101.539Z" fill="#EBBAAA"/>
<path d="M144.016 98.3502C145.453 98.1967 149.154 97.982 152.469 98.3502" stroke="black" stroke-width="3.75"/>
<path d="M117.972 96.6572C117.75 94.5817 119.201 92.7477 121.212 92.5312C124.28 92.2012 128.251 91.8942 131.605 92.0209C134.855 92.1434 138.667 92.7334 141.676 93.2969C143.749 93.6852 145.022 95.7777 144.441 97.8917L142.52 104.883C142.053 106.581 140.504 107.764 138.745 107.764H131.674C129.372 107.764 125.234 107.401 122.086 107.086C120.313 106.908 118.917 105.509 118.725 103.716L117.972 96.6572Z" fill="white" fill-opacity="0.29"/>
<path d="M178.646 96.6572C178.868 94.5817 177.417 92.7477 175.406 92.5312C172.338 92.2012 168.367 91.8942 165.013 92.0209C161.764 92.1434 157.951 92.7334 154.942 93.2969C152.869 93.6852 151.596 95.7777 152.177 97.8917L154.098 104.883C154.565 106.581 156.114 107.764 157.873 107.764H164.944C167.246 107.764 171.384 107.401 174.532 107.086C176.305 106.908 177.701 105.509 177.893 103.716L178.646 96.6572Z" fill="white" fill-opacity="0.29"/>
<path fill-rule="evenodd" clip-rule="evenodd" d="M116.72 96.703L116.729 96.7898L117.482 103.849C117.736 106.227 119.597 108.092 121.961 108.329L123.179 108.449C126.633 108.78 129.509 108.99 131.363 109.012L131.573 109.014L138.745 109.014C141.067 109.014 143.109 107.455 143.725 105.214L145.646 98.2229C146.417 95.4175 144.712 92.5938 141.906 92.0683C138.107 91.3568 134.573 90.8819 131.652 90.7718C128.808 90.6643 125.375 90.8459 121.68 91.2251L121.078 91.2883C118.399 91.5767 116.476 93.9872 116.72 96.703ZM122.211 105.842C121.028 105.723 120.097 104.79 119.968 103.583L119.215 96.5244C119.066 95.1325 120.023 93.9163 121.346 93.7739C125.16 93.3638 128.704 93.1621 131.558 93.27C134.333 93.3746 137.757 93.8348 141.446 94.5255C142.797 94.7784 143.624 96.1483 143.236 97.5605L141.314 104.551C140.997 105.708 139.941 106.514 138.745 106.514L131.578 106.514C129.768 106.506 126.704 106.281 123.011 105.921L122.211 105.842Z" fill="black"/>
<path fill-rule="evenodd" clip-rule="evenodd" d="M175.54 91.2883C178.247 91.5798 180.183 94.0388 179.889 96.7898L179.136 103.849C178.882 106.227 177.021 108.092 174.656 108.329C170.456 108.75 166.979 109.014 164.944 109.014H157.873C155.551 109.014 153.509 107.455 152.893 105.214L150.972 98.2229C150.201 95.4176 151.906 92.5938 154.712 92.0683C158.511 91.3569 162.045 90.8819 164.966 90.7718C167.652 90.6703 170.863 90.8266 174.325 91.1638L174.938 91.2251L175.54 91.2883ZM174.407 105.842C175.59 105.723 176.521 104.79 176.65 103.583L177.403 96.5244L177.41 96.4538C177.519 95.0916 176.572 93.9139 175.272 93.7739C171.458 93.3637 167.914 93.1621 165.06 93.27C162.285 93.3746 158.861 93.8348 155.172 94.5255C153.821 94.7784 152.994 96.1482 153.383 97.5604L155.304 104.551C155.621 105.708 156.677 106.514 157.873 106.514L165.039 106.514C166.688 106.507 169.377 106.319 172.633 106.014L173.606 105.921L174.407 105.842Z" fill="black"/>
<path d="M117.459 54.5587C109.959 59.776 112.126 67.8087 109.959 74.5587C109.959 82.8057 107.116 93.0012 103.959 93.3087C101.135 93.5837 101.823 84.9862 100.251 77.0542C94.7508 49.3086 112.75 34.3086 135.75 34.3086C143.29 34.3086 170.959 27.3087 170.959 49.3086C159.709 55.5585 126.209 48.4717 117.459 54.5587Z" fill="#33210D"/>
<path d="M135.897 53.4608C157.122 53.4608 178.117 58.5858 182.367 63.5858C184.536 74.3457 183.152 92.9607 195.397 92.9607C200.897 92.9607 199.935 68.1895 199.397 63.5858C195.636 31.3667 159.303 24.1485 137.647 30.7108C124.397 34.7259 114.673 53.4608 135.897 53.4608Z" fill="#553A1C"/>
<path d="M192.251 50.2502C196.626 44.043 180.569 45.2004 182.949 45.7428C166.861 43.3505 182.333 25.7559 170.501 39.2502C160.883 50.2194 167.405 57.8317 161.595 63.0752C167.923 66.2494 174.396 65.4922 177.827 64.5407C190.113 61.1334 186.851 57.9107 192.251 50.2502Z" fill="#553A1C"/>
<path d="M130.505 39.0777C134.947 33.0949 139.251 35.2503 147.501 39.0778C161.001 45.341 155.148 52.6203 151.251 54.7503C139.971 60.9158 134.207 66.7803 131.662 72.8823C125.661 70.132 123.476 65.5638 122.861 62.9003C120.66 53.3643 125.387 45.9707 130.505 39.0777Z" fill="#553A1C"/>
<path d="M144.501 45.6627C138.191 56.0768 130.515 66.1448 125.251 62.2725C141.545 75.4043 153.508 70.241 168.8 50.0385C179.397 56.7502 186.979 56.1562 191.575 57.6712C196.171 59.1865 193.22 46.4262 177.037 35.3325C167.261 24.4736 151.77 33.6644 144.501 45.6627Z" fill="#553A1C"/>
<path d="M123.042 73.5938C113.842 72.7938 107.264 68.0938 109.042 60.0938C112.042 46.5938 126.042 43.5938 133.542 47.0938C141.042 50.5938 138.792 60.3438 128.792 63.8438C123.792 65.5938 120.292 67.5938 123.042 73.5938Z" fill="#553A1C"/>
<path d="M132.042 29.25C122.842 30.05 116.264 34.75 118.042 42.75C121.042 56.25 135.042 59.25 142.542 55.75C150.042 52.25 147.792 42.5 137.792 39C132.792 37.25 129.292 35.25 132.042 29.25Z" fill="#553A1C"/>
<path d="M181.491 30.459C189.647 34.7901 187.046 48.2976 184.813 51.424C176.777 62.6782 168.195 53.3322 162.659 47.18C157.123 41.0277 163.003 32.9319 173.576 33.6175C178.862 33.9602 181.678 37.0565 181.491 30.459Z" fill="#553A1C"/>
<path d="M178.928 70.7343C188.128 69.9343 194.344 62.1508 194.678 57.9843C191.678 44.4841 175.928 40.7341 168.428 44.2341C160.928 47.7341 165.678 56.9843 175.678 60.4843C180.678 62.2343 181.678 64.7343 178.928 70.7343Z" fill="#553A1C"/>
</svg>
