<svg width="300" height="400" viewBox="0 0 300 400" fill="none" xmlns="http://www.w3.org/2000/svg">
<path d="M145.536 275.98C161.482 275.98 174.409 269.857 174.409 262.303C174.409 254.75 161.482 248.627 145.536 248.627C129.591 248.627 116.664 254.75 116.664 262.303C116.664 269.857 129.591 275.98 145.536 275.98Z" fill="#445A73"/>
<path d="M166.832 314.73V356.732" stroke="#EBBAAA" stroke-width="13.5" stroke-linecap="round" stroke-linejoin="bevel"/>
<path d="M132.818 314.73L137 353" stroke="#EBBAAA" stroke-width="13.5" stroke-linecap="round" stroke-linejoin="bevel"/>
<path d="M143.5 349.5C136.1 351 131.167 350.125 129.875 349.5L130.625 357.875L138.5 361.625L144.5 356.625C144.25 354.5 143.75 352 143.5 349.5Z" fill="#91979C"/>
<path d="M160 349.75C167.4 351.25 172.333 350.375 173.625 349.75V358.125L165.75 361.875L159.75 356.875C160 354.75 159.75 352.25 160 349.75Z" fill="#91979C"/>
<path d="M101.75 367.5C101.75 359.825 106.681 358.887 114.719 356.257C118.656 354.97 122.673 353.847 126.75 353.172C129.312 352.747 130 355 134.5 355C138.513 355 143.519 353.012 144.556 352.582C144.686 352.527 144.84 352.48 144.944 352.575C144.969 352.597 144.99 352.627 145.005 352.657C145.485 353.642 148 359.012 148 363.31C148 366.597 148.281 369.83 147.375 371.5C146.966 372.252 144.412 372.665 143.555 372.665H103.141C102.373 372.665 101.75 368.267 101.75 367.5Z" fill="#4E4B48"/>
<mask id="mask0_0_10672" style="mask-type:luminance" maskUnits="userSpaceOnUse" x="101" y="351" width="48" height="22">
<path fill-rule="evenodd" clip-rule="evenodd" d="M101.75 367.5C101.75 363.557 103.052 361.392 105.407 359.863C116.615 352.588 131.147 352.245 144.5 351.75C144.609 351.75 144.958 352.56 145.006 352.658C145.485 353.643 148 359.013 148 363.31C148 366.597 148.282 369.83 147.375 371.5C146.966 372.253 144.412 372.665 143.555 372.665H103.141C102.373 372.665 101.75 368.267 101.75 367.5Z" fill="white"/>
</mask>
<g mask="url(#mask0_0_10672)">
<path d="M107.625 362.25C103.75 362.25 102.667 360 102.25 359.625C101.5 360.5 102.125 364.025 101.625 365.625C101.125 367.225 101.834 368.792 102.25 369.375L137.125 371C137.334 367.667 137.625 361 137.125 361C136.5 361 132.5 355.625 130.375 355.5C128.675 355.4 120.417 357.542 116.5 358.625C117 359.125 117.825 361.675 118.125 362.875C118.5 364.375 118.625 364.375 117.25 364.75C115.875 365.125 115.625 362.25 114.125 362.25H107.625Z" fill="#333230"/>
<path d="M134.125 361.125C134.725 360.125 144.375 358.708 148.25 358.25L150 369L130.5 370.125C131.459 367.542 133.525 362.125 134.125 361.125Z" fill="#272625"/>
<path d="M138.625 354C141.625 353.8 144.125 352.168 145.125 351.25C146.125 352.25 148.6 355 148 356C147.25 357.25 141.5 358.25 139 358.25C136.5 358.25 134.875 354.25 138.625 354Z" fill="#CDC7BB"/>
<path d="M123.875 368.875C117.5 368.625 112 370.125 105 368.625C92.5002 367.25 98.9223 368.068 95.7502 374.148H144.771C149.625 373 151.236 365.928 147.625 366.5C139.75 367.75 128.753 369.065 123.875 368.875Z" fill="#CDC7BB"/>
<path d="M149.5 368.625C147.8 369.325 124.75 369.375 124 368.875C125.75 368.5 138.63 367.04 141.5 366.875C145.875 366.625 147.542 366.293 149.5 366.375C150.209 366.875 151.2 367.925 149.5 368.625Z" fill="#882929"/>
</g>
<path d="M121.84 353.275C121.137 353.113 120.618 353.92 121.056 354.493L122.55 356.444L116.461 354.712C115.695 354.494 115.143 355.439 115.708 355.999L119.031 359.297C119.333 359.596 119.821 359.594 120.12 359.292C120.42 358.99 120.418 358.503 120.116 358.203L118.914 357.011L124.364 358.561C125.077 358.763 125.636 357.94 125.185 357.352L123.58 355.255L129.077 356.52C129.56 356.631 130.02 356.265 130.02 355.77C130.02 354.713 129.29 353.949 127.946 353.117L127.785 353.019L127.348 352.764C127.033 352.583 126.694 352.389 126.617 352.342C126.254 352.121 125.78 352.237 125.559 352.6C125.338 352.963 125.454 353.437 125.817 353.658L126.968 354.325C127.001 354.344 127.029 354.361 127.052 354.375C127.11 354.411 127.166 354.446 127.221 354.48L127.301 354.531L121.84 353.275Z" fill="#CDC7BB"/>
<path fill-rule="evenodd" clip-rule="evenodd" d="M128.317 351.288L128.301 350.277L128.299 349.89C128.261 347.653 126.783 346 124.835 346C123.873 346 123.09 346.401 122.55 347.14C122.032 347.845 121.755 348.838 121.755 349.977C121.755 351.03 122.38 351.977 123.449 352.688C124.395 353.319 125.611 353.697 126.631 353.697C127.121 353.697 127.48 353.61 127.735 353.43C127.969 353.267 128.121 353.026 128.209 352.688C128.271 352.452 128.303 352.175 128.314 351.808L128.317 351.617L128.317 351.288ZM126.778 351.511C126.777 351.799 126.766 352.008 126.747 352.155L126.673 352.157L126.631 352.158C125.92 352.158 125 351.871 124.302 351.407C123.628 350.958 123.295 350.454 123.295 349.978C123.295 349.145 123.483 348.471 123.792 348.051C124.045 347.705 124.367 347.54 124.835 347.54C125.91 347.54 126.76 348.506 126.76 349.978L126.761 350.227L126.778 351.414L126.778 351.511Z" fill="#CDC7BB"/>
<path fill-rule="evenodd" clip-rule="evenodd" d="M128.405 351.241L128.275 351.52L128.09 351.921L128.051 352.007C127.899 352.353 127.811 352.604 127.776 352.824C127.756 352.947 127.753 353.059 127.767 353.162L127.787 353.256L127.791 353.271L127.812 353.335L127.967 353.443L127.892 353.492C128.014 353.674 128.221 353.833 128.545 353.978C129.237 354.285 130.175 354.399 131.005 354.265C131.944 354.111 132.651 353.664 132.965 352.961C133.306 352.193 133.414 351.445 133.273 350.816C133.125 350.159 132.714 349.652 132.063 349.362C130.769 348.786 129.304 349.408 128.593 350.834L128.557 350.907L128.405 351.241ZM129.259 352.812L129.251 352.786L129.246 352.776L129.259 352.812ZM129.494 352.553L129.443 352.668C129.835 352.779 130.327 352.815 130.758 352.745C131.226 352.668 131.482 352.507 131.558 352.335C131.773 351.852 131.833 351.433 131.77 351.153C131.729 350.968 131.64 350.86 131.436 350.768C130.914 350.536 130.28 350.821 129.93 351.608L129.848 351.789L129.672 352.167L129.668 352.176L129.494 352.553Z" fill="#CDC7BB"/>
<path d="M124.5 367.375L121 360.75L123.625 359.5L128.125 362.125L125.625 358.625L128.125 357.5L131.75 364.125L129.25 365.125L124.375 362.25L126.875 366.25L124.5 367.375Z" fill="#882929" stroke="#CDC7BB" stroke-width="0.5"/>
<path d="M202.042 367.5C202.042 359.825 197.11 358.887 189.073 356.257C185.136 354.97 181.118 353.847 177.042 353.172C174.48 352.747 173.792 355 169.292 355C165.279 355 160.272 353.012 159.235 352.582C159.105 352.527 158.951 352.48 158.848 352.575C158.823 352.597 158.802 352.627 158.786 352.657C158.307 353.642 155.792 359.012 155.792 363.31C155.792 366.597 155.51 369.83 156.417 371.5C156.826 372.252 159.379 372.665 160.237 372.665H200.651C201.419 372.665 202.042 368.267 202.042 367.5Z" fill="#4E4B48"/>
<mask id="mask1_0_10672" style="mask-type:luminance" maskUnits="userSpaceOnUse" x="155" y="351" width="48" height="22">
<path fill-rule="evenodd" clip-rule="evenodd" d="M202.042 367.5C202.042 363.557 200.74 361.392 198.385 359.863C187.177 352.588 172.645 352.245 159.292 351.75C159.182 351.75 158.834 352.56 158.786 352.658C158.307 353.643 155.792 359.013 155.792 363.31C155.792 366.597 155.51 369.83 156.417 371.5C156.826 372.253 159.379 372.665 160.237 372.665H200.651C201.419 372.665 202.042 368.267 202.042 367.5Z" fill="white"/>
</mask>
<g mask="url(#mask1_0_10672)">
<path d="M196.167 362.25C200.042 362.25 201.125 360 201.542 359.625C202.292 360.5 201.667 364.025 202.167 365.625C202.667 367.225 201.958 368.792 201.542 369.375L166.667 371C166.458 367.667 166.167 361 166.667 361C167.292 361 171.292 355.625 173.417 355.5C175.117 355.4 183.375 357.542 187.292 358.625C186.792 359.125 185.967 361.675 185.667 362.875C185.292 364.375 185.167 364.375 186.542 364.75C187.917 365.125 188.167 362.25 189.667 362.25H196.167Z" fill="#333230"/>
<path d="M169.667 361.125C169.067 360.125 159.417 358.708 155.542 358.25L153.792 369L173.292 370.125C172.333 367.542 170.267 362.125 169.667 361.125Z" fill="#272625"/>
<path d="M165.167 354C162.167 353.8 159.667 352.168 158.667 351.25C157.667 352.25 155.192 355 155.792 356C156.542 357.25 162.292 358.25 164.792 358.25C167.292 358.25 168.917 354.25 165.167 354Z" fill="#CDC7BB"/>
<path d="M179.917 368.875C186.292 368.625 191.792 370.125 198.792 368.625C211.292 367.25 204.87 368.068 208.042 374.148H159.021C154.167 373 152.556 365.928 156.167 366.5C164.042 367.75 175.039 369.065 179.917 368.875Z" fill="#CDC7BB"/>
<path d="M154.292 368.625C155.992 369.325 179.042 369.375 179.792 368.875C178.042 368.5 165.162 367.04 162.292 366.875C157.917 366.625 156.25 366.293 154.292 366.375C153.583 366.875 152.592 367.925 154.292 368.625Z" fill="#882929"/>
</g>
<path d="M178.606 357.352C178.155 357.94 178.715 358.763 179.428 358.561L184.878 357.011L183.675 358.203C183.374 358.503 183.372 358.99 183.671 359.292C183.971 359.594 184.458 359.596 184.76 359.297L188.084 355.999C188.649 355.439 188.096 354.494 187.331 354.712L181.241 356.444L182.735 354.493C183.174 353.92 182.654 353.113 181.951 353.275L176.49 354.531C176.543 354.497 176.597 354.463 176.653 354.428L176.739 354.375C176.979 354.229 177.822 353.751 177.975 353.658C178.338 353.437 178.453 352.963 178.232 352.6C178.011 352.237 177.538 352.121 177.174 352.342L176.114 352.956C176.075 352.979 176.039 353 176.007 353.019L175.939 353.06C174.535 353.914 173.771 354.689 173.771 355.77C173.771 356.265 174.232 356.631 174.714 356.52L180.212 355.255L178.606 357.352Z" fill="#CDC7BB"/>
<path fill-rule="evenodd" clip-rule="evenodd" d="M175.484 350.702L175.491 350.216L175.493 349.89L175.495 349.802C175.569 347.61 177.034 346 178.957 346C179.918 346 180.701 346.401 181.241 347.139C181.759 347.845 182.037 348.838 182.037 349.977C182.037 351.03 181.411 351.977 180.343 352.688C179.396 353.319 178.18 353.697 177.16 353.697C176.671 353.697 176.312 353.61 176.056 353.43C175.823 353.267 175.671 353.026 175.582 352.687C175.505 352.392 175.475 352.035 175.473 351.514L175.474 351.289L175.482 350.812L175.482 350.787L175.484 350.702ZM177.035 352.069L177.044 352.155C177.056 352.155 177.068 352.156 177.08 352.156L177.16 352.158C177.871 352.158 178.791 351.871 179.489 351.407C180.163 350.958 180.496 350.454 180.496 349.978C180.496 349.145 180.308 348.471 179.998 348.05C179.746 347.705 179.424 347.54 178.956 347.54C177.881 347.54 177.031 348.506 177.031 349.978L177.031 350.103L177.029 350.355L177.021 350.803L177.013 351.41L177.014 351.66C177.017 351.826 177.024 351.96 177.035 352.069Z" fill="#CDC7BB"/>
<path fill-rule="evenodd" clip-rule="evenodd" d="M175.268 350.982L175.297 351.046L175.517 351.521L175.721 351.965L175.774 352.085C175.906 352.392 175.983 352.621 176.015 352.823C176.036 352.947 176.038 353.059 176.021 353.182L176.005 353.255L176.002 353.268L175.996 353.286L175.804 353.429L175.899 353.492C175.778 353.674 175.57 353.833 175.245 353.979C174.554 354.286 173.616 354.399 172.784 354.265C171.848 354.112 171.14 353.664 170.825 352.96C170.485 352.193 170.378 351.445 170.519 350.816C170.666 350.159 171.077 349.653 171.73 349.361C173.066 348.767 174.586 349.451 175.268 350.982ZM175.981 353.335L175.986 353.317L175.971 353.36L175.981 353.335ZM173.831 351.542L173.862 351.608L173.943 351.789L174.298 352.553L174.349 352.668L174.257 352.693C173.882 352.784 173.431 352.809 173.032 352.745C172.566 352.669 172.31 352.507 172.233 352.333C172.019 351.852 171.959 351.433 172.022 351.154C172.063 350.968 172.151 350.86 172.357 350.768C172.863 350.543 173.475 350.806 173.831 351.542ZM174.522 352.844L174.532 352.813C174.528 352.825 174.525 352.834 174.522 352.844ZM174.539 352.794L174.532 352.813L174.535 352.805L174.535 352.805L174.549 352.767L174.539 352.794L174.539 352.794Z" fill="#CDC7BB"/>
<path d="M179.292 367.375L182.792 360.75L180.167 359.5L175.667 362.125L178.167 358.625L175.667 357.5L172.042 364.125L174.542 365.125L179.417 362.25L176.917 366.25L179.292 367.375Z" fill="#882929" stroke="#CDC7BB" stroke-width="0.5"/>
<path d="M114.5 247H148.25L147 336.948V343H124L122.972 335.325L114.5 247Z" fill="#445A73"/>
<path d="M147.929 248.505H181.793L180.5 336L179 343L157.25 344.5L156.435 337L147.929 248.505Z" fill="#445A73"/>
<path d="M122.5 340H147.5V346H123.196L122.5 340Z" fill="#3E4A57"/>
<path d="M156.25 340.5H179.75L178.75 346H157.186L156.25 340.5Z" fill="#3E4A57"/>
<path d="M104.875 239.788C104.723 235.855 105.104 230.442 105.962 224.39L106.07 223.644C107.842 211.578 111.157 199.188 114.317 192.882L114.414 192.689C116.738 188.14 114.934 182.568 110.384 180.244C105.835 177.92 100.263 179.724 97.9392 184.274C93.5931 192.783 89.6685 207.519 87.645 221.793L87.5483 222.486L87.4552 223.175C86.587 229.699 86.2019 235.663 86.3887 240.501C86.5063 243.549 86.8473 246.208 87.481 248.51C88.4621 252.074 90.1325 254.994 93.1881 256.992C97.4639 259.788 103.196 258.588 105.992 254.312C108.292 250.795 107.888 246.293 105.293 243.25L105.214 243.158C105.056 242.379 104.93 241.227 104.875 239.788Z" fill="#EBBAAA"/>
<path d="M178.874 187.342C183.522 195.581 187.279 208.33 189.235 221.766C190.958 233.609 190.941 244.319 189.598 248.223L189.557 248.339C187.811 253.14 190.288 258.447 195.089 260.193C199.89 261.939 205.197 259.462 206.943 254.661C209.647 247.225 209.691 233.87 207.542 219.102C205.284 203.593 200.911 188.754 194.987 178.252C192.477 173.803 186.835 172.231 182.386 174.741C177.936 177.251 176.364 182.892 178.874 187.342Z" fill="#EBBAAA"/>
<rect x="97.4158" y="176.133" width="27.468" height="4.17175" transform="rotate(18 97.4158 176.133)" fill="#F1EDED"/>
<rect x="200.686" y="185.755" width="27.468" height="4.17175" transform="rotate(162 200.686 185.755)" fill="#F1EDED"/>
<path d="M115.139 165.029C115.347 156.425 122.235 149.478 130.836 149.197L150.917 148.54C152.554 148.488 154.193 148.573 155.813 148.798L175.415 151.508C184.063 152.704 190.216 160.522 189.345 169.208L185.637 206.18L187.498 259.149C187.516 259.603 165.954 259.172 165.5 259.149H130.836L111.134 256.176C110.699 256.152 110.366 255.774 110.402 255.338L114.252 201.576L115.139 165.029Z" fill="#D7DADD"/>
<path d="M147.779 170.943C157.741 170.943 165.816 162.868 165.816 152.906C165.816 142.944 157.741 134.868 147.779 134.868C137.817 134.868 129.741 142.944 129.741 152.906C129.741 162.868 137.817 170.943 147.779 170.943Z" fill="#E9E4E0"/>
<rect x="138" y="133.5" width="22" height="29.75" rx="9.47775" fill="#EBBAAA"/>
<rect x="106.036" y="146.75" width="36.928" height="89.9108" rx="18.464" transform="rotate(16.5 106.036 146.75)" fill="#A3A7AE"/>
<path d="M84.8004 247.25C83.2004 242.65 84.2502 220.5 86.2501 213L113.3 217.75C110.25 227.25 109.75 239.75 107.5 252L107.462 252.002C102.175 252.254 86.7956 252.986 84.8004 247.25Z" fill="#A3A7AE"/>
<path d="M91.5002 212.5L109.625 218L89.8752 216.125L91.5002 212.5Z" fill="#969BA3"/>
<path d="M96.0002 219.75L110 219L97.8752 222.875L96.0002 219.75Z" fill="#969BA3"/>
<rect width="39.4963" height="97.077" rx="19.7481" transform="matrix(-0.945519 0.325568 0.325568 0.945519 188.095 145.25)" fill="#A3A7AE"/>
<path d="M201 182.46C198.75 181.375 190.5 183.75 186 186.5V194.46C186 192.86 197.5 189.627 203.25 188.21C203 187.127 202.2 184.46 201 182.46Z" fill="#E8ECF3"/>
<path d="M203.25 188.365C197.875 187.625 191.125 190.75 186.625 193.5C186.625 196.25 188.25 202.465 188.25 200.865C188.25 199.265 199.5 196.281 205.25 194.865C205 193.781 204.45 190.365 203.25 188.365Z" fill="#3D507B"/>
<path d="M95.7502 182.269C98.0002 181.183 106.25 183.558 110.75 186.308V194.269C110.75 192.669 99.2502 189.435 93.5002 188.019C93.7502 186.935 94.5502 184.269 95.7502 182.269Z" fill="#E8ECF3"/>
<path d="M93.5002 188.173C98.8752 187.433 105.625 190.558 110.125 193.308C110.125 196.058 108.5 202.273 108.5 200.673C108.5 199.073 97.2502 196.089 91.5002 194.673C91.7502 193.589 92.3002 190.172 93.5002 188.173Z" fill="#3D507B"/>
<path d="M150.75 215.75C150.552 198.961 145 175.913 145 167.875C143.25 167.875 141.5 167.625 140.25 166.875C140.318 160.414 140.775 153.789 138.029 147.75L116.648 151.868C113.317 156.451 107.458 170.145 106.518 196.374C105.77 217.219 106.543 231.265 106.518 244.75C106.511 248.233 111.5 250.795 111.5 260.17C115.614 261.36 137.232 264.4 150.75 260.17C153.25 243.75 151.044 240.604 150.75 215.75Z" fill="#AEB4BF"/>
<path d="M213.5 248.25C215.1 243.65 215.5 227.5 213.5 220L185 218.75C188.05 228.25 184.5 238 186.75 250.25C192 250.5 211.5 254 213.5 248.25Z" fill="#A3A7AE"/>
<path d="M205.125 210.25L187 215.75L206.75 213.875L205.125 210.25Z" fill="#969BA3"/>
<path d="M201.75 218.25L187.75 217.5L199.875 221.375L201.75 218.25Z" fill="#969BA3"/>
<path d="M148.75 212.75C148.75 188.698 151.25 175.278 151.25 167.5C152.625 167.5 154.113 167.625 156 167C156.896 160.35 159.316 152.97 161.845 147.25L176.356 149.59C179.966 150.172 183.134 152.271 183.936 155.838C185.715 163.745 186.736 178.511 188.36 197.781C190 217.25 189.185 233.637 190 247C190.254 251.168 184.531 257.964 184.75 260.681C177.56 261.704 162.97 264.775 150.25 260.681C150.25 244.307 148.75 236.802 148.75 212.75Z" fill="#AEB4BF"/>
<path fill-rule="evenodd" clip-rule="evenodd" d="M137.803 203.906C138.093 201.994 138.675 199.992 139.59 198.134C141.394 194.473 144.57 191.234 149.491 190.503C152.04 190.124 154.729 190.569 156.564 192.21C158.481 193.924 159.153 196.652 158.19 200.113L158.187 200.122L158.185 200.13C157.539 202.331 156.368 204.322 154.217 205.755C152.336 207.007 149.812 207.763 146.465 207.972C146.501 208.094 146.548 208.215 146.606 208.329C146.753 208.618 146.978 208.876 147.366 209.05C147.771 209.232 148.461 209.368 149.606 209.198C153.148 208.672 156.761 205.819 158.825 200.814C159.114 198.892 159.697 196.877 160.618 195.008C162.421 191.348 165.597 188.109 170.518 187.377C173.067 186.998 175.756 187.443 177.591 189.084C179.508 190.799 180.18 193.526 179.217 196.988L179.215 196.996L179.212 197.005C178.566 199.206 177.396 201.196 175.244 202.63C173.363 203.882 170.84 204.637 167.492 204.846C167.529 204.968 167.575 205.089 167.633 205.204C167.78 205.492 168.005 205.751 168.393 205.925C168.798 206.106 169.488 206.243 170.633 206.072C174.28 205.53 178.003 202.523 180.032 197.238L180.322 196.481L181.132 196.438C181.854 196.4 182.6 196.625 183.199 196.927C183.793 197.227 184.43 197.698 184.816 198.329L185.139 198.856L184.916 199.432C182.784 204.945 178.305 211.562 169.751 212.834C166.706 213.286 164.138 212.911 162.202 211.642C161.295 211.046 160.57 210.283 160.016 209.387C157.448 212.562 153.805 215.204 148.724 215.959C145.679 216.412 143.111 216.037 141.175 214.767C140.349 214.225 139.675 213.544 139.142 212.751C138.549 213.59 137.935 214.355 137.301 215.06C135.358 217.22 133.263 218.783 131.118 220.214C131.088 220.339 131.054 220.483 131.019 220.637C130.901 221.146 130.767 221.743 130.689 222.148L130.683 222.182L130.674 222.216C129.6 226.502 127.58 231.786 121.771 232.65C119.764 232.948 118.06 232.571 116.78 231.635C115.508 230.705 114.79 229.319 114.569 227.854L114.568 227.845L114.567 227.836C114.082 224.263 116.707 221.695 118.807 220.246C117.534 220.143 116.418 219.629 115.529 218.8C114.351 217.701 113.649 216.124 113.393 214.423C113.031 212.013 113.32 207.453 114.695 203.332C116.049 199.269 118.658 195.086 123.308 194.395C125.576 194.058 127.185 194.747 128.258 195.58L128.411 194.962L128.613 194.15L129.44 194.027L135.986 193.054L137.826 192.781L137.384 194.588L133.208 211.666C134.987 209.748 136.425 207.328 137.803 203.906ZM149.887 198.912L149.888 198.908C149.95 198.676 149.997 198.473 150.026 198.299C149.72 198.41 149.397 198.632 149.06 198.99C148.618 199.46 148.224 200.09 147.891 200.764C147.735 201.079 147.598 201.393 147.479 201.689C148.119 201.538 148.532 201.292 148.816 201.036C149.333 200.568 149.635 199.879 149.886 198.916L149.887 198.912ZM170.915 195.782L170.914 195.786L170.913 195.79C170.662 196.754 170.36 197.443 169.843 197.91C169.559 198.167 169.146 198.412 168.506 198.564C168.625 198.267 168.762 197.953 168.918 197.638C169.251 196.964 169.645 196.335 170.088 195.865C170.424 195.507 170.747 195.285 171.053 195.173C171.024 195.348 170.977 195.551 170.915 195.782ZM122.158 212.063C122.174 212.062 122.194 212.06 122.217 212.056C122.838 211.964 123.497 211.423 124.086 210.637C124.359 210.273 124.574 209.914 124.721 209.644C124.794 209.509 124.849 209.4 124.884 209.327C124.885 209.325 124.886 209.323 124.887 209.321C124.888 209.32 124.888 209.319 124.889 209.318L126.479 202.784C126.434 202.636 126.366 202.462 126.275 202.308C126.18 202.147 126.093 202.063 126.033 202.026C126 202.005 125.943 201.974 125.794 201.996C125.471 202.044 125.002 202.32 124.452 203.08C123.921 203.813 123.44 204.829 123.047 205.972C122.657 207.105 122.373 208.306 122.21 209.372C122.044 210.465 122.021 211.317 122.091 211.788C122.111 211.921 122.137 212.009 122.158 212.063Z" fill="#3D507B"/>
<path d="M139.59 198.134L140.712 198.686L140.712 198.686L139.59 198.134ZM137.803 203.906L138.963 204.373L139.017 204.238L139.039 204.093L137.803 203.906ZM149.491 190.503L149.675 191.739L149.675 191.739L149.491 190.503ZM156.564 192.21L155.73 193.141L155.731 193.142L156.564 192.21ZM158.19 200.113L159.389 200.466L159.392 200.457L159.394 200.448L158.19 200.113ZM158.187 200.122L156.988 199.769L156.988 199.769L158.187 200.122ZM158.185 200.13L156.986 199.778L156.985 199.778L158.185 200.13ZM154.217 205.755L154.909 206.795L154.91 206.795L154.217 205.755ZM146.465 207.972L146.387 206.724L144.819 206.823L145.267 208.329L146.465 207.972ZM146.606 208.329L147.72 207.763L147.72 207.762L146.606 208.329ZM147.366 209.05L147.878 207.91L147.877 207.91L147.366 209.05ZM149.606 209.198L149.79 210.434L149.79 210.434L149.606 209.198ZM158.825 200.814L159.981 201.29L160.039 201.149L160.061 200.999L158.825 200.814ZM160.618 195.008L161.739 195.561L161.739 195.561L160.618 195.008ZM170.518 187.377L170.702 188.613L170.702 188.613L170.518 187.377ZM177.591 189.084L178.424 188.152L178.424 188.152L177.591 189.084ZM179.217 196.988L180.416 197.341L180.419 197.332L180.421 197.323L179.217 196.988ZM179.215 196.996L178.015 196.643L178.015 196.644L179.215 196.996ZM179.212 197.005L180.411 197.357L180.411 197.357L179.212 197.005ZM175.244 202.63L175.936 203.67L175.936 203.67L175.244 202.63ZM167.492 204.846L167.414 203.599L165.847 203.697L166.294 205.202L167.492 204.846ZM167.633 205.204L166.518 205.77L166.519 205.771L167.633 205.204ZM168.393 205.925L167.881 207.065L167.881 207.065L168.393 205.925ZM170.633 206.072L170.45 204.836L170.449 204.836L170.633 206.072ZM180.032 197.238L178.865 196.79L180.032 197.238ZM180.322 196.481L180.256 195.233L179.446 195.276L179.155 196.033L180.322 196.481ZM181.132 196.438L181.198 197.686L181.199 197.686L181.132 196.438ZM183.199 196.927L183.762 195.811L183.762 195.811L183.199 196.927ZM184.816 198.329L183.75 198.981L183.75 198.981L184.816 198.329ZM185.139 198.856L186.305 199.307L186.528 198.731L186.205 198.203L185.139 198.856ZM184.916 199.432L183.75 198.981L183.75 198.981L184.916 199.432ZM169.751 212.834L169.935 214.07L169.935 214.07L169.751 212.834ZM162.202 211.642L161.516 212.687L161.517 212.687L162.202 211.642ZM160.016 209.387L161.079 208.729L160.152 207.23L159.044 208.601L160.016 209.387ZM148.724 215.959L148.54 214.723L148.54 214.723L148.724 215.959ZM141.175 214.767L140.489 215.812L140.489 215.812L141.175 214.767ZM139.142 212.751L140.18 212.054L139.169 210.548L138.122 212.029L139.142 212.751ZM137.301 215.06L138.23 215.895L138.231 215.895L137.301 215.06ZM131.118 220.214L130.424 219.174L130.015 219.447L129.901 219.926L131.118 220.214ZM131.019 220.637L129.801 220.354L129.801 220.355L131.019 220.637ZM130.689 222.148L129.461 221.913L129.461 221.916L130.689 222.148ZM130.683 222.182L131.893 222.494L131.903 222.454L131.911 222.413L130.683 222.182ZM130.674 222.216L129.463 221.904L129.461 221.912L130.674 222.216ZM121.771 232.65L121.955 233.886L121.955 233.886L121.771 232.65ZM116.78 231.635L116.042 232.644L116.042 232.644L116.78 231.635ZM114.569 227.854L113.332 228.03L113.333 228.039L114.569 227.854ZM114.568 227.845L113.33 228.017L113.331 228.022L114.568 227.845ZM114.567 227.836L113.328 228.004L113.329 228.008L114.567 227.836ZM118.807 220.246L119.517 221.275L122.402 219.283L118.907 219L118.807 220.246ZM115.529 218.8L114.676 219.714L114.677 219.714L115.529 218.8ZM113.393 214.423L114.629 214.238L114.629 214.237L113.393 214.423ZM114.695 203.332L115.88 203.727L115.88 203.727L114.695 203.332ZM123.308 194.395L123.125 193.158L123.125 193.158L123.308 194.395ZM128.258 195.58L127.491 196.567L129.008 197.744L129.471 195.881L128.258 195.58ZM128.411 194.962L127.198 194.661L127.198 194.661L128.411 194.962ZM128.613 194.15L128.429 192.914L127.601 193.037L127.399 193.849L128.613 194.15ZM129.44 194.027L129.624 195.264L129.624 195.264L129.44 194.027ZM135.986 193.054L136.17 194.291L136.17 194.291L135.986 193.054ZM137.826 192.781L139.04 193.078L139.482 191.271L137.642 191.544L137.826 192.781ZM137.384 194.588L138.599 194.884L138.599 194.884L137.384 194.588ZM133.208 211.666L131.994 211.369L130.85 216.046L134.124 212.516L133.208 211.666ZM149.888 198.908L151.081 199.281L151.089 199.256L151.096 199.231L149.888 198.908ZM149.887 198.912L148.694 198.539L148.683 198.574L148.674 198.609L149.887 198.912ZM150.026 198.299L151.259 198.507L151.616 196.39L149.599 197.124L150.026 198.299ZM149.06 198.99L149.971 199.847L149.971 199.847L149.06 198.99ZM147.891 200.764L146.77 200.209L146.77 200.21L147.891 200.764ZM147.479 201.689L146.318 201.223L145.421 203.461L147.766 202.905L147.479 201.689ZM148.816 201.036L147.977 200.108L147.977 200.108L148.816 201.036ZM149.886 198.916L151.095 199.232L151.098 199.219L149.886 198.916ZM170.915 195.782L169.708 195.458L169.705 195.468L169.702 195.479L170.915 195.782ZM170.913 195.79L172.123 196.106L172.126 196.093L170.913 195.79ZM169.843 197.91L169.005 196.983L169.005 196.983L169.843 197.91ZM168.506 198.564L167.346 198.098L166.448 200.335L168.794 199.78L168.506 198.564ZM168.918 197.638L167.798 197.084L167.797 197.084L168.918 197.638ZM170.088 195.865L170.998 196.721L170.998 196.721L170.088 195.865ZM171.053 195.173L172.286 195.382L172.643 193.266L170.627 193.998L171.053 195.173ZM122.217 212.056L122.033 210.82L122.026 210.821L122.217 212.056ZM122.158 212.063L120.99 212.51L121.323 213.38L122.252 213.31L122.158 212.063ZM124.086 210.637L123.086 209.887L123.086 209.887L124.086 210.637ZM124.721 209.644L125.819 210.242L125.819 210.241L124.721 209.644ZM124.884 209.327L123.783 208.735L123.77 208.759L123.758 208.784L124.884 209.327ZM124.887 209.321L123.756 208.789L123.756 208.79L124.887 209.321ZM124.889 209.318L126.007 209.876L126.07 209.75L126.103 209.613L124.889 209.318ZM126.479 202.784L127.694 203.08L127.775 202.746L127.674 202.417L126.479 202.784ZM126.275 202.308L127.352 201.673L127.352 201.672L126.275 202.308ZM126.033 202.026L126.697 200.966L126.688 200.961L126.033 202.026ZM125.794 201.996L125.977 203.232L125.978 203.232L125.794 201.996ZM124.452 203.08L123.439 202.347L123.439 202.347L124.452 203.08ZM123.047 205.972L121.865 205.565L121.865 205.565L123.047 205.972ZM122.21 209.372L120.975 209.184L120.975 209.184L122.21 209.372ZM122.091 211.788L120.855 211.974L120.855 211.974L122.091 211.788ZM138.469 197.581C137.491 199.567 136.874 201.694 136.567 203.719L139.039 204.093C139.312 202.294 139.859 200.417 140.712 198.686L138.469 197.581ZM149.307 189.266C143.87 190.074 140.398 193.666 138.469 197.581L140.712 198.686C142.389 195.28 145.27 192.394 149.675 191.739L149.307 189.266ZM157.397 191.278C155.192 189.306 152.078 188.854 149.307 189.266L149.675 191.739C152.002 191.393 154.266 191.832 155.73 193.141L157.397 191.278ZM159.394 200.448C160.444 196.672 159.768 193.398 157.397 191.278L155.731 193.142C157.193 194.45 157.861 196.631 156.986 199.778L159.394 200.448ZM159.386 200.475L159.389 200.466L156.991 199.76L156.988 199.769L159.386 200.475ZM159.384 200.483L159.387 200.474L156.988 199.769L156.986 199.778L159.384 200.483ZM154.91 206.795C157.362 205.161 158.677 202.892 159.384 200.482L156.985 199.778C156.401 201.77 155.374 203.482 153.524 204.715L154.91 206.795ZM146.543 209.22C150.029 209.002 152.789 208.208 154.909 206.795L153.524 204.715C151.884 205.807 149.595 206.524 146.387 206.724L146.543 209.22ZM147.72 207.762C147.701 207.725 147.681 207.676 147.663 207.615L145.267 208.329C145.321 208.511 145.394 208.704 145.492 208.897L147.72 207.762ZM147.877 207.91C147.816 207.882 147.789 207.859 147.777 207.846C147.763 207.833 147.744 207.809 147.72 207.763L145.492 208.896C145.75 209.404 146.172 209.884 146.854 210.19L147.877 207.91ZM149.423 207.962C148.439 208.108 148.005 207.967 147.878 207.91L146.853 210.19C147.537 210.497 148.482 210.629 149.79 210.434L149.423 207.962ZM157.67 200.337C155.731 205.039 152.429 207.515 149.422 207.962L149.79 210.434C153.867 209.828 157.792 206.599 159.981 201.29L157.67 200.337ZM159.496 194.456C158.513 196.453 157.894 198.593 157.589 200.628L160.061 200.999C160.333 199.19 160.881 197.301 161.739 195.561L159.496 194.456ZM170.334 186.141C164.897 186.949 161.425 190.54 159.496 194.456L161.739 195.561C163.416 192.155 166.297 189.268 170.702 188.613L170.334 186.141ZM178.424 188.152C176.219 186.18 173.106 185.729 170.334 186.141L170.702 188.613C173.029 188.267 175.293 188.706 176.758 190.016L178.424 188.152ZM180.421 197.323C181.472 193.546 180.795 190.273 178.424 188.152L176.758 190.016C178.221 191.324 178.888 193.506 178.013 196.653L180.421 197.323ZM180.414 197.349L180.416 197.341L178.018 196.635L178.015 196.643L180.414 197.349ZM180.411 197.357L180.414 197.348L178.015 196.644L178.013 196.653L180.411 197.357ZM175.936 203.67C178.39 202.036 179.704 199.766 180.411 197.357L178.013 196.653C177.428 198.645 176.401 200.357 174.551 201.589L175.936 203.67ZM167.57 206.094C171.056 205.876 173.816 205.082 175.936 203.67L174.551 201.589C172.911 202.681 170.623 203.398 167.414 203.599L167.57 206.094ZM168.748 204.638C168.728 204.6 168.709 204.551 168.691 204.49L166.294 205.202C166.349 205.386 166.421 205.578 166.518 205.77L168.748 204.638ZM168.905 204.784C168.843 204.757 168.817 204.733 168.804 204.721C168.79 204.707 168.771 204.684 168.747 204.636L166.519 205.771C166.778 206.278 167.199 206.759 167.881 207.065L168.905 204.784ZM170.449 204.836C169.466 204.982 169.032 204.841 168.904 204.784L167.881 207.065C168.564 207.371 169.509 207.503 170.817 207.309L170.449 204.836ZM178.865 196.79C176.955 201.764 173.545 204.376 170.45 204.836L170.817 207.309C175.015 206.685 179.05 203.281 181.198 197.686L178.865 196.79ZM179.155 196.033L178.865 196.79L181.198 197.686L181.489 196.929L179.155 196.033ZM181.066 195.19L180.256 195.233L180.389 197.729L181.198 197.686L181.066 195.19ZM183.762 195.811C183.038 195.446 182.072 195.136 181.065 195.19L181.199 197.686C181.637 197.663 182.163 197.804 182.636 198.043L183.762 195.811ZM185.882 197.676C185.332 196.778 184.477 196.172 183.762 195.811L182.636 198.043C183.109 198.282 183.527 198.617 183.75 198.981L185.882 197.676ZM186.205 198.203L185.882 197.676L183.75 198.981L184.073 199.509L186.205 198.203ZM186.082 199.883L186.305 199.307L183.973 198.405L183.75 198.981L186.082 199.883ZM169.935 214.07C179.138 212.702 183.88 205.577 186.082 199.883L183.75 198.981C181.688 204.313 177.471 210.422 169.568 211.597L169.935 214.07ZM161.517 212.687C163.795 214.181 166.706 214.55 169.935 214.07L169.568 211.597C166.706 212.022 164.481 211.641 162.888 210.596L161.517 212.687ZM158.952 210.044C159.598 211.089 160.45 211.987 161.516 212.687L162.888 210.596C162.139 210.105 161.541 209.476 161.079 208.729L158.952 210.044ZM148.908 217.195C154.356 216.386 158.263 213.543 160.988 210.172L159.044 208.601C156.634 211.581 153.255 214.022 148.54 214.723L148.908 217.195ZM140.489 215.812C142.767 217.306 145.679 217.675 148.908 217.195L148.54 214.723C145.678 215.148 143.454 214.767 141.861 213.722L140.489 215.812ZM138.104 213.448C138.726 214.374 139.519 215.176 140.489 215.812L141.861 213.722C141.179 213.274 140.623 212.714 140.18 212.054L138.104 213.448ZM138.231 215.895C138.897 215.155 139.541 214.352 140.163 213.473L138.122 212.029C137.557 212.828 136.973 213.555 136.372 214.224L138.231 215.895ZM131.811 221.253C133.994 219.798 136.186 218.168 138.23 215.895L136.372 214.224C134.529 216.272 132.533 217.767 130.424 219.174L131.811 221.253ZM132.236 220.92C132.272 220.768 132.305 220.625 132.334 220.501L129.901 219.926C129.871 220.053 129.837 220.199 129.801 220.354L132.236 220.92ZM131.917 222.382C131.989 222.004 132.118 221.429 132.236 220.919L129.801 220.355C129.683 220.864 129.544 221.481 129.461 221.913L131.917 222.382ZM131.911 222.413L131.917 222.379L129.461 221.916L129.454 221.951L131.911 222.413ZM131.884 222.528L131.893 222.494L129.472 221.87L129.463 221.904L131.884 222.528ZM121.955 233.886C128.634 232.893 130.818 226.783 131.886 222.52L129.461 221.912C128.382 226.22 126.526 230.679 121.587 231.413L121.955 233.886ZM116.042 232.644C117.639 233.812 119.692 234.223 121.955 233.886L121.587 231.413C119.837 231.674 118.481 231.33 117.518 230.626L116.042 232.644ZM113.333 228.039C113.595 229.781 114.46 231.487 116.042 232.644L117.518 230.626C116.555 229.922 115.984 228.856 115.805 227.668L113.333 228.039ZM113.331 228.022L113.332 228.03L115.807 227.677L115.805 227.668L113.331 228.022ZM113.329 228.008L113.33 228.017L115.806 227.673L115.805 227.664L113.329 228.008ZM118.096 219.217C115.937 220.708 112.74 223.67 113.328 228.004L115.805 227.668C115.424 224.855 117.478 222.682 119.517 221.275L118.096 219.217ZM114.677 219.714C115.767 220.731 117.146 221.366 118.706 221.492L118.907 219C117.923 218.92 117.07 218.528 116.382 217.886L114.677 219.714ZM112.157 214.609C112.443 216.516 113.244 218.377 114.676 219.714L116.382 217.886C115.459 217.024 114.854 215.732 114.629 214.238L112.157 214.609ZM113.509 202.936C112.08 207.219 111.762 211.979 112.157 214.609L114.629 214.237C114.3 212.047 114.56 207.686 115.88 203.727L113.509 202.936ZM123.125 193.158C117.734 193.959 114.897 198.773 113.509 202.936L115.88 203.727C117.201 199.766 119.583 196.212 123.492 195.631L123.125 193.158ZM129.024 194.592C127.715 193.576 125.769 192.765 123.125 193.158L123.492 195.631C125.384 195.35 126.656 195.919 127.491 196.567L129.024 194.592ZM127.198 194.661L127.044 195.278L129.471 195.881L129.624 195.263L127.198 194.661ZM127.399 193.849L127.198 194.661L129.624 195.264L129.826 194.452L127.399 193.849ZM129.257 192.791L128.429 192.914L128.796 195.387L129.624 195.264L129.257 192.791ZM135.803 191.818L129.257 192.791L129.624 195.264L136.17 194.291L135.803 191.818ZM137.642 191.544L135.802 191.818L136.17 194.291L138.01 194.017L137.642 191.544ZM138.599 194.884L139.04 193.078L136.612 192.484L136.17 194.291L138.599 194.884ZM134.422 211.963L138.599 194.884L136.17 194.291L131.994 211.369L134.422 211.963ZM136.644 203.439C135.302 206.771 133.935 209.044 132.291 210.816L134.124 212.516C136.039 210.452 137.549 207.884 138.963 204.373L136.644 203.439ZM148.695 198.535L148.694 198.539L151.08 199.285L151.081 199.281L148.695 198.535ZM148.794 198.09C148.773 198.213 148.737 198.375 148.68 198.585L151.096 199.231C151.163 198.977 151.22 198.734 151.259 198.507L148.794 198.09ZM149.971 199.847C150.216 199.586 150.382 199.5 150.453 199.474L149.599 197.124C149.057 197.321 148.577 197.679 148.15 198.134L149.971 199.847ZM149.011 201.318C149.315 200.704 149.644 200.193 149.971 199.847L148.15 198.133C147.592 198.727 147.133 199.476 146.77 200.209L149.011 201.318ZM148.639 202.155C148.748 201.883 148.872 201.599 149.011 201.318L146.77 200.21C146.598 200.558 146.447 200.902 146.318 201.223L148.639 202.155ZM147.977 200.108C147.861 200.213 147.642 200.366 147.191 200.473L147.766 202.905C148.596 202.709 149.202 202.371 149.654 201.963L147.977 200.108ZM148.676 198.601C148.44 199.504 148.214 199.894 147.977 200.108L149.654 201.963C150.451 201.242 150.829 200.254 151.095 199.232L148.676 198.601ZM148.674 198.609L148.673 198.613L151.098 199.219L151.099 199.215L148.674 198.609ZM172.127 196.089L172.128 196.085L169.702 195.479L169.701 195.483L172.127 196.089ZM172.126 196.093L172.127 196.089L169.701 195.483L169.7 195.487L172.126 196.093ZM170.681 198.837C171.478 198.117 171.856 197.128 172.123 196.106L169.704 195.475C169.468 196.379 169.241 196.769 169.005 196.983L170.681 198.837ZM168.794 199.78C169.623 199.584 170.229 199.246 170.681 198.837L169.005 196.983C168.888 197.088 168.669 197.24 168.218 197.347L168.794 199.78ZM167.797 197.084C167.625 197.433 167.475 197.777 167.346 198.098L169.666 199.029C169.775 198.757 169.899 198.473 170.038 198.192L167.797 197.084ZM169.177 195.008C168.619 195.601 168.161 196.35 167.798 197.084L170.038 198.193C170.342 197.579 170.672 197.068 170.998 196.721L169.177 195.008ZM170.627 193.998C170.085 194.195 169.604 194.554 169.177 195.008L170.998 196.721C171.244 196.46 171.409 196.374 171.48 196.348L170.627 193.998ZM172.122 196.107C172.191 195.852 172.248 195.608 172.286 195.382L169.821 194.965C169.8 195.087 169.764 195.249 169.708 195.458L172.122 196.107ZM122.026 210.821C122.041 210.819 122.054 210.817 122.063 210.817L122.252 213.31C122.294 213.306 122.347 213.301 122.407 213.292L122.026 210.821ZM123.086 209.887C122.543 210.612 122.144 210.803 122.033 210.82L122.4 213.293C123.532 213.125 124.451 212.235 125.086 211.386L123.086 209.887ZM123.623 209.046C123.497 209.279 123.313 209.584 123.086 209.887L125.086 211.387C125.404 210.963 125.651 210.549 125.819 210.242L123.623 209.046ZM123.758 208.784C123.731 208.84 123.686 208.931 123.623 209.047L125.819 210.241C125.902 210.088 125.966 209.961 126.01 209.871L123.758 208.784ZM123.756 208.79C123.754 208.794 123.757 208.787 123.761 208.779C123.765 208.771 123.773 208.755 123.783 208.735L125.985 209.92C125.997 209.898 126.006 209.88 126.011 209.869C126.015 209.86 126.02 209.85 126.019 209.852L123.756 208.79ZM123.77 208.759C123.763 208.775 123.756 208.789 123.756 208.789L126.018 209.853C126.019 209.853 126.017 209.855 126.016 209.858C126.014 209.862 126.011 209.868 126.007 209.876L123.77 208.759ZM125.265 202.489L123.674 209.022L126.103 209.613L127.694 203.08L125.265 202.489ZM125.198 202.942C125.209 202.961 125.224 202.99 125.241 203.03C125.257 203.069 125.272 203.111 125.284 203.151L127.674 202.417C127.61 202.21 127.508 201.937 127.352 201.673L125.198 202.942ZM125.37 203.085C125.282 203.03 125.232 202.979 125.212 202.957C125.19 202.932 125.188 202.924 125.199 202.943L127.352 201.672C127.192 201.401 126.978 201.143 126.697 200.966L125.37 203.085ZM125.978 203.232C125.947 203.237 125.845 203.248 125.703 203.219C125.63 203.204 125.56 203.18 125.494 203.151C125.43 203.123 125.385 203.095 125.379 203.091L126.688 200.961C126.614 200.916 126.45 200.82 126.211 200.771C125.994 200.726 125.789 200.733 125.609 200.76L125.978 203.232ZM125.465 203.813C125.686 203.507 125.856 203.347 125.959 203.27C126.063 203.192 126.07 203.219 125.977 203.232L125.61 200.759C124.799 200.88 124.071 201.475 123.439 202.347L125.465 203.813ZM124.229 206.379C124.6 205.301 125.032 204.41 125.465 203.813L123.439 202.347C122.81 203.216 122.281 204.357 121.865 205.565L124.229 206.379ZM123.446 209.561C123.598 208.565 123.865 207.437 124.229 206.379L121.865 205.565C121.45 206.773 121.148 208.047 120.975 209.184L123.446 209.561ZM123.327 211.602C123.285 211.316 123.286 210.61 123.446 209.56L120.975 209.184C120.802 210.32 120.757 211.318 120.855 211.974L123.327 211.602ZM123.325 211.617C123.334 211.64 123.337 211.652 123.336 211.649C123.336 211.646 123.332 211.632 123.327 211.602L120.855 211.974C120.886 212.179 120.931 212.357 120.99 212.51L123.325 211.617Z" fill="#E8ECF3"/>
<path d="M146.125 246.75C146.125 239.95 145.083 197.75 143.25 177.75L140.625 167.25L146 167.5C146.428 170.967 147.5 179.5 149 186.75L151.375 167.5L155.625 167.25C155.625 171.917 153.75 182.35 153.75 186.75V264.75L146.125 264.25V246.75Z" fill="#9B9FA6"/>
<path d="M150.249 186.449L147.251 186.551L147.317 188.524L147.413 191.437C148.426 222.894 148.984 256.104 148.379 264.264L151.371 264.486C152.019 255.74 151.369 219.433 150.249 186.449Z" fill="#AEB4BF"/>
<path d="M176.172 151C178.972 149.6 172.672 146.75 169.922 145.25C167.672 144.583 162.722 143.05 159.922 147.25C156.422 152.5 153.079 183.787 155.672 177.5C165.672 153.25 172.672 152.75 176.172 151Z" fill="#B7BECB"/>
<path d="M122.25 151.5C119.45 150.1 125.75 147.25 128.5 145.75C130.75 145.083 135.7 143.55 138.5 147.75C142 153 145.343 184.287 142.75 178C132.75 153.75 125.75 153.25 122.25 151.5Z" fill="#B7BECB"/>
<path d="M132.75 158.75V182.882C132.75 183.849 133.534 184.632 134.5 184.632C135.466 184.632 136.25 183.849 136.25 182.882V158.75C136.25 157.784 135.466 157 134.5 157C133.534 157 132.75 157.784 132.75 158.75Z" fill="#E8ECF3"/>
<path d="M160.75 158.75V186C160.75 186.966 161.534 187.75 162.5 187.75C163.466 187.75 164.25 186.966 164.25 186V158.75C164.25 157.784 163.466 157 162.5 157C161.534 157 160.75 157.784 160.75 158.75Z" fill="#E8ECF3"/>
<path d="M131.25 256.125C125.65 256.525 115.75 254.75 110 252.75V261.25C113.25 263.75 121.625 263.5 126.25 263.5C132 263.5 141.25 265.25 151.25 263.75L150.75 256.125C147.25 256.875 136.85 255.725 131.25 256.125Z" fill="#B7BECB"/>
<path d="M166 257.25C171.6 257.65 182.5 257.125 187.25 253.25L187.75 262C182.75 263.25 175.875 264.25 174 264.25C165.903 264.25 159 265.5 149 264V255.625C152.5 256.375 160.4 256.85 166 257.25Z" fill="#B7BECB"/>
<path d="M184.317 115.883C192.5 115.883 199.133 109.25 199.133 101.067C199.133 92.8837 192.5 86.25 184.317 86.25C176.134 86.25 169.5 92.8837 169.5 101.067C169.5 109.25 176.134 115.883 184.317 115.883Z" fill="#EBBAAA"/>
<path d="M114.567 116.633C106.384 116.633 99.75 110 99.75 101.817C99.75 93.6337 106.384 87 114.567 87C122.75 87 129.383 93.6337 129.383 101.817C129.383 110 122.75 116.633 114.567 116.633Z" fill="#EBBAAA"/>
<path d="M108 75.0378C108 53.2017 125.702 35.5 147.538 35.5C169.923 35.5 187.843 54.066 187.051 76.4365L185.783 112.273C185.067 132.484 168.475 148.5 148.25 148.5C129.26 148.5 113.247 134.348 110.912 115.502L108 92V75.0378Z" fill="#F4D4C9"/>
<path d="M149.853 51.7501C130.802 51.7501 114.607 56.724 113.597 70.608C112.093 91.291 108.496 92.9548 105.769 83.363C105.353 81.9012 105.078 68.641 105.019 67.125C106.098 37.6552 137.974 30.5386 149.853 30.5386C159.588 38.4602 168.905 51.7501 149.853 51.7501Z" fill="#272727"/>
<path d="M107.591 70.5648C107.525 68.5483 108.812 66.8711 110.423 66.8711C112.094 66.8711 113.402 68.6703 113.244 70.7526L110.575 106.031C110.531 106.621 110.136 107.069 109.665 107.069C109.172 107.069 108.77 106.585 108.749 105.972L107.591 70.5648Z" fill="#272727"/>
<path d="M187.966 70.3996C188.032 68.4736 186.745 66.8716 185.134 66.8716C183.463 66.8716 182.155 68.5901 182.313 70.5788L184.982 104.275C185.026 104.838 185.421 105.266 185.892 105.266C186.385 105.266 186.787 104.803 186.808 104.218L187.966 70.3996Z" fill="#272727"/>
<path d="M150 50.75C169.631 50.75 179.191 58.6085 180 72.75C182.007 83.8405 185.862 100.233 190.5 67.25C188 33.75 159.199 30.5 146.959 30.5C136.927 38.4216 130.367 50.75 150 50.75Z" fill="#272727"/>
<path d="M124.941 37.6491L122.25 43.8947L148.233 42.0731L177 49.75V46.1067L174.958 44.9357V42.0731H172.36V37.6491H169.02L168.277 34.2661H165.308L163.544 30.883L160.482 31.924L159.554 29.8421H156.399V27.5L152.131 29.8421L151.017 27.5L149.161 29.8421L147.305 27.5L143.779 29.8421L141.552 27.5L139.139 29.8421H137.469L135.613 31.924L134.87 29.8421L131.715 34.2661L129.674 33.2252L126.983 38.2997L124.941 37.6491Z" fill="#272727"/>
<path d="M133.135 58.3633L129.788 49.8158L125.5 39L171.5 41.5L159.404 60.5L156.829 55.6157L153.996 58.3633L150.39 53.1737L148.072 58.3633L144.209 55.6157L139.316 58.3633L137.771 55.6157L133.135 58.3633Z" fill="#272727"/>
<path d="M140.565 125.183C145.462 127.903 151.242 127.833 157.479 125.282C158.463 124.879 158.934 123.755 158.532 122.771C158.129 121.787 157.005 121.316 156.021 121.719C150.789 123.859 146.21 123.915 142.435 121.817C141.505 121.301 140.334 121.636 139.817 122.565C139.301 123.495 139.636 124.667 140.565 125.183Z" fill="#C99584"/>
<path d="M161.143 93.979V101.166C161.143 102.823 162.486 104.166 164.143 104.166C165.8 104.166 167.143 102.823 167.143 101.166V93.979C167.143 92.3221 165.8 90.979 164.143 90.979C162.486 90.979 161.143 92.3221 161.143 93.979Z" fill="black"/>
<path d="M128.913 93.979V101.166C128.913 102.823 130.256 104.166 131.913 104.166C133.57 104.166 134.913 102.823 134.913 101.166V93.979C134.913 92.3221 133.57 90.979 131.913 90.979C130.256 90.979 128.913 92.3221 128.913 93.979Z" fill="black"/>
<path d="M158.926 84.6001L173.245 84.0996C174.625 84.0513 175.705 82.8936 175.656 81.5138C175.608 80.1339 174.45 79.0544 173.071 79.1026L158.751 79.6031C157.371 79.6514 156.292 80.8091 156.34 82.1889C156.388 83.5688 157.546 84.6483 158.926 84.6001Z" fill="#393939"/>
<path d="M137.486 79.6564L123.158 79.5309C121.777 79.5188 120.648 80.6282 120.636 82.0089C120.624 83.3895 121.734 84.5186 123.114 84.5307L137.442 84.6562C138.822 84.6683 139.952 83.5588 139.964 82.1782C139.976 80.7975 138.866 79.6685 137.486 79.6564Z" fill="#393939"/>
<path d="M146.18 101.702C144.662 104.381 143.777 107.308 143.891 109.696C144.048 112.977 146.107 115.182 149.574 115.182V110.932C148.491 110.932 148.189 110.609 148.136 109.493C148.065 108.01 148.723 105.834 149.877 103.798L146.18 101.702Z" fill="#EBBAAA"/>
<path d="M143.5 96.5H152.68" stroke="black" stroke-width="3.5"/>
<path fill-rule="evenodd" clip-rule="evenodd" d="M119.321 89.5675C117.189 89.7794 115.596 91.6009 115.626 93.7624L115.628 93.8456L115.931 102.946C115.976 104.291 116.644 105.473 117.739 106.088C121.118 107.984 125.016 109.25 129.125 109.25C133.183 109.25 137.295 108.741 141.042 107.973C142.361 107.702 143.424 106.765 143.854 105.493C144.242 104.343 144.576 103.213 144.823 102.161C145.131 100.847 145.286 99.7309 145.25 98.8755C145.198 97.6383 145.019 95.9648 144.754 94.0518L144.698 93.6527C144.45 91.9022 143.104 90.5274 141.36 90.2418L140.811 90.1531C136.431 89.4533 132.302 89 129.125 89C126.427 89 123.288 89.1892 120.003 89.5012L119.321 89.5675ZM119.179 102.837L118.876 93.7373C118.859 93.2392 119.198 92.8456 119.642 92.8015C123.076 92.46 126.367 92.25 129.124 92.25C132.036 92.25 135.932 92.6723 140.072 93.3265L140.835 93.4492C141.176 93.5051 141.431 93.7655 141.48 94.1091L141.556 94.6594C141.796 96.4099 141.957 97.9337 142.002 99.0106C142.022 99.4756 141.922 100.242 141.711 101.188L141.658 101.418C141.438 102.358 141.131 103.394 140.774 104.453C140.715 104.628 140.576 104.751 140.388 104.789C136.84 105.517 132.934 106 129.124 106C125.65 106 122.262 104.9 119.329 103.254C119.262 103.216 119.187 103.084 119.179 102.837Z" fill="#393939"/>
<path fill-rule="evenodd" clip-rule="evenodd" d="M180.627 93.8456L180.323 102.946C180.278 104.291 179.611 105.473 178.516 106.088C175.137 107.984 171.239 109.25 167.13 109.25C163.072 109.25 158.96 108.741 155.213 107.973C153.894 107.702 152.83 106.765 152.401 105.492C152.013 104.343 151.679 103.213 151.432 102.161C151.123 100.847 150.969 99.7309 151.005 98.8749C151.053 97.7236 151.212 96.1935 151.447 94.4442L151.501 94.052L151.557 93.6529C151.805 91.9022 153.15 90.5274 154.895 90.2418C159.478 89.4919 163.82 89 167.13 89C169.642 89 172.536 89.164 175.575 89.4384L176.252 89.5012L176.934 89.5675C179.093 89.7821 180.7 91.6479 180.627 93.8456ZM177.075 102.837L177.378 93.7374L177.378 93.6862C177.371 93.2125 177.04 92.8441 176.612 92.8015C173.177 92.46 169.887 92.25 167.129 92.25C164.339 92.25 160.645 92.6379 156.698 93.2459L156.182 93.3264L155.419 93.4492C155.077 93.5051 154.823 93.7655 154.774 94.1093C154.493 96.0899 154.301 97.8222 154.251 99.01C154.234 99.4383 154.317 100.121 154.494 100.964L154.543 101.188L154.595 101.418C154.816 102.358 155.122 103.394 155.48 104.453C155.539 104.628 155.678 104.751 155.865 104.789C159.414 105.517 163.319 106 167.129 106C170.604 106 173.991 104.9 176.925 103.254C176.992 103.216 177.066 103.084 177.075 102.837Z" fill="#393939"/>
</svg>
