<svg width="300" height="400" viewBox="0 0 300 400" fill="none" xmlns="http://www.w3.org/2000/svg">
<path d="M147.036 274.48C162.982 274.48 175.909 268.357 175.909 260.803C175.909 253.25 162.982 247.127 147.036 247.127C131.09 247.127 118.164 253.25 118.164 260.803C118.164 268.357 131.09 274.48 147.036 274.48Z" fill="#35383E"/>
<path d="M161.581 313.23V355.232C161.581 358.96 164.603 361.982 168.331 361.982C172.059 361.982 175.081 358.96 175.081 355.232V313.23C175.081 309.502 172.059 306.48 168.331 306.48C164.603 306.48 161.581 309.502 161.581 313.23Z" fill="#DCE1E9"/>
<path d="M127.608 313.963L131.79 352.233C132.195 355.939 135.527 358.615 139.233 358.21C142.939 357.805 145.615 354.473 145.21 350.767L141.028 312.497C140.623 308.791 137.29 306.115 133.584 306.52C129.879 306.925 127.203 310.258 127.608 313.963Z" fill="#DCE1E9"/>
<path d="M132.204 347.093C131.317 345.728 130 345.658 128.934 344.873C128.411 345.618 128.45 346.71 127.977 348.17L124.898 351.973L119.546 357.705L114.445 360.473L117.521 364.02C119.582 362.413 131.275 349.963 132.204 347.093Z" fill="#3B3937"/>
<path d="M150.282 365.88C150.282 365.88 150.398 359.663 149.045 356.233C147.693 352.8 146.252 343.935 146.252 343.935C146.252 343.935 143.928 346.47 139.559 346.51L131.324 346.58C131.324 346.58 124.155 356.59 122.048 357.933C119.941 359.275 108.006 361.88 108.006 361.88C105.739 361.9 103.917 363.753 103.937 366.02L103.955 368.11L128.848 367.893L150.282 365.88Z" fill="#1C1B19"/>
<path d="M128.622 352C129.238 351.035 130.495 348.957 130.59 348.357C136.348 349.307 144.097 349.115 146.961 347.84C147.73 350.082 148.125 353.125 148.125 353.125C147.634 354.13 142.122 356.107 140 356.5C138.867 355.635 138.027 355.417 137.147 354.925C135.768 354.152 131.164 352.145 128.622 352Z" fill="#D0271C"/>
<path d="M141.25 361C142.125 360.5 147.136 358.645 149.375 357.375C150.482 358.165 150.343 362.935 150.367 365.685L139.371 366.283C139.978 364.193 140.958 361.293 141.25 361Z" fill="#D0271C"/>
<path d="M134.477 359.938C133.3 360.325 132.335 360.33 131.769 359.948C130.308 358.943 131.121 357.253 131.468 356.59C130.823 357.413 130.182 358.24 129.695 359.13C128.926 360.52 128.647 362.018 129.263 362.935C130.369 364.593 132.768 363.675 134.287 362.905L148.389 355.768L134.477 359.938Z" fill="#D0271C"/>
<path d="M114.339 362.625C111.217 363.027 107.218 363.187 106.46 362.192L111.571 360.65L118.298 357.965L120.056 358.825L119.812 359.577L123.583 361.92L121.977 364.182L121.953 364.172C120.721 363.632 117.491 362.217 114.339 362.625Z" fill="#D0271C"/>
<path d="M129.459 348.41L128.13 347.892C127.721 347.733 127.261 347.935 127.101 348.344C126.942 348.753 127.145 349.214 127.554 349.373L128.883 349.89C129.291 350.05 129.752 349.847 129.911 349.438C130.07 349.029 129.868 348.569 129.459 348.41Z" fill="#1C1B19"/>
<path d="M127.479 350.677L126.15 350.16C125.741 350.001 125.28 350.203 125.121 350.612C124.962 351.021 125.164 351.481 125.573 351.641L126.902 352.158C127.311 352.317 127.772 352.115 127.931 351.706C128.09 351.297 127.888 350.837 127.479 350.677Z" fill="#1C1B19"/>
<path d="M125.748 352.942L124.42 352.424C124.011 352.265 123.55 352.468 123.391 352.876C123.232 353.285 123.434 353.746 123.843 353.905L125.172 354.423C125.581 354.582 126.041 354.38 126.2 353.971C126.36 353.562 126.157 353.101 125.748 352.942Z" fill="#1C1B19"/>
<path d="M123.768 355.21L122.439 354.692C122.031 354.533 121.57 354.735 121.411 355.144C121.252 355.553 121.454 356.013 121.863 356.173L123.192 356.69C123.6 356.849 124.061 356.647 124.22 356.238C124.379 355.829 124.177 355.369 123.768 355.21Z" fill="#1C1B19"/>
<path d="M120.788 357.484L119.459 356.967C119.05 356.808 118.59 357.01 118.431 357.419C118.271 357.828 118.474 358.288 118.883 358.448L120.211 358.965C120.62 359.124 121.081 358.922 121.24 358.513C121.399 358.104 121.197 357.644 120.788 357.484Z" fill="#1C1B19"/>
<path d="M150.584 365.62L127.156 366.885L103.843 366.028L103.502 369.08C103.399 370.005 104.11 370.82 105.041 370.845L126.71 371.39L138.805 371.418L150.895 370.915L150.584 365.62Z" fill="#D0CEC1"/>
<path d="M150.817 371.432L150.754 369.933L143.982 370.233L141.185 370.35C137.786 370.488 135.246 370.569 133.621 370.583L133.167 370.586L132.445 370.588C124.326 370.597 105.63 370.137 103.865 369.623L103.446 371.063C105.502 371.662 125.628 372.138 133.402 372.084L134.029 372.078L134.834 372.064C136.468 372.03 138.677 371.954 141.441 371.841L143.749 371.744L150.817 371.432Z" fill="#D0271C"/>
<path d="M174.705 346.843C175.592 345.478 176.908 345.408 177.975 344.623C178.498 345.368 178.459 346.46 178.932 347.92L182.011 351.723L187.363 357.455L192.464 360.223L189.387 363.77C187.327 362.163 175.633 349.713 174.705 346.843Z" fill="#3B3937"/>
<path d="M156.626 365.63C156.626 365.63 156.511 359.413 157.864 355.983C159.216 352.55 160.656 343.685 160.656 343.685C160.656 343.685 162.981 346.22 167.35 346.26L175.585 346.33C175.585 346.33 182.754 356.34 184.861 357.683C186.968 359.025 198.903 361.63 198.903 361.63C201.17 361.65 202.991 363.503 202.972 365.77L202.953 367.86L178.061 367.643L156.626 365.63Z" fill="#1C1B19"/>
<path d="M178.287 351.75C177.671 350.785 176.414 348.707 176.319 348.107C170.56 349.057 162.812 348.865 159.948 347.59C159.178 349.832 158.784 352.875 158.784 352.875C159.275 353.88 164.787 355.857 166.909 356.25C168.041 355.385 168.882 355.167 169.761 354.675C171.141 353.902 175.744 351.895 178.287 351.75Z" fill="#D0271C"/>
<path d="M165.659 360.75C164.784 360.25 159.773 358.395 157.534 357.125C156.427 357.915 156.566 362.685 156.542 365.435L167.537 366.033C166.93 363.943 165.95 361.043 165.659 360.75Z" fill="#D0271C"/>
<path d="M172.432 359.688C173.609 360.075 174.573 360.08 175.14 359.698C176.601 358.693 175.788 357.003 175.44 356.34C176.086 357.163 176.726 357.99 177.214 358.88C177.983 360.27 178.261 361.768 177.645 362.685C176.54 364.343 174.141 363.425 172.621 362.655L158.52 355.518L172.432 359.688Z" fill="#D0271C"/>
<path d="M192.57 362.375C195.692 362.777 199.69 362.937 200.449 361.942L195.337 360.4L188.611 357.715L186.853 358.575L187.096 359.327L183.326 361.67L184.931 363.932L184.956 363.922C186.188 363.382 189.418 361.967 192.57 362.375Z" fill="#D0271C"/>
<path d="M178.026 349.64L179.355 349.123C179.764 348.964 179.966 348.503 179.807 348.094C179.648 347.685 179.187 347.483 178.778 347.642L177.449 348.16C177.041 348.319 176.838 348.78 176.997 349.188C177.157 349.597 177.617 349.8 178.026 349.64Z" fill="#1C1B19"/>
<path d="M180.006 351.908L181.335 351.39C181.744 351.231 181.946 350.771 181.787 350.362C181.628 349.953 181.167 349.751 180.758 349.91L179.43 350.427C179.021 350.587 178.818 351.047 178.978 351.456C179.137 351.865 179.597 352.067 180.006 351.908Z" fill="#1C1B19"/>
<path d="M181.737 354.173L183.066 353.655C183.475 353.496 183.677 353.035 183.518 352.627C183.359 352.218 182.898 352.015 182.489 352.174L181.16 352.692C180.751 352.851 180.549 353.312 180.708 353.721C180.867 354.129 181.328 354.332 181.737 354.173Z" fill="#1C1B19"/>
<path d="M183.717 356.44L185.046 355.923C185.455 355.764 185.657 355.303 185.498 354.894C185.339 354.485 184.878 354.283 184.469 354.442L183.14 354.96C182.732 355.119 182.529 355.579 182.688 355.988C182.848 356.397 183.308 356.599 183.717 356.44Z" fill="#1C1B19"/>
<path d="M186.697 358.715L188.026 358.198C188.435 358.038 188.638 357.578 188.478 357.169C188.319 356.76 187.859 356.558 187.45 356.717L186.121 357.234C185.712 357.394 185.509 357.854 185.669 358.263C185.828 358.672 186.288 358.874 186.697 358.715Z" fill="#1C1B19"/>
<path d="M156.325 365.37L179.752 366.635L203.065 365.778L203.406 368.83C203.51 369.755 202.798 370.57 201.867 370.595L180.199 371.14L168.104 371.168L156.014 370.665L156.325 365.37Z" fill="#D0CEC1"/>
<path d="M156.155 369.683L156.092 371.182L163.159 371.494L166.247 371.623L168.315 371.701C170.372 371.775 171.999 371.82 173.179 371.832L173.275 371.833C180.872 371.898 201.386 371.418 203.463 370.813L203.044 369.373C201.224 369.903 181.41 370.376 173.742 370.336L173.096 370.331L172.346 370.319C170.706 370.288 168.422 370.21 165.527 370.092L163.806 370.021L156.155 369.683Z" fill="#D0271C"/>
<path d="M116 245.5H149.75L148.5 335.448L146.5 342.5L127.375 341.5L124.472 333.825L116 245.5Z" fill="#35383E"/>
<path d="M149.429 247.005H183.293L182 333.5L179.25 340.75L159.75 344.105L157.935 335.5L149.429 247.005Z" fill="#35383E"/>
<path d="M126.5 339.5H147V345.5H127.686L126.5 339.5Z" fill="#1D1F23"/>
<path d="M159 339.5H179.5L178.5 345H159.936L159 339.5Z" fill="#1D1F23"/>
<path d="M103.124 238.788C102.975 234.918 103.342 229.613 104.171 223.678L104.211 223.39C105.955 211.091 109.341 198.318 112.566 191.882L112.664 191.689C114.988 187.14 113.184 181.568 108.634 179.244C104.085 176.92 98.5126 178.724 96.1888 183.274C91.8861 191.697 87.9966 206.225 85.9558 220.365L85.8946 220.793C84.8933 227.856 84.4383 234.324 84.6382 239.501C84.7558 242.549 85.0968 245.208 85.7306 247.51C86.7116 251.074 88.3821 253.994 91.4377 255.992C95.7134 258.788 101.446 257.588 104.242 253.312C106.541 249.795 106.138 245.293 103.543 242.25L103.463 242.158C103.305 241.379 103.18 240.227 103.124 238.788Z" fill="#EBBAAA"/>
<path d="M180.374 185.842C185.021 194.081 188.778 206.83 190.734 220.266C192.458 232.109 192.44 242.819 191.098 246.723L191.056 246.839C189.311 251.64 191.787 256.947 196.589 258.693C201.39 260.439 206.697 257.962 208.443 253.161C211.147 245.725 211.191 232.37 209.041 217.602C206.784 202.093 202.411 187.254 196.487 176.752C193.977 172.303 188.335 170.731 183.885 173.241C179.436 175.751 177.864 181.392 180.374 185.842Z" fill="#EBBAAA"/>
<rect x="95.6653" y="175.133" width="27.468" height="4.17175" transform="rotate(18 95.6653 175.133)" fill="#F1EDED"/>
<rect x="202.185" y="184.255" width="27.468" height="4.17175" transform="rotate(162 202.185 184.255)" fill="#F1EDED"/>
<path d="M116.638 163.529C116.847 154.925 123.734 147.978 132.336 147.697L152.417 147.04C154.053 146.988 155.692 147.073 157.313 147.298L176.915 150.008C185.562 151.204 191.716 159.022 190.845 167.708L187.137 204.68L188.997 257.649C189.015 258.103 167.453 257.672 167 257.649H132.336L112.634 254.676C112.198 254.652 111.866 254.274 111.902 253.838L115.752 200.076L116.638 163.529Z" fill="#A6612E"/>
<path d="M149.278 169.443C159.24 169.443 167.316 161.368 167.316 151.406C167.316 141.444 159.24 133.368 149.278 133.368C139.316 133.368 131.24 141.444 131.24 151.406C131.24 161.368 139.316 169.443 149.278 169.443Z" fill="#9A4E16"/>
<rect x="139.486" y="132.08" width="19.5837" height="29.6332" rx="9.47775" fill="#EBBAAA"/>
<rect x="104.286" y="145.75" width="36.928" height="89.9108" rx="18.464" transform="rotate(16.5 104.286 145.75)" fill="#D1D6DF"/>
<path d="M83.0499 246.25C81.4499 241.65 82.4997 219.5 84.4996 212L111.55 216.75C108.5 226.25 108 238.75 105.75 251L105.711 251.002C100.425 251.254 85.045 251.986 83.0499 246.25Z" fill="#D1D6DF"/>
<path d="M89.7498 211.5L107.875 217L88.1248 215.125L89.7498 211.5Z" fill="#BAC1CF"/>
<path d="M94.2498 218.75L108.25 218L96.1248 221.875L94.2498 218.75Z" fill="#BAC1CF"/>
<path d="M101.125 248.75C102.16 248.75 103 247.911 103 246.875C103 245.839 102.16 245 101.125 245C100.089 245 99.2498 245.839 99.2498 246.875C99.2498 247.911 100.089 248.75 101.125 248.75Z" fill="#9CA8BB"/>
<rect width="39.4963" height="97.077" rx="19.7481" transform="matrix(-0.945519 0.325568 0.325568 0.945519 189.594 143.75)" fill="#D1D6DF"/>
<path d="M145.75 212.25C145.551 195.461 146.5 174.413 146.5 166.375C144.75 166.375 143 166.125 141.75 165.375C141.817 158.914 142.274 152.289 139.528 146.25L118.147 150.368C114.817 154.951 108.957 168.645 108.017 194.874C107.077 221.104 108.997 246.859 108.017 258.67C112.131 259.86 135.231 263.826 148.75 259.595C148.75 242.673 146.044 237.104 145.75 212.25Z" fill="#D6DCE7"/>
<path d="M132.25 255.5C126.65 255.9 113.75 252 108 250V258.5C111.25 261 119.68 261.786 124.25 262.5C132.25 263.75 139.25 262.5 149.25 261L148.75 253.375C145.25 254.125 137.85 255.1 132.25 255.5Z" fill="#C4CAD3"/>
<path d="M215 246.75C216.6 242.15 217 226 215 218.5L186.5 217.25C189.55 226.75 190.05 239.25 192.3 251.5L192.338 251.502C197.625 251.754 213.005 252.486 215 246.75Z" fill="#D1D6DF"/>
<path d="M206.625 208.75L188.5 214.25L208.25 212.375L206.625 208.75Z" fill="#BAC1CF"/>
<path d="M203.25 216.75L189.25 216L201.375 219.875L203.25 216.75Z" fill="#BAC1CF"/>
<path d="M196.925 249.25C195.889 249.25 195.05 248.411 195.05 247.375C195.05 246.339 195.889 245.5 196.925 245.5C197.96 245.5 198.8 246.339 198.8 247.375C198.8 248.411 197.96 249.25 196.925 249.25Z" fill="#9CA8BB"/>
<path d="M153 212.875C153.187 196.629 152.75 173.778 152.75 166C154.125 166 155.612 166.125 157.5 165.5C158.396 158.85 160.816 151.47 163.345 145.75L177.856 148.09C181.466 148.672 184.656 150.751 185.587 154.286C187.662 162.165 189.184 176.92 189.859 196.281C190.744 221.662 192.078 247.753 193 259.181C185.81 260.204 167.22 263.275 154.5 259.181C154.5 242.807 152.723 236.925 153 212.875Z" fill="#D6DCE7"/>
<path d="M145.75 201.5C139.35 207.9 115.417 223.667 107.75 226.5V251L124.5 254.75C124.5 254.75 123.906 247.54 127.5 241.25C133.5 230.75 136.25 223.75 145.75 216.75V201.5Z" fill="#43519A"/>
<path d="M185.5 154.625C182.5 166.625 160.5 191 153 196.25V215C174.75 189.25 182 182.25 188.625 177.25C188.625 173.125 187.375 158.125 185.5 154.625Z" fill="#43519A"/>
<path d="M132.5 156.875C131.25 154.125 128.583 150.125 127.75 147.875C127 148.458 120.125 148.75 113 150.125C104.65 151.736 102 157.25 100.25 160.25C98.4998 163.25 92.9998 180.375 92.1248 187.25C93.8748 188.5 101.625 185.125 105 181.625C107.195 179.349 109.625 172.375 115 167.875C118.456 164.982 133.849 159.842 132.5 156.875Z" fill="#43519A"/>
<path d="M128.559 139.5C127.059 143 126.642 145.417 127.059 148.75C127.059 154.093 137.369 161.91 141.786 165.517C143.559 158.5 143.559 145.767 142.036 145.767C138.682 145.767 132.309 142.75 128.559 139.5Z" fill="#C4CAD3"/>
<path d="M170.714 139.5C172.214 142.75 172.631 145.417 172.214 148.75C172.214 154.093 161.654 162.16 157.237 165.767C155.464 158.75 155.714 145.767 157.237 145.767C160.592 145.767 166.964 142.75 170.714 139.5Z" fill="#C4CAD3"/>
<rect x="154.707" y="180.375" width="4.75" height="1.75" rx="0.875" transform="rotate(-3 154.707 180.375)" fill="#EAF0FA"/>
<rect x="154.75" y="199.25" width="4.75" height="1.75" rx="0.875" transform="rotate(-3 154.75 199.25)" fill="#EAF0FA"/>
<path d="M171.25 254.25C176.85 254.65 187.75 254.125 192.5 250.25L193 259C188 260.25 181.125 261.25 179.25 261.25C171.153 261.25 164.25 261.5 154.25 260V252.625C157.75 253.375 165.65 253.85 171.25 254.25Z" fill="#C4CAD3"/>
<rect x="154.75" y="217.749" width="4.75" height="1.75" rx="0.875" transform="rotate(-3 154.75 217.749)" fill="#EAF0FA"/>
<rect x="155.25" y="235.499" width="4.75" height="1.75" rx="0.875" transform="rotate(-3 155.25 235.499)" fill="#EAF0FA"/>
<path d="M141.875 183C142.91 183 143.75 182.161 143.75 181.125C143.75 180.089 142.91 179.25 141.875 179.25C140.839 179.25 140 180.089 140 181.125C140 182.161 140.839 183 141.875 183Z" fill="#9CA8BB"/>
<rect x="156.387" y="255.899" width="4.75" height="1.75" rx="0.875" transform="rotate(5.5 156.387 255.899)" fill="#9CA8BB"/>
<path d="M141.375 201.25C142.41 201.25 143.25 200.411 143.25 199.375C143.25 198.339 142.41 197.5 141.375 197.5C140.339 197.5 139.5 198.339 139.5 199.375C139.5 200.411 140.339 201.25 141.375 201.25Z" fill="#9CA8BB"/>
<path d="M141.625 220.75C142.66 220.75 143.5 219.911 143.5 218.875C143.5 217.839 142.66 217 141.625 217C140.589 217 139.75 217.839 139.75 218.875C139.75 219.911 140.589 220.75 141.625 220.75Z" fill="#9CA8BB"/>
<path d="M143.125 238.75C144.16 238.75 145 237.911 145 236.875C145 235.839 144.16 235 143.125 235C142.089 235 141.25 235.839 141.25 236.875C141.25 237.911 142.089 238.75 143.125 238.75Z" fill="#9CA8BB"/>
<path d="M145.375 259C146.41 259 147.25 258.161 147.25 257.125C147.25 256.089 146.41 255.25 145.375 255.25C144.339 255.25 143.5 256.089 143.5 257.125C143.5 258.161 144.339 259 145.375 259Z" fill="#9CA8BB"/>
<path d="M113.25 218H117.75L119 239.5L114.25 240L113.25 218Z" fill="#EAF0FA"/>
<path d="M185.25 218.5H180.75L179.5 240L184.25 240.5L185.25 218.5Z" fill="#EAF0FA"/>
<path d="M185.567 115.383C193.75 115.383 200.383 108.75 200.383 100.567C200.383 92.3837 193.75 85.75 185.567 85.75C177.384 85.75 170.75 92.3837 170.75 100.567C170.75 108.75 177.384 115.383 185.567 115.383Z" fill="#EBBAAA"/>
<path d="M115.817 116.133C107.634 116.133 101 109.5 101 101.317C101 93.1337 107.634 86.5 115.817 86.5C124 86.5 130.633 93.1337 130.633 101.317C130.633 109.5 124 116.133 115.817 116.133Z" fill="#EBBAAA"/>
<path d="M111.25 72.8278C111.25 51.798 128.298 34.75 149.328 34.75C170.588 34.75 187.73 52.1596 187.401 73.4175L186.817 111.13C186.503 131.446 169.944 147.75 149.625 147.75C129.908 147.75 113.615 132.368 112.483 112.683L111.25 91.25V72.8278Z" fill="#F4D4C9"/>
<path d="M142.315 126.933C147.212 129.653 152.992 129.583 159.229 127.032C160.213 126.629 160.684 125.505 160.282 124.521C159.879 123.537 158.755 123.066 157.771 123.469C152.539 125.609 147.96 125.665 144.185 123.567C143.255 123.051 142.084 123.386 141.567 124.315C141.051 125.245 141.386 126.417 142.315 126.933Z" fill="#C99584"/>
<path d="M150.279 56.224C131.229 56.224 115.857 56.224 114.848 70.108C113.343 90.791 109.746 92.4548 107.019 82.863C106.603 81.4012 103.729 71.6237 103.669 70.108C104.749 40.638 139.225 30.0386 151.103 30.0386C160.838 37.9602 169.332 56.224 150.279 56.224Z" fill="#272727"/>
<path d="M109.341 70.0653C109.275 68.0488 110.562 66.3716 112.173 66.3716C113.844 66.3716 115.152 68.1706 114.994 70.2531L112.325 105.532C112.281 106.122 111.886 106.57 111.415 106.57C110.922 106.57 110.52 106.086 110.499 105.473L109.341 70.0653Z" fill="#272727"/>
<path d="M189.216 69.8996C189.282 67.9736 187.995 66.3716 186.384 66.3716C184.713 66.3716 183.405 68.0901 183.563 70.0788L186.232 103.775C186.276 104.338 186.671 104.766 187.142 104.766C187.635 104.766 188.037 104.303 188.058 103.718L189.216 69.8996Z" fill="#272727"/>
<path d="M149.117 56.224C168.748 56.224 182.741 58.1567 183.55 72.2982C185.557 83.3887 191.796 100.128 196.434 67.1445C195.324 37.6747 160.624 30.0386 148.384 30.0386C138.352 37.9602 129.484 56.224 149.117 56.224Z" fill="#272727"/>
<path d="M119.521 38.8583L116.038 45.0788L149.667 43.2645L186.9 50.9105V47.2819L184.258 46.1155V43.2645H180.895V38.8583H176.571L175.61 35.4889H171.767L169.485 32.1194L165.521 33.1562L164.32 31.0827H160.237V28.75L154.712 31.0827L153.27 28.75L150.868 31.0827L148.466 28.75L143.902 31.0827L141.02 28.75L137.897 31.0827H135.735L133.333 33.1562L132.372 31.0827L128.289 35.4889L125.646 34.4521L122.163 39.5063L119.521 38.8583Z" fill="#272727"/>
<path d="M162.393 91.729V98.9158C162.393 100.573 163.736 101.916 165.393 101.916C167.05 101.916 168.393 100.573 168.393 98.9158V91.729C168.393 90.0721 167.05 88.729 165.393 88.729C163.736 88.729 162.393 90.0721 162.393 91.729Z" fill="black"/>
<path d="M130.163 91.729V98.9158C130.163 100.573 131.506 101.916 133.163 101.916C134.82 101.916 136.163 100.573 136.163 98.9158V91.729C136.163 90.0721 134.82 88.729 133.163 88.729C131.506 88.729 130.163 90.0721 130.163 91.729Z" fill="black"/>
<path d="M161.414 82.1586L175.716 83.0328C177.37 83.1339 178.792 81.8752 178.893 80.2215C178.995 78.5677 177.736 77.1451 176.082 77.044L161.781 76.1698C160.127 76.0687 158.704 77.3273 158.603 78.9811C158.502 80.6349 159.761 82.0575 161.414 82.1586Z" fill="#393939"/>
<path d="M138.797 76.4729L124.489 77.2222C122.834 77.3088 121.563 78.7204 121.65 80.375C121.737 82.0295 123.148 83.3006 124.803 83.214L139.111 82.4647C140.766 82.3781 142.037 80.9665 141.95 79.3119C141.864 77.6574 140.452 76.3863 138.797 76.4729Z" fill="#393939"/>
<path d="M147.43 101.202C145.912 103.881 145.027 106.808 145.141 109.196C145.298 112.477 147.357 114.682 150.825 114.682V110.432C149.741 110.432 149.44 110.109 149.386 108.993C149.316 107.51 149.973 105.334 151.127 103.298L147.43 101.202Z" fill="#EBBAAA"/>
<path d="M112.25 83V63.0042L135.25 52.75V66.5933L128.094 75.822V71.7202L122.472 75.822L119.405 71.7202L112.25 83Z" fill="#272727"/>
<path d="M185.75 84.5V61.3077L162.75 51V64.9155L165.05 77.027L169.139 72.9037L173.739 77.027L179.872 72.9037L185.75 84.5Z" fill="#272727"/>
<path d="M133.635 77.8633L130.288 69.3158L129 51H171.75L159.903 80L157.328 75.1157L154.496 77.8633L150.89 72.6737L148.572 77.8633L144.709 75.1157L139.816 77.8633L138.271 75.1157L133.635 77.8633Z" fill="#272727"/>
<path d="M173.922 39.8502C175.136 39.9348 176.192 39.8301 177.248 39.3262C178.808 38.5814 179.832 37.1082 180.116 34.8931C180.195 34.2769 179.759 33.7132 179.143 33.6343C178.527 33.5553 177.963 33.9908 177.884 34.6071C177.695 36.0795 177.134 36.8873 176.279 37.2956C175.651 37.5949 174.939 37.6656 174.078 37.6056C173.458 37.5625 172.921 38.0299 172.878 38.6497C172.835 39.2696 173.302 39.807 173.922 39.8502Z" fill="#272727"/>
<path d="M111.354 47.1991L111.453 47.1341C111.768 46.9227 112.46 46.4345 112.589 46.3477C113.531 45.7143 114.262 45.3993 114.988 45.3763C115.907 45.3472 116.853 45.8107 117.91 46.9982C118.323 47.4622 119.034 47.5034 119.498 47.0902C119.962 46.677 120.004 45.9658 119.59 45.5018C118.113 43.8435 116.548 43.0758 114.917 43.1274C113.716 43.1655 112.668 43.6014 111.459 44.3967L111.334 44.4803C111.147 44.6058 110.323 45.1881 110.146 45.3007C109.622 45.6342 109.467 46.3296 109.801 46.8538C110.134 47.378 110.83 47.5326 111.354 47.1991Z" fill="#272727"/>
<path d="M105.084 77.9402C104.03 76.1034 103.879 74.3405 104.454 72.9026C104.91 71.7661 105.783 70.9924 106.562 70.8761L106.62 70.8686C107.238 70.8022 107.685 70.2476 107.619 69.6298C107.552 69.0121 106.998 68.5651 106.38 68.6315C104.698 68.8124 103.124 70.1739 102.366 72.0661C101.529 74.1551 101.742 76.6372 103.132 79.06C103.441 79.5989 104.129 79.7851 104.668 79.4759C105.207 79.1667 105.393 78.4791 105.084 77.9402Z" fill="#272727"/>
<path d="M178.034 44.9899L178.141 44.9307C178.467 44.745 179.173 44.3219 179.306 44.2457C181.492 42.9991 183.025 42.9579 184.974 44.8145C185.424 45.2431 186.136 45.2259 186.564 44.776C186.993 44.3262 186.976 43.6141 186.526 43.1855C185.01 41.7409 183.429 41.0834 181.804 41.127C180.61 41.1591 179.553 41.5314 178.328 42.2141L178.192 42.2912C178 42.4004 177.15 42.9105 176.966 43.01C176.419 43.3051 176.215 43.9876 176.51 44.5343C176.805 45.0811 177.488 45.2851 178.034 44.9899Z" fill="#272727"/>
</svg>
