<svg width="300" height="400" viewBox="0 0 300 400" fill="none" xmlns="http://www.w3.org/2000/svg">
<path d="M163.375 300V362C163.375 365.797 166.453 368.875 170.25 368.875C174.047 368.875 177.125 365.797 177.125 362V300C177.125 296.203 174.047 293.125 170.25 293.125C166.453 293.125 163.375 296.203 163.375 300Z" fill="#EBBAAA"/>
<path fill-rule="evenodd" clip-rule="evenodd" d="M175.375 353C175.375 353 176.25 358.5 183 359.375L182.25 365.557H167L175.375 353Z" fill="#EBBAAA"/>
<path fill-rule="evenodd" clip-rule="evenodd" d="M122.875 354C122.875 354 122 359.5 115.25 360.375L116 366.557H131.25L122.875 354Z" fill="#EBBAAA"/>
<path d="M122.875 300V366.25C122.875 370.047 125.953 373.125 129.75 373.125C133.547 373.125 136.625 370.047 136.625 366.25V300C136.625 296.203 133.547 293.125 129.75 293.125C125.953 293.125 122.875 296.203 122.875 300Z" fill="#EBBAAA"/>
<path d="M150 277.75C165.878 277.75 178.75 271.874 178.75 264.625C178.75 257.376 165.878 251.5 150 251.5C134.122 251.5 121.25 257.376 121.25 264.625C121.25 271.874 134.122 277.75 150 277.75Z" fill="#E2D3BD"/>
<path d="M149.75 234.5H182.25V351H158.707L149.75 234.5Z" fill="#E2D3BD"/>
<path d="M150.25 234.5H117.75V351H141.293L150.25 234.5Z" fill="#E2D3BD"/>
<path d="M209.853 373.005C209.892 368.483 209.742 366.725 202.125 365.63C194.508 364.538 192.51 361.748 183.875 358.685C183.875 358.685 180.625 359.875 181.25 363.625C177.75 367 168.25 364.875 165.29 360.415C164.493 358.7 162.734 358.685 162.734 358.685C162.734 358.685 160.265 361.898 160.232 365.63C160.2 369.365 160.214 373.595 160.214 373.595L209.853 373.005Z" fill="#8D5D42"/>
<path d="M160.096 373.58L160.323 370.8L199.974 371.417L209.861 370.69L210.069 372.36C210.223 373.592 209.309 374.702 208.069 374.787L199.924 375.35L161.159 374.75C160.533 374.74 160.045 374.202 160.096 373.58Z" fill="#67432F"/>
<path d="M90.1367 373.005C90.0972 368.483 90.2472 366.725 97.8645 365.63C105.482 364.538 107.479 361.748 116.115 358.685C116.115 358.685 119.365 359.875 118.74 363.625C122.24 367 131.74 364.875 134.699 360.415C135.497 358.7 137.256 358.685 137.256 358.685C137.256 358.685 139.725 361.898 139.757 365.63C139.79 369.365 139.776 373.595 139.776 373.595L90.1367 373.005Z" fill="#8D5D42"/>
<path d="M139.893 373.58L139.667 370.8L100.016 371.417L90.129 370.69L89.9208 372.36C89.7668 373.592 90.6802 374.702 91.9202 374.787L100.065 375.35L138.831 374.75C139.457 374.74 139.944 374.202 139.893 373.58Z" fill="#67432F"/>
<path d="M169.287 183.545C174.005 191.909 178.558 205.105 181.427 218.39L181.576 219.089C182.854 225.133 183.692 230.812 184.004 235.511C184.161 237.87 184.18 239.921 184.069 241.581C184.022 242.278 183.954 242.885 183.869 243.391L183.849 243.506C183.782 243.88 183.714 244.152 183.661 244.307L183.65 244.339C181.904 249.14 184.381 254.447 189.182 256.193C193.983 257.939 199.291 255.462 201.037 250.661C203.748 243.205 202.876 230.073 199.51 214.485C196.279 199.523 191.143 184.636 185.4 174.455C182.89 170.006 177.248 168.434 172.799 170.944C168.349 173.454 166.777 179.095 169.287 183.545Z" fill="#EBBAAA"/>
<path d="M112.489 174.455C106.746 184.636 101.61 199.523 98.3792 214.485C95.0128 230.073 94.1411 243.205 96.8526 250.661C98.5985 255.462 103.906 257.939 108.707 256.193C113.46 254.465 115.935 249.246 114.29 244.483L114.239 244.339C114.188 244.2 114.121 243.944 114.054 243.585L114.04 243.506C113.946 242.978 113.87 242.331 113.82 241.581C113.709 239.921 113.728 237.87 113.885 235.511C114.203 230.722 115.068 224.914 116.387 218.74L116.462 218.39C119.331 205.105 123.884 191.909 128.602 183.545C131.112 179.095 129.54 173.454 125.091 170.944C120.641 168.434 114.999 170.006 112.489 174.455Z" fill="#EBBAAA"/>
<rect x="106.344" y="148.869" width="36.928" height="89.9108" rx="18.464" transform="rotate(10 106.344 148.869)" fill="#216F74"/>
<rect width="36.928" height="89.9108" rx="18.464" transform="matrix(-0.984808 0.173648 0.173648 0.984808 191.617 148.869)" fill="#216F74"/>
<path d="M94.0499 243.75C92.4499 239.15 93.4997 217 95.4996 209.5L122.55 214.25C119.5 223.75 119 236.25 116.75 248.5L116.711 248.502C111.425 248.754 96.0451 249.486 94.0499 243.75Z" fill="#216F74"/>
<path d="M203.5 245C205.1 240.4 205.5 224.25 203.5 216.75L175 215.5C178.05 225 178.55 237.5 180.8 249.75L180.838 249.752C186.125 250.004 201.505 250.736 203.5 245Z" fill="#216F74"/>
<path d="M113.068 159.657C112.746 153.193 117.413 147.552 123.823 146.657L150 143L176.176 146.657C182.587 147.552 187.253 153.193 186.932 159.657L185 198.5L187.399 260.403C187.454 261.821 186.32 263 184.901 263H115.098C113.68 263 112.545 261.821 112.6 260.403L115 198.5L113.068 159.657Z" fill="white"/>
<path d="M191.683 166.017C192.162 159.112 187.855 152.775 181.257 150.681L166.036 145.849C163.188 144.945 160.123 146.372 158.982 149.133L153.25 163L150 180.5V254.25L156.5 259.5H189.596C191.125 259.5 192.295 258.14 192.068 256.628L187.5 226.25L191.683 166.017Z" fill="#2F7F84"/>
<path d="M108.903 169.068C108.143 156.976 117.745 146.75 129.862 146.75H135.371C137.588 146.75 139.607 148.024 140.561 150.025L146.75 163L150 180.5V254.25L143.5 259.5H110.404C108.875 259.5 107.704 258.14 107.931 256.628L112.5 226.25L108.903 169.068Z" fill="#2F7F84"/>
<path d="M150 206.5C150.966 206.5 151.75 205.716 151.75 204.75C151.75 203.784 150.966 203 150 203C149.033 203 148.25 203.784 148.25 204.75C148.25 205.716 149.033 206.5 150 206.5Z" fill="white"/>
<path d="M149.75 221.75C150.716 221.75 151.5 220.966 151.5 220C151.5 219.034 150.716 218.25 149.75 218.25C148.783 218.25 148 219.034 148 220C148 220.966 148.783 221.75 149.75 221.75Z" fill="white"/>
<path d="M150 236.25C150.966 236.25 151.75 235.466 151.75 234.5C151.75 233.534 150.966 232.75 150 232.75C149.033 232.75 148.25 233.534 148.25 234.5C148.25 235.466 149.033 236.25 150 236.25Z" fill="white"/>
<path d="M150 192.25C150.966 192.25 151.75 191.466 151.75 190.5C151.75 189.534 150.966 188.75 150 188.75C149.033 188.75 148.25 189.534 148.25 190.5C148.25 191.466 149.033 192.25 150 192.25Z" fill="white"/>
<rect x="140.5" y="133.5" width="19" height="28.75" rx="9.47775" fill="#EBBAAA"/>
<path d="M152.5 161L159.25 141.25L168.5 146.5L162.75 167.75L152.5 161Z" fill="#216F74"/>
<path d="M147.5 161L140.75 141.25L131.5 146.5L137.25 167.75L147.5 161Z" fill="#216F74"/>
<path d="M158 186.75H183L180.5 210.024L170.5 215.5L160.5 210.024L158 186.75Z" fill="#216F74"/>
<path d="M185.625 112.25C193.564 112.25 200 105.814 200 97.875C200 89.936 193.564 83.5 185.625 83.5C177.686 83.5 171.25 89.936 171.25 97.875C171.25 105.814 177.686 112.25 185.625 112.25Z" fill="#EBBAAA"/>
<path d="M188.875 106C193.362 106 197 102.362 197 97.875C197 93.3878 193.362 89.75 188.875 89.75C184.387 89.75 180.75 93.3878 180.75 97.875C180.75 102.362 184.387 106 188.875 106Z" fill="#FFFBFB"/>
<rect x="190.366" y="99.2534" width="4.46063" height="16.4668" rx="2.23031" transform="rotate(15 190.366 99.2534)" fill="#E0E6ED"/>
<path d="M114.375 112.25C106.435 112.25 99.9995 105.814 99.9995 97.875C99.9995 89.936 106.435 83.5 114.375 83.5C122.314 83.5 128.75 89.936 128.75 97.875C128.75 105.814 122.314 112.25 114.375 112.25Z" fill="#EBBAAA"/>
<path d="M111.625 106C107.137 106 103.5 102.362 103.5 97.875C103.5 93.3878 107.137 89.75 111.625 89.75C116.112 89.75 119.75 93.3878 119.75 97.875C119.75 102.362 116.112 106 111.625 106Z" fill="#FFFBFB"/>
<rect width="4.46063" height="16.4668" rx="2.23031" transform="matrix(-0.965926 0.258819 0.258819 0.965926 109.633 99.2534)" fill="#E0E6ED"/>
<rect x="112.5" y="29.25" width="75" height="117.5" rx="37.5" fill="#F4D5CC"/>
<path fill-rule="evenodd" clip-rule="evenodd" d="M157 80C155.757 80 154.75 81.0073 154.75 82.25V92.75C154.75 97.7207 158.779 101.75 163.75 101.75H173.75C178.72 101.75 182.75 97.7207 182.75 92.75V82.25C182.75 81.0073 181.742 80 180.5 80H157ZM157.749 92.75V83H179.749V92.75C179.749 96.0638 177.063 98.75 173.749 98.75H163.749C160.435 98.75 157.749 96.0638 157.749 92.75Z" fill="#393939"/>
<rect x="143.75" y="85.5" width="12.5" height="2.5" fill="#393939"/>
<path fill-rule="evenodd" clip-rule="evenodd" d="M119.5 80C118.257 80 117.25 81.0073 117.25 82.25V92.75C117.25 97.7207 121.279 101.75 126.25 101.75H136.25C141.22 101.75 145.25 97.7207 145.25 92.75V82.25C145.25 81.0073 144.242 80 143 80H119.5ZM120.249 92.75V83H142.249V92.75C142.249 96.0638 139.563 98.75 136.249 98.75H126.249C122.935 98.75 120.249 96.0638 120.249 92.75Z" fill="#393939"/>
<path d="M149.447 50.155C130.965 50.155 117.302 50.155 116.322 63.625C115.504 74.875 110.185 70.5 109.75 59.38C110.797 30.7885 138.722 24.75 150.247 24.75C159.691 32.4355 167.932 50.155 149.447 50.155Z" fill="#393939"/>
<path d="M111.115 62.8025C111.052 61.2725 112.275 60 113.805 60C115.392 60 116.635 61.365 116.485 62.945L113.95 89.7125C113.907 90.16 113.532 90.5 113.085 90.5C112.617 90.5 112.235 90.1325 112.215 89.6675L111.115 62.8025Z" fill="#393939"/>
<path d="M188.495 62.8025C188.557 61.2725 187.335 60 185.805 60C184.217 60 182.975 61.365 183.125 62.945L185.66 89.7125C185.702 90.16 186.077 90.5 186.525 90.5C186.992 90.5 187.375 90.1325 187.395 89.6675L188.495 62.8025Z" fill="#393939"/>
<path d="M149.843 50.155C168.889 50.155 185.39 50.155 186.175 63.875C188.123 74.635 190.214 71.25 190.75 59.38C189.673 30.7885 161.007 24.75 149.132 24.75C139.399 32.4355 130.795 50.155 149.843 50.155Z" fill="#393939"/>
<path d="M122.716 59.555C122.061 50.8875 120.786 46.93 122.012 43.5L183.112 41.9966L190.249 64.63L187.59 81.8325C186.259 73.435 183.112 58.1275 177.341 53.769C168.426 47.0355 160.158 53.2525 155.759 58.1275C155.759 52.1675 153.204 52.3025 150.953 51.085C151.281 56.72 139.637 59.0113 134.114 59.0113C139.291 56.72 140.132 52.5493 137.677 50.5168C130.124 51.085 128.344 51.97 122.716 59.555Z" fill="#393939"/>
<path d="M162.634 84.6016V91.5741C162.634 93.2309 163.977 94.5741 165.634 94.5741C167.291 94.5741 168.634 93.2309 168.634 91.5741V84.6016C168.634 82.9447 167.291 81.6016 165.634 81.6016C163.977 81.6016 162.634 82.9447 162.634 84.6016Z" fill="black"/>
<path d="M131.365 84.6016V91.5741C131.365 93.2309 132.708 94.5741 134.365 94.5741C136.021 94.5741 137.365 93.2309 137.365 91.5741V84.6016C137.365 82.9447 136.021 81.6016 134.365 81.6016C132.708 81.6016 131.365 82.9447 131.365 84.6016Z" fill="black"/>
<path d="M162.898 74.8432L176.723 76.2955C178.371 76.4685 179.847 75.2731 180.02 73.6253C180.193 71.9775 178.998 70.5014 177.35 70.3283L163.525 68.876C161.877 68.7029 160.401 69.8984 160.228 71.5462C160.055 73.194 161.25 74.6701 162.898 74.8432Z" fill="#393939"/>
<path d="M137.473 68.876L123.648 70.3283C122 70.5014 120.805 71.9775 120.978 73.6253C121.151 75.2731 122.627 76.4685 124.275 76.2955L138.1 74.8432C139.748 74.6701 140.943 73.194 140.77 71.5462C140.597 69.8984 139.121 68.7029 137.473 68.876Z" fill="#393939"/>
<path d="M148.363 96.2021C146.885 98.8102 146.023 101.661 146.134 103.992C146.288 107.207 148.312 109.375 151.712 109.375V105.125L151.591 105.124C150.675 105.1 150.427 104.797 150.379 103.789C150.311 102.364 150.946 100.264 152.06 98.2978L148.363 96.2021Z" fill="#EBBAAA"/>
<path fill-rule="evenodd" clip-rule="evenodd" d="M136.25 116.755V121.705C136.25 129.325 142.427 135.5 150.045 135.5C157.665 135.5 163.84 129.325 163.84 121.705V116.755H136.25Z" fill="#393939"/>
<mask id="mask0_0_10877" style="mask-type:luminance" maskUnits="userSpaceOnUse" x="136" y="116" width="28" height="20">
<path fill-rule="evenodd" clip-rule="evenodd" d="M136.272 116.75C136.257 117.005 136.25 117.263 136.25 117.52V122.342C136.25 129.61 142.427 135.5 150.045 135.5C157.665 135.5 163.84 129.61 163.84 122.342V117.52C163.84 117.263 163.832 117.005 163.817 116.75H136.272Z" fill="white"/>
</mask>
<g mask="url(#mask0_0_10877)">
<path d="M150.045 139.923C154.639 139.923 158.364 137.896 158.364 135.395C158.364 132.894 154.639 130.867 150.045 130.867C145.45 130.867 141.725 132.894 141.725 135.395C141.725 137.896 145.45 139.923 150.045 139.923Z" fill="#FF6C6C"/>
</g>
<rect x="136.25" y="116.755" width="27.5907" height="5.68665" fill="white"/>
</svg>
